<?xml version="1.0" encoding="us-ascii" standalone="no"?><svg xmlns="http://www.w3.org/2000/svg" xmlns:xlink="http://www.w3.org/1999/xlink" contentStyleType="text/css" height="470px" preserveAspectRatio="none" style="width:552px;height:470px;background:#FFFFFF;" version="1.1" viewBox="0 0 552 470" width="552px" zoomAndPan="magnify"><defs/><g><rect fill="#FFFFFF" height="275.9102" style="stroke:#181818;stroke-width:1.0;" width="10" x="31" y="93.6211"/><rect fill="#FFFFFF" height="235.3281" style="stroke:#181818;stroke-width:1.0;" width="10" x="373" y="134.2031"/><line style="stroke:#181818;stroke-width:0.5;stroke-dasharray:5.0,5.0;" x1="36" x2="36" y1="83.6211" y2="387.5313"/><line style="stroke:#181818;stroke-width:0.5;stroke-dasharray:5.0,5.0;" x1="378" x2="378" y1="83.6211" y2="387.5313"/><text fill="#000000" font-family="sans-serif" font-size="14" lengthAdjust="spacing" textLength="56" x="5" y="80.1074">Manager</text><ellipse cx="36" cy="13.5" fill="#E2E2F0" rx="8" ry="8" style="stroke:#181818;stroke-width:0.5;"/><path d="M36,21.5 L36,48.5 M23,29.5 L49,29.5 M36,48.5 L23,63.5 M36,48.5 L49,63.5 " fill="none" style="stroke:#181818;stroke-width:0.5;"/><text fill="#000000" font-family="sans-serif" font-size="14" lengthAdjust="spacing" textLength="56" x="5" y="401.6387">Manager</text><ellipse cx="36" cy="413.6523" fill="#E2E2F0" rx="8" ry="8" style="stroke:#181818;stroke-width:0.5;"/><path d="M36,421.6523 L36,448.6523 M23,429.6523 L49,429.6523 M36,448.6523 L23,463.6523 M36,448.6523 L49,463.6523 " fill="none" style="stroke:#181818;stroke-width:0.5;"/><rect fill="#E2E2F0" height="32.6211" rx="2.5" ry="2.5" style="stroke:#181818;stroke-width:0.5;" width="64" x="346" y="50"/><text fill="#000000" font-family="sans-serif" font-size="14" lengthAdjust="spacing" textLength="50" x="353" y="72.1074">:System</text><rect fill="#E2E2F0" height="32.6211" rx="2.5" ry="2.5" style="stroke:#181818;stroke-width:0.5;" width="64" x="346" y="386.5313"/><text fill="#000000" font-family="sans-serif" font-size="14" lengthAdjust="spacing" textLength="50" x="353" y="408.6387">:System</text><rect fill="#FFFFFF" height="275.9102" style="stroke:#181818;stroke-width:1.0;" width="10" x="31" y="93.6211"/><rect fill="#FFFFFF" height="235.3281" style="stroke:#181818;stroke-width:1.0;" width="10" x="373" y="134.2031"/><polygon fill="#181818" points="361,130.2031,371,134.2031,361,138.2031,365,134.2031" style="stroke:#181818;stroke-width:1.0;"/><line style="stroke:#181818;stroke-width:1.0;" x1="41" x2="367" y1="134.2031" y2="134.2031"/><text fill="#000000" font-family="sans-serif" font-size="13" font-weight="bold" lengthAdjust="spacing" textLength="7" x="48" y="120.2949">1</text><text fill="#000000" font-family="sans-serif" font-size="13" lengthAdjust="spacing" textLength="139" x="59" y="111.6494">asks to set the course's</text><text fill="#000000" font-family="sans-serif" font-size="13" lengthAdjust="spacing" textLength="100" x="63" y="128.9404">teacher in charge</text><polygon fill="#181818" points="52,178.7852,42,182.7852,52,186.7852,48,182.7852" style="stroke:#181818;stroke-width:1.0;"/><line style="stroke:#181818;stroke-width:1.0;stroke-dasharray:2.0,2.0;" x1="46" x2="372" y1="182.7852" y2="182.7852"/><text fill="#000000" font-family="sans-serif" font-size="13" font-weight="bold" lengthAdjust="spacing" textLength="7" x="58" y="168.877">2</text><text fill="#000000" font-family="sans-serif" font-size="13" lengthAdjust="spacing" textLength="180" x="69" y="160.2314">presents list of courses without</text><text fill="#000000" font-family="sans-serif" font-size="13" lengthAdjust="spacing" textLength="236" x="73" y="177.5225">teacher in charge and not in closed state</text><polygon fill="#181818" points="361,210.0762,371,214.0762,361,218.0762,365,214.0762" style="stroke:#181818;stroke-width:1.0;"/><line style="stroke:#181818;stroke-width:1.0;" x1="41" x2="367" y1="214.0762" y2="214.0762"/><text fill="#000000" font-family="sans-serif" font-size="13" font-weight="bold" lengthAdjust="spacing" textLength="7" x="48" y="208.8135">3</text><text fill="#000000" font-family="sans-serif" font-size="13" lengthAdjust="spacing" textLength="96" x="59" y="208.8135">selects a course</text><polygon fill="#181818" points="52,241.3672,42,245.3672,52,249.3672,48,245.3672" style="stroke:#181818;stroke-width:1.0;"/><line style="stroke:#181818;stroke-width:1.0;stroke-dasharray:2.0,2.0;" x1="46" x2="372" y1="245.3672" y2="245.3672"/><text fill="#000000" font-family="sans-serif" font-size="13" font-weight="bold" lengthAdjust="spacing" textLength="7" x="58" y="240.1045">4</text><text fill="#000000" font-family="sans-serif" font-size="13" lengthAdjust="spacing" textLength="297" x="69" y="240.1045">presents list of teachers not assigned to the course</text><polygon fill="#181818" points="361,272.6582,371,276.6582,361,280.6582,365,276.6582" style="stroke:#181818;stroke-width:1.0;"/><line style="stroke:#181818;stroke-width:1.0;" x1="41" x2="367" y1="276.6582" y2="276.6582"/><text fill="#000000" font-family="sans-serif" font-size="13" font-weight="bold" lengthAdjust="spacing" textLength="7" x="48" y="271.3955">5</text><text fill="#000000" font-family="sans-serif" font-size="13" lengthAdjust="spacing" textLength="100" x="59" y="271.3955">selects a teacher</text><line style="stroke:#181818;stroke-width:1.0;" x1="383" x2="425" y1="325.2402" y2="325.2402"/><line style="stroke:#181818;stroke-width:1.0;" x1="425" x2="425" y1="325.2402" y2="338.2402"/><line style="stroke:#181818;stroke-width:1.0;" x1="384" x2="425" y1="338.2402" y2="338.2402"/><polygon fill="#181818" points="394,334.2402,384,338.2402,394,342.2402,390,338.2402" style="stroke:#181818;stroke-width:1.0;"/><text fill="#000000" font-family="sans-serif" font-size="13" font-weight="bold" lengthAdjust="spacing" textLength="7" x="390" y="311.332">6</text><text fill="#000000" font-family="sans-serif" font-size="13" lengthAdjust="spacing" textLength="92" x="401" y="302.6865">assigns teacher</text><text fill="#000000" font-family="sans-serif" font-size="13" lengthAdjust="spacing" textLength="140" x="405" y="319.9775">as the teacher in charge</text><polygon fill="#181818" points="47,365.5313,37,369.5313,47,373.5313,43,369.5313" style="stroke:#181818;stroke-width:1.0;"/><line style="stroke:#181818;stroke-width:1.0;stroke-dasharray:2.0,2.0;" x1="41" x2="377" y1="369.5313" y2="369.5313"/><text fill="#000000" font-family="sans-serif" font-size="13" font-weight="bold" lengthAdjust="spacing" textLength="7" x="53" y="364.2686">7</text><text fill="#000000" font-family="sans-serif" font-size="13" lengthAdjust="spacing" textLength="160" x="64" y="364.2686">presents success message</text><!--SRC=[ZP2nJiGm44JxVCKe3TNzG0h-m1KjpU8iYKLY8yyQnD-pEOKZuaud6cirMh_P6MbMSbjVj7OIhLJqGR9CMdi84RfDJHzYwdF0wH7zyFH5qxKVVE6Di0AgmMP5BArI7_YSOIfnregK4MUfanv05q9tcN1oSi20zwhKRCIIQ2YlEvFuJ3QNPhVGa3mY5pihIw6EeBdHrRtKHQEpPQV-ntztuzb0o3Hbvtlety1tVFRVHwC_3Mv0_knvEYzz8r_tT-TMjXYLnEgFR5MFUgFiWnYwRm00]--></g></svg>