<?xml version="1.0" encoding="us-ascii" standalone="no"?><svg xmlns="http://www.w3.org/2000/svg" xmlns:xlink="http://www.w3.org/1999/xlink" contentStyleType="text/css" height="486px" preserveAspectRatio="none" style="width:855px;height:486px;background:#FFFFFF;" version="1.1" viewBox="0 0 855 486" width="855.5px" zoomAndPan="magnify"><defs/><g><!--cluster http--><g id="cluster_http"><rect fill="none" height="50.5" rx="1.25" ry="1.25" style="stroke:#000000;stroke-width:0.75;" width="109.5" x="3.5" y="231.5"/><text fill="#000000" font-family="FG Virgil" font-size="7" font-weight="bold" lengthAdjust="spacing" textLength="14" x="51.25" y="240.0537">http</text></g><!--cluster boardmanagement--><g id="cluster_boardmanagement"><rect fill="none" height="167.5" rx="1.25" ry="1.25" style="stroke:#000000;stroke-width:0.75;" width="154" x="698.5" y="315.5"/><text fill="#000000" font-family="FG Virgil" font-size="7" font-weight="bold" lengthAdjust="spacing" textLength="65.5" x="742.75" y="324.0537">boardmanagement</text></g><!--cluster application--><g id="cluster_application"><rect fill="none" height="60.5" rx="1.25" ry="1.25" style="stroke:#000000;stroke-width:0.75;" width="113" x="719" y="410.5"/><text fill="#000000" font-family="FG Virgil" font-size="7" font-weight="bold" lengthAdjust="spacing" textLength="38.5" x="756.25" y="419.0537">application</text></g><!--cluster domain--><g id="cluster_domain"><rect fill="none" height="60.5" rx="1.25" ry="1.25" style="stroke:#000000;stroke-width:0.75;" width="130" x="710.5" y="338"/><text fill="#000000" font-family="FG Virgil" font-size="7" font-weight="bold" lengthAdjust="spacing" textLength="25.5" x="762.75" y="346.5537">domain</text></g><!--cluster postitmanagement--><g id="cluster_postitmanagement"><rect fill="none" height="300" rx="1.25" ry="1.25" style="stroke:#000000;stroke-width:0.75;" width="722.25" x="125" y="3.5"/><text fill="#000000" font-family="FG Virgil" font-size="7" font-weight="bold" lengthAdjust="spacing" textLength="65" x="453.625" y="12.0537">postitmanagement</text></g><!--cluster application--><g id="cluster_application"><rect fill="none" height="120.5" rx="1.25" ry="1.25" style="stroke:#000000;stroke-width:0.75;" width="549.5" x="137" y="171"/><text fill="#000000" font-family="FG Virgil" font-size="7" font-weight="bold" lengthAdjust="spacing" textLength="38.5" x="392.5" y="179.5537">application</text></g><!--cluster domain--><g id="cluster_domain"><rect fill="none" height="60.5" rx="1.25" ry="1.25" style="stroke:#000000;stroke-width:0.75;" width="328" x="507.25" y="98.5"/><text fill="#000000" font-family="FG Virgil" font-size="7" font-weight="bold" lengthAdjust="spacing" textLength="25.5" x="658.5" y="107.0537">domain</text></g><!--cluster repository--><g id="cluster_repository"><rect fill="none" height="60.5" rx="1.25" ry="1.25" style="stroke:#000000;stroke-width:0.75;" width="87.5" x="548.75" y="26"/><text fill="#000000" font-family="FG Virgil" font-size="7" font-weight="bold" lengthAdjust="spacing" textLength="36" x="574.5" y="34.5537">repository</text></g><!--class PostItEndpointProcessor--><g id="elem_PostItEndpointProcessor"><rect codeLine="10" fill="#F1F1F1" height="24" id="PostItEndpointProcessor" rx="1.25" ry="1.25" style="stroke:#181818;stroke-width:0.25;" width="93.5" x="11.5" y="250"/><ellipse cx="19" cy="258" fill="#ADD1B2" rx="5.5" ry="5.5" style="stroke:#181818;stroke-width:0.5;"/><path d="M20.3828,255.9375 Q20.4609,255.8281 20.5547,255.7734 Q20.6484,255.7188 20.7578,255.7188 Q20.9453,255.7188 21.0625,255.8516 Q21.1797,255.9766 21.1797,256.2813 L21.1797,257.0078 Q21.1797,257.3125 21.0625,257.4453 Q20.9453,257.5781 20.7578,257.5781 Q20.5859,257.5781 20.4844,257.4766 Q20.3828,257.3828 20.3281,257.125 Q20.3047,256.9453 20.2109,256.8516 Q20.0469,256.6641 19.7422,256.5547 Q19.4375,256.4453 19.125,256.4453 Q18.7422,256.4453 18.4219,256.6094 Q18.1094,256.7734 17.8594,257.1484 Q17.6172,257.5234 17.6172,258.0391 L17.6172,258.5859 Q17.6172,259.2031 18.0625,259.6172 Q18.5078,260.0234 19.3047,260.0234 Q19.7734,260.0234 20.1016,259.8984 Q20.2969,259.8203 20.5078,259.6016 Q20.6406,259.4688 20.7109,259.4297 Q20.7891,259.3906 20.8906,259.3906 Q21.0547,259.3906 21.1797,259.5234 Q21.3125,259.6484 21.3125,259.8203 Q21.3125,259.9922 21.1406,260.1953 Q20.8906,260.4844 20.4922,260.6484 Q19.9531,260.875 19.3047,260.875 Q18.5469,260.875 17.9453,260.5625 Q17.4531,260.3125 17.1094,259.7813 Q16.7656,259.2422 16.7656,258.6016 L16.7656,258.0234 Q16.7656,257.3594 17.0703,256.7891 Q17.3828,256.2109 17.9297,255.9063 Q18.4766,255.5938 19.0938,255.5938 Q19.4609,255.5938 19.7813,255.6797 Q20.1094,255.7578 20.3828,255.9375 Z " fill="#000000"/><text fill="#000000" font-family="FG Virgil" font-size="7" lengthAdjust="spacing" textLength="77.5" x="26" y="260.8984">PostItEndpointProcessor</text><line style="stroke:#181818;stroke-width:0.25;" x1="12" x2="104.5" y1="266" y2="266"/><line style="stroke:#181818;stroke-width:0.25;" x1="12" x2="104.5" y1="270" y2="270"/></g><!--class IBoardLogger--><g id="elem_IBoardLogger"><rect codeLine="18" fill="#F1F1F1" height="33.3105" id="IBoardLogger" rx="1.25" ry="1.25" style="stroke:#181818;stroke-width:0.25;" width="97" x="727" y="429.25"/><ellipse cx="751.875" cy="437.25" fill="#ADD1B2" rx="5.5" ry="5.5" style="stroke:#181818;stroke-width:0.5;"/><path d="M753.2578,435.1875 Q753.3359,435.0781 753.4297,435.0234 Q753.5234,434.9688 753.6328,434.9688 Q753.8203,434.9688 753.9375,435.1016 Q754.0547,435.2266 754.0547,435.5313 L754.0547,436.2578 Q754.0547,436.5625 753.9375,436.6953 Q753.8203,436.8281 753.6328,436.8281 Q753.4609,436.8281 753.3594,436.7266 Q753.2578,436.6328 753.2031,436.375 Q753.1797,436.1953 753.0859,436.1016 Q752.9219,435.9141 752.6172,435.8047 Q752.3125,435.6953 752,435.6953 Q751.6172,435.6953 751.2969,435.8594 Q750.9844,436.0234 750.7344,436.3984 Q750.4922,436.7734 750.4922,437.2891 L750.4922,437.8359 Q750.4922,438.4531 750.9375,438.8672 Q751.3828,439.2734 752.1797,439.2734 Q752.6484,439.2734 752.9766,439.1484 Q753.1719,439.0703 753.3828,438.8516 Q753.5156,438.7188 753.5859,438.6797 Q753.6641,438.6406 753.7656,438.6406 Q753.9297,438.6406 754.0547,438.7734 Q754.1875,438.8984 754.1875,439.0703 Q754.1875,439.2422 754.0156,439.4453 Q753.7656,439.7344 753.3672,439.8984 Q752.8281,440.125 752.1797,440.125 Q751.4219,440.125 750.8203,439.8125 Q750.3281,439.5625 749.9844,439.0313 Q749.6406,438.4922 749.6406,437.8516 L749.6406,437.2734 Q749.6406,436.6094 749.9453,436.0391 Q750.2578,435.4609 750.8047,435.1563 Q751.3516,434.8438 751.9688,434.8438 Q752.3359,434.8438 752.6563,434.9297 Q752.9844,435.0078 753.2578,435.1875 Z " fill="#000000"/><text fill="#000000" font-family="FG Virgil" font-size="7" lengthAdjust="spacing" textLength="43" x="762.125" y="440.1484">IBoardLogger</text><line style="stroke:#181818;stroke-width:0.25;" x1="727.5" x2="823.5" y1="445.25" y2="445.25"/><line style="stroke:#181818;stroke-width:0.25;" x1="727.5" x2="823.5" y1="449.25" y2="449.25"/><ellipse cx="732.5" cy="456.6553" fill="#84BE84" rx="1.5" ry="1.5" style="stroke:#038048;stroke-width:0.5;"/><text fill="#000000" font-family="FG Virgil" font-size="7" lengthAdjust="spacing" textLength="84" x="737" y="458.8037">logPostItUndo(board): void</text></g><!--class Board--><g id="elem_Board"><rect codeLine="26" fill="#F1F1F1" height="33.3105" id="Board" rx="1.25" ry="1.25" style="stroke:#181818;stroke-width:0.25;" width="114" x="718.5" y="356.75"/><ellipse cx="763.875" cy="364.75" fill="#ADD1B2" rx="5.5" ry="5.5" style="stroke:#181818;stroke-width:0.5;"/><path d="M765.2578,362.6875 Q765.3359,362.5781 765.4297,362.5234 Q765.5234,362.4688 765.6328,362.4688 Q765.8203,362.4688 765.9375,362.6016 Q766.0547,362.7266 766.0547,363.0313 L766.0547,363.7578 Q766.0547,364.0625 765.9375,364.1953 Q765.8203,364.3281 765.6328,364.3281 Q765.4609,364.3281 765.3594,364.2266 Q765.2578,364.1328 765.2031,363.875 Q765.1797,363.6953 765.0859,363.6016 Q764.9219,363.4141 764.6172,363.3047 Q764.3125,363.1953 764,363.1953 Q763.6172,363.1953 763.2969,363.3594 Q762.9844,363.5234 762.7344,363.8984 Q762.4922,364.2734 762.4922,364.7891 L762.4922,365.3359 Q762.4922,365.9531 762.9375,366.3672 Q763.3828,366.7734 764.1797,366.7734 Q764.6484,366.7734 764.9766,366.6484 Q765.1719,366.5703 765.3828,366.3516 Q765.5156,366.2188 765.5859,366.1797 Q765.6641,366.1406 765.7656,366.1406 Q765.9297,366.1406 766.0547,366.2734 Q766.1875,366.3984 766.1875,366.5703 Q766.1875,366.7422 766.0156,366.9453 Q765.7656,367.2344 765.3672,367.3984 Q764.8281,367.625 764.1797,367.625 Q763.4219,367.625 762.8203,367.3125 Q762.3281,367.0625 761.9844,366.5313 Q761.6406,365.9922 761.6406,365.3516 L761.6406,364.7734 Q761.6406,364.1094 761.9453,363.5391 Q762.2578,362.9609 762.8047,362.6563 Q763.3516,362.3438 763.9688,362.3438 Q764.3359,362.3438 764.6563,362.4297 Q764.9844,362.5078 765.2578,362.6875 Z " fill="#000000"/><text fill="#000000" font-family="FG Virgil" font-size="7" lengthAdjust="spacing" textLength="19" x="774.125" y="367.6484">Board</text><line style="stroke:#181818;stroke-width:0.25;" x1="719" x2="832" y1="372.75" y2="372.75"/><line style="stroke:#181818;stroke-width:0.25;" x1="719" x2="832" y1="376.75" y2="376.75"/><ellipse cx="724" cy="384.1553" fill="#84BE84" rx="1.5" ry="1.5" style="stroke:#038048;stroke-width:0.5;"/><text fill="#000000" font-family="FG Virgil" font-size="7" lengthAdjust="spacing" textLength="101" x="728.5" y="386.3037">findCell(row, column): BoardCell</text></g><!--class UndoPostItChangeController--><g id="elem_UndoPostItChangeController"><rect codeLine="36" fill="#F1F1F1" height="42.6211" id="UndoPostItChangeController" rx="1.25" ry="1.25" style="stroke:#181818;stroke-width:0.25;" width="331.5" x="145" y="240.75"/><ellipse cx="263.625" cy="248.75" fill="#ADD1B2" rx="5.5" ry="5.5" style="stroke:#181818;stroke-width:0.5;"/><path d="M265.0078,246.6875 Q265.0859,246.5781 265.1797,246.5234 Q265.2734,246.4688 265.3828,246.4688 Q265.5703,246.4688 265.6875,246.6016 Q265.8047,246.7266 265.8047,247.0313 L265.8047,247.7578 Q265.8047,248.0625 265.6875,248.1953 Q265.5703,248.3281 265.3828,248.3281 Q265.2109,248.3281 265.1094,248.2266 Q265.0078,248.1328 264.9531,247.875 Q264.9297,247.6953 264.8359,247.6016 Q264.6719,247.4141 264.3672,247.3047 Q264.0625,247.1953 263.75,247.1953 Q263.3672,247.1953 263.0469,247.3594 Q262.7344,247.5234 262.4844,247.8984 Q262.2422,248.2734 262.2422,248.7891 L262.2422,249.3359 Q262.2422,249.9531 262.6875,250.3672 Q263.1328,250.7734 263.9297,250.7734 Q264.3984,250.7734 264.7266,250.6484 Q264.9219,250.5703 265.1328,250.3516 Q265.2656,250.2188 265.3359,250.1797 Q265.4141,250.1406 265.5156,250.1406 Q265.6797,250.1406 265.8047,250.2734 Q265.9375,250.3984 265.9375,250.5703 Q265.9375,250.7422 265.7656,250.9453 Q265.5156,251.2344 265.1172,251.3984 Q264.5781,251.625 263.9297,251.625 Q263.1719,251.625 262.5703,251.3125 Q262.0781,251.0625 261.7344,250.5313 Q261.3906,249.9922 261.3906,249.3516 L261.3906,248.7734 Q261.3906,248.1094 261.6953,247.5391 Q262.0078,246.9609 262.5547,246.6563 Q263.1016,246.3438 263.7188,246.3438 Q264.0859,246.3438 264.4063,246.4297 Q264.7344,246.5078 265.0078,246.6875 Z " fill="#000000"/><text fill="#000000" font-family="FG Virgil" font-size="7" lengthAdjust="spacing" textLength="90" x="273.875" y="251.6484">UndoPostItChangeController</text><line style="stroke:#181818;stroke-width:0.25;" x1="145.5" x2="476" y1="256.75" y2="256.75"/><line style="stroke:#181818;stroke-width:0.25;" x1="145.5" x2="476" y1="260.75" y2="260.75"/><ellipse cx="150.5" cy="268.1553" fill="#84BE84" rx="1.5" ry="1.5" style="stroke:#038048;stroke-width:0.5;"/><text fill="#000000" font-family="FG Virgil" font-size="7" lengthAdjust="spacing" textLength="318.5" x="155" y="270.3037">UndoPostItChangeController(postItRepository, boardLogger, boardSynchronizer,postItManager): void</text><ellipse cx="150.5" cy="277.4658" fill="#84BE84" rx="1.5" ry="1.5" style="stroke:#038048;stroke-width:0.5;"/><text fill="#000000" font-family="FG Virgil" font-size="7" lengthAdjust="spacing" textLength="158.5" x="155" y="279.6143">undoPostItChange(board, user, row, column): void</text></g><!--class IBoardSynchronizer--><g id="elem_IBoardSynchronizer"><rect codeLine="41" fill="#F1F1F1" height="42.6211" id="IBoardSynchronizer" rx="1.25" ry="1.25" style="stroke:#181818;stroke-width:0.25;" width="172" x="506.5" y="240.75"/><ellipse cx="559.625" cy="248.75" fill="#ADD1B2" rx="5.5" ry="5.5" style="stroke:#181818;stroke-width:0.5;"/><path d="M561.0078,246.6875 Q561.0859,246.5781 561.1797,246.5234 Q561.2734,246.4688 561.3828,246.4688 Q561.5703,246.4688 561.6875,246.6016 Q561.8047,246.7266 561.8047,247.0313 L561.8047,247.7578 Q561.8047,248.0625 561.6875,248.1953 Q561.5703,248.3281 561.3828,248.3281 Q561.2109,248.3281 561.1094,248.2266 Q561.0078,248.1328 560.9531,247.875 Q560.9297,247.6953 560.8359,247.6016 Q560.6719,247.4141 560.3672,247.3047 Q560.0625,247.1953 559.75,247.1953 Q559.3672,247.1953 559.0469,247.3594 Q558.7344,247.5234 558.4844,247.8984 Q558.2422,248.2734 558.2422,248.7891 L558.2422,249.3359 Q558.2422,249.9531 558.6875,250.3672 Q559.1328,250.7734 559.9297,250.7734 Q560.3984,250.7734 560.7266,250.6484 Q560.9219,250.5703 561.1328,250.3516 Q561.2656,250.2188 561.3359,250.1797 Q561.4141,250.1406 561.5156,250.1406 Q561.6797,250.1406 561.8047,250.2734 Q561.9375,250.3984 561.9375,250.5703 Q561.9375,250.7422 561.7656,250.9453 Q561.5156,251.2344 561.1172,251.3984 Q560.5781,251.625 559.9297,251.625 Q559.1719,251.625 558.5703,251.3125 Q558.0781,251.0625 557.7344,250.5313 Q557.3906,249.9922 557.3906,249.3516 L557.3906,248.7734 Q557.3906,248.1094 557.6953,247.5391 Q558.0078,246.9609 558.5547,246.6563 Q559.1016,246.3438 559.7188,246.3438 Q560.0859,246.3438 560.4063,246.4297 Q560.7344,246.5078 561.0078,246.6875 Z " fill="#000000"/><text fill="#000000" font-family="FG Virgil" font-size="7" lengthAdjust="spacing" textLength="61.5" x="569.875" y="251.6484">IBoardSynchronizer</text><line style="stroke:#181818;stroke-width:0.25;" x1="507" x2="678" y1="256.75" y2="256.75"/><line style="stroke:#181818;stroke-width:0.25;" x1="507" x2="678" y1="260.75" y2="260.75"/><ellipse cx="512" cy="268.1553" fill="#84BE84" rx="1.5" ry="1.5" style="stroke:#038048;stroke-width:0.5;"/><text fill="#000000" font-family="FG Virgil" font-size="7" lengthAdjust="spacing" textLength="159" x="516.5" y="270.3037">createBoardCellLock(boardId, row, column): String</text><ellipse cx="512" cy="277.4658" fill="#84BE84" rx="1.5" ry="1.5" style="stroke:#038048;stroke-width:0.5;"/><text fill="#000000" font-family="FG Virgil" font-size="7" lengthAdjust="spacing" textLength="123" x="516.5" y="279.6143">getBoardCellLock(cellLockKey): Object</text></g><!--class IPostItProvider--><g id="elem_IPostItProvider"><rect codeLine="46" fill="#F1F1F1" height="33.3105" id="IPostItProvider" rx="1.25" ry="1.25" style="stroke:#181818;stroke-width:0.25;" width="138" x="241.75" y="189.75"/><ellipse cx="285.875" cy="197.75" fill="#ADD1B2" rx="5.5" ry="5.5" style="stroke:#181818;stroke-width:0.5;"/><path d="M287.2578,195.6875 Q287.3359,195.5781 287.4297,195.5234 Q287.5234,195.4688 287.6328,195.4688 Q287.8203,195.4688 287.9375,195.6016 Q288.0547,195.7266 288.0547,196.0313 L288.0547,196.7578 Q288.0547,197.0625 287.9375,197.1953 Q287.8203,197.3281 287.6328,197.3281 Q287.4609,197.3281 287.3594,197.2266 Q287.2578,197.1328 287.2031,196.875 Q287.1797,196.6953 287.0859,196.6016 Q286.9219,196.4141 286.6172,196.3047 Q286.3125,196.1953 286,196.1953 Q285.6172,196.1953 285.2969,196.3594 Q284.9844,196.5234 284.7344,196.8984 Q284.4922,197.2734 284.4922,197.7891 L284.4922,198.3359 Q284.4922,198.9531 284.9375,199.3672 Q285.3828,199.7734 286.1797,199.7734 Q286.6484,199.7734 286.9766,199.6484 Q287.1719,199.5703 287.3828,199.3516 Q287.5156,199.2188 287.5859,199.1797 Q287.6641,199.1406 287.7656,199.1406 Q287.9297,199.1406 288.0547,199.2734 Q288.1875,199.3984 288.1875,199.5703 Q288.1875,199.7422 288.0156,199.9453 Q287.7656,200.2344 287.3672,200.3984 Q286.8281,200.625 286.1797,200.625 Q285.4219,200.625 284.8203,200.3125 Q284.3281,200.0625 283.9844,199.5313 Q283.6406,198.9922 283.6406,198.3516 L283.6406,197.7734 Q283.6406,197.1094 283.9453,196.5391 Q284.2578,195.9609 284.8047,195.6563 Q285.3516,195.3438 285.9688,195.3438 Q286.3359,195.3438 286.6563,195.4297 Q286.9844,195.5078 287.2578,195.6875 Z " fill="#000000"/><text fill="#000000" font-family="FG Virgil" font-size="7" lengthAdjust="spacing" textLength="45.5" x="296.125" y="200.6484">IPostItProvider</text><line style="stroke:#181818;stroke-width:0.25;" x1="242.25" x2="379.25" y1="205.75" y2="205.75"/><line style="stroke:#181818;stroke-width:0.25;" x1="242.25" x2="379.25" y1="209.75" y2="209.75"/><ellipse cx="247.25" cy="217.1553" fill="#84BE84" rx="1.5" ry="1.5" style="stroke:#038048;stroke-width:0.5;"/><text fill="#000000" font-family="FG Virgil" font-size="7" lengthAdjust="spacing" textLength="125" x="251.75" y="219.3037">providePostItByCell(row, column): PostIt</text></g><!--class PostItManager--><g id="elem_PostItManager"><rect codeLine="54" fill="#F1F1F1" height="33.3105" id="PostItManager" rx="1.25" ry="1.25" style="stroke:#181818;stroke-width:0.25;" width="154.5" x="515.25" y="117.25"/><ellipse cx="567.625" cy="125.25" fill="#ADD1B2" rx="5.5" ry="5.5" style="stroke:#181818;stroke-width:0.5;"/><path d="M569.0078,123.1875 Q569.0859,123.0781 569.1797,123.0234 Q569.2734,122.9688 569.3828,122.9688 Q569.5703,122.9688 569.6875,123.1016 Q569.8047,123.2266 569.8047,123.5313 L569.8047,124.2578 Q569.8047,124.5625 569.6875,124.6953 Q569.5703,124.8281 569.3828,124.8281 Q569.2109,124.8281 569.1094,124.7266 Q569.0078,124.6328 568.9531,124.375 Q568.9297,124.1953 568.8359,124.1016 Q568.6719,123.9141 568.3672,123.8047 Q568.0625,123.6953 567.75,123.6953 Q567.3672,123.6953 567.0469,123.8594 Q566.7344,124.0234 566.4844,124.3984 Q566.2422,124.7734 566.2422,125.2891 L566.2422,125.8359 Q566.2422,126.4531 566.6875,126.8672 Q567.1328,127.2734 567.9297,127.2734 Q568.3984,127.2734 568.7266,127.1484 Q568.9219,127.0703 569.1328,126.8516 Q569.2656,126.7188 569.3359,126.6797 Q569.4141,126.6406 569.5156,126.6406 Q569.6797,126.6406 569.8047,126.7734 Q569.9375,126.8984 569.9375,127.0703 Q569.9375,127.2422 569.7656,127.4453 Q569.5156,127.7344 569.1172,127.8984 Q568.5781,128.125 567.9297,128.125 Q567.1719,128.125 566.5703,127.8125 Q566.0781,127.5625 565.7344,127.0313 Q565.3906,126.4922 565.3906,125.8516 L565.3906,125.2734 Q565.3906,124.6094 565.6953,124.0391 Q566.0078,123.4609 566.5547,123.1563 Q567.1016,122.8438 567.7188,122.8438 Q568.0859,122.8438 568.4063,122.9297 Q568.7344,123.0078 569.0078,123.1875 Z " fill="#000000"/><text fill="#000000" font-family="FG Virgil" font-size="7" lengthAdjust="spacing" textLength="45.5" x="577.875" y="128.1484">PostItManager</text><line style="stroke:#181818;stroke-width:0.25;" x1="515.75" x2="669.25" y1="133.25" y2="133.25"/><line style="stroke:#181818;stroke-width:0.25;" x1="515.75" x2="669.25" y1="137.25" y2="137.25"/><ellipse cx="520.75" cy="144.6553" fill="#84BE84" rx="1.5" ry="1.5" style="stroke:#038048;stroke-width:0.5;"/><text fill="#000000" font-family="FG Virgil" font-size="7" lengthAdjust="spacing" textLength="141.5" x="525.25" y="146.8037">undoPostItChange(board, user, row, column)</text></g><!--class PostIt--><g id="elem_PostIt"><rect codeLine="58" fill="#F1F1F1" height="33.3105" id="PostIt" rx="1.25" ry="1.25" style="stroke:#181818;stroke-width:0.25;" width="103.5" x="723.75" y="117.25"/><ellipse cx="764.625" cy="125.25" fill="#ADD1B2" rx="5.5" ry="5.5" style="stroke:#181818;stroke-width:0.5;"/><path d="M766.0078,123.1875 Q766.0859,123.0781 766.1797,123.0234 Q766.2734,122.9688 766.3828,122.9688 Q766.5703,122.9688 766.6875,123.1016 Q766.8047,123.2266 766.8047,123.5313 L766.8047,124.2578 Q766.8047,124.5625 766.6875,124.6953 Q766.5703,124.8281 766.3828,124.8281 Q766.2109,124.8281 766.1094,124.7266 Q766.0078,124.6328 765.9531,124.375 Q765.9297,124.1953 765.8359,124.1016 Q765.6719,123.9141 765.3672,123.8047 Q765.0625,123.6953 764.75,123.6953 Q764.3672,123.6953 764.0469,123.8594 Q763.7344,124.0234 763.4844,124.3984 Q763.2422,124.7734 763.2422,125.2891 L763.2422,125.8359 Q763.2422,126.4531 763.6875,126.8672 Q764.1328,127.2734 764.9297,127.2734 Q765.3984,127.2734 765.7266,127.1484 Q765.9219,127.0703 766.1328,126.8516 Q766.2656,126.7188 766.3359,126.6797 Q766.4141,126.6406 766.5156,126.6406 Q766.6797,126.6406 766.8047,126.7734 Q766.9375,126.8984 766.9375,127.0703 Q766.9375,127.2422 766.7656,127.4453 Q766.5156,127.7344 766.1172,127.8984 Q765.5781,128.125 764.9297,128.125 Q764.1719,128.125 763.5703,127.8125 Q763.0781,127.5625 762.7344,127.0313 Q762.3906,126.4922 762.3906,125.8516 L762.3906,125.2734 Q762.3906,124.6094 762.6953,124.0391 Q763.0078,123.4609 763.5547,123.1563 Q764.1016,122.8438 764.7188,122.8438 Q765.0859,122.8438 765.4063,122.9297 Q765.7344,123.0078 766.0078,123.1875 Z " fill="#000000"/><text fill="#000000" font-family="FG Virgil" font-size="7" lengthAdjust="spacing" textLength="17.5" x="774.875" y="128.1484">PostIt</text><line style="stroke:#181818;stroke-width:0.25;" x1="724.25" x2="826.75" y1="133.25" y2="133.25"/><line style="stroke:#181818;stroke-width:0.25;" x1="724.25" x2="826.75" y1="137.25" y2="137.25"/><ellipse cx="729.25" cy="144.6553" fill="#84BE84" rx="1.5" ry="1.5" style="stroke:#038048;stroke-width:0.5;"/><text fill="#000000" font-family="FG Virgil" font-size="7" lengthAdjust="spacing" textLength="90.5" x="733.75" y="146.8037">undoLastChange(user): void</text></g><!--class PostItRepository--><g id="elem_PostItRepository"><rect codeLine="65" fill="#F1F1F1" height="33.3105" id="PostItRepository" rx="1.25" ry="1.25" style="stroke:#181818;stroke-width:0.25;" width="71.5" x="556.75" y="44.75"/><ellipse cx="565.825" cy="52.75" fill="#B4A7E5" rx="5.5" ry="5.5" style="stroke:#181818;stroke-width:0.5;"/><path d="M566.3016,51.0703 L566.3016,54.3984 L567.1609,54.3984 Q567.4656,54.3984 567.5984,54.5156 Q567.7313,54.6328 567.7313,54.8281 Q567.7313,55.0156 567.5984,55.1328 Q567.4656,55.25 567.1609,55.25 L564.5906,55.25 Q564.2859,55.25 564.1531,55.1328 Q564.0203,55.0156 564.0203,54.8203 Q564.0203,54.6328 564.1531,54.5156 Q564.2859,54.3984 564.5906,54.3984 L565.45,54.3984 L565.45,51.0703 L564.5906,51.0703 Q564.2859,51.0703 564.1531,50.9531 Q564.0203,50.8359 564.0203,50.6406 Q564.0203,50.4531 564.1531,50.3359 Q564.2859,50.2188 564.5906,50.2188 L567.1609,50.2188 Q567.4656,50.2188 567.5984,50.3359 Q567.7313,50.4531 567.7313,50.6406 Q567.7313,50.8359 567.5984,50.9531 Q567.4656,51.0703 567.1609,51.0703 L566.3016,51.0703 Z " fill="#000000"/><text fill="#000000" font-family="FG Virgil" font-size="7" font-style="italic" lengthAdjust="spacing" textLength="52" x="573.175" y="55.6484">PostItRepository</text><line style="stroke:#181818;stroke-width:0.25;" x1="557.25" x2="627.75" y1="60.75" y2="60.75"/><line style="stroke:#181818;stroke-width:0.25;" x1="557.25" x2="627.75" y1="64.75" y2="64.75"/><ellipse cx="562.25" cy="72.1553" fill="#84BE84" rx="1.5" ry="1.5" style="stroke:#038048;stroke-width:0.5;"/><text fill="#000000" font-family="FG Virgil" font-size="7" lengthAdjust="spacing" textLength="58.5" x="566.75" y="74.3037">save(postIt): PostIt</text></g><!--link PostItEndpointProcessor to UndoPostItChangeController--><g id="link_PostItEndpointProcessor_UndoPostItChangeController"><path codeLine="73" d="M105.025,262 C116.28,262 128.97,262 142.38,262 " fill="none" id="PostItEndpointProcessor-to-UndoPostItChangeController" style="stroke:#181818;stroke-width:0.5;stroke-dasharray:7.0,7.0;"/><polygon fill="#181818" points="144.895,262,140.395,260,142.395,262,140.395,264,144.895,262" style="stroke:#181818;stroke-width:0.5;"/></g><!--link UndoPostItChangeController to IBoardSynchronizer--><g id="link_UndoPostItChangeController_IBoardSynchronizer"><path codeLine="75" d="M476.595,262 C485.815,262 494.89,262 503.65,262 " fill="none" id="UndoPostItChangeController-to-IBoardSynchronizer" style="stroke:#181818;stroke-width:0.5;"/><polygon fill="#181818" points="506.36,262,501.86,260,503.86,262,501.86,264,506.36,262" style="stroke:#181818;stroke-width:0.5;"/></g><!--link UndoPostItChangeController to PostItManager--><g id="link_UndoPostItChangeController_PostItManager"><path codeLine="76" d="M462.795,240.67 C467.56,238.065 472.145,235.185 476.5,232 C497,217.005 485.33,199.5 503.25,181.5 C515.365,169.335 531.25,159.51 546.23,152.02 " fill="none" id="UndoPostItChangeController-to-PostItManager" style="stroke:#181818;stroke-width:0.5;"/><polygon fill="#181818" points="548.625,150.84,543.7041,151.0259,546.3804,151.9408,545.4654,154.6172,548.625,150.84" style="stroke:#181818;stroke-width:0.5;"/></g><!--link UndoPostItChangeController to PostItRepository--><g id="link_UndoPostItChangeController_PostItRepository"><path codeLine="77" d="M466.15,240.63 C469.785,238.01 473.25,235.14 476.5,232 C516.735,193.13 469.54,153.645 503.25,109 C515.9,92.25 536.215,80.76 554.22,73.285 " fill="none" id="UndoPostItChangeController-to-PostItRepository" style="stroke:#181818;stroke-width:0.5;"/><polygon fill="#181818" points="556.63,72.3,551.708,72.1457,554.3148,73.2432,553.2172,75.85,556.63,72.3" style="stroke:#181818;stroke-width:0.5;"/></g><!--link UndoPostItChangeController to IBoardLogger--><g id="link_UndoPostItChangeController_IBoardLogger"><path codeLine="78" d="M364.9,283.285 C457.26,319.93 644.615,394.265 730.35,428.285 " fill="none" id="UndoPostItChangeController-to-IBoardLogger" style="stroke:#181818;stroke-width:0.5;stroke-dasharray:7.0,7.0;"/><polygon fill="#181818" points="732.735,429.23,729.2903,425.7109,730.4114,428.3077,727.8146,429.4288,732.735,429.23" style="stroke:#181818;stroke-width:0.5;"/></g><!--link PostItManager to IPostItProvider--><g id="link_PostItManager_IPostItProvider"><path codeLine="80" d="M526.915,150.805 C482.455,162.29 423.685,177.465 378.725,189.075 " fill="none" id="PostItManager-to-IPostItProvider" style="stroke:#181818;stroke-width:0.5;"/><polygon fill="#181818" points="376.19,189.73,381.0482,190.5352,378.6098,189.1019,380.0431,186.6635,376.19,189.73" style="stroke:#181818;stroke-width:0.5;"/></g><!--link PostItManager to Board--><g id="link_PostItManager_Board"><path codeLine="81" d="M643.955,150.75 C660.42,158.125 677.705,168.2 690.5,181.5 C739.445,232.375 762.715,316.295 771.13,354.04 " fill="none" id="PostItManager-to-Board" style="stroke:#181818;stroke-width:0.5;stroke-dasharray:7.0,7.0;"/><polygon fill="#181818" points="771.71,356.675,772.6996,351.851,771.1745,354.233,768.7925,352.7079,771.71,356.675" style="stroke:#181818;stroke-width:0.5;"/></g><!--link PostItManager to PostIt--><g id="link_PostItManager_PostIt"><path codeLine="82" d="M669.79,134 C687.065,134 705.045,134 721.15,134 " fill="none" id="PostItManager-to-PostIt" style="stroke:#181818;stroke-width:0.5;"/><polygon fill="#181818" points="723.72,134,719.22,132,721.22,134,719.22,136,723.72,134" style="stroke:#181818;stroke-width:0.5;"/></g><!--SRC=[bLJBRjim4BppAtXqKISVq4CECPh2gDi6CTexGwuarXHN86a7Qg1_BodgRSbs1CEcjRipio_QWzG5Cood1UC7biBUbGge0Uw8xMm24dPKxWcr-yboe4_Vw1zfKga6FZPZ0j-aJcd2b0L252IEEgH6ffcZGWPCYPgGXebcpXNqdH3g7wwOjVGPhTkwhreKABLxDiZ1MZJqlIAawWDVaHcHC-tFEMZNOhHcLXHASXR8MbDFiNqCmJjCK_2udJ4ydwd2D4huhGMkQffFN-W9fUWSgmXOZIa5vapEiDLaPpI9r683IgqClgqfHtNCjUUfdSFx0Ldy7kHUU7tIVJZvNb98BIQvoPXEOUERQb2fit94hSlkgw9-_GB-LpeqvJes9jQs-RClDSyCQldFlue1FshjPbhOdl8ueOoDMDEZ3R3Zcfr1L7CvnwOFjSpcoWqm1rqRTiWFaNihfhnxP_oeps2auCO0l3byXzB7_Nhz6rRhkk9O0By29oaMv1RH63qVovc9YgObji5nUOwdozbqRrRGxOsxNe28iqYpOxOb2UZpat0XKTDDxJHPV_60IHY7HiBBqFDSZ6KdQ3RXbeBxpz8bTt__S67R2Bcmk7Tt3pCpVYrYrD3RdFjYNF8FcGplsJRdTdPgkUC1dtW4X1fW9hAfyNy0]--></g></svg>