<?xml version="1.0" encoding="us-ascii" standalone="no"?><svg xmlns="http://www.w3.org/2000/svg" xmlns:xlink="http://www.w3.org/1999/xlink" contentStyleType="text/css" height="776.4px" preserveAspectRatio="none" style="width:1456px;height:776px;background:#FFFFFF;" version="1.1" viewBox="0 0 1456 776" width="1456.2px" zoomAndPan="magnify"><defs/><g><text fill="#000000" font-family="FG Virgil" font-size="8.4" font-weight="bold" lengthAdjust="spacing" textLength="57.6" x="698.4" y="18.0645">Create Post-it</text><rect fill="#FFFFFF" height="622.3875" style="stroke:#181818;stroke-width:0.6;" width="6" x="134.7" y="93.9199"/><rect fill="#FFFFFF" height="584.8383" style="stroke:#181818;stroke-width:0.6;" width="6" x="203.1" y="112.6945"/><rect fill="#FFFFFF" height="18.7746" style="stroke:#181818;stroke-width:0.6;" width="6" x="338.1" y="131.4691"/><rect fill="#FFFFFF" height="509.7398" style="stroke:#181818;stroke-width:0.6;" width="6" x="449.4" y="169.0184"/><rect fill="#FFFFFF" height="472.1906" style="stroke:#181818;stroke-width:0.6;" width="6" x="724.8" y="187.793"/><rect fill="#FFFFFF" height="18.7746" style="stroke:#181818;stroke-width:0.6;" width="6" x="897.6" y="225.3422"/><rect fill="#FFFFFF" height="18.7746" style="stroke:#181818;stroke-width:0.6;" width="6" x="897.6" y="262.8914"/><rect fill="#FFFFFF" height="200.9461" style="stroke:#181818;stroke-width:0.6;" width="6" x="975.3" y="333.1898"/><rect fill="#FFFFFF" height="18.7746" style="stroke:#181818;stroke-width:0.6;" width="6" x="1075.5" y="351.9645"/><rect fill="#FFFFFF" height="56.3238" style="stroke:#181818;stroke-width:0.6;" width="6" x="1134.9" y="389.5137"/><rect fill="#FFFFFF" height="18" style="stroke:#181818;stroke-width:0.6;" width="6" x="1194.3" y="464.6121"/><rect fill="#FFFFFF" height="18.7746" style="stroke:#181818;stroke-width:0.6;" width="6" x="1267.5" y="408.2883"/><rect fill="#FFFFFF" height="18.7746" style="stroke:#181818;stroke-width:0.6;" width="6" x="1267.5" y="552.9105"/><rect fill="#FFFFFF" height="18" style="stroke:#181818;stroke-width:0.6;" width="6" x="1338" y="590.4598"/><line style="stroke:#181818;stroke-width:0.3;stroke-dasharray:5.0,5.0;" x1="13.2" x2="13.2" y1="73.9453" y2="727.1074"/><line style="stroke:#181818;stroke-width:0.3;stroke-dasharray:5.0,5.0;" x1="137.4" x2="137.4" y1="73.9453" y2="727.1074"/><line style="stroke:#181818;stroke-width:0.3;stroke-dasharray:5.0,5.0;" x1="205.8" x2="205.8" y1="73.9453" y2="727.1074"/><line style="stroke:#181818;stroke-width:0.3;stroke-dasharray:5.0,5.0;" x1="341.1" x2="341.1" y1="73.9453" y2="727.1074"/><line style="stroke:#181818;stroke-width:0.3;stroke-dasharray:5.0,5.0;" x1="452.1" x2="452.1" y1="73.9453" y2="727.1074"/><line style="stroke:#181818;stroke-width:0.3;stroke-dasharray:5.0,5.0;" x1="727.8" x2="727.8" y1="73.9453" y2="727.1074"/><line style="stroke:#181818;stroke-width:0.3;stroke-dasharray:5.0,5.0;" x1="900.6" x2="900.6" y1="73.9453" y2="727.1074"/><line style="stroke:#181818;stroke-width:0.3;stroke-dasharray:5.0,5.0;" x1="978" x2="978" y1="73.9453" y2="727.1074"/><line style="stroke:#181818;stroke-width:0.3;stroke-dasharray:5.0,5.0;" x1="1078.5" x2="1078.5" y1="73.9453" y2="727.1074"/><line style="stroke:#181818;stroke-width:0.3;stroke-dasharray:5.0,5.0;" x1="1137.9" x2="1137.9" y1="73.9453" y2="727.1074"/><line style="stroke:#181818;stroke-width:0.3;stroke-dasharray:5.0,5.0;" x1="1197.3" x2="1197.3" y1="73.9453" y2="727.1074"/><line style="stroke:#181818;stroke-width:0.3;stroke-dasharray:5.0,5.0;" x1="1270.2" x2="1270.2" y1="73.9453" y2="727.1074"/><line style="stroke:#181818;stroke-width:0.3;stroke-dasharray:5.0,5.0;" x1="1341" x2="1341" y1="73.9453" y2="727.1074"/><text fill="#000000" font-family="FG Virgil" font-size="8.4" lengthAdjust="spacing" textLength="17.4" x="3" y="71.8371">User</text><ellipse cx="13.5" cy="31.8727" fill="#E2E2F0" rx="4.8" ry="4.8" style="stroke:#181818;stroke-width:0.3;"/><path d="M13.5,36.6727 L13.5,52.8727 M5.7,41.4727 L21.3,41.4727 M13.5,52.8727 L5.7,61.8727 M13.5,52.8727 L21.3,61.8727 " fill="none" style="stroke:#181818;stroke-width:0.3;"/><text fill="#000000" font-family="FG Virgil" font-size="8.4" lengthAdjust="spacing" textLength="17.4" x="3" y="735.5719">User</text><ellipse cx="13.5" cy="742.7801" fill="#E2E2F0" rx="4.8" ry="4.8" style="stroke:#181818;stroke-width:0.3;"/><path d="M13.5,747.5801 L13.5,763.7801 M5.7,752.3801 L21.3,752.3801 M13.5,763.7801 L5.7,772.7801 M13.5,763.7801 L21.3,772.7801 " fill="none" style="stroke:#181818;stroke-width:0.3;"/><rect fill="#E2E2F0" height="30.7453" rx="1.5" ry="1.5" style="stroke:#181818;stroke-width:0.3;" width="40.2" x="117.6" y="42.6"/><text fill="#000000" font-family="FG Virgil" font-size="8.4" font-style="italic" lengthAdjust="spacing" textLength="31.8" x="121.8" y="55.8645">&#171;HTTP&#187;</text><text fill="#000000" font-family="FG Virgil" font-size="8.4" lengthAdjust="spacing" textLength="30.6" x="122.4" y="67.0371">Browser</text><rect fill="#E2E2F0" height="30.7453" rx="1.5" ry="1.5" style="stroke:#181818;stroke-width:0.3;" width="40.2" x="117.6" y="726.5074"/><text fill="#000000" font-family="FG Virgil" font-size="8.4" font-style="italic" lengthAdjust="spacing" textLength="31.8" x="121.8" y="739.7719">&#171;HTTP&#187;</text><text fill="#000000" font-family="FG Virgil" font-size="8.4" lengthAdjust="spacing" textLength="30.6" x="122.4" y="750.9445">Browser</text><rect fill="#E2E2F0" height="30.7453" rx="1.5" ry="1.5" style="stroke:#181818;stroke-width:0.3;" width="84.6" x="163.8" y="42.6"/><text fill="#000000" font-family="FG Virgil" font-size="8.4" font-style="italic" lengthAdjust="spacing" textLength="31.8" x="190.2" y="55.8645">&#171;HTTP&#187;</text><text fill="#000000" font-family="FG Virgil" font-size="8.4" lengthAdjust="spacing" textLength="76.2" x="168" y="67.0371">HttpRequestHandler</text><rect fill="#E2E2F0" height="30.7453" rx="1.5" ry="1.5" style="stroke:#181818;stroke-width:0.3;" width="84.6" x="163.8" y="726.5074"/><text fill="#000000" font-family="FG Virgil" font-size="8.4" font-style="italic" lengthAdjust="spacing" textLength="31.8" x="190.2" y="739.7719">&#171;HTTP&#187;</text><text fill="#000000" font-family="FG Virgil" font-size="8.4" lengthAdjust="spacing" textLength="76.2" x="168" y="750.9445">HttpRequestHandler</text><rect fill="#E2E2F0" height="30.7453" rx="1.5" ry="1.5" style="stroke:#181818;stroke-width:0.3;" width="109.2" x="286.5" y="42.6"/><text fill="#000000" font-family="FG Virgil" font-size="8.4" font-style="italic" lengthAdjust="spacing" textLength="31.8" x="325.2" y="55.8645">&#171;HTTP&#187;</text><text fill="#000000" font-family="FG Virgil" font-size="8.4" lengthAdjust="spacing" textLength="100.8" x="290.7" y="67.0371">EndpointProcessorFactory</text><rect fill="#E2E2F0" height="30.7453" rx="1.5" ry="1.5" style="stroke:#181818;stroke-width:0.3;" width="109.2" x="286.5" y="726.5074"/><text fill="#000000" font-family="FG Virgil" font-size="8.4" font-style="italic" lengthAdjust="spacing" textLength="31.8" x="325.2" y="739.7719">&#171;HTTP&#187;</text><text fill="#000000" font-family="FG Virgil" font-size="8.4" lengthAdjust="spacing" textLength="100.8" x="290.7" y="750.9445">EndpointProcessorFactory</text><rect fill="#E2E2F0" height="30.7453" rx="1.5" ry="1.5" style="stroke:#181818;stroke-width:0.3;" width="101.4" x="401.7" y="42.6"/><text fill="#000000" font-family="FG Virgil" font-size="8.4" font-style="italic" lengthAdjust="spacing" textLength="50.4" x="427.2" y="55.8645">&#171;application&#187;</text><text fill="#000000" font-family="FG Virgil" font-size="8.4" lengthAdjust="spacing" textLength="93" x="405.9" y="67.0371">PostItEndpointProcessor</text><rect fill="#E2E2F0" height="30.7453" rx="1.5" ry="1.5" style="stroke:#181818;stroke-width:0.3;" width="101.4" x="401.7" y="726.5074"/><text fill="#000000" font-family="FG Virgil" font-size="8.4" font-style="italic" lengthAdjust="spacing" textLength="50.4" x="427.2" y="739.7719">&#171;application&#187;</text><text fill="#000000" font-family="FG Virgil" font-size="8.4" lengthAdjust="spacing" textLength="93" x="405.9" y="750.9445">PostItEndpointProcessor</text><rect fill="#E2E2F0" height="30.7453" rx="1.5" ry="1.5" style="stroke:#181818;stroke-width:0.3;" width="116.4" x="669.6" y="42.6"/><text fill="#000000" font-family="FG Virgil" font-size="8.4" font-style="italic" lengthAdjust="spacing" textLength="50.4" x="702.6" y="55.8645">&#171;application&#187;</text><text fill="#000000" font-family="FG Virgil" font-size="8.4" lengthAdjust="spacing" textLength="108" x="673.8" y="67.0371">UndoPostItChangeController</text><rect fill="#E2E2F0" height="30.7453" rx="1.5" ry="1.5" style="stroke:#181818;stroke-width:0.3;" width="116.4" x="669.6" y="726.5074"/><text fill="#000000" font-family="FG Virgil" font-size="8.4" font-style="italic" lengthAdjust="spacing" textLength="50.4" x="702.6" y="739.7719">&#171;application&#187;</text><text fill="#000000" font-family="FG Virgil" font-size="8.4" lengthAdjust="spacing" textLength="108" x="673.8" y="750.9445">UndoPostItChangeController</text><rect fill="#E2E2F0" height="30.7453" rx="1.5" ry="1.5" style="stroke:#181818;stroke-width:0.3;" width="80.4" x="860.4" y="42.6"/><text fill="#000000" font-family="FG Virgil" font-size="8.4" font-style="italic" lengthAdjust="spacing" textLength="50.4" x="875.4" y="55.8645">&#171;application&#187;</text><text fill="#000000" font-family="FG Virgil" font-size="8.4" lengthAdjust="spacing" textLength="72" x="864.6" y="67.0371">BoardSynchronizer</text><rect fill="#E2E2F0" height="30.7453" rx="1.5" ry="1.5" style="stroke:#181818;stroke-width:0.3;" width="80.4" x="860.4" y="726.5074"/><text fill="#000000" font-family="FG Virgil" font-size="8.4" font-style="italic" lengthAdjust="spacing" textLength="50.4" x="875.4" y="739.7719">&#171;application&#187;</text><text fill="#000000" font-family="FG Virgil" font-size="8.4" lengthAdjust="spacing" textLength="72" x="864.6" y="750.9445">BoardSynchronizer</text><rect fill="#E2E2F0" height="30.7453" rx="1.5" ry="1.5" style="stroke:#181818;stroke-width:0.3;" width="63" x="946.8" y="42.6"/><text fill="#000000" font-family="FG Virgil" font-size="8.4" font-style="italic" lengthAdjust="spacing" textLength="37.2" x="959.7" y="55.8645">&#171;domain&#187;</text><text fill="#000000" font-family="FG Virgil" font-size="8.4" lengthAdjust="spacing" textLength="54.6" x="951" y="67.0371">PostItManager</text><rect fill="#E2E2F0" height="30.7453" rx="1.5" ry="1.5" style="stroke:#181818;stroke-width:0.3;" width="63" x="946.8" y="726.5074"/><text fill="#000000" font-family="FG Virgil" font-size="8.4" font-style="italic" lengthAdjust="spacing" textLength="37.2" x="959.7" y="739.7719">&#171;domain&#187;</text><text fill="#000000" font-family="FG Virgil" font-size="8.4" lengthAdjust="spacing" textLength="54.6" x="951" y="750.9445">PostItManager</text><rect fill="#E2E2F0" height="30.7453" rx="1.5" ry="1.5" style="stroke:#181818;stroke-width:0.3;" width="45.6" x="1055.7" y="42.6"/><text fill="#000000" font-family="FG Virgil" font-size="8.4" font-style="italic" lengthAdjust="spacing" textLength="37.2" x="1059.9" y="55.8645">&#171;domain&#187;</text><text fill="#000000" font-family="FG Virgil" font-size="8.4" lengthAdjust="spacing" textLength="22.8" x="1067.1" y="67.0371">Board</text><rect fill="#E2E2F0" height="30.7453" rx="1.5" ry="1.5" style="stroke:#181818;stroke-width:0.3;" width="45.6" x="1055.7" y="726.5074"/><text fill="#000000" font-family="FG Virgil" font-size="8.4" font-style="italic" lengthAdjust="spacing" textLength="37.2" x="1059.9" y="739.7719">&#171;domain&#187;</text><text fill="#000000" font-family="FG Virgil" font-size="8.4" lengthAdjust="spacing" textLength="22.8" x="1067.1" y="750.9445">Board</text><rect fill="#E2E2F0" height="30.7453" rx="1.5" ry="1.5" style="stroke:#181818;stroke-width:0.3;" width="61.2" x="1107.3" y="42.6"/><text fill="#000000" font-family="FG Virgil" font-size="8.4" font-style="italic" lengthAdjust="spacing" textLength="50.4" x="1112.7" y="55.8645">&#171;application&#187;</text><text fill="#000000" font-family="FG Virgil" font-size="8.4" lengthAdjust="spacing" textLength="52.8" x="1111.5" y="67.0371">PostItProvider</text><rect fill="#E2E2F0" height="30.7453" rx="1.5" ry="1.5" style="stroke:#181818;stroke-width:0.3;" width="61.2" x="1107.3" y="726.5074"/><text fill="#000000" font-family="FG Virgil" font-size="8.4" font-style="italic" lengthAdjust="spacing" textLength="50.4" x="1112.7" y="739.7719">&#171;application&#187;</text><text fill="#000000" font-family="FG Virgil" font-size="8.4" lengthAdjust="spacing" textLength="52.8" x="1111.5" y="750.9445">PostItProvider</text><rect fill="#E2E2F0" height="30.7453" rx="1.5" ry="1.5" style="stroke:#181818;stroke-width:0.3;" width="45.6" x="1174.5" y="42.6"/><text fill="#000000" font-family="FG Virgil" font-size="8.4" font-style="italic" lengthAdjust="spacing" textLength="37.2" x="1178.7" y="55.8645">&#171;domain&#187;</text><text fill="#000000" font-family="FG Virgil" font-size="8.4" lengthAdjust="spacing" textLength="21" x="1186.8" y="67.0371">PostIt</text><rect fill="#E2E2F0" height="30.7453" rx="1.5" ry="1.5" style="stroke:#181818;stroke-width:0.3;" width="45.6" x="1174.5" y="726.5074"/><text fill="#000000" font-family="FG Virgil" font-size="8.4" font-style="italic" lengthAdjust="spacing" textLength="37.2" x="1178.7" y="739.7719">&#171;domain&#187;</text><text fill="#000000" font-family="FG Virgil" font-size="8.4" lengthAdjust="spacing" textLength="21" x="1186.8" y="750.9445">PostIt</text><rect fill="#E2E2F0" height="30.7453" rx="1.5" ry="1.5" style="stroke:#181818;stroke-width:0.3;" width="70.2" x="1235.4" y="42.6"/><text fill="#000000" font-family="FG Virgil" font-size="8.4" font-style="italic" lengthAdjust="spacing" textLength="47.4" x="1246.8" y="55.8645">&#171;repository&#187;</text><text fill="#000000" font-family="FG Virgil" font-size="8.4" lengthAdjust="spacing" textLength="61.8" x="1239.6" y="67.0371">PostItRepository</text><rect fill="#E2E2F0" height="30.7453" rx="1.5" ry="1.5" style="stroke:#181818;stroke-width:0.3;" width="70.2" x="1235.4" y="726.5074"/><text fill="#000000" font-family="FG Virgil" font-size="8.4" font-style="italic" lengthAdjust="spacing" textLength="47.4" x="1246.8" y="739.7719">&#171;repository&#187;</text><text fill="#000000" font-family="FG Virgil" font-size="8.4" lengthAdjust="spacing" textLength="61.8" x="1239.6" y="750.9445">PostItRepository</text><rect fill="#E2E2F0" height="30.7453" rx="1.5" ry="1.5" style="stroke:#181818;stroke-width:0.3;" width="58.8" x="1311.6" y="42.6"/><text fill="#000000" font-family="FG Virgil" font-size="8.4" font-style="italic" lengthAdjust="spacing" textLength="50.4" x="1315.8" y="55.8645">&#171;application&#187;</text><text fill="#000000" font-family="FG Virgil" font-size="8.4" lengthAdjust="spacing" textLength="49.8" x="1316.1" y="67.0371">BoardLogger</text><rect fill="#E2E2F0" height="30.7453" rx="1.5" ry="1.5" style="stroke:#181818;stroke-width:0.3;" width="58.8" x="1311.6" y="726.5074"/><text fill="#000000" font-family="FG Virgil" font-size="8.4" font-style="italic" lengthAdjust="spacing" textLength="50.4" x="1315.8" y="739.7719">&#171;application&#187;</text><text fill="#000000" font-family="FG Virgil" font-size="8.4" lengthAdjust="spacing" textLength="49.8" x="1316.1" y="750.9445">BoardLogger</text><rect fill="#FFFFFF" height="622.3875" style="stroke:#181818;stroke-width:0.6;" width="6" x="134.7" y="93.9199"/><rect fill="#FFFFFF" height="584.8383" style="stroke:#181818;stroke-width:0.6;" width="6" x="203.1" y="112.6945"/><rect fill="#FFFFFF" height="18.7746" style="stroke:#181818;stroke-width:0.6;" width="6" x="338.1" y="131.4691"/><rect fill="#FFFFFF" height="509.7398" style="stroke:#181818;stroke-width:0.6;" width="6" x="449.4" y="169.0184"/><rect fill="#FFFFFF" height="472.1906" style="stroke:#181818;stroke-width:0.6;" width="6" x="724.8" y="187.793"/><rect fill="#FFFFFF" height="18.7746" style="stroke:#181818;stroke-width:0.6;" width="6" x="897.6" y="225.3422"/><rect fill="#FFFFFF" height="18.7746" style="stroke:#181818;stroke-width:0.6;" width="6" x="897.6" y="262.8914"/><rect fill="#FFFFFF" height="200.9461" style="stroke:#181818;stroke-width:0.6;" width="6" x="975.3" y="333.1898"/><rect fill="#FFFFFF" height="18.7746" style="stroke:#181818;stroke-width:0.6;" width="6" x="1075.5" y="351.9645"/><rect fill="#FFFFFF" height="56.3238" style="stroke:#181818;stroke-width:0.6;" width="6" x="1134.9" y="389.5137"/><rect fill="#FFFFFF" height="18" style="stroke:#181818;stroke-width:0.6;" width="6" x="1194.3" y="464.6121"/><rect fill="#FFFFFF" height="18.7746" style="stroke:#181818;stroke-width:0.6;" width="6" x="1267.5" y="408.2883"/><rect fill="#FFFFFF" height="18.7746" style="stroke:#181818;stroke-width:0.6;" width="6" x="1267.5" y="552.9105"/><rect fill="#FFFFFF" height="18" style="stroke:#181818;stroke-width:0.6;" width="6" x="1338" y="590.4598"/><polygon fill="#181818" points="127.5,91.5199,133.5,93.9199,127.5,96.3199,129.9,93.9199" style="stroke:#181818;stroke-width:0.6;"/><line style="stroke:#181818;stroke-width:0.6;" x1="13.5" x2="131.1" y1="93.9199" y2="93.9199"/><text fill="#000000" font-family="FG Virgil" font-size="7.8" font-weight="bold" lengthAdjust="spacing" textLength="4.2" x="17.7" y="90.7623">1</text><text fill="#000000" font-family="FG Virgil" font-size="7.8" lengthAdjust="spacing" textLength="68.4" x="24.3" y="90.7623">undo post-it change</text><polygon fill="#181818" points="195.9,110.2945,201.9,112.6945,195.9,115.0945,198.3,112.6945" style="stroke:#181818;stroke-width:0.6;"/><line style="stroke:#181818;stroke-width:0.6;" x1="140.7" x2="199.5" y1="112.6945" y2="112.6945"/><text fill="#000000" font-family="FG Virgil" font-size="7.8" font-weight="bold" lengthAdjust="spacing" textLength="4.2" x="144.9" y="109.5369">2</text><text fill="#000000" font-family="FG Virgil" font-size="7.8" lengthAdjust="spacing" textLength="38.4" x="151.5" y="109.5369">POST /uno</text><polygon fill="#181818" points="330.9,129.0691,336.9,131.4691,330.9,133.8691,333.3,131.4691" style="stroke:#181818;stroke-width:0.6;"/><line style="stroke:#181818;stroke-width:0.6;" x1="209.1" x2="334.5" y1="131.4691" y2="131.4691"/><text fill="#000000" font-family="FG Virgil" font-size="7.8" font-weight="bold" lengthAdjust="spacing" textLength="4.2" x="213.3" y="128.3115">3</text><text fill="#000000" font-family="FG Virgil" font-size="7.8" lengthAdjust="spacing" textLength="107.4" x="219.9" y="128.3115">getEndpointProcessor(request)</text><polygon fill="#181818" points="215.7,147.8438,209.7,150.2438,215.7,152.6437,213.3,150.2438" style="stroke:#181818;stroke-width:0.6;"/><line style="stroke:#181818;stroke-width:0.6;" x1="212.1" x2="340.5" y1="150.2438" y2="150.2438"/><text fill="#000000" font-family="FG Virgil" font-size="7.8" font-weight="bold" lengthAdjust="spacing" textLength="4.2" x="219.3" y="147.0861">4</text><text fill="#000000" font-family="FG Virgil" font-size="7.8" lengthAdjust="spacing" textLength="108" x="225.9" y="147.0861">createPostItEndpointProcessor</text><polygon fill="#181818" points="442.2,166.6184,448.2,169.0184,442.2,171.4184,444.6,169.0184" style="stroke:#181818;stroke-width:0.6;"/><line style="stroke:#181818;stroke-width:0.6;" x1="209.1" x2="445.8" y1="169.0184" y2="169.0184"/><text fill="#000000" font-family="FG Virgil" font-size="7.8" font-weight="bold" lengthAdjust="spacing" textLength="4.2" x="213.3" y="165.8607">5</text><text fill="#000000" font-family="FG Virgil" font-size="7.8" lengthAdjust="spacing" textLength="87" x="219.9" y="165.8607">processRequest(request)</text><polygon fill="#181818" points="717.6,185.393,723.6,187.793,717.6,190.193,720,187.793" style="stroke:#181818;stroke-width:0.6;"/><line style="stroke:#181818;stroke-width:0.6;" x1="455.4" x2="721.2" y1="187.793" y2="187.793"/><text fill="#000000" font-family="FG Virgil" font-size="7.8" font-weight="bold" lengthAdjust="spacing" textLength="4.2" x="459.6" y="184.6354">6</text><text fill="#000000" font-family="FG Virgil" font-size="7.8" lengthAdjust="spacing" textLength="251.4" x="466.2" y="184.6354">create(postItRepository, boardLogger, boardSynchronizer,postItManager)</text><polygon fill="#181818" points="717.6,204.1676,723.6,206.5676,717.6,208.9676,720,206.5676" style="stroke:#181818;stroke-width:0.6;"/><line style="stroke:#181818;stroke-width:0.6;" x1="455.4" x2="721.2" y1="206.5676" y2="206.5676"/><text fill="#000000" font-family="FG Virgil" font-size="7.8" font-weight="bold" lengthAdjust="spacing" textLength="4.2" x="459.6" y="203.41">7</text><text fill="#000000" font-family="FG Virgil" font-size="7.8" lengthAdjust="spacing" textLength="154.2" x="466.2" y="203.41">undoPostItChange(board, user, row, column)</text><polygon fill="#181818" points="890.4,222.9422,896.4,225.3422,890.4,227.7422,892.8,225.3422" style="stroke:#181818;stroke-width:0.6;"/><line style="stroke:#181818;stroke-width:0.6;" x1="730.8" x2="894" y1="225.3422" y2="225.3422"/><text fill="#000000" font-family="FG Virgil" font-size="7.8" font-weight="bold" lengthAdjust="spacing" textLength="4.2" x="735" y="222.1846">8</text><text fill="#000000" font-family="FG Virgil" font-size="7.8" lengthAdjust="spacing" textLength="148.8" x="741.6" y="222.1846">createBoardCellLock(boardId, row, column)</text><polygon fill="#181818" points="737.4,241.7168,731.4,244.1168,737.4,246.5168,735,244.1168" style="stroke:#181818;stroke-width:0.6;"/><line style="stroke:#181818;stroke-width:0.6;stroke-dasharray:2.0,2.0;" x1="733.8" x2="900" y1="244.1168" y2="244.1168"/><text fill="#000000" font-family="FG Virgil" font-size="7.8" font-weight="bold" lengthAdjust="spacing" textLength="4.2" x="741" y="240.9592">9</text><text fill="#000000" font-family="FG Virgil" font-size="7.8" lengthAdjust="spacing" textLength="42.6" x="747.6" y="240.9592">cellLockKey</text><polygon fill="#181818" points="890.4,260.4914,896.4,262.8914,890.4,265.2914,892.8,262.8914" style="stroke:#181818;stroke-width:0.6;"/><line style="stroke:#181818;stroke-width:0.6;" x1="730.8" x2="894" y1="262.8914" y2="262.8914"/><text fill="#000000" font-family="FG Virgil" font-size="7.8" font-weight="bold" lengthAdjust="spacing" textLength="8.4" x="735" y="259.7338">10</text><text fill="#000000" font-family="FG Virgil" font-size="7.8" lengthAdjust="spacing" textLength="108.6" x="745.8" y="259.7338">getBoardCellLock(cellLockKey)</text><polygon fill="#181818" points="737.4,279.266,731.4,281.666,737.4,284.066,735,281.666" style="stroke:#181818;stroke-width:0.6;"/><line style="stroke:#181818;stroke-width:0.6;stroke-dasharray:2.0,2.0;" x1="733.8" x2="900" y1="281.666" y2="281.666"/><text fill="#000000" font-family="FG Virgil" font-size="7.8" font-weight="bold" lengthAdjust="spacing" textLength="8.4" x="741" y="278.5084">11</text><text fill="#000000" font-family="FG Virgil" font-size="7.8" lengthAdjust="spacing" textLength="21" x="751.8" y="278.5084">object</text><path d="M625.8,289.466 L625.8,315.866 L829.8,315.866 L829.8,295.466 L823.8,289.466 L625.8,289.466 " fill="#FEFFDD" style="stroke:#181818;stroke-width:0.3;"/><path d="M823.8,289.466 L823.8,295.466 L829.8,295.466 L823.8,289.466 " fill="#FEFFDD" style="stroke:#181818;stroke-width:0.3;"/><text fill="#000000" font-family="FG Virgil" font-size="7.8" lengthAdjust="spacing" textLength="178.2" x="629.4" y="300.883">This "object" represents the object that will be used</text><text fill="#000000" font-family="FG Virgil" font-size="7.8" lengthAdjust="spacing" textLength="191.4" x="629.4" y="311.2576">to synchronize the execution flow for the undo process.</text><polygon fill="#181818" points="968.1,330.7898,974.1,333.1898,968.1,335.5898,970.5,333.1898" style="stroke:#181818;stroke-width:0.6;"/><line style="stroke:#181818;stroke-width:0.6;" x1="730.8" x2="971.7" y1="333.1898" y2="333.1898"/><text fill="#000000" font-family="FG Virgil" font-size="7.8" font-weight="bold" lengthAdjust="spacing" textLength="8.4" x="735" y="330.0322">12</text><text fill="#000000" font-family="FG Virgil" font-size="7.8" lengthAdjust="spacing" textLength="156.6" x="745.8" y="330.0322">undoPostItChange(board, user,  row, column)</text><polygon fill="#181818" points="1068.3,349.5645,1074.3,351.9645,1068.3,354.3645,1070.7,351.9645" style="stroke:#181818;stroke-width:0.6;"/><line style="stroke:#181818;stroke-width:0.6;" x1="981.3" x2="1071.9" y1="351.9645" y2="351.9645"/><text fill="#000000" font-family="FG Virgil" font-size="7.8" font-weight="bold" lengthAdjust="spacing" textLength="8.4" x="985.5" y="348.8068">13</text><text fill="#000000" font-family="FG Virgil" font-size="7.8" lengthAdjust="spacing" textLength="72" x="996.3" y="348.8068">findCell(row, column)</text><polygon fill="#181818" points="987.9,368.3391,981.9,370.7391,987.9,373.1391,985.5,370.7391" style="stroke:#181818;stroke-width:0.6;"/><line style="stroke:#181818;stroke-width:0.6;stroke-dasharray:2.0,2.0;" x1="984.3" x2="1077.9" y1="370.7391" y2="370.7391"/><text fill="#000000" font-family="FG Virgil" font-size="7.8" font-weight="bold" lengthAdjust="spacing" textLength="8.4" x="991.5" y="367.5814">14</text><text fill="#000000" font-family="FG Virgil" font-size="7.8" lengthAdjust="spacing" textLength="32.4" x="1002.3" y="367.5814">boardCell</text><polygon fill="#181818" points="1127.7,387.1137,1133.7,389.5137,1127.7,391.9137,1130.1,389.5137" style="stroke:#181818;stroke-width:0.6;"/><line style="stroke:#181818;stroke-width:0.6;" x1="981.3" x2="1131.3" y1="389.5137" y2="389.5137"/><text fill="#000000" font-family="FG Virgil" font-size="7.8" font-weight="bold" lengthAdjust="spacing" textLength="8.4" x="985.5" y="386.3561">15</text><text fill="#000000" font-family="FG Virgil" font-size="7.8" lengthAdjust="spacing" textLength="104.4" x="996.3" y="386.3561">providePostItByCell(boardCell)</text><polygon fill="#181818" points="1260.3,405.8883,1266.3,408.2883,1260.3,410.6883,1262.7,408.2883" style="stroke:#181818;stroke-width:0.6;"/><line style="stroke:#181818;stroke-width:0.6;" x1="1140.9" x2="1263.9" y1="408.2883" y2="408.2883"/><text fill="#000000" font-family="FG Virgil" font-size="7.8" font-weight="bold" lengthAdjust="spacing" textLength="8.4" x="1145.1" y="405.1307">16</text><text fill="#000000" font-family="FG Virgil" font-size="7.8" lengthAdjust="spacing" textLength="104.4" x="1155.9" y="405.1307">providePostItByCell(boardCell)</text><polygon fill="#181818" points="1147.5,424.6629,1141.5,427.0629,1147.5,429.4629,1145.1,427.0629" style="stroke:#181818;stroke-width:0.6;"/><line style="stroke:#181818;stroke-width:0.6;stroke-dasharray:2.0,2.0;" x1="1143.9" x2="1269.9" y1="427.0629" y2="427.0629"/><text fill="#000000" font-family="FG Virgil" font-size="7.8" font-weight="bold" lengthAdjust="spacing" textLength="8.4" x="1151.1" y="423.9053">17</text><text fill="#000000" font-family="FG Virgil" font-size="7.8" lengthAdjust="spacing" textLength="19.2" x="1161.9" y="423.9053">postIt</text><polygon fill="#181818" points="987.9,443.4375,981.9,445.8375,987.9,448.2375,985.5,445.8375" style="stroke:#181818;stroke-width:0.6;"/><line style="stroke:#181818;stroke-width:0.6;stroke-dasharray:2.0,2.0;" x1="984.3" x2="1137.3" y1="445.8375" y2="445.8375"/><text fill="#000000" font-family="FG Virgil" font-size="7.8" font-weight="bold" lengthAdjust="spacing" textLength="8.4" x="991.5" y="442.6799">18</text><text fill="#000000" font-family="FG Virgil" font-size="7.8" lengthAdjust="spacing" textLength="19.2" x="1002.3" y="442.6799">postIt</text><polygon fill="#181818" points="1187.1,462.2121,1193.1,464.6121,1187.1,467.0121,1189.5,464.6121" style="stroke:#181818;stroke-width:0.6;"/><line style="stroke:#181818;stroke-width:0.6;" x1="981.3" x2="1190.7" y1="464.6121" y2="464.6121"/><text fill="#000000" font-family="FG Virgil" font-size="7.8" font-weight="bold" lengthAdjust="spacing" textLength="8.4" x="985.5" y="461.4545">19</text><text fill="#000000" font-family="FG Virgil" font-size="7.8" lengthAdjust="spacing" textLength="78" x="996.3" y="461.4545">undoLastChange(user)</text><path d="M1071.6,490.4121 L1071.6,516.8121 L1323,516.8121 L1323,496.4121 L1317,490.4121 L1071.6,490.4121 " fill="#FEFFDD" style="stroke:#181818;stroke-width:0.3;"/><path d="M1317,490.4121 L1317,496.4121 L1323,496.4121 L1317,490.4121 " fill="#FEFFDD" style="stroke:#181818;stroke-width:0.3;"/><text fill="#000000" font-family="FG Virgil" font-size="7.8" lengthAdjust="spacing" textLength="168.6" x="1075.2" y="501.8291">The postIt will check if the user that tried to undo</text><text fill="#000000" font-family="FG Virgil" font-size="7.8" lengthAdjust="spacing" textLength="238.8" x="1075.2" y="512.2037">the last change is it's owner and also if there is any previous content.</text><polygon fill="#181818" points="737.4,531.7359,731.4,534.1359,737.4,536.5359,735,534.1359" style="stroke:#181818;stroke-width:0.6;"/><line style="stroke:#181818;stroke-width:0.6;stroke-dasharray:2.0,2.0;" x1="733.8" x2="977.7" y1="534.1359" y2="534.1359"/><text fill="#000000" font-family="FG Virgil" font-size="7.8" font-weight="bold" lengthAdjust="spacing" textLength="8.4" x="741" y="530.9783">20</text><text fill="#000000" font-family="FG Virgil" font-size="7.8" lengthAdjust="spacing" textLength="19.2" x="751.8" y="530.9783">postIt</text><polygon fill="#181818" points="1260.3,550.5105,1266.3,552.9105,1260.3,555.3105,1262.7,552.9105" style="stroke:#181818;stroke-width:0.6;"/><line style="stroke:#181818;stroke-width:0.6;" x1="730.8" x2="1263.9" y1="552.9105" y2="552.9105"/><text fill="#000000" font-family="FG Virgil" font-size="7.8" font-weight="bold" lengthAdjust="spacing" textLength="8.4" x="735" y="549.7529">21</text><text fill="#000000" font-family="FG Virgil" font-size="7.8" lengthAdjust="spacing" textLength="39.6" x="745.8" y="549.7529">save(postIt)</text><polygon fill="#181818" points="737.4,569.2852,731.4,571.6852,737.4,574.0852,735,571.6852" style="stroke:#181818;stroke-width:0.6;"/><line style="stroke:#181818;stroke-width:0.6;stroke-dasharray:2.0,2.0;" x1="733.8" x2="1269.9" y1="571.6852" y2="571.6852"/><text fill="#000000" font-family="FG Virgil" font-size="7.8" font-weight="bold" lengthAdjust="spacing" textLength="8.4" x="741" y="568.5275">22</text><text fill="#000000" font-family="FG Virgil" font-size="7.8" lengthAdjust="spacing" textLength="19.2" x="751.8" y="568.5275">postIt</text><polygon fill="#181818" points="1330.8,588.0598,1336.8,590.4598,1330.8,592.8598,1333.2,590.4598" style="stroke:#181818;stroke-width:0.6;"/><line style="stroke:#181818;stroke-width:0.6;" x1="730.8" x2="1334.4" y1="590.4598" y2="590.4598"/><text fill="#000000" font-family="FG Virgil" font-size="7.8" font-weight="bold" lengthAdjust="spacing" textLength="8.4" x="735" y="587.3021">23</text><text fill="#000000" font-family="FG Virgil" font-size="7.8" lengthAdjust="spacing" textLength="92.4" x="745.8" y="587.3021">logPostItUndo(board, user)</text><path d="M1229.4,616.2598 L1229.4,642.6598 L1452,642.6598 L1452,622.2598 L1446,616.2598 L1229.4,616.2598 " fill="#FEFFDD" style="stroke:#181818;stroke-width:0.3;"/><path d="M1446,616.2598 L1446,622.2598 L1452,622.2598 L1446,616.2598 " fill="#FEFFDD" style="stroke:#181818;stroke-width:0.3;"/><text fill="#000000" font-family="FG Virgil" font-size="7.8" lengthAdjust="spacing" textLength="204" x="1233" y="627.6768">The logger service is responsible for both creation and save</text><text fill="#000000" font-family="FG Virgil" font-size="7.8" lengthAdjust="spacing" textLength="210" x="1233" y="638.0514">of the created BoardLog,  so it was decided to omit this part.</text><polygon fill="#181818" points="462,657.5836,456,659.9836,462,662.3836,459.6,659.9836" style="stroke:#181818;stroke-width:0.6;"/><line style="stroke:#181818;stroke-width:0.6;stroke-dasharray:2.0,2.0;" x1="458.4" x2="727.2" y1="659.9836" y2="659.9836"/><text fill="#000000" font-family="FG Virgil" font-size="7.8" font-weight="bold" lengthAdjust="spacing" textLength="8.4" x="465.6" y="656.826">24</text><text fill="#000000" font-family="FG Virgil" font-size="7.8" lengthAdjust="spacing" textLength="29.4" x="476.4" y="656.826">success</text><polygon fill="#181818" points="215.7,676.3582,209.7,678.7582,215.7,681.1582,213.3,678.7582" style="stroke:#181818;stroke-width:0.6;"/><line style="stroke:#181818;stroke-width:0.6;stroke-dasharray:2.0,2.0;" x1="212.1" x2="451.8" y1="678.7582" y2="678.7582"/><text fill="#000000" font-family="FG Virgil" font-size="7.8" font-weight="bold" lengthAdjust="spacing" textLength="8.4" x="219.3" y="675.6006">25</text><text fill="#000000" font-family="FG Virgil" font-size="7.8" lengthAdjust="spacing" textLength="29.4" x="230.1" y="675.6006">success</text><polygon fill="#181818" points="147.3,695.1328,141.3,697.5328,147.3,699.9328,144.9,697.5328" style="stroke:#181818;stroke-width:0.6;"/><line style="stroke:#181818;stroke-width:0.6;stroke-dasharray:2.0,2.0;" x1="143.7" x2="205.5" y1="697.5328" y2="697.5328"/><text fill="#000000" font-family="FG Virgil" font-size="7.8" font-weight="bold" lengthAdjust="spacing" textLength="8.4" x="150.9" y="694.3752">26</text><text fill="#000000" font-family="FG Virgil" font-size="7.8" lengthAdjust="spacing" textLength="29.4" x="161.7" y="694.3752">success</text><polygon fill="#181818" points="20.1,713.9074,14.1,716.3074,20.1,718.7074,17.7,716.3074" style="stroke:#181818;stroke-width:0.6;"/><line style="stroke:#181818;stroke-width:0.6;stroke-dasharray:2.0,2.0;" x1="16.5" x2="137.1" y1="716.3074" y2="716.3074"/><text fill="#000000" font-family="FG Virgil" font-size="7.8" font-weight="bold" lengthAdjust="spacing" textLength="8.4" x="23.7" y="713.1498">27</text><text fill="#000000" font-family="FG Virgil" font-size="7.8" lengthAdjust="spacing" textLength="96" x="34.5" y="713.1498">display success notification</text><!--SRC=[ZLPBSzem4BxhLsYubCn0UcSoEIJJD9ccBPEGdd8HiW0L8xcI3AM_lgiNNjj0E26Z_VRvxQvOxRIgDtDXY5rBLJ73DhHYVCsMujNjIq6Du0xT5MB1wj8zQEL-i8sW3r_fBscMiaGoTiKAlPDgIHUij88G9nrekZU2EK6dshgnT8GmxhIXWpShp80oIsiu4D3W99SLKuuExepUvTjvFDERcyVPR7fxsvPyTAvw4NzgOTqZKqMPGAjuFW7weefAI-McHdDXhJOFmQLzW2xY-GJK1_7aUWe2iifVW6LLLKhEdDIgg-9D5JggkGStb-8UKcfqcLtdXy_pQkuqCyNhNl6LqKh-IsWBVvp7HTFVcO9AHymcdW5Mw0sJnot5MlZJIRce6NAobKLINRN-kiGn1Fl0q8i0CNcecpby0gxvE1hCirxcuCjmx7b6F2df-3RJRq9hA5jm33XCUQYSPxBSUcudAK8oMm6PE3YP_doTqS-rqerukYAPfY2TQJUXIz7drz14ZbyrEXA0P61Z4NJmq78do4eAqTE2F6beFCddr657l3W84zBWG4d3ukpCiEfKRHJf56kHFZ2VHnLcAhBPw3vZjEvqsJ3e7uLXCw9GfH68b_L6NH62MWwq-1RAJWUst8koVDPy7LKy5HtumIyF92HquBYRWgJYczZZx4V4CVD0WhPjfE4oath-sq_mdZMbuQYtO0nBprRIqa7437ml6M65SfQwbKYguCWStScof7FXyrYyAwU3rbIo82p-2bxxBgABKk_e0ahZ_uxj4wjrtOqvJQ2FgdOYxmbDI1valcqzRa8NKeKK3eyZWnGqRHXhO-p8F2SV9p298pFj-HRwnPzY27VxOFgW2hTD2mSqRiz9qDnCiCkrDXX2q3WS7tCqVEFWCBZh3ivC7zaDffUVMDTdPdDLVJbxsS3KpBZPAjz6ul6Lu6ig5v5IVj06KZeZHK61ZDuEi18kIx2MnZG5QaltoLAzKu20IKVXUQAJ6XFkcTf3ciLMwZgkO23_TJz855odtVffET2opNLSMCksUIvULiRp5Z6mRJHkkOd_ZIpoZn3SNCXybCNLo6XVZRGl0RALFAGE9aMbbPLpUEhvRfzhjuhZqmy1dsqVvhlIiMfni1OqBs9eQryBA31iuq9mu50efTv8FtB0WD_VC39GeDb572JUN93PcliZ1frO6sXJ7qEX1NVOaVXPS0IIjtlp60107QGBQQkIxJEAGexb8hqwMX7c1yL_]--></g></svg>