<?xml version="1.0" encoding="us-ascii" standalone="no"?><svg xmlns="http://www.w3.org/2000/svg" xmlns:xlink="http://www.w3.org/1999/xlink" contentStyleType="text/css" height="1384px" preserveAspectRatio="none" style="width:1717px;height:1384px;background:#FFFFFF;" version="1.1" viewBox="0 0 1717 1384" width="1717px" zoomAndPan="magnify"><defs/><g><text fill="#000000" font-family="sans-serif" font-size="14" font-weight="bold" lengthAdjust="spacing" textLength="196" x="762.25" y="30.1074">Bulk Enroll Students By CSV</text><rect fill="#FFFFFF" height="1115.4766" style="stroke:#181818;stroke-width:1.0;" width="10" x="262" y="161.1543"/><rect fill="#FFFFFF" height="111.1641" style="stroke:#181818;stroke-width:1.0;" width="10" x="513" y="241.0273"/><rect fill="#FFFFFF" height="519.6563" style="stroke:#181818;stroke-width:1.0;" width="10" x="513" y="508.6465"/><rect fill="#FFFFFF" height="31.291" style="stroke:#181818;stroke-width:1.0;" width="10" x="721.5" y="289.6094"/><rect fill="#FFFFFF" height="425.7832" style="stroke:#181818;stroke-width:1.0;" width="10" x="905.5" y="571.2285"/><rect fill="#FFFFFF" height="173.4551" style="stroke:#181818;stroke-width:1.0;" width="10" x="910.5" y="793.2656"/><rect fill="#FFFFFF" height="57.582" style="stroke:#181818;stroke-width:1.0;" width="10" x="1222.5" y="829.5566"/><rect fill="#FFFFFF" height="31.291" style="stroke:#181818;stroke-width:1.0;" width="10" x="1427.5" y="722.6836"/><rect fill="none" height="349.2012" style="stroke:#000000;stroke-width:1.5;" width="906" x="805.5" y="617.5195"/><rect fill="none" height="115.1641" style="stroke:#000000;stroke-width:1.5;" width="886" x="815.5" y="844.5566"/><rect fill="none" height="128.1641" style="stroke:#000000;stroke-width:1.5;" width="472" x="10" y="1109.1758"/><line style="stroke:#181818;stroke-width:0.5;stroke-dasharray:5.0,5.0;" x1="51" x2="51" y1="127.8633" y2="1285.6309"/><line style="stroke:#181818;stroke-width:0.5;stroke-dasharray:5.0,5.0;" x1="266.5" x2="266.5" y1="127.8633" y2="1285.6309"/><line style="stroke:#181818;stroke-width:0.5;stroke-dasharray:5.0,5.0;" x1="517.5" x2="517.5" y1="127.8633" y2="1285.6309"/><line style="stroke:#181818;stroke-width:0.5;stroke-dasharray:5.0,5.0;" x1="726.5" x2="726.5" y1="127.8633" y2="1285.6309"/><line style="stroke:#181818;stroke-width:0.5;stroke-dasharray:5.0,5.0;" x1="910.5" x2="910.5" y1="127.8633" y2="1285.6309"/><line style="stroke:#181818;stroke-width:0.5;stroke-dasharray:5.0,5.0;" x1="1227.5" x2="1227.5" y1="127.8633" y2="1285.6309"/><line style="stroke:#181818;stroke-width:0.5;stroke-dasharray:5.0,5.0;" x1="1432.5" x2="1432.5" y1="127.8633" y2="1285.6309"/><line style="stroke:#181818;stroke-width:0.5;stroke-dasharray:5.0,5.0;" x1="1606.5" x2="1606.5" y1="127.8633" y2="1285.6309"/><text fill="#000000" font-family="sans-serif" font-size="14" lengthAdjust="spacing" textLength="56" x="20" y="124.3496">Manager</text><ellipse cx="51" cy="57.7422" fill="#E2E2F0" rx="8" ry="8" style="stroke:#181818;stroke-width:0.5;"/><path d="M51,65.7422 L51,92.7422 M38,73.7422 L64,73.7422 M51,92.7422 L38,107.7422 M51,92.7422 L64,107.7422 " fill="none" style="stroke:#181818;stroke-width:0.5;"/><text fill="#000000" font-family="sans-serif" font-size="14" lengthAdjust="spacing" textLength="56" x="20" y="1299.7383">Manager</text><ellipse cx="51" cy="1311.752" fill="#E2E2F0" rx="8" ry="8" style="stroke:#181818;stroke-width:0.5;"/><path d="M51,1319.752 L51,1346.752 M38,1327.752 L64,1327.752 M51,1346.752 L38,1361.752 M51,1346.752 L64,1361.752 " fill="none" style="stroke:#181818;stroke-width:0.5;"/><rect fill="#E2E2F0" height="51.2422" rx="2.5" ry="2.5" style="stroke:#181818;stroke-width:0.5;" width="169" x="182.5" y="75.6211"/><text fill="#000000" font-family="sans-serif" font-size="14" font-style="italic" lengthAdjust="spacing" textLength="27" x="253.5" y="97.7285">&#171;ui&#187;</text><text fill="#000000" font-family="sans-serif" font-size="14" lengthAdjust="spacing" textLength="155" x="189.5" y="116.3496">BulkEnrollStudentsCsvUI</text><rect fill="#E2E2F0" height="51.2422" rx="2.5" ry="2.5" style="stroke:#181818;stroke-width:0.5;" width="169" x="182.5" y="1284.6309"/><text fill="#000000" font-family="sans-serif" font-size="14" font-style="italic" lengthAdjust="spacing" textLength="27" x="253.5" y="1306.7383">&#171;ui&#187;</text><text fill="#000000" font-family="sans-serif" font-size="14" lengthAdjust="spacing" textLength="155" x="189.5" y="1325.3594">BulkEnrollStudentsCsvUI</text><rect fill="#E2E2F0" height="51.2422" rx="2.5" ry="2.5" style="stroke:#181818;stroke-width:0.5;" width="219" x="408.5" y="75.6211"/><text fill="#000000" font-family="sans-serif" font-size="14" font-style="italic" lengthAdjust="spacing" textLength="84" x="476" y="97.7285">&#171;application&#187;</text><text fill="#000000" font-family="sans-serif" font-size="14" lengthAdjust="spacing" textLength="205" x="415.5" y="116.3496">BulkEnrollStudentsCsvController</text><rect fill="#E2E2F0" height="51.2422" rx="2.5" ry="2.5" style="stroke:#181818;stroke-width:0.5;" width="219" x="408.5" y="1284.6309"/><text fill="#000000" font-family="sans-serif" font-size="14" font-style="italic" lengthAdjust="spacing" textLength="84" x="476" y="1306.7383">&#171;application&#187;</text><text fill="#000000" font-family="sans-serif" font-size="14" lengthAdjust="spacing" textLength="205" x="415.5" y="1325.3594">BulkEnrollStudentsCsvController</text><rect fill="#E2E2F0" height="51.2422" rx="2.5" ry="2.5" style="stroke:#181818;stroke-width:0.5;" width="178" x="637.5" y="75.6211"/><text fill="#000000" font-family="sans-serif" font-size="14" font-style="italic" lengthAdjust="spacing" textLength="84" x="684.5" y="97.7285">&#171;application&#187;</text><text fill="#000000" font-family="sans-serif" font-size="14" lengthAdjust="spacing" textLength="164" x="644.5" y="116.3496">ListCourseByStateService</text><rect fill="#E2E2F0" height="51.2422" rx="2.5" ry="2.5" style="stroke:#181818;stroke-width:0.5;" width="178" x="637.5" y="1284.6309"/><text fill="#000000" font-family="sans-serif" font-size="14" font-style="italic" lengthAdjust="spacing" textLength="84" x="684.5" y="1306.7383">&#171;application&#187;</text><text fill="#000000" font-family="sans-serif" font-size="14" lengthAdjust="spacing" textLength="164" x="644.5" y="1325.3594">ListCourseByStateService</text><rect fill="#E2E2F0" height="51.2422" rx="2.5" ry="2.5" style="stroke:#181818;stroke-width:0.5;" width="170" x="825.5" y="75.6211"/><text fill="#000000" font-family="sans-serif" font-size="14" font-style="italic" lengthAdjust="spacing" textLength="84" x="868.5" y="97.7285">&#171;application&#187;</text><text fill="#000000" font-family="sans-serif" font-size="14" lengthAdjust="spacing" textLength="156" x="832.5" y="116.3496">CsvBulkStudentsEnroller</text><rect fill="#E2E2F0" height="51.2422" rx="2.5" ry="2.5" style="stroke:#181818;stroke-width:0.5;" width="170" x="825.5" y="1284.6309"/><text fill="#000000" font-family="sans-serif" font-size="14" font-style="italic" lengthAdjust="spacing" textLength="84" x="868.5" y="1306.7383">&#171;application&#187;</text><text fill="#000000" font-family="sans-serif" font-size="14" lengthAdjust="spacing" textLength="156" x="832.5" y="1325.3594">CsvBulkStudentsEnroller</text><rect fill="#E2E2F0" height="51.2422" rx="2.5" ry="2.5" style="stroke:#181818;stroke-width:0.5;" width="230" x="1112.5" y="75.6211"/><text fill="#000000" font-family="sans-serif" font-size="14" font-style="italic" lengthAdjust="spacing" textLength="84" x="1185.5" y="97.7285">&#171;application&#187;</text><text fill="#000000" font-family="sans-serif" font-size="14" lengthAdjust="spacing" textLength="216" x="1119.5" y="116.3496">RegisterEnrolledStudentController</text><rect fill="#E2E2F0" height="51.2422" rx="2.5" ry="2.5" style="stroke:#181818;stroke-width:0.5;" width="230" x="1112.5" y="1284.6309"/><text fill="#000000" font-family="sans-serif" font-size="14" font-style="italic" lengthAdjust="spacing" textLength="84" x="1185.5" y="1306.7383">&#171;application&#187;</text><text fill="#000000" font-family="sans-serif" font-size="14" lengthAdjust="spacing" textLength="216" x="1119.5" y="1325.3594">RegisterEnrolledStudentController</text><text fill="#000000" font-family="sans-serif" font-size="14" font-style="italic" lengthAdjust="spacing" textLength="79" x="1390" y="105.7285">&#171;repository&#187;</text><text fill="#000000" font-family="sans-serif" font-size="14" lengthAdjust="spacing" textLength="154" x="1352.5" y="124.3496">IeCourseUserRepository</text><path d="M1414.5,54.6211 C1414.5,44.6211 1432.5,44.6211 1432.5,44.6211 C1432.5,44.6211 1450.5,44.6211 1450.5,54.6211 L1450.5,80.6211 C1450.5,90.6211 1432.5,90.6211 1432.5,90.6211 C1432.5,90.6211 1414.5,90.6211 1414.5,80.6211 L1414.5,54.6211 " fill="#E2E2F0" style="stroke:#181818;stroke-width:1.5;"/><path d="M1414.5,54.6211 C1414.5,64.6211 1432.5,64.6211 1432.5,64.6211 C1432.5,64.6211 1450.5,64.6211 1450.5,54.6211 " fill="none" style="stroke:#181818;stroke-width:1.5;"/><text fill="#000000" font-family="sans-serif" font-size="14" font-style="italic" lengthAdjust="spacing" textLength="79" x="1390" y="1299.7383">&#171;repository&#187;</text><text fill="#000000" font-family="sans-serif" font-size="14" lengthAdjust="spacing" textLength="154" x="1352.5" y="1318.3594">IeCourseUserRepository</text><path d="M1414.5,1331.873 C1414.5,1321.873 1432.5,1321.873 1432.5,1321.873 C1432.5,1321.873 1450.5,1321.873 1450.5,1331.873 L1450.5,1357.873 C1450.5,1367.873 1432.5,1367.873 1432.5,1367.873 C1432.5,1367.873 1414.5,1367.873 1414.5,1357.873 L1414.5,1331.873 " fill="#E2E2F0" style="stroke:#181818;stroke-width:1.5;"/><path d="M1414.5,1331.873 C1414.5,1341.873 1432.5,1341.873 1432.5,1341.873 C1432.5,1341.873 1450.5,1341.873 1450.5,1331.873 " fill="none" style="stroke:#181818;stroke-width:1.5;"/><rect fill="#E2E2F0" height="51.2422" rx="2.5" ry="2.5" style="stroke:#181818;stroke-width:0.5;" width="169" x="1522.5" y="75.6211"/><text fill="#000000" font-family="sans-serif" font-size="14" font-style="italic" lengthAdjust="spacing" textLength="36" x="1589" y="97.7285">&#171;dto&#187;</text><text fill="#000000" font-family="sans-serif" font-size="14" lengthAdjust="spacing" textLength="155" x="1529.5" y="116.3496">BulkEnrollStudentReport</text><rect fill="#E2E2F0" height="51.2422" rx="2.5" ry="2.5" style="stroke:#181818;stroke-width:0.5;" width="169" x="1522.5" y="1284.6309"/><text fill="#000000" font-family="sans-serif" font-size="14" font-style="italic" lengthAdjust="spacing" textLength="36" x="1589" y="1306.7383">&#171;dto&#187;</text><text fill="#000000" font-family="sans-serif" font-size="14" lengthAdjust="spacing" textLength="155" x="1529.5" y="1325.3594">BulkEnrollStudentReport</text><rect fill="#FFFFFF" height="1115.4766" style="stroke:#181818;stroke-width:1.0;" width="10" x="262" y="161.1543"/><rect fill="#FFFFFF" height="111.1641" style="stroke:#181818;stroke-width:1.0;" width="10" x="513" y="241.0273"/><rect fill="#FFFFFF" height="519.6563" style="stroke:#181818;stroke-width:1.0;" width="10" x="513" y="508.6465"/><rect fill="#FFFFFF" height="31.291" style="stroke:#181818;stroke-width:1.0;" width="10" x="721.5" y="289.6094"/><rect fill="#FFFFFF" height="425.7832" style="stroke:#181818;stroke-width:1.0;" width="10" x="905.5" y="571.2285"/><rect fill="#FFFFFF" height="173.4551" style="stroke:#181818;stroke-width:1.0;" width="10" x="910.5" y="793.2656"/><rect fill="#FFFFFF" height="57.582" style="stroke:#181818;stroke-width:1.0;" width="10" x="1222.5" y="829.5566"/><rect fill="#FFFFFF" height="31.291" style="stroke:#181818;stroke-width:1.0;" width="10" x="1427.5" y="722.6836"/><polygon fill="#181818" points="250,157.1543,260,161.1543,250,165.1543,254,161.1543" style="stroke:#181818;stroke-width:1.0;"/><line style="stroke:#181818;stroke-width:1.0;" x1="0" x2="256" y1="161.1543" y2="161.1543"/><text fill="#000000" font-family="sans-serif" font-size="13" font-weight="bold" lengthAdjust="spacing" textLength="7" x="7" y="155.8916">1</text><text fill="#000000" font-family="sans-serif" font-size="13" lengthAdjust="spacing" textLength="42" x="18" y="155.8916">onLoad</text><polygon fill="#181818" points="506,205.7363,516,209.7363,506,213.7363,510,209.7363" style="stroke:#181818;stroke-width:1.0;"/><line style="stroke:#181818;stroke-width:1.0;" x1="272" x2="512" y1="209.7363" y2="209.7363"/><text fill="#000000" font-family="sans-serif" font-size="13" font-weight="bold" lengthAdjust="spacing" textLength="7" x="279" y="195.8281">2</text><text fill="#000000" font-family="sans-serif" font-size="13" lengthAdjust="spacing" textLength="177" x="290" y="187.1826">create(listCoursesByStateSvc,</text><text fill="#000000" font-family="sans-serif" font-size="13" lengthAdjust="spacing" textLength="145" x="294" y="204.4736">csvBulkStudentsEnroller)</text><polygon fill="#181818" points="501,237.0273,511,241.0273,501,245.0273,505,241.0273" style="stroke:#181818;stroke-width:1.0;"/><line style="stroke:#181818;stroke-width:1.0;" x1="272" x2="507" y1="241.0273" y2="241.0273"/><text fill="#000000" font-family="sans-serif" font-size="13" font-weight="bold" lengthAdjust="spacing" textLength="7" x="279" y="235.7646">3</text><text fill="#000000" font-family="sans-serif" font-size="13" lengthAdjust="spacing" textLength="130" x="290" y="235.7646">listEnrollableCourses()</text><polygon fill="#181818" points="709.5,285.6094,719.5,289.6094,709.5,293.6094,713.5,289.6094" style="stroke:#181818;stroke-width:1.0;"/><line style="stroke:#181818;stroke-width:1.0;" x1="523" x2="715.5" y1="289.6094" y2="289.6094"/><text fill="#000000" font-family="sans-serif" font-size="13" font-weight="bold" lengthAdjust="spacing" textLength="7" x="530" y="275.7012">4</text><text fill="#000000" font-family="sans-serif" font-size="13" lengthAdjust="spacing" textLength="112" x="541" y="267.0557">listCoursesByState</text><text fill="#000000" font-family="sans-serif" font-size="13" lengthAdjust="spacing" textLength="135" x="541" y="284.3467">(CourseState.ENROLL)</text><polygon fill="#181818" points="534,316.9004,524,320.9004,534,324.9004,530,320.9004" style="stroke:#181818;stroke-width:1.0;"/><line style="stroke:#181818;stroke-width:1.0;stroke-dasharray:2.0,2.0;" x1="528" x2="725.5" y1="320.9004" y2="320.9004"/><text fill="#000000" font-family="sans-serif" font-size="13" font-weight="bold" lengthAdjust="spacing" textLength="7" x="540" y="315.6377">5</text><text fill="#000000" font-family="sans-serif" font-size="13" lengthAdjust="spacing" textLength="46" x="551" y="315.6377">courses</text><polygon fill="#181818" points="283,348.1914,273,352.1914,283,356.1914,279,352.1914" style="stroke:#181818;stroke-width:1.0;"/><line style="stroke:#181818;stroke-width:1.0;stroke-dasharray:2.0,2.0;" x1="277" x2="517" y1="352.1914" y2="352.1914"/><text fill="#000000" font-family="sans-serif" font-size="13" font-weight="bold" lengthAdjust="spacing" textLength="7" x="289" y="346.9287">6</text><text fill="#000000" font-family="sans-serif" font-size="13" lengthAdjust="spacing" textLength="46" x="300" y="346.9287">courses</text><polygon fill="#181818" points="62,379.4824,52,383.4824,62,387.4824,58,383.4824" style="stroke:#181818;stroke-width:1.0;"/><line style="stroke:#181818;stroke-width:1.0;stroke-dasharray:2.0,2.0;" x1="56" x2="261" y1="383.4824" y2="383.4824"/><text fill="#000000" font-family="sans-serif" font-size="13" font-weight="bold" lengthAdjust="spacing" textLength="7" x="68" y="378.2197">7</text><text fill="#000000" font-family="sans-serif" font-size="13" lengthAdjust="spacing" textLength="74" x="79" y="378.2197">lists courses</text><polygon fill="#181818" points="250,410.7734,260,414.7734,250,418.7734,254,414.7734" style="stroke:#181818;stroke-width:1.0;"/><line style="stroke:#181818;stroke-width:1.0;" x1="51" x2="256" y1="414.7734" y2="414.7734"/><text fill="#000000" font-family="sans-serif" font-size="13" font-weight="bold" lengthAdjust="spacing" textLength="7" x="58" y="409.5107">8</text><text fill="#000000" font-family="sans-serif" font-size="13" lengthAdjust="spacing" textLength="96" x="69" y="409.5107">selects a course</text><polygon fill="#181818" points="62,442.0645,52,446.0645,62,450.0645,58,446.0645" style="stroke:#181818;stroke-width:1.0;"/><line style="stroke:#181818;stroke-width:1.0;stroke-dasharray:2.0,2.0;" x1="56" x2="261" y1="446.0645" y2="446.0645"/><text fill="#000000" font-family="sans-serif" font-size="13" font-weight="bold" lengthAdjust="spacing" textLength="7" x="68" y="440.8018">9</text><text fill="#000000" font-family="sans-serif" font-size="13" lengthAdjust="spacing" textLength="108" x="79" y="440.8018">asks for a CSV file</text><polygon fill="#181818" points="250,473.3555,260,477.3555,250,481.3555,254,477.3555" style="stroke:#181818;stroke-width:1.0;"/><line style="stroke:#181818;stroke-width:1.0;" x1="51" x2="256" y1="477.3555" y2="477.3555"/><text fill="#000000" font-family="sans-serif" font-size="13" font-weight="bold" lengthAdjust="spacing" textLength="14" x="58" y="472.0928">10</text><text fill="#000000" font-family="sans-serif" font-size="13" lengthAdjust="spacing" textLength="107" x="76" y="472.0928">uploads a CSV file</text><polygon fill="#181818" points="501,504.6465,511,508.6465,501,512.6465,505,508.6465" style="stroke:#181818;stroke-width:1.0;"/><line style="stroke:#181818;stroke-width:1.0;" x1="272" x2="507" y1="508.6465" y2="508.6465"/><text fill="#000000" font-family="sans-serif" font-size="13" font-weight="bold" lengthAdjust="spacing" textLength="14" x="279" y="503.3838">11</text><text fill="#000000" font-family="sans-serif" font-size="13" lengthAdjust="spacing" textLength="204" x="297" y="503.3838">bulkEnrollStudents(course, csvFile)</text><polygon fill="#181818" points="898.5,535.9375,908.5,539.9375,898.5,543.9375,902.5,539.9375" style="stroke:#181818;stroke-width:1.0;"/><line style="stroke:#181818;stroke-width:1.0;" x1="523" x2="904.5" y1="539.9375" y2="539.9375"/><text fill="#000000" font-family="sans-serif" font-size="13" font-weight="bold" lengthAdjust="spacing" textLength="14" x="530" y="534.6748">12</text><text fill="#000000" font-family="sans-serif" font-size="13" lengthAdjust="spacing" textLength="227" x="548" y="534.6748">create(userRepo, enrolledStudentRepo)</text><polygon fill="#181818" points="893.5,567.2285,903.5,571.2285,893.5,575.2285,897.5,571.2285" style="stroke:#181818;stroke-width:1.0;"/><line style="stroke:#181818;stroke-width:1.0;" x1="523" x2="899.5" y1="571.2285" y2="571.2285"/><text fill="#000000" font-family="sans-serif" font-size="13" font-weight="bold" lengthAdjust="spacing" textLength="14" x="530" y="565.9658">13</text><text fill="#000000" font-family="sans-serif" font-size="13" lengthAdjust="spacing" textLength="204" x="548" y="565.9658">bulkEnrollStudents(course, csvFile)</text><polygon fill="#181818" points="1215.5,598.5195,1225.5,602.5195,1215.5,606.5195,1219.5,602.5195" style="stroke:#181818;stroke-width:1.0;"/><line style="stroke:#181818;stroke-width:1.0;" x1="915.5" x2="1221.5" y1="602.5195" y2="602.5195"/><text fill="#000000" font-family="sans-serif" font-size="13" font-weight="bold" lengthAdjust="spacing" textLength="14" x="922.5" y="597.2568">14</text><text fill="#000000" font-family="sans-serif" font-size="13" lengthAdjust="spacing" textLength="164" x="940.5" y="597.2568">create(enrolledStudentRepo)</text><path d="M805.5,617.5195 L878.5,617.5195 L878.5,626.8105 L868.5,636.8105 L805.5,636.8105 L805.5,617.5195 " fill="#EEEEEE" style="stroke:#000000;stroke-width:1.5;"/><rect fill="none" height="349.2012" style="stroke:#000000;stroke-width:1.5;" width="906" x="805.5" y="617.5195"/><text fill="#000000" font-family="sans-serif" font-size="13" font-weight="bold" lengthAdjust="spacing" textLength="28" x="820.5" y="632.5479">loop</text><text fill="#000000" font-family="sans-serif" font-size="11" font-weight="bold" lengthAdjust="spacing" textLength="202" x="893.5" y="631.3896">[while there are lines in the CSV file]</text><polygon fill="#181818" points="1595,656.1016,1605,660.1016,1595,664.1016,1599,660.1016" style="stroke:#181818;stroke-width:1.0;"/><line style="stroke:#181818;stroke-width:1.0;" x1="915.5" x2="1601" y1="660.1016" y2="660.1016"/><text fill="#000000" font-family="sans-serif" font-size="13" font-weight="bold" lengthAdjust="spacing" textLength="14" x="922.5" y="654.8389">15</text><text fill="#000000" font-family="sans-serif" font-size="13" lengthAdjust="spacing" textLength="36" x="940.5" y="654.8389">create</text><polygon fill="#181818" points="1595,687.3926,1605,691.3926,1595,695.3926,1599,691.3926" style="stroke:#181818;stroke-width:1.0;"/><line style="stroke:#181818;stroke-width:1.0;" x1="915.5" x2="1601" y1="691.3926" y2="691.3926"/><text fill="#000000" font-family="sans-serif" font-size="13" font-weight="bold" lengthAdjust="spacing" textLength="14" x="922.5" y="686.1299">16</text><text fill="#000000" font-family="sans-serif" font-size="13" lengthAdjust="spacing" textLength="118" x="940.5" y="686.1299">numberTotalLines++</text><polygon fill="#181818" points="1415.5,718.6836,1425.5,722.6836,1415.5,726.6836,1419.5,722.6836" style="stroke:#181818;stroke-width:1.0;"/><line style="stroke:#181818;stroke-width:1.0;" x1="915.5" x2="1421.5" y1="722.6836" y2="722.6836"/><text fill="#000000" font-family="sans-serif" font-size="13" font-weight="bold" lengthAdjust="spacing" textLength="14" x="922.5" y="717.4209">17</text><text fill="#000000" font-family="sans-serif" font-size="13" lengthAdjust="spacing" textLength="108" x="940.5" y="717.4209">findByEmail(email)</text><polygon fill="#181818" points="926.5,749.9746,916.5,753.9746,926.5,757.9746,922.5,753.9746" style="stroke:#181818;stroke-width:1.0;"/><line style="stroke:#181818;stroke-width:1.0;stroke-dasharray:2.0,2.0;" x1="920.5" x2="1431.5" y1="753.9746" y2="753.9746"/><text fill="#000000" font-family="sans-serif" font-size="13" font-weight="bold" lengthAdjust="spacing" textLength="14" x="932.5" y="748.7119">18</text><text fill="#000000" font-family="sans-serif" font-size="13" lengthAdjust="spacing" textLength="25" x="950.5" y="748.7119">user</text><line style="stroke:#181818;stroke-width:1.0;" x1="915.5" x2="962.5" y1="780.2656" y2="780.2656"/><line style="stroke:#181818;stroke-width:1.0;" x1="962.5" x2="962.5" y1="780.2656" y2="793.2656"/><line style="stroke:#181818;stroke-width:1.0;" x1="921.5" x2="962.5" y1="793.2656" y2="793.2656"/><polygon fill="#181818" points="931.5,789.2656,921.5,793.2656,931.5,797.2656,927.5,793.2656" style="stroke:#181818;stroke-width:1.0;"/><text fill="#000000" font-family="sans-serif" font-size="13" font-weight="bold" lengthAdjust="spacing" textLength="14" x="927.5" y="775.0029">19</text><text fill="#000000" font-family="sans-serif" font-size="13" lengthAdjust="spacing" textLength="135" x="945.5" y="775.0029">registerEnrolledStudent</text><polygon fill="#181818" points="1210.5,825.5566,1220.5,829.5566,1210.5,833.5566,1214.5,829.5566" style="stroke:#181818;stroke-width:1.0;"/><line style="stroke:#181818;stroke-width:1.0;" x1="920.5" x2="1216.5" y1="829.5566" y2="829.5566"/><text fill="#000000" font-family="sans-serif" font-size="13" font-weight="bold" lengthAdjust="spacing" textLength="14" x="927.5" y="824.2939">20</text><text fill="#000000" font-family="sans-serif" font-size="13" lengthAdjust="spacing" textLength="265" x="945.5" y="824.2939">registerEnrolledStudent(eCourseUser, course)</text><path d="M815.5,844.5566 L876.5,844.5566 L876.5,853.8477 L866.5,863.8477 L815.5,863.8477 L815.5,844.5566 " fill="#EEEEEE" style="stroke:#000000;stroke-width:1.5;"/><rect fill="none" height="115.1641" style="stroke:#000000;stroke-width:1.5;" width="886" x="815.5" y="844.5566"/><text fill="#000000" font-family="sans-serif" font-size="13" font-weight="bold" lengthAdjust="spacing" textLength="16" x="830.5" y="859.585">alt</text><text fill="#000000" font-family="sans-serif" font-size="11" font-weight="bold" lengthAdjust="spacing" textLength="147" x="891.5" y="858.4268">[student isn't enrolled yet]</text><polygon fill="#181818" points="931.5,883.1387,921.5,887.1387,931.5,891.1387,927.5,887.1387" style="stroke:#181818;stroke-width:1.0;"/><line style="stroke:#181818;stroke-width:1.0;stroke-dasharray:2.0,2.0;" x1="925.5" x2="1226.5" y1="887.1387" y2="887.1387"/><text fill="#000000" font-family="sans-serif" font-size="13" font-weight="bold" lengthAdjust="spacing" textLength="14" x="937.5" y="881.876">21</text><text fill="#000000" font-family="sans-serif" font-size="13" lengthAdjust="spacing" textLength="90" x="955.5" y="881.876">enrolledStudent</text><polygon fill="#181818" points="1595,914.4297,1605,918.4297,1595,922.4297,1599,918.4297" style="stroke:#181818;stroke-width:1.0;"/><line style="stroke:#181818;stroke-width:1.0;" x1="920.5" x2="1601" y1="918.4297" y2="918.4297"/><text fill="#000000" font-family="sans-serif" font-size="13" font-weight="bold" lengthAdjust="spacing" textLength="14" x="927.5" y="913.167">22</text><text fill="#000000" font-family="sans-serif" font-size="13" lengthAdjust="spacing" textLength="186" x="945.5" y="913.167">numberOfEnrollmentsCreated++</text><line style="stroke:#000000;stroke-width:1.0;stroke-dasharray:2.0,2.0;" x1="815.5" x2="1701.5" y1="927.4297" y2="927.4297"/><polygon fill="#181818" points="1595,947.7207,1605,951.7207,1595,955.7207,1599,951.7207" style="stroke:#181818;stroke-width:1.0;"/><line style="stroke:#181818;stroke-width:1.0;" x1="920.5" x2="1601" y1="951.7207" y2="951.7207"/><text fill="#000000" font-family="sans-serif" font-size="13" font-weight="bold" lengthAdjust="spacing" textLength="14" x="927.5" y="946.458">23</text><text fill="#000000" font-family="sans-serif" font-size="13" lengthAdjust="spacing" textLength="215" x="945.5" y="946.458">numberOfStudentsAlreadyEnrolled++</text><polygon fill="#181818" points="534,993.0117,524,997.0117,534,1001.0117,530,997.0117" style="stroke:#181818;stroke-width:1.0;"/><line style="stroke:#181818;stroke-width:1.0;stroke-dasharray:2.0,2.0;" x1="528" x2="909.5" y1="997.0117" y2="997.0117"/><text fill="#000000" font-family="sans-serif" font-size="13" font-weight="bold" lengthAdjust="spacing" textLength="14" x="540" y="991.749">24</text><text fill="#000000" font-family="sans-serif" font-size="13" lengthAdjust="spacing" textLength="33" x="558" y="991.749">report</text><polygon fill="#181818" points="283,1024.3027,273,1028.3027,283,1032.3027,279,1028.3027" style="stroke:#181818;stroke-width:1.0;"/><line style="stroke:#181818;stroke-width:1.0;stroke-dasharray:2.0,2.0;" x1="277" x2="517" y1="1028.3027" y2="1028.3027"/><text fill="#000000" font-family="sans-serif" font-size="13" font-weight="bold" lengthAdjust="spacing" textLength="14" x="289" y="1023.04">25</text><text fill="#000000" font-family="sans-serif" font-size="13" lengthAdjust="spacing" textLength="33" x="307" y="1023.04">report</text><polygon fill="#181818" points="62,1090.1758,52,1094.1758,62,1098.1758,58,1094.1758" style="stroke:#181818;stroke-width:1.0;"/><line style="stroke:#181818;stroke-width:1.0;stroke-dasharray:2.0,2.0;" x1="56" x2="261" y1="1094.1758" y2="1094.1758"/><text fill="#000000" font-family="sans-serif" font-size="13" font-weight="bold" lengthAdjust="spacing" textLength="14" x="68" y="1071.6221">26</text><text fill="#000000" font-family="sans-serif" font-size="13" lengthAdjust="spacing" textLength="107" x="86" y="1054.3311">displays the report</text><text fill="#000000" font-family="sans-serif" font-size="13" lengthAdjust="spacing" textLength="114" x="90" y="1071.6221">and asks if the user</text><text fill="#000000" font-family="sans-serif" font-size="13" lengthAdjust="spacing" textLength="100" x="90" y="1088.9131">wants to export it</text><path d="M10,1109.1758 L71,1109.1758 L71,1118.4668 L61,1128.4668 L10,1128.4668 L10,1109.1758 " fill="#EEEEEE" style="stroke:#000000;stroke-width:1.5;"/><rect fill="none" height="128.1641" style="stroke:#000000;stroke-width:1.5;" width="472" x="10" y="1109.1758"/><text fill="#000000" font-family="sans-serif" font-size="13" font-weight="bold" lengthAdjust="spacing" textLength="16" x="25" y="1124.2041">alt</text><text fill="#000000" font-family="sans-serif" font-size="11" font-weight="bold" lengthAdjust="spacing" textLength="183" x="86" y="1123.0459">[user wants to export the report]</text><polygon fill="#181818" points="62,1147.7578,52,1151.7578,62,1155.7578,58,1151.7578" style="stroke:#181818;stroke-width:1.0;"/><line style="stroke:#181818;stroke-width:1.0;stroke-dasharray:2.0,2.0;" x1="56" x2="261" y1="1151.7578" y2="1151.7578"/><text fill="#000000" font-family="sans-serif" font-size="13" font-weight="bold" lengthAdjust="spacing" textLength="14" x="68" y="1146.4951">27</text><text fill="#000000" font-family="sans-serif" font-size="13" lengthAdjust="spacing" textLength="106" x="86" y="1146.4951">aks for a file name</text><polygon fill="#181818" points="250,1179.0488,260,1183.0488,250,1187.0488,254,1183.0488" style="stroke:#181818;stroke-width:1.0;"/><line style="stroke:#181818;stroke-width:1.0;" x1="51" x2="256" y1="1183.0488" y2="1183.0488"/><text fill="#000000" font-family="sans-serif" font-size="13" font-weight="bold" lengthAdjust="spacing" textLength="14" x="58" y="1177.7861">28</text><text fill="#000000" font-family="sans-serif" font-size="13" lengthAdjust="spacing" textLength="114" x="76" y="1177.7861">provides a file name</text><line style="stroke:#181818;stroke-width:1.0;" x1="272" x2="314" y1="1214.3398" y2="1214.3398"/><line style="stroke:#181818;stroke-width:1.0;" x1="314" x2="314" y1="1214.3398" y2="1227.3398"/><line style="stroke:#181818;stroke-width:1.0;" x1="273" x2="314" y1="1227.3398" y2="1227.3398"/><polygon fill="#181818" points="283,1223.3398,273,1227.3398,283,1231.3398,279,1227.3398" style="stroke:#181818;stroke-width:1.0;"/><text fill="#000000" font-family="sans-serif" font-size="13" font-weight="bold" lengthAdjust="spacing" textLength="14" x="279" y="1209.0771">29</text><text fill="#000000" font-family="sans-serif" font-size="13" lengthAdjust="spacing" textLength="173" x="297" y="1209.0771">exportReport(report, fileName)</text><line style="stroke:#000000;stroke-width:1.0;stroke-dasharray:2.0,2.0;" x1="10" x2="482" y1="1236.3398" y2="1236.3398"/><polygon fill="#181818" points="62,1263.6309,52,1267.6309,62,1271.6309,58,1267.6309" style="stroke:#181818;stroke-width:1.0;"/><line style="stroke:#181818;stroke-width:1.0;stroke-dasharray:2.0,2.0;" x1="56" x2="261" y1="1267.6309" y2="1267.6309"/><text fill="#000000" font-family="sans-serif" font-size="13" font-weight="bold" lengthAdjust="spacing" textLength="14" x="68" y="1262.3682">30</text><text fill="#000000" font-family="sans-serif" font-size="13" lengthAdjust="spacing" textLength="169" x="86" y="1262.3682">displays a success message</text><!--SRC=[bLN1Rk8m4BtxAqQzR53fVa1LLLeGAo51Mq7fgHUJ3ArLOqUsGpT_lsCx2Gw4RRTIaPXvxutdsJCuuIJ2f98VC5D6ImbhLnMed8L93TFr2sEySbfL-oqQndEd3IovuczeW5jOif8R9t9HSkNWokj4cLPbQW-R-PM7RkPmTrU9-_jlKAPQEHz24wZJvzM2oBmifSYv4rgTgYo4TLDT6OkJUksumpMQWyWnq1Vhb-c_wLJIdwCzGJnFKtpsiFgIly8tEW2QXbWqGYTjh6RhmKuAxlYMMuIhESOcDXRD2ajj1VbT1_9yDjsiY6gwy9TEUWNZOkadeXPE4uUnctj_6RUWrKBpWlbR5GVoZAAC4fGEnxo5t225CzcPQrjt3_duLK4-RDkeh-BfCSMticdGPgDZMOzZ0KoaS5cHrA_vgh8O2Dz-qhKyBXQ9YYUomBv9EeWIhC0-BbPhZHX0XJFvDWYpRCvZE-0IMgf5YJbbU9DBETn-MDZHm70_IB0J4XDcLKfotwR9dctRiy78Oecnz_qtuIzPsBpOxlwgvZMD0VllqmT7vxJ_gXnPh26JJFlAk_A3HQNM9No-anQuTpG8dFwbK6X1A1ywkf98FtMgfz6ue9wrutBXLQwlMGA9mtDBUggOrBCz5p93_vaq4Z0i8czIExnzwTE8m4IzGvhXDV0jiovmisGZZ9itbXowuTCCImSsKa1OzSDrTmqrEjRMwJLsSZ5fZwtkeCkFktZ8VTZMuJeAyXkbnKk4zY7zaWGlwhP9pr95MhXno4SxhUDCcB3H1l3zUJw7dOvp8MmfUMt3IujmscTS5N5enIua_CrJ-9FxdqEd0Vzu80WNxFRPiznHhxS9kaNWNpGelaytGMdqGHHeU-cu2q8-IiTjdaNnSK0-470KVVU63VN7mLPvZjR2dZxePvk5lxy0]--></g></svg>