<?xml version="1.0" encoding="us-ascii" standalone="no"?><svg xmlns="http://www.w3.org/2000/svg" xmlns:xlink="http://www.w3.org/1999/xlink" contentStyleType="text/css" height="591px" preserveAspectRatio="none" style="width:1080px;height:591px;background:#FFFFFF;" version="1.1" viewBox="0 0 1080 591" width="1080px" zoomAndPan="magnify"><defs/><g><text fill="#000000" font-family="FG Virgil" font-size="14" font-weight="bold" lengthAdjust="spacing" textLength="294" x="394.5" y="30.1074">UC1006.2 - List Teacher Available Courses</text><rect fill="#FFFFFF" height="345.2012" style="stroke:#181818;stroke-width:1.0;" width="10" x="29.5" y="137.8633"/><rect fill="#FFFFFF" height="312.9102" style="stroke:#181818;stroke-width:1.0;" width="10" x="255.5" y="161.1543"/><rect fill="#FFFFFF" height="219.0371" style="stroke:#181818;stroke-width:1.0;" width="10" x="562.5" y="223.7363"/><rect fill="#FFFFFF" height="93.873" style="stroke:#181818;stroke-width:1.0;" width="10" x="744.5" y="255.0273"/><rect fill="#FFFFFF" height="31.291" style="stroke:#181818;stroke-width:1.0;" width="10" x="892.5" y="286.3184"/><rect fill="#FFFFFF" height="31.291" style="stroke:#181818;stroke-width:1.0;" width="10" x="1014" y="380.1914"/><line style="stroke:#181818;stroke-width:0.5;stroke-dasharray:5.0,5.0;" x1="34" x2="34" y1="127.8633" y2="492.0645"/><line style="stroke:#181818;stroke-width:0.5;stroke-dasharray:5.0,5.0;" x1="260.5" x2="260.5" y1="127.8633" y2="492.0645"/><line style="stroke:#181818;stroke-width:0.5;stroke-dasharray:5.0,5.0;" x1="567.5" x2="567.5" y1="127.8633" y2="492.0645"/><line style="stroke:#181818;stroke-width:0.5;stroke-dasharray:5.0,5.0;" x1="749.5" x2="749.5" y1="127.8633" y2="492.0645"/><line style="stroke:#181818;stroke-width:0.5;stroke-dasharray:5.0,5.0;" x1="897" x2="897" y1="127.8633" y2="492.0645"/><line style="stroke:#181818;stroke-width:0.5;stroke-dasharray:5.0,5.0;" x1="1019" x2="1019" y1="127.8633" y2="492.0645"/><text fill="#000000" font-family="FG Virgil" font-size="14" lengthAdjust="spacing" textLength="53" x="5" y="124.3496">Teacher</text><ellipse cx="34.5" cy="57.7422" fill="#E3E3E3" rx="8" ry="8" style="stroke:#181818;stroke-width:0.5;"/><path d="M34.5,65.7422 L34.5,92.7422 M21.5,73.7422 L47.5,73.7422 M34.5,92.7422 L21.5,107.7422 M34.5,92.7422 L47.5,107.7422 " fill="none" style="stroke:#181818;stroke-width:0.5;"/><text fill="#000000" font-family="FG Virgil" font-size="14" lengthAdjust="spacing" textLength="53" x="5" y="506.1719">Teacher</text><ellipse cx="34.5" cy="518.1855" fill="#E3E3E3" rx="8" ry="8" style="stroke:#181818;stroke-width:0.5;"/><path d="M34.5,526.1855 L34.5,553.1855 M21.5,534.1855 L47.5,534.1855 M34.5,553.1855 L21.5,568.1855 M34.5,553.1855 L47.5,568.1855 " fill="none" style="stroke:#181818;stroke-width:0.5;"/><rect fill="#E3E3E3" height="51.2422" rx="2.5" ry="2.5" style="stroke:#181818;stroke-width:0.5;" width="154" x="183.5" y="75.6211"/><text fill="#000000" font-family="FG Virgil" font-size="14" font-style="italic" lengthAdjust="spacing" textLength="27" x="247" y="97.7285">&#171;ui&#187;</text><text fill="#000000" font-family="FG Virgil" font-size="14" lengthAdjust="spacing" textLength="140" x="190.5" y="116.3496">ListTeacherCoursesUI</text><rect fill="#E3E3E3" height="51.2422" rx="2.5" ry="2.5" style="stroke:#181818;stroke-width:0.5;" width="154" x="183.5" y="491.0645"/><text fill="#000000" font-family="FG Virgil" font-size="14" font-style="italic" lengthAdjust="spacing" textLength="27" x="247" y="513.1719">&#171;ui&#187;</text><text fill="#000000" font-family="FG Virgil" font-size="14" lengthAdjust="spacing" textLength="140" x="190.5" y="531.793">ListTeacherCoursesUI</text><rect fill="#E3E3E3" height="51.2422" rx="2.5" ry="2.5" style="stroke:#181818;stroke-width:0.5;" width="204" x="465.5" y="75.6211"/><text fill="#000000" font-family="FG Virgil" font-size="14" font-style="italic" lengthAdjust="spacing" textLength="84" x="525.5" y="97.7285">&#171;application&#187;</text><text fill="#000000" font-family="FG Virgil" font-size="14" lengthAdjust="spacing" textLength="190" x="472.5" y="116.3496">ListTeacherCoursesController</text><rect fill="#E3E3E3" height="51.2422" rx="2.5" ry="2.5" style="stroke:#181818;stroke-width:0.5;" width="204" x="465.5" y="491.0645"/><text fill="#000000" font-family="FG Virgil" font-size="14" font-style="italic" lengthAdjust="spacing" textLength="84" x="525.5" y="513.1719">&#171;application&#187;</text><text fill="#000000" font-family="FG Virgil" font-size="14" lengthAdjust="spacing" textLength="190" x="472.5" y="531.793">ListTeacherCoursesController</text><rect fill="#E3E3E3" height="51.2422" rx="2.5" ry="2.5" style="stroke:#181818;stroke-width:0.5;" width="140" x="679.5" y="75.6211"/><text fill="#000000" font-family="FG Virgil" font-size="14" font-style="italic" lengthAdjust="spacing" textLength="60" x="719.5" y="97.7285">&#171;service&#187;</text><text fill="#000000" font-family="FG Virgil" font-size="14" lengthAdjust="spacing" textLength="126" x="686.5" y="116.3496">UserSessionService</text><rect fill="#E3E3E3" height="51.2422" rx="2.5" ry="2.5" style="stroke:#181818;stroke-width:0.5;" width="140" x="679.5" y="491.0645"/><text fill="#000000" font-family="FG Virgil" font-size="14" font-style="italic" lengthAdjust="spacing" textLength="60" x="719.5" y="513.1719">&#171;service&#187;</text><text fill="#000000" font-family="FG Virgil" font-size="14" lengthAdjust="spacing" textLength="126" x="686.5" y="531.793">UserSessionService</text><text fill="#000000" font-family="FG Virgil" font-size="14" font-style="italic" lengthAdjust="spacing" textLength="79" x="855" y="105.7285">&#171;repository&#187;</text><text fill="#000000" font-family="FG Virgil" font-size="14" lengthAdjust="spacing" textLength="97" x="846" y="124.3496">UserRepository</text><path d="M879.5,54.6211 C879.5,44.6211 897.5,44.6211 897.5,44.6211 C897.5,44.6211 915.5,44.6211 915.5,54.6211 L915.5,80.6211 C915.5,90.6211 897.5,90.6211 897.5,90.6211 C897.5,90.6211 879.5,90.6211 879.5,80.6211 L879.5,54.6211 " fill="#E3E3E3" style="stroke:#181818;stroke-width:1.5;"/><path d="M879.5,54.6211 C879.5,64.6211 897.5,64.6211 897.5,64.6211 C897.5,64.6211 915.5,64.6211 915.5,54.6211 " fill="none" style="stroke:#181818;stroke-width:1.5;"/><text fill="#000000" font-family="FG Virgil" font-size="14" font-style="italic" lengthAdjust="spacing" textLength="79" x="855" y="506.1719">&#171;repository&#187;</text><text fill="#000000" font-family="FG Virgil" font-size="14" lengthAdjust="spacing" textLength="97" x="846" y="524.793">UserRepository</text><path d="M879.5,538.3066 C879.5,528.3066 897.5,528.3066 897.5,528.3066 C897.5,528.3066 915.5,528.3066 915.5,538.3066 L915.5,564.3066 C915.5,574.3066 897.5,574.3066 897.5,574.3066 C897.5,574.3066 879.5,574.3066 879.5,564.3066 L879.5,538.3066 " fill="#E3E3E3" style="stroke:#181818;stroke-width:1.5;"/><path d="M879.5,538.3066 C879.5,548.3066 897.5,548.3066 897.5,548.3066 C897.5,548.3066 915.5,548.3066 915.5,538.3066 " fill="none" style="stroke:#181818;stroke-width:1.5;"/><text fill="#000000" font-family="FG Virgil" font-size="14" font-style="italic" lengthAdjust="spacing" textLength="79" x="976.5" y="105.7285">&#171;repository&#187;</text><text fill="#000000" font-family="FG Virgil" font-size="14" lengthAdjust="spacing" textLength="114" x="959" y="124.3496">CourseRepository</text><path d="M1001,54.6211 C1001,44.6211 1019,44.6211 1019,44.6211 C1019,44.6211 1037,44.6211 1037,54.6211 L1037,80.6211 C1037,90.6211 1019,90.6211 1019,90.6211 C1019,90.6211 1001,90.6211 1001,80.6211 L1001,54.6211 " fill="#E3E3E3" style="stroke:#181818;stroke-width:1.5;"/><path d="M1001,54.6211 C1001,64.6211 1019,64.6211 1019,64.6211 C1019,64.6211 1037,64.6211 1037,54.6211 " fill="none" style="stroke:#181818;stroke-width:1.5;"/><text fill="#000000" font-family="FG Virgil" font-size="14" font-style="italic" lengthAdjust="spacing" textLength="79" x="976.5" y="506.1719">&#171;repository&#187;</text><text fill="#000000" font-family="FG Virgil" font-size="14" lengthAdjust="spacing" textLength="114" x="959" y="524.793">CourseRepository</text><path d="M1001,538.3066 C1001,528.3066 1019,528.3066 1019,528.3066 C1019,528.3066 1037,528.3066 1037,538.3066 L1037,564.3066 C1037,574.3066 1019,574.3066 1019,574.3066 C1019,574.3066 1001,574.3066 1001,564.3066 L1001,538.3066 " fill="#E3E3E3" style="stroke:#181818;stroke-width:1.5;"/><path d="M1001,538.3066 C1001,548.3066 1019,548.3066 1019,548.3066 C1019,548.3066 1037,548.3066 1037,538.3066 " fill="none" style="stroke:#181818;stroke-width:1.5;"/><rect fill="#FFFFFF" height="345.2012" style="stroke:#181818;stroke-width:1.0;" width="10" x="29.5" y="137.8633"/><rect fill="#FFFFFF" height="312.9102" style="stroke:#181818;stroke-width:1.0;" width="10" x="255.5" y="161.1543"/><rect fill="#FFFFFF" height="219.0371" style="stroke:#181818;stroke-width:1.0;" width="10" x="562.5" y="223.7363"/><rect fill="#FFFFFF" height="93.873" style="stroke:#181818;stroke-width:1.0;" width="10" x="744.5" y="255.0273"/><rect fill="#FFFFFF" height="31.291" style="stroke:#181818;stroke-width:1.0;" width="10" x="892.5" y="286.3184"/><rect fill="#FFFFFF" height="31.291" style="stroke:#181818;stroke-width:1.0;" width="10" x="1014" y="380.1914"/><polygon fill="#181818" points="243.5,157.1543,253.5,161.1543,243.5,165.1543,247.5,161.1543" style="stroke:#181818;stroke-width:1.0;"/><line style="stroke:#181818;stroke-width:1.0;stroke-dasharray:2.0,2.0;" x1="39.5" x2="249.5" y1="161.1543" y2="161.1543"/><text fill="#000000" font-family="FG Virgil" font-size="13" font-weight="bold" lengthAdjust="spacing" textLength="7" x="46.5" y="155.8916">1</text><text fill="#000000" font-family="FG Virgil" font-size="13" lengthAdjust="spacing" textLength="186" x="57.5" y="155.8916">Asks to list all available courses</text><polygon fill="#181818" points="555.5,188.4453,565.5,192.4453,555.5,196.4453,559.5,192.4453" style="stroke:#181818;stroke-width:1.0;"/><line style="stroke:#181818;stroke-width:1.0;" x1="265.5" x2="561.5" y1="192.4453" y2="192.4453"/><text fill="#000000" font-family="FG Virgil" font-size="13" font-weight="bold" lengthAdjust="spacing" textLength="7" x="272.5" y="187.1826">2</text><text fill="#000000" font-family="FG Virgil" font-size="13" lengthAdjust="spacing" textLength="267" x="283.5" y="187.1826">create(courseRepository, userSessionService)</text><polygon fill="#181818" points="550.5,219.7363,560.5,223.7363,550.5,227.7363,554.5,223.7363" style="stroke:#181818;stroke-width:1.0;"/><line style="stroke:#181818;stroke-width:1.0;" x1="265.5" x2="556.5" y1="223.7363" y2="223.7363"/><text fill="#000000" font-family="FG Virgil" font-size="13" font-weight="bold" lengthAdjust="spacing" textLength="7" x="272.5" y="218.4736">3</text><text fill="#000000" font-family="FG Virgil" font-size="13" lengthAdjust="spacing" textLength="76" x="283.5" y="218.4736">findCourses()</text><polygon fill="#181818" points="732.5,251.0273,742.5,255.0273,732.5,259.0273,736.5,255.0273" style="stroke:#181818;stroke-width:1.0;"/><line style="stroke:#181818;stroke-width:1.0;" x1="572.5" x2="738.5" y1="255.0273" y2="255.0273"/><text fill="#000000" font-family="FG Virgil" font-size="13" font-weight="bold" lengthAdjust="spacing" textLength="7" x="579.5" y="249.7646">4</text><text fill="#000000" font-family="FG Virgil" font-size="13" lengthAdjust="spacing" textLength="95" x="590.5" y="249.7646">getLoggedUser()</text><polygon fill="#181818" points="880.5,282.3184,890.5,286.3184,880.5,290.3184,884.5,286.3184" style="stroke:#181818;stroke-width:1.0;"/><line style="stroke:#181818;stroke-width:1.0;" x1="754.5" x2="886.5" y1="286.3184" y2="286.3184"/><text fill="#000000" font-family="FG Virgil" font-size="13" font-weight="bold" lengthAdjust="spacing" textLength="7" x="761.5" y="281.0557">5</text><text fill="#000000" font-family="FG Virgil" font-size="13" lengthAdjust="spacing" textLength="108" x="772.5" y="281.0557">findByEmail(email)</text><polygon fill="#181818" points="765.5,313.6094,755.5,317.6094,765.5,321.6094,761.5,317.6094" style="stroke:#181818;stroke-width:1.0;"/><line style="stroke:#181818;stroke-width:1.0;" x1="759.5" x2="896.5" y1="317.6094" y2="317.6094"/><text fill="#000000" font-family="FG Virgil" font-size="13" font-weight="bold" lengthAdjust="spacing" textLength="7" x="771.5" y="312.3467">6</text><text fill="#000000" font-family="FG Virgil" font-size="13" lengthAdjust="spacing" textLength="75" x="782.5" y="312.3467">eCourseUser</text><polygon fill="#181818" points="583.5,344.9004,573.5,348.9004,583.5,352.9004,579.5,348.9004" style="stroke:#181818;stroke-width:1.0;"/><line style="stroke:#181818;stroke-width:1.0;" x1="577.5" x2="748.5" y1="348.9004" y2="348.9004"/><text fill="#000000" font-family="FG Virgil" font-size="13" font-weight="bold" lengthAdjust="spacing" textLength="7" x="589.5" y="343.6377">7</text><text fill="#000000" font-family="FG Virgil" font-size="13" lengthAdjust="spacing" textLength="75" x="600.5" y="343.6377">eCourseUser</text><polygon fill="#181818" points="1002,376.1914,1012,380.1914,1002,384.1914,1006,380.1914" style="stroke:#181818;stroke-width:1.0;"/><line style="stroke:#181818;stroke-width:1.0;" x1="572.5" x2="1008" y1="380.1914" y2="380.1914"/><text fill="#000000" font-family="FG Virgil" font-size="13" font-weight="bold" lengthAdjust="spacing" textLength="7" x="579.5" y="374.9287">8</text><text fill="#000000" font-family="FG Virgil" font-size="13" lengthAdjust="spacing" textLength="197" x="590.5" y="374.9287">findTeacherCourses(eCourseUser)</text><polygon fill="#181818" points="583.5,407.4824,573.5,411.4824,583.5,415.4824,579.5,411.4824" style="stroke:#181818;stroke-width:1.0;"/><line style="stroke:#181818;stroke-width:1.0;" x1="577.5" x2="1018" y1="411.4824" y2="411.4824"/><text fill="#000000" font-family="FG Virgil" font-size="13" font-weight="bold" lengthAdjust="spacing" textLength="7" x="589.5" y="406.2197">9</text><text fill="#000000" font-family="FG Virgil" font-size="13" lengthAdjust="spacing" textLength="46" x="600.5" y="406.2197">courses</text><polygon fill="#181818" points="276.5,438.7734,266.5,442.7734,276.5,446.7734,272.5,442.7734" style="stroke:#181818;stroke-width:1.0;"/><line style="stroke:#181818;stroke-width:1.0;" x1="270.5" x2="566.5" y1="442.7734" y2="442.7734"/><text fill="#000000" font-family="FG Virgil" font-size="13" font-weight="bold" lengthAdjust="spacing" textLength="14" x="282.5" y="437.5107">10</text><text fill="#000000" font-family="FG Virgil" font-size="13" lengthAdjust="spacing" textLength="46" x="300.5" y="437.5107">courses</text><polygon fill="#181818" points="50.5,470.0645,40.5,474.0645,50.5,478.0645,46.5,474.0645" style="stroke:#181818;stroke-width:1.0;"/><line style="stroke:#181818;stroke-width:1.0;stroke-dasharray:2.0,2.0;" x1="44.5" x2="259.5" y1="474.0645" y2="474.0645"/><text fill="#000000" font-family="FG Virgil" font-size="13" font-weight="bold" lengthAdjust="spacing" textLength="14" x="56.5" y="468.8018">11</text><text fill="#000000" font-family="FG Virgil" font-size="13" lengthAdjust="spacing" textLength="91" x="74.5" y="468.8018">display courses</text><!--SRC=[XP91Rzim38Nl-XL4Jocm3DqEEnH5W4ve2mF53dQyEoCp3X7PCYGvG_xzgDdrbBJ3BZw8ttjyV70uSZ-WnmuwrpjpyAuZY7ua5PR9WEQ8BLNnR0aycPZD6jhZQEEpw-CF5Edp2_natxBDc730nltYleKzsa1AHOxYLEilTtVVFd-5DRnoYB0bD0Voy7X2jhWJGhlH1mfAuHXTFtOxyWfDT7vXCS1MoPR8XWVi8zmagtawo-lY9d5r0GyF8sys_-ErtEATjUJ_wBPQT3WCbWr6TlsrGHt8LnI2Z2ho9pOqhQj45gO7aJGOSOU19hwamGMMGyuJMmhhbxSBV0fr9T3l1AaNFc4awMCBw_KctNiFZ-4O83gmgM2q5d0frypbBiAwKA8HfLny3yQJFAxCrVfFCBwxzpRNxRblvY9NjraghMISObK2jHHVNTjIayh8iRfI0YIidBs-dvywYRoYzCt9KWdpPaZJocId6hg0gYNQlw1gZgRVTbx-3wjCbmNGfTBbtxhcDZDV0UQJYuy1wIGLbom4Q3WC5iyVWNNn6m00]--></g></svg>