<?xml version="1.0" encoding="UTF-8" standalone="no"?><svg xmlns="http://www.w3.org/2000/svg" xmlns:xlink="http://www.w3.org/1999/xlink" contentStyleType="text/css" height="607px" preserveAspectRatio="none" style="width:2209px;height:607px;background:#FFFFFF;" version="1.1" viewBox="0 0 2209 607" width="2209px" zoomAndPan="magnify"><defs/><g><!--MD5=[64e2e010ba86d7988e5cd73bd64f61f9]
cluster ui--><g id="cluster_ui"><path d="M8.5,272 L22.5,272 A3.75,3.75 0 0 1 25,274.5 L32,295.6094 L221.5,295.6094 A2.5,2.5 0 0 1 224,298.1094 L224,369.5 A2.5,2.5 0 0 1 221.5,372 L8.5,372 A2.5,2.5 0 0 1 6,369.5 L6,274.5 A2.5,2.5 0 0 1 8.5,272 " fill="none" style="stroke:#000000;stroke-width:1.5;"/><line style="stroke:#000000;stroke-width:1.5;" x1="6" x2="32" y1="295.6094" y2="295.6094"/><text fill="#000000" font-family="sans-serif" font-size="14" font-weight="bold" lengthAdjust="spacing" textLength="13" x="10" y="288.5332">ui</text></g><!--MD5=[04eef7f009ad98560acaa4ed82509fc3]
cluster exammanagement--><g id="cluster_exammanagement"><path d="M250.5,6 L378.5,6 A3.75,3.75 0 0 1 381,8.5 L388,29.6094 L2199.5,29.6094 A2.5,2.5 0 0 1 2202,32.1094 L2202,455.5 A2.5,2.5 0 0 1 2199.5,458 L250.5,458 A2.5,2.5 0 0 1 248,455.5 L248,8.5 A2.5,2.5 0 0 1 250.5,6 " fill="none" style="stroke:#000000;stroke-width:1.5;"/><line style="stroke:#000000;stroke-width:1.5;" x1="248" x2="388" y1="29.6094" y2="29.6094"/><text fill="#000000" font-family="sans-serif" font-size="14" font-weight="bold" lengthAdjust="spacing" textLength="127" x="252" y="22.5332">exammanagement</text></g><!--MD5=[3ff016c1aa5003d713567a073e2181a6]
cluster application--><g id="cluster_application"><path d="M274.5,210 L352.5,210 A3.75,3.75 0 0 1 355,212.5 L362,233.6094 L1714.5,233.6094 A2.5,2.5 0 0 1 1717,236.1094 L1717,431.5 A2.5,2.5 0 0 1 1714.5,434 L274.5,434 A2.5,2.5 0 0 1 272,431.5 L272,212.5 A2.5,2.5 0 0 1 274.5,210 " fill="none" style="stroke:#000000;stroke-width:1.5;"/><line style="stroke:#000000;stroke-width:1.5;" x1="272" x2="362" y1="233.6094" y2="233.6094"/><text fill="#000000" font-family="sans-serif" font-size="14" font-weight="bold" lengthAdjust="spacing" textLength="77" x="276" y="226.5332">application</text></g><!--MD5=[27f772719433d509ddbc20ff768eba08]
cluster domain--><g id="cluster_domain"><path d="M1747.5,89 L1799.5,89 A3.75,3.75 0 0 1 1802,91.5 L1809,112.6094 L2175.5,112.6094 A2.5,2.5 0 0 1 2178,115.1094 L2178,256.5 A2.5,2.5 0 0 1 2175.5,259 L1747.5,259 A2.5,2.5 0 0 1 1745,256.5 L1745,91.5 A2.5,2.5 0 0 1 1747.5,89 " fill="none" style="stroke:#000000;stroke-width:1.5;"/><line style="stroke:#000000;stroke-width:1.5;" x1="1745" x2="1809" y1="112.6094" y2="112.6094"/><text fill="#000000" font-family="sans-serif" font-size="14" font-weight="bold" lengthAdjust="spacing" textLength="51" x="1749" y="105.5332">domain</text></g><!--MD5=[bd0bd4c41e0e5269e37474fd45a6abb7]
cluster repository--><g id="cluster_repository"><path d="M1008,50 L1081,50 A3.75,3.75 0 0 1 1083.5,52.5 L1090.5,73.6094 L1442,73.6094 A2.5,2.5 0 0 1 1444.5,76.1094 L1444.5,183.5 A2.5,2.5 0 0 1 1442,186 L1008,186 A2.5,2.5 0 0 1 1005.5,183.5 L1005.5,52.5 A2.5,2.5 0 0 1 1008,50 " fill="none" style="stroke:#000000;stroke-width:1.5;"/><line style="stroke:#000000;stroke-width:1.5;" x1="1005.5" x2="1090.5" y1="73.6094" y2="73.6094"/><text fill="#000000" font-family="sans-serif" font-size="14" font-weight="bold" lengthAdjust="spacing" textLength="72" x="1009.5" y="66.5332">repository</text></g><!--MD5=[a05725ac3c297fd4812265547617fd48]
cluster questionmanagment--><g id="cluster_questionmanagment"><path d="M1780,482 L1924,482 A3.75,3.75 0 0 1 1926.5,484.5 L1933.5,505.6094 L2143,505.6094 A2.5,2.5 0 0 1 2145.5,508.1094 L2145.5,597.5 A2.5,2.5 0 0 1 2143,600 L1780,600 A2.5,2.5 0 0 1 1777.5,597.5 L1777.5,484.5 A2.5,2.5 0 0 1 1780,482 " fill="none" style="stroke:#000000;stroke-width:1.5;"/><line style="stroke:#000000;stroke-width:1.5;" x1="1777.5" x2="1933.5" y1="505.6094" y2="505.6094"/><text fill="#000000" font-family="sans-serif" font-size="14" font-weight="bold" lengthAdjust="spacing" textLength="143" x="1781.5" y="498.5332">questionmanagment</text></g><!--MD5=[b60441f75391856b62b53c6ec146313d]
cluster EAPLI_FRAMEWORK--><g id="cluster_EAPLI_FRAMEWORK"><path d="M1106,482 L1248,482 A3.75,3.75 0 0 1 1250.5,484.5 L1257.5,505.6094 L1344,505.6094 A2.5,2.5 0 0 1 1346.5,508.1094 L1346.5,597.5 A2.5,2.5 0 0 1 1344,600 L1106,600 A2.5,2.5 0 0 1 1103.5,597.5 L1103.5,484.5 A2.5,2.5 0 0 1 1106,482 " fill="none" style="stroke:#000000;stroke-width:1.5;"/><line style="stroke:#000000;stroke-width:1.5;" x1="1103.5" x2="1257.5" y1="505.6094" y2="505.6094"/><text fill="#000000" font-family="sans-serif" font-size="14" font-weight="bold" lengthAdjust="spacing" textLength="141" x="1107.5" y="498.5332">EAPLI_FRAMEWORK</text></g><!--MD5=[67f780d14a902d28f5e5bb24cdf6b65a]
class UpdateFormativeExamUI--><g id="elem_UpdateFormativeExamUI"><rect codeLine="6" fill="#F1F1F1" height="48" id="UpdateFormativeExamUI" rx="2.5" ry="2.5" style="stroke:#181818;stroke-width:0.5;" width="186" x="22" y="308"/><ellipse cx="37" cy="324" fill="#ADD1B2" rx="11" ry="11" style="stroke:#181818;stroke-width:1.0;"/><path d="M39,320.5 Q39.2031,320 39.4375,319.75 Q39.6719,319.5 39.9375,319.5 Q40.4063,319.5 40.7031,319.7813 Q41,320.0625 41,320.7188 L41,322.2813 Q41,322.9375 40.7188,323.2188 Q40.4375,323.5 40,323.5 Q39.6094,323.5 39.3594,323.3281 Q39.1094,323.1563 39,322.7031 Q38.9531,322.3906 38.7813,322.2188 Q38.4688,321.8906 37.9063,321.7031 Q37.3438,321.5 36.7813,321.5 Q36.0781,321.5 35.4844,321.7813 Q34.9063,322.0625 34.4531,322.6875 Q34,323.3125 34,324.1719 L34,325.0938 Q34,326.125 34.8438,326.8125 Q35.6875,327.5 37.1875,327.5 Q38.0781,327.5 38.7031,327.2969 Q39.0625,327.1875 39.4688,326.8281 Q39.7344,326.625 39.875,326.5625 Q40.0156,326.5 40.1875,326.5 Q40.5156,326.5 40.75,326.7656 Q41,327.0156 41,327.375 Q41,327.7188 40.6563,328.125 Q40.1563,328.7188 39.3594,329.0469 Q38.3125,329.5 37.0313,329.5 Q35.5313,329.5 34.3281,328.9063 Q33.3594,328.4375 32.6719,327.4219 Q32,326.4063 32,325.2031 L32,324.1094 Q32,322.8594 32.5938,321.7656 Q33.2031,320.6719 34.25,320.0938 Q35.3125,319.5 36.5,319.5 Q37.2188,319.5 37.8438,319.75 Q38.4688,320 39,320.5 Z " fill="#000000"/><text fill="#000000" font-family="sans-serif" font-size="14" lengthAdjust="spacing" textLength="154" x="51" y="329.7285">UpdateFormativeExamUI</text><line style="stroke:#181818;stroke-width:0.5;" x1="23" x2="207" y1="340" y2="340"/><line style="stroke:#181818;stroke-width:0.5;" x1="23" x2="207" y1="348" y2="348"/></g><!--MD5=[3167a04f5f6199ccbd6509d349675b4e]
class UpdateFormativeExamController--><g id="elem_UpdateFormativeExamController"><rect codeLine="14" fill="#F1F1F1" height="171.2656" id="UpdateFormativeExamController" rx="2.5" ry="2.5" style="stroke:#181818;stroke-width:0.5;" width="401" x="288" y="246.5"/><ellipse cx="382.25" cy="262.5" fill="#ADD1B2" rx="11" ry="11" style="stroke:#181818;stroke-width:1.0;"/><path d="M384.25,259 Q384.4531,258.5 384.6875,258.25 Q384.9219,258 385.1875,258 Q385.6563,258 385.9531,258.2813 Q386.25,258.5625 386.25,259.2188 L386.25,260.7813 Q386.25,261.4375 385.9688,261.7188 Q385.6875,262 385.25,262 Q384.8594,262 384.6094,261.8281 Q384.3594,261.6563 384.25,261.2031 Q384.2031,260.8906 384.0313,260.7188 Q383.7188,260.3906 383.1563,260.2031 Q382.5938,260 382.0313,260 Q381.3281,260 380.7344,260.2813 Q380.1563,260.5625 379.7031,261.1875 Q379.25,261.8125 379.25,262.6719 L379.25,263.5938 Q379.25,264.625 380.0938,265.3125 Q380.9375,266 382.4375,266 Q383.3281,266 383.9531,265.7969 Q384.3125,265.6875 384.7188,265.3281 Q384.9844,265.125 385.125,265.0625 Q385.2656,265 385.4375,265 Q385.7656,265 386,265.2656 Q386.25,265.5156 386.25,265.875 Q386.25,266.2188 385.9063,266.625 Q385.4063,267.2188 384.6094,267.5469 Q383.5625,268 382.2813,268 Q380.7813,268 379.5781,267.4063 Q378.6094,266.9375 377.9219,265.9219 Q377.25,264.9063 377.25,263.7031 L377.25,262.6094 Q377.25,261.3594 377.8438,260.2656 Q378.4531,259.1719 379.5,258.5938 Q380.5625,258 381.75,258 Q382.4688,258 383.0938,258.25 Q383.7188,258.5 384.25,259 Z " fill="#000000"/><text fill="#000000" font-family="sans-serif" font-size="14" lengthAdjust="spacing" textLength="204" x="402.75" y="268.2285">UpdateFormativeExamController</text><line style="stroke:#181818;stroke-width:0.5;" x1="289" x2="688" y1="278.5" y2="278.5"/><line style="stroke:#181818;stroke-width:0.5;" x1="289" x2="688" y1="286.5" y2="286.5"/><ellipse cx="299" cy="300.8047" fill="#84BE84" rx="3" ry="3" style="stroke:#038048;stroke-width:1.0;"/><text fill="#000000" font-family="sans-serif" font-size="14" lengthAdjust="spacing" textLength="347" x="308" y="305.0332">listCreatorFormativeExams(): Iterable&lt;FormativeExam&gt;</text><ellipse cx="299" cy="318.4141" fill="#84BE84" rx="3" ry="3" style="stroke:#038048;stroke-width:1.0;"/><text fill="#000000" font-family="sans-serif" font-size="14" lengthAdjust="spacing" textLength="272" x="308" y="322.6426">defineFormativeExam(formativeExam): void</text><ellipse cx="299" cy="336.0234" fill="#84BE84" rx="3" ry="3" style="stroke:#038048;stroke-width:1.0;"/><text fill="#000000" font-family="sans-serif" font-size="14" lengthAdjust="spacing" textLength="137" x="308" y="340.252">updateTitle(title): void</text><ellipse cx="299" cy="353.6328" fill="#84BE84" rx="3" ry="3" style="stroke:#038048;stroke-width:1.0;"/><text fill="#000000" font-family="sans-serif" font-size="14" lengthAdjust="spacing" textLength="179" x="308" y="357.8613">updateHeader(header): void</text><ellipse cx="299" cy="371.2422" fill="#84BE84" rx="3" ry="3" style="stroke:#038048;stroke-width:1.0;"/><text fill="#000000" font-family="sans-serif" font-size="14" lengthAdjust="spacing" textLength="375" x="308" y="375.4707">updateSectionDescription(section, sectionDescription): void</text><ellipse cx="299" cy="388.8516" fill="#84BE84" rx="3" ry="3" style="stroke:#038048;stroke-width:1.0;"/><text fill="#000000" font-family="sans-serif" font-size="14" lengthAdjust="spacing" textLength="252" x="308" y="393.0801">updateQuestion(section, question): void</text><ellipse cx="299" cy="406.4609" fill="#84BE84" rx="3" ry="3" style="stroke:#038048;stroke-width:1.0;"/><text fill="#000000" font-family="sans-serif" font-size="14" lengthAdjust="spacing" textLength="197" x="308" y="410.6895">updateQuestions(section): void</text></g><!--MD5=[9fbf6ea3a2acacf31dcbe334139f7213]
class QuestionProvider--><g id="elem_QuestionProvider"><rect codeLine="24" fill="#F1F1F1" height="136.0469" id="QuestionProvider" rx="2.5" ry="2.5" style="stroke:#181818;stroke-width:0.5;" width="952" x="749" y="273"/><ellipse cx="1166.25" cy="289" fill="#B4A7E5" rx="11" ry="11" style="stroke:#181818;stroke-width:1.0;"/><path d="M1167.25,286 L1167.25,292 L1169.25,292 L1169.7344,292 L1170.25,292.625 L1170.25,293 L1170.25,293.375 L1169.7344,294 L1169.25,294 L1163.25,294 L1162.7656,294 L1162.25,293.375 L1162.25,293 L1162.25,292.625 L1162.7656,292 L1163.25,292 L1165.25,292 L1165.25,286 L1163.25,286 L1162.7656,286 L1162.25,285.375 L1162.25,285 L1162.25,284.625 L1162.7656,284 L1163.25,284 L1169.25,284 L1169.7344,284 L1170.25,284.625 L1170.25,285 L1170.25,285.375 L1169.7344,286 L1169.25,286 L1167.25,286 Z " fill="#000000"/><text fill="#000000" font-family="sans-serif" font-size="14" font-style="italic" lengthAdjust="spacing" textLength="109" x="1186.75" y="294.7285">QuestionProvider</text><line style="stroke:#181818;stroke-width:0.5;" x1="750" x2="1700" y1="305" y2="305"/><line style="stroke:#181818;stroke-width:0.5;" x1="750" x2="1700" y1="313" y2="313"/><ellipse cx="760" cy="327.3047" fill="#84BE84" rx="3" ry="3" style="stroke:#038048;stroke-width:1.0;"/><text fill="#000000" font-family="sans-serif" font-size="14" lengthAdjust="spacing" textLength="528" x="769" y="331.5332">replaceSingleQuestion(questionType, numberQuestions, index): Iterable&lt;Question&gt;</text><ellipse cx="760" cy="344.9141" fill="#84BE84" rx="3" ry="3" style="stroke:#038048;stroke-width:1.0;"/><text fill="#000000" font-family="sans-serif" font-size="14" lengthAdjust="spacing" textLength="517" x="769" y="349.1426">replaceAllSectionQuestions(questionType, numberQuestions): Iterable&lt;Question&gt;</text><rect fill="#F24D5C" height="6" style="stroke:#C82930;stroke-width:1.0;" width="6" x="757" y="359.5234"/><text fill="#000000" font-family="sans-serif" font-size="14" lengthAdjust="spacing" textLength="263" x="769" y="366.752">randomQuestion(questionsList): Question</text><rect fill="#F24D5C" height="6" style="stroke:#C82930;stroke-width:1.0;" width="6" x="757" y="377.1328"/><text fill="#000000" font-family="sans-serif" font-size="14" lengthAdjust="spacing" textLength="926" x="769" y="384.3613">isThereEnoughQuestionsToReplaceSectionQuestions(questionType, numberOfSectionQuestions, numberOfQuestionsToReplace): List&lt;Question&gt;</text><rect fill="#F24D5C" height="6" style="stroke:#C82930;stroke-width:1.0;" width="6" x="757" y="394.7422"/><text fill="#000000" font-family="sans-serif" font-size="14" lengthAdjust="spacing" textLength="440" x="769" y="401.9707">replaceQuestion(questionsFromRepo, questions, questionIndex): void</text></g><!--MD5=[ec075d179ef4bfff2ff3e3d0bcb105de]
class FormativeExam--><g id="elem_FormativeExam"><rect codeLine="35" fill="#F1F1F1" height="118.4375" id="FormativeExam" rx="2.5" ry="2.5" style="stroke:#181818;stroke-width:0.5;" width="401" x="1761" y="125"/><ellipse cx="1908.75" cy="141" fill="#ADD1B2" rx="11" ry="11" style="stroke:#181818;stroke-width:1.0;"/><path d="M1910.75,137.5 Q1910.9531,137 1911.1875,136.75 Q1911.4219,136.5 1911.6875,136.5 Q1912.1563,136.5 1912.4531,136.7813 Q1912.75,137.0625 1912.75,137.7188 L1912.75,139.2813 Q1912.75,139.9375 1912.4688,140.2188 Q1912.1875,140.5 1911.75,140.5 Q1911.3594,140.5 1911.1094,140.3281 Q1910.8594,140.1563 1910.75,139.7031 Q1910.7031,139.3906 1910.5313,139.2188 Q1910.2188,138.8906 1909.6563,138.7031 Q1909.0938,138.5 1908.5313,138.5 Q1907.8281,138.5 1907.2344,138.7813 Q1906.6563,139.0625 1906.2031,139.6875 Q1905.75,140.3125 1905.75,141.1719 L1905.75,142.0938 Q1905.75,143.125 1906.5938,143.8125 Q1907.4375,144.5 1908.9375,144.5 Q1909.8281,144.5 1910.4531,144.2969 Q1910.8125,144.1875 1911.2188,143.8281 Q1911.4844,143.625 1911.625,143.5625 Q1911.7656,143.5 1911.9375,143.5 Q1912.2656,143.5 1912.5,143.7656 Q1912.75,144.0156 1912.75,144.375 Q1912.75,144.7188 1912.4063,145.125 Q1911.9063,145.7188 1911.1094,146.0469 Q1910.0625,146.5 1908.7813,146.5 Q1907.2813,146.5 1906.0781,145.9063 Q1905.1094,145.4375 1904.4219,144.4219 Q1903.75,143.4063 1903.75,142.2031 L1903.75,141.1094 Q1903.75,139.8594 1904.3438,138.7656 Q1904.9531,137.6719 1906,137.0938 Q1907.0625,136.5 1908.25,136.5 Q1908.9688,136.5 1909.5938,136.75 Q1910.2188,137 1910.75,137.5 Z " fill="#000000"/><text fill="#000000" font-family="sans-serif" font-size="14" lengthAdjust="spacing" textLength="97" x="1929.25" y="146.7285">FormativeExam</text><line style="stroke:#181818;stroke-width:0.5;" x1="1762" x2="2161" y1="157" y2="157"/><line style="stroke:#181818;stroke-width:0.5;" x1="1762" x2="2161" y1="165" y2="165"/><ellipse cx="1772" cy="179.3047" fill="#84BE84" rx="3" ry="3" style="stroke:#038048;stroke-width:1.0;"/><text fill="#000000" font-family="sans-serif" font-size="14" lengthAdjust="spacing" textLength="137" x="1781" y="183.5332">updateTitle(title): void</text><ellipse cx="1772" cy="196.9141" fill="#84BE84" rx="3" ry="3" style="stroke:#038048;stroke-width:1.0;"/><text fill="#000000" font-family="sans-serif" font-size="14" lengthAdjust="spacing" textLength="179" x="1781" y="201.1426">updateHeader(header): void</text><ellipse cx="1772" cy="214.5234" fill="#84BE84" rx="3" ry="3" style="stroke:#038048;stroke-width:1.0;"/><text fill="#000000" font-family="sans-serif" font-size="14" lengthAdjust="spacing" textLength="375" x="1781" y="218.752">updateSectionDescription(sectionDescription, section): void</text><ellipse cx="1772" cy="232.1328" fill="#84BE84" rx="3" ry="3" style="stroke:#038048;stroke-width:1.0;"/><text fill="#000000" font-family="sans-serif" font-size="14" lengthAdjust="spacing" textLength="361" x="1781" y="236.3613">updateSectionQuestions(section, sectionQuestions): void</text></g><!--MD5=[3ee499f49186d42e50124f3efd1ade05]
class ExamRepository--><g id="elem_ExamRepository"><rect codeLine="44" fill="#F1F1F1" height="83.2188" id="ExamRepository" rx="2.5" ry="2.5" style="stroke:#181818;stroke-width:0.5;" width="407" x="1021.5" y="86.5"/><ellipse cx="1169.75" cy="102.5" fill="#B4A7E5" rx="11" ry="11" style="stroke:#181818;stroke-width:1.0;"/><path d="M1170.75,99.5 L1170.75,105.5 L1172.75,105.5 L1173.2344,105.5 L1173.75,106.125 L1173.75,106.5 L1173.75,106.875 L1173.2344,107.5 L1172.75,107.5 L1166.75,107.5 L1166.2656,107.5 L1165.75,106.875 L1165.75,106.5 L1165.75,106.125 L1166.2656,105.5 L1166.75,105.5 L1168.75,105.5 L1168.75,99.5 L1166.75,99.5 L1166.2656,99.5 L1165.75,98.875 L1165.75,98.5 L1165.75,98.125 L1166.2656,97.5 L1166.75,97.5 L1172.75,97.5 L1173.2344,97.5 L1173.75,98.125 L1173.75,98.5 L1173.75,98.875 L1173.2344,99.5 L1172.75,99.5 L1170.75,99.5 Z " fill="#000000"/><text fill="#000000" font-family="sans-serif" font-size="14" font-style="italic" lengthAdjust="spacing" textLength="102" x="1190.25" y="108.2285">ExamRepository</text><line style="stroke:#181818;stroke-width:0.5;" x1="1022.5" x2="1427.5" y1="118.5" y2="118.5"/><line style="stroke:#181818;stroke-width:0.5;" x1="1022.5" x2="1427.5" y1="126.5" y2="126.5"/><ellipse cx="1032.5" cy="140.8047" fill="#84BE84" rx="3" ry="3" style="stroke:#038048;stroke-width:1.0;"/><text fill="#000000" font-family="sans-serif" font-size="14" lengthAdjust="spacing" textLength="381" x="1041.5" y="145.0332">findCreatorFormativeExams(user): Iterable&lt;FormativeExam&gt;</text><ellipse cx="1032.5" cy="158.4141" fill="#84BE84" rx="3" ry="3" style="stroke:#038048;stroke-width:1.0;"/><text fill="#000000" font-family="sans-serif" font-size="14" lengthAdjust="spacing" textLength="234" x="1041.5" y="162.6426">isTitleAlreadyAssigned(title): boolean</text></g><!--MD5=[aee4fa37704a98e21e2a456711c58f16]
class QuestionRepository--><g id="elem_QuestionRepository"><rect codeLine="53" fill="#F1F1F1" height="65.6094" id="QuestionRepository" rx="2.5" ry="2.5" style="stroke:#181818;stroke-width:0.5;" width="336" x="1793.5" y="518"/><ellipse cx="1894.75" cy="534" fill="#B4A7E5" rx="11" ry="11" style="stroke:#181818;stroke-width:1.0;"/><path d="M1895.75,531 L1895.75,537 L1897.75,537 L1898.2344,537 L1898.75,537.625 L1898.75,538 L1898.75,538.375 L1898.2344,539 L1897.75,539 L1891.75,539 L1891.2656,539 L1890.75,538.375 L1890.75,538 L1890.75,537.625 L1891.2656,537 L1891.75,537 L1893.75,537 L1893.75,531 L1891.75,531 L1891.2656,531 L1890.75,530.375 L1890.75,530 L1890.75,529.625 L1891.2656,529 L1891.75,529 L1897.75,529 L1898.2344,529 L1898.75,529.625 L1898.75,530 L1898.75,530.375 L1898.2344,531 L1897.75,531 L1895.75,531 Z " fill="#000000"/><text fill="#000000" font-family="sans-serif" font-size="14" font-style="italic" lengthAdjust="spacing" textLength="125" x="1915.25" y="539.7285">QuestionRepository</text><line style="stroke:#181818;stroke-width:0.5;" x1="1794.5" x2="2128.5" y1="550" y2="550"/><line style="stroke:#181818;stroke-width:0.5;" x1="1794.5" x2="2128.5" y1="558" y2="558"/><ellipse cx="1804.5" cy="572.3047" fill="#84BE84" rx="3" ry="3" style="stroke:#038048;stroke-width:1.0;"/><text fill="#000000" font-family="sans-serif" font-size="14" lengthAdjust="spacing" textLength="310" x="1813.5" y="576.5332">findAllByType(questionType): Iterable&lt;Question&gt;</text></g><!--MD5=[caa7b51c5afdff9fe5524ced974e494a]
class UserSessionService--><g id="elem_UserSessionService"><rect codeLine="60" fill="#F1F1F1" height="65.6094" id="UserSessionService" rx="2.5" ry="2.5" style="stroke:#181818;stroke-width:0.5;" width="211" x="1119.5" y="518"/><ellipse cx="1158.35" cy="534" fill="#ADD1B2" rx="11" ry="11" style="stroke:#181818;stroke-width:1.0;"/><path d="M1160.35,530.5 Q1160.5531,530 1160.7875,529.75 Q1161.0219,529.5 1161.2875,529.5 Q1161.7563,529.5 1162.0531,529.7813 Q1162.35,530.0625 1162.35,530.7188 L1162.35,532.2813 Q1162.35,532.9375 1162.0688,533.2188 Q1161.7875,533.5 1161.35,533.5 Q1160.9594,533.5 1160.7094,533.3281 Q1160.4594,533.1563 1160.35,532.7031 Q1160.3031,532.3906 1160.1313,532.2188 Q1159.8188,531.8906 1159.2563,531.7031 Q1158.6938,531.5 1158.1313,531.5 Q1157.4281,531.5 1156.8344,531.7813 Q1156.2563,532.0625 1155.8031,532.6875 Q1155.35,533.3125 1155.35,534.1719 L1155.35,535.0938 Q1155.35,536.125 1156.1938,536.8125 Q1157.0375,537.5 1158.5375,537.5 Q1159.4281,537.5 1160.0531,537.2969 Q1160.4125,537.1875 1160.8188,536.8281 Q1161.0844,536.625 1161.225,536.5625 Q1161.3656,536.5 1161.5375,536.5 Q1161.8656,536.5 1162.1,536.7656 Q1162.35,537.0156 1162.35,537.375 Q1162.35,537.7188 1162.0063,538.125 Q1161.5063,538.7188 1160.7094,539.0469 Q1159.6625,539.5 1158.3813,539.5 Q1156.8813,539.5 1155.6781,538.9063 Q1154.7094,538.4375 1154.0219,537.4219 Q1153.35,536.4063 1153.35,535.2031 L1153.35,534.1094 Q1153.35,532.8594 1153.9438,531.7656 Q1154.5531,530.6719 1155.6,530.0938 Q1156.6625,529.5 1157.85,529.5 Q1158.5688,529.5 1159.1938,529.75 Q1159.8188,530 1160.35,530.5 Z " fill="#000000"/><text fill="#000000" font-family="sans-serif" font-size="14" lengthAdjust="spacing" textLength="126" x="1177.65" y="539.7285">UserSessionService</text><line style="stroke:#181818;stroke-width:0.5;" x1="1120.5" x2="1329.5" y1="550" y2="550"/><line style="stroke:#181818;stroke-width:0.5;" x1="1120.5" x2="1329.5" y1="558" y2="558"/><text fill="#000000" font-family="sans-serif" font-size="14" lengthAdjust="spacing" textLength="199" x="1125.5" y="576.5332">getLoggedUser(): ECourseUser</text></g><!--MD5=[a2777d546d06287353df34e04bf36615]
link UpdateFormativeExamUI to UpdateFormativeExamController--><g id="link_UpdateFormativeExamUI_UpdateFormativeExamController"><path codeLine="65" d="M208.31,332 C231.17,332 256.59,332 282.52,332 " fill="none" id="UpdateFormativeExamUI-to-UpdateFormativeExamController" style="stroke:#181818;stroke-width:1.0;"/><polygon fill="#181818" points="287.71,332,278.71,328,282.71,332,278.71,336,287.71,332" style="stroke:#181818;stroke-width:1.0;"/></g><!--MD5=[6d3a1449737e836171f8f198b3e96a94]
link UpdateFormativeExamController to UserSessionService--><g id="link_UpdateFormativeExamController_UserSessionService"><path codeLine="66" d="M689.01,413.49 C709.15,420.79 729.4,427.76 749,434 C872.24,473.21 1016.93,507.17 1113.95,528.25 " fill="none" id="UpdateFormativeExamController-to-UserSessionService" style="stroke:#181818;stroke-width:1.0;"/><polygon fill="#181818" points="1119.11,529.37,1111.1757,523.535,1114.2261,528.299,1109.4621,531.3493,1119.11,529.37" style="stroke:#181818;stroke-width:1.0;"/></g><!--MD5=[19f57e58eed126b2fa405d9e745ba244]
link UpdateFormativeExamController to FormativeExam--><g id="link_UpdateFormativeExamController_FormativeExam"><path codeLine="67" d="M689.23,267.77 C709.27,262.82 729.44,258.43 749,255 C936.36,222.16 1462.11,200.33 1755.7,190.31 " fill="none" id="UpdateFormativeExamController-to-FormativeExam" style="stroke:#181818;stroke-width:1.0;"/><polygon fill="#181818" points="1760.87,190.13,1751.7382,186.4407,1755.8729,190.3013,1752.0123,194.436,1760.87,190.13" style="stroke:#181818;stroke-width:1.0;"/></g><!--MD5=[20306282229c0c71af4b04c3dbdf2fa6]
link UpdateFormativeExamController to ExamRepository--><g id="link_UpdateFormativeExamController_ExamRepository"><path codeLine="68" d="M660.19,246.38 C689.33,233.9 719.68,222.18 749,213 C834.83,186.12 932.21,166.83 1016.36,153.5 " fill="none" id="UpdateFormativeExamController-to-ExamRepository" style="stroke:#181818;stroke-width:1.0;"/><polygon fill="#181818" points="1021.37,152.71,1011.8536,150.1725,1016.432,153.4949,1013.1096,158.0733,1021.37,152.71" style="stroke:#181818;stroke-width:1.0;"/></g><!--MD5=[fd6a756716f7d2e3c704fabf2a026081]
link UpdateFormativeExamController to QuestionProvider--><g id="link_UpdateFormativeExamController_QuestionProvider"><path codeLine="69" d="M689.24,334.45 C706.81,334.66 725.03,334.89 743.68,335.11 " fill="none" id="UpdateFormativeExamController-to-QuestionProvider" style="stroke:#181818;stroke-width:1.0;"/><polygon fill="#181818" points="748.95,335.18,739.9963,331.0774,743.9503,335.1229,739.9049,339.0769,748.95,335.18" style="stroke:#181818;stroke-width:1.0;"/></g><!--MD5=[c1d5b8098859b8ebb320c1dcc441890b]
link QuestionProvider to QuestionRepository--><g id="link_QuestionProvider_QuestionRepository"><path codeLine="70" d="M1463.96,409.04 C1589.66,444.97 1738.52,487.53 1840.25,516.62 " fill="none" id="QuestionProvider-to-QuestionRepository" style="stroke:#181818;stroke-width:1.0;"/><polygon fill="#181818" points="1845.06,517.99,1837.5052,511.6714,1840.2524,516.6164,1835.3074,519.3636,1845.06,517.99" style="stroke:#181818;stroke-width:1.0;"/></g><!--MD5=[c054aafd7f0fbc7494c94817dc1a8283]
link ExamRepository to FormativeExam--><g id="link_ExamRepository_FormativeExam"><path codeLine="71" d="M1428.65,143.45 C1530.43,151.21 1653.49,160.59 1755.58,168.38 " fill="none" id="ExamRepository-to-FormativeExam" style="stroke:#181818;stroke-width:1.0;"/><polygon fill="#181818" points="1760.74,168.77,1752.062,164.1124,1755.7538,168.3985,1751.4677,172.0903,1760.74,168.77" style="stroke:#181818;stroke-width:1.0;"/></g><!--MD5=[bb4461a150ca99649a03e70dfd2e9108]
@startuml

left to right direction

package ui {

    class UpdateFormativeExamUI {}

}

package exammanagement {

    package application {

        class UpdateFormativeExamController {
            + listCreatorFormativeExams(): Iterable<FormativeExam>
            + defineFormativeExam(formativeExam): void
            + updateTitle(title): void
            + updateHeader(header): void
            + updateSectionDescription(section, sectionDescription): void
            + updateQuestion(section, question): void
            + updateQuestions(section): void
        }

        interface QuestionProvider {
            + replaceSingleQuestion(questionType, numberQuestions, index): Iterable<Question>
            + replaceAllSectionQuestions(questionType, numberQuestions): Iterable<Question>
            - randomQuestion(questionsList): Question
            - isThereEnoughQuestionsToReplaceSectionQuestions(questionType, numberOfSectionQuestions, numberOfQuestionsToReplace): List<Question>
            - replaceQuestion(questionsFromRepo, questions, questionIndex): void
        }

    }

    package domain {
        class FormativeExam {
            + updateTitle(title): void
            + updateHeader(header): void
            + updateSectionDescription(sectionDescription, section): void
            + updateSectionQuestions(section, sectionQuestions): void
        }
    }

    package repository {
        interface ExamRepository {
            + findCreatorFormativeExams(user): Iterable<FormativeExam>
            + isTitleAlreadyAssigned(title): boolean
        }
    }
}

package questionmanagment {

    interface QuestionRepository {
        +findAllByType(questionType): Iterable<Question>
    }
}

package EAPLI_FRAMEWORK {

    class UserSessionService {
        getLoggedUser(): ECourseUser
    }
}

UpdateFormativeExamUI - -> UpdateFormativeExamController
UpdateFormativeExamController - -> UserSessionService
UpdateFormativeExamController - -> FormativeExam
UpdateFormativeExamController - -> ExamRepository
UpdateFormativeExamController - -> QuestionProvider
QuestionProvider - -> QuestionRepository
ExamRepository - -> FormativeExam

@enduml

PlantUML version 1.2022.12(Sun Oct 23 19:12:26 BST 2022)
(GPL source distribution)
Java Runtime: OpenJDK Runtime Environment
JVM: OpenJDK 64-Bit Server VM
Default Encoding: Cp1252
Language: pt
Country: PT
--></g></svg>