<?xml version="1.0" encoding="us-ascii" standalone="no"?><svg xmlns="http://www.w3.org/2000/svg" xmlns:xlink="http://www.w3.org/1999/xlink" contentStyleType="text/css" height="1748px" preserveAspectRatio="none" style="width:2203px;height:1748px;background:#FFFFFF;" version="1.1" viewBox="0 0 2203 1748" width="2203px" zoomAndPan="magnify"><defs/><g><text fill="#000000" font-family="sans-serif" font-size="14" font-weight="bold" lengthAdjust="spacing" textLength="250" x="978.25" y="30.1074">Create a Board - Sequence Diagram</text><rect fill="#FFFFFF" height="1502.4355" style="stroke:#181818;stroke-width:1.0;" width="10" x="487.5" y="137.8633"/><rect fill="#FFFFFF" height="187.7461" style="stroke:#181818;stroke-width:1.0;" width="10" x="1059.5" y="192.4453"/><rect fill="#FFFFFF" height="62.582" style="stroke:#181818;stroke-width:1.0;" width="10" x="1059.5" y="474.0645"/><rect fill="#FFFFFF" height="62.582" style="stroke:#181818;stroke-width:1.0;" width="10" x="1059.5" y="630.5195"/><rect fill="#FFFFFF" height="123.873" style="stroke:#181818;stroke-width:1.0;" width="10" x="1059.5" y="883.8477"/><rect fill="#FFFFFF" height="155.1641" style="stroke:#181818;stroke-width:1.0;" width="10" x="1059.5" y="1039.0117"/><rect fill="#FFFFFF" height="61.291" style="stroke:#181818;stroke-width:1.0;" width="10" x="1059.5" y="1314.3398"/><rect fill="#FFFFFF" height="93.873" style="stroke:#181818;stroke-width:1.0;" width="10" x="1059.5" y="1492.1348"/><rect fill="#FFFFFF" height="31.291" style="stroke:#181818;stroke-width:1.0;" width="10" x="1247.5" y="223.7363"/><rect fill="#FFFFFF" height="31.291" style="stroke:#181818;stroke-width:1.0;" width="10" x="1410.5" y="317.6094"/><rect fill="#FFFFFF" height="31.291" style="stroke:#181818;stroke-width:1.0;" width="10" x="1581" y="505.3555"/><rect fill="#FFFFFF" height="31.291" style="stroke:#181818;stroke-width:1.0;" width="10" x="1581" y="661.8105"/><rect fill="#FFFFFF" height="30" style="stroke:#181818;stroke-width:1.0;" width="10" x="1581" y="977.7207"/><rect fill="#FFFFFF" height="92.582" style="stroke:#181818;stroke-width:1.0;" width="10" x="1581" y="1070.3027"/><rect fill="#FFFFFF" height="30" style="stroke:#181818;stroke-width:1.0;" width="10" x="1581" y="1345.6309"/><rect fill="#FFFFFF" height="31.291" style="stroke:#181818;stroke-width:1.0;" width="10" x="1730.5" y="915.1387"/><rect fill="#FFFFFF" height="30" style="stroke:#181818;stroke-width:1.0;" width="10" x="1999" y="1101.5938"/><rect fill="#FFFFFF" height="31.291" style="stroke:#181818;stroke-width:1.0;" width="10" x="2118.5" y="1523.4258"/><rect fill="none" height="119.1641" style="stroke:#000000;stroke-width:1.5;" width="565.5" x="20" y="708.1016"/><rect fill="none" height="791.0332" style="stroke:#000000;stroke-width:1.5;" width="2187.5" x="10" y="841.2656"/><rect fill="none" height="353.541" style="stroke:#000000;stroke-width:1.5;" width="2167.5" x="20" y="1271.7578"/><line style="stroke:#181818;stroke-width:0.5;stroke-dasharray:5.0,5.0;" x1="59" x2="59" y1="127.8633" y2="1649.2988"/><line style="stroke:#181818;stroke-width:0.5;stroke-dasharray:5.0,5.0;" x1="492.5" x2="492.5" y1="127.8633" y2="1649.2988"/><line style="stroke:#181818;stroke-width:0.5;stroke-dasharray:5.0,5.0;" x1="1064.5" x2="1064.5" y1="127.8633" y2="1649.2988"/><line style="stroke:#181818;stroke-width:0.5;stroke-dasharray:5.0,5.0;" x1="1252.5" x2="1252.5" y1="127.8633" y2="1649.2988"/><line style="stroke:#181818;stroke-width:0.5;stroke-dasharray:5.0,5.0;" x1="1415.5" x2="1415.5" y1="127.8633" y2="1649.2988"/><line style="stroke:#181818;stroke-width:0.5;stroke-dasharray:5.0,5.0;" x1="1585.5" x2="1585.5" y1="127.8633" y2="1649.2988"/><line style="stroke:#181818;stroke-width:0.5;stroke-dasharray:5.0,5.0;" x1="1735.5" x2="1735.5" y1="127.8633" y2="1649.2988"/><line style="stroke:#181818;stroke-width:0.5;stroke-dasharray:5.0,5.0;" x1="1872.5" x2="1872.5" y1="127.8633" y2="1649.2988"/><line style="stroke:#181818;stroke-width:0.5;stroke-dasharray:5.0,5.0;" x1="2003.5" x2="2003.5" y1="127.8633" y2="1649.2988"/><line style="stroke:#181818;stroke-width:0.5;stroke-dasharray:5.0,5.0;" x1="2123.5" x2="2123.5" y1="127.8633" y2="1649.2988"/><text fill="#000000" font-family="sans-serif" font-size="14" lengthAdjust="spacing" textLength="53" x="30" y="124.3496">Teacher</text><ellipse cx="59.5" cy="57.7422" fill="#E2E2F0" rx="8" ry="8" style="stroke:#181818;stroke-width:0.5;"/><path d="M59.5,65.7422 L59.5,92.7422 M46.5,73.7422 L72.5,73.7422 M59.5,92.7422 L46.5,107.7422 M59.5,92.7422 L72.5,107.7422 " fill="none" style="stroke:#181818;stroke-width:0.5;"/><text fill="#000000" font-family="sans-serif" font-size="14" lengthAdjust="spacing" textLength="53" x="30" y="1663.4063">Teacher</text><ellipse cx="59.5" cy="1675.4199" fill="#E2E2F0" rx="8" ry="8" style="stroke:#181818;stroke-width:0.5;"/><path d="M59.5,1683.4199 L59.5,1710.4199 M46.5,1691.4199 L72.5,1691.4199 M59.5,1710.4199 L46.5,1725.4199 M59.5,1710.4199 L72.5,1725.4199 " fill="none" style="stroke:#181818;stroke-width:0.5;"/><rect fill="#E2E2F0" height="51.2422" rx="2.5" ry="2.5" style="stroke:#181818;stroke-width:0.5;" width="166" x="409.5" y="75.6211"/><text fill="#000000" font-family="sans-serif" font-size="14" font-style="italic" lengthAdjust="spacing" textLength="30" x="477.5" y="97.7285">&#171;UI&#187;</text><text fill="#000000" font-family="sans-serif" font-size="14" lengthAdjust="spacing" textLength="152" x="416.5" y="116.3496">CreateFormativeExamUI</text><rect fill="#E2E2F0" height="51.2422" rx="2.5" ry="2.5" style="stroke:#181818;stroke-width:0.5;" width="166" x="409.5" y="1648.2988"/><text fill="#000000" font-family="sans-serif" font-size="14" font-style="italic" lengthAdjust="spacing" textLength="30" x="477.5" y="1670.4063">&#171;UI&#187;</text><text fill="#000000" font-family="sans-serif" font-size="14" lengthAdjust="spacing" textLength="152" x="416.5" y="1689.0273">CreateFormativeExamUI</text><rect fill="#E2E2F0" height="51.2422" rx="2.5" ry="2.5" style="stroke:#181818;stroke-width:0.5;" width="216" x="956.5" y="75.6211"/><text fill="#000000" font-family="sans-serif" font-size="14" font-style="italic" lengthAdjust="spacing" textLength="85" x="1022" y="97.7285">&#171;Application&#187;</text><text fill="#000000" font-family="sans-serif" font-size="14" lengthAdjust="spacing" textLength="202" x="963.5" y="116.3496">CreateFormativeExamController</text><rect fill="#E2E2F0" height="51.2422" rx="2.5" ry="2.5" style="stroke:#181818;stroke-width:0.5;" width="216" x="956.5" y="1648.2988"/><text fill="#000000" font-family="sans-serif" font-size="14" font-style="italic" lengthAdjust="spacing" textLength="85" x="1022" y="1670.4063">&#171;Application&#187;</text><text fill="#000000" font-family="sans-serif" font-size="14" lengthAdjust="spacing" textLength="202" x="963.5" y="1689.0273">CreateFormativeExamController</text><rect fill="#E2E2F0" height="51.2422" rx="2.5" ry="2.5" style="stroke:#181818;stroke-width:0.5;" width="140" x="1182.5" y="75.6211"/><text fill="#000000" font-family="sans-serif" font-size="14" font-style="italic" lengthAdjust="spacing" textLength="85" x="1210" y="97.7285">&#171;Application&#187;</text><text fill="#000000" font-family="sans-serif" font-size="14" lengthAdjust="spacing" textLength="126" x="1189.5" y="116.3496">UserSessionService</text><rect fill="#E2E2F0" height="51.2422" rx="2.5" ry="2.5" style="stroke:#181818;stroke-width:0.5;" width="140" x="1182.5" y="1648.2988"/><text fill="#000000" font-family="sans-serif" font-size="14" font-style="italic" lengthAdjust="spacing" textLength="85" x="1210" y="1670.4063">&#171;Application&#187;</text><text fill="#000000" font-family="sans-serif" font-size="14" lengthAdjust="spacing" textLength="126" x="1189.5" y="1689.0273">UserSessionService</text><rect fill="#E2E2F0" height="51.2422" rx="2.5" ry="2.5" style="stroke:#181818;stroke-width:0.5;" width="166" x="1332.5" y="75.6211"/><text fill="#000000" font-family="sans-serif" font-size="14" font-style="italic" lengthAdjust="spacing" textLength="85" x="1373" y="97.7285">&#171;Application&#187;</text><text fill="#000000" font-family="sans-serif" font-size="14" lengthAdjust="spacing" textLength="152" x="1339.5" y="116.3496">TeacherCourseProvider</text><rect fill="#E2E2F0" height="51.2422" rx="2.5" ry="2.5" style="stroke:#181818;stroke-width:0.5;" width="166" x="1332.5" y="1648.2988"/><text fill="#000000" font-family="sans-serif" font-size="14" font-style="italic" lengthAdjust="spacing" textLength="85" x="1373" y="1670.4063">&#171;Application&#187;</text><text fill="#000000" font-family="sans-serif" font-size="14" lengthAdjust="spacing" textLength="152" x="1339.5" y="1689.0273">TeacherCourseProvider</text><rect fill="#E2E2F0" height="51.2422" rx="2.5" ry="2.5" style="stroke:#181818;stroke-width:0.5;" width="155" x="1508.5" y="75.6211"/><text fill="#000000" font-family="sans-serif" font-size="14" font-style="italic" lengthAdjust="spacing" textLength="64" x="1554" y="97.7285">&#171;Domain&#187;</text><text fill="#000000" font-family="sans-serif" font-size="14" lengthAdjust="spacing" textLength="141" x="1515.5" y="116.3496">FormativeExamBuilder</text><rect fill="#E2E2F0" height="51.2422" rx="2.5" ry="2.5" style="stroke:#181818;stroke-width:0.5;" width="155" x="1508.5" y="1648.2988"/><text fill="#000000" font-family="sans-serif" font-size="14" font-style="italic" lengthAdjust="spacing" textLength="64" x="1554" y="1670.4063">&#171;Domain&#187;</text><text fill="#000000" font-family="sans-serif" font-size="14" lengthAdjust="spacing" textLength="141" x="1515.5" y="1689.0273">FormativeExamBuilder</text><rect fill="#E2E2F0" height="51.2422" rx="2.5" ry="2.5" style="stroke:#181818;stroke-width:0.5;" width="124" x="1673.5" y="75.6211"/><text fill="#000000" font-family="sans-serif" font-size="14" font-style="italic" lengthAdjust="spacing" textLength="85" x="1693" y="97.7285">&#171;Application&#187;</text><text fill="#000000" font-family="sans-serif" font-size="14" lengthAdjust="spacing" textLength="110" x="1680.5" y="116.3496">QuestionProvider</text><rect fill="#E2E2F0" height="51.2422" rx="2.5" ry="2.5" style="stroke:#181818;stroke-width:0.5;" width="124" x="1673.5" y="1648.2988"/><text fill="#000000" font-family="sans-serif" font-size="14" font-style="italic" lengthAdjust="spacing" textLength="85" x="1693" y="1670.4063">&#171;Application&#187;</text><text fill="#000000" font-family="sans-serif" font-size="14" lengthAdjust="spacing" textLength="110" x="1680.5" y="1689.0273">QuestionProvider</text><text fill="#000000" font-family="sans-serif" font-size="14" font-style="italic" lengthAdjust="spacing" textLength="84" x="1828" y="105.7285">&#171;Repository&#187;</text><text fill="#000000" font-family="sans-serif" font-size="14" lengthAdjust="spacing" textLength="125" x="1807.5" y="124.3496">QuestionRepository</text><path d="M1855,54.6211 C1855,44.6211 1873,44.6211 1873,44.6211 C1873,44.6211 1891,44.6211 1891,54.6211 L1891,80.6211 C1891,90.6211 1873,90.6211 1873,90.6211 C1873,90.6211 1855,90.6211 1855,80.6211 L1855,54.6211 " fill="#E2E2F0" style="stroke:#181818;stroke-width:1.5;"/><path d="M1855,54.6211 C1855,64.6211 1873,64.6211 1873,64.6211 C1873,64.6211 1891,64.6211 1891,54.6211 " fill="none" style="stroke:#181818;stroke-width:1.5;"/><text fill="#000000" font-family="sans-serif" font-size="14" font-style="italic" lengthAdjust="spacing" textLength="84" x="1828" y="1663.4063">&#171;Repository&#187;</text><text fill="#000000" font-family="sans-serif" font-size="14" lengthAdjust="spacing" textLength="125" x="1807.5" y="1682.0273">QuestionRepository</text><path d="M1855,1695.541 C1855,1685.541 1873,1685.541 1873,1685.541 C1873,1685.541 1891,1685.541 1891,1695.541 L1891,1721.541 C1891,1731.541 1873,1731.541 1873,1731.541 C1873,1731.541 1855,1731.541 1855,1721.541 L1855,1695.541 " fill="#E2E2F0" style="stroke:#181818;stroke-width:1.5;"/><path d="M1855,1695.541 C1855,1705.541 1873,1705.541 1873,1705.541 C1873,1705.541 1891,1705.541 1891,1695.541 " fill="none" style="stroke:#181818;stroke-width:1.5;"/><rect fill="#E2E2F0" height="51.2422" rx="2.5" ry="2.5" style="stroke:#181818;stroke-width:0.5;" width="111" x="1948.5" y="75.6211"/><text fill="#000000" font-family="sans-serif" font-size="14" font-style="italic" lengthAdjust="spacing" textLength="64" x="1972" y="97.7285">&#171;Domain&#187;</text><text fill="#000000" font-family="sans-serif" font-size="14" lengthAdjust="spacing" textLength="97" x="1955.5" y="116.3496">FormativeExam</text><rect fill="#E2E2F0" height="51.2422" rx="2.5" ry="2.5" style="stroke:#181818;stroke-width:0.5;" width="111" x="1948.5" y="1648.2988"/><text fill="#000000" font-family="sans-serif" font-size="14" font-style="italic" lengthAdjust="spacing" textLength="64" x="1972" y="1670.4063">&#171;Domain&#187;</text><text fill="#000000" font-family="sans-serif" font-size="14" lengthAdjust="spacing" textLength="97" x="1955.5" y="1689.0273">FormativeExam</text><text fill="#000000" font-family="sans-serif" font-size="14" font-style="italic" lengthAdjust="spacing" textLength="84" x="2078.5" y="105.7285">&#171;Repository&#187;</text><text fill="#000000" font-family="sans-serif" font-size="14" lengthAdjust="spacing" textLength="102" x="2069.5" y="124.3496">ExamRepository</text><path d="M2105.5,54.6211 C2105.5,44.6211 2123.5,44.6211 2123.5,44.6211 C2123.5,44.6211 2141.5,44.6211 2141.5,54.6211 L2141.5,80.6211 C2141.5,90.6211 2123.5,90.6211 2123.5,90.6211 C2123.5,90.6211 2105.5,90.6211 2105.5,80.6211 L2105.5,54.6211 " fill="#E2E2F0" style="stroke:#181818;stroke-width:1.5;"/><path d="M2105.5,54.6211 C2105.5,64.6211 2123.5,64.6211 2123.5,64.6211 C2123.5,64.6211 2141.5,64.6211 2141.5,54.6211 " fill="none" style="stroke:#181818;stroke-width:1.5;"/><text fill="#000000" font-family="sans-serif" font-size="14" font-style="italic" lengthAdjust="spacing" textLength="84" x="2078.5" y="1663.4063">&#171;Repository&#187;</text><text fill="#000000" font-family="sans-serif" font-size="14" lengthAdjust="spacing" textLength="102" x="2069.5" y="1682.0273">ExamRepository</text><path d="M2105.5,1695.541 C2105.5,1685.541 2123.5,1685.541 2123.5,1685.541 C2123.5,1685.541 2141.5,1685.541 2141.5,1695.541 L2141.5,1721.541 C2141.5,1731.541 2123.5,1731.541 2123.5,1731.541 C2123.5,1731.541 2105.5,1731.541 2105.5,1721.541 L2105.5,1695.541 " fill="#E2E2F0" style="stroke:#181818;stroke-width:1.5;"/><path d="M2105.5,1695.541 C2105.5,1705.541 2123.5,1705.541 2123.5,1705.541 C2123.5,1705.541 2141.5,1705.541 2141.5,1695.541 " fill="none" style="stroke:#181818;stroke-width:1.5;"/><rect fill="#FFFFFF" height="1502.4355" style="stroke:#181818;stroke-width:1.0;" width="10" x="487.5" y="137.8633"/><rect fill="#FFFFFF" height="187.7461" style="stroke:#181818;stroke-width:1.0;" width="10" x="1059.5" y="192.4453"/><rect fill="#FFFFFF" height="62.582" style="stroke:#181818;stroke-width:1.0;" width="10" x="1059.5" y="474.0645"/><rect fill="#FFFFFF" height="62.582" style="stroke:#181818;stroke-width:1.0;" width="10" x="1059.5" y="630.5195"/><rect fill="#FFFFFF" height="123.873" style="stroke:#181818;stroke-width:1.0;" width="10" x="1059.5" y="883.8477"/><rect fill="#FFFFFF" height="155.1641" style="stroke:#181818;stroke-width:1.0;" width="10" x="1059.5" y="1039.0117"/><rect fill="#FFFFFF" height="61.291" style="stroke:#181818;stroke-width:1.0;" width="10" x="1059.5" y="1314.3398"/><rect fill="#FFFFFF" height="93.873" style="stroke:#181818;stroke-width:1.0;" width="10" x="1059.5" y="1492.1348"/><rect fill="#FFFFFF" height="31.291" style="stroke:#181818;stroke-width:1.0;" width="10" x="1247.5" y="223.7363"/><rect fill="#FFFFFF" height="31.291" style="stroke:#181818;stroke-width:1.0;" width="10" x="1410.5" y="317.6094"/><rect fill="#FFFFFF" height="31.291" style="stroke:#181818;stroke-width:1.0;" width="10" x="1581" y="505.3555"/><rect fill="#FFFFFF" height="31.291" style="stroke:#181818;stroke-width:1.0;" width="10" x="1581" y="661.8105"/><rect fill="#FFFFFF" height="30" style="stroke:#181818;stroke-width:1.0;" width="10" x="1581" y="977.7207"/><rect fill="#FFFFFF" height="92.582" style="stroke:#181818;stroke-width:1.0;" width="10" x="1581" y="1070.3027"/><rect fill="#FFFFFF" height="30" style="stroke:#181818;stroke-width:1.0;" width="10" x="1581" y="1345.6309"/><rect fill="#FFFFFF" height="31.291" style="stroke:#181818;stroke-width:1.0;" width="10" x="1730.5" y="915.1387"/><rect fill="#FFFFFF" height="30" style="stroke:#181818;stroke-width:1.0;" width="10" x="1999" y="1101.5938"/><rect fill="#FFFFFF" height="31.291" style="stroke:#181818;stroke-width:1.0;" width="10" x="2118.5" y="1523.4258"/><polygon fill="#181818" points="475.5,157.1543,485.5,161.1543,475.5,165.1543,479.5,161.1543" style="stroke:#181818;stroke-width:1.0;"/><line style="stroke:#181818;stroke-width:1.0;stroke-dasharray:2.0,2.0;" x1="59.5" x2="481.5" y1="161.1543" y2="161.1543"/><text fill="#000000" font-family="sans-serif" font-size="13" font-weight="bold" lengthAdjust="spacing" textLength="7" x="66.5" y="155.8916">1</text><text fill="#000000" font-family="sans-serif" font-size="13" lengthAdjust="spacing" textLength="185" x="77.5" y="155.8916">asks to create a formative exam</text><polygon fill="#181818" points="1047.5,188.4453,1057.5,192.4453,1047.5,196.4453,1051.5,192.4453" style="stroke:#181818;stroke-width:1.0;"/><line style="stroke:#181818;stroke-width:1.0;stroke-dasharray:2.0,2.0;" x1="497.5" x2="1053.5" y1="192.4453" y2="192.4453"/><text fill="#000000" font-family="sans-serif" font-size="13" font-weight="bold" lengthAdjust="spacing" textLength="7" x="504.5" y="187.1826">2</text><text fill="#000000" font-family="sans-serif" font-size="13" lengthAdjust="spacing" textLength="532" x="515.5" y="187.1826">create(userSessionService, teacherCourseProvider, questionProvider, formativeExamBuilder)</text><polygon fill="#181818" points="1235.5,219.7363,1245.5,223.7363,1235.5,227.7363,1239.5,223.7363" style="stroke:#181818;stroke-width:1.0;"/><line style="stroke:#181818;stroke-width:1.0;" x1="1069.5" x2="1241.5" y1="223.7363" y2="223.7363"/><text fill="#000000" font-family="sans-serif" font-size="13" font-weight="bold" lengthAdjust="spacing" textLength="7" x="1076.5" y="218.4736">3</text><text fill="#000000" font-family="sans-serif" font-size="13" lengthAdjust="spacing" textLength="95" x="1087.5" y="218.4736">getLoggedUser()</text><polygon fill="#181818" points="1080.5,251.0273,1070.5,255.0273,1080.5,259.0273,1076.5,255.0273" style="stroke:#181818;stroke-width:1.0;"/><line style="stroke:#181818;stroke-width:1.0;" x1="1074.5" x2="1251.5" y1="255.0273" y2="255.0273"/><text fill="#000000" font-family="sans-serif" font-size="13" font-weight="bold" lengthAdjust="spacing" textLength="7" x="1086.5" y="249.7646">4</text><text fill="#000000" font-family="sans-serif" font-size="13" lengthAdjust="spacing" textLength="111" x="1097.5" y="249.7646">returns logged user</text><polygon fill="#181818" points="1047.5,282.3184,1057.5,286.3184,1047.5,290.3184,1051.5,286.3184" style="stroke:#181818;stroke-width:1.0;"/><line style="stroke:#181818;stroke-width:1.0;" x1="497.5" x2="1053.5" y1="286.3184" y2="286.3184"/><text fill="#000000" font-family="sans-serif" font-size="13" font-weight="bold" lengthAdjust="spacing" textLength="7" x="504.5" y="281.0557">5</text><text fill="#000000" font-family="sans-serif" font-size="13" lengthAdjust="spacing" textLength="154" x="515.5" y="281.0557">listTeacherActiveCourses()</text><polygon fill="#181818" points="1398.5,313.6094,1408.5,317.6094,1398.5,321.6094,1402.5,317.6094" style="stroke:#181818;stroke-width:1.0;"/><line style="stroke:#181818;stroke-width:1.0;" x1="1069.5" x2="1404.5" y1="317.6094" y2="317.6094"/><text fill="#000000" font-family="sans-serif" font-size="13" font-weight="bold" lengthAdjust="spacing" textLength="7" x="1076.5" y="312.3467">6</text><text fill="#000000" font-family="sans-serif" font-size="13" lengthAdjust="spacing" textLength="183" x="1087.5" y="312.3467">provideUserActiveCourses(user)</text><polygon fill="#181818" points="1080.5,344.9004,1070.5,348.9004,1080.5,352.9004,1076.5,348.9004" style="stroke:#181818;stroke-width:1.0;"/><line style="stroke:#181818;stroke-width:1.0;" x1="1074.5" x2="1414.5" y1="348.9004" y2="348.9004"/><text fill="#000000" font-family="sans-serif" font-size="13" font-weight="bold" lengthAdjust="spacing" textLength="7" x="1086.5" y="343.6377">7</text><text fill="#000000" font-family="sans-serif" font-size="13" lengthAdjust="spacing" textLength="125" x="1097.5" y="343.6377">returns list of courses</text><polygon fill="#181818" points="508.5,376.1914,498.5,380.1914,508.5,384.1914,504.5,380.1914" style="stroke:#181818;stroke-width:1.0;"/><line style="stroke:#181818;stroke-width:1.0;" x1="502.5" x2="1063.5" y1="380.1914" y2="380.1914"/><text fill="#000000" font-family="sans-serif" font-size="13" font-weight="bold" lengthAdjust="spacing" textLength="7" x="514.5" y="374.9287">8</text><text fill="#000000" font-family="sans-serif" font-size="13" lengthAdjust="spacing" textLength="118" x="525.5" y="374.9287">return list of courses</text><polygon fill="#181818" points="70.5,407.4824,60.5,411.4824,70.5,415.4824,66.5,411.4824" style="stroke:#181818;stroke-width:1.0;"/><line style="stroke:#181818;stroke-width:1.0;stroke-dasharray:2.0,2.0;" x1="64.5" x2="486.5" y1="411.4824" y2="411.4824"/><text fill="#000000" font-family="sans-serif" font-size="13" font-weight="bold" lengthAdjust="spacing" textLength="7" x="76.5" y="406.2197">9</text><text fill="#000000" font-family="sans-serif" font-size="13" lengthAdjust="spacing" textLength="122" x="87.5" y="406.2197">shows list of courses</text><polygon fill="#181818" points="475.5,438.7734,485.5,442.7734,475.5,446.7734,479.5,442.7734" style="stroke:#181818;stroke-width:1.0;"/><line style="stroke:#181818;stroke-width:1.0;stroke-dasharray:2.0,2.0;" x1="59.5" x2="481.5" y1="442.7734" y2="442.7734"/><text fill="#000000" font-family="sans-serif" font-size="13" font-weight="bold" lengthAdjust="spacing" textLength="14" x="66.5" y="437.5107">10</text><text fill="#000000" font-family="sans-serif" font-size="13" lengthAdjust="spacing" textLength="96" x="84.5" y="437.5107">selects a course</text><polygon fill="#181818" points="1047.5,470.0645,1057.5,474.0645,1047.5,478.0645,1051.5,474.0645" style="stroke:#181818;stroke-width:1.0;"/><line style="stroke:#181818;stroke-width:1.0;" x1="497.5" x2="1053.5" y1="474.0645" y2="474.0645"/><text fill="#000000" font-family="sans-serif" font-size="13" font-weight="bold" lengthAdjust="spacing" textLength="14" x="504.5" y="468.8018">11</text><text fill="#000000" font-family="sans-serif" font-size="13" lengthAdjust="spacing" textLength="127" x="522.5" y="468.8018">submitCourse(course)</text><polygon fill="#181818" points="1569,501.3555,1579,505.3555,1569,509.3555,1573,505.3555" style="stroke:#181818;stroke-width:1.0;"/><line style="stroke:#181818;stroke-width:1.0;" x1="1069.5" x2="1575" y1="505.3555" y2="505.3555"/><text fill="#000000" font-family="sans-serif" font-size="13" font-weight="bold" lengthAdjust="spacing" textLength="14" x="1076.5" y="500.0928">12</text><text fill="#000000" font-family="sans-serif" font-size="13" lengthAdjust="spacing" textLength="111" x="1094.5" y="500.0928">withCourse(course)</text><polygon fill="#181818" points="1574,532.6465,1584,536.6465,1574,540.6465,1578,536.6465" style="stroke:#181818;stroke-width:1.0;"/><line style="stroke:#181818;stroke-width:1.0;" x1="1064.5" x2="1580" y1="536.6465" y2="536.6465"/><text fill="#000000" font-family="sans-serif" font-size="13" font-weight="bold" lengthAdjust="spacing" textLength="14" x="1071.5" y="531.3838">13</text><text fill="#000000" font-family="sans-serif" font-size="13" lengthAdjust="spacing" textLength="98" x="1089.5" y="531.3838">withCreator(user)</text><polygon fill="#181818" points="70.5,563.9375,60.5,567.9375,70.5,571.9375,66.5,567.9375" style="stroke:#181818;stroke-width:1.0;"/><line style="stroke:#181818;stroke-width:1.0;stroke-dasharray:2.0,2.0;" x1="64.5" x2="486.5" y1="567.9375" y2="567.9375"/><text fill="#000000" font-family="sans-serif" font-size="13" font-weight="bold" lengthAdjust="spacing" textLength="14" x="76.5" y="562.6748">14</text><text fill="#000000" font-family="sans-serif" font-size="13" lengthAdjust="spacing" textLength="152" x="94.5" y="562.6748">request data (title, header)</text><polygon fill="#181818" points="475.5,595.2285,485.5,599.2285,475.5,603.2285,479.5,599.2285" style="stroke:#181818;stroke-width:1.0;"/><line style="stroke:#181818;stroke-width:1.0;stroke-dasharray:2.0,2.0;" x1="59.5" x2="481.5" y1="599.2285" y2="599.2285"/><text fill="#000000" font-family="sans-serif" font-size="13" font-weight="bold" lengthAdjust="spacing" textLength="14" x="66.5" y="593.9658">15</text><text fill="#000000" font-family="sans-serif" font-size="13" lengthAdjust="spacing" textLength="132" x="84.5" y="593.9658">submit title and header</text><polygon fill="#181818" points="1047.5,626.5195,1057.5,630.5195,1047.5,634.5195,1051.5,630.5195" style="stroke:#181818;stroke-width:1.0;"/><line style="stroke:#181818;stroke-width:1.0;" x1="497.5" x2="1053.5" y1="630.5195" y2="630.5195"/><text fill="#000000" font-family="sans-serif" font-size="13" font-weight="bold" lengthAdjust="spacing" textLength="14" x="504.5" y="625.2568">16</text><text fill="#000000" font-family="sans-serif" font-size="13" lengthAdjust="spacing" textLength="346" x="522.5" y="625.2568">submitTopSection(title, header, feedbackType, gradingType)</text><polygon fill="#181818" points="1569,657.8105,1579,661.8105,1569,665.8105,1573,661.8105" style="stroke:#181818;stroke-width:1.0;"/><line style="stroke:#181818;stroke-width:1.0;" x1="1069.5" x2="1575" y1="661.8105" y2="661.8105"/><text fill="#000000" font-family="sans-serif" font-size="13" font-weight="bold" lengthAdjust="spacing" textLength="14" x="1076.5" y="656.5479">17</text><text fill="#000000" font-family="sans-serif" font-size="13" lengthAdjust="spacing" textLength="76" x="1094.5" y="656.5479">withTitle(title)</text><polygon fill="#181818" points="1574,689.1016,1584,693.1016,1574,697.1016,1578,693.1016" style="stroke:#181818;stroke-width:1.0;"/><line style="stroke:#181818;stroke-width:1.0;" x1="1064.5" x2="1580" y1="693.1016" y2="693.1016"/><text fill="#000000" font-family="sans-serif" font-size="13" font-weight="bold" lengthAdjust="spacing" textLength="14" x="1071.5" y="687.8389">18</text><text fill="#000000" font-family="sans-serif" font-size="13" lengthAdjust="spacing" textLength="277" x="1089.5" y="687.8389">withHeader(header, feedbackType, gradingType)</text><path d="M20,708.1016 L93,708.1016 L93,717.3926 L83,727.3926 L20,727.3926 L20,708.1016 " fill="#EEEEEE" style="stroke:#000000;stroke-width:1.5;"/><rect fill="none" height="119.1641" style="stroke:#000000;stroke-width:1.5;" width="565.5" x="20" y="708.1016"/><text fill="#000000" font-family="sans-serif" font-size="13" font-weight="bold" lengthAdjust="spacing" textLength="28" x="35" y="723.1299">loop</text><text fill="#000000" font-family="sans-serif" font-size="11" font-weight="bold" lengthAdjust="spacing" textLength="97" x="108" y="721.9717">[for each section]</text><polygon fill="#181818" points="70.5,746.6836,60.5,750.6836,70.5,754.6836,66.5,750.6836" style="stroke:#181818;stroke-width:1.0;"/><line style="stroke:#181818;stroke-width:1.0;stroke-dasharray:2.0,2.0;" x1="64.5" x2="486.5" y1="750.6836" y2="750.6836"/><text fill="#000000" font-family="sans-serif" font-size="13" font-weight="bold" lengthAdjust="spacing" textLength="14" x="76.5" y="745.4209">19</text><text fill="#000000" font-family="sans-serif" font-size="13" lengthAdjust="spacing" textLength="386" x="94.5" y="745.4209">request data (sectionDescription, questionType, numberQuestions)</text><path d="M64,763.6836 L64,790.6836 L412,790.6836 L412,773.6836 L402,763.6836 L64,763.6836 " fill="#FEFFDD" style="stroke:#181818;stroke-width:0.5;"/><path d="M402,763.6836 L402,773.6836 L412,773.6836 L402,763.6836 " fill="#FEFFDD" style="stroke:#181818;stroke-width:0.5;"/><text fill="#000000" font-family="sans-serif" font-size="13" lengthAdjust="spacing" textLength="327" x="70" y="782.7119">number of questions of questionType type in that section</text><polygon fill="#181818" points="475.5,815.2656,485.5,819.2656,475.5,823.2656,479.5,819.2656" style="stroke:#181818;stroke-width:1.0;"/><line style="stroke:#181818;stroke-width:1.0;stroke-dasharray:2.0,2.0;" x1="59.5" x2="481.5" y1="819.2656" y2="819.2656"/><text fill="#000000" font-family="sans-serif" font-size="13" font-weight="bold" lengthAdjust="spacing" textLength="14" x="66.5" y="814.0029">20</text><text fill="#000000" font-family="sans-serif" font-size="13" lengthAdjust="spacing" textLength="345" x="84.5" y="814.0029">submit sectionDescription, questionType, numberQuestions</text><path d="M10,841.2656 L83,841.2656 L83,850.5566 L73,860.5566 L10,860.5566 L10,841.2656 " fill="#EEEEEE" style="stroke:#000000;stroke-width:1.5;"/><rect fill="none" height="791.0332" style="stroke:#000000;stroke-width:1.5;" width="2187.5" x="10" y="841.2656"/><text fill="#000000" font-family="sans-serif" font-size="13" font-weight="bold" lengthAdjust="spacing" textLength="28" x="25" y="856.2939">loop</text><text fill="#000000" font-family="sans-serif" font-size="11" font-weight="bold" lengthAdjust="spacing" textLength="143" x="98" y="855.1357">[while disapproves exam]</text><polygon fill="#181818" points="1047.5,879.8477,1057.5,883.8477,1047.5,887.8477,1051.5,883.8477" style="stroke:#181818;stroke-width:1.0;"/><line style="stroke:#181818;stroke-width:1.0;" x1="497.5" x2="1053.5" y1="883.8477" y2="883.8477"/><text fill="#000000" font-family="sans-serif" font-size="13" font-weight="bold" lengthAdjust="spacing" textLength="14" x="504.5" y="878.585">21</text><text fill="#000000" font-family="sans-serif" font-size="13" lengthAdjust="spacing" textLength="393" x="522.5" y="878.585">submitSection(sectionDescription, questionType, numberQuestions)</text><polygon fill="#181818" points="1718.5,911.1387,1728.5,915.1387,1718.5,919.1387,1722.5,915.1387" style="stroke:#181818;stroke-width:1.0;"/><line style="stroke:#181818;stroke-width:1.0;" x1="1069.5" x2="1724.5" y1="915.1387" y2="915.1387"/><text fill="#000000" font-family="sans-serif" font-size="13" font-weight="bold" lengthAdjust="spacing" textLength="14" x="1076.5" y="909.876">22</text><text fill="#000000" font-family="sans-serif" font-size="13" lengthAdjust="spacing" textLength="315" x="1094.5" y="909.876">listQuestionsByType(questionType, numberQuestions)</text><polygon fill="#181818" points="1080.5,942.4297,1070.5,946.4297,1080.5,950.4297,1076.5,946.4297" style="stroke:#181818;stroke-width:1.0;"/><line style="stroke:#181818;stroke-width:1.0;" x1="1074.5" x2="1734.5" y1="946.4297" y2="946.4297"/><text fill="#000000" font-family="sans-serif" font-size="13" font-weight="bold" lengthAdjust="spacing" textLength="14" x="1086.5" y="941.167">23</text><text fill="#000000" font-family="sans-serif" font-size="13" lengthAdjust="spacing" textLength="135" x="1104.5" y="941.167">returns list of questions</text><polygon fill="#181818" points="1569,973.7207,1579,977.7207,1569,981.7207,1573,977.7207" style="stroke:#181818;stroke-width:1.0;"/><line style="stroke:#181818;stroke-width:1.0;" x1="1069.5" x2="1575" y1="977.7207" y2="977.7207"/><text fill="#000000" font-family="sans-serif" font-size="13" font-weight="bold" lengthAdjust="spacing" textLength="14" x="1076.5" y="972.458">24</text><text fill="#000000" font-family="sans-serif" font-size="13" lengthAdjust="spacing" textLength="246" x="1094.5" y="972.458">withSection(sectionDescription, questions)</text><polygon fill="#181818" points="1047.5,1035.0117,1057.5,1039.0117,1047.5,1043.0117,1051.5,1039.0117" style="stroke:#181818;stroke-width:1.0;"/><line style="stroke:#181818;stroke-width:1.0;" x1="497.5" x2="1053.5" y1="1039.0117" y2="1039.0117"/><text fill="#000000" font-family="sans-serif" font-size="13" font-weight="bold" lengthAdjust="spacing" textLength="14" x="504.5" y="1033.749">25</text><text fill="#000000" font-family="sans-serif" font-size="13" lengthAdjust="spacing" textLength="81" x="522.5" y="1033.749">submitExam()</text><polygon fill="#181818" points="1569,1066.3027,1579,1070.3027,1569,1074.3027,1573,1070.3027" style="stroke:#181818;stroke-width:1.0;"/><line style="stroke:#181818;stroke-width:1.0;" x1="1069.5" x2="1575" y1="1070.3027" y2="1070.3027"/><text fill="#000000" font-family="sans-serif" font-size="13" font-weight="bold" lengthAdjust="spacing" textLength="14" x="1076.5" y="1065.04">26</text><text fill="#000000" font-family="sans-serif" font-size="13" lengthAdjust="spacing" textLength="35" x="1094.5" y="1065.04">build()</text><polygon fill="#181818" points="1987,1097.5938,1997,1101.5938,1987,1105.5938,1991,1101.5938" style="stroke:#181818;stroke-width:1.0;"/><line style="stroke:#181818;stroke-width:1.0;" x1="1591" x2="1993" y1="1101.5938" y2="1101.5938"/><text fill="#000000" font-family="sans-serif" font-size="13" font-weight="bold" lengthAdjust="spacing" textLength="14" x="1598" y="1096.3311">27</text><text fill="#000000" font-family="sans-serif" font-size="13" lengthAdjust="spacing" textLength="44" x="1616" y="1096.3311">create()</text><polygon fill="#181818" points="1080.5,1158.8848,1070.5,1162.8848,1080.5,1166.8848,1076.5,1162.8848" style="stroke:#181818;stroke-width:1.0;"/><line style="stroke:#181818;stroke-width:1.0;" x1="1074.5" x2="1585" y1="1162.8848" y2="1162.8848"/><text fill="#000000" font-family="sans-serif" font-size="13" font-weight="bold" lengthAdjust="spacing" textLength="14" x="1086.5" y="1157.6221">28</text><text fill="#000000" font-family="sans-serif" font-size="13" lengthAdjust="spacing" textLength="123" x="1104.5" y="1157.6221">returns created exam</text><polygon fill="#181818" points="508.5,1190.1758,498.5,1194.1758,508.5,1198.1758,504.5,1194.1758" style="stroke:#181818;stroke-width:1.0;"/><line style="stroke:#181818;stroke-width:1.0;" x1="502.5" x2="1063.5" y1="1194.1758" y2="1194.1758"/><text fill="#000000" font-family="sans-serif" font-size="13" font-weight="bold" lengthAdjust="spacing" textLength="14" x="514.5" y="1188.9131">29</text><text fill="#000000" font-family="sans-serif" font-size="13" lengthAdjust="spacing" textLength="116" x="532.5" y="1188.9131">return created exam</text><polygon fill="#181818" points="70.5,1221.4668,60.5,1225.4668,70.5,1229.4668,66.5,1225.4668" style="stroke:#181818;stroke-width:1.0;"/><line style="stroke:#181818;stroke-width:1.0;stroke-dasharray:2.0,2.0;" x1="64.5" x2="486.5" y1="1225.4668" y2="1225.4668"/><text fill="#000000" font-family="sans-serif" font-size="13" font-weight="bold" lengthAdjust="spacing" textLength="14" x="76.5" y="1220.2041">30</text><text fill="#000000" font-family="sans-serif" font-size="13" lengthAdjust="spacing" textLength="120" x="94.5" y="1220.2041">shows created exam</text><polygon fill="#181818" points="70.5,1252.7578,60.5,1256.7578,70.5,1260.7578,66.5,1256.7578" style="stroke:#181818;stroke-width:1.0;"/><line style="stroke:#181818;stroke-width:1.0;stroke-dasharray:2.0,2.0;" x1="64.5" x2="486.5" y1="1256.7578" y2="1256.7578"/><text fill="#000000" font-family="sans-serif" font-size="13" font-weight="bold" lengthAdjust="spacing" textLength="14" x="76.5" y="1251.4951">31</text><text fill="#000000" font-family="sans-serif" font-size="13" lengthAdjust="spacing" textLength="133" x="94.5" y="1251.4951">asks if user is satisfied</text><path d="M20,1271.7578 L81,1271.7578 L81,1281.0488 L71,1291.0488 L20,1291.0488 L20,1271.7578 " fill="#EEEEEE" style="stroke:#000000;stroke-width:1.5;"/><rect fill="none" height="353.541" style="stroke:#000000;stroke-width:1.5;" width="2167.5" x="20" y="1271.7578"/><text fill="#000000" font-family="sans-serif" font-size="13" font-weight="bold" lengthAdjust="spacing" textLength="16" x="35" y="1286.7861">alt</text><text fill="#000000" font-family="sans-serif" font-size="11" font-weight="bold" lengthAdjust="spacing" textLength="167" x="96" y="1285.6279">[user does not approve exam]</text><polygon fill="#181818" points="1047.5,1310.3398,1057.5,1314.3398,1047.5,1318.3398,1051.5,1314.3398" style="stroke:#181818;stroke-width:1.0;"/><line style="stroke:#181818;stroke-width:1.0;" x1="497.5" x2="1053.5" y1="1314.3398" y2="1314.3398"/><text fill="#000000" font-family="sans-serif" font-size="13" font-weight="bold" lengthAdjust="spacing" textLength="14" x="504.5" y="1309.0771">32</text><text fill="#000000" font-family="sans-serif" font-size="13" lengthAdjust="spacing" textLength="100" x="522.5" y="1309.0771">removeSections()</text><polygon fill="#181818" points="1569,1341.6309,1579,1345.6309,1569,1349.6309,1573,1345.6309" style="stroke:#181818;stroke-width:1.0;"/><line style="stroke:#181818;stroke-width:1.0;" x1="1069.5" x2="1575" y1="1345.6309" y2="1345.6309"/><text fill="#000000" font-family="sans-serif" font-size="13" font-weight="bold" lengthAdjust="spacing" textLength="14" x="1076.5" y="1340.3682">33</text><text fill="#000000" font-family="sans-serif" font-size="13" lengthAdjust="spacing" textLength="100" x="1094.5" y="1340.3682">removeSections()</text><path d="M64,1388.6309 L64,1415.6309 L657,1415.6309 L657,1398.6309 L647,1388.6309 L64,1388.6309 " fill="#FEFFDD" style="stroke:#181818;stroke-width:0.5;"/><path d="M647,1388.6309 L647,1398.6309 L657,1398.6309 L647,1388.6309 " fill="#FEFFDD" style="stroke:#181818;stroke-width:0.5;"/><text fill="#000000" font-family="sans-serif" font-size="13" lengthAdjust="spacing" textLength="572" x="70" y="1407.6592">if the user is not satisfied with the generated exam questions, repeat loop (while disapproves exam)</text><line style="stroke:#000000;stroke-width:1.0;stroke-dasharray:2.0,2.0;" x1="20" x2="2187.5" y1="1421.9219" y2="1421.9219"/><text fill="#000000" font-family="sans-serif" font-size="11" font-weight="bold" lengthAdjust="spacing" textLength="93" x="25" y="1433.792">[approves exam]</text><polygon fill="#181818" points="475.5,1456.8438,485.5,1460.8438,475.5,1464.8438,479.5,1460.8438" style="stroke:#181818;stroke-width:1.0;"/><line style="stroke:#181818;stroke-width:1.0;stroke-dasharray:2.0,2.0;" x1="59.5" x2="481.5" y1="1460.8438" y2="1460.8438"/><text fill="#000000" font-family="sans-serif" font-size="13" font-weight="bold" lengthAdjust="spacing" textLength="14" x="66.5" y="1455.5811">34</text><text fill="#000000" font-family="sans-serif" font-size="13" lengthAdjust="spacing" textLength="91" x="84.5" y="1455.5811">user is satisfied</text><polygon fill="#181818" points="1047.5,1488.1348,1057.5,1492.1348,1047.5,1496.1348,1051.5,1492.1348" style="stroke:#181818;stroke-width:1.0;"/><line style="stroke:#181818;stroke-width:1.0;" x1="497.5" x2="1053.5" y1="1492.1348" y2="1492.1348"/><text fill="#000000" font-family="sans-serif" font-size="13" font-weight="bold" lengthAdjust="spacing" textLength="14" x="504.5" y="1486.8721">35</text><text fill="#000000" font-family="sans-serif" font-size="13" lengthAdjust="spacing" textLength="68" x="522.5" y="1486.8721">saveExam()</text><polygon fill="#181818" points="2106.5,1519.4258,2116.5,1523.4258,2106.5,1527.4258,2110.5,1523.4258" style="stroke:#181818;stroke-width:1.0;"/><line style="stroke:#181818;stroke-width:1.0;" x1="1069.5" x2="2112.5" y1="1523.4258" y2="1523.4258"/><text fill="#000000" font-family="sans-serif" font-size="13" font-weight="bold" lengthAdjust="spacing" textLength="14" x="1076.5" y="1518.1631">36</text><text fill="#000000" font-family="sans-serif" font-size="13" lengthAdjust="spacing" textLength="34" x="1094.5" y="1518.1631">save()</text><polygon fill="#181818" points="1080.5,1550.7168,1070.5,1554.7168,1080.5,1558.7168,1076.5,1554.7168" style="stroke:#181818;stroke-width:1.0;"/><line style="stroke:#181818;stroke-width:1.0;" x1="1074.5" x2="2122.5" y1="1554.7168" y2="1554.7168"/><text fill="#000000" font-family="sans-serif" font-size="13" font-weight="bold" lengthAdjust="spacing" textLength="14" x="1086.5" y="1549.4541">37</text><text fill="#000000" font-family="sans-serif" font-size="13" lengthAdjust="spacing" textLength="113" x="1104.5" y="1549.4541">returns saved exam</text><polygon fill="#181818" points="508.5,1582.0078,498.5,1586.0078,508.5,1590.0078,504.5,1586.0078" style="stroke:#181818;stroke-width:1.0;"/><line style="stroke:#181818;stroke-width:1.0;" x1="502.5" x2="1063.5" y1="1586.0078" y2="1586.0078"/><text fill="#000000" font-family="sans-serif" font-size="13" font-weight="bold" lengthAdjust="spacing" textLength="14" x="514.5" y="1580.7451">38</text><text fill="#000000" font-family="sans-serif" font-size="13" lengthAdjust="spacing" textLength="106" x="532.5" y="1580.7451">return saved exam</text><polygon fill="#181818" points="70.5,1613.2988,60.5,1617.2988,70.5,1621.2988,66.5,1617.2988" style="stroke:#181818;stroke-width:1.0;"/><line style="stroke:#181818;stroke-width:1.0;stroke-dasharray:2.0,2.0;" x1="64.5" x2="486.5" y1="1617.2988" y2="1617.2988"/><text fill="#000000" font-family="sans-serif" font-size="13" font-weight="bold" lengthAdjust="spacing" textLength="14" x="76.5" y="1612.0361">39</text><text fill="#000000" font-family="sans-serif" font-size="13" lengthAdjust="spacing" textLength="83" x="94.5" y="1612.0361">show success</text><!--SRC=[dLRRRk8m47ttLupwb4hq1r1LgHTMYxGFom8VO981h8OujHsw_VkTiNDn8A6mFA0udZDpPdnc7ATSZl1gK3e42IzQcWmUO8aV5HOfmfkIEoCFGiZAwQ8wRD08cJfjO8KotQC1QM4bIccSIbKf2mTtmTiFRGxIgIFE_ih3Udx7XkivF3wkvqzFtm9UTU6CpdCq7jWjoS5pMUOg9LDTd7fQMpHBj9QsbcYEAiKGTtaPLkVogYjZyRVHHvNLWPl5PNoF-akbyWPUFnFwJH-aEWCkAhJii1TpCHeqaqvkfCKE-0TBRHMTnrU0yffWtUkBL3rc5hFh8l3-YVUP6V1EFnA4EhA0rdEnWeU79pxeAI7UBJWDQQEkRHCRa9mBCcBRw6odjMrIdPtZ1DpG8KtWuwI4aovCT1ht7SakdeX2C-ab4TYX-wLtEynOIaa4Moy56PpoDUWgKrZ8FGQOjyWm1laqJr2vigxMt3EROaZAKhm-fIQfAPJXYLdr8HmoejaWH2kYKSf40lGMqk0efjqwEQtGlCLVWaSLRWvvHK2xrv_dOIF1MCmnTPQK4ZQ7IcUhpK6va7mIpAuvswOHf_2ft7uCNbjTnh92jQdh7gVTeB-lX46lMk1kWyJn39x07gKNQbmGdonu0v15LjkCrsMbooMLaDgXxvMQ0Z7RoFHzzLNIMvhfcIfslBYzUYls7FpVMBkVdano1QVhovfhNNBB0_SJISXdFrxisk0DRMfKoO_T20aymYtN35XxBmfD8OtQxRrkLzFQWXSDqiOBTWEE_rG1RYzTo-hyQ6-c8x38wgG_zufaaIahIvuEQCDOFLD74wnHnd-Ku7k9T9TM66yj-EMBVIRN1cZzYCNL4wmzXLWZYx4XrfVaDKMn0pA_hUy7cvMlf-IszjlmKp90fp4XwrbtZKQ6ivZUBBOVB6rma0L53UGwVY-C8IzU2ZrGjEi_8TJMtwkWB5Ywr-rM8RM0p5rudMbIFlKer6qmsWK63xHT7xYziVBZuDiLSJPGA4EtnpPBJgRDrAlKR- -mGDEMgLFdXCYLL3_mKo4P7Wlt0dFwhEkFYcWU3LHuIBWoV5LTLRpmkHX0FIdoUn5sn_J7c7CD1UG5yGt38eOdogDEJ5FwpWnJrVy9yGy0]--></g></svg>