<?xml version="1.0" encoding="us-ascii" standalone="no"?><svg xmlns="http://www.w3.org/2000/svg" xmlns:xlink="http://www.w3.org/1999/xlink" contentStyleType="text/css" height="728px" preserveAspectRatio="none" style="width:1771px;height:728px;background:#FFFFFF;" version="1.1" viewBox="0 0 1771 728" width="1771px" zoomAndPan="magnify"><defs/><g><!--cluster ui--><g id="cluster_ui"><path d="M8.5,386.0137 L22.5,386.0137 A3.75,3.75 0 0 1 25,388.5137 L32,410.6348 L219.5,410.6348 A2.5,2.5 0 0 1 222,413.1348 L222,484.5137 A2.5,2.5 0 0 1 219.5,487.0137 L8.5,487.0137 A2.5,2.5 0 0 1 6,484.5137 L6,388.5137 A2.5,2.5 0 0 1 8.5,386.0137 " fill="none" style="stroke:#000000;stroke-width:1.5;"/><line style="stroke:#000000;stroke-width:1.5;" x1="6" x2="32" y1="410.6348" y2="410.6348"/><text fill="#000000" font-family="sans-serif" font-size="14" font-weight="bold" lengthAdjust="spacing" textLength="13" x="10" y="403.1211">ui</text></g><!--cluster exammanagement--><g id="cluster_exammanagement"><path d="M248.5,151.0137 L376.5,151.0137 A3.75,3.75 0 0 1 379,153.5137 L386,175.6348 L1761.5,175.6348 A2.5,2.5 0 0 1 1764,178.1348 L1764,573.5137 A2.5,2.5 0 0 1 1761.5,576.0137 L248.5,576.0137 A2.5,2.5 0 0 1 246,573.5137 L246,153.5137 A2.5,2.5 0 0 1 248.5,151.0137 " fill="none" style="stroke:#000000;stroke-width:1.5;"/><line style="stroke:#000000;stroke-width:1.5;" x1="246" x2="386" y1="175.6348" y2="175.6348"/><text fill="#000000" font-family="sans-serif" font-size="14" font-weight="bold" lengthAdjust="spacing" textLength="127" x="250" y="168.1211">exammanagement</text></g><!--cluster application--><g id="cluster_application"><path d="M272.5,321.0137 L350.5,321.0137 A3.75,3.75 0 0 1 353,323.5137 L360,345.6348 L1346.5,345.6348 A2.5,2.5 0 0 1 1349,348.1348 L1349,549.5137 A2.5,2.5 0 0 1 1346.5,552.0137 L272.5,552.0137 A2.5,2.5 0 0 1 270,549.5137 L270,323.5137 A2.5,2.5 0 0 1 272.5,321.0137 " fill="none" style="stroke:#000000;stroke-width:1.5;"/><line style="stroke:#000000;stroke-width:1.5;" x1="270" x2="360" y1="345.6348" y2="345.6348"/><text fill="#000000" font-family="sans-serif" font-size="14" font-weight="bold" lengthAdjust="spacing" textLength="77" x="274" y="338.1211">application</text></g><!--cluster domain--><g id="cluster_domain"><path d="M1384.5,200.0137 L1436.5,200.0137 A3.75,3.75 0 0 1 1439,202.5137 L1446,224.6348 L1737.5,224.6348 A2.5,2.5 0 0 1 1740,227.1348 L1740,511.5137 A2.5,2.5 0 0 1 1737.5,514.0137 L1384.5,514.0137 A2.5,2.5 0 0 1 1382,511.5137 L1382,202.5137 A2.5,2.5 0 0 1 1384.5,200.0137 " fill="none" style="stroke:#000000;stroke-width:1.5;"/><line style="stroke:#000000;stroke-width:1.5;" x1="1382" x2="1446" y1="224.6348" y2="224.6348"/><text fill="#000000" font-family="sans-serif" font-size="14" font-weight="bold" lengthAdjust="spacing" textLength="51" x="1386" y="217.1211">domain</text></g><!--cluster repository--><g id="cluster_repository"><path d="M1003,196.0137 L1076,196.0137 A3.75,3.75 0 0 1 1078.5,198.5137 L1085.5,220.6348 L1164,220.6348 A2.5,2.5 0 0 1 1166.5,223.1348 L1166.5,294.5137 A2.5,2.5 0 0 1 1164,297.0137 L1003,297.0137 A2.5,2.5 0 0 1 1000.5,294.5137 L1000.5,198.5137 A2.5,2.5 0 0 1 1003,196.0137 " fill="none" style="stroke:#000000;stroke-width:1.5;"/><line style="stroke:#000000;stroke-width:1.5;" x1="1000.5" x2="1085.5" y1="220.6348" y2="220.6348"/><text fill="#000000" font-family="sans-serif" font-size="14" font-weight="bold" lengthAdjust="spacing" textLength="72" x="1004.5" y="213.1211">repository</text></g><!--cluster questionmanagment--><g id="cluster_questionmanagment"><path d="M1379.5,600.0137 L1523.5,600.0137 A3.75,3.75 0 0 1 1526,602.5137 L1533,624.6348 L1742.5,624.6348 A2.5,2.5 0 0 1 1745,627.1348 L1745,718.5137 A2.5,2.5 0 0 1 1742.5,721.0137 L1379.5,721.0137 A2.5,2.5 0 0 1 1377,718.5137 L1377,602.5137 A2.5,2.5 0 0 1 1379.5,600.0137 " fill="none" style="stroke:#000000;stroke-width:1.5;"/><line style="stroke:#000000;stroke-width:1.5;" x1="1377" x2="1533" y1="624.6348" y2="624.6348"/><text fill="#000000" font-family="sans-serif" font-size="14" font-weight="bold" lengthAdjust="spacing" textLength="143" x="1381" y="617.1211">questionmanagment</text></g><!--cluster ecourseusermanagement--><g id="cluster_ecourseusermanagement"><path d="M964.5,600.0137 L1145.5,600.0137 A3.75,3.75 0 0 1 1148,602.5137 L1155,624.6348 L1202.5,624.6348 A2.5,2.5 0 0 1 1205,627.1348 L1205,718.5137 A2.5,2.5 0 0 1 1202.5,721.0137 L964.5,721.0137 A2.5,2.5 0 0 1 962,718.5137 L962,602.5137 A2.5,2.5 0 0 1 964.5,600.0137 " fill="none" style="stroke:#000000;stroke-width:1.5;"/><line style="stroke:#000000;stroke-width:1.5;" x1="962" x2="1155" y1="624.6348" y2="624.6348"/><text fill="#000000" font-family="sans-serif" font-size="14" font-weight="bold" lengthAdjust="spacing" textLength="180" x="966" y="617.1211">ecourseusermanagement</text></g><!--cluster coursemanagment--><g id="cluster_coursemanagment"><path d="M356.5,6.0137 L487.5,6.0137 A3.75,3.75 0 0 1 490,8.5137 L497,30.6348 L703.5,30.6348 A2.5,2.5 0 0 1 706,33.1348 L706,124.5137 A2.5,2.5 0 0 1 703.5,127.0137 L356.5,127.0137 A2.5,2.5 0 0 1 354,124.5137 L354,8.5137 A2.5,2.5 0 0 1 356.5,6.0137 " fill="none" style="stroke:#000000;stroke-width:1.5;"/><line style="stroke:#000000;stroke-width:1.5;" x1="354" x2="497" y1="30.6348" y2="30.6348"/><text fill="#000000" font-family="sans-serif" font-size="14" font-weight="bold" lengthAdjust="spacing" textLength="130" x="358" y="23.1211">coursemanagment</text></g><!--class CreateFormativeExamUI--><g id="elem_CreateFormativeExamUI"><rect codeLine="6" fill="#F1F1F1" height="48" id="CreateFormativeExamUI" rx="2.5" ry="2.5" style="stroke:#181818;stroke-width:0.5;" width="184" x="22" y="423.0137"/><ellipse cx="37" cy="439.0137" fill="#ADD1B2" rx="11" ry="11" style="stroke:#181818;stroke-width:1.0;"/><path d="M39.7656,434.8887 Q39.9219,434.6699 40.1094,434.5605 Q40.2969,434.4512 40.5156,434.4512 Q40.8906,434.4512 41.125,434.7168 Q41.3594,434.9668 41.3594,435.5762 L41.3594,437.0293 Q41.3594,437.6387 41.125,437.9043 Q40.8906,438.1699 40.5156,438.1699 Q40.1719,438.1699 39.9688,437.9668 Q39.7656,437.7793 39.6563,437.2637 Q39.6094,436.9043 39.4219,436.7168 Q39.0938,436.3418 38.4844,436.123 Q37.875,435.9043 37.25,435.9043 Q36.4844,435.9043 35.8438,436.2324 Q35.2188,436.5605 34.7188,437.3105 Q34.2344,438.0605 34.2344,439.0918 L34.2344,440.1855 Q34.2344,441.4199 35.125,442.248 Q36.0156,443.0605 37.6094,443.0605 Q38.5469,443.0605 39.2031,442.8105 Q39.5938,442.6543 40.0156,442.2168 Q40.2813,441.9512 40.4219,441.873 Q40.5781,441.7949 40.7813,441.7949 Q41.1094,441.7949 41.3594,442.0605 Q41.625,442.3105 41.625,442.6543 Q41.625,442.998 41.2813,443.4043 Q40.7813,443.9824 39.9844,444.3105 Q38.9063,444.7637 37.6094,444.7637 Q36.0938,444.7637 34.8906,444.1387 Q33.9063,443.6387 33.2188,442.5762 Q32.5313,441.498 32.5313,440.2168 L32.5313,439.0605 Q32.5313,437.7324 33.1406,436.5918 Q33.7656,435.4355 34.8594,434.8262 Q35.9531,434.2012 37.1875,434.2012 Q37.9219,434.2012 38.5625,434.373 Q39.2188,434.5293 39.7656,434.8887 Z " fill="#000000"/><text fill="#000000" font-family="sans-serif" font-size="14" lengthAdjust="spacing" textLength="152" x="51" y="444.8105">CreateFormativeExamUI</text><line style="stroke:#181818;stroke-width:0.5;" x1="23" x2="205" y1="455.0137" y2="455.0137"/><line style="stroke:#181818;stroke-width:0.5;" x1="23" x2="205" y1="463.0137" y2="463.0137"/></g><!--class CreateFormativeExamController--><g id="elem_CreateFormativeExamController"><rect codeLine="14" fill="#F1F1F1" height="178.3477" id="CreateFormativeExamController" rx="2.5" ry="2.5" style="stroke:#181818;stroke-width:0.5;" width="488" x="286" y="358.0137"/><ellipse cx="424.75" cy="374.0137" fill="#ADD1B2" rx="11" ry="11" style="stroke:#181818;stroke-width:1.0;"/><path d="M427.5156,369.8887 Q427.6719,369.6699 427.8594,369.5605 Q428.0469,369.4512 428.2656,369.4512 Q428.6406,369.4512 428.875,369.7168 Q429.1094,369.9668 429.1094,370.5762 L429.1094,372.0293 Q429.1094,372.6387 428.875,372.9043 Q428.6406,373.1699 428.2656,373.1699 Q427.9219,373.1699 427.7188,372.9668 Q427.5156,372.7793 427.4063,372.2637 Q427.3594,371.9043 427.1719,371.7168 Q426.8438,371.3418 426.2344,371.123 Q425.625,370.9043 425,370.9043 Q424.2344,370.9043 423.5938,371.2324 Q422.9688,371.5605 422.4688,372.3105 Q421.9844,373.0605 421.9844,374.0918 L421.9844,375.1855 Q421.9844,376.4199 422.875,377.248 Q423.7656,378.0605 425.3594,378.0605 Q426.2969,378.0605 426.9531,377.8105 Q427.3438,377.6543 427.7656,377.2168 Q428.0313,376.9512 428.1719,376.873 Q428.3281,376.7949 428.5313,376.7949 Q428.8594,376.7949 429.1094,377.0605 Q429.375,377.3105 429.375,377.6543 Q429.375,377.998 429.0313,378.4043 Q428.5313,378.9824 427.7344,379.3105 Q426.6563,379.7637 425.3594,379.7637 Q423.8438,379.7637 422.6406,379.1387 Q421.6563,378.6387 420.9688,377.5762 Q420.2813,376.498 420.2813,375.2168 L420.2813,374.0605 Q420.2813,372.7324 420.8906,371.5918 Q421.5156,370.4355 422.6094,369.8262 Q423.7031,369.2012 424.9375,369.2012 Q425.6719,369.2012 426.3125,369.373 Q426.9688,369.5293 427.5156,369.8887 Z " fill="#000000"/><text fill="#000000" font-family="sans-serif" font-size="14" lengthAdjust="spacing" textLength="202" x="445.25" y="379.8105">CreateFormativeExamController</text><line style="stroke:#181818;stroke-width:0.5;" x1="287" x2="773" y1="390.0137" y2="390.0137"/><line style="stroke:#181818;stroke-width:0.5;" x1="287" x2="773" y1="398.0137" y2="398.0137"/><ellipse cx="297" cy="412.8242" fill="#84BE84" rx="3" ry="3" style="stroke:#038048;stroke-width:1.0;"/><text fill="#000000" font-family="sans-serif" font-size="14" lengthAdjust="spacing" textLength="288" x="306" y="417.1211">listTeacherActiveCourses(): Iterable&lt;Course&gt;</text><ellipse cx="297" cy="431.4453" fill="#84BE84" rx="3" ry="3" style="stroke:#038048;stroke-width:1.0;"/><text fill="#000000" font-family="sans-serif" font-size="14" lengthAdjust="spacing" textLength="174" x="306" y="435.7422">submitCourse(course): void</text><ellipse cx="297" cy="450.0664" fill="#84BE84" rx="3" ry="3" style="stroke:#038048;stroke-width:1.0;"/><text fill="#000000" font-family="sans-serif" font-size="14" lengthAdjust="spacing" textLength="232" x="306" y="454.3633">submitTopSection(title, header): void</text><ellipse cx="297" cy="468.6875" fill="#84BE84" rx="3" ry="3" style="stroke:#038048;stroke-width:1.0;"/><text fill="#000000" font-family="sans-serif" font-size="14" lengthAdjust="spacing" textLength="462" x="306" y="472.9844">submitSection(sectionDescription, questionType, numberQuestions): void</text><ellipse cx="297" cy="487.3086" fill="#84BE84" rx="3" ry="3" style="stroke:#038048;stroke-width:1.0;"/><text fill="#000000" font-family="sans-serif" font-size="14" lengthAdjust="spacing" textLength="145" x="306" y="491.6055">removeSections(): void</text><ellipse cx="297" cy="505.9297" fill="#84BE84" rx="3" ry="3" style="stroke:#038048;stroke-width:1.0;"/><text fill="#000000" font-family="sans-serif" font-size="14" lengthAdjust="spacing" textLength="119" x="306" y="510.2266">submitExam(): void</text><ellipse cx="297" cy="524.5508" fill="#84BE84" rx="3" ry="3" style="stroke:#038048;stroke-width:1.0;"/><text fill="#000000" font-family="sans-serif" font-size="14" lengthAdjust="spacing" textLength="108" x="306" y="528.8477">saveExam(): void</text></g><!--class QuestionProvider--><g id="elem_QuestionProvider"><rect codeLine="24" fill="#F1F1F1" height="66.6211" id="QuestionProvider" rx="2.5" ry="2.5" style="stroke:#181818;stroke-width:0.5;" width="499" x="834" y="455.5137"/><ellipse cx="1024.75" cy="471.5137" fill="#B4A7E5" rx="11" ry="11" style="stroke:#181818;stroke-width:1.0;"/><path d="M1025.7031,468.1543 L1025.7031,474.8105 L1027.4219,474.8105 Q1028.0313,474.8105 1028.2969,475.0449 Q1028.5625,475.2793 1028.5625,475.6699 Q1028.5625,476.0449 1028.2969,476.2793 Q1028.0313,476.5137 1027.4219,476.5137 L1022.2813,476.5137 Q1021.6719,476.5137 1021.4063,476.2793 Q1021.1406,476.0449 1021.1406,475.6543 Q1021.1406,475.2793 1021.4063,475.0449 Q1021.6719,474.8105 1022.2813,474.8105 L1024,474.8105 L1024,468.1543 L1022.2813,468.1543 Q1021.6719,468.1543 1021.4063,467.9199 Q1021.1406,467.6855 1021.1406,467.2949 Q1021.1406,466.9199 1021.4063,466.6855 Q1021.6719,466.4512 1022.2813,466.4512 L1027.4219,466.4512 Q1028.0313,466.4512 1028.2969,466.6855 Q1028.5625,466.9199 1028.5625,467.2949 Q1028.5625,467.6855 1028.2969,467.9199 Q1028.0313,468.1543 1027.4219,468.1543 L1025.7031,468.1543 Z " fill="#000000"/><text fill="#000000" font-family="sans-serif" font-size="14" font-style="italic" lengthAdjust="spacing" textLength="109" x="1045.25" y="477.3105">QuestionProvider</text><line style="stroke:#181818;stroke-width:0.5;" x1="835" x2="1332" y1="487.5137" y2="487.5137"/><line style="stroke:#181818;stroke-width:0.5;" x1="835" x2="1332" y1="495.5137" y2="495.5137"/><ellipse cx="845" cy="510.3242" fill="#84BE84" rx="3" ry="3" style="stroke:#038048;stroke-width:1.0;"/><text fill="#000000" font-family="sans-serif" font-size="14" lengthAdjust="spacing" textLength="473" x="854" y="514.6211">listQuestionsByType(questionType, numberQuestions): Iterable&lt;Question&gt;</text></g><!--class FormativeExam--><g id="elem_FormativeExam"><rect codeLine="31" fill="#F1F1F1" height="48" id="FormativeExam" rx="2.5" ry="2.5" style="stroke:#181818;stroke-width:0.5;" width="129" x="1496.5" y="237.0137"/><ellipse cx="1511.5" cy="253.0137" fill="#ADD1B2" rx="11" ry="11" style="stroke:#181818;stroke-width:1.0;"/><path d="M1514.2656,248.8887 Q1514.4219,248.6699 1514.6094,248.5605 Q1514.7969,248.4512 1515.0156,248.4512 Q1515.3906,248.4512 1515.625,248.7168 Q1515.8594,248.9668 1515.8594,249.5762 L1515.8594,251.0293 Q1515.8594,251.6387 1515.625,251.9043 Q1515.3906,252.1699 1515.0156,252.1699 Q1514.6719,252.1699 1514.4688,251.9668 Q1514.2656,251.7793 1514.1563,251.2637 Q1514.1094,250.9043 1513.9219,250.7168 Q1513.5938,250.3418 1512.9844,250.123 Q1512.375,249.9043 1511.75,249.9043 Q1510.9844,249.9043 1510.3438,250.2324 Q1509.7188,250.5605 1509.2188,251.3105 Q1508.7344,252.0605 1508.7344,253.0918 L1508.7344,254.1855 Q1508.7344,255.4199 1509.625,256.248 Q1510.5156,257.0605 1512.1094,257.0605 Q1513.0469,257.0605 1513.7031,256.8105 Q1514.0938,256.6543 1514.5156,256.2168 Q1514.7813,255.9512 1514.9219,255.873 Q1515.0781,255.7949 1515.2813,255.7949 Q1515.6094,255.7949 1515.8594,256.0605 Q1516.125,256.3105 1516.125,256.6543 Q1516.125,256.998 1515.7813,257.4043 Q1515.2813,257.9824 1514.4844,258.3105 Q1513.4063,258.7637 1512.1094,258.7637 Q1510.5938,258.7637 1509.3906,258.1387 Q1508.4063,257.6387 1507.7188,256.5762 Q1507.0313,255.498 1507.0313,254.2168 L1507.0313,253.0605 Q1507.0313,251.7324 1507.6406,250.5918 Q1508.2656,249.4355 1509.3594,248.8262 Q1510.4531,248.2012 1511.6875,248.2012 Q1512.4219,248.2012 1513.0625,248.373 Q1513.7188,248.5293 1514.2656,248.8887 Z " fill="#000000"/><text fill="#000000" font-family="sans-serif" font-size="14" lengthAdjust="spacing" textLength="97" x="1525.5" y="258.8105">FormativeExam</text><line style="stroke:#181818;stroke-width:0.5;" x1="1497.5" x2="1624.5" y1="269.0137" y2="269.0137"/><line style="stroke:#181818;stroke-width:0.5;" x1="1497.5" x2="1624.5" y1="277.0137" y2="277.0137"/></g><!--class FormativeExamBuilder--><g id="elem_FormativeExamBuilder"><rect codeLine="33" fill="#F1F1F1" height="178.3477" id="FormativeExamBuilder" rx="2.5" ry="2.5" style="stroke:#181818;stroke-width:0.5;" width="326" x="1398" y="320.0137"/><ellipse cx="1486.25" cy="336.0137" fill="#ADD1B2" rx="11" ry="11" style="stroke:#181818;stroke-width:1.0;"/><path d="M1489.0156,331.8887 Q1489.1719,331.6699 1489.3594,331.5605 Q1489.5469,331.4512 1489.7656,331.4512 Q1490.1406,331.4512 1490.375,331.7168 Q1490.6094,331.9668 1490.6094,332.5762 L1490.6094,334.0293 Q1490.6094,334.6387 1490.375,334.9043 Q1490.1406,335.1699 1489.7656,335.1699 Q1489.4219,335.1699 1489.2188,334.9668 Q1489.0156,334.7793 1488.9063,334.2637 Q1488.8594,333.9043 1488.6719,333.7168 Q1488.3438,333.3418 1487.7344,333.123 Q1487.125,332.9043 1486.5,332.9043 Q1485.7344,332.9043 1485.0938,333.2324 Q1484.4688,333.5605 1483.9688,334.3105 Q1483.4844,335.0605 1483.4844,336.0918 L1483.4844,337.1855 Q1483.4844,338.4199 1484.375,339.248 Q1485.2656,340.0605 1486.8594,340.0605 Q1487.7969,340.0605 1488.4531,339.8105 Q1488.8438,339.6543 1489.2656,339.2168 Q1489.5313,338.9512 1489.6719,338.873 Q1489.8281,338.7949 1490.0313,338.7949 Q1490.3594,338.7949 1490.6094,339.0605 Q1490.875,339.3105 1490.875,339.6543 Q1490.875,339.998 1490.5313,340.4043 Q1490.0313,340.9824 1489.2344,341.3105 Q1488.1563,341.7637 1486.8594,341.7637 Q1485.3438,341.7637 1484.1406,341.1387 Q1483.1563,340.6387 1482.4688,339.5762 Q1481.7813,338.498 1481.7813,337.2168 L1481.7813,336.0605 Q1481.7813,334.7324 1482.3906,333.5918 Q1483.0156,332.4355 1484.1094,331.8262 Q1485.2031,331.2012 1486.4375,331.2012 Q1487.1719,331.2012 1487.8125,331.373 Q1488.4688,331.5293 1489.0156,331.8887 Z " fill="#000000"/><text fill="#000000" font-family="sans-serif" font-size="14" lengthAdjust="spacing" textLength="141" x="1506.75" y="341.8105">FormativeExamBuilder</text><line style="stroke:#181818;stroke-width:0.5;" x1="1399" x2="1723" y1="352.0137" y2="352.0137"/><line style="stroke:#181818;stroke-width:0.5;" x1="1399" x2="1723" y1="360.0137" y2="360.0137"/><ellipse cx="1409" cy="374.8242" fill="#84BE84" rx="3" ry="3" style="stroke:#038048;stroke-width:1.0;"/><text fill="#000000" font-family="sans-serif" font-size="14" lengthAdjust="spacing" textLength="161" x="1418" y="379.1211">withCreator(creator): void</text><ellipse cx="1409" cy="393.4453" fill="#84BE84" rx="3" ry="3" style="stroke:#038048;stroke-width:1.0;"/><text fill="#000000" font-family="sans-serif" font-size="14" lengthAdjust="spacing" textLength="117" x="1418" y="397.7422">withTitle(title): void</text><ellipse cx="1409" cy="412.0664" fill="#84BE84" rx="3" ry="3" style="stroke:#038048;stroke-width:1.0;"/><text fill="#000000" font-family="sans-serif" font-size="14" lengthAdjust="spacing" textLength="159" x="1418" y="416.3633">withHeader(header): void</text><ellipse cx="1409" cy="430.6875" fill="#84BE84" rx="3" ry="3" style="stroke:#038048;stroke-width:1.0;"/><text fill="#000000" font-family="sans-serif" font-size="14" lengthAdjust="spacing" textLength="157" x="1418" y="434.9844">withCourse(course): void</text><ellipse cx="1409" cy="449.3086" fill="#84BE84" rx="3" ry="3" style="stroke:#038048;stroke-width:1.0;"/><text fill="#000000" font-family="sans-serif" font-size="14" lengthAdjust="spacing" textLength="300" x="1418" y="453.6055">withSection(sectionDescription, questions): void</text><ellipse cx="1409" cy="467.9297" fill="#84BE84" rx="3" ry="3" style="stroke:#038048;stroke-width:1.0;"/><text fill="#000000" font-family="sans-serif" font-size="14" lengthAdjust="spacing" textLength="145" x="1418" y="472.2266">removeSections(): void</text><ellipse cx="1409" cy="486.5508" fill="#84BE84" rx="3" ry="3" style="stroke:#038048;stroke-width:1.0;"/><text fill="#000000" font-family="sans-serif" font-size="14" lengthAdjust="spacing" textLength="145" x="1418" y="490.8477">build(): FormativeExam</text></g><!--class ExamRepository--><g id="elem_ExamRepository"><rect codeLine="45" fill="#F1F1F1" height="48" id="ExamRepository" rx="2.5" ry="2.5" style="stroke:#181818;stroke-width:0.5;" width="134" x="1016.5" y="233.0137"/><ellipse cx="1031.5" cy="249.0137" fill="#B4A7E5" rx="11" ry="11" style="stroke:#181818;stroke-width:1.0;"/><path d="M1032.4531,245.6543 L1032.4531,252.3105 L1034.1719,252.3105 Q1034.7813,252.3105 1035.0469,252.5449 Q1035.3125,252.7793 1035.3125,253.1699 Q1035.3125,253.5449 1035.0469,253.7793 Q1034.7813,254.0137 1034.1719,254.0137 L1029.0313,254.0137 Q1028.4219,254.0137 1028.1563,253.7793 Q1027.8906,253.5449 1027.8906,253.1543 Q1027.8906,252.7793 1028.1563,252.5449 Q1028.4219,252.3105 1029.0313,252.3105 L1030.75,252.3105 L1030.75,245.6543 L1029.0313,245.6543 Q1028.4219,245.6543 1028.1563,245.4199 Q1027.8906,245.1855 1027.8906,244.7949 Q1027.8906,244.4199 1028.1563,244.1855 Q1028.4219,243.9512 1029.0313,243.9512 L1034.1719,243.9512 Q1034.7813,243.9512 1035.0469,244.1855 Q1035.3125,244.4199 1035.3125,244.7949 Q1035.3125,245.1855 1035.0469,245.4199 Q1034.7813,245.6543 1034.1719,245.6543 L1032.4531,245.6543 Z " fill="#000000"/><text fill="#000000" font-family="sans-serif" font-size="14" font-style="italic" lengthAdjust="spacing" textLength="102" x="1045.5" y="254.8105">ExamRepository</text><line style="stroke:#181818;stroke-width:0.5;" x1="1017.5" x2="1149.5" y1="265.0137" y2="265.0137"/><line style="stroke:#181818;stroke-width:0.5;" x1="1017.5" x2="1149.5" y1="273.0137" y2="273.0137"/></g><!--class QuestionRepository--><g id="elem_QuestionRepository"><rect codeLine="51" fill="#F1F1F1" height="66.6211" id="QuestionRepository" rx="2.5" ry="2.5" style="stroke:#181818;stroke-width:0.5;" width="336" x="1393" y="637.5137"/><ellipse cx="1494.25" cy="653.5137" fill="#B4A7E5" rx="11" ry="11" style="stroke:#181818;stroke-width:1.0;"/><path d="M1495.2031,650.1543 L1495.2031,656.8105 L1496.9219,656.8105 Q1497.5313,656.8105 1497.7969,657.0449 Q1498.0625,657.2793 1498.0625,657.6699 Q1498.0625,658.0449 1497.7969,658.2793 Q1497.5313,658.5137 1496.9219,658.5137 L1491.7813,658.5137 Q1491.1719,658.5137 1490.9063,658.2793 Q1490.6406,658.0449 1490.6406,657.6543 Q1490.6406,657.2793 1490.9063,657.0449 Q1491.1719,656.8105 1491.7813,656.8105 L1493.5,656.8105 L1493.5,650.1543 L1491.7813,650.1543 Q1491.1719,650.1543 1490.9063,649.9199 Q1490.6406,649.6855 1490.6406,649.2949 Q1490.6406,648.9199 1490.9063,648.6855 Q1491.1719,648.4512 1491.7813,648.4512 L1496.9219,648.4512 Q1497.5313,648.4512 1497.7969,648.6855 Q1498.0625,648.9199 1498.0625,649.2949 Q1498.0625,649.6855 1497.7969,649.9199 Q1497.5313,650.1543 1496.9219,650.1543 L1495.2031,650.1543 Z " fill="#000000"/><text fill="#000000" font-family="sans-serif" font-size="14" font-style="italic" lengthAdjust="spacing" textLength="125" x="1514.75" y="659.3105">QuestionRepository</text><line style="stroke:#181818;stroke-width:0.5;" x1="1394" x2="1728" y1="669.5137" y2="669.5137"/><line style="stroke:#181818;stroke-width:0.5;" x1="1394" x2="1728" y1="677.5137" y2="677.5137"/><ellipse cx="1404" cy="692.3242" fill="#84BE84" rx="3" ry="3" style="stroke:#038048;stroke-width:1.0;"/><text fill="#000000" font-family="sans-serif" font-size="14" lengthAdjust="spacing" textLength="310" x="1413" y="696.6211">findAllByType(questionType): Iterable&lt;Question&gt;</text></g><!--class UserSessionService--><g id="elem_UserSessionService"><rect codeLine="58" fill="#F1F1F1" height="66.6211" id="UserSessionService" rx="2.5" ry="2.5" style="stroke:#181818;stroke-width:0.5;" width="211" x="978" y="637.5137"/><ellipse cx="1016.85" cy="653.5137" fill="#ADD1B2" rx="11" ry="11" style="stroke:#181818;stroke-width:1.0;"/><path d="M1019.6156,649.3887 Q1019.7719,649.1699 1019.9594,649.0605 Q1020.1469,648.9512 1020.3656,648.9512 Q1020.7406,648.9512 1020.975,649.2168 Q1021.2094,649.4668 1021.2094,650.0762 L1021.2094,651.5293 Q1021.2094,652.1387 1020.975,652.4043 Q1020.7406,652.6699 1020.3656,652.6699 Q1020.0219,652.6699 1019.8188,652.4668 Q1019.6156,652.2793 1019.5063,651.7637 Q1019.4594,651.4043 1019.2719,651.2168 Q1018.9438,650.8418 1018.3344,650.623 Q1017.725,650.4043 1017.1,650.4043 Q1016.3344,650.4043 1015.6938,650.7324 Q1015.0688,651.0605 1014.5688,651.8105 Q1014.0844,652.5605 1014.0844,653.5918 L1014.0844,654.6855 Q1014.0844,655.9199 1014.975,656.748 Q1015.8656,657.5605 1017.4594,657.5605 Q1018.3969,657.5605 1019.0531,657.3105 Q1019.4438,657.1543 1019.8656,656.7168 Q1020.1313,656.4512 1020.2719,656.373 Q1020.4281,656.2949 1020.6313,656.2949 Q1020.9594,656.2949 1021.2094,656.5605 Q1021.475,656.8105 1021.475,657.1543 Q1021.475,657.498 1021.1313,657.9043 Q1020.6313,658.4824 1019.8344,658.8105 Q1018.7563,659.2637 1017.4594,659.2637 Q1015.9438,659.2637 1014.7406,658.6387 Q1013.7563,658.1387 1013.0688,657.0762 Q1012.3813,655.998 1012.3813,654.7168 L1012.3813,653.5605 Q1012.3813,652.2324 1012.9906,651.0918 Q1013.6156,649.9355 1014.7094,649.3262 Q1015.8031,648.7012 1017.0375,648.7012 Q1017.7719,648.7012 1018.4125,648.873 Q1019.0688,649.0293 1019.6156,649.3887 Z " fill="#000000"/><text fill="#000000" font-family="sans-serif" font-size="14" lengthAdjust="spacing" textLength="126" x="1036.15" y="659.3105">UserSessionService</text><line style="stroke:#181818;stroke-width:0.5;" x1="979" x2="1188" y1="669.5137" y2="669.5137"/><line style="stroke:#181818;stroke-width:0.5;" x1="979" x2="1188" y1="677.5137" y2="677.5137"/><text fill="#000000" font-family="sans-serif" font-size="14" lengthAdjust="spacing" textLength="199" x="984" y="696.6211">getLoggedUser(): ECourseUser</text></g><!--class TeacherCoursesProvider--><g id="elem_TeacherCoursesProvider"><rect codeLine="65" fill="#F1F1F1" height="66.6211" id="TeacherCoursesProvider" rx="2.5" ry="2.5" style="stroke:#181818;stroke-width:0.5;" width="320" x="370" y="43.5137"/><ellipse cx="446.25" cy="59.5137" fill="#ADD1B2" rx="11" ry="11" style="stroke:#181818;stroke-width:1.0;"/><path d="M449.0156,55.3887 Q449.1719,55.1699 449.3594,55.0605 Q449.5469,54.9512 449.7656,54.9512 Q450.1406,54.9512 450.375,55.2168 Q450.6094,55.4668 450.6094,56.0762 L450.6094,57.5293 Q450.6094,58.1387 450.375,58.4043 Q450.1406,58.6699 449.7656,58.6699 Q449.4219,58.6699 449.2188,58.4668 Q449.0156,58.2793 448.9063,57.7637 Q448.8594,57.4043 448.6719,57.2168 Q448.3438,56.8418 447.7344,56.623 Q447.125,56.4043 446.5,56.4043 Q445.7344,56.4043 445.0938,56.7324 Q444.4688,57.0605 443.9688,57.8105 Q443.4844,58.5605 443.4844,59.5918 L443.4844,60.6855 Q443.4844,61.9199 444.375,62.748 Q445.2656,63.5605 446.8594,63.5605 Q447.7969,63.5605 448.4531,63.3105 Q448.8438,63.1543 449.2656,62.7168 Q449.5313,62.4512 449.6719,62.373 Q449.8281,62.2949 450.0313,62.2949 Q450.3594,62.2949 450.6094,62.5605 Q450.875,62.8105 450.875,63.1543 Q450.875,63.498 450.5313,63.9043 Q450.0313,64.4824 449.2344,64.8105 Q448.1563,65.2637 446.8594,65.2637 Q445.3438,65.2637 444.1406,64.6387 Q443.1563,64.1387 442.4688,63.0762 Q441.7813,61.998 441.7813,60.7168 L441.7813,59.5605 Q441.7813,58.2324 442.3906,57.0918 Q443.0156,55.9355 444.1094,55.3262 Q445.2031,54.7012 446.4375,54.7012 Q447.1719,54.7012 447.8125,54.873 Q448.4688,55.0293 449.0156,55.3887 Z " fill="#000000"/><text fill="#000000" font-family="sans-serif" font-size="14" lengthAdjust="spacing" textLength="159" x="466.75" y="65.3105">TeacherCoursesProvider</text><line style="stroke:#181818;stroke-width:0.5;" x1="371" x2="689" y1="75.5137" y2="75.5137"/><line style="stroke:#181818;stroke-width:0.5;" x1="371" x2="689" y1="83.5137" y2="83.5137"/><ellipse cx="381" cy="98.3242" fill="#84BE84" rx="3" ry="3" style="stroke:#038048;stroke-width:1.0;"/><text fill="#000000" font-family="sans-serif" font-size="14" lengthAdjust="spacing" textLength="294" x="390" y="102.6211">provideUserActiveCourses(): Iterable&lt;Course&gt;</text></g><!--link CreateFormativeExamUI to CreateFormativeExamController--><g id="link_CreateFormativeExamUI_CreateFormativeExamController"><path codeLine="71" d="M206.11,447.0137 C228.76,447.0137 254.15,447.0137 280.47,447.0137 " fill="none" id="CreateFormativeExamUI-to-CreateFormativeExamController" style="stroke:#181818;stroke-width:1.0;"/><polygon fill="#181818" points="285.75,447.0137,276.75,443.0137,280.75,447.0137,276.75,451.0137,285.75,447.0137" style="stroke:#181818;stroke-width:1.0;"/></g><!--link CreateFormativeExamController to UserSessionService--><g id="link_CreateFormativeExamController_UserSessionService"><path codeLine="72" d="M750.16,536.0237 C835.86,570.8337 929.19,608.7437 995.07,635.5037 " fill="none" id="CreateFormativeExamController-to-UserSessionService" style="stroke:#181818;stroke-width:1.0;"/><polygon fill="#181818" points="999.76,637.4037,992.9344,630.3036,995.1295,635.5172,989.916,637.7124,999.76,637.4037" style="stroke:#181818;stroke-width:1.0;"/></g><!--link CreateFormativeExamController to FormativeExamBuilder--><g id="link_CreateFormativeExamController_FormativeExamBuilder"><path codeLine="73" d="M774.21,438.0337 C964.67,430.9937 1224.62,421.4037 1392.41,415.2037 " fill="none" id="CreateFormativeExamController-to-FormativeExamBuilder" style="stroke:#181818;stroke-width:1.0;"/><polygon fill="#181818" points="1397.84,415.0037,1388.6977,411.3405,1392.8434,415.1893,1388.9947,419.335,1397.84,415.0037" style="stroke:#181818;stroke-width:1.0;"/></g><!--link CreateFormativeExamController to TeacherCoursesProvider--><g id="link_CreateFormativeExamController_TeacherCoursesProvider"><path codeLine="74" d="M530,357.7637 C530,277.1937 530,196.6137 530,116.0437 " fill="none" id="CreateFormativeExamController-to-TeacherCoursesProvider" style="stroke:#181818;stroke-width:1.0;"/><polygon fill="#181818" points="530,110.7337,526,119.7337,530,115.7337,534,119.7337,530,110.7337" style="stroke:#181818;stroke-width:1.0;"/></g><!--link CreateFormativeExamController to QuestionProvider--><g id="link_CreateFormativeExamController_QuestionProvider"><path codeLine="75" d="M774.1,465.5237 C792.18,466.9037 810.45,468.2937 828.6,469.6737 " fill="none" id="CreateFormativeExamController-to-QuestionProvider" style="stroke:#181818;stroke-width:1.0;"/><polygon fill="#181818" points="833.71,470.0637,825.0453,465.3814,828.7249,469.678,824.4283,473.3576,833.71,470.0637" style="stroke:#181818;stroke-width:1.0;"/></g><!--link CreateFormativeExamController to ExamRepository--><g id="link_CreateFormativeExamController_ExamRepository"><path codeLine="76" d="M774.08,362.6837 C794.35,355.6837 814.52,348.7237 834,342.0137 C893.83,321.4137 961.82,298.1737 1011.54,281.2037 " fill="none" id="CreateFormativeExamController-to-ExamRepository" style="stroke:#181818;stroke-width:1.0;"/><polygon fill="#181818" points="1016.29,279.5837,1006.4803,278.7059,1011.5581,281.1991,1009.065,286.2769,1016.29,279.5837" style="stroke:#181818;stroke-width:1.0;"/></g><!--link QuestionProvider to QuestionRepository--><g id="link_QuestionProvider_QuestionRepository"><path codeLine="77" d="M1172.27,522.6037 C1256.15,554.7137 1382.13,602.9337 1467.54,635.6237 " fill="none" id="QuestionProvider-to-QuestionRepository" style="stroke:#181818;stroke-width:1.0;"/><polygon fill="#181818" points="1472.34,637.4637,1465.3615,630.5138,1467.6696,635.6784,1462.505,637.9864,1472.34,637.4637" style="stroke:#181818;stroke-width:1.0;"/></g><!--link FormativeExamBuilder to FormativeExam--><g id="link_FormativeExamBuilder_FormativeExam"><path codeLine="78" d="M1561,319.9837 C1561,310.1737 1561,300.3637 1561,290.5637 " fill="none" id="FormativeExamBuilder-to-FormativeExam" style="stroke:#181818;stroke-width:1.0;"/><polygon fill="#181818" points="1561,285.4337,1557,294.4337,1561,290.4337,1565,294.4337,1561,285.4337" style="stroke:#181818;stroke-width:1.0;"/></g><!--link ExamRepository to FormativeExam--><g id="link_ExamRepository_FormativeExam"><path codeLine="79" d="M1150.62,257.5737 C1240.4,258.3237 1400.12,259.6737 1491.25,260.4337 " fill="none" id="ExamRepository-to-FormativeExam" style="stroke:#181818;stroke-width:1.0;"/><polygon fill="#181818" points="1496.34,260.4737,1487.3746,256.3967,1491.3402,260.4308,1487.306,264.3964,1496.34,260.4737" style="stroke:#181818;stroke-width:1.0;"/></g><!--SRC=[dLJTRjiW5BxdARXqbUO5fYfIcxLQfLriJVe019yuHyF6Es1lKPLt7vYumJ5nela6pFdbEn-VWgtbLdF2OcTvZWJIeguOguNy9GhW3V8FnhZxf1B6y2M1iF2YgHGMMtZ-AyhtL_vnOEnm2W9tMehARKkeR9-WjugwLYY5hzER9lClTML9AmNat7dqpHGQkmOXTq2FqhilTKC6J7RtXRzQ8B5Hy13E5iD8qsnAjC6KoMvnCQt6FEMtrlKg09DPj0hk-Gv43ZGHqlkRi7u58mbhlxtdlnimVhVUrovLrPGRe9_7CvFCIL3g5euvk-jTgki1ks0N0SwHzN2Q0LOEjQsGmFj-Vf1kCKz3_zdpqzvV9Rjshy-Hz8UBynuEGwRakXHOHQK3HmRiwBWtONzgK2Nw_uDsrt5DKoR3caJD-wtzpCFaB_fywmYHJV2YgtYLSDxh5kxyFqys7X1l6i0KJI8n289Q6tGOxICSJsJn2TuYbpv790bztvqinAemfjnRgjXiYrN-g5I2QfUPDUW00kgD0HfhKo3EkxEjm1YNO0NKeclgr441zhik2iYzbyVlEKpJ_uwhXMAZsuOwHyqwgbNYYStgSEPptwPiNN6MLkVvV36jgsnQTNty69fhGOlaExmUbGRdXXRF9Uk6a25nsKZquhIHNr9WpY_Cpbx5VEJ0_W40]--></g></svg>