<?xml version="1.0" encoding="us-ascii" standalone="no"?><svg xmlns="http://www.w3.org/2000/svg" xmlns:xlink="http://www.w3.org/1999/xlink" contentStyleType="text/css" height="831px" preserveAspectRatio="none" style="width:927px;height:831px;background:#FFFFFF;" version="1.1" viewBox="0 0 927 831" width="927px" zoomAndPan="magnify"><defs/><g><text fill="#000000" font-family="sans-serif" font-size="14" font-weight="bold" lengthAdjust="spacing" textLength="219" x="353" y="30.1074">COMMTEST Message - Diagram</text><rect fill="#FFFFFF" height="605.6563" style="stroke:#181818;stroke-width:1.0;" width="10" x="210.5" y="133.2422"/><rect fill="#FFFFFF" height="208.4551" style="stroke:#181818;stroke-width:1.0;" width="10" x="575" y="401.5703"/><line style="stroke:#181818;stroke-width:0.5;stroke-dasharray:5.0,5.0;" x1="22" x2="22" y1="123.2422" y2="747.8984"/><line style="stroke:#181818;stroke-width:0.5;stroke-dasharray:5.0,5.0;" x1="215.5" x2="215.5" y1="123.2422" y2="747.8984"/><line style="stroke:#181818;stroke-width:0.5;stroke-dasharray:5.0,5.0;" x1="396" x2="396" y1="123.2422" y2="747.8984"/><line style="stroke:#181818;stroke-width:0.5;stroke-dasharray:5.0,5.0;" x1="580" x2="580" y1="123.2422" y2="747.8984"/><line style="stroke:#181818;stroke-width:0.5;stroke-dasharray:5.0,5.0;" x1="893" x2="893" y1="123.2422" y2="747.8984"/><text fill="#000000" font-family="sans-serif" font-size="14" lengthAdjust="spacing" textLength="29" x="5" y="119.7285">User</text><ellipse cx="22.5" cy="53.1211" fill="#E2E2F0" rx="8" ry="8" style="stroke:#181818;stroke-width:0.5;"/><path d="M22.5,61.1211 L22.5,88.1211 M9.5,69.1211 L35.5,69.1211 M22.5,88.1211 L9.5,103.1211 M22.5,88.1211 L35.5,103.1211 " fill="none" style="stroke:#181818;stroke-width:0.5;"/><text fill="#000000" font-family="sans-serif" font-size="14" lengthAdjust="spacing" textLength="29" x="5" y="762.0059">User</text><ellipse cx="22.5" cy="774.0195" fill="#E2E2F0" rx="8" ry="8" style="stroke:#181818;stroke-width:0.5;"/><path d="M22.5,782.0195 L22.5,809.0195 M9.5,790.0195 L35.5,790.0195 M22.5,809.0195 L9.5,824.0195 M22.5,809.0195 L35.5,824.0195 " fill="none" style="stroke:#181818;stroke-width:0.5;"/><rect fill="#E2E2F0" height="51.2422" rx="2.5" ry="2.5" style="stroke:#181818;stroke-width:0.5;" width="88" x="171.5" y="71"/><text fill="#000000" font-family="sans-serif" font-size="14" font-style="italic" lengthAdjust="spacing" textLength="49" x="191" y="93.1074">&#171;client&#187;</text><text fill="#000000" font-family="sans-serif" font-size="14" lengthAdjust="spacing" textLength="74" x="178.5" y="111.7285">BoardClient</text><rect fill="#E2E2F0" height="51.2422" rx="2.5" ry="2.5" style="stroke:#181818;stroke-width:0.5;" width="88" x="171.5" y="746.8984"/><text fill="#000000" font-family="sans-serif" font-size="14" font-style="italic" lengthAdjust="spacing" textLength="49" x="191" y="769.0059">&#171;client&#187;</text><text fill="#000000" font-family="sans-serif" font-size="14" lengthAdjust="spacing" textLength="74" x="178.5" y="787.627">BoardClient</text><rect fill="#E2E2F0" height="51.2422" rx="2.5" ry="2.5" style="stroke:#181818;stroke-width:0.5;" width="161" x="316" y="71"/><text fill="#000000" font-family="sans-serif" font-size="14" font-style="italic" lengthAdjust="spacing" textLength="147" x="323" y="93.1074">&#171;boardcommunication&#187;</text><text fill="#000000" font-family="sans-serif" font-size="14" lengthAdjust="spacing" textLength="110" x="341.5" y="111.7285">RequestMessage</text><rect fill="#E2E2F0" height="51.2422" rx="2.5" ry="2.5" style="stroke:#181818;stroke-width:0.5;" width="161" x="316" y="746.8984"/><text fill="#000000" font-family="sans-serif" font-size="14" font-style="italic" lengthAdjust="spacing" textLength="147" x="323" y="769.0059">&#171;boardcommunication&#187;</text><text fill="#000000" font-family="sans-serif" font-size="14" lengthAdjust="spacing" textLength="110" x="341.5" y="787.627">RequestMessage</text><rect fill="#E2E2F0" height="51.2422" rx="2.5" ry="2.5" style="stroke:#181818;stroke-width:0.5;" width="186" x="487" y="71"/><text fill="#000000" font-family="sans-serif" font-size="14" font-style="italic" lengthAdjust="spacing" textLength="64" x="548" y="93.1074">&#171;handler&#187;</text><text fill="#000000" font-family="sans-serif" font-size="14" lengthAdjust="spacing" textLength="172" x="494" y="111.7285">TcpServerMessageHandler</text><rect fill="#E2E2F0" height="51.2422" rx="2.5" ry="2.5" style="stroke:#181818;stroke-width:0.5;" width="186" x="487" y="746.8984"/><text fill="#000000" font-family="sans-serif" font-size="14" font-style="italic" lengthAdjust="spacing" textLength="64" x="548" y="769.0059">&#171;handler&#187;</text><text fill="#000000" font-family="sans-serif" font-size="14" lengthAdjust="spacing" textLength="172" x="494" y="787.627">TcpServerMessageHandler</text><rect fill="#E2E2F0" height="32.6211" rx="2.5" ry="2.5" style="stroke:#181818;stroke-width:0.5;" width="56" x="865" y="89.6211"/><text fill="#000000" font-family="sans-serif" font-size="14" lengthAdjust="spacing" textLength="42" x="872" y="111.7285">Server</text><rect fill="#E2E2F0" height="32.6211" rx="2.5" ry="2.5" style="stroke:#181818;stroke-width:0.5;" width="56" x="865" y="746.8984"/><text fill="#000000" font-family="sans-serif" font-size="14" lengthAdjust="spacing" textLength="42" x="872" y="769.0059">Server</text><rect fill="#FFFFFF" height="605.6563" style="stroke:#181818;stroke-width:1.0;" width="10" x="210.5" y="133.2422"/><rect fill="#FFFFFF" height="208.4551" style="stroke:#181818;stroke-width:1.0;" width="10" x="575" y="401.5703"/><polygon fill="#181818" points="198.5,152.5332,208.5,156.5332,198.5,160.5332,202.5,156.5332" style="stroke:#181818;stroke-width:1.0;"/><line style="stroke:#181818;stroke-width:1.0;" x1="0" x2="204.5" y1="156.5332" y2="156.5332"/><text fill="#000000" font-family="sans-serif" font-size="13" font-weight="bold" lengthAdjust="spacing" textLength="7" x="7" y="151.2705">1</text><text fill="#000000" font-family="sans-serif" font-size="13" lengthAdjust="spacing" textLength="42" x="18" y="151.2705">onLoad</text><polygon fill="#181818" points="568,183.8242,578,187.8242,568,191.8242,572,187.8242" style="stroke:#181818;stroke-width:1.0;"/><line style="stroke:#181818;stroke-width:1.0;stroke-dasharray:2.0,2.0;" x1="220.5" x2="574" y1="187.8242" y2="187.8242"/><text fill="#000000" font-family="sans-serif" font-size="13" font-weight="bold" lengthAdjust="spacing" textLength="7" x="227.5" y="182.5615">2</text><text fill="#000000" font-family="sans-serif" font-size="13" lengthAdjust="spacing" textLength="86" x="238.5" y="182.5615">beginSession()</text><polygon fill="#181818" points="198.5,215.1152,208.5,219.1152,198.5,223.1152,202.5,219.1152" style="stroke:#181818;stroke-width:1.0;"/><line style="stroke:#181818;stroke-width:1.0;stroke-dasharray:2.0,2.0;" x1="22.5" x2="204.5" y1="219.1152" y2="219.1152"/><text fill="#000000" font-family="sans-serif" font-size="13" font-weight="bold" lengthAdjust="spacing" textLength="7" x="29.5" y="213.8525">3</text><text fill="#000000" font-family="sans-serif" font-size="13" lengthAdjust="spacing" textLength="153" x="40.5" y="213.8525">enters data (version, code)</text><polygon fill="#181818" points="198.5,246.4063,208.5,250.4063,198.5,254.4063,202.5,250.4063" style="stroke:#181818;stroke-width:1.0;"/><line style="stroke:#181818;stroke-width:1.0;stroke-dasharray:2.0,2.0;" x1="22.5" x2="204.5" y1="250.4063" y2="250.4063"/><text fill="#000000" font-family="sans-serif" font-size="13" font-weight="bold" lengthAdjust="spacing" textLength="7" x="29.5" y="245.1436">4</text><text fill="#000000" font-family="sans-serif" font-size="13" lengthAdjust="spacing" textLength="68" x="40.5" y="245.1436">submit data</text><polygon fill="#181818" points="384.5,277.6973,394.5,281.6973,384.5,285.6973,388.5,281.6973" style="stroke:#181818;stroke-width:1.0;"/><line style="stroke:#181818;stroke-width:1.0;" x1="220.5" x2="390.5" y1="281.6973" y2="281.6973"/><text fill="#000000" font-family="sans-serif" font-size="13" font-weight="bold" lengthAdjust="spacing" textLength="7" x="227.5" y="276.4346">5</text><text fill="#000000" font-family="sans-serif" font-size="13" lengthAdjust="spacing" textLength="36" x="238.5" y="276.4346">create</text><line style="stroke:#181818;stroke-width:1.0;" x1="220.5" x2="262.5" y1="312.9883" y2="312.9883"/><line style="stroke:#181818;stroke-width:1.0;" x1="262.5" x2="262.5" y1="312.9883" y2="325.9883"/><line style="stroke:#181818;stroke-width:1.0;" x1="221.5" x2="262.5" y1="325.9883" y2="325.9883"/><polygon fill="#181818" points="231.5,321.9883,221.5,325.9883,231.5,329.9883,227.5,325.9883" style="stroke:#181818;stroke-width:1.0;"/><text fill="#000000" font-family="sans-serif" font-size="13" font-weight="bold" lengthAdjust="spacing" textLength="7" x="227.5" y="307.7256">6</text><text fill="#000000" font-family="sans-serif" font-size="13" lengthAdjust="spacing" textLength="141" x="238.5" y="307.7256">writeInt(messageLength)</text><line style="stroke:#181818;stroke-width:1.0;" x1="220.5" x2="262.5" y1="357.2793" y2="357.2793"/><line style="stroke:#181818;stroke-width:1.0;" x1="262.5" x2="262.5" y1="357.2793" y2="370.2793"/><line style="stroke:#181818;stroke-width:1.0;" x1="221.5" x2="262.5" y1="370.2793" y2="370.2793"/><polygon fill="#181818" points="231.5,366.2793,221.5,370.2793,231.5,374.2793,227.5,370.2793" style="stroke:#181818;stroke-width:1.0;"/><text fill="#000000" font-family="sans-serif" font-size="13" font-weight="bold" lengthAdjust="spacing" textLength="7" x="227.5" y="352.0166">7</text><text fill="#000000" font-family="sans-serif" font-size="13" lengthAdjust="spacing" textLength="88" x="238.5" y="352.0166">write(message)</text><polygon fill="#181818" points="563,397.5703,573,401.5703,563,405.5703,567,401.5703" style="stroke:#181818;stroke-width:1.0;"/><line style="stroke:#181818;stroke-width:1.0;stroke-dasharray:2.0,2.0;" x1="220.5" x2="569" y1="401.5703" y2="401.5703"/><text fill="#000000" font-family="sans-serif" font-size="13" font-weight="bold" lengthAdjust="spacing" textLength="7" x="227.5" y="396.3076">8</text><text fill="#000000" font-family="sans-serif" font-size="13" lengthAdjust="spacing" textLength="4" x="238.5" y="396.3076">&#160;</text><line style="stroke:#181818;stroke-width:1.0;" x1="585" x2="627" y1="432.8613" y2="432.8613"/><line style="stroke:#181818;stroke-width:1.0;" x1="627" x2="627" y1="432.8613" y2="445.8613"/><line style="stroke:#181818;stroke-width:1.0;" x1="586" x2="627" y1="445.8613" y2="445.8613"/><polygon fill="#181818" points="596,441.8613,586,445.8613,596,449.8613,592,445.8613" style="stroke:#181818;stroke-width:1.0;"/><text fill="#000000" font-family="sans-serif" font-size="13" font-weight="bold" lengthAdjust="spacing" textLength="7" x="592" y="427.5986">9</text><text fill="#000000" font-family="sans-serif" font-size="13" lengthAdjust="spacing" textLength="139" x="603" y="427.5986">readInt(messageLength)</text><line style="stroke:#181818;stroke-width:1.0;" x1="585" x2="627" y1="477.1523" y2="477.1523"/><line style="stroke:#181818;stroke-width:1.0;" x1="627" x2="627" y1="477.1523" y2="490.1523"/><line style="stroke:#181818;stroke-width:1.0;" x1="586" x2="627" y1="490.1523" y2="490.1523"/><polygon fill="#181818" points="596,486.1523,586,490.1523,596,494.1523,592,490.1523" style="stroke:#181818;stroke-width:1.0;"/><text fill="#000000" font-family="sans-serif" font-size="13" font-weight="bold" lengthAdjust="spacing" textLength="14" x="592" y="471.8896">10</text><text fill="#000000" font-family="sans-serif" font-size="13" lengthAdjust="spacing" textLength="86" x="610" y="471.8896">read(message)</text><line style="stroke:#181818;stroke-width:1.0;" x1="585" x2="627" y1="521.4434" y2="521.4434"/><line style="stroke:#181818;stroke-width:1.0;" x1="627" x2="627" y1="521.4434" y2="534.4434"/><line style="stroke:#181818;stroke-width:1.0;" x1="586" x2="627" y1="534.4434" y2="534.4434"/><polygon fill="#181818" points="596,530.4434,586,534.4434,596,538.4434,592,534.4434" style="stroke:#181818;stroke-width:1.0;"/><text fill="#000000" font-family="sans-serif" font-size="13" font-weight="bold" lengthAdjust="spacing" textLength="14" x="592" y="516.1807">11</text><text fill="#000000" font-family="sans-serif" font-size="13" lengthAdjust="spacing" textLength="189" x="610" y="516.1807">codeFactory(code, version, data)</text><line style="stroke:#181818;stroke-width:1.0;" x1="585" x2="627" y1="565.7344" y2="565.7344"/><line style="stroke:#181818;stroke-width:1.0;" x1="627" x2="627" y1="565.7344" y2="578.7344"/><line style="stroke:#181818;stroke-width:1.0;" x1="586" x2="627" y1="578.7344" y2="578.7344"/><polygon fill="#181818" points="596,574.7344,586,578.7344,596,582.7344,592,578.7344" style="stroke:#181818;stroke-width:1.0;"/><text fill="#000000" font-family="sans-serif" font-size="13" font-weight="bold" lengthAdjust="spacing" textLength="14" x="592" y="560.4717">12</text><text fill="#000000" font-family="sans-serif" font-size="13" lengthAdjust="spacing" textLength="271" x="610" y="560.4717">sendSuccessResponse(version, outputStream)</text><polygon fill="#181818" points="231.5,606.0254,221.5,610.0254,231.5,614.0254,227.5,610.0254" style="stroke:#181818;stroke-width:1.0;"/><line style="stroke:#181818;stroke-width:1.0;stroke-dasharray:2.0,2.0;" x1="225.5" x2="579" y1="610.0254" y2="610.0254"/><text fill="#000000" font-family="sans-serif" font-size="13" font-weight="bold" lengthAdjust="spacing" textLength="14" x="237.5" y="604.7627">13</text><text fill="#000000" font-family="sans-serif" font-size="13" lengthAdjust="spacing" textLength="4" x="255.5" y="604.7627">&#160;</text><line style="stroke:#181818;stroke-width:1.0;" x1="220.5" x2="262.5" y1="641.3164" y2="641.3164"/><line style="stroke:#181818;stroke-width:1.0;" x1="262.5" x2="262.5" y1="641.3164" y2="654.3164"/><line style="stroke:#181818;stroke-width:1.0;" x1="221.5" x2="262.5" y1="654.3164" y2="654.3164"/><polygon fill="#181818" points="231.5,650.3164,221.5,654.3164,231.5,658.3164,227.5,654.3164" style="stroke:#181818;stroke-width:1.0;"/><text fill="#000000" font-family="sans-serif" font-size="13" font-weight="bold" lengthAdjust="spacing" textLength="14" x="227.5" y="636.0537">14</text><text fill="#000000" font-family="sans-serif" font-size="13" lengthAdjust="spacing" textLength="139" x="245.5" y="636.0537">readInt(messageLength)</text><line style="stroke:#181818;stroke-width:1.0;" x1="220.5" x2="262.5" y1="690.6074" y2="690.6074"/><line style="stroke:#181818;stroke-width:1.0;" x1="262.5" x2="262.5" y1="690.6074" y2="703.6074"/><line style="stroke:#181818;stroke-width:1.0;" x1="215.5" x2="262.5" y1="703.6074" y2="703.6074"/><polygon fill="#181818" points="225.5,699.6074,215.5,703.6074,225.5,707.6074,221.5,703.6074" style="stroke:#181818;stroke-width:1.0;"/><text fill="#000000" font-family="sans-serif" font-size="13" font-weight="bold" lengthAdjust="spacing" textLength="14" x="227.5" y="685.3447">15</text><text fill="#000000" font-family="sans-serif" font-size="13" lengthAdjust="spacing" textLength="86" x="245.5" y="685.3447">read(message)</text><polygon fill="#181818" points="33.5,725.8984,23.5,729.8984,33.5,733.8984,29.5,729.8984" style="stroke:#181818;stroke-width:1.0;"/><line style="stroke:#181818;stroke-width:1.0;stroke-dasharray:2.0,2.0;" x1="27.5" x2="209.5" y1="729.8984" y2="729.8984"/><text fill="#000000" font-family="sans-serif" font-size="13" font-weight="bold" lengthAdjust="spacing" textLength="14" x="39.5" y="724.6357">16</text><text fill="#000000" font-family="sans-serif" font-size="13" lengthAdjust="spacing" textLength="83" x="57.5" y="724.6357">shows sucess</text><!--SRC=[TL91Ri8m4Bpx5IjEGO8FH2Y7qbQjH5I9a0SuzWei4JkrDw3-lkiaaBI4IxJnpkpEZ4s6pWZRhpm_l1K7o344UKHOmwkHHozh8MHBphPrXLv8HSv36T23352AHdeooZJI4YnUdFHwUpPeQH7RVGcRZUgABFiBt-DtYu66XHqZPt0LfoXNrwqrIf9nzZ_ne9e2_GNzGFsGLf_HTnE6ckUS-eh98ies5qauI1Bhx2Ok1MTtJcen_A-vDSn8eSAZiGKlOH79KfHTzqxaB_e0MfA4XDL4r0gKq_W03MrL6-gWzqKPkqr1UMHTB74yxgiKhjuGVbfAwjxc3ksHJijdo1jiEMTb4i5m96v9JGsp63spyHbqN3c7Y4cyTm_c9udr2kuXnI3cIG6jBbgbUF0UG-Dim35RrrBJKa6ykvxGnoI4nWUVCtaziJaF74rEf_SFS1froU9FxXhuigDwyGi0]--></g></svg>