<?xml version="1.0" encoding="us-ascii" standalone="no"?><svg xmlns="http://www.w3.org/2000/svg" xmlns:xlink="http://www.w3.org/1999/xlink" contentStyleType="text/css" height="728px" preserveAspectRatio="none" style="width:1275px;height:728px;background:#FFFFFF;" version="1.1" viewBox="0 0 1275 728" width="1275px" zoomAndPan="magnify"><defs/><g><text fill="#000000" font-family="sans-serif" font-size="14" font-weight="bold" lengthAdjust="spacing" textLength="137" x="570.5" y="30.1074">GET Board Request</text><rect fill="#FFFFFF" height="441.7832" style="stroke:#181818;stroke-width:1.0;" width="10" x="187.5" y="178.4453"/><rect fill="#FFFFFF" height="410.4922" style="stroke:#181818;stroke-width:1.0;" width="10" x="332.5" y="209.7363"/><rect fill="#FFFFFF" height="31.291" style="stroke:#181818;stroke-width:1.0;" width="10" x="551.5" y="241.0273"/><rect fill="#FFFFFF" height="276.3281" style="stroke:#181818;stroke-width:1.0;" width="10" x="753" y="303.6094"/><rect fill="#FFFFFF" height="93.873" style="stroke:#181818;stroke-width:1.0;" width="10" x="974" y="366.1914"/><rect fill="#FFFFFF" height="31.291" style="stroke:#181818;stroke-width:1.0;" width="10" x="1201" y="397.4824"/><line style="stroke:#181818;stroke-width:0.5;stroke-dasharray:5.0,5.0;" x1="22" x2="22" y1="127.8633" y2="629.2285"/><line style="stroke:#181818;stroke-width:0.5;stroke-dasharray:5.0,5.0;" x1="192" x2="192" y1="127.8633" y2="629.2285"/><line style="stroke:#181818;stroke-width:0.5;stroke-dasharray:5.0,5.0;" x1="337" x2="337" y1="127.8633" y2="629.2285"/><line style="stroke:#181818;stroke-width:0.5;stroke-dasharray:5.0,5.0;" x1="556.5" x2="556.5" y1="127.8633" y2="629.2285"/><line style="stroke:#181818;stroke-width:0.5;stroke-dasharray:5.0,5.0;" x1="757.5" x2="757.5" y1="127.8633" y2="629.2285"/><line style="stroke:#181818;stroke-width:0.5;stroke-dasharray:5.0,5.0;" x1="979" x2="979" y1="127.8633" y2="629.2285"/><line style="stroke:#181818;stroke-width:0.5;stroke-dasharray:5.0,5.0;" x1="1206" x2="1206" y1="127.8633" y2="629.2285"/><text fill="#000000" font-family="sans-serif" font-size="14" lengthAdjust="spacing" textLength="29" x="5" y="124.3496">User</text><ellipse cx="22.5" cy="57.7422" fill="#E2E2F0" rx="8" ry="8" style="stroke:#181818;stroke-width:0.5;"/><path d="M22.5,65.7422 L22.5,92.7422 M9.5,73.7422 L35.5,73.7422 M22.5,92.7422 L9.5,107.7422 M22.5,92.7422 L35.5,107.7422 " fill="none" style="stroke:#181818;stroke-width:0.5;"/><text fill="#000000" font-family="sans-serif" font-size="14" lengthAdjust="spacing" textLength="29" x="5" y="643.3359">User</text><ellipse cx="22.5" cy="655.3496" fill="#E2E2F0" rx="8" ry="8" style="stroke:#181818;stroke-width:0.5;"/><path d="M22.5,663.3496 L22.5,690.3496 M9.5,671.3496 L35.5,671.3496 M22.5,690.3496 L9.5,705.3496 M22.5,690.3496 L35.5,705.3496 " fill="none" style="stroke:#181818;stroke-width:0.5;"/><rect fill="#E2E2F0" height="51.2422" rx="2.5" ry="2.5" style="stroke:#181818;stroke-width:0.5;" width="65" x="160" y="75.6211"/><text fill="#000000" font-family="sans-serif" font-size="14" font-style="italic" lengthAdjust="spacing" textLength="27" x="179" y="97.7285">&#171;ui&#187;</text><text fill="#000000" font-family="sans-serif" font-size="14" lengthAdjust="spacing" textLength="51" x="167" y="116.3496">Browser</text><rect fill="#E2E2F0" height="51.2422" rx="2.5" ry="2.5" style="stroke:#181818;stroke-width:0.5;" width="65" x="160" y="628.2285"/><text fill="#000000" font-family="sans-serif" font-size="14" font-style="italic" lengthAdjust="spacing" textLength="27" x="179" y="650.3359">&#171;ui&#187;</text><text fill="#000000" font-family="sans-serif" font-size="14" lengthAdjust="spacing" textLength="51" x="167" y="668.957">Browser</text><rect fill="#E2E2F0" height="51.2422" rx="2.5" ry="2.5" style="stroke:#181818;stroke-width:0.5;" width="141" x="267" y="75.6211"/><text fill="#000000" font-family="sans-serif" font-size="14" font-style="italic" lengthAdjust="spacing" textLength="40" x="317.5" y="97.7285">&#171;http&#187;</text><text fill="#000000" font-family="sans-serif" font-size="14" lengthAdjust="spacing" textLength="127" x="274" y="116.3496">HttpRequestHandler</text><rect fill="#E2E2F0" height="51.2422" rx="2.5" ry="2.5" style="stroke:#181818;stroke-width:0.5;" width="141" x="267" y="628.2285"/><text fill="#000000" font-family="sans-serif" font-size="14" font-style="italic" lengthAdjust="spacing" textLength="40" x="317.5" y="650.3359">&#171;http&#187;</text><text fill="#000000" font-family="sans-serif" font-size="14" lengthAdjust="spacing" textLength="127" x="274" y="668.957">HttpRequestHandler</text><rect fill="#E2E2F0" height="51.2422" rx="2.5" ry="2.5" style="stroke:#181818;stroke-width:0.5;" width="182" x="465.5" y="75.6211"/><text fill="#000000" font-family="sans-serif" font-size="14" font-style="italic" lengthAdjust="spacing" textLength="40" x="536.5" y="97.7285">&#171;http&#187;</text><text fill="#000000" font-family="sans-serif" font-size="14" lengthAdjust="spacing" textLength="168" x="472.5" y="116.3496">EndpointProcessorFactory</text><rect fill="#E2E2F0" height="51.2422" rx="2.5" ry="2.5" style="stroke:#181818;stroke-width:0.5;" width="182" x="465.5" y="628.2285"/><text fill="#000000" font-family="sans-serif" font-size="14" font-style="italic" lengthAdjust="spacing" textLength="40" x="536.5" y="650.3359">&#171;http&#187;</text><text fill="#000000" font-family="sans-serif" font-size="14" lengthAdjust="spacing" textLength="168" x="472.5" y="668.957">EndpointProcessorFactory</text><rect fill="#E2E2F0" height="51.2422" rx="2.5" ry="2.5" style="stroke:#181818;stroke-width:0.5;" width="201" x="657.5" y="75.6211"/><text fill="#000000" font-family="sans-serif" font-size="14" font-style="italic" lengthAdjust="spacing" textLength="40" x="738" y="97.7285">&#171;http&#187;</text><text fill="#000000" font-family="sans-serif" font-size="14" lengthAdjust="spacing" textLength="187" x="664.5" y="116.3496">HisotryLogEndpointProcessor</text><rect fill="#E2E2F0" height="51.2422" rx="2.5" ry="2.5" style="stroke:#181818;stroke-width:0.5;" width="201" x="657.5" y="628.2285"/><text fill="#000000" font-family="sans-serif" font-size="14" font-style="italic" lengthAdjust="spacing" textLength="40" x="738" y="650.3359">&#171;http&#187;</text><text fill="#000000" font-family="sans-serif" font-size="14" lengthAdjust="spacing" textLength="187" x="664.5" y="668.957">HisotryLogEndpointProcessor</text><rect fill="#E2E2F0" height="51.2422" rx="2.5" ry="2.5" style="stroke:#181818;stroke-width:0.5;" width="136" x="911" y="75.6211"/><text fill="#000000" font-family="sans-serif" font-size="14" font-style="italic" lengthAdjust="spacing" textLength="84" x="937" y="97.7285">&#171;application&#187;</text><text fill="#000000" font-family="sans-serif" font-size="14" lengthAdjust="spacing" textLength="122" x="918" y="116.3496">BoardLogsProvider</text><rect fill="#E2E2F0" height="51.2422" rx="2.5" ry="2.5" style="stroke:#181818;stroke-width:0.5;" width="136" x="911" y="628.2285"/><text fill="#000000" font-family="sans-serif" font-size="14" font-style="italic" lengthAdjust="spacing" textLength="84" x="937" y="650.3359">&#171;application&#187;</text><text fill="#000000" font-family="sans-serif" font-size="14" lengthAdjust="spacing" textLength="122" x="918" y="668.957">BoardLogsProvider</text><text fill="#000000" font-family="sans-serif" font-size="14" font-style="italic" lengthAdjust="spacing" textLength="79" x="1163.5" y="105.7285">&#171;repository&#187;</text><text fill="#000000" font-family="sans-serif" font-size="14" lengthAdjust="spacing" textLength="130" x="1138" y="124.3496">BoardLogRepository</text><path d="M1188,54.6211 C1188,44.6211 1206,44.6211 1206,44.6211 C1206,44.6211 1224,44.6211 1224,54.6211 L1224,80.6211 C1224,90.6211 1206,90.6211 1206,90.6211 C1206,90.6211 1188,90.6211 1188,80.6211 L1188,54.6211 " fill="#E2E2F0" style="stroke:#181818;stroke-width:1.5;"/><path d="M1188,54.6211 C1188,64.6211 1206,64.6211 1206,64.6211 C1206,64.6211 1224,64.6211 1224,54.6211 " fill="none" style="stroke:#181818;stroke-width:1.5;"/><text fill="#000000" font-family="sans-serif" font-size="14" font-style="italic" lengthAdjust="spacing" textLength="79" x="1163.5" y="643.3359">&#171;repository&#187;</text><text fill="#000000" font-family="sans-serif" font-size="14" lengthAdjust="spacing" textLength="130" x="1138" y="661.957">BoardLogRepository</text><path d="M1188,675.4707 C1188,665.4707 1206,665.4707 1206,665.4707 C1206,665.4707 1224,665.4707 1224,675.4707 L1224,701.4707 C1224,711.4707 1206,711.4707 1206,711.4707 C1206,711.4707 1188,711.4707 1188,701.4707 L1188,675.4707 " fill="#E2E2F0" style="stroke:#181818;stroke-width:1.5;"/><path d="M1188,675.4707 C1188,685.4707 1206,685.4707 1206,685.4707 C1206,685.4707 1224,685.4707 1224,675.4707 " fill="none" style="stroke:#181818;stroke-width:1.5;"/><rect fill="#FFFFFF" height="441.7832" style="stroke:#181818;stroke-width:1.0;" width="10" x="187.5" y="178.4453"/><rect fill="#FFFFFF" height="410.4922" style="stroke:#181818;stroke-width:1.0;" width="10" x="332.5" y="209.7363"/><rect fill="#FFFFFF" height="31.291" style="stroke:#181818;stroke-width:1.0;" width="10" x="551.5" y="241.0273"/><rect fill="#FFFFFF" height="276.3281" style="stroke:#181818;stroke-width:1.0;" width="10" x="753" y="303.6094"/><rect fill="#FFFFFF" height="93.873" style="stroke:#181818;stroke-width:1.0;" width="10" x="974" y="366.1914"/><rect fill="#FFFFFF" height="31.291" style="stroke:#181818;stroke-width:1.0;" width="10" x="1201" y="397.4824"/><polygon fill="#181818" points="175.5,174.4453,185.5,178.4453,175.5,182.4453,179.5,178.4453" style="stroke:#181818;stroke-width:1.0;"/><line style="stroke:#181818;stroke-width:1.0;" x1="0" x2="181.5" y1="178.4453" y2="178.4453"/><text fill="#000000" font-family="sans-serif" font-size="13" font-weight="bold" lengthAdjust="spacing" textLength="7" x="7" y="164.5371">1</text><text fill="#000000" font-family="sans-serif" font-size="13" lengthAdjust="spacing" textLength="127" x="18" y="155.8916">onLoad after selecting</text><text fill="#000000" font-family="sans-serif" font-size="13" lengthAdjust="spacing" textLength="143" x="22" y="173.1826">to view the log of a board</text><polygon fill="#181818" points="320.5,205.7363,330.5,209.7363,320.5,213.7363,324.5,209.7363" style="stroke:#181818;stroke-width:1.0;"/><line style="stroke:#181818;stroke-width:1.0;" x1="197.5" x2="326.5" y1="209.7363" y2="209.7363"/><text fill="#000000" font-family="sans-serif" font-size="13" font-weight="bold" lengthAdjust="spacing" textLength="7" x="204.5" y="204.4736">2</text><text fill="#000000" font-family="sans-serif" font-size="13" lengthAdjust="spacing" textLength="105" x="215.5" y="204.4736">GET /log/{boardId}</text><polygon fill="#181818" points="539.5,237.0273,549.5,241.0273,539.5,245.0273,543.5,241.0273" style="stroke:#181818;stroke-width:1.0;"/><line style="stroke:#181818;stroke-width:1.0;" x1="342.5" x2="545.5" y1="241.0273" y2="241.0273"/><text fill="#000000" font-family="sans-serif" font-size="13" font-weight="bold" lengthAdjust="spacing" textLength="7" x="349.5" y="235.7646">3</text><text fill="#000000" font-family="sans-serif" font-size="13" lengthAdjust="spacing" textLength="179" x="360.5" y="235.7646">getEndpointProcessor(request)</text><polygon fill="#181818" points="353.5,268.3184,343.5,272.3184,353.5,276.3184,349.5,272.3184" style="stroke:#181818;stroke-width:1.0;"/><line style="stroke:#181818;stroke-width:1.0;stroke-dasharray:2.0,2.0;" x1="347.5" x2="555.5" y1="272.3184" y2="272.3184"/><text fill="#000000" font-family="sans-serif" font-size="13" font-weight="bold" lengthAdjust="spacing" textLength="7" x="359.5" y="267.0557">4</text><text fill="#000000" font-family="sans-serif" font-size="13" lengthAdjust="spacing" textLength="149" x="370.5" y="267.0557">boardsEndpointProcessor</text><polygon fill="#181818" points="741,299.6094,751,303.6094,741,307.6094,745,303.6094" style="stroke:#181818;stroke-width:1.0;"/><line style="stroke:#181818;stroke-width:1.0;" x1="342.5" x2="747" y1="303.6094" y2="303.6094"/><text fill="#000000" font-family="sans-serif" font-size="13" font-weight="bold" lengthAdjust="spacing" textLength="7" x="349.5" y="298.3467">5</text><text fill="#000000" font-family="sans-serif" font-size="13" lengthAdjust="spacing" textLength="145" x="360.5" y="298.3467">processRequest(request)</text><polygon fill="#181818" points="967,330.9004,977,334.9004,967,338.9004,971,334.9004" style="stroke:#181818;stroke-width:1.0;"/><line style="stroke:#181818;stroke-width:1.0;" x1="763" x2="973" y1="334.9004" y2="334.9004"/><text fill="#000000" font-family="sans-serif" font-size="13" font-weight="bold" lengthAdjust="spacing" textLength="7" x="770" y="329.6377">6</text><text fill="#000000" font-family="sans-serif" font-size="13" lengthAdjust="spacing" textLength="134" x="781" y="329.6377">creates(boardLogRepo)</text><polygon fill="#181818" points="962,362.1914,972,366.1914,962,370.1914,966,366.1914" style="stroke:#181818;stroke-width:1.0;"/><line style="stroke:#181818;stroke-width:1.0;" x1="763" x2="968" y1="366.1914" y2="366.1914"/><text fill="#000000" font-family="sans-serif" font-size="13" font-weight="bold" lengthAdjust="spacing" textLength="7" x="770" y="360.9287">7</text><text fill="#000000" font-family="sans-serif" font-size="13" lengthAdjust="spacing" textLength="181" x="781" y="360.9287">retrieveLogsByBoardID(boardId)</text><polygon fill="#181818" points="1189,393.4824,1199,397.4824,1189,401.4824,1193,397.4824" style="stroke:#181818;stroke-width:1.0;"/><line style="stroke:#181818;stroke-width:1.0;" x1="984" x2="1195" y1="397.4824" y2="397.4824"/><text fill="#000000" font-family="sans-serif" font-size="13" font-weight="bold" lengthAdjust="spacing" textLength="7" x="991" y="392.2197">8</text><text fill="#000000" font-family="sans-serif" font-size="13" lengthAdjust="spacing" textLength="187" x="1002" y="392.2197">findBoardLogByBoardID(boardId)</text><polygon fill="#181818" points="995,424.7734,985,428.7734,995,432.7734,991,428.7734" style="stroke:#181818;stroke-width:1.0;"/><line style="stroke:#181818;stroke-width:1.0;stroke-dasharray:2.0,2.0;" x1="989" x2="1205" y1="428.7734" y2="428.7734"/><text fill="#000000" font-family="sans-serif" font-size="13" font-weight="bold" lengthAdjust="spacing" textLength="7" x="1001" y="423.5107">9</text><text fill="#000000" font-family="sans-serif" font-size="13" lengthAdjust="spacing" textLength="60" x="1012" y="423.5107">boardLogs</text><polygon fill="#181818" points="774,456.0645,764,460.0645,774,464.0645,770,460.0645" style="stroke:#181818;stroke-width:1.0;"/><line style="stroke:#181818;stroke-width:1.0;stroke-dasharray:2.0,2.0;" x1="768" x2="978" y1="460.0645" y2="460.0645"/><text fill="#000000" font-family="sans-serif" font-size="13" font-weight="bold" lengthAdjust="spacing" textLength="14" x="780" y="454.8018">10</text><text fill="#000000" font-family="sans-serif" font-size="13" lengthAdjust="spacing" textLength="60" x="798" y="454.8018">boardLogs</text><line style="stroke:#181818;stroke-width:1.0;" x1="763" x2="805" y1="491.3555" y2="491.3555"/><line style="stroke:#181818;stroke-width:1.0;" x1="805" x2="805" y1="491.3555" y2="504.3555"/><line style="stroke:#181818;stroke-width:1.0;" x1="764" x2="805" y1="504.3555" y2="504.3555"/><polygon fill="#181818" points="774,500.3555,764,504.3555,774,508.3555,770,504.3555" style="stroke:#181818;stroke-width:1.0;"/><text fill="#000000" font-family="sans-serif" font-size="13" font-weight="bold" lengthAdjust="spacing" textLength="14" x="770" y="486.0928">11</text><text fill="#000000" font-family="sans-serif" font-size="13" lengthAdjust="spacing" textLength="88" x="788" y="486.0928">getHistoryLog()</text><line style="stroke:#181818;stroke-width:1.0;stroke-dasharray:2.0,2.0;" x1="763" x2="805" y1="535.6465" y2="535.6465"/><line style="stroke:#181818;stroke-width:1.0;stroke-dasharray:2.0,2.0;" x1="805" x2="805" y1="535.6465" y2="548.6465"/><line style="stroke:#181818;stroke-width:1.0;stroke-dasharray:2.0,2.0;" x1="764" x2="805" y1="548.6465" y2="548.6465"/><polygon fill="#181818" points="774,544.6465,764,548.6465,774,552.6465,770,548.6465" style="stroke:#181818;stroke-width:1.0;"/><text fill="#000000" font-family="sans-serif" font-size="13" font-weight="bold" lengthAdjust="spacing" textLength="14" x="770" y="530.3838">12</text><text fill="#000000" font-family="sans-serif" font-size="13" lengthAdjust="spacing" textLength="84" x="788" y="530.3838">setResponde()</text><polygon fill="#181818" points="208.5,575.9375,198.5,579.9375,208.5,583.9375,204.5,579.9375" style="stroke:#181818;stroke-width:1.0;"/><line style="stroke:#181818;stroke-width:1.0;stroke-dasharray:2.0,2.0;" x1="202.5" x2="331.5" y1="579.9375" y2="579.9375"/><text fill="#000000" font-family="sans-serif" font-size="13" font-weight="bold" lengthAdjust="spacing" textLength="14" x="214.5" y="574.6748">13</text><text fill="#000000" font-family="sans-serif" font-size="13" lengthAdjust="spacing" textLength="53" x="232.5" y="574.6748">response</text><polygon fill="#181818" points="33.5,607.2285,23.5,611.2285,33.5,615.2285,29.5,611.2285" style="stroke:#181818;stroke-width:1.0;"/><line style="stroke:#181818;stroke-width:1.0;stroke-dasharray:2.0,2.0;" x1="27.5" x2="186.5" y1="611.2285" y2="611.2285"/><text fill="#000000" font-family="sans-serif" font-size="13" font-weight="bold" lengthAdjust="spacing" textLength="14" x="39.5" y="605.9658">14</text><text fill="#000000" font-family="sans-serif" font-size="13" lengthAdjust="spacing" textLength="123" x="57.5" y="605.9658">shows the history log</text><!--SRC=[VPD1Rzim38Nl_1L4JyaXw3qeSZ2MpW4Ap0ZQsowAnIG2F4cJc1H1iVy-KdQSP6btDT_tA3xIxBWZ_BvynIgOP75Dlm-K6S0SEFZ3hmqbC2s7X6-P4fgCRn1DOjUwQ3pZGvN2krGUIcc5Jqy7jrZSIchcEFZMnjjkKDSYtalfN_dIsnYSvoQ5bd8EwRayu5IWPVFy1LQx73YTNiBkpc0Wco_8ChbmMO2ZiyFpAfMR63lN6dR12sKDcut9T47M54Dsu-lMo-Q7K6dyAX3C5XhC78D_2SQYsR84cQcZbftV_VJ80O-Etf7tX5tOOTYYmOrs0CtU7GsJM82uY5SjLhglHv4-VXJPolwv26keLQP1pN57V9V69FMxc5uO4OC2iy6_kEOx4YpT84EZHeZOQuOrVzgY0PKAKIdG9fBFURAvId9weqZ4oT6HT3FLgII- -ZOP1hvohXge2bNId-FMUNlUp_yubKDXPkUMvyVawqcBJZkCmtuggyRvUf54BoUfHo3AoHJwwbZEn6lACNXBMgnBgTn9AfyptQRTGDc_YfJUorzN3cRVzz330O2_]--></g></svg>