<?xml version="1.0" encoding="us-ascii" standalone="no"?><svg xmlns="http://www.w3.org/2000/svg" xmlns:xlink="http://www.w3.org/1999/xlink" contentStyleType="text/css" height="1050px" preserveAspectRatio="none" style="width:1137px;height:1050px;background:#FFFFFF;" version="1.1" viewBox="0 0 1137 1050" width="1137px" zoomAndPan="magnify"><defs/><g><text fill="#000000" font-family="sans-serif" font-size="14" font-weight="bold" lengthAdjust="spacing" textLength="194" x="464.715" y="25.1074">US3009 - View board history</text><!--cluster boardcommunication--><g id="cluster_boardcommunication"><path d="M20.93,45.6348 L168.93,45.6348 A3.75,3.75 0 0 1 171.43,48.1348 L178.43,70.2559 L725.93,70.2559 A2.5,2.5 0 0 1 728.43,72.7559 L728.43,892.1348 A2.5,2.5 0 0 1 725.93,894.6348 L20.93,894.6348 A2.5,2.5 0 0 1 18.43,892.1348 L18.43,48.1348 A2.5,2.5 0 0 1 20.93,45.6348 " fill="none" style="stroke:#000000;stroke-width:1.5;"/><line style="stroke:#000000;stroke-width:1.5;" x1="18.43" x2="178.43" y1="70.2559" y2="70.2559"/><text fill="#000000" font-family="sans-serif" font-size="14" font-weight="bold" lengthAdjust="spacing" textLength="147" x="22.43" y="62.7422">boardcommunication</text></g><!--cluster http--><g id="cluster_http"><path d="M44.93,90.6348 L73.93,90.6348 A3.75,3.75 0 0 1 76.43,93.1348 L83.43,115.2559 L701.93,115.2559 A2.5,2.5 0 0 1 704.43,117.7559 L704.43,868.1348 A2.5,2.5 0 0 1 701.93,870.6348 L44.93,870.6348 A2.5,2.5 0 0 1 42.43,868.1348 L42.43,93.1348 A2.5,2.5 0 0 1 44.93,90.6348 " fill="none" style="stroke:#000000;stroke-width:1.5;"/><line style="stroke:#000000;stroke-width:1.5;" x1="42.43" x2="83.43" y1="115.2559" y2="115.2559"/><text fill="#000000" font-family="sans-serif" font-size="14" font-weight="bold" lengthAdjust="spacing" textLength="28" x="46.43" y="107.7422">http</text></g><!--cluster endpoints--><g id="cluster_endpoints"><path d="M81.93,217.6348 L153.93,217.6348 A3.75,3.75 0 0 1 156.43,220.1348 L163.43,242.2559 L677.93,242.2559 A2.5,2.5 0 0 1 680.43,244.7559 L680.43,499.1348 A2.5,2.5 0 0 1 677.93,501.6348 L81.93,501.6348 A2.5,2.5 0 0 1 79.43,499.1348 L79.43,220.1348 A2.5,2.5 0 0 1 81.93,217.6348 " fill="none" style="stroke:#000000;stroke-width:1.5;"/><line style="stroke:#000000;stroke-width:1.5;" x1="79.43" x2="163.43" y1="242.2559" y2="242.2559"/><text fill="#000000" font-family="sans-serif" font-size="14" font-weight="bold" lengthAdjust="spacing" textLength="71" x="83.43" y="234.7422">endpoints</text></g><!--cluster boardlogmanagement--><g id="cluster_boardlogmanagement"><path d="M754.93,381.6348 L908.93,381.6348 A3.75,3.75 0 0 1 911.43,384.1348 L918.43,406.2559 L1127.93,406.2559 A2.5,2.5 0 0 1 1130.43,408.7559 L1130.43,1041.1348 A2.5,2.5 0 0 1 1127.93,1043.6348 L754.93,1043.6348 A2.5,2.5 0 0 1 752.43,1041.1348 L752.43,384.1348 A2.5,2.5 0 0 1 754.93,381.6348 " fill="none" style="stroke:#000000;stroke-width:1.5;"/><line style="stroke:#000000;stroke-width:1.5;" x1="752.43" x2="918.43" y1="406.2559" y2="406.2559"/><text fill="#000000" font-family="sans-serif" font-size="14" font-weight="bold" lengthAdjust="spacing" textLength="153" x="756.43" y="398.7422">boardlogmanagement</text></g><!--cluster repository--><g id="cluster_repository"><path d="M778.93,629.6348 L851.93,629.6348 A3.75,3.75 0 0 1 854.43,632.1348 L861.43,654.2559 L1103.93,654.2559 A2.5,2.5 0 0 1 1106.43,656.7559 L1106.43,747.1348 A2.5,2.5 0 0 1 1103.93,749.6348 L778.93,749.6348 A2.5,2.5 0 0 1 776.43,747.1348 L776.43,632.1348 A2.5,2.5 0 0 1 778.93,629.6348 " fill="none" style="stroke:#000000;stroke-width:1.5;"/><line style="stroke:#000000;stroke-width:1.5;" x1="776.43" x2="861.43" y1="654.2559" y2="654.2559"/><text fill="#000000" font-family="sans-serif" font-size="14" font-weight="bold" lengthAdjust="spacing" textLength="72" x="780.43" y="646.7422">repository</text></g><!--cluster domain--><g id="cluster_domain"><path d="M880.93,918.6348 L932.93,918.6348 A3.75,3.75 0 0 1 935.43,921.1348 L942.43,943.2559 L1001.93,943.2559 A2.5,2.5 0 0 1 1004.43,945.7559 L1004.43,1017.1348 A2.5,2.5 0 0 1 1001.93,1019.6348 L880.93,1019.6348 A2.5,2.5 0 0 1 878.43,1017.1348 L878.43,921.1348 A2.5,2.5 0 0 1 880.93,918.6348 " fill="none" style="stroke:#000000;stroke-width:1.5;"/><line style="stroke:#000000;stroke-width:1.5;" x1="878.43" x2="942.43" y1="943.2559" y2="943.2559"/><text fill="#000000" font-family="sans-serif" font-size="14" font-weight="bold" lengthAdjust="spacing" textLength="51" x="882.43" y="935.7422">domain</text></g><!--class HTTPmessage--><g id="elem_HTTPmessage"><rect codeLine="8" fill="#F1F1F1" height="308.6953" id="HTTPmessage" rx="2.5" ry="2.5" style="stroke:#181818;stroke-width:0.5;" width="216" x="96.43" y="545.6348"/><ellipse cx="153.68" cy="561.6348" fill="#ADD1B2" rx="11" ry="11" style="stroke:#181818;stroke-width:1.0;"/><path d="M156.4456,557.5098 Q156.6019,557.291 156.7894,557.1816 Q156.9769,557.0723 157.1956,557.0723 Q157.5706,557.0723 157.805,557.3379 Q158.0394,557.5879 158.0394,558.1973 L158.0394,559.6504 Q158.0394,560.2598 157.805,560.5254 Q157.5706,560.791 157.1956,560.791 Q156.8519,560.791 156.6488,560.5879 Q156.4456,560.4004 156.3363,559.8848 Q156.2894,559.5254 156.1019,559.3379 Q155.7738,558.9629 155.1644,558.7441 Q154.555,558.5254 153.93,558.5254 Q153.1644,558.5254 152.5238,558.8535 Q151.8988,559.1816 151.3988,559.9316 Q150.9144,560.6816 150.9144,561.7129 L150.9144,562.8066 Q150.9144,564.041 151.805,564.8691 Q152.6956,565.6816 154.2894,565.6816 Q155.2269,565.6816 155.8831,565.4316 Q156.2738,565.2754 156.6956,564.8379 Q156.9613,564.5723 157.1019,564.4941 Q157.2581,564.416 157.4613,564.416 Q157.7894,564.416 158.0394,564.6816 Q158.305,564.9316 158.305,565.2754 Q158.305,565.6191 157.9613,566.0254 Q157.4613,566.6035 156.6644,566.9316 Q155.5863,567.3848 154.2894,567.3848 Q152.7738,567.3848 151.5706,566.7598 Q150.5863,566.2598 149.8988,565.1973 Q149.2113,564.1191 149.2113,562.8379 L149.2113,561.6816 Q149.2113,560.3535 149.8206,559.2129 Q150.4456,558.0566 151.5394,557.4473 Q152.6331,556.8223 153.8675,556.8223 Q154.6019,556.8223 155.2425,556.9941 Q155.8988,557.1504 156.4456,557.5098 Z " fill="#000000"/><text fill="#000000" font-family="sans-serif" font-size="14" lengthAdjust="spacing" textLength="93" x="174.18" y="567.4316">HTTPmessage</text><line style="stroke:#181818;stroke-width:0.5;" x1="97.43" x2="311.43" y1="577.6348" y2="577.6348"/><text fill="#000000" font-family="sans-serif" font-size="14" lengthAdjust="spacing" textLength="131" x="102.43" y="596.7422">-isRequest : boolean</text><text fill="#000000" font-family="sans-serif" font-size="14" lengthAdjust="spacing" textLength="101" x="102.43" y="615.3633">-method : String</text><text fill="#000000" font-family="sans-serif" font-size="14" lengthAdjust="spacing" textLength="70" x="102.43" y="633.9844">-uri : String</text><text fill="#000000" font-family="sans-serif" font-size="14" lengthAdjust="spacing" textLength="99" x="102.43" y="652.6055">-content : byte[]</text><text fill="#000000" font-family="sans-serif" font-size="14" lengthAdjust="spacing" textLength="133" x="102.43" y="671.2266">-contentType : String</text><text fill="#000000" font-family="sans-serif" font-size="14" lengthAdjust="spacing" textLength="135" x="102.43" y="689.8477">-authorization : String</text><text fill="#000000" font-family="sans-serif" font-size="14" lengthAdjust="spacing" textLength="92" x="102.43" y="708.4688">-status : String</text><line style="stroke:#181818;stroke-width:0.5;" x1="97.43" x2="311.43" y1="715.9824" y2="715.9824"/><text fill="#000000" font-family="sans-serif" font-size="14" lengthAdjust="spacing" textLength="187" x="102.43" y="735.0898">+HTTPmessage(inputStream)</text><text fill="#000000" font-family="sans-serif" font-size="14" lengthAdjust="spacing" textLength="134" x="102.43" y="753.7109">+send(outputStream)</text><text fill="#000000" font-family="sans-serif" font-size="14" lengthAdjust="spacing" textLength="134" x="102.43" y="772.332">+getMethod() : String</text><text fill="#000000" font-family="sans-serif" font-size="14" lengthAdjust="spacing" textLength="104" x="102.43" y="790.9531">+getUri() : String</text><text fill="#000000" font-family="sans-serif" font-size="14" lengthAdjust="spacing" textLength="135" x="102.43" y="809.5742">+getContent() : byte[]</text><text fill="#000000" font-family="sans-serif" font-size="14" lengthAdjust="spacing" textLength="204" x="102.43" y="828.1953">+setContentFromString(content)</text><text fill="#000000" font-family="sans-serif" font-size="14" lengthAdjust="spacing" textLength="161" x="102.43" y="846.8164">+setContentFromFile(file)</text></g><!--class HttpRequestHandler--><g id="elem_HttpRequestHandler"><rect codeLine="25" fill="#F1F1F1" height="66.6211" id="HttpRequestHandler" rx="2.5" ry="2.5" style="stroke:#181818;stroke-width:0.5;" width="159" x="110.93" y="127.6348"/><ellipse cx="125.93" cy="143.6348" fill="#ADD1B2" rx="11" ry="11" style="stroke:#181818;stroke-width:1.0;"/><path d="M128.6956,139.5098 Q128.8519,139.291 129.0394,139.1816 Q129.2269,139.0723 129.4456,139.0723 Q129.8206,139.0723 130.055,139.3379 Q130.2894,139.5879 130.2894,140.1973 L130.2894,141.6504 Q130.2894,142.2598 130.055,142.5254 Q129.8206,142.791 129.4456,142.791 Q129.1019,142.791 128.8988,142.5879 Q128.6956,142.4004 128.5863,141.8848 Q128.5394,141.5254 128.3519,141.3379 Q128.0238,140.9629 127.4144,140.7441 Q126.805,140.5254 126.18,140.5254 Q125.4144,140.5254 124.7738,140.8535 Q124.1488,141.1816 123.6488,141.9316 Q123.1644,142.6816 123.1644,143.7129 L123.1644,144.8066 Q123.1644,146.041 124.055,146.8691 Q124.9456,147.6816 126.5394,147.6816 Q127.4769,147.6816 128.1331,147.4316 Q128.5238,147.2754 128.9456,146.8379 Q129.2113,146.5723 129.3519,146.4941 Q129.5081,146.416 129.7113,146.416 Q130.0394,146.416 130.2894,146.6816 Q130.555,146.9316 130.555,147.2754 Q130.555,147.6191 130.2113,148.0254 Q129.7113,148.6035 128.9144,148.9316 Q127.8363,149.3848 126.5394,149.3848 Q125.0238,149.3848 123.8206,148.7598 Q122.8363,148.2598 122.1488,147.1973 Q121.4613,146.1191 121.4613,144.8379 L121.4613,143.6816 Q121.4613,142.3535 122.0706,141.2129 Q122.6956,140.0566 123.7894,139.4473 Q124.8831,138.8223 126.1175,138.8223 Q126.8519,138.8223 127.4925,138.9941 Q128.1488,139.1504 128.6956,139.5098 Z " fill="#000000"/><text fill="#000000" font-family="sans-serif" font-size="14" lengthAdjust="spacing" textLength="127" x="139.93" y="149.4316">HttpRequestHandler</text><line style="stroke:#181818;stroke-width:0.5;" x1="111.93" x2="268.93" y1="159.6348" y2="159.6348"/><line style="stroke:#181818;stroke-width:0.5;" x1="111.93" x2="268.93" y1="167.6348" y2="167.6348"/><text fill="#000000" font-family="sans-serif" font-size="14" lengthAdjust="spacing" textLength="77" x="116.93" y="186.7422">+run() : void</text></g><!--class EndpointProcessor--><g id="elem_EndpointProcessor"><rect codeLine="30" fill="#F1F1F1" height="66.6211" id="EndpointProcessor" rx="2.5" ry="2.5" style="stroke:#181818;stroke-width:0.5;" width="233" x="240.93" y="418.6348"/><ellipse cx="293.18" cy="434.6348" fill="#B4A7E5" rx="11" ry="11" style="stroke:#181818;stroke-width:1.0;"/><path d="M294.1331,431.2754 L294.1331,437.9316 L295.8519,437.9316 Q296.4613,437.9316 296.7269,438.166 Q296.9925,438.4004 296.9925,438.791 Q296.9925,439.166 296.7269,439.4004 Q296.4613,439.6348 295.8519,439.6348 L290.7113,439.6348 Q290.1019,439.6348 289.8363,439.4004 Q289.5706,439.166 289.5706,438.7754 Q289.5706,438.4004 289.8363,438.166 Q290.1019,437.9316 290.7113,437.9316 L292.43,437.9316 L292.43,431.2754 L290.7113,431.2754 Q290.1019,431.2754 289.8363,431.041 Q289.5706,430.8066 289.5706,430.416 Q289.5706,430.041 289.8363,429.8066 Q290.1019,429.5723 290.7113,429.5723 L295.8519,429.5723 Q296.4613,429.5723 296.7269,429.8066 Q296.9925,430.041 296.9925,430.416 Q296.9925,430.8066 296.7269,431.041 Q296.4613,431.2754 295.8519,431.2754 L294.1331,431.2754 Z " fill="#000000"/><text fill="#000000" font-family="sans-serif" font-size="14" font-style="italic" lengthAdjust="spacing" textLength="120" x="313.68" y="440.4316">EndpointProcessor</text><line style="stroke:#181818;stroke-width:0.5;" x1="241.93" x2="472.93" y1="450.6348" y2="450.6348"/><line style="stroke:#181818;stroke-width:0.5;" x1="241.93" x2="472.93" y1="458.6348" y2="458.6348"/><text fill="#000000" font-family="sans-serif" font-size="14" lengthAdjust="spacing" textLength="221" x="246.93" y="477.7422">+process(request, response) : void</text></g><!--class EndpointProcessorFactory--><g id="elem_EndpointProcessorFactory"><rect codeLine="34" fill="#F1F1F1" height="66.6211" id="EndpointProcessorFactory" rx="2.5" ry="2.5" style="stroke:#181818;stroke-width:0.5;" width="294" x="95.43" y="273.1348"/><ellipse cx="154.18" cy="289.1348" fill="#ADD1B2" rx="11" ry="11" style="stroke:#181818;stroke-width:1.0;"/><path d="M156.9456,285.0098 Q157.1019,284.791 157.2894,284.6816 Q157.4769,284.5723 157.6956,284.5723 Q158.0706,284.5723 158.305,284.8379 Q158.5394,285.0879 158.5394,285.6973 L158.5394,287.1504 Q158.5394,287.7598 158.305,288.0254 Q158.0706,288.291 157.6956,288.291 Q157.3519,288.291 157.1488,288.0879 Q156.9456,287.9004 156.8363,287.3848 Q156.7894,287.0254 156.6019,286.8379 Q156.2738,286.4629 155.6644,286.2441 Q155.055,286.0254 154.43,286.0254 Q153.6644,286.0254 153.0238,286.3535 Q152.3988,286.6816 151.8988,287.4316 Q151.4144,288.1816 151.4144,289.2129 L151.4144,290.3066 Q151.4144,291.541 152.305,292.3691 Q153.1956,293.1816 154.7894,293.1816 Q155.7269,293.1816 156.3831,292.9316 Q156.7738,292.7754 157.1956,292.3379 Q157.4613,292.0723 157.6019,291.9941 Q157.7581,291.916 157.9613,291.916 Q158.2894,291.916 158.5394,292.1816 Q158.805,292.4316 158.805,292.7754 Q158.805,293.1191 158.4613,293.5254 Q157.9613,294.1035 157.1644,294.4316 Q156.0863,294.8848 154.7894,294.8848 Q153.2738,294.8848 152.0706,294.2598 Q151.0863,293.7598 150.3988,292.6973 Q149.7113,291.6191 149.7113,290.3379 L149.7113,289.1816 Q149.7113,287.8535 150.3206,286.7129 Q150.9456,285.5566 152.0394,284.9473 Q153.1331,284.3223 154.3675,284.3223 Q155.1019,284.3223 155.7425,284.4941 Q156.3988,284.6504 156.9456,285.0098 Z " fill="#000000"/><text fill="#000000" font-family="sans-serif" font-size="14" lengthAdjust="spacing" textLength="168" x="174.68" y="294.9316">EndpointProcessorFactory</text><line style="stroke:#181818;stroke-width:0.5;" x1="96.43" x2="388.43" y1="305.1348" y2="305.1348"/><line style="stroke:#181818;stroke-width:0.5;" x1="96.43" x2="388.43" y1="313.1348" y2="313.1348"/><text fill="#000000" font-family="sans-serif" font-size="14" lengthAdjust="spacing" textLength="282" x="101.43" y="332.2422">+getProcessor(request) : EndpointProcessor</text></g><!--class HistoryLogEndpointProcessor--><g id="elem_HistoryLogEndpointProcessor"><rect codeLine="38" fill="#F1F1F1" height="103.8633" id="HistoryLogEndpointProcessor" rx="2.5" ry="2.5" style="stroke:#181818;stroke-width:0.5;" width="240" x="424.43" y="254.6348"/><ellipse cx="448.88" cy="270.6348" fill="#ADD1B2" rx="11" ry="11" style="stroke:#181818;stroke-width:1.0;"/><path d="M451.6456,266.5098 Q451.8019,266.291 451.9894,266.1816 Q452.1769,266.0723 452.3956,266.0723 Q452.7706,266.0723 453.005,266.3379 Q453.2394,266.5879 453.2394,267.1973 L453.2394,268.6504 Q453.2394,269.2598 453.005,269.5254 Q452.7706,269.791 452.3956,269.791 Q452.0519,269.791 451.8488,269.5879 Q451.6456,269.4004 451.5363,268.8848 Q451.4894,268.5254 451.3019,268.3379 Q450.9738,267.9629 450.3644,267.7441 Q449.755,267.5254 449.13,267.5254 Q448.3644,267.5254 447.7238,267.8535 Q447.0988,268.1816 446.5988,268.9316 Q446.1144,269.6816 446.1144,270.7129 L446.1144,271.8066 Q446.1144,273.041 447.005,273.8691 Q447.8956,274.6816 449.4894,274.6816 Q450.4269,274.6816 451.0831,274.4316 Q451.4738,274.2754 451.8956,273.8379 Q452.1613,273.5723 452.3019,273.4941 Q452.4581,273.416 452.6613,273.416 Q452.9894,273.416 453.2394,273.6816 Q453.505,273.9316 453.505,274.2754 Q453.505,274.6191 453.1613,275.0254 Q452.6613,275.6035 451.8644,275.9316 Q450.7863,276.3848 449.4894,276.3848 Q447.9738,276.3848 446.7706,275.7598 Q445.7863,275.2598 445.0988,274.1973 Q444.4113,273.1191 444.4113,271.8379 L444.4113,270.6816 Q444.4113,269.3535 445.0206,268.2129 Q445.6456,267.0566 446.7394,266.4473 Q447.8331,265.8223 449.0675,265.8223 Q449.8019,265.8223 450.4425,265.9941 Q451.0988,266.1504 451.6456,266.5098 Z " fill="#000000"/><text fill="#000000" font-family="sans-serif" font-size="14" lengthAdjust="spacing" textLength="187" x="464.98" y="276.4316">HistoryLogEndpointProcessor</text><line style="stroke:#181818;stroke-width:0.5;" x1="425.43" x2="663.43" y1="286.6348" y2="286.6348"/><line style="stroke:#181818;stroke-width:0.5;" x1="425.43" x2="663.43" y1="294.6348" y2="294.6348"/><text fill="#000000" font-family="sans-serif" font-size="14" lengthAdjust="spacing" textLength="221" x="430.43" y="313.7422">+process(request, response) : void</text><text fill="#000000" font-family="sans-serif" font-size="14" lengthAdjust="spacing" textLength="228" x="430.43" y="332.3633">-redirectAccordingToMethod() : void</text><text fill="#000000" font-family="sans-serif" font-size="14" lengthAdjust="spacing" textLength="140" x="430.43" y="350.9844">-getHistoryLog() : void</text></g><!--class IBoardLogsProvider--><g id="elem_IBoardLogsProvider"><rect codeLine="59" fill="#F1F1F1" height="66.6211" id="IBoardLogsProvider" rx="2.5" ry="2.5" style="stroke:#181818;stroke-width:0.5;" width="330" x="772.43" y="418.6348"/><ellipse cx="870.68" cy="434.6348" fill="#B4A7E5" rx="11" ry="11" style="stroke:#181818;stroke-width:1.0;"/><path d="M871.6331,431.2754 L871.6331,437.9316 L873.3519,437.9316 Q873.9613,437.9316 874.2269,438.166 Q874.4925,438.4004 874.4925,438.791 Q874.4925,439.166 874.2269,439.4004 Q873.9613,439.6348 873.3519,439.6348 L868.2113,439.6348 Q867.6019,439.6348 867.3363,439.4004 Q867.0706,439.166 867.0706,438.7754 Q867.0706,438.4004 867.3363,438.166 Q867.6019,437.9316 868.2113,437.9316 L869.93,437.9316 L869.93,431.2754 L868.2113,431.2754 Q867.6019,431.2754 867.3363,431.041 Q867.0706,430.8066 867.0706,430.416 Q867.0706,430.041 867.3363,429.8066 Q867.6019,429.5723 868.2113,429.5723 L873.3519,429.5723 Q873.9613,429.5723 874.2269,429.8066 Q874.4925,430.041 874.4925,430.416 Q874.4925,430.8066 874.2269,431.041 Q873.9613,431.2754 873.3519,431.2754 L871.6331,431.2754 Z " fill="#000000"/><text fill="#000000" font-family="sans-serif" font-size="14" font-style="italic" lengthAdjust="spacing" textLength="125" x="891.18" y="440.4316">IBoardLogsProvider</text><line style="stroke:#181818;stroke-width:0.5;" x1="773.43" x2="1101.43" y1="450.6348" y2="450.6348"/><line style="stroke:#181818;stroke-width:0.5;" x1="773.43" x2="1101.43" y1="458.6348" y2="458.6348"/><text fill="#000000" font-family="sans-serif" font-size="14" lengthAdjust="spacing" textLength="318" x="778.43" y="477.7422">+retrieveLogsByBoardID(long id) : List&lt;BoardLog&gt;</text></g><!--class IBoardLogRepository--><g id="elem_IBoardLogRepository"><rect codeLine="65" fill="#F1F1F1" height="66.6211" id="IBoardLogRepository" rx="2.5" ry="2.5" style="stroke:#181818;stroke-width:0.5;" width="298" x="792.43" y="666.6348"/><ellipse cx="870.18" cy="682.6348" fill="#B4A7E5" rx="11" ry="11" style="stroke:#181818;stroke-width:1.0;"/><path d="M871.1331,679.2754 L871.1331,685.9316 L872.8519,685.9316 Q873.4613,685.9316 873.7269,686.166 Q873.9925,686.4004 873.9925,686.791 Q873.9925,687.166 873.7269,687.4004 Q873.4613,687.6348 872.8519,687.6348 L867.7113,687.6348 Q867.1019,687.6348 866.8363,687.4004 Q866.5706,687.166 866.5706,686.7754 Q866.5706,686.4004 866.8363,686.166 Q867.1019,685.9316 867.7113,685.9316 L869.43,685.9316 L869.43,679.2754 L867.7113,679.2754 Q867.1019,679.2754 866.8363,679.041 Q866.5706,678.8066 866.5706,678.416 Q866.5706,678.041 866.8363,677.8066 Q867.1019,677.5723 867.7113,677.5723 L872.8519,677.5723 Q873.4613,677.5723 873.7269,677.8066 Q873.9925,678.041 873.9925,678.416 Q873.9925,678.8066 873.7269,679.041 Q873.4613,679.2754 872.8519,679.2754 L871.1331,679.2754 Z " fill="#000000"/><text fill="#000000" font-family="sans-serif" font-size="14" font-style="italic" lengthAdjust="spacing" textLength="134" x="890.68" y="688.4316">IBoardLogRepository</text><line style="stroke:#181818;stroke-width:0.5;" x1="793.43" x2="1089.43" y1="698.6348" y2="698.6348"/><line style="stroke:#181818;stroke-width:0.5;" x1="793.43" x2="1089.43" y1="706.6348" y2="706.6348"/><text fill="#000000" font-family="sans-serif" font-size="14" lengthAdjust="spacing" textLength="286" x="798.43" y="725.7422">+findBoardLogByBoardID(long id) : BoardLog</text></g><!--class BoardLog--><g id="elem_BoardLog"><rect codeLine="73" fill="#F1F1F1" height="48" id="BoardLog" rx="2.5" ry="2.5" style="stroke:#181818;stroke-width:0.5;" width="94" x="894.43" y="955.6348"/><ellipse cx="909.43" cy="971.6348" fill="#ADD1B2" rx="11" ry="11" style="stroke:#181818;stroke-width:1.0;"/><path d="M912.1956,967.5098 Q912.3519,967.291 912.5394,967.1816 Q912.7269,967.0723 912.9456,967.0723 Q913.3206,967.0723 913.555,967.3379 Q913.7894,967.5879 913.7894,968.1973 L913.7894,969.6504 Q913.7894,970.2598 913.555,970.5254 Q913.3206,970.791 912.9456,970.791 Q912.6019,970.791 912.3988,970.5879 Q912.1956,970.4004 912.0863,969.8848 Q912.0394,969.5254 911.8519,969.3379 Q911.5238,968.9629 910.9144,968.7441 Q910.305,968.5254 909.68,968.5254 Q908.9144,968.5254 908.2738,968.8535 Q907.6488,969.1816 907.1488,969.9316 Q906.6644,970.6816 906.6644,971.7129 L906.6644,972.8066 Q906.6644,974.041 907.555,974.8691 Q908.4456,975.6816 910.0394,975.6816 Q910.9769,975.6816 911.6331,975.4316 Q912.0238,975.2754 912.4456,974.8379 Q912.7113,974.5723 912.8519,974.4941 Q913.0081,974.416 913.2113,974.416 Q913.5394,974.416 913.7894,974.6816 Q914.055,974.9316 914.055,975.2754 Q914.055,975.6191 913.7113,976.0254 Q913.2113,976.6035 912.4144,976.9316 Q911.3363,977.3848 910.0394,977.3848 Q908.5238,977.3848 907.3206,976.7598 Q906.3363,976.2598 905.6488,975.1973 Q904.9613,974.1191 904.9613,972.8379 L904.9613,971.6816 Q904.9613,970.3535 905.5706,969.2129 Q906.1956,968.0566 907.2894,967.4473 Q908.3831,966.8223 909.6175,966.8223 Q910.3519,966.8223 910.9925,966.9941 Q911.6488,967.1504 912.1956,967.5098 Z " fill="#000000"/><text fill="#000000" font-family="sans-serif" font-size="14" lengthAdjust="spacing" textLength="62" x="923.43" y="977.4316">BoardLog</text><line style="stroke:#181818;stroke-width:0.5;" x1="895.43" x2="987.43" y1="987.6348" y2="987.6348"/><line style="stroke:#181818;stroke-width:0.5;" x1="895.43" x2="987.43" y1="995.6348" y2="995.6348"/></g><!--link EndpointProcessorFactory to EndpointProcessor--><g id="link_EndpointProcessorFactory_EndpointProcessor"><path codeLine="46" d="M268.53,340.1948 C286.19,362.2448 309.56,391.4048 327.91,414.2948 " fill="none" id="EndpointProcessorFactory-to-EndpointProcessor" style="stroke:#181818;stroke-width:1.0;stroke-dasharray:7.0,7.0;"/><polygon fill="#181818" points="331.04,418.2048,328.5285,408.6815,327.9113,414.3046,322.2882,413.6874,331.04,418.2048" style="stroke:#181818;stroke-width:1.0;"/></g><!--link HistoryLogEndpointProcessor to EndpointProcessor--><g id="link_HistoryLogEndpointProcessor_EndpointProcessor"><path codeLine="47" d="M477.71,358.8348 C457.57,374.2848 435.62,391.1348 416.05,406.1448 " fill="none" id="HistoryLogEndpointProcessor-to-EndpointProcessor" style="stroke:#181818;stroke-width:1.0;"/><polygon fill="none" points="420.05,411.9048,399.92,418.5248,411.52,400.8048,420.05,411.9048" style="stroke:#181818;stroke-width:1.0;"/></g><!--link HttpRequestHandler to EndpointProcessorFactory--><g id="link_HttpRequestHandler_EndpointProcessorFactory"><path codeLine="49" d="M202.23,194.6948 C210.12,216.4648 220.52,245.1848 228.77,267.9448 " fill="none" id="HttpRequestHandler-to-EndpointProcessorFactory" style="stroke:#181818;stroke-width:1.0;stroke-dasharray:7.0,7.0;"/><polygon fill="#181818" points="230.5,272.7048,231.1739,262.879,228.7867,268.0075,223.6582,265.6203,230.5,272.7048" style="stroke:#181818;stroke-width:1.0;"/></g><!--link HttpRequestHandler to HTTPmessage--><g id="link_HttpRequestHandler_HTTPmessage"><path codeLine="50" d="M110.91,182.4048 C98.45,189.0748 87.16,197.9148 79.43,209.6348 C6,320.9248 41.1,381.9248 79.43,509.6348 C83.29,522.4948 88.34,535.2848 94.18,547.8048 " fill="none" id="HttpRequestHandler-to-HTTPmessage" style="stroke:#181818;stroke-width:1.0;stroke-dasharray:7.0,7.0;"/><polygon fill="#181818" points="96.37,552.4048,96.0987,542.5596,94.2142,547.8934,88.8805,546.0089,96.37,552.4048" style="stroke:#181818;stroke-width:1.0;"/></g><!--link EndpointProcessorFactory to HTTPmessage--><g id="link_EndpointProcessorFactory_HTTPmessage"><path codeLine="51" d="M231.5,340.2048 C228.38,350.7548 225.32,362.5848 223.43,373.6348 C214.21,427.5548 209.25,487.1448 206.64,540.4448 " fill="none" id="EndpointProcessorFactory-to-HTTPmessage" style="stroke:#181818;stroke-width:1.0;stroke-dasharray:7.0,7.0;"/><polygon fill="#181818" points="206.39,545.5848,210.8219,536.7894,206.6326,540.5907,202.8313,536.4013,206.39,545.5848" style="stroke:#181818;stroke-width:1.0;"/></g><!--link EndpointProcessor to HTTPmessage--><g id="link_EndpointProcessor_HTTPmessage"><path codeLine="52" d="M337.11,485.8048 C327.66,500.9948 315.67,520.2848 302.77,541.0248 " fill="none" id="EndpointProcessor-to-HTTPmessage" style="stroke:#181818;stroke-width:1.0;stroke-dasharray:7.0,7.0;"/><polygon fill="#181818" points="300,545.4748,308.1402,539.9306,302.6333,541.2244,301.3395,535.7174,300,545.4748" style="stroke:#181818;stroke-width:1.0;"/></g><!--link HistoryLogEndpointProcessor to IBoardLogsProvider--><g id="link_HistoryLogEndpointProcessor_IBoardLogsProvider"><path codeLine="76" d="M664.48,351.4648 C722,372.4748 789.87,397.2548 843.54,416.8548 " fill="none" id="HistoryLogEndpointProcessor-to-IBoardLogsProvider" style="stroke:#181818;stroke-width:1.0;stroke-dasharray:7.0,7.0;"/><polygon fill="#181818" points="848.36,418.6148,841.2755,411.773,843.6627,416.9015,838.5342,419.2887,848.36,418.6148" style="stroke:#181818;stroke-width:1.0;"/></g><!--link IBoardLogsProvider to IBoardLogRepository--><g id="link_IBoardLogsProvider_IBoardLogRepository"><path codeLine="78" d="M937.96,485.8048 C938.7,531.1948 940.03,613.1848 940.81,661.2248 " fill="none" id="IBoardLogsProvider-to-IBoardLogRepository" style="stroke:#181818;stroke-width:1.0;stroke-dasharray:7.0,7.0;"/><polygon fill="#181818" points="940.9,666.3348,944.7451,657.2675,940.8143,661.3355,936.7463,657.4046,940.9,666.3348" style="stroke:#181818;stroke-width:1.0;"/></g><!--link IBoardLogRepository to BoardLog--><g id="link_IBoardLogRepository_BoardLog"><path codeLine="80" d="M941.43,733.7848 C941.43,788.6348 941.43,898.3648 941.43,950.2248 " fill="none" id="IBoardLogRepository-to-BoardLog" style="stroke:#181818;stroke-width:1.0;stroke-dasharray:7.0,7.0;"/><polygon fill="#181818" points="941.43,955.3648,945.43,946.3648,941.43,950.3648,937.43,946.3648,941.43,955.3648" style="stroke:#181818;stroke-width:1.0;"/></g><!--SRC=[jLHDRzim3BthL-Ze84iHOASDGu5sQv007L0qwIv33wh4E49joPFa36dM_pxAikFlv5GVWbXy9Dzx8crVfSgOOIdb2RFsnZaZNt87AwxLMhu1dHFYf4k0Fgq_p-TVw8p-al2NlcXc1Dr9wxGv448onbzP3E6SwpJDbUJCIQteaL1yAi3EkQmyya_HbIutcuSKhFM0EkQVcRIFy2S7w-XNBAuJOAeDIC7jjC3e6gchk1tCZHo9e3u7ggXwSF3xUJ2wEMGmaizoR6laMz0uZB6EkTmE1wSDpH7UGUuG12oTj54Mb8XqxiRYCRYVXG7HPAGF8fwCF1V-7iGMa04pa4C5MHYTXY9HwT3a77GX4uYs-5EZtadtwd4UoXjUCYKIC9q9c9fS5TJsMegXEjLaeLEPbihPJW4y0hDb7EXTYNWmcgFpkjkgQ9U5O6G2gK_KWCsqij3ZqE5HQ-hrMJ3kzsIe7Vf_WbKzVQTUZSjjbs4RxtNy0KABWJOWf07kRZZNHk0OR7HZ-ePpK61DB1eniVslL3TguzNLzOW_vooOpVuDfOMy_XGEDYaPdCjfxFLb5HV1FHGXxvslRQBZb2byJVttx1W4rKE_klKWTCHYqRqKhGMR6i1rXZtu-EsXWAv-H8bMCPN2NzOzElgjAd7Tl9wAX85CMrdED-bltOd0OnFO6iMjLA923RAeWjtzxr0HEcLIDMc4pQZIwR4rOEUcnVlUjoxa3LZQWjT2E_Y60pxXf8g4QoNaFm00]--></g></svg>