<?xml version="1.0" encoding="utf-8"?>
<!-- Generator: Adobe Illustrator 25.2.0, SVG Export Plug-In . SVG Version: 6.00 Build 0)  -->
<svg version="1.1" id="Layer_1" xmlns="http://www.w3.org/2000/svg" xmlns:xlink="http://www.w3.org/1999/xlink" x="0px" y="0px"
	 viewBox="0 0 25.7 29.2" style="enable-background:new 0 0 25.7 29.2;" xml:space="preserve">
<style type="text/css">
	.st0{fill:#C63335;}
	.st1{fill:none;}
</style>
<g>
	<path class="st0" d="M22.3,12.8v12.8c0,1.8-1.4,3.2-3.2,3.2H5.6c-1.8,0-3.2-1.4-3.2-3.2V6.4H9c0.3,0,0.6,0.1,0.9,0.2L22.3,12.8z"/>
	<g>
		<path class="st0" d="M23.8,12.3L4.5,2.8C4.2,2.6,4,2.2,4.2,1.9l0.5-1.1c0.2-0.3,0.6-0.5,0.9-0.3L25,10c0.3,0.2,0.5,0.6,0.3,0.9
			L24.7,12C24.6,12.3,24.2,12.4,23.8,12.3z"/>
		<path class="st0" d="M19.9,8l-8.7-4.3c-0.3-0.1-0.4-0.5-0.3-0.8L11,2.5c0.1-0.3,0.5-0.4,0.8-0.3l8.7,4.3C20.9,6.7,21,7,20.9,7.3
			l-0.2,0.4C20.5,8,20.2,8.1,19.9,8z"/>
		<path class="st0" d="M18.3,6.7l-5.3-2.6c-0.3-0.2-0.5-0.5-0.3-0.9L12.9,3c0.2-0.3,0.5-0.5,0.9-0.3l5.3,2.6
			c0.3,0.2,0.5,0.5,0.3,0.9l-0.2,0.3C19,6.8,18.6,6.9,18.3,6.7z"/>
	</g>
	<line class="st1" x1="22.3" y1="12.8" x2="9.4" y2="6.4"/>
</g>
</svg>
