<?xml version="1.0" encoding="utf-8"?>
<!-- Generator: Adobe Illustrator 25.2.0, SVG Export Plug-In . SVG Version: 6.00 Build 0)  -->
<svg version="1.1" id="Layer_1" xmlns="http://www.w3.org/2000/svg" xmlns:xlink="http://www.w3.org/1999/xlink" x="0px" y="0px"
	 viewBox="0 0 25.7 29.2" style="enable-background:new 0 0 25.7 29.2;" xml:space="preserve">
<style type="text/css">
	.st0{fill:#C63335;}
	.st1{fill:none;}
</style>
<g>
	<path class="st0" d="M19.4,28.5H5.9c-1.8,0-3.2-1.4-3.2-3.2V6.2h19.8v19.1C22.6,27.1,21.2,28.5,19.4,28.5z"/>
	<path class="st0" d="M23.4,4.8H1.9c-0.4,0-0.7-0.3-0.7-0.7V3c0-0.4,0.3-0.7,0.7-0.7h21.5c0.4,0,0.7,0.3,0.7,0.7v1.2
		C24.1,4.5,23.8,4.8,23.4,4.8z"/>
	<path class="st0" d="M18,2.8H8.3C8,2.8,7.7,2.5,7.7,2.2V1.7c0-0.3,0.3-0.6,0.6-0.6H18c0.3,0,0.6,0.3,0.6,0.6v0.5
		C18.6,2.5,18.3,2.8,18,2.8z"/>
	<path class="st0" d="M16.1,2.3h-5.9C9.9,2.3,9.6,2,9.6,1.7V1.3c0-0.4,0.3-0.6,0.6-0.6h5.9c0.4,0,0.6,0.3,0.6,0.6v0.4
		C16.7,2,16.4,2.3,16.1,2.3z"/>
</g>
</svg>
