<?xml version="1.0" encoding="us-ascii" standalone="no"?><svg xmlns="http://www.w3.org/2000/svg" xmlns:xlink="http://www.w3.org/1999/xlink" contentStyleType="text/css" height="1366px" preserveAspectRatio="none" style="width:1442px;height:1366px;background:#FFFFFF;" version="1.1" viewBox="0 0 1442 1366" width="1442px" zoomAndPan="magnify"><defs/><g><text fill="#000000" font-family="sans-serif" font-size="14" font-weight="bold" lengthAdjust="spacing" textLength="158" x="643.5" y="30.1074">Set Course's Teachers</text><rect fill="#FFFFFF" height="1097.4766" style="stroke:#181818;stroke-width:1.0;" width="10" x="223" y="161.1543"/><rect fill="#FFFFFF" height="156.4551" style="stroke:#181818;stroke-width:1.0;" width="10" x="490" y="241.0273"/><rect fill="#FFFFFF" height="310.6191" style="stroke:#181818;stroke-width:1.0;" width="10" x="490" y="525.9375"/><rect fill="#FFFFFF" height="123.873" style="stroke:#181818;stroke-width:1.0;" width="10" x="490" y="1052.8848"/><rect fill="#FFFFFF" height="93.873" style="stroke:#181818;stroke-width:1.0;" width="10" x="705" y="272.3184"/><rect fill="#FFFFFF" height="31.291" style="stroke:#181818;stroke-width:1.0;" width="10" x="896" y="303.6094"/><rect fill="#FFFFFF" height="248.0371" style="stroke:#181818;stroke-width:1.0;" width="10" x="1055" y="557.2285"/><rect fill="#FFFFFF" height="28" style="stroke:#181818;stroke-width:1.0;" width="10" x="1060" y="738.9746"/><rect fill="#FFFFFF" height="31.291" style="stroke:#181818;stroke-width:1.0;" width="10" x="1255" y="588.5195"/><rect fill="#FFFFFF" height="31.291" style="stroke:#181818;stroke-width:1.0;" width="10" x="1383" y="651.1016"/><rect fill="#FFFFFF" height="30" style="stroke:#181818;stroke-width:1.0;" width="10" x="1383" y="1084.1758"/><rect fill="none" height="399.0742" style="stroke:#000000;stroke-width:1.5;" width="1426" x="10" y="851.5566"/><line style="stroke:#181818;stroke-width:0.5;stroke-dasharray:5.0,5.0;" x1="51" x2="51" y1="127.8633" y2="1267.6309"/><line style="stroke:#181818;stroke-width:0.5;stroke-dasharray:5.0,5.0;" x1="227.5" x2="227.5" y1="127.8633" y2="1267.6309"/><line style="stroke:#181818;stroke-width:0.5;stroke-dasharray:5.0,5.0;" x1="494.5" x2="494.5" y1="127.8633" y2="1267.6309"/><line style="stroke:#181818;stroke-width:0.5;stroke-dasharray:5.0,5.0;" x1="709.5" x2="709.5" y1="127.8633" y2="1267.6309"/><line style="stroke:#181818;stroke-width:0.5;stroke-dasharray:5.0,5.0;" x1="901" x2="901" y1="127.8633" y2="1267.6309"/><line style="stroke:#181818;stroke-width:0.5;stroke-dasharray:5.0,5.0;" x1="1060" x2="1060" y1="127.8633" y2="1267.6309"/><line style="stroke:#181818;stroke-width:0.5;stroke-dasharray:5.0,5.0;" x1="1260" x2="1260" y1="127.8633" y2="1267.6309"/><line style="stroke:#181818;stroke-width:0.5;stroke-dasharray:5.0,5.0;" x1="1388" x2="1388" y1="127.8633" y2="1267.6309"/><text fill="#000000" font-family="sans-serif" font-size="14" lengthAdjust="spacing" textLength="56" x="20" y="124.3496">Manager</text><ellipse cx="51" cy="57.7422" fill="#E2E2F0" rx="8" ry="8" style="stroke:#181818;stroke-width:0.5;"/><path d="M51,65.7422 L51,92.7422 M38,73.7422 L64,73.7422 M51,92.7422 L38,107.7422 M51,92.7422 L64,107.7422 " fill="none" style="stroke:#181818;stroke-width:0.5;"/><text fill="#000000" font-family="sans-serif" font-size="14" lengthAdjust="spacing" textLength="56" x="20" y="1281.7383">Manager</text><ellipse cx="51" cy="1293.752" fill="#E2E2F0" rx="8" ry="8" style="stroke:#181818;stroke-width:0.5;"/><path d="M51,1301.752 L51,1328.752 M38,1309.752 L64,1309.752 M51,1328.752 L38,1343.752 M51,1328.752 L64,1343.752 " fill="none" style="stroke:#181818;stroke-width:0.5;"/><rect fill="#E2E2F0" height="51.2422" rx="2.5" ry="2.5" style="stroke:#181818;stroke-width:0.5;" width="153" x="151.5" y="75.6211"/><text fill="#000000" font-family="sans-serif" font-size="14" font-style="italic" lengthAdjust="spacing" textLength="27" x="214.5" y="97.7285">&#171;ui&#187;</text><text fill="#000000" font-family="sans-serif" font-size="14" lengthAdjust="spacing" textLength="139" x="158.5" y="116.3496">SetCourseTeachersUI</text><rect fill="#E2E2F0" height="51.2422" rx="2.5" ry="2.5" style="stroke:#181818;stroke-width:0.5;" width="153" x="151.5" y="1266.6309"/><text fill="#000000" font-family="sans-serif" font-size="14" font-style="italic" lengthAdjust="spacing" textLength="27" x="214.5" y="1288.7383">&#171;ui&#187;</text><text fill="#000000" font-family="sans-serif" font-size="14" lengthAdjust="spacing" textLength="139" x="158.5" y="1307.3594">SetCourseTeachersUI</text><rect fill="#E2E2F0" height="51.2422" rx="2.5" ry="2.5" style="stroke:#181818;stroke-width:0.5;" width="203" x="393.5" y="75.6211"/><text fill="#000000" font-family="sans-serif" font-size="14" font-style="italic" lengthAdjust="spacing" textLength="84" x="453" y="97.7285">&#171;application&#187;</text><text fill="#000000" font-family="sans-serif" font-size="14" lengthAdjust="spacing" textLength="189" x="400.5" y="116.3496">SetCourseTeachersController</text><rect fill="#E2E2F0" height="51.2422" rx="2.5" ry="2.5" style="stroke:#181818;stroke-width:0.5;" width="203" x="393.5" y="1266.6309"/><text fill="#000000" font-family="sans-serif" font-size="14" font-style="italic" lengthAdjust="spacing" textLength="84" x="453" y="1288.7383">&#171;application&#187;</text><text fill="#000000" font-family="sans-serif" font-size="14" lengthAdjust="spacing" textLength="189" x="400.5" y="1307.3594">SetCourseTeachersController</text><rect fill="#E2E2F0" height="51.2422" rx="2.5" ry="2.5" style="stroke:#181818;stroke-width:0.5;" width="207" x="606.5" y="75.6211"/><text fill="#000000" font-family="sans-serif" font-size="14" font-style="italic" lengthAdjust="spacing" textLength="84" x="668" y="97.7285">&#171;application&#187;</text><text fill="#000000" font-family="sans-serif" font-size="14" lengthAdjust="spacing" textLength="193" x="613.5" y="116.3496">ListManagerCoursesController</text><rect fill="#E2E2F0" height="51.2422" rx="2.5" ry="2.5" style="stroke:#181818;stroke-width:0.5;" width="207" x="606.5" y="1266.6309"/><text fill="#000000" font-family="sans-serif" font-size="14" font-style="italic" lengthAdjust="spacing" textLength="84" x="668" y="1288.7383">&#171;application&#187;</text><text fill="#000000" font-family="sans-serif" font-size="14" lengthAdjust="spacing" textLength="193" x="613.5" y="1307.3594">ListManagerCoursesController</text><text fill="#000000" font-family="sans-serif" font-size="14" font-style="italic" lengthAdjust="spacing" textLength="79" x="858.5" y="105.7285">&#171;repository&#187;</text><text fill="#000000" font-family="sans-serif" font-size="14" lengthAdjust="spacing" textLength="114" x="841" y="124.3496">CourseRepository</text><path d="M883,54.6211 C883,44.6211 901,44.6211 901,44.6211 C901,44.6211 919,44.6211 919,54.6211 L919,80.6211 C919,90.6211 901,90.6211 901,90.6211 C901,90.6211 883,90.6211 883,80.6211 L883,54.6211 " fill="#E2E2F0" style="stroke:#181818;stroke-width:1.5;"/><path d="M883,54.6211 C883,64.6211 901,64.6211 901,64.6211 C901,64.6211 919,64.6211 919,54.6211 " fill="none" style="stroke:#181818;stroke-width:1.5;"/><text fill="#000000" font-family="sans-serif" font-size="14" font-style="italic" lengthAdjust="spacing" textLength="79" x="858.5" y="1281.7383">&#171;repository&#187;</text><text fill="#000000" font-family="sans-serif" font-size="14" lengthAdjust="spacing" textLength="114" x="841" y="1300.3594">CourseRepository</text><path d="M883,1313.873 C883,1303.873 901,1303.873 901,1303.873 C901,1303.873 919,1303.873 919,1313.873 L919,1339.873 C919,1349.873 901,1349.873 901,1349.873 C901,1349.873 883,1349.873 883,1339.873 L883,1313.873 " fill="#E2E2F0" style="stroke:#181818;stroke-width:1.5;"/><path d="M883,1313.873 C883,1323.873 901,1323.873 901,1323.873 C901,1323.873 919,1323.873 919,1313.873 " fill="none" style="stroke:#181818;stroke-width:1.5;"/><rect fill="#E2E2F0" height="51.2422" rx="2.5" ry="2.5" style="stroke:#181818;stroke-width:0.5;" width="178" x="971" y="75.6211"/><text fill="#000000" font-family="sans-serif" font-size="14" font-style="italic" lengthAdjust="spacing" textLength="60" x="1030" y="97.7285">&#171;service&#187;</text><text fill="#000000" font-family="sans-serif" font-size="14" lengthAdjust="spacing" textLength="164" x="978" y="116.3496">AvailableTeachersService</text><rect fill="#E2E2F0" height="51.2422" rx="2.5" ry="2.5" style="stroke:#181818;stroke-width:0.5;" width="178" x="971" y="1266.6309"/><text fill="#000000" font-family="sans-serif" font-size="14" font-style="italic" lengthAdjust="spacing" textLength="60" x="1030" y="1288.7383">&#171;service&#187;</text><text fill="#000000" font-family="sans-serif" font-size="14" lengthAdjust="spacing" textLength="164" x="978" y="1307.3594">AvailableTeachersService</text><text fill="#000000" font-family="sans-serif" font-size="14" font-style="italic" lengthAdjust="spacing" textLength="79" x="1217.5" y="105.7285">&#171;repository&#187;</text><text fill="#000000" font-family="sans-serif" font-size="14" lengthAdjust="spacing" textLength="154" x="1180" y="124.3496">IeCourseUserRepository</text><path d="M1242,54.6211 C1242,44.6211 1260,44.6211 1260,44.6211 C1260,44.6211 1278,44.6211 1278,54.6211 L1278,80.6211 C1278,90.6211 1260,90.6211 1260,90.6211 C1260,90.6211 1242,90.6211 1242,80.6211 L1242,54.6211 " fill="#E2E2F0" style="stroke:#181818;stroke-width:1.5;"/><path d="M1242,54.6211 C1242,64.6211 1260,64.6211 1260,64.6211 C1260,64.6211 1278,64.6211 1278,54.6211 " fill="none" style="stroke:#181818;stroke-width:1.5;"/><text fill="#000000" font-family="sans-serif" font-size="14" font-style="italic" lengthAdjust="spacing" textLength="79" x="1217.5" y="1281.7383">&#171;repository&#187;</text><text fill="#000000" font-family="sans-serif" font-size="14" lengthAdjust="spacing" textLength="154" x="1180" y="1300.3594">IeCourseUserRepository</text><path d="M1242,1313.873 C1242,1303.873 1260,1303.873 1260,1303.873 C1260,1303.873 1278,1303.873 1278,1313.873 L1278,1339.873 C1278,1349.873 1260,1349.873 1260,1349.873 C1260,1349.873 1242,1349.873 1242,1339.873 L1242,1313.873 " fill="#E2E2F0" style="stroke:#181818;stroke-width:1.5;"/><path d="M1242,1313.873 C1242,1323.873 1260,1323.873 1260,1323.873 C1260,1323.873 1278,1323.873 1278,1313.873 " fill="none" style="stroke:#181818;stroke-width:1.5;"/><rect fill="#E2E2F0" height="51.2422" rx="2.5" ry="2.5" style="stroke:#181818;stroke-width:0.5;" width="76" x="1350" y="75.6211"/><text fill="#000000" font-family="sans-serif" font-size="14" font-style="italic" lengthAdjust="spacing" textLength="62" x="1357" y="97.7285">&#171;domain&#187;</text><text fill="#000000" font-family="sans-serif" font-size="14" lengthAdjust="spacing" textLength="46" x="1365" y="116.3496">Course</text><rect fill="#E2E2F0" height="51.2422" rx="2.5" ry="2.5" style="stroke:#181818;stroke-width:0.5;" width="76" x="1350" y="1266.6309"/><text fill="#000000" font-family="sans-serif" font-size="14" font-style="italic" lengthAdjust="spacing" textLength="62" x="1357" y="1288.7383">&#171;domain&#187;</text><text fill="#000000" font-family="sans-serif" font-size="14" lengthAdjust="spacing" textLength="46" x="1365" y="1307.3594">Course</text><rect fill="#FFFFFF" height="1097.4766" style="stroke:#181818;stroke-width:1.0;" width="10" x="223" y="161.1543"/><rect fill="#FFFFFF" height="156.4551" style="stroke:#181818;stroke-width:1.0;" width="10" x="490" y="241.0273"/><rect fill="#FFFFFF" height="310.6191" style="stroke:#181818;stroke-width:1.0;" width="10" x="490" y="525.9375"/><rect fill="#FFFFFF" height="123.873" style="stroke:#181818;stroke-width:1.0;" width="10" x="490" y="1052.8848"/><rect fill="#FFFFFF" height="93.873" style="stroke:#181818;stroke-width:1.0;" width="10" x="705" y="272.3184"/><rect fill="#FFFFFF" height="31.291" style="stroke:#181818;stroke-width:1.0;" width="10" x="896" y="303.6094"/><rect fill="#FFFFFF" height="248.0371" style="stroke:#181818;stroke-width:1.0;" width="10" x="1055" y="557.2285"/><rect fill="#FFFFFF" height="28" style="stroke:#181818;stroke-width:1.0;" width="10" x="1060" y="738.9746"/><rect fill="#FFFFFF" height="31.291" style="stroke:#181818;stroke-width:1.0;" width="10" x="1255" y="588.5195"/><rect fill="#FFFFFF" height="31.291" style="stroke:#181818;stroke-width:1.0;" width="10" x="1383" y="651.1016"/><rect fill="#FFFFFF" height="30" style="stroke:#181818;stroke-width:1.0;" width="10" x="1383" y="1084.1758"/><polygon fill="#181818" points="211,157.1543,221,161.1543,211,165.1543,215,161.1543" style="stroke:#181818;stroke-width:1.0;"/><line style="stroke:#181818;stroke-width:1.0;" x1="0" x2="217" y1="161.1543" y2="161.1543"/><text fill="#000000" font-family="sans-serif" font-size="13" font-weight="bold" lengthAdjust="spacing" textLength="7" x="7" y="155.8916">1</text><text fill="#000000" font-family="sans-serif" font-size="13" lengthAdjust="spacing" textLength="42" x="18" y="155.8916">onLoad</text><polygon fill="#181818" points="483,205.7363,493,209.7363,483,213.7363,487,209.7363" style="stroke:#181818;stroke-width:1.0;"/><line style="stroke:#181818;stroke-width:1.0;" x1="233" x2="489" y1="209.7363" y2="209.7363"/><text fill="#000000" font-family="sans-serif" font-size="13" font-weight="bold" lengthAdjust="spacing" textLength="7" x="240" y="195.8281">2</text><text fill="#000000" font-family="sans-serif" font-size="13" lengthAdjust="spacing" textLength="113" x="251" y="187.1826">create(courseRepo,</text><text fill="#000000" font-family="sans-serif" font-size="13" lengthAdjust="spacing" textLength="127" x="251" y="204.4736">availableTeachersSvc)</text><polygon fill="#181818" points="478,237.0273,488,241.0273,478,245.0273,482,241.0273" style="stroke:#181818;stroke-width:1.0;"/><line style="stroke:#181818;stroke-width:1.0;" x1="233" x2="484" y1="241.0273" y2="241.0273"/><text fill="#000000" font-family="sans-serif" font-size="13" font-weight="bold" lengthAdjust="spacing" textLength="7" x="240" y="235.7646">3</text><text fill="#000000" font-family="sans-serif" font-size="13" lengthAdjust="spacing" textLength="114" x="251" y="235.7646">notClosedCourses()</text><polygon fill="#181818" points="693,268.3184,703,272.3184,693,276.3184,697,272.3184" style="stroke:#181818;stroke-width:1.0;"/><line style="stroke:#181818;stroke-width:1.0;" x1="500" x2="699" y1="272.3184" y2="272.3184"/><text fill="#000000" font-family="sans-serif" font-size="13" font-weight="bold" lengthAdjust="spacing" textLength="7" x="507" y="267.0557">4</text><text fill="#000000" font-family="sans-serif" font-size="13" lengthAdjust="spacing" textLength="151" x="518" y="267.0557">findAllNotClosedCourses()</text><polygon fill="#181818" points="884,299.6094,894,303.6094,884,307.6094,888,303.6094" style="stroke:#181818;stroke-width:1.0;"/><line style="stroke:#181818;stroke-width:1.0;" x1="715" x2="890" y1="303.6094" y2="303.6094"/><text fill="#000000" font-family="sans-serif" font-size="13" font-weight="bold" lengthAdjust="spacing" textLength="7" x="722" y="298.3467">5</text><text fill="#000000" font-family="sans-serif" font-size="13" lengthAdjust="spacing" textLength="151" x="733" y="298.3467">findAllNotClosedCourses()</text><polygon fill="#181818" points="726,330.9004,716,334.9004,726,338.9004,722,334.9004" style="stroke:#181818;stroke-width:1.0;"/><line style="stroke:#181818;stroke-width:1.0;stroke-dasharray:2.0,2.0;" x1="720" x2="900" y1="334.9004" y2="334.9004"/><text fill="#000000" font-family="sans-serif" font-size="13" font-weight="bold" lengthAdjust="spacing" textLength="7" x="732" y="329.6377">6</text><text fill="#000000" font-family="sans-serif" font-size="13" lengthAdjust="spacing" textLength="46" x="743" y="329.6377">courses</text><polygon fill="#181818" points="511,362.1914,501,366.1914,511,370.1914,507,366.1914" style="stroke:#181818;stroke-width:1.0;"/><line style="stroke:#181818;stroke-width:1.0;stroke-dasharray:2.0,2.0;" x1="505" x2="709" y1="366.1914" y2="366.1914"/><text fill="#000000" font-family="sans-serif" font-size="13" font-weight="bold" lengthAdjust="spacing" textLength="7" x="517" y="360.9287">7</text><text fill="#000000" font-family="sans-serif" font-size="13" lengthAdjust="spacing" textLength="46" x="528" y="360.9287">courses</text><polygon fill="#181818" points="244,393.4824,234,397.4824,244,401.4824,240,397.4824" style="stroke:#181818;stroke-width:1.0;"/><line style="stroke:#181818;stroke-width:1.0;stroke-dasharray:2.0,2.0;" x1="238" x2="494" y1="397.4824" y2="397.4824"/><text fill="#000000" font-family="sans-serif" font-size="13" font-weight="bold" lengthAdjust="spacing" textLength="7" x="250" y="392.2197">8</text><text fill="#000000" font-family="sans-serif" font-size="13" lengthAdjust="spacing" textLength="46" x="261" y="392.2197">courses</text><polygon fill="#181818" points="62,442.0645,52,446.0645,62,450.0645,58,446.0645" style="stroke:#181818;stroke-width:1.0;"/><line style="stroke:#181818;stroke-width:1.0;stroke-dasharray:2.0,2.0;" x1="56" x2="222" y1="446.0645" y2="446.0645"/><text fill="#000000" font-family="sans-serif" font-size="13" font-weight="bold" lengthAdjust="spacing" textLength="7" x="68" y="432.1563">9</text><text fill="#000000" font-family="sans-serif" font-size="13" lengthAdjust="spacing" textLength="46" x="79" y="423.5107">lists the</text><text fill="#000000" font-family="sans-serif" font-size="13" lengthAdjust="spacing" textLength="46" x="79" y="440.8018">courses</text><polygon fill="#181818" points="211,490.6465,221,494.6465,211,498.6465,215,494.6465" style="stroke:#181818;stroke-width:1.0;"/><line style="stroke:#181818;stroke-width:1.0;" x1="51" x2="217" y1="494.6465" y2="494.6465"/><text fill="#000000" font-family="sans-serif" font-size="13" font-weight="bold" lengthAdjust="spacing" textLength="14" x="58" y="480.7383">10</text><text fill="#000000" font-family="sans-serif" font-size="13" lengthAdjust="spacing" textLength="64" x="76" y="472.0928">selects the</text><text fill="#000000" font-family="sans-serif" font-size="13" lengthAdjust="spacing" textLength="39" x="76" y="489.3838">course</text><polygon fill="#181818" points="478,521.9375,488,525.9375,478,529.9375,482,525.9375" style="stroke:#181818;stroke-width:1.0;"/><line style="stroke:#181818;stroke-width:1.0;" x1="233" x2="484" y1="525.9375" y2="525.9375"/><text fill="#000000" font-family="sans-serif" font-size="13" font-weight="bold" lengthAdjust="spacing" textLength="14" x="240" y="520.6748">11</text><text fill="#000000" font-family="sans-serif" font-size="13" lengthAdjust="spacing" textLength="149" x="258" y="520.6748">availableTeachers(course)</text><polygon fill="#181818" points="1043,553.2285,1053,557.2285,1043,561.2285,1047,557.2285" style="stroke:#181818;stroke-width:1.0;"/><line style="stroke:#181818;stroke-width:1.0;" x1="500" x2="1049" y1="557.2285" y2="557.2285"/><text fill="#000000" font-family="sans-serif" font-size="13" font-weight="bold" lengthAdjust="spacing" textLength="14" x="507" y="551.9658">12</text><text fill="#000000" font-family="sans-serif" font-size="13" lengthAdjust="spacing" textLength="149" x="525" y="551.9658">availableTeachers(course)</text><polygon fill="#181818" points="1243,584.5195,1253,588.5195,1243,592.5195,1247,588.5195" style="stroke:#181818;stroke-width:1.0;"/><line style="stroke:#181818;stroke-width:1.0;" x1="1065" x2="1249" y1="588.5195" y2="588.5195"/><text fill="#000000" font-family="sans-serif" font-size="13" font-weight="bold" lengthAdjust="spacing" textLength="14" x="1072" y="583.2568">13</text><text fill="#000000" font-family="sans-serif" font-size="13" lengthAdjust="spacing" textLength="135" x="1090" y="583.2568">findAllTeachers(course)</text><polygon fill="#181818" points="1076,615.8105,1066,619.8105,1076,623.8105,1072,619.8105" style="stroke:#181818;stroke-width:1.0;"/><line style="stroke:#181818;stroke-width:1.0;stroke-dasharray:2.0,2.0;" x1="1070" x2="1259" y1="619.8105" y2="619.8105"/><text fill="#000000" font-family="sans-serif" font-size="13" font-weight="bold" lengthAdjust="spacing" textLength="14" x="1082" y="614.5479">14</text><text fill="#000000" font-family="sans-serif" font-size="13" lengthAdjust="spacing" textLength="50" x="1100" y="614.5479">teachers</text><polygon fill="#181818" points="1371,647.1016,1381,651.1016,1371,655.1016,1375,651.1016" style="stroke:#181818;stroke-width:1.0;"/><line style="stroke:#181818;stroke-width:1.0;" x1="1065" x2="1377" y1="651.1016" y2="651.1016"/><text fill="#000000" font-family="sans-serif" font-size="13" font-weight="bold" lengthAdjust="spacing" textLength="14" x="1072" y="645.8389">15</text><text fill="#000000" font-family="sans-serif" font-size="13" lengthAdjust="spacing" textLength="58" x="1090" y="645.8389">teachers()</text><polygon fill="#181818" points="1076,678.3926,1066,682.3926,1076,686.3926,1072,682.3926" style="stroke:#181818;stroke-width:1.0;"/><line style="stroke:#181818;stroke-width:1.0;stroke-dasharray:2.0,2.0;" x1="1070" x2="1387" y1="682.3926" y2="682.3926"/><text fill="#000000" font-family="sans-serif" font-size="13" font-weight="bold" lengthAdjust="spacing" textLength="14" x="1082" y="677.1299">16</text><text fill="#000000" font-family="sans-serif" font-size="13" lengthAdjust="spacing" textLength="92" x="1100" y="677.1299">courseTeachers</text><line style="stroke:#181818;stroke-width:1.0;" x1="1070" x2="1112" y1="730.9746" y2="730.9746"/><line style="stroke:#181818;stroke-width:1.0;" x1="1112" x2="1112" y1="730.9746" y2="743.9746"/><line style="stroke:#181818;stroke-width:1.0;" x1="1071" x2="1112" y1="743.9746" y2="743.9746"/><polygon fill="#181818" points="1081,739.9746,1071,743.9746,1081,747.9746,1077,743.9746" style="stroke:#181818;stroke-width:1.0;"/><text fill="#000000" font-family="sans-serif" font-size="13" font-weight="bold" lengthAdjust="spacing" textLength="14" x="1077" y="717.0664">17</text><text fill="#000000" font-family="sans-serif" font-size="13" lengthAdjust="spacing" textLength="141" x="1095" y="708.4209">filterTeacherNotInCourse</text><text fill="#000000" font-family="sans-serif" font-size="13" lengthAdjust="spacing" textLength="158" x="1095" y="725.7119">(teachers, courseTeachers)</text><polygon fill="#181818" points="511,801.2656,501,805.2656,511,809.2656,507,805.2656" style="stroke:#181818;stroke-width:1.0;"/><line style="stroke:#181818;stroke-width:1.0;stroke-dasharray:2.0,2.0;" x1="505" x2="1059" y1="805.2656" y2="805.2656"/><text fill="#000000" font-family="sans-serif" font-size="13" font-weight="bold" lengthAdjust="spacing" textLength="14" x="517" y="800.0029">18</text><text fill="#000000" font-family="sans-serif" font-size="13" lengthAdjust="spacing" textLength="102" x="535" y="800.0029">availableTeachers</text><polygon fill="#181818" points="244,832.5566,234,836.5566,244,840.5566,240,836.5566" style="stroke:#181818;stroke-width:1.0;"/><line style="stroke:#181818;stroke-width:1.0;stroke-dasharray:2.0,2.0;" x1="238" x2="494" y1="836.5566" y2="836.5566"/><text fill="#000000" font-family="sans-serif" font-size="13" font-weight="bold" lengthAdjust="spacing" textLength="14" x="250" y="831.2939">19</text><text fill="#000000" font-family="sans-serif" font-size="13" lengthAdjust="spacing" textLength="102" x="268" y="831.2939">availableTeachers</text><path d="M10,851.5566 L83,851.5566 L83,860.8477 L73,870.8477 L10,870.8477 L10,851.5566 " fill="#EEEEEE" style="stroke:#000000;stroke-width:1.5;"/><rect fill="none" height="399.0742" style="stroke:#000000;stroke-width:1.5;" width="1426" x="10" y="851.5566"/><text fill="#000000" font-family="sans-serif" font-size="13" font-weight="bold" lengthAdjust="spacing" textLength="28" x="25" y="866.585">loop</text><text fill="#000000" font-family="sans-serif" font-size="11" font-weight="bold" lengthAdjust="spacing" textLength="166" x="98" y="865.4268">[while wants to add a teacher]</text><polygon fill="#181818" points="62,907.4297,52,911.4297,62,915.4297,58,911.4297" style="stroke:#181818;stroke-width:1.0;"/><line style="stroke:#181818;stroke-width:1.0;stroke-dasharray:2.0,2.0;" x1="56" x2="222" y1="911.4297" y2="911.4297"/><text fill="#000000" font-family="sans-serif" font-size="13" font-weight="bold" lengthAdjust="spacing" textLength="14" x="68" y="897.5215">20</text><text fill="#000000" font-family="sans-serif" font-size="13" lengthAdjust="spacing" textLength="46" x="86" y="888.876">lists the</text><text fill="#000000" font-family="sans-serif" font-size="13" lengthAdjust="spacing" textLength="50" x="86" y="906.167">teachers</text><polygon fill="#181818" points="211,956.0117,221,960.0117,211,964.0117,215,960.0117" style="stroke:#181818;stroke-width:1.0;"/><line style="stroke:#181818;stroke-width:1.0;" x1="51" x2="217" y1="960.0117" y2="960.0117"/><text fill="#000000" font-family="sans-serif" font-size="13" font-weight="bold" lengthAdjust="spacing" textLength="14" x="58" y="946.1035">21</text><text fill="#000000" font-family="sans-serif" font-size="13" lengthAdjust="spacing" textLength="64" x="76" y="937.458">selects the</text><text fill="#000000" font-family="sans-serif" font-size="13" lengthAdjust="spacing" textLength="43" x="76" y="954.749">teacher</text><line style="stroke:#181818;stroke-width:1.0;" x1="233" x2="275" y1="1008.5938" y2="1008.5938"/><line style="stroke:#181818;stroke-width:1.0;" x1="275" x2="275" y1="1008.5938" y2="1021.5938"/><line style="stroke:#181818;stroke-width:1.0;" x1="234" x2="275" y1="1021.5938" y2="1021.5938"/><polygon fill="#181818" points="244,1017.5938,234,1021.5938,244,1025.5938,240,1021.5938" style="stroke:#181818;stroke-width:1.0;"/><text fill="#000000" font-family="sans-serif" font-size="13" font-weight="bold" lengthAdjust="spacing" textLength="14" x="240" y="994.6855">22</text><text fill="#000000" font-family="sans-serif" font-size="13" lengthAdjust="spacing" textLength="124" x="258" y="986.04">removes teacher from</text><text fill="#000000" font-family="sans-serif" font-size="13" lengthAdjust="spacing" textLength="124" x="258" y="1003.3311">available teachers list</text><polygon fill="#181818" points="478,1048.8848,488,1052.8848,478,1056.8848,482,1052.8848" style="stroke:#181818;stroke-width:1.0;"/><line style="stroke:#181818;stroke-width:1.0;" x1="233" x2="484" y1="1052.8848" y2="1052.8848"/><text fill="#000000" font-family="sans-serif" font-size="13" font-weight="bold" lengthAdjust="spacing" textLength="14" x="240" y="1047.6221">23</text><text fill="#000000" font-family="sans-serif" font-size="13" lengthAdjust="spacing" textLength="220" x="258" y="1047.6221">addTeacherToCourse(teacher, course)</text><polygon fill="#181818" points="1371,1080.1758,1381,1084.1758,1371,1088.1758,1375,1084.1758" style="stroke:#181818;stroke-width:1.0;"/><line style="stroke:#181818;stroke-width:1.0;" x1="500" x2="1377" y1="1084.1758" y2="1084.1758"/><text fill="#000000" font-family="sans-serif" font-size="13" font-weight="bold" lengthAdjust="spacing" textLength="14" x="507" y="1078.9131">24</text><text fill="#000000" font-family="sans-serif" font-size="13" lengthAdjust="spacing" textLength="118" x="525" y="1078.9131">addTeacher(teacher)</text><polygon fill="#181818" points="889,1141.4668,899,1145.4668,889,1149.4668,893,1145.4668" style="stroke:#181818;stroke-width:1.0;"/><line style="stroke:#181818;stroke-width:1.0;" x1="500" x2="895" y1="1145.4668" y2="1145.4668"/><text fill="#000000" font-family="sans-serif" font-size="13" font-weight="bold" lengthAdjust="spacing" textLength="14" x="507" y="1140.2041">25</text><text fill="#000000" font-family="sans-serif" font-size="13" lengthAdjust="spacing" textLength="73" x="525" y="1140.2041">save(course)</text><polygon fill="#181818" points="244,1172.7578,234,1176.7578,244,1180.7578,240,1176.7578" style="stroke:#181818;stroke-width:1.0;"/><line style="stroke:#181818;stroke-width:1.0;stroke-dasharray:2.0,2.0;" x1="238" x2="494" y1="1176.7578" y2="1176.7578"/><text fill="#000000" font-family="sans-serif" font-size="13" font-weight="bold" lengthAdjust="spacing" textLength="14" x="250" y="1171.4951">26</text><text fill="#000000" font-family="sans-serif" font-size="13" lengthAdjust="spacing" textLength="93" x="268" y="1171.4951">returns success</text><polygon fill="#181818" points="62,1238.6309,52,1242.6309,62,1246.6309,58,1242.6309" style="stroke:#181818;stroke-width:1.0;"/><line style="stroke:#181818;stroke-width:1.0;stroke-dasharray:2.0,2.0;" x1="56" x2="222" y1="1242.6309" y2="1242.6309"/><text fill="#000000" font-family="sans-serif" font-size="13" font-weight="bold" lengthAdjust="spacing" textLength="14" x="68" y="1220.0771">27</text><text fill="#000000" font-family="sans-serif" font-size="13" lengthAdjust="spacing" textLength="101" x="86" y="1202.7861">displays success</text><text fill="#000000" font-family="sans-serif" font-size="13" lengthAdjust="spacing" textLength="101" x="86" y="1220.0771">and asks if wants</text><text fill="#000000" font-family="sans-serif" font-size="13" lengthAdjust="spacing" textLength="130" x="86" y="1237.3682">to add another teacher</text><!--SRC=[ZLJBRkiW4Dtp5IYRcqhD3qHLfCZgmf9p5tdiifdWIOCk0Gkmg_xz7HlZ6kVHRfbppZ3d37Zf5V8TUfwPsZhyu_WUGLpGEiQWzaRNrnDQ1i8RopUWuGCj1ySth0BhfP0LQCzdf1048lkGprhO8UTlRxLShNw0PqPxQvH2sz6o_ROW8bILaWAyD7ggK4Zd- -i4fQb4SLUZ10ydSCXdWRN5oZX9its5lbjYsE5isdJTW5HmKiErTsWRAR3ZhlSx8hjmahJACJGxK77IC7z_sZ3mmjK8M9eho7OCjbYrrYwvqOM1ahNvo0OyqYcZ0fMxyPTSMAJZkHYcVJrgk1cZ4IyfJHkVAUEmxCsTltotQ26imn6-w0bdgSkrKd-Vy3eeAoAJlFuLBTioWYv6lS8mZfKu1lN2ez5lOSNexj72UsejYeeTQ4COHTlckB_WKKVuXaS1Xmf5MaxDlF6xZ-EHf-qc_Of5GDQ2YKEBDBZvc92_Cm8kXXu-llNHy8JfDRCH8ac4PICDaJpanCOe581dgJpQ7aY9vpgaVTJpsELreZQPTQGzZFx4vYa-pVqflCj36LFnpuka7_AJdYCbR3YK9OVeIXVpxOeChZxOaJ6xhrkycWPT5EPdQwwZXph4qBKPRTUolL0_mDu4FwERqSn7QzR6-ysEh2Jd9CpauJfeSDYlr5YBlhRQSLSBWUxkmugcbT9L2hu6B8sioL_tpt5v3gQJNRthz2UrraJtKDE_n_u3]--></g></svg>