<?xml version="1.0" encoding="us-ascii" standalone="no"?><svg xmlns="http://www.w3.org/2000/svg" xmlns:xlink="http://www.w3.org/1999/xlink" contentStyleType="text/css" height="586px" preserveAspectRatio="none" style="width:1884px;height:586px;background:#FFFFFF;" version="1.1" viewBox="0 0 1884 586" width="1884px" zoomAndPan="magnify"><defs/><g><text fill="#000000" font-family="sans-serif" font-size="14" font-weight="bold" lengthAdjust="spacing" textLength="163" x="853.5" y="25.1074">US3004 - Share a Board</text><!--cluster HTTP--><g id="cluster_HTTP"><path d="M8.5,244.6348 L44.5,244.6348 A3.75,3.75 0 0 1 47,247.1348 L54,269.2559 L343.5,269.2559 A2.5,2.5 0 0 1 346,271.7559 L346,417.1348 A2.5,2.5 0 0 1 343.5,419.6348 L8.5,419.6348 A2.5,2.5 0 0 1 6,417.1348 L6,247.1348 A2.5,2.5 0 0 1 8.5,244.6348 " fill="none" style="stroke:#000000;stroke-width:1.5;"/><line style="stroke:#000000;stroke-width:1.5;" x1="6" x2="54" y1="269.2559" y2="269.2559"/><text fill="#000000" font-family="sans-serif" font-size="14" font-weight="bold" lengthAdjust="spacing" textLength="35" x="10" y="261.7422">HTTP</text></g><!--cluster boardmanagement--><g id="cluster_boardmanagement"><path d="M372.5,45.6348 L504.5,45.6348 A3.75,3.75 0 0 1 507,48.1348 L514,70.2559 L1847.5,70.2559 A2.5,2.5 0 0 1 1850,72.7559 L1850,432.1348 A2.5,2.5 0 0 1 1847.5,434.6348 L372.5,434.6348 A2.5,2.5 0 0 1 370,432.1348 L370,48.1348 A2.5,2.5 0 0 1 372.5,45.6348 " fill="none" style="stroke:#000000;stroke-width:1.5;"/><line style="stroke:#000000;stroke-width:1.5;" x1="370" x2="514" y1="70.2559" y2="70.2559"/><text fill="#000000" font-family="sans-serif" font-size="14" font-weight="bold" lengthAdjust="spacing" textLength="131" x="374" y="62.7422">boardmanagement</text></g><!--cluster Domain--><g id="cluster_Domain"><path d="M1582.5,276.6348 L1635.5,276.6348 A3.75,3.75 0 0 1 1638,279.1348 L1645,301.2559 L1823.5,301.2559 A2.5,2.5 0 0 1 1826,303.7559 L1826,395.1348 A2.5,2.5 0 0 1 1823.5,397.6348 L1582.5,397.6348 A2.5,2.5 0 0 1 1580,395.1348 L1580,279.1348 A2.5,2.5 0 0 1 1582.5,276.6348 " fill="none" style="stroke:#000000;stroke-width:1.5;"/><line style="stroke:#000000;stroke-width:1.5;" x1="1580" x2="1645" y1="301.2559" y2="301.2559"/><text fill="#000000" font-family="sans-serif" font-size="14" font-weight="bold" lengthAdjust="spacing" textLength="52" x="1584" y="293.7422">Domain</text></g><!--cluster Application--><g id="cluster_Application"><path d="M396.5,253.6348 L475.5,253.6348 A3.75,3.75 0 0 1 478,256.1348 L485,278.2559 L1445,278.2559 A2.5,2.5 0 0 1 1447.5,280.7559 L1447.5,408.1348 A2.5,2.5 0 0 1 1445,410.6348 L396.5,410.6348 A2.5,2.5 0 0 1 394,408.1348 L394,256.1348 A2.5,2.5 0 0 1 396.5,253.6348 " fill="none" style="stroke:#000000;stroke-width:1.5;"/><line style="stroke:#000000;stroke-width:1.5;" x1="394" x2="485" y1="278.2559" y2="278.2559"/><text fill="#000000" font-family="sans-serif" font-size="14" font-weight="bold" lengthAdjust="spacing" textLength="78" x="398" y="270.7422">Application</text></g><!--cluster repository--><g id="cluster_repository"><path d="M1002.5,90.6348 L1075.5,90.6348 A3.75,3.75 0 0 1 1078,93.1348 L1085,115.2559 L1498.5,115.2559 A2.5,2.5 0 0 1 1501,117.7559 L1501,227.1348 A2.5,2.5 0 0 1 1498.5,229.6348 L1002.5,229.6348 A2.5,2.5 0 0 1 1000,227.1348 L1000,93.1348 A2.5,2.5 0 0 1 1002.5,90.6348 " fill="none" style="stroke:#000000;stroke-width:1.5;"/><line style="stroke:#000000;stroke-width:1.5;" x1="1000" x2="1085" y1="115.2559" y2="115.2559"/><text fill="#000000" font-family="sans-serif" font-size="14" font-weight="bold" lengthAdjust="spacing" textLength="72" x="1004" y="107.7422">repository</text></g><!--cluster ecourseusermanagement--><g id="cluster_ecourseusermanagement"><path d="M1531.5,458.6348 L1712.5,458.6348 A3.75,3.75 0 0 1 1715,461.1348 L1722,483.2559 L1874.5,483.2559 A2.5,2.5 0 0 1 1877,485.7559 L1877,577.1348 A2.5,2.5 0 0 1 1874.5,579.6348 L1531.5,579.6348 A2.5,2.5 0 0 1 1529,577.1348 L1529,461.1348 A2.5,2.5 0 0 1 1531.5,458.6348 " fill="none" style="stroke:#000000;stroke-width:1.5;"/><line style="stroke:#000000;stroke-width:1.5;" x1="1529" x2="1722" y1="483.2559" y2="483.2559"/><text fill="#000000" font-family="sans-serif" font-size="14" font-weight="bold" lengthAdjust="spacing" textLength="180" x="1533" y="475.7422">ecourseusermanagement</text></g><!--class ShareBoardEndpointProcessor--><g id="elem_ShareBoardEndpointProcessor"><rect codeLine="10" fill="#F1F1F1" height="122.4844" id="ShareBoardEndpointProcessor" rx="2.5" ry="2.5" style="stroke:#181818;stroke-width:0.5;" width="308" x="22" y="281.6348"/><ellipse cx="73.75" cy="297.6348" fill="#ADD1B2" rx="11" ry="11" style="stroke:#181818;stroke-width:1.0;"/><path d="M76.5156,293.5098 Q76.6719,293.291 76.8594,293.1816 Q77.0469,293.0723 77.2656,293.0723 Q77.6406,293.0723 77.875,293.3379 Q78.1094,293.5879 78.1094,294.1973 L78.1094,295.6504 Q78.1094,296.2598 77.875,296.5254 Q77.6406,296.791 77.2656,296.791 Q76.9219,296.791 76.7188,296.5879 Q76.5156,296.4004 76.4063,295.8848 Q76.3594,295.5254 76.1719,295.3379 Q75.8438,294.9629 75.2344,294.7441 Q74.625,294.5254 74,294.5254 Q73.2344,294.5254 72.5938,294.8535 Q71.9688,295.1816 71.4688,295.9316 Q70.9844,296.6816 70.9844,297.7129 L70.9844,298.8066 Q70.9844,300.041 71.875,300.8691 Q72.7656,301.6816 74.3594,301.6816 Q75.2969,301.6816 75.9531,301.4316 Q76.3438,301.2754 76.7656,300.8379 Q77.0313,300.5723 77.1719,300.4941 Q77.3281,300.416 77.5313,300.416 Q77.8594,300.416 78.1094,300.6816 Q78.375,300.9316 78.375,301.2754 Q78.375,301.6191 78.0313,302.0254 Q77.5313,302.6035 76.7344,302.9316 Q75.6563,303.3848 74.3594,303.3848 Q72.8438,303.3848 71.6406,302.7598 Q70.6563,302.2598 69.9688,301.1973 Q69.2813,300.1191 69.2813,298.8379 L69.2813,297.6816 Q69.2813,296.3535 69.8906,295.2129 Q70.5156,294.0566 71.6094,293.4473 Q72.7031,292.8223 73.9375,292.8223 Q74.6719,292.8223 75.3125,292.9941 Q75.9688,293.1504 76.5156,293.5098 Z " fill="#000000"/><text fill="#000000" font-family="sans-serif" font-size="14" lengthAdjust="spacing" textLength="196" x="94.25" y="303.4316">ShareBoardEndpointProcessor</text><line style="stroke:#181818;stroke-width:0.5;" x1="23" x2="329" y1="313.6348" y2="313.6348"/><line style="stroke:#181818;stroke-width:0.5;" x1="23" x2="329" y1="321.6348" y2="321.6348"/><ellipse cx="33" cy="336.4453" fill="#84BE84" rx="3" ry="3" style="stroke:#038048;stroke-width:1.0;"/><text fill="#000000" font-family="sans-serif" font-size="14" lengthAdjust="spacing" textLength="266" x="42" y="340.7422">processRequest(request, response) : void</text><ellipse cx="33" cy="355.0664" fill="#84BE84" rx="3" ry="3" style="stroke:#038048;stroke-width:1.0;"/><text fill="#000000" font-family="sans-serif" font-size="14" lengthAdjust="spacing" textLength="223" x="42" y="359.3633">redirectAccordingToMethod() : void</text><ellipse cx="33" cy="373.6875" fill="#84BE84" rx="3" ry="3" style="stroke:#038048;stroke-width:1.0;"/><text fill="#000000" font-family="sans-serif" font-size="14" lengthAdjust="spacing" textLength="282" x="42" y="377.9844">getAvailableUsersToShareBoardWith() : void</text><ellipse cx="33" cy="392.3086" fill="#84BE84" rx="3" ry="3" style="stroke:#038048;stroke-width:1.0;"/><text fill="#000000" font-family="sans-serif" font-size="14" lengthAdjust="spacing" textLength="122" x="42" y="396.6055">shareBoard() : void</text></g><!--class Board--><g id="elem_Board"><rect codeLine="20" fill="#F1F1F1" height="66.6211" id="Board" rx="2.5" ry="2.5" style="stroke:#181818;stroke-width:0.5;" width="214" x="1596" y="314.1348"/><ellipse cx="1679.75" cy="330.1348" fill="#ADD1B2" rx="11" ry="11" style="stroke:#181818;stroke-width:1.0;"/><path d="M1682.5156,326.0098 Q1682.6719,325.791 1682.8594,325.6816 Q1683.0469,325.5723 1683.2656,325.5723 Q1683.6406,325.5723 1683.875,325.8379 Q1684.1094,326.0879 1684.1094,326.6973 L1684.1094,328.1504 Q1684.1094,328.7598 1683.875,329.0254 Q1683.6406,329.291 1683.2656,329.291 Q1682.9219,329.291 1682.7188,329.0879 Q1682.5156,328.9004 1682.4063,328.3848 Q1682.3594,328.0254 1682.1719,327.8379 Q1681.8438,327.4629 1681.2344,327.2441 Q1680.625,327.0254 1680,327.0254 Q1679.2344,327.0254 1678.5938,327.3535 Q1677.9688,327.6816 1677.4688,328.4316 Q1676.9844,329.1816 1676.9844,330.2129 L1676.9844,331.3066 Q1676.9844,332.541 1677.875,333.3691 Q1678.7656,334.1816 1680.3594,334.1816 Q1681.2969,334.1816 1681.9531,333.9316 Q1682.3438,333.7754 1682.7656,333.3379 Q1683.0313,333.0723 1683.1719,332.9941 Q1683.3281,332.916 1683.5313,332.916 Q1683.8594,332.916 1684.1094,333.1816 Q1684.375,333.4316 1684.375,333.7754 Q1684.375,334.1191 1684.0313,334.5254 Q1683.5313,335.1035 1682.7344,335.4316 Q1681.6563,335.8848 1680.3594,335.8848 Q1678.8438,335.8848 1677.6406,335.2598 Q1676.6563,334.7598 1675.9688,333.6973 Q1675.2813,332.6191 1675.2813,331.3379 L1675.2813,330.1816 Q1675.2813,328.8535 1675.8906,327.7129 Q1676.5156,326.5566 1677.6094,325.9473 Q1678.7031,325.3223 1679.9375,325.3223 Q1680.6719,325.3223 1681.3125,325.4941 Q1681.9688,325.6504 1682.5156,326.0098 Z " fill="#000000"/><text fill="#000000" font-family="sans-serif" font-size="14" lengthAdjust="spacing" textLength="38" x="1700.25" y="335.9316">Board</text><line style="stroke:#181818;stroke-width:0.5;" x1="1597" x2="1809" y1="346.1348" y2="346.1348"/><line style="stroke:#181818;stroke-width:0.5;" x1="1597" x2="1809" y1="354.1348" y2="354.1348"/><text fill="#000000" font-family="sans-serif" font-size="14" lengthAdjust="spacing" textLength="202" x="1602" y="373.2422">users() : List&lt;BoardPermission&gt;</text></g><!--class ShareBoardController--><g id="elem_ShareBoardController"><rect codeLine="26" fill="#F1F1F1" height="103.8633" id="ShareBoardController" rx="2.5" ry="2.5" style="stroke:#181818;stroke-width:0.5;" width="546" x="410" y="290.6348"/><ellipse cx="609.75" cy="306.6348" fill="#ADD1B2" rx="11" ry="11" style="stroke:#181818;stroke-width:1.0;"/><path d="M612.5156,302.5098 Q612.6719,302.291 612.8594,302.1816 Q613.0469,302.0723 613.2656,302.0723 Q613.6406,302.0723 613.875,302.3379 Q614.1094,302.5879 614.1094,303.1973 L614.1094,304.6504 Q614.1094,305.2598 613.875,305.5254 Q613.6406,305.791 613.2656,305.791 Q612.9219,305.791 612.7188,305.5879 Q612.5156,305.4004 612.4063,304.8848 Q612.3594,304.5254 612.1719,304.3379 Q611.8438,303.9629 611.2344,303.7441 Q610.625,303.5254 610,303.5254 Q609.2344,303.5254 608.5938,303.8535 Q607.9688,304.1816 607.4688,304.9316 Q606.9844,305.6816 606.9844,306.7129 L606.9844,307.8066 Q606.9844,309.041 607.875,309.8691 Q608.7656,310.6816 610.3594,310.6816 Q611.2969,310.6816 611.9531,310.4316 Q612.3438,310.2754 612.7656,309.8379 Q613.0313,309.5723 613.1719,309.4941 Q613.3281,309.416 613.5313,309.416 Q613.8594,309.416 614.1094,309.6816 Q614.375,309.9316 614.375,310.2754 Q614.375,310.6191 614.0313,311.0254 Q613.5313,311.6035 612.7344,311.9316 Q611.6563,312.3848 610.3594,312.3848 Q608.8438,312.3848 607.6406,311.7598 Q606.6563,311.2598 605.9688,310.1973 Q605.2813,309.1191 605.2813,307.8379 L605.2813,306.6816 Q605.2813,305.3535 605.8906,304.2129 Q606.5156,303.0566 607.6094,302.4473 Q608.7031,301.8223 609.9375,301.8223 Q610.6719,301.8223 611.3125,301.9941 Q611.9688,302.1504 612.5156,302.5098 Z " fill="#000000"/><text fill="#000000" font-family="sans-serif" font-size="14" lengthAdjust="spacing" textLength="138" x="630.25" y="312.4316">ShareBoardController</text><line style="stroke:#181818;stroke-width:0.5;" x1="411" x2="955" y1="322.6348" y2="322.6348"/><line style="stroke:#181818;stroke-width:0.5;" x1="411" x2="955" y1="330.6348" y2="330.6348"/><ellipse cx="421" cy="345.4453" fill="#84BE84" rx="3" ry="3" style="stroke:#038048;stroke-width:1.0;"/><text fill="#000000" font-family="sans-serif" font-size="14" lengthAdjust="spacing" textLength="520" x="430" y="349.7422">ShareBoardController(userRepository, boardPermissionHandler, boardRepository)</text><ellipse cx="421" cy="364.0664" fill="#84BE84" rx="3" ry="3" style="stroke:#038048;stroke-width:1.0;"/><text fill="#000000" font-family="sans-serif" font-size="14" lengthAdjust="spacing" textLength="430" x="430" y="368.3633">availableUsersToShareBoardWith(board, user) : List&lt;ECourseUser&gt;</text><ellipse cx="421" cy="382.6875" fill="#84BE84" rx="3" ry="3" style="stroke:#038048;stroke-width:1.0;"/><text fill="#000000" font-family="sans-serif" font-size="14" lengthAdjust="spacing" textLength="280" x="430" y="386.9844">shareBoard(board, userId, read, write) : void</text></g><!--class BoardPermissionHandler--><g id="elem_BoardPermissionHandler"><rect codeLine="32" fill="#F1F1F1" height="85.2422" id="BoardPermissionHandler" rx="2.5" ry="2.5" style="stroke:#181818;stroke-width:0.5;" width="362" x="1069.5" y="305.1348"/><ellipse cx="1168.25" cy="321.1348" fill="#ADD1B2" rx="11" ry="11" style="stroke:#181818;stroke-width:1.0;"/><path d="M1171.0156,317.0098 Q1171.1719,316.791 1171.3594,316.6816 Q1171.5469,316.5723 1171.7656,316.5723 Q1172.1406,316.5723 1172.375,316.8379 Q1172.6094,317.0879 1172.6094,317.6973 L1172.6094,319.1504 Q1172.6094,319.7598 1172.375,320.0254 Q1172.1406,320.291 1171.7656,320.291 Q1171.4219,320.291 1171.2188,320.0879 Q1171.0156,319.9004 1170.9063,319.3848 Q1170.8594,319.0254 1170.6719,318.8379 Q1170.3438,318.4629 1169.7344,318.2441 Q1169.125,318.0254 1168.5,318.0254 Q1167.7344,318.0254 1167.0938,318.3535 Q1166.4688,318.6816 1165.9688,319.4316 Q1165.4844,320.1816 1165.4844,321.2129 L1165.4844,322.3066 Q1165.4844,323.541 1166.375,324.3691 Q1167.2656,325.1816 1168.8594,325.1816 Q1169.7969,325.1816 1170.4531,324.9316 Q1170.8438,324.7754 1171.2656,324.3379 Q1171.5313,324.0723 1171.6719,323.9941 Q1171.8281,323.916 1172.0313,323.916 Q1172.3594,323.916 1172.6094,324.1816 Q1172.875,324.4316 1172.875,324.7754 Q1172.875,325.1191 1172.5313,325.5254 Q1172.0313,326.1035 1171.2344,326.4316 Q1170.1563,326.8848 1168.8594,326.8848 Q1167.3438,326.8848 1166.1406,326.2598 Q1165.1563,325.7598 1164.4688,324.6973 Q1163.7813,323.6191 1163.7813,322.3379 L1163.7813,321.1816 Q1163.7813,319.8535 1164.3906,318.7129 Q1165.0156,317.5566 1166.1094,316.9473 Q1167.2031,316.3223 1168.4375,316.3223 Q1169.1719,316.3223 1169.8125,316.4941 Q1170.4688,316.6504 1171.0156,317.0098 Z " fill="#000000"/><text fill="#000000" font-family="sans-serif" font-size="14" lengthAdjust="spacing" textLength="156" x="1188.75" y="326.9316">BoardPermissionHandler</text><line style="stroke:#181818;stroke-width:0.5;" x1="1070.5" x2="1430.5" y1="337.1348" y2="337.1348"/><line style="stroke:#181818;stroke-width:0.5;" x1="1070.5" x2="1430.5" y1="345.1348" y2="345.1348"/><ellipse cx="1080.5" cy="359.9453" fill="#84BE84" rx="3" ry="3" style="stroke:#038048;stroke-width:1.0;"/><text fill="#000000" font-family="sans-serif" font-size="14" lengthAdjust="spacing" textLength="254" x="1089.5" y="364.2422">BoardPermissionHandler(usersProvider)</text><ellipse cx="1080.5" cy="378.5664" fill="#84BE84" rx="3" ry="3" style="stroke:#038048;stroke-width:1.0;"/><text fill="#000000" font-family="sans-serif" font-size="14" lengthAdjust="spacing" textLength="336" x="1089.5" y="382.8633">handleBoardSharing(board, userId, read, write) : void</text></g><!--class BoardRepository--><g id="elem_BoardRepository"><rect codeLine="39" fill="#F1F1F1" height="85.2422" id="BoardRepository" rx="2.5" ry="2.5" style="stroke:#181818;stroke-width:0.5;" width="469" x="1016" y="128.1348"/><ellipse cx="1193.25" cy="144.1348" fill="#ADD1B2" rx="11" ry="11" style="stroke:#181818;stroke-width:1.0;"/><path d="M1196.0156,140.0098 Q1196.1719,139.791 1196.3594,139.6816 Q1196.5469,139.5723 1196.7656,139.5723 Q1197.1406,139.5723 1197.375,139.8379 Q1197.6094,140.0879 1197.6094,140.6973 L1197.6094,142.1504 Q1197.6094,142.7598 1197.375,143.0254 Q1197.1406,143.291 1196.7656,143.291 Q1196.4219,143.291 1196.2188,143.0879 Q1196.0156,142.9004 1195.9063,142.3848 Q1195.8594,142.0254 1195.6719,141.8379 Q1195.3438,141.4629 1194.7344,141.2441 Q1194.125,141.0254 1193.5,141.0254 Q1192.7344,141.0254 1192.0938,141.3535 Q1191.4688,141.6816 1190.9688,142.4316 Q1190.4844,143.1816 1190.4844,144.2129 L1190.4844,145.3066 Q1190.4844,146.541 1191.375,147.3691 Q1192.2656,148.1816 1193.8594,148.1816 Q1194.7969,148.1816 1195.4531,147.9316 Q1195.8438,147.7754 1196.2656,147.3379 Q1196.5313,147.0723 1196.6719,146.9941 Q1196.8281,146.916 1197.0313,146.916 Q1197.3594,146.916 1197.6094,147.1816 Q1197.875,147.4316 1197.875,147.7754 Q1197.875,148.1191 1197.5313,148.5254 Q1197.0313,149.1035 1196.2344,149.4316 Q1195.1563,149.8848 1193.8594,149.8848 Q1192.3438,149.8848 1191.1406,149.2598 Q1190.1563,148.7598 1189.4688,147.6973 Q1188.7813,146.6191 1188.7813,145.3379 L1188.7813,144.1816 Q1188.7813,142.8535 1189.3906,141.7129 Q1190.0156,140.5566 1191.1094,139.9473 Q1192.2031,139.3223 1193.4375,139.3223 Q1194.1719,139.3223 1194.8125,139.4941 Q1195.4688,139.6504 1196.0156,140.0098 Z " fill="#000000"/><text fill="#000000" font-family="sans-serif" font-size="14" lengthAdjust="spacing" textLength="106" x="1213.75" y="149.9316">BoardRepository</text><line style="stroke:#181818;stroke-width:0.5;" x1="1017" x2="1484" y1="160.1348" y2="160.1348"/><line style="stroke:#181818;stroke-width:0.5;" x1="1017" x2="1484" y1="168.1348" y2="168.1348"/><ellipse cx="1027" cy="182.9453" fill="#84BE84" rx="3" ry="3" style="stroke:#038048;stroke-width:1.0;"/><text fill="#000000" font-family="sans-serif" font-size="14" lengthAdjust="spacing" textLength="443" x="1036" y="187.2422">findAvailableUsersToShareBoardWith(board) : Iterable&lt;ECourseUser&gt;</text><ellipse cx="1027" cy="201.5664" fill="#84BE84" rx="3" ry="3" style="stroke:#038048;stroke-width:1.0;"/><text fill="#000000" font-family="sans-serif" font-size="14" lengthAdjust="spacing" textLength="115" x="1036" y="205.8633">save(board) : void</text></g><!--class IUsersProvider--><g id="elem_IUsersProvider"><rect codeLine="47" fill="#F1F1F1" height="66.6211" id="IUsersProvider" rx="2.5" ry="2.5" style="stroke:#181818;stroke-width:0.5;" width="316" x="1545" y="496.1348"/><ellipse cx="1652.25" cy="512.1348" fill="#B4A7E5" rx="11" ry="11" style="stroke:#181818;stroke-width:1.0;"/><path d="M1653.2031,508.7754 L1653.2031,515.4316 L1654.9219,515.4316 Q1655.5313,515.4316 1655.7969,515.666 Q1656.0625,515.9004 1656.0625,516.291 Q1656.0625,516.666 1655.7969,516.9004 Q1655.5313,517.1348 1654.9219,517.1348 L1649.7813,517.1348 Q1649.1719,517.1348 1648.9063,516.9004 Q1648.6406,516.666 1648.6406,516.2754 Q1648.6406,515.9004 1648.9063,515.666 Q1649.1719,515.4316 1649.7813,515.4316 L1651.5,515.4316 L1651.5,508.7754 L1649.7813,508.7754 Q1649.1719,508.7754 1648.9063,508.541 Q1648.6406,508.3066 1648.6406,507.916 Q1648.6406,507.541 1648.9063,507.3066 Q1649.1719,507.0723 1649.7813,507.0723 L1654.9219,507.0723 Q1655.5313,507.0723 1655.7969,507.3066 Q1656.0625,507.541 1656.0625,507.916 Q1656.0625,508.3066 1655.7969,508.541 Q1655.5313,508.7754 1654.9219,508.7754 L1653.2031,508.7754 Z " fill="#000000"/><text fill="#000000" font-family="sans-serif" font-size="14" font-style="italic" lengthAdjust="spacing" textLength="93" x="1672.75" y="517.9316">IUsersProvider</text><line style="stroke:#181818;stroke-width:0.5;" x1="1546" x2="1860" y1="528.1348" y2="528.1348"/><line style="stroke:#181818;stroke-width:0.5;" x1="1546" x2="1860" y1="536.1348" y2="536.1348"/><ellipse cx="1556" cy="550.9453" fill="#84BE84" rx="3" ry="3" style="stroke:#038048;stroke-width:1.0;"/><text fill="#000000" font-family="sans-serif" font-size="14" lengthAdjust="spacing" textLength="290" x="1565" y="555.2422">retrieveUserById(id) : Optional&lt;ECourseUser&gt;</text></g><!--link ShareBoardEndpointProcessor to ShareBoardController--><g id="link_ShareBoardEndpointProcessor_ShareBoardController"><path codeLine="52" d="M330.23,342.6348 C354.04,342.6348 379.25,342.6348 404.8,342.6348 " fill="none" id="ShareBoardEndpointProcessor-to-ShareBoardController" style="stroke:#181818;stroke-width:1.0;stroke-dasharray:7.0,7.0;"/><polygon fill="#181818" points="409.91,342.6348,400.91,338.6348,404.91,342.6348,400.91,346.6348,409.91,342.6348" style="stroke:#181818;stroke-width:1.0;"/></g><!--link BoardPermissionHandler to Board--><g id="link_BoardPermissionHandler_Board"><path codeLine="53" d="M1431.82,347.6348 C1485.46,347.6348 1542.65,347.6348 1590.54,347.6348 " fill="none" id="BoardPermissionHandler-to-Board" style="stroke:#181818;stroke-width:1.0;"/><polygon fill="#181818" points="1595.73,347.6348,1586.73,343.6348,1590.73,347.6348,1586.73,351.6348,1595.73,347.6348" style="stroke:#181818;stroke-width:1.0;"/></g><!--link ShareBoardController to BoardRepository--><g id="link_ShareBoardController_BoardRepository"><path codeLine="54" d="M855.2,290.5648 C934.89,266.3248 1028.65,237.8048 1104.74,214.6648 " fill="none" id="ShareBoardController-to-BoardRepository" style="stroke:#181818;stroke-width:1.0;"/><polygon fill="#181818" points="1109.73,213.1448,1099.9551,211.9397,1104.9468,214.6011,1102.2853,219.5928,1109.73,213.1448" style="stroke:#181818;stroke-width:1.0;"/></g><!--link ShareBoardController to BoardPermissionHandler--><g id="link_ShareBoardController_BoardPermissionHandler"><path codeLine="55" d="M956.4,345.0448 C992.91,345.3648 1029.65,345.6948 1064.18,345.9948 " fill="none" id="ShareBoardController-to-BoardPermissionHandler" style="stroke:#181818;stroke-width:1.0;"/><polygon fill="#181818" points="1069.26,346.0448,1060.2946,341.9678,1064.2602,346.0019,1060.226,349.9675,1069.26,346.0448" style="stroke:#181818;stroke-width:1.0;"/></g><!--link BoardPermissionHandler to IUsersProvider--><g id="link_BoardPermissionHandler_IUsersProvider"><path codeLine="56" d="M1356.84,390.1948 C1435.08,421.8048 1540.57,464.4148 1614.26,494.1848 " fill="none" id="BoardPermissionHandler-to-IUsersProvider" style="stroke:#181818;stroke-width:1.0;"/><polygon fill="#181818" points="1619.06,496.1248,1612.2156,489.0428,1614.4246,494.2506,1609.2168,496.4595,1619.06,496.1248" style="stroke:#181818;stroke-width:1.0;"/></g><!--SRC=[ZLJTQzim47_NNt6FAKjAONiQ8v1sXGOs5jA4FL-jIomgIzv9SIcX__iakVL7xARrGs9ylxlVXyxsock2xVtNgwjlC8Fx79a0uTeYIo7Sep8bCXRWSfJsIPazx50x4aBJpeEtm6gVUv2AAVFA6Y5Ap1vnJt2tsQpWA0I4AzFeN3qyJRurihJA-1NRZ9op782GhYzGri_MzEz0pa-u_fy2aokjSNG1tw6oIZODJ3Nx8iiioo1nOt-JpwsS3A1xyeiAbSO7JLj7x3Qs5VLN-NpOuffwl_OYNbgl3x5Ue0dt1HaVtBnLVje2bJbsKaYptkm27AACDFgNSlv7ggw82-LSY7C-v5gKfLOPnh3XE9hkZJMUhTRKnXgTZ04caNvDfNNAMtwUravQ_ZiqCi1UdxV0YyvSF9zewfmcdutBsnjxO9SQvfr9dQmxNKiP3n_3xnChJoUdS9hiG7ilWt58Ii65PQoK32ex-3m1KbUq5PRhyyewPyPDS8DDM9-KQjwTCdBnYLmZvT8JHzYxgM95BRedi2EHijGSRRMBN4iABohn3ZE2vRORL2zP9i-AgiH-_RoK4vNe_fHnKL4FnINsSv-4oylvwCwATyvvDfk_VhT6NuMct2R-0N10SOwv7uqGuZy0]--></g></svg>