<?xml version="1.0" encoding="us-ascii" standalone="no"?><svg xmlns="http://www.w3.org/2000/svg" xmlns:xlink="http://www.w3.org/1999/xlink" contentStyleType="text/css" height="786.1px" preserveAspectRatio="none" style="width:1332px;height:786px;background:#FFFFFF;" version="1.1" viewBox="0 0 1332 786" width="1332.1px" zoomAndPan="magnify"><defs/><g><text fill="#000000" font-family="sans-serif" font-size="9.8" font-weight="bold" lengthAdjust="spacing" textLength="114.8" x="608.125" y="21.0752">US3010 - Archive Board</text><rect fill="#FFFFFF" height="612.6039" style="stroke:#181818;stroke-width:0.6999999999999998;" width="7" x="170.45" y="109.5732"/><rect fill="#FFFFFF" height="546.8928" style="stroke:#181818;stroke-width:0.6999999999999998;" width="7" x="281.75" y="175.2844"/><rect fill="#FFFFFF" height="21.9037" style="stroke:#181818;stroke-width:0.6999999999999998;" width="7" x="441.35" y="197.1881"/><rect fill="#FFFFFF" height="21.9037" style="stroke:#181818;stroke-width:0.6999999999999998;" width="7" x="441.35" y="509.6437"/><rect fill="#FFFFFF" height="156.826" style="stroke:#181818;stroke-width:0.6999999999999998;" width="7" x="585.55" y="240.9955"/><rect fill="#FFFFFF" height="140.5223" style="stroke:#181818;stroke-width:0.6999999999999998;" width="7" x="585.55" y="553.4512"/><rect fill="#FFFFFF" height="21.9037" style="stroke:#181818;stroke-width:0.6999999999999998;" width="7" x="836.15" y="323.0104"/><rect fill="#FFFFFF" height="65.7111" style="stroke:#181818;stroke-width:0.6999999999999998;" width="7" x="836.15" y="575.3549"/><rect fill="#FFFFFF" height="21.9037" style="stroke:#181818;stroke-width:0.6999999999999998;" width="7" x="1055.95" y="597.2586"/><line style="stroke:#181818;stroke-width:0.3499999999999999;stroke-dasharray:5.0,5.0;" x1="15.4" x2="15.4" y1="86.2695" y2="728.4771"/><line style="stroke:#181818;stroke-width:0.3499999999999999;stroke-dasharray:5.0,5.0;" x1="173.6" x2="173.6" y1="86.2695" y2="728.4771"/><line style="stroke:#181818;stroke-width:0.3499999999999999;stroke-dasharray:5.0,5.0;" x1="284.9" x2="284.9" y1="86.2695" y2="728.4771"/><line style="stroke:#181818;stroke-width:0.3499999999999999;stroke-dasharray:5.0,5.0;" x1="444.85" x2="444.85" y1="86.2695" y2="728.4771"/><line style="stroke:#181818;stroke-width:0.3499999999999999;stroke-dasharray:5.0,5.0;" x1="589.05" x2="589.05" y1="86.2695" y2="728.4771"/><line style="stroke:#181818;stroke-width:0.3499999999999999;stroke-dasharray:5.0,5.0;" x1="839.65" x2="839.65" y1="86.2695" y2="728.4771"/><line style="stroke:#181818;stroke-width:0.3499999999999999;stroke-dasharray:5.0,5.0;" x1="1059.45" x2="1059.45" y1="86.2695" y2="728.4771"/><line style="stroke:#181818;stroke-width:0.3499999999999999;stroke-dasharray:5.0,5.0;" x1="1209.95" x2="1209.95" y1="86.2695" y2="728.4771"/><line style="stroke:#181818;stroke-width:0.3499999999999999;stroke-dasharray:5.0,5.0;" x1="1286.25" x2="1286.25" y1="86.2695" y2="728.4771"/><text fill="#000000" font-family="sans-serif" font-size="9.8" lengthAdjust="spacing" textLength="20.3" x="3.5" y="83.81">User</text><ellipse cx="15.75" cy="37.1848" fill="#E2E2F0" rx="5.6" ry="5.6" style="stroke:#181818;stroke-width:0.3499999999999999;"/><path d="M15.75,42.7848 L15.75,61.6848 M6.65,48.3848 L24.85,48.3848 M15.75,61.6848 L6.65,72.1848 M15.75,61.6848 L24.85,72.1848 " fill="none" style="stroke:#181818;stroke-width:0.3499999999999999;"/><text fill="#000000" font-family="sans-serif" font-size="9.8" lengthAdjust="spacing" textLength="20.3" x="3.5" y="738.3523">User</text><ellipse cx="15.75" cy="746.7619" fill="#E2E2F0" rx="5.6" ry="5.6" style="stroke:#181818;stroke-width:0.3499999999999999;"/><path d="M15.75,752.3619 L15.75,771.2619 M6.65,757.9619 L24.85,757.9619 M15.75,771.2619 L6.65,781.7619 M15.75,771.2619 L24.85,781.7619 " fill="none" style="stroke:#181818;stroke-width:0.3499999999999999;"/><rect fill="#E2E2F0" height="35.8695" rx="1.75" ry="1.75" style="stroke:#181818;stroke-width:0.3499999999999999;" width="45.5" x="151.2" y="49.7"/><text fill="#000000" font-family="sans-serif" font-size="9.8" font-style="italic" lengthAdjust="spacing" textLength="21" x="163.45" y="65.1752">&#171;UI&#187;</text><text fill="#000000" font-family="sans-serif" font-size="9.8" lengthAdjust="spacing" textLength="35.7" x="156.1" y="78.21">Browser</text><rect fill="#E2E2F0" height="35.8695" rx="1.75" ry="1.75" style="stroke:#181818;stroke-width:0.3499999999999999;" width="45.5" x="151.2" y="727.7771"/><text fill="#000000" font-family="sans-serif" font-size="9.8" font-style="italic" lengthAdjust="spacing" textLength="21" x="163.45" y="743.2523">&#171;UI&#187;</text><text fill="#000000" font-family="sans-serif" font-size="9.8" lengthAdjust="spacing" textLength="35.7" x="156.1" y="756.2871">Browser</text><rect fill="#E2E2F0" height="35.8695" rx="1.75" ry="1.75" style="stroke:#181818;stroke-width:0.3499999999999999;" width="98.7" x="235.9" y="49.7"/><text fill="#000000" font-family="sans-serif" font-size="9.8" font-style="italic" lengthAdjust="spacing" textLength="37.1" x="266.7" y="65.1752">&#171;HTTP&#187;</text><text fill="#000000" font-family="sans-serif" font-size="9.8" lengthAdjust="spacing" textLength="88.9" x="240.8" y="78.21">HttpRequestHandler</text><rect fill="#E2E2F0" height="35.8695" rx="1.75" ry="1.75" style="stroke:#181818;stroke-width:0.3499999999999999;" width="98.7" x="235.9" y="727.7771"/><text fill="#000000" font-family="sans-serif" font-size="9.8" font-style="italic" lengthAdjust="spacing" textLength="37.1" x="266.7" y="743.2523">&#171;HTTP&#187;</text><text fill="#000000" font-family="sans-serif" font-size="9.8" lengthAdjust="spacing" textLength="88.9" x="240.8" y="756.2871">HttpRequestHandler</text><rect fill="#E2E2F0" height="35.8695" rx="1.75" ry="1.75" style="stroke:#181818;stroke-width:0.3499999999999999;" width="127.4" x="381.15" y="49.7"/><text fill="#000000" font-family="sans-serif" font-size="9.8" font-style="italic" lengthAdjust="spacing" textLength="37.1" x="426.3" y="65.1752">&#171;HTTP&#187;</text><text fill="#000000" font-family="sans-serif" font-size="9.8" lengthAdjust="spacing" textLength="117.6" x="386.05" y="78.21">EndpointProcessorFactory</text><rect fill="#E2E2F0" height="35.8695" rx="1.75" ry="1.75" style="stroke:#181818;stroke-width:0.3499999999999999;" width="127.4" x="381.15" y="727.7771"/><text fill="#000000" font-family="sans-serif" font-size="9.8" font-style="italic" lengthAdjust="spacing" textLength="37.1" x="426.3" y="743.2523">&#171;HTTP&#187;</text><text fill="#000000" font-family="sans-serif" font-size="9.8" lengthAdjust="spacing" textLength="117.6" x="386.05" y="756.2871">EndpointProcessorFactory</text><rect fill="#E2E2F0" height="35.8695" rx="1.75" ry="1.75" style="stroke:#181818;stroke-width:0.3499999999999999;" width="147" x="515.55" y="49.7"/><text fill="#000000" font-family="sans-serif" font-size="9.8" font-style="italic" lengthAdjust="spacing" textLength="37.1" x="570.5" y="65.1752">&#171;HTTP&#187;</text><text fill="#000000" font-family="sans-serif" font-size="9.8" lengthAdjust="spacing" textLength="137.2" x="520.45" y="78.21">ShareBoardEndpointProcessor</text><rect fill="#E2E2F0" height="35.8695" rx="1.75" ry="1.75" style="stroke:#181818;stroke-width:0.3499999999999999;" width="147" x="515.55" y="727.7771"/><text fill="#000000" font-family="sans-serif" font-size="9.8" font-style="italic" lengthAdjust="spacing" textLength="37.1" x="570.5" y="743.2523">&#171;HTTP&#187;</text><text fill="#000000" font-family="sans-serif" font-size="9.8" lengthAdjust="spacing" textLength="137.2" x="520.45" y="756.2871">ShareBoardEndpointProcessor</text><rect fill="#E2E2F0" height="35.8695" rx="1.75" ry="1.75" style="stroke:#181818;stroke-width:0.3499999999999999;" width="106.4" x="786.45" y="49.7"/><text fill="#000000" font-family="sans-serif" font-size="9.8" font-style="italic" lengthAdjust="spacing" textLength="59.5" x="809.9" y="65.1752">&#171;Application&#187;</text><text fill="#000000" font-family="sans-serif" font-size="9.8" lengthAdjust="spacing" textLength="96.6" x="791.35" y="78.21">ShareBoardController</text><rect fill="#E2E2F0" height="35.8695" rx="1.75" ry="1.75" style="stroke:#181818;stroke-width:0.3499999999999999;" width="106.4" x="786.45" y="727.7771"/><text fill="#000000" font-family="sans-serif" font-size="9.8" font-style="italic" lengthAdjust="spacing" textLength="59.5" x="809.9" y="743.2523">&#171;Application&#187;</text><text fill="#000000" font-family="sans-serif" font-size="9.8" lengthAdjust="spacing" textLength="96.6" x="791.35" y="756.2871">ShareBoardController</text><rect fill="#E2E2F0" height="35.8695" rx="1.75" ry="1.75" style="stroke:#181818;stroke-width:0.3499999999999999;" width="119" x="999.95" y="49.7"/><text fill="#000000" font-family="sans-serif" font-size="9.8" font-style="italic" lengthAdjust="spacing" textLength="43.4" x="1037.75" y="65.1752">&#171;Service&#187;</text><text fill="#000000" font-family="sans-serif" font-size="9.8" lengthAdjust="spacing" textLength="109.2" x="1004.85" y="78.21">BoardPermissionHandler</text><rect fill="#E2E2F0" height="35.8695" rx="1.75" ry="1.75" style="stroke:#181818;stroke-width:0.3499999999999999;" width="119" x="999.95" y="727.7771"/><text fill="#000000" font-family="sans-serif" font-size="9.8" font-style="italic" lengthAdjust="spacing" textLength="43.4" x="1037.75" y="743.2523">&#171;Service&#187;</text><text fill="#000000" font-family="sans-serif" font-size="9.8" lengthAdjust="spacing" textLength="109.2" x="1004.85" y="756.2871">BoardPermissionHandler</text><rect fill="#E2E2F0" height="35.8695" rx="1.75" ry="1.75" style="stroke:#181818;stroke-width:0.3499999999999999;" width="54.6" x="1182.65" y="49.7"/><text fill="#000000" font-family="sans-serif" font-size="9.8" font-style="italic" lengthAdjust="spacing" textLength="44.8" x="1187.55" y="65.1752">&#171;Domain&#187;</text><text fill="#000000" font-family="sans-serif" font-size="9.8" lengthAdjust="spacing" textLength="26.6" x="1196.65" y="78.21">Board</text><rect fill="#E2E2F0" height="35.8695" rx="1.75" ry="1.75" style="stroke:#181818;stroke-width:0.3499999999999999;" width="54.6" x="1182.65" y="727.7771"/><text fill="#000000" font-family="sans-serif" font-size="9.8" font-style="italic" lengthAdjust="spacing" textLength="44.8" x="1187.55" y="743.2523">&#171;Domain&#187;</text><text fill="#000000" font-family="sans-serif" font-size="9.8" lengthAdjust="spacing" textLength="26.6" x="1196.65" y="756.2871">Board</text><rect fill="#E2E2F0" height="35.8695" rx="1.75" ry="1.75" style="stroke:#181818;stroke-width:0.3499999999999999;" width="84" x="1244.25" y="49.7"/><text fill="#000000" font-family="sans-serif" font-size="9.8" font-style="italic" lengthAdjust="spacing" textLength="58.8" x="1256.85" y="65.1752">&#171;Repository&#187;</text><text fill="#000000" font-family="sans-serif" font-size="9.8" lengthAdjust="spacing" textLength="74.2" x="1249.15" y="78.21">BoardRepository</text><rect fill="#E2E2F0" height="35.8695" rx="1.75" ry="1.75" style="stroke:#181818;stroke-width:0.3499999999999999;" width="84" x="1244.25" y="727.7771"/><text fill="#000000" font-family="sans-serif" font-size="9.8" font-style="italic" lengthAdjust="spacing" textLength="58.8" x="1256.85" y="743.2523">&#171;Repository&#187;</text><text fill="#000000" font-family="sans-serif" font-size="9.8" lengthAdjust="spacing" textLength="74.2" x="1249.15" y="756.2871">BoardRepository</text><rect fill="#FFFFFF" height="612.6039" style="stroke:#181818;stroke-width:0.6999999999999998;" width="7" x="170.45" y="109.5732"/><rect fill="#FFFFFF" height="546.8928" style="stroke:#181818;stroke-width:0.6999999999999998;" width="7" x="281.75" y="175.2844"/><rect fill="#FFFFFF" height="21.9037" style="stroke:#181818;stroke-width:0.6999999999999998;" width="7" x="441.35" y="197.1881"/><rect fill="#FFFFFF" height="21.9037" style="stroke:#181818;stroke-width:0.6999999999999998;" width="7" x="441.35" y="509.6437"/><rect fill="#FFFFFF" height="156.826" style="stroke:#181818;stroke-width:0.6999999999999998;" width="7" x="585.55" y="240.9955"/><rect fill="#FFFFFF" height="140.5223" style="stroke:#181818;stroke-width:0.6999999999999998;" width="7" x="585.55" y="553.4512"/><rect fill="#FFFFFF" height="21.9037" style="stroke:#181818;stroke-width:0.6999999999999998;" width="7" x="836.15" y="323.0104"/><rect fill="#FFFFFF" height="65.7111" style="stroke:#181818;stroke-width:0.6999999999999998;" width="7" x="836.15" y="575.3549"/><rect fill="#FFFFFF" height="21.9037" style="stroke:#181818;stroke-width:0.6999999999999998;" width="7" x="1055.95" y="597.2586"/><polygon fill="#181818" points="162.05,106.7732,169.05,109.5732,162.05,112.3732,164.85,109.5732" style="stroke:#181818;stroke-width:0.6999999999999998;"/><line style="stroke:#181818;stroke-width:0.6999999999999998;stroke-dasharray:2.0,2.0;" x1="15.75" x2="166.25" y1="109.5732" y2="109.5732"/><text fill="#000000" font-family="sans-serif" font-size="9.1" font-weight="bold" lengthAdjust="spacing" textLength="4.9" x="20.65" y="105.8894">1</text><text fill="#000000" font-family="sans-serif" font-size="9.1" lengthAdjust="spacing" textLength="93.8" x="28.35" y="105.8894">asks to archive a board</text><polygon fill="#181818" points="23.45,128.677,16.45,131.477,23.45,134.277,20.65,131.477" style="stroke:#181818;stroke-width:0.6999999999999998;"/><line style="stroke:#181818;stroke-width:0.6999999999999998;stroke-dasharray:2.0,2.0;" x1="19.25" x2="169.75" y1="131.477" y2="131.477"/><text fill="#000000" font-family="sans-serif" font-size="9.1" font-weight="bold" lengthAdjust="spacing" textLength="4.9" x="27.65" y="127.7931">2</text><text fill="#000000" font-family="sans-serif" font-size="9.1" lengthAdjust="spacing" textLength="89.6" x="35.35" y="127.7931">asks to confirm action</text><polygon fill="#181818" points="162.05,150.5807,169.05,153.3807,162.05,156.1807,164.85,153.3807" style="stroke:#181818;stroke-width:0.6999999999999998;"/><line style="stroke:#181818;stroke-width:0.6999999999999998;stroke-dasharray:2.0,2.0;" x1="15.75" x2="166.25" y1="153.3807" y2="153.3807"/><text fill="#000000" font-family="sans-serif" font-size="9.1" font-weight="bold" lengthAdjust="spacing" textLength="4.9" x="20.65" y="149.6968">3</text><text fill="#000000" font-family="sans-serif" font-size="9.1" lengthAdjust="spacing" textLength="61.6" x="28.35" y="149.6968">confirms action</text><polygon fill="#181818" points="273.35,172.4844,280.35,175.2844,273.35,178.0844,276.15,175.2844" style="stroke:#181818;stroke-width:0.6999999999999998;"/><line style="stroke:#181818;stroke-width:0.6999999999999998;" x1="177.45" x2="277.55" y1="175.2844" y2="175.2844"/><text fill="#000000" font-family="sans-serif" font-size="9.1" font-weight="bold" lengthAdjust="spacing" textLength="4.9" x="182.35" y="171.6005">4</text><text fill="#000000" font-family="sans-serif" font-size="9.1" lengthAdjust="spacing" textLength="68.6" x="190.05" y="171.6005">GET /shareboard</text><polygon fill="#181818" points="432.95,194.3881,439.95,197.1881,432.95,199.9881,435.75,197.1881" style="stroke:#181818;stroke-width:0.6999999999999998;"/><line style="stroke:#181818;stroke-width:0.6999999999999998;" x1="288.75" x2="437.15" y1="197.1881" y2="197.1881"/><text fill="#000000" font-family="sans-serif" font-size="9.1" font-weight="bold" lengthAdjust="spacing" textLength="4.9" x="293.65" y="193.5042">5</text><text fill="#000000" font-family="sans-serif" font-size="9.1" lengthAdjust="spacing" textLength="125.3" x="301.35" y="193.5042">getEndpointProcessor(request)</text><polygon fill="#181818" points="296.45,216.2918,289.45,219.0918,296.45,221.8918,293.65,219.0918" style="stroke:#181818;stroke-width:0.6999999999999998;"/><line style="stroke:#181818;stroke-width:0.6999999999999998;" x1="292.25" x2="444.15" y1="219.0918" y2="219.0918"/><text fill="#000000" font-family="sans-serif" font-size="9.1" font-weight="bold" lengthAdjust="spacing" textLength="4.9" x="300.65" y="215.4079">6</text><text fill="#000000" font-family="sans-serif" font-size="9.1" lengthAdjust="spacing" textLength="123.2" x="308.35" y="215.4079">shareBoardEndpointProcessor</text><polygon fill="#181818" points="577.15,238.1955,584.15,240.9955,577.15,243.7955,579.95,240.9955" style="stroke:#181818;stroke-width:0.6999999999999998;"/><line style="stroke:#181818;stroke-width:0.6999999999999998;" x1="288.75" x2="581.35" y1="240.9955" y2="240.9955"/><text fill="#000000" font-family="sans-serif" font-size="9.1" font-weight="bold" lengthAdjust="spacing" textLength="4.9" x="293.65" y="237.3116">7</text><text fill="#000000" font-family="sans-serif" font-size="9.1" lengthAdjust="spacing" textLength="101.5" x="301.35" y="237.3116">processRequest(request)</text><polygon fill="#181818" points="831.25,260.0992,838.25,262.8992,831.25,265.6992,834.05,262.8992" style="stroke:#181818;stroke-width:0.6999999999999998;"/><line style="stroke:#181818;stroke-width:0.6999999999999998;" x1="592.55" x2="835.45" y1="262.8992" y2="262.8992"/><text fill="#000000" font-family="sans-serif" font-size="9.1" font-weight="bold" lengthAdjust="spacing" textLength="4.9" x="597.45" y="259.2153">8</text><text fill="#000000" font-family="sans-serif" font-size="9.1" lengthAdjust="spacing" textLength="222.6" x="605.15" y="259.2153">create(userRepo, boardPermissionHandler ,boardRepo)</text><path d="M455.7,271.9992 L455.7,302.7992 L722.4,302.7992 L722.4,278.9992 L715.4,271.9992 L455.7,271.9992 " fill="#FEFFDD" style="stroke:#181818;stroke-width:0.3499999999999999;"/><path d="M715.4,271.9992 L715.4,278.9992 L722.4,278.9992 L715.4,271.9992 " fill="#FEFFDD" style="stroke:#181818;stroke-width:0.3499999999999999;"/><text fill="#000000" font-family="sans-serif" font-size="9.1" lengthAdjust="spacing" textLength="242.9" x="459.9" y="285.319">The user is sent by a token that identifies him in the system</text><text fill="#000000" font-family="sans-serif" font-size="9.1" lengthAdjust="spacing" textLength="252" x="459.9" y="297.4228">and the board is sent by its ID (check US3005 documentation)</text><polygon fill="#181818" points="827.75,320.2104,834.75,323.0104,827.75,325.8104,830.55,323.0104" style="stroke:#181818;stroke-width:0.6999999999999998;"/><line style="stroke:#181818;stroke-width:0.6999999999999998;" x1="592.55" x2="831.95" y1="323.0104" y2="323.0104"/><text fill="#000000" font-family="sans-serif" font-size="9.1" font-weight="bold" lengthAdjust="spacing" textLength="4.9" x="597.45" y="319.3265">9</text><text fill="#000000" font-family="sans-serif" font-size="9.1" lengthAdjust="spacing" textLength="185.5" x="605.15" y="319.3265">availableUsersToShareBoardWith(board, user)</text><polygon fill="#181818" points="600.25,342.1141,593.25,344.9141,600.25,347.7141,597.45,344.9141" style="stroke:#181818;stroke-width:0.6999999999999998;"/><line style="stroke:#181818;stroke-width:0.6999999999999998;" x1="596.05" x2="838.95" y1="344.9141" y2="344.9141"/><text fill="#000000" font-family="sans-serif" font-size="9.1" font-weight="bold" lengthAdjust="spacing" textLength="9.8" x="604.45" y="341.2302">10</text><text fill="#000000" font-family="sans-serif" font-size="9.1" lengthAdjust="spacing" textLength="22.4" x="617.05" y="341.2302">users</text><line style="stroke:#181818;stroke-width:0.6999999999999998;" x1="592.55" x2="621.95" y1="366.8178" y2="366.8178"/><line style="stroke:#181818;stroke-width:0.6999999999999998;" x1="621.95" x2="621.95" y1="366.8178" y2="375.9178"/><line style="stroke:#181818;stroke-width:0.6999999999999998;" x1="593.25" x2="621.95" y1="375.9178" y2="375.9178"/><polygon fill="#181818" points="600.25,373.1178,593.25,375.9178,600.25,378.7178,597.45,375.9178" style="stroke:#181818;stroke-width:0.6999999999999998;"/><text fill="#000000" font-family="sans-serif" font-size="9.1" font-weight="bold" lengthAdjust="spacing" textLength="9.8" x="597.45" y="363.1339">11</text><text fill="#000000" font-family="sans-serif" font-size="9.1" lengthAdjust="spacing" textLength="58.8" x="610.05" y="363.1339">setResponse()</text><polygon fill="#181818" points="185.15,395.0215,178.15,397.8215,185.15,400.6215,182.35,397.8215" style="stroke:#181818;stroke-width:0.6999999999999998;"/><line style="stroke:#181818;stroke-width:0.6999999999999998;" x1="180.95" x2="281.05" y1="397.8215" y2="397.8215"/><text fill="#000000" font-family="sans-serif" font-size="9.1" font-weight="bold" lengthAdjust="spacing" textLength="9.8" x="189.35" y="394.1376">12</text><text fill="#000000" font-family="sans-serif" font-size="9.1" lengthAdjust="spacing" textLength="37.1" x="201.95" y="394.1376">response</text><polygon fill="#181818" points="23.45,441.1326,16.45,443.9326,23.45,446.7326,20.65,443.9326" style="stroke:#181818;stroke-width:0.6999999999999998;"/><line style="stroke:#181818;stroke-width:0.6999999999999998;stroke-dasharray:2.0,2.0;" x1="19.25" x2="169.75" y1="443.9326" y2="443.9326"/><text fill="#000000" font-family="sans-serif" font-size="9.1" font-weight="bold" lengthAdjust="spacing" textLength="9.8" x="27.65" y="428.145">13</text><text fill="#000000" font-family="sans-serif" font-size="9.1" lengthAdjust="spacing" textLength="112.7" x="40.25" y="416.0413">shows list of available users</text><text fill="#000000" font-family="sans-serif" font-size="9.1" lengthAdjust="spacing" textLength="125.3" x="40.25" y="428.145">and asks to select at least one</text><text fill="#000000" font-family="sans-serif" font-size="9.1" lengthAdjust="spacing" textLength="110.6" x="43.05" y="440.2487">and the permissions to give</text><polygon fill="#181818" points="162.05,463.0363,169.05,465.8363,162.05,468.6363,164.85,465.8363" style="stroke:#181818;stroke-width:0.6999999999999998;"/><line style="stroke:#181818;stroke-width:0.6999999999999998;stroke-dasharray:2.0,2.0;" x1="15.75" x2="166.25" y1="465.8363" y2="465.8363"/><text fill="#000000" font-family="sans-serif" font-size="9.1" font-weight="bold" lengthAdjust="spacing" textLength="9.8" x="20.65" y="462.1524">14</text><text fill="#000000" font-family="sans-serif" font-size="9.1" lengthAdjust="spacing" textLength="123.9" x="33.25" y="462.1524">selects users and permissions</text><polygon fill="#181818" points="273.35,484.94,280.35,487.74,273.35,490.54,276.15,487.74" style="stroke:#181818;stroke-width:0.6999999999999998;"/><line style="stroke:#181818;stroke-width:0.6999999999999998;" x1="177.45" x2="277.55" y1="487.74" y2="487.74"/><text fill="#000000" font-family="sans-serif" font-size="9.1" font-weight="bold" lengthAdjust="spacing" textLength="9.8" x="182.35" y="484.0562">15</text><text fill="#000000" font-family="sans-serif" font-size="9.1" lengthAdjust="spacing" textLength="74.9" x="194.95" y="484.0562">POST /shareboard</text><polygon fill="#181818" points="432.95,506.8437,439.95,509.6437,432.95,512.4437,435.75,509.6437" style="stroke:#181818;stroke-width:0.6999999999999998;"/><line style="stroke:#181818;stroke-width:0.6999999999999998;" x1="288.75" x2="437.15" y1="509.6437" y2="509.6437"/><text fill="#000000" font-family="sans-serif" font-size="9.1" font-weight="bold" lengthAdjust="spacing" textLength="9.8" x="293.65" y="505.9599">16</text><text fill="#000000" font-family="sans-serif" font-size="9.1" lengthAdjust="spacing" textLength="125.3" x="306.25" y="505.9599">getEndpointProcessor(request)</text><polygon fill="#181818" points="296.45,528.7475,289.45,531.5475,296.45,534.3475,293.65,531.5475" style="stroke:#181818;stroke-width:0.6999999999999998;"/><line style="stroke:#181818;stroke-width:0.6999999999999998;" x1="292.25" x2="444.15" y1="531.5475" y2="531.5475"/><text fill="#000000" font-family="sans-serif" font-size="9.1" font-weight="bold" lengthAdjust="spacing" textLength="9.8" x="300.65" y="527.8636">17</text><text fill="#000000" font-family="sans-serif" font-size="9.1" lengthAdjust="spacing" textLength="123.2" x="313.25" y="527.8636">shareBoardEndpointProcessor</text><polygon fill="#181818" points="577.15,550.6512,584.15,553.4512,577.15,556.2512,579.95,553.4512" style="stroke:#181818;stroke-width:0.6999999999999998;"/><line style="stroke:#181818;stroke-width:0.6999999999999998;" x1="288.75" x2="581.35" y1="553.4512" y2="553.4512"/><text fill="#000000" font-family="sans-serif" font-size="9.1" font-weight="bold" lengthAdjust="spacing" textLength="9.8" x="293.65" y="549.7673">18</text><text fill="#000000" font-family="sans-serif" font-size="9.1" lengthAdjust="spacing" textLength="101.5" x="306.25" y="549.7673">processRequest(request)</text><polygon fill="#181818" points="827.75,572.5549,834.75,575.3549,827.75,578.1549,830.55,575.3549" style="stroke:#181818;stroke-width:0.6999999999999998;"/><line style="stroke:#181818;stroke-width:0.6999999999999998;" x1="592.55" x2="831.95" y1="575.3549" y2="575.3549"/><text fill="#000000" font-family="sans-serif" font-size="9.1" font-weight="bold" lengthAdjust="spacing" textLength="9.8" x="597.45" y="571.671">19</text><text fill="#000000" font-family="sans-serif" font-size="9.1" lengthAdjust="spacing" textLength="151.9" x="610.05" y="571.671">shareBoard(board, userId, read, write)</text><polygon fill="#181818" points="1047.55,594.4586,1054.55,597.2586,1047.55,600.0586,1050.35,597.2586" style="stroke:#181818;stroke-width:0.6999999999999998;"/><line style="stroke:#181818;stroke-width:0.6999999999999998;" x1="843.15" x2="1051.75" y1="597.2586" y2="597.2586"/><text fill="#000000" font-family="sans-serif" font-size="9.1" font-weight="bold" lengthAdjust="spacing" textLength="9.8" x="848.05" y="593.5747">20</text><text fill="#000000" font-family="sans-serif" font-size="9.1" lengthAdjust="spacing" textLength="186.9" x="860.65" y="593.5747">handleBoardSharing(board, userId, read, write)</text><polygon fill="#181818" points="1201.55,616.3623,1208.55,619.1623,1201.55,621.9623,1204.35,619.1623" style="stroke:#181818;stroke-width:0.6999999999999998;"/><line style="stroke:#181818;stroke-width:0.6999999999999998;" x1="1059.45" x2="1205.75" y1="619.1623" y2="619.1623"/><text fill="#000000" font-family="sans-serif" font-size="9.1" font-weight="bold" lengthAdjust="spacing" textLength="9.8" x="1064.35" y="615.4784">21</text><text fill="#000000" font-family="sans-serif" font-size="9.1" lengthAdjust="spacing" textLength="117.6" x="1076.95" y="615.4784">add permissions to the board</text><polygon fill="#181818" points="1277.85,638.266,1284.85,641.066,1277.85,643.866,1280.65,641.066" style="stroke:#181818;stroke-width:0.6999999999999998;"/><line style="stroke:#181818;stroke-width:0.6999999999999998;" x1="839.65" x2="1282.05" y1="641.066" y2="641.066"/><text fill="#000000" font-family="sans-serif" font-size="9.1" font-weight="bold" lengthAdjust="spacing" textLength="9.8" x="844.55" y="637.3821">22</text><text fill="#000000" font-family="sans-serif" font-size="9.1" lengthAdjust="spacing" textLength="46.2" x="857.15" y="637.3821">save(board)</text><line style="stroke:#181818;stroke-width:0.6999999999999998;" x1="592.55" x2="621.95" y1="662.9697" y2="662.9697"/><line style="stroke:#181818;stroke-width:0.6999999999999998;" x1="621.95" x2="621.95" y1="662.9697" y2="672.0697"/><line style="stroke:#181818;stroke-width:0.6999999999999998;" x1="593.25" x2="621.95" y1="672.0697" y2="672.0697"/><polygon fill="#181818" points="600.25,669.2697,593.25,672.0697,600.25,674.8697,597.45,672.0697" style="stroke:#181818;stroke-width:0.6999999999999998;"/><text fill="#000000" font-family="sans-serif" font-size="9.1" font-weight="bold" lengthAdjust="spacing" textLength="9.8" x="597.45" y="659.2858">23</text><text fill="#000000" font-family="sans-serif" font-size="9.1" lengthAdjust="spacing" textLength="58.8" x="610.05" y="659.2858">setResponse()</text><polygon fill="#181818" points="185.15,691.1734,178.15,693.9734,185.15,696.7734,182.35,693.9734" style="stroke:#181818;stroke-width:0.6999999999999998;"/><line style="stroke:#181818;stroke-width:0.6999999999999998;" x1="180.95" x2="281.05" y1="693.9734" y2="693.9734"/><text fill="#000000" font-family="sans-serif" font-size="9.1" font-weight="bold" lengthAdjust="spacing" textLength="9.8" x="189.35" y="690.2896">24</text><text fill="#000000" font-family="sans-serif" font-size="9.1" lengthAdjust="spacing" textLength="37.1" x="201.95" y="690.2896">response</text><polygon fill="#181818" points="23.45,713.0771,16.45,715.8771,23.45,718.6771,20.65,715.8771" style="stroke:#181818;stroke-width:0.6999999999999998;"/><line style="stroke:#181818;stroke-width:0.6999999999999998;stroke-dasharray:2.0,2.0;" x1="19.25" x2="169.75" y1="715.8771" y2="715.8771"/><text fill="#000000" font-family="sans-serif" font-size="9.1" font-weight="bold" lengthAdjust="spacing" textLength="9.8" x="27.65" y="712.1933">25</text><text fill="#000000" font-family="sans-serif" font-size="9.1" lengthAdjust="spacing" textLength="109.2" x="40.25" y="712.1933">shows success notification</text><!--SRC=[rLGzRzim4DtvAmwTR211KnHTZC10d3YLfmh-G9Sij7IE3fP8bKSxoB_laP9jnd7GBXswM33llJlolKTwyZN2Ql7rviiDNCETAohQ8qoiTgLIUkUjsJLhT8gtP5hjT0DSwTA-a7c6ZQuP1LLuws35w40ph9J0F1NKQkFXqyJP5wbyYgKPtDwkPkFnMqZcVJl7NpjadsbJrZrwdWawMoxpS_pKbAqbutDd2sIsxZ7ku3MoyiSFM8jAEupdUiUFn6d-H-AzDTxP-h31nRqmxjgsfa9xikQS63avkeQOfPoUBGzdMw3RKu4NQH4r4T23RJHTRZt7rZ8TJpwP2_oq9XIrWklhSP1z980jWxUWUuSrhAF78XtjjPSCp9G08pw15zPio3KGODQa3ViA7qj27WVJHl1zkeJF76Gxcp7Fb0049YwDu1dzEoi6hWl2y4JA7vN03xtvOnjLYIcfcoIsZg3j87t8BioOvag00XTFvMWEPN6mazm6FQywgTuv2LVhWmr3PQoqiNjPZHDXMI641a0CZEBP-bKqztQB1dobFL0fgxGXPAYe0GhB2FpA7fid8nFY_pWXxK6UOVO0WwB2OXilxiqtA6snQmGGOpXCZwBtccgzhZ5SJrxQKvX_agy6iVrLt6YYnk9U2VaWNYXoggsKkmcnpEZdoAqrZ8DXBteCYEjNKwhed8ICAtaRe2RsO3UdhNOJEmqEEMIiiV0WkjMe0zxWau63IktHcWX-be2dKUt8tFMDf8IG1ZV_iNYRtFyXhQSPgPqp-KgCvVV5aSTBxkPXXrNCSgI7RCYp_dTTyapbSSkJaBAoFFVW6DutvypwqV9MoSRr7hjXmtyOBzuLGKsG2ogthNkfVmC0]--></g></svg>