<?xml version="1.0" encoding="us-ascii" standalone="no"?><svg xmlns="http://www.w3.org/2000/svg" xmlns:xlink="http://www.w3.org/1999/xlink" contentStyleType="text/css" height="387px" preserveAspectRatio="none" style="width:863px;height:387px;background:#FFFFFF;" version="1.1" viewBox="0 0 863 387" width="863px" zoomAndPan="magnify"><defs/><g><text fill="#000000" font-family="sans-serif" font-size="14" font-weight="bold" lengthAdjust="spacing" textLength="176" x="336.5" y="25.1074">US3010 - Archive a Board</text><!--cluster HTTP--><g id="cluster_HTTP"><path d="M8.5,173.6348 L44.5,173.6348 A3.75,3.75 0 0 1 47,176.1348 L54,198.2559 L272.5,198.2559 A2.5,2.5 0 0 1 275,200.7559 L275,272.1348 A2.5,2.5 0 0 1 272.5,274.6348 L8.5,274.6348 A2.5,2.5 0 0 1 6,272.1348 L6,176.1348 A2.5,2.5 0 0 1 8.5,173.6348 " fill="none" style="stroke:#000000;stroke-width:1.5;"/><line style="stroke:#000000;stroke-width:1.5;" x1="6" x2="54" y1="198.2559" y2="198.2559"/><text fill="#000000" font-family="sans-serif" font-size="14" font-weight="bold" lengthAdjust="spacing" textLength="35" x="10" y="190.7422">HTTP</text></g><!--cluster boardmanagement--><g id="cluster_boardmanagement"><path d="M301.5,45.6348 L433.5,45.6348 A3.75,3.75 0 0 1 436,48.1348 L443,70.2559 L853.5,70.2559 A2.5,2.5 0 0 1 856,72.7559 L856,378.1348 A2.5,2.5 0 0 1 853.5,380.6348 L301.5,380.6348 A2.5,2.5 0 0 1 299,378.1348 L299,48.1348 A2.5,2.5 0 0 1 301.5,45.6348 " fill="none" style="stroke:#000000;stroke-width:1.5;"/><line style="stroke:#000000;stroke-width:1.5;" x1="299" x2="443" y1="70.2559" y2="70.2559"/><text fill="#000000" font-family="sans-serif" font-size="14" font-weight="bold" lengthAdjust="spacing" textLength="131" x="303" y="62.7422">boardmanagement</text></g><!--cluster Domain--><g id="cluster_Domain"><path d="M616.5,235.6348 L669.5,235.6348 A3.75,3.75 0 0 1 672,238.1348 L679,260.2559 L829.5,260.2559 A2.5,2.5 0 0 1 832,262.7559 L832,354.1348 A2.5,2.5 0 0 1 829.5,356.6348 L616.5,356.6348 A2.5,2.5 0 0 1 614,354.1348 L614,238.1348 A2.5,2.5 0 0 1 616.5,235.6348 " fill="none" style="stroke:#000000;stroke-width:1.5;"/><line style="stroke:#000000;stroke-width:1.5;" x1="614" x2="679" y1="260.2559" y2="260.2559"/><text fill="#000000" font-family="sans-serif" font-size="14" font-weight="bold" lengthAdjust="spacing" textLength="52" x="618" y="252.7422">Domain</text></g><!--cluster Application--><g id="cluster_Application"><path d="M325.5,163.6348 L404.5,163.6348 A3.75,3.75 0 0 1 407,166.1348 L414,188.2559 L583.5,188.2559 A2.5,2.5 0 0 1 586,190.7559 L586,282.1348 A2.5,2.5 0 0 1 583.5,284.6348 L325.5,284.6348 A2.5,2.5 0 0 1 323,282.1348 L323,166.1348 A2.5,2.5 0 0 1 325.5,163.6348 " fill="none" style="stroke:#000000;stroke-width:1.5;"/><line style="stroke:#000000;stroke-width:1.5;" x1="323" x2="414" y1="188.2559" y2="188.2559"/><text fill="#000000" font-family="sans-serif" font-size="14" font-weight="bold" lengthAdjust="spacing" textLength="78" x="327" y="180.7422">Application</text></g><!--cluster repository--><g id="cluster_repository"><path d="M639,90.6348 L712,90.6348 A3.75,3.75 0 0 1 714.5,93.1348 L721.5,115.2559 L807,115.2559 A2.5,2.5 0 0 1 809.5,117.7559 L809.5,209.1348 A2.5,2.5 0 0 1 807,211.6348 L639,211.6348 A2.5,2.5 0 0 1 636.5,209.1348 L636.5,93.1348 A2.5,2.5 0 0 1 639,90.6348 " fill="none" style="stroke:#000000;stroke-width:1.5;"/><line style="stroke:#000000;stroke-width:1.5;" x1="636.5" x2="721.5" y1="115.2559" y2="115.2559"/><text fill="#000000" font-family="sans-serif" font-size="14" font-weight="bold" lengthAdjust="spacing" textLength="72" x="640.5" y="107.7422">repository</text></g><!--class ArchiveBoardEndpointProcessor--><g id="elem_ArchiveBoardEndpointProcessor"><rect codeLine="10" fill="#F1F1F1" height="48" id="ArchiveBoardEndpointProcessor" rx="2.5" ry="2.5" style="stroke:#181818;stroke-width:0.5;" width="237" x="22" y="210.6348"/><ellipse cx="37" cy="226.6348" fill="#ADD1B2" rx="11" ry="11" style="stroke:#181818;stroke-width:1.0;"/><path d="M39.7656,222.5098 Q39.9219,222.291 40.1094,222.1816 Q40.2969,222.0723 40.5156,222.0723 Q40.8906,222.0723 41.125,222.3379 Q41.3594,222.5879 41.3594,223.1973 L41.3594,224.6504 Q41.3594,225.2598 41.125,225.5254 Q40.8906,225.791 40.5156,225.791 Q40.1719,225.791 39.9688,225.5879 Q39.7656,225.4004 39.6563,224.8848 Q39.6094,224.5254 39.4219,224.3379 Q39.0938,223.9629 38.4844,223.7441 Q37.875,223.5254 37.25,223.5254 Q36.4844,223.5254 35.8438,223.8535 Q35.2188,224.1816 34.7188,224.9316 Q34.2344,225.6816 34.2344,226.7129 L34.2344,227.8066 Q34.2344,229.041 35.125,229.8691 Q36.0156,230.6816 37.6094,230.6816 Q38.5469,230.6816 39.2031,230.4316 Q39.5938,230.2754 40.0156,229.8379 Q40.2813,229.5723 40.4219,229.4941 Q40.5781,229.416 40.7813,229.416 Q41.1094,229.416 41.3594,229.6816 Q41.625,229.9316 41.625,230.2754 Q41.625,230.6191 41.2813,231.0254 Q40.7813,231.6035 39.9844,231.9316 Q38.9063,232.3848 37.6094,232.3848 Q36.0938,232.3848 34.8906,231.7598 Q33.9063,231.2598 33.2188,230.1973 Q32.5313,229.1191 32.5313,227.8379 L32.5313,226.6816 Q32.5313,225.3535 33.1406,224.2129 Q33.7656,223.0566 34.8594,222.4473 Q35.9531,221.8223 37.1875,221.8223 Q37.9219,221.8223 38.5625,221.9941 Q39.2188,222.1504 39.7656,222.5098 Z " fill="#000000"/><text fill="#000000" font-family="sans-serif" font-size="14" lengthAdjust="spacing" textLength="205" x="51" y="232.4316">ArchiveBoardEndpointProcessor</text><line style="stroke:#181818;stroke-width:0.5;" x1="23" x2="258" y1="242.6348" y2="242.6348"/><line style="stroke:#181818;stroke-width:0.5;" x1="23" x2="258" y1="250.6348" y2="250.6348"/></g><!--class Board--><g id="elem_Board"><rect codeLine="16" fill="#F1F1F1" height="66.6211" id="Board" rx="2.5" ry="2.5" style="stroke:#181818;stroke-width:0.5;" width="186" x="630" y="273.1348"/><ellipse cx="699.75" cy="289.1348" fill="#ADD1B2" rx="11" ry="11" style="stroke:#181818;stroke-width:1.0;"/><path d="M702.5156,285.0098 Q702.6719,284.791 702.8594,284.6816 Q703.0469,284.5723 703.2656,284.5723 Q703.6406,284.5723 703.875,284.8379 Q704.1094,285.0879 704.1094,285.6973 L704.1094,287.1504 Q704.1094,287.7598 703.875,288.0254 Q703.6406,288.291 703.2656,288.291 Q702.9219,288.291 702.7188,288.0879 Q702.5156,287.9004 702.4063,287.3848 Q702.3594,287.0254 702.1719,286.8379 Q701.8438,286.4629 701.2344,286.2441 Q700.625,286.0254 700,286.0254 Q699.2344,286.0254 698.5938,286.3535 Q697.9688,286.6816 697.4688,287.4316 Q696.9844,288.1816 696.9844,289.2129 L696.9844,290.3066 Q696.9844,291.541 697.875,292.3691 Q698.7656,293.1816 700.3594,293.1816 Q701.2969,293.1816 701.9531,292.9316 Q702.3438,292.7754 702.7656,292.3379 Q703.0313,292.0723 703.1719,291.9941 Q703.3281,291.916 703.5313,291.916 Q703.8594,291.916 704.1094,292.1816 Q704.375,292.4316 704.375,292.7754 Q704.375,293.1191 704.0313,293.5254 Q703.5313,294.1035 702.7344,294.4316 Q701.6563,294.8848 700.3594,294.8848 Q698.8438,294.8848 697.6406,294.2598 Q696.6563,293.7598 695.9688,292.6973 Q695.2813,291.6191 695.2813,290.3379 L695.2813,289.1816 Q695.2813,287.8535 695.8906,286.7129 Q696.5156,285.5566 697.6094,284.9473 Q698.7031,284.3223 699.9375,284.3223 Q700.6719,284.3223 701.3125,284.4941 Q701.9688,284.6504 702.5156,285.0098 Z " fill="#000000"/><text fill="#000000" font-family="sans-serif" font-size="14" lengthAdjust="spacing" textLength="38" x="720.25" y="294.9316">Board</text><line style="stroke:#181818;stroke-width:0.5;" x1="631" x2="815" y1="305.1348" y2="305.1348"/><line style="stroke:#181818;stroke-width:0.5;" x1="631" x2="815" y1="313.1348" y2="313.1348"/><ellipse cx="641" cy="327.9453" fill="#84BE84" rx="3" ry="3" style="stroke:#038048;stroke-width:1.0;"/><text fill="#000000" font-family="sans-serif" font-size="14" lengthAdjust="spacing" textLength="160" x="650" y="332.2422">archiveBoard(user) : void</text></g><!--class ArchiveBoardController--><g id="elem_ArchiveBoardController"><rect codeLine="22" fill="#F1F1F1" height="66.6211" id="ArchiveBoardController" rx="2.5" ry="2.5" style="stroke:#181818;stroke-width:0.5;" width="231" x="339" y="201.1348"/><ellipse cx="377.4" cy="217.1348" fill="#ADD1B2" rx="11" ry="11" style="stroke:#181818;stroke-width:1.0;"/><path d="M380.1656,213.0098 Q380.3219,212.791 380.5094,212.6816 Q380.6969,212.5723 380.9156,212.5723 Q381.2906,212.5723 381.525,212.8379 Q381.7594,213.0879 381.7594,213.6973 L381.7594,215.1504 Q381.7594,215.7598 381.525,216.0254 Q381.2906,216.291 380.9156,216.291 Q380.5719,216.291 380.3688,216.0879 Q380.1656,215.9004 380.0563,215.3848 Q380.0094,215.0254 379.8219,214.8379 Q379.4938,214.4629 378.8844,214.2441 Q378.275,214.0254 377.65,214.0254 Q376.8844,214.0254 376.2438,214.3535 Q375.6188,214.6816 375.1188,215.4316 Q374.6344,216.1816 374.6344,217.2129 L374.6344,218.3066 Q374.6344,219.541 375.525,220.3691 Q376.4156,221.1816 378.0094,221.1816 Q378.9469,221.1816 379.6031,220.9316 Q379.9938,220.7754 380.4156,220.3379 Q380.6813,220.0723 380.8219,219.9941 Q380.9781,219.916 381.1813,219.916 Q381.5094,219.916 381.7594,220.1816 Q382.025,220.4316 382.025,220.7754 Q382.025,221.1191 381.6813,221.5254 Q381.1813,222.1035 380.3844,222.4316 Q379.3063,222.8848 378.0094,222.8848 Q376.4938,222.8848 375.2906,222.2598 Q374.3063,221.7598 373.6188,220.6973 Q372.9313,219.6191 372.9313,218.3379 L372.9313,217.1816 Q372.9313,215.8535 373.5406,214.7129 Q374.1656,213.5566 375.2594,212.9473 Q376.3531,212.3223 377.5875,212.3223 Q378.3219,212.3223 378.9625,212.4941 Q379.6188,212.6504 380.1656,213.0098 Z " fill="#000000"/><text fill="#000000" font-family="sans-serif" font-size="14" lengthAdjust="spacing" textLength="147" x="396.6" y="222.9316">ArchiveBoardController</text><line style="stroke:#181818;stroke-width:0.5;" x1="340" x2="569" y1="233.1348" y2="233.1348"/><line style="stroke:#181818;stroke-width:0.5;" x1="340" x2="569" y1="241.1348" y2="241.1348"/><ellipse cx="350" cy="255.9453" fill="#84BE84" rx="3" ry="3" style="stroke:#038048;stroke-width:1.0;"/><text fill="#000000" font-family="sans-serif" font-size="14" lengthAdjust="spacing" textLength="205" x="359" y="260.2422">archiveBoard(board, user) : void</text></g><!--class BoardRepository--><g id="elem_BoardRepository"><rect codeLine="28" fill="#F1F1F1" height="66.6211" id="BoardRepository" rx="2.5" ry="2.5" style="stroke:#181818;stroke-width:0.5;" width="141" x="652.5" y="128.1348"/><ellipse cx="668.85" cy="144.1348" fill="#B4A7E5" rx="11" ry="11" style="stroke:#181818;stroke-width:1.0;"/><path d="M669.8031,140.7754 L669.8031,147.4316 L671.5219,147.4316 Q672.1313,147.4316 672.3969,147.666 Q672.6625,147.9004 672.6625,148.291 Q672.6625,148.666 672.3969,148.9004 Q672.1313,149.1348 671.5219,149.1348 L666.3813,149.1348 Q665.7719,149.1348 665.5063,148.9004 Q665.2406,148.666 665.2406,148.2754 Q665.2406,147.9004 665.5063,147.666 Q665.7719,147.4316 666.3813,147.4316 L668.1,147.4316 L668.1,140.7754 L666.3813,140.7754 Q665.7719,140.7754 665.5063,140.541 Q665.2406,140.3066 665.2406,139.916 Q665.2406,139.541 665.5063,139.3066 Q665.7719,139.0723 666.3813,139.0723 L671.5219,139.0723 Q672.1313,139.0723 672.3969,139.3066 Q672.6625,139.541 672.6625,139.916 Q672.6625,140.3066 672.3969,140.541 Q672.1313,140.7754 671.5219,140.7754 L669.8031,140.7754 Z " fill="#000000"/><text fill="#000000" font-family="sans-serif" font-size="14" font-style="italic" lengthAdjust="spacing" textLength="106" x="683.15" y="149.9316">BoardRepository</text><line style="stroke:#181818;stroke-width:0.5;" x1="653.5" x2="792.5" y1="160.1348" y2="160.1348"/><line style="stroke:#181818;stroke-width:0.5;" x1="653.5" x2="792.5" y1="168.1348" y2="168.1348"/><ellipse cx="663.5" cy="182.9453" fill="#84BE84" rx="3" ry="3" style="stroke:#038048;stroke-width:1.0;"/><text fill="#000000" font-family="sans-serif" font-size="14" lengthAdjust="spacing" textLength="115" x="672.5" y="187.2422">save(board) : void</text></g><!--link ArchiveBoardEndpointProcessor to ArchiveBoardController--><g id="link_ArchiveBoardEndpointProcessor_ArchiveBoardController"><path codeLine="34" d="M259.01,234.6348 C283.44,234.6348 309.22,234.6348 333.73,234.6348 " fill="none" id="ArchiveBoardEndpointProcessor-to-ArchiveBoardController" style="stroke:#181818;stroke-width:1.0;stroke-dasharray:7.0,7.0;"/><polygon fill="#181818" points="338.94,234.6348,329.94,230.6348,333.94,234.6348,329.94,238.6348,338.94,234.6348" style="stroke:#181818;stroke-width:1.0;"/></g><!--link ArchiveBoardController to Board--><g id="link_ArchiveBoardController_Board"><path codeLine="35" d="M570.07,265.5848 C588.25,270.4948 606.9,275.5348 624.64,280.3348 " fill="none" id="ArchiveBoardController-to-Board" style="stroke:#181818;stroke-width:1.0;"/><polygon fill="#181818" points="629.62,281.6748,621.9694,275.4725,624.7919,280.3749,619.8896,283.1975,629.62,281.6748" style="stroke:#181818;stroke-width:1.0;"/></g><!--link ArchiveBoardController to BoardRepository--><g id="link_ArchiveBoardController_BoardRepository"><path codeLine="36" d="M570.07,203.2548 C596.14,196.1048 623.2,188.6948 647.12,182.1448 " fill="none" id="ArchiveBoardController-to-BoardRepository" style="stroke:#181818;stroke-width:1.0;"/><polygon fill="#181818" points="652.18,180.7648,642.4413,179.2957,647.3592,182.0912,644.5636,187.009,652.18,180.7648" style="stroke:#181818;stroke-width:1.0;"/></g><!--SRC=[XPBBJiD034Nt_WelGP2gY1sBIkKXiQoWV82PECcea_78CmIXgFzE7aIjA2bUZSPNvrvRJZOvnhVNs-ND4ZDSgwbimqXuBwGvGDnP7qYfnbXHBf_MbrYGYmpWk4YO1DMMLSBSAfjanGC4CZig6P-tsmss0DYLSHJZX1_OJpuFOdtQg1YEKRIJziezx0-8zrvPa-_UDVlKIQREezHaVNi47wZZHrzNI4Tk5n-HzHBli16Rd_giGt3MK9yVsvd03-AJYdCy9Vt3PSXxZUVDb8D4cqI_Hawt1DQ238yZlFngZpQH6Xxn9-0EVNwnYyLgPXAO6J3BLZyNy9_Wa1O0lW40]--></g></svg>