<?xml version="1.0" encoding="us-ascii" standalone="no"?><svg xmlns="http://www.w3.org/2000/svg" xmlns:xlink="http://www.w3.org/1999/xlink" contentStyleType="text/css" height="552px" preserveAspectRatio="none" style="width:1055px;height:552px;background:#FFFFFF;" version="1.1" viewBox="0 0 1055 552" width="1055px" zoomAndPan="magnify"><defs/><g><text fill="#000000" font-family="FG Virgil" font-size="14" font-weight="bold" lengthAdjust="spacing" textLength="179" x="439.5" y="30.1074">Accept meeting invitation</text><rect fill="#FFFFFF" height="282.6191" style="stroke:#181818;stroke-width:1.0;" width="10" x="332.5" y="161.1543"/><rect fill="#FFFFFF" height="211.0371" style="stroke:#181818;stroke-width:1.0;" width="10" x="616.5" y="192.4453"/><rect fill="#FFFFFF" height="31.291" style="stroke:#181818;stroke-width:1.0;" width="10" x="959" y="340.9004"/><line style="stroke:#181818;stroke-width:0.5;stroke-dasharray:5.0,5.0;" x1="90" x2="90" y1="127.8633" y2="452.7734"/><line style="stroke:#181818;stroke-width:0.5;stroke-dasharray:5.0,5.0;" x1="203" x2="203" y1="127.8633" y2="452.7734"/><line style="stroke:#181818;stroke-width:0.5;stroke-dasharray:5.0,5.0;" x1="337" x2="337" y1="127.8633" y2="452.7734"/><line style="stroke:#181818;stroke-width:0.5;stroke-dasharray:5.0,5.0;" x1="621" x2="621" y1="127.8633" y2="452.7734"/><line style="stroke:#181818;stroke-width:0.5;stroke-dasharray:5.0,5.0;" x1="804" x2="804" y1="127.8633" y2="452.7734"/><line style="stroke:#181818;stroke-width:0.5;stroke-dasharray:5.0,5.0;" x1="964" x2="964" y1="127.8633" y2="452.7734"/><rect fill="#E2E2F0" height="51.2422" rx="2.5" ry="2.5" style="stroke:#181818;stroke-width:0.5;" width="171" x="5" y="75.6211"/><text fill="#000000" font-family="FG Virgil" font-size="14" font-style="italic" lengthAdjust="spacing" textLength="27" x="77" y="97.7285">&#171;ui&#187;</text><text fill="#000000" font-family="FG Virgil" font-size="14" lengthAdjust="spacing" textLength="157" x="12" y="116.3496">ManageMeetingInvitation</text><rect fill="#E2E2F0" height="51.2422" rx="2.5" ry="2.5" style="stroke:#181818;stroke-width:0.5;" width="171" x="5" y="451.7734"/><text fill="#000000" font-family="FG Virgil" font-size="14" font-style="italic" lengthAdjust="spacing" textLength="27" x="77" y="473.8809">&#171;ui&#187;</text><text fill="#000000" font-family="FG Virgil" font-size="14" lengthAdjust="spacing" textLength="157" x="12" y="492.502">ManageMeetingInvitation</text><text fill="#000000" font-family="FG Virgil" font-size="14" lengthAdjust="spacing" textLength="29" x="186" y="124.3496">User</text><ellipse cx="203.5" cy="57.7422" fill="#E2E2F0" rx="8" ry="8" style="stroke:#181818;stroke-width:0.5;"/><path d="M203.5,65.7422 L203.5,92.7422 M190.5,73.7422 L216.5,73.7422 M203.5,92.7422 L190.5,107.7422 M203.5,92.7422 L216.5,107.7422 " fill="none" style="stroke:#181818;stroke-width:0.5;"/><text fill="#000000" font-family="FG Virgil" font-size="14" lengthAdjust="spacing" textLength="29" x="186" y="466.8809">User</text><ellipse cx="203.5" cy="478.8945" fill="#E2E2F0" rx="8" ry="8" style="stroke:#181818;stroke-width:0.5;"/><path d="M203.5,486.8945 L203.5,513.8945 M190.5,494.8945 L216.5,494.8945 M203.5,513.8945 L190.5,528.8945 M203.5,513.8945 L216.5,528.8945 " fill="none" style="stroke:#181818;stroke-width:0.5;"/><rect fill="#E2E2F0" height="51.2422" rx="2.5" ry="2.5" style="stroke:#181818;stroke-width:0.5;" width="175" x="250" y="75.6211"/><text fill="#000000" font-family="FG Virgil" font-size="14" font-style="italic" lengthAdjust="spacing" textLength="27" x="324" y="97.7285">&#171;ui&#187;</text><text fill="#000000" font-family="FG Virgil" font-size="14" lengthAdjust="spacing" textLength="161" x="257" y="116.3496">AcceptMeetingInvitationUI</text><rect fill="#E2E2F0" height="51.2422" rx="2.5" ry="2.5" style="stroke:#181818;stroke-width:0.5;" width="175" x="250" y="451.7734"/><text fill="#000000" font-family="FG Virgil" font-size="14" font-style="italic" lengthAdjust="spacing" textLength="27" x="324" y="473.8809">&#171;ui&#187;</text><text fill="#000000" font-family="FG Virgil" font-size="14" lengthAdjust="spacing" textLength="161" x="257" y="492.502">AcceptMeetingInvitationUI</text><rect fill="#E2E2F0" height="51.2422" rx="2.5" ry="2.5" style="stroke:#181818;stroke-width:0.5;" width="225" x="509" y="75.6211"/><text fill="#000000" font-family="FG Virgil" font-size="14" font-style="italic" lengthAdjust="spacing" textLength="84" x="579.5" y="97.7285">&#171;application&#187;</text><text fill="#000000" font-family="FG Virgil" font-size="14" lengthAdjust="spacing" textLength="211" x="516" y="116.3496">AcceptMeetingInvitationController</text><rect fill="#E2E2F0" height="51.2422" rx="2.5" ry="2.5" style="stroke:#181818;stroke-width:0.5;" width="225" x="509" y="451.7734"/><text fill="#000000" font-family="FG Virgil" font-size="14" font-style="italic" lengthAdjust="spacing" textLength="84" x="579.5" y="473.8809">&#171;application&#187;</text><text fill="#000000" font-family="FG Virgil" font-size="14" lengthAdjust="spacing" textLength="211" x="516" y="492.502">AcceptMeetingInvitationController</text><rect fill="#E2E2F0" height="51.2422" rx="2.5" ry="2.5" style="stroke:#181818;stroke-width:0.5;" width="120" x="744" y="75.6211"/><text fill="#000000" font-family="FG Virgil" font-size="14" font-style="italic" lengthAdjust="spacing" textLength="62" x="773" y="97.7285">&#171;domain&#187;</text><text fill="#000000" font-family="FG Virgil" font-size="14" lengthAdjust="spacing" textLength="106" x="751" y="116.3496">MeetingInvitation</text><rect fill="#E2E2F0" height="51.2422" rx="2.5" ry="2.5" style="stroke:#181818;stroke-width:0.5;" width="120" x="744" y="451.7734"/><text fill="#000000" font-family="FG Virgil" font-size="14" font-style="italic" lengthAdjust="spacing" textLength="62" x="773" y="473.8809">&#171;domain&#187;</text><text fill="#000000" font-family="FG Virgil" font-size="14" lengthAdjust="spacing" textLength="106" x="751" y="492.502">MeetingInvitation</text><text fill="#000000" font-family="FG Virgil" font-size="14" font-style="italic" lengthAdjust="spacing" textLength="79" x="921.5" y="105.7285">&#171;repository&#187;</text><text fill="#000000" font-family="FG Virgil" font-size="14" lengthAdjust="spacing" textLength="174" x="874" y="124.3496">MeetingInvitationRepository</text><path d="M946,54.6211 C946,44.6211 964,44.6211 964,44.6211 C964,44.6211 982,44.6211 982,54.6211 L982,80.6211 C982,90.6211 964,90.6211 964,90.6211 C964,90.6211 946,90.6211 946,80.6211 L946,54.6211 " fill="#E2E2F0" style="stroke:#181818;stroke-width:1.5;"/><path d="M946,54.6211 C946,64.6211 964,64.6211 964,64.6211 C964,64.6211 982,64.6211 982,54.6211 " fill="none" style="stroke:#181818;stroke-width:1.5;"/><text fill="#000000" font-family="FG Virgil" font-size="14" font-style="italic" lengthAdjust="spacing" textLength="79" x="921.5" y="466.8809">&#171;repository&#187;</text><text fill="#000000" font-family="FG Virgil" font-size="14" lengthAdjust="spacing" textLength="174" x="874" y="485.502">MeetingInvitationRepository</text><path d="M946,499.0156 C946,489.0156 964,489.0156 964,489.0156 C964,489.0156 982,489.0156 982,499.0156 L982,525.0156 C982,535.0156 964,535.0156 964,535.0156 C964,535.0156 946,535.0156 946,525.0156 L946,499.0156 " fill="#E2E2F0" style="stroke:#181818;stroke-width:1.5;"/><path d="M946,499.0156 C946,509.0156 964,509.0156 964,509.0156 C964,509.0156 982,509.0156 982,499.0156 " fill="none" style="stroke:#181818;stroke-width:1.5;"/><rect fill="#FFFFFF" height="282.6191" style="stroke:#181818;stroke-width:1.0;" width="10" x="332.5" y="161.1543"/><rect fill="#FFFFFF" height="211.0371" style="stroke:#181818;stroke-width:1.0;" width="10" x="616.5" y="192.4453"/><rect fill="#FFFFFF" height="31.291" style="stroke:#181818;stroke-width:1.0;" width="10" x="959" y="340.9004"/><polygon fill="#181818" points="320.5,157.1543,330.5,161.1543,320.5,165.1543,324.5,161.1543" style="stroke:#181818;stroke-width:1.0;"/><line style="stroke:#181818;stroke-width:1.0;" x1="90.5" x2="326.5" y1="161.1543" y2="161.1543"/><text fill="#000000" font-family="FG Virgil" font-size="13" font-weight="bold" lengthAdjust="spacing" textLength="7" x="97.5" y="155.8916">1</text><text fill="#000000" font-family="FG Virgil" font-size="13" lengthAdjust="spacing" textLength="140" x="108.5" y="155.8916">create(meetingInvitation)</text><polygon fill="#181818" points="604.5,188.4453,614.5,192.4453,604.5,196.4453,608.5,192.4453" style="stroke:#181818;stroke-width:1.0;"/><line style="stroke:#181818;stroke-width:1.0;" x1="342.5" x2="610.5" y1="192.4453" y2="192.4453"/><text fill="#000000" font-family="FG Virgil" font-size="13" font-weight="bold" lengthAdjust="spacing" textLength="7" x="349.5" y="187.1826">2</text><text fill="#000000" font-family="FG Virgil" font-size="13" lengthAdjust="spacing" textLength="152" x="360.5" y="187.1826">create(meetingRepository)</text><polygon fill="#181818" points="604.5,219.7363,614.5,223.7363,604.5,227.7363,608.5,223.7363" style="stroke:#181818;stroke-width:1.0;"/><line style="stroke:#181818;stroke-width:1.0;" x1="342.5" x2="610.5" y1="223.7363" y2="223.7363"/><text fill="#000000" font-family="FG Virgil" font-size="13" font-weight="bold" lengthAdjust="spacing" textLength="7" x="349.5" y="218.4736">3</text><text fill="#000000" font-family="FG Virgil" font-size="13" lengthAdjust="spacing" textLength="239" x="360.5" y="218.4736">acceptMeetingInvitation(meetingInvitation)</text><polygon fill="#181818" points="792,251.0273,802,255.0273,792,259.0273,796,255.0273" style="stroke:#181818;stroke-width:1.0;"/><line style="stroke:#181818;stroke-width:1.0;" x1="626.5" x2="798" y1="255.0273" y2="255.0273"/><text fill="#000000" font-family="FG Virgil" font-size="13" font-weight="bold" lengthAdjust="spacing" textLength="7" x="633.5" y="249.7646">4</text><text fill="#000000" font-family="FG Virgil" font-size="13" lengthAdjust="spacing" textLength="47" x="644.5" y="249.7646">accept()</text><path d="M672,268.0273 L672,312.0273 L936,312.0273 L936,278.0273 L926,268.0273 L672,268.0273 " fill="#FEFFDD" style="stroke:#181818;stroke-width:0.5;"/><path d="M926,268.0273 L926,278.0273 L936,278.0273 L926,268.0273 " fill="#FEFFDD" style="stroke:#181818;stroke-width:0.5;"/><text fill="#000000" font-family="FG Virgil" font-size="13" lengthAdjust="spacing" textLength="158" x="678" y="287.0557">meeting invitation to accept</text><text fill="#000000" font-family="FG Virgil" font-size="13" lengthAdjust="spacing" textLength="243" x="678" y="304.3467">must not be accepted or canceled already</text><polygon fill="#181818" points="947,336.9004,957,340.9004,947,344.9004,951,340.9004" style="stroke:#181818;stroke-width:1.0;"/><line style="stroke:#181818;stroke-width:1.0;" x1="626.5" x2="953" y1="340.9004" y2="340.9004"/><text fill="#000000" font-family="FG Virgil" font-size="13" font-weight="bold" lengthAdjust="spacing" textLength="7" x="633.5" y="335.6377">5</text><text fill="#000000" font-family="FG Virgil" font-size="13" lengthAdjust="spacing" textLength="130" x="644.5" y="335.6377">save(meetingInvitation)</text><polygon fill="#181818" points="637.5,368.1914,627.5,372.1914,637.5,376.1914,633.5,372.1914" style="stroke:#181818;stroke-width:1.0;"/><line style="stroke:#181818;stroke-width:1.0;stroke-dasharray:2.0,2.0;" x1="631.5" x2="963" y1="372.1914" y2="372.1914"/><text fill="#000000" font-family="FG Virgil" font-size="13" font-weight="bold" lengthAdjust="spacing" textLength="7" x="643.5" y="366.9287">6</text><text fill="#000000" font-family="FG Virgil" font-size="13" lengthAdjust="spacing" textLength="96" x="654.5" y="366.9287">meetingInvitation</text><polygon fill="#181818" points="353.5,399.4824,343.5,403.4824,353.5,407.4824,349.5,403.4824" style="stroke:#181818;stroke-width:1.0;"/><line style="stroke:#181818;stroke-width:1.0;stroke-dasharray:2.0,2.0;" x1="347.5" x2="620.5" y1="403.4824" y2="403.4824"/><text fill="#000000" font-family="FG Virgil" font-size="13" font-weight="bold" lengthAdjust="spacing" textLength="7" x="359.5" y="398.2197">7</text><text fill="#000000" font-family="FG Virgil" font-size="13" lengthAdjust="spacing" textLength="86" x="370.5" y="398.2197">return success</text><polygon fill="#181818" points="214.5,430.7734,204.5,434.7734,214.5,438.7734,210.5,434.7734" style="stroke:#181818;stroke-width:1.0;"/><line style="stroke:#181818;stroke-width:1.0;stroke-dasharray:2.0,2.0;" x1="208.5" x2="331.5" y1="434.7734" y2="434.7734"/><text fill="#000000" font-family="FG Virgil" font-size="13" font-weight="bold" lengthAdjust="spacing" textLength="7" x="220.5" y="429.5107">8</text><text fill="#000000" font-family="FG Virgil" font-size="13" lengthAdjust="spacing" textLength="94" x="231.5" y="429.5107">display success</text><!--SRC=[ZLBDRi8m3BxdAInESE0544AQ9Z5nO8TDxBIBIGspI9CgSPdwzdCBj8Lsqsv9_FtOduEb15_cUuecdTWN63670kq9Z_GkbIE8PALNo-Y0fPDryFAAES7w1Juu7jdrCEaBi_3D_WW7T8cC4HPLUhAM2e6SIEeQ-pCB2WTlZFA4BHVe1IPRzEg-lS0sBMe2c21lQhiDB9SbhrO6hOG8arsYsDHBFTohNLm7QhlD1SytfV-GddNg69oxcjdsgY9O58vj0tjK-sMKnrSLoKAENFCp5DnZeX7o6nKXiOvTzMMwLvM9xKMbJ9lPVANpBi16Gg7fm7zcwZZvh4N56QFPAACRyf7PMSuwOWSVuUDuh6EjzB9LaG7WfZNLfdrGtt1Mv0Xi-Dj0mfNywVCo2IWVzdHzempqGrdqbfoUqUd8MMN6- -aIM432ysYcRJ83ZXckRluGs43FPFI7u5sNrsr7aZ9wIAMEbrAVtrjLiwkQa6hNZ5FXi6evFm00]--></g></svg>