<?xml version="1.0" encoding="us-ascii" standalone="no"?><svg xmlns="http://www.w3.org/2000/svg" xmlns:xlink="http://www.w3.org/1999/xlink" contentStyleType="text/css" height="1554px" preserveAspectRatio="none" style="width:3533px;height:1554px;background:#FFFFFF;" version="1.1" viewBox="0 0 3533 1554" width="3533px" zoomAndPan="magnify"><defs/><g><!--cluster ui--><g id="cluster_presentation"><rect fill="none" height="101" rx="2.5" ry="2.5" style="stroke:#000000;stroke-width:1.5;" width="202" x="7" y="673"/><text fill="#000000" font-family="FG Virgil" font-size="14" font-weight="bold" lengthAdjust="spacing" textLength="90" x="63" y="690.1074">ui</text></g><!--cluster ecourseclassmanagement--><g id="cluster_ecourseclassmanagement"><rect fill="none" height="828" rx="2.5" ry="2.5" style="stroke:#000000;stroke-width:1.5;" width="2928.5" x="233" y="7"/><text fill="#000000" font-family="FG Virgil" font-size="14" font-weight="bold" lengthAdjust="spacing" textLength="184" x="1605.25" y="24.1074">ecourseclassmanagement</text></g><!--cluster application--><g id="cluster_application"><rect fill="none" height="175" rx="2.5" ry="2.5" style="stroke:#000000;stroke-width:1.5;" width="1019" x="257" y="636"/><text fill="#000000" font-family="FG Virgil" font-size="14" font-weight="bold" lengthAdjust="spacing" textLength="77" x="728" y="653.1074">application</text></g><!--cluster repository--><g id="cluster_repository"><rect fill="none" height="139" rx="2.5" ry="2.5" style="stroke:#000000;stroke-width:1.5;" width="368" x="2769.5" y="215"/><text fill="#000000" font-family="FG Virgil" font-size="14" font-weight="bold" lengthAdjust="spacing" textLength="72" x="2917.5" y="232.1074">repository</text></g><!--cluster domain--><g id="cluster_domain"><rect fill="none" height="560" rx="2.5" ry="2.5" style="stroke:#000000;stroke-width:1.5;" width="1369" x="760" y="52"/><text fill="#000000" font-family="FG Virgil" font-size="14" font-weight="bold" lengthAdjust="spacing" textLength="51" x="1419" y="69.1074">domain</text></g><!--cluster builder--><g id="cluster_builder"><rect fill="none" height="213" rx="2.5" ry="2.5" style="stroke:#000000;stroke-width:1.5;" width="242" x="923" y="278"/><text fill="#000000" font-family="FG Virgil" font-size="14" font-weight="bold" lengthAdjust="spacing" textLength="50" x="1019" y="295.1074">builder</text></g><!--cluster services--><g id="cluster_services"><rect fill="none" height="157" rx="2.5" ry="2.5" style="stroke:#000000;stroke-width:1.5;" width="520" x="784" y="97"/><text fill="#000000" font-family="FG Virgil" font-size="14" font-weight="bold" lengthAdjust="spacing" textLength="61" x="1013.5" y="114.1074">services</text></g><!--cluster ecoursecoursemanagement--><g id="cluster_ecoursecoursemanagement"><rect fill="none" height="315" rx="2.5" ry="2.5" style="stroke:#000000;stroke-width:1.5;" width="815" x="2348" y="1198"/><text fill="#000000" font-family="FG Virgil" font-size="14" font-weight="bold" lengthAdjust="spacing" textLength="197" x="2657" y="1215.1074">ecoursecoursemanagement</text></g><!--cluster repository--><g id="cluster_repository"><rect fill="none" height="121" rx="2.5" ry="2.5" style="stroke:#000000;stroke-width:1.5;" width="371" x="2768" y="1368"/><text fill="#000000" font-family="FG Virgil" font-size="14" font-weight="bold" lengthAdjust="spacing" textLength="72" x="2917.5" y="1385.1074">repository</text></g><!--cluster domain--><g id="cluster_domain"><rect fill="none" height="101" rx="2.5" ry="2.5" style="stroke:#000000;stroke-width:1.5;" width="110" x="2898.5" y="1243"/><text fill="#000000" font-family="FG Virgil" font-size="14" font-weight="bold" lengthAdjust="spacing" textLength="51" x="2928" y="1260.1074">domain</text></g><!--cluster application--><g id="cluster_application"><rect fill="none" height="121" rx="2.5" ry="2.5" style="stroke:#000000;stroke-width:1.5;" width="368" x="2372" y="1368"/><text fill="#000000" font-family="FG Virgil" font-size="14" font-weight="bold" lengthAdjust="spacing" textLength="77" x="2517.5" y="1385.1074">application</text></g><!--cluster enrolledstudentmanagement--><g id="cluster_enrolledstudentmanagement"><rect fill="none" height="315" rx="2.5" ry="2.5" style="stroke:#000000;stroke-width:1.5;" width="955" x="1369" y="1198"/><text fill="#000000" font-family="FG Virgil" font-size="14" font-weight="bold" lengthAdjust="spacing" textLength="203" x="1745" y="1215.1074">enrolledstudentmanagement</text></g><!--cluster repository--><g id="cluster_repository"><rect fill="none" height="121" rx="2.5" ry="2.5" style="stroke:#000000;stroke-width:1.5;" width="441" x="1859" y="1368"/><text fill="#000000" font-family="FG Virgil" font-size="14" font-weight="bold" lengthAdjust="spacing" textLength="72" x="2043.5" y="1385.1074">repository</text></g><!--cluster domain--><g id="cluster_domain"><rect fill="none" height="101" rx="2.5" ry="2.5" style="stroke:#000000;stroke-width:1.5;" width="165" x="1997" y="1243"/><text fill="#000000" font-family="FG Virgil" font-size="14" font-weight="bold" lengthAdjust="spacing" textLength="51" x="2054" y="1260.1074">domain</text></g><!--cluster application--><g id="cluster_application"><rect fill="none" height="121" rx="2.5" ry="2.5" style="stroke:#000000;stroke-width:1.5;" width="438" x="1393" y="1243"/><text fill="#000000" font-family="FG Virgil" font-size="14" font-weight="bold" lengthAdjust="spacing" textLength="77" x="1573.5" y="1260.1074">application</text></g><!--cluster usermanagement--><g id="cluster_usermanagement"><rect fill="none" height="315" rx="2.5" ry="2.5" style="stroke:#000000;stroke-width:1.5;" width="1161" x="1493" y="859"/><text fill="#000000" font-family="FG Virgil" font-size="14" font-weight="bold" lengthAdjust="spacing" textLength="122" x="2012.5" y="876.1074">usermanagement</text></g><!--cluster repository--><g id="cluster_repository"><rect fill="none" height="101" rx="2.5" ry="2.5" style="stroke:#000000;stroke-width:1.5;" width="162" x="1531" y="1049"/><text fill="#000000" font-family="FG Virgil" font-size="14" font-weight="bold" lengthAdjust="spacing" textLength="72" x="1576" y="1066.1074">repository</text></g><!--cluster application--><g id="cluster_application"><rect fill="none" height="121" rx="2.5" ry="2.5" style="stroke:#000000;stroke-width:1.5;" width="190" x="1517" y="904"/><text fill="#000000" font-family="FG Virgil" font-size="14" font-weight="bold" lengthAdjust="spacing" textLength="77" x="1573.5" y="921.1074">application</text></g><!--cluster domain--><g id="cluster_domain"><rect fill="none" height="101" rx="2.5" ry="2.5" style="stroke:#000000;stroke-width:1.5;" width="148" x="2482" y="914"/><text fill="#000000" font-family="FG Virgil" font-size="14" font-weight="bold" lengthAdjust="spacing" textLength="51" x="2530.5" y="931.1074">domain</text></g><!--cluster EAPLIFRAMEWORK--><g id="cluster_EAPLIFRAMEWORK"><rect fill="none" height="309" rx="2.5" ry="2.5" style="stroke:#000000;stroke-width:1.5;" width="340" x="3187" y="753"/><text fill="#000000" font-family="FG Virgil" font-size="14" font-weight="bold" lengthAdjust="spacing" textLength="133" x="3290.5" y="770.1074">EAPLIFRAMEWORK</text></g><!--class ExtraClassScheduleUI--><g id="elem_ExtraClassScheduleUI"><rect codeLine="9" fill="#F1F1F1" height="48" id="ExtraClassScheduleUI" rx="2.5" ry="2.5" style="stroke:#181818;stroke-width:0.5;" width="170" x="23" y="710"/><ellipse cx="38" cy="726" fill="#ADD1B2" rx="11" ry="11" style="stroke:#181818;stroke-width:1.0;"/><path d="M40.7656,721.875 Q40.9219,721.6563 41.1094,721.5469 Q41.2969,721.4375 41.5156,721.4375 Q41.8906,721.4375 42.125,721.7031 Q42.3594,721.9531 42.3594,722.5625 L42.3594,724.0156 Q42.3594,724.625 42.125,724.8906 Q41.8906,725.1563 41.5156,725.1563 Q41.1719,725.1563 40.9688,724.9531 Q40.7656,724.7656 40.6563,724.25 Q40.6094,723.8906 40.4219,723.7031 Q40.0938,723.3281 39.4844,723.1094 Q38.875,722.8906 38.25,722.8906 Q37.4844,722.8906 36.8438,723.2188 Q36.2188,723.5469 35.7188,724.2969 Q35.2344,725.0469 35.2344,726.0781 L35.2344,727.1719 Q35.2344,728.4063 36.125,729.2344 Q37.0156,730.0469 38.6094,730.0469 Q39.5469,730.0469 40.2031,729.7969 Q40.5938,729.6406 41.0156,729.2031 Q41.2813,728.9375 41.4219,728.8594 Q41.5781,728.7813 41.7813,728.7813 Q42.1094,728.7813 42.3594,729.0469 Q42.625,729.2969 42.625,729.6406 Q42.625,729.9844 42.2813,730.3906 Q41.7813,730.9688 40.9844,731.2969 Q39.9063,731.75 38.6094,731.75 Q37.0938,731.75 35.8906,731.125 Q34.9063,730.625 34.2188,729.5625 Q33.5313,728.4844 33.5313,727.2031 L33.5313,726.0469 Q33.5313,724.7188 34.1406,723.5781 Q34.7656,722.4219 35.8594,721.8125 Q36.9531,721.1875 38.1875,721.1875 Q38.9219,721.1875 39.5625,721.3594 Q40.2188,721.5156 40.7656,721.875 Z " fill="#000000"/><text fill="#000000" font-family="FG Virgil" font-size="14" lengthAdjust="spacing" textLength="138" x="52" y="731.7969">ExtraClassScheduleUI</text><line style="stroke:#181818;stroke-width:0.5;" x1="24" x2="192" y1="742" y2="742"/><line style="stroke:#181818;stroke-width:0.5;" x1="24" x2="192" y1="750" y2="750"/></g><!--class ListAvailableExtraClassSlotsController--><g id="elem_ListAvailableExtraClassSlotsController"><rect codeLine="17" fill="#F1F1F1" height="66.6211" id="ListAvailableExtraClassSlotsController" rx="2.5" ry="2.5" style="stroke:#181818;stroke-width:0.5;" width="432" x="828" y="700.5"/><ellipse cx="920.25" cy="716.5" fill="#ADD1B2" rx="11" ry="11" style="stroke:#181818;stroke-width:1.0;"/><path d="M923.0156,712.375 Q923.1719,712.1563 923.3594,712.0469 Q923.5469,711.9375 923.7656,711.9375 Q924.1406,711.9375 924.375,712.2031 Q924.6094,712.4531 924.6094,713.0625 L924.6094,714.5156 Q924.6094,715.125 924.375,715.3906 Q924.1406,715.6563 923.7656,715.6563 Q923.4219,715.6563 923.2188,715.4531 Q923.0156,715.2656 922.9063,714.75 Q922.8594,714.3906 922.6719,714.2031 Q922.3438,713.8281 921.7344,713.6094 Q921.125,713.3906 920.5,713.3906 Q919.7344,713.3906 919.0938,713.7188 Q918.4688,714.0469 917.9688,714.7969 Q917.4844,715.5469 917.4844,716.5781 L917.4844,717.6719 Q917.4844,718.9063 918.375,719.7344 Q919.2656,720.5469 920.8594,720.5469 Q921.7969,720.5469 922.4531,720.2969 Q922.8438,720.1406 923.2656,719.7031 Q923.5313,719.4375 923.6719,719.3594 Q923.8281,719.2813 924.0313,719.2813 Q924.3594,719.2813 924.6094,719.5469 Q924.875,719.7969 924.875,720.1406 Q924.875,720.4844 924.5313,720.8906 Q924.0313,721.4688 923.2344,721.7969 Q922.1563,722.25 920.8594,722.25 Q919.3438,722.25 918.1406,721.625 Q917.1563,721.125 916.4688,720.0625 Q915.7813,718.9844 915.7813,717.7031 L915.7813,716.5469 Q915.7813,715.2188 916.3906,714.0781 Q917.0156,712.9219 918.1094,712.3125 Q919.2031,711.6875 920.4375,711.6875 Q921.1719,711.6875 921.8125,711.8594 Q922.4688,712.0156 923.0156,712.375 Z " fill="#000000"/><text fill="#000000" font-family="FG Virgil" font-size="14" lengthAdjust="spacing" textLength="239" x="940.75" y="722.2969">ListAvailableExtraClassSlotsController</text><line style="stroke:#181818;stroke-width:0.5;" x1="829" x2="1259" y1="732.5" y2="732.5"/><line style="stroke:#181818;stroke-width:0.5;" x1="829" x2="1259" y1="740.5" y2="740.5"/><ellipse cx="839" cy="755.3105" fill="#84BE84" rx="3" ry="3" style="stroke:#038048;stroke-width:1.0;"/><text fill="#000000" font-family="FG Virgil" font-size="14" lengthAdjust="spacing" textLength="406" x="848" y="759.6074">getAvailableExtraClassSlots(startDate, endDate,course,courses)</text></g><!--class ExtraClassScheduleController--><g id="elem_ExtraClassScheduleController"><rect codeLine="21" fill="#F1F1F1" height="122.4844" id="ExtraClassScheduleController" rx="2.5" ry="2.5" style="stroke:#181818;stroke-width:0.5;" width="406" x="273" y="673"/><ellipse cx="377.75" cy="689" fill="#ADD1B2" rx="11" ry="11" style="stroke:#181818;stroke-width:1.0;"/><path d="M380.5156,684.875 Q380.6719,684.6563 380.8594,684.5469 Q381.0469,684.4375 381.2656,684.4375 Q381.6406,684.4375 381.875,684.7031 Q382.1094,684.9531 382.1094,685.5625 L382.1094,687.0156 Q382.1094,687.625 381.875,687.8906 Q381.6406,688.1563 381.2656,688.1563 Q380.9219,688.1563 380.7188,687.9531 Q380.5156,687.7656 380.4063,687.25 Q380.3594,686.8906 380.1719,686.7031 Q379.8438,686.3281 379.2344,686.1094 Q378.625,685.8906 378,685.8906 Q377.2344,685.8906 376.5938,686.2188 Q375.9688,686.5469 375.4688,687.2969 Q374.9844,688.0469 374.9844,689.0781 L374.9844,690.1719 Q374.9844,691.4063 375.875,692.2344 Q376.7656,693.0469 378.3594,693.0469 Q379.2969,693.0469 379.9531,692.7969 Q380.3438,692.6406 380.7656,692.2031 Q381.0313,691.9375 381.1719,691.8594 Q381.3281,691.7813 381.5313,691.7813 Q381.8594,691.7813 382.1094,692.0469 Q382.375,692.2969 382.375,692.6406 Q382.375,692.9844 382.0313,693.3906 Q381.5313,693.9688 380.7344,694.2969 Q379.6563,694.75 378.3594,694.75 Q376.8438,694.75 375.6406,694.125 Q374.6563,693.625 373.9688,692.5625 Q373.2813,691.4844 373.2813,690.2031 L373.2813,689.0469 Q373.2813,687.7188 373.8906,686.5781 Q374.5156,685.4219 375.6094,684.8125 Q376.7031,684.1875 377.9375,684.1875 Q378.6719,684.1875 379.3125,684.3594 Q379.9688,684.5156 380.5156,684.875 Z " fill="#000000"/><text fill="#000000" font-family="FG Virgil" font-size="14" lengthAdjust="spacing" textLength="188" x="398.25" y="694.7969">ExtraClassScheduleController</text><line style="stroke:#181818;stroke-width:0.5;" x1="274" x2="678" y1="705" y2="705"/><line style="stroke:#181818;stroke-width:0.5;" x1="274" x2="678" y1="713" y2="713"/><ellipse cx="284" cy="727.8105" fill="#84BE84" rx="3" ry="3" style="stroke:#038048;stroke-width:1.0;"/><text fill="#000000" font-family="FG Virgil" font-size="14" lengthAdjust="spacing" textLength="134" x="293" y="732.1074">scheduleExtraClass()</text><ellipse cx="284" cy="746.4316" fill="#84BE84" rx="3" ry="3" style="stroke:#038048;stroke-width:1.0;"/><text fill="#000000" font-family="FG Virgil" font-size="14" lengthAdjust="spacing" textLength="185" x="293" y="750.7285">getAvailableExtraClassSlots()</text><ellipse cx="284" cy="765.0527" fill="#84BE84" rx="3" ry="3" style="stroke:#038048;stroke-width:1.0;"/><text fill="#000000" font-family="FG Virgil" font-size="14" lengthAdjust="spacing" textLength="310" x="293" y="769.3496">getAvailableTeacherCourses(): Iterable&lt;Course&gt;</text><ellipse cx="284" cy="783.6738" fill="#84BE84" rx="3" ry="3" style="stroke:#038048;stroke-width:1.0;"/><text fill="#000000" font-family="FG Virgil" font-size="14" lengthAdjust="spacing" textLength="380" x="293" y="787.9707">getStudentsFromCourse(course): Iterable&lt;EnrolledStudent&gt;</text></g><!--class ClassRepository--><g id="elem_ClassRepository"><rect codeLine="32" fill="#F1F1F1" height="85.2422" id="ClassRepository" rx="2.5" ry="2.5" style="stroke:#181818;stroke-width:0.5;" width="336" x="2785.5" y="252.5"/><ellipse cx="2897.75" cy="268.5" fill="#B4A7E5" rx="11" ry="11" style="stroke:#181818;stroke-width:1.0;"/><path d="M2898.7031,265.1406 L2898.7031,271.7969 L2900.4219,271.7969 Q2901.0313,271.7969 2901.2969,272.0313 Q2901.5625,272.2656 2901.5625,272.6563 Q2901.5625,273.0313 2901.2969,273.2656 Q2901.0313,273.5 2900.4219,273.5 L2895.2813,273.5 Q2894.6719,273.5 2894.4063,273.2656 Q2894.1406,273.0313 2894.1406,272.6406 Q2894.1406,272.2656 2894.4063,272.0313 Q2894.6719,271.7969 2895.2813,271.7969 L2897,271.7969 L2897,265.1406 L2895.2813,265.1406 Q2894.6719,265.1406 2894.4063,264.9063 Q2894.1406,264.6719 2894.1406,264.2813 Q2894.1406,263.9063 2894.4063,263.6719 Q2894.6719,263.4375 2895.2813,263.4375 L2900.4219,263.4375 Q2901.0313,263.4375 2901.2969,263.6719 Q2901.5625,263.9063 2901.5625,264.2813 Q2901.5625,264.6719 2901.2969,264.9063 Q2901.0313,265.1406 2900.4219,265.1406 L2898.7031,265.1406 Z " fill="#000000"/><text fill="#000000" font-family="FG Virgil" font-size="14" font-style="italic" lengthAdjust="spacing" textLength="103" x="2918.25" y="274.2969">ClassRepository</text><line style="stroke:#181818;stroke-width:0.5;" x1="2786.5" x2="3120.5" y1="284.5" y2="284.5"/><line style="stroke:#181818;stroke-width:0.5;" x1="2786.5" x2="3120.5" y1="292.5" y2="292.5"/><ellipse cx="2796.5" cy="307.3105" fill="#84BE84" rx="3" ry="3" style="stroke:#038048;stroke-width:1.0;"/><text fill="#000000" font-family="FG Virgil" font-size="14" lengthAdjust="spacing" textLength="310" x="2805.5" y="311.6074">findCourseClasses(course): Iterable&lt;ExtraClass&gt;</text><ellipse cx="2796.5" cy="325.9316" fill="#84BE84" rx="3" ry="3" style="stroke:#038048;stroke-width:1.0;"/><text fill="#000000" font-family="FG Virgil" font-size="14" lengthAdjust="spacing" textLength="72" x="2805.5" y="330.2285">save(class)</text></g><!--class Class--><g id="elem_Class"><rect codeLine="53" fill="#F1F1F1" height="48" id="Class" rx="2.5" ry="2.5" style="stroke:#181818;stroke-width:0.5;" width="67" x="2046" y="487"/><ellipse cx="2061" cy="503" fill="#A9DCDF" rx="11" ry="11" style="stroke:#181818;stroke-width:1.0;"/><path d="M2063.1875,504.7656 L2059.0469,504.7656 L2058.625,505.7969 L2059.0469,505.7969 Q2059.6563,505.7969 2059.9219,506.0313 Q2060.1875,506.2656 2060.1875,506.6563 Q2060.1875,507.0313 2059.9219,507.2656 Q2059.6563,507.5 2059.0469,507.5 L2056.75,507.5 Q2056.1406,507.5 2055.8906,507.2656 Q2055.625,507.0313 2055.625,506.6406 Q2055.625,506.2656 2055.9063,506.0313 Q2056.1719,505.7813 2056.7969,505.7969 L2059.4688,499.1406 L2058.3594,499.1406 Q2057.75,499.1406 2057.4844,498.9063 Q2057.2188,498.6719 2057.2188,498.2813 Q2057.2188,497.9063 2057.4844,497.6719 Q2057.75,497.4375 2058.3594,497.4375 L2062.0313,497.4375 L2065.4219,505.7969 Q2066.0156,505.7969 2066.2031,505.9375 Q2066.5938,506.2031 2066.5938,506.6563 Q2066.5938,507.0313 2066.3281,507.2656 Q2066.0781,507.5 2065.4688,507.5 L2063.1719,507.5 Q2062.5625,507.5 2062.2969,507.2656 Q2062.0313,507.0313 2062.0313,506.6406 Q2062.0313,506.2656 2062.2969,506.0313 Q2062.5625,505.7969 2063.1719,505.7969 L2063.5938,505.7969 L2063.1875,504.7656 Z M2062.4688,503.0625 L2061.1094,499.6875 L2059.7344,503.0625 L2062.4688,503.0625 Z " fill="#000000"/><text fill="#000000" font-family="FG Virgil" font-size="14" font-style="italic" lengthAdjust="spacing" textLength="35" x="2075" y="508.7969">Class</text><line style="stroke:#181818;stroke-width:0.5;" x1="2047" x2="2112" y1="519" y2="519"/><line style="stroke:#181818;stroke-width:0.5;" x1="2047" x2="2112" y1="527" y2="527"/></g><!--class ClassDuration--><g id="elem_ClassDuration"><rect codeLine="57" fill="#F1F1F1" height="66.6211" id="ClassDuration" rx="2.5" ry="2.5" style="stroke:#181818;stroke-width:0.5;" width="122" x="1551" y="426.5"/><ellipse cx="1566.45" cy="442.5" fill="#ADD1B2" rx="11" ry="11" style="stroke:#181818;stroke-width:1.0;"/><path d="M1569.2156,438.375 Q1569.3719,438.1563 1569.5594,438.0469 Q1569.7469,437.9375 1569.9656,437.9375 Q1570.3406,437.9375 1570.575,438.2031 Q1570.8094,438.4531 1570.8094,439.0625 L1570.8094,440.5156 Q1570.8094,441.125 1570.575,441.3906 Q1570.3406,441.6563 1569.9656,441.6563 Q1569.6219,441.6563 1569.4188,441.4531 Q1569.2156,441.2656 1569.1063,440.75 Q1569.0594,440.3906 1568.8719,440.2031 Q1568.5438,439.8281 1567.9344,439.6094 Q1567.325,439.3906 1566.7,439.3906 Q1565.9344,439.3906 1565.2938,439.7188 Q1564.6688,440.0469 1564.1688,440.7969 Q1563.6844,441.5469 1563.6844,442.5781 L1563.6844,443.6719 Q1563.6844,444.9063 1564.575,445.7344 Q1565.4656,446.5469 1567.0594,446.5469 Q1567.9969,446.5469 1568.6531,446.2969 Q1569.0438,446.1406 1569.4656,445.7031 Q1569.7313,445.4375 1569.8719,445.3594 Q1570.0281,445.2813 1570.2313,445.2813 Q1570.5594,445.2813 1570.8094,445.5469 Q1571.075,445.7969 1571.075,446.1406 Q1571.075,446.4844 1570.7313,446.8906 Q1570.2313,447.4688 1569.4344,447.7969 Q1568.3563,448.25 1567.0594,448.25 Q1565.5438,448.25 1564.3406,447.625 Q1563.3563,447.125 1562.6688,446.0625 Q1561.9813,444.9844 1561.9813,443.7031 L1561.9813,442.5469 Q1561.9813,441.2188 1562.5906,440.0781 Q1563.2156,438.9219 1564.3094,438.3125 Q1565.4031,437.6875 1566.6375,437.6875 Q1567.3719,437.6875 1568.0125,437.8594 Q1568.6688,438.0156 1569.2156,438.375 Z " fill="#000000"/><text fill="#000000" font-family="FG Virgil" font-size="14" lengthAdjust="spacing" textLength="89" x="1580.55" y="448.2969">ClassDuration</text><line style="stroke:#181818;stroke-width:0.5;" x1="1552" x2="1672" y1="458.5" y2="458.5"/><rect fill="none" height="6" style="stroke:#C82930;stroke-width:1.0;" width="6" x="1559" y="470.3105"/><text fill="#000000" font-family="FG Virgil" font-size="14" lengthAdjust="spacing" textLength="96" x="1571" y="477.6074">duration : Float</text><line style="stroke:#181818;stroke-width:0.5;" x1="1552" x2="1672" y1="485.1211" y2="485.1211"/></g><!--class ClassTitle--><g id="elem_ClassTitle"><rect codeLine="61" fill="#F1F1F1" height="66.6211" id="ClassTitle" rx="2.5" ry="2.5" style="stroke:#181818;stroke-width:0.5;" width="97" x="1563.5" y="528.5"/><ellipse cx="1579.85" cy="544.5" fill="#ADD1B2" rx="11" ry="11" style="stroke:#181818;stroke-width:1.0;"/><path d="M1582.6156,540.375 Q1582.7719,540.1563 1582.9594,540.0469 Q1583.1469,539.9375 1583.3656,539.9375 Q1583.7406,539.9375 1583.975,540.2031 Q1584.2094,540.4531 1584.2094,541.0625 L1584.2094,542.5156 Q1584.2094,543.125 1583.975,543.3906 Q1583.7406,543.6563 1583.3656,543.6563 Q1583.0219,543.6563 1582.8188,543.4531 Q1582.6156,543.2656 1582.5063,542.75 Q1582.4594,542.3906 1582.2719,542.2031 Q1581.9438,541.8281 1581.3344,541.6094 Q1580.725,541.3906 1580.1,541.3906 Q1579.3344,541.3906 1578.6938,541.7188 Q1578.0688,542.0469 1577.5688,542.7969 Q1577.0844,543.5469 1577.0844,544.5781 L1577.0844,545.6719 Q1577.0844,546.9063 1577.975,547.7344 Q1578.8656,548.5469 1580.4594,548.5469 Q1581.3969,548.5469 1582.0531,548.2969 Q1582.4438,548.1406 1582.8656,547.7031 Q1583.1313,547.4375 1583.2719,547.3594 Q1583.4281,547.2813 1583.6313,547.2813 Q1583.9594,547.2813 1584.2094,547.5469 Q1584.475,547.7969 1584.475,548.1406 Q1584.475,548.4844 1584.1313,548.8906 Q1583.6313,549.4688 1582.8344,549.7969 Q1581.7563,550.25 1580.4594,550.25 Q1578.9438,550.25 1577.7406,549.625 Q1576.7563,549.125 1576.0688,548.0625 Q1575.3813,546.9844 1575.3813,545.7031 L1575.3813,544.5469 Q1575.3813,543.2188 1575.9906,542.0781 Q1576.6156,540.9219 1577.7094,540.3125 Q1578.8031,539.6875 1580.0375,539.6875 Q1580.7719,539.6875 1581.4125,539.8594 Q1582.0688,540.0156 1582.6156,540.375 Z " fill="#000000"/><text fill="#000000" font-family="FG Virgil" font-size="14" lengthAdjust="spacing" textLength="62" x="1594.15" y="550.2969">ClassTitle</text><line style="stroke:#181818;stroke-width:0.5;" x1="1564.5" x2="1659.5" y1="560.5" y2="560.5"/><rect fill="none" height="6" style="stroke:#C82930;stroke-width:1.0;" width="6" x="1571.5" y="572.3105"/><text fill="#000000" font-family="FG Virgil" font-size="14" lengthAdjust="spacing" textLength="71" x="1583.5" y="579.6074">title : String</text><line style="stroke:#181818;stroke-width:0.5;" x1="1564.5" x2="1659.5" y1="587.1211" y2="587.1211"/></g><!--class ExtraClass--><g id="elem_ExtraClass"><rect codeLine="65" fill="#F1F1F1" height="66.6211" id="ExtraClass" rx="2.5" ry="2.5" style="stroke:#181818;stroke-width:0.5;" width="233" x="1495.5" y="324.5"/><ellipse cx="1574.25" cy="340.5" fill="#ADD1B2" rx="11" ry="11" style="stroke:#181818;stroke-width:1.0;"/><path d="M1577.0156,336.375 Q1577.1719,336.1563 1577.3594,336.0469 Q1577.5469,335.9375 1577.7656,335.9375 Q1578.1406,335.9375 1578.375,336.2031 Q1578.6094,336.4531 1578.6094,337.0625 L1578.6094,338.5156 Q1578.6094,339.125 1578.375,339.3906 Q1578.1406,339.6563 1577.7656,339.6563 Q1577.4219,339.6563 1577.2188,339.4531 Q1577.0156,339.2656 1576.9063,338.75 Q1576.8594,338.3906 1576.6719,338.2031 Q1576.3438,337.8281 1575.7344,337.6094 Q1575.125,337.3906 1574.5,337.3906 Q1573.7344,337.3906 1573.0938,337.7188 Q1572.4688,338.0469 1571.9688,338.7969 Q1571.4844,339.5469 1571.4844,340.5781 L1571.4844,341.6719 Q1571.4844,342.9063 1572.375,343.7344 Q1573.2656,344.5469 1574.8594,344.5469 Q1575.7969,344.5469 1576.4531,344.2969 Q1576.8438,344.1406 1577.2656,343.7031 Q1577.5313,343.4375 1577.6719,343.3594 Q1577.8281,343.2813 1578.0313,343.2813 Q1578.3594,343.2813 1578.6094,343.5469 Q1578.875,343.7969 1578.875,344.1406 Q1578.875,344.4844 1578.5313,344.8906 Q1578.0313,345.4688 1577.2344,345.7969 Q1576.1563,346.25 1574.8594,346.25 Q1573.3438,346.25 1572.1406,345.625 Q1571.1563,345.125 1570.4688,344.0625 Q1569.7813,342.9844 1569.7813,341.7031 L1569.7813,340.5469 Q1569.7813,339.2188 1570.3906,338.0781 Q1571.0156,336.9219 1572.1094,336.3125 Q1573.2031,335.6875 1574.4375,335.6875 Q1575.1719,335.6875 1575.8125,335.8594 Q1576.4688,336.0156 1577.0156,336.375 Z " fill="#000000"/><text fill="#000000" font-family="FG Virgil" font-size="14" lengthAdjust="spacing" textLength="67" x="1594.75" y="346.2969">ExtraClass</text><line style="stroke:#181818;stroke-width:0.5;" x1="1496.5" x2="1727.5" y1="356.5" y2="356.5"/><rect fill="none" height="6" style="stroke:#C82930;stroke-width:1.0;" width="6" x="1503.5" y="368.3105"/><text fill="#000000" font-family="FG Virgil" font-size="14" lengthAdjust="spacing" textLength="207" x="1515.5" y="375.6074">participants : List&lt;ECourseUser&gt;</text><line style="stroke:#181818;stroke-width:0.5;" x1="1496.5" x2="1727.5" y1="383.1211" y2="383.1211"/></g><!--class ExtraClassDate--><g id="elem_ExtraClassDate"><rect codeLine="69" fill="#F1F1F1" height="85.2422" id="ExtraClassDate" rx="2.5" ry="2.5" style="stroke:#181818;stroke-width:0.5;" width="129" x="979.5" y="510.5"/><ellipse cx="994.5" cy="526.5" fill="#ADD1B2" rx="11" ry="11" style="stroke:#181818;stroke-width:1.0;"/><path d="M997.2656,522.375 Q997.4219,522.1563 997.6094,522.0469 Q997.7969,521.9375 998.0156,521.9375 Q998.3906,521.9375 998.625,522.2031 Q998.8594,522.4531 998.8594,523.0625 L998.8594,524.5156 Q998.8594,525.125 998.625,525.3906 Q998.3906,525.6563 998.0156,525.6563 Q997.6719,525.6563 997.4688,525.4531 Q997.2656,525.2656 997.1563,524.75 Q997.1094,524.3906 996.9219,524.2031 Q996.5938,523.8281 995.9844,523.6094 Q995.375,523.3906 994.75,523.3906 Q993.9844,523.3906 993.3438,523.7188 Q992.7188,524.0469 992.2188,524.7969 Q991.7344,525.5469 991.7344,526.5781 L991.7344,527.6719 Q991.7344,528.9063 992.625,529.7344 Q993.5156,530.5469 995.1094,530.5469 Q996.0469,530.5469 996.7031,530.2969 Q997.0938,530.1406 997.5156,529.7031 Q997.7813,529.4375 997.9219,529.3594 Q998.0781,529.2813 998.2813,529.2813 Q998.6094,529.2813 998.8594,529.5469 Q999.125,529.7969 999.125,530.1406 Q999.125,530.4844 998.7813,530.8906 Q998.2813,531.4688 997.4844,531.7969 Q996.4063,532.25 995.1094,532.25 Q993.5938,532.25 992.3906,531.625 Q991.4063,531.125 990.7188,530.0625 Q990.0313,528.9844 990.0313,527.7031 L990.0313,526.5469 Q990.0313,525.2188 990.6406,524.0781 Q991.2656,522.9219 992.3594,522.3125 Q993.4531,521.6875 994.6875,521.6875 Q995.4219,521.6875 996.0625,521.8594 Q996.7188,522.0156 997.2656,522.375 Z " fill="#000000"/><text fill="#000000" font-family="FG Virgil" font-size="14" lengthAdjust="spacing" textLength="97" x="1008.5" y="532.2969">ExtraClassDate</text><line style="stroke:#181818;stroke-width:0.5;" x1="980.5" x2="1107.5" y1="542.5" y2="542.5"/><rect fill="none" height="6" style="stroke:#C82930;stroke-width:1.0;" width="6" x="987.5" y="554.3105"/><text fill="#000000" font-family="FG Virgil" font-size="14" lengthAdjust="spacing" textLength="100" x="999.5" y="561.6074">startDate : Date</text><rect fill="none" height="6" style="stroke:#C82930;stroke-width:1.0;" width="6" x="987.5" y="572.9316"/><text fill="#000000" font-family="FG Virgil" font-size="14" lengthAdjust="spacing" textLength="96" x="999.5" y="580.2285">endDate : Date</text><line style="stroke:#181818;stroke-width:0.5;" x1="980.5" x2="1107.5" y1="587.7422" y2="587.7422"/></g><!--class ExtraClassBuilder--><g id="elem_ExtraClassBuilder"><rect codeLine="42" fill="#F1F1F1" height="159.7266" id="ExtraClassBuilder" rx="2.5" ry="2.5" style="stroke:#181818;stroke-width:0.5;" width="210" x="939" y="315"/><ellipse cx="984.25" cy="331" fill="#ADD1B2" rx="11" ry="11" style="stroke:#181818;stroke-width:1.0;"/><path d="M987.0156,326.875 Q987.1719,326.6563 987.3594,326.5469 Q987.5469,326.4375 987.7656,326.4375 Q988.1406,326.4375 988.375,326.7031 Q988.6094,326.9531 988.6094,327.5625 L988.6094,329.0156 Q988.6094,329.625 988.375,329.8906 Q988.1406,330.1563 987.7656,330.1563 Q987.4219,330.1563 987.2188,329.9531 Q987.0156,329.7656 986.9063,329.25 Q986.8594,328.8906 986.6719,328.7031 Q986.3438,328.3281 985.7344,328.1094 Q985.125,327.8906 984.5,327.8906 Q983.7344,327.8906 983.0938,328.2188 Q982.4688,328.5469 981.9688,329.2969 Q981.4844,330.0469 981.4844,331.0781 L981.4844,332.1719 Q981.4844,333.4063 982.375,334.2344 Q983.2656,335.0469 984.8594,335.0469 Q985.7969,335.0469 986.4531,334.7969 Q986.8438,334.6406 987.2656,334.2031 Q987.5313,333.9375 987.6719,333.8594 Q987.8281,333.7813 988.0313,333.7813 Q988.3594,333.7813 988.6094,334.0469 Q988.875,334.2969 988.875,334.6406 Q988.875,334.9844 988.5313,335.3906 Q988.0313,335.9688 987.2344,336.2969 Q986.1563,336.75 984.8594,336.75 Q983.3438,336.75 982.1406,336.125 Q981.1563,335.625 980.4688,334.5625 Q979.7813,333.4844 979.7813,332.2031 L979.7813,331.0469 Q979.7813,329.7188 980.3906,328.5781 Q981.0156,327.4219 982.1094,326.8125 Q983.2031,326.1875 984.4375,326.1875 Q985.1719,326.1875 985.8125,326.3594 Q986.4688,326.5156 987.0156,326.875 Z " fill="#000000"/><text fill="#000000" font-family="FG Virgil" font-size="14" lengthAdjust="spacing" textLength="111" x="1004.75" y="336.7969">ExtraClassBuilder</text><line style="stroke:#181818;stroke-width:0.5;" x1="940" x2="1148" y1="347" y2="347"/><line style="stroke:#181818;stroke-width:0.5;" x1="940" x2="1148" y1="355" y2="355"/><ellipse cx="950" cy="369.8105" fill="#84BE84" rx="3" ry="3" style="stroke:#038048;stroke-width:1.0;"/><text fill="#000000" font-family="FG Virgil" font-size="14" lengthAdjust="spacing" textLength="123" x="959" y="374.1074">withCourse(course)</text><ellipse cx="950" cy="388.4316" fill="#84BE84" rx="3" ry="3" style="stroke:#038048;stroke-width:1.0;"/><text fill="#000000" font-family="FG Virgil" font-size="14" lengthAdjust="spacing" textLength="118" x="959" y="392.7285">withClassTitle(title)</text><ellipse cx="950" cy="407.0527" fill="#84BE84" rx="3" ry="3" style="stroke:#038048;stroke-width:1.0;"/><text fill="#000000" font-family="FG Virgil" font-size="14" lengthAdjust="spacing" textLength="175" x="959" y="411.3496">withClassDuration(duration)</text><ellipse cx="950" cy="425.6738" fill="#84BE84" rx="3" ry="3" style="stroke:#038048;stroke-width:1.0;"/><text fill="#000000" font-family="FG Virgil" font-size="14" lengthAdjust="spacing" textLength="184" x="959" y="429.9707">withDate(startDate, endDate)</text><ellipse cx="950" cy="444.2949" fill="#84BE84" rx="3" ry="3" style="stroke:#038048;stroke-width:1.0;"/><text fill="#000000" font-family="FG Virgil" font-size="14" lengthAdjust="spacing" textLength="135" x="959" y="448.5918">withTeacher(teacher)</text><ellipse cx="950" cy="462.916" fill="#84BE84" rx="3" ry="3" style="stroke:#038048;stroke-width:1.0;"/><text fill="#000000" font-family="FG Virgil" font-size="14" lengthAdjust="spacing" textLength="115" x="959" y="467.2129">build(): ExtraClass</text></g><!--class ClassScheduler--><g id="elem_ClassScheduler"><rect codeLine="76" fill="#F1F1F1" height="103.8633" id="ClassScheduler" rx="2.5" ry="2.5" style="stroke:#181818;stroke-width:0.5;" width="488" x="800" y="134"/><ellipse cx="990.25" cy="150" fill="#ADD1B2" rx="11" ry="11" style="stroke:#181818;stroke-width:1.0;"/><path d="M993.0156,145.875 Q993.1719,145.6563 993.3594,145.5469 Q993.5469,145.4375 993.7656,145.4375 Q994.1406,145.4375 994.375,145.7031 Q994.6094,145.9531 994.6094,146.5625 L994.6094,148.0156 Q994.6094,148.625 994.375,148.8906 Q994.1406,149.1563 993.7656,149.1563 Q993.4219,149.1563 993.2188,148.9531 Q993.0156,148.7656 992.9063,148.25 Q992.8594,147.8906 992.6719,147.7031 Q992.3438,147.3281 991.7344,147.1094 Q991.125,146.8906 990.5,146.8906 Q989.7344,146.8906 989.0938,147.2188 Q988.4688,147.5469 987.9688,148.2969 Q987.4844,149.0469 987.4844,150.0781 L987.4844,151.1719 Q987.4844,152.4063 988.375,153.2344 Q989.2656,154.0469 990.8594,154.0469 Q991.7969,154.0469 992.4531,153.7969 Q992.8438,153.6406 993.2656,153.2031 Q993.5313,152.9375 993.6719,152.8594 Q993.8281,152.7813 994.0313,152.7813 Q994.3594,152.7813 994.6094,153.0469 Q994.875,153.2969 994.875,153.6406 Q994.875,153.9844 994.5313,154.3906 Q994.0313,154.9688 993.2344,155.2969 Q992.1563,155.75 990.8594,155.75 Q989.3438,155.75 988.1406,155.125 Q987.1563,154.625 986.4688,153.5625 Q985.7813,152.4844 985.7813,151.2031 L985.7813,150.0469 Q985.7813,148.7188 986.3906,147.5781 Q987.0156,146.4219 988.1094,145.8125 Q989.2031,145.1875 990.4375,145.1875 Q991.1719,145.1875 991.8125,145.3594 Q992.4688,145.5156 993.0156,145.875 Z " fill="#000000"/><text fill="#000000" font-family="FG Virgil" font-size="14" lengthAdjust="spacing" textLength="99" x="1010.75" y="155.7969">ClassScheduler</text><line style="stroke:#181818;stroke-width:0.5;" x1="801" x2="1287" y1="166" y2="166"/><line style="stroke:#181818;stroke-width:0.5;" x1="801" x2="1287" y1="174" y2="174"/><ellipse cx="811" cy="188.8105" fill="#84BE84" rx="3" ry="3" style="stroke:#038048;stroke-width:1.0;"/><text fill="#000000" font-family="FG Virgil" font-size="14" lengthAdjust="spacing" textLength="134" x="820" y="193.1074">scheduleExtraClass()</text><ellipse cx="811" cy="207.4316" fill="#84BE84" rx="3" ry="3" style="stroke:#038048;stroke-width:1.0;"/><text fill="#000000" font-family="FG Virgil" font-size="14" lengthAdjust="spacing" textLength="462" x="820" y="211.7285">getAvailableExtraClassSlots(startDate, endDate,teacher, course,courses)</text><ellipse cx="811" cy="226.0527" fill="#84BE84" rx="3" ry="3" style="stroke:#038048;stroke-width:1.0;"/><text fill="#000000" font-family="FG Virgil" font-size="14" lengthAdjust="spacing" textLength="189" x="820" y="230.3496">validateExtraClass() : boolean</text></g><!--class CourseRepository--><g id="elem_CourseRepository"><rect codeLine="88" fill="#F1F1F1" height="66.6211" id="CourseRepository" rx="2.5" ry="2.5" style="stroke:#181818;stroke-width:0.5;" width="339" x="2784" y="1405.5"/><ellipse cx="2892.25" cy="1421.5" fill="#B4A7E5" rx="11" ry="11" style="stroke:#181818;stroke-width:1.0;"/><path d="M2893.2031,1418.1406 L2893.2031,1424.7969 L2894.9219,1424.7969 Q2895.5313,1424.7969 2895.7969,1425.0313 Q2896.0625,1425.2656 2896.0625,1425.6563 Q2896.0625,1426.0313 2895.7969,1426.2656 Q2895.5313,1426.5 2894.9219,1426.5 L2889.7813,1426.5 Q2889.1719,1426.5 2888.9063,1426.2656 Q2888.6406,1426.0313 2888.6406,1425.6406 Q2888.6406,1425.2656 2888.9063,1425.0313 Q2889.1719,1424.7969 2889.7813,1424.7969 L2891.5,1424.7969 L2891.5,1418.1406 L2889.7813,1418.1406 Q2889.1719,1418.1406 2888.9063,1417.9063 Q2888.6406,1417.6719 2888.6406,1417.2813 Q2888.6406,1416.9063 2888.9063,1416.6719 Q2889.1719,1416.4375 2889.7813,1416.4375 L2894.9219,1416.4375 Q2895.5313,1416.4375 2895.7969,1416.6719 Q2896.0625,1416.9063 2896.0625,1417.2813 Q2896.0625,1417.6719 2895.7969,1417.9063 Q2895.5313,1418.1406 2894.9219,1418.1406 L2893.2031,1418.1406 Z " fill="#000000"/><text fill="#000000" font-family="FG Virgil" font-size="14" font-style="italic" lengthAdjust="spacing" textLength="114" x="2912.75" y="1427.2969">CourseRepository</text><line style="stroke:#181818;stroke-width:0.5;" x1="2785" x2="3122" y1="1437.5" y2="1437.5"/><line style="stroke:#181818;stroke-width:0.5;" x1="2785" x2="3122" y1="1445.5" y2="1445.5"/><ellipse cx="2795" cy="1460.3105" fill="#84BE84" rx="3" ry="3" style="stroke:#038048;stroke-width:1.0;"/><text fill="#000000" font-family="FG Virgil" font-size="14" lengthAdjust="spacing" textLength="313" x="2804" y="1464.6074">findAvailableTeacherCourses(): Iterable&lt;Course&gt;</text></g><!--class Course--><g id="elem_Course"><rect codeLine="95" fill="#F1F1F1" height="48" id="Course" rx="2.5" ry="2.5" style="stroke:#181818;stroke-width:0.5;" width="78" x="2914.5" y="1280"/><ellipse cx="2929.5" cy="1296" fill="#ADD1B2" rx="11" ry="11" style="stroke:#181818;stroke-width:1.0;"/><path d="M2932.2656,1291.875 Q2932.4219,1291.6563 2932.6094,1291.5469 Q2932.7969,1291.4375 2933.0156,1291.4375 Q2933.3906,1291.4375 2933.625,1291.7031 Q2933.8594,1291.9531 2933.8594,1292.5625 L2933.8594,1294.0156 Q2933.8594,1294.625 2933.625,1294.8906 Q2933.3906,1295.1563 2933.0156,1295.1563 Q2932.6719,1295.1563 2932.4688,1294.9531 Q2932.2656,1294.7656 2932.1563,1294.25 Q2932.1094,1293.8906 2931.9219,1293.7031 Q2931.5938,1293.3281 2930.9844,1293.1094 Q2930.375,1292.8906 2929.75,1292.8906 Q2928.9844,1292.8906 2928.3438,1293.2188 Q2927.7188,1293.5469 2927.2188,1294.2969 Q2926.7344,1295.0469 2926.7344,1296.0781 L2926.7344,1297.1719 Q2926.7344,1298.4063 2927.625,1299.2344 Q2928.5156,1300.0469 2930.1094,1300.0469 Q2931.0469,1300.0469 2931.7031,1299.7969 Q2932.0938,1299.6406 2932.5156,1299.2031 Q2932.7813,1298.9375 2932.9219,1298.8594 Q2933.0781,1298.7813 2933.2813,1298.7813 Q2933.6094,1298.7813 2933.8594,1299.0469 Q2934.125,1299.2969 2934.125,1299.6406 Q2934.125,1299.9844 2933.7813,1300.3906 Q2933.2813,1300.9688 2932.4844,1301.2969 Q2931.4063,1301.75 2930.1094,1301.75 Q2928.5938,1301.75 2927.3906,1301.125 Q2926.4063,1300.625 2925.7188,1299.5625 Q2925.0313,1298.4844 2925.0313,1297.2031 L2925.0313,1296.0469 Q2925.0313,1294.7188 2925.6406,1293.5781 Q2926.2656,1292.4219 2927.3594,1291.8125 Q2928.4531,1291.1875 2929.6875,1291.1875 Q2930.4219,1291.1875 2931.0625,1291.3594 Q2931.7188,1291.5156 2932.2656,1291.875 Z " fill="#000000"/><text fill="#000000" font-family="FG Virgil" font-size="14" lengthAdjust="spacing" textLength="46" x="2943.5" y="1301.7969">Course</text><line style="stroke:#181818;stroke-width:0.5;" x1="2915.5" x2="2991.5" y1="1312" y2="1312"/><line style="stroke:#181818;stroke-width:0.5;" x1="2915.5" x2="2991.5" y1="1320" y2="1320"/></g><!--class ListTeacherCoursesController--><g id="elem_ListTeacherCoursesController"><rect codeLine="101" fill="#F1F1F1" height="66.6211" id="ListTeacherCoursesController" rx="2.5" ry="2.5" style="stroke:#181818;stroke-width:0.5;" width="336" x="2388" y="1405.5"/><ellipse cx="2456.75" cy="1421.5" fill="#ADD1B2" rx="11" ry="11" style="stroke:#181818;stroke-width:1.0;"/><path d="M2459.5156,1417.375 Q2459.6719,1417.1563 2459.8594,1417.0469 Q2460.0469,1416.9375 2460.2656,1416.9375 Q2460.6406,1416.9375 2460.875,1417.2031 Q2461.1094,1417.4531 2461.1094,1418.0625 L2461.1094,1419.5156 Q2461.1094,1420.125 2460.875,1420.3906 Q2460.6406,1420.6563 2460.2656,1420.6563 Q2459.9219,1420.6563 2459.7188,1420.4531 Q2459.5156,1420.2656 2459.4063,1419.75 Q2459.3594,1419.3906 2459.1719,1419.2031 Q2458.8438,1418.8281 2458.2344,1418.6094 Q2457.625,1418.3906 2457,1418.3906 Q2456.2344,1418.3906 2455.5938,1418.7188 Q2454.9688,1419.0469 2454.4688,1419.7969 Q2453.9844,1420.5469 2453.9844,1421.5781 L2453.9844,1422.6719 Q2453.9844,1423.9063 2454.875,1424.7344 Q2455.7656,1425.5469 2457.3594,1425.5469 Q2458.2969,1425.5469 2458.9531,1425.2969 Q2459.3438,1425.1406 2459.7656,1424.7031 Q2460.0313,1424.4375 2460.1719,1424.3594 Q2460.3281,1424.2813 2460.5313,1424.2813 Q2460.8594,1424.2813 2461.1094,1424.5469 Q2461.375,1424.7969 2461.375,1425.1406 Q2461.375,1425.4844 2461.0313,1425.8906 Q2460.5313,1426.4688 2459.7344,1426.7969 Q2458.6563,1427.25 2457.3594,1427.25 Q2455.8438,1427.25 2454.6406,1426.625 Q2453.6563,1426.125 2452.9688,1425.0625 Q2452.2813,1423.9844 2452.2813,1422.7031 L2452.2813,1421.5469 Q2452.2813,1420.2188 2452.8906,1419.0781 Q2453.5156,1417.9219 2454.6094,1417.3125 Q2455.7031,1416.6875 2456.9375,1416.6875 Q2457.6719,1416.6875 2458.3125,1416.8594 Q2458.9688,1417.0156 2459.5156,1417.375 Z " fill="#000000"/><text fill="#000000" font-family="FG Virgil" font-size="14" lengthAdjust="spacing" textLength="190" x="2477.25" y="1427.2969">ListTeacherCoursesController</text><line style="stroke:#181818;stroke-width:0.5;" x1="2389" x2="2723" y1="1437.5" y2="1437.5"/><line style="stroke:#181818;stroke-width:0.5;" x1="2389" x2="2723" y1="1445.5" y2="1445.5"/><ellipse cx="2399" cy="1460.3105" fill="#84BE84" rx="3" ry="3" style="stroke:#038048;stroke-width:1.0;"/><text fill="#000000" font-family="FG Virgil" font-size="14" lengthAdjust="spacing" textLength="310" x="2408" y="1464.6074">getAvailableTeacherCourses(): Iterable&lt;Course&gt;</text></g><!--class EnrolledStudentRepository--><g id="elem_EnrolledStudentRepository"><rect codeLine="111" fill="#F1F1F1" height="66.6211" id="EnrolledStudentRepository" rx="2.5" ry="2.5" style="stroke:#181818;stroke-width:0.5;" width="409" x="1875" y="1405.5"/><ellipse cx="1990.75" cy="1421.5" fill="#B4A7E5" rx="11" ry="11" style="stroke:#181818;stroke-width:1.0;"/><path d="M1991.7031,1418.1406 L1991.7031,1424.7969 L1993.4219,1424.7969 Q1994.0313,1424.7969 1994.2969,1425.0313 Q1994.5625,1425.2656 1994.5625,1425.6563 Q1994.5625,1426.0313 1994.2969,1426.2656 Q1994.0313,1426.5 1993.4219,1426.5 L1988.2813,1426.5 Q1987.6719,1426.5 1987.4063,1426.2656 Q1987.1406,1426.0313 1987.1406,1425.6406 Q1987.1406,1425.2656 1987.4063,1425.0313 Q1987.6719,1424.7969 1988.2813,1424.7969 L1990,1424.7969 L1990,1418.1406 L1988.2813,1418.1406 Q1987.6719,1418.1406 1987.4063,1417.9063 Q1987.1406,1417.6719 1987.1406,1417.2813 Q1987.1406,1416.9063 1987.4063,1416.6719 Q1987.6719,1416.4375 1988.2813,1416.4375 L1993.4219,1416.4375 Q1994.0313,1416.4375 1994.2969,1416.6719 Q1994.5625,1416.9063 1994.5625,1417.2813 Q1994.5625,1417.6719 1994.2969,1417.9063 Q1994.0313,1418.1406 1993.4219,1418.1406 L1991.7031,1418.1406 Z " fill="#000000"/><text fill="#000000" font-family="FG Virgil" font-size="14" font-style="italic" lengthAdjust="spacing" textLength="169" x="2011.25" y="1427.2969">EnrolledStudentRepository</text><line style="stroke:#181818;stroke-width:0.5;" x1="1876" x2="2283" y1="1437.5" y2="1437.5"/><line style="stroke:#181818;stroke-width:0.5;" x1="1876" x2="2283" y1="1445.5" y2="1445.5"/><ellipse cx="1886" cy="1460.3105" fill="#84BE84" rx="3" ry="3" style="stroke:#038048;stroke-width:1.0;"/><text fill="#000000" font-family="FG Virgil" font-size="14" lengthAdjust="spacing" textLength="383" x="1895" y="1464.6074">findStudentsFromCourse(course): Iterable&lt;EnrolledStudent&gt;</text></g><!--class EnrolledStudent--><g id="elem_EnrolledStudent"><rect codeLine="118" fill="#F1F1F1" height="48" id="EnrolledStudent" rx="2.5" ry="2.5" style="stroke:#181818;stroke-width:0.5;" width="133" x="2013" y="1280"/><ellipse cx="2028" cy="1296" fill="#ADD1B2" rx="11" ry="11" style="stroke:#181818;stroke-width:1.0;"/><path d="M2030.7656,1291.875 Q2030.9219,1291.6563 2031.1094,1291.5469 Q2031.2969,1291.4375 2031.5156,1291.4375 Q2031.8906,1291.4375 2032.125,1291.7031 Q2032.3594,1291.9531 2032.3594,1292.5625 L2032.3594,1294.0156 Q2032.3594,1294.625 2032.125,1294.8906 Q2031.8906,1295.1563 2031.5156,1295.1563 Q2031.1719,1295.1563 2030.9688,1294.9531 Q2030.7656,1294.7656 2030.6563,1294.25 Q2030.6094,1293.8906 2030.4219,1293.7031 Q2030.0938,1293.3281 2029.4844,1293.1094 Q2028.875,1292.8906 2028.25,1292.8906 Q2027.4844,1292.8906 2026.8438,1293.2188 Q2026.2188,1293.5469 2025.7188,1294.2969 Q2025.2344,1295.0469 2025.2344,1296.0781 L2025.2344,1297.1719 Q2025.2344,1298.4063 2026.125,1299.2344 Q2027.0156,1300.0469 2028.6094,1300.0469 Q2029.5469,1300.0469 2030.2031,1299.7969 Q2030.5938,1299.6406 2031.0156,1299.2031 Q2031.2813,1298.9375 2031.4219,1298.8594 Q2031.5781,1298.7813 2031.7813,1298.7813 Q2032.1094,1298.7813 2032.3594,1299.0469 Q2032.625,1299.2969 2032.625,1299.6406 Q2032.625,1299.9844 2032.2813,1300.3906 Q2031.7813,1300.9688 2030.9844,1301.2969 Q2029.9063,1301.75 2028.6094,1301.75 Q2027.0938,1301.75 2025.8906,1301.125 Q2024.9063,1300.625 2024.2188,1299.5625 Q2023.5313,1298.4844 2023.5313,1297.2031 L2023.5313,1296.0469 Q2023.5313,1294.7188 2024.1406,1293.5781 Q2024.7656,1292.4219 2025.8594,1291.8125 Q2026.9531,1291.1875 2028.1875,1291.1875 Q2028.9219,1291.1875 2029.5625,1291.3594 Q2030.2188,1291.5156 2030.7656,1291.875 Z " fill="#000000"/><text fill="#000000" font-family="FG Virgil" font-size="14" lengthAdjust="spacing" textLength="101" x="2042" y="1301.7969">EnrolledStudent</text><line style="stroke:#181818;stroke-width:0.5;" x1="2014" x2="2145" y1="1312" y2="1312"/><line style="stroke:#181818;stroke-width:0.5;" x1="2014" x2="2145" y1="1320" y2="1320"/></g><!--class ListCourseStudentsController--><g id="elem_ListCourseStudentsController"><rect codeLine="124" fill="#F1F1F1" height="66.6211" id="ListCourseStudentsController" rx="2.5" ry="2.5" style="stroke:#181818;stroke-width:0.5;" width="406" x="1409" y="1280.5"/><ellipse cx="1514.75" cy="1296.5" fill="#ADD1B2" rx="11" ry="11" style="stroke:#181818;stroke-width:1.0;"/><path d="M1517.5156,1292.375 Q1517.6719,1292.1563 1517.8594,1292.0469 Q1518.0469,1291.9375 1518.2656,1291.9375 Q1518.6406,1291.9375 1518.875,1292.2031 Q1519.1094,1292.4531 1519.1094,1293.0625 L1519.1094,1294.5156 Q1519.1094,1295.125 1518.875,1295.3906 Q1518.6406,1295.6563 1518.2656,1295.6563 Q1517.9219,1295.6563 1517.7188,1295.4531 Q1517.5156,1295.2656 1517.4063,1294.75 Q1517.3594,1294.3906 1517.1719,1294.2031 Q1516.8438,1293.8281 1516.2344,1293.6094 Q1515.625,1293.3906 1515,1293.3906 Q1514.2344,1293.3906 1513.5938,1293.7188 Q1512.9688,1294.0469 1512.4688,1294.7969 Q1511.9844,1295.5469 1511.9844,1296.5781 L1511.9844,1297.6719 Q1511.9844,1298.9063 1512.875,1299.7344 Q1513.7656,1300.5469 1515.3594,1300.5469 Q1516.2969,1300.5469 1516.9531,1300.2969 Q1517.3438,1300.1406 1517.7656,1299.7031 Q1518.0313,1299.4375 1518.1719,1299.3594 Q1518.3281,1299.2813 1518.5313,1299.2813 Q1518.8594,1299.2813 1519.1094,1299.5469 Q1519.375,1299.7969 1519.375,1300.1406 Q1519.375,1300.4844 1519.0313,1300.8906 Q1518.5313,1301.4688 1517.7344,1301.7969 Q1516.6563,1302.25 1515.3594,1302.25 Q1513.8438,1302.25 1512.6406,1301.625 Q1511.6563,1301.125 1510.9688,1300.0625 Q1510.2813,1298.9844 1510.2813,1297.7031 L1510.2813,1296.5469 Q1510.2813,1295.2188 1510.8906,1294.0781 Q1511.5156,1292.9219 1512.6094,1292.3125 Q1513.7031,1291.6875 1514.9375,1291.6875 Q1515.6719,1291.6875 1516.3125,1291.8594 Q1516.9688,1292.0156 1517.5156,1292.375 Z " fill="#000000"/><text fill="#000000" font-family="FG Virgil" font-size="14" lengthAdjust="spacing" textLength="186" x="1535.25" y="1302.2969">ListCourseStudentsController</text><line style="stroke:#181818;stroke-width:0.5;" x1="1410" x2="1814" y1="1312.5" y2="1312.5"/><line style="stroke:#181818;stroke-width:0.5;" x1="1410" x2="1814" y1="1320.5" y2="1320.5"/><ellipse cx="1420" cy="1335.3105" fill="#84BE84" rx="3" ry="3" style="stroke:#038048;stroke-width:1.0;"/><text fill="#000000" font-family="FG Virgil" font-size="14" lengthAdjust="spacing" textLength="380" x="1429" y="1339.6074">getStudentsFromCourse(course): Iterable&lt;EnrolledStudent&gt;</text></g><!--class UserRepository--><g id="elem_UserRepository"><rect codeLine="134" fill="#F1F1F1" height="48" id="UserRepository" rx="2.5" ry="2.5" style="stroke:#181818;stroke-width:0.5;" width="130" x="1547" y="1086"/><ellipse cx="1562" cy="1102" fill="#B4A7E5" rx="11" ry="11" style="stroke:#181818;stroke-width:1.0;"/><path d="M1562.9531,1098.6406 L1562.9531,1105.2969 L1564.6719,1105.2969 Q1565.2813,1105.2969 1565.5469,1105.5313 Q1565.8125,1105.7656 1565.8125,1106.1563 Q1565.8125,1106.5313 1565.5469,1106.7656 Q1565.2813,1107 1564.6719,1107 L1559.5313,1107 Q1558.9219,1107 1558.6563,1106.7656 Q1558.3906,1106.5313 1558.3906,1106.1406 Q1558.3906,1105.7656 1558.6563,1105.5313 Q1558.9219,1105.2969 1559.5313,1105.2969 L1561.25,1105.2969 L1561.25,1098.6406 L1559.5313,1098.6406 Q1558.9219,1098.6406 1558.6563,1098.4063 Q1558.3906,1098.1719 1558.3906,1097.7813 Q1558.3906,1097.4063 1558.6563,1097.1719 Q1558.9219,1096.9375 1559.5313,1096.9375 L1564.6719,1096.9375 Q1565.2813,1096.9375 1565.5469,1097.1719 Q1565.8125,1097.4063 1565.8125,1097.7813 Q1565.8125,1098.1719 1565.5469,1098.4063 Q1565.2813,1098.6406 1564.6719,1098.6406 L1562.9531,1098.6406 Z " fill="#000000"/><text fill="#000000" font-family="FG Virgil" font-size="14" font-style="italic" lengthAdjust="spacing" textLength="98" x="1576" y="1107.7969">UserRepository</text><line style="stroke:#181818;stroke-width:0.5;" x1="1548" x2="1676" y1="1118" y2="1118"/><line style="stroke:#181818;stroke-width:0.5;" x1="1548" x2="1676" y1="1126" y2="1126"/></g><!--class UserSessionService--><g id="elem_UserSessionService"><rect codeLine="139" fill="#F1F1F1" height="66.6211" id="UserSessionService" rx="2.5" ry="2.5" style="stroke:#181818;stroke-width:0.5;" width="158" x="1533" y="941.5"/><ellipse cx="1548" cy="957.5" fill="#ADD1B2" rx="11" ry="11" style="stroke:#181818;stroke-width:1.0;"/><path d="M1550.7656,953.375 Q1550.9219,953.1563 1551.1094,953.0469 Q1551.2969,952.9375 1551.5156,952.9375 Q1551.8906,952.9375 1552.125,953.2031 Q1552.3594,953.4531 1552.3594,954.0625 L1552.3594,955.5156 Q1552.3594,956.125 1552.125,956.3906 Q1551.8906,956.6563 1551.5156,956.6563 Q1551.1719,956.6563 1550.9688,956.4531 Q1550.7656,956.2656 1550.6563,955.75 Q1550.6094,955.3906 1550.4219,955.2031 Q1550.0938,954.8281 1549.4844,954.6094 Q1548.875,954.3906 1548.25,954.3906 Q1547.4844,954.3906 1546.8438,954.7188 Q1546.2188,955.0469 1545.7188,955.7969 Q1545.2344,956.5469 1545.2344,957.5781 L1545.2344,958.6719 Q1545.2344,959.9063 1546.125,960.7344 Q1547.0156,961.5469 1548.6094,961.5469 Q1549.5469,961.5469 1550.2031,961.2969 Q1550.5938,961.1406 1551.0156,960.7031 Q1551.2813,960.4375 1551.4219,960.3594 Q1551.5781,960.2813 1551.7813,960.2813 Q1552.1094,960.2813 1552.3594,960.5469 Q1552.625,960.7969 1552.625,961.1406 Q1552.625,961.4844 1552.2813,961.8906 Q1551.7813,962.4688 1550.9844,962.7969 Q1549.9063,963.25 1548.6094,963.25 Q1547.0938,963.25 1545.8906,962.625 Q1544.9063,962.125 1544.2188,961.0625 Q1543.5313,959.9844 1543.5313,958.7031 L1543.5313,957.5469 Q1543.5313,956.2188 1544.1406,955.0781 Q1544.7656,953.9219 1545.8594,953.3125 Q1546.9531,952.6875 1548.1875,952.6875 Q1548.9219,952.6875 1549.5625,952.8594 Q1550.2188,953.0156 1550.7656,953.375 Z " fill="#000000"/><text fill="#000000" font-family="FG Virgil" font-size="14" lengthAdjust="spacing" textLength="126" x="1562" y="963.2969">UserSessionService</text><line style="stroke:#181818;stroke-width:0.5;" x1="1534" x2="1690" y1="973.5" y2="973.5"/><line style="stroke:#181818;stroke-width:0.5;" x1="1534" x2="1690" y1="981.5" y2="981.5"/><ellipse cx="1544" cy="996.3105" fill="#84BE84" rx="3" ry="3" style="stroke:#038048;stroke-width:1.0;"/><text fill="#000000" font-family="FG Virgil" font-size="14" lengthAdjust="spacing" textLength="107" x="1553" y="1000.6074">getLoggedUser()</text></g><!--class ECourseUser--><g id="elem_ECourseUser"><rect codeLine="145" fill="#F1F1F1" height="48" id="ECourseUser" rx="2.5" ry="2.5" style="stroke:#181818;stroke-width:0.5;" width="116" x="2498" y="951"/><ellipse cx="2513" cy="967" fill="#ADD1B2" rx="11" ry="11" style="stroke:#181818;stroke-width:1.0;"/><path d="M2515.7656,962.875 Q2515.9219,962.6563 2516.1094,962.5469 Q2516.2969,962.4375 2516.5156,962.4375 Q2516.8906,962.4375 2517.125,962.7031 Q2517.3594,962.9531 2517.3594,963.5625 L2517.3594,965.0156 Q2517.3594,965.625 2517.125,965.8906 Q2516.8906,966.1563 2516.5156,966.1563 Q2516.1719,966.1563 2515.9688,965.9531 Q2515.7656,965.7656 2515.6563,965.25 Q2515.6094,964.8906 2515.4219,964.7031 Q2515.0938,964.3281 2514.4844,964.1094 Q2513.875,963.8906 2513.25,963.8906 Q2512.4844,963.8906 2511.8438,964.2188 Q2511.2188,964.5469 2510.7188,965.2969 Q2510.2344,966.0469 2510.2344,967.0781 L2510.2344,968.1719 Q2510.2344,969.4063 2511.125,970.2344 Q2512.0156,971.0469 2513.6094,971.0469 Q2514.5469,971.0469 2515.2031,970.7969 Q2515.5938,970.6406 2516.0156,970.2031 Q2516.2813,969.9375 2516.4219,969.8594 Q2516.5781,969.7813 2516.7813,969.7813 Q2517.1094,969.7813 2517.3594,970.0469 Q2517.625,970.2969 2517.625,970.6406 Q2517.625,970.9844 2517.2813,971.3906 Q2516.7813,971.9688 2515.9844,972.2969 Q2514.9063,972.75 2513.6094,972.75 Q2512.0938,972.75 2510.8906,972.125 Q2509.9063,971.625 2509.2188,970.5625 Q2508.5313,969.4844 2508.5313,968.2031 L2508.5313,967.0469 Q2508.5313,965.7188 2509.1406,964.5781 Q2509.7656,963.4219 2510.8594,962.8125 Q2511.9531,962.1875 2513.1875,962.1875 Q2513.9219,962.1875 2514.5625,962.3594 Q2515.2188,962.5156 2515.7656,962.875 Z " fill="#000000"/><text fill="#000000" font-family="FG Virgil" font-size="14" lengthAdjust="spacing" textLength="84" x="2527" y="972.7969">ECourseUser</text><line style="stroke:#181818;stroke-width:0.5;" x1="2499" x2="2613" y1="983" y2="983"/><line style="stroke:#181818;stroke-width:0.5;" x1="2499" x2="2613" y1="991" y2="991"/></g><!--class SystemUser--><g id="elem_SystemUser"><rect codeLine="151" fill="#F1F1F1" height="141.1055" id="SystemUser" rx="2.5" ry="2.5" style="stroke:#181818;stroke-width:0.5;" width="134" x="3290" y="904.5"/><ellipse cx="3317.15" cy="920.5" fill="#ADD1B2" rx="11" ry="11" style="stroke:#181818;stroke-width:1.0;"/><path d="M3319.9156,916.375 Q3320.0719,916.1563 3320.2594,916.0469 Q3320.4469,915.9375 3320.6656,915.9375 Q3321.0406,915.9375 3321.275,916.2031 Q3321.5094,916.4531 3321.5094,917.0625 L3321.5094,918.5156 Q3321.5094,919.125 3321.275,919.3906 Q3321.0406,919.6563 3320.6656,919.6563 Q3320.3219,919.6563 3320.1188,919.4531 Q3319.9156,919.2656 3319.8063,918.75 Q3319.7594,918.3906 3319.5719,918.2031 Q3319.2438,917.8281 3318.6344,917.6094 Q3318.025,917.3906 3317.4,917.3906 Q3316.6344,917.3906 3315.9938,917.7188 Q3315.3688,918.0469 3314.8688,918.7969 Q3314.3844,919.5469 3314.3844,920.5781 L3314.3844,921.6719 Q3314.3844,922.9063 3315.275,923.7344 Q3316.1656,924.5469 3317.7594,924.5469 Q3318.6969,924.5469 3319.3531,924.2969 Q3319.7438,924.1406 3320.1656,923.7031 Q3320.4313,923.4375 3320.5719,923.3594 Q3320.7281,923.2813 3320.9313,923.2813 Q3321.2594,923.2813 3321.5094,923.5469 Q3321.775,923.7969 3321.775,924.1406 Q3321.775,924.4844 3321.4313,924.8906 Q3320.9313,925.4688 3320.1344,925.7969 Q3319.0563,926.25 3317.7594,926.25 Q3316.2438,926.25 3315.0406,925.625 Q3314.0563,925.125 3313.3688,924.0625 Q3312.6813,922.9844 3312.6813,921.7031 L3312.6813,920.5469 Q3312.6813,919.2188 3313.2906,918.0781 Q3313.9156,916.9219 3315.0094,916.3125 Q3316.1031,915.6875 3317.3375,915.6875 Q3318.0719,915.6875 3318.7125,915.8594 Q3319.3688,916.0156 3319.9156,916.375 Z " fill="#000000"/><text fill="#000000" font-family="FG Virgil" font-size="14" lengthAdjust="spacing" textLength="75" x="3333.85" y="926.2969">SystemUser</text><line style="stroke:#181818;stroke-width:0.5;" x1="3291" x2="3423" y1="936.5" y2="936.5"/><rect fill="none" height="6" style="stroke:#C82930;stroke-width:1.0;" width="6" x="3298" y="948.3105"/><text fill="#000000" font-family="FG Virgil" font-size="14" lengthAdjust="spacing" textLength="108" x="3310" y="955.6074">username: String</text><rect fill="none" height="6" style="stroke:#C82930;stroke-width:1.0;" width="6" x="3298" y="966.9316"/><text fill="#000000" font-family="FG Virgil" font-size="14" lengthAdjust="spacing" textLength="105" x="3310" y="974.2285">password: String</text><rect fill="none" height="6" style="stroke:#C82930;stroke-width:1.0;" width="6" x="3298" y="985.5527"/><text fill="#000000" font-family="FG Virgil" font-size="14" lengthAdjust="spacing" textLength="80" x="3310" y="992.8496">name: String</text><rect fill="none" height="6" style="stroke:#C82930;stroke-width:1.0;" width="6" x="3298" y="1004.1738"/><text fill="#000000" font-family="FG Virgil" font-size="14" lengthAdjust="spacing" textLength="79" x="3310" y="1011.4707">Email: String</text><rect fill="none" height="6" style="stroke:#C82930;stroke-width:1.0;" width="6" x="3298" y="1022.7949"/><text fill="#000000" font-family="FG Virgil" font-size="14" lengthAdjust="spacing" textLength="96" x="3310" y="1030.0918">active: boolean</text><line style="stroke:#181818;stroke-width:0.5;" x1="3291" x2="3423" y1="1037.6055" y2="1037.6055"/></g><g id="elem_GMN43"><path d="M3203,790.5 L3203,869.6641 A0,0 0 0 0 3203,869.6641 L3353,869.6641 L3357,904.48 L3361,869.6641 L3511,869.6641 A0,0 0 0 0 3511,869.6641 L3511,800.5 L3501,790.5 L3203,790.5 A0,0 0 0 0 3203,790.5 " fill="#FEFFDD" style="stroke:#181818;stroke-width:0.5;"/><path d="M3501,790.5 L3501,800.5 L3511,800.5 L3501,790.5 " fill="#FEFFDD" style="stroke:#181818;stroke-width:0.5;"/><text fill="#000000" font-family="FG Virgil" font-size="13" lengthAdjust="spacing" textLength="231" x="3209" y="809.5283">The properties of the user are simplified.</text><text fill="#000000" font-family="FG Virgil" font-size="13" lengthAdjust="spacing" textLength="235" x="3209" y="826.8193">In reality there is actually a Value Object</text><text fill="#000000" font-family="FG Virgil" font-size="13" lengthAdjust="spacing" textLength="234" x="3209" y="844.1104">for all the properties, expect the "active".</text><text fill="#000000" font-family="FG Virgil" font-size="13" lengthAdjust="spacing" textLength="287" x="3209" y="861.4014">Other not relevant properties are not being shown.</text></g><!--link ClassTitle to Class--><g id="link_ClassTitle_Class"><path codeLine="166" d="M1660.63,556.78 C1750.57,546.93 1944.31,525.7 2032.77,516.01 " fill="none" id="ClassTitle-to-Class" style="stroke:#181818;stroke-width:1.0;"/><polygon fill="#181818" points="2045.78,514.58,2039.3802,511.2569,2033.8513,515.8863,2040.2511,519.2094,2045.78,514.58" style="stroke:#181818;stroke-width:1.0;"/></g><!--link ClassDuration to Class--><g id="link_ClassDuration_Class"><path codeLine="167" d="M1673.38,466.62 C1767.85,476.97 1948.53,496.76 2032.94,506.01 " fill="none" id="ClassDuration-to-Class" style="stroke:#181818;stroke-width:1.0;"/><polygon fill="#181818" points="2045.87,507.42,2040.3411,502.7906,2033.9413,506.1137,2039.4702,510.7431,2045.87,507.42" style="stroke:#181818;stroke-width:1.0;"/></g><!--link ExtraClassDate to ExtraClass--><g id="link_ExtraClassDate_ExtraClass"><path codeLine="169" d="M1108.78,551.98 C1166.82,548.07 1252.31,534.54 1312,491 C1346.3,465.98 1326.37,433.55 1361,409 C1396.21,384.04 1440.82,370.69 1482.59,363.73 " fill="none" id="ExtraClassDate-to-ExtraClass" style="stroke:#181818;stroke-width:1.0;"/><polygon fill="#181818" points="1495.44,361.77,1488.9031,358.7256,1483.5786,363.5887,1490.1156,366.6332,1495.44,361.77" style="stroke:#181818;stroke-width:1.0;"/></g><!--link ExtraClassScheduleUI to ExtraClassScheduleController--><g id="link_ExtraClassScheduleUI_ExtraClassScheduleController"><path codeLine="171" d="M193.43,734 C215.99,734 241.4,734 267.49,734 " fill="none" id="ExtraClassScheduleUI-to-ExtraClassScheduleController" style="stroke:#181818;stroke-width:1.0;stroke-dasharray:7.0,7.0;"/><polygon fill="#181818" points="272.72,734,263.72,730,267.72,734,263.72,738,272.72,734" style="stroke:#181818;stroke-width:1.0;"/></g><!--link ExtraClassScheduleController to ListTeacherCoursesController--><g id="link_ExtraClassScheduleController_ListTeacherCoursesController"><path codeLine="172" d="M488.54,795.11 C528.11,984.18 676.68,1547 1043,1547 C1043,1547 1043,1547 1613,1547 C1933.59,1547 2015.03,1537.08 2332,1489 C2358.87,1484.93 2387.32,1479.45 2414.58,1473.62 " fill="none" id="ExtraClassScheduleController-to-ListTeacherCoursesController" style="stroke:#181818;stroke-width:1.0;stroke-dasharray:7.0,7.0;"/><polygon fill="#181818" points="2419.66,1472.53,2410.0176,1470.5238,2414.7731,1473.5874,2411.7095,1478.3429,2419.66,1472.53" style="stroke:#181818;stroke-width:1.0;"/></g><!--link ExtraClassScheduleController to ListAvailableExtraClassSlotsController--><g id="link_ExtraClassScheduleController_ListAvailableExtraClassSlotsController"><path codeLine="173" d="M679.34,734 C725.73,734 775.27,734 822.38,734 " fill="none" id="ExtraClassScheduleController-to-ListAvailableExtraClassSlotsController" style="stroke:#181818;stroke-width:1.0;stroke-dasharray:7.0,7.0;"/><polygon fill="#181818" points="827.52,734,818.52,730,822.52,734,818.52,738,827.52,734" style="stroke:#181818;stroke-width:1.0;"/></g><!--link ExtraClassScheduleController to ExtraClassBuilder--><g id="link_ExtraClassScheduleController_ExtraClassBuilder"><path codeLine="174" d="M527.67,672.75 C578.68,614.88 662.44,529.61 752,479 C807.99,447.36 876.91,426.78 933.61,413.91 " fill="none" id="ExtraClassScheduleController-to-ExtraClassBuilder" style="stroke:#181818;stroke-width:1.0;"/><polygon fill="#181818" points="938.71,412.77,929.0512,410.8445,933.8321,413.8682,930.8084,418.6491,938.71,412.77" style="stroke:#181818;stroke-width:1.0;"/></g><!--link ExtraClassScheduleController to ClassScheduler--><g id="link_ExtraClassScheduleController_ClassScheduler"><path codeLine="175" d="M500.86,672.64 C539.95,579.58 626.11,402.63 752,299 C781.23,274.94 816.18,255.59 851.55,240.18 " fill="none" id="ExtraClassScheduleController-to-ClassScheduler" style="stroke:#181818;stroke-width:1.0;"/><polygon fill="#181818" points="856.32,238.13,846.4716,238.0357,851.7317,240.1168,849.6505,245.3769,856.32,238.13" style="stroke:#181818;stroke-width:1.0;"/></g><!--link ExtraClassScheduleController to ListCourseStudentsController--><g id="link_ExtraClassScheduleController_ListCourseStudentsController"><path codeLine="176" d="M596.48,795.11 C832.49,915.82 1351.92,1181.49 1540.68,1278.03 " fill="none" id="ExtraClassScheduleController-to-ListCourseStudentsController" style="stroke:#181818;stroke-width:1.0;"/><polygon fill="#181818" points="1545.35,1280.42,1539.1769,1272.7458,1540.9039,1278.1326,1535.5171,1279.8596,1545.35,1280.42" style="stroke:#181818;stroke-width:1.0;"/></g><!--link ListAvailableExtraClassSlotsController to UserSessionService--><g id="link_ListAvailableExtraClassSlotsController_UserSessionService"><path codeLine="178" d="M1123.7,767.51 C1230.25,812.88 1419.54,893.48 1528.18,939.73 " fill="none" id="ListAvailableExtraClassSlotsController-to-UserSessionService" style="stroke:#181818;stroke-width:1.0;"/><polygon fill="#181818" points="1532.97,941.77,1526.2544,934.5658,1528.3691,939.8125,1523.1224,941.9272,1532.97,941.77" style="stroke:#181818;stroke-width:1.0;"/></g><!--link UserSessionService to UserRepository--><g id="link_UserSessionService_UserRepository"><path codeLine="179" d="M1612,1008.74 C1612,1032.7 1612,1056.67 1612,1080.63 " fill="none" id="UserSessionService-to-UserRepository" style="stroke:#181818;stroke-width:1.0;"/><polygon fill="#181818" points="1612,1085.74,1616,1076.74,1612,1080.74,1608,1076.74,1612,1085.74" style="stroke:#181818;stroke-width:1.0;"/></g><!--link UserSessionService to ECourseUser--><g id="link_UserSessionService_ECourseUser"><path codeLine="180" d="M1691.29,975 C1874.18,975 2326.52,975 2492.58,975 " fill="none" id="UserSessionService-to-ECourseUser" style="stroke:#181818;stroke-width:1.0;"/><polygon fill="#181818" points="2497.88,975,2488.88,971,2492.88,975,2488.88,979,2497.88,975" style="stroke:#181818;stroke-width:1.0;"/></g><!--link ECourseUser to SystemUser--><g id="link_ECourseUser_SystemUser"><path codeLine="181" d="M2614.14,975 C2756.8,975 3128.35,975 3284.85,975 " fill="none" id="ECourseUser-to-SystemUser" style="stroke:#181818;stroke-width:1.0;stroke-dasharray:7.0,7.0;"/><polygon fill="#181818" points="3289.88,975,3280.88,971,3284.88,975,3280.88,979,3289.88,975" style="stroke:#181818;stroke-width:1.0;"/></g><!--link ListAvailableExtraClassSlotsController to ClassScheduler--><g id="link_ListAvailableExtraClassSlotsController_ClassScheduler"><path codeLine="183" d="M899.48,700.42 C847.11,681.93 791.25,653.9 752,612 C746.38,606 747.35,602.61 746,594.5 C740.92,564.03 740.92,346.97 746,316.5 C751.46,283.71 770.17,259.1 795.73,240.65 " fill="none" id="ListAvailableExtraClassSlotsController-to-ClassScheduler" style="stroke:#181818;stroke-width:1.0;stroke-dasharray:7.0,7.0;"/><polygon fill="#181818" points="799.89,237.74,790.2191,239.6039,795.7878,240.5987,794.793,246.1674,799.89,237.74" style="stroke:#181818;stroke-width:1.0;"/></g><!--link ListTeacherCoursesController to CourseRepository--><g id="link_ListTeacherCoursesController_CourseRepository"><path codeLine="185" d="M2724.15,1439 C2742.17,1439 2760.54,1439 2778.63,1439 " fill="none" id="ListTeacherCoursesController-to-CourseRepository" style="stroke:#181818;stroke-width:1.0;"/><polygon fill="#181818" points="2783.73,1439,2774.73,1435,2778.73,1439,2774.73,1443,2783.73,1439" style="stroke:#181818;stroke-width:1.0;"/></g><!--link ListTeacherCoursesController to Course--><g id="link_ListTeacherCoursesController_Course"><path codeLine="186" d="M2655.27,1405.46 C2736.71,1377.66 2848.59,1339.47 2909.21,1318.78 " fill="none" id="ListTeacherCoursesController-to-Course" style="stroke:#181818;stroke-width:1.0;"/><polygon fill="#181818" points="2914.2,1317.07,2904.3903,1316.1922,2909.4681,1318.6854,2906.975,1323.7632,2914.2,1317.07" style="stroke:#181818;stroke-width:1.0;"/></g><!--link ListCourseStudentsController to EnrolledStudentRepository--><g id="link_ListCourseStudentsController_EnrolledStudentRepository"><path codeLine="188" d="M1738.05,1347.58 C1803.14,1365.06 1882.65,1386.41 1948.45,1404.08 " fill="none" id="ListCourseStudentsController-to-EnrolledStudentRepository" style="stroke:#181818;stroke-width:1.0;"/><polygon fill="#181818" points="1953.57,1405.45,1945.9023,1399.2689,1948.7384,1404.1635,1943.8438,1406.9996,1953.57,1405.45" style="stroke:#181818;stroke-width:1.0;"/></g><!--link ListCourseStudentsController to EnrolledStudent--><g id="link_ListCourseStudentsController_EnrolledStudent"><path codeLine="189" d="M1815.14,1309.66 C1883.82,1308.18 1956.11,1306.63 2007.54,1305.52 " fill="none" id="ListCourseStudentsController-to-EnrolledStudent" style="stroke:#181818;stroke-width:1.0;"/><polygon fill="#181818" points="2012.77,1305.41,2003.6918,1301.5908,2007.771,1305.51,2003.8518,1309.5892,2012.77,1305.41" style="stroke:#181818;stroke-width:1.0;"/></g><!--link ExtraClassBuilder to ExtraClass--><g id="link_ExtraClassBuilder_ExtraClass"><path codeLine="191" d="M1149.14,388.19 C1245.53,381.89 1388.83,372.52 1490.21,365.9 " fill="none" id="ExtraClassBuilder-to-ExtraClass" style="stroke:#181818;stroke-width:1.0;"/><polygon fill="#181818" points="1495.31,365.56,1486.0671,362.1588,1490.3208,365.8879,1486.5917,370.1415,1495.31,365.56" style="stroke:#181818;stroke-width:1.0;"/></g><!--link ExtraClass to Class--><g id="link_ExtraClass_Class"><path codeLine="193" d="M1728.77,379.91 C1764.48,387.79 1803.69,397.6 1839,409 C1905.91,430.6 1979.94,463.61 2027.73,486.19 " fill="none" id="ExtraClass-to-Class" style="stroke:#181818;stroke-width:1.0;"/><polygon fill="none" points="2030.87,479.94,2045.9,494.88,2024.84,492.57,2030.87,479.94" style="stroke:#181818;stroke-width:1.0;"/></g><!--link ClassScheduler to ClassRepository--><g id="link_ClassScheduler_ClassRepository"><path codeLine="195" d="M1288.34,217.57 C1388.15,228.01 1504.94,237 1611,237 C1611,237 1611,237 2080.5,237 C2192.3,237 2220.35,236.13 2332,242 C2483.75,249.98 2655.91,265.17 2780.33,277.25 " fill="none" id="ClassScheduler-to-ClassRepository" style="stroke:#181818;stroke-width:1.0;"/><polygon fill="#181818" points="2785.47,277.76,2776.8878,272.9282,2780.4923,277.288,2776.1326,280.8925,2785.47,277.76" style="stroke:#181818;stroke-width:1.0;"/></g><!--link Class to ClassRepository--><g id="link_Class_ClassRepository"><path codeLine="197" d="M2113.09,502.93 C2221.15,476.16 2572.82,389.05 2785.16,336.45 " fill="none" id="Class-ClassRepository" style="stroke:#181818;stroke-width:1.0;"/><text fill="#000000" font-family="FG Virgil" font-size="13" lengthAdjust="spacing" textLength="5" x="2120.9847" y="517.0842">*</text><text fill="#000000" font-family="FG Virgil" font-size="13" lengthAdjust="spacing" textLength="7" x="2770.3735" y="352.7428">1</text></g><!--link Class to Course--><g id="link_Class_Course"><path codeLine="198" d="M2113.33,524.69 C2217.78,569.61 2547.27,721.88 2748,935 C2851.45,1044.83 2920.83,1216.84 2943.98,1279.84 " fill="none" id="Class-Course" style="stroke:#181818;stroke-width:1.0;"/><text fill="#000000" font-family="FG Virgil" font-size="13" lengthAdjust="spacing" textLength="5" x="2120.8231" y="543.325">*</text><text fill="#000000" font-family="FG Virgil" font-size="13" lengthAdjust="spacing" textLength="7" x="2933.6436" y="1268.5365">1</text></g><!--link Class to ECourseUser--><g id="link_Class_ECourseUser"><path codeLine="199" d="M2105.34,535.29 C2187.34,615.47 2448.77,871.12 2530.4,950.95 " fill="none" id="Class-ECourseUser" style="stroke:#181818;stroke-width:1.0;"/><text fill="#000000" font-family="FG Virgil" font-size="13" lengthAdjust="spacing" textLength="5" x="2105.7374" y="556.9347">*</text><text fill="#000000" font-family="FG Virgil" font-size="13" lengthAdjust="spacing" textLength="7" x="2515.9431" y="939.6747">1</text></g><!--link EnrolledStudent to ECourseUser--><g id="link_EnrolledStudent_ECourseUser"><path codeLine="201" d="M2115.39,1279.81 C2203.25,1218.89 2432.81,1059.72 2520.38,999.01 " fill="none" id="EnrolledStudent-ECourseUser" style="stroke:#181818;stroke-width:1.0;"/><text fill="#000000" font-family="FG Virgil" font-size="13" lengthAdjust="spacing" textLength="7" x="2116.2851" y="1268.9056">1</text><text fill="#000000" font-family="FG Virgil" font-size="13" lengthAdjust="spacing" textLength="7" x="2503.8445" y="1020.9981">1</text></g><!--link EnrolledStudent to Course--><g id="link_EnrolledStudent_Course"><path codeLine="202" d="M2146.04,1304 C2318.14,1304 2778.93,1304 2914.49,1304 " fill="none" id="EnrolledStudent-Course" style="stroke:#181818;stroke-width:1.0;"/><text fill="#000000" font-family="FG Virgil" font-size="13" lengthAdjust="spacing" textLength="7" x="2154.1384" y="1319.028">1</text><text fill="#000000" font-family="FG Virgil" font-size="13" lengthAdjust="spacing" textLength="7" x="2899.3865" y="1319.6764">1</text></g><!--SRC=[hLTBRziu4BxpLn0-EMrbOAz5OI1DxKMmQRE8q_PCIsERMqeKICgfiUl_laDIicYzBAVr8NOutmpdnMz8_ODdELCifJcBVx0jhCn105KG6w9FiWGsh11cAJFpXQL0bt_IRrnjkGWmUiSI-SApBTqmeO4G0Hj3ZQIARtU69jpQv38ZfDo9vWeqP8RPLVeleVY91TEQBduQnUxiprMyWwGGyFM-11p9iJO0iIoK1gUKiWoNKhI7I0UjK2pF1O_TBgMatkc1QtExPromjO1WMo6DliDebHG2LBbtzNcxXLwbgJPCcK_Cm3iAMU9-U2_BBtrpidLiUjEEkzS7wuOkGRNQzAO56l9r6FqC33TGTzxjwSrxUcz0MSa7lpRlKb-P8i4YwAMIgOTDVU2X_Y9pGIKbU1wcX8IfgMge89UQ6waEZJpm36rkM0pKnVNKXtFkRNYMU9yS68FgSEsKetdRW6Px3CSAprDt9651AwSJcJAUqQ3fAicwu2815KYwck2ZHtL4ufnvuMPtdk41dBNtp8s0gR5_Bq4_5SeTc6bI_XXGi3tUqVO36cLdJOt_xa6w9DcsgpFIbVIWQ-o7hJMYO-Fx8Kn-wxYTHTh8SaIhoEbxkXIIcGjsN79RHbooqSBAA6J6CIU_PGBPrV2OvmmF5LgoZFLXuUl-LOEQZp5gwz4oV2ePMhLV3N5PngRmsEvcz6BFOpXBTYCx5PzrDVCe7hkQTClUUaVxsFTaUCy4Jr0bt1wZNaifW6MzBTSxZTpV_d7KIMK1ZJdrNXvp7FOQYZwIKGnLrimf1riVIPTwC5a3R3rPpzqRDqzV4r9OX7AoQ3zPNbs6neGQhiUlphmhAjEmyiibykvM0GoMw3T5QScwygv0wZWhqHKLikJNMPRZjNcmbbQWDSfMdie2o5kAeJ_8xHOIYvlUZAnResmrONTu6lJlulRlX_lbq-tdnVV7fxyGw_LN1sqWBTKZbxSCB-AdmMB7XDOlKYN1KWEnGCz4y3yEIRw7ckZGYqmYuQ-bCJAbSXFiYeu-x-oDNUQ0umYv7iLcvoj8cS8Xm5FCy8P3CaFmVORbGrur1uj2CTTslu89SQ2CVcEY0Fgu_iS-CoZTIBGXX3DORu5S_ZD7W5kUU6ydrlYZDKdHLzn3m1u7O-YOTSRArc3V8dedNx8PmQbW5_5L4WphA7hZfnCvlmdKwwGnGYCh2guZfFEbCflD1w_oPF2UFxFgG-mvKltoisROK3HlNqKlQfmF-mlmA9eFSX0X8vzdQATzXad7iIw1DMrqWgnVmO4buU5rwGtEnLWNPwtSaC49QNreNWN6QdZJlSpkmkiRRrUhXcUWUh3u37OU4vJzDwzEL-Dg65KD5BZZCNJoPcAjqiaVanQa0-7J40hSUbXKqfoa5j216u1LsVuV]--></g></svg>