<?xml version="1.0" encoding="us-ascii" standalone="no"?><svg xmlns="http://www.w3.org/2000/svg" xmlns:xlink="http://www.w3.org/1999/xlink" contentStyleType="text/css" height="1768px" preserveAspectRatio="none" style="width:2545px;height:1768px;background:#FFFFFF;" version="1.1" viewBox="0 0 2545 1768" width="2545px" zoomAndPan="magnify"><defs/><g><rect fill="#FFFFFF" height="1561.5508" style="stroke:#181818;stroke-width:1.0;" width="10" x="29.5" y="98.2422"/><rect fill="#FFFFFF" height="1529.2598" style="stroke:#181818;stroke-width:1.0;" width="10" x="258.5" y="121.5332"/><rect fill="#FFFFFF" height="156.4551" style="stroke:#181818;stroke-width:1.0;" width="10" x="514.5" y="152.8242"/><rect fill="#FFFFFF" height="513.6563" style="stroke:#181818;stroke-width:1.0;" width="10" x="514.5" y="450.7344"/><rect fill="#FFFFFF" height="664.1113" style="stroke:#181818;stroke-width:1.0;" width="10" x="514.5" y="995.6816"/><rect fill="#FFFFFF" height="263.3281" style="stroke:#181818;stroke-width:1.0;" width="10" x="519.5" y="1356.1738"/><rect fill="#FFFFFF" height="93.873" style="stroke:#181818;stroke-width:1.0;" width="10" x="727.5" y="184.1152"/><rect fill="#FFFFFF" height="31.291" style="stroke:#181818;stroke-width:1.0;" width="10" x="940.5" y="215.4063"/><rect fill="#FFFFFF" height="451.0742" style="stroke:#181818;stroke-width:1.0;" width="10" x="1121" y="482.0254"/><rect fill="#FFFFFF" height="93.873" style="stroke:#181818;stroke-width:1.0;" width="10" x="1341.5" y="1026.9727"/><rect fill="#FFFFFF" height="31.291" style="stroke:#181818;stroke-width:1.0;" width="10" x="1578.5" y="1058.2637"/><rect fill="#FFFFFF" height="93.873" style="stroke:#181818;stroke-width:1.0;" width="10" x="1746" y="513.3164"/><rect fill="#FFFFFF" height="31.291" style="stroke:#181818;stroke-width:1.0;" width="10" x="1901" y="544.6074"/><rect fill="#FFFFFF" height="263.3281" style="stroke:#181818;stroke-width:1.0;" width="10" x="2019" y="638.4805"/><rect fill="#FFFFFF" height="200.7461" style="stroke:#181818;stroke-width:1.0;" width="10" x="2019" y="1387.4648"/><rect fill="#FFFFFF" height="62.582" style="stroke:#181818;stroke-width:1.0;" width="10" x="2267" y="1418.7559"/><rect fill="#FFFFFF" height="156.4551" style="stroke:#181818;stroke-width:1.0;" width="10" x="2485" y="669.7715"/><line style="stroke:#181818;stroke-width:0.5;stroke-dasharray:5.0,5.0;" x1="34" x2="34" y1="88.2422" y2="1668.793"/><line style="stroke:#181818;stroke-width:0.5;stroke-dasharray:5.0,5.0;" x1="263.5" x2="263.5" y1="88.2422" y2="1668.793"/><line style="stroke:#181818;stroke-width:0.5;stroke-dasharray:5.0,5.0;" x1="519.5" x2="519.5" y1="88.2422" y2="1668.793"/><line style="stroke:#181818;stroke-width:0.5;stroke-dasharray:5.0,5.0;" x1="732.5" x2="732.5" y1="88.2422" y2="1668.793"/><line style="stroke:#181818;stroke-width:0.5;stroke-dasharray:5.0,5.0;" x1="945.5" x2="945.5" y1="88.2422" y2="1668.793"/><line style="stroke:#181818;stroke-width:0.5;stroke-dasharray:5.0,5.0;" x1="1125.5" x2="1125.5" y1="88.2422" y2="1668.793"/><line style="stroke:#181818;stroke-width:0.5;stroke-dasharray:5.0,5.0;" x1="1346.5" x2="1346.5" y1="88.2422" y2="1668.793"/><line style="stroke:#181818;stroke-width:0.5;stroke-dasharray:5.0,5.0;" x1="1583" x2="1583" y1="88.2422" y2="1668.793"/><line style="stroke:#181818;stroke-width:0.5;stroke-dasharray:5.0,5.0;" x1="1751" x2="1751" y1="88.2422" y2="1668.793"/><line style="stroke:#181818;stroke-width:0.5;stroke-dasharray:5.0,5.0;" x1="1905.5" x2="1905.5" y1="88.2422" y2="1668.793"/><line style="stroke:#181818;stroke-width:0.5;stroke-dasharray:5.0,5.0;" x1="2023.5" x2="2023.5" y1="88.2422" y2="1668.793"/><line style="stroke:#181818;stroke-width:0.5;stroke-dasharray:5.0,5.0;" x1="2271.5" x2="2271.5" y1="88.2422" y2="1668.793"/><line style="stroke:#181818;stroke-width:0.5;stroke-dasharray:5.0,5.0;" x1="2384.5" x2="2384.5" y1="88.2422" y2="1668.793"/><line style="stroke:#181818;stroke-width:0.5;stroke-dasharray:5.0,5.0;" x1="2489.5" x2="2489.5" y1="88.2422" y2="1668.793"/><text fill="#000000" font-family="FG Virgil" font-size="14" lengthAdjust="spacing" textLength="53" x="5" y="84.7285">Teacher</text><ellipse cx="34.5" cy="18.1211" fill="#E3E3E3" rx="8" ry="8" style="stroke:#181818;stroke-width:0.5;"/><path d="M34.5,26.1211 L34.5,53.1211 M21.5,34.1211 L47.5,34.1211 M34.5,53.1211 L21.5,68.1211 M34.5,53.1211 L47.5,68.1211 " fill="none" style="stroke:#181818;stroke-width:0.5;"/><text fill="#000000" font-family="FG Virgil" font-size="14" lengthAdjust="spacing" textLength="53" x="5" y="1682.9004">Teacher</text><ellipse cx="34.5" cy="1694.9141" fill="#E3E3E3" rx="8" ry="8" style="stroke:#181818;stroke-width:0.5;"/><path d="M34.5,1702.9141 L34.5,1729.9141 M21.5,1710.9141 L47.5,1710.9141 M34.5,1729.9141 L21.5,1744.9141 M34.5,1729.9141 L47.5,1744.9141 " fill="none" style="stroke:#181818;stroke-width:0.5;"/><rect fill="#E3E3E3" height="51.2422" rx="2.5" ry="2.5" style="stroke:#181818;stroke-width:0.5;" width="152" x="187.5" y="36"/><text fill="#000000" font-family="FG Virgil" font-size="14" font-style="italic" lengthAdjust="spacing" textLength="95" x="216" y="58.1074">&#171;ui&#187;</text><text fill="#000000" font-family="FG Virgil" font-size="14" lengthAdjust="spacing" textLength="138" x="194.5" y="76.7285">ExtraClassScheduleUI</text><rect fill="#E3E3E3" height="51.2422" rx="2.5" ry="2.5" style="stroke:#181818;stroke-width:0.5;" width="152" x="187.5" y="1667.793"/><text fill="#000000" font-family="FG Virgil" font-size="14" font-style="italic" lengthAdjust="spacing" textLength="95" x="216" y="1689.9004">&#171;ui&#187;</text><text fill="#000000" font-family="FG Virgil" font-size="14" lengthAdjust="spacing" textLength="138" x="194.5" y="1708.5215">ExtraClassScheduleUI</text><rect fill="#E3E3E3" height="51.2422" rx="2.5" ry="2.5" style="stroke:#181818;stroke-width:0.5;" width="202" x="418.5" y="36"/><text fill="#000000" font-family="FG Virgil" font-size="14" font-style="italic" lengthAdjust="spacing" textLength="84" x="477.5" y="58.1074">&#171;application&#187;</text><text fill="#000000" font-family="FG Virgil" font-size="14" lengthAdjust="spacing" textLength="188" x="425.5" y="76.7285">ExtraClassScheduleController</text><rect fill="#E3E3E3" height="51.2422" rx="2.5" ry="2.5" style="stroke:#181818;stroke-width:0.5;" width="202" x="418.5" y="1667.793"/><text fill="#000000" font-family="FG Virgil" font-size="14" font-style="italic" lengthAdjust="spacing" textLength="84" x="477.5" y="1689.9004">&#171;application&#187;</text><text fill="#000000" font-family="FG Virgil" font-size="14" lengthAdjust="spacing" textLength="188" x="425.5" y="1708.5215">ExtraClassScheduleController</text><rect fill="#E3E3E3" height="51.2422" rx="2.5" ry="2.5" style="stroke:#181818;stroke-width:0.5;" width="204" x="630.5" y="36"/><text fill="#000000" font-family="FG Virgil" font-size="14" font-style="italic" lengthAdjust="spacing" textLength="84" x="690.5" y="58.1074">&#171;application&#187;</text><text fill="#000000" font-family="FG Virgil" font-size="14" lengthAdjust="spacing" textLength="190" x="637.5" y="76.7285">ListTeacherCoursesController</text><rect fill="#E3E3E3" height="51.2422" rx="2.5" ry="2.5" style="stroke:#181818;stroke-width:0.5;" width="204" x="630.5" y="1667.793"/><text fill="#000000" font-family="FG Virgil" font-size="14" font-style="italic" lengthAdjust="spacing" textLength="84" x="690.5" y="1689.9004">&#171;application&#187;</text><text fill="#000000" font-family="FG Virgil" font-size="14" lengthAdjust="spacing" textLength="190" x="637.5" y="1708.5215">ListTeacherCoursesController</text><text fill="#000000" font-family="FG Virgil" font-size="14" font-style="italic" lengthAdjust="spacing" textLength="79" x="903" y="66.1074">&#171;repository&#187;</text><text fill="#000000" font-family="FG Virgil" font-size="14" lengthAdjust="spacing" textLength="114" x="885.5" y="84.7285">CourseRepository</text><path d="M927.5,15 C927.5,5 945.5,5 945.5,5 C945.5,5 963.5,5 963.5,15 L963.5,41 C963.5,51 945.5,51 945.5,51 C945.5,51 927.5,51 927.5,41 L927.5,15 " fill="#E3E3E3" style="stroke:#181818;stroke-width:1.5;"/><path d="M927.5,15 C927.5,25 945.5,25 945.5,25 C945.5,25 963.5,25 963.5,15 " fill="none" style="stroke:#181818;stroke-width:1.5;"/><text fill="#000000" font-family="FG Virgil" font-size="14" font-style="italic" lengthAdjust="spacing" textLength="79" x="903" y="1682.9004">&#171;repository&#187;</text><text fill="#000000" font-family="FG Virgil" font-size="14" lengthAdjust="spacing" textLength="114" x="885.5" y="1701.5215">CourseRepository</text><path d="M927.5,1715.0352 C927.5,1705.0352 945.5,1705.0352 945.5,1705.0352 C945.5,1705.0352 963.5,1705.0352 963.5,1715.0352 L963.5,1741.0352 C963.5,1751.0352 945.5,1751.0352 945.5,1751.0352 C945.5,1751.0352 927.5,1751.0352 927.5,1741.0352 L927.5,1715.0352 " fill="#E3E3E3" style="stroke:#181818;stroke-width:1.5;"/><path d="M927.5,1715.0352 C927.5,1725.0352 945.5,1725.0352 945.5,1725.0352 C945.5,1725.0352 963.5,1725.0352 963.5,1715.0352 " fill="none" style="stroke:#181818;stroke-width:1.5;"/><rect fill="#E3E3E3" height="51.2422" rx="2.5" ry="2.5" style="stroke:#181818;stroke-width:0.5;" width="221" x="1015.5" y="36"/><text fill="#000000" font-family="FG Virgil" font-size="14" font-style="italic" lengthAdjust="spacing" textLength="84" x="1084" y="58.1074">&#171;application&#187;</text><text fill="#000000" font-family="FG Virgil" font-size="14" lengthAdjust="spacing" textLength="207" x="1022.5" y="76.7285">ListAvailableClassSlotsController</text><rect fill="#E3E3E3" height="51.2422" rx="2.5" ry="2.5" style="stroke:#181818;stroke-width:0.5;" width="221" x="1015.5" y="1667.793"/><text fill="#000000" font-family="FG Virgil" font-size="14" font-style="italic" lengthAdjust="spacing" textLength="84" x="1084" y="1689.9004">&#171;application&#187;</text><text fill="#000000" font-family="FG Virgil" font-size="14" lengthAdjust="spacing" textLength="207" x="1022.5" y="1708.5215">ListAvailableClassSlotsController</text><rect fill="#E3E3E3" height="51.2422" rx="2.5" ry="2.5" style="stroke:#181818;stroke-width:0.5;" width="200" x="1246.5" y="36"/><text fill="#000000" font-family="FG Virgil" font-size="14" font-style="italic" lengthAdjust="spacing" textLength="84" x="1304.5" y="58.1074">&#171;application&#187;</text><text fill="#000000" font-family="FG Virgil" font-size="14" lengthAdjust="spacing" textLength="186" x="1253.5" y="76.7285">ListCourseStudentsController</text><rect fill="#E3E3E3" height="51.2422" rx="2.5" ry="2.5" style="stroke:#181818;stroke-width:0.5;" width="200" x="1246.5" y="1667.793"/><text fill="#000000" font-family="FG Virgil" font-size="14" font-style="italic" lengthAdjust="spacing" textLength="84" x="1304.5" y="1689.9004">&#171;application&#187;</text><text fill="#000000" font-family="FG Virgil" font-size="14" lengthAdjust="spacing" textLength="186" x="1253.5" y="1708.5215">ListCourseStudentsController</text><text fill="#000000" font-family="FG Virgil" font-size="14" font-style="italic" lengthAdjust="spacing" textLength="79" x="1541" y="66.1074">&#171;repository&#187;</text><text fill="#000000" font-family="FG Virgil" font-size="14" lengthAdjust="spacing" textLength="169" x="1496" y="84.7285">EnrolledStudentRepository</text><path d="M1565.5,15 C1565.5,5 1583.5,5 1583.5,5 C1583.5,5 1601.5,5 1601.5,15 L1601.5,41 C1601.5,51 1583.5,51 1583.5,51 C1583.5,51 1565.5,51 1565.5,41 L1565.5,15 " fill="#E3E3E3" style="stroke:#181818;stroke-width:1.5;"/><path d="M1565.5,15 C1565.5,25 1583.5,25 1583.5,25 C1583.5,25 1601.5,25 1601.5,15 " fill="none" style="stroke:#181818;stroke-width:1.5;"/><text fill="#000000" font-family="FG Virgil" font-size="14" font-style="italic" lengthAdjust="spacing" textLength="79" x="1541" y="1682.9004">&#171;repository&#187;</text><text fill="#000000" font-family="FG Virgil" font-size="14" lengthAdjust="spacing" textLength="169" x="1496" y="1701.5215">EnrolledStudentRepository</text><path d="M1565.5,1715.0352 C1565.5,1705.0352 1583.5,1705.0352 1583.5,1705.0352 C1583.5,1705.0352 1601.5,1705.0352 1601.5,1715.0352 L1601.5,1741.0352 C1601.5,1751.0352 1583.5,1751.0352 1583.5,1751.0352 C1583.5,1751.0352 1565.5,1751.0352 1565.5,1741.0352 L1565.5,1715.0352 " fill="#E3E3E3" style="stroke:#181818;stroke-width:1.5;"/><path d="M1565.5,1715.0352 C1565.5,1725.0352 1583.5,1725.0352 1583.5,1725.0352 C1583.5,1725.0352 1601.5,1725.0352 1601.5,1715.0352 " fill="none" style="stroke:#181818;stroke-width:1.5;"/><rect fill="#E3E3E3" height="51.2422" rx="2.5" ry="2.5" style="stroke:#181818;stroke-width:0.5;" width="140" x="1681" y="36"/><text fill="#000000" font-family="FG Virgil" font-size="14" font-style="italic" lengthAdjust="spacing" textLength="84" x="1709" y="58.1074">&#171;application&#187;</text><text fill="#000000" font-family="FG Virgil" font-size="14" lengthAdjust="spacing" textLength="126" x="1688" y="76.7285">UserSessionService</text><rect fill="#E3E3E3" height="51.2422" rx="2.5" ry="2.5" style="stroke:#181818;stroke-width:0.5;" width="140" x="1681" y="1667.793"/><text fill="#000000" font-family="FG Virgil" font-size="14" font-style="italic" lengthAdjust="spacing" textLength="84" x="1709" y="1689.9004">&#171;application&#187;</text><text fill="#000000" font-family="FG Virgil" font-size="14" lengthAdjust="spacing" textLength="126" x="1688" y="1708.5215">UserSessionService</text><text fill="#000000" font-family="FG Virgil" font-size="14" font-style="italic" lengthAdjust="spacing" textLength="79" x="1863.5" y="66.1074">&#171;repository&#187;</text><text fill="#000000" font-family="FG Virgil" font-size="14" lengthAdjust="spacing" textLength="97" x="1854.5" y="84.7285">UserRepository</text><path d="M1888,15 C1888,5 1906,5 1906,5 C1906,5 1924,5 1924,15 L1924,41 C1924,51 1906,51 1906,51 C1906,51 1888,51 1888,41 L1888,15 " fill="#E3E3E3" style="stroke:#181818;stroke-width:1.5;"/><path d="M1888,15 C1888,25 1906,25 1906,25 C1906,25 1924,25 1924,15 " fill="none" style="stroke:#181818;stroke-width:1.5;"/><text fill="#000000" font-family="FG Virgil" font-size="14" font-style="italic" lengthAdjust="spacing" textLength="79" x="1863.5" y="1682.9004">&#171;repository&#187;</text><text fill="#000000" font-family="FG Virgil" font-size="14" lengthAdjust="spacing" textLength="97" x="1854.5" y="1701.5215">UserRepository</text><path d="M1888,1715.0352 C1888,1705.0352 1906,1705.0352 1906,1705.0352 C1906,1705.0352 1924,1705.0352 1924,1715.0352 L1924,1741.0352 C1924,1751.0352 1906,1751.0352 1906,1751.0352 C1906,1751.0352 1888,1751.0352 1888,1741.0352 L1888,1715.0352 " fill="#E3E3E3" style="stroke:#181818;stroke-width:1.5;"/><path d="M1888,1715.0352 C1888,1725.0352 1906,1725.0352 1906,1725.0352 C1906,1725.0352 1924,1725.0352 1924,1715.0352 " fill="none" style="stroke:#181818;stroke-width:1.5;"/><rect fill="#E3E3E3" height="51.2422" rx="2.5" ry="2.5" style="stroke:#181818;stroke-width:0.5;" width="113" x="1967.5" y="36"/><text fill="#000000" font-family="FG Virgil" font-size="14" font-style="italic" lengthAdjust="spacing" textLength="60" x="1994" y="58.1074">&#171;service&#187;</text><text fill="#000000" font-family="FG Virgil" font-size="14" lengthAdjust="spacing" textLength="99" x="1974.5" y="76.7285">ClassScheduler</text><rect fill="#E3E3E3" height="51.2422" rx="2.5" ry="2.5" style="stroke:#181818;stroke-width:0.5;" width="113" x="1967.5" y="1667.793"/><text fill="#000000" font-family="FG Virgil" font-size="14" font-style="italic" lengthAdjust="spacing" textLength="60" x="1994" y="1689.9004">&#171;service&#187;</text><text fill="#000000" font-family="FG Virgil" font-size="14" lengthAdjust="spacing" textLength="99" x="1974.5" y="1708.5215">ClassScheduler</text><rect fill="#E3E3E3" height="51.2422" rx="2.5" ry="2.5" style="stroke:#181818;stroke-width:0.5;" width="125" x="2209.5" y="36"/><text fill="#000000" font-family="FG Virgil" font-size="14" font-style="italic" lengthAdjust="spacing" textLength="59" x="2242.5" y="58.1074">&#171;builder&#187;</text><text fill="#000000" font-family="FG Virgil" font-size="14" lengthAdjust="spacing" textLength="111" x="2216.5" y="76.7285">ExtraClassBuilder</text><rect fill="#E3E3E3" height="51.2422" rx="2.5" ry="2.5" style="stroke:#181818;stroke-width:0.5;" width="125" x="2209.5" y="1667.793"/><text fill="#000000" font-family="FG Virgil" font-size="14" font-style="italic" lengthAdjust="spacing" textLength="59" x="2242.5" y="1689.9004">&#171;builder&#187;</text><text fill="#000000" font-family="FG Virgil" font-size="14" lengthAdjust="spacing" textLength="111" x="2216.5" y="1708.5215">ExtraClassBuilder</text><rect fill="#E3E3E3" height="51.2422" rx="2.5" ry="2.5" style="stroke:#181818;stroke-width:0.5;" width="81" x="2344.5" y="36"/><text fill="#000000" font-family="FG Virgil" font-size="14" font-style="italic" lengthAdjust="spacing" textLength="62" x="2354" y="58.1074">&#171;domain&#187;</text><text fill="#000000" font-family="FG Virgil" font-size="14" lengthAdjust="spacing" textLength="67" x="2351.5" y="76.7285">ExtraClass</text><rect fill="#E3E3E3" height="51.2422" rx="2.5" ry="2.5" style="stroke:#181818;stroke-width:0.5;" width="81" x="2344.5" y="1667.793"/><text fill="#000000" font-family="FG Virgil" font-size="14" font-style="italic" lengthAdjust="spacing" textLength="62" x="2354" y="1689.9004">&#171;domain&#187;</text><text fill="#000000" font-family="FG Virgil" font-size="14" lengthAdjust="spacing" textLength="67" x="2351.5" y="1708.5215">ExtraClass</text><text fill="#000000" font-family="FG Virgil" font-size="14" font-style="italic" lengthAdjust="spacing" textLength="79" x="2447.5" y="66.1074">&#171;repository&#187;</text><text fill="#000000" font-family="FG Virgil" font-size="14" lengthAdjust="spacing" textLength="103" x="2435.5" y="84.7285">ClassRepository</text><path d="M2472,15 C2472,5 2490,5 2490,5 C2490,5 2508,5 2508,15 L2508,41 C2508,51 2490,51 2490,51 C2490,51 2472,51 2472,41 L2472,15 " fill="#E3E3E3" style="stroke:#181818;stroke-width:1.5;"/><path d="M2472,15 C2472,25 2490,25 2490,25 C2490,25 2508,25 2508,15 " fill="none" style="stroke:#181818;stroke-width:1.5;"/><text fill="#000000" font-family="FG Virgil" font-size="14" font-style="italic" lengthAdjust="spacing" textLength="79" x="2447.5" y="1682.9004">&#171;repository&#187;</text><text fill="#000000" font-family="FG Virgil" font-size="14" lengthAdjust="spacing" textLength="103" x="2435.5" y="1701.5215">ClassRepository</text><path d="M2472,1715.0352 C2472,1705.0352 2490,1705.0352 2490,1705.0352 C2490,1705.0352 2508,1705.0352 2508,1715.0352 L2508,1741.0352 C2508,1751.0352 2490,1751.0352 2490,1751.0352 C2490,1751.0352 2472,1751.0352 2472,1741.0352 L2472,1715.0352 " fill="#E3E3E3" style="stroke:#181818;stroke-width:1.5;"/><path d="M2472,1715.0352 C2472,1725.0352 2490,1725.0352 2490,1725.0352 C2490,1725.0352 2508,1725.0352 2508,1715.0352 " fill="none" style="stroke:#181818;stroke-width:1.5;"/><rect fill="#FFFFFF" height="1561.5508" style="stroke:#181818;stroke-width:1.0;" width="10" x="29.5" y="98.2422"/><rect fill="#FFFFFF" height="1529.2598" style="stroke:#181818;stroke-width:1.0;" width="10" x="258.5" y="121.5332"/><rect fill="#FFFFFF" height="156.4551" style="stroke:#181818;stroke-width:1.0;" width="10" x="514.5" y="152.8242"/><rect fill="#FFFFFF" height="513.6563" style="stroke:#181818;stroke-width:1.0;" width="10" x="514.5" y="450.7344"/><rect fill="#FFFFFF" height="664.1113" style="stroke:#181818;stroke-width:1.0;" width="10" x="514.5" y="995.6816"/><rect fill="#FFFFFF" height="263.3281" style="stroke:#181818;stroke-width:1.0;" width="10" x="519.5" y="1356.1738"/><rect fill="#FFFFFF" height="93.873" style="stroke:#181818;stroke-width:1.0;" width="10" x="727.5" y="184.1152"/><rect fill="#FFFFFF" height="31.291" style="stroke:#181818;stroke-width:1.0;" width="10" x="940.5" y="215.4063"/><rect fill="#FFFFFF" height="451.0742" style="stroke:#181818;stroke-width:1.0;" width="10" x="1121" y="482.0254"/><rect fill="#FFFFFF" height="93.873" style="stroke:#181818;stroke-width:1.0;" width="10" x="1341.5" y="1026.9727"/><rect fill="#FFFFFF" height="31.291" style="stroke:#181818;stroke-width:1.0;" width="10" x="1578.5" y="1058.2637"/><rect fill="#FFFFFF" height="93.873" style="stroke:#181818;stroke-width:1.0;" width="10" x="1746" y="513.3164"/><rect fill="#FFFFFF" height="31.291" style="stroke:#181818;stroke-width:1.0;" width="10" x="1901" y="544.6074"/><rect fill="#FFFFFF" height="263.3281" style="stroke:#181818;stroke-width:1.0;" width="10" x="2019" y="638.4805"/><rect fill="#FFFFFF" height="200.7461" style="stroke:#181818;stroke-width:1.0;" width="10" x="2019" y="1387.4648"/><rect fill="#FFFFFF" height="62.582" style="stroke:#181818;stroke-width:1.0;" width="10" x="2267" y="1418.7559"/><rect fill="#FFFFFF" height="156.4551" style="stroke:#181818;stroke-width:1.0;" width="10" x="2485" y="669.7715"/><polygon fill="#181818" points="246.5,117.5332,256.5,121.5332,246.5,125.5332,250.5,121.5332" style="stroke:#181818;stroke-width:1.0;"/><line style="stroke:#181818;stroke-width:1.0;" x1="39.5" x2="252.5" y1="121.5332" y2="121.5332"/><text fill="#000000" font-family="FG Virgil" font-size="13" font-weight="bold" lengthAdjust="spacing" textLength="7" x="46.5" y="116.2705">1</text><text fill="#000000" font-family="FG Virgil" font-size="13" lengthAdjust="spacing" textLength="147" x="57.5" y="116.2705">Asks to schedule a class</text><polygon fill="#181818" points="502.5,148.8242,512.5,152.8242,502.5,156.8242,506.5,152.8242" style="stroke:#181818;stroke-width:1.0;"/><line style="stroke:#181818;stroke-width:1.0;" x1="268.5" x2="508.5" y1="152.8242" y2="152.8242"/><text fill="#000000" font-family="FG Virgil" font-size="13" font-weight="bold" lengthAdjust="spacing" textLength="7" x="275.5" y="147.5615">2</text><text fill="#000000" font-family="FG Virgil" font-size="13" lengthAdjust="spacing" textLength="169" x="286.5" y="147.5615">getTeacherActiveCourseList()</text><polygon fill="#181818" points="715.5,180.1152,725.5,184.1152,715.5,188.1152,719.5,184.1152" style="stroke:#181818;stroke-width:1.0;"/><line style="stroke:#181818;stroke-width:1.0;" x1="524.5" x2="721.5" y1="184.1152" y2="184.1152"/><text fill="#000000" font-family="FG Virgil" font-size="13" font-weight="bold" lengthAdjust="spacing" textLength="7" x="531.5" y="178.8525">3</text><text fill="#000000" font-family="FG Virgil" font-size="13" lengthAdjust="spacing" textLength="169" x="542.5" y="178.8525">getTeacherActiveCourseList()</text><polygon fill="#181818" points="928.5,211.4063,938.5,215.4063,928.5,219.4063,932.5,215.4063" style="stroke:#181818;stroke-width:1.0;"/><line style="stroke:#181818;stroke-width:1.0;stroke-dasharray:2.0,2.0;" x1="737.5" x2="934.5" y1="215.4063" y2="215.4063"/><text fill="#000000" font-family="FG Virgil" font-size="13" font-weight="bold" lengthAdjust="spacing" textLength="7" x="744.5" y="210.1436">4</text><text fill="#000000" font-family="FG Virgil" font-size="13" lengthAdjust="spacing" textLength="173" x="755.5" y="210.1436">findAvailableTeacherCourses()</text><polygon fill="#181818" points="748.5,242.6973,738.5,246.6973,748.5,250.6973,744.5,246.6973" style="stroke:#181818;stroke-width:1.0;"/><line style="stroke:#181818;stroke-width:1.0;stroke-dasharray:2.0,2.0;" x1="742.5" x2="944.5" y1="246.6973" y2="246.6973"/><text fill="#000000" font-family="FG Virgil" font-size="13" font-weight="bold" lengthAdjust="spacing" textLength="7" x="754.5" y="241.4346">5</text><text fill="#000000" font-family="FG Virgil" font-size="13" lengthAdjust="spacing" textLength="104" x="765.5" y="241.4346">returns courseList</text><polygon fill="#181818" points="535.5,273.9883,525.5,277.9883,535.5,281.9883,531.5,277.9883" style="stroke:#181818;stroke-width:1.0;"/><line style="stroke:#181818;stroke-width:1.0;stroke-dasharray:2.0,2.0;" x1="529.5" x2="731.5" y1="277.9883" y2="277.9883"/><text fill="#000000" font-family="FG Virgil" font-size="13" font-weight="bold" lengthAdjust="spacing" textLength="7" x="541.5" y="272.7256">6</text><text fill="#000000" font-family="FG Virgil" font-size="13" lengthAdjust="spacing" textLength="104" x="552.5" y="272.7256">returns courseList</text><polygon fill="#181818" points="279.5,305.2793,269.5,309.2793,279.5,313.2793,275.5,309.2793" style="stroke:#181818;stroke-width:1.0;"/><line style="stroke:#181818;stroke-width:1.0;stroke-dasharray:2.0,2.0;" x1="273.5" x2="518.5" y1="309.2793" y2="309.2793"/><text fill="#000000" font-family="FG Virgil" font-size="13" font-weight="bold" lengthAdjust="spacing" textLength="7" x="285.5" y="304.0166">7</text><text fill="#000000" font-family="FG Virgil" font-size="13" lengthAdjust="spacing" textLength="60" x="296.5" y="304.0166">courseList</text><line style="stroke:#181818;stroke-width:1.0;" x1="268.5" x2="310.5" y1="357.8613" y2="357.8613"/><line style="stroke:#181818;stroke-width:1.0;" x1="310.5" x2="310.5" y1="357.8613" y2="370.8613"/><line style="stroke:#181818;stroke-width:1.0;" x1="269.5" x2="310.5" y1="370.8613" y2="370.8613"/><polygon fill="#181818" points="279.5,366.8613,269.5,370.8613,279.5,374.8613,275.5,370.8613" style="stroke:#181818;stroke-width:1.0;"/><text fill="#000000" font-family="FG Virgil" font-size="13" font-weight="bold" lengthAdjust="spacing" textLength="7" x="275.5" y="343.9531">8</text><text fill="#000000" font-family="FG Virgil" font-size="13" lengthAdjust="spacing" textLength="156" x="286.5" y="335.3076">display courseList, and the</text><text fill="#000000" font-family="FG Virgil" font-size="13" lengthAdjust="spacing" textLength="217" x="290.5" y="352.5986">possible weeks to schedule the class</text><polygon fill="#181818" points="246.5,415.4434,256.5,419.4434,246.5,423.4434,250.5,419.4434" style="stroke:#181818;stroke-width:1.0;"/><line style="stroke:#181818;stroke-width:1.0;" x1="39.5" x2="252.5" y1="419.4434" y2="419.4434"/><text fill="#000000" font-family="FG Virgil" font-size="13" font-weight="bold" lengthAdjust="spacing" textLength="7" x="46.5" y="405.5352">9</text><text fill="#000000" font-family="FG Virgil" font-size="13" lengthAdjust="spacing" textLength="137" x="57.5" y="396.8896">provides the course and</text><text fill="#000000" font-family="FG Virgil" font-size="13" lengthAdjust="spacing" textLength="180" x="61.5" y="414.1807">the week to schedule the class</text><polygon fill="#181818" points="502.5,446.7344,512.5,450.7344,502.5,454.7344,506.5,450.7344" style="stroke:#181818;stroke-width:1.0;"/><line style="stroke:#181818;stroke-width:1.0;" x1="268.5" x2="508.5" y1="450.7344" y2="450.7344"/><text fill="#000000" font-family="FG Virgil" font-size="13" font-weight="bold" lengthAdjust="spacing" textLength="14" x="275.5" y="445.4717">10</text><text fill="#000000" font-family="FG Virgil" font-size="13" lengthAdjust="spacing" textLength="171" x="293.5" y="445.4717">getAvailableExtraClassSlots()</text><polygon fill="#181818" points="1109,478.0254,1119,482.0254,1109,486.0254,1113,482.0254" style="stroke:#181818;stroke-width:1.0;"/><line style="stroke:#181818;stroke-width:1.0;" x1="524.5" x2="1115" y1="482.0254" y2="482.0254"/><text fill="#000000" font-family="FG Virgil" font-size="13" font-weight="bold" lengthAdjust="spacing" textLength="14" x="531.5" y="476.7627">11</text><text fill="#000000" font-family="FG Virgil" font-size="13" lengthAdjust="spacing" textLength="233" x="549.5" y="476.7627">getAvailableExtraClassSlotsForAWeek()</text><polygon fill="#181818" points="1734,509.3164,1744,513.3164,1734,517.3164,1738,513.3164" style="stroke:#181818;stroke-width:1.0;"/><line style="stroke:#181818;stroke-width:1.0;" x1="1131" x2="1740" y1="513.3164" y2="513.3164"/><text fill="#000000" font-family="FG Virgil" font-size="13" font-weight="bold" lengthAdjust="spacing" textLength="14" x="1138" y="508.0537">12</text><text fill="#000000" font-family="FG Virgil" font-size="13" lengthAdjust="spacing" textLength="95" x="1156" y="508.0537">getLoggedUser()</text><polygon fill="#181818" points="1889,540.6074,1899,544.6074,1889,548.6074,1893,544.6074" style="stroke:#181818;stroke-width:1.0;"/><line style="stroke:#181818;stroke-width:1.0;" x1="1756" x2="1895" y1="544.6074" y2="544.6074"/><text fill="#000000" font-family="FG Virgil" font-size="13" font-weight="bold" lengthAdjust="spacing" textLength="14" x="1763" y="539.3447">13</text><text fill="#000000" font-family="FG Virgil" font-size="13" lengthAdjust="spacing" textLength="108" x="1781" y="539.3447">findByEmail(email)</text><polygon fill="#181818" points="1767,571.8984,1757,575.8984,1767,579.8984,1763,575.8984" style="stroke:#181818;stroke-width:1.0;"/><line style="stroke:#181818;stroke-width:1.0;" x1="1761" x2="1905" y1="575.8984" y2="575.8984"/><text fill="#000000" font-family="FG Virgil" font-size="13" font-weight="bold" lengthAdjust="spacing" textLength="14" x="1773" y="570.6357">14</text><text fill="#000000" font-family="FG Virgil" font-size="13" lengthAdjust="spacing" textLength="75" x="1791" y="570.6357">eCourseUser</text><polygon fill="#181818" points="1142,603.1895,1132,607.1895,1142,611.1895,1138,607.1895" style="stroke:#181818;stroke-width:1.0;"/><line style="stroke:#181818;stroke-width:1.0;" x1="1136" x2="1750" y1="607.1895" y2="607.1895"/><text fill="#000000" font-family="FG Virgil" font-size="13" font-weight="bold" lengthAdjust="spacing" textLength="14" x="1148" y="601.9268">15</text><text fill="#000000" font-family="FG Virgil" font-size="13" lengthAdjust="spacing" textLength="75" x="1166" y="601.9268">eCourseUser</text><polygon fill="#181818" points="2007,634.4805,2017,638.4805,2007,642.4805,2011,638.4805" style="stroke:#181818;stroke-width:1.0;"/><line style="stroke:#181818;stroke-width:1.0;" x1="1131" x2="2013" y1="638.4805" y2="638.4805"/><text fill="#000000" font-family="FG Virgil" font-size="13" font-weight="bold" lengthAdjust="spacing" textLength="14" x="1138" y="633.2178">16</text><text fill="#000000" font-family="FG Virgil" font-size="13" lengthAdjust="spacing" textLength="233" x="1156" y="633.2178">getAvailableExtraClassSlotsForAWeek()</text><polygon fill="#181818" points="2473,665.7715,2483,669.7715,2473,673.7715,2477,669.7715" style="stroke:#181818;stroke-width:1.0;"/><line style="stroke:#181818;stroke-width:1.0;stroke-dasharray:2.0,2.0;" x1="2029" x2="2479" y1="669.7715" y2="669.7715"/><text fill="#000000" font-family="FG Virgil" font-size="13" font-weight="bold" lengthAdjust="spacing" textLength="14" x="2036" y="664.5088">17</text><text fill="#000000" font-family="FG Virgil" font-size="13" lengthAdjust="spacing" textLength="211" x="2054" y="664.5088">findCourseRecurrentClasses(course)</text><polygon fill="#181818" points="2040,697.0625,2030,701.0625,2040,705.0625,2036,701.0625" style="stroke:#181818;stroke-width:1.0;"/><line style="stroke:#181818;stroke-width:1.0;stroke-dasharray:2.0,2.0;" x1="2034" x2="2484" y1="701.0625" y2="701.0625"/><text fill="#000000" font-family="FG Virgil" font-size="13" font-weight="bold" lengthAdjust="spacing" textLength="14" x="2046" y="695.7998">18</text><text fill="#000000" font-family="FG Virgil" font-size="13" lengthAdjust="spacing" textLength="186" x="2064" y="695.7998">returns courseRecurrentClasses</text><polygon fill="#181818" points="2473,728.3535,2483,732.3535,2473,736.3535,2477,732.3535" style="stroke:#181818;stroke-width:1.0;"/><line style="stroke:#181818;stroke-width:1.0;" x1="2029" x2="2479" y1="732.3535" y2="732.3535"/><text fill="#000000" font-family="FG Virgil" font-size="13" font-weight="bold" lengthAdjust="spacing" textLength="14" x="2036" y="727.0908">19</text><text fill="#000000" font-family="FG Virgil" font-size="13" lengthAdjust="spacing" textLength="186" x="2054" y="727.0908">findCourseExtraClasses(course)</text><polygon fill="#181818" points="2040,759.6445,2030,763.6445,2040,767.6445,2036,763.6445" style="stroke:#181818;stroke-width:1.0;"/><line style="stroke:#181818;stroke-width:1.0;stroke-dasharray:2.0,2.0;" x1="2034" x2="2484" y1="763.6445" y2="763.6445"/><text fill="#000000" font-family="FG Virgil" font-size="13" font-weight="bold" lengthAdjust="spacing" textLength="14" x="2046" y="758.3818">20</text><text fill="#000000" font-family="FG Virgil" font-size="13" lengthAdjust="spacing" textLength="161" x="2064" y="758.3818">returns courseExtraClasses</text><polygon fill="#181818" points="2473,790.9355,2483,794.9355,2473,798.9355,2477,794.9355" style="stroke:#181818;stroke-width:1.0;"/><line style="stroke:#181818;stroke-width:1.0;" x1="2029" x2="2479" y1="794.9355" y2="794.9355"/><text fill="#000000" font-family="FG Virgil" font-size="13" font-weight="bold" lengthAdjust="spacing" textLength="14" x="2036" y="789.6729">21</text><text fill="#000000" font-family="FG Virgil" font-size="13" lengthAdjust="spacing" textLength="191" x="2054" y="789.6729">findTeacherExtraClasses(course)</text><polygon fill="#181818" points="2040,822.2266,2030,826.2266,2040,830.2266,2036,826.2266" style="stroke:#181818;stroke-width:1.0;"/><line style="stroke:#181818;stroke-width:1.0;stroke-dasharray:2.0,2.0;" x1="2034" x2="2489" y1="826.2266" y2="826.2266"/><text fill="#000000" font-family="FG Virgil" font-size="13" font-weight="bold" lengthAdjust="spacing" textLength="14" x="2046" y="820.9639">22</text><text fill="#000000" font-family="FG Virgil" font-size="13" lengthAdjust="spacing" textLength="165" x="2064" y="820.9639">returns teacherExtraClasses</text><line style="stroke:#181818;stroke-width:1.0;" x1="2029" x2="2071" y1="862.5176" y2="862.5176"/><line style="stroke:#181818;stroke-width:1.0;" x1="2071" x2="2071" y1="862.5176" y2="875.5176"/><line style="stroke:#181818;stroke-width:1.0;" x1="2024" x2="2071" y1="875.5176" y2="875.5176"/><polygon fill="#181818" points="2034,871.5176,2024,875.5176,2034,879.5176,2030,875.5176" style="stroke:#181818;stroke-width:1.0;"/><text fill="#000000" font-family="FG Virgil" font-size="13" font-weight="bold" lengthAdjust="spacing" textLength="14" x="2036" y="857.2549">23</text><text fill="#000000" font-family="FG Virgil" font-size="13" lengthAdjust="spacing" textLength="206" x="2054" y="857.2549">calculates availableExtraClassSlots</text><polygon fill="#181818" points="1142,897.8086,1132,901.8086,1142,905.8086,1138,901.8086" style="stroke:#181818;stroke-width:1.0;"/><line style="stroke:#181818;stroke-width:1.0;" x1="1136" x2="2023" y1="901.8086" y2="901.8086"/><text fill="#000000" font-family="FG Virgil" font-size="13" font-weight="bold" lengthAdjust="spacing" textLength="14" x="1148" y="896.5459">24</text><text fill="#000000" font-family="FG Virgil" font-size="13" lengthAdjust="spacing" textLength="187" x="1166" y="896.5459">returns availableExtraClassSlots</text><polygon fill="#181818" points="535.5,929.0996,525.5,933.0996,535.5,937.0996,531.5,933.0996" style="stroke:#181818;stroke-width:1.0;"/><line style="stroke:#181818;stroke-width:1.0;stroke-dasharray:2.0,2.0;" x1="529.5" x2="1125" y1="933.0996" y2="933.0996"/><text fill="#000000" font-family="FG Virgil" font-size="13" font-weight="bold" lengthAdjust="spacing" textLength="14" x="541.5" y="927.8369">25</text><text fill="#000000" font-family="FG Virgil" font-size="13" lengthAdjust="spacing" textLength="187" x="559.5" y="927.8369">returns availableExtraClassSlots</text><polygon fill="#181818" points="279.5,960.3906,269.5,964.3906,279.5,968.3906,275.5,964.3906" style="stroke:#181818;stroke-width:1.0;"/><line style="stroke:#181818;stroke-width:1.0;stroke-dasharray:2.0,2.0;" x1="273.5" x2="518.5" y1="964.3906" y2="964.3906"/><text fill="#000000" font-family="FG Virgil" font-size="13" font-weight="bold" lengthAdjust="spacing" textLength="14" x="285.5" y="959.1279">26</text><text fill="#000000" font-family="FG Virgil" font-size="13" lengthAdjust="spacing" textLength="143" x="303.5" y="959.1279">availableExtraClassSlots</text><polygon fill="#181818" points="502.5,991.6816,512.5,995.6816,502.5,999.6816,506.5,995.6816" style="stroke:#181818;stroke-width:1.0;"/><line style="stroke:#181818;stroke-width:1.0;" x1="268.5" x2="508.5" y1="995.6816" y2="995.6816"/><text fill="#000000" font-family="FG Virgil" font-size="13" font-weight="bold" lengthAdjust="spacing" textLength="14" x="275.5" y="990.4189">27</text><text fill="#000000" font-family="FG Virgil" font-size="13" lengthAdjust="spacing" textLength="188" x="293.5" y="990.4189">getStudentsFromCourse(course)</text><polygon fill="#181818" points="1329.5,1022.9727,1339.5,1026.9727,1329.5,1030.9727,1333.5,1026.9727" style="stroke:#181818;stroke-width:1.0;"/><line style="stroke:#181818;stroke-width:1.0;" x1="524.5" x2="1335.5" y1="1026.9727" y2="1026.9727"/><text fill="#000000" font-family="FG Virgil" font-size="13" font-weight="bold" lengthAdjust="spacing" textLength="14" x="531.5" y="1021.71">28</text><text fill="#000000" font-family="FG Virgil" font-size="13" lengthAdjust="spacing" textLength="188" x="549.5" y="1021.71">getStudentsFromCourse(course)</text><polygon fill="#181818" points="1566.5,1054.2637,1576.5,1058.2637,1566.5,1062.2637,1570.5,1058.2637" style="stroke:#181818;stroke-width:1.0;"/><line style="stroke:#181818;stroke-width:1.0;" x1="1351.5" x2="1572.5" y1="1058.2637" y2="1058.2637"/><text fill="#000000" font-family="FG Virgil" font-size="13" font-weight="bold" lengthAdjust="spacing" textLength="14" x="1358.5" y="1053.001">29</text><text fill="#000000" font-family="FG Virgil" font-size="13" lengthAdjust="spacing" textLength="190" x="1376.5" y="1053.001">findStudentsFromCourse(course)</text><polygon fill="#181818" points="1362.5,1085.5547,1352.5,1089.5547,1362.5,1093.5547,1358.5,1089.5547" style="stroke:#181818;stroke-width:1.0;"/><line style="stroke:#181818;stroke-width:1.0;" x1="1356.5" x2="1582.5" y1="1089.5547" y2="1089.5547"/><text fill="#000000" font-family="FG Virgil" font-size="13" font-weight="bold" lengthAdjust="spacing" textLength="14" x="1368.5" y="1084.292">30</text><text fill="#000000" font-family="FG Virgil" font-size="13" lengthAdjust="spacing" textLength="97" x="1386.5" y="1084.292">enrolledStudents</text><polygon fill="#181818" points="535.5,1116.8457,525.5,1120.8457,535.5,1124.8457,531.5,1120.8457" style="stroke:#181818;stroke-width:1.0;"/><line style="stroke:#181818;stroke-width:1.0;" x1="529.5" x2="1345.5" y1="1120.8457" y2="1120.8457"/><text fill="#000000" font-family="FG Virgil" font-size="13" font-weight="bold" lengthAdjust="spacing" textLength="14" x="541.5" y="1115.583">31</text><text fill="#000000" font-family="FG Virgil" font-size="13" lengthAdjust="spacing" textLength="97" x="559.5" y="1115.583">enrolledStudents</text><polygon fill="#181818" points="279.5,1148.1367,269.5,1152.1367,279.5,1156.1367,275.5,1152.1367" style="stroke:#181818;stroke-width:1.0;"/><line style="stroke:#181818;stroke-width:1.0;" x1="273.5" x2="513.5" y1="1152.1367" y2="1152.1367"/><text fill="#000000" font-family="FG Virgil" font-size="13" font-weight="bold" lengthAdjust="spacing" textLength="14" x="285.5" y="1146.874">32</text><text fill="#000000" font-family="FG Virgil" font-size="13" lengthAdjust="spacing" textLength="97" x="303.5" y="1146.874">enrolledStudents</text><line style="stroke:#181818;stroke-width:1.0;" x1="268.5" x2="310.5" y1="1200.7188" y2="1200.7188"/><line style="stroke:#181818;stroke-width:1.0;" x1="310.5" x2="310.5" y1="1200.7188" y2="1213.7188"/><line style="stroke:#181818;stroke-width:1.0;" x1="269.5" x2="310.5" y1="1213.7188" y2="1213.7188"/><polygon fill="#181818" points="279.5,1209.7188,269.5,1213.7188,279.5,1217.7188,275.5,1213.7188" style="stroke:#181818;stroke-width:1.0;"/><text fill="#000000" font-family="FG Virgil" font-size="13" font-weight="bold" lengthAdjust="spacing" textLength="14" x="275.5" y="1186.8105">33</text><text fill="#000000" font-family="FG Virgil" font-size="13" lengthAdjust="spacing" textLength="188" x="293.5" y="1178.165">display availableExtraClassSlots</text><text fill="#000000" font-family="FG Virgil" font-size="13" lengthAdjust="spacing" textLength="166" x="297.5" y="1195.4561">and the possible participants</text><polygon fill="#181818" points="246.5,1258.3008,256.5,1262.3008,246.5,1266.3008,250.5,1262.3008" style="stroke:#181818;stroke-width:1.0;"/><line style="stroke:#181818;stroke-width:1.0;" x1="39.5" x2="252.5" y1="1262.3008" y2="1262.3008"/><text fill="#000000" font-family="FG Virgil" font-size="13" font-weight="bold" lengthAdjust="spacing" textLength="14" x="46.5" y="1248.3926">34</text><text fill="#000000" font-family="FG Virgil" font-size="13" lengthAdjust="spacing" textLength="129" x="64.5" y="1239.7471">provides the class slot</text><text fill="#000000" font-family="FG Virgil" font-size="13" lengthAdjust="spacing" textLength="114" x="68.5" y="1257.0381">and the participants</text><polygon fill="#181818" points="50.5,1289.5918,40.5,1293.5918,50.5,1297.5918,46.5,1293.5918" style="stroke:#181818;stroke-width:1.0;"/><line style="stroke:#181818;stroke-width:1.0;" x1="44.5" x2="257.5" y1="1293.5918" y2="1293.5918"/><text fill="#000000" font-family="FG Virgil" font-size="13" font-weight="bold" lengthAdjust="spacing" textLength="14" x="56.5" y="1288.3291">35</text><text fill="#000000" font-family="FG Virgil" font-size="13" lengthAdjust="spacing" textLength="136" x="74.5" y="1288.3291">requests the class data</text><polygon fill="#181818" points="246.5,1320.8828,256.5,1324.8828,246.5,1328.8828,250.5,1324.8828" style="stroke:#181818;stroke-width:1.0;"/><line style="stroke:#181818;stroke-width:1.0;" x1="39.5" x2="252.5" y1="1324.8828" y2="1324.8828"/><text fill="#000000" font-family="FG Virgil" font-size="13" font-weight="bold" lengthAdjust="spacing" textLength="14" x="46.5" y="1319.6201">36</text><text fill="#000000" font-family="FG Virgil" font-size="13" lengthAdjust="spacing" textLength="133" x="64.5" y="1319.6201">provides the class data</text><polygon fill="#181818" points="507.5,1352.1738,517.5,1356.1738,507.5,1360.1738,511.5,1356.1738" style="stroke:#181818;stroke-width:1.0;"/><line style="stroke:#181818;stroke-width:1.0;" x1="268.5" x2="513.5" y1="1356.1738" y2="1356.1738"/><text fill="#000000" font-family="FG Virgil" font-size="13" font-weight="bold" lengthAdjust="spacing" textLength="14" x="275.5" y="1350.9111">37</text><text fill="#000000" font-family="FG Virgil" font-size="13" lengthAdjust="spacing" textLength="93" x="293.5" y="1350.9111">scheduleClass()</text><polygon fill="#181818" points="2007,1383.4648,2017,1387.4648,2007,1391.4648,2011,1387.4648" style="stroke:#181818;stroke-width:1.0;"/><line style="stroke:#181818;stroke-width:1.0;" x1="529.5" x2="2013" y1="1387.4648" y2="1387.4648"/><text fill="#000000" font-family="FG Virgil" font-size="13" font-weight="bold" lengthAdjust="spacing" textLength="14" x="536.5" y="1382.2021">38</text><text fill="#000000" font-family="FG Virgil" font-size="13" lengthAdjust="spacing" textLength="124" x="554.5" y="1382.2021">scheduleExtraClass()</text><polygon fill="#181818" points="2255,1414.7559,2265,1418.7559,2255,1422.7559,2259,1418.7559" style="stroke:#181818;stroke-width:1.0;"/><line style="stroke:#181818;stroke-width:1.0;" x1="2029" x2="2261" y1="1418.7559" y2="1418.7559"/><text fill="#000000" font-family="FG Virgil" font-size="13" font-weight="bold" lengthAdjust="spacing" textLength="14" x="2036" y="1413.4932">39</text><text fill="#000000" font-family="FG Virgil" font-size="13" lengthAdjust="spacing" textLength="35" x="2054" y="1413.4932">build()</text><polygon fill="#181818" points="2373,1446.0469,2383,1450.0469,2373,1454.0469,2377,1450.0469" style="stroke:#181818;stroke-width:1.0;"/><line style="stroke:#181818;stroke-width:1.0;" x1="2277" x2="2379" y1="1450.0469" y2="1450.0469"/><text fill="#000000" font-family="FG Virgil" font-size="13" font-weight="bold" lengthAdjust="spacing" textLength="14" x="2284" y="1444.7842">40</text><text fill="#000000" font-family="FG Virgil" font-size="13" lengthAdjust="spacing" textLength="44" x="2302" y="1444.7842">create()</text><polygon fill="#181818" points="2040,1477.3379,2030,1481.3379,2040,1485.3379,2036,1481.3379" style="stroke:#181818;stroke-width:1.0;"/><line style="stroke:#181818;stroke-width:1.0;" x1="2034" x2="2271" y1="1481.3379" y2="1481.3379"/><text fill="#000000" font-family="FG Virgil" font-size="13" font-weight="bold" lengthAdjust="spacing" textLength="14" x="2046" y="1476.0752">41</text><text fill="#000000" font-family="FG Virgil" font-size="13" lengthAdjust="spacing" textLength="75" x="2064" y="1476.0752">returns class</text><line style="stroke:#181818;stroke-width:1.0;" x1="2029" x2="2071" y1="1512.6289" y2="1512.6289"/><line style="stroke:#181818;stroke-width:1.0;" x1="2071" x2="2071" y1="1512.6289" y2="1525.6289"/><line style="stroke:#181818;stroke-width:1.0;" x1="2030" x2="2071" y1="1525.6289" y2="1525.6289"/><polygon fill="#181818" points="2040,1521.6289,2030,1525.6289,2040,1529.6289,2036,1525.6289" style="stroke:#181818;stroke-width:1.0;"/><text fill="#000000" font-family="FG Virgil" font-size="13" font-weight="bold" lengthAdjust="spacing" textLength="14" x="2036" y="1507.3662">42</text><text fill="#000000" font-family="FG Virgil" font-size="13" lengthAdjust="spacing" textLength="107" x="2054" y="1507.3662">validates the class</text><polygon fill="#181818" points="2478,1552.9199,2488,1556.9199,2478,1560.9199,2482,1556.9199" style="stroke:#181818;stroke-width:1.0;"/><line style="stroke:#181818;stroke-width:1.0;" x1="2029" x2="2484" y1="1556.9199" y2="1556.9199"/><text fill="#000000" font-family="FG Virgil" font-size="13" font-weight="bold" lengthAdjust="spacing" textLength="14" x="2036" y="1551.6572">43</text><text fill="#000000" font-family="FG Virgil" font-size="13" lengthAdjust="spacing" textLength="65" x="2054" y="1551.6572">save(class)</text><polygon fill="#181818" points="540.5,1584.2109,530.5,1588.2109,540.5,1592.2109,536.5,1588.2109" style="stroke:#181818;stroke-width:1.0;"/><line style="stroke:#181818;stroke-width:1.0;" x1="534.5" x2="2023" y1="1588.2109" y2="1588.2109"/><text fill="#000000" font-family="FG Virgil" font-size="13" font-weight="bold" lengthAdjust="spacing" textLength="14" x="546.5" y="1582.9482">44</text><text fill="#000000" font-family="FG Virgil" font-size="13" lengthAdjust="spacing" textLength="93" x="564.5" y="1582.9482">returns success</text><polygon fill="#181818" points="279.5,1615.502,269.5,1619.502,279.5,1623.502,275.5,1619.502" style="stroke:#181818;stroke-width:1.0;"/><line style="stroke:#181818;stroke-width:1.0;" x1="273.5" x2="513.5" y1="1619.502" y2="1619.502"/><text fill="#000000" font-family="FG Virgil" font-size="13" font-weight="bold" lengthAdjust="spacing" textLength="14" x="285.5" y="1614.2393">45</text><text fill="#000000" font-family="FG Virgil" font-size="13" lengthAdjust="spacing" textLength="90" x="303.5" y="1614.2393">shows success</text><polygon fill="#181818" points="50.5,1646.793,40.5,1650.793,50.5,1654.793,46.5,1650.793" style="stroke:#181818;stroke-width:1.0;"/><line style="stroke:#181818;stroke-width:1.0;" x1="44.5" x2="262.5" y1="1650.793" y2="1650.793"/><text fill="#000000" font-family="FG Virgil" font-size="13" font-weight="bold" lengthAdjust="spacing" textLength="14" x="56.5" y="1645.5303">46</text><text fill="#000000" font-family="FG Virgil" font-size="13" lengthAdjust="spacing" textLength="90" x="74.5" y="1645.5303">shows success</text><!--SRC=[bLRBRjim4BppAuYSKg3-WI0880jnOK3emRBRIo-qjB69qA9AKaxzzrsIaamzemHeW8epixlSsMNqEozAfjY5NcGXixEI5w16LK1qUrAox9sT83Kt0LH1PeAp7DvO9Sn65kOdG-hc1_t5rOcB0AFFB9SVl3ZHDoOq4C8g8ulgSWH5M6QaedjWsHaKPPhk2P8CptZ92aCVNlyPnMB1j4uHaLS23ji7YpjiwVDpgK13OPZXidXv-OmPOv9A2W7AAQGnAh2o53mR5KYuDdLYiQoK1jqJI8O2EJFio3JG1q_PGIarnn9lZX7laA7QRsCHeolZWXqnMvUwa6OGDbgGk0-VcYh7-nacdiva_beuQ5wJUoMayoKSDAWKj4RH5DILP-2xbSv5jAHUc8Fz_soaJcjzNR6BedtSQJ-iAoxoXh96nj5_c6PuQ8BGN5uOxtNQ8lgDJWRNX3zeTdvb1j3aUxfwiHv-ef5-rzH8gkjIAAEPLRoZ3rk2ICIZOv_e2HfNHXO0ljEsvu_Vxfmq9eX6JhASayGaYLV8GPi-qJTUvAqPktCGak8TGVYgYQJ0LAhGD6iZa1n2CA9MJIdpuCINqDpJE0Zhz7VZC3dNfM2t0FkTiYAdvWn_2ehDq1oBeHy0lJj7G7thzyQKIbvv3jeVEaKhXaBsWzMOaEWsgxt3O27PgHxlLlG9QoDLz1j3T_eMOUCYnySvS_H4dawGsxaAWNXAx2HQe3MiR_BwzegU5ezWVuTe2o5-41lfsZbMEEn23VNIcCeq43EeKxN3-kLIaKJmdpDfqhYqMRLPfHGkBAU09lKj2ya9UZNnPlNHkmRiAzX8T2JIFSyWofnmI1YArhFr1LKpP7IcpDPPHt6yZ8ci4dYaAPkux0c-zsCJTn6vwN1_o9UGhPF3cL_2QJT0Ct3DexV1lsLymuPM2DPZkfo5O689DjZEDszHi1t1LzC7mydeFg_TMdQjVZoFjAdu2jn53Q0ZIt7gCYbkj7f9tbTay11ExqGhGJLgT2H2fazZxspmjm9jGgPzGkUr7IBeRhDiNVAZ2zGRli7TAnrP8Ww-HhHx_Zk0DS43DwHsUXJWHpolltK7t6tyqF_hxknTcU2v6xtx0z5P0PfTqJFs-xVce3Ctkieoq8CP2vglp_9Z5DUEndw08fsjl2N_0G00]--></g></svg>