<?xml version="1.0" encoding="us-ascii" standalone="no"?><svg xmlns="http://www.w3.org/2000/svg" xmlns:xlink="http://www.w3.org/1999/xlink" contentStyleType="text/css" height="1382px" preserveAspectRatio="none" style="width:2226px;height:1382px;background:#FFFFFF;" version="1.1" viewBox="0 0 2226 1382" width="2226px" zoomAndPan="magnify"><defs/><g><text fill="#000000" font-family="sans-serif" font-size="14" font-weight="bold" lengthAdjust="spacing" textLength="262" x="975" y="25.1074">US2007 - Add/Update Exam Questions</text><!--cluster questionmanagement--><g id="cluster_questionmanagement"><path d="M8.5,397.6348 L161.5,397.6348 A3.75,3.75 0 0 1 164,400.1348 L171,422.2559 L2216.5,422.2559 A2.5,2.5 0 0 1 2219,424.7559 L2219,1373.1348 A2.5,2.5 0 0 1 2216.5,1375.6348 L8.5,1375.6348 A2.5,2.5 0 0 1 6,1373.1348 L6,400.1348 A2.5,2.5 0 0 1 8.5,397.6348 " fill="none" style="stroke:#000000;stroke-width:1.5;"/><line style="stroke:#000000;stroke-width:1.5;" x1="6" x2="171" y1="422.2559" y2="422.2559"/><text fill="#000000" font-family="sans-serif" font-size="14" font-weight="bold" lengthAdjust="spacing" textLength="152" x="10" y="414.7422">questionmanagement</text></g><!--cluster application--><g id="cluster_application"><path d="M1286.5,442.6348 L1364.5,442.6348 A3.75,3.75 0 0 1 1367,445.1348 L1374,467.2559 L2192.5,467.2559 A2.5,2.5 0 0 1 2195,469.7559 L2195,597.1348 A2.5,2.5 0 0 1 2192.5,599.6348 L1286.5,599.6348 A2.5,2.5 0 0 1 1284,597.1348 L1284,445.1348 A2.5,2.5 0 0 1 1286.5,442.6348 " fill="none" style="stroke:#000000;stroke-width:1.5;"/><line style="stroke:#000000;stroke-width:1.5;" x1="1284" x2="1374" y1="467.2559" y2="467.2559"/><text fill="#000000" font-family="sans-serif" font-size="14" font-weight="bold" lengthAdjust="spacing" textLength="77" x="1288" y="459.7422">application</text></g><!--cluster domain--><g id="cluster_domain"><path d="M32.5,461.1348 L84.5,461.1348 A3.75,3.75 0 0 1 87,463.6348 L94,485.7559 L1257.5,485.7559 A2.5,2.5 0 0 1 1260,488.2559 L1260,1349.1348 A2.5,2.5 0 0 1 1257.5,1351.6348 L32.5,1351.6348 A2.5,2.5 0 0 1 30,1349.1348 L30,463.6348 A2.5,2.5 0 0 1 32.5,461.1348 " fill="none" style="stroke:#000000;stroke-width:1.5;"/><line style="stroke:#000000;stroke-width:1.5;" x1="30" x2="94" y1="485.7559" y2="485.7559"/><text fill="#000000" font-family="sans-serif" font-size="14" font-weight="bold" lengthAdjust="spacing" textLength="51" x="34" y="478.2422">domain</text></g><!--cluster repository--><g id="cluster_repository"><path d="M1419.5,665.1348 L1492.5,665.1348 A3.75,3.75 0 0 1 1495,667.6348 L1502,689.7559 L1770.5,689.7559 A2.5,2.5 0 0 1 1773,692.2559 L1773,800.6348 A2.5,2.5 0 0 1 1770.5,803.1348 L1419.5,803.1348 A2.5,2.5 0 0 1 1417,800.6348 L1417,667.6348 A2.5,2.5 0 0 1 1419.5,665.1348 " fill="none" style="stroke:#000000;stroke-width:1.5;"/><line style="stroke:#000000;stroke-width:1.5;" x1="1417" x2="1502" y1="689.7559" y2="689.7559"/><text fill="#000000" font-family="sans-serif" font-size="14" font-weight="bold" lengthAdjust="spacing" textLength="72" x="1421" y="682.2422">repository</text></g><!--cluster ui--><g id="cluster_ui"><path d="M1564.5,45.6348 L1578.5,45.6348 A3.75,3.75 0 0 1 1581,48.1348 L1588,70.2559 L1962.5,70.2559 A2.5,2.5 0 0 1 1965,72.7559 L1965,362.1348 A2.5,2.5 0 0 1 1962.5,364.6348 L1564.5,364.6348 A2.5,2.5 0 0 1 1562,362.1348 L1562,48.1348 A2.5,2.5 0 0 1 1564.5,45.6348 " fill="none" style="stroke:#000000;stroke-width:1.5;"/><line style="stroke:#000000;stroke-width:1.5;" x1="1562" x2="1588" y1="70.2559" y2="70.2559"/><text fill="#000000" font-family="sans-serif" font-size="14" font-weight="bold" lengthAdjust="spacing" textLength="13" x="1566" y="62.7422">ui</text></g><!--class AddTypeQuestionController--><g id="elem_AddTypeQuestionController"><rect codeLine="10" fill="#F1F1F1" height="85.2422" id="AddTypeQuestionController" rx="2.5" ry="2.5" style="stroke:#181818;stroke-width:0.5;" width="396" x="1300" y="489.1348"/><ellipse cx="1405.75" cy="505.1348" fill="#ADD1B2" rx="11" ry="11" style="stroke:#181818;stroke-width:1.0;"/><path d="M1408.5156,501.0098 Q1408.6719,500.791 1408.8594,500.6816 Q1409.0469,500.5723 1409.2656,500.5723 Q1409.6406,500.5723 1409.875,500.8379 Q1410.1094,501.0879 1410.1094,501.6973 L1410.1094,503.1504 Q1410.1094,503.7598 1409.875,504.0254 Q1409.6406,504.291 1409.2656,504.291 Q1408.9219,504.291 1408.7188,504.0879 Q1408.5156,503.9004 1408.4063,503.3848 Q1408.3594,503.0254 1408.1719,502.8379 Q1407.8438,502.4629 1407.2344,502.2441 Q1406.625,502.0254 1406,502.0254 Q1405.2344,502.0254 1404.5938,502.3535 Q1403.9688,502.6816 1403.4688,503.4316 Q1402.9844,504.1816 1402.9844,505.2129 L1402.9844,506.3066 Q1402.9844,507.541 1403.875,508.3691 Q1404.7656,509.1816 1406.3594,509.1816 Q1407.2969,509.1816 1407.9531,508.9316 Q1408.3438,508.7754 1408.7656,508.3379 Q1409.0313,508.0723 1409.1719,507.9941 Q1409.3281,507.916 1409.5313,507.916 Q1409.8594,507.916 1410.1094,508.1816 Q1410.375,508.4316 1410.375,508.7754 Q1410.375,509.1191 1410.0313,509.5254 Q1409.5313,510.1035 1408.7344,510.4316 Q1407.6563,510.8848 1406.3594,510.8848 Q1404.8438,510.8848 1403.6406,510.2598 Q1402.6563,509.7598 1401.9688,508.6973 Q1401.2813,507.6191 1401.2813,506.3379 L1401.2813,505.1816 Q1401.2813,503.8535 1401.8906,502.7129 Q1402.5156,501.5566 1403.6094,500.9473 Q1404.7031,500.3223 1405.9375,500.3223 Q1406.6719,500.3223 1407.3125,500.4941 Q1407.9688,500.6504 1408.5156,501.0098 Z " fill="#000000"/><text fill="#000000" font-family="sans-serif" font-size="14" lengthAdjust="spacing" textLength="176" x="1426.25" y="510.9316">AddTypeQuestionController</text><line style="stroke:#181818;stroke-width:0.5;" x1="1301" x2="1695" y1="521.1348" y2="521.1348"/><line style="stroke:#181818;stroke-width:0.5;" x1="1301" x2="1695" y1="529.1348" y2="529.1348"/><text fill="#000000" font-family="sans-serif" font-size="14" lengthAdjust="spacing" textLength="384" x="1306" y="548.2422">AddTypeQuestionController(questionRepo, questionFactory)</text><text fill="#000000" font-family="sans-serif" font-size="14" lengthAdjust="spacing" textLength="321" x="1306" y="566.8633">+addQuestion(questionData) : Optional&lt;Question&gt;</text></g><!--class UpdateTypeQuestionController--><g id="elem_UpdateTypeQuestionController"><rect codeLine="15" fill="#F1F1F1" height="103.8633" id="UpdateTypeQuestionController" rx="2.5" ry="2.5" style="stroke:#181818;stroke-width:0.5;" width="448" x="1731" y="479.6348"/><ellipse cx="1852.75" cy="495.6348" fill="#ADD1B2" rx="11" ry="11" style="stroke:#181818;stroke-width:1.0;"/><path d="M1855.5156,491.5098 Q1855.6719,491.291 1855.8594,491.1816 Q1856.0469,491.0723 1856.2656,491.0723 Q1856.6406,491.0723 1856.875,491.3379 Q1857.1094,491.5879 1857.1094,492.1973 L1857.1094,493.6504 Q1857.1094,494.2598 1856.875,494.5254 Q1856.6406,494.791 1856.2656,494.791 Q1855.9219,494.791 1855.7188,494.5879 Q1855.5156,494.4004 1855.4063,493.8848 Q1855.3594,493.5254 1855.1719,493.3379 Q1854.8438,492.9629 1854.2344,492.7441 Q1853.625,492.5254 1853,492.5254 Q1852.2344,492.5254 1851.5938,492.8535 Q1850.9688,493.1816 1850.4688,493.9316 Q1849.9844,494.6816 1849.9844,495.7129 L1849.9844,496.8066 Q1849.9844,498.041 1850.875,498.8691 Q1851.7656,499.6816 1853.3594,499.6816 Q1854.2969,499.6816 1854.9531,499.4316 Q1855.3438,499.2754 1855.7656,498.8379 Q1856.0313,498.5723 1856.1719,498.4941 Q1856.3281,498.416 1856.5313,498.416 Q1856.8594,498.416 1857.1094,498.6816 Q1857.375,498.9316 1857.375,499.2754 Q1857.375,499.6191 1857.0313,500.0254 Q1856.5313,500.6035 1855.7344,500.9316 Q1854.6563,501.3848 1853.3594,501.3848 Q1851.8438,501.3848 1850.6406,500.7598 Q1849.6563,500.2598 1848.9688,499.1973 Q1848.2813,498.1191 1848.2813,496.8379 L1848.2813,495.6816 Q1848.2813,494.3535 1848.8906,493.2129 Q1849.5156,492.0566 1850.6094,491.4473 Q1851.7031,490.8223 1852.9375,490.8223 Q1853.6719,490.8223 1854.3125,490.9941 Q1854.9688,491.1504 1855.5156,491.5098 Z " fill="#000000"/><text fill="#000000" font-family="sans-serif" font-size="14" lengthAdjust="spacing" textLength="196" x="1873.25" y="501.4316">UpdateTypeQuestionController</text><line style="stroke:#181818;stroke-width:0.5;" x1="1732" x2="2178" y1="511.6348" y2="511.6348"/><line style="stroke:#181818;stroke-width:0.5;" x1="1732" x2="2178" y1="519.6348" y2="519.6348"/><text fill="#000000" font-family="sans-serif" font-size="14" lengthAdjust="spacing" textLength="412" x="1737" y="538.7422">UpdateTypeQuestionController(questionRepo, questionValidator)</text><text fill="#000000" font-family="sans-serif" font-size="14" lengthAdjust="spacing" textLength="436" x="1737" y="557.3633">+updateQuestion(question), newQuestionData) : Optional&lt;Question&gt;</text><text fill="#000000" font-family="sans-serif" font-size="14" lengthAdjust="spacing" textLength="206" x="1737" y="575.9844">+listQuestions() : List&lt;Question&gt;</text></g><!--class IQuestionFactory--><g id="elem_IQuestionFactory"><rect codeLine="24" fill="#F1F1F1" height="159.7266" id="IQuestionFactory" rx="2.5" ry="2.5" style="stroke:#181818;stroke-width:0.5;" width="703" x="540.5" y="664.6348"/><ellipse cx="833.25" cy="680.6348" fill="#B4A7E5" rx="11" ry="11" style="stroke:#181818;stroke-width:1.0;"/><path d="M834.2031,677.2754 L834.2031,683.9316 L835.9219,683.9316 Q836.5313,683.9316 836.7969,684.166 Q837.0625,684.4004 837.0625,684.791 Q837.0625,685.166 836.7969,685.4004 Q836.5313,685.6348 835.9219,685.6348 L830.7813,685.6348 Q830.1719,685.6348 829.9063,685.4004 Q829.6406,685.166 829.6406,684.7754 Q829.6406,684.4004 829.9063,684.166 Q830.1719,683.9316 830.7813,683.9316 L832.5,683.9316 L832.5,677.2754 L830.7813,677.2754 Q830.1719,677.2754 829.9063,677.041 Q829.6406,676.8066 829.6406,676.416 Q829.6406,676.041 829.9063,675.8066 Q830.1719,675.5723 830.7813,675.5723 L835.9219,675.5723 Q836.5313,675.5723 836.7969,675.8066 Q837.0625,676.041 837.0625,676.416 Q837.0625,676.8066 836.7969,677.041 Q836.5313,677.2754 835.9219,677.2754 L834.2031,677.2754 Z " fill="#000000"/><text fill="#000000" font-family="sans-serif" font-size="14" font-style="italic" lengthAdjust="spacing" textLength="109" x="853.75" y="686.4316">IQuestionFactory</text><line style="stroke:#181818;stroke-width:0.5;" x1="541.5" x2="1242.5" y1="696.6348" y2="696.6348"/><line style="stroke:#181818;stroke-width:0.5;" x1="541.5" x2="1242.5" y1="704.6348" y2="704.6348"/><text fill="#000000" font-family="sans-serif" font-size="14" lengthAdjust="spacing" textLength="634" x="546.5" y="723.7422">+createMatchingQuestion(question, quotation, penalty, leftOptions, rightOptions) : MatchingQuestion</text><text fill="#000000" font-family="sans-serif" font-size="14" lengthAdjust="spacing" textLength="691" x="546.5" y="742.3633">+createMultipleChoiceQuestion(question, quotation, penalty, options, correctOption) : MultipleChoiceQuestion</text><text fill="#000000" font-family="sans-serif" font-size="14" lengthAdjust="spacing" textLength="617" x="546.5" y="760.9844">+createShortAnswerQuestion(question, quotation, penalty, correctAnswer) : ShortAnswerQuestion</text><text fill="#000000" font-family="sans-serif" font-size="14" lengthAdjust="spacing" textLength="581" x="546.5" y="779.6055">+createNumericalQuestion(question, quotation, penalty, correctAnswer) : NumericalQuestion</text><text fill="#000000" font-family="sans-serif" font-size="14" lengthAdjust="spacing" textLength="659" x="546.5" y="798.2266">+createMissingWordQuestion(question, quotation, penalty, missingWordOptions) : MissingWordQuestion</text><text fill="#000000" font-family="sans-serif" font-size="14" lengthAdjust="spacing" textLength="561" x="546.5" y="816.8477">+createBooleanQuestion(question, quotation, penalty, correctAnswer) : BooleanQuestion</text></g><!--class IQuestionValidator--><g id="elem_IQuestionValidator"><rect codeLine="33" fill="#F1F1F1" height="66.6211" id="IQuestionValidator" rx="2.5" ry="2.5" style="stroke:#181818;stroke-width:0.5;" width="199" x="1044.5" y="931.1348"/><ellipse cx="1082" cy="947.1348" fill="#B4A7E5" rx="11" ry="11" style="stroke:#181818;stroke-width:1.0;"/><path d="M1082.9531,943.7754 L1082.9531,950.4316 L1084.6719,950.4316 Q1085.2813,950.4316 1085.5469,950.666 Q1085.8125,950.9004 1085.8125,951.291 Q1085.8125,951.666 1085.5469,951.9004 Q1085.2813,952.1348 1084.6719,952.1348 L1079.5313,952.1348 Q1078.9219,952.1348 1078.6563,951.9004 Q1078.3906,951.666 1078.3906,951.2754 Q1078.3906,950.9004 1078.6563,950.666 Q1078.9219,950.4316 1079.5313,950.4316 L1081.25,950.4316 L1081.25,943.7754 L1079.5313,943.7754 Q1078.9219,943.7754 1078.6563,943.541 Q1078.3906,943.3066 1078.3906,942.916 Q1078.3906,942.541 1078.6563,942.3066 Q1078.9219,942.0723 1079.5313,942.0723 L1084.6719,942.0723 Q1085.2813,942.0723 1085.5469,942.3066 Q1085.8125,942.541 1085.8125,942.916 Q1085.8125,943.3066 1085.5469,943.541 Q1085.2813,943.7754 1084.6719,943.7754 L1082.9531,943.7754 Z " fill="#000000"/><text fill="#000000" font-family="sans-serif" font-size="14" font-style="italic" lengthAdjust="spacing" textLength="117" x="1101" y="952.9316">IQuestionValidator</text><line style="stroke:#181818;stroke-width:0.5;" x1="1045.5" x2="1242.5" y1="963.1348" y2="963.1348"/><line style="stroke:#181818;stroke-width:0.5;" x1="1045.5" x2="1242.5" y1="971.1348" y2="971.1348"/><text fill="#000000" font-family="sans-serif" font-size="14" lengthAdjust="spacing" textLength="187" x="1050.5" y="990.2422">-validate(question) : Question</text></g><!--class IQuestionFileGenerator--><g id="elem_IQuestionFileGenerator"><rect codeLine="37" fill="#F1F1F1" height="66.6211" id="IQuestionFileGenerator" rx="2.5" ry="2.5" style="stroke:#181818;stroke-width:0.5;" width="295" x="744.5" y="498.1348"/><ellipse cx="813.25" cy="514.1348" fill="#B4A7E5" rx="11" ry="11" style="stroke:#181818;stroke-width:1.0;"/><path d="M814.2031,510.7754 L814.2031,517.4316 L815.9219,517.4316 Q816.5313,517.4316 816.7969,517.666 Q817.0625,517.9004 817.0625,518.291 Q817.0625,518.666 816.7969,518.9004 Q816.5313,519.1348 815.9219,519.1348 L810.7813,519.1348 Q810.1719,519.1348 809.9063,518.9004 Q809.6406,518.666 809.6406,518.2754 Q809.6406,517.9004 809.9063,517.666 Q810.1719,517.4316 810.7813,517.4316 L812.5,517.4316 L812.5,510.7754 L810.7813,510.7754 Q810.1719,510.7754 809.9063,510.541 Q809.6406,510.3066 809.6406,509.916 Q809.6406,509.541 809.9063,509.3066 Q810.1719,509.0723 810.7813,509.0723 L815.9219,509.0723 Q816.5313,509.0723 816.7969,509.3066 Q817.0625,509.541 817.0625,509.916 Q817.0625,510.3066 816.7969,510.541 Q816.5313,510.7754 815.9219,510.7754 L814.2031,510.7754 Z " fill="#000000"/><text fill="#000000" font-family="sans-serif" font-size="14" font-style="italic" lengthAdjust="spacing" textLength="149" x="833.75" y="519.9316">IQuestionFileGenerator</text><line style="stroke:#181818;stroke-width:0.5;" x1="745.5" x2="1038.5" y1="530.1348" y2="530.1348"/><line style="stroke:#181818;stroke-width:0.5;" x1="745.5" x2="1038.5" y1="538.1348" y2="538.1348"/><text fill="#000000" font-family="sans-serif" font-size="14" lengthAdjust="spacing" textLength="283" x="750.5" y="557.2422">+generateQuestionType(questionData) : File</text></g><!--class Question--><g id="elem_Question"><rect codeLine="41" fill="#F1F1F1" height="122.4844" id="Question" rx="2.5" ry="2.5" style="stroke:#181818;stroke-width:0.5;" width="381" x="213.5" y="903.6348"/><ellipse cx="371.25" cy="919.6348" fill="#A9DCDF" rx="11" ry="11" style="stroke:#181818;stroke-width:1.0;"/><path d="M373.4375,921.4004 L369.2969,921.4004 L368.875,922.4316 L369.2969,922.4316 Q369.9063,922.4316 370.1719,922.666 Q370.4375,922.9004 370.4375,923.291 Q370.4375,923.666 370.1719,923.9004 Q369.9063,924.1348 369.2969,924.1348 L367,924.1348 Q366.3906,924.1348 366.1406,923.9004 Q365.875,923.666 365.875,923.2754 Q365.875,922.9004 366.1563,922.666 Q366.4219,922.416 367.0469,922.4316 L369.7188,915.7754 L368.6094,915.7754 Q368,915.7754 367.7344,915.541 Q367.4688,915.3066 367.4688,914.916 Q367.4688,914.541 367.7344,914.3066 Q368,914.0723 368.6094,914.0723 L372.2813,914.0723 L375.6719,922.4316 Q376.2656,922.4316 376.4531,922.5723 Q376.8438,922.8379 376.8438,923.291 Q376.8438,923.666 376.5781,923.9004 Q376.3281,924.1348 375.7188,924.1348 L373.4219,924.1348 Q372.8125,924.1348 372.5469,923.9004 Q372.2813,923.666 372.2813,923.2754 Q372.2813,922.9004 372.5469,922.666 Q372.8125,922.4316 373.4219,922.4316 L373.8438,922.4316 L373.4375,921.4004 Z M372.7188,919.6973 L371.3594,916.3223 L369.9844,919.6973 L372.7188,919.6973 Z " fill="#000000"/><text fill="#000000" font-family="sans-serif" font-size="14" font-style="italic" lengthAdjust="spacing" textLength="57" x="391.75" y="925.4316">Question</text><line style="stroke:#181818;stroke-width:0.5;" x1="214.5" x2="593.5" y1="935.6348" y2="935.6348"/><text fill="#000000" font-family="sans-serif" font-size="14" lengthAdjust="spacing" textLength="104" x="219.5" y="954.7422">-question: String</text><text fill="#000000" font-family="sans-serif" font-size="14" lengthAdjust="spacing" textLength="99" x="219.5" y="973.3633">-quotation: float</text><text fill="#000000" font-family="sans-serif" font-size="14" lengthAdjust="spacing" textLength="86" x="219.5" y="991.9844">-penalty: float</text><line style="stroke:#181818;stroke-width:0.5;" x1="214.5" x2="593.5" y1="999.498" y2="999.498"/><text fill="#000000" font-family="sans-serif" font-size="14" lengthAdjust="spacing" textLength="369" x="219.5" y="1018.6055">+updateQuestion(newQuestionData) : Optional&lt;Question&gt;</text></g><!--class QuestionType--><g id="elem_QuestionType"><rect codeLine="48" fill="#F1F1F1" height="85.2422" id="QuestionType" rx="2.5" ry="2.5" style="stroke:#181818;stroke-width:0.5;" width="344" x="665" y="922.1348"/><ellipse cx="788.25" cy="938.1348" fill="#EB937F" rx="11" ry="11" style="stroke:#181818;stroke-width:1.0;"/><path d="M787.1094,938.9316 L787.1094,941.4316 L791.4375,941.4316 L791.4375,940.5098 Q791.4375,939.9004 791.6719,939.6348 Q791.9219,939.3691 792.2969,939.3691 Q792.6719,939.3691 792.9063,939.6348 Q793.1406,939.9004 793.1406,940.5098 L793.1406,943.1348 L785.1406,943.1348 Q784.5156,943.1348 784.25,942.9004 Q784,942.666 784,942.2754 Q784,941.9004 784.2656,941.666 Q784.5313,941.4316 785.1406,941.4316 L785.4063,941.4316 L785.4063,934.7754 L785.1406,934.7754 Q784.5156,934.7754 784.25,934.541 Q784,934.3066 784,933.916 Q784,933.541 784.25,933.3066 Q784.5156,933.0723 785.1406,933.0723 L792.7656,933.0723 L792.7656,935.666 Q792.7656,936.2754 792.5313,936.541 Q792.3125,936.791 791.9219,936.791 Q791.5469,936.791 791.3125,936.541 Q791.0781,936.2754 791.0781,935.666 L791.0781,934.7754 L787.1094,934.7754 L787.1094,937.2285 L788.5938,937.2285 Q788.5938,936.5723 788.7188,936.3848 Q788.9844,935.9785 789.4531,935.9785 Q789.8281,935.9785 790.0625,936.2441 Q790.2969,936.4941 790.2969,937.1035 L790.2969,939.0723 Q790.2969,939.6191 790.1719,939.8066 Q789.9063,940.1973 789.4531,940.1973 Q788.9844,940.1973 788.7188,939.791 Q788.5938,939.6035 788.5938,938.9316 L787.1094,938.9316 Z " fill="#000000"/><text fill="#000000" font-family="sans-serif" font-size="14" lengthAdjust="spacing" textLength="89" x="808.75" y="943.9316">QuestionType</text><line style="stroke:#181818;stroke-width:0.5;" x1="666" x2="1008" y1="954.1348" y2="954.1348"/><text fill="#000000" font-family="sans-serif" font-size="14" lengthAdjust="spacing" textLength="332" x="671" y="973.2422">MATCHING, MULTIPLE_CHOICE, SHORT_ANSWER,</text><text fill="#000000" font-family="sans-serif" font-size="14" lengthAdjust="spacing" textLength="267" x="675" y="991.8633">NUMERICAL, MISSING_WORD, BOOLEAN</text><line style="stroke:#181818;stroke-width:0.5;" x1="666" x2="1008" y1="999.377" y2="999.377"/></g><!--class MatchingQuestion--><g id="elem_MatchingQuestion"><rect codeLine="54" fill="#F1F1F1" height="85.2422" id="MatchingQuestion" rx="2.5" ry="2.5" style="stroke:#181818;stroke-width:0.5;" width="181" x="46.5" y="1086.6348"/><ellipse cx="77.25" cy="1102.6348" fill="#ADD1B2" rx="11" ry="11" style="stroke:#181818;stroke-width:1.0;"/><path d="M80.0156,1098.5098 Q80.1719,1098.291 80.3594,1098.1816 Q80.5469,1098.0723 80.7656,1098.0723 Q81.1406,1098.0723 81.375,1098.3379 Q81.6094,1098.5879 81.6094,1099.1973 L81.6094,1100.6504 Q81.6094,1101.2598 81.375,1101.5254 Q81.1406,1101.791 80.7656,1101.791 Q80.4219,1101.791 80.2188,1101.5879 Q80.0156,1101.4004 79.9063,1100.8848 Q79.8594,1100.5254 79.6719,1100.3379 Q79.3438,1099.9629 78.7344,1099.7441 Q78.125,1099.5254 77.5,1099.5254 Q76.7344,1099.5254 76.0938,1099.8535 Q75.4688,1100.1816 74.9688,1100.9316 Q74.4844,1101.6816 74.4844,1102.7129 L74.4844,1103.8066 Q74.4844,1105.041 75.375,1105.8691 Q76.2656,1106.6816 77.8594,1106.6816 Q78.7969,1106.6816 79.4531,1106.4316 Q79.8438,1106.2754 80.2656,1105.8379 Q80.5313,1105.5723 80.6719,1105.4941 Q80.8281,1105.416 81.0313,1105.416 Q81.3594,1105.416 81.6094,1105.6816 Q81.875,1105.9316 81.875,1106.2754 Q81.875,1106.6191 81.5313,1107.0254 Q81.0313,1107.6035 80.2344,1107.9316 Q79.1563,1108.3848 77.8594,1108.3848 Q76.3438,1108.3848 75.1406,1107.7598 Q74.1563,1107.2598 73.4688,1106.1973 Q72.7813,1105.1191 72.7813,1103.8379 L72.7813,1102.6816 Q72.7813,1101.3535 73.3906,1100.2129 Q74.0156,1099.0566 75.1094,1098.4473 Q76.2031,1097.8223 77.4375,1097.8223 Q78.1719,1097.8223 78.8125,1097.9941 Q79.4688,1098.1504 80.0156,1098.5098 Z " fill="#000000"/><text fill="#000000" font-family="sans-serif" font-size="14" lengthAdjust="spacing" textLength="114" x="94.75" y="1108.4316">MatchingQuestion</text><line style="stroke:#181818;stroke-width:0.5;" x1="47.5" x2="226.5" y1="1118.6348" y2="1118.6348"/><text fill="#000000" font-family="sans-serif" font-size="14" lengthAdjust="spacing" textLength="160" x="52.5" y="1137.7422">-leftOptions : List&lt;String&gt;</text><text fill="#000000" font-family="sans-serif" font-size="14" lengthAdjust="spacing" textLength="169" x="52.5" y="1156.3633">-rightOptions : List&lt;String&gt;</text><line style="stroke:#181818;stroke-width:0.5;" x1="47.5" x2="226.5" y1="1163.877" y2="1163.877"/></g><!--class MultipleChoiceQuestion--><g id="elem_MultipleChoiceQuestion"><rect codeLine="58" fill="#F1F1F1" height="85.2422" id="MultipleChoiceQuestion" rx="2.5" ry="2.5" style="stroke:#181818;stroke-width:0.5;" width="181" x="262.5" y="1086.6348"/><ellipse cx="277.5" cy="1102.6348" fill="#ADD1B2" rx="11" ry="11" style="stroke:#181818;stroke-width:1.0;"/><path d="M280.2656,1098.5098 Q280.4219,1098.291 280.6094,1098.1816 Q280.7969,1098.0723 281.0156,1098.0723 Q281.3906,1098.0723 281.625,1098.3379 Q281.8594,1098.5879 281.8594,1099.1973 L281.8594,1100.6504 Q281.8594,1101.2598 281.625,1101.5254 Q281.3906,1101.791 281.0156,1101.791 Q280.6719,1101.791 280.4688,1101.5879 Q280.2656,1101.4004 280.1563,1100.8848 Q280.1094,1100.5254 279.9219,1100.3379 Q279.5938,1099.9629 278.9844,1099.7441 Q278.375,1099.5254 277.75,1099.5254 Q276.9844,1099.5254 276.3438,1099.8535 Q275.7188,1100.1816 275.2188,1100.9316 Q274.7344,1101.6816 274.7344,1102.7129 L274.7344,1103.8066 Q274.7344,1105.041 275.625,1105.8691 Q276.5156,1106.6816 278.1094,1106.6816 Q279.0469,1106.6816 279.7031,1106.4316 Q280.0938,1106.2754 280.5156,1105.8379 Q280.7813,1105.5723 280.9219,1105.4941 Q281.0781,1105.416 281.2813,1105.416 Q281.6094,1105.416 281.8594,1105.6816 Q282.125,1105.9316 282.125,1106.2754 Q282.125,1106.6191 281.7813,1107.0254 Q281.2813,1107.6035 280.4844,1107.9316 Q279.4063,1108.3848 278.1094,1108.3848 Q276.5938,1108.3848 275.3906,1107.7598 Q274.4063,1107.2598 273.7188,1106.1973 Q273.0313,1105.1191 273.0313,1103.8379 L273.0313,1102.6816 Q273.0313,1101.3535 273.6406,1100.2129 Q274.2656,1099.0566 275.3594,1098.4473 Q276.4531,1097.8223 277.6875,1097.8223 Q278.4219,1097.8223 279.0625,1097.9941 Q279.7188,1098.1504 280.2656,1098.5098 Z " fill="#000000"/><text fill="#000000" font-family="sans-serif" font-size="14" lengthAdjust="spacing" textLength="149" x="291.5" y="1108.4316">MultipleChoiceQuestion</text><line style="stroke:#181818;stroke-width:0.5;" x1="263.5" x2="442.5" y1="1118.6348" y2="1118.6348"/><text fill="#000000" font-family="sans-serif" font-size="14" lengthAdjust="spacing" textLength="138" x="268.5" y="1137.7422">-options : List&lt;String&gt;</text><text fill="#000000" font-family="sans-serif" font-size="14" lengthAdjust="spacing" textLength="140" x="268.5" y="1156.3633">-correctOption : String</text><line style="stroke:#181818;stroke-width:0.5;" x1="263.5" x2="442.5" y1="1163.877" y2="1163.877"/></g><!--class ShortAnswerQuestion--><g id="elem_ShortAnswerQuestion"><rect codeLine="62" fill="#F1F1F1" height="66.6211" id="ShortAnswerQuestion" rx="2.5" ry="2.5" style="stroke:#181818;stroke-width:0.5;" width="169" x="478.5" y="1095.6348"/><ellipse cx="493.5" cy="1111.6348" fill="#ADD1B2" rx="11" ry="11" style="stroke:#181818;stroke-width:1.0;"/><path d="M496.2656,1107.5098 Q496.4219,1107.291 496.6094,1107.1816 Q496.7969,1107.0723 497.0156,1107.0723 Q497.3906,1107.0723 497.625,1107.3379 Q497.8594,1107.5879 497.8594,1108.1973 L497.8594,1109.6504 Q497.8594,1110.2598 497.625,1110.5254 Q497.3906,1110.791 497.0156,1110.791 Q496.6719,1110.791 496.4688,1110.5879 Q496.2656,1110.4004 496.1563,1109.8848 Q496.1094,1109.5254 495.9219,1109.3379 Q495.5938,1108.9629 494.9844,1108.7441 Q494.375,1108.5254 493.75,1108.5254 Q492.9844,1108.5254 492.3438,1108.8535 Q491.7188,1109.1816 491.2188,1109.9316 Q490.7344,1110.6816 490.7344,1111.7129 L490.7344,1112.8066 Q490.7344,1114.041 491.625,1114.8691 Q492.5156,1115.6816 494.1094,1115.6816 Q495.0469,1115.6816 495.7031,1115.4316 Q496.0938,1115.2754 496.5156,1114.8379 Q496.7813,1114.5723 496.9219,1114.4941 Q497.0781,1114.416 497.2813,1114.416 Q497.6094,1114.416 497.8594,1114.6816 Q498.125,1114.9316 498.125,1115.2754 Q498.125,1115.6191 497.7813,1116.0254 Q497.2813,1116.6035 496.4844,1116.9316 Q495.4063,1117.3848 494.1094,1117.3848 Q492.5938,1117.3848 491.3906,1116.7598 Q490.4063,1116.2598 489.7188,1115.1973 Q489.0313,1114.1191 489.0313,1112.8379 L489.0313,1111.6816 Q489.0313,1110.3535 489.6406,1109.2129 Q490.2656,1108.0566 491.3594,1107.4473 Q492.4531,1106.8223 493.6875,1106.8223 Q494.4219,1106.8223 495.0625,1106.9941 Q495.7188,1107.1504 496.2656,1107.5098 Z " fill="#000000"/><text fill="#000000" font-family="sans-serif" font-size="14" lengthAdjust="spacing" textLength="137" x="507.5" y="1117.4316">ShortAnswerQuestion</text><line style="stroke:#181818;stroke-width:0.5;" x1="479.5" x2="646.5" y1="1127.6348" y2="1127.6348"/><text fill="#000000" font-family="sans-serif" font-size="14" lengthAdjust="spacing" textLength="144" x="484.5" y="1146.7422">-correctAnswer : String</text><line style="stroke:#181818;stroke-width:0.5;" x1="479.5" x2="646.5" y1="1154.2559" y2="1154.2559"/></g><!--class NumericalQuestion--><g id="elem_NumericalQuestion"><rect codeLine="65" fill="#F1F1F1" height="66.6211" id="NumericalQuestion" rx="2.5" ry="2.5" style="stroke:#181818;stroke-width:0.5;" width="151" x="682.5" y="1095.6348"/><ellipse cx="697.5" cy="1111.6348" fill="#ADD1B2" rx="11" ry="11" style="stroke:#181818;stroke-width:1.0;"/><path d="M700.2656,1107.5098 Q700.4219,1107.291 700.6094,1107.1816 Q700.7969,1107.0723 701.0156,1107.0723 Q701.3906,1107.0723 701.625,1107.3379 Q701.8594,1107.5879 701.8594,1108.1973 L701.8594,1109.6504 Q701.8594,1110.2598 701.625,1110.5254 Q701.3906,1110.791 701.0156,1110.791 Q700.6719,1110.791 700.4688,1110.5879 Q700.2656,1110.4004 700.1563,1109.8848 Q700.1094,1109.5254 699.9219,1109.3379 Q699.5938,1108.9629 698.9844,1108.7441 Q698.375,1108.5254 697.75,1108.5254 Q696.9844,1108.5254 696.3438,1108.8535 Q695.7188,1109.1816 695.2188,1109.9316 Q694.7344,1110.6816 694.7344,1111.7129 L694.7344,1112.8066 Q694.7344,1114.041 695.625,1114.8691 Q696.5156,1115.6816 698.1094,1115.6816 Q699.0469,1115.6816 699.7031,1115.4316 Q700.0938,1115.2754 700.5156,1114.8379 Q700.7813,1114.5723 700.9219,1114.4941 Q701.0781,1114.416 701.2813,1114.416 Q701.6094,1114.416 701.8594,1114.6816 Q702.125,1114.9316 702.125,1115.2754 Q702.125,1115.6191 701.7813,1116.0254 Q701.2813,1116.6035 700.4844,1116.9316 Q699.4063,1117.3848 698.1094,1117.3848 Q696.5938,1117.3848 695.3906,1116.7598 Q694.4063,1116.2598 693.7188,1115.1973 Q693.0313,1114.1191 693.0313,1112.8379 L693.0313,1111.6816 Q693.0313,1110.3535 693.6406,1109.2129 Q694.2656,1108.0566 695.3594,1107.4473 Q696.4531,1106.8223 697.6875,1106.8223 Q698.4219,1106.8223 699.0625,1106.9941 Q699.7188,1107.1504 700.2656,1107.5098 Z " fill="#000000"/><text fill="#000000" font-family="sans-serif" font-size="14" lengthAdjust="spacing" textLength="119" x="711.5" y="1117.4316">NumericalQuestion</text><line style="stroke:#181818;stroke-width:0.5;" x1="683.5" x2="832.5" y1="1127.6348" y2="1127.6348"/><text fill="#000000" font-family="sans-serif" font-size="14" lengthAdjust="spacing" textLength="134" x="688.5" y="1146.7422">-correctAnswer : float</text><line style="stroke:#181818;stroke-width:0.5;" x1="683.5" x2="832.5" y1="1154.2559" y2="1154.2559"/></g><!--class MissingWordQuestion--><g id="elem_MissingWordQuestion"><rect codeLine="68" fill="#F1F1F1" height="48" id="MissingWordQuestion" rx="2.5" ry="2.5" style="stroke:#181818;stroke-width:0.5;" width="170" x="869" y="1105.1348"/><ellipse cx="884" cy="1121.1348" fill="#ADD1B2" rx="11" ry="11" style="stroke:#181818;stroke-width:1.0;"/><path d="M886.7656,1117.0098 Q886.9219,1116.791 887.1094,1116.6816 Q887.2969,1116.5723 887.5156,1116.5723 Q887.8906,1116.5723 888.125,1116.8379 Q888.3594,1117.0879 888.3594,1117.6973 L888.3594,1119.1504 Q888.3594,1119.7598 888.125,1120.0254 Q887.8906,1120.291 887.5156,1120.291 Q887.1719,1120.291 886.9688,1120.0879 Q886.7656,1119.9004 886.6563,1119.3848 Q886.6094,1119.0254 886.4219,1118.8379 Q886.0938,1118.4629 885.4844,1118.2441 Q884.875,1118.0254 884.25,1118.0254 Q883.4844,1118.0254 882.8438,1118.3535 Q882.2188,1118.6816 881.7188,1119.4316 Q881.2344,1120.1816 881.2344,1121.2129 L881.2344,1122.3066 Q881.2344,1123.541 882.125,1124.3691 Q883.0156,1125.1816 884.6094,1125.1816 Q885.5469,1125.1816 886.2031,1124.9316 Q886.5938,1124.7754 887.0156,1124.3379 Q887.2813,1124.0723 887.4219,1123.9941 Q887.5781,1123.916 887.7813,1123.916 Q888.1094,1123.916 888.3594,1124.1816 Q888.625,1124.4316 888.625,1124.7754 Q888.625,1125.1191 888.2813,1125.5254 Q887.7813,1126.1035 886.9844,1126.4316 Q885.9063,1126.8848 884.6094,1126.8848 Q883.0938,1126.8848 881.8906,1126.2598 Q880.9063,1125.7598 880.2188,1124.6973 Q879.5313,1123.6191 879.5313,1122.3379 L879.5313,1121.1816 Q879.5313,1119.8535 880.1406,1118.7129 Q880.7656,1117.5566 881.8594,1116.9473 Q882.9531,1116.3223 884.1875,1116.3223 Q884.9219,1116.3223 885.5625,1116.4941 Q886.2188,1116.6504 886.7656,1117.0098 Z " fill="#000000"/><text fill="#000000" font-family="sans-serif" font-size="14" lengthAdjust="spacing" textLength="138" x="898" y="1126.9316">MissingWordQuestion</text><line style="stroke:#181818;stroke-width:0.5;" x1="870" x2="1038" y1="1137.1348" y2="1137.1348"/><line style="stroke:#181818;stroke-width:0.5;" x1="870" x2="1038" y1="1145.1348" y2="1145.1348"/></g><!--class MissingWordOption--><g id="elem_MissingWordOption"><rect codeLine="69" fill="#F1F1F1" height="85.2422" id="MissingWordOption" rx="2.5" ry="2.5" style="stroke:#181818;stroke-width:0.5;" width="196" x="856" y="1250.6348"/><ellipse cx="889.45" cy="1266.6348" fill="#ADD1B2" rx="11" ry="11" style="stroke:#181818;stroke-width:1.0;"/><path d="M892.2156,1262.5098 Q892.3719,1262.291 892.5594,1262.1816 Q892.7469,1262.0723 892.9656,1262.0723 Q893.3406,1262.0723 893.575,1262.3379 Q893.8094,1262.5879 893.8094,1263.1973 L893.8094,1264.6504 Q893.8094,1265.2598 893.575,1265.5254 Q893.3406,1265.791 892.9656,1265.791 Q892.6219,1265.791 892.4188,1265.5879 Q892.2156,1265.4004 892.1063,1264.8848 Q892.0594,1264.5254 891.8719,1264.3379 Q891.5438,1263.9629 890.9344,1263.7441 Q890.325,1263.5254 889.7,1263.5254 Q888.9344,1263.5254 888.2938,1263.8535 Q887.6688,1264.1816 887.1688,1264.9316 Q886.6844,1265.6816 886.6844,1266.7129 L886.6844,1267.8066 Q886.6844,1269.041 887.575,1269.8691 Q888.4656,1270.6816 890.0594,1270.6816 Q890.9969,1270.6816 891.6531,1270.4316 Q892.0438,1270.2754 892.4656,1269.8379 Q892.7313,1269.5723 892.8719,1269.4941 Q893.0281,1269.416 893.2313,1269.416 Q893.5594,1269.416 893.8094,1269.6816 Q894.075,1269.9316 894.075,1270.2754 Q894.075,1270.6191 893.7313,1271.0254 Q893.2313,1271.6035 892.4344,1271.9316 Q891.3563,1272.3848 890.0594,1272.3848 Q888.5438,1272.3848 887.3406,1271.7598 Q886.3563,1271.2598 885.6688,1270.1973 Q884.9813,1269.1191 884.9813,1267.8379 L884.9813,1266.6816 Q884.9813,1265.3535 885.5906,1264.2129 Q886.2156,1263.0566 887.3094,1262.4473 Q888.4031,1261.8223 889.6375,1261.8223 Q890.3719,1261.8223 891.0125,1261.9941 Q891.6688,1262.1504 892.2156,1262.5098 Z " fill="#000000"/><text fill="#000000" font-family="sans-serif" font-size="14" lengthAdjust="spacing" textLength="123" x="907.55" y="1272.4316">MissingWordOption</text><line style="stroke:#181818;stroke-width:0.5;" x1="857" x2="1051" y1="1282.6348" y2="1282.6348"/><text fill="#000000" font-family="sans-serif" font-size="14" lengthAdjust="spacing" textLength="99" x="862" y="1301.7422">-answer : String</text><text fill="#000000" font-family="sans-serif" font-size="14" lengthAdjust="spacing" textLength="184" x="862" y="1320.3633">-optionAnswers : List&lt;String&gt;</text><line style="stroke:#181818;stroke-width:0.5;" x1="857" x2="1051" y1="1327.877" y2="1327.877"/></g><!--class BooleanQuestion--><g id="elem_BooleanQuestion"><rect codeLine="73" fill="#F1F1F1" height="66.6211" id="BooleanQuestion" rx="2.5" ry="2.5" style="stroke:#181818;stroke-width:0.5;" width="170" x="1074" y="1095.6348"/><ellipse cx="1102.05" cy="1111.6348" fill="#ADD1B2" rx="11" ry="11" style="stroke:#181818;stroke-width:1.0;"/><path d="M1104.8156,1107.5098 Q1104.9719,1107.291 1105.1594,1107.1816 Q1105.3469,1107.0723 1105.5656,1107.0723 Q1105.9406,1107.0723 1106.175,1107.3379 Q1106.4094,1107.5879 1106.4094,1108.1973 L1106.4094,1109.6504 Q1106.4094,1110.2598 1106.175,1110.5254 Q1105.9406,1110.791 1105.5656,1110.791 Q1105.2219,1110.791 1105.0188,1110.5879 Q1104.8156,1110.4004 1104.7063,1109.8848 Q1104.6594,1109.5254 1104.4719,1109.3379 Q1104.1438,1108.9629 1103.5344,1108.7441 Q1102.925,1108.5254 1102.3,1108.5254 Q1101.5344,1108.5254 1100.8938,1108.8535 Q1100.2688,1109.1816 1099.7688,1109.9316 Q1099.2844,1110.6816 1099.2844,1111.7129 L1099.2844,1112.8066 Q1099.2844,1114.041 1100.175,1114.8691 Q1101.0656,1115.6816 1102.6594,1115.6816 Q1103.5969,1115.6816 1104.2531,1115.4316 Q1104.6438,1115.2754 1105.0656,1114.8379 Q1105.3313,1114.5723 1105.4719,1114.4941 Q1105.6281,1114.416 1105.8313,1114.416 Q1106.1594,1114.416 1106.4094,1114.6816 Q1106.675,1114.9316 1106.675,1115.2754 Q1106.675,1115.6191 1106.3313,1116.0254 Q1105.8313,1116.6035 1105.0344,1116.9316 Q1103.9563,1117.3848 1102.6594,1117.3848 Q1101.1438,1117.3848 1099.9406,1116.7598 Q1098.9563,1116.2598 1098.2688,1115.1973 Q1097.5813,1114.1191 1097.5813,1112.8379 L1097.5813,1111.6816 Q1097.5813,1110.3535 1098.1906,1109.2129 Q1098.8156,1108.0566 1099.9094,1107.4473 Q1101.0031,1106.8223 1102.2375,1106.8223 Q1102.9719,1106.8223 1103.6125,1106.9941 Q1104.2688,1107.1504 1104.8156,1107.5098 Z " fill="#000000"/><text fill="#000000" font-family="sans-serif" font-size="14" lengthAdjust="spacing" textLength="109" x="1118.95" y="1117.4316">BooleanQuestion</text><line style="stroke:#181818;stroke-width:0.5;" x1="1075" x2="1243" y1="1127.6348" y2="1127.6348"/><text fill="#000000" font-family="sans-serif" font-size="14" lengthAdjust="spacing" textLength="158" x="1080" y="1146.7422">-correctAnswer : boolean</text><line style="stroke:#181818;stroke-width:0.5;" x1="1075" x2="1243" y1="1154.2559" y2="1154.2559"/></g><!--class QuestionRepository--><g id="elem_QuestionRepository"><rect codeLine="91" fill="#F1F1F1" height="85.2422" id="QuestionRepository" rx="2.5" ry="2.5" style="stroke:#181818;stroke-width:0.5;" width="324" x="1433" y="702.1348"/><ellipse cx="1528.25" cy="718.1348" fill="#B4A7E5" rx="11" ry="11" style="stroke:#181818;stroke-width:1.0;"/><path d="M1529.2031,714.7754 L1529.2031,721.4316 L1530.9219,721.4316 Q1531.5313,721.4316 1531.7969,721.666 Q1532.0625,721.9004 1532.0625,722.291 Q1532.0625,722.666 1531.7969,722.9004 Q1531.5313,723.1348 1530.9219,723.1348 L1525.7813,723.1348 Q1525.1719,723.1348 1524.9063,722.9004 Q1524.6406,722.666 1524.6406,722.2754 Q1524.6406,721.9004 1524.9063,721.666 Q1525.1719,721.4316 1525.7813,721.4316 L1527.5,721.4316 L1527.5,714.7754 L1525.7813,714.7754 Q1525.1719,714.7754 1524.9063,714.541 Q1524.6406,714.3066 1524.6406,713.916 Q1524.6406,713.541 1524.9063,713.3066 Q1525.1719,713.0723 1525.7813,713.0723 L1530.9219,713.0723 Q1531.5313,713.0723 1531.7969,713.3066 Q1532.0625,713.541 1532.0625,713.916 Q1532.0625,714.3066 1531.7969,714.541 Q1531.5313,714.7754 1530.9219,714.7754 L1529.2031,714.7754 Z " fill="#000000"/><text fill="#000000" font-family="sans-serif" font-size="14" font-style="italic" lengthAdjust="spacing" textLength="125" x="1548.75" y="723.9316">QuestionRepository</text><line style="stroke:#181818;stroke-width:0.5;" x1="1434" x2="1756" y1="734.1348" y2="734.1348"/><line style="stroke:#181818;stroke-width:0.5;" x1="1434" x2="1756" y1="742.1348" y2="742.1348"/><text fill="#000000" font-family="sans-serif" font-size="14" lengthAdjust="spacing" textLength="240" x="1439" y="761.2422">+save(question) : Optional&lt;Question&gt;</text><text fill="#000000" font-family="sans-serif" font-size="14" lengthAdjust="spacing" textLength="312" x="1439" y="779.8633">+findQuestionsByType(type) : Iterable&lt;Question&gt;</text></g><!--class AddOrUpdateQuestionUI--><g id="elem_AddOrUpdateQuestionUI"><rect codeLine="103" fill="#F1F1F1" height="48" id="AddOrUpdateQuestionUI" rx="2.5" ry="2.5" style="stroke:#181818;stroke-width:0.5;" width="187" x="1656.5" y="82.6348"/><ellipse cx="1671.5" cy="98.6348" fill="#ADD1B2" rx="11" ry="11" style="stroke:#181818;stroke-width:1.0;"/><path d="M1674.2656,94.5098 Q1674.4219,94.291 1674.6094,94.1816 Q1674.7969,94.0723 1675.0156,94.0723 Q1675.3906,94.0723 1675.625,94.3379 Q1675.8594,94.5879 1675.8594,95.1973 L1675.8594,96.6504 Q1675.8594,97.2598 1675.625,97.5254 Q1675.3906,97.791 1675.0156,97.791 Q1674.6719,97.791 1674.4688,97.5879 Q1674.2656,97.4004 1674.1563,96.8848 Q1674.1094,96.5254 1673.9219,96.3379 Q1673.5938,95.9629 1672.9844,95.7441 Q1672.375,95.5254 1671.75,95.5254 Q1670.9844,95.5254 1670.3438,95.8535 Q1669.7188,96.1816 1669.2188,96.9316 Q1668.7344,97.6816 1668.7344,98.7129 L1668.7344,99.8066 Q1668.7344,101.041 1669.625,101.8691 Q1670.5156,102.6816 1672.1094,102.6816 Q1673.0469,102.6816 1673.7031,102.4316 Q1674.0938,102.2754 1674.5156,101.8379 Q1674.7813,101.5723 1674.9219,101.4941 Q1675.0781,101.416 1675.2813,101.416 Q1675.6094,101.416 1675.8594,101.6816 Q1676.125,101.9316 1676.125,102.2754 Q1676.125,102.6191 1675.7813,103.0254 Q1675.2813,103.6035 1674.4844,103.9316 Q1673.4063,104.3848 1672.1094,104.3848 Q1670.5938,104.3848 1669.3906,103.7598 Q1668.4063,103.2598 1667.7188,102.1973 Q1667.0313,101.1191 1667.0313,99.8379 L1667.0313,98.6816 Q1667.0313,97.3535 1667.6406,96.2129 Q1668.2656,95.0566 1669.3594,94.4473 Q1670.4531,93.8223 1671.6875,93.8223 Q1672.4219,93.8223 1673.0625,93.9941 Q1673.7188,94.1504 1674.2656,94.5098 Z " fill="#000000"/><text fill="#000000" font-family="sans-serif" font-size="14" lengthAdjust="spacing" textLength="155" x="1685.5" y="104.4316">AddOrUpdateQuestionUI</text><line style="stroke:#181818;stroke-width:0.5;" x1="1657.5" x2="1842.5" y1="114.6348" y2="114.6348"/><line style="stroke:#181818;stroke-width:0.5;" x1="1657.5" x2="1842.5" y1="122.6348" y2="122.6348"/></g><!--class AddQuestionUI--><g id="elem_AddQuestionUI"><rect codeLine="104" fill="#F1F1F1" height="48" id="AddQuestionUI" rx="2.5" ry="2.5" style="stroke:#181818;stroke-width:0.5;" width="126" x="1606" y="191.6348"/><ellipse cx="1621" cy="207.6348" fill="#ADD1B2" rx="11" ry="11" style="stroke:#181818;stroke-width:1.0;"/><path d="M1623.7656,203.5098 Q1623.9219,203.291 1624.1094,203.1816 Q1624.2969,203.0723 1624.5156,203.0723 Q1624.8906,203.0723 1625.125,203.3379 Q1625.3594,203.5879 1625.3594,204.1973 L1625.3594,205.6504 Q1625.3594,206.2598 1625.125,206.5254 Q1624.8906,206.791 1624.5156,206.791 Q1624.1719,206.791 1623.9688,206.5879 Q1623.7656,206.4004 1623.6563,205.8848 Q1623.6094,205.5254 1623.4219,205.3379 Q1623.0938,204.9629 1622.4844,204.7441 Q1621.875,204.5254 1621.25,204.5254 Q1620.4844,204.5254 1619.8438,204.8535 Q1619.2188,205.1816 1618.7188,205.9316 Q1618.2344,206.6816 1618.2344,207.7129 L1618.2344,208.8066 Q1618.2344,210.041 1619.125,210.8691 Q1620.0156,211.6816 1621.6094,211.6816 Q1622.5469,211.6816 1623.2031,211.4316 Q1623.5938,211.2754 1624.0156,210.8379 Q1624.2813,210.5723 1624.4219,210.4941 Q1624.5781,210.416 1624.7813,210.416 Q1625.1094,210.416 1625.3594,210.6816 Q1625.625,210.9316 1625.625,211.2754 Q1625.625,211.6191 1625.2813,212.0254 Q1624.7813,212.6035 1623.9844,212.9316 Q1622.9063,213.3848 1621.6094,213.3848 Q1620.0938,213.3848 1618.8906,212.7598 Q1617.9063,212.2598 1617.2188,211.1973 Q1616.5313,210.1191 1616.5313,208.8379 L1616.5313,207.6816 Q1616.5313,206.3535 1617.1406,205.2129 Q1617.7656,204.0566 1618.8594,203.4473 Q1619.9531,202.8223 1621.1875,202.8223 Q1621.9219,202.8223 1622.5625,202.9941 Q1623.2188,203.1504 1623.7656,203.5098 Z " fill="#000000"/><text fill="#000000" font-family="sans-serif" font-size="14" lengthAdjust="spacing" textLength="94" x="1635" y="213.4316">AddQuestionUI</text><line style="stroke:#181818;stroke-width:0.5;" x1="1607" x2="1731" y1="223.6348" y2="223.6348"/><line style="stroke:#181818;stroke-width:0.5;" x1="1607" x2="1731" y1="231.6348" y2="231.6348"/></g><!--class UpdateQuestionUI--><g id="elem_UpdateQuestionUI"><rect codeLine="105" fill="#F1F1F1" height="48" id="UpdateQuestionUI" rx="2.5" ry="2.5" style="stroke:#181818;stroke-width:0.5;" width="146" x="1783" y="191.6348"/><ellipse cx="1798" cy="207.6348" fill="#ADD1B2" rx="11" ry="11" style="stroke:#181818;stroke-width:1.0;"/><path d="M1800.7656,203.5098 Q1800.9219,203.291 1801.1094,203.1816 Q1801.2969,203.0723 1801.5156,203.0723 Q1801.8906,203.0723 1802.125,203.3379 Q1802.3594,203.5879 1802.3594,204.1973 L1802.3594,205.6504 Q1802.3594,206.2598 1802.125,206.5254 Q1801.8906,206.791 1801.5156,206.791 Q1801.1719,206.791 1800.9688,206.5879 Q1800.7656,206.4004 1800.6563,205.8848 Q1800.6094,205.5254 1800.4219,205.3379 Q1800.0938,204.9629 1799.4844,204.7441 Q1798.875,204.5254 1798.25,204.5254 Q1797.4844,204.5254 1796.8438,204.8535 Q1796.2188,205.1816 1795.7188,205.9316 Q1795.2344,206.6816 1795.2344,207.7129 L1795.2344,208.8066 Q1795.2344,210.041 1796.125,210.8691 Q1797.0156,211.6816 1798.6094,211.6816 Q1799.5469,211.6816 1800.2031,211.4316 Q1800.5938,211.2754 1801.0156,210.8379 Q1801.2813,210.5723 1801.4219,210.4941 Q1801.5781,210.416 1801.7813,210.416 Q1802.1094,210.416 1802.3594,210.6816 Q1802.625,210.9316 1802.625,211.2754 Q1802.625,211.6191 1802.2813,212.0254 Q1801.7813,212.6035 1800.9844,212.9316 Q1799.9063,213.3848 1798.6094,213.3848 Q1797.0938,213.3848 1795.8906,212.7598 Q1794.9063,212.2598 1794.2188,211.1973 Q1793.5313,210.1191 1793.5313,208.8379 L1793.5313,207.6816 Q1793.5313,206.3535 1794.1406,205.2129 Q1794.7656,204.0566 1795.8594,203.4473 Q1796.9531,202.8223 1798.1875,202.8223 Q1798.9219,202.8223 1799.5625,202.9941 Q1800.2188,203.1504 1800.7656,203.5098 Z " fill="#000000"/><text fill="#000000" font-family="sans-serif" font-size="14" lengthAdjust="spacing" textLength="114" x="1812" y="213.4316">UpdateQuestionUI</text><line style="stroke:#181818;stroke-width:0.5;" x1="1784" x2="1928" y1="223.6348" y2="223.6348"/><line style="stroke:#181818;stroke-width:0.5;" x1="1784" x2="1928" y1="231.6348" y2="231.6348"/></g><!--class AddTypeQuestionUI--><g id="elem_AddTypeQuestionUI"><rect codeLine="106" fill="#F1F1F1" height="48" id="AddTypeQuestionUI" rx="2.5" ry="2.5" style="stroke:#181818;stroke-width:0.5;" width="158" x="1578" y="300.6348"/><ellipse cx="1593" cy="316.6348" fill="#ADD1B2" rx="11" ry="11" style="stroke:#181818;stroke-width:1.0;"/><path d="M1595.7656,312.5098 Q1595.9219,312.291 1596.1094,312.1816 Q1596.2969,312.0723 1596.5156,312.0723 Q1596.8906,312.0723 1597.125,312.3379 Q1597.3594,312.5879 1597.3594,313.1973 L1597.3594,314.6504 Q1597.3594,315.2598 1597.125,315.5254 Q1596.8906,315.791 1596.5156,315.791 Q1596.1719,315.791 1595.9688,315.5879 Q1595.7656,315.4004 1595.6563,314.8848 Q1595.6094,314.5254 1595.4219,314.3379 Q1595.0938,313.9629 1594.4844,313.7441 Q1593.875,313.5254 1593.25,313.5254 Q1592.4844,313.5254 1591.8438,313.8535 Q1591.2188,314.1816 1590.7188,314.9316 Q1590.2344,315.6816 1590.2344,316.7129 L1590.2344,317.8066 Q1590.2344,319.041 1591.125,319.8691 Q1592.0156,320.6816 1593.6094,320.6816 Q1594.5469,320.6816 1595.2031,320.4316 Q1595.5938,320.2754 1596.0156,319.8379 Q1596.2813,319.5723 1596.4219,319.4941 Q1596.5781,319.416 1596.7813,319.416 Q1597.1094,319.416 1597.3594,319.6816 Q1597.625,319.9316 1597.625,320.2754 Q1597.625,320.6191 1597.2813,321.0254 Q1596.7813,321.6035 1595.9844,321.9316 Q1594.9063,322.3848 1593.6094,322.3848 Q1592.0938,322.3848 1590.8906,321.7598 Q1589.9063,321.2598 1589.2188,320.1973 Q1588.5313,319.1191 1588.5313,317.8379 L1588.5313,316.6816 Q1588.5313,315.3535 1589.1406,314.2129 Q1589.7656,313.0566 1590.8594,312.4473 Q1591.9531,311.8223 1593.1875,311.8223 Q1593.9219,311.8223 1594.5625,311.9941 Q1595.2188,312.1504 1595.7656,312.5098 Z " fill="#000000"/><text fill="#000000" font-family="sans-serif" font-size="14" lengthAdjust="spacing" textLength="126" x="1607" y="322.4316">AddTypeQuestionUI</text><line style="stroke:#181818;stroke-width:0.5;" x1="1579" x2="1735" y1="332.6348" y2="332.6348"/><line style="stroke:#181818;stroke-width:0.5;" x1="1579" x2="1735" y1="340.6348" y2="340.6348"/></g><!--class UpdateTypeQuestionUI--><g id="elem_UpdateTypeQuestionUI"><rect codeLine="107" fill="#F1F1F1" height="48" id="UpdateTypeQuestionUI" rx="2.5" ry="2.5" style="stroke:#181818;stroke-width:0.5;" width="178" x="1771" y="300.6348"/><ellipse cx="1786" cy="316.6348" fill="#ADD1B2" rx="11" ry="11" style="stroke:#181818;stroke-width:1.0;"/><path d="M1788.7656,312.5098 Q1788.9219,312.291 1789.1094,312.1816 Q1789.2969,312.0723 1789.5156,312.0723 Q1789.8906,312.0723 1790.125,312.3379 Q1790.3594,312.5879 1790.3594,313.1973 L1790.3594,314.6504 Q1790.3594,315.2598 1790.125,315.5254 Q1789.8906,315.791 1789.5156,315.791 Q1789.1719,315.791 1788.9688,315.5879 Q1788.7656,315.4004 1788.6563,314.8848 Q1788.6094,314.5254 1788.4219,314.3379 Q1788.0938,313.9629 1787.4844,313.7441 Q1786.875,313.5254 1786.25,313.5254 Q1785.4844,313.5254 1784.8438,313.8535 Q1784.2188,314.1816 1783.7188,314.9316 Q1783.2344,315.6816 1783.2344,316.7129 L1783.2344,317.8066 Q1783.2344,319.041 1784.125,319.8691 Q1785.0156,320.6816 1786.6094,320.6816 Q1787.5469,320.6816 1788.2031,320.4316 Q1788.5938,320.2754 1789.0156,319.8379 Q1789.2813,319.5723 1789.4219,319.4941 Q1789.5781,319.416 1789.7813,319.416 Q1790.1094,319.416 1790.3594,319.6816 Q1790.625,319.9316 1790.625,320.2754 Q1790.625,320.6191 1790.2813,321.0254 Q1789.7813,321.6035 1788.9844,321.9316 Q1787.9063,322.3848 1786.6094,322.3848 Q1785.0938,322.3848 1783.8906,321.7598 Q1782.9063,321.2598 1782.2188,320.1973 Q1781.5313,319.1191 1781.5313,317.8379 L1781.5313,316.6816 Q1781.5313,315.3535 1782.1406,314.2129 Q1782.7656,313.0566 1783.8594,312.4473 Q1784.9531,311.8223 1786.1875,311.8223 Q1786.9219,311.8223 1787.5625,311.9941 Q1788.2188,312.1504 1788.7656,312.5098 Z " fill="#000000"/><text fill="#000000" font-family="sans-serif" font-size="14" lengthAdjust="spacing" textLength="146" x="1800" y="322.4316">UpdateTypeQuestionUI</text><line style="stroke:#181818;stroke-width:0.5;" x1="1772" x2="1948" y1="332.6348" y2="332.6348"/><line style="stroke:#181818;stroke-width:0.5;" x1="1772" x2="1948" y1="340.6348" y2="340.6348"/></g><!--link Question to QuestionType--><g id="link_Question_QuestionType"><path codeLine="52" d="M594.55,964.6348 C617.92,964.6348 641.7,964.6348 664.78,964.6348 " fill="none" id="Question-QuestionType" style="stroke:#181818;stroke-width:1.0;"/><polygon fill="#000000" points="621.75,952.2803,612.7049,949.3413,612.7049,955.2192,621.75,952.2803" style="stroke:#000000;stroke-width:1.0;"/><text fill="#000000" font-family="sans-serif" font-size="13" lengthAdjust="spacing" textLength="21" x="625.75" y="957.6631">has</text><text fill="#000000" font-family="sans-serif" font-size="13" lengthAdjust="spacing" textLength="5" x="602.6943" y="961.3004">*</text><text fill="#000000" font-family="sans-serif" font-size="13" lengthAdjust="spacing" textLength="7" x="649.8177" y="961.279">1</text></g><!--reverse link Question to MatchingQuestion--><g id="link_Question_MatchingQuestion"><path codeLine="77" d="M287.95,1036.2648 C259.73,1053.4348 230.46,1071.2548 205.28,1086.5748 " fill="none" id="Question-backto-MatchingQuestion" style="stroke:#181818;stroke-width:1.0;"/><polygon fill="none" points="284.61,1030.1048,305.34,1025.6848,291.89,1042.0548,284.61,1030.1048" style="stroke:#181818;stroke-width:1.0;"/></g><!--reverse link Question to MultipleChoiceQuestion--><g id="link_Question_MultipleChoiceQuestion"><path codeLine="78" d="M379.07,1045.0548 C374.57,1059.4148 370.03,1073.8548 366.04,1086.5748 " fill="none" id="Question-backto-MultipleChoiceQuestion" style="stroke:#181818;stroke-width:1.0;"/><polygon fill="none" points="372.49,1042.6648,385.15,1025.6848,385.84,1046.8648,372.49,1042.6648" style="stroke:#181818;stroke-width:1.0;"/></g><!--reverse link Question to ShortAnswerQuestion--><g id="link_Question_ShortAnswerQuestion"><path codeLine="79" d="M477.01,1040.2448 C495.86,1059.5248 515.21,1079.2948 530.77,1095.1948 " fill="none" id="Question-backto-ShortAnswerQuestion" style="stroke:#181818;stroke-width:1.0;"/><polygon fill="none" points="471.74,1044.8748,462.75,1025.6848,481.74,1035.0848,471.74,1044.8748" style="stroke:#181818;stroke-width:1.0;"/></g><!--reverse link Question to NumericalQuestion--><g id="link_Question_NumericalQuestion"><path codeLine="80" d="M553.08,1034.0648 C599.39,1055.3248 648.31,1077.7848 686.74,1095.4248 " fill="none" id="Question-backto-NumericalQuestion" style="stroke:#181818;stroke-width:1.0;"/><polygon fill="none" points="550.07,1040.3848,534.81,1025.6848,555.91,1027.6648,550.07,1040.3848" style="stroke:#181818;stroke-width:1.0;"/></g><!--reverse link Question to MissingWordQuestion--><g id="link_Question_MissingWordQuestion"><path codeLine="81" d="M614.14,1017.0248 C689.44,1036.8748 774.57,1060.9948 851,1086.6348 C867.18,1092.0648 884.48,1098.6948 900.19,1105.0548 " fill="none" id="Question-backto-MissingWordQuestion" style="stroke:#181818;stroke-width:1.0;"/><polygon fill="none" points="612.29,1023.7748,594.71,1011.9348,615.84,1010.2248,612.29,1023.7748" style="stroke:#181818;stroke-width:1.0;"/></g><!--reverse link Question to BooleanQuestion--><g id="link_Question_BooleanQuestion"><path codeLine="82" d="M614.5,1018.6948 C625.81,1021.1448 637.03,1023.4748 648,1025.6348 C828.32,1061.1748 879.74,1038.1048 1057,1086.6348 C1066.13,1089.1348 1075.54,1092.2148 1084.78,1095.5648 " fill="none" id="Question-backto-BooleanQuestion" style="stroke:#181818;stroke-width:1.0;"/><polygon fill="none" points="612.78,1025.4848,594.76,1014.3448,615.8,1011.8148,612.78,1025.4848" style="stroke:#181818;stroke-width:1.0;"/></g><!--link MissingWordQuestion to MissingWordOption--><g id="link_MissingWordQuestion_MissingWordOption"><path codeLine="84" d="M954,1153.3448 C954,1178.6348 954,1219.5948 954,1250.4748 " fill="none" id="MissingWordQuestion-MissingWordOption" style="stroke:#181818;stroke-width:1.0;"/><polygon fill="#000000" points="959,1216.2803,961.9389,1207.2352,956.0611,1207.2352,959,1216.2803" style="stroke:#000000;stroke-width:1.0;"/><text fill="#000000" font-family="sans-serif" font-size="13" lengthAdjust="spacing" textLength="21" x="968" y="1216.6631">has</text><text fill="#000000" font-family="sans-serif" font-size="13" lengthAdjust="spacing" textLength="7" x="946.1906" y="1174.9709">1</text><text fill="#000000" font-family="sans-serif" font-size="13" lengthAdjust="spacing" textLength="5" x="948.6016" y="1239.3534">*</text></g><!--link IQuestionFactory to Question--><g id="link_IQuestionFactory_Question"><path codeLine="86" d="M715.13,824.6448 C656.89,850.6648 593.13,879.1448 538.57,903.5248 " fill="none" id="IQuestionFactory-Question" style="stroke:#181818;stroke-width:1.0;"/><polygon fill="#000000" points="648.4349,866.3198,657.8921,865.3136,655.4945,859.947,648.4349,866.3198" style="stroke:#000000;stroke-width:1.0;"/><text fill="#000000" font-family="sans-serif" font-size="13" lengthAdjust="spacing" textLength="43" x="662" y="869.6631">creates</text><text fill="#000000" font-family="sans-serif" font-size="13" lengthAdjust="spacing" textLength="7" x="692.6295" y="846.3037">1</text><text fill="#000000" font-family="sans-serif" font-size="13" lengthAdjust="spacing" textLength="5" x="548.8406" y="892.4933">*</text></g><!--link IQuestionFileGenerator to IQuestionFactory--><g id="link_IQuestionFileGenerator_IQuestionFactory"><path codeLine="87" d="M892,565.1448 C892,591.6148 892,630.1148 892,664.5848 " fill="none" id="IQuestionFileGenerator-IQuestionFactory" style="stroke:#181818;stroke-width:1.0;"/><polygon fill="#000000" points="897,630.2803,899.9389,621.2352,894.0611,621.2352,897,630.2803" style="stroke:#000000;stroke-width:1.0;"/><text fill="#000000" font-family="sans-serif" font-size="13" lengthAdjust="spacing" textLength="28" x="906" y="630.6631">uses</text><text fill="#000000" font-family="sans-serif" font-size="13" lengthAdjust="spacing" textLength="7" x="884.3766" y="586.7158">1</text><text fill="#000000" font-family="sans-serif" font-size="13" lengthAdjust="spacing" textLength="7" x="884.6773" y="653.4759">1</text></g><!--link AddTypeQuestionController to IQuestionFactory--><g id="link_AddTypeQuestionController_IQuestionFactory"><path codeLine="112" d="M1378.64,574.1948 C1306.05,599.4748 1210.88,632.6048 1123.97,662.8648 " fill="none" id="AddTypeQuestionController-to-IQuestionFactory" style="stroke:#181818;stroke-width:1.0;stroke-dasharray:7.0,7.0;"/><polygon fill="#181818" points="1119.05,664.5748,1128.865,665.3903,1123.7715,662.9294,1126.2324,657.8359,1119.05,664.5748" style="stroke:#181818;stroke-width:1.0;"/></g><!--link IQuestionFactory to IQuestionValidator--><g id="link_IQuestionFactory_IQuestionValidator"><path codeLine="114" d="M983.33,824.6448 C1024.08,859.8948 1070.06,899.6748 1102.36,927.6148 " fill="none" id="IQuestionFactory-to-IQuestionValidator" style="stroke:#181818;stroke-width:1.0;stroke-dasharray:7.0,7.0;"/><polygon fill="#181818" points="1106.23,930.9648,1102.0357,922.0537,1102.4468,927.6956,1096.805,928.1067,1106.23,930.9648" style="stroke:#181818;stroke-width:1.0;"/></g><!--link AddOrUpdateQuestionUI to AddQuestionUI--><g id="link_AddOrUpdateQuestionUI_AddQuestionUI"><path codeLine="116" d="M1732.42,130.8548 C1719.9,147.3948 1703.01,169.7048 1689.81,187.1448 " fill="none" id="AddOrUpdateQuestionUI-to-AddQuestionUI" style="stroke:#181818;stroke-width:1.0;stroke-dasharray:7.0,7.0;"/><polygon fill="#181818" points="1686.54,191.4648,1695.1591,186.6992,1689.556,187.4768,1688.7784,181.8736,1686.54,191.4648" style="stroke:#181818;stroke-width:1.0;"/></g><!--link AddOrUpdateQuestionUI to UpdateQuestionUI--><g id="link_AddOrUpdateQuestionUI_UpdateQuestionUI"><path codeLine="117" d="M1773,130.8548 C1789.53,147.5348 1811.86,170.0848 1829.2,187.5848 " fill="none" id="AddOrUpdateQuestionUI-to-UpdateQuestionUI" style="stroke:#181818;stroke-width:1.0;stroke-dasharray:7.0,7.0;"/><polygon fill="#181818" points="1833.04,191.4648,1829.5416,182.2582,1829.5188,187.915,1823.8619,187.8922,1833.04,191.4648" style="stroke:#181818;stroke-width:1.0;"/></g><!--link AddQuestionUI to AddTypeQuestionUI--><g id="link_AddQuestionUI_AddTypeQuestionUI"><path codeLine="118" d="M1666.4,239.8548 C1664.57,256.1148 1662.12,277.9548 1660.18,295.2548 " fill="none" id="AddQuestionUI-to-AddTypeQuestionUI" style="stroke:#181818;stroke-width:1.0;stroke-dasharray:7.0,7.0;"/><polygon fill="#181818" points="1659.6,300.4648,1664.5775,291.9662,1660.1569,295.4959,1656.6272,291.0753,1659.6,300.4648" style="stroke:#181818;stroke-width:1.0;"/></g><!--link UpdateQuestionUI to UpdateTypeQuestionUI--><g id="link_UpdateQuestionUI_UpdateTypeQuestionUI"><path codeLine="119" d="M1856.87,239.8548 C1857.48,256.1148 1858.29,277.9548 1858.94,295.2548 " fill="none" id="UpdateQuestionUI-to-UpdateTypeQuestionUI" style="stroke:#181818;stroke-width:1.0;stroke-dasharray:7.0,7.0;"/><polygon fill="#181818" points="1859.13,300.4648,1862.7932,291.3225,1858.9444,295.4682,1854.7987,291.6194,1859.13,300.4648" style="stroke:#181818;stroke-width:1.0;"/></g><!--link AddTypeQuestionUI to AddTypeQuestionController--><g id="link_AddTypeQuestionUI_AddTypeQuestionController"><path codeLine="121" d="M1639.07,348.7548 C1613.58,381.6148 1566.33,442.5448 1533.57,484.7748 " fill="none" id="AddTypeQuestionUI-to-AddTypeQuestionController" style="stroke:#181818;stroke-width:1.0;stroke-dasharray:7.0,7.0;"/><polygon fill="#181818" points="1530.45,488.7948,1539.1282,484.1377,1533.5158,484.8449,1532.8085,479.2325,1530.45,488.7948" style="stroke:#181818;stroke-width:1.0;"/></g><!--link UpdateTypeQuestionUI to UpdateTypeQuestionController--><g id="link_UpdateTypeQuestionUI_UpdateTypeQuestionController"><path codeLine="122" d="M1870.71,348.7548 C1884.78,379.1048 1909.93,433.3748 1929.11,474.7548 " fill="none" id="UpdateTypeQuestionUI-to-UpdateTypeQuestionController" style="stroke:#181818;stroke-width:1.0;stroke-dasharray:7.0,7.0;"/><polygon fill="#181818" points="1931.3,479.4848,1931.1426,469.6372,1929.1965,474.9487,1923.885,473.0027,1931.3,479.4848" style="stroke:#181818;stroke-width:1.0;"/></g><!--link AddTypeQuestionController to QuestionRepository--><g id="link_AddTypeQuestionController_QuestionRepository"><path codeLine="124" d="M1517.16,574.3248 C1533.44,609.7248 1556.77,660.4848 1573.64,697.1748 " fill="none" id="AddTypeQuestionController-to-QuestionRepository" style="stroke:#181818;stroke-width:1.0;stroke-dasharray:7.0,7.0;"/><polygon fill="#181818" points="1575.88,702.0348,1575.76,692.1866,1573.7938,697.4908,1568.4896,695.5246,1575.88,702.0348" style="stroke:#181818;stroke-width:1.0;"/></g><!--link UpdateTypeQuestionController to QuestionRepository--><g id="link_UpdateTypeQuestionController_QuestionRepository"><path codeLine="125" d="M1867.85,583.7148 C1807.52,619.0748 1728.02,665.6748 1670.4,699.4348 " fill="none" id="UpdateTypeQuestionController-to-QuestionRepository" style="stroke:#181818;stroke-width:1.0;stroke-dasharray:7.0,7.0;"/><polygon fill="#181818" points="1665.95,702.0548,1675.7373,700.9549,1670.2637,699.5265,1671.6921,694.053,1665.95,702.0548" style="stroke:#181818;stroke-width:1.0;"/></g><!--link UpdateTypeQuestionController to IQuestionValidator--><g id="link_UpdateTypeQuestionController_IQuestionValidator"><path codeLine="126" d="M1937.5,583.7048 C1912.06,649.9948 1858.36,764.2848 1773,824.6348 C1689.61,883.5948 1405.05,929.1748 1248.81,950.4548 " fill="none" id="UpdateTypeQuestionController-to-IQuestionValidator" style="stroke:#181818;stroke-width:1.0;stroke-dasharray:7.0,7.0;"/><polygon fill="#181818" points="1243.76,951.1448,1253.2154,953.9006,1248.7148,950.4737,1252.1417,945.973,1243.76,951.1448" style="stroke:#181818;stroke-width:1.0;"/></g><!--SRC=[dLTRJzim67tFhx3w15lAs5ucLGYfb0AHUbblusKISbEtjN3Zp75WNST_dvqqQNp91I9nINBE-MxszpdHCmv2oE0E-0H6KPTpXfSnHvvFWnd-Yy2but3C2GABsRVBo- -W3RghrPT5k88SWVuVGPp4AEAO1f7ZXD1_XXi4VXyVxM0WRdSeu0T7N41S6GI68S4-b2XmIDx8At52MfZlGvG9zsZ06IK4iHDGNgMmiyp-58NKpRsvWpwdR7-kY7o6grMcaFDk8OVde0F6eRo3v2f3NEVSDqTpEar94x-ha2Mk_uG42n9bclDn8cNuV-w20BrEcaUJY14SyRoOPv8n44-iiHSoa1LqHNSGoregeZZWYAsXZu0tKSkWvYHnm6T8H3E4tD_YO6D49TD1EKp_3P68XEzTGD2Qfv55Bc1uiytkP02wLgdDc70S4jJRKkoZXfPfPjMdZ27_Q3SnQvKhCpxRKiQxGVIAM4FBHuCfHngqI9HP6yKxnCJE8n-rPGYK9XL7aSZz8sMhXhPs9qQnYAPEcSaRIWc2mKT3q-YAbRVQXPrlKdDfjr_IT-YqHOMv3zgvmmJTem0nkwtFc_HTlkvafp5QcnIfiWkN4MTYf-PEMWnftUVzBIT9JUQPMCLY-0GR6-9OkmvO4mgvYJYMrFPUYmi5yMbaoSoOSGsxyzw3DxftmN0nc7i_1lsdtiFOw_LTC7iOJ-TFtT7iiJzrVmLWj1ZsfrwlEn1ORpOJfAV7yVJM1JVZyQ3V7LLvaZa1MfzQOgoslhOKlqJsjZ02roefdJLwMxCik49Rp1fvcbvB1OfTimhyPdF5skei3j66pYZD55WNXSqFImSyb8gdkERYHijh86rRYPRqcRtjK8DBCsFn05P4LIX1wk6x2wtrnWOPMAQCHdlWwb-xNJsjDMZzX5K9THDIHLVFECsLcl6aelKHeq0jKabV43pP98n5OEyH-achA97BTa0wCINRJYvEcLn2_37aEo2ESXtjLCZ4CJR2wddlDD8cXSEkZaecJ0HVr95PTuPTuo1FNNIpJqOV5xyarnDcuPAWgXEj8t_oxvWO7xzDyk-ICLieGs_X7RThZYXvKqShVWvOgGOWyRJq6mXSN5mRfN8SetWAB3_19C9ch0bQYR42fpzq568cfORbL2XfICSWsoHF2N5iAYNo1LPDXiqLx5J9VPXZAz5_]--></g></svg>