<?xml version="1.0" encoding="us-ascii" standalone="no"?><svg xmlns="http://www.w3.org/2000/svg" xmlns:xlink="http://www.w3.org/1999/xlink" contentStyleType="text/css" height="803px" preserveAspectRatio="none" style="width:1225px;height:803px;background:#FFFFFF;" version="1.1" viewBox="0 0 1225 803" width="1225px" zoomAndPan="magnify"><defs/><g><text fill="#000000" font-family="sans-serif" font-size="14" font-weight="bold" lengthAdjust="spacing" textLength="219" x="496" y="25.1074">US1005 - Set Course's teachers</text><!--cluster usermanagement--><g id="cluster_usermanagement"><path d="M900.5,625.1348 L1023.5,625.1348 A3.75,3.75 0 0 1 1026,627.6348 L1033,649.7559 L1215.5,649.7559 A2.5,2.5 0 0 1 1218,652.2559 L1218,742.6348 A2.5,2.5 0 0 1 1215.5,745.1348 L900.5,745.1348 A2.5,2.5 0 0 1 898,742.6348 L898,627.6348 A2.5,2.5 0 0 1 900.5,625.1348 " fill="none" style="stroke:#000000;stroke-width:1.5;"/><line style="stroke:#000000;stroke-width:1.5;" x1="898" x2="1033" y1="649.7559" y2="649.7559"/><text fill="#000000" font-family="sans-serif" font-size="14" font-weight="bold" lengthAdjust="spacing" textLength="122" x="902" y="642.2422">usermanagement</text></g><!--cluster coursemanagement--><g id="cluster_coursemanagement"><path d="M8.5,170.6348 L148.5,170.6348 A3.75,3.75 0 0 1 151,173.1348 L158,195.2559 L871.5,195.2559 A2.5,2.5 0 0 1 874,197.7559 L874,794.1348 A2.5,2.5 0 0 1 871.5,796.6348 L8.5,796.6348 A2.5,2.5 0 0 1 6,794.1348 L6,173.1348 A2.5,2.5 0 0 1 8.5,170.6348 " fill="none" style="stroke:#000000;stroke-width:1.5;"/><line style="stroke:#000000;stroke-width:1.5;" x1="6" x2="158" y1="195.2559" y2="195.2559"/><text fill="#000000" font-family="sans-serif" font-size="14" font-weight="bold" lengthAdjust="spacing" textLength="139" x="10" y="187.7422">coursemanagement</text></g><!--cluster repository--><g id="cluster_repository"><path d="M32.5,597.6348 L105.5,597.6348 A3.75,3.75 0 0 1 108,600.1348 L115,622.2559 L525.5,622.2559 A2.5,2.5 0 0 1 528,624.7559 L528,770.1348 A2.5,2.5 0 0 1 525.5,772.6348 L32.5,772.6348 A2.5,2.5 0 0 1 30,770.1348 L30,600.1348 A2.5,2.5 0 0 1 32.5,597.6348 " fill="none" style="stroke:#000000;stroke-width:1.5;"/><line style="stroke:#000000;stroke-width:1.5;" x1="30" x2="115" y1="622.2559" y2="622.2559"/><text fill="#000000" font-family="sans-serif" font-size="14" font-weight="bold" lengthAdjust="spacing" textLength="72" x="34" y="614.7422">repository</text></g><!--cluster application--><g id="cluster_application"><path d="M90.5,215.6348 L168.5,215.6348 A3.75,3.75 0 0 1 171,218.1348 L178,240.2559 L834.5,240.2559 A2.5,2.5 0 0 1 837,242.7559 L837,571.1348 A2.5,2.5 0 0 1 834.5,573.6348 L90.5,573.6348 A2.5,2.5 0 0 1 88,571.1348 L88,218.1348 A2.5,2.5 0 0 1 90.5,215.6348 " fill="none" style="stroke:#000000;stroke-width:1.5;"/><line style="stroke:#000000;stroke-width:1.5;" x1="88" x2="178" y1="240.2559" y2="240.2559"/><text fill="#000000" font-family="sans-serif" font-size="14" font-weight="bold" lengthAdjust="spacing" textLength="77" x="92" y="232.7422">application</text></g><!--cluster domain--><g id="cluster_domain"><path d="M554.5,616.1348 L606.5,616.1348 A3.75,3.75 0 0 1 609,618.6348 L616,640.7559 L847.5,640.7559 A2.5,2.5 0 0 1 850,643.2559 L850,751.6348 A2.5,2.5 0 0 1 847.5,754.1348 L554.5,754.1348 A2.5,2.5 0 0 1 552,751.6348 L552,618.6348 A2.5,2.5 0 0 1 554.5,616.1348 " fill="none" style="stroke:#000000;stroke-width:1.5;"/><line style="stroke:#000000;stroke-width:1.5;" x1="552" x2="616" y1="640.7559" y2="640.7559"/><text fill="#000000" font-family="sans-serif" font-size="14" font-weight="bold" lengthAdjust="spacing" textLength="51" x="556" y="633.2422">domain</text></g><!--cluster ui--><g id="cluster_ui"><path d="M362.5,45.6348 L376.5,45.6348 A3.75,3.75 0 0 1 379,48.1348 L386,70.2559 L561.5,70.2559 A2.5,2.5 0 0 1 564,72.7559 L564,144.1348 A2.5,2.5 0 0 1 561.5,146.6348 L362.5,146.6348 A2.5,2.5 0 0 1 360,144.1348 L360,48.1348 A2.5,2.5 0 0 1 362.5,45.6348 " fill="none" style="stroke:#000000;stroke-width:1.5;"/><line style="stroke:#000000;stroke-width:1.5;" x1="360" x2="386" y1="70.2559" y2="70.2559"/><text fill="#000000" font-family="sans-serif" font-size="14" font-weight="bold" lengthAdjust="spacing" textLength="13" x="364" y="62.7422">ui</text></g><!--class IeCourseUserRepository--><g id="elem_IeCourseUserRepository"><rect codeLine="6" fill="#F1F1F1" height="66.6211" id="IeCourseUserRepository" rx="2.5" ry="2.5" style="stroke:#181818;stroke-width:0.5;" width="287" x="914.5" y="662.1348"/><ellipse cx="975.75" cy="678.1348" fill="#B4A7E5" rx="11" ry="11" style="stroke:#181818;stroke-width:1.0;"/><path d="M976.7031,674.7754 L976.7031,681.4316 L978.4219,681.4316 Q979.0313,681.4316 979.2969,681.666 Q979.5625,681.9004 979.5625,682.291 Q979.5625,682.666 979.2969,682.9004 Q979.0313,683.1348 978.4219,683.1348 L973.2813,683.1348 Q972.6719,683.1348 972.4063,682.9004 Q972.1406,682.666 972.1406,682.2754 Q972.1406,681.9004 972.4063,681.666 Q972.6719,681.4316 973.2813,681.4316 L975,681.4316 L975,674.7754 L973.2813,674.7754 Q972.6719,674.7754 972.4063,674.541 Q972.1406,674.3066 972.1406,673.916 Q972.1406,673.541 972.4063,673.3066 Q972.6719,673.0723 973.2813,673.0723 L978.4219,673.0723 Q979.0313,673.0723 979.2969,673.3066 Q979.5625,673.541 979.5625,673.916 Q979.5625,674.3066 979.2969,674.541 Q979.0313,674.7754 978.4219,674.7754 L976.7031,674.7754 Z " fill="#000000"/><text fill="#000000" font-family="sans-serif" font-size="14" font-style="italic" lengthAdjust="spacing" textLength="156" x="996.25" y="683.9316">IeCourseUserRepository</text><line style="stroke:#181818;stroke-width:0.5;" x1="915.5" x2="1200.5" y1="694.1348" y2="694.1348"/><line style="stroke:#181818;stroke-width:0.5;" x1="915.5" x2="1200.5" y1="702.1348" y2="702.1348"/><text fill="#000000" font-family="sans-serif" font-size="14" lengthAdjust="spacing" textLength="275" x="920.5" y="721.2422">+findAllTeachers() : Iterable&lt;ECourseUser&gt;</text></g><!--class CourseRepository--><g id="elem_CourseRepository"><rect codeLine="14" fill="#F1F1F1" height="122.4844" id="CourseRepository" rx="2.5" ry="2.5" style="stroke:#181818;stroke-width:0.5;" width="466" x="46" y="634.6348"/><ellipse cx="217.75" cy="650.6348" fill="#B4A7E5" rx="11" ry="11" style="stroke:#181818;stroke-width:1.0;"/><path d="M218.7031,647.2754 L218.7031,653.9316 L220.4219,653.9316 Q221.0313,653.9316 221.2969,654.166 Q221.5625,654.4004 221.5625,654.791 Q221.5625,655.166 221.2969,655.4004 Q221.0313,655.6348 220.4219,655.6348 L215.2813,655.6348 Q214.6719,655.6348 214.4063,655.4004 Q214.1406,655.166 214.1406,654.7754 Q214.1406,654.4004 214.4063,654.166 Q214.6719,653.9316 215.2813,653.9316 L217,653.9316 L217,647.2754 L215.2813,647.2754 Q214.6719,647.2754 214.4063,647.041 Q214.1406,646.8066 214.1406,646.416 Q214.1406,646.041 214.4063,645.8066 Q214.6719,645.5723 215.2813,645.5723 L220.4219,645.5723 Q221.0313,645.5723 221.2969,645.8066 Q221.5625,646.041 221.5625,646.416 Q221.5625,646.8066 221.2969,647.041 Q221.0313,647.2754 220.4219,647.2754 L218.7031,647.2754 Z " fill="#000000"/><text fill="#000000" font-family="sans-serif" font-size="14" font-style="italic" lengthAdjust="spacing" textLength="114" x="238.25" y="656.4316">CourseRepository</text><line style="stroke:#181818;stroke-width:0.5;" x1="47" x2="511" y1="666.6348" y2="666.6348"/><line style="stroke:#181818;stroke-width:0.5;" x1="47" x2="511" y1="674.6348" y2="674.6348"/><text fill="#000000" font-family="sans-serif" font-size="14" lengthAdjust="spacing" textLength="454" x="52" y="693.7422">+findAllNotClosedCoursesWithoutTeacherInCharge() : Iterable&lt;Course&gt;</text><text fill="#000000" font-family="sans-serif" font-size="14" lengthAdjust="spacing" textLength="295" x="52" y="712.3633">+findAllNotClosedCourses() : Iterable&lt;Course&gt;</text><text fill="#000000" font-family="sans-serif" font-size="14" lengthAdjust="spacing" textLength="349" x="52" y="730.9844">+findCourseTeachers(course) : Iterable&lt;ECourseUser&gt;</text><text fill="#000000" font-family="sans-serif" font-size="14" lengthAdjust="spacing" textLength="218" x="52" y="749.6055">+save(course) : Optional&lt;Course&gt;</text></g><!--class ListManagerCoursesController--><g id="elem_ListManagerCoursesController"><rect codeLine="24" fill="#F1F1F1" height="85.2422" id="ListManagerCoursesController" rx="2.5" ry="2.5" style="stroke:#181818;stroke-width:0.5;" width="334" x="104" y="472.6348"/><ellipse cx="170.25" cy="488.6348" fill="#ADD1B2" rx="11" ry="11" style="stroke:#181818;stroke-width:1.0;"/><path d="M173.0156,484.5098 Q173.1719,484.291 173.3594,484.1816 Q173.5469,484.0723 173.7656,484.0723 Q174.1406,484.0723 174.375,484.3379 Q174.6094,484.5879 174.6094,485.1973 L174.6094,486.6504 Q174.6094,487.2598 174.375,487.5254 Q174.1406,487.791 173.7656,487.791 Q173.4219,487.791 173.2188,487.5879 Q173.0156,487.4004 172.9063,486.8848 Q172.8594,486.5254 172.6719,486.3379 Q172.3438,485.9629 171.7344,485.7441 Q171.125,485.5254 170.5,485.5254 Q169.7344,485.5254 169.0938,485.8535 Q168.4688,486.1816 167.9688,486.9316 Q167.4844,487.6816 167.4844,488.7129 L167.4844,489.8066 Q167.4844,491.041 168.375,491.8691 Q169.2656,492.6816 170.8594,492.6816 Q171.7969,492.6816 172.4531,492.4316 Q172.8438,492.2754 173.2656,491.8379 Q173.5313,491.5723 173.6719,491.4941 Q173.8281,491.416 174.0313,491.416 Q174.3594,491.416 174.6094,491.6816 Q174.875,491.9316 174.875,492.2754 Q174.875,492.6191 174.5313,493.0254 Q174.0313,493.6035 173.2344,493.9316 Q172.1563,494.3848 170.8594,494.3848 Q169.3438,494.3848 168.1406,493.7598 Q167.1563,493.2598 166.4688,492.1973 Q165.7813,491.1191 165.7813,489.8379 L165.7813,488.6816 Q165.7813,487.3535 166.3906,486.2129 Q167.0156,485.0566 168.1094,484.4473 Q169.2031,483.8223 170.4375,483.8223 Q171.1719,483.8223 171.8125,483.9941 Q172.4688,484.1504 173.0156,484.5098 Z " fill="#000000"/><text fill="#000000" font-family="sans-serif" font-size="14" lengthAdjust="spacing" textLength="193" x="190.75" y="494.4316">ListManagerCoursesController</text><line style="stroke:#181818;stroke-width:0.5;" x1="105" x2="437" y1="504.6348" y2="504.6348"/><line style="stroke:#181818;stroke-width:0.5;" x1="105" x2="437" y1="512.6348" y2="512.6348"/><text fill="#000000" font-family="sans-serif" font-size="14" lengthAdjust="spacing" textLength="322" x="110" y="531.7422">+ListManagerCoursesController(courseRepository)</text><text fill="#000000" font-family="sans-serif" font-size="14" lengthAdjust="spacing" textLength="291" x="110" y="550.3633">+findAllNotClosedCourses(): Iterable&lt;Course&gt;</text></g><!--class SetCourseTeachersController--><g id="elem_SetCourseTeachersController"><rect codeLine="29" fill="#F1F1F1" height="159.7266" id="SetCourseTeachersController" rx="2.5" ry="2.5" style="stroke:#181818;stroke-width:0.5;" width="501" x="211.5" y="252.6348"/><ellipse cx="363.25" cy="268.6348" fill="#ADD1B2" rx="11" ry="11" style="stroke:#181818;stroke-width:1.0;"/><path d="M366.0156,264.5098 Q366.1719,264.291 366.3594,264.1816 Q366.5469,264.0723 366.7656,264.0723 Q367.1406,264.0723 367.375,264.3379 Q367.6094,264.5879 367.6094,265.1973 L367.6094,266.6504 Q367.6094,267.2598 367.375,267.5254 Q367.1406,267.791 366.7656,267.791 Q366.4219,267.791 366.2188,267.5879 Q366.0156,267.4004 365.9063,266.8848 Q365.8594,266.5254 365.6719,266.3379 Q365.3438,265.9629 364.7344,265.7441 Q364.125,265.5254 363.5,265.5254 Q362.7344,265.5254 362.0938,265.8535 Q361.4688,266.1816 360.9688,266.9316 Q360.4844,267.6816 360.4844,268.7129 L360.4844,269.8066 Q360.4844,271.041 361.375,271.8691 Q362.2656,272.6816 363.8594,272.6816 Q364.7969,272.6816 365.4531,272.4316 Q365.8438,272.2754 366.2656,271.8379 Q366.5313,271.5723 366.6719,271.4941 Q366.8281,271.416 367.0313,271.416 Q367.3594,271.416 367.6094,271.6816 Q367.875,271.9316 367.875,272.2754 Q367.875,272.6191 367.5313,273.0254 Q367.0313,273.6035 366.2344,273.9316 Q365.1563,274.3848 363.8594,274.3848 Q362.3438,274.3848 361.1406,273.7598 Q360.1563,273.2598 359.4688,272.1973 Q358.7813,271.1191 358.7813,269.8379 L358.7813,268.6816 Q358.7813,267.3535 359.3906,266.2129 Q360.0156,265.0566 361.1094,264.4473 Q362.2031,263.8223 363.4375,263.8223 Q364.1719,263.8223 364.8125,263.9941 Q365.4688,264.1504 366.0156,264.5098 Z " fill="#000000"/><text fill="#000000" font-family="sans-serif" font-size="14" lengthAdjust="spacing" textLength="189" x="383.75" y="274.4316">SetCourseTeachersController</text><line style="stroke:#181818;stroke-width:0.5;" x1="212.5" x2="711.5" y1="284.6348" y2="284.6348"/><line style="stroke:#181818;stroke-width:0.5;" x1="212.5" x2="711.5" y1="292.6348" y2="292.6348"/><text fill="#000000" font-family="sans-serif" font-size="14" lengthAdjust="spacing" textLength="489" x="217.5" y="311.7422">+SetCourseTeachersController(courseRepository, availableTeachersService)</text><text fill="#000000" font-family="sans-serif" font-size="14" lengthAdjust="spacing" textLength="415" x="217.5" y="330.3633">+notClosedCoursesWithoutTeacherInCharge() : Iterable&lt;Course&gt;</text><text fill="#000000" font-family="sans-serif" font-size="14" lengthAdjust="spacing" textLength="256" x="217.5" y="348.9844">+notClosedCourses() : Iterable&lt;Course&gt;</text><text fill="#000000" font-family="sans-serif" font-size="14" lengthAdjust="spacing" textLength="293" x="217.5" y="367.6055">+availableTeachers() : Iterable&lt;ECourseUser&gt;</text><text fill="#000000" font-family="sans-serif" font-size="14" lengthAdjust="spacing" textLength="300" x="217.5" y="386.2266">+defineCourseTeacherInCharge(teacher) : void</text><text fill="#000000" font-family="sans-serif" font-size="14" lengthAdjust="spacing" textLength="244" x="217.5" y="404.8477">+addTeacherToCourse(teacher) : void</text></g><!--class IAvailableTeachersService--><g id="elem_IAvailableTeachersService"><rect codeLine="38" fill="#F1F1F1" height="66.6211" id="IAvailableTeachersService" rx="2.5" ry="2.5" style="stroke:#181818;stroke-width:0.5;" width="348" x="473" y="481.6348"/><ellipse cx="559.75" cy="497.6348" fill="#B4A7E5" rx="11" ry="11" style="stroke:#181818;stroke-width:1.0;"/><path d="M560.7031,494.2754 L560.7031,500.9316 L562.4219,500.9316 Q563.0313,500.9316 563.2969,501.166 Q563.5625,501.4004 563.5625,501.791 Q563.5625,502.166 563.2969,502.4004 Q563.0313,502.6348 562.4219,502.6348 L557.2813,502.6348 Q556.6719,502.6348 556.4063,502.4004 Q556.1406,502.166 556.1406,501.7754 Q556.1406,501.4004 556.4063,501.166 Q556.6719,500.9316 557.2813,500.9316 L559,500.9316 L559,494.2754 L557.2813,494.2754 Q556.6719,494.2754 556.4063,494.041 Q556.1406,493.8066 556.1406,493.416 Q556.1406,493.041 556.4063,492.8066 Q556.6719,492.5723 557.2813,492.5723 L562.4219,492.5723 Q563.0313,492.5723 563.2969,492.8066 Q563.5625,493.041 563.5625,493.416 Q563.5625,493.8066 563.2969,494.041 Q563.0313,494.2754 562.4219,494.2754 L560.7031,494.2754 Z " fill="#000000"/><text fill="#000000" font-family="sans-serif" font-size="14" font-style="italic" lengthAdjust="spacing" textLength="166" x="580.25" y="503.4316">IAvailableTeachersService</text><line style="stroke:#181818;stroke-width:0.5;" x1="474" x2="820" y1="513.6348" y2="513.6348"/><line style="stroke:#181818;stroke-width:0.5;" x1="474" x2="820" y1="521.6348" y2="521.6348"/><text fill="#000000" font-family="sans-serif" font-size="14" lengthAdjust="spacing" textLength="336" x="479" y="540.7422">+availableTeachers(course) : Iterable&lt;ECourseUser&gt;</text></g><!--class Course--><g id="elem_Course"><rect codeLine="50" fill="#F1F1F1" height="85.2422" id="Course" rx="2.5" ry="2.5" style="stroke:#181818;stroke-width:0.5;" width="266" x="568" y="653.1348"/><ellipse cx="673.75" cy="669.1348" fill="#ADD1B2" rx="11" ry="11" style="stroke:#181818;stroke-width:1.0;"/><path d="M676.5156,665.0098 Q676.6719,664.791 676.8594,664.6816 Q677.0469,664.5723 677.2656,664.5723 Q677.6406,664.5723 677.875,664.8379 Q678.1094,665.0879 678.1094,665.6973 L678.1094,667.1504 Q678.1094,667.7598 677.875,668.0254 Q677.6406,668.291 677.2656,668.291 Q676.9219,668.291 676.7188,668.0879 Q676.5156,667.9004 676.4063,667.3848 Q676.3594,667.0254 676.1719,666.8379 Q675.8438,666.4629 675.2344,666.2441 Q674.625,666.0254 674,666.0254 Q673.2344,666.0254 672.5938,666.3535 Q671.9688,666.6816 671.4688,667.4316 Q670.9844,668.1816 670.9844,669.2129 L670.9844,670.3066 Q670.9844,671.541 671.875,672.3691 Q672.7656,673.1816 674.3594,673.1816 Q675.2969,673.1816 675.9531,672.9316 Q676.3438,672.7754 676.7656,672.3379 Q677.0313,672.0723 677.1719,671.9941 Q677.3281,671.916 677.5313,671.916 Q677.8594,671.916 678.1094,672.1816 Q678.375,672.4316 678.375,672.7754 Q678.375,673.1191 678.0313,673.5254 Q677.5313,674.1035 676.7344,674.4316 Q675.6563,674.8848 674.3594,674.8848 Q672.8438,674.8848 671.6406,674.2598 Q670.6563,673.7598 669.9688,672.6973 Q669.2813,671.6191 669.2813,670.3379 L669.2813,669.1816 Q669.2813,667.8535 669.8906,666.7129 Q670.5156,665.5566 671.6094,664.9473 Q672.7031,664.3223 673.9375,664.3223 Q674.6719,664.3223 675.3125,664.4941 Q675.9688,664.6504 676.5156,665.0098 Z " fill="#000000"/><text fill="#000000" font-family="sans-serif" font-size="14" lengthAdjust="spacing" textLength="46" x="694.25" y="674.9316">Course</text><line style="stroke:#181818;stroke-width:0.5;" x1="569" x2="833" y1="685.1348" y2="685.1348"/><line style="stroke:#181818;stroke-width:0.5;" x1="569" x2="833" y1="693.1348" y2="693.1348"/><text fill="#000000" font-family="sans-serif" font-size="14" lengthAdjust="spacing" textLength="181" x="574" y="712.2422">+addTeacher(teacher) : void</text><text fill="#000000" font-family="sans-serif" font-size="14" lengthAdjust="spacing" textLength="254" x="574" y="730.8633">+defineTeacherInCharge(teacher) : void</text></g><!--class SetCourseTeachersUI--><g id="elem_SetCourseTeachersUI"><rect codeLine="64" fill="#F1F1F1" height="48" id="SetCourseTeachersUI" rx="2.5" ry="2.5" style="stroke:#181818;stroke-width:0.5;" width="171" x="376.5" y="82.6348"/><ellipse cx="391.5" cy="98.6348" fill="#ADD1B2" rx="11" ry="11" style="stroke:#181818;stroke-width:1.0;"/><path d="M394.2656,94.5098 Q394.4219,94.291 394.6094,94.1816 Q394.7969,94.0723 395.0156,94.0723 Q395.3906,94.0723 395.625,94.3379 Q395.8594,94.5879 395.8594,95.1973 L395.8594,96.6504 Q395.8594,97.2598 395.625,97.5254 Q395.3906,97.791 395.0156,97.791 Q394.6719,97.791 394.4688,97.5879 Q394.2656,97.4004 394.1563,96.8848 Q394.1094,96.5254 393.9219,96.3379 Q393.5938,95.9629 392.9844,95.7441 Q392.375,95.5254 391.75,95.5254 Q390.9844,95.5254 390.3438,95.8535 Q389.7188,96.1816 389.2188,96.9316 Q388.7344,97.6816 388.7344,98.7129 L388.7344,99.8066 Q388.7344,101.041 389.625,101.8691 Q390.5156,102.6816 392.1094,102.6816 Q393.0469,102.6816 393.7031,102.4316 Q394.0938,102.2754 394.5156,101.8379 Q394.7813,101.5723 394.9219,101.4941 Q395.0781,101.416 395.2813,101.416 Q395.6094,101.416 395.8594,101.6816 Q396.125,101.9316 396.125,102.2754 Q396.125,102.6191 395.7813,103.0254 Q395.2813,103.6035 394.4844,103.9316 Q393.4063,104.3848 392.1094,104.3848 Q390.5938,104.3848 389.3906,103.7598 Q388.4063,103.2598 387.7188,102.1973 Q387.0313,101.1191 387.0313,99.8379 L387.0313,98.6816 Q387.0313,97.3535 387.6406,96.2129 Q388.2656,95.0566 389.3594,94.4473 Q390.4531,93.8223 391.6875,93.8223 Q392.4219,93.8223 393.0625,93.9941 Q393.7188,94.1504 394.2656,94.5098 Z " fill="#000000"/><text fill="#000000" font-family="sans-serif" font-size="14" lengthAdjust="spacing" textLength="139" x="405.5" y="104.4316">SetCourseTeachersUI</text><line style="stroke:#181818;stroke-width:0.5;" x1="377.5" x2="546.5" y1="114.6348" y2="114.6348"/><line style="stroke:#181818;stroke-width:0.5;" x1="377.5" x2="546.5" y1="122.6348" y2="122.6348"/></g><!--link ListManagerCoursesController to CourseRepository--><g id="link_ListManagerCoursesController_CourseRepository"><path codeLine="43" d="M272.88,557.9848 C273.83,579.2448 275.01,605.5648 276.08,629.4048 " fill="none" id="ListManagerCoursesController-to-CourseRepository" style="stroke:#181818;stroke-width:1.0;stroke-dasharray:7.0,7.0;"/><polygon fill="#181818" points="276.3,634.4548,279.911,625.2917,276.0859,629.4594,271.9183,625.6343,276.3,634.4548" style="stroke:#181818;stroke-width:1.0;"/></g><!--link SetCourseTeachersController to CourseRepository--><g id="link_SetCourseTeachersController_CourseRepository"><path codeLine="44" d="M211.23,378.9148 C162.43,399.4748 117.14,429.3248 87,472.6348 C59.33,512.4048 62.95,539.5848 87,581.6348 C98.16,601.1448 114.14,617.6148 132.18,631.4348 " fill="none" id="SetCourseTeachersController-to-CourseRepository" style="stroke:#181818;stroke-width:1.0;stroke-dasharray:7.0,7.0;"/><polygon fill="#181818" points="136.31,634.5248,131.51,625.9248,132.31,631.5248,126.71,632.3248,136.31,634.5248" style="stroke:#181818;stroke-width:1.0;"/></g><!--link IAvailableTeachersService to IeCourseUserRepository--><g id="link_IAvailableTeachersService_IeCourseUserRepository"><path codeLine="45" d="M744.22,548.6648 C778.04,560.6748 816.02,574.9648 850,589.6348 C898.89,610.7348 952.51,637.9048 993.06,659.3148 " fill="none" id="IAvailableTeachersService-to-IeCourseUserRepository" style="stroke:#181818;stroke-width:1.0;stroke-dasharray:7.0,7.0;"/><polygon fill="#181818" points="997.93,661.8948,991.8359,654.1577,993.5076,659.5619,988.1034,661.2336,997.93,661.8948" style="stroke:#181818;stroke-width:1.0;"/></g><!--link SetCourseTeachersController to IAvailableTeachersService--><g id="link_SetCourseTeachersController_IAvailableTeachersService"><path codeLine="46" d="M543.14,412.8048 C566.26,435.3648 590.34,458.8548 609.49,477.5348 " fill="none" id="SetCourseTeachersController-to-IAvailableTeachersService" style="stroke:#181818;stroke-width:1.0;stroke-dasharray:7.0,7.0;"/><polygon fill="#181818" points="613.25,481.2048,609.5848,472.0633,609.6648,477.7196,604.0085,477.7996,613.25,481.2048" style="stroke:#181818;stroke-width:1.0;"/></g><!--link SetCourseTeachersController to ListManagerCoursesController--><g id="link_SetCourseTeachersController_ListManagerCoursesController"><path codeLine="47" d="M378.22,412.8048 C358,431.9148 337.07,451.6948 319.13,468.6548 " fill="none" id="SetCourseTeachersController-to-ListManagerCoursesController" style="stroke:#181818;stroke-width:1.0;stroke-dasharray:7.0,7.0;"/><polygon fill="#181818" points="315.11,472.4548,324.4053,469.1993,318.751,469.0279,318.9223,463.3737,315.11,472.4548" style="stroke:#181818;stroke-width:1.0;"/></g><!--link IAvailableTeachersService to Course--><g id="link_IAvailableTeachersService_Course"><path codeLine="56" d="M656.9,548.8748 C665.31,576.6748 677.48,616.9048 686.91,648.0548 " fill="none" id="IAvailableTeachersService-to-Course" style="stroke:#181818;stroke-width:1.0;stroke-dasharray:7.0,7.0;"/><polygon fill="#181818" points="688.4,652.9748,689.6318,643.2032,686.9567,648.1876,681.9723,645.5125,688.4,652.9748" style="stroke:#181818;stroke-width:1.0;"/></g><!--link ListManagerCoursesController to Course--><g id="link_ListManagerCoursesController_Course"><path codeLine="57" d="M375.42,557.8048 C401.4,566.8548 429.43,575.5448 456,581.6348 C487.38,588.8348 497.52,579.2648 528,589.6348 C568.74,603.5048 610.11,628.1448 642.17,650.0648 " fill="none" id="ListManagerCoursesController-to-Course" style="stroke:#181818;stroke-width:1.0;stroke-dasharray:7.0,7.0;"/><polygon fill="#181818" points="646.43,653.0048,641.2797,644.6098,642.3098,650.1721,636.7475,651.2022,646.43,653.0048" style="stroke:#181818;stroke-width:1.0;"/></g><!--link SetCourseTeachersController to Course--><g id="link_SetCourseTeachersController_Course"><path codeLine="58" d="M712.63,378.0448 C762.24,398.6348 808.38,428.7148 839,472.6348 C866.7,512.3748 859.74,537.8548 839,581.6348 C826.03,609.0148 802.82,631.9748 779.09,649.8848 " fill="none" id="SetCourseTeachersController-to-Course" style="stroke:#181818;stroke-width:1.0;stroke-dasharray:7.0,7.0;"/><polygon fill="#181818" points="774.96,652.9448,784.5737,650.8052,778.9788,649.97,779.814,644.3751,774.96,652.9448" style="stroke:#181818;stroke-width:1.0;"/></g><!--link SetCourseTeachersUI to SetCourseTeachersController--><g id="link_SetCourseTeachersUI_SetCourseTeachersController"><path codeLine="68" d="M462,130.7648 C462,158.2048 462,205.5248 462,247.3348 " fill="none" id="SetCourseTeachersUI-to-SetCourseTeachersController" style="stroke:#181818;stroke-width:1.0;stroke-dasharray:7.0,7.0;"/><polygon fill="#181818" points="462,252.4048,466,243.4048,462,247.4048,458,243.4048,462,252.4048" style="stroke:#181818;stroke-width:1.0;"/></g><!--SRC=[hLNBQiCm4BphAtHhGjkG7def9H123uO-e4xeUMjl4X55Cf9iQ4F-lRQbnAzOE52T3DhPdPqThVMEYGGKx6d4GUkvCOfzfmQ3I8gG_IAT4cAOuKXNuSDq-aZlQOY6BcIgDDveQX2YBIfDI0BH3ZP8Kurg3oB_tACm1qBpmuH1jOO8QO0MkigZFZ6HcXcfVcnKSMxNJCHppfSkxsXCdsYGe-6Ru_DB1PwLa2CvLfMZyhAgJG-a33hTgmlrAcOszILETLxlqYour1ZRSFt5p5Qcnj4Dn68BQeDDrZPqDYZVGAIzE8jaE_TBTSPhoB26-4WCam9ufzZHATpG49A4imWAo4dUufJceQzCcxTIVkNQMKXXbEGS5MtfwOjrxAfPZ0Tgvv7ks2QRsxYfOZzNJsY7wXs531WlE9oYGrGPYx3LXFWl9udhBTIXE1hedHXpxR4XnfcfMmL5faook5KnZbtyKbfuRtnjKhMzCUzHjJshRcj37qV3xruhJoQppheeKJvFzOBwMoiWbnVce6gzYGUXVGeqTq8izy14RH3sWLbKPpvd8_WDOvqsr6EDsVa5jRIk6V8LeoMa_aDAcUk-P-Ei0dTV_iOkNHUPFPN97m00]--></g></svg>