<?xml version="1.0" encoding="us-ascii" standalone="no"?><svg xmlns="http://www.w3.org/2000/svg" xmlns:xlink="http://www.w3.org/1999/xlink" contentStyleType="text/css" height="2714px" preserveAspectRatio="none" style="width:2136px;height:2714px;background:#FFFFFF;" version="1.1" viewBox="0 0 2136 2714" width="2136px" zoomAndPan="magnify"><defs/><g><text fill="#000000" font-family="sans-serif" font-size="14" font-weight="bold" lengthAdjust="spacing" textLength="355" x="883.94" y="25.1074">US1001 - ECourseUser Management Class Diagram</text><!--cluster ui--><g id="cluster_ui"><path d="M51.38,45.6348 L65.38,45.6348 A3.75,3.75 0 0 1 67.88,48.1348 L74.88,70.2559 L298.38,70.2559 A2.5,2.5 0 0 1 300.88,72.7559 L300.88,1096.1348 A2.5,2.5 0 0 1 298.38,1098.6348 L51.38,1098.6348 A2.5,2.5 0 0 1 48.88,1096.1348 L48.88,48.1348 A2.5,2.5 0 0 1 51.38,45.6348 " fill="none" style="stroke:#000000;stroke-width:1.5;"/><line style="stroke:#000000;stroke-width:1.5;" x1="48.88" x2="74.88" y1="70.2559" y2="70.2559"/><text fill="#000000" font-family="sans-serif" font-size="14" font-weight="bold" lengthAdjust="spacing" textLength="13" x="52.88" y="62.7422">ui</text></g><!--cluster ecourseusermanagement--><g id="cluster_ecourseusermanagement"><path d="M327.38,578.6348 L508.38,578.6348 A3.75,3.75 0 0 1 510.88,581.1348 L517.88,603.2559 L2127.38,603.2559 A2.5,2.5 0 0 1 2129.88,605.7559 L2129.88,2348.1348 A2.5,2.5 0 0 1 2127.38,2350.6348 L327.38,2350.6348 A2.5,2.5 0 0 1 324.88,2348.1348 L324.88,581.1348 A2.5,2.5 0 0 1 327.38,578.6348 " fill="none" style="stroke:#000000;stroke-width:1.5;"/><line style="stroke:#000000;stroke-width:1.5;" x1="324.88" x2="517.88" y1="603.2559" y2="603.2559"/><text fill="#000000" font-family="sans-serif" font-size="14" font-weight="bold" lengthAdjust="spacing" textLength="180" x="328.88" y="595.7422">ecourseusermanagement</text></g><!--cluster repositories--><g id="cluster_repositories"><path d="M914.38,1952.6348 L1001.38,1952.6348 A3.75,3.75 0 0 1 1003.88,1955.1348 L1010.88,1977.2559 L1505.38,1977.2559 A2.5,2.5 0 0 1 1507.88,1979.7559 L1507.88,2324.1348 A2.5,2.5 0 0 1 1505.38,2326.6348 L914.38,2326.6348 A2.5,2.5 0 0 1 911.88,2324.1348 L911.88,1955.1348 A2.5,2.5 0 0 1 914.38,1952.6348 " fill="none" style="stroke:#000000;stroke-width:1.5;"/><line style="stroke:#000000;stroke-width:1.5;" x1="911.88" x2="1010.88" y1="1977.2559" y2="1977.2559"/><text fill="#000000" font-family="sans-serif" font-size="14" font-weight="bold" lengthAdjust="spacing" textLength="86" x="915.88" y="1969.7422">repositories</text></g><!--cluster domain--><g id="cluster_domain"><path d="M351.38,1314.6348 L403.38,1314.6348 A3.75,3.75 0 0 1 405.88,1317.1348 L412.88,1339.2559 L2103.38,1339.2559 A2.5,2.5 0 0 1 2105.88,1341.7559 L2105.88,1926.1348 A2.5,2.5 0 0 1 2103.38,1928.6348 L351.38,1928.6348 A2.5,2.5 0 0 1 348.88,1926.1348 L348.88,1317.1348 A2.5,2.5 0 0 1 351.38,1314.6348 " fill="none" style="stroke:#000000;stroke-width:1.5;"/><line style="stroke:#000000;stroke-width:1.5;" x1="348.88" x2="412.88" y1="1339.2559" y2="1339.2559"/><text fill="#000000" font-family="sans-serif" font-size="14" font-weight="bold" lengthAdjust="spacing" textLength="51" x="352.88" y="1331.7422">domain</text></g><!--cluster ecourseuserbuilders--><g id="cluster_ecourseuserbuilders"><path d="M375.38,1359.6348 L524.38,1359.6348 A3.75,3.75 0 0 1 526.88,1362.1348 L533.88,1384.2559 L1671.38,1384.2559 A2.5,2.5 0 0 1 1673.88,1386.7559 L1673.88,1659.1348 A2.5,2.5 0 0 1 1671.38,1661.6348 L375.38,1661.6348 A2.5,2.5 0 0 1 372.88,1659.1348 L372.88,1362.1348 A2.5,2.5 0 0 1 375.38,1359.6348 " fill="none" style="stroke:#000000;stroke-width:1.5;"/><line style="stroke:#000000;stroke-width:1.5;" x1="372.88" x2="533.88" y1="1384.2559" y2="1384.2559"/><text fill="#000000" font-family="sans-serif" font-size="14" font-weight="bold" lengthAdjust="spacing" textLength="148" x="376.88" y="1376.7422">ecourseuserbuilders</text></g><!--cluster application--><g id="cluster_application"><path d="M351.38,623.6348 L429.38,623.6348 A3.75,3.75 0 0 1 431.88,626.1348 L438.88,648.2559 L1645.38,648.2559 A2.5,2.5 0 0 1 1647.88,650.7559 L1647.88,1288.1348 A2.5,2.5 0 0 1 1645.38,1290.6348 L351.38,1290.6348 A2.5,2.5 0 0 1 348.88,1288.1348 L348.88,626.1348 A2.5,2.5 0 0 1 351.38,623.6348 " fill="none" style="stroke:#000000;stroke-width:1.5;"/><line style="stroke:#000000;stroke-width:1.5;" x1="348.88" x2="438.88" y1="648.2559" y2="648.2559"/><text fill="#000000" font-family="sans-serif" font-size="14" font-weight="bold" lengthAdjust="spacing" textLength="77" x="352.88" y="640.7422">application</text></g><!--cluster EAPLIFRAMEWORK--><g id="cluster_EAPLIFRAMEWORK"><path d="M1332.38,2374.6348 L1466.38,2374.6348 A3.75,3.75 0 0 1 1468.88,2377.1348 L1475.88,2399.2559 L1667.38,2399.2559 A2.5,2.5 0 0 1 1669.88,2401.7559 L1669.88,2705.1348 A2.5,2.5 0 0 1 1667.38,2707.6348 L1332.38,2707.6348 A2.5,2.5 0 0 1 1329.88,2705.1348 L1329.88,2377.1348 A2.5,2.5 0 0 1 1332.38,2374.6348 " fill="none" style="stroke:#000000;stroke-width:1.5;"/><line style="stroke:#000000;stroke-width:1.5;" x1="1329.88" x2="1475.88" y1="2399.2559" y2="2399.2559"/><text fill="#000000" font-family="sans-serif" font-size="14" font-weight="bold" lengthAdjust="spacing" textLength="133" x="1333.88" y="2391.7422">EAPLIFRAMEWORK</text></g><!--cluster usermanagement--><g id="cluster_usermanagement"><path d="M1696.38,2374.6348 L1819.38,2374.6348 A3.75,3.75 0 0 1 1821.88,2377.1348 L1828.88,2399.2559 L1971.38,2399.2559 A2.5,2.5 0 0 1 1973.88,2401.7559 L1973.88,2566.1348 A2.5,2.5 0 0 1 1971.38,2568.6348 L1696.38,2568.6348 A2.5,2.5 0 0 1 1693.88,2566.1348 L1693.88,2377.1348 A2.5,2.5 0 0 1 1696.38,2374.6348 " fill="none" style="stroke:#000000;stroke-width:1.5;"/><line style="stroke:#000000;stroke-width:1.5;" x1="1693.88" x2="1828.88" y1="2399.2559" y2="2399.2559"/><text fill="#000000" font-family="sans-serif" font-size="14" font-weight="bold" lengthAdjust="spacing" textLength="122" x="1697.88" y="2391.7422">usermanagement</text></g><!--class ManagerMenuUI--><g id="elem_ManagerMenuUI"><rect codeLine="7" fill="#F1F1F1" height="48" id="ManagerMenuUI" rx="2.5" ry="2.5" style="stroke:#181818;stroke-width:0.5;" width="135" x="79.38" y="406.6348"/><ellipse cx="94.38" cy="422.6348" fill="#ADD1B2" rx="11" ry="11" style="stroke:#181818;stroke-width:1.0;"/><path d="M97.1456,418.5098 Q97.3019,418.291 97.4894,418.1816 Q97.6769,418.0723 97.8956,418.0723 Q98.2706,418.0723 98.505,418.3379 Q98.7394,418.5879 98.7394,419.1973 L98.7394,420.6504 Q98.7394,421.2598 98.505,421.5254 Q98.2706,421.791 97.8956,421.791 Q97.5519,421.791 97.3488,421.5879 Q97.1456,421.4004 97.0363,420.8848 Q96.9894,420.5254 96.8019,420.3379 Q96.4738,419.9629 95.8644,419.7441 Q95.255,419.5254 94.63,419.5254 Q93.8644,419.5254 93.2238,419.8535 Q92.5988,420.1816 92.0988,420.9316 Q91.6144,421.6816 91.6144,422.7129 L91.6144,423.8066 Q91.6144,425.041 92.505,425.8691 Q93.3956,426.6816 94.9894,426.6816 Q95.9269,426.6816 96.5831,426.4316 Q96.9738,426.2754 97.3956,425.8379 Q97.6613,425.5723 97.8019,425.4941 Q97.9581,425.416 98.1613,425.416 Q98.4894,425.416 98.7394,425.6816 Q99.005,425.9316 99.005,426.2754 Q99.005,426.6191 98.6613,427.0254 Q98.1613,427.6035 97.3644,427.9316 Q96.2863,428.3848 94.9894,428.3848 Q93.4738,428.3848 92.2706,427.7598 Q91.2863,427.2598 90.5988,426.1973 Q89.9113,425.1191 89.9113,423.8379 L89.9113,422.6816 Q89.9113,421.3535 90.5206,420.2129 Q91.1456,419.0566 92.2394,418.4473 Q93.3331,417.8223 94.5675,417.8223 Q95.3019,417.8223 95.9425,417.9941 Q96.5988,418.1504 97.1456,418.5098 Z " fill="#000000"/><text fill="#000000" font-family="sans-serif" font-size="14" lengthAdjust="spacing" textLength="103" x="108.38" y="428.4316">ManagerMenuUI</text><line style="stroke:#181818;stroke-width:0.5;" x1="80.38" x2="213.38" y1="438.6348" y2="438.6348"/><line style="stroke:#181818;stroke-width:0.5;" x1="80.38" x2="213.38" y1="446.6348" y2="446.6348"/></g><!--class RegisterUserUI--><g id="elem_RegisterUserUI"><rect codeLine="10" fill="#F1F1F1" height="48" id="RegisterUserUI" rx="2.5" ry="2.5" style="stroke:#181818;stroke-width:0.5;" width="126" x="83.88" y="514.6348"/><ellipse cx="98.88" cy="530.6348" fill="#ADD1B2" rx="11" ry="11" style="stroke:#181818;stroke-width:1.0;"/><path d="M101.6456,526.5098 Q101.8019,526.291 101.9894,526.1816 Q102.1769,526.0723 102.3956,526.0723 Q102.7706,526.0723 103.005,526.3379 Q103.2394,526.5879 103.2394,527.1973 L103.2394,528.6504 Q103.2394,529.2598 103.005,529.5254 Q102.7706,529.791 102.3956,529.791 Q102.0519,529.791 101.8488,529.5879 Q101.6456,529.4004 101.5363,528.8848 Q101.4894,528.5254 101.3019,528.3379 Q100.9738,527.9629 100.3644,527.7441 Q99.755,527.5254 99.13,527.5254 Q98.3644,527.5254 97.7238,527.8535 Q97.0988,528.1816 96.5988,528.9316 Q96.1144,529.6816 96.1144,530.7129 L96.1144,531.8066 Q96.1144,533.041 97.005,533.8691 Q97.8956,534.6816 99.4894,534.6816 Q100.4269,534.6816 101.0831,534.4316 Q101.4738,534.2754 101.8956,533.8379 Q102.1613,533.5723 102.3019,533.4941 Q102.4581,533.416 102.6613,533.416 Q102.9894,533.416 103.2394,533.6816 Q103.505,533.9316 103.505,534.2754 Q103.505,534.6191 103.1613,535.0254 Q102.6613,535.6035 101.8644,535.9316 Q100.7863,536.3848 99.4894,536.3848 Q97.9738,536.3848 96.7706,535.7598 Q95.7863,535.2598 95.0988,534.1973 Q94.4113,533.1191 94.4113,531.8379 L94.4113,530.6816 Q94.4113,529.3535 95.0206,528.2129 Q95.6456,527.0566 96.7394,526.4473 Q97.8331,525.8223 99.0675,525.8223 Q99.8019,525.8223 100.4425,525.9941 Q101.0988,526.1504 101.6456,526.5098 Z " fill="#000000"/><text fill="#000000" font-family="sans-serif" font-size="14" lengthAdjust="spacing" textLength="94" x="112.88" y="536.4316">RegisterUserUI</text><line style="stroke:#181818;stroke-width:0.5;" x1="84.88" x2="208.88" y1="546.6348" y2="546.6348"/><line style="stroke:#181818;stroke-width:0.5;" x1="84.88" x2="208.88" y1="554.6348" y2="554.6348"/></g><!--class EnableUserUI--><g id="elem_EnableUserUI"><rect codeLine="13" fill="#F1F1F1" height="48" id="EnableUserUI" rx="2.5" ry="2.5" style="stroke:#181818;stroke-width:0.5;" width="117" x="167.38" y="82.6348"/><ellipse cx="182.38" cy="98.6348" fill="#ADD1B2" rx="11" ry="11" style="stroke:#181818;stroke-width:1.0;"/><path d="M185.1456,94.5098 Q185.3019,94.291 185.4894,94.1816 Q185.6769,94.0723 185.8956,94.0723 Q186.2706,94.0723 186.505,94.3379 Q186.7394,94.5879 186.7394,95.1973 L186.7394,96.6504 Q186.7394,97.2598 186.505,97.5254 Q186.2706,97.791 185.8956,97.791 Q185.5519,97.791 185.3488,97.5879 Q185.1456,97.4004 185.0363,96.8848 Q184.9894,96.5254 184.8019,96.3379 Q184.4738,95.9629 183.8644,95.7441 Q183.255,95.5254 182.63,95.5254 Q181.8644,95.5254 181.2238,95.8535 Q180.5988,96.1816 180.0988,96.9316 Q179.6144,97.6816 179.6144,98.7129 L179.6144,99.8066 Q179.6144,101.041 180.505,101.8691 Q181.3956,102.6816 182.9894,102.6816 Q183.9269,102.6816 184.5831,102.4316 Q184.9738,102.2754 185.3956,101.8379 Q185.6613,101.5723 185.8019,101.4941 Q185.9581,101.416 186.1613,101.416 Q186.4894,101.416 186.7394,101.6816 Q187.005,101.9316 187.005,102.2754 Q187.005,102.6191 186.6613,103.0254 Q186.1613,103.6035 185.3644,103.9316 Q184.2863,104.3848 182.9894,104.3848 Q181.4738,104.3848 180.2706,103.7598 Q179.2863,103.2598 178.5988,102.1973 Q177.9113,101.1191 177.9113,99.8379 L177.9113,98.6816 Q177.9113,97.3535 178.5206,96.2129 Q179.1456,95.0566 180.2394,94.4473 Q181.3331,93.8223 182.5675,93.8223 Q183.3019,93.8223 183.9425,93.9941 Q184.5988,94.1504 185.1456,94.5098 Z " fill="#000000"/><text fill="#000000" font-family="sans-serif" font-size="14" lengthAdjust="spacing" textLength="85" x="196.38" y="104.4316">EnableUserUI</text><line style="stroke:#181818;stroke-width:0.5;" x1="168.38" x2="283.38" y1="114.6348" y2="114.6348"/><line style="stroke:#181818;stroke-width:0.5;" x1="168.38" x2="283.38" y1="122.6348" y2="122.6348"/></g><!--class DisableUserUI--><g id="elem_DisableUserUI"><rect codeLine="16" fill="#F1F1F1" height="48" id="DisableUserUI" rx="2.5" ry="2.5" style="stroke:#181818;stroke-width:0.5;" width="120" x="127.88" y="190.6348"/><ellipse cx="142.88" cy="206.6348" fill="#ADD1B2" rx="11" ry="11" style="stroke:#181818;stroke-width:1.0;"/><path d="M145.6456,202.5098 Q145.8019,202.291 145.9894,202.1816 Q146.1769,202.0723 146.3956,202.0723 Q146.7706,202.0723 147.005,202.3379 Q147.2394,202.5879 147.2394,203.1973 L147.2394,204.6504 Q147.2394,205.2598 147.005,205.5254 Q146.7706,205.791 146.3956,205.791 Q146.0519,205.791 145.8488,205.5879 Q145.6456,205.4004 145.5363,204.8848 Q145.4894,204.5254 145.3019,204.3379 Q144.9738,203.9629 144.3644,203.7441 Q143.755,203.5254 143.13,203.5254 Q142.3644,203.5254 141.7238,203.8535 Q141.0988,204.1816 140.5988,204.9316 Q140.1144,205.6816 140.1144,206.7129 L140.1144,207.8066 Q140.1144,209.041 141.005,209.8691 Q141.8956,210.6816 143.4894,210.6816 Q144.4269,210.6816 145.0831,210.4316 Q145.4738,210.2754 145.8956,209.8379 Q146.1613,209.5723 146.3019,209.4941 Q146.4581,209.416 146.6613,209.416 Q146.9894,209.416 147.2394,209.6816 Q147.505,209.9316 147.505,210.2754 Q147.505,210.6191 147.1613,211.0254 Q146.6613,211.6035 145.8644,211.9316 Q144.7863,212.3848 143.4894,212.3848 Q141.9738,212.3848 140.7706,211.7598 Q139.7863,211.2598 139.0988,210.1973 Q138.4113,209.1191 138.4113,207.8379 L138.4113,206.6816 Q138.4113,205.3535 139.0206,204.2129 Q139.6456,203.0566 140.7394,202.4473 Q141.8331,201.8223 143.0675,201.8223 Q143.8019,201.8223 144.4425,201.9941 Q145.0988,202.1504 145.6456,202.5098 Z " fill="#000000"/><text fill="#000000" font-family="sans-serif" font-size="14" lengthAdjust="spacing" textLength="88" x="156.88" y="212.4316">DisableUserUI</text><line style="stroke:#181818;stroke-width:0.5;" x1="128.88" x2="246.88" y1="222.6348" y2="222.6348"/><line style="stroke:#181818;stroke-width:0.5;" x1="128.88" x2="246.88" y1="230.6348" y2="230.6348"/></g><!--class ListUsersUI--><g id="elem_ListUsersUI"><rect codeLine="19" fill="#F1F1F1" height="48" id="ListUsersUI" rx="2.5" ry="2.5" style="stroke:#181818;stroke-width:0.5;" width="102" x="182.88" y="298.6348"/><ellipse cx="197.88" cy="314.6348" fill="#ADD1B2" rx="11" ry="11" style="stroke:#181818;stroke-width:1.0;"/><path d="M200.6456,310.5098 Q200.8019,310.291 200.9894,310.1816 Q201.1769,310.0723 201.3956,310.0723 Q201.7706,310.0723 202.005,310.3379 Q202.2394,310.5879 202.2394,311.1973 L202.2394,312.6504 Q202.2394,313.2598 202.005,313.5254 Q201.7706,313.791 201.3956,313.791 Q201.0519,313.791 200.8488,313.5879 Q200.6456,313.4004 200.5363,312.8848 Q200.4894,312.5254 200.3019,312.3379 Q199.9738,311.9629 199.3644,311.7441 Q198.755,311.5254 198.13,311.5254 Q197.3644,311.5254 196.7238,311.8535 Q196.0988,312.1816 195.5988,312.9316 Q195.1144,313.6816 195.1144,314.7129 L195.1144,315.8066 Q195.1144,317.041 196.005,317.8691 Q196.8956,318.6816 198.4894,318.6816 Q199.4269,318.6816 200.0831,318.4316 Q200.4738,318.2754 200.8956,317.8379 Q201.1613,317.5723 201.3019,317.4941 Q201.4581,317.416 201.6613,317.416 Q201.9894,317.416 202.2394,317.6816 Q202.505,317.9316 202.505,318.2754 Q202.505,318.6191 202.1613,319.0254 Q201.6613,319.6035 200.8644,319.9316 Q199.7863,320.3848 198.4894,320.3848 Q196.9738,320.3848 195.7706,319.7598 Q194.7863,319.2598 194.0988,318.1973 Q193.4113,317.1191 193.4113,315.8379 L193.4113,314.6816 Q193.4113,313.3535 194.0206,312.2129 Q194.6456,311.0566 195.7394,310.4473 Q196.8331,309.8223 198.0675,309.8223 Q198.8019,309.8223 199.4425,309.9941 Q200.0988,310.1504 200.6456,310.5098 Z " fill="#000000"/><text fill="#000000" font-family="sans-serif" font-size="14" lengthAdjust="spacing" textLength="70" x="211.88" y="320.4316">ListUsersUI</text><line style="stroke:#181818;stroke-width:0.5;" x1="183.88" x2="283.88" y1="330.6348" y2="330.6348"/><line style="stroke:#181818;stroke-width:0.5;" x1="183.88" x2="283.88" y1="338.6348" y2="338.6348"/></g><!--class RegisterManagerUI--><g id="elem_RegisterManagerUI"><rect codeLine="22" fill="#F1F1F1" height="48" id="RegisterManagerUI" rx="2.5" ry="2.5" style="stroke:#181818;stroke-width:0.5;" width="153" x="98.38" y="1034.6348"/><ellipse cx="113.38" cy="1050.6348" fill="#ADD1B2" rx="11" ry="11" style="stroke:#181818;stroke-width:1.0;"/><path d="M116.1456,1046.5098 Q116.3019,1046.291 116.4894,1046.1816 Q116.6769,1046.0723 116.8956,1046.0723 Q117.2706,1046.0723 117.505,1046.3379 Q117.7394,1046.5879 117.7394,1047.1973 L117.7394,1048.6504 Q117.7394,1049.2598 117.505,1049.5254 Q117.2706,1049.791 116.8956,1049.791 Q116.5519,1049.791 116.3488,1049.5879 Q116.1456,1049.4004 116.0363,1048.8848 Q115.9894,1048.5254 115.8019,1048.3379 Q115.4738,1047.9629 114.8644,1047.7441 Q114.255,1047.5254 113.63,1047.5254 Q112.8644,1047.5254 112.2238,1047.8535 Q111.5988,1048.1816 111.0988,1048.9316 Q110.6144,1049.6816 110.6144,1050.7129 L110.6144,1051.8066 Q110.6144,1053.041 111.505,1053.8691 Q112.3956,1054.6816 113.9894,1054.6816 Q114.9269,1054.6816 115.5831,1054.4316 Q115.9738,1054.2754 116.3956,1053.8379 Q116.6613,1053.5723 116.8019,1053.4941 Q116.9581,1053.416 117.1613,1053.416 Q117.4894,1053.416 117.7394,1053.6816 Q118.005,1053.9316 118.005,1054.2754 Q118.005,1054.6191 117.6613,1055.0254 Q117.1613,1055.6035 116.3644,1055.9316 Q115.2863,1056.3848 113.9894,1056.3848 Q112.4738,1056.3848 111.2706,1055.7598 Q110.2863,1055.2598 109.5988,1054.1973 Q108.9113,1053.1191 108.9113,1051.8379 L108.9113,1050.6816 Q108.9113,1049.3535 109.5206,1048.2129 Q110.1456,1047.0566 111.2394,1046.4473 Q112.3331,1045.8223 113.5675,1045.8223 Q114.3019,1045.8223 114.9425,1045.9941 Q115.5988,1046.1504 116.1456,1046.5098 Z " fill="#000000"/><text fill="#000000" font-family="sans-serif" font-size="14" lengthAdjust="spacing" textLength="121" x="127.38" y="1056.4316">RegisterManagerUI</text><line style="stroke:#181818;stroke-width:0.5;" x1="99.38" x2="250.38" y1="1066.6348" y2="1066.6348"/><line style="stroke:#181818;stroke-width:0.5;" x1="99.38" x2="250.38" y1="1074.6348" y2="1074.6348"/></g><!--class RegisterTeacherUI--><g id="elem_RegisterTeacherUI"><rect codeLine="25" fill="#F1F1F1" height="48" id="RegisterTeacherUI" rx="2.5" ry="2.5" style="stroke:#181818;stroke-width:0.5;" width="150" x="117.88" y="870.6348"/><ellipse cx="132.88" cy="886.6348" fill="#ADD1B2" rx="11" ry="11" style="stroke:#181818;stroke-width:1.0;"/><path d="M135.6456,882.5098 Q135.8019,882.291 135.9894,882.1816 Q136.1769,882.0723 136.3956,882.0723 Q136.7706,882.0723 137.005,882.3379 Q137.2394,882.5879 137.2394,883.1973 L137.2394,884.6504 Q137.2394,885.2598 137.005,885.5254 Q136.7706,885.791 136.3956,885.791 Q136.0519,885.791 135.8488,885.5879 Q135.6456,885.4004 135.5363,884.8848 Q135.4894,884.5254 135.3019,884.3379 Q134.9738,883.9629 134.3644,883.7441 Q133.755,883.5254 133.13,883.5254 Q132.3644,883.5254 131.7238,883.8535 Q131.0988,884.1816 130.5988,884.9316 Q130.1144,885.6816 130.1144,886.7129 L130.1144,887.8066 Q130.1144,889.041 131.005,889.8691 Q131.8956,890.6816 133.4894,890.6816 Q134.4269,890.6816 135.0831,890.4316 Q135.4738,890.2754 135.8956,889.8379 Q136.1613,889.5723 136.3019,889.4941 Q136.4581,889.416 136.6613,889.416 Q136.9894,889.416 137.2394,889.6816 Q137.505,889.9316 137.505,890.2754 Q137.505,890.6191 137.1613,891.0254 Q136.6613,891.6035 135.8644,891.9316 Q134.7863,892.3848 133.4894,892.3848 Q131.9738,892.3848 130.7706,891.7598 Q129.7863,891.2598 129.0988,890.1973 Q128.4113,889.1191 128.4113,887.8379 L128.4113,886.6816 Q128.4113,885.3535 129.0206,884.2129 Q129.6456,883.0566 130.7394,882.4473 Q131.8331,881.8223 133.0675,881.8223 Q133.8019,881.8223 134.4425,881.9941 Q135.0988,882.1504 135.6456,882.5098 Z " fill="#000000"/><text fill="#000000" font-family="sans-serif" font-size="14" lengthAdjust="spacing" textLength="118" x="146.88" y="892.4316">RegisterTeacherUI</text><line style="stroke:#181818;stroke-width:0.5;" x1="118.88" x2="266.88" y1="902.6348" y2="902.6348"/><line style="stroke:#181818;stroke-width:0.5;" x1="118.88" x2="266.88" y1="910.6348" y2="910.6348"/></g><!--class RegisterStudentUI--><g id="elem_RegisterStudentUI"><rect codeLine="28" fill="#F1F1F1" height="48" id="RegisterStudentUI" rx="2.5" ry="2.5" style="stroke:#181818;stroke-width:0.5;" width="146" x="138.88" y="697.6348"/><ellipse cx="153.88" cy="713.6348" fill="#ADD1B2" rx="11" ry="11" style="stroke:#181818;stroke-width:1.0;"/><path d="M156.6456,709.5098 Q156.8019,709.291 156.9894,709.1816 Q157.1769,709.0723 157.3956,709.0723 Q157.7706,709.0723 158.005,709.3379 Q158.2394,709.5879 158.2394,710.1973 L158.2394,711.6504 Q158.2394,712.2598 158.005,712.5254 Q157.7706,712.791 157.3956,712.791 Q157.0519,712.791 156.8488,712.5879 Q156.6456,712.4004 156.5363,711.8848 Q156.4894,711.5254 156.3019,711.3379 Q155.9738,710.9629 155.3644,710.7441 Q154.755,710.5254 154.13,710.5254 Q153.3644,710.5254 152.7238,710.8535 Q152.0988,711.1816 151.5988,711.9316 Q151.1144,712.6816 151.1144,713.7129 L151.1144,714.8066 Q151.1144,716.041 152.005,716.8691 Q152.8956,717.6816 154.4894,717.6816 Q155.4269,717.6816 156.0831,717.4316 Q156.4738,717.2754 156.8956,716.8379 Q157.1613,716.5723 157.3019,716.4941 Q157.4581,716.416 157.6613,716.416 Q157.9894,716.416 158.2394,716.6816 Q158.505,716.9316 158.505,717.2754 Q158.505,717.6191 158.1613,718.0254 Q157.6613,718.6035 156.8644,718.9316 Q155.7863,719.3848 154.4894,719.3848 Q152.9738,719.3848 151.7706,718.7598 Q150.7863,718.2598 150.0988,717.1973 Q149.4113,716.1191 149.4113,714.8379 L149.4113,713.6816 Q149.4113,712.3535 150.0206,711.2129 Q150.6456,710.0566 151.7394,709.4473 Q152.8331,708.8223 154.0675,708.8223 Q154.8019,708.8223 155.4425,708.9941 Q156.0988,709.1504 156.6456,709.5098 Z " fill="#000000"/><text fill="#000000" font-family="sans-serif" font-size="14" lengthAdjust="spacing" textLength="114" x="167.88" y="719.4316">RegisterStudentUI</text><line style="stroke:#181818;stroke-width:0.5;" x1="139.88" x2="283.88" y1="729.6348" y2="729.6348"/><line style="stroke:#181818;stroke-width:0.5;" x1="139.88" x2="283.88" y1="737.6348" y2="737.6348"/></g><!--class IeCourseUserRepository--><g id="elem_IeCourseUserRepository"><rect codeLine="48" fill="#F1F1F1" height="122.4844" id="IeCourseUserRepository" rx="2.5" ry="2.5" style="stroke:#181818;stroke-width:0.5;" width="563" x="928.38" y="1989.6348"/><ellipse cx="1127.63" cy="2005.6348" fill="#B4A7E5" rx="11" ry="11" style="stroke:#181818;stroke-width:1.0;"/><path d="M1128.5831,2002.2754 L1128.5831,2008.9316 L1130.3019,2008.9316 Q1130.9113,2008.9316 1131.1769,2009.166 Q1131.4425,2009.4004 1131.4425,2009.791 Q1131.4425,2010.166 1131.1769,2010.4004 Q1130.9113,2010.6348 1130.3019,2010.6348 L1125.1613,2010.6348 Q1124.5519,2010.6348 1124.2863,2010.4004 Q1124.0206,2010.166 1124.0206,2009.7754 Q1124.0206,2009.4004 1124.2863,2009.166 Q1124.5519,2008.9316 1125.1613,2008.9316 L1126.88,2008.9316 L1126.88,2002.2754 L1125.1613,2002.2754 Q1124.5519,2002.2754 1124.2863,2002.041 Q1124.0206,2001.8066 1124.0206,2001.416 Q1124.0206,2001.041 1124.2863,2000.8066 Q1124.5519,2000.5723 1125.1613,2000.5723 L1130.3019,2000.5723 Q1130.9113,2000.5723 1131.1769,2000.8066 Q1131.4425,2001.041 1131.4425,2001.416 Q1131.4425,2001.8066 1131.1769,2002.041 Q1130.9113,2002.2754 1130.3019,2002.2754 L1128.5831,2002.2754 Z " fill="#000000"/><text fill="#000000" font-family="sans-serif" font-size="14" font-style="italic" lengthAdjust="spacing" textLength="156" x="1148.13" y="2011.4316">IeCourseUserRepository</text><line style="stroke:#181818;stroke-width:0.5;" x1="929.38" x2="1490.38" y1="2021.6348" y2="2021.6348"/><line style="stroke:#181818;stroke-width:0.5;" x1="929.38" x2="1490.38" y1="2029.6348" y2="2029.6348"/><text fill="#000000" font-family="sans-serif" font-size="14" lengthAdjust="spacing" textLength="299" x="934.38" y="2048.7422">+findAllEnabledUsers(): Iterable&lt;ECourseUser&gt;</text><text fill="#000000" font-family="sans-serif" font-size="14" lengthAdjust="spacing" textLength="302" x="934.38" y="2067.3633">+findAllDisabledUsers(): Iterable&lt;ECourseUser&gt;</text><text fill="#000000" font-family="sans-serif" font-size="14" lengthAdjust="spacing" textLength="247" x="934.38" y="2085.9844">+findAllUsers(): Iterable&lt;ECourseUser&gt;</text><text fill="#000000" font-family="sans-serif" font-size="14" lengthAdjust="spacing" textLength="551" x="934.38" y="2104.6055">+findLastMechanographicNumberInYear(year): Optional&lt;UserMechanographicNumber&gt;</text></g><g id="elem_GMN26"><path d="M1052.88,2171.6348 L1052.88,2310.6719 A0,0 0 0 0 1052.88,2310.6719 L1366.88,2310.6719 A0,0 0 0 0 1366.88,2310.6719 L1366.88,2181.6348 L1356.88,2171.6348 L1213.88,2171.6348 L1209.88,2111.7948 L1205.88,2171.6348 L1052.88,2171.6348 A0,0 0 0 0 1052.88,2171.6348 " fill="#FEFFDD" style="stroke:#181818;stroke-width:0.5;"/><path d="M1356.88,2171.6348 L1356.88,2181.6348 L1366.88,2181.6348 L1356.88,2171.6348 " fill="#FEFFDD" style="stroke:#181818;stroke-width:0.5;"/><text fill="#000000" font-family="sans-serif" font-size="13" lengthAdjust="spacing" textLength="280" x="1058.88" y="2190.6631">In order to reduce the complexity of the diagram,</text><text fill="#000000" font-family="sans-serif" font-size="13" lengthAdjust="spacing" textLength="293" x="1058.88" y="2207.9541">there are not represented the connections between</text><text fill="#000000" font-family="sans-serif" font-size="13" lengthAdjust="spacing" textLength="171" x="1058.88" y="2225.2451">the controllers and this class.</text><line style="stroke:#181818;stroke-width:1.0;" x1="1053.88" x2="1365.88" y1="2228.5078" y2="2228.5078"/><text fill="#000000" font-family="sans-serif" font-size="13" lengthAdjust="spacing" textLength="259" x="1058.88" y="2246.5361">This interface extends the DomainRepository</text><text fill="#000000" font-family="sans-serif" font-size="13" lengthAdjust="spacing" textLength="260" x="1058.88" y="2263.8271">interface, which is not shown in this diagram,</text><text fill="#000000" font-family="sans-serif" font-size="13" lengthAdjust="spacing" textLength="283" x="1058.88" y="2281.1182">as it is part of the EAPLIFRAMEWORK, and it is</text><text fill="#000000" font-family="sans-serif" font-size="13" lengthAdjust="spacing" textLength="154" x="1058.88" y="2298.4092">not relevant to represent it.</text></g><!--class ECourseUser--><g id="elem_ECourseUser"><rect codeLine="67" fill="#F1F1F1" height="48" id="ECourseUser" rx="2.5" ry="2.5" style="stroke:#181818;stroke-width:0.5;" width="116" x="1027.88" y="1712.6348"/><ellipse cx="1042.88" cy="1728.6348" fill="#ADD1B2" rx="11" ry="11" style="stroke:#181818;stroke-width:1.0;"/><path d="M1045.6456,1724.5098 Q1045.8019,1724.291 1045.9894,1724.1816 Q1046.1769,1724.0723 1046.3956,1724.0723 Q1046.7706,1724.0723 1047.005,1724.3379 Q1047.2394,1724.5879 1047.2394,1725.1973 L1047.2394,1726.6504 Q1047.2394,1727.2598 1047.005,1727.5254 Q1046.7706,1727.791 1046.3956,1727.791 Q1046.0519,1727.791 1045.8488,1727.5879 Q1045.6456,1727.4004 1045.5363,1726.8848 Q1045.4894,1726.5254 1045.3019,1726.3379 Q1044.9738,1725.9629 1044.3644,1725.7441 Q1043.755,1725.5254 1043.13,1725.5254 Q1042.3644,1725.5254 1041.7238,1725.8535 Q1041.0988,1726.1816 1040.5988,1726.9316 Q1040.1144,1727.6816 1040.1144,1728.7129 L1040.1144,1729.8066 Q1040.1144,1731.041 1041.005,1731.8691 Q1041.8956,1732.6816 1043.4894,1732.6816 Q1044.4269,1732.6816 1045.0831,1732.4316 Q1045.4738,1732.2754 1045.8956,1731.8379 Q1046.1613,1731.5723 1046.3019,1731.4941 Q1046.4581,1731.416 1046.6613,1731.416 Q1046.9894,1731.416 1047.2394,1731.6816 Q1047.505,1731.9316 1047.505,1732.2754 Q1047.505,1732.6191 1047.1613,1733.0254 Q1046.6613,1733.6035 1045.8644,1733.9316 Q1044.7863,1734.3848 1043.4894,1734.3848 Q1041.9738,1734.3848 1040.7706,1733.7598 Q1039.7863,1733.2598 1039.0988,1732.1973 Q1038.4113,1731.1191 1038.4113,1729.8379 L1038.4113,1728.6816 Q1038.4113,1727.3535 1039.0206,1726.2129 Q1039.6456,1725.0566 1040.7394,1724.4473 Q1041.8331,1723.8223 1043.0675,1723.8223 Q1043.8019,1723.8223 1044.4425,1723.9941 Q1045.0988,1724.1504 1045.6456,1724.5098 Z " fill="#000000"/><text fill="#000000" font-family="sans-serif" font-size="14" lengthAdjust="spacing" textLength="84" x="1056.88" y="1734.4316">ECourseUser</text><line style="stroke:#181818;stroke-width:0.5;" x1="1028.88" x2="1142.88" y1="1744.6348" y2="1744.6348"/><line style="stroke:#181818;stroke-width:0.5;" x1="1028.88" x2="1142.88" y1="1752.6348" y2="1752.6348"/></g><g id="elem_GMN31"><path d="M1178.88,1705.6348 L1178.88,1732.6348 L1143.99,1736.6348 L1178.88,1740.6348 L1178.88,1767.5078 A0,0 0 0 0 1178.88,1767.5078 L1492.88,1767.5078 A0,0 0 0 0 1492.88,1767.5078 L1492.88,1715.6348 L1482.88,1705.6348 L1178.88,1705.6348 A0,0 0 0 0 1178.88,1705.6348 " fill="#FEFFDD" style="stroke:#181818;stroke-width:0.5;"/><path d="M1482.88,1705.6348 L1482.88,1715.6348 L1492.88,1715.6348 L1482.88,1705.6348 " fill="#FEFFDD" style="stroke:#181818;stroke-width:0.5;"/><text fill="#000000" font-family="sans-serif" font-size="13" lengthAdjust="spacing" textLength="280" x="1184.88" y="1724.6631">In order to reduce the complexity of the diagram,</text><text fill="#000000" font-family="sans-serif" font-size="13" lengthAdjust="spacing" textLength="293" x="1184.88" y="1741.9541">there are not represented the connections between</text><text fill="#000000" font-family="sans-serif" font-size="13" lengthAdjust="spacing" textLength="171" x="1184.88" y="1759.2451">the controllers and this class.</text></g><!--class UserState--><g id="elem_UserState"><rect codeLine="74" fill="#F1F1F1" height="85.2422" id="UserState" rx="2.5" ry="2.5" style="stroke:#181818;stroke-width:0.5;" width="94" x="667.88" y="1827.6348"/><ellipse cx="682.88" cy="1843.6348" fill="#EB937F" rx="11" ry="11" style="stroke:#181818;stroke-width:1.0;"/><path d="M681.7394,1844.4316 L681.7394,1846.9316 L686.0675,1846.9316 L686.0675,1846.0098 Q686.0675,1845.4004 686.3019,1845.1348 Q686.5519,1844.8691 686.9269,1844.8691 Q687.3019,1844.8691 687.5363,1845.1348 Q687.7706,1845.4004 687.7706,1846.0098 L687.7706,1848.6348 L679.7706,1848.6348 Q679.1456,1848.6348 678.88,1848.4004 Q678.63,1848.166 678.63,1847.7754 Q678.63,1847.4004 678.8956,1847.166 Q679.1613,1846.9316 679.7706,1846.9316 L680.0363,1846.9316 L680.0363,1840.2754 L679.7706,1840.2754 Q679.1456,1840.2754 678.88,1840.041 Q678.63,1839.8066 678.63,1839.416 Q678.63,1839.041 678.88,1838.8066 Q679.1456,1838.5723 679.7706,1838.5723 L687.3956,1838.5723 L687.3956,1841.166 Q687.3956,1841.7754 687.1613,1842.041 Q686.9425,1842.291 686.5519,1842.291 Q686.1769,1842.291 685.9425,1842.041 Q685.7081,1841.7754 685.7081,1841.166 L685.7081,1840.2754 L681.7394,1840.2754 L681.7394,1842.7285 L683.2238,1842.7285 Q683.2238,1842.0723 683.3488,1841.8848 Q683.6144,1841.4785 684.0831,1841.4785 Q684.4581,1841.4785 684.6925,1841.7441 Q684.9269,1841.9941 684.9269,1842.6035 L684.9269,1844.5723 Q684.9269,1845.1191 684.8019,1845.3066 Q684.5363,1845.6973 684.0831,1845.6973 Q683.6144,1845.6973 683.3488,1845.291 Q683.2238,1845.1035 683.2238,1844.4316 L681.7394,1844.4316 Z " fill="#000000"/><text fill="#000000" font-family="sans-serif" font-size="14" lengthAdjust="spacing" textLength="62" x="696.88" y="1849.4316">UserState</text><line style="stroke:#181818;stroke-width:0.5;" x1="668.88" x2="760.88" y1="1859.6348" y2="1859.6348"/><text fill="#000000" font-family="sans-serif" font-size="14" lengthAdjust="spacing" textLength="63" x="673.88" y="1878.7422">ENABLED</text><text fill="#000000" font-family="sans-serif" font-size="14" lengthAdjust="spacing" textLength="67" x="673.88" y="1897.3633">DISABLED</text><line style="stroke:#181818;stroke-width:0.5;" x1="668.88" x2="760.88" y1="1904.877" y2="1904.877"/></g><!--class UserBirthdate--><g id="elem_UserBirthdate"><rect codeLine="78" fill="#F1F1F1" height="66.6211" id="UserBirthdate" rx="2.5" ry="2.5" style="stroke:#181818;stroke-width:0.5;" width="145" x="797.38" y="1836.6348"/><ellipse cx="824.53" cy="1852.6348" fill="#ADD1B2" rx="11" ry="11" style="stroke:#181818;stroke-width:1.0;"/><path d="M827.2956,1848.5098 Q827.4519,1848.291 827.6394,1848.1816 Q827.8269,1848.0723 828.0456,1848.0723 Q828.4206,1848.0723 828.655,1848.3379 Q828.8894,1848.5879 828.8894,1849.1973 L828.8894,1850.6504 Q828.8894,1851.2598 828.655,1851.5254 Q828.4206,1851.791 828.0456,1851.791 Q827.7019,1851.791 827.4988,1851.5879 Q827.2956,1851.4004 827.1863,1850.8848 Q827.1394,1850.5254 826.9519,1850.3379 Q826.6238,1849.9629 826.0144,1849.7441 Q825.405,1849.5254 824.78,1849.5254 Q824.0144,1849.5254 823.3738,1849.8535 Q822.7488,1850.1816 822.2488,1850.9316 Q821.7644,1851.6816 821.7644,1852.7129 L821.7644,1853.8066 Q821.7644,1855.041 822.655,1855.8691 Q823.5456,1856.6816 825.1394,1856.6816 Q826.0769,1856.6816 826.7331,1856.4316 Q827.1238,1856.2754 827.5456,1855.8379 Q827.8113,1855.5723 827.9519,1855.4941 Q828.1081,1855.416 828.3113,1855.416 Q828.6394,1855.416 828.8894,1855.6816 Q829.155,1855.9316 829.155,1856.2754 Q829.155,1856.6191 828.8113,1857.0254 Q828.3113,1857.6035 827.5144,1857.9316 Q826.4363,1858.3848 825.1394,1858.3848 Q823.6238,1858.3848 822.4206,1857.7598 Q821.4363,1857.2598 820.7488,1856.1973 Q820.0613,1855.1191 820.0613,1853.8379 L820.0613,1852.6816 Q820.0613,1851.3535 820.6706,1850.2129 Q821.2956,1849.0566 822.3894,1848.4473 Q823.4831,1847.8223 824.7175,1847.8223 Q825.4519,1847.8223 826.0925,1847.9941 Q826.7488,1848.1504 827.2956,1848.5098 Z " fill="#000000"/><text fill="#000000" font-family="sans-serif" font-size="14" lengthAdjust="spacing" textLength="86" x="841.23" y="1858.4316">UserBirthdate</text><line style="stroke:#181818;stroke-width:0.5;" x1="798.38" x2="941.38" y1="1868.6348" y2="1868.6348"/><text fill="#000000" font-family="sans-serif" font-size="14" lengthAdjust="spacing" textLength="133" x="803.38" y="1887.7422">-birthdate: LocalDate</text><line style="stroke:#181818;stroke-width:0.5;" x1="798.38" x2="941.38" y1="1895.2559" y2="1895.2559"/></g><!--class UserMechanographicNumber--><g id="elem_UserMechanographicNumber"><rect codeLine="81" fill="#F1F1F1" height="66.6211" id="UserMechanographicNumber" rx="2.5" ry="2.5" style="stroke:#181818;stroke-width:0.5;" width="216" x="977.88" y="1836.6348"/><ellipse cx="993.33" cy="1852.6348" fill="#ADD1B2" rx="11" ry="11" style="stroke:#181818;stroke-width:1.0;"/><path d="M996.0956,1848.5098 Q996.2519,1848.291 996.4394,1848.1816 Q996.6269,1848.0723 996.8456,1848.0723 Q997.2206,1848.0723 997.455,1848.3379 Q997.6894,1848.5879 997.6894,1849.1973 L997.6894,1850.6504 Q997.6894,1851.2598 997.455,1851.5254 Q997.2206,1851.791 996.8456,1851.791 Q996.5019,1851.791 996.2988,1851.5879 Q996.0956,1851.4004 995.9863,1850.8848 Q995.9394,1850.5254 995.7519,1850.3379 Q995.4238,1849.9629 994.8144,1849.7441 Q994.205,1849.5254 993.58,1849.5254 Q992.8144,1849.5254 992.1738,1849.8535 Q991.5488,1850.1816 991.0488,1850.9316 Q990.5644,1851.6816 990.5644,1852.7129 L990.5644,1853.8066 Q990.5644,1855.041 991.455,1855.8691 Q992.3456,1856.6816 993.9394,1856.6816 Q994.8769,1856.6816 995.5331,1856.4316 Q995.9238,1856.2754 996.3456,1855.8379 Q996.6113,1855.5723 996.7519,1855.4941 Q996.9081,1855.416 997.1113,1855.416 Q997.4394,1855.416 997.6894,1855.6816 Q997.955,1855.9316 997.955,1856.2754 Q997.955,1856.6191 997.6113,1857.0254 Q997.1113,1857.6035 996.3144,1857.9316 Q995.2363,1858.3848 993.9394,1858.3848 Q992.4238,1858.3848 991.2206,1857.7598 Q990.2363,1857.2598 989.5488,1856.1973 Q988.8613,1855.1191 988.8613,1853.8379 L988.8613,1852.6816 Q988.8613,1851.3535 989.4706,1850.2129 Q990.0956,1849.0566 991.1894,1848.4473 Q992.2831,1847.8223 993.5175,1847.8223 Q994.2519,1847.8223 994.8925,1847.9941 Q995.5488,1848.1504 996.0956,1848.5098 Z " fill="#000000"/><text fill="#000000" font-family="sans-serif" font-size="14" lengthAdjust="spacing" textLength="183" x="1007.43" y="1858.4316">UserMechanographicNumber</text><line style="stroke:#181818;stroke-width:0.5;" x1="978.88" x2="1192.88" y1="1868.6348" y2="1868.6348"/><text fill="#000000" font-family="sans-serif" font-size="14" lengthAdjust="spacing" textLength="204" x="983.88" y="1887.7422">-mechanographicNumber: String</text><line style="stroke:#181818;stroke-width:0.5;" x1="978.88" x2="1192.88" y1="1895.2559" y2="1895.2559"/></g><!--class UserAcronym--><g id="elem_UserAcronym"><rect codeLine="84" fill="#F1F1F1" height="66.6211" id="UserAcronym" rx="2.5" ry="2.5" style="stroke:#181818;stroke-width:0.5;" width="116" x="1228.88" y="1836.6348"/><ellipse cx="1243.88" cy="1852.6348" fill="#ADD1B2" rx="11" ry="11" style="stroke:#181818;stroke-width:1.0;"/><path d="M1246.6456,1848.5098 Q1246.8019,1848.291 1246.9894,1848.1816 Q1247.1769,1848.0723 1247.3956,1848.0723 Q1247.7706,1848.0723 1248.005,1848.3379 Q1248.2394,1848.5879 1248.2394,1849.1973 L1248.2394,1850.6504 Q1248.2394,1851.2598 1248.005,1851.5254 Q1247.7706,1851.791 1247.3956,1851.791 Q1247.0519,1851.791 1246.8488,1851.5879 Q1246.6456,1851.4004 1246.5363,1850.8848 Q1246.4894,1850.5254 1246.3019,1850.3379 Q1245.9738,1849.9629 1245.3644,1849.7441 Q1244.755,1849.5254 1244.13,1849.5254 Q1243.3644,1849.5254 1242.7238,1849.8535 Q1242.0988,1850.1816 1241.5988,1850.9316 Q1241.1144,1851.6816 1241.1144,1852.7129 L1241.1144,1853.8066 Q1241.1144,1855.041 1242.005,1855.8691 Q1242.8956,1856.6816 1244.4894,1856.6816 Q1245.4269,1856.6816 1246.0831,1856.4316 Q1246.4738,1856.2754 1246.8956,1855.8379 Q1247.1613,1855.5723 1247.3019,1855.4941 Q1247.4581,1855.416 1247.6613,1855.416 Q1247.9894,1855.416 1248.2394,1855.6816 Q1248.505,1855.9316 1248.505,1856.2754 Q1248.505,1856.6191 1248.1613,1857.0254 Q1247.6613,1857.6035 1246.8644,1857.9316 Q1245.7863,1858.3848 1244.4894,1858.3848 Q1242.9738,1858.3848 1241.7706,1857.7598 Q1240.7863,1857.2598 1240.0988,1856.1973 Q1239.4113,1855.1191 1239.4113,1853.8379 L1239.4113,1852.6816 Q1239.4113,1851.3535 1240.0206,1850.2129 Q1240.6456,1849.0566 1241.7394,1848.4473 Q1242.8331,1847.8223 1244.0675,1847.8223 Q1244.8019,1847.8223 1245.4425,1847.9941 Q1246.0988,1848.1504 1246.6456,1848.5098 Z " fill="#000000"/><text fill="#000000" font-family="sans-serif" font-size="14" lengthAdjust="spacing" textLength="84" x="1257.88" y="1858.4316">UserAcronym</text><line style="stroke:#181818;stroke-width:0.5;" x1="1229.88" x2="1343.88" y1="1868.6348" y2="1868.6348"/><text fill="#000000" font-family="sans-serif" font-size="14" lengthAdjust="spacing" textLength="104" x="1234.88" y="1887.7422">-acronym: String</text><line style="stroke:#181818;stroke-width:0.5;" x1="1229.88" x2="1343.88" y1="1895.2559" y2="1895.2559"/></g><!--class UserTaxNumber--><g id="elem_UserTaxNumber"><rect codeLine="87" fill="#F1F1F1" height="66.6211" id="UserTaxNumber" rx="2.5" ry="2.5" style="stroke:#181818;stroke-width:0.5;" width="133" x="499.38" y="1836.6348"/><ellipse cx="514.38" cy="1852.6348" fill="#ADD1B2" rx="11" ry="11" style="stroke:#181818;stroke-width:1.0;"/><path d="M517.1456,1848.5098 Q517.3019,1848.291 517.4894,1848.1816 Q517.6769,1848.0723 517.8956,1848.0723 Q518.2706,1848.0723 518.505,1848.3379 Q518.7394,1848.5879 518.7394,1849.1973 L518.7394,1850.6504 Q518.7394,1851.2598 518.505,1851.5254 Q518.2706,1851.791 517.8956,1851.791 Q517.5519,1851.791 517.3488,1851.5879 Q517.1456,1851.4004 517.0363,1850.8848 Q516.9894,1850.5254 516.8019,1850.3379 Q516.4738,1849.9629 515.8644,1849.7441 Q515.255,1849.5254 514.63,1849.5254 Q513.8644,1849.5254 513.2238,1849.8535 Q512.5988,1850.1816 512.0988,1850.9316 Q511.6144,1851.6816 511.6144,1852.7129 L511.6144,1853.8066 Q511.6144,1855.041 512.505,1855.8691 Q513.3956,1856.6816 514.9894,1856.6816 Q515.9269,1856.6816 516.5831,1856.4316 Q516.9738,1856.2754 517.3956,1855.8379 Q517.6613,1855.5723 517.8019,1855.4941 Q517.9581,1855.416 518.1613,1855.416 Q518.4894,1855.416 518.7394,1855.6816 Q519.005,1855.9316 519.005,1856.2754 Q519.005,1856.6191 518.6613,1857.0254 Q518.1613,1857.6035 517.3644,1857.9316 Q516.2863,1858.3848 514.9894,1858.3848 Q513.4738,1858.3848 512.2706,1857.7598 Q511.2863,1857.2598 510.5988,1856.1973 Q509.9113,1855.1191 509.9113,1853.8379 L509.9113,1852.6816 Q509.9113,1851.3535 510.5206,1850.2129 Q511.1456,1849.0566 512.2394,1848.4473 Q513.3331,1847.8223 514.5675,1847.8223 Q515.3019,1847.8223 515.9425,1847.9941 Q516.5988,1848.1504 517.1456,1848.5098 Z " fill="#000000"/><text fill="#000000" font-family="sans-serif" font-size="14" lengthAdjust="spacing" textLength="101" x="528.38" y="1858.4316">UserTaxNumber</text><line style="stroke:#181818;stroke-width:0.5;" x1="500.38" x2="631.38" y1="1868.6348" y2="1868.6348"/><text fill="#000000" font-family="sans-serif" font-size="14" lengthAdjust="spacing" textLength="117" x="505.38" y="1887.7422">-taxNumber: String</text><line style="stroke:#181818;stroke-width:0.5;" x1="500.38" x2="631.38" y1="1895.2559" y2="1895.2559"/></g><!--class IMechanographicNumberAssigner--><g id="elem_IMechanographicNumberAssigner"><rect codeLine="131" fill="#F1F1F1" height="85.2422" id="IMechanographicNumberAssigner" rx="2.5" ry="2.5" style="stroke:#181818;stroke-width:0.5;" width="400" x="1689.88" y="1560.6348"/><ellipse cx="1778.13" cy="1576.6348" fill="#B4A7E5" rx="11" ry="11" style="stroke:#181818;stroke-width:1.0;"/><path d="M1779.0831,1573.2754 L1779.0831,1579.9316 L1780.8019,1579.9316 Q1781.4113,1579.9316 1781.6769,1580.166 Q1781.9425,1580.4004 1781.9425,1580.791 Q1781.9425,1581.166 1781.6769,1581.4004 Q1781.4113,1581.6348 1780.8019,1581.6348 L1775.6613,1581.6348 Q1775.0519,1581.6348 1774.7863,1581.4004 Q1774.5206,1581.166 1774.5206,1580.7754 Q1774.5206,1580.4004 1774.7863,1580.166 Q1775.0519,1579.9316 1775.6613,1579.9316 L1777.38,1579.9316 L1777.38,1573.2754 L1775.6613,1573.2754 Q1775.0519,1573.2754 1774.7863,1573.041 Q1774.5206,1572.8066 1774.5206,1572.416 Q1774.5206,1572.041 1774.7863,1571.8066 Q1775.0519,1571.5723 1775.6613,1571.5723 L1780.8019,1571.5723 Q1781.4113,1571.5723 1781.6769,1571.8066 Q1781.9425,1572.041 1781.9425,1572.416 Q1781.9425,1572.8066 1781.6769,1573.041 Q1781.4113,1573.2754 1780.8019,1573.2754 L1779.0831,1573.2754 Z " fill="#000000"/><text fill="#000000" font-family="sans-serif" font-size="14" font-style="italic" lengthAdjust="spacing" textLength="215" x="1798.63" y="1582.4316">IMechanographicNumberAssigner</text><line style="stroke:#181818;stroke-width:0.5;" x1="1690.88" x2="2088.88" y1="1592.6348" y2="1592.6348"/><line style="stroke:#181818;stroke-width:0.5;" x1="1690.88" x2="2088.88" y1="1600.6348" y2="1600.6348"/><text fill="#000000" font-family="sans-serif" font-size="14" lengthAdjust="spacing" textLength="382" x="1695.88" y="1619.7422">+MechanographicNumberAssigner(eCourseUserRepository):</text><text fill="#000000" font-family="sans-serif" font-size="14" lengthAdjust="spacing" textLength="388" x="1695.88" y="1638.3633">+newMechanographicNumber(): UserMechanographicNumber</text></g><!--class IeCourseUserBuilderFactory--><g id="elem_IeCourseUserBuilderFactory"><rect codeLine="99" fill="#F1F1F1" height="66.6211" id="IeCourseUserBuilderFactory" rx="2.5" ry="2.5" style="stroke:#181818;stroke-width:0.5;" width="360" x="759.88" y="1415.1348"/><ellipse cx="845.63" cy="1431.1348" fill="#B4A7E5" rx="11" ry="11" style="stroke:#181818;stroke-width:1.0;"/><path d="M846.5831,1427.7754 L846.5831,1434.4316 L848.3019,1434.4316 Q848.9113,1434.4316 849.1769,1434.666 Q849.4425,1434.9004 849.4425,1435.291 Q849.4425,1435.666 849.1769,1435.9004 Q848.9113,1436.1348 848.3019,1436.1348 L843.1613,1436.1348 Q842.5519,1436.1348 842.2863,1435.9004 Q842.0206,1435.666 842.0206,1435.2754 Q842.0206,1434.9004 842.2863,1434.666 Q842.5519,1434.4316 843.1613,1434.4316 L844.88,1434.4316 L844.88,1427.7754 L843.1613,1427.7754 Q842.5519,1427.7754 842.2863,1427.541 Q842.0206,1427.3066 842.0206,1426.916 Q842.0206,1426.541 842.2863,1426.3066 Q842.5519,1426.0723 843.1613,1426.0723 L848.3019,1426.0723 Q848.9113,1426.0723 849.1769,1426.3066 Q849.4425,1426.541 849.4425,1426.916 Q849.4425,1427.3066 849.1769,1427.541 Q848.9113,1427.7754 848.3019,1427.7754 L846.5831,1427.7754 Z " fill="#000000"/><text fill="#000000" font-family="sans-serif" font-size="14" font-style="italic" lengthAdjust="spacing" textLength="180" x="866.13" y="1436.9316">IeCourseUserBuilderFactory</text><line style="stroke:#181818;stroke-width:0.5;" x1="760.88" x2="1118.88" y1="1447.1348" y2="1447.1348"/><line style="stroke:#181818;stroke-width:0.5;" x1="760.88" x2="1118.88" y1="1455.1348" y2="1455.1348"/><text fill="#000000" font-family="sans-serif" font-size="14" lengthAdjust="spacing" textLength="348" x="765.88" y="1474.2422">+createECourseUserBuilder(role): IeCourseUserBuilder</text></g><!--class IeCourseUserBuilder--><g id="elem_IeCourseUserBuilder"><rect codeLine="103" fill="#F1F1F1" height="85.2422" id="IeCourseUserBuilder" rx="2.5" ry="2.5" style="stroke:#181818;stroke-width:0.5;" width="340" x="915.88" y="1560.6348"/><ellipse cx="1015.63" cy="1576.6348" fill="#B4A7E5" rx="11" ry="11" style="stroke:#181818;stroke-width:1.0;"/><path d="M1016.5831,1573.2754 L1016.5831,1579.9316 L1018.3019,1579.9316 Q1018.9113,1579.9316 1019.1769,1580.166 Q1019.4425,1580.4004 1019.4425,1580.791 Q1019.4425,1581.166 1019.1769,1581.4004 Q1018.9113,1581.6348 1018.3019,1581.6348 L1013.1613,1581.6348 Q1012.5519,1581.6348 1012.2863,1581.4004 Q1012.0206,1581.166 1012.0206,1580.7754 Q1012.0206,1580.4004 1012.2863,1580.166 Q1012.5519,1579.9316 1013.1613,1579.9316 L1014.88,1579.9316 L1014.88,1573.2754 L1013.1613,1573.2754 Q1012.5519,1573.2754 1012.2863,1573.041 Q1012.0206,1572.8066 1012.0206,1572.416 Q1012.0206,1572.041 1012.2863,1571.8066 Q1012.5519,1571.5723 1013.1613,1571.5723 L1018.3019,1571.5723 Q1018.9113,1571.5723 1019.1769,1571.8066 Q1019.4425,1572.041 1019.4425,1572.416 Q1019.4425,1572.8066 1019.1769,1573.041 Q1018.9113,1573.2754 1018.3019,1573.2754 L1016.5831,1573.2754 Z " fill="#000000"/><text fill="#000000" font-family="sans-serif" font-size="14" font-style="italic" lengthAdjust="spacing" textLength="132" x="1036.13" y="1582.4316">IeCourseUserBuilder</text><line style="stroke:#181818;stroke-width:0.5;" x1="916.88" x2="1254.88" y1="1592.6348" y2="1592.6348"/><line style="stroke:#181818;stroke-width:0.5;" x1="916.88" x2="1254.88" y1="1600.6348" y2="1600.6348"/><text fill="#000000" font-family="sans-serif" font-size="14" lengthAdjust="spacing" textLength="328" x="921.88" y="1619.7422">+withSystemUser(systemUser): IeCourseUserBuilder</text><text fill="#000000" font-family="sans-serif" font-size="14" lengthAdjust="spacing" textLength="140" x="921.88" y="1638.3633">+build(): ECourseUser</text></g><!--class StudentBuilder--><g id="elem_StudentBuilder"><rect codeLine="108" fill="#F1F1F1" height="103.8633" id="StudentBuilder" rx="2.5" ry="2.5" style="stroke:#181818;stroke-width:0.5;" width="336" x="1321.88" y="1396.6348"/><ellipse cx="1439.13" cy="1412.6348" fill="#ADD1B2" rx="11" ry="11" style="stroke:#181818;stroke-width:1.0;"/><path d="M1441.8956,1408.5098 Q1442.0519,1408.291 1442.2394,1408.1816 Q1442.4269,1408.0723 1442.6456,1408.0723 Q1443.0206,1408.0723 1443.255,1408.3379 Q1443.4894,1408.5879 1443.4894,1409.1973 L1443.4894,1410.6504 Q1443.4894,1411.2598 1443.255,1411.5254 Q1443.0206,1411.791 1442.6456,1411.791 Q1442.3019,1411.791 1442.0988,1411.5879 Q1441.8956,1411.4004 1441.7863,1410.8848 Q1441.7394,1410.5254 1441.5519,1410.3379 Q1441.2238,1409.9629 1440.6144,1409.7441 Q1440.005,1409.5254 1439.38,1409.5254 Q1438.6144,1409.5254 1437.9738,1409.8535 Q1437.3488,1410.1816 1436.8488,1410.9316 Q1436.3644,1411.6816 1436.3644,1412.7129 L1436.3644,1413.8066 Q1436.3644,1415.041 1437.255,1415.8691 Q1438.1456,1416.6816 1439.7394,1416.6816 Q1440.6769,1416.6816 1441.3331,1416.4316 Q1441.7238,1416.2754 1442.1456,1415.8379 Q1442.4113,1415.5723 1442.5519,1415.4941 Q1442.7081,1415.416 1442.9113,1415.416 Q1443.2394,1415.416 1443.4894,1415.6816 Q1443.755,1415.9316 1443.755,1416.2754 Q1443.755,1416.6191 1443.4113,1417.0254 Q1442.9113,1417.6035 1442.1144,1417.9316 Q1441.0363,1418.3848 1439.7394,1418.3848 Q1438.2238,1418.3848 1437.0206,1417.7598 Q1436.0363,1417.2598 1435.3488,1416.1973 Q1434.6613,1415.1191 1434.6613,1413.8379 L1434.6613,1412.6816 Q1434.6613,1411.3535 1435.2706,1410.2129 Q1435.8956,1409.0566 1436.9894,1408.4473 Q1438.0831,1407.8223 1439.3175,1407.8223 Q1440.0519,1407.8223 1440.6925,1407.9941 Q1441.3488,1408.1504 1441.8956,1408.5098 Z " fill="#000000"/><text fill="#000000" font-family="sans-serif" font-size="14" lengthAdjust="spacing" textLength="93" x="1459.63" y="1418.4316">StudentBuilder</text><line style="stroke:#181818;stroke-width:0.5;" x1="1322.88" x2="1656.88" y1="1428.6348" y2="1428.6348"/><line style="stroke:#181818;stroke-width:0.5;" x1="1322.88" x2="1656.88" y1="1436.6348" y2="1436.6348"/><text fill="#000000" font-family="sans-serif" font-size="14" lengthAdjust="spacing" textLength="324" x="1327.88" y="1455.7422">+StudentBuilder(mechanographicNumberAssigner):</text><text fill="#000000" font-family="sans-serif" font-size="14" lengthAdjust="spacing" textLength="256" x="1327.88" y="1474.3633">+withBirthdate(birthdate): StudentBuilder</text><text fill="#000000" font-family="sans-serif" font-size="14" lengthAdjust="spacing" textLength="319" x="1327.88" y="1492.9844">+withTaxPayerNumber(taxNumber): StudentBuilder</text></g><!--class TeacherBuilder--><g id="elem_TeacherBuilder"><rect codeLine="114" fill="#F1F1F1" height="103.8633" id="TeacherBuilder" rx="2.5" ry="2.5" style="stroke:#181818;stroke-width:0.5;" width="335" x="389.38" y="1396.6348"/><ellipse cx="504.13" cy="1412.6348" fill="#ADD1B2" rx="11" ry="11" style="stroke:#181818;stroke-width:1.0;"/><path d="M506.8956,1408.5098 Q507.0519,1408.291 507.2394,1408.1816 Q507.4269,1408.0723 507.6456,1408.0723 Q508.0206,1408.0723 508.255,1408.3379 Q508.4894,1408.5879 508.4894,1409.1973 L508.4894,1410.6504 Q508.4894,1411.2598 508.255,1411.5254 Q508.0206,1411.791 507.6456,1411.791 Q507.3019,1411.791 507.0988,1411.5879 Q506.8956,1411.4004 506.7863,1410.8848 Q506.7394,1410.5254 506.5519,1410.3379 Q506.2238,1409.9629 505.6144,1409.7441 Q505.005,1409.5254 504.38,1409.5254 Q503.6144,1409.5254 502.9738,1409.8535 Q502.3488,1410.1816 501.8488,1410.9316 Q501.3644,1411.6816 501.3644,1412.7129 L501.3644,1413.8066 Q501.3644,1415.041 502.255,1415.8691 Q503.1456,1416.6816 504.7394,1416.6816 Q505.6769,1416.6816 506.3331,1416.4316 Q506.7238,1416.2754 507.1456,1415.8379 Q507.4113,1415.5723 507.5519,1415.4941 Q507.7081,1415.416 507.9113,1415.416 Q508.2394,1415.416 508.4894,1415.6816 Q508.755,1415.9316 508.755,1416.2754 Q508.755,1416.6191 508.4113,1417.0254 Q507.9113,1417.6035 507.1144,1417.9316 Q506.0363,1418.3848 504.7394,1418.3848 Q503.2238,1418.3848 502.0206,1417.7598 Q501.0363,1417.2598 500.3488,1416.1973 Q499.6613,1415.1191 499.6613,1413.8379 L499.6613,1412.6816 Q499.6613,1411.3535 500.2706,1410.2129 Q500.8956,1409.0566 501.9894,1408.4473 Q503.0831,1407.8223 504.3175,1407.8223 Q505.0519,1407.8223 505.6925,1407.9941 Q506.3488,1408.1504 506.8956,1408.5098 Z " fill="#000000"/><text fill="#000000" font-family="sans-serif" font-size="14" lengthAdjust="spacing" textLength="97" x="524.63" y="1418.4316">TeacherBuilder</text><line style="stroke:#181818;stroke-width:0.5;" x1="390.38" x2="723.38" y1="1428.6348" y2="1428.6348"/><line style="stroke:#181818;stroke-width:0.5;" x1="390.38" x2="723.38" y1="1436.6348" y2="1436.6348"/><text fill="#000000" font-family="sans-serif" font-size="14" lengthAdjust="spacing" textLength="256" x="395.38" y="1455.7422">+withAcronym(acronym): TeacherBuilder</text><text fill="#000000" font-family="sans-serif" font-size="14" lengthAdjust="spacing" textLength="260" x="395.38" y="1474.3633">+withBirthdate(birthdate): TeacherBuilder</text><text fill="#000000" font-family="sans-serif" font-size="14" lengthAdjust="spacing" textLength="323" x="395.38" y="1492.9844">+withTaxPayerNumber(taxNumber): TeacherBuilder</text></g><!--class ManagerBuilder--><g id="elem_ManagerBuilder"><rect codeLine="120" fill="#F1F1F1" height="48" id="ManagerBuilder" rx="2.5" ry="2.5" style="stroke:#181818;stroke-width:0.5;" width="132" x="1154.88" y="1424.6348"/><ellipse cx="1169.88" cy="1440.6348" fill="#ADD1B2" rx="11" ry="11" style="stroke:#181818;stroke-width:1.0;"/><path d="M1172.6456,1436.5098 Q1172.8019,1436.291 1172.9894,1436.1816 Q1173.1769,1436.0723 1173.3956,1436.0723 Q1173.7706,1436.0723 1174.005,1436.3379 Q1174.2394,1436.5879 1174.2394,1437.1973 L1174.2394,1438.6504 Q1174.2394,1439.2598 1174.005,1439.5254 Q1173.7706,1439.791 1173.3956,1439.791 Q1173.0519,1439.791 1172.8488,1439.5879 Q1172.6456,1439.4004 1172.5363,1438.8848 Q1172.4894,1438.5254 1172.3019,1438.3379 Q1171.9738,1437.9629 1171.3644,1437.7441 Q1170.755,1437.5254 1170.13,1437.5254 Q1169.3644,1437.5254 1168.7238,1437.8535 Q1168.0988,1438.1816 1167.5988,1438.9316 Q1167.1144,1439.6816 1167.1144,1440.7129 L1167.1144,1441.8066 Q1167.1144,1443.041 1168.005,1443.8691 Q1168.8956,1444.6816 1170.4894,1444.6816 Q1171.4269,1444.6816 1172.0831,1444.4316 Q1172.4738,1444.2754 1172.8956,1443.8379 Q1173.1613,1443.5723 1173.3019,1443.4941 Q1173.4581,1443.416 1173.6613,1443.416 Q1173.9894,1443.416 1174.2394,1443.6816 Q1174.505,1443.9316 1174.505,1444.2754 Q1174.505,1444.6191 1174.1613,1445.0254 Q1173.6613,1445.6035 1172.8644,1445.9316 Q1171.7863,1446.3848 1170.4894,1446.3848 Q1168.9738,1446.3848 1167.7706,1445.7598 Q1166.7863,1445.2598 1166.0988,1444.1973 Q1165.4113,1443.1191 1165.4113,1441.8379 L1165.4113,1440.6816 Q1165.4113,1439.3535 1166.0206,1438.2129 Q1166.6456,1437.0566 1167.7394,1436.4473 Q1168.8331,1435.8223 1170.0675,1435.8223 Q1170.8019,1435.8223 1171.4425,1435.9941 Q1172.0988,1436.1504 1172.6456,1436.5098 Z " fill="#000000"/><text fill="#000000" font-family="sans-serif" font-size="14" lengthAdjust="spacing" textLength="100" x="1183.88" y="1446.4316">ManagerBuilder</text><line style="stroke:#181818;stroke-width:0.5;" x1="1155.88" x2="1285.88" y1="1456.6348" y2="1456.6348"/><line style="stroke:#181818;stroke-width:0.5;" x1="1155.88" x2="1285.88" y1="1464.6348" y2="1464.6348"/></g><!--class RegisterUserController--><g id="elem_RegisterUserController"><rect codeLine="142" fill="#F1F1F1" height="85.2422" id="RegisterUserController" rx="2.5" ry="2.5" style="stroke:#181818;stroke-width:0.5;" width="213" x="365.38" y="679.1348"/><ellipse cx="397.03" cy="695.1348" fill="#ADD1B2" rx="11" ry="11" style="stroke:#181818;stroke-width:1.0;"/><path d="M399.7956,691.0098 Q399.9519,690.791 400.1394,690.6816 Q400.3269,690.5723 400.5456,690.5723 Q400.9206,690.5723 401.155,690.8379 Q401.3894,691.0879 401.3894,691.6973 L401.3894,693.1504 Q401.3894,693.7598 401.155,694.0254 Q400.9206,694.291 400.5456,694.291 Q400.2019,694.291 399.9988,694.0879 Q399.7956,693.9004 399.6863,693.3848 Q399.6394,693.0254 399.4519,692.8379 Q399.1238,692.4629 398.5144,692.2441 Q397.905,692.0254 397.28,692.0254 Q396.5144,692.0254 395.8738,692.3535 Q395.2488,692.6816 394.7488,693.4316 Q394.2644,694.1816 394.2644,695.2129 L394.2644,696.3066 Q394.2644,697.541 395.155,698.3691 Q396.0456,699.1816 397.6394,699.1816 Q398.5769,699.1816 399.2331,698.9316 Q399.6238,698.7754 400.0456,698.3379 Q400.3113,698.0723 400.4519,697.9941 Q400.6081,697.916 400.8113,697.916 Q401.1394,697.916 401.3894,698.1816 Q401.655,698.4316 401.655,698.7754 Q401.655,699.1191 401.3113,699.5254 Q400.8113,700.1035 400.0144,700.4316 Q398.9363,700.8848 397.6394,700.8848 Q396.1238,700.8848 394.9206,700.2598 Q393.9363,699.7598 393.2488,698.6973 Q392.5613,697.6191 392.5613,696.3379 L392.5613,695.1816 Q392.5613,693.8535 393.1706,692.7129 Q393.7956,691.5566 394.8894,690.9473 Q395.9831,690.3223 397.2175,690.3223 Q397.9519,690.3223 398.5925,690.4941 Q399.2488,690.6504 399.7956,691.0098 Z " fill="#000000"/><text fill="#000000" font-family="sans-serif" font-size="14" lengthAdjust="spacing" textLength="144" x="414.73" y="700.9316">RegisterUserController</text><line style="stroke:#181818;stroke-width:0.5;" x1="366.38" x2="577.38" y1="711.1348" y2="711.1348"/><line style="stroke:#181818;stroke-width:0.5;" x1="366.38" x2="577.38" y1="719.1348" y2="719.1348"/><text fill="#000000" font-family="sans-serif" font-size="14" lengthAdjust="spacing" textLength="166" x="371.38" y="738.2422">+RegisterUserController():</text><text fill="#000000" font-family="sans-serif" font-size="14" lengthAdjust="spacing" textLength="201" x="371.38" y="756.8633">+existingRoles(): Iterable&lt;Role&gt;</text></g><!--class EnableUserController--><g id="elem_EnableUserController"><rect codeLine="147" fill="#F1F1F1" height="103.8633" id="EnableUserController" rx="2.5" ry="2.5" style="stroke:#181818;stroke-width:0.5;" width="320" x="1311.88" y="669.6348"/><ellipse cx="1400.13" cy="685.6348" fill="#ADD1B2" rx="11" ry="11" style="stroke:#181818;stroke-width:1.0;"/><path d="M1402.8956,681.5098 Q1403.0519,681.291 1403.2394,681.1816 Q1403.4269,681.0723 1403.6456,681.0723 Q1404.0206,681.0723 1404.255,681.3379 Q1404.4894,681.5879 1404.4894,682.1973 L1404.4894,683.6504 Q1404.4894,684.2598 1404.255,684.5254 Q1404.0206,684.791 1403.6456,684.791 Q1403.3019,684.791 1403.0988,684.5879 Q1402.8956,684.4004 1402.7863,683.8848 Q1402.7394,683.5254 1402.5519,683.3379 Q1402.2238,682.9629 1401.6144,682.7441 Q1401.005,682.5254 1400.38,682.5254 Q1399.6144,682.5254 1398.9738,682.8535 Q1398.3488,683.1816 1397.8488,683.9316 Q1397.3644,684.6816 1397.3644,685.7129 L1397.3644,686.8066 Q1397.3644,688.041 1398.255,688.8691 Q1399.1456,689.6816 1400.7394,689.6816 Q1401.6769,689.6816 1402.3331,689.4316 Q1402.7238,689.2754 1403.1456,688.8379 Q1403.4113,688.5723 1403.5519,688.4941 Q1403.7081,688.416 1403.9113,688.416 Q1404.2394,688.416 1404.4894,688.6816 Q1404.755,688.9316 1404.755,689.2754 Q1404.755,689.6191 1404.4113,690.0254 Q1403.9113,690.6035 1403.1144,690.9316 Q1402.0363,691.3848 1400.7394,691.3848 Q1399.2238,691.3848 1398.0206,690.7598 Q1397.0363,690.2598 1396.3488,689.1973 Q1395.6613,688.1191 1395.6613,686.8379 L1395.6613,685.6816 Q1395.6613,684.3535 1396.2706,683.2129 Q1396.8956,682.0566 1397.9894,681.4473 Q1399.0831,680.8223 1400.3175,680.8223 Q1401.0519,680.8223 1401.6925,680.9941 Q1402.3488,681.1504 1402.8956,681.5098 Z " fill="#000000"/><text fill="#000000" font-family="sans-serif" font-size="14" lengthAdjust="spacing" textLength="135" x="1420.63" y="691.4316">EnableUserController</text><line style="stroke:#181818;stroke-width:0.5;" x1="1312.88" x2="1630.88" y1="701.6348" y2="701.6348"/><line style="stroke:#181818;stroke-width:0.5;" x1="1312.88" x2="1630.88" y1="709.6348" y2="709.6348"/><text fill="#000000" font-family="sans-serif" font-size="14" lengthAdjust="spacing" textLength="308" x="1317.88" y="728.7422">+EnableUserController(eCourseUserRepository):</text><text fill="#000000" font-family="sans-serif" font-size="14" lengthAdjust="spacing" textLength="262" x="1317.88" y="747.3633">+disabledUsers(): Iterable&lt;ECourseUser&gt;</text><text fill="#000000" font-family="sans-serif" font-size="14" lengthAdjust="spacing" textLength="279" x="1317.88" y="765.9844">+enableUser(user): Optional&lt;ECourseUser&gt;</text></g><!--class DisableUserController--><g id="elem_DisableUserController"><rect codeLine="153" fill="#F1F1F1" height="103.8633" id="DisableUserController" rx="2.5" ry="2.5" style="stroke:#181818;stroke-width:0.5;" width="323" x="953.38" y="669.6348"/><ellipse cx="1041.63" cy="685.6348" fill="#ADD1B2" rx="11" ry="11" style="stroke:#181818;stroke-width:1.0;"/><path d="M1044.3956,681.5098 Q1044.5519,681.291 1044.7394,681.1816 Q1044.9269,681.0723 1045.1456,681.0723 Q1045.5206,681.0723 1045.755,681.3379 Q1045.9894,681.5879 1045.9894,682.1973 L1045.9894,683.6504 Q1045.9894,684.2598 1045.755,684.5254 Q1045.5206,684.791 1045.1456,684.791 Q1044.8019,684.791 1044.5988,684.5879 Q1044.3956,684.4004 1044.2863,683.8848 Q1044.2394,683.5254 1044.0519,683.3379 Q1043.7238,682.9629 1043.1144,682.7441 Q1042.505,682.5254 1041.88,682.5254 Q1041.1144,682.5254 1040.4738,682.8535 Q1039.8488,683.1816 1039.3488,683.9316 Q1038.8644,684.6816 1038.8644,685.7129 L1038.8644,686.8066 Q1038.8644,688.041 1039.755,688.8691 Q1040.6456,689.6816 1042.2394,689.6816 Q1043.1769,689.6816 1043.8331,689.4316 Q1044.2238,689.2754 1044.6456,688.8379 Q1044.9113,688.5723 1045.0519,688.4941 Q1045.2081,688.416 1045.4113,688.416 Q1045.7394,688.416 1045.9894,688.6816 Q1046.255,688.9316 1046.255,689.2754 Q1046.255,689.6191 1045.9113,690.0254 Q1045.4113,690.6035 1044.6144,690.9316 Q1043.5363,691.3848 1042.2394,691.3848 Q1040.7238,691.3848 1039.5206,690.7598 Q1038.5363,690.2598 1037.8488,689.1973 Q1037.1613,688.1191 1037.1613,686.8379 L1037.1613,685.6816 Q1037.1613,684.3535 1037.7706,683.2129 Q1038.3956,682.0566 1039.4894,681.4473 Q1040.5831,680.8223 1041.8175,680.8223 Q1042.5519,680.8223 1043.1925,680.9941 Q1043.8488,681.1504 1044.3956,681.5098 Z " fill="#000000"/><text fill="#000000" font-family="sans-serif" font-size="14" lengthAdjust="spacing" textLength="138" x="1062.13" y="691.4316">DisableUserController</text><line style="stroke:#181818;stroke-width:0.5;" x1="954.38" x2="1275.38" y1="701.6348" y2="701.6348"/><line style="stroke:#181818;stroke-width:0.5;" x1="954.38" x2="1275.38" y1="709.6348" y2="709.6348"/><text fill="#000000" font-family="sans-serif" font-size="14" lengthAdjust="spacing" textLength="311" x="959.38" y="728.7422">+DisableUserController(eCourseUserRepository):</text><text fill="#000000" font-family="sans-serif" font-size="14" lengthAdjust="spacing" textLength="260" x="959.38" y="747.3633">+enabledUsers(): Iterable&lt;ECourseUser&gt;</text><text fill="#000000" font-family="sans-serif" font-size="14" lengthAdjust="spacing" textLength="281" x="959.38" y="765.9844">+disableUser(user): Optional&lt;ECourseUser&gt;</text></g><!--class ListUsersController--><g id="elem_ListUsersController"><rect codeLine="159" fill="#F1F1F1" height="122.4844" id="ListUsersController" rx="2.5" ry="2.5" style="stroke:#181818;stroke-width:0.5;" width="305" x="613.38" y="660.6348"/><ellipse cx="701.63" cy="676.6348" fill="#ADD1B2" rx="11" ry="11" style="stroke:#181818;stroke-width:1.0;"/><path d="M704.3956,672.5098 Q704.5519,672.291 704.7394,672.1816 Q704.9269,672.0723 705.1456,672.0723 Q705.5206,672.0723 705.755,672.3379 Q705.9894,672.5879 705.9894,673.1973 L705.9894,674.6504 Q705.9894,675.2598 705.755,675.5254 Q705.5206,675.791 705.1456,675.791 Q704.8019,675.791 704.5988,675.5879 Q704.3956,675.4004 704.2863,674.8848 Q704.2394,674.5254 704.0519,674.3379 Q703.7238,673.9629 703.1144,673.7441 Q702.505,673.5254 701.88,673.5254 Q701.1144,673.5254 700.4738,673.8535 Q699.8488,674.1816 699.3488,674.9316 Q698.8644,675.6816 698.8644,676.7129 L698.8644,677.8066 Q698.8644,679.041 699.755,679.8691 Q700.6456,680.6816 702.2394,680.6816 Q703.1769,680.6816 703.8331,680.4316 Q704.2238,680.2754 704.6456,679.8379 Q704.9113,679.5723 705.0519,679.4941 Q705.2081,679.416 705.4113,679.416 Q705.7394,679.416 705.9894,679.6816 Q706.255,679.9316 706.255,680.2754 Q706.255,680.6191 705.9113,681.0254 Q705.4113,681.6035 704.6144,681.9316 Q703.5363,682.3848 702.2394,682.3848 Q700.7238,682.3848 699.5206,681.7598 Q698.5363,681.2598 697.8488,680.1973 Q697.1613,679.1191 697.1613,677.8379 L697.1613,676.6816 Q697.1613,675.3535 697.7706,674.2129 Q698.3956,673.0566 699.4894,672.4473 Q700.5831,671.8223 701.8175,671.8223 Q702.5519,671.8223 703.1925,671.9941 Q703.8488,672.1504 704.3956,672.5098 Z " fill="#000000"/><text fill="#000000" font-family="sans-serif" font-size="14" lengthAdjust="spacing" textLength="120" x="722.13" y="682.4316">ListUsersController</text><line style="stroke:#181818;stroke-width:0.5;" x1="614.38" x2="917.38" y1="692.6348" y2="692.6348"/><line style="stroke:#181818;stroke-width:0.5;" x1="614.38" x2="917.38" y1="700.6348" y2="700.6348"/><text fill="#000000" font-family="sans-serif" font-size="14" lengthAdjust="spacing" textLength="293" x="619.38" y="719.7422">+ListUsersController(eCourseUserRepository):</text><text fill="#000000" font-family="sans-serif" font-size="14" lengthAdjust="spacing" textLength="223" x="619.38" y="738.3633">+allUsers(): Iterable&lt;ECourseUser&gt;</text><text fill="#000000" font-family="sans-serif" font-size="14" lengthAdjust="spacing" textLength="260" x="619.38" y="756.9844">+enabledUsers(): Iterable&lt;ECourseUser&gt;</text><text fill="#000000" font-family="sans-serif" font-size="14" lengthAdjust="spacing" textLength="262" x="619.38" y="775.6055">+disabledUsers(): Iterable&lt;ECourseUser&gt;</text></g><!--class RegisterStudentController--><g id="elem_RegisterStudentController"><rect codeLine="166" fill="#F1F1F1" height="103.8633" id="RegisterStudentController" rx="2.5" ry="2.5" style="stroke:#181818;stroke-width:0.5;" width="477" x="402.38" y="842.6348"/><ellipse cx="554.63" cy="858.6348" fill="#ADD1B2" rx="11" ry="11" style="stroke:#181818;stroke-width:1.0;"/><path d="M557.3956,854.5098 Q557.5519,854.291 557.7394,854.1816 Q557.9269,854.0723 558.1456,854.0723 Q558.5206,854.0723 558.755,854.3379 Q558.9894,854.5879 558.9894,855.1973 L558.9894,856.6504 Q558.9894,857.2598 558.755,857.5254 Q558.5206,857.791 558.1456,857.791 Q557.8019,857.791 557.5988,857.5879 Q557.3956,857.4004 557.2863,856.8848 Q557.2394,856.5254 557.0519,856.3379 Q556.7238,855.9629 556.1144,855.7441 Q555.505,855.5254 554.88,855.5254 Q554.1144,855.5254 553.4738,855.8535 Q552.8488,856.1816 552.3488,856.9316 Q551.8644,857.6816 551.8644,858.7129 L551.8644,859.8066 Q551.8644,861.041 552.755,861.8691 Q553.6456,862.6816 555.2394,862.6816 Q556.1769,862.6816 556.8331,862.4316 Q557.2238,862.2754 557.6456,861.8379 Q557.9113,861.5723 558.0519,861.4941 Q558.2081,861.416 558.4113,861.416 Q558.7394,861.416 558.9894,861.6816 Q559.255,861.9316 559.255,862.2754 Q559.255,862.6191 558.9113,863.0254 Q558.4113,863.6035 557.6144,863.9316 Q556.5363,864.3848 555.2394,864.3848 Q553.7238,864.3848 552.5206,863.7598 Q551.5363,863.2598 550.8488,862.1973 Q550.1613,861.1191 550.1613,859.8379 L550.1613,858.6816 Q550.1613,857.3535 550.7706,856.2129 Q551.3956,855.0566 552.4894,854.4473 Q553.5831,853.8223 554.8175,853.8223 Q555.5519,853.8223 556.1925,853.9941 Q556.8488,854.1504 557.3956,854.5098 Z " fill="#000000"/><text fill="#000000" font-family="sans-serif" font-size="14" lengthAdjust="spacing" textLength="164" x="575.13" y="864.4316">RegisterStudentController</text><line style="stroke:#181818;stroke-width:0.5;" x1="403.38" x2="878.38" y1="874.6348" y2="874.6348"/><line style="stroke:#181818;stroke-width:0.5;" x1="403.38" x2="878.38" y1="882.6348" y2="882.6348"/><text fill="#000000" font-family="sans-serif" font-size="14" lengthAdjust="spacing" textLength="465" x="408.38" y="901.7422">+RegisterStudentController(eCourseUserRepository, userBuilderFactory):</text><text fill="#000000" font-family="sans-serif" font-size="14" lengthAdjust="spacing" textLength="343" x="408.38" y="920.3633">+registerStudent(username, pwd, firstName, lastName,</text><text fill="#000000" font-family="sans-serif" font-size="14" lengthAdjust="spacing" textLength="269" x="408.38" y="938.9844">email, birthdate, taxNumber): ECourseUser</text></g><!--class RegisterTeacherController--><g id="elem_RegisterTeacherController"><rect codeLine="172" fill="#F1F1F1" height="103.8633" id="RegisterTeacherController" rx="2.5" ry="2.5" style="stroke:#181818;stroke-width:0.5;" width="481" x="422.38" y="1006.6348"/><ellipse cx="574.63" cy="1022.6348" fill="#ADD1B2" rx="11" ry="11" style="stroke:#181818;stroke-width:1.0;"/><path d="M577.3956,1018.5098 Q577.5519,1018.291 577.7394,1018.1816 Q577.9269,1018.0723 578.1456,1018.0723 Q578.5206,1018.0723 578.755,1018.3379 Q578.9894,1018.5879 578.9894,1019.1973 L578.9894,1020.6504 Q578.9894,1021.2598 578.755,1021.5254 Q578.5206,1021.791 578.1456,1021.791 Q577.8019,1021.791 577.5988,1021.5879 Q577.3956,1021.4004 577.2863,1020.8848 Q577.2394,1020.5254 577.0519,1020.3379 Q576.7238,1019.9629 576.1144,1019.7441 Q575.505,1019.5254 574.88,1019.5254 Q574.1144,1019.5254 573.4738,1019.8535 Q572.8488,1020.1816 572.3488,1020.9316 Q571.8644,1021.6816 571.8644,1022.7129 L571.8644,1023.8066 Q571.8644,1025.041 572.755,1025.8691 Q573.6456,1026.6816 575.2394,1026.6816 Q576.1769,1026.6816 576.8331,1026.4316 Q577.2238,1026.2754 577.6456,1025.8379 Q577.9113,1025.5723 578.0519,1025.4941 Q578.2081,1025.416 578.4113,1025.416 Q578.7394,1025.416 578.9894,1025.6816 Q579.255,1025.9316 579.255,1026.2754 Q579.255,1026.6191 578.9113,1027.0254 Q578.4113,1027.6035 577.6144,1027.9316 Q576.5363,1028.3848 575.2394,1028.3848 Q573.7238,1028.3848 572.5206,1027.7598 Q571.5363,1027.2598 570.8488,1026.1973 Q570.1613,1025.1191 570.1613,1023.8379 L570.1613,1022.6816 Q570.1613,1021.3535 570.7706,1020.2129 Q571.3956,1019.0566 572.4894,1018.4473 Q573.5831,1017.8223 574.8175,1017.8223 Q575.5519,1017.8223 576.1925,1017.9941 Q576.8488,1018.1504 577.3956,1018.5098 Z " fill="#000000"/><text fill="#000000" font-family="sans-serif" font-size="14" lengthAdjust="spacing" textLength="168" x="595.13" y="1028.4316">RegisterTeacherController</text><line style="stroke:#181818;stroke-width:0.5;" x1="423.38" x2="902.38" y1="1038.6348" y2="1038.6348"/><line style="stroke:#181818;stroke-width:0.5;" x1="423.38" x2="902.38" y1="1046.6348" y2="1046.6348"/><text fill="#000000" font-family="sans-serif" font-size="14" lengthAdjust="spacing" textLength="469" x="428.38" y="1065.7422">+RegisterTeacherController(eCourseUserRepository, userBuilderFactory):</text><text fill="#000000" font-family="sans-serif" font-size="14" lengthAdjust="spacing" textLength="347" x="428.38" y="1084.3633">+registerTeacher(username, pwd, firstName, lastName,</text><text fill="#000000" font-family="sans-serif" font-size="14" lengthAdjust="spacing" textLength="331" x="428.38" y="1102.9844">email, acronym, birthdate, taxNumber): ECourseUser</text></g><!--class RegisterManagerController--><g id="elem_RegisterManagerController"><rect codeLine="178" fill="#F1F1F1" height="103.8633" id="RegisterManagerController" rx="2.5" ry="2.5" style="stroke:#181818;stroke-width:0.5;" width="484" x="364.88" y="1170.6348"/><ellipse cx="517.13" cy="1186.6348" fill="#ADD1B2" rx="11" ry="11" style="stroke:#181818;stroke-width:1.0;"/><path d="M519.8956,1182.5098 Q520.0519,1182.291 520.2394,1182.1816 Q520.4269,1182.0723 520.6456,1182.0723 Q521.0206,1182.0723 521.255,1182.3379 Q521.4894,1182.5879 521.4894,1183.1973 L521.4894,1184.6504 Q521.4894,1185.2598 521.255,1185.5254 Q521.0206,1185.791 520.6456,1185.791 Q520.3019,1185.791 520.0988,1185.5879 Q519.8956,1185.4004 519.7863,1184.8848 Q519.7394,1184.5254 519.5519,1184.3379 Q519.2238,1183.9629 518.6144,1183.7441 Q518.005,1183.5254 517.38,1183.5254 Q516.6144,1183.5254 515.9738,1183.8535 Q515.3488,1184.1816 514.8488,1184.9316 Q514.3644,1185.6816 514.3644,1186.7129 L514.3644,1187.8066 Q514.3644,1189.041 515.255,1189.8691 Q516.1456,1190.6816 517.7394,1190.6816 Q518.6769,1190.6816 519.3331,1190.4316 Q519.7238,1190.2754 520.1456,1189.8379 Q520.4113,1189.5723 520.5519,1189.4941 Q520.7081,1189.416 520.9113,1189.416 Q521.2394,1189.416 521.4894,1189.6816 Q521.755,1189.9316 521.755,1190.2754 Q521.755,1190.6191 521.4113,1191.0254 Q520.9113,1191.6035 520.1144,1191.9316 Q519.0363,1192.3848 517.7394,1192.3848 Q516.2238,1192.3848 515.0206,1191.7598 Q514.0363,1191.2598 513.3488,1190.1973 Q512.6613,1189.1191 512.6613,1187.8379 L512.6613,1186.6816 Q512.6613,1185.3535 513.2706,1184.2129 Q513.8956,1183.0566 514.9894,1182.4473 Q516.0831,1181.8223 517.3175,1181.8223 Q518.0519,1181.8223 518.6925,1181.9941 Q519.3488,1182.1504 519.8956,1182.5098 Z " fill="#000000"/><text fill="#000000" font-family="sans-serif" font-size="14" lengthAdjust="spacing" textLength="171" x="537.63" y="1192.4316">RegisterManagerController</text><line style="stroke:#181818;stroke-width:0.5;" x1="365.88" x2="847.88" y1="1202.6348" y2="1202.6348"/><line style="stroke:#181818;stroke-width:0.5;" x1="365.88" x2="847.88" y1="1210.6348" y2="1210.6348"/><text fill="#000000" font-family="sans-serif" font-size="14" lengthAdjust="spacing" textLength="472" x="370.88" y="1229.7422">+RegisterManagerController(eCourseUserRepository, userBuilderFactory):</text><text fill="#000000" font-family="sans-serif" font-size="14" lengthAdjust="spacing" textLength="350" x="370.88" y="1248.3633">+registerManager(username, pwd, firstName, lastName,</text><text fill="#000000" font-family="sans-serif" font-size="14" lengthAdjust="spacing" textLength="130" x="370.88" y="1266.9844">email): ECourseUser</text></g><!--class SystemUser--><g id="elem_SystemUser"><rect codeLine="213" fill="#F1F1F1" height="141.1055" id="SystemUser" rx="2.5" ry="2.5" style="stroke:#181818;stroke-width:0.5;" width="125" x="1482.38" y="2411.6348"/><ellipse cx="1505.48" cy="2427.6348" fill="#ADD1B2" rx="11" ry="11" style="stroke:#181818;stroke-width:1.0;"/><path d="M1508.2456,2423.5098 Q1508.4019,2423.291 1508.5894,2423.1816 Q1508.7769,2423.0723 1508.9956,2423.0723 Q1509.3706,2423.0723 1509.605,2423.3379 Q1509.8394,2423.5879 1509.8394,2424.1973 L1509.8394,2425.6504 Q1509.8394,2426.2598 1509.605,2426.5254 Q1509.3706,2426.791 1508.9956,2426.791 Q1508.6519,2426.791 1508.4488,2426.5879 Q1508.2456,2426.4004 1508.1363,2425.8848 Q1508.0894,2425.5254 1507.9019,2425.3379 Q1507.5738,2424.9629 1506.9644,2424.7441 Q1506.355,2424.5254 1505.73,2424.5254 Q1504.9644,2424.5254 1504.3238,2424.8535 Q1503.6988,2425.1816 1503.1988,2425.9316 Q1502.7144,2426.6816 1502.7144,2427.7129 L1502.7144,2428.8066 Q1502.7144,2430.041 1503.605,2430.8691 Q1504.4956,2431.6816 1506.0894,2431.6816 Q1507.0269,2431.6816 1507.6831,2431.4316 Q1508.0738,2431.2754 1508.4956,2430.8379 Q1508.7613,2430.5723 1508.9019,2430.4941 Q1509.0581,2430.416 1509.2613,2430.416 Q1509.5894,2430.416 1509.8394,2430.6816 Q1510.105,2430.9316 1510.105,2431.2754 Q1510.105,2431.6191 1509.7613,2432.0254 Q1509.2613,2432.6035 1508.4644,2432.9316 Q1507.3863,2433.3848 1506.0894,2433.3848 Q1504.5738,2433.3848 1503.3706,2432.7598 Q1502.3863,2432.2598 1501.6988,2431.1973 Q1501.0113,2430.1191 1501.0113,2428.8379 L1501.0113,2427.6816 Q1501.0113,2426.3535 1501.6206,2425.2129 Q1502.2456,2424.0566 1503.3394,2423.4473 Q1504.4331,2422.8223 1505.6675,2422.8223 Q1506.4019,2422.8223 1507.0425,2422.9941 Q1507.6988,2423.1504 1508.2456,2423.5098 Z " fill="#000000"/><text fill="#000000" font-family="sans-serif" font-size="14" lengthAdjust="spacing" textLength="75" x="1521.28" y="2433.4316">SystemUser</text><line style="stroke:#181818;stroke-width:0.5;" x1="1483.38" x2="1606.38" y1="2443.6348" y2="2443.6348"/><text fill="#000000" font-family="sans-serif" font-size="14" lengthAdjust="spacing" textLength="113" x="1488.38" y="2462.7422">-username: String</text><text fill="#000000" font-family="sans-serif" font-size="14" lengthAdjust="spacing" textLength="110" x="1488.38" y="2481.3633">-password: String</text><text fill="#000000" font-family="sans-serif" font-size="14" lengthAdjust="spacing" textLength="85" x="1488.38" y="2499.9844">-name: String</text><text fill="#000000" font-family="sans-serif" font-size="14" lengthAdjust="spacing" textLength="84" x="1488.38" y="2518.6055">-Email: String</text><text fill="#000000" font-family="sans-serif" font-size="14" lengthAdjust="spacing" textLength="101" x="1488.38" y="2537.2266">-active: boolean</text><line style="stroke:#181818;stroke-width:0.5;" x1="1483.38" x2="1606.38" y1="2544.7402" y2="2544.7402"/></g><g id="elem_GMN86"><path d="M1345.88,2612.6348 L1345.88,2691.7988 A0,0 0 0 0 1345.88,2691.7988 L1653.88,2691.7988 A0,0 0 0 0 1653.88,2691.7988 L1653.88,2622.6348 L1643.88,2612.6348 L1514.23,2612.6348 L1526.19,2552.9248 L1506.23,2612.6348 L1345.88,2612.6348 A0,0 0 0 0 1345.88,2612.6348 " fill="#FEFFDD" style="stroke:#181818;stroke-width:0.5;"/><path d="M1643.88,2612.6348 L1643.88,2622.6348 L1653.88,2622.6348 L1643.88,2612.6348 " fill="#FEFFDD" style="stroke:#181818;stroke-width:0.5;"/><text fill="#000000" font-family="sans-serif" font-size="13" lengthAdjust="spacing" textLength="231" x="1351.88" y="2631.6631">The properties of the user are simplified.</text><text fill="#000000" font-family="sans-serif" font-size="13" lengthAdjust="spacing" textLength="235" x="1351.88" y="2648.9541">In reality there is actually a Value Object</text><text fill="#000000" font-family="sans-serif" font-size="13" lengthAdjust="spacing" textLength="234" x="1351.88" y="2666.2451">for all the properties, except the "active".</text><text fill="#000000" font-family="sans-serif" font-size="13" lengthAdjust="spacing" textLength="287" x="1351.88" y="2683.5361">Other not relevant properties are not being shown.</text></g><!--class ECourseRoles--><g id="elem_ECourseRoles"><rect codeLine="229" fill="#F1F1F1" height="141.1055" id="ECourseRoles" rx="2.5" ry="2.5" style="stroke:#181818;stroke-width:0.5;" width="248" x="1709.88" y="2411.6348"/><ellipse cx="1784.13" cy="2427.6348" fill="#ADD1B2" rx="11" ry="11" style="stroke:#181818;stroke-width:1.0;"/><path d="M1786.8956,2423.5098 Q1787.0519,2423.291 1787.2394,2423.1816 Q1787.4269,2423.0723 1787.6456,2423.0723 Q1788.0206,2423.0723 1788.255,2423.3379 Q1788.4894,2423.5879 1788.4894,2424.1973 L1788.4894,2425.6504 Q1788.4894,2426.2598 1788.255,2426.5254 Q1788.0206,2426.791 1787.6456,2426.791 Q1787.3019,2426.791 1787.0988,2426.5879 Q1786.8956,2426.4004 1786.7863,2425.8848 Q1786.7394,2425.5254 1786.5519,2425.3379 Q1786.2238,2424.9629 1785.6144,2424.7441 Q1785.005,2424.5254 1784.38,2424.5254 Q1783.6144,2424.5254 1782.9738,2424.8535 Q1782.3488,2425.1816 1781.8488,2425.9316 Q1781.3644,2426.6816 1781.3644,2427.7129 L1781.3644,2428.8066 Q1781.3644,2430.041 1782.255,2430.8691 Q1783.1456,2431.6816 1784.7394,2431.6816 Q1785.6769,2431.6816 1786.3331,2431.4316 Q1786.7238,2431.2754 1787.1456,2430.8379 Q1787.4113,2430.5723 1787.5519,2430.4941 Q1787.7081,2430.416 1787.9113,2430.416 Q1788.2394,2430.416 1788.4894,2430.6816 Q1788.755,2430.9316 1788.755,2431.2754 Q1788.755,2431.6191 1788.4113,2432.0254 Q1787.9113,2432.6035 1787.1144,2432.9316 Q1786.0363,2433.3848 1784.7394,2433.3848 Q1783.2238,2433.3848 1782.0206,2432.7598 Q1781.0363,2432.2598 1780.3488,2431.1973 Q1779.6613,2430.1191 1779.6613,2428.8379 L1779.6613,2427.6816 Q1779.6613,2426.3535 1780.2706,2425.2129 Q1780.8956,2424.0566 1781.9894,2423.4473 Q1783.0831,2422.8223 1784.3175,2422.8223 Q1785.0519,2422.8223 1785.6925,2422.9941 Q1786.3488,2423.1504 1786.8956,2423.5098 Z " fill="#000000"/><text fill="#000000" font-family="sans-serif" font-size="14" lengthAdjust="spacing" textLength="91" x="1804.63" y="2433.4316">ECourseRoles</text><line style="stroke:#181818;stroke-width:0.5;" x1="1710.88" x2="1956.88" y1="2443.6348" y2="2443.6348"/><text fill="#000000" font-family="sans-serif" font-size="14" lengthAdjust="spacing" text-decoration="underline" textLength="109" x="1715.88" y="2462.7422">+STUDENT: Role</text><text fill="#000000" font-family="sans-serif" font-size="14" lengthAdjust="spacing" text-decoration="underline" textLength="110" x="1715.88" y="2481.3633">+TEACHER: Role</text><text fill="#000000" font-family="sans-serif" font-size="14" lengthAdjust="spacing" text-decoration="underline" textLength="113" x="1715.88" y="2499.9844">+MANAGER: Role</text><text fill="#000000" font-family="sans-serif" font-size="14" lengthAdjust="spacing" text-decoration="underline" textLength="128" x="1715.88" y="2518.6055">+SUPERUSER: Role</text><line style="stroke:#181818;stroke-width:0.5;" x1="1710.88" x2="1956.88" y1="2526.1191" y2="2526.1191"/><text fill="#000000" font-family="sans-serif" font-size="14" lengthAdjust="spacing" textLength="236" x="1715.88" y="2545.2266">+getRoles(): Iterable&lt;ECourseRoles&gt;</text></g><!--link ManagerMenuUI to RegisterUserUI--><g id="link_ManagerMenuUI_RegisterUserUI"><path codeLine="32" d="M146.88,454.6348 C146.88,470.6348 146.88,492.0848 146.88,509.1648 " fill="none" id="ManagerMenuUI-to-RegisterUserUI" style="stroke:#181818;stroke-width:1.0;"/><polygon fill="#181818" points="146.88,514.3148,150.88,505.3148,146.88,509.3148,142.88,505.3148,146.88,514.3148" style="stroke:#181818;stroke-width:1.0;"/></g><!--reverse link EnableUserUI to ManagerMenuUI--><g id="link_EnableUserUI_ManagerMenuUI"><path codeLine="33" d="M169.4,133.2848 C146.56,146.8248 122.62,165.8548 109.88,190.6348 C72.83,262.7048 112.67,361.9448 134.53,406.4348 " fill="none" id="EnableUserUI-backto-ManagerMenuUI" style="stroke:#181818;stroke-width:1.0;"/><polygon fill="#181818" points="173.95,130.6448,164.1559,131.6822,169.6203,133.1454,168.157,138.6098,173.95,130.6448" style="stroke:#181818;stroke-width:1.0;"/></g><!--reverse link DisableUserUI to ManagerMenuUI--><g id="link_DisableUserUI_ManagerMenuUI"><path codeLine="34" d="M179.15,243.5048 C174.4,259.5048 168.71,280.0548 164.88,298.6348 C157.18,335.9548 151.9,379.9548 149.14,406.2848 " fill="none" id="DisableUserUI-backto-ManagerMenuUI" style="stroke:#181818;stroke-width:1.0;"/><polygon fill="#181818" points="180.6,238.6848,174.1989,246.1698,179.1737,243.477,181.8665,248.4518,180.6,238.6848" style="stroke:#181818;stroke-width:1.0;"/></g><!--reverse link ListUsersUI to ManagerMenuUI--><g id="link_ListUsersUI_ManagerMenuUI"><path codeLine="35" d="M211.51,350.8848 C197.43,368.0448 179.44,389.9648 166.02,406.3148 " fill="none" id="ListUsersUI-backto-ManagerMenuUI" style="stroke:#181818;stroke-width:1.0;"/><polygon fill="#181818" points="215,346.6348,206.1943,351.0462,211.8245,350.4969,212.3738,356.127,215,346.6348" style="stroke:#181818;stroke-width:1.0;"/></g><!--link DisableUserUI to ListUsersUI--><g id="link_DisableUserUI_ListUsersUI"><path codeLine="36" d="M197.86,238.6348 C204.87,254.7748 214.27,276.4548 221.72,293.6048 " fill="none" id="DisableUserUI-to-ListUsersUI" style="stroke:#181818;stroke-width:1.0;stroke-dasharray:7.0,7.0;"/><polygon fill="#181818" points="223.76,298.3148,223.8543,288.4664,221.7732,293.7265,216.5131,291.6453,223.76,298.3148" style="stroke:#181818;stroke-width:1.0;"/></g><!--link EnableUserUI to ListUsersUI--><g id="link_EnableUserUI_ListUsersUI"><path codeLine="37" d="M240.25,130.9648 C249.29,147.0748 260.13,169.3448 264.88,190.6348 C272.84,226.2848 259.53,267.2248 247.95,293.7148 " fill="none" id="EnableUserUI-to-ListUsersUI" style="stroke:#181818;stroke-width:1.0;stroke-dasharray:7.0,7.0;"/><polygon fill="#181818" points="245.81,298.4848,253.1415,291.9084,247.8553,293.9222,245.8415,288.636,245.81,298.4848" style="stroke:#181818;stroke-width:1.0;"/></g><!--link RegisterUserUI to RegisterStudentUI--><g id="link_RegisterUserUI_RegisterStudentUI"><path codeLine="41" d="M155.24,562.9248 C167.14,596.0548 188.92,656.6948 201.73,692.3548 " fill="none" id="RegisterUserUI-to-RegisterStudentUI" style="stroke:#181818;stroke-width:1.0;"/><polygon fill="#181818" points="203.55,697.4348,204.2767,687.6128,201.862,692.7283,196.7464,690.3136,203.55,697.4348" style="stroke:#181818;stroke-width:1.0;"/></g><!--link RegisterUserUI to RegisterTeacherUI--><g id="link_RegisterUserUI_RegisterTeacherUI"><path codeLine="42" d="M124.64,562.9648 C123.14,565.4248 121.84,567.9948 120.88,570.6348 C88.66,659.1748 94.14,692.2848 120.88,782.6348 C130.23,814.2248 151.71,845.2648 168.78,866.4548 " fill="none" id="RegisterUserUI-to-RegisterTeacherUI" style="stroke:#181818;stroke-width:1.0;"/><polygon fill="#181818" points="172.14,870.5548,169.552,861.052,168.98,866.6799,163.3522,866.1079,172.14,870.5548" style="stroke:#181818;stroke-width:1.0;"/></g><!--link RegisterUserUI to RegisterManagerUI--><g id="link_RegisterUserUI_RegisterManagerUI"><path codeLine="43" d="M96.96,562.7448 C94.64,565.1348 92.57,567.7648 90.88,570.6348 C6,714.6448 46.58,788.2048 99.88,946.6348 C110.56,978.3848 132.97,1009.5448 150.52,1030.7248 " fill="none" id="RegisterUserUI-to-RegisterManagerUI" style="stroke:#181818;stroke-width:1.0;"/><polygon fill="#181818" points="153.74,1034.5648,151.0547,1025.0891,150.5405,1030.7225,144.907,1030.2083,153.74,1034.5648" style="stroke:#181818;stroke-width:1.0;"/></g><!--reverse link ECourseUser to UserState--><g id="link_ECourseUser_UserState"><path codeLine="91" d="M1014.72,1752.5448 C951.37,1767.2048 857.05,1792.5148 779.88,1827.6348 C773.91,1830.3548 767.84,1833.5548 761.94,1836.9448 " fill="none" id="ECourseUser-backto-UserState" style="stroke:#181818;stroke-width:1.0;"/><polygon fill="#181818" points="1027.75,1749.5748,1021.0088,1747.0141,1016.0524,1752.2519,1022.7936,1754.8125,1027.75,1749.5748" style="stroke:#181818;stroke-width:1.0;"/></g><!--reverse link ECourseUser to UserBirthdate--><g id="link_ECourseUser_UserBirthdate"><path codeLine="92" d="M1036.32,1767.8048 C1002.58,1788.3448 957.96,1815.5048 923.42,1836.5448 " fill="none" id="ECourseUser-backto-UserBirthdate" style="stroke:#181818;stroke-width:1.0;"/><polygon fill="#181818" points="1047.76,1760.8448,1040.555,1760.5479,1037.5099,1767.0845,1044.7149,1767.3814,1047.76,1760.8448" style="stroke:#181818;stroke-width:1.0;"/></g><!--reverse link ECourseUser to UserMechanographicNumber--><g id="link_ECourseUser_UserMechanographicNumber"><path codeLine="93" d="M1085.88,1773.8548 C1085.88,1793.3848 1085.88,1817.3048 1085.88,1836.2948 " fill="none" id="ECourseUser-backto-UserMechanographicNumber" style="stroke:#181818;stroke-width:1.0;"/><polygon fill="#181818" points="1085.88,1760.8448,1081.88,1766.8448,1085.88,1772.8448,1089.88,1766.8448,1085.88,1760.8448" style="stroke:#181818;stroke-width:1.0;"/></g><!--reverse link ECourseUser to UserAcronym--><g id="link_ECourseUser_UserAcronym"><path codeLine="94" d="M1132.41,1768.0748 C1163.76,1788.5848 1205.05,1815.6048 1237.06,1836.5448 " fill="none" id="ECourseUser-backto-UserAcronym" style="stroke:#181818;stroke-width:1.0;"/><polygon fill="#181818" points="1121.35,1760.8448,1124.1802,1767.4772,1131.3911,1767.4157,1128.5608,1760.7832,1121.35,1760.8448" style="stroke:#181818;stroke-width:1.0;"/></g><!--reverse link ECourseUser to UserTaxNumber--><g id="link_ECourseUser_UserTaxNumber"><path codeLine="95" d="M1014.73,1746.7748 C927.37,1759.2548 775.49,1785.0748 650.88,1827.6348 C643.42,1830.1848 635.77,1833.2348 628.26,1836.5148 " fill="none" id="ECourseUser-backto-UserTaxNumber" style="stroke:#181818;stroke-width:1.0;"/><polygon fill="#181818" points="1027.66,1744.9548,1021.1604,1741.8314,1015.7775,1746.6297,1022.277,1749.7531,1027.66,1744.9548" style="stroke:#181818;stroke-width:1.0;"/></g><!--link StudentBuilder to IeCourseUserBuilder--><g id="link_StudentBuilder_IeCourseUserBuilder"><path codeLine="123" d="M1354.51,1500.7348 C1309.37,1517.7748 1259.22,1536.7048 1214.6,1553.5448 " fill="none" id="StudentBuilder-to-IeCourseUserBuilder" style="stroke:#181818;stroke-width:1.0;"/><polygon fill="none" points="1217.02,1560.1148,1195.84,1560.6248,1212.08,1547.0148,1217.02,1560.1148" style="stroke:#181818;stroke-width:1.0;"/></g><!--link TeacherBuilder to IeCourseUserBuilder--><g id="link_TeacherBuilder_IeCourseUserBuilder"><path codeLine="124" d="M724.62,1497.9948 C787.7,1516.1748 859.29,1536.8148 922.01,1554.8948 " fill="none" id="TeacherBuilder-to-IeCourseUserBuilder" style="stroke:#181818;stroke-width:1.0;"/><polygon fill="none" points="924.33,1548.2748,941.61,1560.5448,920.45,1561.7348,924.33,1548.2748" style="stroke:#181818;stroke-width:1.0;"/></g><!--link ManagerBuilder to IeCourseUserBuilder--><g id="link_ManagerBuilder_IeCourseUserBuilder"><path codeLine="125" d="M1200.38,1472.7948 C1183.33,1492.0448 1158.36,1520.2648 1136.08,1545.4348 " fill="none" id="ManagerBuilder-to-IeCourseUserBuilder" style="stroke:#181818;stroke-width:1.0;"/><polygon fill="none" points="1141.15,1550.2648,1122.65,1560.6048,1130.66,1540.9848,1141.15,1550.2648" style="stroke:#181818;stroke-width:1.0;"/></g><!--link IeCourseUserBuilderFactory to IeCourseUserBuilder--><g id="link_IeCourseUserBuilderFactory_IeCourseUserBuilder"><path codeLine="127" d="M971.2,1482.3548 C991.96,1504.0348 1019.48,1532.7748 1042.36,1556.6748 " fill="none" id="IeCourseUserBuilderFactory-to-IeCourseUserBuilder" style="stroke:#181818;stroke-width:1.0;stroke-dasharray:7.0,7.0;"/><polygon fill="#181818" points="1045.99,1560.4648,1042.6412,1551.2027,1042.5267,1556.8584,1036.871,1556.7439,1045.99,1560.4648" style="stroke:#181818;stroke-width:1.0;"/></g><!--link IeCourseUserBuilder to ECourseUser--><g id="link_IeCourseUserBuilder_ECourseUser"><path codeLine="129" d="M1085.88,1645.7448 C1085.88,1665.6548 1085.88,1688.9948 1085.88,1706.9048 " fill="none" id="IeCourseUserBuilder-to-ECourseUser" style="stroke:#181818;stroke-width:1.0;"/><polygon fill="#181818" points="1085.88,1712.2748,1089.88,1703.2748,1085.88,1707.2748,1081.88,1703.2748,1085.88,1712.2748" style="stroke:#181818;stroke-width:1.0;"/></g><!--link StudentBuilder to IMechanographicNumberAssigner--><g id="link_StudentBuilder_IMechanographicNumberAssigner"><path codeLine="136" d="M1623.91,1500.7348 C1673.3,1519.5648 1728.73,1540.6948 1776.15,1558.7748 " fill="none" id="StudentBuilder-to-IMechanographicNumberAssigner" style="stroke:#181818;stroke-width:1.0;stroke-dasharray:7.0,7.0;"/><polygon fill="#181818" points="1781.01,1560.6248,1774.0315,1553.6749,1776.3396,1558.8394,1771.175,1561.1475,1781.01,1560.6248" style="stroke:#181818;stroke-width:1.0;"/></g><!--link RegisterUserController to RegisterStudentController--><g id="link_RegisterUserController_RegisterStudentController"><path codeLine="185" d="M513.22,764.4648 C535.3,786.8048 562.75,814.5748 586.53,838.6448 " fill="none" id="RegisterUserController-to-RegisterStudentController" style="stroke:#181818;stroke-width:1.0;"/><polygon fill="#181818" points="590.31,842.4648,586.8302,833.2511,586.796,838.9079,581.1392,838.8736,590.31,842.4648" style="stroke:#181818;stroke-width:1.0;"/></g><!--link RegisterUserController to RegisterTeacherController--><g id="link_RegisterUserController_RegisterTeacherController"><path codeLine="186" d="M550.34,764.2748 C565.19,771.0948 580.8,777.5748 595.88,782.6348 C725.2,826.0248 810.36,737.1748 896.88,842.6348 C926.2,878.3748 921.59,907.5648 896.88,946.6348 C881.89,970.3348 860.32,989.0748 836.25,1003.8648 " fill="none" id="RegisterUserController-to-RegisterTeacherController" style="stroke:#181818;stroke-width:1.0;"/><polygon fill="#181818" points="831.73,1006.5848,841.5054,1005.3843,836.0175,1004.0123,837.3895,998.5243,831.73,1006.5848" style="stroke:#181818;stroke-width:1.0;"/></g><!--link RegisterUserController to RegisterManagerController--><g id="link_RegisterUserController_RegisterManagerController"><path codeLine="187" d="M431.69,764.1948 C413.63,785.7648 394.29,813.6248 384.88,842.6348 C348.03,956.2548 337.95,1011.7048 404.88,1110.6348 C420.61,1133.8748 442.88,1152.7148 466.93,1167.8248 " fill="none" id="RegisterUserController-to-RegisterManagerController" style="stroke:#181818;stroke-width:1.0;"/><polygon fill="#181818" points="471.44,1170.5948,465.8836,1162.4629,467.1856,1167.9679,461.6807,1169.2699,471.44,1170.5948" style="stroke:#181818;stroke-width:1.0;"/></g><!--link RegisterUserUI to RegisterUserController--><g id="link_RegisterUserUI_RegisterUserController"><path codeLine="190" d="M209.99,544.8348 C238.84,549.0648 272.77,556.7248 300.88,570.6348 C352.45,596.1448 400.71,641.2048 432.72,675.2948 " fill="none" id="RegisterUserUI-to-RegisterUserController" style="stroke:#181818;stroke-width:1.0;stroke-dasharray:7.0,7.0;"/><polygon fill="#181818" points="436.15,678.9748,432.9321,669.6664,432.7379,675.32,427.0844,675.1258,436.15,678.9748" style="stroke:#181818;stroke-width:1.0;"/></g><!--link RegisterStudentUI to RegisterStudentController--><g id="link_RegisterStudentUI_RegisterStudentController"><path codeLine="191" d="M263.02,745.7448 C288.66,757.1548 320.28,770.9448 348.88,782.6348 C396.93,802.2748 449.87,822.7448 497.32,840.6748 " fill="none" id="RegisterStudentUI-to-RegisterStudentController" style="stroke:#181818;stroke-width:1.0;stroke-dasharray:7.0,7.0;"/><polygon fill="#181818" points="502.19,842.5148,495.193,835.5835,497.5148,840.7419,492.3565,843.0638,502.19,842.5148" style="stroke:#181818;stroke-width:1.0;"/></g><!--link RegisterTeacherUI to RegisterTeacherController--><g id="link_RegisterTeacherUI_RegisterTeacherController"><path codeLine="192" d="M259.72,918.6748 C324.64,941.0548 425.51,975.8148 510.12,1004.9848 " fill="none" id="RegisterTeacherUI-to-RegisterTeacherController" style="stroke:#181818;stroke-width:1.0;stroke-dasharray:7.0,7.0;"/><polygon fill="#181818" points="514.9,1006.6248,507.6931,999.912,510.1725,1004.9966,505.088,1007.476,514.9,1006.6248" style="stroke:#181818;stroke-width:1.0;"/></g><!--link RegisterManagerUI to RegisterManagerController--><g id="link_RegisterManagerUI_RegisterManagerController"><path codeLine="193" d="M236.32,1082.6748 C295.81,1104.9848 388.15,1139.6148 465.77,1168.7148 " fill="none" id="RegisterManagerUI-to-RegisterManagerController" style="stroke:#181818;stroke-width:1.0;stroke-dasharray:7.0,7.0;"/><polygon fill="#181818" points="470.86,1170.6248,463.8375,1163.7193,466.1784,1168.8691,461.0285,1171.21,470.86,1170.6248" style="stroke:#181818;stroke-width:1.0;"/></g><!--link EnableUserUI to EnableUserController--><g id="link_EnableUserUI_EnableUserController"><path codeLine="196" d="M284.43,107.9548 C494.36,110.6448 1196.88,133.6948 1196.88,321.6348 C1196.88,321.6348 1196.88,321.6348 1196.88,431.6348 C1196.88,462.5748 1330.83,591.0848 1411.75,665.9148 " fill="none" id="EnableUserUI-to-EnableUserController" style="stroke:#181818;stroke-width:1.0;stroke-dasharray:7.0,7.0;"/><polygon fill="#181818" points="1415.57,669.4348,1411.6655,660.3929,1411.8943,666.0451,1406.2421,666.274,1415.57,669.4348" style="stroke:#181818;stroke-width:1.0;"/></g><!--link DisableUserUI to DisableUserController--><g id="link_DisableUserUI_DisableUserController"><path codeLine="197" d="M248.28,238.1948 C379.07,288.3248 696.01,416.7848 935.88,570.6348 C979.17,598.4048 1023.51,635.4748 1057.22,665.8248 " fill="none" id="DisableUserUI-to-DisableUserController" style="stroke:#181818;stroke-width:1.0;stroke-dasharray:7.0,7.0;"/><polygon fill="#181818" points="1061.28,669.4848,1057.2853,660.4824,1057.5706,666.1321,1051.921,666.4174,1061.28,669.4848" style="stroke:#181818;stroke-width:1.0;"/></g><!--link ListUsersUI to ListUsersController--><g id="link_ListUsersUI_ListUsersController"><path codeLine="198" d="M270.9,346.7248 C337.63,388.8248 481.76,481.9048 595.88,570.6348 C630.52,597.5748 667.24,629.4948 697.65,656.9548 " fill="none" id="ListUsersUI-to-ListUsersController" style="stroke:#181818;stroke-width:1.0;stroke-dasharray:7.0,7.0;"/><polygon fill="#181818" points="701.7,660.6248,697.7053,651.6224,697.9906,657.2721,692.341,657.5574,701.7,660.6248" style="stroke:#181818;stroke-width:1.0;"/></g><!--link RegisterStudentController to IeCourseUserBuilderFactory--><g id="link_RegisterStudentController_IeCourseUserBuilderFactory"><path codeLine="201" d="M851.01,946.8048 C878.28,961.8748 902.92,981.3848 920.88,1006.6348 C1009.11,1130.6848 971.86,1327.7348 950.73,1409.8148 " fill="none" id="RegisterStudentController-to-IeCourseUserBuilderFactory" style="stroke:#181818;stroke-width:1.0;stroke-dasharray:7.0,7.0;"/><polygon fill="#181818" points="949.37,1415.0548,955.5299,1407.37,950.6432,1410.2196,947.7936,1405.3329,949.37,1415.0548" style="stroke:#181818;stroke-width:1.0;"/></g><!--link RegisterTeacherController to IeCourseUserBuilderFactory--><g id="link_RegisterTeacherController_IeCourseUserBuilderFactory"><path codeLine="202" d="M794.51,1110.7148 C821.63,1126.4248 847.72,1146.2048 866.88,1170.6348 C922.89,1242.0448 936.14,1352.4048 939.13,1409.8948 " fill="none" id="RegisterTeacherController-to-IeCourseUserBuilderFactory" style="stroke:#181818;stroke-width:1.0;stroke-dasharray:7.0,7.0;"/><polygon fill="#181818" points="939.38,1414.9548,942.9374,1405.7708,939.1367,1409.9607,934.9469,1406.16,939.38,1414.9548" style="stroke:#181818;stroke-width:1.0;"/></g><!--link RegisterManagerController to IeCourseUserBuilderFactory--><g id="link_RegisterManagerController_IeCourseUserBuilderFactory"><path codeLine="203" d="M692.05,1274.7948 C708.7,1285.1348 725.94,1296.0748 741.88,1306.6348 C793.99,1341.1448 852.07,1382.9248 891.78,1412.0048 " fill="none" id="RegisterManagerController-to-IeCourseUserBuilderFactory" style="stroke:#181818;stroke-width:1.0;stroke-dasharray:7.0,7.0;"/><polygon fill="#181818" points="896.05,1415.1248,891.1618,1406.5746,892.0193,1412.1661,886.4279,1413.0237,896.05,1415.1248" style="stroke:#181818;stroke-width:1.0;"/></g><!--link ECourseUser to IeCourseUserRepository--><g id="link_ECourseUser_IeCourseUserRepository"><path codeLine="206" d="M1142.95,1760.7748 C1149.31,1763.1648 1155.71,1765.5048 1161.88,1767.6348 C1249.99,1798.1148 1307.18,1752.8748 1362.88,1827.6348 C1391.82,1866.4848 1384.7,1893.3848 1362.88,1936.6348 C1352.62,1956.9748 1336.77,1974.5648 1319.1,1989.3948 " fill="none" id="ECourseUser-IeCourseUserRepository" style="stroke:#181818;stroke-width:1.0;"/><text fill="#000000" font-family="sans-serif" font-size="13" lengthAdjust="spacing" textLength="5" x="1151.2514" y="1782.7946">*</text><text fill="#000000" font-family="sans-serif" font-size="13" lengthAdjust="spacing" textLength="7" x="1324.3239" y="1978.3482">1</text></g><!--link SystemUser to ECourseRoles--><g id="link_SystemUser_ECourseRoles"><path codeLine="239" d="M1607.53,2482.1348 C1639.85,2482.1348 1672.16,2482.1348 1704.47,2482.1348 " fill="none" id="SystemUser-to-ECourseRoles" style="stroke:#181818;stroke-width:1.0;stroke-dasharray:7.0,7.0;"/><polygon fill="#181818" points="1709.66,2482.1348,1700.66,2478.1348,1704.66,2482.1348,1700.66,2486.1348,1709.66,2482.1348" style="stroke:#181818;stroke-width:1.0;"/></g><!--link ECourseUser to SystemUser--><g id="link_ECourseUser_SystemUser"><path codeLine="240" d="M1142.49,1760.7548 C1148.99,1763.1848 1155.55,1765.5248 1161.88,1767.6348 C1325.75,1822.2448 1433.12,1788.9248 1507.88,1944.6348 C1580.37,2095.6348 1569.43,2298.4748 1556.4,2406.3348 " fill="none" id="ECourseUser-to-SystemUser" style="stroke:#181818;stroke-width:1.0;stroke-dasharray:7.0,7.0;"/><polygon fill="#181818" points="1555.77,2411.4048,1560.8464,2402.965,1556.3849,2406.4427,1552.9072,2401.9812,1555.77,2411.4048" style="stroke:#181818;stroke-width:1.0;"/></g><!--SRC=[pLZVR-8u47xtNs7nKdONKFjQhP1eoUwXuqULm9twQ18NV1iSP3jBERR_-usTa3Y9mz8-NQKYy7mUppSUZsSiVp2-9uBiS1WJAKTA2RPE5Ps42G_OlnJV8dIZc8efCfzu5TpTtjxXFlOUarH8kf9Ku1dXP4Dtb2lygDNWCICRK8hGdeG_G8HJXa_8B963nOpoT3M1qJUK2towOL9HeLLM9HudwvWsnyTCkWLJKAH7fNk5t0ItS4b9k6qJ1YgDW6Ok176LJJ_g3siyweYqtmUCpSY165QfDH53coAg-c4mg4ehtgiBqOt8pPK8rNQWRv4fY3T15ghmdGDbmGh_ep92Q6ZYAGNyhWodKo4NT9z8fXB1g8HXna7F2mafdj0o4lqpw0YGB_Y5yMWKnva38aEv- -aUJs2g7lbgnV2mXEVUl1f_5MvAf9hHS4ju0YTZlsNXFDsjgPZmPqf4zmWVe66nLopX9FwgfxhWGuWvdYYArubIoGudBoty4SOJZXCHmV5K2NWlIi5NQajncEpsCNrbwgXdwv4eEwqzc0C_1SK4_c4LxND19Um3ZVAfdDDGcoZncge3fJoReoLA974Cdi24QpIJMKeP008s7pwNUgpSD_ggA8-acJvETeJnYlK5i8SFG7-BORAsIMwJ0mTfjeHbEW7bIgCWdwapDM_qD9ryyqSpx- -5_sVFs6PGC25Z6DEV10BD-2Xd2uW10jiqWkf3Vex1o9XPP38x1PxE6oFOPckMjwJ_eyqeQ44gsM5jNA08c7r2tdpqCFN6Q3m9iYzlEKqDUc12RQCCsCVhywzxF4r24e-9yLC9TuMkcRbp2Evn0BSEtrGqZ4AHyEFEJ2BPToTkILujzUhyoyAYaYGapi-LVQbISugTL9p8iybEOMbdG-nAWUkKnP7UlnDgINKF6U8R2Ojq5meADBm6fWl1G7L-QaxN_hcetoW-CBKDZf2vTrhIbSNN5gLViB5VvqIRQ76RvfU9lKHrgEkAav6KRCFrehb9nSvrYu3yT5_Jb4F1_K_aI4McgLl4IHDV69dVPNK_vBlSpOCI55I15srpGY_OLiCNjkKNQ6aRI6fExVT_3PsRK-FLYgkjqOf35w9ILnlkg7E5cYcCx8DXHURiGa2OlRa4w3glI1D7d1vSCtNejfr-XxCDpqiMw3dbGIVxVSn2edDtSPdO1TDZaS0DDRUeQ-o7kqCgI7G-7F5g4Q97XguQkgRT9RZWiEZQweWMUhjfbYgAwgQ2T5NpDHETaWisqYiBlgZKUwMDHUbSiz0nVi4-SaNH-4uElmEsTJ8jeTQGkjdqSDeuz8QXgEentkLa1yNS_X3re28MKitDRp0g-uOmXUegxfNLHG_RkT1vazGQZnOs3Ua7sUHwtiKcloS-HYlFmIsq6j8Fqihrl8DMm-utT8Dzx_iaM7e-VbpCb_vYElNy0BMaDKThMKhR9pLRpQjcDLjFQvfjkUvKBVFhNQnEy-vLKFE1m0QtKonV6snyExdowSB6Erajbd_03ZGuDPu3N1U0uqd1cOIH_T9IULkescA515Zpi9fCnvPxcxcefN38enUr7_ih9pOFrcyc0WTllfmidy5yttjQ19Fbmdz6TWlO-TpH3q1ztBdhj7Nbo1G2vpgWsfqMfK1PQfkcvdmiYvwc3oskb0Ve9wsX6iBJnzJw3JJOJm2i4oWB26y-8vIBcbQTuhr8zbGe_ToIjwRQ4DEEIWPTAtjXD1fahIqq7h7kOREE5RfDM2w5M-w82VwBn2d5Y_K_qAm2-YKH-lup2iibUb38X7Ilp70dCxQZbI-qocghRXbsxetN55XcJmFkphtnh5Jfu4tnP5BhXgfc9MMZz9Lxaj1Dil0D1ylL6ABY7ckHBLXweqSuV4t1R3GVVNS9WjMJvw-2GcGU5v4L2ODXnTfAv0tqtz3Umly0]--></g></svg>