<?xml version="1.0" encoding="us-ascii" standalone="no"?><svg xmlns="http://www.w3.org/2000/svg" xmlns:xlink="http://www.w3.org/1999/xlink" contentStyleType="text/css" height="1049px" preserveAspectRatio="none" style="width:1388px;height:1049px;background:#FFFFFF;" version="1.1" viewBox="0 0 1388 1049" width="1388px" zoomAndPan="magnify"><defs/><g><text fill="#000000" font-family="sans-serif" font-size="14" font-weight="bold" lengthAdjust="spacing" textLength="118" x="634" y="30.1074">Update Question</text><rect fill="#FFFFFF" height="111.1641" style="stroke:#181818;stroke-width:1.0;" width="10" x="228.5" y="161.1543"/><rect fill="#FFFFFF" height="660.4023" style="stroke:#181818;stroke-width:1.0;" width="10" x="388.5" y="272.3184"/><rect fill="#FFFFFF" height="128.4551" style="stroke:#181818;stroke-width:1.0;" width="10" x="693.5" y="334.9004"/><rect fill="#FFFFFF" height="281.6191" style="stroke:#181818;stroke-width:1.0;" width="10" x="693.5" y="619.8105"/><rect fill="#FFFFFF" height="48.582" style="stroke:#181818;stroke-width:1.0;" width="10" x="889.5" y="366.1914"/><rect fill="#FFFFFF" height="31.291" style="stroke:#181818;stroke-width:1.0;" width="10" x="889.5" y="838.8477"/><rect fill="#FFFFFF" height="31.291" style="stroke:#181818;stroke-width:1.0;" width="10" x="1046" y="651.1016"/><rect fill="#FFFFFF" height="31.291" style="stroke:#181818;stroke-width:1.0;" width="10" x="1188.5" y="776.2656"/><rect fill="#FFFFFF" height="31.291" style="stroke:#181818;stroke-width:1.0;" width="10" x="1313.5" y="713.6836"/><line style="stroke:#181818;stroke-width:0.5;stroke-dasharray:5.0,5.0;" x1="34" x2="34" y1="127.8633" y2="950.7207"/><line style="stroke:#181818;stroke-width:0.5;stroke-dasharray:5.0,5.0;" x1="233.5" x2="233.5" y1="127.8633" y2="950.7207"/><line style="stroke:#181818;stroke-width:0.5;stroke-dasharray:5.0,5.0;" x1="393.5" x2="393.5" y1="127.8633" y2="950.7207"/><line style="stroke:#181818;stroke-width:0.5;stroke-dasharray:5.0,5.0;" x1="698.5" x2="698.5" y1="127.8633" y2="950.7207"/><line style="stroke:#181818;stroke-width:0.5;stroke-dasharray:5.0,5.0;" x1="894" x2="894" y1="127.8633" y2="950.7207"/><line style="stroke:#181818;stroke-width:0.5;stroke-dasharray:5.0,5.0;" x1="1051" x2="1051" y1="127.8633" y2="950.7207"/><line style="stroke:#181818;stroke-width:0.5;stroke-dasharray:5.0,5.0;" x1="1193" x2="1193" y1="127.8633" y2="950.7207"/><line style="stroke:#181818;stroke-width:0.5;stroke-dasharray:5.0,5.0;" x1="1318" x2="1318" y1="127.8633" y2="950.7207"/><text fill="#000000" font-family="sans-serif" font-size="14" lengthAdjust="spacing" textLength="53" x="5" y="124.3496">Teacher</text><ellipse cx="34.5" cy="57.7422" fill="#E2E2F0" rx="8" ry="8" style="stroke:#181818;stroke-width:0.5;"/><path d="M34.5,65.7422 L34.5,92.7422 M21.5,73.7422 L47.5,73.7422 M34.5,92.7422 L21.5,107.7422 M34.5,92.7422 L47.5,107.7422 " fill="none" style="stroke:#181818;stroke-width:0.5;"/><text fill="#000000" font-family="sans-serif" font-size="14" lengthAdjust="spacing" textLength="53" x="5" y="964.8281">Teacher</text><ellipse cx="34.5" cy="976.8418" fill="#E2E2F0" rx="8" ry="8" style="stroke:#181818;stroke-width:0.5;"/><path d="M34.5,984.8418 L34.5,1011.8418 M21.5,992.8418 L47.5,992.8418 M34.5,1011.8418 L21.5,1026.8418 M34.5,1011.8418 L47.5,1026.8418 " fill="none" style="stroke:#181818;stroke-width:0.5;"/><rect fill="#E2E2F0" height="51.2422" rx="2.5" ry="2.5" style="stroke:#181818;stroke-width:0.5;" width="128" x="169.5" y="75.6211"/><text fill="#000000" font-family="sans-serif" font-size="14" font-style="italic" lengthAdjust="spacing" textLength="27" x="220" y="97.7285">&#171;ui&#187;</text><text fill="#000000" font-family="sans-serif" font-size="14" lengthAdjust="spacing" textLength="114" x="176.5" y="116.3496">UpdateQuestionUI</text><rect fill="#E2E2F0" height="51.2422" rx="2.5" ry="2.5" style="stroke:#181818;stroke-width:0.5;" width="128" x="169.5" y="949.7207"/><text fill="#000000" font-family="sans-serif" font-size="14" font-style="italic" lengthAdjust="spacing" textLength="27" x="220" y="971.8281">&#171;ui&#187;</text><text fill="#000000" font-family="sans-serif" font-size="14" lengthAdjust="spacing" textLength="114" x="176.5" y="990.4492">UpdateQuestionUI</text><rect fill="#E2E2F0" height="51.2422" rx="2.5" ry="2.5" style="stroke:#181818;stroke-width:0.5;" width="160" x="313.5" y="75.6211"/><text fill="#000000" font-family="sans-serif" font-size="14" font-style="italic" lengthAdjust="spacing" textLength="27" x="380" y="97.7285">&#171;ui&#187;</text><text fill="#000000" font-family="sans-serif" font-size="14" lengthAdjust="spacing" textLength="146" x="320.5" y="116.3496">UpdateTypeQuestionUI</text><rect fill="#E2E2F0" height="51.2422" rx="2.5" ry="2.5" style="stroke:#181818;stroke-width:0.5;" width="160" x="313.5" y="949.7207"/><text fill="#000000" font-family="sans-serif" font-size="14" font-style="italic" lengthAdjust="spacing" textLength="27" x="380" y="971.8281">&#171;ui&#187;</text><text fill="#000000" font-family="sans-serif" font-size="14" lengthAdjust="spacing" textLength="146" x="320.5" y="990.4492">UpdateTypeQuestionUI</text><rect fill="#E2E2F0" height="51.2422" rx="2.5" ry="2.5" style="stroke:#181818;stroke-width:0.5;" width="210" x="593.5" y="75.6211"/><text fill="#000000" font-family="sans-serif" font-size="14" font-style="italic" lengthAdjust="spacing" textLength="84" x="656.5" y="97.7285">&#171;application&#187;</text><text fill="#000000" font-family="sans-serif" font-size="14" lengthAdjust="spacing" textLength="196" x="600.5" y="116.3496">UpdateTypeQuestionController</text><rect fill="#E2E2F0" height="51.2422" rx="2.5" ry="2.5" style="stroke:#181818;stroke-width:0.5;" width="210" x="593.5" y="949.7207"/><text fill="#000000" font-family="sans-serif" font-size="14" font-style="italic" lengthAdjust="spacing" textLength="84" x="656.5" y="971.8281">&#171;application&#187;</text><text fill="#000000" font-family="sans-serif" font-size="14" lengthAdjust="spacing" textLength="196" x="600.5" y="990.4492">UpdateTypeQuestionController</text><text fill="#000000" font-family="sans-serif" font-size="14" font-style="italic" lengthAdjust="spacing" textLength="79" x="852" y="105.7285">&#171;repository&#187;</text><text fill="#000000" font-family="sans-serif" font-size="14" lengthAdjust="spacing" textLength="125" x="829" y="124.3496">QuestionRepository</text><path d="M876.5,54.6211 C876.5,44.6211 894.5,44.6211 894.5,44.6211 C894.5,44.6211 912.5,44.6211 912.5,54.6211 L912.5,80.6211 C912.5,90.6211 894.5,90.6211 894.5,90.6211 C894.5,90.6211 876.5,90.6211 876.5,80.6211 L876.5,54.6211 " fill="#E2E2F0" style="stroke:#181818;stroke-width:1.5;"/><path d="M876.5,54.6211 C876.5,64.6211 894.5,64.6211 894.5,64.6211 C894.5,64.6211 912.5,64.6211 912.5,54.6211 " fill="none" style="stroke:#181818;stroke-width:1.5;"/><text fill="#000000" font-family="sans-serif" font-size="14" font-style="italic" lengthAdjust="spacing" textLength="79" x="852" y="964.8281">&#171;repository&#187;</text><text fill="#000000" font-family="sans-serif" font-size="14" lengthAdjust="spacing" textLength="125" x="829" y="983.4492">QuestionRepository</text><path d="M876.5,996.9629 C876.5,986.9629 894.5,986.9629 894.5,986.9629 C894.5,986.9629 912.5,986.9629 912.5,996.9629 L912.5,1022.9629 C912.5,1032.9629 894.5,1032.9629 894.5,1032.9629 C894.5,1032.9629 876.5,1032.9629 876.5,1022.9629 L876.5,996.9629 " fill="#E2E2F0" style="stroke:#181818;stroke-width:1.5;"/><path d="M876.5,996.9629 C876.5,1006.9629 894.5,1006.9629 894.5,1006.9629 C894.5,1006.9629 912.5,1006.9629 912.5,996.9629 " fill="none" style="stroke:#181818;stroke-width:1.5;"/><rect fill="#E2E2F0" height="51.2422" rx="2.5" ry="2.5" style="stroke:#181818;stroke-width:0.5;" width="162" x="970" y="75.6211"/><text fill="#000000" font-family="sans-serif" font-size="14" font-style="italic" lengthAdjust="spacing" textLength="84" x="1009" y="97.7285">&#171;application&#187;</text><text fill="#000000" font-family="sans-serif" font-size="14" lengthAdjust="spacing" textLength="148" x="977" y="116.3496">IQuestionFileGenerator</text><rect fill="#E2E2F0" height="51.2422" rx="2.5" ry="2.5" style="stroke:#181818;stroke-width:0.5;" width="162" x="970" y="949.7207"/><text fill="#000000" font-family="sans-serif" font-size="14" font-style="italic" lengthAdjust="spacing" textLength="84" x="1009" y="971.8281">&#171;application&#187;</text><text fill="#000000" font-family="sans-serif" font-size="14" lengthAdjust="spacing" textLength="148" x="977" y="990.4492">IQuestionFileGenerator</text><rect fill="#E2E2F0" height="51.2422" rx="2.5" ry="2.5" style="stroke:#181818;stroke-width:0.5;" width="103" x="1142" y="75.6211"/><text fill="#000000" font-family="sans-serif" font-size="14" font-style="italic" lengthAdjust="spacing" textLength="62" x="1162.5" y="97.7285">&#171;domain&#187;</text><text fill="#000000" font-family="sans-serif" font-size="14" lengthAdjust="spacing" textLength="89" x="1149" y="116.3496">TypeQuestion</text><rect fill="#E2E2F0" height="51.2422" rx="2.5" ry="2.5" style="stroke:#181818;stroke-width:0.5;" width="103" x="1142" y="949.7207"/><text fill="#000000" font-family="sans-serif" font-size="14" font-style="italic" lengthAdjust="spacing" textLength="62" x="1162.5" y="971.8281">&#171;domain&#187;</text><text fill="#000000" font-family="sans-serif" font-size="14" lengthAdjust="spacing" textLength="89" x="1149" y="990.4492">TypeQuestion</text><rect fill="#E2E2F0" height="51.2422" rx="2.5" ry="2.5" style="stroke:#181818;stroke-width:0.5;" width="127" x="1255" y="75.6211"/><text fill="#000000" font-family="sans-serif" font-size="14" font-style="italic" lengthAdjust="spacing" textLength="62" x="1287.5" y="97.7285">&#171;domain&#187;</text><text fill="#000000" font-family="sans-serif" font-size="14" lengthAdjust="spacing" textLength="113" x="1262" y="116.3496">QuestionValidator</text><rect fill="#E2E2F0" height="51.2422" rx="2.5" ry="2.5" style="stroke:#181818;stroke-width:0.5;" width="127" x="1255" y="949.7207"/><text fill="#000000" font-family="sans-serif" font-size="14" font-style="italic" lengthAdjust="spacing" textLength="62" x="1287.5" y="971.8281">&#171;domain&#187;</text><text fill="#000000" font-family="sans-serif" font-size="14" lengthAdjust="spacing" textLength="113" x="1262" y="990.4492">QuestionValidator</text><rect fill="#FFFFFF" height="111.1641" style="stroke:#181818;stroke-width:1.0;" width="10" x="228.5" y="161.1543"/><rect fill="#FFFFFF" height="660.4023" style="stroke:#181818;stroke-width:1.0;" width="10" x="388.5" y="272.3184"/><rect fill="#FFFFFF" height="128.4551" style="stroke:#181818;stroke-width:1.0;" width="10" x="693.5" y="334.9004"/><rect fill="#FFFFFF" height="281.6191" style="stroke:#181818;stroke-width:1.0;" width="10" x="693.5" y="619.8105"/><rect fill="#FFFFFF" height="48.582" style="stroke:#181818;stroke-width:1.0;" width="10" x="889.5" y="366.1914"/><rect fill="#FFFFFF" height="31.291" style="stroke:#181818;stroke-width:1.0;" width="10" x="889.5" y="838.8477"/><rect fill="#FFFFFF" height="31.291" style="stroke:#181818;stroke-width:1.0;" width="10" x="1046" y="651.1016"/><rect fill="#FFFFFF" height="31.291" style="stroke:#181818;stroke-width:1.0;" width="10" x="1188.5" y="776.2656"/><rect fill="#FFFFFF" height="31.291" style="stroke:#181818;stroke-width:1.0;" width="10" x="1313.5" y="713.6836"/><polygon fill="#181818" points="216.5,157.1543,226.5,161.1543,216.5,165.1543,220.5,161.1543" style="stroke:#181818;stroke-width:1.0;"/><line style="stroke:#181818;stroke-width:1.0;" x1="0" x2="222.5" y1="161.1543" y2="161.1543"/><text fill="#000000" font-family="sans-serif" font-size="13" font-weight="bold" lengthAdjust="spacing" textLength="7" x="7" y="155.8916">1</text><text fill="#000000" font-family="sans-serif" font-size="13" lengthAdjust="spacing" textLength="42" x="18" y="155.8916">onLoad</text><polygon fill="#181818" points="45.5,205.7363,35.5,209.7363,45.5,213.7363,41.5,209.7363" style="stroke:#181818;stroke-width:1.0;"/><line style="stroke:#181818;stroke-width:1.0;stroke-dasharray:2.0,2.0;" x1="39.5" x2="227.5" y1="209.7363" y2="209.7363"/><text fill="#000000" font-family="sans-serif" font-size="13" font-weight="bold" lengthAdjust="spacing" textLength="7" x="51.5" y="195.8281">2</text><text fill="#000000" font-family="sans-serif" font-size="13" lengthAdjust="spacing" textLength="159" x="62.5" y="187.1826">displays the question types</text><text fill="#000000" font-family="sans-serif" font-size="13" lengthAdjust="spacing" textLength="4" x="62.5" y="204.4736">&#160;</text><polygon fill="#181818" points="216.5,237.0273,226.5,241.0273,216.5,245.0273,220.5,241.0273" style="stroke:#181818;stroke-width:1.0;"/><line style="stroke:#181818;stroke-width:1.0;" x1="34.5" x2="222.5" y1="241.0273" y2="241.0273"/><text fill="#000000" font-family="sans-serif" font-size="13" font-weight="bold" lengthAdjust="spacing" textLength="7" x="41.5" y="235.7646">3</text><text fill="#000000" font-family="sans-serif" font-size="13" lengthAdjust="spacing" textLength="135" x="52.5" y="235.7646">selects a question type</text><polygon fill="#181818" points="376.5,268.3184,386.5,272.3184,376.5,276.3184,380.5,272.3184" style="stroke:#181818;stroke-width:1.0;"/><line style="stroke:#181818;stroke-width:1.0;" x1="233.5" x2="382.5" y1="272.3184" y2="272.3184"/><text fill="#000000" font-family="sans-serif" font-size="13" font-weight="bold" lengthAdjust="spacing" textLength="7" x="240.5" y="267.0557">4</text><text fill="#000000" font-family="sans-serif" font-size="13" lengthAdjust="spacing" textLength="120" x="251.5" y="267.0557">creates and displays</text><polygon fill="#181818" points="686.5,299.6094,696.5,303.6094,686.5,307.6094,690.5,303.6094" style="stroke:#181818;stroke-width:1.0;"/><line style="stroke:#181818;stroke-width:1.0;" x1="398.5" x2="692.5" y1="303.6094" y2="303.6094"/><text fill="#000000" font-family="sans-serif" font-size="13" font-weight="bold" lengthAdjust="spacing" textLength="7" x="405.5" y="298.3467">5</text><text fill="#000000" font-family="sans-serif" font-size="13" lengthAdjust="spacing" textLength="231" x="416.5" y="298.3467">create(questionRepo, questionValidator)</text><polygon fill="#181818" points="681.5,330.9004,691.5,334.9004,681.5,338.9004,685.5,334.9004" style="stroke:#181818;stroke-width:1.0;"/><line style="stroke:#181818;stroke-width:1.0;" x1="398.5" x2="687.5" y1="334.9004" y2="334.9004"/><text fill="#000000" font-family="sans-serif" font-size="13" font-weight="bold" lengthAdjust="spacing" textLength="7" x="405.5" y="329.6377">6</text><text fill="#000000" font-family="sans-serif" font-size="13" lengthAdjust="spacing" textLength="84" x="416.5" y="329.6377">listQuestions()</text><polygon fill="#181818" points="877.5,362.1914,887.5,366.1914,877.5,370.1914,881.5,366.1914" style="stroke:#181818;stroke-width:1.0;"/><line style="stroke:#181818;stroke-width:1.0;" x1="703.5" x2="883.5" y1="366.1914" y2="366.1914"/><text fill="#000000" font-family="sans-serif" font-size="13" font-weight="bold" lengthAdjust="spacing" textLength="7" x="710.5" y="360.9287">7</text><text fill="#000000" font-family="sans-serif" font-size="13" lengthAdjust="spacing" textLength="156" x="721.5" y="360.9287">findQuestionsByType(type)</text><polygon fill="#181818" points="714.5,410.7734,704.5,414.7734,714.5,418.7734,710.5,414.7734" style="stroke:#181818;stroke-width:1.0;"/><line style="stroke:#181818;stroke-width:1.0;stroke-dasharray:2.0,2.0;" x1="708.5" x2="893.5" y1="414.7734" y2="414.7734"/><text fill="#000000" font-family="sans-serif" font-size="13" font-weight="bold" lengthAdjust="spacing" textLength="7" x="720.5" y="400.8652">8</text><text fill="#000000" font-family="sans-serif" font-size="13" lengthAdjust="spacing" textLength="122" x="731.5" y="392.2197">returns the questions</text><text fill="#000000" font-family="sans-serif" font-size="13" lengthAdjust="spacing" textLength="85" x="731.5" y="409.5107">filtered by type</text><polygon fill="#181818" points="409.5,459.3555,399.5,463.3555,409.5,467.3555,405.5,463.3555" style="stroke:#181818;stroke-width:1.0;"/><line style="stroke:#181818;stroke-width:1.0;stroke-dasharray:2.0,2.0;" x1="403.5" x2="697.5" y1="463.3555" y2="463.3555"/><text fill="#000000" font-family="sans-serif" font-size="13" font-weight="bold" lengthAdjust="spacing" textLength="7" x="415.5" y="449.4473">9</text><text fill="#000000" font-family="sans-serif" font-size="13" lengthAdjust="spacing" textLength="122" x="426.5" y="440.8018">returns the questions</text><text fill="#000000" font-family="sans-serif" font-size="13" lengthAdjust="spacing" textLength="85" x="426.5" y="458.0928">filtered by type</text><polygon fill="#181818" points="45.5,490.6465,35.5,494.6465,45.5,498.6465,41.5,494.6465" style="stroke:#181818;stroke-width:1.0;"/><line style="stroke:#181818;stroke-width:1.0;stroke-dasharray:2.0,2.0;" x1="39.5" x2="387.5" y1="494.6465" y2="494.6465"/><text fill="#000000" font-family="sans-serif" font-size="13" font-weight="bold" lengthAdjust="spacing" textLength="14" x="51.5" y="489.3838">10</text><text fill="#000000" font-family="sans-serif" font-size="13" lengthAdjust="spacing" textLength="130" x="69.5" y="489.3838">displays the questions</text><polygon fill="#181818" points="376.5,521.9375,386.5,525.9375,376.5,529.9375,380.5,525.9375" style="stroke:#181818;stroke-width:1.0;"/><line style="stroke:#181818;stroke-width:1.0;" x1="34.5" x2="382.5" y1="525.9375" y2="525.9375"/><text fill="#000000" font-family="sans-serif" font-size="13" font-weight="bold" lengthAdjust="spacing" textLength="14" x="41.5" y="520.6748">11</text><text fill="#000000" font-family="sans-serif" font-size="13" lengthAdjust="spacing" textLength="106" x="59.5" y="520.6748">selects a question</text><polygon fill="#181818" points="45.5,553.2285,35.5,557.2285,45.5,561.2285,41.5,557.2285" style="stroke:#181818;stroke-width:1.0;"/><line style="stroke:#181818;stroke-width:1.0;stroke-dasharray:2.0,2.0;" x1="39.5" x2="387.5" y1="557.2285" y2="557.2285"/><text fill="#000000" font-family="sans-serif" font-size="13" font-weight="bold" lengthAdjust="spacing" textLength="14" x="51.5" y="551.9658">12</text><text fill="#000000" font-family="sans-serif" font-size="13" lengthAdjust="spacing" textLength="124" x="69.5" y="551.9658">asks for the new data</text><polygon fill="#181818" points="376.5,584.5195,386.5,588.5195,376.5,592.5195,380.5,588.5195" style="stroke:#181818;stroke-width:1.0;"/><line style="stroke:#181818;stroke-width:1.0;" x1="34.5" x2="382.5" y1="588.5195" y2="588.5195"/><text fill="#000000" font-family="sans-serif" font-size="13" font-weight="bold" lengthAdjust="spacing" textLength="14" x="41.5" y="583.2568">13</text><text fill="#000000" font-family="sans-serif" font-size="13" lengthAdjust="spacing" textLength="114" x="59.5" y="583.2568">enters the new data</text><polygon fill="#181818" points="681.5,615.8105,691.5,619.8105,681.5,623.8105,685.5,619.8105" style="stroke:#181818;stroke-width:1.0;"/><line style="stroke:#181818;stroke-width:1.0;" x1="398.5" x2="687.5" y1="619.8105" y2="619.8105"/><text fill="#000000" font-family="sans-serif" font-size="13" font-weight="bold" lengthAdjust="spacing" textLength="14" x="405.5" y="614.5479">14</text><text fill="#000000" font-family="sans-serif" font-size="13" lengthAdjust="spacing" textLength="258" x="423.5" y="614.5479">updateQuestion(question, newQuestionData)</text><polygon fill="#181818" points="1034,647.1016,1044,651.1016,1034,655.1016,1038,651.1016" style="stroke:#181818;stroke-width:1.0;"/><line style="stroke:#181818;stroke-width:1.0;" x1="703.5" x2="1040" y1="651.1016" y2="651.1016"/><text fill="#000000" font-family="sans-serif" font-size="13" font-weight="bold" lengthAdjust="spacing" textLength="14" x="710.5" y="645.8389">15</text><text fill="#000000" font-family="sans-serif" font-size="13" lengthAdjust="spacing" textLength="240" x="728.5" y="645.8389">generateQuestionType(newQuestionData)</text><polygon fill="#181818" points="714.5,678.3926,704.5,682.3926,714.5,686.3926,710.5,682.3926" style="stroke:#181818;stroke-width:1.0;"/><line style="stroke:#181818;stroke-width:1.0;" x1="708.5" x2="1050" y1="682.3926" y2="682.3926"/><text fill="#000000" font-family="sans-serif" font-size="13" font-weight="bold" lengthAdjust="spacing" textLength="14" x="720.5" y="677.1299">16</text><text fill="#000000" font-family="sans-serif" font-size="13" lengthAdjust="spacing" textLength="143" x="738.5" y="677.1299">returns the generated file</text><polygon fill="#181818" points="1301.5,709.6836,1311.5,713.6836,1301.5,717.6836,1305.5,713.6836" style="stroke:#181818;stroke-width:1.0;"/><line style="stroke:#181818;stroke-width:1.0;" x1="703.5" x2="1307.5" y1="713.6836" y2="713.6836"/><text fill="#000000" font-family="sans-serif" font-size="13" font-weight="bold" lengthAdjust="spacing" textLength="14" x="710.5" y="708.4209">17</text><text fill="#000000" font-family="sans-serif" font-size="13" lengthAdjust="spacing" textLength="94" x="728.5" y="708.4209">validate(filePath)</text><polygon fill="#181818" points="714.5,740.9746,704.5,744.9746,714.5,748.9746,710.5,744.9746" style="stroke:#181818;stroke-width:1.0;"/><line style="stroke:#181818;stroke-width:1.0;stroke-dasharray:2.0,2.0;" x1="708.5" x2="1317.5" y1="744.9746" y2="744.9746"/><text fill="#000000" font-family="sans-serif" font-size="13" font-weight="bold" lengthAdjust="spacing" textLength="14" x="720.5" y="739.7119">18</text><text fill="#000000" font-family="sans-serif" font-size="13" lengthAdjust="spacing" textLength="115" x="738.5" y="739.7119">returns the question</text><polygon fill="#181818" points="1176.5,772.2656,1186.5,776.2656,1176.5,780.2656,1180.5,776.2656" style="stroke:#181818;stroke-width:1.0;"/><line style="stroke:#181818;stroke-width:1.0;" x1="703.5" x2="1182.5" y1="776.2656" y2="776.2656"/><text fill="#000000" font-family="sans-serif" font-size="13" font-weight="bold" lengthAdjust="spacing" textLength="14" x="710.5" y="771.0029">19</text><text fill="#000000" font-family="sans-serif" font-size="13" lengthAdjust="spacing" textLength="172" x="728.5" y="771.0029">updatequestion(questionData)</text><polygon fill="#181818" points="714.5,803.5566,704.5,807.5566,714.5,811.5566,710.5,807.5566" style="stroke:#181818;stroke-width:1.0;"/><line style="stroke:#181818;stroke-width:1.0;stroke-dasharray:2.0,2.0;" x1="708.5" x2="1192.5" y1="807.5566" y2="807.5566"/><text fill="#000000" font-family="sans-serif" font-size="13" font-weight="bold" lengthAdjust="spacing" textLength="14" x="720.5" y="802.2939">20</text><text fill="#000000" font-family="sans-serif" font-size="13" lengthAdjust="spacing" textLength="165" x="738.5" y="802.2939">returns the updated question</text><polygon fill="#181818" points="877.5,834.8477,887.5,838.8477,877.5,842.8477,881.5,838.8477" style="stroke:#181818;stroke-width:1.0;"/><line style="stroke:#181818;stroke-width:1.0;" x1="703.5" x2="883.5" y1="838.8477" y2="838.8477"/><text fill="#000000" font-family="sans-serif" font-size="13" font-weight="bold" lengthAdjust="spacing" textLength="14" x="710.5" y="833.585">21</text><text fill="#000000" font-family="sans-serif" font-size="13" lengthAdjust="spacing" textLength="83" x="728.5" y="833.585">save(question)</text><polygon fill="#181818" points="714.5,866.1387,704.5,870.1387,714.5,874.1387,710.5,870.1387" style="stroke:#181818;stroke-width:1.0;"/><line style="stroke:#181818;stroke-width:1.0;stroke-dasharray:2.0,2.0;" x1="708.5" x2="893.5" y1="870.1387" y2="870.1387"/><text fill="#000000" font-family="sans-serif" font-size="13" font-weight="bold" lengthAdjust="spacing" textLength="14" x="720.5" y="864.876">22</text><text fill="#000000" font-family="sans-serif" font-size="13" lengthAdjust="spacing" textLength="128" x="738.5" y="864.876">returns the save result</text><polygon fill="#181818" points="409.5,897.4297,399.5,901.4297,409.5,905.4297,405.5,901.4297" style="stroke:#181818;stroke-width:1.0;"/><line style="stroke:#181818;stroke-width:1.0;stroke-dasharray:2.0,2.0;" x1="403.5" x2="697.5" y1="901.4297" y2="901.4297"/><text fill="#000000" font-family="sans-serif" font-size="13" font-weight="bold" lengthAdjust="spacing" textLength="14" x="415.5" y="896.167">23</text><text fill="#000000" font-family="sans-serif" font-size="13" lengthAdjust="spacing" textLength="128" x="433.5" y="896.167">returns the save result</text><polygon fill="#181818" points="45.5,928.7207,35.5,932.7207,45.5,936.7207,41.5,932.7207" style="stroke:#181818;stroke-width:1.0;"/><line style="stroke:#181818;stroke-width:1.0;stroke-dasharray:2.0,2.0;" x1="39.5" x2="392.5" y1="932.7207" y2="932.7207"/><text fill="#000000" font-family="sans-serif" font-size="13" font-weight="bold" lengthAdjust="spacing" textLength="14" x="51.5" y="927.458">24</text><text fill="#000000" font-family="sans-serif" font-size="13" lengthAdjust="spacing" textLength="169" x="69.5" y="927.458">displays a success message</text><!--SRC=[dLHDZzem4BtxLumuiTBo1z0AgTss4H9I5nJsrCiG3ujLumJReUBVT-pWa0JOxPO3GlRxyBnduvNN1EjAeYTOrkIyAeqGMFlIrFiDMO65BotaXCMEBA23N5HelIfKXSR3gE4cwde-2fZr79wUQZMRtSBcfsg8pvV_p7WkZRUbrcGZypbVBPY9LQLLWG704ip13Jg2KMAjg2gTuabEaRNw_lAJMRPT7VhE4_67qfIH8OiCYzpiogx7x9xrF1iJPBb7TOLDk5VKIhO6hryMNOOGara8T0gbMPGeHQX47KDXwxdWZGdlvxmjbQiqdXpu7S7XB0sUp-D-6P53ad6agV0Ei0-AKhEcYYaKbjY1GKQsma9Irxhz7IWYyfWV2qdyyQ6J_sFhryxxCAHfvNnAnOqVBXvXNqGGWsDzKzWg8rlmrrD8VXmcwT02KaJuv69YoTVMz7FYYBPAUx8aONDg0kcC6tKQ-qj6_w4JnsXcVgyrrzHrzhakh2-1xhU3BR_I867e3uJxtrCWmoTo_VrXz7Nl8RVDFGP6Mlt6n7kbPApnrhoKLYLMSf-VYGnkrvA499UiUmbchM5u9rCuDdU9nW7uWdxNqMU42AWFkk_A1qeou9UROZaCOnbCaYyvpdi-ZOIywSV4uRLsUBmydC_SvK3a1LTh_wcxUuVtpbr5S7LHa7Emvozye_v8_7Tm_lm5]--></g></svg>