<?xml version="1.0" encoding="us-ascii" standalone="no"?><svg xmlns="http://www.w3.org/2000/svg" xmlns:xlink="http://www.w3.org/1999/xlink" contentStyleType="text/css" height="716px" preserveAspectRatio="none" style="width:873px;height:716px;background:#FFFFFF;" version="1.1" viewBox="0 0 873 716" width="873px" zoomAndPan="magnify"><defs/><g><text fill="#000000" font-family="sans-serif" font-size="14" font-weight="bold" lengthAdjust="spacing" textLength="163" x="354" y="30.1074">Open Course - Diagram</text><rect fill="#FFFFFF" height="470.3652" style="stroke:#181818;stroke-width:1.0;" width="10" x="162" y="137.8633"/><rect fill="#FFFFFF" height="156.4551" style="stroke:#181818;stroke-width:1.0;" width="10" x="370" y="192.4453"/><rect fill="#FFFFFF" height="125.1641" style="stroke:#181818;stroke-width:1.0;" width="10" x="370" y="442.7734"/><rect fill="#FFFFFF" height="93.873" style="stroke:#181818;stroke-width:1.0;" width="10" x="555" y="223.7363"/><rect fill="#FFFFFF" height="31.291" style="stroke:#181818;stroke-width:1.0;" width="10" x="714" y="255.0273"/><rect fill="#FFFFFF" height="31.291" style="stroke:#181818;stroke-width:1.0;" width="10" x="714" y="505.3555"/><line style="stroke:#181818;stroke-width:0.5;stroke-dasharray:5.0,5.0;" x1="36" x2="36" y1="127.8633" y2="617.2285"/><line style="stroke:#181818;stroke-width:0.5;stroke-dasharray:5.0,5.0;" x1="166.5" x2="166.5" y1="127.8633" y2="617.2285"/><line style="stroke:#181818;stroke-width:0.5;stroke-dasharray:5.0,5.0;" x1="374.5" x2="374.5" y1="127.8633" y2="617.2285"/><line style="stroke:#181818;stroke-width:0.5;stroke-dasharray:5.0,5.0;" x1="560" x2="560" y1="127.8633" y2="617.2285"/><line style="stroke:#181818;stroke-width:0.5;stroke-dasharray:5.0,5.0;" x1="719" x2="719" y1="127.8633" y2="617.2285"/><line style="stroke:#181818;stroke-width:0.5;stroke-dasharray:5.0,5.0;" x1="828" x2="828" y1="127.8633" y2="617.2285"/><text fill="#000000" font-family="sans-serif" font-size="14" lengthAdjust="spacing" textLength="56" x="5" y="124.3496">Manager</text><ellipse cx="36" cy="57.7422" fill="#E2E2F0" rx="8" ry="8" style="stroke:#181818;stroke-width:0.5;"/><path d="M36,65.7422 L36,92.7422 M23,73.7422 L49,73.7422 M36,92.7422 L23,107.7422 M36,92.7422 L49,107.7422 " fill="none" style="stroke:#181818;stroke-width:0.5;"/><text fill="#000000" font-family="sans-serif" font-size="14" lengthAdjust="spacing" textLength="56" x="5" y="631.3359">Manager</text><ellipse cx="36" cy="643.3496" fill="#E2E2F0" rx="8" ry="8" style="stroke:#181818;stroke-width:0.5;"/><path d="M36,651.3496 L36,678.3496 M23,659.3496 L49,659.3496 M36,678.3496 L23,693.3496 M36,678.3496 L49,693.3496 " fill="none" style="stroke:#181818;stroke-width:0.5;"/><rect fill="#E2E2F0" height="51.2422" rx="2.5" ry="2.5" style="stroke:#181818;stroke-width:0.5;" width="107" x="113.5" y="75.6211"/><text fill="#000000" font-family="sans-serif" font-size="14" font-style="italic" lengthAdjust="spacing" textLength="30" x="152" y="97.7285">&#171;UI&#187;</text><text fill="#000000" font-family="sans-serif" font-size="14" lengthAdjust="spacing" textLength="93" x="120.5" y="116.3496">OpenCourseUI</text><rect fill="#E2E2F0" height="51.2422" rx="2.5" ry="2.5" style="stroke:#181818;stroke-width:0.5;" width="107" x="113.5" y="616.2285"/><text fill="#000000" font-family="sans-serif" font-size="14" font-style="italic" lengthAdjust="spacing" textLength="30" x="152" y="638.3359">&#171;UI&#187;</text><text fill="#000000" font-family="sans-serif" font-size="14" lengthAdjust="spacing" textLength="93" x="120.5" y="656.957">OpenCourseUI</text><rect fill="#E2E2F0" height="51.2422" rx="2.5" ry="2.5" style="stroke:#181818;stroke-width:0.5;" width="157" x="296.5" y="75.6211"/><text fill="#000000" font-family="sans-serif" font-size="14" font-style="italic" lengthAdjust="spacing" textLength="85" x="332.5" y="97.7285">&#171;Application&#187;</text><text fill="#000000" font-family="sans-serif" font-size="14" lengthAdjust="spacing" textLength="143" x="303.5" y="116.3496">OpenCourseController</text><rect fill="#E2E2F0" height="51.2422" rx="2.5" ry="2.5" style="stroke:#181818;stroke-width:0.5;" width="157" x="296.5" y="616.2285"/><text fill="#000000" font-family="sans-serif" font-size="14" font-style="italic" lengthAdjust="spacing" textLength="85" x="332.5" y="638.3359">&#171;Application&#187;</text><text fill="#000000" font-family="sans-serif" font-size="14" lengthAdjust="spacing" textLength="143" x="303.5" y="656.957">OpenCourseController</text><rect fill="#E2E2F0" height="51.2422" rx="2.5" ry="2.5" style="stroke:#181818;stroke-width:0.5;" width="178" x="471" y="75.6211"/><text fill="#000000" font-family="sans-serif" font-size="14" font-style="italic" lengthAdjust="spacing" textLength="85" x="517.5" y="97.7285">&#171;Application&#187;</text><text fill="#000000" font-family="sans-serif" font-size="14" lengthAdjust="spacing" textLength="164" x="478" y="116.3496">ListCourseByStateService</text><rect fill="#E2E2F0" height="51.2422" rx="2.5" ry="2.5" style="stroke:#181818;stroke-width:0.5;" width="178" x="471" y="616.2285"/><text fill="#000000" font-family="sans-serif" font-size="14" font-style="italic" lengthAdjust="spacing" textLength="85" x="517.5" y="638.3359">&#171;Application&#187;</text><text fill="#000000" font-family="sans-serif" font-size="14" lengthAdjust="spacing" textLength="164" x="478" y="656.957">ListCourseByStateService</text><text fill="#000000" font-family="sans-serif" font-size="14" font-style="italic" lengthAdjust="spacing" textLength="90" x="671" y="105.7285">&#171;Persistence&#187;</text><text fill="#000000" font-family="sans-serif" font-size="14" lengthAdjust="spacing" textLength="114" x="659" y="124.3496">CourseRepository</text><path d="M701,54.6211 C701,44.6211 719,44.6211 719,44.6211 C719,44.6211 737,44.6211 737,54.6211 L737,80.6211 C737,90.6211 719,90.6211 719,90.6211 C719,90.6211 701,90.6211 701,80.6211 L701,54.6211 " fill="#E2E2F0" style="stroke:#181818;stroke-width:1.5;"/><path d="M701,54.6211 C701,64.6211 719,64.6211 719,64.6211 C719,64.6211 737,64.6211 737,54.6211 " fill="none" style="stroke:#181818;stroke-width:1.5;"/><text fill="#000000" font-family="sans-serif" font-size="14" font-style="italic" lengthAdjust="spacing" textLength="90" x="671" y="631.3359">&#171;Persistence&#187;</text><text fill="#000000" font-family="sans-serif" font-size="14" lengthAdjust="spacing" textLength="114" x="659" y="649.957">CourseRepository</text><path d="M701,663.4707 C701,653.4707 719,653.4707 719,653.4707 C719,653.4707 737,653.4707 737,663.4707 L737,689.4707 C737,699.4707 719,699.4707 719,699.4707 C719,699.4707 701,699.4707 701,689.4707 L701,663.4707 " fill="#E2E2F0" style="stroke:#181818;stroke-width:1.5;"/><path d="M701,663.4707 C701,673.4707 719,673.4707 719,673.4707 C719,673.4707 737,673.4707 737,663.4707 " fill="none" style="stroke:#181818;stroke-width:1.5;"/><rect fill="#E2E2F0" height="51.2422" rx="2.5" ry="2.5" style="stroke:#181818;stroke-width:0.5;" width="78" x="789" y="75.6211"/><text fill="#000000" font-family="sans-serif" font-size="14" font-style="italic" lengthAdjust="spacing" textLength="64" x="796" y="97.7285">&#171;Domain&#187;</text><text fill="#000000" font-family="sans-serif" font-size="14" lengthAdjust="spacing" textLength="46" x="805" y="116.3496">Course</text><rect fill="#E2E2F0" height="51.2422" rx="2.5" ry="2.5" style="stroke:#181818;stroke-width:0.5;" width="78" x="789" y="616.2285"/><text fill="#000000" font-family="sans-serif" font-size="14" font-style="italic" lengthAdjust="spacing" textLength="64" x="796" y="638.3359">&#171;Domain&#187;</text><text fill="#000000" font-family="sans-serif" font-size="14" lengthAdjust="spacing" textLength="46" x="805" y="656.957">Course</text><rect fill="#FFFFFF" height="470.3652" style="stroke:#181818;stroke-width:1.0;" width="10" x="162" y="137.8633"/><rect fill="#FFFFFF" height="156.4551" style="stroke:#181818;stroke-width:1.0;" width="10" x="370" y="192.4453"/><rect fill="#FFFFFF" height="125.1641" style="stroke:#181818;stroke-width:1.0;" width="10" x="370" y="442.7734"/><rect fill="#FFFFFF" height="93.873" style="stroke:#181818;stroke-width:1.0;" width="10" x="555" y="223.7363"/><rect fill="#FFFFFF" height="31.291" style="stroke:#181818;stroke-width:1.0;" width="10" x="714" y="255.0273"/><rect fill="#FFFFFF" height="31.291" style="stroke:#181818;stroke-width:1.0;" width="10" x="714" y="505.3555"/><polygon fill="#181818" points="150,157.1543,160,161.1543,150,165.1543,154,161.1543" style="stroke:#181818;stroke-width:1.0;"/><line style="stroke:#181818;stroke-width:1.0;stroke-dasharray:2.0,2.0;" x1="36" x2="156" y1="161.1543" y2="161.1543"/><text fill="#000000" font-family="sans-serif" font-size="13" font-weight="bold" lengthAdjust="spacing" textLength="7" x="43" y="155.8916">1</text><text fill="#000000" font-family="sans-serif" font-size="13" lengthAdjust="spacing" textLength="42" x="54" y="155.8916">onLoad</text><polygon fill="#181818" points="358,188.4453,368,192.4453,358,196.4453,362,192.4453" style="stroke:#181818;stroke-width:1.0;"/><line style="stroke:#181818;stroke-width:1.0;" x1="172" x2="364" y1="192.4453" y2="192.4453"/><text fill="#000000" font-family="sans-serif" font-size="13" font-weight="bold" lengthAdjust="spacing" textLength="7" x="179" y="187.1826">2</text><text fill="#000000" font-family="sans-serif" font-size="13" lengthAdjust="spacing" textLength="76" x="190" y="187.1826">findCourses()</text><polygon fill="#181818" points="543,219.7363,553,223.7363,543,227.7363,547,223.7363" style="stroke:#181818;stroke-width:1.0;"/><line style="stroke:#181818;stroke-width:1.0;" x1="380" x2="549" y1="223.7363" y2="223.7363"/><text fill="#000000" font-family="sans-serif" font-size="13" font-weight="bold" lengthAdjust="spacing" textLength="7" x="387" y="218.4736">3</text><text fill="#000000" font-family="sans-serif" font-size="13" lengthAdjust="spacing" textLength="145" x="398" y="218.4736">findCourseByState(state)</text><polygon fill="#181818" points="702,251.0273,712,255.0273,702,259.0273,706,255.0273" style="stroke:#181818;stroke-width:1.0;"/><line style="stroke:#181818;stroke-width:1.0;" x1="565" x2="708" y1="255.0273" y2="255.0273"/><text fill="#000000" font-family="sans-serif" font-size="13" font-weight="bold" lengthAdjust="spacing" textLength="7" x="572" y="249.7646">4</text><text fill="#000000" font-family="sans-serif" font-size="13" lengthAdjust="spacing" textLength="104" x="583" y="249.7646">findByState(state)</text><polygon fill="#181818" points="576,282.3184,566,286.3184,576,290.3184,572,286.3184" style="stroke:#181818;stroke-width:1.0;"/><line style="stroke:#181818;stroke-width:1.0;" x1="570" x2="718" y1="286.3184" y2="286.3184"/><text fill="#000000" font-family="sans-serif" font-size="13" font-weight="bold" lengthAdjust="spacing" textLength="7" x="582" y="281.0557">5</text><text fill="#000000" font-family="sans-serif" font-size="13" lengthAdjust="spacing" textLength="90" x="593" y="281.0557">returns courses</text><polygon fill="#181818" points="391,313.6094,381,317.6094,391,321.6094,387,317.6094" style="stroke:#181818;stroke-width:1.0;"/><line style="stroke:#181818;stroke-width:1.0;" x1="385" x2="559" y1="317.6094" y2="317.6094"/><text fill="#000000" font-family="sans-serif" font-size="13" font-weight="bold" lengthAdjust="spacing" textLength="7" x="397" y="312.3467">6</text><text fill="#000000" font-family="sans-serif" font-size="13" lengthAdjust="spacing" textLength="90" x="408" y="312.3467">returns courses</text><polygon fill="#181818" points="183,344.9004,173,348.9004,183,352.9004,179,348.9004" style="stroke:#181818;stroke-width:1.0;"/><line style="stroke:#181818;stroke-width:1.0;" x1="177" x2="374" y1="348.9004" y2="348.9004"/><text fill="#000000" font-family="sans-serif" font-size="13" font-weight="bold" lengthAdjust="spacing" textLength="7" x="189" y="343.6377">7</text><text fill="#000000" font-family="sans-serif" font-size="13" lengthAdjust="spacing" textLength="90" x="200" y="343.6377">returns courses</text><polygon fill="#181818" points="47,376.1914,37,380.1914,47,384.1914,43,380.1914" style="stroke:#181818;stroke-width:1.0;"/><line style="stroke:#181818;stroke-width:1.0;stroke-dasharray:2.0,2.0;" x1="41" x2="161" y1="380.1914" y2="380.1914"/><text fill="#000000" font-family="sans-serif" font-size="13" font-weight="bold" lengthAdjust="spacing" textLength="7" x="53" y="374.9287">8</text><text fill="#000000" font-family="sans-serif" font-size="13" lengthAdjust="spacing" textLength="91" x="64" y="374.9287">display courses</text><polygon fill="#181818" points="150,407.4824,160,411.4824,150,415.4824,154,411.4824" style="stroke:#181818;stroke-width:1.0;"/><line style="stroke:#181818;stroke-width:1.0;stroke-dasharray:2.0,2.0;" x1="36" x2="156" y1="411.4824" y2="411.4824"/><text fill="#000000" font-family="sans-serif" font-size="13" font-weight="bold" lengthAdjust="spacing" textLength="7" x="43" y="406.2197">9</text><text fill="#000000" font-family="sans-serif" font-size="13" lengthAdjust="spacing" textLength="85" x="54" y="406.2197">choose course</text><polygon fill="#181818" points="358,438.7734,368,442.7734,358,446.7734,362,442.7734" style="stroke:#181818;stroke-width:1.0;"/><line style="stroke:#181818;stroke-width:1.0;" x1="172" x2="364" y1="442.7734" y2="442.7734"/><text fill="#000000" font-family="sans-serif" font-size="13" font-weight="bold" lengthAdjust="spacing" textLength="14" x="179" y="437.5107">10</text><text fill="#000000" font-family="sans-serif" font-size="13" lengthAdjust="spacing" textLength="161" x="197" y="437.5107">changeCourseState(course)</text><polygon fill="#181818" points="816,470.0645,826,474.0645,816,478.0645,820,474.0645" style="stroke:#181818;stroke-width:1.0;"/><line style="stroke:#181818;stroke-width:1.0;" x1="380" x2="822" y1="474.0645" y2="474.0645"/><text fill="#000000" font-family="sans-serif" font-size="13" font-weight="bold" lengthAdjust="spacing" textLength="14" x="387" y="468.8018">11</text><text fill="#000000" font-family="sans-serif" font-size="13" lengthAdjust="spacing" textLength="77" x="405" y="468.8018">openCourse()</text><polygon fill="#181818" points="702,501.3555,712,505.3555,702,509.3555,706,505.3555" style="stroke:#181818;stroke-width:1.0;"/><line style="stroke:#181818;stroke-width:1.0;" x1="380" x2="708" y1="505.3555" y2="505.3555"/><text fill="#000000" font-family="sans-serif" font-size="13" font-weight="bold" lengthAdjust="spacing" textLength="14" x="387" y="500.0928">12</text><text fill="#000000" font-family="sans-serif" font-size="13" lengthAdjust="spacing" textLength="73" x="405" y="500.0928">save(course)</text><polygon fill="#181818" points="391,532.6465,381,536.6465,391,540.6465,387,536.6465" style="stroke:#181818;stroke-width:1.0;"/><line style="stroke:#181818;stroke-width:1.0;" x1="385" x2="718" y1="536.6465" y2="536.6465"/><text fill="#000000" font-family="sans-serif" font-size="13" font-weight="bold" lengthAdjust="spacing" textLength="14" x="397" y="531.3838">13</text><text fill="#000000" font-family="sans-serif" font-size="13" lengthAdjust="spacing" textLength="86" x="415" y="531.3838">returns sucess</text><polygon fill="#181818" points="183,563.9375,173,567.9375,183,571.9375,179,567.9375" style="stroke:#181818;stroke-width:1.0;"/><line style="stroke:#181818;stroke-width:1.0;" x1="177" x2="374" y1="567.9375" y2="567.9375"/><text fill="#000000" font-family="sans-serif" font-size="13" font-weight="bold" lengthAdjust="spacing" textLength="14" x="189" y="562.6748">14</text><text fill="#000000" font-family="sans-serif" font-size="13" lengthAdjust="spacing" textLength="86" x="207" y="562.6748">returns sucess</text><polygon fill="#181818" points="47,595.2285,37,599.2285,47,603.2285,43,599.2285" style="stroke:#181818;stroke-width:1.0;"/><line style="stroke:#181818;stroke-width:1.0;stroke-dasharray:2.0,2.0;" x1="41" x2="161" y1="599.2285" y2="599.2285"/><text fill="#000000" font-family="sans-serif" font-size="13" font-weight="bold" lengthAdjust="spacing" textLength="14" x="53" y="593.9658">15</text><text fill="#000000" font-family="sans-serif" font-size="13" lengthAdjust="spacing" textLength="83" x="71" y="593.9658">shows sucess</text><!--SRC=[ZP91Ri8m44NtFeN5YYwu0498BMmY4RKgoW46PmgMWctP3XMtxvW9n8I0oW8b-Fy__c-8EZOeFnqQkRAj3oXdSgrXx-4e1BJHclQuGoz0HUjb2GRsw2K4MGe7Fcgb7PWe9oc10wfYaiwhGYuMLR5SFjEjh8dUDWtwYxv_9T-xSurM4BKrmu2D3f43FixR216tw4zQuIMaUtv8g2723gZSXAtVw6pGrEZCizCxcRxG1uf7et0ubdsi9kNQ7a6dP978w1FTWngBKivcorHzBgtPMAW5FTClVRcv_D6cvhGmVUlTlKHaACZRTSgDNVDfIDzPHYSLLmnfSgh6tcUkYqGmWtoUnzXw4wJYoueQ1vPyJ5RmXUzwmVk6LV5wM4ycqIH3EPUr3gw1yqqlSlRgO2qjcy_ew749wW1cZqoJgR3uFmjPfUtU_iQqm_GPI9XwWDDOy3tlCNIXLHX6Y3_dDk8OmnOEzlSc_WC0]--></g></svg>