<?xml version="1.0" encoding="us-ascii" standalone="no"?><svg xmlns="http://www.w3.org/2000/svg" xmlns:xlink="http://www.w3.org/1999/xlink" contentStyleType="text/css" height="443px" preserveAspectRatio="none" style="width:903px;height:443px;background:#FFFFFF;" version="1.1" viewBox="0 0 903 443" width="903px" zoomAndPan="magnify"><defs/><g><!--cluster ui--><g id="cluster_ui"><path d="M8.5,172.0137 L22.5,172.0137 A3.75,3.75 0 0 1 25,174.5137 L32,196.6348 L160.5,196.6348 A2.5,2.5 0 0 1 163,199.1348 L163,270.5137 A2.5,2.5 0 0 1 160.5,273.0137 L8.5,273.0137 A2.5,2.5 0 0 1 6,270.5137 L6,174.5137 A2.5,2.5 0 0 1 8.5,172.0137 " fill="none" style="stroke:#000000;stroke-width:1.5;"/><line style="stroke:#000000;stroke-width:1.5;" x1="6" x2="32" y1="196.6348" y2="196.6348"/><text fill="#000000" font-family="sans-serif" font-size="14" font-weight="bold" lengthAdjust="spacing" textLength="13" x="10" y="189.1211">ui</text></g><!--cluster coursemanagement--><g id="cluster_coursemanagement"><path d="M189.5,6.0137 L329.5,6.0137 A3.75,3.75 0 0 1 332,8.5137 L339,30.6348 L893.5,30.6348 A2.5,2.5 0 0 1 896,33.1348 L896,433.5137 A2.5,2.5 0 0 1 893.5,436.0137 L189.5,436.0137 A2.5,2.5 0 0 1 187,433.5137 L187,8.5137 A2.5,2.5 0 0 1 189.5,6.0137 " fill="none" style="stroke:#000000;stroke-width:1.5;"/><line style="stroke:#000000;stroke-width:1.5;" x1="187" x2="339" y1="30.6348" y2="30.6348"/><text fill="#000000" font-family="sans-serif" font-size="14" font-weight="bold" lengthAdjust="spacing" textLength="139" x="191" y="23.1211">coursemanagement</text></g><!--cluster application--><g id="cluster_application"><path d="M213.5,51.0137 L291.5,51.0137 A3.75,3.75 0 0 1 294,53.5137 L301,75.6348 L553.5,75.6348 A2.5,2.5 0 0 1 556,78.1348 L556,409.5137 A2.5,2.5 0 0 1 553.5,412.0137 L213.5,412.0137 A2.5,2.5 0 0 1 211,409.5137 L211,53.5137 A2.5,2.5 0 0 1 213.5,51.0137 " fill="none" style="stroke:#000000;stroke-width:1.5;"/><line style="stroke:#000000;stroke-width:1.5;" x1="211" x2="301" y1="75.6348" y2="75.6348"/><text fill="#000000" font-family="sans-serif" font-size="14" font-weight="bold" lengthAdjust="spacing" textLength="77" x="215" y="68.1211">application</text></g><!--cluster repository--><g id="cluster_repository"><path d="M586.5,51.0137 L659.5,51.0137 A3.75,3.75 0 0 1 662,53.5137 L669,75.6348 L869.5,75.6348 A2.5,2.5 0 0 1 872,78.1348 L872,169.5137 A2.5,2.5 0 0 1 869.5,172.0137 L586.5,172.0137 A2.5,2.5 0 0 1 584,169.5137 L584,53.5137 A2.5,2.5 0 0 1 586.5,51.0137 " fill="none" style="stroke:#000000;stroke-width:1.5;"/><line style="stroke:#000000;stroke-width:1.5;" x1="584" x2="669" y1="75.6348" y2="75.6348"/><text fill="#000000" font-family="sans-serif" font-size="14" font-weight="bold" lengthAdjust="spacing" textLength="72" x="588" y="68.1211">repository</text></g><!--cluster domain--><g id="cluster_domain"><path d="M657.5,196.0137 L709.5,196.0137 A3.75,3.75 0 0 1 712,198.5137 L719,220.6348 L798.5,220.6348 A2.5,2.5 0 0 1 801,223.1348 L801,314.5137 A2.5,2.5 0 0 1 798.5,317.0137 L657.5,317.0137 A2.5,2.5 0 0 1 655,314.5137 L655,198.5137 A2.5,2.5 0 0 1 657.5,196.0137 " fill="none" style="stroke:#000000;stroke-width:1.5;"/><line style="stroke:#000000;stroke-width:1.5;" x1="655" x2="719" y1="220.6348" y2="220.6348"/><text fill="#000000" font-family="sans-serif" font-size="14" font-weight="bold" lengthAdjust="spacing" textLength="51" x="659" y="213.1211">domain</text></g><!--class OpenCourseUI--><g id="elem_OpenCourseUI"><rect codeLine="6" fill="#F1F1F1" height="48" id="OpenCourseUI" rx="2.5" ry="2.5" style="stroke:#181818;stroke-width:0.5;" width="125" x="22" y="209.0137"/><ellipse cx="37" cy="225.0137" fill="#ADD1B2" rx="11" ry="11" style="stroke:#181818;stroke-width:1.0;"/><path d="M39.7656,220.8887 Q39.9219,220.6699 40.1094,220.5605 Q40.2969,220.4512 40.5156,220.4512 Q40.8906,220.4512 41.125,220.7168 Q41.3594,220.9668 41.3594,221.5762 L41.3594,223.0293 Q41.3594,223.6387 41.125,223.9043 Q40.8906,224.1699 40.5156,224.1699 Q40.1719,224.1699 39.9688,223.9668 Q39.7656,223.7793 39.6563,223.2637 Q39.6094,222.9043 39.4219,222.7168 Q39.0938,222.3418 38.4844,222.123 Q37.875,221.9043 37.25,221.9043 Q36.4844,221.9043 35.8438,222.2324 Q35.2188,222.5605 34.7188,223.3105 Q34.2344,224.0605 34.2344,225.0918 L34.2344,226.1855 Q34.2344,227.4199 35.125,228.248 Q36.0156,229.0605 37.6094,229.0605 Q38.5469,229.0605 39.2031,228.8105 Q39.5938,228.6543 40.0156,228.2168 Q40.2813,227.9512 40.4219,227.873 Q40.5781,227.7949 40.7813,227.7949 Q41.1094,227.7949 41.3594,228.0605 Q41.625,228.3105 41.625,228.6543 Q41.625,228.998 41.2813,229.4043 Q40.7813,229.9824 39.9844,230.3105 Q38.9063,230.7637 37.6094,230.7637 Q36.0938,230.7637 34.8906,230.1387 Q33.9063,229.6387 33.2188,228.5762 Q32.5313,227.498 32.5313,226.2168 L32.5313,225.0605 Q32.5313,223.7324 33.1406,222.5918 Q33.7656,221.4355 34.8594,220.8262 Q35.9531,220.2012 37.1875,220.2012 Q37.9219,220.2012 38.5625,220.373 Q39.2188,220.5293 39.7656,220.8887 Z " fill="#000000"/><text fill="#000000" font-family="sans-serif" font-size="14" lengthAdjust="spacing" textLength="93" x="51" y="230.8105">OpenCourseUI</text><line style="stroke:#181818;stroke-width:0.5;" x1="23" x2="146" y1="241.0137" y2="241.0137"/><line style="stroke:#181818;stroke-width:0.5;" x1="23" x2="146" y1="249.0137" y2="249.0137"/></g><!--class ChangeCourseStateController--><g id="elem_ChangeCourseStateController"><rect codeLine="14" fill="#F1F1F1" height="85.2422" id="ChangeCourseStateController" rx="2.5" ry="2.5" style="stroke:#181818;stroke-width:0.5;" width="233" x="267" y="310.5137"/><ellipse cx="286.5" cy="326.5137" fill="#B4A7E5" rx="11" ry="11" style="stroke:#181818;stroke-width:1.0;"/><path d="M287.4531,323.1543 L287.4531,329.8105 L289.1719,329.8105 Q289.7813,329.8105 290.0469,330.0449 Q290.3125,330.2793 290.3125,330.6699 Q290.3125,331.0449 290.0469,331.2793 Q289.7813,331.5137 289.1719,331.5137 L284.0313,331.5137 Q283.4219,331.5137 283.1563,331.2793 Q282.8906,331.0449 282.8906,330.6543 Q282.8906,330.2793 283.1563,330.0449 Q283.4219,329.8105 284.0313,329.8105 L285.75,329.8105 L285.75,323.1543 L284.0313,323.1543 Q283.4219,323.1543 283.1563,322.9199 Q282.8906,322.6855 282.8906,322.2949 Q282.8906,321.9199 283.1563,321.6855 Q283.4219,321.4512 284.0313,321.4512 L289.1719,321.4512 Q289.7813,321.4512 290.0469,321.6855 Q290.3125,321.9199 290.3125,322.2949 Q290.3125,322.6855 290.0469,322.9199 Q289.7813,323.1543 289.1719,323.1543 L287.4531,323.1543 Z " fill="#000000"/><text fill="#000000" font-family="sans-serif" font-size="14" font-style="italic" lengthAdjust="spacing" textLength="191" x="301.5" y="332.3105">ChangeCourseStateController</text><line style="stroke:#181818;stroke-width:0.5;" x1="268" x2="499" y1="342.5137" y2="342.5137"/><line style="stroke:#181818;stroke-width:0.5;" x1="268" x2="499" y1="350.5137" y2="350.5137"/><ellipse cx="278" cy="365.3242" fill="#84BE84" rx="3" ry="3" style="stroke:#038048;stroke-width:1.0;"/><text fill="#000000" font-family="sans-serif" font-size="14" lengthAdjust="spacing" textLength="207" x="287" y="369.6211">findCourses() : Iterable&lt;Course&gt;</text><ellipse cx="278" cy="383.9453" fill="#84BE84" rx="3" ry="3" style="stroke:#038048;stroke-width:1.0;"/><text fill="#000000" font-family="sans-serif" font-size="14" lengthAdjust="spacing" textLength="179" x="287" y="388.2422">changeCourseState(course)</text></g><!--class OpenCourseController--><g id="elem_OpenCourseController"><rect codeLine="19" fill="#F1F1F1" height="85.2422" id="OpenCourseController" rx="2.5" ry="2.5" style="stroke:#181818;stroke-width:0.5;" width="233" x="267" y="190.5137"/><ellipse cx="308.1" cy="206.5137" fill="#ADD1B2" rx="11" ry="11" style="stroke:#181818;stroke-width:1.0;"/><path d="M310.8656,202.3887 Q311.0219,202.1699 311.2094,202.0605 Q311.3969,201.9512 311.6156,201.9512 Q311.9906,201.9512 312.225,202.2168 Q312.4594,202.4668 312.4594,203.0762 L312.4594,204.5293 Q312.4594,205.1387 312.225,205.4043 Q311.9906,205.6699 311.6156,205.6699 Q311.2719,205.6699 311.0688,205.4668 Q310.8656,205.2793 310.7563,204.7637 Q310.7094,204.4043 310.5219,204.2168 Q310.1938,203.8418 309.5844,203.623 Q308.975,203.4043 308.35,203.4043 Q307.5844,203.4043 306.9438,203.7324 Q306.3188,204.0605 305.8188,204.8105 Q305.3344,205.5605 305.3344,206.5918 L305.3344,207.6855 Q305.3344,208.9199 306.225,209.748 Q307.1156,210.5605 308.7094,210.5605 Q309.6469,210.5605 310.3031,210.3105 Q310.6938,210.1543 311.1156,209.7168 Q311.3813,209.4512 311.5219,209.373 Q311.6781,209.2949 311.8813,209.2949 Q312.2094,209.2949 312.4594,209.5605 Q312.725,209.8105 312.725,210.1543 Q312.725,210.498 312.3813,210.9043 Q311.8813,211.4824 311.0844,211.8105 Q310.0063,212.2637 308.7094,212.2637 Q307.1938,212.2637 305.9906,211.6387 Q305.0063,211.1387 304.3188,210.0762 Q303.6313,208.998 303.6313,207.7168 L303.6313,206.5605 Q303.6313,205.2324 304.2406,204.0918 Q304.8656,202.9355 305.9594,202.3262 Q307.0531,201.7012 308.2875,201.7012 Q309.0219,201.7012 309.6625,201.873 Q310.3188,202.0293 310.8656,202.3887 Z " fill="#000000"/><text fill="#000000" font-family="sans-serif" font-size="14" lengthAdjust="spacing" textLength="143" x="327.9" y="212.3105">OpenCourseController</text><line style="stroke:#181818;stroke-width:0.5;" x1="268" x2="499" y1="222.5137" y2="222.5137"/><line style="stroke:#181818;stroke-width:0.5;" x1="268" x2="499" y1="230.5137" y2="230.5137"/><ellipse cx="278" cy="245.3242" fill="#84BE84" rx="3" ry="3" style="stroke:#038048;stroke-width:1.0;"/><text fill="#000000" font-family="sans-serif" font-size="14" lengthAdjust="spacing" textLength="207" x="287" y="249.6211">findCourses() : Iterable&lt;Course&gt;</text><ellipse cx="278" cy="263.9453" fill="#84BE84" rx="3" ry="3" style="stroke:#038048;stroke-width:1.0;"/><text fill="#000000" font-family="sans-serif" font-size="14" lengthAdjust="spacing" textLength="179" x="287" y="268.2422">changeCourseState(course)</text></g><!--class ListCourseByStateService--><g id="elem_ListCourseByStateService"><rect codeLine="24" fill="#F1F1F1" height="66.6211" id="ListCourseByStateService" rx="2.5" ry="2.5" style="stroke:#181818;stroke-width:0.5;" width="313" x="227" y="88.5137"/><ellipse cx="297.25" cy="104.5137" fill="#ADD1B2" rx="11" ry="11" style="stroke:#181818;stroke-width:1.0;"/><path d="M300.0156,100.3887 Q300.1719,100.1699 300.3594,100.0605 Q300.5469,99.9512 300.7656,99.9512 Q301.1406,99.9512 301.375,100.2168 Q301.6094,100.4668 301.6094,101.0762 L301.6094,102.5293 Q301.6094,103.1387 301.375,103.4043 Q301.1406,103.6699 300.7656,103.6699 Q300.4219,103.6699 300.2188,103.4668 Q300.0156,103.2793 299.9063,102.7637 Q299.8594,102.4043 299.6719,102.2168 Q299.3438,101.8418 298.7344,101.623 Q298.125,101.4043 297.5,101.4043 Q296.7344,101.4043 296.0938,101.7324 Q295.4688,102.0605 294.9688,102.8105 Q294.4844,103.5605 294.4844,104.5918 L294.4844,105.6855 Q294.4844,106.9199 295.375,107.748 Q296.2656,108.5605 297.8594,108.5605 Q298.7969,108.5605 299.4531,108.3105 Q299.8438,108.1543 300.2656,107.7168 Q300.5313,107.4512 300.6719,107.373 Q300.8281,107.2949 301.0313,107.2949 Q301.3594,107.2949 301.6094,107.5605 Q301.875,107.8105 301.875,108.1543 Q301.875,108.498 301.5313,108.9043 Q301.0313,109.4824 300.2344,109.8105 Q299.1563,110.2637 297.8594,110.2637 Q296.3438,110.2637 295.1406,109.6387 Q294.1563,109.1387 293.4688,108.0762 Q292.7813,106.998 292.7813,105.7168 L292.7813,104.5605 Q292.7813,103.2324 293.3906,102.0918 Q294.0156,100.9355 295.1094,100.3262 Q296.2031,99.7012 297.4375,99.7012 Q298.1719,99.7012 298.8125,99.873 Q299.4688,100.0293 300.0156,100.3887 Z " fill="#000000"/><text fill="#000000" font-family="sans-serif" font-size="14" lengthAdjust="spacing" textLength="164" x="317.75" y="110.3105">ListCourseByStateService</text><line style="stroke:#181818;stroke-width:0.5;" x1="228" x2="539" y1="120.5137" y2="120.5137"/><line style="stroke:#181818;stroke-width:0.5;" x1="228" x2="539" y1="128.5137" y2="128.5137"/><ellipse cx="238" cy="143.3242" fill="#84BE84" rx="3" ry="3" style="stroke:#038048;stroke-width:1.0;"/><text fill="#000000" font-family="sans-serif" font-size="14" lengthAdjust="spacing" textLength="287" x="247" y="147.6211">findCoursesByState(state) : Iterable&lt;Course&gt;</text></g><!--class CourseRepository--><g id="elem_CourseRepository"><rect codeLine="30" fill="#F1F1F1" height="66.6211" id="CourseRepository" rx="2.5" ry="2.5" style="stroke:#181818;stroke-width:0.5;" width="256" x="600" y="88.5137"/><ellipse cx="666.75" cy="104.5137" fill="#B4A7E5" rx="11" ry="11" style="stroke:#181818;stroke-width:1.0;"/><path d="M667.7031,101.1543 L667.7031,107.8105 L669.4219,107.8105 Q670.0313,107.8105 670.2969,108.0449 Q670.5625,108.2793 670.5625,108.6699 Q670.5625,109.0449 670.2969,109.2793 Q670.0313,109.5137 669.4219,109.5137 L664.2813,109.5137 Q663.6719,109.5137 663.4063,109.2793 Q663.1406,109.0449 663.1406,108.6543 Q663.1406,108.2793 663.4063,108.0449 Q663.6719,107.8105 664.2813,107.8105 L666,107.8105 L666,101.1543 L664.2813,101.1543 Q663.6719,101.1543 663.4063,100.9199 Q663.1406,100.6855 663.1406,100.2949 Q663.1406,99.9199 663.4063,99.6855 Q663.6719,99.4512 664.2813,99.4512 L669.4219,99.4512 Q670.0313,99.4512 670.2969,99.6855 Q670.5625,99.9199 670.5625,100.2949 Q670.5625,100.6855 670.2969,100.9199 Q670.0313,101.1543 669.4219,101.1543 L667.7031,101.1543 Z " fill="#000000"/><text fill="#000000" font-family="sans-serif" font-size="14" font-style="italic" lengthAdjust="spacing" textLength="114" x="687.25" y="110.3105">CourseRepository</text><line style="stroke:#181818;stroke-width:0.5;" x1="601" x2="855" y1="120.5137" y2="120.5137"/><line style="stroke:#181818;stroke-width:0.5;" x1="601" x2="855" y1="128.5137" y2="128.5137"/><ellipse cx="611" cy="143.3242" fill="#84BE84" rx="3" ry="3" style="stroke:#038048;stroke-width:1.0;"/><text fill="#000000" font-family="sans-serif" font-size="14" lengthAdjust="spacing" textLength="230" x="620" y="147.6211">findByState(state): Iterable&lt;Course&gt;</text></g><!--class Course--><g id="elem_Course"><rect codeLine="36" fill="#F1F1F1" height="66.6211" id="Course" rx="2.5" ry="2.5" style="stroke:#181818;stroke-width:0.5;" width="114" x="671" y="233.5137"/><ellipse cx="702.2" cy="249.5137" fill="#ADD1B2" rx="11" ry="11" style="stroke:#181818;stroke-width:1.0;"/><path d="M704.9656,245.3887 Q705.1219,245.1699 705.3094,245.0605 Q705.4969,244.9512 705.7156,244.9512 Q706.0906,244.9512 706.325,245.2168 Q706.5594,245.4668 706.5594,246.0762 L706.5594,247.5293 Q706.5594,248.1387 706.325,248.4043 Q706.0906,248.6699 705.7156,248.6699 Q705.3719,248.6699 705.1688,248.4668 Q704.9656,248.2793 704.8563,247.7637 Q704.8094,247.4043 704.6219,247.2168 Q704.2938,246.8418 703.6844,246.623 Q703.075,246.4043 702.45,246.4043 Q701.6844,246.4043 701.0438,246.7324 Q700.4188,247.0605 699.9188,247.8105 Q699.4344,248.5605 699.4344,249.5918 L699.4344,250.6855 Q699.4344,251.9199 700.325,252.748 Q701.2156,253.5605 702.8094,253.5605 Q703.7469,253.5605 704.4031,253.3105 Q704.7938,253.1543 705.2156,252.7168 Q705.4813,252.4512 705.6219,252.373 Q705.7781,252.2949 705.9813,252.2949 Q706.3094,252.2949 706.5594,252.5605 Q706.825,252.8105 706.825,253.1543 Q706.825,253.498 706.4813,253.9043 Q705.9813,254.4824 705.1844,254.8105 Q704.1063,255.2637 702.8094,255.2637 Q701.2938,255.2637 700.0906,254.6387 Q699.1063,254.1387 698.4188,253.0762 Q697.7313,251.998 697.7313,250.7168 L697.7313,249.5605 Q697.7313,248.2324 698.3406,247.0918 Q698.9656,245.9355 700.0594,245.3262 Q701.1531,244.7012 702.3875,244.7012 Q703.1219,244.7012 703.7625,244.873 Q704.4188,245.0293 704.9656,245.3887 Z " fill="#000000"/><text fill="#000000" font-family="sans-serif" font-size="14" lengthAdjust="spacing" textLength="46" x="719.8" y="255.3105">Course</text><line style="stroke:#181818;stroke-width:0.5;" x1="672" x2="784" y1="265.5137" y2="265.5137"/><line style="stroke:#181818;stroke-width:0.5;" x1="672" x2="784" y1="273.5137" y2="273.5137"/><ellipse cx="682" cy="288.3242" fill="#84BE84" rx="3" ry="3" style="stroke:#038048;stroke-width:1.0;"/><text fill="#000000" font-family="sans-serif" font-size="14" lengthAdjust="spacing" textLength="88" x="691" y="292.6211">openCourse()</text></g><!--link ChangeCourseStateController to OpenCourseController--><g id="link_ChangeCourseStateController_OpenCourseController"><path codeLine="44" d="M383.5,310.3537 C383.5,305.4737 383.5,300.5837 383.5,295.7037 " fill="none" id="ChangeCourseStateController-to-OpenCourseController" style="stroke:#181818;stroke-width:1.0;"/><polygon fill="none" points="376.5,295.6137,383.5,275.6137,390.5,295.6137,376.5,295.6137" style="stroke:#181818;stroke-width:1.0;"/></g><!--link OpenCourseController to Course--><g id="link_OpenCourseController_Course"><path codeLine="45" d="M500.45,244.5237 C555.77,250.0137 619.7,256.3637 665.52,260.9137 " fill="none" id="OpenCourseController-to-Course" style="stroke:#181818;stroke-width:1.0;"/><polygon fill="#181818" points="670.73,261.4237,662.1755,256.5431,665.7551,260.9233,661.3749,264.503,670.73,261.4237" style="stroke:#181818;stroke-width:1.0;"/></g><!--link OpenCourseUI to OpenCourseController--><g id="link_OpenCourseUI_OpenCourseController"><path codeLine="46" d="M147.04,233.0137 C180.13,233.0137 222.11,233.0137 261.44,233.0137 " fill="none" id="OpenCourseUI-to-OpenCourseController" style="stroke:#181818;stroke-width:1.0;"/><polygon fill="#181818" points="266.72,233.0137,257.72,229.0137,261.72,233.0137,257.72,237.0137,266.72,233.0137" style="stroke:#181818;stroke-width:1.0;"/></g><!--link ListCourseByStateService to CourseRepository--><g id="link_ListCourseByStateService_CourseRepository"><path codeLine="47" d="M540.22,122.0137 C558.47,122.0137 576.96,122.0137 594.85,122.0137 " fill="none" id="ListCourseByStateService-to-CourseRepository" style="stroke:#181818;stroke-width:1.0;"/><polygon fill="#181818" points="599.88,122.0137,590.88,118.0137,594.88,122.0137,590.88,126.0137,599.88,122.0137" style="stroke:#181818;stroke-width:1.0;"/></g><!--link OpenCourseController to ListCourseByStateService--><g id="link_OpenCourseController_ListCourseByStateService"><path codeLine="48" d="M383.5,190.0837 C383.5,180.2737 383.5,170.4637 383.5,160.6537 " fill="none" id="OpenCourseController-to-ListCourseByStateService" style="stroke:#181818;stroke-width:1.0;"/><polygon fill="#181818" points="383.5,155.5237,379.5,164.5237,383.5,160.5237,387.5,164.5237,383.5,155.5237" style="stroke:#181818;stroke-width:1.0;"/></g><!--link OpenCourseController to CourseRepository--><g id="link_OpenCourseController_CourseRepository"><path codeLine="49" d="M500.45,195.4337 C538.62,183.0637 580.89,169.3637 618.49,157.1837 " fill="none" id="OpenCourseController-to-CourseRepository" style="stroke:#181818;stroke-width:1.0;"/><polygon fill="#181818" points="623.52,155.5537,613.725,154.5253,618.7639,157.0962,616.193,162.1351,623.52,155.5537" style="stroke:#181818;stroke-width:1.0;"/></g><!--link CourseRepository to Course--><g id="link_CourseRepository_Course"><path codeLine="50" d="M728,155.9237 C728,180.0037 728,204.0937 728,228.1737 " fill="none" id="CourseRepository-to-Course" style="stroke:#181818;stroke-width:1.0;"/><polygon fill="#181818" points="728,233.3137,732,224.3137,728,228.3137,724,224.3137,728,233.3137" style="stroke:#181818;stroke-width:1.0;"/></g><!--SRC=[nLFBQiCm4BphAtIqAVw1KdneJe52eI4Vi97Npb9PCf9I26d_lRBbEd9ifVHKWOGUixEp6abYxRZJt51pTBmYWyAHLeon3iGxDCXFn2-CZqr8i9Q_TgWs-cGixhVHuHSBunGg1amBoYzQLCvZsO3v0K3NIHBGPunuI3aqDGZacoEe1aEgdGFdfyePBIMQ2D-tXvfK5O0so_aZtteEE4Xy2flb72rkYREWDO-AIHRzZo9UoBeGy7mUGdPeFiZVL5h82CniFzuLDVaNMsImqvQSDkTrXmQEjpNG96IkuAy2Ajq2gSKR3B6twVHaKfOlQPdlzvvKyLcksinMlI_AKGIR_OUYI90alIicfkiz9bEcM7xH634lBBiMyWq0]--></g></svg>