<?xml version="1.0" encoding="us-ascii" standalone="no"?><svg xmlns="http://www.w3.org/2000/svg" xmlns:xlink="http://www.w3.org/1999/xlink" contentStyleType="text/css" height="1094px" preserveAspectRatio="none" style="width:1494px;height:1094px;background:#FFFFFF;" version="1.1" viewBox="0 0 1494 1094" width="1494px" zoomAndPan="magnify"><defs/><g><text fill="#000000" font-family="sans-serif" font-size="14" font-weight="bold" lengthAdjust="spacing" textLength="225" x="627.5" y="25.1074">US2009 - Take a Formative Exam</text><!--cluster ui--><g id="cluster_ui"><path d="M8.5,590.6348 L22.5,590.6348 A3.75,3.75 0 0 1 25,593.1348 L32,615.2559 L208.5,615.2559 A2.5,2.5 0 0 1 211,617.7559 L211,689.1348 A2.5,2.5 0 0 1 208.5,691.6348 L8.5,691.6348 A2.5,2.5 0 0 1 6,689.1348 L6,593.1348 A2.5,2.5 0 0 1 8.5,590.6348 " fill="none" style="stroke:#000000;stroke-width:1.5;"/><line style="stroke:#000000;stroke-width:1.5;" x1="6" x2="32" y1="615.2559" y2="615.2559"/><text fill="#000000" font-family="sans-serif" font-size="14" font-weight="bold" lengthAdjust="spacing" textLength="13" x="10" y="607.7422">ui</text></g><!--cluster questionmanagement--><g id="cluster_questionmanagement"><path d="M1113.5,821.6348 L1266.5,821.6348 A3.75,3.75 0 0 1 1269,824.1348 L1276,846.2559 L1353.5,846.2559 A2.5,2.5 0 0 1 1356,848.7559 L1356,940.1348 A2.5,2.5 0 0 1 1353.5,942.6348 L1113.5,942.6348 A2.5,2.5 0 0 1 1111,940.1348 L1111,824.1348 A2.5,2.5 0 0 1 1113.5,821.6348 " fill="none" style="stroke:#000000;stroke-width:1.5;"/><line style="stroke:#000000;stroke-width:1.5;" x1="1111" x2="1276" y1="846.2559" y2="846.2559"/><text fill="#000000" font-family="sans-serif" font-size="14" font-weight="bold" lengthAdjust="spacing" textLength="152" x="1115" y="838.7422">questionmanagement</text></g><!--cluster coursemanagement--><g id="cluster_coursemanagement"><path d="M550.5,821.6348 L690.5,821.6348 A3.75,3.75 0 0 1 693,824.1348 L700,846.2559 L947.5,846.2559 A2.5,2.5 0 0 1 950,848.7559 L950,940.1348 A2.5,2.5 0 0 1 947.5,942.6348 L550.5,942.6348 A2.5,2.5 0 0 1 548,940.1348 L548,824.1348 A2.5,2.5 0 0 1 550.5,821.6348 " fill="none" style="stroke:#000000;stroke-width:1.5;"/><line style="stroke:#000000;stroke-width:1.5;" x1="548" x2="700" y1="846.2559" y2="846.2559"/><text fill="#000000" font-family="sans-serif" font-size="14" font-weight="bold" lengthAdjust="spacing" textLength="139" x="552" y="838.7422">coursemanagement</text></g><!--cluster exammanagement--><g id="cluster_exammanagement"><path d="M574.5,966.6348 L702.5,966.6348 A3.75,3.75 0 0 1 705,969.1348 L712,991.2559 L923.5,991.2559 A2.5,2.5 0 0 1 926,993.7559 L926,1085.1348 A2.5,2.5 0 0 1 923.5,1087.6348 L574.5,1087.6348 A2.5,2.5 0 0 1 572,1085.1348 L572,969.1348 A2.5,2.5 0 0 1 574.5,966.6348 " fill="none" style="stroke:#000000;stroke-width:1.5;"/><line style="stroke:#000000;stroke-width:1.5;" x1="572" x2="712" y1="991.2559" y2="991.2559"/><text fill="#000000" font-family="sans-serif" font-size="14" font-weight="bold" lengthAdjust="spacing" textLength="127" x="576" y="983.7422">exammanagement</text></g><!--cluster takenexammanagement--><g id="cluster_takenexammanagement"><path d="M500.5,45.6348 L667.5,45.6348 A3.75,3.75 0 0 1 670,48.1348 L677,70.2559 L1484.5,70.2559 A2.5,2.5 0 0 1 1487,72.7559 L1487,795.1348 A2.5,2.5 0 0 1 1484.5,797.6348 L500.5,797.6348 A2.5,2.5 0 0 1 498,795.1348 L498,48.1348 A2.5,2.5 0 0 1 500.5,45.6348 " fill="none" style="stroke:#000000;stroke-width:1.5;"/><line style="stroke:#000000;stroke-width:1.5;" x1="498" x2="677" y1="70.2559" y2="70.2559"/><text fill="#000000" font-family="sans-serif" font-size="14" font-weight="bold" lengthAdjust="spacing" textLength="166" x="502" y="62.7422">takenexammanagement</text></g><!--cluster domain--><g id="cluster_domain"><path d="M1006.5,157.6348 L1058.5,157.6348 A3.75,3.75 0 0 1 1061,160.1348 L1068,182.2559 L1460.5,182.2559 A2.5,2.5 0 0 1 1463,184.7559 L1463,496.1348 A2.5,2.5 0 0 1 1460.5,498.6348 L1006.5,498.6348 A2.5,2.5 0 0 1 1004,496.1348 L1004,160.1348 A2.5,2.5 0 0 1 1006.5,157.6348 " fill="none" style="stroke:#000000;stroke-width:1.5;"/><line style="stroke:#000000;stroke-width:1.5;" x1="1004" x2="1068" y1="182.2559" y2="182.2559"/><text fill="#000000" font-family="sans-serif" font-size="14" font-weight="bold" lengthAdjust="spacing" textLength="51" x="1008" y="174.7422">domain</text></g><!--cluster application--><g id="cluster_application"><path d="M524.5,90.6348 L602.5,90.6348 A3.75,3.75 0 0 1 605,93.1348 L612,115.2559 L973.5,115.2559 A2.5,2.5 0 0 1 976,117.7559 L976,626.1348 A2.5,2.5 0 0 1 973.5,628.6348 L524.5,628.6348 A2.5,2.5 0 0 1 522,626.1348 L522,93.1348 A2.5,2.5 0 0 1 524.5,90.6348 " fill="none" style="stroke:#000000;stroke-width:1.5;"/><line style="stroke:#000000;stroke-width:1.5;" x1="522" x2="612" y1="115.2559" y2="115.2559"/><text fill="#000000" font-family="sans-serif" font-size="14" font-weight="bold" lengthAdjust="spacing" textLength="77" x="526" y="107.7422">application</text></g><!--cluster repository--><g id="cluster_repository"><path d="M625,652.6348 L698,652.6348 A3.75,3.75 0 0 1 700.5,655.1348 L707.5,677.2559 L873,677.2559 A2.5,2.5 0 0 1 875.5,679.7559 L875.5,771.1348 A2.5,2.5 0 0 1 873,773.6348 L625,773.6348 A2.5,2.5 0 0 1 622.5,771.1348 L622.5,655.1348 A2.5,2.5 0 0 1 625,652.6348 " fill="none" style="stroke:#000000;stroke-width:1.5;"/><line style="stroke:#000000;stroke-width:1.5;" x1="622.5" x2="707.5" y1="677.2559" y2="677.2559"/><text fill="#000000" font-family="sans-serif" font-size="14" font-weight="bold" lengthAdjust="spacing" textLength="72" x="626.5" y="669.7422">repository</text></g><!--class TakeFormativeExamUI--><g id="elem_TakeFormativeExamUI"><rect codeLine="7" fill="#F1F1F1" height="48" id="TakeFormativeExamUI" rx="2.5" ry="2.5" style="stroke:#181818;stroke-width:0.5;" width="173" x="22" y="627.6348"/><ellipse cx="37" cy="643.6348" fill="#ADD1B2" rx="11" ry="11" style="stroke:#181818;stroke-width:1.0;"/><path d="M39.7656,639.5098 Q39.9219,639.291 40.1094,639.1816 Q40.2969,639.0723 40.5156,639.0723 Q40.8906,639.0723 41.125,639.3379 Q41.3594,639.5879 41.3594,640.1973 L41.3594,641.6504 Q41.3594,642.2598 41.125,642.5254 Q40.8906,642.791 40.5156,642.791 Q40.1719,642.791 39.9688,642.5879 Q39.7656,642.4004 39.6563,641.8848 Q39.6094,641.5254 39.4219,641.3379 Q39.0938,640.9629 38.4844,640.7441 Q37.875,640.5254 37.25,640.5254 Q36.4844,640.5254 35.8438,640.8535 Q35.2188,641.1816 34.7188,641.9316 Q34.2344,642.6816 34.2344,643.7129 L34.2344,644.8066 Q34.2344,646.041 35.125,646.8691 Q36.0156,647.6816 37.6094,647.6816 Q38.5469,647.6816 39.2031,647.4316 Q39.5938,647.2754 40.0156,646.8379 Q40.2813,646.5723 40.4219,646.4941 Q40.5781,646.416 40.7813,646.416 Q41.1094,646.416 41.3594,646.6816 Q41.625,646.9316 41.625,647.2754 Q41.625,647.6191 41.2813,648.0254 Q40.7813,648.6035 39.9844,648.9316 Q38.9063,649.3848 37.6094,649.3848 Q36.0938,649.3848 34.8906,648.7598 Q33.9063,648.2598 33.2188,647.1973 Q32.5313,646.1191 32.5313,644.8379 L32.5313,643.6816 Q32.5313,642.3535 33.1406,641.2129 Q33.7656,640.0566 34.8594,639.4473 Q35.9531,638.8223 37.1875,638.8223 Q37.9219,638.8223 38.5625,638.9941 Q39.2188,639.1504 39.7656,639.5098 Z " fill="#000000"/><text fill="#000000" font-family="sans-serif" font-size="14" lengthAdjust="spacing" textLength="141" x="51" y="649.4316">TakeFormativeExamUI</text><line style="stroke:#181818;stroke-width:0.5;" x1="23" x2="194" y1="659.6348" y2="659.6348"/><line style="stroke:#181818;stroke-width:0.5;" x1="23" x2="194" y1="667.6348" y2="667.6348"/></g><!--class Question--><g id="elem_Question"><rect codeLine="11" fill="#F1F1F1" height="66.6211" id="Question" rx="2.5" ry="2.5" style="stroke:#181818;stroke-width:0.5;" width="213" x="1127" y="859.1348"/><ellipse cx="1200.75" cy="875.1348" fill="#A9DCDF" rx="11" ry="11" style="stroke:#181818;stroke-width:1.0;"/><path d="M1202.9375,876.9004 L1198.7969,876.9004 L1198.375,877.9316 L1198.7969,877.9316 Q1199.4063,877.9316 1199.6719,878.166 Q1199.9375,878.4004 1199.9375,878.791 Q1199.9375,879.166 1199.6719,879.4004 Q1199.4063,879.6348 1198.7969,879.6348 L1196.5,879.6348 Q1195.8906,879.6348 1195.6406,879.4004 Q1195.375,879.166 1195.375,878.7754 Q1195.375,878.4004 1195.6563,878.166 Q1195.9219,877.916 1196.5469,877.9316 L1199.2188,871.2754 L1198.1094,871.2754 Q1197.5,871.2754 1197.2344,871.041 Q1196.9688,870.8066 1196.9688,870.416 Q1196.9688,870.041 1197.2344,869.8066 Q1197.5,869.5723 1198.1094,869.5723 L1201.7813,869.5723 L1205.1719,877.9316 Q1205.7656,877.9316 1205.9531,878.0723 Q1206.3438,878.3379 1206.3438,878.791 Q1206.3438,879.166 1206.0781,879.4004 Q1205.8281,879.6348 1205.2188,879.6348 L1202.9219,879.6348 Q1202.3125,879.6348 1202.0469,879.4004 Q1201.7813,879.166 1201.7813,878.7754 Q1201.7813,878.4004 1202.0469,878.166 Q1202.3125,877.9316 1202.9219,877.9316 L1203.3438,877.9316 L1202.9375,876.9004 Z M1202.2188,875.1973 L1200.8594,871.8223 L1199.4844,875.1973 L1202.2188,875.1973 Z " fill="#000000"/><text fill="#000000" font-family="sans-serif" font-size="14" font-style="italic" lengthAdjust="spacing" textLength="57" x="1221.25" y="880.9316">Question</text><line style="stroke:#181818;stroke-width:0.5;" x1="1128" x2="1339" y1="891.1348" y2="891.1348"/><line style="stroke:#181818;stroke-width:0.5;" x1="1128" x2="1339" y1="899.1348" y2="899.1348"/><ellipse cx="1138" cy="913.9453" fill="#84BE84" rx="3" ry="3" style="stroke:#038048;stroke-width:1.0;"/><text fill="#000000" font-family="sans-serif" font-size="14" lengthAdjust="spacing" textLength="187" x="1147" y="918.2422">corretAnswer(answer) : grade</text></g><!--class StudentCoursesProvider--><g id="elem_StudentCoursesProvider"><rect codeLine="17" fill="#F1F1F1" height="66.6211" id="StudentCoursesProvider" rx="2.5" ry="2.5" style="stroke:#181818;stroke-width:0.5;" width="370" x="564" y="859.1348"/><ellipse cx="667.75" cy="875.1348" fill="#B4A7E5" rx="11" ry="11" style="stroke:#181818;stroke-width:1.0;"/><path d="M668.7031,871.7754 L668.7031,878.4316 L670.4219,878.4316 Q671.0313,878.4316 671.2969,878.666 Q671.5625,878.9004 671.5625,879.291 Q671.5625,879.666 671.2969,879.9004 Q671.0313,880.1348 670.4219,880.1348 L665.2813,880.1348 Q664.6719,880.1348 664.4063,879.9004 Q664.1406,879.666 664.1406,879.2754 Q664.1406,878.9004 664.4063,878.666 Q664.6719,878.4316 665.2813,878.4316 L667,878.4316 L667,871.7754 L665.2813,871.7754 Q664.6719,871.7754 664.4063,871.541 Q664.1406,871.3066 664.1406,870.916 Q664.1406,870.541 664.4063,870.3066 Q664.6719,870.0723 665.2813,870.0723 L670.4219,870.0723 Q671.0313,870.0723 671.2969,870.3066 Q671.5625,870.541 671.5625,870.916 Q671.5625,871.3066 671.2969,871.541 Q671.0313,871.7754 670.4219,871.7754 L668.7031,871.7754 Z " fill="#000000"/><text fill="#000000" font-family="sans-serif" font-size="14" font-style="italic" lengthAdjust="spacing" textLength="154" x="688.25" y="880.9316">StudentCoursesProvider</text><line style="stroke:#181818;stroke-width:0.5;" x1="565" x2="933" y1="891.1348" y2="891.1348"/><line style="stroke:#181818;stroke-width:0.5;" x1="565" x2="933" y1="899.1348" y2="899.1348"/><ellipse cx="575" cy="913.9453" fill="#84BE84" rx="3" ry="3" style="stroke:#038048;stroke-width:1.0;"/><text fill="#000000" font-family="sans-serif" font-size="14" lengthAdjust="spacing" textLength="344" x="584" y="918.2422">provideStudentInProgressCourses(): Iterable&lt;Course&gt;</text></g><!--class CourseExamProvider--><g id="elem_CourseExamProvider"><rect codeLine="23" fill="#F1F1F1" height="66.6211" id="CourseExamProvider" rx="2.5" ry="2.5" style="stroke:#181818;stroke-width:0.5;" width="322" x="588" y="1004.1348"/><ellipse cx="678.25" cy="1020.1348" fill="#ADD1B2" rx="11" ry="11" style="stroke:#181818;stroke-width:1.0;"/><path d="M681.0156,1016.0098 Q681.1719,1015.791 681.3594,1015.6816 Q681.5469,1015.5723 681.7656,1015.5723 Q682.1406,1015.5723 682.375,1015.8379 Q682.6094,1016.0879 682.6094,1016.6973 L682.6094,1018.1504 Q682.6094,1018.7598 682.375,1019.0254 Q682.1406,1019.291 681.7656,1019.291 Q681.4219,1019.291 681.2188,1019.0879 Q681.0156,1018.9004 680.9063,1018.3848 Q680.8594,1018.0254 680.6719,1017.8379 Q680.3438,1017.4629 679.7344,1017.2441 Q679.125,1017.0254 678.5,1017.0254 Q677.7344,1017.0254 677.0938,1017.3535 Q676.4688,1017.6816 675.9688,1018.4316 Q675.4844,1019.1816 675.4844,1020.2129 L675.4844,1021.3066 Q675.4844,1022.541 676.375,1023.3691 Q677.2656,1024.1816 678.8594,1024.1816 Q679.7969,1024.1816 680.4531,1023.9316 Q680.8438,1023.7754 681.2656,1023.3379 Q681.5313,1023.0723 681.6719,1022.9941 Q681.8281,1022.916 682.0313,1022.916 Q682.3594,1022.916 682.6094,1023.1816 Q682.875,1023.4316 682.875,1023.7754 Q682.875,1024.1191 682.5313,1024.5254 Q682.0313,1025.1035 681.2344,1025.4316 Q680.1563,1025.8848 678.8594,1025.8848 Q677.3438,1025.8848 676.1406,1025.2598 Q675.1563,1024.7598 674.4688,1023.6973 Q673.7813,1022.6191 673.7813,1021.3379 L673.7813,1020.1816 Q673.7813,1018.8535 674.3906,1017.7129 Q675.0156,1016.5566 676.1094,1015.9473 Q677.2031,1015.3223 678.4375,1015.3223 Q679.1719,1015.3223 679.8125,1015.4941 Q680.4688,1015.6504 681.0156,1016.0098 Z " fill="#000000"/><text fill="#000000" font-family="sans-serif" font-size="14" lengthAdjust="spacing" textLength="133" x="698.75" y="1025.9316">CourseExamProvider</text><line style="stroke:#181818;stroke-width:0.5;" x1="589" x2="909" y1="1036.1348" y2="1036.1348"/><line style="stroke:#181818;stroke-width:0.5;" x1="589" x2="909" y1="1044.1348" y2="1044.1348"/><ellipse cx="599" cy="1058.9453" fill="#84BE84" rx="3" ry="3" style="stroke:#038048;stroke-width:1.0;"/><text fill="#000000" font-family="sans-serif" font-size="14" lengthAdjust="spacing" textLength="296" x="608" y="1063.2422">provideCourseExams(course) : Iterable&lt;Exam&gt;</text></g><!--class TakenExam--><g id="elem_TakenExam"><rect codeLine="31" fill="#F1F1F1" height="48" id="TakenExam" rx="2.5" ry="2.5" style="stroke:#181818;stroke-width:0.5;" width="106" x="1180.5" y="277.6348"/><ellipse cx="1195.5" cy="293.6348" fill="#ADD1B2" rx="11" ry="11" style="stroke:#181818;stroke-width:1.0;"/><path d="M1198.2656,289.5098 Q1198.4219,289.291 1198.6094,289.1816 Q1198.7969,289.0723 1199.0156,289.0723 Q1199.3906,289.0723 1199.625,289.3379 Q1199.8594,289.5879 1199.8594,290.1973 L1199.8594,291.6504 Q1199.8594,292.2598 1199.625,292.5254 Q1199.3906,292.791 1199.0156,292.791 Q1198.6719,292.791 1198.4688,292.5879 Q1198.2656,292.4004 1198.1563,291.8848 Q1198.1094,291.5254 1197.9219,291.3379 Q1197.5938,290.9629 1196.9844,290.7441 Q1196.375,290.5254 1195.75,290.5254 Q1194.9844,290.5254 1194.3438,290.8535 Q1193.7188,291.1816 1193.2188,291.9316 Q1192.7344,292.6816 1192.7344,293.7129 L1192.7344,294.8066 Q1192.7344,296.041 1193.625,296.8691 Q1194.5156,297.6816 1196.1094,297.6816 Q1197.0469,297.6816 1197.7031,297.4316 Q1198.0938,297.2754 1198.5156,296.8379 Q1198.7813,296.5723 1198.9219,296.4941 Q1199.0781,296.416 1199.2813,296.416 Q1199.6094,296.416 1199.8594,296.6816 Q1200.125,296.9316 1200.125,297.2754 Q1200.125,297.6191 1199.7813,298.0254 Q1199.2813,298.6035 1198.4844,298.9316 Q1197.4063,299.3848 1196.1094,299.3848 Q1194.5938,299.3848 1193.3906,298.7598 Q1192.4063,298.2598 1191.7188,297.1973 Q1191.0313,296.1191 1191.0313,294.8379 L1191.0313,293.6816 Q1191.0313,292.3535 1191.6406,291.2129 Q1192.2656,290.0566 1193.3594,289.4473 Q1194.4531,288.8223 1195.6875,288.8223 Q1196.4219,288.8223 1197.0625,288.9941 Q1197.7188,289.1504 1198.2656,289.5098 Z " fill="#000000"/><text fill="#000000" font-family="sans-serif" font-size="14" lengthAdjust="spacing" textLength="74" x="1209.5" y="299.4316">TakenExam</text><line style="stroke:#181818;stroke-width:0.5;" x1="1181.5" x2="1285.5" y1="309.6348" y2="309.6348"/><line style="stroke:#181818;stroke-width:0.5;" x1="1181.5" x2="1285.5" y1="317.6348" y2="317.6348"/></g><!--class AnsweredQuestion--><g id="elem_AnsweredQuestion"><rect codeLine="33" fill="#F1F1F1" height="48" id="AnsweredQuestion" rx="2.5" ry="2.5" style="stroke:#181818;stroke-width:0.5;" width="151" x="1158" y="194.6348"/><ellipse cx="1173" cy="210.6348" fill="#ADD1B2" rx="11" ry="11" style="stroke:#181818;stroke-width:1.0;"/><path d="M1175.7656,206.5098 Q1175.9219,206.291 1176.1094,206.1816 Q1176.2969,206.0723 1176.5156,206.0723 Q1176.8906,206.0723 1177.125,206.3379 Q1177.3594,206.5879 1177.3594,207.1973 L1177.3594,208.6504 Q1177.3594,209.2598 1177.125,209.5254 Q1176.8906,209.791 1176.5156,209.791 Q1176.1719,209.791 1175.9688,209.5879 Q1175.7656,209.4004 1175.6563,208.8848 Q1175.6094,208.5254 1175.4219,208.3379 Q1175.0938,207.9629 1174.4844,207.7441 Q1173.875,207.5254 1173.25,207.5254 Q1172.4844,207.5254 1171.8438,207.8535 Q1171.2188,208.1816 1170.7188,208.9316 Q1170.2344,209.6816 1170.2344,210.7129 L1170.2344,211.8066 Q1170.2344,213.041 1171.125,213.8691 Q1172.0156,214.6816 1173.6094,214.6816 Q1174.5469,214.6816 1175.2031,214.4316 Q1175.5938,214.2754 1176.0156,213.8379 Q1176.2813,213.5723 1176.4219,213.4941 Q1176.5781,213.416 1176.7813,213.416 Q1177.1094,213.416 1177.3594,213.6816 Q1177.625,213.9316 1177.625,214.2754 Q1177.625,214.6191 1177.2813,215.0254 Q1176.7813,215.6035 1175.9844,215.9316 Q1174.9063,216.3848 1173.6094,216.3848 Q1172.0938,216.3848 1170.8906,215.7598 Q1169.9063,215.2598 1169.2188,214.1973 Q1168.5313,213.1191 1168.5313,211.8379 L1168.5313,210.6816 Q1168.5313,209.3535 1169.1406,208.2129 Q1169.7656,207.0566 1170.8594,206.4473 Q1171.9531,205.8223 1173.1875,205.8223 Q1173.9219,205.8223 1174.5625,205.9941 Q1175.2188,206.1504 1175.7656,206.5098 Z " fill="#000000"/><text fill="#000000" font-family="sans-serif" font-size="14" lengthAdjust="spacing" textLength="119" x="1187" y="216.4316">AnsweredQuestion</text><line style="stroke:#181818;stroke-width:0.5;" x1="1159" x2="1308" y1="226.6348" y2="226.6348"/><line style="stroke:#181818;stroke-width:0.5;" x1="1159" x2="1308" y1="234.6348" y2="234.6348"/></g><!--class TakenExamBuilder--><g id="elem_TakenExamBuilder"><rect codeLine="35" fill="#F1F1F1" height="122.4844" id="TakenExamBuilder" rx="2.5" ry="2.5" style="stroke:#181818;stroke-width:0.5;" width="427" x="1020" y="360.6348"/><ellipse cx="1170.25" cy="376.6348" fill="#ADD1B2" rx="11" ry="11" style="stroke:#181818;stroke-width:1.0;"/><path d="M1173.0156,372.5098 Q1173.1719,372.291 1173.3594,372.1816 Q1173.5469,372.0723 1173.7656,372.0723 Q1174.1406,372.0723 1174.375,372.3379 Q1174.6094,372.5879 1174.6094,373.1973 L1174.6094,374.6504 Q1174.6094,375.2598 1174.375,375.5254 Q1174.1406,375.791 1173.7656,375.791 Q1173.4219,375.791 1173.2188,375.5879 Q1173.0156,375.4004 1172.9063,374.8848 Q1172.8594,374.5254 1172.6719,374.3379 Q1172.3438,373.9629 1171.7344,373.7441 Q1171.125,373.5254 1170.5,373.5254 Q1169.7344,373.5254 1169.0938,373.8535 Q1168.4688,374.1816 1167.9688,374.9316 Q1167.4844,375.6816 1167.4844,376.7129 L1167.4844,377.8066 Q1167.4844,379.041 1168.375,379.8691 Q1169.2656,380.6816 1170.8594,380.6816 Q1171.7969,380.6816 1172.4531,380.4316 Q1172.8438,380.2754 1173.2656,379.8379 Q1173.5313,379.5723 1173.6719,379.4941 Q1173.8281,379.416 1174.0313,379.416 Q1174.3594,379.416 1174.6094,379.6816 Q1174.875,379.9316 1174.875,380.2754 Q1174.875,380.6191 1174.5313,381.0254 Q1174.0313,381.6035 1173.2344,381.9316 Q1172.1563,382.3848 1170.8594,382.3848 Q1169.3438,382.3848 1168.1406,381.7598 Q1167.1563,381.2598 1166.4688,380.1973 Q1165.7813,379.1191 1165.7813,377.8379 L1165.7813,376.6816 Q1165.7813,375.3535 1166.3906,374.2129 Q1167.0156,373.0566 1168.1094,372.4473 Q1169.2031,371.8223 1170.4375,371.8223 Q1171.1719,371.8223 1171.8125,371.9941 Q1172.4688,372.1504 1173.0156,372.5098 Z " fill="#000000"/><text fill="#000000" font-family="sans-serif" font-size="14" lengthAdjust="spacing" textLength="118" x="1190.75" y="382.4316">TakenExamBuilder</text><line style="stroke:#181818;stroke-width:0.5;" x1="1021" x2="1446" y1="392.6348" y2="392.6348"/><line style="stroke:#181818;stroke-width:0.5;" x1="1021" x2="1446" y1="400.6348" y2="400.6348"/><ellipse cx="1031" cy="415.4453" fill="#84BE84" rx="3" ry="3" style="stroke:#038048;stroke-width:1.0;"/><text fill="#000000" font-family="sans-serif" font-size="14" lengthAdjust="spacing" textLength="231" x="1040" y="419.7422">withExam(exam) : TakenExamBuilder</text><ellipse cx="1031" cy="434.0664" fill="#84BE84" rx="3" ry="3" style="stroke:#038048;stroke-width:1.0;"/><text fill="#000000" font-family="sans-serif" font-size="14" lengthAdjust="spacing" textLength="260" x="1040" y="438.3633">withStudent(student) : TakenExamBuilder</text><ellipse cx="1031" cy="452.6875" fill="#84BE84" rx="3" ry="3" style="stroke:#038048;stroke-width:1.0;"/><text fill="#000000" font-family="sans-serif" font-size="14" lengthAdjust="spacing" textLength="401" x="1040" y="456.9844">withAnsweredQuestion(answeredQuestion) : TakenExamBuilder</text><ellipse cx="1031" cy="471.3086" fill="#84BE84" rx="3" ry="3" style="stroke:#038048;stroke-width:1.0;"/><text fill="#000000" font-family="sans-serif" font-size="14" lengthAdjust="spacing" textLength="126" x="1040" y="475.6055">build() : TakenExam</text></g><!--class TakenExamHandler--><g id="elem_TakenExamHandler"><rect codeLine="44" fill="#F1F1F1" height="66.6211" id="TakenExamHandler" rx="2.5" ry="2.5" style="stroke:#181818;stroke-width:0.5;" width="254" x="622" y="443.1348"/><ellipse cx="683.25" cy="459.1348" fill="#ADD1B2" rx="11" ry="11" style="stroke:#181818;stroke-width:1.0;"/><path d="M686.0156,455.0098 Q686.1719,454.791 686.3594,454.6816 Q686.5469,454.5723 686.7656,454.5723 Q687.1406,454.5723 687.375,454.8379 Q687.6094,455.0879 687.6094,455.6973 L687.6094,457.1504 Q687.6094,457.7598 687.375,458.0254 Q687.1406,458.291 686.7656,458.291 Q686.4219,458.291 686.2188,458.0879 Q686.0156,457.9004 685.9063,457.3848 Q685.8594,457.0254 685.6719,456.8379 Q685.3438,456.4629 684.7344,456.2441 Q684.125,456.0254 683.5,456.0254 Q682.7344,456.0254 682.0938,456.3535 Q681.4688,456.6816 680.9688,457.4316 Q680.4844,458.1816 680.4844,459.2129 L680.4844,460.3066 Q680.4844,461.541 681.375,462.3691 Q682.2656,463.1816 683.8594,463.1816 Q684.7969,463.1816 685.4531,462.9316 Q685.8438,462.7754 686.2656,462.3379 Q686.5313,462.0723 686.6719,461.9941 Q686.8281,461.916 687.0313,461.916 Q687.3594,461.916 687.6094,462.1816 Q687.875,462.4316 687.875,462.7754 Q687.875,463.1191 687.5313,463.5254 Q687.0313,464.1035 686.2344,464.4316 Q685.1563,464.8848 683.8594,464.8848 Q682.3438,464.8848 681.1406,464.2598 Q680.1563,463.7598 679.4688,462.6973 Q678.7813,461.6191 678.7813,460.3379 L678.7813,459.1816 Q678.7813,457.8535 679.3906,456.7129 Q680.0156,455.5566 681.1094,454.9473 Q682.2031,454.3223 683.4375,454.3223 Q684.1719,454.3223 684.8125,454.4941 Q685.4688,454.6504 686.0156,455.0098 Z " fill="#000000"/><text fill="#000000" font-family="sans-serif" font-size="14" lengthAdjust="spacing" textLength="123" x="703.75" y="464.9316">TakenExamHandler</text><line style="stroke:#181818;stroke-width:0.5;" x1="623" x2="875" y1="475.1348" y2="475.1348"/><line style="stroke:#181818;stroke-width:0.5;" x1="623" x2="875" y1="483.1348" y2="483.1348"/><ellipse cx="633" cy="497.9453" fill="#84BE84" rx="3" ry="3" style="stroke:#038048;stroke-width:1.0;"/><text fill="#000000" font-family="sans-serif" font-size="14" lengthAdjust="spacing" textLength="228" x="642" y="502.2422">createTakenExam(file) : TakenExam</text></g><!--class TakenExamVisitor--><g id="elem_TakenExamVisitor"><rect codeLine="48" fill="#F1F1F1" height="85.2422" id="TakenExamVisitor" rx="2.5" ry="2.5" style="stroke:#181818;stroke-width:0.5;" width="279" x="609.5" y="323.1348"/><ellipse cx="688.25" cy="339.1348" fill="#ADD1B2" rx="11" ry="11" style="stroke:#181818;stroke-width:1.0;"/><path d="M691.0156,335.0098 Q691.1719,334.791 691.3594,334.6816 Q691.5469,334.5723 691.7656,334.5723 Q692.1406,334.5723 692.375,334.8379 Q692.6094,335.0879 692.6094,335.6973 L692.6094,337.1504 Q692.6094,337.7598 692.375,338.0254 Q692.1406,338.291 691.7656,338.291 Q691.4219,338.291 691.2188,338.0879 Q691.0156,337.9004 690.9063,337.3848 Q690.8594,337.0254 690.6719,336.8379 Q690.3438,336.4629 689.7344,336.2441 Q689.125,336.0254 688.5,336.0254 Q687.7344,336.0254 687.0938,336.3535 Q686.4688,336.6816 685.9688,337.4316 Q685.4844,338.1816 685.4844,339.2129 L685.4844,340.3066 Q685.4844,341.541 686.375,342.3691 Q687.2656,343.1816 688.8594,343.1816 Q689.7969,343.1816 690.4531,342.9316 Q690.8438,342.7754 691.2656,342.3379 Q691.5313,342.0723 691.6719,341.9941 Q691.8281,341.916 692.0313,341.916 Q692.3594,341.916 692.6094,342.1816 Q692.875,342.4316 692.875,342.7754 Q692.875,343.1191 692.5313,343.5254 Q692.0313,344.1035 691.2344,344.4316 Q690.1563,344.8848 688.8594,344.8848 Q687.3438,344.8848 686.1406,344.2598 Q685.1563,343.7598 684.4688,342.6973 Q683.7813,341.6191 683.7813,340.3379 L683.7813,339.1816 Q683.7813,337.8535 684.3906,336.7129 Q685.0156,335.5566 686.1094,334.9473 Q687.2031,334.3223 688.4375,334.3223 Q689.1719,334.3223 689.8125,334.4941 Q690.4688,334.6504 691.0156,335.0098 Z " fill="#000000"/><text fill="#000000" font-family="sans-serif" font-size="14" lengthAdjust="spacing" textLength="113" x="708.75" y="344.9316">TakenExamVisitor</text><line style="stroke:#181818;stroke-width:0.5;" x1="610.5" x2="887.5" y1="355.1348" y2="355.1348"/><line style="stroke:#181818;stroke-width:0.5;" x1="610.5" x2="887.5" y1="363.1348" y2="363.1348"/><ellipse cx="620.5" cy="377.9453" fill="#84BE84" rx="3" ry="3" style="stroke:#038048;stroke-width:1.0;"/><text fill="#000000" font-family="sans-serif" font-size="14" lengthAdjust="spacing" textLength="59" x="629.5" y="382.2422">visit(tree)</text><ellipse cx="620.5" cy="396.5664" fill="#84BE84" rx="3" ry="3" style="stroke:#038048;stroke-width:1.0;"/><text fill="#000000" font-family="sans-serif" font-size="14" lengthAdjust="spacing" textLength="253" x="629.5" y="400.8633">takenExamBuilder() : TakenExamBuilder</text></g><!--class TakenExamCorrector--><g id="elem_TakenExamCorrector"><rect codeLine="53" fill="#F1F1F1" height="66.6211" id="TakenExamCorrector" rx="2.5" ry="2.5" style="stroke:#181818;stroke-width:0.5;" width="255" x="621.5" y="545.1348"/><ellipse cx="677.75" cy="561.1348" fill="#ADD1B2" rx="11" ry="11" style="stroke:#181818;stroke-width:1.0;"/><path d="M680.5156,557.0098 Q680.6719,556.791 680.8594,556.6816 Q681.0469,556.5723 681.2656,556.5723 Q681.6406,556.5723 681.875,556.8379 Q682.1094,557.0879 682.1094,557.6973 L682.1094,559.1504 Q682.1094,559.7598 681.875,560.0254 Q681.6406,560.291 681.2656,560.291 Q680.9219,560.291 680.7188,560.0879 Q680.5156,559.9004 680.4063,559.3848 Q680.3594,559.0254 680.1719,558.8379 Q679.8438,558.4629 679.2344,558.2441 Q678.625,558.0254 678,558.0254 Q677.2344,558.0254 676.5938,558.3535 Q675.9688,558.6816 675.4688,559.4316 Q674.9844,560.1816 674.9844,561.2129 L674.9844,562.3066 Q674.9844,563.541 675.875,564.3691 Q676.7656,565.1816 678.3594,565.1816 Q679.2969,565.1816 679.9531,564.9316 Q680.3438,564.7754 680.7656,564.3379 Q681.0313,564.0723 681.1719,563.9941 Q681.3281,563.916 681.5313,563.916 Q681.8594,563.916 682.1094,564.1816 Q682.375,564.4316 682.375,564.7754 Q682.375,565.1191 682.0313,565.5254 Q681.5313,566.1035 680.7344,566.4316 Q679.6563,566.8848 678.3594,566.8848 Q676.8438,566.8848 675.6406,566.2598 Q674.6563,565.7598 673.9688,564.6973 Q673.2813,563.6191 673.2813,562.3379 L673.2813,561.1816 Q673.2813,559.8535 673.8906,558.7129 Q674.5156,557.5566 675.6094,556.9473 Q676.7031,556.3223 677.9375,556.3223 Q678.6719,556.3223 679.3125,556.4941 Q679.9688,556.6504 680.5156,557.0098 Z " fill="#000000"/><text fill="#000000" font-family="sans-serif" font-size="14" lengthAdjust="spacing" textLength="134" x="698.25" y="566.9316">TakenExamCorrector</text><line style="stroke:#181818;stroke-width:0.5;" x1="622.5" x2="875.5" y1="577.1348" y2="577.1348"/><line style="stroke:#181818;stroke-width:0.5;" x1="622.5" x2="875.5" y1="585.1348" y2="585.1348"/><text fill="#000000" font-family="sans-serif" font-size="14" lengthAdjust="spacing" textLength="243" x="627.5" y="604.2422">correctExam(takenExam) : TakenExam</text></g><!--class TakeExamController--><g id="elem_TakeExamController"><rect codeLine="57" fill="#F1F1F1" height="159.7266" id="TakeExamController" rx="2.5" ry="2.5" style="stroke:#181818;stroke-width:0.5;" width="422" x="538" y="127.6348"/><ellipse cx="680.25" cy="143.6348" fill="#A9DCDF" rx="11" ry="11" style="stroke:#181818;stroke-width:1.0;"/><path d="M682.4375,145.4004 L678.2969,145.4004 L677.875,146.4316 L678.2969,146.4316 Q678.9063,146.4316 679.1719,146.666 Q679.4375,146.9004 679.4375,147.291 Q679.4375,147.666 679.1719,147.9004 Q678.9063,148.1348 678.2969,148.1348 L676,148.1348 Q675.3906,148.1348 675.1406,147.9004 Q674.875,147.666 674.875,147.2754 Q674.875,146.9004 675.1563,146.666 Q675.4219,146.416 676.0469,146.4316 L678.7188,139.7754 L677.6094,139.7754 Q677,139.7754 676.7344,139.541 Q676.4688,139.3066 676.4688,138.916 Q676.4688,138.541 676.7344,138.3066 Q677,138.0723 677.6094,138.0723 L681.2813,138.0723 L684.6719,146.4316 Q685.2656,146.4316 685.4531,146.5723 Q685.8438,146.8379 685.8438,147.291 Q685.8438,147.666 685.5781,147.9004 Q685.3281,148.1348 684.7188,148.1348 L682.4219,148.1348 Q681.8125,148.1348 681.5469,147.9004 Q681.2813,147.666 681.2813,147.2754 Q681.2813,146.9004 681.5469,146.666 Q681.8125,146.4316 682.4219,146.4316 L682.8438,146.4316 L682.4375,145.4004 Z M681.7188,143.6973 L680.3594,140.3223 L678.9844,143.6973 L681.7188,143.6973 Z " fill="#000000"/><text fill="#000000" font-family="sans-serif" font-size="14" font-style="italic" lengthAdjust="spacing" textLength="129" x="700.75" y="149.4316">TakeExamController</text><line style="stroke:#181818;stroke-width:0.5;" x1="539" x2="959" y1="159.6348" y2="159.6348"/><line style="stroke:#181818;stroke-width:0.5;" x1="539" x2="959" y1="167.6348" y2="167.6348"/><rect fill="#F24D5C" height="6" style="stroke:#C82930;stroke-width:1.0;" width="6" x="546" y="179.4453"/><text fill="#000000" font-family="sans-serif" font-size="14" lengthAdjust="spacing" textLength="73" x="558" y="186.7422">verifyUser()</text><rect fill="#F24D5C" height="6" style="stroke:#C82930;stroke-width:1.0;" width="6" x="546" y="198.0664"/><text fill="#000000" font-family="sans-serif" font-size="14" lengthAdjust="spacing" textLength="238" x="558" y="205.3633">isExamAlreadyTaken(exam) : boolean</text><ellipse cx="549" cy="219.6875" fill="#84BE84" rx="3" ry="3" style="stroke:#038048;stroke-width:1.0;"/><text fill="#000000" font-family="sans-serif" font-size="14" lengthAdjust="spacing" textLength="293" x="558" y="223.9844">listStudentInProgressCourses() : List&lt;Course&gt;</text><ellipse cx="549" cy="238.3086" fill="#84BE84" rx="3" ry="3" style="stroke:#038048;stroke-width:1.0;"/><text fill="#000000" font-family="sans-serif" font-size="14" lengthAdjust="spacing" textLength="396" x="558" y="242.6055">listStudentNonTakenFormativeExamsOfAcourse() : List&lt;Exam&gt;</text><ellipse cx="549" cy="256.9297" fill="#84BE84" rx="3" ry="3" style="stroke:#038048;stroke-width:1.0;"/><text fill="#000000" font-family="sans-serif" font-size="14" lengthAdjust="spacing" textLength="243" x="558" y="261.2266">createTakenExam(exam) : TakenExam</text><ellipse cx="549" cy="275.5508" fill="#84BE84" rx="3" ry="3" style="stroke:#038048;stroke-width:1.0;"/><text fill="#000000" font-family="sans-serif" font-size="14" lengthAdjust="spacing" textLength="160" x="558" y="279.8477">correctExam(exam) : float</text></g><!--class TakeExamRepository--><g id="elem_TakeExamRepository"><rect codeLine="69" fill="#F1F1F1" height="66.6211" id="TakeExamRepository" rx="2.5" ry="2.5" style="stroke:#181818;stroke-width:0.5;" width="221" x="638.5" y="690.1348"/><ellipse cx="677.8" cy="706.1348" fill="#B4A7E5" rx="11" ry="11" style="stroke:#181818;stroke-width:1.0;"/><path d="M678.7531,702.7754 L678.7531,709.4316 L680.4719,709.4316 Q681.0813,709.4316 681.3469,709.666 Q681.6125,709.9004 681.6125,710.291 Q681.6125,710.666 681.3469,710.9004 Q681.0813,711.1348 680.4719,711.1348 L675.3313,711.1348 Q674.7219,711.1348 674.4563,710.9004 Q674.1906,710.666 674.1906,710.2754 Q674.1906,709.9004 674.4563,709.666 Q674.7219,709.4316 675.3313,709.4316 L677.05,709.4316 L677.05,702.7754 L675.3313,702.7754 Q674.7219,702.7754 674.4563,702.541 Q674.1906,702.3066 674.1906,701.916 Q674.1906,701.541 674.4563,701.3066 Q674.7219,701.0723 675.3313,701.0723 L680.4719,701.0723 Q681.0813,701.0723 681.3469,701.3066 Q681.6125,701.541 681.6125,701.916 Q681.6125,702.3066 681.3469,702.541 Q681.0813,702.7754 680.4719,702.7754 L678.7531,702.7754 Z " fill="#000000"/><text fill="#000000" font-family="sans-serif" font-size="14" font-style="italic" lengthAdjust="spacing" textLength="135" x="697.2" y="711.9316">TakeExamRepository</text><line style="stroke:#181818;stroke-width:0.5;" x1="639.5" x2="858.5" y1="722.1348" y2="722.1348"/><line style="stroke:#181818;stroke-width:0.5;" x1="639.5" x2="858.5" y1="730.1348" y2="730.1348"/><ellipse cx="649.5" cy="744.9453" fill="#84BE84" rx="3" ry="3" style="stroke:#038048;stroke-width:1.0;"/><text fill="#000000" font-family="sans-serif" font-size="14" lengthAdjust="spacing" textLength="195" x="658.5" y="749.2422">save(takenExam) : TakenExam</text></g><!--class TakeFormativeExamController--><g id="elem_TakeFormativeExamController"><rect fill="#F1F1F1" height="48" id="TakeFormativeExamController" rx="2.5" ry="2.5" style="stroke:#181818;stroke-width:0.5;" width="223" x="255" y="627.6348"/><ellipse cx="270" cy="643.6348" fill="#ADD1B2" rx="11" ry="11" style="stroke:#181818;stroke-width:1.0;"/><path d="M272.7656,639.5098 Q272.9219,639.291 273.1094,639.1816 Q273.2969,639.0723 273.5156,639.0723 Q273.8906,639.0723 274.125,639.3379 Q274.3594,639.5879 274.3594,640.1973 L274.3594,641.6504 Q274.3594,642.2598 274.125,642.5254 Q273.8906,642.791 273.5156,642.791 Q273.1719,642.791 272.9688,642.5879 Q272.7656,642.4004 272.6563,641.8848 Q272.6094,641.5254 272.4219,641.3379 Q272.0938,640.9629 271.4844,640.7441 Q270.875,640.5254 270.25,640.5254 Q269.4844,640.5254 268.8438,640.8535 Q268.2188,641.1816 267.7188,641.9316 Q267.2344,642.6816 267.2344,643.7129 L267.2344,644.8066 Q267.2344,646.041 268.125,646.8691 Q269.0156,647.6816 270.6094,647.6816 Q271.5469,647.6816 272.2031,647.4316 Q272.5938,647.2754 273.0156,646.8379 Q273.2813,646.5723 273.4219,646.4941 Q273.5781,646.416 273.7813,646.416 Q274.1094,646.416 274.3594,646.6816 Q274.625,646.9316 274.625,647.2754 Q274.625,647.6191 274.2813,648.0254 Q273.7813,648.6035 272.9844,648.9316 Q271.9063,649.3848 270.6094,649.3848 Q269.0938,649.3848 267.8906,648.7598 Q266.9063,648.2598 266.2188,647.1973 Q265.5313,646.1191 265.5313,644.8379 L265.5313,643.6816 Q265.5313,642.3535 266.1406,641.2129 Q266.7656,640.0566 267.8594,639.4473 Q268.9531,638.8223 270.1875,638.8223 Q270.9219,638.8223 271.5625,638.9941 Q272.2188,639.1504 272.7656,639.5098 Z " fill="#000000"/><text fill="#000000" font-family="sans-serif" font-size="14" lengthAdjust="spacing" textLength="191" x="284" y="649.4316">TakeFormativeExamController</text><line style="stroke:#181818;stroke-width:0.5;" x1="256" x2="477" y1="659.6348" y2="659.6348"/><line style="stroke:#181818;stroke-width:0.5;" x1="256" x2="477" y1="667.6348" y2="667.6348"/></g><!--link TakeFormativeExamUI to TakeFormativeExamController--><g id="link_TakeFormativeExamUI_TakeFormativeExamController"><path codeLine="75" d="M195.1,651.6348 C212.64,651.6348 231.37,651.6348 249.77,651.6348 " fill="none" id="TakeFormativeExamUI-to-TakeFormativeExamController" style="stroke:#181818;stroke-width:1.0;"/><polygon fill="#181818" points="254.94,651.6348,245.94,647.6348,249.94,651.6348,245.94,655.6348,254.94,651.6348" style="stroke:#181818;stroke-width:1.0;"/></g><!--link TakeFormativeExamController to TakeExamController--><g id="link_TakeFormativeExamController_TakeExamController"><path codeLine="77" d="M369.23,627.4848 C374.95,565.5348 398.46,399.2748 490,305.6348 C499.29,296.1348 509.59,287.5448 520.57,279.7748 " fill="none" id="TakeFormativeExamController-to-TakeExamController" style="stroke:#181818;stroke-width:1.0;"/><polygon fill="none" points="517.15,273.6548,537.73,268.6048,524.79,285.3848,517.15,273.6548" style="stroke:#181818;stroke-width:1.0;"/></g><!--link TakeFormativeExamController to TakenExamHandler--><g id="link_TakeFormativeExamController_TakenExamHandler"><path codeLine="78" d="M384.16,627.5548 C405.31,598.9548 444.56,552.0648 490,527.6348 C528.55,506.9048 574.4,494.5548 616.68,487.2048 " fill="none" id="TakeFormativeExamController-to-TakenExamHandler" style="stroke:#181818;stroke-width:1.0;"/><polygon fill="#181818" points="621.82,486.3348,612.2814,483.8822,616.8892,487.1637,613.6077,491.7715,621.82,486.3348" style="stroke:#181818;stroke-width:1.0;"/></g><!--link TakeFormativeExamController to TakenExamCorrector--><g id="link_TakeFormativeExamController_TakenExamCorrector"><path codeLine="79" d="M478.07,630.4248 C521.36,622.1148 571.38,612.5248 616.5,603.8648 " fill="none" id="TakeFormativeExamController-to-TakenExamCorrector" style="stroke:#181818;stroke-width:1.0;"/><polygon fill="#181818" points="621.41,602.9248,611.8175,600.6922,616.4996,603.8669,613.3249,608.5489,621.41,602.9248" style="stroke:#181818;stroke-width:1.0;"/></g><!--link TakeFormativeExamController to StudentCoursesProvider--><g id="link_TakeFormativeExamController_StudentCoursesProvider"><path codeLine="80" d="M387.11,675.7148 C409.73,702.3348 449.1,745.1848 490,773.6348 C539.33,807.9448 600.13,836.5548 650.32,857.1048 " fill="none" id="TakeFormativeExamController-to-StudentCoursesProvider" style="stroke:#181818;stroke-width:1.0;"/><polygon fill="#181818" points="655.14,859.0748,648.3144,851.9747,650.5095,857.1883,645.296,859.3835,655.14,859.0748" style="stroke:#181818;stroke-width:1.0;"/></g><!--link TakeFormativeExamController to CourseExamProvider--><g id="link_TakeFormativeExamController_CourseExamProvider"><path codeLine="81" d="M371.07,676.0348 C380.4,731.2148 410.53,866.7148 490,942.6348 C517.74,969.1448 553.51,988.3648 589.51,1002.2748 " fill="none" id="TakeFormativeExamController-to-CourseExamProvider" style="stroke:#181818;stroke-width:1.0;"/><polygon fill="#181818" points="594.36,1004.1148,587.363,997.1835,589.6848,1002.3419,584.5265,1004.6638,594.36,1004.1148" style="stroke:#181818;stroke-width:1.0;"/></g><!--link TakeFormativeExamController to TakeExamRepository--><g id="link_TakeFormativeExamController_TakeExamRepository"><path codeLine="82" d="M478.07,672.5548 C526.86,681.7848 584.18,692.6348 633.43,701.9548 " fill="none" id="TakeFormativeExamController-to-TakeExamRepository" style="stroke:#181818;stroke-width:1.0;"/><polygon fill="#181818" points="638.47,702.9048,630.3721,697.299,633.5574,701.9738,628.8826,705.1591,638.47,702.9048" style="stroke:#181818;stroke-width:1.0;"/></g><!--link TakenExamHandler to TakenExamVisitor--><g id="link_TakenExamHandler_TakenExamVisitor"><path codeLine="84" d="M749,442.8148 C749,432.9748 749,423.1348 749,413.2948 " fill="none" id="TakenExamHandler-to-TakenExamVisitor" style="stroke:#181818;stroke-width:1.0;"/><polygon fill="#181818" points="749,408.1448,745,417.1448,749,413.1448,753,417.1448,749,408.1448" style="stroke:#181818;stroke-width:1.0;"/></g><!--link TakenExamHandler to TakenExamBuilder--><g id="link_TakenExamHandler_TakenExamBuilder"><path codeLine="85" d="M876.14,462.2548 C918.57,457.4148 967.21,451.8748 1014.63,446.4748 " fill="none" id="TakenExamHandler-to-TakenExamBuilder" style="stroke:#181818;stroke-width:1.0;"/><polygon fill="#181818" points="1019.81,445.8748,1010.4121,442.9286,1014.8427,446.4457,1011.3256,450.8763,1019.81,445.8748" style="stroke:#181818;stroke-width:1.0;"/></g><!--link TakenExamVisitor to TakenExamBuilder--><g id="link_TakenExamVisitor_TakenExamBuilder"><path codeLine="87" d="M888.59,381.7148 C927.92,386.2848 971.73,391.3648 1014.54,396.3348 " fill="none" id="TakenExamVisitor-to-TakenExamBuilder" style="stroke:#181818;stroke-width:1.0;"/><polygon fill="#181818" points="1019.76,396.9448,1011.2898,391.9192,1014.7943,396.3597,1010.3538,399.8642,1019.76,396.9448" style="stroke:#181818;stroke-width:1.0;"/></g><!--link TakenExamBuilder to TakenExam--><g id="link_TakenExamBuilder_TakenExam"><path codeLine="89" d="M1233.5,360.2248 C1233.5,350.4848 1233.5,340.7348 1233.5,330.9948 " fill="none" id="TakenExamBuilder-to-TakenExam" style="stroke:#181818;stroke-width:1.0;"/><polygon fill="#181818" points="1233.5,325.8948,1229.5,334.8948,1233.5,330.8948,1237.5,334.8948,1233.5,325.8948" style="stroke:#181818;stroke-width:1.0;"/></g><!--link TakenExamCorrector to Question--><g id="link_TakenExamCorrector_Question"><path codeLine="91" d="M853.82,612.1948 C895.79,627.9248 943.73,648.7248 984,673.6348 C1068.84,726.1148 1152.81,808.0448 1198.13,855.3948 " fill="none" id="TakenExamCorrector-to-Question" style="stroke:#181818;stroke-width:1.0;"/><polygon fill="#181818" points="1201.59,859.0248,1198.2787,849.7492,1198.1414,855.4044,1192.4862,855.267,1201.59,859.0248" style="stroke:#181818;stroke-width:1.0;"/></g><!--link TakenExam to AnsweredQuestion--><g id="link_TakenExam_AnsweredQuestion"><path codeLine="93" d="M1233.5,277.3148 C1233.5,267.5548 1233.5,257.7948 1233.5,248.0348 " fill="none" id="TakenExam-to-AnsweredQuestion" style="stroke:#181818;stroke-width:1.0;"/><polygon fill="#181818" points="1233.5,242.9348,1229.5,251.9348,1233.5,247.9348,1237.5,251.9348,1233.5,242.9348" style="stroke:#181818;stroke-width:1.0;"/></g><!--SRC=[ZLLDZziW4BtxLt1qj8gqwgshAbAwsggHgdvjqpl1uonQ0YbCiess-Uy5Wp4sThA-M1xUcyUyWR606Wagelds2Kd5DJ3aIXR8KG1PFxwxlNrFvkGNVGP2oIUbTnJv4SZ3NxehYc9FsJFT0ZbmybeG-p11ZMdW4UkWwnLvFHVdZl3d0CO9xQYqdpkG61BGZK5D6P8V0H7YxhbXIcl0fJGle4lQl6RaZcmrhQ11zJIOEcW3cGAN2Bgc3CWZ7YeRlszmvhjMHrw1JWNtFXQ0AsanMmt614evkoChcurk17pmiKM-3x06PBlmHdcES-Y2UWSofQ_95HrrtKAY6cNHDa6EQhU8IkqeJmtkkYTTLjkomPAt7ggkEHaaiZyUkEWNr1Jrml79BPTkQwwG8I671_jBuzzl8mst6ivB5xYUPkE2PGyN0UVWUCzGkjyBpkZWs0vy-Knb9N9Vc0QA455bpGLCIK-b_iqDHvMbFhfmYHfWrb_0GVdbHK-cTU_TlMIvClFnffweTRMeE08SogUNg9N8J9iVGVFwj3Pkvxq5RXnlAQodrQaHYyTjevG0AbFuZU06f- -u9NsnWDu57s5-LR9HwWq-ywrU-ZlRvUakx5JlOTAcE0M3goso5ehYqCp1wTImLytvE2KsTjEmTVld6AmHDlG8r_iO9z7ONs0-N-H_Xww_8wIa-VD_Yv4pSPaIzDARztP2FDTNAUE_agkqVFw_QNFzDddJUhCbBI8CXH5GYcelUv4DaykeTigdg6IvcmnEhHsz2S0HXwEw-0y0]--></g></svg>