<?xml version="1.0" encoding="us-ascii" standalone="no"?><svg xmlns="http://www.w3.org/2000/svg" xmlns:xlink="http://www.w3.org/1999/xlink" contentStyleType="text/css" height="1818px" preserveAspectRatio="none" style="width:2709px;height:1818px;background:#FFFFFF;" version="1.1" viewBox="0 0 2709 1818" width="2709px" zoomAndPan="magnify"><defs/><g><rect fill="#FFFFFF" height="1603.2969" style="stroke:#181818;stroke-width:1.0;" width="10" x="317.5" y="98.2422"/><rect fill="#FFFFFF" height="62.582" style="stroke:#181818;stroke-width:1.0;" width="10" x="794.5" y="152.8242"/><rect fill="#FFFFFF" height="93.873" style="stroke:#181818;stroke-width:1.0;" width="10" x="794.5" y="246.6973"/><rect fill="#FFFFFF" height="138.1641" style="stroke:#181818;stroke-width:1.0;" width="10" x="794.5" y="434.4434"/><rect fill="#FFFFFF" height="713.6934" style="stroke:#181818;stroke-width:1.0;" width="10" x="794.5" y="956.5547"/><rect fill="#FFFFFF" height="31.291" style="stroke:#181818;stroke-width:1.0;" width="10" x="999.5" y="184.1152"/><rect fill="#FFFFFF" height="31.291" style="stroke:#181818;stroke-width:1.0;" width="10" x="1164" y="277.9883"/><rect fill="#FFFFFF" height="31.291" style="stroke:#181818;stroke-width:1.0;" width="10" x="1336" y="465.7344"/><rect fill="#FFFFFF" height="588.5293" style="stroke:#181818;stroke-width:1.0;" width="10" x="1492" y="987.8457"/><rect fill="#FFFFFF" height="125.1641" style="stroke:#181818;stroke-width:1.0;" width="10" x="1658" y="1019.1367"/><rect fill="#FFFFFF" height="31.291" style="stroke:#181818;stroke-width:1.0;" width="10" x="1957" y="1050.4277"/><rect fill="#FFFFFF" height="93.873" style="stroke:#181818;stroke-width:1.0;" width="10" x="1957" y="1175.5918"/><rect fill="#FFFFFF" height="244.3281" style="stroke:#181818;stroke-width:1.0;" width="10" x="2107" y="1300.7559"/><rect fill="#FFFFFF" height="31.291" style="stroke:#181818;stroke-width:1.0;" width="10" x="2297" y="1475.502"/><rect fill="#FFFFFF" height="85.873" style="stroke:#181818;stroke-width:1.0;" width="10" x="2390" y="1358.3379"/><rect fill="#FFFFFF" height="31.291" style="stroke:#181818;stroke-width:1.0;" width="10" x="2513" y="1607.666"/><rect fill="none" height="199.0371" style="stroke:#000000;stroke-width:1.5;" width="675" x="2028" y="1315.7559"/><line style="stroke:#181818;stroke-width:0.5;stroke-dasharray:5.0,5.0;" x1="32" x2="32" y1="88.2422" y2="1719.5391"/><line style="stroke:#181818;stroke-width:0.5;stroke-dasharray:5.0,5.0;" x1="322" x2="322" y1="88.2422" y2="1719.5391"/><line style="stroke:#181818;stroke-width:0.5;stroke-dasharray:5.0,5.0;" x1="799.5" x2="799.5" y1="88.2422" y2="1719.5391"/><line style="stroke:#181818;stroke-width:0.5;stroke-dasharray:5.0,5.0;" x1="1004.5" x2="1004.5" y1="88.2422" y2="1719.5391"/><line style="stroke:#181818;stroke-width:0.5;stroke-dasharray:5.0,5.0;" x1="1168.5" x2="1168.5" y1="88.2422" y2="1719.5391"/><line style="stroke:#181818;stroke-width:0.5;stroke-dasharray:5.0,5.0;" x1="1340.5" x2="1340.5" y1="88.2422" y2="1719.5391"/><line style="stroke:#181818;stroke-width:0.5;stroke-dasharray:5.0,5.0;" x1="1496.5" x2="1496.5" y1="88.2422" y2="1719.5391"/><line style="stroke:#181818;stroke-width:0.5;stroke-dasharray:5.0,5.0;" x1="1662.5" x2="1662.5" y1="88.2422" y2="1719.5391"/><line style="stroke:#181818;stroke-width:0.5;stroke-dasharray:5.0,5.0;" x1="1962" x2="1962" y1="88.2422" y2="1719.5391"/><line style="stroke:#181818;stroke-width:0.5;stroke-dasharray:5.0,5.0;" x1="2112" x2="2112" y1="88.2422" y2="1719.5391"/><line style="stroke:#181818;stroke-width:0.5;stroke-dasharray:5.0,5.0;" x1="2302" x2="2302" y1="88.2422" y2="1719.5391"/><line style="stroke:#181818;stroke-width:0.5;stroke-dasharray:5.0,5.0;" x1="2395" x2="2395" y1="88.2422" y2="1719.5391"/><line style="stroke:#181818;stroke-width:0.5;stroke-dasharray:5.0,5.0;" x1="2518" x2="2518" y1="88.2422" y2="1719.5391"/><text fill="#000000" font-family="sans-serif" font-size="14" lengthAdjust="spacing" textLength="49" x="5" y="84.7285">Student</text><ellipse cx="32.5" cy="18.1211" fill="#E2E2F0" rx="8" ry="8" style="stroke:#181818;stroke-width:0.5;"/><path d="M32.5,26.1211 L32.5,53.1211 M19.5,34.1211 L45.5,34.1211 M32.5,53.1211 L19.5,68.1211 M32.5,53.1211 L45.5,68.1211 " fill="none" style="stroke:#181818;stroke-width:0.5;"/><text fill="#000000" font-family="sans-serif" font-size="14" lengthAdjust="spacing" textLength="49" x="5" y="1733.6465">Student</text><ellipse cx="32.5" cy="1745.6602" fill="#E2E2F0" rx="8" ry="8" style="stroke:#181818;stroke-width:0.5;"/><path d="M32.5,1753.6602 L32.5,1780.6602 M19.5,1761.6602 L45.5,1761.6602 M32.5,1780.6602 L19.5,1795.6602 M32.5,1780.6602 L45.5,1795.6602 " fill="none" style="stroke:#181818;stroke-width:0.5;"/><rect fill="#E2E2F0" height="51.2422" rx="2.5" ry="2.5" style="stroke:#181818;stroke-width:0.5;" width="155" x="245" y="36"/><text fill="#000000" font-family="sans-serif" font-size="14" font-style="italic" lengthAdjust="spacing" textLength="30" x="307.5" y="58.1074">&#171;UI&#187;</text><text fill="#000000" font-family="sans-serif" font-size="14" lengthAdjust="spacing" textLength="141" x="252" y="76.7285">TakeFormativeExamUI</text><rect fill="#E2E2F0" height="51.2422" rx="2.5" ry="2.5" style="stroke:#181818;stroke-width:0.5;" width="155" x="245" y="1718.5391"/><text fill="#000000" font-family="sans-serif" font-size="14" font-style="italic" lengthAdjust="spacing" textLength="30" x="307.5" y="1740.6465">&#171;UI&#187;</text><text fill="#000000" font-family="sans-serif" font-size="14" lengthAdjust="spacing" textLength="141" x="252" y="1759.2676">TakeFormativeExamUI</text><rect fill="#E2E2F0" height="51.2422" rx="2.5" ry="2.5" style="stroke:#181818;stroke-width:0.5;" width="142" x="728.5" y="36"/><text fill="#000000" font-family="sans-serif" font-size="14" font-style="italic" lengthAdjust="spacing" textLength="85" x="757" y="58.1074">&#171;Application&#187;</text><text fill="#000000" font-family="sans-serif" font-size="14" lengthAdjust="spacing" textLength="128" x="735.5" y="76.7285">TakeExamController</text><rect fill="#E2E2F0" height="51.2422" rx="2.5" ry="2.5" style="stroke:#181818;stroke-width:0.5;" width="142" x="728.5" y="1718.5391"/><text fill="#000000" font-family="sans-serif" font-size="14" font-style="italic" lengthAdjust="spacing" textLength="85" x="757" y="1740.6465">&#171;Application&#187;</text><text fill="#000000" font-family="sans-serif" font-size="14" lengthAdjust="spacing" textLength="128" x="735.5" y="1759.2676">TakeExamController</text><rect fill="#E2E2F0" height="51.2422" rx="2.5" ry="2.5" style="stroke:#181818;stroke-width:0.5;" width="140" x="934.5" y="36"/><text fill="#000000" font-family="sans-serif" font-size="14" font-style="italic" lengthAdjust="spacing" textLength="85" x="962" y="58.1074">&#171;Application&#187;</text><text fill="#000000" font-family="sans-serif" font-size="14" lengthAdjust="spacing" textLength="126" x="941.5" y="76.7285">UserSessionService</text><rect fill="#E2E2F0" height="51.2422" rx="2.5" ry="2.5" style="stroke:#181818;stroke-width:0.5;" width="140" x="934.5" y="1718.5391"/><text fill="#000000" font-family="sans-serif" font-size="14" font-style="italic" lengthAdjust="spacing" textLength="85" x="962" y="1740.6465">&#171;Application&#187;</text><text fill="#000000" font-family="sans-serif" font-size="14" lengthAdjust="spacing" textLength="126" x="941.5" y="1759.2676">UserSessionService</text><rect fill="#E2E2F0" height="51.2422" rx="2.5" ry="2.5" style="stroke:#181818;stroke-width:0.5;" width="169" x="1084.5" y="36"/><text fill="#000000" font-family="sans-serif" font-size="14" font-style="italic" lengthAdjust="spacing" textLength="84" x="1127" y="58.1074">&#171;Repository&#187;</text><text fill="#000000" font-family="sans-serif" font-size="14" lengthAdjust="spacing" textLength="155" x="1091.5" y="76.7285">StudentCoursesProvider</text><rect fill="#E2E2F0" height="51.2422" rx="2.5" ry="2.5" style="stroke:#181818;stroke-width:0.5;" width="169" x="1084.5" y="1718.5391"/><text fill="#000000" font-family="sans-serif" font-size="14" font-style="italic" lengthAdjust="spacing" textLength="84" x="1127" y="1740.6465">&#171;Repository&#187;</text><text fill="#000000" font-family="sans-serif" font-size="14" lengthAdjust="spacing" textLength="155" x="1091.5" y="1759.2676">StudentCoursesProvider</text><rect fill="#E2E2F0" height="51.2422" rx="2.5" ry="2.5" style="stroke:#181818;stroke-width:0.5;" width="155" x="1263.5" y="36"/><text fill="#000000" font-family="sans-serif" font-size="14" font-style="italic" lengthAdjust="spacing" textLength="84" x="1299" y="58.1074">&#171;Repository&#187;</text><text fill="#000000" font-family="sans-serif" font-size="14" lengthAdjust="spacing" textLength="141" x="1270.5" y="76.7285">CourseExameProvider</text><rect fill="#E2E2F0" height="51.2422" rx="2.5" ry="2.5" style="stroke:#181818;stroke-width:0.5;" width="155" x="1263.5" y="1718.5391"/><text fill="#000000" font-family="sans-serif" font-size="14" font-style="italic" lengthAdjust="spacing" textLength="84" x="1299" y="1740.6465">&#171;Repository&#187;</text><text fill="#000000" font-family="sans-serif" font-size="14" lengthAdjust="spacing" textLength="141" x="1270.5" y="1759.2676">CourseExameProvider</text><rect fill="#E2E2F0" height="51.2422" rx="2.5" ry="2.5" style="stroke:#181818;stroke-width:0.5;" width="137" x="1428.5" y="36"/><text fill="#000000" font-family="sans-serif" font-size="14" font-style="italic" lengthAdjust="spacing" textLength="64" x="1465" y="58.1074">&#171;Domain&#187;</text><text fill="#000000" font-family="sans-serif" font-size="14" lengthAdjust="spacing" textLength="123" x="1435.5" y="76.7285">TakenExamHandler</text><rect fill="#E2E2F0" height="51.2422" rx="2.5" ry="2.5" style="stroke:#181818;stroke-width:0.5;" width="137" x="1428.5" y="1718.5391"/><text fill="#000000" font-family="sans-serif" font-size="14" font-style="italic" lengthAdjust="spacing" textLength="64" x="1465" y="1740.6465">&#171;Domain&#187;</text><text fill="#000000" font-family="sans-serif" font-size="14" lengthAdjust="spacing" textLength="123" x="1435.5" y="1759.2676">TakenExamHandler</text><rect fill="#E2E2F0" height="51.2422" rx="2.5" ry="2.5" style="stroke:#181818;stroke-width:0.5;" width="127" x="1599.5" y="36"/><text fill="#000000" font-family="sans-serif" font-size="14" font-style="italic" lengthAdjust="spacing" textLength="64" x="1631" y="58.1074">&#171;Domain&#187;</text><text fill="#000000" font-family="sans-serif" font-size="14" lengthAdjust="spacing" textLength="113" x="1606.5" y="76.7285">TakenExamVisitor</text><rect fill="#E2E2F0" height="51.2422" rx="2.5" ry="2.5" style="stroke:#181818;stroke-width:0.5;" width="127" x="1599.5" y="1718.5391"/><text fill="#000000" font-family="sans-serif" font-size="14" font-style="italic" lengthAdjust="spacing" textLength="64" x="1631" y="1740.6465">&#171;Domain&#187;</text><text fill="#000000" font-family="sans-serif" font-size="14" lengthAdjust="spacing" textLength="113" x="1606.5" y="1759.2676">TakenExamVisitor</text><rect fill="#E2E2F0" height="51.2422" rx="2.5" ry="2.5" style="stroke:#181818;stroke-width:0.5;" width="132" x="1896" y="36"/><text fill="#000000" font-family="sans-serif" font-size="14" font-style="italic" lengthAdjust="spacing" textLength="64" x="1930" y="58.1074">&#171;Domain&#187;</text><text fill="#000000" font-family="sans-serif" font-size="14" lengthAdjust="spacing" textLength="118" x="1903" y="76.7285">TakenExamBuilder</text><rect fill="#E2E2F0" height="51.2422" rx="2.5" ry="2.5" style="stroke:#181818;stroke-width:0.5;" width="132" x="1896" y="1718.5391"/><text fill="#000000" font-family="sans-serif" font-size="14" font-style="italic" lengthAdjust="spacing" textLength="64" x="1930" y="1740.6465">&#171;Domain&#187;</text><text fill="#000000" font-family="sans-serif" font-size="14" lengthAdjust="spacing" textLength="118" x="1903" y="1759.2676">TakenExamBuilder</text><rect fill="#E2E2F0" height="51.2422" rx="2.5" ry="2.5" style="stroke:#181818;stroke-width:0.5;" width="148" x="2038" y="36"/><text fill="#000000" font-family="sans-serif" font-size="14" font-style="italic" lengthAdjust="spacing" textLength="64" x="2080" y="58.1074">&#171;Domain&#187;</text><text fill="#000000" font-family="sans-serif" font-size="14" lengthAdjust="spacing" textLength="134" x="2045" y="76.7285">TakenExamCorrector</text><rect fill="#E2E2F0" height="51.2422" rx="2.5" ry="2.5" style="stroke:#181818;stroke-width:0.5;" width="148" x="2038" y="1718.5391"/><text fill="#000000" font-family="sans-serif" font-size="14" font-style="italic" lengthAdjust="spacing" textLength="64" x="2080" y="1740.6465">&#171;Domain&#187;</text><text fill="#000000" font-family="sans-serif" font-size="14" lengthAdjust="spacing" textLength="134" x="2045" y="1759.2676">TakenExamCorrector</text><rect fill="#E2E2F0" height="51.2422" rx="2.5" ry="2.5" style="stroke:#181818;stroke-width:0.5;" width="88" x="2258" y="36"/><text fill="#000000" font-family="sans-serif" font-size="14" font-style="italic" lengthAdjust="spacing" textLength="64" x="2270" y="58.1074">&#171;Domain&#187;</text><text fill="#000000" font-family="sans-serif" font-size="14" lengthAdjust="spacing" textLength="74" x="2265" y="76.7285">TakenExam</text><rect fill="#E2E2F0" height="51.2422" rx="2.5" ry="2.5" style="stroke:#181818;stroke-width:0.5;" width="88" x="2258" y="1718.5391"/><text fill="#000000" font-family="sans-serif" font-size="14" font-style="italic" lengthAdjust="spacing" textLength="64" x="2270" y="1740.6465">&#171;Domain&#187;</text><text fill="#000000" font-family="sans-serif" font-size="14" lengthAdjust="spacing" textLength="74" x="2265" y="1759.2676">TakenExam</text><rect fill="#E2E2F0" height="51.2422" rx="2.5" ry="2.5" style="stroke:#181818;stroke-width:0.5;" width="78" x="2356" y="36"/><text fill="#000000" font-family="sans-serif" font-size="14" font-style="italic" lengthAdjust="spacing" textLength="64" x="2363" y="58.1074">&#171;Domain&#187;</text><text fill="#000000" font-family="sans-serif" font-size="14" lengthAdjust="spacing" textLength="57" x="2366.5" y="76.7285">Question</text><rect fill="#E2E2F0" height="51.2422" rx="2.5" ry="2.5" style="stroke:#181818;stroke-width:0.5;" width="78" x="2356" y="1718.5391"/><text fill="#000000" font-family="sans-serif" font-size="14" font-style="italic" lengthAdjust="spacing" textLength="64" x="2363" y="1740.6465">&#171;Domain&#187;</text><text fill="#000000" font-family="sans-serif" font-size="14" lengthAdjust="spacing" textLength="57" x="2366.5" y="1759.2676">Question</text><text fill="#000000" font-family="sans-serif" font-size="14" font-style="italic" lengthAdjust="spacing" textLength="84" x="2473" y="66.1074">&#171;Repository&#187;</text><text fill="#000000" font-family="sans-serif" font-size="14" lengthAdjust="spacing" textLength="142" x="2444" y="84.7285">TakenExamRepository</text><path d="M2500,15 C2500,5 2518,5 2518,5 C2518,5 2536,5 2536,15 L2536,41 C2536,51 2518,51 2518,51 C2518,51 2500,51 2500,41 L2500,15 " fill="#E2E2F0" style="stroke:#181818;stroke-width:1.5;"/><path d="M2500,15 C2500,25 2518,25 2518,25 C2518,25 2536,25 2536,15 " fill="none" style="stroke:#181818;stroke-width:1.5;"/><text fill="#000000" font-family="sans-serif" font-size="14" font-style="italic" lengthAdjust="spacing" textLength="84" x="2473" y="1733.6465">&#171;Repository&#187;</text><text fill="#000000" font-family="sans-serif" font-size="14" lengthAdjust="spacing" textLength="142" x="2444" y="1752.2676">TakenExamRepository</text><path d="M2500,1765.7813 C2500,1755.7813 2518,1755.7813 2518,1755.7813 C2518,1755.7813 2536,1755.7813 2536,1765.7813 L2536,1791.7813 C2536,1801.7813 2518,1801.7813 2518,1801.7813 C2518,1801.7813 2500,1801.7813 2500,1791.7813 L2500,1765.7813 " fill="#E2E2F0" style="stroke:#181818;stroke-width:1.5;"/><path d="M2500,1765.7813 C2500,1775.7813 2518,1775.7813 2518,1775.7813 C2518,1775.7813 2536,1775.7813 2536,1765.7813 " fill="none" style="stroke:#181818;stroke-width:1.5;"/><rect fill="#FFFFFF" height="1603.2969" style="stroke:#181818;stroke-width:1.0;" width="10" x="317.5" y="98.2422"/><rect fill="#FFFFFF" height="62.582" style="stroke:#181818;stroke-width:1.0;" width="10" x="794.5" y="152.8242"/><rect fill="#FFFFFF" height="93.873" style="stroke:#181818;stroke-width:1.0;" width="10" x="794.5" y="246.6973"/><rect fill="#FFFFFF" height="138.1641" style="stroke:#181818;stroke-width:1.0;" width="10" x="794.5" y="434.4434"/><rect fill="#FFFFFF" height="713.6934" style="stroke:#181818;stroke-width:1.0;" width="10" x="794.5" y="956.5547"/><rect fill="#FFFFFF" height="31.291" style="stroke:#181818;stroke-width:1.0;" width="10" x="999.5" y="184.1152"/><rect fill="#FFFFFF" height="31.291" style="stroke:#181818;stroke-width:1.0;" width="10" x="1164" y="277.9883"/><rect fill="#FFFFFF" height="31.291" style="stroke:#181818;stroke-width:1.0;" width="10" x="1336" y="465.7344"/><rect fill="#FFFFFF" height="588.5293" style="stroke:#181818;stroke-width:1.0;" width="10" x="1492" y="987.8457"/><rect fill="#FFFFFF" height="125.1641" style="stroke:#181818;stroke-width:1.0;" width="10" x="1658" y="1019.1367"/><rect fill="#FFFFFF" height="31.291" style="stroke:#181818;stroke-width:1.0;" width="10" x="1957" y="1050.4277"/><rect fill="#FFFFFF" height="93.873" style="stroke:#181818;stroke-width:1.0;" width="10" x="1957" y="1175.5918"/><rect fill="#FFFFFF" height="244.3281" style="stroke:#181818;stroke-width:1.0;" width="10" x="2107" y="1300.7559"/><rect fill="#FFFFFF" height="31.291" style="stroke:#181818;stroke-width:1.0;" width="10" x="2297" y="1475.502"/><rect fill="#FFFFFF" height="85.873" style="stroke:#181818;stroke-width:1.0;" width="10" x="2390" y="1358.3379"/><rect fill="#FFFFFF" height="31.291" style="stroke:#181818;stroke-width:1.0;" width="10" x="2513" y="1607.666"/><polygon fill="#181818" points="305.5,117.5332,315.5,121.5332,305.5,125.5332,309.5,121.5332" style="stroke:#181818;stroke-width:1.0;"/><line style="stroke:#181818;stroke-width:1.0;stroke-dasharray:2.0,2.0;" x1="0" x2="311.5" y1="121.5332" y2="121.5332"/><text fill="#000000" font-family="sans-serif" font-size="13" font-weight="bold" lengthAdjust="spacing" textLength="7" x="7" y="116.2705">1</text><text fill="#000000" font-family="sans-serif" font-size="13" lengthAdjust="spacing" textLength="42" x="18" y="116.2705">on load</text><polygon fill="#181818" points="782.5,148.8242,792.5,152.8242,782.5,156.8242,786.5,152.8242" style="stroke:#181818;stroke-width:1.0;"/><line style="stroke:#181818;stroke-width:1.0;" x1="327.5" x2="788.5" y1="152.8242" y2="152.8242"/><text fill="#000000" font-family="sans-serif" font-size="13" font-weight="bold" lengthAdjust="spacing" textLength="7" x="334.5" y="147.5615">2</text><text fill="#000000" font-family="sans-serif" font-size="13" lengthAdjust="spacing" textLength="437" x="345.5" y="147.5615">create(userSessionService, courseExamsProvider, studentCoursesProvider)</text><polygon fill="#181818" points="987.5,180.1152,997.5,184.1152,987.5,188.1152,991.5,184.1152" style="stroke:#181818;stroke-width:1.0;"/><line style="stroke:#181818;stroke-width:1.0;" x1="804.5" x2="993.5" y1="184.1152" y2="184.1152"/><text fill="#000000" font-family="sans-serif" font-size="13" font-weight="bold" lengthAdjust="spacing" textLength="7" x="811.5" y="178.8525">3</text><text fill="#000000" font-family="sans-serif" font-size="13" lengthAdjust="spacing" textLength="95" x="822.5" y="178.8525">getLoggedUser()</text><polygon fill="#181818" points="810.5,211.4063,800.5,215.4063,810.5,219.4063,806.5,215.4063" style="stroke:#181818;stroke-width:1.0;"/><line style="stroke:#181818;stroke-width:1.0;" x1="804.5" x2="1003.5" y1="215.4063" y2="215.4063"/><text fill="#000000" font-family="sans-serif" font-size="13" font-weight="bold" lengthAdjust="spacing" textLength="7" x="816.5" y="210.1436">4</text><text fill="#000000" font-family="sans-serif" font-size="13" lengthAdjust="spacing" textLength="111" x="827.5" y="210.1436">returns logged user</text><polygon fill="#181818" points="782.5,242.6973,792.5,246.6973,782.5,250.6973,786.5,246.6973" style="stroke:#181818;stroke-width:1.0;"/><line style="stroke:#181818;stroke-width:1.0;" x1="327.5" x2="788.5" y1="246.6973" y2="246.6973"/><text fill="#000000" font-family="sans-serif" font-size="13" font-weight="bold" lengthAdjust="spacing" textLength="7" x="334.5" y="241.4346">5</text><text fill="#000000" font-family="sans-serif" font-size="13" lengthAdjust="spacing" textLength="180" x="345.5" y="241.4346">listStudentInProgressCourses()</text><polygon fill="#181818" points="1152,273.9883,1162,277.9883,1152,281.9883,1156,277.9883" style="stroke:#181818;stroke-width:1.0;"/><line style="stroke:#181818;stroke-width:1.0;" x1="804.5" x2="1158" y1="277.9883" y2="277.9883"/><text fill="#000000" font-family="sans-serif" font-size="13" font-weight="bold" lengthAdjust="spacing" textLength="7" x="811.5" y="272.7256">6</text><text fill="#000000" font-family="sans-serif" font-size="13" lengthAdjust="spacing" textLength="228" x="822.5" y="272.7256">provideStudentInProgressCourses(user)</text><polygon fill="#181818" points="815.5,305.2793,805.5,309.2793,815.5,313.2793,811.5,309.2793" style="stroke:#181818;stroke-width:1.0;"/><line style="stroke:#181818;stroke-width:1.0;" x1="809.5" x2="1168" y1="309.2793" y2="309.2793"/><text fill="#000000" font-family="sans-serif" font-size="13" font-weight="bold" lengthAdjust="spacing" textLength="7" x="821.5" y="304.0166">7</text><text fill="#000000" font-family="sans-serif" font-size="13" lengthAdjust="spacing" textLength="90" x="832.5" y="304.0166">returns courses</text><polygon fill="#181818" points="338.5,336.5703,328.5,340.5703,338.5,344.5703,334.5,340.5703" style="stroke:#181818;stroke-width:1.0;"/><line style="stroke:#181818;stroke-width:1.0;" x1="332.5" x2="798.5" y1="340.5703" y2="340.5703"/><text fill="#000000" font-family="sans-serif" font-size="13" font-weight="bold" lengthAdjust="spacing" textLength="7" x="344.5" y="335.3076">8</text><text fill="#000000" font-family="sans-serif" font-size="13" lengthAdjust="spacing" textLength="90" x="355.5" y="335.3076">returns courses</text><polygon fill="#181818" points="43.5,367.8613,33.5,371.8613,43.5,375.8613,39.5,371.8613" style="stroke:#181818;stroke-width:1.0;"/><line style="stroke:#181818;stroke-width:1.0;stroke-dasharray:2.0,2.0;" x1="37.5" x2="316.5" y1="371.8613" y2="371.8613"/><text fill="#000000" font-family="sans-serif" font-size="13" font-weight="bold" lengthAdjust="spacing" textLength="7" x="49.5" y="366.5986">9</text><text fill="#000000" font-family="sans-serif" font-size="13" lengthAdjust="spacing" textLength="87" x="60.5" y="366.5986">shows courses</text><polygon fill="#181818" points="305.5,399.1523,315.5,403.1523,305.5,407.1523,309.5,403.1523" style="stroke:#181818;stroke-width:1.0;"/><line style="stroke:#181818;stroke-width:1.0;stroke-dasharray:2.0,2.0;" x1="32.5" x2="311.5" y1="403.1523" y2="403.1523"/><text fill="#000000" font-family="sans-serif" font-size="13" font-weight="bold" lengthAdjust="spacing" textLength="14" x="39.5" y="397.8896">10</text><text fill="#000000" font-family="sans-serif" font-size="13" lengthAdjust="spacing" textLength="96" x="57.5" y="397.8896">selects a course</text><polygon fill="#181818" points="782.5,430.4434,792.5,434.4434,782.5,438.4434,786.5,434.4434" style="stroke:#181818;stroke-width:1.0;"/><line style="stroke:#181818;stroke-width:1.0;" x1="327.5" x2="788.5" y1="434.4434" y2="434.4434"/><text fill="#000000" font-family="sans-serif" font-size="13" font-weight="bold" lengthAdjust="spacing" textLength="14" x="334.5" y="429.1807">11</text><text fill="#000000" font-family="sans-serif" font-size="13" lengthAdjust="spacing" textLength="325" x="352.5" y="429.1807">listStudentNonTakenFormativeExamsOfAcourse(course)</text><polygon fill="#181818" points="1324,461.7344,1334,465.7344,1324,469.7344,1328,465.7344" style="stroke:#181818;stroke-width:1.0;"/><line style="stroke:#181818;stroke-width:1.0;" x1="804.5" x2="1330" y1="465.7344" y2="465.7344"/><text fill="#000000" font-family="sans-serif" font-size="13" font-weight="bold" lengthAdjust="spacing" textLength="14" x="811.5" y="460.4717">12</text><text fill="#000000" font-family="sans-serif" font-size="13" lengthAdjust="spacing" textLength="225" x="829.5" y="460.4717">provideCourseFormativeExams(course)</text><polygon fill="#181818" points="815.5,493.0254,805.5,497.0254,815.5,501.0254,811.5,497.0254" style="stroke:#181818;stroke-width:1.0;"/><line style="stroke:#181818;stroke-width:1.0;" x1="809.5" x2="1340" y1="497.0254" y2="497.0254"/><text fill="#000000" font-family="sans-serif" font-size="13" font-weight="bold" lengthAdjust="spacing" textLength="14" x="821.5" y="491.7627">13</text><text fill="#000000" font-family="sans-serif" font-size="13" lengthAdjust="spacing" textLength="138" x="839.5" y="491.7627">returns formative exams</text><line style="stroke:#181818;stroke-width:1.0;" x1="804.5" x2="846.5" y1="528.3164" y2="528.3164"/><line style="stroke:#181818;stroke-width:1.0;" x1="846.5" x2="846.5" y1="528.3164" y2="541.3164"/><line style="stroke:#181818;stroke-width:1.0;" x1="805.5" x2="846.5" y1="541.3164" y2="541.3164"/><polygon fill="#181818" points="815.5,537.3164,805.5,541.3164,815.5,545.3164,811.5,541.3164" style="stroke:#181818;stroke-width:1.0;"/><text fill="#000000" font-family="sans-serif" font-size="13" font-weight="bold" lengthAdjust="spacing" textLength="14" x="811.5" y="523.0537">14</text><text fill="#000000" font-family="sans-serif" font-size="13" lengthAdjust="spacing" textLength="163" x="829.5" y="523.0537">isExamAlreadyTaken(exam)</text><polygon fill="#181818" points="338.5,568.6074,328.5,572.6074,338.5,576.6074,334.5,572.6074" style="stroke:#181818;stroke-width:1.0;"/><line style="stroke:#181818;stroke-width:1.0;" x1="332.5" x2="798.5" y1="572.6074" y2="572.6074"/><text fill="#000000" font-family="sans-serif" font-size="13" font-weight="bold" lengthAdjust="spacing" textLength="14" x="344.5" y="567.3447">15</text><text fill="#000000" font-family="sans-serif" font-size="13" lengthAdjust="spacing" textLength="138" x="362.5" y="567.3447">returns formative exams</text><polygon fill="#181818" points="43.5,599.8984,33.5,603.8984,43.5,607.8984,39.5,603.8984" style="stroke:#181818;stroke-width:1.0;"/><line style="stroke:#181818;stroke-width:1.0;stroke-dasharray:2.0,2.0;" x1="37.5" x2="316.5" y1="603.8984" y2="603.8984"/><text fill="#000000" font-family="sans-serif" font-size="13" font-weight="bold" lengthAdjust="spacing" textLength="14" x="49.5" y="598.6357">16</text><text fill="#000000" font-family="sans-serif" font-size="13" lengthAdjust="spacing" textLength="135" x="67.5" y="598.6357">shows formative exams</text><polygon fill="#181818" points="305.5,631.1895,315.5,635.1895,305.5,639.1895,309.5,635.1895" style="stroke:#181818;stroke-width:1.0;"/><line style="stroke:#181818;stroke-width:1.0;stroke-dasharray:2.0,2.0;" x1="32.5" x2="311.5" y1="635.1895" y2="635.1895"/><text fill="#000000" font-family="sans-serif" font-size="13" font-weight="bold" lengthAdjust="spacing" textLength="14" x="39.5" y="629.9268">17</text><text fill="#000000" font-family="sans-serif" font-size="13" lengthAdjust="spacing" textLength="144" x="57.5" y="629.9268">selects a formative exam</text><path d="M37,648.1895 L37,865.1895 L406,865.1895 L406,658.1895 L396,648.1895 L37,648.1895 " fill="#FEFFDD" style="stroke:#181818;stroke-width:0.5;"/><path d="M396,648.1895 L396,658.1895 L406,658.1895 L396,648.1895 " fill="#FEFFDD" style="stroke:#181818;stroke-width:0.5;"/><text fill="#000000" font-family="sans-serif" font-size="13" lengthAdjust="spacing" textLength="306" x="43" y="667.2178">chooses an exam to take and a json file is generated</text><text fill="#000000" font-family="sans-serif" font-size="13" lengthAdjust="spacing" textLength="157" x="43" y="684.5088">starts the javafx application</text><text fill="#000000" font-family="sans-serif" font-size="13" lengthAdjust="spacing" textLength="348" x="43" y="701.7998">javafx app reads the json file and creates the exam structure</text><text fill="#000000" font-family="sans-serif" font-size="13" lengthAdjust="spacing" textLength="257" x="43" y="719.0908">after taking the exam, a txt will be generated</text><text fill="#000000" font-family="sans-serif" font-size="13" lengthAdjust="spacing" textLength="221" x="43" y="736.3818">this file will be uploaded to the system</text><text fill="#000000" font-family="sans-serif" font-size="13" lengthAdjust="spacing" textLength="4" x="43" y="753.6729">&#160;</text><text fill="#000000" font-family="sans-serif" font-size="13" lengthAdjust="spacing" textLength="11" x="43" y="770.9639">or</text><text fill="#000000" font-family="sans-serif" font-size="13" lengthAdjust="spacing" textLength="4" x="43" y="788.2549">&#160;</text><text fill="#000000" font-family="sans-serif" font-size="13" lengthAdjust="spacing" textLength="250" x="43" y="805.5459">if in linux, the student will select a directory</text><text fill="#000000" font-family="sans-serif" font-size="13" lengthAdjust="spacing" textLength="232" x="43" y="822.8369">a txt file with the exam will be generated</text><text fill="#000000" font-family="sans-serif" font-size="13" lengthAdjust="spacing" textLength="229" x="43" y="840.1279">the student will take the exam in the txt</text><text fill="#000000" font-family="sans-serif" font-size="13" lengthAdjust="spacing" textLength="221" x="43" y="857.4189">the system gets the file and uploads it</text><polygon fill="#181818" points="43.5,889.9727,33.5,893.9727,43.5,897.9727,39.5,893.9727" style="stroke:#181818;stroke-width:1.0;"/><line style="stroke:#181818;stroke-width:1.0;" x1="37.5" x2="316.5" y1="893.9727" y2="893.9727"/><text fill="#000000" font-family="sans-serif" font-size="13" font-weight="bold" lengthAdjust="spacing" textLength="14" x="49.5" y="888.71">18</text><text fill="#000000" font-family="sans-serif" font-size="13" lengthAdjust="spacing" textLength="92" x="67.5" y="888.71">requests the file</text><polygon fill="#181818" points="305.5,921.2637,315.5,925.2637,305.5,929.2637,309.5,925.2637" style="stroke:#181818;stroke-width:1.0;"/><line style="stroke:#181818;stroke-width:1.0;" x1="32.5" x2="311.5" y1="925.2637" y2="925.2637"/><text fill="#000000" font-family="sans-serif" font-size="13" font-weight="bold" lengthAdjust="spacing" textLength="14" x="39.5" y="920.001">19</text><text fill="#000000" font-family="sans-serif" font-size="13" lengthAdjust="spacing" textLength="87" x="57.5" y="920.001">uploads the file</text><polygon fill="#181818" points="782.5,952.5547,792.5,956.5547,782.5,960.5547,786.5,956.5547" style="stroke:#181818;stroke-width:1.0;"/><line style="stroke:#181818;stroke-width:1.0;" x1="327.5" x2="788.5" y1="956.5547" y2="956.5547"/><text fill="#000000" font-family="sans-serif" font-size="13" font-weight="bold" lengthAdjust="spacing" textLength="14" x="334.5" y="951.292">20</text><text fill="#000000" font-family="sans-serif" font-size="13" lengthAdjust="spacing" textLength="163" x="352.5" y="951.292">correctExam(filepath, exam)</text><polygon fill="#181818" points="1480,983.8457,1490,987.8457,1480,991.8457,1484,987.8457" style="stroke:#181818;stroke-width:1.0;"/><line style="stroke:#181818;stroke-width:1.0;" x1="804.5" x2="1486" y1="987.8457" y2="987.8457"/><text fill="#000000" font-family="sans-serif" font-size="13" font-weight="bold" lengthAdjust="spacing" textLength="14" x="811.5" y="982.583">21</text><text fill="#000000" font-family="sans-serif" font-size="13" lengthAdjust="spacing" textLength="220" x="829.5" y="982.583">createTakenExam(file, exam, student)</text><polygon fill="#181818" points="1646,1015.1367,1656,1019.1367,1646,1023.1367,1650,1019.1367" style="stroke:#181818;stroke-width:1.0;"/><line style="stroke:#181818;stroke-width:1.0;" x1="1502" x2="1652" y1="1019.1367" y2="1019.1367"/><text fill="#000000" font-family="sans-serif" font-size="13" font-weight="bold" lengthAdjust="spacing" textLength="14" x="1509" y="1013.874">22</text><text fill="#000000" font-family="sans-serif" font-size="13" lengthAdjust="spacing" textLength="52" x="1527" y="1013.874">visit(tree)</text><polygon fill="#181818" points="1945,1046.4277,1955,1050.4277,1945,1054.4277,1949,1050.4277" style="stroke:#181818;stroke-width:1.0;"/><line style="stroke:#181818;stroke-width:1.0;stroke-dasharray:2.0,2.0;" x1="1668" x2="1951" y1="1050.4277" y2="1050.4277"/><text fill="#000000" font-family="sans-serif" font-size="13" font-weight="bold" lengthAdjust="spacing" textLength="14" x="1675" y="1045.165">23</text><text fill="#000000" font-family="sans-serif" font-size="13" lengthAdjust="spacing" textLength="36" x="1693" y="1045.165">create</text><polygon fill="#181818" points="1950,1077.7188,1960,1081.7188,1950,1085.7188,1954,1081.7188" style="stroke:#181818;stroke-width:1.0;"/><line style="stroke:#181818;stroke-width:1.0;" x1="1668" x2="1956" y1="1081.7188" y2="1081.7188"/><text fill="#000000" font-family="sans-serif" font-size="13" font-weight="bold" lengthAdjust="spacing" textLength="14" x="1675" y="1076.4561">24</text><text fill="#000000" font-family="sans-serif" font-size="13" lengthAdjust="spacing" textLength="247" x="1693" y="1076.4561">withAnsweredQuestion(answeredQuestion)</text><polygon fill="#181818" points="1646,1109.0098,1656,1113.0098,1646,1117.0098,1650,1113.0098" style="stroke:#181818;stroke-width:1.0;"/><line style="stroke:#181818;stroke-width:1.0;" x1="1502" x2="1652" y1="1113.0098" y2="1113.0098"/><text fill="#000000" font-family="sans-serif" font-size="13" font-weight="bold" lengthAdjust="spacing" textLength="14" x="1509" y="1107.7471">25</text><text fill="#000000" font-family="sans-serif" font-size="13" lengthAdjust="spacing" textLength="114" x="1527" y="1107.7471">takenExamBuilder()</text><polygon fill="#181818" points="1513,1140.3008,1503,1144.3008,1513,1148.3008,1509,1144.3008" style="stroke:#181818;stroke-width:1.0;"/><line style="stroke:#181818;stroke-width:1.0;" x1="1507" x2="1662" y1="1144.3008" y2="1144.3008"/><text fill="#000000" font-family="sans-serif" font-size="13" font-weight="bold" lengthAdjust="spacing" textLength="14" x="1519" y="1139.0381">26</text><text fill="#000000" font-family="sans-serif" font-size="13" lengthAdjust="spacing" textLength="82" x="1537" y="1139.0381">returns builder</text><polygon fill="#181818" points="1945,1171.5918,1955,1175.5918,1945,1179.5918,1949,1175.5918" style="stroke:#181818;stroke-width:1.0;"/><line style="stroke:#181818;stroke-width:1.0;" x1="1502" x2="1951" y1="1175.5918" y2="1175.5918"/><text fill="#000000" font-family="sans-serif" font-size="13" font-weight="bold" lengthAdjust="spacing" textLength="14" x="1509" y="1170.3291">27</text><text fill="#000000" font-family="sans-serif" font-size="13" lengthAdjust="spacing" textLength="97" x="1527" y="1170.3291">withExam(exam)</text><polygon fill="#181818" points="1945,1202.8828,1955,1206.8828,1945,1210.8828,1949,1206.8828" style="stroke:#181818;stroke-width:1.0;"/><line style="stroke:#181818;stroke-width:1.0;" x1="1502" x2="1951" y1="1206.8828" y2="1206.8828"/><text fill="#000000" font-family="sans-serif" font-size="13" font-weight="bold" lengthAdjust="spacing" textLength="14" x="1509" y="1201.6201">28</text><text fill="#000000" font-family="sans-serif" font-size="13" lengthAdjust="spacing" textLength="119" x="1527" y="1201.6201">withStudent(student)</text><polygon fill="#181818" points="1945,1234.1738,1955,1238.1738,1945,1242.1738,1949,1238.1738" style="stroke:#181818;stroke-width:1.0;"/><line style="stroke:#181818;stroke-width:1.0;" x1="1502" x2="1951" y1="1238.1738" y2="1238.1738"/><text fill="#000000" font-family="sans-serif" font-size="13" font-weight="bold" lengthAdjust="spacing" textLength="14" x="1509" y="1232.9111">29</text><text fill="#000000" font-family="sans-serif" font-size="13" lengthAdjust="spacing" textLength="35" x="1527" y="1232.9111">build()</text><polygon fill="#181818" points="2290,1265.4648,2300,1269.4648,2290,1273.4648,2294,1269.4648" style="stroke:#181818;stroke-width:1.0;"/><line style="stroke:#181818;stroke-width:1.0;stroke-dasharray:2.0,2.0;" x1="1962" x2="2296" y1="1269.4648" y2="1269.4648"/><text fill="#000000" font-family="sans-serif" font-size="13" font-weight="bold" lengthAdjust="spacing" textLength="14" x="1969" y="1264.2021">30</text><text fill="#000000" font-family="sans-serif" font-size="13" lengthAdjust="spacing" textLength="36" x="1987" y="1264.2021">create</text><polygon fill="#181818" points="2095,1296.7559,2105,1300.7559,2095,1304.7559,2099,1300.7559" style="stroke:#181818;stroke-width:1.0;"/><line style="stroke:#181818;stroke-width:1.0;" x1="1502" x2="2101" y1="1300.7559" y2="1300.7559"/><text fill="#000000" font-family="sans-serif" font-size="13" font-weight="bold" lengthAdjust="spacing" textLength="14" x="1509" y="1295.4932">31</text><text fill="#000000" font-family="sans-serif" font-size="13" lengthAdjust="spacing" textLength="148" x="1527" y="1295.4932">correctExam(takenExam)</text><path d="M2028,1315.7559 L2101,1315.7559 L2101,1325.0469 L2091,1335.0469 L2028,1335.0469 L2028,1315.7559 " fill="#EEEEEE" style="stroke:#000000;stroke-width:1.5;"/><rect fill="none" height="199.0371" style="stroke:#000000;stroke-width:1.5;" width="675" x="2028" y="1315.7559"/><text fill="#000000" font-family="sans-serif" font-size="13" font-weight="bold" lengthAdjust="spacing" textLength="28" x="2043" y="1330.7842">loop</text><text fill="#000000" font-family="sans-serif" font-size="11" font-weight="bold" lengthAdjust="spacing" textLength="105" x="2116" y="1329.626">[for each question]</text><polygon fill="#181818" points="2378,1354.3379,2388,1358.3379,2378,1362.3379,2382,1358.3379" style="stroke:#181818;stroke-width:1.0;"/><line style="stroke:#181818;stroke-width:1.0;" x1="2117" x2="2384" y1="1358.3379" y2="1358.3379"/><text fill="#000000" font-family="sans-serif" font-size="13" font-weight="bold" lengthAdjust="spacing" textLength="14" x="2124" y="1353.0752">32</text><text fill="#000000" font-family="sans-serif" font-size="13" lengthAdjust="spacing" textLength="132" x="2142" y="1353.0752">correctAnswer(answer)</text><path d="M2405,1371.3379 L2405,1415.3379 L2693,1415.3379 L2693,1381.3379 L2683,1371.3379 L2405,1371.3379 " fill="#FEFFDD" style="stroke:#181818;stroke-width:0.5;"/><path d="M2683,1371.3379 L2683,1381.3379 L2693,1381.3379 L2683,1371.3379 " fill="#FEFFDD" style="stroke:#181818;stroke-width:0.5;"/><text fill="#000000" font-family="sans-serif" font-size="13" lengthAdjust="spacing" textLength="253" x="2411" y="1390.3662">As the question knows how to correct itself,</text><text fill="#000000" font-family="sans-serif" font-size="13" lengthAdjust="spacing" textLength="267" x="2411" y="1407.6572">it will return the points obtained by the student</text><polygon fill="#181818" points="2128,1440.2109,2118,1444.2109,2128,1448.2109,2124,1444.2109" style="stroke:#181818;stroke-width:1.0;"/><line style="stroke:#181818;stroke-width:1.0;" x1="2122" x2="2394" y1="1444.2109" y2="1444.2109"/><text fill="#000000" font-family="sans-serif" font-size="13" font-weight="bold" lengthAdjust="spacing" textLength="14" x="2134" y="1438.9482">33</text><text fill="#000000" font-family="sans-serif" font-size="13" lengthAdjust="spacing" textLength="150" x="2152" y="1438.9482">returns obtained quotation</text><polygon fill="#181818" points="2285,1471.502,2295,1475.502,2285,1479.502,2289,1475.502" style="stroke:#181818;stroke-width:1.0;"/><line style="stroke:#181818;stroke-width:1.0;" x1="2117" x2="2291" y1="1475.502" y2="1475.502"/><text fill="#000000" font-family="sans-serif" font-size="13" font-weight="bold" lengthAdjust="spacing" textLength="14" x="2124" y="1470.2393">34</text><text fill="#000000" font-family="sans-serif" font-size="13" lengthAdjust="spacing" textLength="138" x="2142" y="1470.2393">addQuotation(quotation)</text><polygon fill="#181818" points="2290,1502.793,2300,1506.793,2290,1510.793,2294,1506.793" style="stroke:#181818;stroke-width:1.0;"/><line style="stroke:#181818;stroke-width:1.0;" x1="2117" x2="2296" y1="1506.793" y2="1506.793"/><text fill="#000000" font-family="sans-serif" font-size="13" font-weight="bold" lengthAdjust="spacing" textLength="14" x="2124" y="1501.5303">35</text><text fill="#000000" font-family="sans-serif" font-size="13" lengthAdjust="spacing" textLength="138" x="2142" y="1501.5303">addFeedback(feedback)</text><polygon fill="#181818" points="1513,1541.084,1503,1545.084,1513,1549.084,1509,1545.084" style="stroke:#181818;stroke-width:1.0;"/><line style="stroke:#181818;stroke-width:1.0;" x1="1507" x2="2111" y1="1545.084" y2="1545.084"/><text fill="#000000" font-family="sans-serif" font-size="13" font-weight="bold" lengthAdjust="spacing" textLength="14" x="1519" y="1539.8213">36</text><text fill="#000000" font-family="sans-serif" font-size="13" lengthAdjust="spacing" textLength="110" x="1537" y="1539.8213">returns takenExam</text><polygon fill="#181818" points="815.5,1572.375,805.5,1576.375,815.5,1580.375,811.5,1576.375" style="stroke:#181818;stroke-width:1.0;"/><line style="stroke:#181818;stroke-width:1.0;" x1="809.5" x2="1496" y1="1576.375" y2="1576.375"/><text fill="#000000" font-family="sans-serif" font-size="13" font-weight="bold" lengthAdjust="spacing" textLength="14" x="821.5" y="1571.1123">37</text><text fill="#000000" font-family="sans-serif" font-size="13" lengthAdjust="spacing" textLength="110" x="839.5" y="1571.1123">returns takenExam</text><polygon fill="#181818" points="2501,1603.666,2511,1607.666,2501,1611.666,2505,1607.666" style="stroke:#181818;stroke-width:1.0;"/><line style="stroke:#181818;stroke-width:1.0;" x1="804.5" x2="2507" y1="1607.666" y2="1607.666"/><text fill="#000000" font-family="sans-serif" font-size="13" font-weight="bold" lengthAdjust="spacing" textLength="14" x="811.5" y="1602.4033">38</text><text fill="#000000" font-family="sans-serif" font-size="13" lengthAdjust="spacing" textLength="100" x="829.5" y="1602.4033">save(takenExam)</text><polygon fill="#181818" points="815.5,1634.957,805.5,1638.957,815.5,1642.957,811.5,1638.957" style="stroke:#181818;stroke-width:1.0;"/><line style="stroke:#181818;stroke-width:1.0;" x1="809.5" x2="2517" y1="1638.957" y2="1638.957"/><text fill="#000000" font-family="sans-serif" font-size="13" font-weight="bold" lengthAdjust="spacing" textLength="14" x="821.5" y="1633.6943">39</text><text fill="#000000" font-family="sans-serif" font-size="13" lengthAdjust="spacing" textLength="110" x="839.5" y="1633.6943">returns takenExam</text><polygon fill="#181818" points="338.5,1666.248,328.5,1670.248,338.5,1674.248,334.5,1670.248" style="stroke:#181818;stroke-width:1.0;"/><line style="stroke:#181818;stroke-width:1.0;" x1="332.5" x2="798.5" y1="1670.248" y2="1670.248"/><text fill="#000000" font-family="sans-serif" font-size="13" font-weight="bold" lengthAdjust="spacing" textLength="14" x="344.5" y="1664.9854">40</text><text fill="#000000" font-family="sans-serif" font-size="13" lengthAdjust="spacing" textLength="110" x="362.5" y="1664.9854">returns takenExam</text><polygon fill="#181818" points="43.5,1697.5391,33.5,1701.5391,43.5,1705.5391,39.5,1701.5391" style="stroke:#181818;stroke-width:1.0;"/><line style="stroke:#181818;stroke-width:1.0;" x1="37.5" x2="321.5" y1="1701.5391" y2="1701.5391"/><text fill="#000000" font-family="sans-serif" font-size="13" font-weight="bold" lengthAdjust="spacing" textLength="14" x="49.5" y="1696.2764">41</text><text fill="#000000" font-family="sans-serif" font-size="13" lengthAdjust="spacing" textLength="243" x="67.5" y="1696.2764">displays takenExam (grade and feedback)</text><!--SRC=[bLRRZk8u47ttLrZp52Jc1z2e9RPtHuCqcbkMVJU90K-duxJjqCtVRvNl3W5wU26swvowbyr68_lnUSSL8QmnKj7QZ2tl3MMQrcHWoeX630msFlpBdlXdgPwP4IV-pnjxtcu-eDXsGpzzscuU7Yx5KUfHzaR9hkFAIgSbeDR3q8a626K_XMyrLpNN6evghawYuKvPVHlcpN-Kez9S_r3o9Dge6VV25j3yueFK0fm-JrcSA5hF2mhSUHS1Ej-Zz1VMjy5r_mt0l-Kp4_rLq7_2ibgG_xuF-ciKNR3JVzy7FKgbU1DqnTLze9MFgwloFqUkCKrMF2nowPOPjcEQPzGfgYxc2jRJO6EnYXCp7AgFVFpuW4Muea3TITOIMC1MLcahsYWEqjLuKLLBsiHantfPKZrRHukaDx6JJ15QKeEw0pTVvU70MopZAeDjQm82K-iKDwFgDLYF68fMafRde6oLQIONhgve9xJnNR3fmV230d-z7zLx79ZqoOeExlCgAPfR4ETuCg6xvhhBWYuTdH0LOTxS0wSeOP00Kg-eFihN95vJLpgmppieV4sPFxiJs6-oj-LQZ4FzVRzswChzlIVOnKI9eNQUb-oNf3cM54JNWhmFZ9GZPHwlWcnQ41cLq2Yvxg2VshCDGeLSYrlfkQ7sLfgciBbqbJA4KFZr4eYLE1mDbNkunMZsQuvIGkefwos06aaDE07h5jX-QnWXUz5nS1DwkESAR6mB0crWlcbgZfp-PYUsVwCitKQ5P3gc62oFYHfGevjAxiIQeuqQ6mWQBvZOta1KmKxH7wBi4kmrRuQ-YgwZEtx5N7C4Jwo-83SEE2DXog3hmANFsd0VkV2JgboBFHKmMqK_lYqToByIBAdB1fZJ2dTzd4lhhPdU1dDCpjwpVAB6vYc2mHxy1kfBbFK8Px2BR0otSrrJaJ0Sjh5UGiFNMBKlU54bBAcfhxj044zcnaJZBb7iaWfb1cQEI-fwvFuy26-4S6F5Mz5oBNtcVLmoGeyZ0GzKuUMmeYVygepY-VJmnuG4EMoky708wfEuFqdIkJ3cTTthLwvu6sxvYaqs5ddV1xfvWytaKGFtLgOtnIWCc9rdonG4zpB-qbuRr4bQWbLNGNx-Lp41ivBM7B2PX2qCRNeinU3EnEEs1-c1LjPPZ5THObwMT58EE2WfS1_fYq-7RO542EpnVHR9NKvz9XSM4Vc3T9eKvTpzcUi9lxNhdM03VUfnqCEqnsdabK9xmaJPByi9v8U0oxWb6QJeeKlbpi1J4kRPxfpFZCiEnqLqSHBCK4YHx6MK9etqB2kbsqNyyWop5khUKrIHR1B22BZBzPdpTiUQfshlFnPJkn8NE4n8GNRPCB5WohiuL4nPSpCFYLbyc464J1yvzWaFrpOxyTbQjGB4YVsHIWUyyVIuucYSld7gjq8F7Jjd25eT55oKzkP8OS-VvHloFm00]--></g></svg>