<?xml version="1.0" encoding="us-ascii" standalone="no"?><svg xmlns="http://www.w3.org/2000/svg" xmlns:xlink="http://www.w3.org/1999/xlink" contentStyleType="text/css" height="650px" preserveAspectRatio="none" style="width:1003px;height:650px;background:#FFFFFF;" version="1.1" viewBox="0 0 1003 650" width="1003px" zoomAndPan="magnify"><defs/><g><!--cluster ui--><g id="cluster_ui"><path d="M8.5,233.0137 L22.5,233.0137 A3.75,3.75 0 0 1 25,235.5137 L32,257.6348 L196.5,257.6348 A2.5,2.5 0 0 1 199,260.1348 L199,331.5137 A2.5,2.5 0 0 1 196.5,334.0137 L8.5,334.0137 A2.5,2.5 0 0 1 6,331.5137 L6,235.5137 A2.5,2.5 0 0 1 8.5,233.0137 " fill="none" style="stroke:#000000;stroke-width:1.5;"/><line style="stroke:#000000;stroke-width:1.5;" x1="6" x2="32" y1="257.6348" y2="257.6348"/><text fill="#000000" font-family="sans-serif" font-size="14" font-weight="bold" lengthAdjust="spacing" textLength="13" x="10" y="250.1211">ui</text></g><!--cluster coursemanagement--><g id="cluster_coursemanagement"><path d="M282.5,6.0137 L422.5,6.0137 A3.75,3.75 0 0 1 425,8.5137 L432,30.6348 L585.5,30.6348 A2.5,2.5 0 0 1 588,33.1348 L588,124.5137 A2.5,2.5 0 0 1 585.5,127.0137 L282.5,127.0137 A2.5,2.5 0 0 1 280,124.5137 L280,8.5137 A2.5,2.5 0 0 1 282.5,6.0137 " fill="none" style="stroke:#000000;stroke-width:1.5;"/><line style="stroke:#000000;stroke-width:1.5;" x1="280" x2="432" y1="30.6348" y2="30.6348"/><text fill="#000000" font-family="sans-serif" font-size="14" font-weight="bold" lengthAdjust="spacing" textLength="139" x="284" y="23.1211">coursemanagement</text></g><!--cluster exammanagement--><g id="cluster_exammanagement"><path d="M671.5,151.0137 L799.5,151.0137 A3.75,3.75 0 0 1 802,153.5137 L809,175.6348 L993.5,175.6348 A2.5,2.5 0 0 1 996,178.1348 L996,269.5137 A2.5,2.5 0 0 1 993.5,272.0137 L671.5,272.0137 A2.5,2.5 0 0 1 669,269.5137 L669,153.5137 A2.5,2.5 0 0 1 671.5,151.0137 " fill="none" style="stroke:#000000;stroke-width:1.5;"/><line style="stroke:#000000;stroke-width:1.5;" x1="669" x2="809" y1="175.6348" y2="175.6348"/><text fill="#000000" font-family="sans-serif" font-size="14" font-weight="bold" lengthAdjust="spacing" textLength="127" x="673" y="168.1211">exammanagement</text></g><!--cluster takenexammanagment--><g id="cluster_takenexammanagment"><path d="M225.5,151.0137 L383.5,151.0137 A3.75,3.75 0 0 1 386,153.5137 L393,175.6348 L642.5,175.6348 A2.5,2.5 0 0 1 645,178.1348 L645,640.5137 A2.5,2.5 0 0 1 642.5,643.0137 L225.5,643.0137 A2.5,2.5 0 0 1 223,640.5137 L223,153.5137 A2.5,2.5 0 0 1 225.5,151.0137 " fill="none" style="stroke:#000000;stroke-width:1.5;"/><line style="stroke:#000000;stroke-width:1.5;" x1="223" x2="393" y1="175.6348" y2="175.6348"/><text fill="#000000" font-family="sans-serif" font-size="14" font-weight="bold" lengthAdjust="spacing" textLength="157" x="227" y="168.1211">takenexammanagment</text></g><!--cluster application--><g id="cluster_application"><path d="M249.5,196.0137 L327.5,196.0137 A3.75,3.75 0 0 1 330,198.5137 L337,220.6348 L618.5,220.6348 A2.5,2.5 0 0 1 621,223.1348 L621,471.5137 A2.5,2.5 0 0 1 618.5,474.0137 L249.5,474.0137 A2.5,2.5 0 0 1 247,471.5137 L247,198.5137 A2.5,2.5 0 0 1 249.5,196.0137 " fill="none" style="stroke:#000000;stroke-width:1.5;"/><line style="stroke:#000000;stroke-width:1.5;" x1="247" x2="337" y1="220.6348" y2="220.6348"/><text fill="#000000" font-family="sans-serif" font-size="14" font-weight="bold" lengthAdjust="spacing" textLength="77" x="251" y="213.1211">application</text></g><!--cluster repository--><g id="cluster_repository"><path d="M277,498.0137 L350,498.0137 A3.75,3.75 0 0 1 352.5,500.5137 L359.5,522.6348 L591,522.6348 A2.5,2.5 0 0 1 593.5,525.1348 L593.5,616.5137 A2.5,2.5 0 0 1 591,619.0137 L277,619.0137 A2.5,2.5 0 0 1 274.5,616.5137 L274.5,500.5137 A2.5,2.5 0 0 1 277,498.0137 " fill="none" style="stroke:#000000;stroke-width:1.5;"/><line style="stroke:#000000;stroke-width:1.5;" x1="274.5" x2="359.5" y1="522.6348" y2="522.6348"/><text fill="#000000" font-family="sans-serif" font-size="14" font-weight="bold" lengthAdjust="spacing" textLength="72" x="278.5" y="515.1211">repository</text></g><!--cluster ecourseusermanagement--><g id="cluster_ecourseusermanagement"><path d="M706.5,296.0137 L887.5,296.0137 A3.75,3.75 0 0 1 890,298.5137 L897,320.6348 L958.5,320.6348 A2.5,2.5 0 0 1 961,323.1348 L961,414.5137 A2.5,2.5 0 0 1 958.5,417.0137 L706.5,417.0137 A2.5,2.5 0 0 1 704,414.5137 L704,298.5137 A2.5,2.5 0 0 1 706.5,296.0137 " fill="none" style="stroke:#000000;stroke-width:1.5;"/><line style="stroke:#000000;stroke-width:1.5;" x1="704" x2="897" y1="320.6348" y2="320.6348"/><text fill="#000000" font-family="sans-serif" font-size="14" font-weight="bold" lengthAdjust="spacing" textLength="180" x="708" y="313.1211">ecourseusermanagement</text></g><!--class ViewExamsGradesUI--><g id="elem_ViewExamsGradesUI"><rect codeLine="6" fill="#F1F1F1" height="48" id="ViewExamsGradesUI" rx="2.5" ry="2.5" style="stroke:#181818;stroke-width:0.5;" width="161" x="22" y="270.0137"/><ellipse cx="37" cy="286.0137" fill="#ADD1B2" rx="11" ry="11" style="stroke:#181818;stroke-width:1.0;"/><path d="M39.7656,281.8887 Q39.9219,281.6699 40.1094,281.5605 Q40.2969,281.4512 40.5156,281.4512 Q40.8906,281.4512 41.125,281.7168 Q41.3594,281.9668 41.3594,282.5762 L41.3594,284.0293 Q41.3594,284.6387 41.125,284.9043 Q40.8906,285.1699 40.5156,285.1699 Q40.1719,285.1699 39.9688,284.9668 Q39.7656,284.7793 39.6563,284.2637 Q39.6094,283.9043 39.4219,283.7168 Q39.0938,283.3418 38.4844,283.123 Q37.875,282.9043 37.25,282.9043 Q36.4844,282.9043 35.8438,283.2324 Q35.2188,283.5605 34.7188,284.3105 Q34.2344,285.0605 34.2344,286.0918 L34.2344,287.1855 Q34.2344,288.4199 35.125,289.248 Q36.0156,290.0605 37.6094,290.0605 Q38.5469,290.0605 39.2031,289.8105 Q39.5938,289.6543 40.0156,289.2168 Q40.2813,288.9512 40.4219,288.873 Q40.5781,288.7949 40.7813,288.7949 Q41.1094,288.7949 41.3594,289.0605 Q41.625,289.3105 41.625,289.6543 Q41.625,289.998 41.2813,290.4043 Q40.7813,290.9824 39.9844,291.3105 Q38.9063,291.7637 37.6094,291.7637 Q36.0938,291.7637 34.8906,291.1387 Q33.9063,290.6387 33.2188,289.5762 Q32.5313,288.498 32.5313,287.2168 L32.5313,286.0605 Q32.5313,284.7324 33.1406,283.5918 Q33.7656,282.4355 34.8594,281.8262 Q35.9531,281.2012 37.1875,281.2012 Q37.9219,281.2012 38.5625,281.373 Q39.2188,281.5293 39.7656,281.8887 Z " fill="#000000"/><text fill="#000000" font-family="sans-serif" font-size="14" lengthAdjust="spacing" textLength="129" x="51" y="291.8105">ViewExamsGradesUI</text><line style="stroke:#181818;stroke-width:0.5;" x1="23" x2="182" y1="302.0137" y2="302.0137"/><line style="stroke:#181818;stroke-width:0.5;" x1="23" x2="182" y1="310.0137" y2="310.0137"/></g><!--class TeacherCoursesProvider--><g id="elem_TeacherCoursesProvider"><rect codeLine="11" fill="#F1F1F1" height="66.6211" id="TeacherCoursesProvider" rx="2.5" ry="2.5" style="stroke:#181818;stroke-width:0.5;" width="276" x="296" y="43.5137"/><ellipse cx="350.25" cy="59.5137" fill="#ADD1B2" rx="11" ry="11" style="stroke:#181818;stroke-width:1.0;"/><path d="M353.0156,55.3887 Q353.1719,55.1699 353.3594,55.0605 Q353.5469,54.9512 353.7656,54.9512 Q354.1406,54.9512 354.375,55.2168 Q354.6094,55.4668 354.6094,56.0762 L354.6094,57.5293 Q354.6094,58.1387 354.375,58.4043 Q354.1406,58.6699 353.7656,58.6699 Q353.4219,58.6699 353.2188,58.4668 Q353.0156,58.2793 352.9063,57.7637 Q352.8594,57.4043 352.6719,57.2168 Q352.3438,56.8418 351.7344,56.623 Q351.125,56.4043 350.5,56.4043 Q349.7344,56.4043 349.0938,56.7324 Q348.4688,57.0605 347.9688,57.8105 Q347.4844,58.5605 347.4844,59.5918 L347.4844,60.6855 Q347.4844,61.9199 348.375,62.748 Q349.2656,63.5605 350.8594,63.5605 Q351.7969,63.5605 352.4531,63.3105 Q352.8438,63.1543 353.2656,62.7168 Q353.5313,62.4512 353.6719,62.373 Q353.8281,62.2949 354.0313,62.2949 Q354.3594,62.2949 354.6094,62.5605 Q354.875,62.8105 354.875,63.1543 Q354.875,63.498 354.5313,63.9043 Q354.0313,64.4824 353.2344,64.8105 Q352.1563,65.2637 350.8594,65.2637 Q349.3438,65.2637 348.1406,64.6387 Q347.1563,64.1387 346.4688,63.0762 Q345.7813,61.998 345.7813,60.7168 L345.7813,59.5605 Q345.7813,58.2324 346.3906,57.0918 Q347.0156,55.9355 348.1094,55.3262 Q349.2031,54.7012 350.4375,54.7012 Q351.1719,54.7012 351.8125,54.873 Q352.4688,55.0293 353.0156,55.3887 Z " fill="#000000"/><text fill="#000000" font-family="sans-serif" font-size="14" lengthAdjust="spacing" textLength="159" x="370.75" y="65.3105">TeacherCoursesProvider</text><line style="stroke:#181818;stroke-width:0.5;" x1="297" x2="571" y1="75.5137" y2="75.5137"/><line style="stroke:#181818;stroke-width:0.5;" x1="297" x2="571" y1="83.5137" y2="83.5137"/><ellipse cx="307" cy="98.3242" fill="#84BE84" rx="3" ry="3" style="stroke:#038048;stroke-width:1.0;"/><text fill="#000000" font-family="sans-serif" font-size="14" lengthAdjust="spacing" textLength="250" x="316" y="102.6211">listTeacherCourses(): Iterable&lt;Course&gt;</text></g><!--class CourseExamsProvider--><g id="elem_CourseExamsProvider"><rect codeLine="17" fill="#F1F1F1" height="66.6211" id="CourseExamsProvider" rx="2.5" ry="2.5" style="stroke:#181818;stroke-width:0.5;" width="295" x="685" y="188.5137"/><ellipse cx="758.25" cy="204.5137" fill="#ADD1B2" rx="11" ry="11" style="stroke:#181818;stroke-width:1.0;"/><path d="M761.0156,200.3887 Q761.1719,200.1699 761.3594,200.0605 Q761.5469,199.9512 761.7656,199.9512 Q762.1406,199.9512 762.375,200.2168 Q762.6094,200.4668 762.6094,201.0762 L762.6094,202.5293 Q762.6094,203.1387 762.375,203.4043 Q762.1406,203.6699 761.7656,203.6699 Q761.4219,203.6699 761.2188,203.4668 Q761.0156,203.2793 760.9063,202.7637 Q760.8594,202.4043 760.6719,202.2168 Q760.3438,201.8418 759.7344,201.623 Q759.125,201.4043 758.5,201.4043 Q757.7344,201.4043 757.0938,201.7324 Q756.4688,202.0605 755.9688,202.8105 Q755.4844,203.5605 755.4844,204.5918 L755.4844,205.6855 Q755.4844,206.9199 756.375,207.748 Q757.2656,208.5605 758.8594,208.5605 Q759.7969,208.5605 760.4531,208.3105 Q760.8438,208.1543 761.2656,207.7168 Q761.5313,207.4512 761.6719,207.373 Q761.8281,207.2949 762.0313,207.2949 Q762.3594,207.2949 762.6094,207.5605 Q762.875,207.8105 762.875,208.1543 Q762.875,208.498 762.5313,208.9043 Q762.0313,209.4824 761.2344,209.8105 Q760.1563,210.2637 758.8594,210.2637 Q757.3438,210.2637 756.1406,209.6387 Q755.1563,209.1387 754.4688,208.0762 Q753.7813,206.998 753.7813,205.7168 L753.7813,204.5605 Q753.7813,203.2324 754.3906,202.0918 Q755.0156,200.9355 756.1094,200.3262 Q757.2031,199.7012 758.4375,199.7012 Q759.1719,199.7012 759.8125,199.873 Q760.4688,200.0293 761.0156,200.3887 Z " fill="#000000"/><text fill="#000000" font-family="sans-serif" font-size="14" lengthAdjust="spacing" textLength="140" x="778.75" y="210.3105">CourseExamsProvider</text><line style="stroke:#181818;stroke-width:0.5;" x1="686" x2="979" y1="220.5137" y2="220.5137"/><line style="stroke:#181818;stroke-width:0.5;" x1="686" x2="979" y1="228.5137" y2="228.5137"/><ellipse cx="696" cy="243.3242" fill="#84BE84" rx="3" ry="3" style="stroke:#038048;stroke-width:1.0;"/><text fill="#000000" font-family="sans-serif" font-size="14" lengthAdjust="spacing" textLength="269" x="705" y="247.6211">listCourseExams(course): Iterable&lt;Exams&gt;</text></g><!--class ViewExamGradesController--><g id="elem_ViewExamGradesController"><rect codeLine="26" fill="#F1F1F1" height="122.4844" id="ViewExamGradesController" rx="2.5" ry="2.5" style="stroke:#181818;stroke-width:0.5;" width="312" x="278" y="233.0137"/><ellipse cx="343.75" cy="249.0137" fill="#ADD1B2" rx="11" ry="11" style="stroke:#181818;stroke-width:1.0;"/><path d="M346.5156,244.8887 Q346.6719,244.6699 346.8594,244.5605 Q347.0469,244.4512 347.2656,244.4512 Q347.6406,244.4512 347.875,244.7168 Q348.1094,244.9668 348.1094,245.5762 L348.1094,247.0293 Q348.1094,247.6387 347.875,247.9043 Q347.6406,248.1699 347.2656,248.1699 Q346.9219,248.1699 346.7188,247.9668 Q346.5156,247.7793 346.4063,247.2637 Q346.3594,246.9043 346.1719,246.7168 Q345.8438,246.3418 345.2344,246.123 Q344.625,245.9043 344,245.9043 Q343.2344,245.9043 342.5938,246.2324 Q341.9688,246.5605 341.4688,247.3105 Q340.9844,248.0605 340.9844,249.0918 L340.9844,250.1855 Q340.9844,251.4199 341.875,252.248 Q342.7656,253.0605 344.3594,253.0605 Q345.2969,253.0605 345.9531,252.8105 Q346.3438,252.6543 346.7656,252.2168 Q347.0313,251.9512 347.1719,251.873 Q347.3281,251.7949 347.5313,251.7949 Q347.8594,251.7949 348.1094,252.0605 Q348.375,252.3105 348.375,252.6543 Q348.375,252.998 348.0313,253.4043 Q347.5313,253.9824 346.7344,254.3105 Q345.6563,254.7637 344.3594,254.7637 Q342.8438,254.7637 341.6406,254.1387 Q340.6563,253.6387 339.9688,252.5762 Q339.2813,251.498 339.2813,250.2168 L339.2813,249.0605 Q339.2813,247.7324 339.8906,246.5918 Q340.5156,245.4355 341.6094,244.8262 Q342.7031,244.2012 343.9375,244.2012 Q344.6719,244.2012 345.3125,244.373 Q345.9688,244.5293 346.5156,244.8887 Z " fill="#000000"/><text fill="#000000" font-family="sans-serif" font-size="14" lengthAdjust="spacing" textLength="172" x="364.25" y="254.8105">ViewExamGradesController</text><line style="stroke:#181818;stroke-width:0.5;" x1="279" x2="589" y1="265.0137" y2="265.0137"/><line style="stroke:#181818;stroke-width:0.5;" x1="279" x2="589" y1="273.0137" y2="273.0137"/><ellipse cx="289" cy="287.8242" fill="#84BE84" rx="3" ry="3" style="stroke:#038048;stroke-width:1.0;"/><text fill="#000000" font-family="sans-serif" font-size="14" lengthAdjust="spacing" textLength="250" x="298" y="292.1211">listTeacherCourses(): Iterable&lt;Course&gt;</text><ellipse cx="289" cy="306.4453" fill="#84BE84" rx="3" ry="3" style="stroke:#038048;stroke-width:1.0;"/><text fill="#000000" font-family="sans-serif" font-size="14" lengthAdjust="spacing" textLength="269" x="298" y="310.7422">listCourseExams(course): Iterable&lt;Exams&gt;</text><ellipse cx="289" cy="325.0664" fill="#84BE84" rx="3" ry="3" style="stroke:#038048;stroke-width:1.0;"/><text fill="#000000" font-family="sans-serif" font-size="14" lengthAdjust="spacing" textLength="286" x="298" y="329.3633">listTakenExams(exam): Iterable&lt;TakenExam&gt;</text><rect fill="#F24D5C" height="6" style="stroke:#C82930;stroke-width:1.0;" width="6" x="286" y="340.6875"/><text fill="#000000" font-family="sans-serif" font-size="14" lengthAdjust="spacing" textLength="232" x="298" y="347.9844">verifyUserIsTeacher() : ECourseUser</text></g><!--class TakenExamProvider--><g id="elem_TakenExamProvider"><rect codeLine="33" fill="#F1F1F1" height="66.6211" id="TakenExamProvider" rx="2.5" ry="2.5" style="stroke:#181818;stroke-width:0.5;" width="342" x="263" y="390.5137"/><ellipse cx="366.25" cy="406.5137" fill="#B4A7E5" rx="11" ry="11" style="stroke:#181818;stroke-width:1.0;"/><path d="M367.2031,403.1543 L367.2031,409.8105 L368.9219,409.8105 Q369.5313,409.8105 369.7969,410.0449 Q370.0625,410.2793 370.0625,410.6699 Q370.0625,411.0449 369.7969,411.2793 Q369.5313,411.5137 368.9219,411.5137 L363.7813,411.5137 Q363.1719,411.5137 362.9063,411.2793 Q362.6406,411.0449 362.6406,410.6543 Q362.6406,410.2793 362.9063,410.0449 Q363.1719,409.8105 363.7813,409.8105 L365.5,409.8105 L365.5,403.1543 L363.7813,403.1543 Q363.1719,403.1543 362.9063,402.9199 Q362.6406,402.6855 362.6406,402.2949 Q362.6406,401.9199 362.9063,401.6855 Q363.1719,401.4512 363.7813,401.4512 L368.9219,401.4512 Q369.5313,401.4512 369.7969,401.6855 Q370.0625,401.9199 370.0625,402.2949 Q370.0625,402.6855 369.7969,402.9199 Q369.5313,403.1543 368.9219,403.1543 L367.2031,403.1543 Z " fill="#000000"/><text fill="#000000" font-family="sans-serif" font-size="14" font-style="italic" lengthAdjust="spacing" textLength="127" x="386.75" y="412.3105">TakenExamProvider</text><line style="stroke:#181818;stroke-width:0.5;" x1="264" x2="604" y1="422.5137" y2="422.5137"/><line style="stroke:#181818;stroke-width:0.5;" x1="264" x2="604" y1="430.5137" y2="430.5137"/><ellipse cx="274" cy="445.3242" fill="#84BE84" rx="3" ry="3" style="stroke:#038048;stroke-width:1.0;"/><text fill="#000000" font-family="sans-serif" font-size="14" lengthAdjust="spacing" textLength="316" x="283" y="449.6211">provideTakenExams(exam): Iterable&lt;TakenExam&gt;</text></g><!--class TakenExamRepository--><g id="elem_TakenExamRepository"><rect codeLine="40" fill="#F1F1F1" height="66.6211" id="TakenExamRepository" rx="2.5" ry="2.5" style="stroke:#181818;stroke-width:0.5;" width="287" x="290.5" y="535.5137"/><ellipse cx="358.25" cy="551.5137" fill="#B4A7E5" rx="11" ry="11" style="stroke:#181818;stroke-width:1.0;"/><path d="M359.2031,548.1543 L359.2031,554.8105 L360.9219,554.8105 Q361.5313,554.8105 361.7969,555.0449 Q362.0625,555.2793 362.0625,555.6699 Q362.0625,556.0449 361.7969,556.2793 Q361.5313,556.5137 360.9219,556.5137 L355.7813,556.5137 Q355.1719,556.5137 354.9063,556.2793 Q354.6406,556.0449 354.6406,555.6543 Q354.6406,555.2793 354.9063,555.0449 Q355.1719,554.8105 355.7813,554.8105 L357.5,554.8105 L357.5,548.1543 L355.7813,548.1543 Q355.1719,548.1543 354.9063,547.9199 Q354.6406,547.6855 354.6406,547.2949 Q354.6406,546.9199 354.9063,546.6855 Q355.1719,546.4512 355.7813,546.4512 L360.9219,546.4512 Q361.5313,546.4512 361.7969,546.6855 Q362.0625,546.9199 362.0625,547.2949 Q362.0625,547.6855 361.7969,547.9199 Q361.5313,548.1543 360.9219,548.1543 L359.2031,548.1543 Z " fill="#000000"/><text fill="#000000" font-family="sans-serif" font-size="14" font-style="italic" lengthAdjust="spacing" textLength="143" x="378.75" y="557.3105">TakenExamRepository</text><line style="stroke:#181818;stroke-width:0.5;" x1="291.5" x2="576.5" y1="567.5137" y2="567.5137"/><line style="stroke:#181818;stroke-width:0.5;" x1="291.5" x2="576.5" y1="575.5137" y2="575.5137"/><ellipse cx="301.5" cy="590.3242" fill="#84BE84" rx="3" ry="3" style="stroke:#038048;stroke-width:1.0;"/><text fill="#000000" font-family="sans-serif" font-size="14" lengthAdjust="spacing" textLength="261" x="310.5" y="594.6211">findByExam(exam): Iterable&lt;TakenExam&gt;</text></g><!--class UserSessionService--><g id="elem_UserSessionService"><rect codeLine="48" fill="#F1F1F1" height="66.6211" id="UserSessionService" rx="2.5" ry="2.5" style="stroke:#181818;stroke-width:0.5;" width="225" x="720" y="333.5137"/><ellipse cx="765.25" cy="349.5137" fill="#ADD1B2" rx="11" ry="11" style="stroke:#181818;stroke-width:1.0;"/><path d="M768.0156,345.3887 Q768.1719,345.1699 768.3594,345.0605 Q768.5469,344.9512 768.7656,344.9512 Q769.1406,344.9512 769.375,345.2168 Q769.6094,345.4668 769.6094,346.0762 L769.6094,347.5293 Q769.6094,348.1387 769.375,348.4043 Q769.1406,348.6699 768.7656,348.6699 Q768.4219,348.6699 768.2188,348.4668 Q768.0156,348.2793 767.9063,347.7637 Q767.8594,347.4043 767.6719,347.2168 Q767.3438,346.8418 766.7344,346.623 Q766.125,346.4043 765.5,346.4043 Q764.7344,346.4043 764.0938,346.7324 Q763.4688,347.0605 762.9688,347.8105 Q762.4844,348.5605 762.4844,349.5918 L762.4844,350.6855 Q762.4844,351.9199 763.375,352.748 Q764.2656,353.5605 765.8594,353.5605 Q766.7969,353.5605 767.4531,353.3105 Q767.8438,353.1543 768.2656,352.7168 Q768.5313,352.4512 768.6719,352.373 Q768.8281,352.2949 769.0313,352.2949 Q769.3594,352.2949 769.6094,352.5605 Q769.875,352.8105 769.875,353.1543 Q769.875,353.498 769.5313,353.9043 Q769.0313,354.4824 768.2344,354.8105 Q767.1563,355.2637 765.8594,355.2637 Q764.3438,355.2637 763.1406,354.6387 Q762.1563,354.1387 761.4688,353.0762 Q760.7813,351.998 760.7813,350.7168 L760.7813,349.5605 Q760.7813,348.2324 761.3906,347.0918 Q762.0156,345.9355 763.1094,345.3262 Q764.2031,344.7012 765.4375,344.7012 Q766.1719,344.7012 766.8125,344.873 Q767.4688,345.0293 768.0156,345.3887 Z " fill="#000000"/><text fill="#000000" font-family="sans-serif" font-size="14" lengthAdjust="spacing" textLength="126" x="785.75" y="355.3105">UserSessionService</text><line style="stroke:#181818;stroke-width:0.5;" x1="721" x2="944" y1="365.5137" y2="365.5137"/><line style="stroke:#181818;stroke-width:0.5;" x1="721" x2="944" y1="373.5137" y2="373.5137"/><ellipse cx="731" cy="388.3242" fill="#84BE84" rx="3" ry="3" style="stroke:#038048;stroke-width:1.0;"/><text fill="#000000" font-family="sans-serif" font-size="14" lengthAdjust="spacing" textLength="199" x="740" y="392.6211">getLoggedUser(): ECourseUser</text></g><!--link ViewExamsGradesUI to ViewExamGradesController--><g id="link_ViewExamsGradesUI_ViewExamGradesController"><path codeLine="54" d="M183.26,294.0137 C210.27,294.0137 241.47,294.0137 272.48,294.0137 " fill="none" id="ViewExamsGradesUI-to-ViewExamGradesController" style="stroke:#181818;stroke-width:1.0;"/><polygon fill="#181818" points="277.85,294.0137,268.85,290.0137,272.85,294.0137,268.85,298.0137,277.85,294.0137" style="stroke:#181818;stroke-width:1.0;"/></g><!--link ViewExamGradesController to UserSessionService--><g id="link_ViewExamGradesController_UserSessionService"><path codeLine="55" d="M590,322.5537 C631.47,330.1837 675.59,338.3137 714.63,345.4937 " fill="none" id="ViewExamGradesController-to-UserSessionService" style="stroke:#181818;stroke-width:1.0;"/><polygon fill="#181818" points="719.85,346.4537,711.7178,340.8978,714.9318,345.553,710.2767,348.7669,719.85,346.4537" style="stroke:#181818;stroke-width:1.0;"/></g><!--link ViewExamGradesController to TeacherCoursesProvider--><g id="link_ViewExamGradesController_TeacherCoursesProvider"><path codeLine="56" d="M434,232.9837 C434,193.9137 434,154.8537 434,115.7837 " fill="none" id="ViewExamGradesController-to-TeacherCoursesProvider" style="stroke:#181818;stroke-width:1.0;"/><polygon fill="#181818" points="434,110.5237,430,119.5237,434,115.5237,438,119.5237,434,110.5237" style="stroke:#181818;stroke-width:1.0;"/></g><!--link ViewExamGradesController to CourseExamsProvider--><g id="link_ViewExamGradesController_CourseExamsProvider"><path codeLine="57" d="M590,265.8637 C619.46,260.5137 650.27,254.9237 679.63,249.5937 " fill="none" id="ViewExamGradesController-to-CourseExamsProvider" style="stroke:#181818;stroke-width:1.0;"/><polygon fill="#181818" points="684.71,248.6637,675.1367,246.3504,679.7918,249.5644,676.5778,254.2195,684.71,248.6637" style="stroke:#181818;stroke-width:1.0;"/></g><!--reverse link TakenExamProvider to ViewExamGradesController--><g id="link_TakenExamProvider_ViewExamGradesController"><path codeLine="58" d="M434,385.2437 C434,375.1837 434,365.1237 434,355.0737 " fill="none" id="TakenExamProvider-backto-ViewExamGradesController" style="stroke:#181818;stroke-width:1.0;"/><polygon fill="#181818" points="434,390.4937,438,381.4937,434,385.4937,430,381.4937,434,390.4937" style="stroke:#181818;stroke-width:1.0;"/></g><!--link TakenExamProvider to TakenExamRepository--><g id="link_TakenExamProvider_TakenExamRepository"><path codeLine="59" d="M357.21,457.7037 C317.71,482.5637 316.16,507.4237 352.57,532.2837 " fill="none" id="TakenExamProvider-to-TakenExamRepository" style="stroke:#181818;stroke-width:1.0;"/><polygon fill="#181818" points="357.2,535.3137,351.8578,527.0396,353.0157,532.5767,347.4786,533.7345,357.2,535.3137" style="stroke:#181818;stroke-width:1.0;"/></g><!--SRC=[dLDBRi8m5Dpx55w2gbm0LLaKeGgfYwgKxbtd9LWOEtfsQ17AtUjF24cJe5BlOizavet74d9BhQOeYfsbcK3WLcX5ICdudXL0Aq7FX52tk6J6q0y1NwjlTZ3Fo38mspKzruJKLmBN5HeuCEK-3g2ier_Pxy3u3d0PCEOLzL5aW0t4hmSfZEsZPlC5NLj0zYdXCUwb0LztPS5vcX2Dd61wIh43cSK1kg9XVqJJiZseLhZH3R0BWfMb59pvI2z7moXZaakjB6efU-RkZUH_G_ML_52Hv4VhKjgZFYqv0ehyj3M0QzCOdStfWgwY0t_G4kfh2aAv7-UC0sr_F78_mLWPz-_praZL_Ij1ABKHLkEf8p9YvMqC5ypaGcLF9u_vcujXL-DjL2wNNcKxdVMPRS0OLvmDu54uPvtA5c1VT550vc6-3B-J3d9a-5QJ99si7PdiesSD3Tt0fnCF_RR4o3kzGQZIOMt8i4X9EdQbXFm0]--></g></svg>