<?xml version="1.0" encoding="us-ascii" standalone="no"?><svg xmlns="http://www.w3.org/2000/svg" xmlns:xlink="http://www.w3.org/1999/xlink" contentStyleType="text/css" height="1112px" preserveAspectRatio="none" style="width:1709px;height:1112px;background:#FFFFFF;" version="1.1" viewBox="0 0 1709 1112" width="1709px" zoomAndPan="magnify"><defs/><g><text fill="#000000" font-family="sans-serif" font-size="14" font-weight="bold" lengthAdjust="spacing" textLength="432" x="640" y="30.1074">View List of Grades of Exams of a Course - Sequence Diagram</text><rect fill="#FFFFFF" height="866.8574" style="stroke:#181818;stroke-width:1.0;" width="10" x="182.5" y="137.8633"/><rect fill="#FFFFFF" height="138.1641" style="stroke:#181818;stroke-width:1.0;" width="10" x="772.5" y="192.4453"/><rect fill="#FFFFFF" height="93.873" style="stroke:#181818;stroke-width:1.0;" width="10" x="772.5" y="361.9004"/><rect fill="#FFFFFF" height="131.1641" style="stroke:#181818;stroke-width:1.0;" width="10" x="772.5" y="549.6465"/><rect fill="#FFFFFF" height="156.4551" style="stroke:#181818;stroke-width:1.0;" width="10" x="772.5" y="800.9746"/><rect fill="#FFFFFF" height="31.291" style="stroke:#181818;stroke-width:1.0;" width="10" x="945.5" y="223.7363"/><rect fill="#FFFFFF" height="31.291" style="stroke:#181818;stroke-width:1.0;" width="10" x="1112" y="393.1914"/><rect fill="#FFFFFF" height="68.582" style="stroke:#181818;stroke-width:1.0;" width="10" x="1285.5" y="580.9375"/><rect fill="#FFFFFF" height="93.873" style="stroke:#181818;stroke-width:1.0;" width="10" x="1443" y="832.2656"/><rect fill="#FFFFFF" height="31.291" style="stroke:#181818;stroke-width:1.0;" width="10" x="1614" y="863.5566"/><rect fill="none" height="300.9102" style="stroke:#000000;stroke-width:1.5;" width="1693" x="10" y="695.8105"/><line style="stroke:#181818;stroke-width:0.5;stroke-dasharray:5.0,5.0;" x1="49" x2="49" y1="127.8633" y2="1013.7207"/><line style="stroke:#181818;stroke-width:0.5;stroke-dasharray:5.0,5.0;" x1="187.5" x2="187.5" y1="127.8633" y2="1013.7207"/><line style="stroke:#181818;stroke-width:0.5;stroke-dasharray:5.0,5.0;" x1="777.5" x2="777.5" y1="127.8633" y2="1013.7207"/><line style="stroke:#181818;stroke-width:0.5;stroke-dasharray:5.0,5.0;" x1="950.5" x2="950.5" y1="127.8633" y2="1013.7207"/><line style="stroke:#181818;stroke-width:0.5;stroke-dasharray:5.0,5.0;" x1="1116.5" x2="1116.5" y1="127.8633" y2="1013.7207"/><line style="stroke:#181818;stroke-width:0.5;stroke-dasharray:5.0,5.0;" x1="1290.5" x2="1290.5" y1="127.8633" y2="1013.7207"/><line style="stroke:#181818;stroke-width:0.5;stroke-dasharray:5.0,5.0;" x1="1447.5" x2="1447.5" y1="127.8633" y2="1013.7207"/><line style="stroke:#181818;stroke-width:0.5;stroke-dasharray:5.0,5.0;" x1="1619" x2="1619" y1="127.8633" y2="1013.7207"/><text fill="#000000" font-family="sans-serif" font-size="14" lengthAdjust="spacing" textLength="53" x="20" y="124.3496">Teacher</text><ellipse cx="49.5" cy="57.7422" fill="#E2E2F0" rx="8" ry="8" style="stroke:#181818;stroke-width:0.5;"/><path d="M49.5,65.7422 L49.5,92.7422 M36.5,73.7422 L62.5,73.7422 M49.5,92.7422 L36.5,107.7422 M49.5,92.7422 L62.5,107.7422 " fill="none" style="stroke:#181818;stroke-width:0.5;"/><text fill="#000000" font-family="sans-serif" font-size="14" lengthAdjust="spacing" textLength="53" x="20" y="1027.8281">Teacher</text><ellipse cx="49.5" cy="1039.8418" fill="#E2E2F0" rx="8" ry="8" style="stroke:#181818;stroke-width:0.5;"/><path d="M49.5,1047.8418 L49.5,1074.8418 M36.5,1055.8418 L62.5,1055.8418 M49.5,1074.8418 L36.5,1089.8418 M49.5,1074.8418 L62.5,1089.8418 " fill="none" style="stroke:#181818;stroke-width:0.5;"/><rect fill="#E2E2F0" height="51.2422" rx="2.5" ry="2.5" style="stroke:#181818;stroke-width:0.5;" width="136" x="119.5" y="75.6211"/><text fill="#000000" font-family="sans-serif" font-size="14" font-style="italic" lengthAdjust="spacing" textLength="30" x="172.5" y="97.7285">&#171;UI&#187;</text><text fill="#000000" font-family="sans-serif" font-size="14" lengthAdjust="spacing" textLength="122" x="126.5" y="116.3496">ViewExamGradesUI</text><rect fill="#E2E2F0" height="51.2422" rx="2.5" ry="2.5" style="stroke:#181818;stroke-width:0.5;" width="136" x="119.5" y="1012.7207"/><text fill="#000000" font-family="sans-serif" font-size="14" font-style="italic" lengthAdjust="spacing" textLength="30" x="172.5" y="1034.8281">&#171;UI&#187;</text><text fill="#000000" font-family="sans-serif" font-size="14" lengthAdjust="spacing" textLength="122" x="126.5" y="1053.4492">ViewExamGradesUI</text><rect fill="#E2E2F0" height="51.2422" rx="2.5" ry="2.5" style="stroke:#181818;stroke-width:0.5;" width="186" x="684.5" y="75.6211"/><text fill="#000000" font-family="sans-serif" font-size="14" font-style="italic" lengthAdjust="spacing" textLength="85" x="735" y="97.7285">&#171;Application&#187;</text><text fill="#000000" font-family="sans-serif" font-size="14" lengthAdjust="spacing" textLength="172" x="691.5" y="116.3496">ViewExamGradesController</text><rect fill="#E2E2F0" height="51.2422" rx="2.5" ry="2.5" style="stroke:#181818;stroke-width:0.5;" width="186" x="684.5" y="1012.7207"/><text fill="#000000" font-family="sans-serif" font-size="14" font-style="italic" lengthAdjust="spacing" textLength="85" x="735" y="1034.8281">&#171;Application&#187;</text><text fill="#000000" font-family="sans-serif" font-size="14" lengthAdjust="spacing" textLength="172" x="691.5" y="1053.4492">ViewExamGradesController</text><rect fill="#E2E2F0" height="51.2422" rx="2.5" ry="2.5" style="stroke:#181818;stroke-width:0.5;" width="140" x="880.5" y="75.6211"/><text fill="#000000" font-family="sans-serif" font-size="14" font-style="italic" lengthAdjust="spacing" textLength="85" x="908" y="97.7285">&#171;Application&#187;</text><text fill="#000000" font-family="sans-serif" font-size="14" lengthAdjust="spacing" textLength="126" x="887.5" y="116.3496">UserSessionService</text><rect fill="#E2E2F0" height="51.2422" rx="2.5" ry="2.5" style="stroke:#181818;stroke-width:0.5;" width="140" x="880.5" y="1012.7207"/><text fill="#000000" font-family="sans-serif" font-size="14" font-style="italic" lengthAdjust="spacing" textLength="85" x="908" y="1034.8281">&#171;Application&#187;</text><text fill="#000000" font-family="sans-serif" font-size="14" lengthAdjust="spacing" textLength="126" x="887.5" y="1053.4492">UserSessionService</text><rect fill="#E2E2F0" height="51.2422" rx="2.5" ry="2.5" style="stroke:#181818;stroke-width:0.5;" width="173" x="1030.5" y="75.6211"/><text fill="#000000" font-family="sans-serif" font-size="14" font-style="italic" lengthAdjust="spacing" textLength="85" x="1074.5" y="97.7285">&#171;Application&#187;</text><text fill="#000000" font-family="sans-serif" font-size="14" lengthAdjust="spacing" textLength="159" x="1037.5" y="116.3496">TeacherCoursesProvider</text><rect fill="#E2E2F0" height="51.2422" rx="2.5" ry="2.5" style="stroke:#181818;stroke-width:0.5;" width="173" x="1030.5" y="1012.7207"/><text fill="#000000" font-family="sans-serif" font-size="14" font-style="italic" lengthAdjust="spacing" textLength="85" x="1074.5" y="1034.8281">&#171;Application&#187;</text><text fill="#000000" font-family="sans-serif" font-size="14" lengthAdjust="spacing" textLength="159" x="1037.5" y="1053.4492">TeacherCoursesProvider</text><rect fill="#E2E2F0" height="51.2422" rx="2.5" ry="2.5" style="stroke:#181818;stroke-width:0.5;" width="154" x="1213.5" y="75.6211"/><text fill="#000000" font-family="sans-serif" font-size="14" font-style="italic" lengthAdjust="spacing" textLength="85" x="1248" y="97.7285">&#171;Application&#187;</text><text fill="#000000" font-family="sans-serif" font-size="14" lengthAdjust="spacing" textLength="140" x="1220.5" y="116.3496">CourseExamsProvider</text><rect fill="#E2E2F0" height="51.2422" rx="2.5" ry="2.5" style="stroke:#181818;stroke-width:0.5;" width="154" x="1213.5" y="1012.7207"/><text fill="#000000" font-family="sans-serif" font-size="14" font-style="italic" lengthAdjust="spacing" textLength="85" x="1248" y="1034.8281">&#171;Application&#187;</text><text fill="#000000" font-family="sans-serif" font-size="14" lengthAdjust="spacing" textLength="140" x="1220.5" y="1053.4492">CourseExamsProvider</text><rect fill="#E2E2F0" height="51.2422" rx="2.5" ry="2.5" style="stroke:#181818;stroke-width:0.5;" width="141" x="1377.5" y="75.6211"/><text fill="#000000" font-family="sans-serif" font-size="14" font-style="italic" lengthAdjust="spacing" textLength="85" x="1405.5" y="97.7285">&#171;Application&#187;</text><text fill="#000000" font-family="sans-serif" font-size="14" lengthAdjust="spacing" textLength="127" x="1384.5" y="116.3496">TakenExamProvider</text><rect fill="#E2E2F0" height="51.2422" rx="2.5" ry="2.5" style="stroke:#181818;stroke-width:0.5;" width="141" x="1377.5" y="1012.7207"/><text fill="#000000" font-family="sans-serif" font-size="14" font-style="italic" lengthAdjust="spacing" textLength="85" x="1405.5" y="1034.8281">&#171;Application&#187;</text><text fill="#000000" font-family="sans-serif" font-size="14" lengthAdjust="spacing" textLength="127" x="1384.5" y="1053.4492">TakenExamProvider</text><text fill="#000000" font-family="sans-serif" font-size="14" font-style="italic" lengthAdjust="spacing" textLength="84" x="1574" y="105.7285">&#171;Repository&#187;</text><text fill="#000000" font-family="sans-serif" font-size="14" lengthAdjust="spacing" textLength="142" x="1545" y="124.3496">TakenExamRepository</text><path d="M1601,54.6211 C1601,44.6211 1619,44.6211 1619,44.6211 C1619,44.6211 1637,44.6211 1637,54.6211 L1637,80.6211 C1637,90.6211 1619,90.6211 1619,90.6211 C1619,90.6211 1601,90.6211 1601,80.6211 L1601,54.6211 " fill="#E2E2F0" style="stroke:#181818;stroke-width:1.5;"/><path d="M1601,54.6211 C1601,64.6211 1619,64.6211 1619,64.6211 C1619,64.6211 1637,64.6211 1637,54.6211 " fill="none" style="stroke:#181818;stroke-width:1.5;"/><text fill="#000000" font-family="sans-serif" font-size="14" font-style="italic" lengthAdjust="spacing" textLength="84" x="1574" y="1027.8281">&#171;Repository&#187;</text><text fill="#000000" font-family="sans-serif" font-size="14" lengthAdjust="spacing" textLength="142" x="1545" y="1046.4492">TakenExamRepository</text><path d="M1601,1059.9629 C1601,1049.9629 1619,1049.9629 1619,1049.9629 C1619,1049.9629 1637,1049.9629 1637,1059.9629 L1637,1085.9629 C1637,1095.9629 1619,1095.9629 1619,1095.9629 C1619,1095.9629 1601,1095.9629 1601,1085.9629 L1601,1059.9629 " fill="#E2E2F0" style="stroke:#181818;stroke-width:1.5;"/><path d="M1601,1059.9629 C1601,1069.9629 1619,1069.9629 1619,1069.9629 C1619,1069.9629 1637,1069.9629 1637,1059.9629 " fill="none" style="stroke:#181818;stroke-width:1.5;"/><rect fill="#FFFFFF" height="866.8574" style="stroke:#181818;stroke-width:1.0;" width="10" x="182.5" y="137.8633"/><rect fill="#FFFFFF" height="138.1641" style="stroke:#181818;stroke-width:1.0;" width="10" x="772.5" y="192.4453"/><rect fill="#FFFFFF" height="93.873" style="stroke:#181818;stroke-width:1.0;" width="10" x="772.5" y="361.9004"/><rect fill="#FFFFFF" height="131.1641" style="stroke:#181818;stroke-width:1.0;" width="10" x="772.5" y="549.6465"/><rect fill="#FFFFFF" height="156.4551" style="stroke:#181818;stroke-width:1.0;" width="10" x="772.5" y="800.9746"/><rect fill="#FFFFFF" height="31.291" style="stroke:#181818;stroke-width:1.0;" width="10" x="945.5" y="223.7363"/><rect fill="#FFFFFF" height="31.291" style="stroke:#181818;stroke-width:1.0;" width="10" x="1112" y="393.1914"/><rect fill="#FFFFFF" height="68.582" style="stroke:#181818;stroke-width:1.0;" width="10" x="1285.5" y="580.9375"/><rect fill="#FFFFFF" height="93.873" style="stroke:#181818;stroke-width:1.0;" width="10" x="1443" y="832.2656"/><rect fill="#FFFFFF" height="31.291" style="stroke:#181818;stroke-width:1.0;" width="10" x="1614" y="863.5566"/><polygon fill="#181818" points="170.5,157.1543,180.5,161.1543,170.5,165.1543,174.5,161.1543" style="stroke:#181818;stroke-width:1.0;"/><line style="stroke:#181818;stroke-width:1.0;" x1="0" x2="176.5" y1="161.1543" y2="161.1543"/><text fill="#000000" font-family="sans-serif" font-size="13" font-weight="bold" lengthAdjust="spacing" textLength="7" x="7" y="155.8916">1</text><text fill="#000000" font-family="sans-serif" font-size="13" lengthAdjust="spacing" textLength="42" x="18" y="155.8916">onLoad</text><polygon fill="#181818" points="760.5,188.4453,770.5,192.4453,760.5,196.4453,764.5,192.4453" style="stroke:#181818;stroke-width:1.0;"/><line style="stroke:#181818;stroke-width:1.0;stroke-dasharray:2.0,2.0;" x1="192.5" x2="766.5" y1="192.4453" y2="192.4453"/><text fill="#000000" font-family="sans-serif" font-size="13" font-weight="bold" lengthAdjust="spacing" textLength="7" x="199.5" y="187.1826">2</text><text fill="#000000" font-family="sans-serif" font-size="13" lengthAdjust="spacing" textLength="550" x="210.5" y="187.1826">create(userSessionService, teacherCourseProvider, courseExamsProvider, takenExamProvider)</text><polygon fill="#181818" points="933.5,219.7363,943.5,223.7363,933.5,227.7363,937.5,223.7363" style="stroke:#181818;stroke-width:1.0;"/><line style="stroke:#181818;stroke-width:1.0;" x1="782.5" x2="939.5" y1="223.7363" y2="223.7363"/><text fill="#000000" font-family="sans-serif" font-size="13" font-weight="bold" lengthAdjust="spacing" textLength="7" x="789.5" y="218.4736">3</text><text fill="#000000" font-family="sans-serif" font-size="13" lengthAdjust="spacing" textLength="95" x="800.5" y="218.4736">getLoggedUser()</text><polygon fill="#181818" points="793.5,251.0273,783.5,255.0273,793.5,259.0273,789.5,255.0273" style="stroke:#181818;stroke-width:1.0;"/><line style="stroke:#181818;stroke-width:1.0;" x1="787.5" x2="949.5" y1="255.0273" y2="255.0273"/><text fill="#000000" font-family="sans-serif" font-size="13" font-weight="bold" lengthAdjust="spacing" textLength="7" x="799.5" y="249.7646">4</text><text fill="#000000" font-family="sans-serif" font-size="13" lengthAdjust="spacing" textLength="111" x="810.5" y="249.7646">returns logged user</text><line style="stroke:#181818;stroke-width:1.0;" x1="782.5" x2="824.5" y1="286.3184" y2="286.3184"/><line style="stroke:#181818;stroke-width:1.0;" x1="824.5" x2="824.5" y1="286.3184" y2="299.3184"/><line style="stroke:#181818;stroke-width:1.0;" x1="783.5" x2="824.5" y1="299.3184" y2="299.3184"/><polygon fill="#181818" points="793.5,295.3184,783.5,299.3184,793.5,303.3184,789.5,299.3184" style="stroke:#181818;stroke-width:1.0;"/><text fill="#000000" font-family="sans-serif" font-size="13" font-weight="bold" lengthAdjust="spacing" textLength="7" x="789.5" y="281.0557">5</text><text fill="#000000" font-family="sans-serif" font-size="13" lengthAdjust="spacing" textLength="120" x="800.5" y="281.0557">verifyUserIsTeacher()</text><polygon fill="#181818" points="203.5,326.6094,193.5,330.6094,203.5,334.6094,199.5,330.6094" style="stroke:#181818;stroke-width:1.0;"/><line style="stroke:#181818;stroke-width:1.0;stroke-dasharray:2.0,2.0;" x1="197.5" x2="776.5" y1="330.6094" y2="330.6094"/><text fill="#000000" font-family="sans-serif" font-size="13" font-weight="bold" lengthAdjust="spacing" textLength="7" x="209.5" y="325.3467">6</text><text fill="#000000" font-family="sans-serif" font-size="13" lengthAdjust="spacing" textLength="4" x="220.5" y="325.3467">&#160;</text><polygon fill="#181818" points="760.5,357.9004,770.5,361.9004,760.5,365.9004,764.5,361.9004" style="stroke:#181818;stroke-width:1.0;"/><line style="stroke:#181818;stroke-width:1.0;" x1="192.5" x2="766.5" y1="361.9004" y2="361.9004"/><text fill="#000000" font-family="sans-serif" font-size="13" font-weight="bold" lengthAdjust="spacing" textLength="7" x="199.5" y="356.6377">7</text><text fill="#000000" font-family="sans-serif" font-size="13" lengthAdjust="spacing" textLength="119" x="210.5" y="356.6377">listTeacherCourses()</text><polygon fill="#181818" points="1100,389.1914,1110,393.1914,1100,397.1914,1104,393.1914" style="stroke:#181818;stroke-width:1.0;"/><line style="stroke:#181818;stroke-width:1.0;" x1="782.5" x2="1106" y1="393.1914" y2="393.1914"/><text fill="#000000" font-family="sans-serif" font-size="13" font-weight="bold" lengthAdjust="spacing" textLength="7" x="789.5" y="387.9287">8</text><text fill="#000000" font-family="sans-serif" font-size="13" lengthAdjust="spacing" textLength="201" x="800.5" y="387.9287">provideUserActiveCourses(teacher)</text><polygon fill="#181818" points="793.5,420.4824,783.5,424.4824,793.5,428.4824,789.5,424.4824" style="stroke:#181818;stroke-width:1.0;"/><line style="stroke:#181818;stroke-width:1.0;" x1="787.5" x2="1116" y1="424.4824" y2="424.4824"/><text fill="#000000" font-family="sans-serif" font-size="13" font-weight="bold" lengthAdjust="spacing" textLength="7" x="799.5" y="419.2197">9</text><text fill="#000000" font-family="sans-serif" font-size="13" lengthAdjust="spacing" textLength="90" x="810.5" y="419.2197">returns courses</text><polygon fill="#181818" points="203.5,451.7734,193.5,455.7734,203.5,459.7734,199.5,455.7734" style="stroke:#181818;stroke-width:1.0;"/><line style="stroke:#181818;stroke-width:1.0;" x1="197.5" x2="776.5" y1="455.7734" y2="455.7734"/><text fill="#000000" font-family="sans-serif" font-size="13" font-weight="bold" lengthAdjust="spacing" textLength="14" x="209.5" y="450.5107">10</text><text fill="#000000" font-family="sans-serif" font-size="13" lengthAdjust="spacing" textLength="90" x="227.5" y="450.5107">returns courses</text><polygon fill="#181818" points="60.5,483.0645,50.5,487.0645,60.5,491.0645,56.5,487.0645" style="stroke:#181818;stroke-width:1.0;"/><line style="stroke:#181818;stroke-width:1.0;stroke-dasharray:2.0,2.0;" x1="54.5" x2="181.5" y1="487.0645" y2="487.0645"/><text fill="#000000" font-family="sans-serif" font-size="13" font-weight="bold" lengthAdjust="spacing" textLength="14" x="66.5" y="481.8018">11</text><text fill="#000000" font-family="sans-serif" font-size="13" lengthAdjust="spacing" textLength="91" x="84.5" y="481.8018">display courses</text><polygon fill="#181818" points="170.5,514.3555,180.5,518.3555,170.5,522.3555,174.5,518.3555" style="stroke:#181818;stroke-width:1.0;"/><line style="stroke:#181818;stroke-width:1.0;stroke-dasharray:2.0,2.0;" x1="49.5" x2="176.5" y1="518.3555" y2="518.3555"/><text fill="#000000" font-family="sans-serif" font-size="13" font-weight="bold" lengthAdjust="spacing" textLength="14" x="56.5" y="513.0928">12</text><text fill="#000000" font-family="sans-serif" font-size="13" lengthAdjust="spacing" textLength="78" x="74.5" y="513.0928">select course</text><polygon fill="#181818" points="760.5,545.6465,770.5,549.6465,760.5,553.6465,764.5,549.6465" style="stroke:#181818;stroke-width:1.0;"/><line style="stroke:#181818;stroke-width:1.0;" x1="192.5" x2="766.5" y1="549.6465" y2="549.6465"/><text fill="#000000" font-family="sans-serif" font-size="13" font-weight="bold" lengthAdjust="spacing" textLength="14" x="199.5" y="544.3838">13</text><text fill="#000000" font-family="sans-serif" font-size="13" lengthAdjust="spacing" textLength="146" x="217.5" y="544.3838">listCourseExams(course)</text><polygon fill="#181818" points="1273.5,576.9375,1283.5,580.9375,1273.5,584.9375,1277.5,580.9375" style="stroke:#181818;stroke-width:1.0;"/><line style="stroke:#181818;stroke-width:1.0;" x1="782.5" x2="1279.5" y1="580.9375" y2="580.9375"/><text fill="#000000" font-family="sans-serif" font-size="13" font-weight="bold" lengthAdjust="spacing" textLength="14" x="789.5" y="575.6748">14</text><text fill="#000000" font-family="sans-serif" font-size="13" lengthAdjust="spacing" textLength="166" x="807.5" y="575.6748">provideSolvedExams(course)</text><path d="M1300,593.9375 L1300,620.9375 L1604,620.9375 L1604,603.9375 L1594,593.9375 L1300,593.9375 " fill="#FEFFDD" style="stroke:#181818;stroke-width:0.5;"/><path d="M1594,593.9375 L1594,603.9375 L1604,603.9375 L1594,593.9375 " fill="#FEFFDD" style="stroke:#181818;stroke-width:0.5;"/><text fill="#000000" font-family="sans-serif" font-size="13" lengthAdjust="spacing" textLength="283" x="1306" y="612.9658">returns exams that have been solved by students</text><polygon fill="#181818" points="793.5,645.5195,783.5,649.5195,793.5,653.5195,789.5,649.5195" style="stroke:#181818;stroke-width:1.0;"/><line style="stroke:#181818;stroke-width:1.0;" x1="787.5" x2="1289.5" y1="649.5195" y2="649.5195"/><text fill="#000000" font-family="sans-serif" font-size="13" font-weight="bold" lengthAdjust="spacing" textLength="14" x="799.5" y="644.2568">15</text><text fill="#000000" font-family="sans-serif" font-size="13" lengthAdjust="spacing" textLength="83" x="817.5" y="644.2568">returns exams</text><polygon fill="#181818" points="203.5,676.8105,193.5,680.8105,203.5,684.8105,199.5,680.8105" style="stroke:#181818;stroke-width:1.0;"/><line style="stroke:#181818;stroke-width:1.0;" x1="197.5" x2="776.5" y1="680.8105" y2="680.8105"/><text fill="#000000" font-family="sans-serif" font-size="13" font-weight="bold" lengthAdjust="spacing" textLength="14" x="209.5" y="675.5479">16</text><text fill="#000000" font-family="sans-serif" font-size="13" lengthAdjust="spacing" textLength="83" x="227.5" y="675.5479">returns exams</text><path d="M10,695.8105 L83,695.8105 L83,705.1016 L73,715.1016 L10,715.1016 L10,695.8105 " fill="#EEEEEE" style="stroke:#000000;stroke-width:1.5;"/><rect fill="none" height="300.9102" style="stroke:#000000;stroke-width:1.5;" width="1693" x="10" y="695.8105"/><text fill="#000000" font-family="sans-serif" font-size="13" font-weight="bold" lengthAdjust="spacing" textLength="28" x="25" y="710.8389">loop</text><text fill="#000000" font-family="sans-serif" font-size="11" font-weight="bold" lengthAdjust="spacing" textLength="205" x="98" y="709.6807">[while teacher wants to view grades]</text><polygon fill="#181818" points="60.5,734.3926,50.5,738.3926,60.5,742.3926,56.5,738.3926" style="stroke:#181818;stroke-width:1.0;"/><line style="stroke:#181818;stroke-width:1.0;stroke-dasharray:2.0,2.0;" x1="54.5" x2="181.5" y1="738.3926" y2="738.3926"/><text fill="#000000" font-family="sans-serif" font-size="13" font-weight="bold" lengthAdjust="spacing" textLength="14" x="66.5" y="733.1299">17</text><text fill="#000000" font-family="sans-serif" font-size="13" lengthAdjust="spacing" textLength="84" x="84.5" y="733.1299">display exams</text><polygon fill="#181818" points="170.5,765.6836,180.5,769.6836,170.5,773.6836,174.5,769.6836" style="stroke:#181818;stroke-width:1.0;"/><line style="stroke:#181818;stroke-width:1.0;stroke-dasharray:2.0,2.0;" x1="49.5" x2="176.5" y1="769.6836" y2="769.6836"/><text fill="#000000" font-family="sans-serif" font-size="13" font-weight="bold" lengthAdjust="spacing" textLength="14" x="56.5" y="764.4209">18</text><text fill="#000000" font-family="sans-serif" font-size="13" lengthAdjust="spacing" textLength="71" x="74.5" y="764.4209">select exam</text><polygon fill="#181818" points="760.5,796.9746,770.5,800.9746,760.5,804.9746,764.5,800.9746" style="stroke:#181818;stroke-width:1.0;"/><line style="stroke:#181818;stroke-width:1.0;" x1="192.5" x2="766.5" y1="800.9746" y2="800.9746"/><text fill="#000000" font-family="sans-serif" font-size="13" font-weight="bold" lengthAdjust="spacing" textLength="14" x="199.5" y="795.7119">19</text><text fill="#000000" font-family="sans-serif" font-size="13" lengthAdjust="spacing" textLength="133" x="217.5" y="795.7119">listTakenExams(exam)</text><polygon fill="#181818" points="1431,828.2656,1441,832.2656,1431,836.2656,1435,832.2656" style="stroke:#181818;stroke-width:1.0;"/><line style="stroke:#181818;stroke-width:1.0;" x1="782.5" x2="1437" y1="832.2656" y2="832.2656"/><text fill="#000000" font-family="sans-serif" font-size="13" font-weight="bold" lengthAdjust="spacing" textLength="14" x="789.5" y="827.0029">20</text><text fill="#000000" font-family="sans-serif" font-size="13" lengthAdjust="spacing" textLength="133" x="807.5" y="827.0029">listTakenExams(exam)</text><polygon fill="#181818" points="1602,859.5566,1612,863.5566,1602,867.5566,1606,863.5566" style="stroke:#181818;stroke-width:1.0;"/><line style="stroke:#181818;stroke-width:1.0;" x1="1453" x2="1608" y1="863.5566" y2="863.5566"/><text fill="#000000" font-family="sans-serif" font-size="13" font-weight="bold" lengthAdjust="spacing" textLength="14" x="1460" y="858.2939">21</text><text fill="#000000" font-family="sans-serif" font-size="13" lengthAdjust="spacing" textLength="110" x="1478" y="858.2939">findByExam(exam)</text><polygon fill="#181818" points="1464,890.8477,1454,894.8477,1464,898.8477,1460,894.8477" style="stroke:#181818;stroke-width:1.0;"/><line style="stroke:#181818;stroke-width:1.0;" x1="1458" x2="1618" y1="894.8477" y2="894.8477"/><text fill="#000000" font-family="sans-serif" font-size="13" font-weight="bold" lengthAdjust="spacing" textLength="14" x="1470" y="889.585">22</text><text fill="#000000" font-family="sans-serif" font-size="13" lengthAdjust="spacing" textLength="119" x="1488" y="889.585">returns taken exams</text><polygon fill="#181818" points="793.5,922.1387,783.5,926.1387,793.5,930.1387,789.5,926.1387" style="stroke:#181818;stroke-width:1.0;"/><line style="stroke:#181818;stroke-width:1.0;" x1="787.5" x2="1447" y1="926.1387" y2="926.1387"/><text fill="#000000" font-family="sans-serif" font-size="13" font-weight="bold" lengthAdjust="spacing" textLength="14" x="799.5" y="920.876">23</text><text fill="#000000" font-family="sans-serif" font-size="13" lengthAdjust="spacing" textLength="119" x="817.5" y="920.876">returns taken exams</text><polygon fill="#181818" points="203.5,953.4297,193.5,957.4297,203.5,961.4297,199.5,957.4297" style="stroke:#181818;stroke-width:1.0;"/><line style="stroke:#181818;stroke-width:1.0;" x1="197.5" x2="776.5" y1="957.4297" y2="957.4297"/><text fill="#000000" font-family="sans-serif" font-size="13" font-weight="bold" lengthAdjust="spacing" textLength="14" x="209.5" y="952.167">24</text><text fill="#000000" font-family="sans-serif" font-size="13" lengthAdjust="spacing" textLength="119" x="227.5" y="952.167">returns taken exams</text><polygon fill="#181818" points="60.5,984.7207,50.5,988.7207,60.5,992.7207,56.5,988.7207" style="stroke:#181818;stroke-width:1.0;"/><line style="stroke:#181818;stroke-width:1.0;stroke-dasharray:2.0,2.0;" x1="54.5" x2="181.5" y1="988.7207" y2="988.7207"/><text fill="#000000" font-family="sans-serif" font-size="13" font-weight="bold" lengthAdjust="spacing" textLength="14" x="66.5" y="983.458">25</text><text fill="#000000" font-family="sans-serif" font-size="13" lengthAdjust="spacing" textLength="84" x="84.5" y="983.458">display grades</text><!--SRC=[ZLN1Zjem4BtxAqPxOgNT7q0hfEssMY5ng1hetSH3i1hir7P2-VkEdGJiX6JXPCRptepV6pjEkXBXjyGpRAHre0_mQRX0wrS__l5JM73uqBMn2A-GuTyQLOxmNVB2y1DZl7PQrQSz6iPpfmriaUT7DC0jR5d5ZPEvhBXoyEJhUDAsn6xzv7DsQtXxswrNgxdS3wsSqMM99c1kVmdxNbMbpBcJMWr9TXPDXjRILeQcaJcs9RDvM7U2zj3sfz6D5DVAFjQ7vcdQtA1Ymk4ZZp5i-HzKSNh0Zw8Z4i4TttCoxCRm2ojj9VbpIJbydF2tROBJZwoK3NT8zh3NbJTf2LfjD1UCrgyKYZnOGcwGaXVrIEyNSB6OVSSla8_5eTpXoPvlZTpgiQYqxosZ1Wfq6rqKABpbYmYsonWb3Firw6gZB9G10xvl9Z06fJKIS8D67Yw-qDfseq8LOq2dM4mPjHyK772MTFlIiLiySlR1E2wXQfU-kNUFnfwjio4XZR5iG3MbMEkRJOys84hSMNy5JdKXo9OGGjggv9ShOdiL5IoMcBjkPrBCwF8jsjH7z4nkrLNDJ9SDYWck6CAOqXGoiZYw_WMDw7ePC3oixiWT77c3i4TKO4CHs5_0kbgWSfQn13_bI62B9Kqwcd5Z18ozABMku7oKz7deHWVEz2PHsneQ_xqemiFCW7vtV6kv_UROER_7hi1x5w5_1kp2vpw7t7jT-dXwmF7R-0Zb2DLsFkAA2uI7Sma7gSItYm_C4llib3JW9phk7GhlOQHbvDKCyvSJymXjeiJC4CrmnUCqCIRT435KWh7_]--></g></svg>