<?xml version="1.0" encoding="us-ascii" standalone="no"?><svg xmlns="http://www.w3.org/2000/svg" xmlns:xlink="http://www.w3.org/1999/xlink" contentStyleType="text/css" height="384px" preserveAspectRatio="none" style="width:1737px;height:384px;background:#FFFFFF;" version="1.1" viewBox="0 0 1737 384" width="1737.6px" zoomAndPan="magnify"><defs/><g><!--cluster ui--><g id="cluster_ui"><rect fill="none" height="80.8" rx="2" ry="2" style="stroke:#000000;stroke-width:1.2000000000000002;" width="148" x="5.6" y="78.4"/><text fill="#000000" font-family="FG Virgil" font-size="11.2" font-weight="bold" lengthAdjust="spacing" textLength="10.4" x="74.4" y="92.0859">ui</text></g><!--cluster exammanagement--><g id="cluster_exammanagement"><rect fill="none" height="202.4" rx="2" ry="2" style="stroke:#000000;stroke-width:1.2000000000000002;" width="1560" x="172.8" y="5.6"/><text fill="#000000" font-family="FG Virgil" font-size="11.2" font-weight="bold" lengthAdjust="spacing" textLength="101.6" x="902" y="19.2859">exammanagement</text></g><!--cluster application--><g id="cluster_application"><rect fill="none" height="140" rx="2" ry="2" style="stroke:#000000;stroke-width:1.2000000000000002;" width="817.6" x="192" y="48.8"/><text fill="#000000" font-family="FG Virgil" font-size="11.2" font-weight="bold" lengthAdjust="spacing" textLength="61.6" x="570" y="62.4859">application</text></g><!--cluster domain--><g id="cluster_domain"><rect fill="none" height="147.2" rx="2" ry="2" style="stroke:#000000;stroke-width:1.2000000000000002;" width="233.6" x="1480" y="41.6"/><text fill="#000000" font-family="FG Virgil" font-size="11.2" font-weight="bold" lengthAdjust="spacing" textLength="40.8" x="1576.4" y="55.2859">domain</text></g><!--cluster repository--><g id="cluster_repository"><rect fill="none" height="111.2" rx="2" ry="2" style="stroke:#000000;stroke-width:1.2000000000000002;" width="376.8" x="1032" y="63.2"/><text fill="#000000" font-family="FG Virgil" font-size="11.2" font-weight="bold" lengthAdjust="spacing" textLength="57.6" x="1191.6" y="76.8859">repository</text></g><!--cluster coursemanagement--><g id="cluster_coursemanagement"><rect fill="none" height="152" rx="2" ry="2" style="stroke:#000000;stroke-width:1.2000000000000002;" width="288" x="683.2" y="227.2"/><text fill="#000000" font-family="FG Virgil" font-size="11.2" font-weight="bold" lengthAdjust="spacing" textLength="111.2" x="771.6" y="240.8859">coursemanagement</text></g><!--cluster application--><g id="cluster_application"><rect fill="none" height="96.8" rx="2" ry="2" style="stroke:#000000;stroke-width:1.2000000000000002;" width="249.6" x="702.4" y="263.2"/><text fill="#000000" font-family="FG Virgil" font-size="11.2" font-weight="bold" lengthAdjust="spacing" textLength="61.6" x="796.4" y="276.8859">application</text></g><!--class ListCourseExamsUI--><g id="elem_ListCourseExamsUI"><rect codeLine="10" fill="#F1F1F1" height="38.4" id="ListCourseExamsUI" rx="2" ry="2" style="stroke:#181818;stroke-width:0.4000000000000001;" width="122.4" x="18.4" y="108"/><ellipse cx="30.4" cy="120.8" fill="#ADD1B2" rx="8.8" ry="8.8" style="stroke:#181818;stroke-width:0.8000000000000002;"/><path d="M32.6125,117.5 Q32.7375,117.325 32.8875,117.2375 Q33.0375,117.15 33.2125,117.15 Q33.5125,117.15 33.7,117.3625 Q33.8875,117.5625 33.8875,118.05 L33.8875,119.2125 Q33.8875,119.7 33.7,119.9125 Q33.5125,120.125 33.2125,120.125 Q32.9375,120.125 32.775,119.9625 Q32.6125,119.8125 32.525,119.4 Q32.4875,119.1125 32.3375,118.9625 Q32.075,118.6625 31.5875,118.4875 Q31.1,118.3125 30.6,118.3125 Q29.9875,118.3125 29.475,118.575 Q28.975,118.8375 28.575,119.4375 Q28.1875,120.0375 28.1875,120.8625 L28.1875,121.7375 Q28.1875,122.725 28.9,123.3875 Q29.6125,124.0375 30.8875,124.0375 Q31.6375,124.0375 32.1625,123.8375 Q32.475,123.7125 32.8125,123.3625 Q33.025,123.15 33.1375,123.0875 Q33.2625,123.025 33.425,123.025 Q33.6875,123.025 33.8875,123.2375 Q34.1,123.4375 34.1,123.7125 Q34.1,123.9875 33.825,124.3125 Q33.425,124.775 32.7875,125.0375 Q31.925,125.4 30.8875,125.4 Q29.675,125.4 28.7125,124.9 Q27.925,124.5 27.375,123.65 Q26.825,122.7875 26.825,121.7625 L26.825,120.8375 Q26.825,119.775 27.3125,118.8625 Q27.8125,117.9375 28.6875,117.45 Q29.5625,116.95 30.55,116.95 Q31.1375,116.95 31.65,117.0875 Q32.175,117.2125 32.6125,117.5 Z " fill="#000000"/><text fill="#000000" font-family="FG Virgil" font-size="11.2" lengthAdjust="spacing" textLength="96.8" x="41.6" y="125.4375">ListCourseExamsUI</text><line style="stroke:#181818;stroke-width:0.4000000000000001;" x1="19.2" x2="140" y1="133.6" y2="133.6"/><line style="stroke:#181818;stroke-width:0.4000000000000001;" x1="19.2" x2="140" y1="140" y2="140"/></g><!--class ListCourseExamsController--><g id="elem_ListCourseExamsController"><rect codeLine="18" fill="#F1F1F1" height="97.9875" id="ListCourseExamsController" rx="2" ry="2" style="stroke:#181818;stroke-width:0.4000000000000001;" width="404.8" x="204.8" y="78.4"/><ellipse cx="335.4" cy="91.2" fill="#ADD1B2" rx="8.8" ry="8.8" style="stroke:#181818;stroke-width:0.8000000000000002;"/><path d="M337.6125,87.9 Q337.7375,87.725 337.8875,87.6375 Q338.0375,87.55 338.2125,87.55 Q338.5125,87.55 338.7,87.7625 Q338.8875,87.9625 338.8875,88.45 L338.8875,89.6125 Q338.8875,90.1 338.7,90.3125 Q338.5125,90.525 338.2125,90.525 Q337.9375,90.525 337.775,90.3625 Q337.6125,90.2125 337.525,89.8 Q337.4875,89.5125 337.3375,89.3625 Q337.075,89.0625 336.5875,88.8875 Q336.1,88.7125 335.6,88.7125 Q334.9875,88.7125 334.475,88.975 Q333.975,89.2375 333.575,89.8375 Q333.1875,90.4375 333.1875,91.2625 L333.1875,92.1375 Q333.1875,93.125 333.9,93.7875 Q334.6125,94.4375 335.8875,94.4375 Q336.6375,94.4375 337.1625,94.2375 Q337.475,94.1125 337.8125,93.7625 Q338.025,93.55 338.1375,93.4875 Q338.2625,93.425 338.425,93.425 Q338.6875,93.425 338.8875,93.6375 Q339.1,93.8375 339.1,94.1125 Q339.1,94.3875 338.825,94.7125 Q338.425,95.175 337.7875,95.4375 Q336.925,95.8 335.8875,95.8 Q334.675,95.8 333.7125,95.3 Q332.925,94.9 332.375,94.05 Q331.825,93.1875 331.825,92.1625 L331.825,91.2375 Q331.825,90.175 332.3125,89.2625 Q332.8125,88.3375 333.6875,87.85 Q334.5625,87.35 335.55,87.35 Q336.1375,87.35 336.65,87.4875 Q337.175,87.6125 337.6125,87.9 Z " fill="#000000"/><text fill="#000000" font-family="FG Virgil" font-size="11.2" lengthAdjust="spacing" textLength="136.8" x="351.8" y="95.8375">ListCourseExamsController</text><line style="stroke:#181818;stroke-width:0.4000000000000001;" x1="205.6" x2="608.8" y1="104" y2="104"/><line style="stroke:#181818;stroke-width:0.4000000000000001;" x1="205.6" x2="608.8" y1="110.4" y2="110.4"/><ellipse cx="213.6" cy="122.2484" fill="#84BE84" rx="2.4" ry="2.4" style="stroke:#038048;stroke-width:0.8000000000000002;"/><text fill="#000000" font-family="FG Virgil" font-size="11.2" lengthAdjust="spacing" textLength="384" x="220.8" y="125.6859">ListCourseExamsController(teacherCoursesProvider, courseExamsProvider)</text><ellipse cx="213.6" cy="137.1453" fill="#84BE84" rx="2.4" ry="2.4" style="stroke:#038048;stroke-width:0.8000000000000002;"/><text fill="#000000" font-family="FG Virgil" font-size="11.2" lengthAdjust="spacing" textLength="220.8" x="220.8" y="140.5828">teacherCourses(teacher): Iterable&lt;Course&gt;</text><ellipse cx="213.6" cy="152.0422" fill="#84BE84" rx="2.4" ry="2.4" style="stroke:#038048;stroke-width:0.8000000000000002;"/><text fill="#000000" font-family="FG Virgil" font-size="11.2" lengthAdjust="spacing" textLength="193.6" x="220.8" y="155.4797">courseExams(course): Iterable&lt;Exam&gt;</text><rect fill="#F24D5C" height="4.8" style="stroke:#C82930;stroke-width:0.8000000000000002;" width="4.8" x="211.2" y="164.5391"/><text fill="#000000" font-family="FG Virgil" font-size="11.2" lengthAdjust="spacing" textLength="124" x="220.8" y="170.3766">verifyLoggedUser(): void</text></g><!--class ICourseExamsProvider--><g id="elem_ICourseExamsProvider"><rect codeLine="27" fill="#F1F1F1" height="68.1938" id="ICourseExamsProvider" rx="2" ry="2" style="stroke:#181818;stroke-width:0.4000000000000001;" width="339.2" x="657.6" y="93.2"/><ellipse cx="766.6" cy="106" fill="#B4A7E5" rx="8.8" ry="8.8" style="stroke:#181818;stroke-width:0.8000000000000002;"/><path d="M767.3625,103.3125 L767.3625,108.6375 L768.7375,108.6375 Q769.225,108.6375 769.4375,108.825 Q769.65,109.0125 769.65,109.325 Q769.65,109.625 769.4375,109.8125 Q769.225,110 768.7375,110 L764.625,110 Q764.1375,110 763.925,109.8125 Q763.7125,109.625 763.7125,109.3125 Q763.7125,109.0125 763.925,108.825 Q764.1375,108.6375 764.625,108.6375 L766,108.6375 L766,103.3125 L764.625,103.3125 Q764.1375,103.3125 763.925,103.125 Q763.7125,102.9375 763.7125,102.625 Q763.7125,102.325 763.925,102.1375 Q764.1375,101.95 764.625,101.95 L768.7375,101.95 Q769.225,101.95 769.4375,102.1375 Q769.65,102.325 769.65,102.625 Q769.65,102.9375 769.4375,103.125 Q769.225,103.3125 768.7375,103.3125 L767.3625,103.3125 Z " fill="#000000"/><text fill="#000000" font-family="FG Virgil" font-size="11.2" font-style="italic" lengthAdjust="spacing" textLength="114.4" x="783" y="110.6375">ICourseExamsProvider</text><line style="stroke:#181818;stroke-width:0.4000000000000001;" x1="658.4" x2="996" y1="118.8" y2="118.8"/><line style="stroke:#181818;stroke-width:0.4000000000000001;" x1="658.4" x2="996" y1="125.2" y2="125.2"/><ellipse cx="666.4" cy="137.0484" fill="#84BE84" rx="2.4" ry="2.4" style="stroke:#038048;stroke-width:0.8000000000000002;"/><text fill="#000000" font-family="FG Virgil" font-size="11.2" lengthAdjust="spacing" textLength="310.4" x="673.6" y="140.4859">listCourseFormativeExams(course): Iterable&lt;FormativeExam&gt;</text><ellipse cx="666.4" cy="151.9453" fill="#84BE84" rx="2.4" ry="2.4" style="stroke:#038048;stroke-width:0.8000000000000002;"/><text fill="#000000" font-family="FG Virgil" font-size="11.2" lengthAdjust="spacing" textLength="318.4" x="673.6" y="155.3828">listCourseAutomatedExams(course): Iterable&lt;AutomatedExam&gt;</text></g><!--class Exam--><g id="elem_Exam"><rect codeLine="38" fill="#F1F1F1" height="38.4" id="Exam" rx="2" ry="2" style="stroke:#181818;stroke-width:0.4000000000000001;" width="52.8" x="1492.8" y="108"/><ellipse cx="1504.8" cy="120.8" fill="#A9DCDF" rx="8.8" ry="8.8" style="stroke:#181818;stroke-width:0.8000000000000002;"/><path d="M1506.55,122.2125 L1503.2375,122.2125 L1502.9,123.0375 L1503.2375,123.0375 Q1503.725,123.0375 1503.9375,123.225 Q1504.15,123.4125 1504.15,123.725 Q1504.15,124.025 1503.9375,124.2125 Q1503.725,124.4 1503.2375,124.4 L1501.4,124.4 Q1500.9125,124.4 1500.7125,124.2125 Q1500.5,124.025 1500.5,123.7125 Q1500.5,123.4125 1500.725,123.225 Q1500.9375,123.025 1501.4375,123.0375 L1503.575,117.7125 L1502.6875,117.7125 Q1502.2,117.7125 1501.9875,117.525 Q1501.775,117.3375 1501.775,117.025 Q1501.775,116.725 1501.9875,116.5375 Q1502.2,116.35 1502.6875,116.35 L1505.625,116.35 L1508.3375,123.0375 Q1508.8125,123.0375 1508.9625,123.15 Q1509.275,123.3625 1509.275,123.725 Q1509.275,124.025 1509.0625,124.2125 Q1508.8625,124.4 1508.375,124.4 L1506.5375,124.4 Q1506.05,124.4 1505.8375,124.2125 Q1505.625,124.025 1505.625,123.7125 Q1505.625,123.4125 1505.8375,123.225 Q1506.05,123.0375 1506.5375,123.0375 L1506.875,123.0375 L1506.55,122.2125 Z M1505.975,120.85 L1504.8875,118.15 L1503.7875,120.85 L1505.975,120.85 Z " fill="#000000"/><text fill="#000000" font-family="FG Virgil" font-size="11.2" font-style="italic" lengthAdjust="spacing" textLength="27.2" x="1516" y="125.4375">Exam</text><line style="stroke:#181818;stroke-width:0.4000000000000001;" x1="1493.6" x2="1544.8" y1="133.6" y2="133.6"/><line style="stroke:#181818;stroke-width:0.4000000000000001;" x1="1493.6" x2="1544.8" y1="140" y2="140"/></g><!--class FormativeExam--><g id="elem_FormativeExam"><rect codeLine="40" fill="#F1F1F1" height="38.4" id="FormativeExam" rx="2" ry="2" style="stroke:#181818;stroke-width:0.4000000000000001;" width="103.2" x="1595.6" y="137.6"/><ellipse cx="1607.6" cy="150.4" fill="#ADD1B2" rx="8.8" ry="8.8" style="stroke:#181818;stroke-width:0.8000000000000002;"/><path d="M1609.8125,147.1 Q1609.9375,146.925 1610.0875,146.8375 Q1610.2375,146.75 1610.4125,146.75 Q1610.7125,146.75 1610.9,146.9625 Q1611.0875,147.1625 1611.0875,147.65 L1611.0875,148.8125 Q1611.0875,149.3 1610.9,149.5125 Q1610.7125,149.725 1610.4125,149.725 Q1610.1375,149.725 1609.975,149.5625 Q1609.8125,149.4125 1609.725,149 Q1609.6875,148.7125 1609.5375,148.5625 Q1609.275,148.2625 1608.7875,148.0875 Q1608.3,147.9125 1607.8,147.9125 Q1607.1875,147.9125 1606.675,148.175 Q1606.175,148.4375 1605.775,149.0375 Q1605.3875,149.6375 1605.3875,150.4625 L1605.3875,151.3375 Q1605.3875,152.325 1606.1,152.9875 Q1606.8125,153.6375 1608.0875,153.6375 Q1608.8375,153.6375 1609.3625,153.4375 Q1609.675,153.3125 1610.0125,152.9625 Q1610.225,152.75 1610.3375,152.6875 Q1610.4625,152.625 1610.625,152.625 Q1610.8875,152.625 1611.0875,152.8375 Q1611.3,153.0375 1611.3,153.3125 Q1611.3,153.5875 1611.025,153.9125 Q1610.625,154.375 1609.9875,154.6375 Q1609.125,155 1608.0875,155 Q1606.875,155 1605.9125,154.5 Q1605.125,154.1 1604.575,153.25 Q1604.025,152.3875 1604.025,151.3625 L1604.025,150.4375 Q1604.025,149.375 1604.5125,148.4625 Q1605.0125,147.5375 1605.8875,147.05 Q1606.7625,146.55 1607.75,146.55 Q1608.3375,146.55 1608.85,146.6875 Q1609.375,146.8125 1609.8125,147.1 Z " fill="#000000"/><text fill="#000000" font-family="FG Virgil" font-size="11.2" lengthAdjust="spacing" textLength="77.6" x="1618.8" y="155.0375">FormativeExam</text><line style="stroke:#181818;stroke-width:0.4000000000000001;" x1="1596.4" x2="1698" y1="163.2" y2="163.2"/><line style="stroke:#181818;stroke-width:0.4000000000000001;" x1="1596.4" x2="1698" y1="169.6" y2="169.6"/></g><!--class AutomatedExam--><g id="elem_AutomatedExam"><rect codeLine="42" fill="#F1F1F1" height="38.4" id="AutomatedExam" rx="2" ry="2" style="stroke:#181818;stroke-width:0.4000000000000001;" width="107.2" x="1593.6" y="71.2"/><ellipse cx="1605.6" cy="84" fill="#ADD1B2" rx="8.8" ry="8.8" style="stroke:#181818;stroke-width:0.8000000000000002;"/><path d="M1607.8125,80.7 Q1607.9375,80.525 1608.0875,80.4375 Q1608.2375,80.35 1608.4125,80.35 Q1608.7125,80.35 1608.9,80.5625 Q1609.0875,80.7625 1609.0875,81.25 L1609.0875,82.4125 Q1609.0875,82.9 1608.9,83.1125 Q1608.7125,83.325 1608.4125,83.325 Q1608.1375,83.325 1607.975,83.1625 Q1607.8125,83.0125 1607.725,82.6 Q1607.6875,82.3125 1607.5375,82.1625 Q1607.275,81.8625 1606.7875,81.6875 Q1606.3,81.5125 1605.8,81.5125 Q1605.1875,81.5125 1604.675,81.775 Q1604.175,82.0375 1603.775,82.6375 Q1603.3875,83.2375 1603.3875,84.0625 L1603.3875,84.9375 Q1603.3875,85.925 1604.1,86.5875 Q1604.8125,87.2375 1606.0875,87.2375 Q1606.8375,87.2375 1607.3625,87.0375 Q1607.675,86.9125 1608.0125,86.5625 Q1608.225,86.35 1608.3375,86.2875 Q1608.4625,86.225 1608.625,86.225 Q1608.8875,86.225 1609.0875,86.4375 Q1609.3,86.6375 1609.3,86.9125 Q1609.3,87.1875 1609.025,87.5125 Q1608.625,87.975 1607.9875,88.2375 Q1607.125,88.6 1606.0875,88.6 Q1604.875,88.6 1603.9125,88.1 Q1603.125,87.7 1602.575,86.85 Q1602.025,85.9875 1602.025,84.9625 L1602.025,84.0375 Q1602.025,82.975 1602.5125,82.0625 Q1603.0125,81.1375 1603.8875,80.65 Q1604.7625,80.15 1605.75,80.15 Q1606.3375,80.15 1606.85,80.2875 Q1607.375,80.4125 1607.8125,80.7 Z " fill="#000000"/><text fill="#000000" font-family="FG Virgil" font-size="11.2" lengthAdjust="spacing" textLength="81.6" x="1616.8" y="88.6375">AutomatedExam</text><line style="stroke:#181818;stroke-width:0.4000000000000001;" x1="1594.4" x2="1700" y1="96.8" y2="96.8"/><line style="stroke:#181818;stroke-width:0.4000000000000001;" x1="1594.4" x2="1700" y1="103.2" y2="103.2"/></g><!--class IExamRepository--><g id="elem_IExamRepository"><rect codeLine="48" fill="#F1F1F1" height="68.1938" id="IExamRepository" rx="2" ry="2" style="stroke:#181818;stroke-width:0.4000000000000001;" width="351.2" x="1044.8" y="93.2"/><ellipse cx="1174.6" cy="106" fill="#B4A7E5" rx="8.8" ry="8.8" style="stroke:#181818;stroke-width:0.8000000000000002;"/><path d="M1175.3625,103.3125 L1175.3625,108.6375 L1176.7375,108.6375 Q1177.225,108.6375 1177.4375,108.825 Q1177.65,109.0125 1177.65,109.325 Q1177.65,109.625 1177.4375,109.8125 Q1177.225,110 1176.7375,110 L1172.625,110 Q1172.1375,110 1171.925,109.8125 Q1171.7125,109.625 1171.7125,109.3125 Q1171.7125,109.0125 1171.925,108.825 Q1172.1375,108.6375 1172.625,108.6375 L1174,108.6375 L1174,103.3125 L1172.625,103.3125 Q1172.1375,103.3125 1171.925,103.125 Q1171.7125,102.9375 1171.7125,102.625 Q1171.7125,102.325 1171.925,102.1375 Q1172.1375,101.95 1172.625,101.95 L1176.7375,101.95 Q1177.225,101.95 1177.4375,102.1375 Q1177.65,102.325 1177.65,102.625 Q1177.65,102.9375 1177.4375,103.125 Q1177.225,103.3125 1176.7375,103.3125 L1175.3625,103.3125 Z " fill="#000000"/><text fill="#000000" font-family="FG Virgil" font-size="11.2" font-style="italic" lengthAdjust="spacing" textLength="84.8" x="1191" y="110.6375">IExamRepository</text><line style="stroke:#181818;stroke-width:0.4000000000000001;" x1="1045.6" x2="1395.2" y1="118.8" y2="118.8"/><line style="stroke:#181818;stroke-width:0.4000000000000001;" x1="1045.6" x2="1395.2" y1="125.2" y2="125.2"/><ellipse cx="1053.6" cy="137.0484" fill="#84BE84" rx="2.4" ry="2.4" style="stroke:#038048;stroke-width:0.8000000000000002;"/><text fill="#000000" font-family="FG Virgil" font-size="11.2" lengthAdjust="spacing" textLength="322.4" x="1060.8" y="140.4859">findFormativeExamByCourse(course): Iterable&lt;FormativeExam&gt;</text><ellipse cx="1053.6" cy="151.9453" fill="#84BE84" rx="2.4" ry="2.4" style="stroke:#038048;stroke-width:0.8000000000000002;"/><text fill="#000000" font-family="FG Virgil" font-size="11.2" lengthAdjust="spacing" textLength="330.4" x="1060.8" y="155.3828">findAutomatedExamByCourse(course): Iterable&lt;AutomatedExam&gt;</text></g><!--class IUserCoursesProvider--><g id="elem_IUserCoursesProvider"><rect codeLine="63" fill="#F1F1F1" height="53.2969" id="IUserCoursesProvider" rx="2" ry="2" style="stroke:#181818;stroke-width:0.4000000000000001;" width="224" x="715.2" y="293.2"/><ellipse cx="768.2" cy="306" fill="#B4A7E5" rx="8.8" ry="8.8" style="stroke:#181818;stroke-width:0.8000000000000002;"/><path d="M768.9625,303.3125 L768.9625,308.6375 L770.3375,308.6375 Q770.825,308.6375 771.0375,308.825 Q771.25,309.0125 771.25,309.325 Q771.25,309.625 771.0375,309.8125 Q770.825,310 770.3375,310 L766.225,310 Q765.7375,310 765.525,309.8125 Q765.3125,309.625 765.3125,309.3125 Q765.3125,309.0125 765.525,308.825 Q765.7375,308.6375 766.225,308.6375 L767.6,308.6375 L767.6,303.3125 L766.225,303.3125 Q765.7375,303.3125 765.525,303.125 Q765.3125,302.9375 765.3125,302.625 Q765.3125,302.325 765.525,302.1375 Q765.7375,301.95 766.225,301.95 L770.3375,301.95 Q770.825,301.95 771.0375,302.1375 Q771.25,302.325 771.25,302.625 Q771.25,302.9375 771.0375,303.125 Q770.825,303.3125 770.3375,303.3125 L768.9625,303.3125 Z " fill="#000000"/><text fill="#000000" font-family="FG Virgil" font-size="11.2" font-style="italic" lengthAdjust="spacing" textLength="111.2" x="784.6" y="310.6375">IUserCoursesProvider</text><line style="stroke:#181818;stroke-width:0.4000000000000001;" x1="716" x2="938.4" y1="318.8" y2="318.8"/><line style="stroke:#181818;stroke-width:0.4000000000000001;" x1="716" x2="938.4" y1="325.2" y2="325.2"/><ellipse cx="724" cy="337.0484" fill="#84BE84" rx="2.4" ry="2.4" style="stroke:#038048;stroke-width:0.8000000000000002;"/><text fill="#000000" font-family="FG Virgil" font-size="11.2" lengthAdjust="spacing" textLength="203.2" x="731.2" y="340.4859">listUserCourses(user): Iterable&lt;Course&gt;</text></g><!--link ListCourseExamsUI to ListCourseExamsController--><g id="link_ListCourseExamsUI_ListCourseExamsController"><path codeLine="73" d="M140.952,127.2 C158.632,127.2 179.024,127.2 200.472,127.2 " fill="none" id="ListCourseExamsUI-to-ListCourseExamsController" style="stroke:#181818;stroke-width:0.8000000000000002;stroke-dasharray:7.0,7.0;"/><polygon fill="#181818" points="204.496,127.2,197.296,124,200.496,127.2,197.296,130.4,204.496,127.2" style="stroke:#181818;stroke-width:0.8000000000000002;"/></g><!--link ListCourseExamsController to ICourseExamsProvider--><g id="link_ListCourseExamsController_ICourseExamsProvider"><path codeLine="75" d="M609.848,127.2 C624.36,127.2 638.928,127.2 653.256,127.2 " fill="none" id="ListCourseExamsController-to-ICourseExamsProvider" style="stroke:#181818;stroke-width:0.8000000000000002;"/><polygon fill="#181818" points="657.296,127.2,650.096,124,653.296,127.2,650.096,130.4,657.296,127.2" style="stroke:#181818;stroke-width:0.8000000000000002;"/></g><!--link ListCourseExamsController to IUserCoursesProvider--><g id="link_ListCourseExamsController_IUserCoursesProvider"><path codeLine="76" d="M514.12,176.104 C593.168,212.528 698.384,261.008 764.256,291.36 " fill="none" id="ListCourseExamsController-to-IUserCoursesProvider" style="stroke:#181818;stroke-width:0.8000000000000002;stroke-dasharray:7.0,7.0;"/><polygon fill="#181818" points="768.144,293.152,762.9359,287.2397,764.5088,291.483,760.2655,293.056,768.144,293.152" style="stroke:#181818;stroke-width:0.8000000000000002;"/></g><!--link ICourseExamsProvider to IExamRepository--><g id="link_ICourseExamsProvider_IExamRepository"><path codeLine="78" d="M996.912,127.2 C1011.392,127.2 1026.064,127.2 1040.616,127.2 " fill="none" id="ICourseExamsProvider-to-IExamRepository" style="stroke:#181818;stroke-width:0.8000000000000002;"/><polygon fill="#181818" points="1044.712,127.2,1037.512,124,1040.712,127.2,1037.512,130.4,1044.712,127.2" style="stroke:#181818;stroke-width:0.8000000000000002;"/></g><!--link IExamRepository to Exam--><g id="link_IExamRepository_Exam"><path codeLine="80" d="M1396.016,127.2 C1431.888,127.2 1465.656,127.2 1488.6,127.2 " fill="none" id="IExamRepository-to-Exam" style="stroke:#181818;stroke-width:0.8000000000000002;"/><polygon fill="#181818" points="1492.752,127.2,1485.552,124,1488.752,127.2,1485.552,130.4,1492.752,127.2" style="stroke:#181818;stroke-width:0.8000000000000002;"/></g><!--reverse link Exam to FormativeExam--><g id="link_Exam_FormativeExam"><path codeLine="82" d="M1561.824,136.992 C1572.6,139.52 1584.312,142.264 1595.488,144.88 " fill="none" id="Exam-backto-FormativeExam" style="stroke:#181818;stroke-width:0.8000000000000002;"/><polygon fill="none" points="1560.184,142.36,1545.88,133.264,1562.736,131.456,1560.184,142.36" style="stroke:#181818;stroke-width:0.8000000000000002;"/></g><!--reverse link Exam to AutomatedExam--><g id="link_Exam_AutomatedExam"><path codeLine="83" d="M1561.512,115.112 C1571.712,112.144 1582.768,108.928 1593.424,105.824 " fill="none" id="Exam-backto-AutomatedExam" style="stroke:#181818;stroke-width:0.8000000000000002;"/><polygon fill="none" points="1562.808,120.568,1545.88,119.664,1559.68,109.816,1562.808,120.568" style="stroke:#181818;stroke-width:0.8000000000000002;"/></g><!--SRC=[bLJRRjim37tNL_0nHUT-m50Os89b250CHOlsdRLeXwXi6PASBMZpxvFYEP5ywL0z2UGvXnUHig_Sj6YmXXQBLwpeqHqKWQ722NlsIIgnKswZ6_SBQuBDJtXcKx6AC7Q7Kl_cfe8IbIKX59KEd0R3rSw1vA39kX7YNoJe6Dw407yAXTR27LktrfsnzECFrlPf2sz78OuN0dbpZOs_rjIuWJnuiMqL5nXY3Av5xRMln6YboCJGSAwNeIj7MEp8z4vxR_IU9PalK5pGW_5g99fI1wMhhx1rPF15qMtloaUyI7hLtsDEiAUC3FPak3pSwQeY-MHzrfwmromlPHulLswyL8a5mNOzBMBQ6tNkpKQRslTwlvXR0iWNTRvrJdiSoIMT191FgZYcGo0zbfFtnnVh31OE0lyqKUba97dE-9FuP_yehA5MMtRQ7EBGKNS3-M4Mr3Uav4OccNm_zFtvR6U3K9Bo1qB_RssqV3tzq-iNzI1CusXtvYSi0guwExycyybElv2RctnveoU4w5_8idnsAJwWX5XpLGenkrsd2EbWUEHeKhA02ZOXJWDu-vvbwSn6zkH1nLy0]--></g></svg>