<?xml version="1.0" encoding="us-ascii" standalone="no"?><svg xmlns="http://www.w3.org/2000/svg" xmlns:xlink="http://www.w3.org/1999/xlink" contentStyleType="text/css" height="705.6px" preserveAspectRatio="none" style="width:953px;height:705px;background:#FFFFFF;" version="1.1" viewBox="0 0 953 705" width="953.4px" zoomAndPan="magnify"><defs/><g><text fill="#000000" font-family="FG Virgil" font-size="9.8" font-weight="bold" lengthAdjust="spacing" textLength="90.3" x="430.85" y="21.0752">List Course Exams</text><rect fill="#FFFFFF" height="525.4854" style="stroke:#181818;stroke-width:0.6999999999999998;" width="7" x="215.25" y="109.5732"/><rect fill="#FFFFFF" height="91.8148" style="stroke:#181818;stroke-width:0.6999999999999998;" width="7" x="463.75" y="179.4844"/><rect fill="#FFFFFF" height="276.1445" style="stroke:#181818;stroke-width:0.6999999999999998;" width="7" x="463.75" y="337.0104"/><rect fill="#FFFFFF" height="21.9037" style="stroke:#181818;stroke-width:0.6999999999999998;" width="7" x="596.05" y="227.4918"/><rect fill="#FFFFFF" height="65.7111" style="stroke:#181818;stroke-width:0.6999999999999998;" width="7" x="717.5" y="358.9141"/><rect fill="#FFFFFF" height="65.7111" style="stroke:#181818;stroke-width:0.6999999999999998;" width="7" x="717.5" y="468.4326"/><rect fill="#FFFFFF" height="21.9037" style="stroke:#181818;stroke-width:0.6999999999999998;" width="7" x="905.1" y="380.8178"/><rect fill="#FFFFFF" height="21.9037" style="stroke:#181818;stroke-width:0.6999999999999998;" width="7" x="905.1" y="490.3363"/><line style="stroke:#181818;stroke-width:0.3499999999999999;stroke-dasharray:5.0,5.0;" x1="23.8" x2="23.8" y1="86.2695" y2="647.6586"/><line style="stroke:#181818;stroke-width:0.3499999999999999;stroke-dasharray:5.0,5.0;" x1="218.4" x2="218.4" y1="86.2695" y2="647.6586"/><line style="stroke:#181818;stroke-width:0.3499999999999999;stroke-dasharray:5.0,5.0;" x1="466.9" x2="466.9" y1="86.2695" y2="647.6586"/><line style="stroke:#181818;stroke-width:0.3499999999999999;stroke-dasharray:5.0,5.0;" x1="599.2" x2="599.2" y1="86.2695" y2="647.6586"/><line style="stroke:#181818;stroke-width:0.3499999999999999;stroke-dasharray:5.0,5.0;" x1="721" x2="721" y1="86.2695" y2="647.6586"/><line style="stroke:#181818;stroke-width:0.3499999999999999;stroke-dasharray:5.0,5.0;" x1="908.6" x2="908.6" y1="86.2695" y2="647.6586"/><text fill="#000000" font-family="FG Virgil" font-size="9.8" lengthAdjust="spacing" textLength="37.1" x="3.5" y="83.81">Teacher</text><ellipse cx="24.15" cy="37.1848" fill="#E2E2F0" rx="5.6" ry="5.6" style="stroke:#181818;stroke-width:0.3499999999999999;"/><path d="M24.15,42.7848 L24.15,61.6848 M15.05,48.3848 L33.25,48.3848 M24.15,61.6848 L15.05,72.1848 M24.15,61.6848 L33.25,72.1848 " fill="none" style="stroke:#181818;stroke-width:0.3499999999999999;"/><text fill="#000000" font-family="FG Virgil" font-size="9.8" lengthAdjust="spacing" textLength="37.1" x="3.5" y="657.5338">Teacher</text><ellipse cx="24.15" cy="665.9434" fill="#E2E2F0" rx="5.6" ry="5.6" style="stroke:#181818;stroke-width:0.3499999999999999;"/><path d="M24.15,671.5434 L24.15,690.4434 M15.05,677.1434 L33.25,677.1434 M24.15,690.4434 L15.05,700.9434 M24.15,690.4434 L33.25,700.9434 " fill="none" style="stroke:#181818;stroke-width:0.3499999999999999;"/><rect fill="#E2E2F0" height="22.8348" rx="1.75" ry="1.75" style="stroke:#181818;stroke-width:0.3499999999999999;" width="94.5" x="171.5" y="62.7348"/><text fill="#000000" font-family="FG Virgil" font-size="9.8" lengthAdjust="spacing" textLength="84.7" x="176.4" y="78.21">ListCourseExamsUI</text><rect fill="#E2E2F0" height="22.8348" rx="1.75" ry="1.75" style="stroke:#181818;stroke-width:0.3499999999999999;" width="94.5" x="171.5" y="646.9586"/><text fill="#000000" font-family="FG Virgil" font-size="9.8" lengthAdjust="spacing" textLength="84.7" x="176.4" y="662.4338">ListCourseExamsUI</text><rect fill="#E2E2F0" height="22.8348" rx="1.75" ry="1.75" style="stroke:#181818;stroke-width:0.3499999999999999;" width="129.5" x="402.5" y="62.7348"/><text fill="#000000" font-family="FG Virgil" font-size="9.8" lengthAdjust="spacing" textLength="119.7" x="407.4" y="78.21">ListCourseExamsController</text><rect fill="#E2E2F0" height="22.8348" rx="1.75" ry="1.75" style="stroke:#181818;stroke-width:0.3499999999999999;" width="129.5" x="402.5" y="646.9586"/><text fill="#000000" font-family="FG Virgil" font-size="9.8" lengthAdjust="spacing" textLength="119.7" x="407.4" y="662.4338">ListCourseExamsController</text><rect fill="#E2E2F0" height="22.8348" rx="1.75" ry="1.75" style="stroke:#181818;stroke-width:0.3499999999999999;" width="121.1" x="539" y="62.7348"/><text fill="#000000" font-family="FG Virgil" font-size="9.8" lengthAdjust="spacing" textLength="111.3" x="543.9" y="78.21">TeacherCoursesProvider</text><rect fill="#E2E2F0" height="22.8348" rx="1.75" ry="1.75" style="stroke:#181818;stroke-width:0.3499999999999999;" width="121.1" x="539" y="646.9586"/><text fill="#000000" font-family="FG Virgil" font-size="9.8" lengthAdjust="spacing" textLength="111.3" x="543.9" y="662.4338">TeacherCoursesProvider</text><rect fill="#E2E2F0" height="22.8348" rx="1.75" ry="1.75" style="stroke:#181818;stroke-width:0.3499999999999999;" width="107.8" x="667.1" y="62.7348"/><text fill="#000000" font-family="FG Virgil" font-size="9.8" lengthAdjust="spacing" textLength="98" x="672" y="78.21">CourseExamsProvider</text><rect fill="#E2E2F0" height="22.8348" rx="1.75" ry="1.75" style="stroke:#181818;stroke-width:0.3499999999999999;" width="107.8" x="667.1" y="646.9586"/><text fill="#000000" font-family="FG Virgil" font-size="9.8" lengthAdjust="spacing" textLength="98" x="672" y="662.4338">CourseExamsProvider</text><rect fill="#E2E2F0" height="22.8348" rx="1.75" ry="1.75" style="stroke:#181818;stroke-width:0.3499999999999999;" width="81.2" x="868" y="62.7348"/><text fill="#000000" font-family="FG Virgil" font-size="9.8" lengthAdjust="spacing" textLength="71.4" x="872.9" y="78.21">ExamRepository</text><rect fill="#E2E2F0" height="22.8348" rx="1.75" ry="1.75" style="stroke:#181818;stroke-width:0.3499999999999999;" width="81.2" x="868" y="646.9586"/><text fill="#000000" font-family="FG Virgil" font-size="9.8" lengthAdjust="spacing" textLength="71.4" x="872.9" y="662.4338">ExamRepository</text><rect fill="#FFFFFF" height="525.4854" style="stroke:#181818;stroke-width:0.6999999999999998;" width="7" x="215.25" y="109.5732"/><rect fill="#FFFFFF" height="91.8148" style="stroke:#181818;stroke-width:0.6999999999999998;" width="7" x="463.75" y="179.4844"/><rect fill="#FFFFFF" height="276.1445" style="stroke:#181818;stroke-width:0.6999999999999998;" width="7" x="463.75" y="337.0104"/><rect fill="#FFFFFF" height="21.9037" style="stroke:#181818;stroke-width:0.6999999999999998;" width="7" x="596.05" y="227.4918"/><rect fill="#FFFFFF" height="65.7111" style="stroke:#181818;stroke-width:0.6999999999999998;" width="7" x="717.5" y="358.9141"/><rect fill="#FFFFFF" height="65.7111" style="stroke:#181818;stroke-width:0.6999999999999998;" width="7" x="717.5" y="468.4326"/><rect fill="#FFFFFF" height="21.9037" style="stroke:#181818;stroke-width:0.6999999999999998;" width="7" x="905.1" y="380.8178"/><rect fill="#FFFFFF" height="21.9037" style="stroke:#181818;stroke-width:0.6999999999999998;" width="7" x="905.1" y="490.3363"/><polygon fill="#181818" points="206.85,106.7732,213.85,109.5732,206.85,112.3732,209.65,109.5732" style="stroke:#181818;stroke-width:0.6999999999999998;"/><line style="stroke:#181818;stroke-width:0.6999999999999998;" x1="0" x2="211.05" y1="109.5732" y2="109.5732"/><text fill="#000000" font-family="FG Virgil" font-size="9.1" font-weight="bold" lengthAdjust="spacing" textLength="4.9" x="4.9" y="105.8894">1</text><text fill="#000000" font-family="FG Virgil" font-size="9.1" lengthAdjust="spacing" textLength="29.4" x="12.6" y="105.8894">onLoad</text><polygon fill="#181818" points="458.85,128.677,465.85,131.477,458.85,134.277,461.65,131.477" style="stroke:#181818;stroke-width:0.6999999999999998;"/><line style="stroke:#181818;stroke-width:0.6999999999999998;" x1="222.25" x2="463.05" y1="131.477" y2="131.477"/><text fill="#000000" font-family="FG Virgil" font-size="9.1" font-weight="bold" lengthAdjust="spacing" textLength="4.9" x="227.15" y="127.7931">2</text><text fill="#000000" font-family="FG Virgil" font-size="9.1" lengthAdjust="spacing" textLength="220.5" x="234.85" y="127.7931">create(teacherCoursesProvider, courseExamsProvider)</text><path d="M377.3,140.577 L377.3,159.477 L556.5,159.477 L556.5,147.577 L549.5,140.577 L377.3,140.577 " fill="#FEFFDD" style="stroke:#181818;stroke-width:0.3499999999999999;"/><path d="M549.5,140.577 L549.5,147.577 L556.5,147.577 L549.5,140.577 " fill="#FEFFDD" style="stroke:#181818;stroke-width:0.3499999999999999;"/><text fill="#000000" font-family="FG Virgil" font-size="9.1" lengthAdjust="spacing" textLength="164.5" x="381.5" y="153.8968">it is here that the logged user is retrieved</text><polygon fill="#181818" points="455.35,176.6844,462.35,179.4844,455.35,182.2844,458.15,179.4844" style="stroke:#181818;stroke-width:0.6999999999999998;"/><line style="stroke:#181818;stroke-width:0.6999999999999998;" x1="222.25" x2="459.55" y1="179.4844" y2="179.4844"/><text fill="#000000" font-family="FG Virgil" font-size="9.1" font-weight="bold" lengthAdjust="spacing" textLength="4.9" x="227.15" y="175.8005">3</text><text fill="#000000" font-family="FG Virgil" font-size="9.1" lengthAdjust="spacing" textLength="99.4" x="234.85" y="175.8005">teacherCourses(teacher)</text><path d="M385.7,188.5844 L385.7,207.4844 L548.8,207.4844 L548.8,195.5844 L541.8,188.5844 L385.7,188.5844 " fill="#FEFFDD" style="stroke:#181818;stroke-width:0.3499999999999999;"/><path d="M541.8,188.5844 L541.8,195.5844 L548.8,195.5844 L541.8,188.5844 " fill="#FEFFDD" style="stroke:#181818;stroke-width:0.3499999999999999;"/><text fill="#000000" font-family="FG Virgil" font-size="9.1" lengthAdjust="spacing" textLength="148.4" x="389.9" y="201.9042">get courses for teacher (logged user)</text><polygon fill="#181818" points="587.65,224.6918,594.65,227.4918,587.65,230.2918,590.45,227.4918" style="stroke:#181818;stroke-width:0.6999999999999998;"/><line style="stroke:#181818;stroke-width:0.6999999999999998;" x1="470.75" x2="591.85" y1="227.4918" y2="227.4918"/><text fill="#000000" font-family="FG Virgil" font-size="9.1" font-weight="bold" lengthAdjust="spacing" textLength="4.9" x="475.65" y="223.8079">4</text><text fill="#000000" font-family="FG Virgil" font-size="9.1" lengthAdjust="spacing" textLength="100.1" x="483.35" y="223.8079">listUserCourses(teacher)</text><polygon fill="#181818" points="478.45,246.5955,471.45,249.3955,478.45,252.1955,475.65,249.3955" style="stroke:#181818;stroke-width:0.6999999999999998;"/><line style="stroke:#181818;stroke-width:0.6999999999999998;" x1="474.25" x2="598.85" y1="249.3955" y2="249.3955"/><text fill="#000000" font-family="FG Virgil" font-size="9.1" font-weight="bold" lengthAdjust="spacing" textLength="4.9" x="482.65" y="245.7116">5</text><text fill="#000000" font-family="FG Virgil" font-size="9.1" lengthAdjust="spacing" textLength="32.2" x="490.35" y="245.7116">courses</text><polygon fill="#181818" points="229.95,268.4992,222.95,271.2992,229.95,274.0992,227.15,271.2992" style="stroke:#181818;stroke-width:0.6999999999999998;"/><line style="stroke:#181818;stroke-width:0.6999999999999998;" x1="225.75" x2="466.55" y1="271.2992" y2="271.2992"/><text fill="#000000" font-family="FG Virgil" font-size="9.1" font-weight="bold" lengthAdjust="spacing" textLength="4.9" x="234.15" y="267.6153">6</text><text fill="#000000" font-family="FG Virgil" font-size="9.1" lengthAdjust="spacing" textLength="32.2" x="241.85" y="267.6153">courses</text><polygon fill="#181818" points="31.85,290.4029,24.85,293.2029,31.85,296.0029,29.05,293.2029" style="stroke:#181818;stroke-width:0.6999999999999998;"/><line style="stroke:#181818;stroke-width:0.6999999999999998;stroke-dasharray:2.0,2.0;" x1="27.65" x2="214.55" y1="293.2029" y2="293.2029"/><text fill="#000000" font-family="FG Virgil" font-size="9.1" font-weight="bold" lengthAdjust="spacing" textLength="4.9" x="36.05" y="289.519">7</text><text fill="#000000" font-family="FG Virgil" font-size="9.1" lengthAdjust="spacing" textLength="166.6" x="43.75" y="289.519">list courses and request course selection</text><polygon fill="#181818" points="206.85,312.3066,213.85,315.1066,206.85,317.9066,209.65,315.1066" style="stroke:#181818;stroke-width:0.6999999999999998;"/><line style="stroke:#181818;stroke-width:0.6999999999999998;stroke-dasharray:2.0,2.0;" x1="24.15" x2="211.05" y1="315.1066" y2="315.1066"/><text fill="#000000" font-family="FG Virgil" font-size="9.1" font-weight="bold" lengthAdjust="spacing" textLength="4.9" x="29.05" y="311.4228">8</text><text fill="#000000" font-family="FG Virgil" font-size="9.1" lengthAdjust="spacing" textLength="54.6" x="36.75" y="311.4228">select course</text><polygon fill="#181818" points="455.35,334.2104,462.35,337.0104,455.35,339.8104,458.15,337.0104" style="stroke:#181818;stroke-width:0.6999999999999998;"/><line style="stroke:#181818;stroke-width:0.6999999999999998;" x1="222.25" x2="459.55" y1="337.0104" y2="337.0104"/><text fill="#000000" font-family="FG Virgil" font-size="9.1" font-weight="bold" lengthAdjust="spacing" textLength="4.9" x="227.15" y="333.3265">9</text><text fill="#000000" font-family="FG Virgil" font-size="9.1" lengthAdjust="spacing" textLength="88.9" x="234.85" y="333.3265">courseExams(course)</text><polygon fill="#181818" points="709.1,356.1141,716.1,358.9141,709.1,361.7141,711.9,358.9141" style="stroke:#181818;stroke-width:0.6999999999999998;"/><line style="stroke:#181818;stroke-width:0.6999999999999998;" x1="470.75" x2="713.3" y1="358.9141" y2="358.9141"/><text fill="#000000" font-family="FG Virgil" font-size="9.1" font-weight="bold" lengthAdjust="spacing" textLength="9.8" x="475.65" y="355.2302">10</text><text fill="#000000" font-family="FG Virgil" font-size="9.1" lengthAdjust="spacing" textLength="157.5" x="488.25" y="355.2302">provideCourseFormativeExams(course)</text><polygon fill="#181818" points="896.7,378.0178,903.7,380.8178,896.7,383.6178,899.5,380.8178" style="stroke:#181818;stroke-width:0.6999999999999998;"/><line style="stroke:#181818;stroke-width:0.6999999999999998;" x1="724.5" x2="900.9" y1="380.8178" y2="380.8178"/><text fill="#000000" font-family="FG Virgil" font-size="9.1" font-weight="bold" lengthAdjust="spacing" textLength="9.8" x="729.4" y="377.1339">11</text><text fill="#000000" font-family="FG Virgil" font-size="9.1" lengthAdjust="spacing" textLength="149.8" x="742" y="377.1339">findFormativeExamByCourse(course)</text><polygon fill="#181818" points="732.2,399.9215,725.2,402.7215,732.2,405.5215,729.4,402.7215" style="stroke:#181818;stroke-width:0.6999999999999998;"/><line style="stroke:#181818;stroke-width:0.6999999999999998;" x1="728" x2="907.9" y1="402.7215" y2="402.7215"/><text fill="#000000" font-family="FG Virgil" font-size="9.1" font-weight="bold" lengthAdjust="spacing" textLength="9.8" x="736.4" y="399.0376">12</text><text fill="#000000" font-family="FG Virgil" font-size="9.1" lengthAdjust="spacing" textLength="65.8" x="749" y="399.0376">formative exams</text><polygon fill="#181818" points="478.45,421.8252,471.45,424.6252,478.45,427.4252,475.65,424.6252" style="stroke:#181818;stroke-width:0.6999999999999998;"/><line style="stroke:#181818;stroke-width:0.6999999999999998;" x1="474.25" x2="720.3" y1="424.6252" y2="424.6252"/><text fill="#000000" font-family="FG Virgil" font-size="9.1" font-weight="bold" lengthAdjust="spacing" textLength="9.8" x="482.65" y="420.9413">13</text><text fill="#000000" font-family="FG Virgil" font-size="9.1" lengthAdjust="spacing" textLength="65.8" x="495.25" y="420.9413">formative exams</text><polygon fill="#181818" points="229.95,443.7289,222.95,446.5289,229.95,449.3289,227.15,446.5289" style="stroke:#181818;stroke-width:0.6999999999999998;"/><line style="stroke:#181818;stroke-width:0.6999999999999998;" x1="225.75" x2="463.05" y1="446.5289" y2="446.5289"/><text fill="#000000" font-family="FG Virgil" font-size="9.1" font-weight="bold" lengthAdjust="spacing" textLength="9.8" x="234.15" y="442.845">14</text><text fill="#000000" font-family="FG Virgil" font-size="9.1" lengthAdjust="spacing" textLength="27.3" x="246.75" y="442.845">exams</text><polygon fill="#181818" points="709.1,465.6326,716.1,468.4326,709.1,471.2326,711.9,468.4326" style="stroke:#181818;stroke-width:0.6999999999999998;"/><line style="stroke:#181818;stroke-width:0.6999999999999998;" x1="470.75" x2="713.3" y1="468.4326" y2="468.4326"/><text fill="#000000" font-family="FG Virgil" font-size="9.1" font-weight="bold" lengthAdjust="spacing" textLength="9.8" x="475.65" y="464.7487">15</text><text fill="#000000" font-family="FG Virgil" font-size="9.1" lengthAdjust="spacing" textLength="162.4" x="488.25" y="464.7487">provideCourseAutomatedExams(course)</text><polygon fill="#181818" points="896.7,487.5363,903.7,490.3363,896.7,493.1363,899.5,490.3363" style="stroke:#181818;stroke-width:0.6999999999999998;"/><line style="stroke:#181818;stroke-width:0.6999999999999998;" x1="724.5" x2="900.9" y1="490.3363" y2="490.3363"/><text fill="#000000" font-family="FG Virgil" font-size="9.1" font-weight="bold" lengthAdjust="spacing" textLength="9.8" x="729.4" y="486.6524">16</text><text fill="#000000" font-family="FG Virgil" font-size="9.1" lengthAdjust="spacing" textLength="154.7" x="742" y="486.6524">findAutomatedExamByCourse(course)</text><polygon fill="#181818" points="732.2,509.44,725.2,512.24,732.2,515.04,729.4,512.24" style="stroke:#181818;stroke-width:0.6999999999999998;"/><line style="stroke:#181818;stroke-width:0.6999999999999998;" x1="728" x2="907.9" y1="512.24" y2="512.24"/><text fill="#000000" font-family="FG Virgil" font-size="9.1" font-weight="bold" lengthAdjust="spacing" textLength="9.8" x="736.4" y="508.5562">17</text><text fill="#000000" font-family="FG Virgil" font-size="9.1" lengthAdjust="spacing" textLength="72.8" x="749" y="508.5562">automated exams</text><polygon fill="#181818" points="478.45,531.3437,471.45,534.1437,478.45,536.9437,475.65,534.1437" style="stroke:#181818;stroke-width:0.6999999999999998;"/><line style="stroke:#181818;stroke-width:0.6999999999999998;" x1="474.25" x2="720.3" y1="534.1437" y2="534.1437"/><text fill="#000000" font-family="FG Virgil" font-size="9.1" font-weight="bold" lengthAdjust="spacing" textLength="9.8" x="482.65" y="530.4599">18</text><text fill="#000000" font-family="FG Virgil" font-size="9.1" lengthAdjust="spacing" textLength="72.8" x="495.25" y="530.4599">automated exams</text><line style="stroke:#181818;stroke-width:0.6999999999999998;" x1="470.75" x2="500.15" y1="556.0475" y2="556.0475"/><line style="stroke:#181818;stroke-width:0.6999999999999998;" x1="500.15" x2="500.15" y1="556.0475" y2="565.1475"/><line style="stroke:#181818;stroke-width:0.6999999999999998;" x1="471.45" x2="500.15" y1="565.1475" y2="565.1475"/><polygon fill="#181818" points="478.45,562.3475,471.45,565.1475,478.45,567.9475,475.65,565.1475" style="stroke:#181818;stroke-width:0.6999999999999998;"/><text fill="#000000" font-family="FG Virgil" font-size="9.1" font-weight="bold" lengthAdjust="spacing" textLength="9.8" x="475.65" y="552.3636">19</text><text fill="#000000" font-family="FG Virgil" font-size="9.1" lengthAdjust="spacing" textLength="55.3" x="488.25" y="552.3636">merge exams</text><path d="M330.4,574.2475 L330.4,593.1475 L603.4,593.1475 L603.4,581.2475 L596.4,574.2475 L330.4,574.2475 " fill="#FEFFDD" style="stroke:#181818;stroke-width:0.3499999999999999;"/><path d="M596.4,574.2475 L596.4,581.2475 L603.4,581.2475 L596.4,574.2475 " fill="#FEFFDD" style="stroke:#181818;stroke-width:0.3499999999999999;"/><text fill="#000000" font-family="FG Virgil" font-size="9.1" lengthAdjust="spacing" textLength="258.3" x="334.6" y="587.5673">a list containing both formative and automated exams is created</text><polygon fill="#181818" points="229.95,610.3549,222.95,613.1549,229.95,615.9549,227.15,613.1549" style="stroke:#181818;stroke-width:0.6999999999999998;"/><line style="stroke:#181818;stroke-width:0.6999999999999998;" x1="225.75" x2="466.55" y1="613.1549" y2="613.1549"/><text fill="#000000" font-family="FG Virgil" font-size="9.1" font-weight="bold" lengthAdjust="spacing" textLength="9.8" x="234.15" y="609.471">20</text><text fill="#000000" font-family="FG Virgil" font-size="9.1" lengthAdjust="spacing" textLength="27.3" x="246.75" y="609.471">exams</text><polygon fill="#181818" points="31.85,632.2586,24.85,635.0586,31.85,637.8586,29.05,635.0586" style="stroke:#181818;stroke-width:0.6999999999999998;"/><line style="stroke:#181818;stroke-width:0.6999999999999998;stroke-dasharray:2.0,2.0;" x1="27.65" x2="218.05" y1="635.0586" y2="635.0586"/><text fill="#000000" font-family="FG Virgil" font-size="9.1" font-weight="bold" lengthAdjust="spacing" textLength="9.8" x="36.05" y="631.3747">21</text><text fill="#000000" font-family="FG Virgil" font-size="9.1" lengthAdjust="spacing" textLength="42" x="48.65" y="631.3747">list exams</text><!--SRC=[hLN1Rjim3BthAuYUKc3zWHmARCKo32Y6OLjtPotQ4MfBhaHdoz-Fjcn7IXsZHNS9P8dlyV5HLB1ZPxlcaRmAJyQswB615eidhEWd7si2JmKdPvfAx6hUESlVi27OVO7VnbUcJcB27hNxOsm59TQ1b6B3mdHl0iETwtmW-FmNcw0K5kmy_28izkG10t1SAY5YKvWMBSDL3uou0VRmzQeFxSngr9qezAwkoG_HnVoPeyRS4HY-UtSmUePaUpakoPI1siNeFku7jIuOgVSu15AsfTJDhLIq1MVl7Uh16ND0fhvCrHcGurC9MoWyoU665zL_6ALdwgwLiaxut46SJgaCWmaWB0IyHvOVWjfL5MdeWiJAeIVsXWwabwJa6YP95zDLn9EpK4hpntZO93cla_gJngdJEeh8gjv2BJVW8In9ITZodggpZHS-nsEbDArnfBBwBYx3JeNqBaheA30gdrr1gyNnvuxcFGXKonWQPsMMHhzknbJnQ0nSl2gdkx29wzVPsyw-Zgjewyxv1WLyaN6U0DKcfkRNVGkbiJgZ-dIC_0kCvwEIV-TQoubpGEKTEETfBpHzZQDTwVeO_IeRFyh3Aqb8lz_6ZEe_sOWJvpjiNEEuP6EARyXNSmkM7nES9iSo6jl_upmwtYSDx6VfJ4V_eCNdKwyqyIs3-n8YZ_O_]--></g></svg>