<?xml version="1.0" encoding="us-ascii" standalone="no"?><svg xmlns="http://www.w3.org/2000/svg" xmlns:xlink="http://www.w3.org/1999/xlink" contentStyleType="text/css" height="909px" preserveAspectRatio="none" style="width:1783px;height:909px;background:#FFFFFF;" version="1.1" viewBox="0 0 1783 909" width="1783px" zoomAndPan="magnify"><defs/><g><text fill="#000000" font-family="sans-serif" font-size="14" font-weight="bold" lengthAdjust="spacing" textLength="167" x="801" y="24.5332">US3007 - Change Post-It</text><!--cluster postitmanagement--><g id="cluster_postitmanagement"><path d="M318.5,378.6094 L449.5,378.6094 A3.75,3.75 0 0 1 452,381.1094 L459,402.2188 L1321.5,402.2188 A2.5,2.5 0 0 1 1324,404.7188 L1324,900.1094 A2.5,2.5 0 0 1 1321.5,902.6094 L318.5,902.6094 A2.5,2.5 0 0 1 316,900.1094 L316,381.1094 A2.5,2.5 0 0 1 318.5,378.6094 " fill="none" style="stroke:#000000;stroke-width:1.5;"/><line style="stroke:#000000;stroke-width:1.5;" x1="316" x2="459" y1="402.2188" y2="402.2188"/><text fill="#000000" font-family="sans-serif" font-size="14" font-weight="bold" lengthAdjust="spacing" textLength="130" x="320" y="395.1426">postitmanagement</text></g><!--cluster domain()--><g id="cluster_domain()"><path d="M883,422.6094 L945,422.6094 A3.75,3.75 0 0 1 947.5,425.1094 L954.5,446.2188 L1277,446.2188 A2.5,2.5 0 0 1 1279.5,448.7188 L1279.5,556.1094 A2.5,2.5 0 0 1 1277,558.6094 L883,558.6094 A2.5,2.5 0 0 1 880.5,556.1094 L880.5,425.1094 A2.5,2.5 0 0 1 883,422.6094 " fill="none" style="stroke:#000000;stroke-width:1.5;"/><line style="stroke:#000000;stroke-width:1.5;" x1="880.5" x2="954.5" y1="446.2188" y2="446.2188"/><text fill="#000000" font-family="sans-serif" font-size="14" font-weight="bold" lengthAdjust="spacing" textLength="61" x="884.5" y="439.1426">domain()</text></g><!--cluster application--><g id="cluster_application"><path d="M342.5,582.6094 L420.5,582.6094 A3.75,3.75 0 0 1 423,585.1094 L430,606.2188 L1297.5,606.2188 A2.5,2.5 0 0 1 1300,608.7188 L1300,734.1094 A2.5,2.5 0 0 1 1297.5,736.6094 L342.5,736.6094 A2.5,2.5 0 0 1 340,734.1094 L340,585.1094 A2.5,2.5 0 0 1 342.5,582.6094 " fill="none" style="stroke:#000000;stroke-width:1.5;"/><line style="stroke:#000000;stroke-width:1.5;" x1="340" x2="430" y1="606.2188" y2="606.2188"/><text fill="#000000" font-family="sans-serif" font-size="14" font-weight="bold" lengthAdjust="spacing" textLength="77" x="344" y="599.1426">application</text></g><!--cluster repository--><g id="cluster_repository"><path d="M499,760.6094 L572,760.6094 A3.75,3.75 0 0 1 574.5,763.1094 L581.5,784.2188 L673,784.2188 A2.5,2.5 0 0 1 675.5,786.7188 L675.5,876.1094 A2.5,2.5 0 0 1 673,878.6094 L499,878.6094 A2.5,2.5 0 0 1 496.5,876.1094 L496.5,763.1094 A2.5,2.5 0 0 1 499,760.6094 " fill="none" style="stroke:#000000;stroke-width:1.5;"/><line style="stroke:#000000;stroke-width:1.5;" x1="496.5" x2="581.5" y1="784.2188" y2="784.2188"/><text fill="#000000" font-family="sans-serif" font-size="14" font-weight="bold" lengthAdjust="spacing" textLength="72" x="500.5" y="777.1426">repository</text></g><!--cluster boardlogmanagement--><g id="cluster_boardlogmanagement"><path d="M441,44.6094 L595,44.6094 A3.75,3.75 0 0 1 597.5,47.1094 L604.5,68.2188 L1218,68.2188 A2.5,2.5 0 0 1 1220.5,70.7188 L1220.5,352.1094 A2.5,2.5 0 0 1 1218,354.6094 L441,354.6094 A2.5,2.5 0 0 1 438.5,352.1094 L438.5,47.1094 A2.5,2.5 0 0 1 441,44.6094 " fill="none" style="stroke:#000000;stroke-width:1.5;"/><line style="stroke:#000000;stroke-width:1.5;" x1="438.5" x2="604.5" y1="68.2188" y2="68.2188"/><text fill="#000000" font-family="sans-serif" font-size="14" font-weight="bold" lengthAdjust="spacing" textLength="153" x="442.5" y="61.1426">boardlogmanagement</text></g><!--cluster application--><g id="cluster_application"><path d="M465,212.6094 L543,212.6094 A3.75,3.75 0 0 1 545.5,215.1094 L552.5,236.2188 L707,236.2188 A2.5,2.5 0 0 1 709.5,238.7188 L709.5,328.1094 A2.5,2.5 0 0 1 707,330.6094 L465,330.6094 A2.5,2.5 0 0 1 462.5,328.1094 L462.5,215.1094 A2.5,2.5 0 0 1 465,212.6094 " fill="none" style="stroke:#000000;stroke-width:1.5;"/><line style="stroke:#000000;stroke-width:1.5;" x1="462.5" x2="552.5" y1="236.2188" y2="236.2188"/><text fill="#000000" font-family="sans-serif" font-size="14" font-weight="bold" lengthAdjust="spacing" textLength="77" x="466.5" y="229.1426">application</text></g><!--cluster domain--><g id="cluster_domain"><path d="M1019.5,230.6094 L1071.5,230.6094 A3.75,3.75 0 0 1 1074,233.1094 L1081,254.2188 L1140.5,254.2188 A2.5,2.5 0 0 1 1143,256.7188 L1143,328.1094 A2.5,2.5 0 0 1 1140.5,330.6094 L1019.5,330.6094 A2.5,2.5 0 0 1 1017,328.1094 L1017,233.1094 A2.5,2.5 0 0 1 1019.5,230.6094 " fill="none" style="stroke:#000000;stroke-width:1.5;"/><line style="stroke:#000000;stroke-width:1.5;" x1="1017" x2="1081" y1="254.2188" y2="254.2188"/><text fill="#000000" font-family="sans-serif" font-size="14" font-weight="bold" lengthAdjust="spacing" textLength="51" x="1021" y="247.1426">domain</text></g><!--cluster repository--><g id="cluster_repository"><path d="M966,88.6094 L1039,88.6094 A3.75,3.75 0 0 1 1041.5,91.1094 L1048.5,112.2188 L1194,112.2188 A2.5,2.5 0 0 1 1196.5,114.7188 L1196.5,204.1094 A2.5,2.5 0 0 1 1194,206.6094 L966,206.6094 A2.5,2.5 0 0 1 963.5,204.1094 L963.5,91.1094 A2.5,2.5 0 0 1 966,88.6094 " fill="none" style="stroke:#000000;stroke-width:1.5;"/><line style="stroke:#000000;stroke-width:1.5;" x1="963.5" x2="1048.5" y1="112.2188" y2="112.2188"/><text fill="#000000" font-family="sans-serif" font-size="14" font-weight="bold" lengthAdjust="spacing" textLength="72" x="967.5" y="105.1426">repository</text></g><!--cluster boardmanagement--><g id="cluster_boardmanagement"><path d="M1350.5,533.6094 L1482.5,533.6094 A3.75,3.75 0 0 1 1485,536.1094 L1492,557.2188 L1773.5,557.2188 A2.5,2.5 0 0 1 1776,559.7188 L1776,877.1094 A2.5,2.5 0 0 1 1773.5,879.6094 L1350.5,879.6094 A2.5,2.5 0 0 1 1348,877.1094 L1348,536.1094 A2.5,2.5 0 0 1 1350.5,533.6094 " fill="none" style="stroke:#000000;stroke-width:1.5;"/><line style="stroke:#000000;stroke-width:1.5;" x1="1348" x2="1492" y1="557.2188" y2="557.2188"/><text fill="#000000" font-family="sans-serif" font-size="14" font-weight="bold" lengthAdjust="spacing" textLength="131" x="1352" y="550.1426">boardmanagement</text></g><!--cluster domain--><g id="cluster_domain"><path d="M1413.5,577.6094 L1465.5,577.6094 A3.75,3.75 0 0 1 1468,580.1094 L1475,601.2188 L1710.5,601.2188 A2.5,2.5 0 0 1 1713,603.7188 L1713,693.1094 A2.5,2.5 0 0 1 1710.5,695.6094 L1413.5,695.6094 A2.5,2.5 0 0 1 1411,693.1094 L1411,580.1094 A2.5,2.5 0 0 1 1413.5,577.6094 " fill="none" style="stroke:#000000;stroke-width:1.5;"/><line style="stroke:#000000;stroke-width:1.5;" x1="1411" x2="1475" y1="601.2188" y2="601.2188"/><text fill="#000000" font-family="sans-serif" font-size="14" font-weight="bold" lengthAdjust="spacing" textLength="51" x="1415" y="594.1426">domain</text></g><!--cluster application--><g id="cluster_application"><path d="M1374.5,719.6094 L1452.5,719.6094 A3.75,3.75 0 0 1 1455,722.1094 L1462,743.2188 L1749.5,743.2188 A2.5,2.5 0 0 1 1752,745.7188 L1752,853.1094 A2.5,2.5 0 0 1 1749.5,855.6094 L1374.5,855.6094 A2.5,2.5 0 0 1 1372,853.1094 L1372,722.1094 A2.5,2.5 0 0 1 1374.5,719.6094 " fill="none" style="stroke:#000000;stroke-width:1.5;"/><line style="stroke:#000000;stroke-width:1.5;" x1="1372" x2="1462" y1="743.2188" y2="743.2188"/><text fill="#000000" font-family="sans-serif" font-size="14" font-weight="bold" lengthAdjust="spacing" textLength="77" x="1376" y="736.1426">application</text></g><!--cluster boardcommunication--><g id="cluster_boardcommunication"><path d="M8.5,552.6094 L156.5,552.6094 A3.75,3.75 0 0 1 159,555.1094 L166,576.2188 L289.5,576.2188 A2.5,2.5 0 0 1 292,578.7188 L292,875.1094 A2.5,2.5 0 0 1 289.5,877.6094 L8.5,877.6094 A2.5,2.5 0 0 1 6,875.1094 L6,555.1094 A2.5,2.5 0 0 1 8.5,552.6094 " fill="none" style="stroke:#000000;stroke-width:1.5;"/><line style="stroke:#000000;stroke-width:1.5;" x1="6" x2="166" y1="576.2188" y2="576.2188"/><text fill="#000000" font-family="sans-serif" font-size="14" font-weight="bold" lengthAdjust="spacing" textLength="147" x="10" y="569.1426">boardcommunication</text></g><!--class PostIt--><g id="elem_PostIt"><rect codeLine="10" fill="#F1F1F1" height="83.2188" id="PostIt" rx="2.5" ry="2.5" style="stroke:#181818;stroke-width:0.5;" width="367" x="896.5" y="459.1094"/><ellipse cx="1058.25" cy="475.1094" fill="#ADD1B2" rx="11" ry="11" style="stroke:#181818;stroke-width:1.0;"/><path d="M1060.25,471.6094 Q1060.4531,471.1094 1060.6875,470.8594 Q1060.9219,470.6094 1061.1875,470.6094 Q1061.6563,470.6094 1061.9531,470.8906 Q1062.25,471.1719 1062.25,471.8281 L1062.25,473.3906 Q1062.25,474.0469 1061.9688,474.3281 Q1061.6875,474.6094 1061.25,474.6094 Q1060.8594,474.6094 1060.6094,474.4375 Q1060.3594,474.2656 1060.25,473.8125 Q1060.2031,473.5 1060.0313,473.3281 Q1059.7188,473 1059.1563,472.8125 Q1058.5938,472.6094 1058.0313,472.6094 Q1057.3281,472.6094 1056.7344,472.8906 Q1056.1563,473.1719 1055.7031,473.7969 Q1055.25,474.4219 1055.25,475.2813 L1055.25,476.2031 Q1055.25,477.2344 1056.0938,477.9219 Q1056.9375,478.6094 1058.4375,478.6094 Q1059.3281,478.6094 1059.9531,478.4063 Q1060.3125,478.2969 1060.7188,477.9375 Q1060.9844,477.7344 1061.125,477.6719 Q1061.2656,477.6094 1061.4375,477.6094 Q1061.7656,477.6094 1062,477.875 Q1062.25,478.125 1062.25,478.4844 Q1062.25,478.8281 1061.9063,479.2344 Q1061.4063,479.8281 1060.6094,480.1563 Q1059.5625,480.6094 1058.2813,480.6094 Q1056.7813,480.6094 1055.5781,480.0156 Q1054.6094,479.5469 1053.9219,478.5313 Q1053.25,477.5156 1053.25,476.3125 L1053.25,475.2188 Q1053.25,473.9688 1053.8438,472.875 Q1054.4531,471.7813 1055.5,471.2031 Q1056.5625,470.6094 1057.75,470.6094 Q1058.4688,470.6094 1059.0938,470.8594 Q1059.7188,471.1094 1060.25,471.6094 Z " fill="#000000"/><text fill="#000000" font-family="sans-serif" font-size="14" lengthAdjust="spacing" textLength="35" x="1078.75" y="480.8379">PostIt</text><line style="stroke:#181818;stroke-width:0.5;" x1="897.5" x2="1262.5" y1="491.1094" y2="491.1094"/><line style="stroke:#181818;stroke-width:0.5;" x1="897.5" x2="1262.5" y1="499.1094" y2="499.1094"/><ellipse cx="907.5" cy="513.4141" fill="#84BE84" rx="3" ry="3" style="stroke:#038048;stroke-width:1.0;"/><text fill="#000000" font-family="sans-serif" font-size="14" lengthAdjust="spacing" textLength="341" x="916.5" y="517.6426">changeContent(user, previousContent, content, color)</text><ellipse cx="907.5" cy="531.0234" fill="#84BE84" rx="3" ry="3" style="stroke:#038048;stroke-width:1.0;"/><text fill="#000000" font-family="sans-serif" font-size="14" lengthAdjust="spacing" textLength="166" x="916.5" y="535.252">replaceCell(user, newCell)</text></g><!--class ChangePostItController--><g id="elem_ChangePostItController"><rect codeLine="18" fill="#F1F1F1" height="83.2188" id="ChangePostItController" rx="2.5" ry="2.5" style="stroke:#181818;stroke-width:0.5;" width="460" x="356" y="633.1094"/><ellipse cx="508.25" cy="649.1094" fill="#ADD1B2" rx="11" ry="11" style="stroke:#181818;stroke-width:1.0;"/><path d="M510.25,645.6094 Q510.4531,645.1094 510.6875,644.8594 Q510.9219,644.6094 511.1875,644.6094 Q511.6563,644.6094 511.9531,644.8906 Q512.25,645.1719 512.25,645.8281 L512.25,647.3906 Q512.25,648.0469 511.9688,648.3281 Q511.6875,648.6094 511.25,648.6094 Q510.8594,648.6094 510.6094,648.4375 Q510.3594,648.2656 510.25,647.8125 Q510.2031,647.5 510.0313,647.3281 Q509.7188,647 509.1563,646.8125 Q508.5938,646.6094 508.0313,646.6094 Q507.3281,646.6094 506.7344,646.8906 Q506.1563,647.1719 505.7031,647.7969 Q505.25,648.4219 505.25,649.2813 L505.25,650.2031 Q505.25,651.2344 506.0938,651.9219 Q506.9375,652.6094 508.4375,652.6094 Q509.3281,652.6094 509.9531,652.4063 Q510.3125,652.2969 510.7188,651.9375 Q510.9844,651.7344 511.125,651.6719 Q511.2656,651.6094 511.4375,651.6094 Q511.7656,651.6094 512,651.875 Q512.25,652.125 512.25,652.4844 Q512.25,652.8281 511.9063,653.2344 Q511.4063,653.8281 510.6094,654.1563 Q509.5625,654.6094 508.2813,654.6094 Q506.7813,654.6094 505.5781,654.0156 Q504.6094,653.5469 503.9219,652.5313 Q503.25,651.5156 503.25,650.3125 L503.25,649.2188 Q503.25,647.9688 503.8438,646.875 Q504.4531,645.7813 505.5,645.2031 Q506.5625,644.6094 507.75,644.6094 Q508.4688,644.6094 509.0938,644.8594 Q509.7188,645.1094 510.25,645.6094 Z " fill="#000000"/><text fill="#000000" font-family="sans-serif" font-size="14" lengthAdjust="spacing" textLength="147" x="528.75" y="654.8379">ChangePostItController</text><line style="stroke:#181818;stroke-width:0.5;" x1="357" x2="815" y1="665.1094" y2="665.1094"/><line style="stroke:#181818;stroke-width:0.5;" x1="357" x2="815" y1="673.1094" y2="673.1094"/><ellipse cx="367" cy="687.4141" fill="#84BE84" rx="3" ry="3" style="stroke:#038048;stroke-width:1.0;"/><text fill="#000000" font-family="sans-serif" font-size="14" lengthAdjust="spacing" textLength="434" x="376" y="691.6426">changePostIt(user, board, oldRow, oldColumn, newRow, newColumn,</text><text fill="#000000" font-family="sans-serif" font-size="14" lengthAdjust="spacing" textLength="196" x="376" y="709.252">oldContent, newContent, color)</text></g><!--class IPostItManager--><g id="elem_IPostItManager"><rect codeLine="23" fill="#F1F1F1" height="100.8281" id="IPostItManager" rx="2.5" ry="2.5" style="stroke:#181818;stroke-width:0.5;" width="408" x="876" y="619.1094"/><ellipse cx="1027.25" cy="635.1094" fill="#B4A7E5" rx="11" ry="11" style="stroke:#181818;stroke-width:1.0;"/><path d="M1028.25,632.1094 L1028.25,638.1094 L1030.25,638.1094 L1030.7344,638.1094 L1031.25,638.7344 L1031.25,639.1094 L1031.25,639.4844 L1030.7344,640.1094 L1030.25,640.1094 L1024.25,640.1094 L1023.7656,640.1094 L1023.25,639.4844 L1023.25,639.1094 L1023.25,638.7344 L1023.7656,638.1094 L1024.25,638.1094 L1026.25,638.1094 L1026.25,632.1094 L1024.25,632.1094 L1023.7656,632.1094 L1023.25,631.4844 L1023.25,631.1094 L1023.25,630.7344 L1023.7656,630.1094 L1024.25,630.1094 L1030.25,630.1094 L1030.7344,630.1094 L1031.25,630.7344 L1031.25,631.1094 L1031.25,631.4844 L1030.7344,632.1094 L1030.25,632.1094 L1028.25,632.1094 Z " fill="#000000"/><text fill="#000000" font-family="sans-serif" font-size="14" font-style="italic" lengthAdjust="spacing" textLength="97" x="1047.75" y="640.8379">IPostItManager</text><line style="stroke:#181818;stroke-width:0.5;" x1="877" x2="1283" y1="651.1094" y2="651.1094"/><line style="stroke:#181818;stroke-width:0.5;" x1="877" x2="1283" y1="659.1094" y2="659.1094"/><ellipse cx="887" cy="673.4141" fill="#84BE84" rx="3" ry="3" style="stroke:#038048;stroke-width:1.0;"/><text fill="#000000" font-family="sans-serif" font-size="14" lengthAdjust="spacing" textLength="214" x="896" y="677.6426">changePostItContent(user, board,</text><text fill="#000000" font-family="sans-serif" font-size="14" lengthAdjust="spacing" textLength="372" x="896" y="695.252">oldRow, oldColumn, oldContent, newContent, color) : PostIt</text><ellipse cx="887" cy="708.6328" fill="#84BE84" rx="3" ry="3" style="stroke:#038048;stroke-width:1.0;"/><text fill="#000000" font-family="sans-serif" font-size="14" lengthAdjust="spacing" textLength="382" x="896" y="712.8613">movePostIt(user, board, postIt, newRow, newColumn) : PostIt</text></g><!--class PostItRepository--><g id="elem_PostItRepository"><rect codeLine="32" fill="#F1F1F1" height="65.6094" id="PostItRepository" rx="2.5" ry="2.5" style="stroke:#181818;stroke-width:0.5;" width="147" x="512.5" y="796.6094"/><ellipse cx="532.45" cy="812.6094" fill="#B4A7E5" rx="11" ry="11" style="stroke:#181818;stroke-width:1.0;"/><path d="M533.45,809.6094 L533.45,815.6094 L535.45,815.6094 L535.9344,815.6094 L536.45,816.2344 L536.45,816.6094 L536.45,816.9844 L535.9344,817.6094 L535.45,817.6094 L529.45,817.6094 L528.9656,817.6094 L528.45,816.9844 L528.45,816.6094 L528.45,816.2344 L528.9656,815.6094 L529.45,815.6094 L531.45,815.6094 L531.45,809.6094 L529.45,809.6094 L528.9656,809.6094 L528.45,808.9844 L528.45,808.6094 L528.45,808.2344 L528.9656,807.6094 L529.45,807.6094 L535.45,807.6094 L535.9344,807.6094 L536.45,808.2344 L536.45,808.6094 L536.45,808.9844 L535.9344,809.6094 L535.45,809.6094 L533.45,809.6094 Z " fill="#000000"/><text fill="#000000" font-family="sans-serif" font-size="14" font-style="italic" lengthAdjust="spacing" textLength="104" x="547.55" y="818.3379">PostItRepository</text><line style="stroke:#181818;stroke-width:0.5;" x1="513.5" x2="658.5" y1="828.6094" y2="828.6094"/><line style="stroke:#181818;stroke-width:0.5;" x1="513.5" x2="658.5" y1="836.6094" y2="836.6094"/><ellipse cx="523.5" cy="850.9141" fill="#84BE84" rx="3" ry="3" style="stroke:#038048;stroke-width:1.0;"/><text fill="#000000" font-family="sans-serif" font-size="14" lengthAdjust="spacing" textLength="121" x="532.5" y="855.1426">save(postIt) : PostIt</text></g><!--class BoardLogger--><g id="elem_BoardLogger"><rect codeLine="40" fill="#F1F1F1" height="65.6094" id="BoardLogger" rx="2.5" ry="2.5" style="stroke:#181818;stroke-width:0.5;" width="215" x="478.5" y="248.6094"/><ellipse cx="540.25" cy="264.6094" fill="#B4A7E5" rx="11" ry="11" style="stroke:#181818;stroke-width:1.0;"/><path d="M541.25,261.6094 L541.25,267.6094 L543.25,267.6094 L543.7344,267.6094 L544.25,268.2344 L544.25,268.6094 L544.25,268.9844 L543.7344,269.6094 L543.25,269.6094 L537.25,269.6094 L536.7656,269.6094 L536.25,268.9844 L536.25,268.6094 L536.25,268.2344 L536.7656,267.6094 L537.25,267.6094 L539.25,267.6094 L539.25,261.6094 L537.25,261.6094 L536.7656,261.6094 L536.25,260.9844 L536.25,260.6094 L536.25,260.2344 L536.7656,259.6094 L537.25,259.6094 L543.25,259.6094 L543.7344,259.6094 L544.25,260.2344 L544.25,260.6094 L544.25,260.9844 L543.7344,261.6094 L543.25,261.6094 L541.25,261.6094 Z " fill="#000000"/><text fill="#000000" font-family="sans-serif" font-size="14" font-style="italic" lengthAdjust="spacing" textLength="83" x="560.75" y="270.3379">BoardLogger</text><line style="stroke:#181818;stroke-width:0.5;" x1="479.5" x2="692.5" y1="280.6094" y2="280.6094"/><line style="stroke:#181818;stroke-width:0.5;" x1="479.5" x2="692.5" y1="288.6094" y2="288.6094"/><ellipse cx="489.5" cy="302.9141" fill="#84BE84" rx="3" ry="3" style="stroke:#038048;stroke-width:1.0;"/><text fill="#000000" font-family="sans-serif" font-size="14" lengthAdjust="spacing" textLength="189" x="498.5" y="307.1426">logChangePostIt(board) : void</text></g><!--class BoardLog--><g id="elem_BoardLog"><rect codeLine="46" fill="#F1F1F1" height="48" id="BoardLog" rx="2.5" ry="2.5" style="stroke:#181818;stroke-width:0.5;" width="94" x="1033" y="266.6094"/><ellipse cx="1048" cy="282.6094" fill="#ADD1B2" rx="11" ry="11" style="stroke:#181818;stroke-width:1.0;"/><path d="M1050,279.1094 Q1050.2031,278.6094 1050.4375,278.3594 Q1050.6719,278.1094 1050.9375,278.1094 Q1051.4063,278.1094 1051.7031,278.3906 Q1052,278.6719 1052,279.3281 L1052,280.8906 Q1052,281.5469 1051.7188,281.8281 Q1051.4375,282.1094 1051,282.1094 Q1050.6094,282.1094 1050.3594,281.9375 Q1050.1094,281.7656 1050,281.3125 Q1049.9531,281 1049.7813,280.8281 Q1049.4688,280.5 1048.9063,280.3125 Q1048.3438,280.1094 1047.7813,280.1094 Q1047.0781,280.1094 1046.4844,280.3906 Q1045.9063,280.6719 1045.4531,281.2969 Q1045,281.9219 1045,282.7813 L1045,283.7031 Q1045,284.7344 1045.8438,285.4219 Q1046.6875,286.1094 1048.1875,286.1094 Q1049.0781,286.1094 1049.7031,285.9063 Q1050.0625,285.7969 1050.4688,285.4375 Q1050.7344,285.2344 1050.875,285.1719 Q1051.0156,285.1094 1051.1875,285.1094 Q1051.5156,285.1094 1051.75,285.375 Q1052,285.625 1052,285.9844 Q1052,286.3281 1051.6563,286.7344 Q1051.1563,287.3281 1050.3594,287.6563 Q1049.3125,288.1094 1048.0313,288.1094 Q1046.5313,288.1094 1045.3281,287.5156 Q1044.3594,287.0469 1043.6719,286.0313 Q1043,285.0156 1043,283.8125 L1043,282.7188 Q1043,281.4688 1043.5938,280.375 Q1044.2031,279.2813 1045.25,278.7031 Q1046.3125,278.1094 1047.5,278.1094 Q1048.2188,278.1094 1048.8438,278.3594 Q1049.4688,278.6094 1050,279.1094 Z " fill="#000000"/><text fill="#000000" font-family="sans-serif" font-size="14" lengthAdjust="spacing" textLength="62" x="1062" y="288.3379">BoardLog</text><line style="stroke:#181818;stroke-width:0.5;" x1="1034" x2="1126" y1="298.6094" y2="298.6094"/><line style="stroke:#181818;stroke-width:0.5;" x1="1034" x2="1126" y1="306.6094" y2="306.6094"/></g><!--class BoardLogRepository--><g id="elem_BoardLogRepository"><rect codeLine="50" fill="#F1F1F1" height="65.6094" id="BoardLogRepository" rx="2.5" ry="2.5" style="stroke:#181818;stroke-width:0.5;" width="201" x="979.5" y="124.6094"/><ellipse cx="1012.05" cy="140.6094" fill="#B4A7E5" rx="11" ry="11" style="stroke:#181818;stroke-width:1.0;"/><path d="M1013.05,137.6094 L1013.05,143.6094 L1015.05,143.6094 L1015.5344,143.6094 L1016.05,144.2344 L1016.05,144.6094 L1016.05,144.9844 L1015.5344,145.6094 L1015.05,145.6094 L1009.05,145.6094 L1008.5656,145.6094 L1008.05,144.9844 L1008.05,144.6094 L1008.05,144.2344 L1008.5656,143.6094 L1009.05,143.6094 L1011.05,143.6094 L1011.05,137.6094 L1009.05,137.6094 L1008.5656,137.6094 L1008.05,136.9844 L1008.05,136.6094 L1008.05,136.2344 L1008.5656,135.6094 L1009.05,135.6094 L1015.05,135.6094 L1015.5344,135.6094 L1016.05,136.2344 L1016.05,136.6094 L1016.05,136.9844 L1015.5344,137.6094 L1015.05,137.6094 L1013.05,137.6094 Z " fill="#000000"/><text fill="#000000" font-family="sans-serif" font-size="14" font-style="italic" lengthAdjust="spacing" textLength="130" x="1029.95" y="146.3379">BoardLogRepository</text><line style="stroke:#181818;stroke-width:0.5;" x1="980.5" x2="1179.5" y1="156.6094" y2="156.6094"/><line style="stroke:#181818;stroke-width:0.5;" x1="980.5" x2="1179.5" y1="164.6094" y2="164.6094"/><ellipse cx="990.5" cy="178.9141" fill="#84BE84" rx="3" ry="3" style="stroke:#038048;stroke-width:1.0;"/><text fill="#000000" font-family="sans-serif" font-size="14" lengthAdjust="spacing" textLength="175" x="999.5" y="183.1426">save(boardLog) : BoardLog</text></g><!--class Board--><g id="elem_Board"><rect codeLine="59" fill="#F1F1F1" height="65.6094" id="Board" rx="2.5" ry="2.5" style="stroke:#181818;stroke-width:0.5;" width="270" x="1427" y="613.6094"/><ellipse cx="1538.75" cy="629.6094" fill="#ADD1B2" rx="11" ry="11" style="stroke:#181818;stroke-width:1.0;"/><path d="M1540.75,626.1094 Q1540.9531,625.6094 1541.1875,625.3594 Q1541.4219,625.1094 1541.6875,625.1094 Q1542.1563,625.1094 1542.4531,625.3906 Q1542.75,625.6719 1542.75,626.3281 L1542.75,627.8906 Q1542.75,628.5469 1542.4688,628.8281 Q1542.1875,629.1094 1541.75,629.1094 Q1541.3594,629.1094 1541.1094,628.9375 Q1540.8594,628.7656 1540.75,628.3125 Q1540.7031,628 1540.5313,627.8281 Q1540.2188,627.5 1539.6563,627.3125 Q1539.0938,627.1094 1538.5313,627.1094 Q1537.8281,627.1094 1537.2344,627.3906 Q1536.6563,627.6719 1536.2031,628.2969 Q1535.75,628.9219 1535.75,629.7813 L1535.75,630.7031 Q1535.75,631.7344 1536.5938,632.4219 Q1537.4375,633.1094 1538.9375,633.1094 Q1539.8281,633.1094 1540.4531,632.9063 Q1540.8125,632.7969 1541.2188,632.4375 Q1541.4844,632.2344 1541.625,632.1719 Q1541.7656,632.1094 1541.9375,632.1094 Q1542.2656,632.1094 1542.5,632.375 Q1542.75,632.625 1542.75,632.9844 Q1542.75,633.3281 1542.4063,633.7344 Q1541.9063,634.3281 1541.1094,634.6563 Q1540.0625,635.1094 1538.7813,635.1094 Q1537.2813,635.1094 1536.0781,634.5156 Q1535.1094,634.0469 1534.4219,633.0313 Q1533.75,632.0156 1533.75,630.8125 L1533.75,629.7188 Q1533.75,628.4688 1534.3438,627.375 Q1534.9531,626.2813 1536,625.7031 Q1537.0625,625.1094 1538.25,625.1094 Q1538.9688,625.1094 1539.5938,625.3594 Q1540.2188,625.6094 1540.75,626.1094 Z " fill="#000000"/><text fill="#000000" font-family="sans-serif" font-size="14" lengthAdjust="spacing" textLength="38" x="1559.25" y="635.3379">Board</text><line style="stroke:#181818;stroke-width:0.5;" x1="1428" x2="1696" y1="645.6094" y2="645.6094"/><line style="stroke:#181818;stroke-width:0.5;" x1="1428" x2="1696" y1="653.6094" y2="653.6094"/><ellipse cx="1438" cy="667.9141" fill="#84BE84" rx="3" ry="3" style="stroke:#038048;stroke-width:1.0;"/><text fill="#000000" font-family="sans-serif" font-size="14" lengthAdjust="spacing" textLength="244" x="1447" y="672.1426">findBoardCell(row, column) : BoardCell</text></g><!--class IBoardSynchronizer--><g id="elem_IBoardSynchronizer"><rect codeLine="65" fill="#F1F1F1" height="83.2188" id="IBoardSynchronizer" rx="2.5" ry="2.5" style="stroke:#181818;stroke-width:0.5;" width="348" x="1388" y="756.1094"/><ellipse cx="1495.25" cy="772.1094" fill="#B4A7E5" rx="11" ry="11" style="stroke:#181818;stroke-width:1.0;"/><path d="M1496.25,769.1094 L1496.25,775.1094 L1498.25,775.1094 L1498.7344,775.1094 L1499.25,775.7344 L1499.25,776.1094 L1499.25,776.4844 L1498.7344,777.1094 L1498.25,777.1094 L1492.25,777.1094 L1491.7656,777.1094 L1491.25,776.4844 L1491.25,776.1094 L1491.25,775.7344 L1491.7656,775.1094 L1492.25,775.1094 L1494.25,775.1094 L1494.25,769.1094 L1492.25,769.1094 L1491.7656,769.1094 L1491.25,768.4844 L1491.25,768.1094 L1491.25,767.7344 L1491.7656,767.1094 L1492.25,767.1094 L1498.25,767.1094 L1498.7344,767.1094 L1499.25,767.7344 L1499.25,768.1094 L1499.25,768.4844 L1498.7344,769.1094 L1498.25,769.1094 L1496.25,769.1094 Z " fill="#000000"/><text fill="#000000" font-family="sans-serif" font-size="14" font-style="italic" lengthAdjust="spacing" textLength="125" x="1515.75" y="777.8379">IBoardSynchronizer</text><line style="stroke:#181818;stroke-width:0.5;" x1="1389" x2="1735" y1="788.1094" y2="788.1094"/><line style="stroke:#181818;stroke-width:0.5;" x1="1389" x2="1735" y1="796.1094" y2="796.1094"/><ellipse cx="1399" cy="810.4141" fill="#84BE84" rx="3" ry="3" style="stroke:#038048;stroke-width:1.0;"/><text fill="#000000" font-family="sans-serif" font-size="14" lengthAdjust="spacing" textLength="224" x="1408" y="814.6426">getBoardCellLock(lockKey) : Object</text><ellipse cx="1399" cy="828.0234" fill="#84BE84" rx="3" ry="3" style="stroke:#038048;stroke-width:1.0;"/><text fill="#000000" font-family="sans-serif" font-size="14" lengthAdjust="spacing" textLength="322" x="1408" y="832.252">createBoardCellLock(boardId, row, column) : String</text></g><!--class ChangePostItRequest--><g id="elem_ChangePostItRequest"><rect codeLine="73" fill="#F1F1F1" height="171.2656" id="ChangePostItRequest" rx="2.5" ry="2.5" style="stroke:#181818;stroke-width:0.5;" width="170" x="64" y="589.1094"/><ellipse cx="79" cy="605.1094" fill="#ADD1B2" rx="11" ry="11" style="stroke:#181818;stroke-width:1.0;"/><path d="M81,601.6094 Q81.2031,601.1094 81.4375,600.8594 Q81.6719,600.6094 81.9375,600.6094 Q82.4063,600.6094 82.7031,600.8906 Q83,601.1719 83,601.8281 L83,603.3906 Q83,604.0469 82.7188,604.3281 Q82.4375,604.6094 82,604.6094 Q81.6094,604.6094 81.3594,604.4375 Q81.1094,604.2656 81,603.8125 Q80.9531,603.5 80.7813,603.3281 Q80.4688,603 79.9063,602.8125 Q79.3438,602.6094 78.7813,602.6094 Q78.0781,602.6094 77.4844,602.8906 Q76.9063,603.1719 76.4531,603.7969 Q76,604.4219 76,605.2813 L76,606.2031 Q76,607.2344 76.8438,607.9219 Q77.6875,608.6094 79.1875,608.6094 Q80.0781,608.6094 80.7031,608.4063 Q81.0625,608.2969 81.4688,607.9375 Q81.7344,607.7344 81.875,607.6719 Q82.0156,607.6094 82.1875,607.6094 Q82.5156,607.6094 82.75,607.875 Q83,608.125 83,608.4844 Q83,608.8281 82.6563,609.2344 Q82.1563,609.8281 81.3594,610.1563 Q80.3125,610.6094 79.0313,610.6094 Q77.5313,610.6094 76.3281,610.0156 Q75.3594,609.5469 74.6719,608.5313 Q74,607.5156 74,606.3125 L74,605.2188 Q74,603.9688 74.5938,602.875 Q75.2031,601.7813 76.25,601.2031 Q77.3125,600.6094 78.5,600.6094 Q79.2188,600.6094 79.8438,600.8594 Q80.4688,601.1094 81,601.6094 Z " fill="#000000"/><text fill="#000000" font-family="sans-serif" font-size="14" lengthAdjust="spacing" textLength="138" x="93" y="610.8379">ChangePostItRequest</text><line style="stroke:#181818;stroke-width:0.5;" x1="65" x2="233" y1="621.1094" y2="621.1094"/><ellipse cx="75" cy="635.4141" fill="none" rx="3" ry="3" style="stroke:#038048;stroke-width:1.0;"/><text fill="#000000" font-family="sans-serif" font-size="14" lengthAdjust="spacing" textLength="37" x="84" y="639.6426">board</text><ellipse cx="75" cy="653.0234" fill="none" rx="3" ry="3" style="stroke:#038048;stroke-width:1.0;"/><text fill="#000000" font-family="sans-serif" font-size="14" lengthAdjust="spacing" textLength="46" x="84" y="657.252">oldRow</text><ellipse cx="75" cy="670.6328" fill="none" rx="3" ry="3" style="stroke:#038048;stroke-width:1.0;"/><text fill="#000000" font-family="sans-serif" font-size="14" lengthAdjust="spacing" textLength="67" x="84" y="674.8613">oldColumn</text><ellipse cx="75" cy="688.2422" fill="none" rx="3" ry="3" style="stroke:#038048;stroke-width:1.0;"/><text fill="#000000" font-family="sans-serif" font-size="14" lengthAdjust="spacing" textLength="52" x="84" y="692.4707">newRow</text><ellipse cx="75" cy="705.8516" fill="none" rx="3" ry="3" style="stroke:#038048;stroke-width:1.0;"/><text fill="#000000" font-family="sans-serif" font-size="14" lengthAdjust="spacing" textLength="73" x="84" y="710.0801">newColumn</text><ellipse cx="75" cy="723.4609" fill="none" rx="3" ry="3" style="stroke:#038048;stroke-width:1.0;"/><text fill="#000000" font-family="sans-serif" font-size="14" lengthAdjust="spacing" textLength="69" x="84" y="727.6895">oldContent</text><ellipse cx="75" cy="741.0703" fill="none" rx="3" ry="3" style="stroke:#038048;stroke-width:1.0;"/><text fill="#000000" font-family="sans-serif" font-size="14" lengthAdjust="spacing" textLength="75" x="84" y="745.2988">newContent</text><line style="stroke:#181818;stroke-width:0.5;" x1="65" x2="233" y1="752.375" y2="752.375"/></g><!--class PostItEndpointProcessor--><g id="elem_PostItEndpointProcessor"><rect codeLine="83" fill="#F1F1F1" height="65.6094" id="PostItEndpointProcessor" rx="2.5" ry="2.5" style="stroke:#181818;stroke-width:0.5;" width="254" x="22" y="795.6094"/><ellipse cx="67.25" cy="811.6094" fill="#ADD1B2" rx="11" ry="11" style="stroke:#181818;stroke-width:1.0;"/><path d="M69.25,808.1094 Q69.4531,807.6094 69.6875,807.3594 Q69.9219,807.1094 70.1875,807.1094 Q70.6563,807.1094 70.9531,807.3906 Q71.25,807.6719 71.25,808.3281 L71.25,809.8906 Q71.25,810.5469 70.9688,810.8281 Q70.6875,811.1094 70.25,811.1094 Q69.8594,811.1094 69.6094,810.9375 Q69.3594,810.7656 69.25,810.3125 Q69.2031,810 69.0313,809.8281 Q68.7188,809.5 68.1563,809.3125 Q67.5938,809.1094 67.0313,809.1094 Q66.3281,809.1094 65.7344,809.3906 Q65.1563,809.6719 64.7031,810.2969 Q64.25,810.9219 64.25,811.7813 L64.25,812.7031 Q64.25,813.7344 65.0938,814.4219 Q65.9375,815.1094 67.4375,815.1094 Q68.3281,815.1094 68.9531,814.9063 Q69.3125,814.7969 69.7188,814.4375 Q69.9844,814.2344 70.125,814.1719 Q70.2656,814.1094 70.4375,814.1094 Q70.7656,814.1094 71,814.375 Q71.25,814.625 71.25,814.9844 Q71.25,815.3281 70.9063,815.7344 Q70.4063,816.3281 69.6094,816.6563 Q68.5625,817.1094 67.2813,817.1094 Q65.7813,817.1094 64.5781,816.5156 Q63.6094,816.0469 62.9219,815.0313 Q62.25,814.0156 62.25,812.8125 L62.25,811.7188 Q62.25,810.4688 62.8438,809.375 Q63.4531,808.2813 64.5,807.7031 Q65.5625,807.1094 66.75,807.1094 Q67.4688,807.1094 68.0938,807.3594 Q68.7188,807.6094 69.25,808.1094 Z " fill="#000000"/><text fill="#000000" font-family="sans-serif" font-size="14" lengthAdjust="spacing" textLength="155" x="87.75" y="817.3379">PostItEndpointProcessor</text><line style="stroke:#181818;stroke-width:0.5;" x1="23" x2="275" y1="827.6094" y2="827.6094"/><line style="stroke:#181818;stroke-width:0.5;" x1="23" x2="275" y1="835.6094" y2="835.6094"/><ellipse cx="33" cy="849.9141" fill="#84BE84" rx="3" ry="3" style="stroke:#038048;stroke-width:1.0;"/><text fill="#000000" font-family="sans-serif" font-size="14" lengthAdjust="spacing" textLength="228" x="42" y="854.1426">processRequest(request, response)</text></g><!--link PostItEndpointProcessor to ChangePostItRequest--><g id="link_PostItEndpointProcessor_ChangePostItRequest"><path codeLine="88" d="M149,795.5194 C149,785.5994 149,775.6794 149,765.7594 " fill="none" id="PostItEndpointProcessor-to-ChangePostItRequest" style="stroke:#181818;stroke-width:1.0;"/><polygon fill="#181818" points="149,760.5694,145,769.5694,149,765.5694,153,769.5694,149,760.5694" style="stroke:#181818;stroke-width:1.0;"/></g><!--link ChangePostItRequest to ChangePostItController--><g id="link_ChangePostItRequest_ChangePostItController"><path codeLine="89" d="M234.13,674.6094 C268.07,674.6094 309.06,674.6094 350.88,674.6094 " fill="none" id="ChangePostItRequest-to-ChangePostItController" style="stroke:#181818;stroke-width:1.0;"/><polygon fill="#181818" points="355.99,674.6094,346.99,670.6094,350.99,674.6094,346.99,678.6094,355.99,674.6094" style="stroke:#181818;stroke-width:1.0;"/></g><!--link ChangePostItController to IBoardSynchronizer--><g id="link_ChangePostItController_IBoardSynchronizer"><path codeLine="91" d="M758.05,716.1494 C795.59,724.1994 835.25,731.8994 872.5,737.6094 C1044.63,763.9894 1242.88,779.7394 1382.31,788.4394 " fill="none" id="ChangePostItController-to-IBoardSynchronizer" style="stroke:#181818;stroke-width:1.0;"/><polygon fill="#181818" points="1387.66,788.7694,1378.9157,784.2375,1382.669,788.4699,1378.4366,792.2232,1387.66,788.7694" style="stroke:#181818;stroke-width:1.0;"/></g><!--link ChangePostItController to BoardLogger--><g id="link_ChangePostItController_BoardLogger"><path codeLine="92" d="M586,632.7794 C586,528.5694 586,424.3594 586,320.1494 " fill="none" id="ChangePostItController-to-BoardLogger" style="stroke:#181818;stroke-width:1.0;"/><polygon fill="#181818" points="586,314.8694,582,323.8694,586,319.8694,590,323.8694,586,314.8694" style="stroke:#181818;stroke-width:1.0;"/></g><!--link ChangePostItController to PostItRepository--><g id="link_ChangePostItController_PostItRepository"><path codeLine="93" d="M586,716.4394 C586,741.2994 586,766.1494 586,791.0094 " fill="none" id="ChangePostItController-to-PostItRepository" style="stroke:#181818;stroke-width:1.0;"/><polygon fill="#181818" points="586,796.3094,590,787.3094,586,791.3094,582,787.3094,586,796.3094" style="stroke:#181818;stroke-width:1.0;"/></g><!--link ChangePostItController to IPostItManager--><g id="link_ChangePostItController_IPostItManager"><path codeLine="94" d="M816.08,672.2794 C834.3,672.0994 852.64,671.9094 870.71,671.7294 " fill="none" id="ChangePostItController-to-IPostItManager" style="stroke:#181818;stroke-width:1.0;"/><polygon fill="#181818" points="875.79,671.6794,866.756,667.7567,870.7902,671.7222,866.8246,675.7564,875.79,671.6794" style="stroke:#181818;stroke-width:1.0;"/></g><!--link IPostItManager to PostIt--><g id="link_IPostItManager_PostIt"><path codeLine="96" d="M1080,619.1094 C1080,595.1994 1080,571.2794 1080,547.3694 " fill="none" id="IPostItManager-to-PostIt" style="stroke:#181818;stroke-width:1.0;"/><polygon fill="#181818" points="1080,542.2694,1076,551.2694,1080,547.2694,1084,551.2694,1080,542.2694" style="stroke:#181818;stroke-width:1.0;"/></g><!--link IPostItManager to Board--><g id="link_IPostItManager_Board"><path codeLine="97" d="M1284.22,659.8694 C1330.53,657.6494 1378.72,655.3394 1421.66,653.2894 " fill="none" id="IPostItManager-to-Board" style="stroke:#181818;stroke-width:1.0;"/><polygon fill="#181818" points="1426.86,653.0394,1417.6863,649.4557,1421.8652,653.2684,1418.0526,657.4474,1426.86,653.0394" style="stroke:#181818;stroke-width:1.0;"/></g><!--link BoardLogger to BoardLog--><g id="link_BoardLogger_BoardLog"><path codeLine="99" d="M693.76,283.5594 C797.05,285.4494 949.17,288.2394 1027.78,289.6694 " fill="none" id="BoardLogger-to-BoardLog" style="stroke:#181818;stroke-width:1.0;"/><polygon fill="#181818" points="1032.85,289.7694,1023.9318,285.5902,1027.851,289.6694,1023.7718,293.5886,1032.85,289.7694" style="stroke:#181818;stroke-width:1.0;"/></g><!--link BoardLogger to BoardLogRepository--><g id="link_BoardLogger_BoardLogRepository"><path codeLine="100" d="M693.76,254.6994 C776.89,233.7494 891.65,204.8294 974.26,184.0094 " fill="none" id="BoardLogger-to-BoardLogRepository" style="stroke:#181818;stroke-width:1.0;"/><polygon fill="#181818" points="979.16,182.7694,969.4527,181.1053,974.3135,183.9989,971.4199,188.8596,979.16,182.7694" style="stroke:#181818;stroke-width:1.0;"/></g><!--SRC=[bLNDZjiW4Bxp51mT9P5Mwg5I3pqqwY7gLbqbwWCGJ1Awc761P9MkykxbnmbWOqVhWss6OUQRRtuGR6-m0QpuuMXmpHMZXeD4XXl1yE_jfwUdptY9LqSY3mo_W3RBjK48jOI-4YjfhOIRXaYxQ9Wq-1qXR9_RVWqDuRAQtUJkeO9exMsjdJvEdZdrZbOWZJLMdJHJ2zmgTkPmqfrqWMdy4Q1ckGN5Ma4eMp4XklEIlRbLrBkYyCwGahOLd18N_H1iY3z0TZ0K2C5K6NpGwdplWAXwWK7K6tZptnM8KoCzAYzow88eC-Orkp2zIZdaQqJAhORQsz3nEa3uwRCoYJ8dEe3Dj7kG-a5CeyHVkYpd01eu5qbglQp0JC5GCOKszQ2v0NL9CnXv2JOsgLO6J9CpgmAA2PVNMFqUk813Ll_ZHJL4zCqPU8P38KtMR5frbVVbO9s1rzCyXAPB38OYlZd3xu_P6uVwWBvTf-QGteuyfF3H_2Y7qlU_vxBs6xxtbIiXUg-V-yP7fa2XjRoTxKNIemB9_mtpTc3cxkiPw6ibxEi7kpWGltP_x7pjjQDYnB3yY2TbRLkY5yJMA2uVqqcXQKuo3sCunpRixudfT0BF_Ucu30sVhKD3Hb7erMpTLuapegSMPLqIqelXkwnRiBo_AA1CQqXvdhT1s4LGgV2rT37TWjHi5eaPixRyMY83bGXQzdJZ1O3GoCLWJmmhPK8vcGCJMltvDQhgt6Tt04AzE-5kRR1nGuDGEfoM2SZHZGJPVm00]--></g></svg>