<?xml version="1.0" encoding="us-ascii" standalone="no"?><svg xmlns="http://www.w3.org/2000/svg" xmlns:xlink="http://www.w3.org/1999/xlink" contentStyleType="text/css" height="897.4px" preserveAspectRatio="none" style="width:1395px;height:897px;background:#FFFFFF;" version="1.1" viewBox="0 0 1395 897" width="1395.1px" zoomAndPan="magnify"><defs/><g><text fill="#000000" font-family="sans-serif" font-size="9.8" font-weight="bold" lengthAdjust="spacing" textLength="72.1" x="662.725" y="20.6732">Change Post-It</text><rect fill="#FFFFFF" height="713.2672" style="stroke:#181818;stroke-width:0.6999999999999998;" width="7" x="103.25" y="110.0258"/><rect fill="#FFFFFF" height="664.475" style="stroke:#181818;stroke-width:0.6999999999999998;" width="7" x="232.75" y="131.2719"/><rect fill="#FFFFFF" height="600.7367" style="stroke:#181818;stroke-width:0.6999999999999998;" width="7" x="527.8" y="173.7641"/><rect fill="#FFFFFF" height="169.9687" style="stroke:#181818;stroke-width:0.6999999999999998;" width="7" x="776.3" y="264.5945"/><rect fill="#FFFFFF" height="169.9687" style="stroke:#181818;stroke-width:0.6999999999999998;" width="7" x="776.3" y="455.8094"/><rect fill="#FFFFFF" height="63.7383" style="stroke:#181818;stroke-width:0.6999999999999998;" width="7" x="902.3" y="328.3328"/><rect fill="#FFFFFF" height="63.7383" style="stroke:#181818;stroke-width:0.6999999999999998;" width="7" x="902.3" y="519.5477"/><rect fill="#FFFFFF" height="21.2461" style="stroke:#181818;stroke-width:0.6999999999999998;" width="7" x="972.65" y="285.8406"/><rect fill="#FFFFFF" height="21.2461" style="stroke:#181818;stroke-width:0.6999999999999998;" width="7" x="972.65" y="477.0555"/><rect fill="#FFFFFF" height="63.7383" style="stroke:#181818;stroke-width:0.6999999999999998;" width="7" x="1100.75" y="647.0242"/><rect fill="#FFFFFF" height="21.2461" style="stroke:#181818;stroke-width:0.6999999999999998;" width="7" x="1200.15" y="689.5164"/><rect fill="#FFFFFF" height="21.2461" style="stroke:#181818;stroke-width:0.6999999999999998;" width="7" x="1353.1" y="349.5789"/><rect fill="#FFFFFF" height="21.2461" style="stroke:#181818;stroke-width:0.6999999999999998;" width="7" x="1353.1" y="540.7937"/><rect fill="#FFFFFF" height="21.2461" style="stroke:#181818;stroke-width:0.6999999999999998;" width="7" x="1353.1" y="732.0086"/><line style="stroke:#181818;stroke-width:0.3499999999999999;stroke-dasharray:5.0,5.0;" x1="15.4" x2="15.4" y1="87.3797" y2="829.593"/><line style="stroke:#181818;stroke-width:0.3499999999999999;stroke-dasharray:5.0,5.0;" x1="106.4" x2="106.4" y1="87.3797" y2="829.593"/><line style="stroke:#181818;stroke-width:0.3499999999999999;stroke-dasharray:5.0,5.0;" x1="235.9" x2="235.9" y1="87.3797" y2="829.593"/><line style="stroke:#181818;stroke-width:0.3499999999999999;stroke-dasharray:5.0,5.0;" x1="414.75" x2="414.75" y1="87.3797" y2="829.593"/><line style="stroke:#181818;stroke-width:0.3499999999999999;stroke-dasharray:5.0,5.0;" x1="530.95" x2="530.95" y1="87.3797" y2="829.593"/><line style="stroke:#181818;stroke-width:0.3499999999999999;stroke-dasharray:5.0,5.0;" x1="779.8" x2="779.8" y1="87.3797" y2="829.593"/><line style="stroke:#181818;stroke-width:0.3499999999999999;stroke-dasharray:5.0,5.0;" x1="905.45" x2="905.45" y1="87.3797" y2="829.593"/><line style="stroke:#181818;stroke-width:0.3499999999999999;stroke-dasharray:5.0,5.0;" x1="976.15" x2="976.15" y1="87.3797" y2="829.593"/><line style="stroke:#181818;stroke-width:0.3499999999999999;stroke-dasharray:5.0,5.0;" x1="1036.35" x2="1036.35" y1="87.3797" y2="829.593"/><line style="stroke:#181818;stroke-width:0.3499999999999999;stroke-dasharray:5.0,5.0;" x1="1104.25" x2="1104.25" y1="87.3797" y2="829.593"/><line style="stroke:#181818;stroke-width:0.3499999999999999;stroke-dasharray:5.0,5.0;" x1="1203.65" x2="1203.65" y1="87.3797" y2="829.593"/><line style="stroke:#181818;stroke-width:0.3499999999999999;stroke-dasharray:5.0,5.0;" x1="1284.85" x2="1284.85" y1="87.3797" y2="829.593"/><line style="stroke:#181818;stroke-width:0.3499999999999999;stroke-dasharray:5.0,5.0;" x1="1356.25" x2="1356.25" y1="87.3797" y2="829.593"/><text fill="#000000" font-family="sans-serif" font-size="9.8" lengthAdjust="spacing" textLength="20.3" x="3.5" y="85.2264">User</text><ellipse cx="15.75" cy="39.0031" fill="#E2E2F0" rx="5.6" ry="5.6" style="stroke:#181818;stroke-width:0.3499999999999999;"/><path d="M15.75,44.6031 L15.75,63.5031 M6.65,50.2031 L24.85,50.2031 M15.75,63.5031 L6.65,74.0031 M15.75,63.5031 L24.85,74.0031 " fill="none" style="stroke:#181818;stroke-width:0.3499999999999999;"/><text fill="#000000" font-family="sans-serif" font-size="9.8" lengthAdjust="spacing" textLength="20.3" x="3.5" y="839.0662">User</text><ellipse cx="15.75" cy="847.1695" fill="#E2E2F0" rx="5.6" ry="5.6" style="stroke:#181818;stroke-width:0.3499999999999999;"/><path d="M15.75,852.7695 L15.75,871.6695 M6.65,858.3695 L24.85,858.3695 M15.75,871.6695 L6.65,882.1695 M15.75,871.6695 L24.85,882.1695 " fill="none" style="stroke:#181818;stroke-width:0.3499999999999999;"/><rect fill="#E2E2F0" height="34.4531" rx="1.75" ry="1.75" style="stroke:#181818;stroke-width:0.3499999999999999;" width="46.9" x="83.3" y="52.2266"/><text fill="#000000" font-family="sans-serif" font-size="9.8" font-style="italic" lengthAdjust="spacing" textLength="37.1" x="88.2" y="67.2998">&#171;HTTP&#187;</text><text fill="#000000" font-family="sans-serif" font-size="9.8" lengthAdjust="spacing" textLength="35.7" x="88.9" y="79.6264">Browser</text><rect fill="#E2E2F0" height="34.4531" rx="1.75" ry="1.75" style="stroke:#181818;stroke-width:0.3499999999999999;" width="46.9" x="83.3" y="828.893"/><text fill="#000000" font-family="sans-serif" font-size="9.8" font-style="italic" lengthAdjust="spacing" textLength="37.1" x="88.2" y="843.9662">&#171;HTTP&#187;</text><text fill="#000000" font-family="sans-serif" font-size="9.8" lengthAdjust="spacing" textLength="35.7" x="88.9" y="856.2928">Browser</text><rect fill="#E2E2F0" height="34.4531" rx="1.75" ry="1.75" style="stroke:#181818;stroke-width:0.3499999999999999;" width="118.3" x="177.1" y="52.2266"/><text fill="#000000" font-family="sans-serif" font-size="9.8" font-style="italic" lengthAdjust="spacing" textLength="58.8" x="206.85" y="67.2998">&#171;application&#187;</text><text fill="#000000" font-family="sans-serif" font-size="9.8" lengthAdjust="spacing" textLength="108.5" x="182" y="79.6264">PostItEndpointProcessor</text><rect fill="#E2E2F0" height="34.4531" rx="1.75" ry="1.75" style="stroke:#181818;stroke-width:0.3499999999999999;" width="118.3" x="177.1" y="828.893"/><text fill="#000000" font-family="sans-serif" font-size="9.8" font-style="italic" lengthAdjust="spacing" textLength="58.8" x="206.85" y="843.9662">&#171;application&#187;</text><text fill="#000000" font-family="sans-serif" font-size="9.8" lengthAdjust="spacing" textLength="108.5" x="182" y="856.2928">PostItEndpointProcessor</text><rect fill="#E2E2F0" height="34.4531" rx="1.75" ry="1.75" style="stroke:#181818;stroke-width:0.3499999999999999;" width="106.4" x="361.55" y="52.2266"/><text fill="#000000" font-family="sans-serif" font-size="9.8" font-style="italic" lengthAdjust="spacing" textLength="25.2" x="402.15" y="67.2998">&#171;dto&#187;</text><text fill="#000000" font-family="sans-serif" font-size="9.8" lengthAdjust="spacing" textLength="96.6" x="366.45" y="79.6264">ChangePostItRequest</text><rect fill="#E2E2F0" height="34.4531" rx="1.75" ry="1.75" style="stroke:#181818;stroke-width:0.3499999999999999;" width="106.4" x="361.55" y="828.893"/><text fill="#000000" font-family="sans-serif" font-size="9.8" font-style="italic" lengthAdjust="spacing" textLength="25.2" x="402.15" y="843.9662">&#171;dto&#187;</text><text fill="#000000" font-family="sans-serif" font-size="9.8" lengthAdjust="spacing" textLength="96.6" x="366.45" y="856.2928">ChangePostItRequest</text><rect fill="#E2E2F0" height="34.4531" rx="1.75" ry="1.75" style="stroke:#181818;stroke-width:0.3499999999999999;" width="112.7" x="474.95" y="52.2266"/><text fill="#000000" font-family="sans-serif" font-size="9.8" font-style="italic" lengthAdjust="spacing" textLength="58.8" x="501.9" y="67.2998">&#171;application&#187;</text><text fill="#000000" font-family="sans-serif" font-size="9.8" lengthAdjust="spacing" textLength="102.9" x="479.85" y="79.6264">ChangePostItController</text><rect fill="#E2E2F0" height="34.4531" rx="1.75" ry="1.75" style="stroke:#181818;stroke-width:0.3499999999999999;" width="112.7" x="474.95" y="828.893"/><text fill="#000000" font-family="sans-serif" font-size="9.8" font-style="italic" lengthAdjust="spacing" textLength="58.8" x="501.9" y="843.9662">&#171;application&#187;</text><text fill="#000000" font-family="sans-serif" font-size="9.8" lengthAdjust="spacing" textLength="102.9" x="479.85" y="856.2928">ChangePostItController</text><rect fill="#E2E2F0" height="34.4531" rx="1.75" ry="1.75" style="stroke:#181818;stroke-width:0.3499999999999999;" width="75.6" x="742" y="52.2266"/><text fill="#000000" font-family="sans-serif" font-size="9.8" font-style="italic" lengthAdjust="spacing" textLength="58.8" x="750.4" y="67.2998">&#171;application&#187;</text><text fill="#000000" font-family="sans-serif" font-size="9.8" lengthAdjust="spacing" textLength="65.8" x="746.9" y="79.6264">IPostItManager</text><rect fill="#E2E2F0" height="34.4531" rx="1.75" ry="1.75" style="stroke:#181818;stroke-width:0.3499999999999999;" width="75.6" x="742" y="828.893"/><text fill="#000000" font-family="sans-serif" font-size="9.8" font-style="italic" lengthAdjust="spacing" textLength="58.8" x="750.4" y="843.9662">&#171;application&#187;</text><text fill="#000000" font-family="sans-serif" font-size="9.8" lengthAdjust="spacing" textLength="65.8" x="746.9" y="856.2928">IPostItManager</text><rect fill="#E2E2F0" height="34.4531" rx="1.75" ry="1.75" style="stroke:#181818;stroke-width:0.3499999999999999;" width="73.5" x="869.05" y="52.2266"/><text fill="#000000" font-family="sans-serif" font-size="9.8" font-style="italic" lengthAdjust="spacing" textLength="58.8" x="876.4" y="67.2998">&#171;application&#187;</text><text fill="#000000" font-family="sans-serif" font-size="9.8" lengthAdjust="spacing" textLength="63.7" x="873.95" y="79.6264">IPostItProvider</text><rect fill="#E2E2F0" height="34.4531" rx="1.75" ry="1.75" style="stroke:#181818;stroke-width:0.3499999999999999;" width="73.5" x="869.05" y="828.893"/><text fill="#000000" font-family="sans-serif" font-size="9.8" font-style="italic" lengthAdjust="spacing" textLength="58.8" x="876.4" y="843.9662">&#171;application&#187;</text><text fill="#000000" font-family="sans-serif" font-size="9.8" lengthAdjust="spacing" textLength="63.7" x="873.95" y="856.2928">IPostItProvider</text><rect fill="#E2E2F0" height="34.4531" rx="1.75" ry="1.75" style="stroke:#181818;stroke-width:0.3499999999999999;" width="53.2" x="949.55" y="52.2266"/><text fill="#000000" font-family="sans-serif" font-size="9.8" font-style="italic" lengthAdjust="spacing" textLength="43.4" x="954.45" y="67.2998">&#171;domain&#187;</text><text fill="#000000" font-family="sans-serif" font-size="9.8" lengthAdjust="spacing" textLength="26.6" x="962.85" y="79.6264">Board</text><rect fill="#E2E2F0" height="34.4531" rx="1.75" ry="1.75" style="stroke:#181818;stroke-width:0.3499999999999999;" width="53.2" x="949.55" y="828.893"/><text fill="#000000" font-family="sans-serif" font-size="9.8" font-style="italic" lengthAdjust="spacing" textLength="43.4" x="954.45" y="843.9662">&#171;domain&#187;</text><text fill="#000000" font-family="sans-serif" font-size="9.8" lengthAdjust="spacing" textLength="26.6" x="962.85" y="856.2928">Board</text><rect fill="#E2E2F0" height="34.4531" rx="1.75" ry="1.75" style="stroke:#181818;stroke-width:0.3499999999999999;" width="53.2" x="1009.75" y="52.2266"/><text fill="#000000" font-family="sans-serif" font-size="9.8" font-style="italic" lengthAdjust="spacing" textLength="43.4" x="1014.65" y="67.2998">&#171;domain&#187;</text><text fill="#000000" font-family="sans-serif" font-size="9.8" lengthAdjust="spacing" textLength="24.5" x="1024.1" y="79.6264">PostIt</text><rect fill="#E2E2F0" height="34.4531" rx="1.75" ry="1.75" style="stroke:#181818;stroke-width:0.3499999999999999;" width="53.2" x="1009.75" y="828.893"/><text fill="#000000" font-family="sans-serif" font-size="9.8" font-style="italic" lengthAdjust="spacing" textLength="43.4" x="1014.65" y="843.9662">&#171;domain&#187;</text><text fill="#000000" font-family="sans-serif" font-size="9.8" lengthAdjust="spacing" textLength="24.5" x="1024.1" y="856.2928">PostIt</text><rect fill="#E2E2F0" height="34.4531" rx="1.75" ry="1.75" style="stroke:#181818;stroke-width:0.3499999999999999;" width="68.6" x="1069.95" y="52.2266"/><text fill="#000000" font-family="sans-serif" font-size="9.8" font-style="italic" lengthAdjust="spacing" textLength="58.8" x="1074.85" y="67.2998">&#171;application&#187;</text><text fill="#000000" font-family="sans-serif" font-size="9.8" lengthAdjust="spacing" textLength="58.1" x="1075.2" y="79.6264">BoardLogger</text><rect fill="#E2E2F0" height="34.4531" rx="1.75" ry="1.75" style="stroke:#181818;stroke-width:0.3499999999999999;" width="68.6" x="1069.95" y="828.893"/><text fill="#000000" font-family="sans-serif" font-size="9.8" font-style="italic" lengthAdjust="spacing" textLength="58.8" x="1074.85" y="843.9662">&#171;application&#187;</text><text fill="#000000" font-family="sans-serif" font-size="9.8" lengthAdjust="spacing" textLength="58.1" x="1075.2" y="856.2928">BoardLogger</text><text fill="#000000" font-family="sans-serif" font-size="9.8" font-style="italic" lengthAdjust="spacing" textLength="55.3" x="1173.9" y="72.8998">&#171;repository&#187;</text><text fill="#000000" font-family="sans-serif" font-size="9.8" lengthAdjust="spacing" textLength="91" x="1156.05" y="85.2264">BoardLogRepository</text><path d="M1191.05,37.5266 C1191.05,30.5266 1203.65,30.5266 1203.65,30.5266 C1203.65,30.5266 1216.25,30.5266 1216.25,37.5266 L1216.25,55.7266 C1216.25,62.7266 1203.65,62.7266 1203.65,62.7266 C1203.65,62.7266 1191.05,62.7266 1191.05,55.7266 L1191.05,37.5266 " fill="#E2E2F0" style="stroke:#181818;stroke-width:1.0499999999999998;"/><path d="M1191.05,37.5266 C1191.05,44.5266 1203.65,44.5266 1203.65,44.5266 C1203.65,44.5266 1216.25,44.5266 1216.25,37.5266 " fill="none" style="stroke:#181818;stroke-width:1.0499999999999998;"/><text fill="#000000" font-family="sans-serif" font-size="9.8" font-style="italic" lengthAdjust="spacing" textLength="55.3" x="1173.9" y="839.0662">&#171;repository&#187;</text><text fill="#000000" font-family="sans-serif" font-size="9.8" lengthAdjust="spacing" textLength="91" x="1156.05" y="851.3928">BoardLogRepository</text><path d="M1191.05,860.5461 C1191.05,853.5461 1203.65,853.5461 1203.65,853.5461 C1203.65,853.5461 1216.25,853.5461 1216.25,860.5461 L1216.25,878.7461 C1216.25,885.7461 1203.65,885.7461 1203.65,885.7461 C1203.65,885.7461 1191.05,885.7461 1191.05,878.7461 L1191.05,860.5461 " fill="#E2E2F0" style="stroke:#181818;stroke-width:1.0499999999999998;"/><path d="M1191.05,860.5461 C1191.05,867.5461 1203.65,867.5461 1203.65,867.5461 C1203.65,867.5461 1216.25,867.5461 1216.25,860.5461 " fill="none" style="stroke:#181818;stroke-width:1.0499999999999998;"/><rect fill="#E2E2F0" height="34.4531" rx="1.75" ry="1.75" style="stroke:#181818;stroke-width:0.3499999999999999;" width="53.2" x="1258.25" y="52.2266"/><text fill="#000000" font-family="sans-serif" font-size="9.8" font-style="italic" lengthAdjust="spacing" textLength="43.4" x="1263.15" y="67.2998">&#171;domain&#187;</text><text fill="#000000" font-family="sans-serif" font-size="9.8" lengthAdjust="spacing" textLength="43.4" x="1263.15" y="79.6264">BoardLog</text><rect fill="#E2E2F0" height="34.4531" rx="1.75" ry="1.75" style="stroke:#181818;stroke-width:0.3499999999999999;" width="53.2" x="1258.25" y="828.893"/><text fill="#000000" font-family="sans-serif" font-size="9.8" font-style="italic" lengthAdjust="spacing" textLength="43.4" x="1263.15" y="843.9662">&#171;domain&#187;</text><text fill="#000000" font-family="sans-serif" font-size="9.8" lengthAdjust="spacing" textLength="43.4" x="1263.15" y="856.2928">BoardLog</text><text fill="#000000" font-family="sans-serif" font-size="9.8" font-style="italic" lengthAdjust="spacing" textLength="55.3" x="1326.85" y="72.8998">&#171;repository&#187;</text><text fill="#000000" font-family="sans-serif" font-size="9.8" lengthAdjust="spacing" textLength="72.1" x="1318.45" y="85.2264">PostItRepository</text><path d="M1344,37.5266 C1344,30.5266 1356.6,30.5266 1356.6,30.5266 C1356.6,30.5266 1369.2,30.5266 1369.2,37.5266 L1369.2,55.7266 C1369.2,62.7266 1356.6,62.7266 1356.6,62.7266 C1356.6,62.7266 1344,62.7266 1344,55.7266 L1344,37.5266 " fill="#E2E2F0" style="stroke:#181818;stroke-width:1.0499999999999998;"/><path d="M1344,37.5266 C1344,44.5266 1356.6,44.5266 1356.6,44.5266 C1356.6,44.5266 1369.2,44.5266 1369.2,37.5266 " fill="none" style="stroke:#181818;stroke-width:1.0499999999999998;"/><text fill="#000000" font-family="sans-serif" font-size="9.8" font-style="italic" lengthAdjust="spacing" textLength="55.3" x="1326.85" y="839.0662">&#171;repository&#187;</text><text fill="#000000" font-family="sans-serif" font-size="9.8" lengthAdjust="spacing" textLength="72.1" x="1318.45" y="851.3928">PostItRepository</text><path d="M1344,860.5461 C1344,853.5461 1356.6,853.5461 1356.6,853.5461 C1356.6,853.5461 1369.2,853.5461 1369.2,860.5461 L1369.2,878.7461 C1369.2,885.7461 1356.6,885.7461 1356.6,885.7461 C1356.6,885.7461 1344,885.7461 1344,878.7461 L1344,860.5461 " fill="#E2E2F0" style="stroke:#181818;stroke-width:1.0499999999999998;"/><path d="M1344,860.5461 C1344,867.5461 1356.6,867.5461 1356.6,867.5461 C1356.6,867.5461 1369.2,867.5461 1369.2,860.5461 " fill="none" style="stroke:#181818;stroke-width:1.0499999999999998;"/><rect fill="#FFFFFF" height="713.2672" style="stroke:#181818;stroke-width:0.6999999999999998;" width="7" x="103.25" y="110.0258"/><rect fill="#FFFFFF" height="664.475" style="stroke:#181818;stroke-width:0.6999999999999998;" width="7" x="232.75" y="131.2719"/><rect fill="#FFFFFF" height="600.7367" style="stroke:#181818;stroke-width:0.6999999999999998;" width="7" x="527.8" y="173.7641"/><rect fill="#FFFFFF" height="169.9687" style="stroke:#181818;stroke-width:0.6999999999999998;" width="7" x="776.3" y="264.5945"/><rect fill="#FFFFFF" height="169.9687" style="stroke:#181818;stroke-width:0.6999999999999998;" width="7" x="776.3" y="455.8094"/><rect fill="#FFFFFF" height="63.7383" style="stroke:#181818;stroke-width:0.6999999999999998;" width="7" x="902.3" y="328.3328"/><rect fill="#FFFFFF" height="63.7383" style="stroke:#181818;stroke-width:0.6999999999999998;" width="7" x="902.3" y="519.5477"/><rect fill="#FFFFFF" height="21.2461" style="stroke:#181818;stroke-width:0.6999999999999998;" width="7" x="972.65" y="285.8406"/><rect fill="#FFFFFF" height="21.2461" style="stroke:#181818;stroke-width:0.6999999999999998;" width="7" x="972.65" y="477.0555"/><rect fill="#FFFFFF" height="63.7383" style="stroke:#181818;stroke-width:0.6999999999999998;" width="7" x="1100.75" y="647.0242"/><rect fill="#FFFFFF" height="21.2461" style="stroke:#181818;stroke-width:0.6999999999999998;" width="7" x="1200.15" y="689.5164"/><rect fill="#FFFFFF" height="21.2461" style="stroke:#181818;stroke-width:0.6999999999999998;" width="7" x="1353.1" y="349.5789"/><rect fill="#FFFFFF" height="21.2461" style="stroke:#181818;stroke-width:0.6999999999999998;" width="7" x="1353.1" y="540.7937"/><rect fill="#FFFFFF" height="21.2461" style="stroke:#181818;stroke-width:0.6999999999999998;" width="7" x="1353.1" y="732.0086"/><polygon fill="#181818" points="94.85,107.2258,101.85,110.0258,94.85,112.8258,97.65,110.0258" style="stroke:#181818;stroke-width:0.6999999999999998;"/><line style="stroke:#181818;stroke-width:0.6999999999999998;" x1="15.75" x2="99.05" y1="110.0258" y2="110.0258"/><text fill="#000000" font-family="sans-serif" font-size="9.1" font-weight="bold" lengthAdjust="spacing" textLength="4.9" x="20.65" y="106.6263">1</text><text fill="#000000" font-family="sans-serif" font-size="9.1" lengthAdjust="spacing" textLength="57.4" x="28.35" y="106.6263">change post-it</text><polygon fill="#181818" points="224.35,128.4719,231.35,131.2719,224.35,134.0719,227.15,131.2719" style="stroke:#181818;stroke-width:0.6999999999999998;"/><line style="stroke:#181818;stroke-width:0.6999999999999998;" x1="110.25" x2="228.55" y1="131.2719" y2="131.2719"/><text fill="#000000" font-family="sans-serif" font-size="9.1" font-weight="bold" lengthAdjust="spacing" textLength="4.9" x="115.15" y="127.8724">2</text><text fill="#000000" font-family="sans-serif" font-size="9.1" lengthAdjust="spacing" textLength="101.5" x="122.85" y="127.8724">processRequest(request)</text><polygon fill="#181818" points="406.35,149.718,413.35,152.518,406.35,155.318,409.15,152.518" style="stroke:#181818;stroke-width:0.6999999999999998;"/><line style="stroke:#181818;stroke-width:0.6999999999999998;" x1="239.75" x2="410.55" y1="152.518" y2="152.518"/><text fill="#000000" font-family="sans-serif" font-size="9.1" font-weight="bold" lengthAdjust="spacing" textLength="4.9" x="244.65" y="149.1185">3</text><text fill="#000000" font-family="sans-serif" font-size="9.1" lengthAdjust="spacing" textLength="150.5" x="252.35" y="149.1185">create(boardId, row, column, content)</text><polygon fill="#181818" points="519.4,170.9641,526.4,173.7641,519.4,176.5641,522.2,173.7641" style="stroke:#181818;stroke-width:0.6999999999999998;"/><line style="stroke:#181818;stroke-width:0.6999999999999998;" x1="239.75" x2="523.6" y1="173.7641" y2="173.7641"/><text fill="#000000" font-family="sans-serif" font-size="9.1" font-weight="bold" lengthAdjust="spacing" textLength="4.9" x="244.65" y="170.3646">4</text><text fill="#000000" font-family="sans-serif" font-size="9.1" lengthAdjust="spacing" textLength="96.6" x="252.35" y="170.3646">create(boardRepository)</text><path d="M315.7,182.8641 L315.7,224.1641 L524.3,224.1641 L524.3,189.8641 L517.3,182.8641 L315.7,182.8641 " fill="#FEFFDD" style="stroke:#181818;stroke-width:0.3499999999999999;"/><path d="M517.3,182.8641 L517.3,189.8641 L524.3,189.8641 L517.3,182.8641 " fill="#FEFFDD" style="stroke:#181818;stroke-width:0.3499999999999999;"/><text fill="#000000" font-family="sans-serif" font-size="9.1" lengthAdjust="spacing" textLength="182" x="319.9" y="195.8106">For the row, column and content there will be</text><text fill="#000000" font-family="sans-serif" font-size="9.1" lengthAdjust="spacing" textLength="191.1" x="319.9" y="207.2567">two varibles, containing the old and new values.</text><text fill="#000000" font-family="sans-serif" font-size="9.1" lengthAdjust="spacing" textLength="193.9" x="319.9" y="218.7028">So, for the row, there will a oldRow and newRow</text><polygon fill="#181818" points="519.4,240.5484,526.4,243.3484,519.4,246.1484,522.2,243.3484" style="stroke:#181818;stroke-width:0.6999999999999998;"/><line style="stroke:#181818;stroke-width:0.6999999999999998;" x1="239.75" x2="523.6" y1="243.3484" y2="243.3484"/><text fill="#000000" font-family="sans-serif" font-size="9.1" font-weight="bold" lengthAdjust="spacing" textLength="4.9" x="244.65" y="239.9489">5</text><text fill="#000000" font-family="sans-serif" font-size="9.1" lengthAdjust="spacing" textLength="194.6" x="252.35" y="239.9489">changePostIt(user, board, row, column, content)</text><polygon fill="#181818" points="767.9,261.7945,774.9,264.5945,767.9,267.3945,770.7,264.5945" style="stroke:#181818;stroke-width:0.6999999999999998;"/><line style="stroke:#181818;stroke-width:0.6999999999999998;" x1="534.8" x2="772.1" y1="264.5945" y2="264.5945"/><text fill="#000000" font-family="sans-serif" font-size="9.1" font-weight="bold" lengthAdjust="spacing" textLength="4.9" x="539.7" y="261.195">6</text><text fill="#000000" font-family="sans-serif" font-size="9.1" lengthAdjust="spacing" textLength="191.8" x="547.4" y="261.195">changePostIt(user, row, column, content, color)</text><polygon fill="#181818" points="964.25,283.0406,971.25,285.8406,964.25,288.6406,967.05,285.8406" style="stroke:#181818;stroke-width:0.6999999999999998;"/><line style="stroke:#181818;stroke-width:0.6999999999999998;" x1="783.3" x2="968.45" y1="285.8406" y2="285.8406"/><text fill="#000000" font-family="sans-serif" font-size="9.1" font-weight="bold" lengthAdjust="spacing" textLength="4.9" x="788.2" y="282.4411">7</text><text fill="#000000" font-family="sans-serif" font-size="9.1" lengthAdjust="spacing" textLength="112.7" x="795.9" y="282.4411">findCell(oldRow, oldColumn)</text><polygon fill="#181818" points="791,304.2867,784,307.0867,791,309.8867,788.2,307.0867" style="stroke:#181818;stroke-width:0.6999999999999998;"/><line style="stroke:#181818;stroke-width:0.6999999999999998;" x1="786.8" x2="975.45" y1="307.0867" y2="307.0867"/><text fill="#000000" font-family="sans-serif" font-size="9.1" font-weight="bold" lengthAdjust="spacing" textLength="4.9" x="795.2" y="303.6872">8</text><text fill="#000000" font-family="sans-serif" font-size="9.1" lengthAdjust="spacing" textLength="39.9" x="802.9" y="303.6872">return cell</text><polygon fill="#181818" points="893.9,325.5328,900.9,328.3328,893.9,331.1328,896.7,328.3328" style="stroke:#181818;stroke-width:0.6999999999999998;"/><line style="stroke:#181818;stroke-width:0.6999999999999998;" x1="783.3" x2="898.1" y1="328.3328" y2="328.3328"/><text fill="#000000" font-family="sans-serif" font-size="9.1" font-weight="bold" lengthAdjust="spacing" textLength="4.9" x="788.2" y="324.9333">9</text><text fill="#000000" font-family="sans-serif" font-size="9.1" lengthAdjust="spacing" textLength="98" x="795.9" y="324.9333">providePostItByCell(cell)</text><polygon fill="#181818" points="1344.7,346.7789,1351.7,349.5789,1344.7,352.3789,1347.5,349.5789" style="stroke:#181818;stroke-width:0.6999999999999998;"/><line style="stroke:#181818;stroke-width:0.6999999999999998;" x1="909.3" x2="1348.9" y1="349.5789" y2="349.5789"/><text fill="#000000" font-family="sans-serif" font-size="9.1" font-weight="bold" lengthAdjust="spacing" textLength="9.8" x="914.2" y="346.1794">10</text><text fill="#000000" font-family="sans-serif" font-size="9.1" lengthAdjust="spacing" textLength="84" x="926.8" y="346.1794">findPostItByCell(cell)</text><polygon fill="#181818" points="917,368.025,910,370.825,917,373.625,914.2,370.825" style="stroke:#181818;stroke-width:0.6999999999999998;"/><line style="stroke:#181818;stroke-width:0.6999999999999998;" x1="912.8" x2="1355.9" y1="370.825" y2="370.825"/><text fill="#000000" font-family="sans-serif" font-size="9.1" font-weight="bold" lengthAdjust="spacing" textLength="9.8" x="921.2" y="367.4255">11</text><text fill="#000000" font-family="sans-serif" font-size="9.1" lengthAdjust="spacing" textLength="48.3" x="933.8" y="367.4255">return postIt</text><polygon fill="#181818" points="791,389.2711,784,392.0711,791,394.8711,788.2,392.0711" style="stroke:#181818;stroke-width:0.6999999999999998;"/><line style="stroke:#181818;stroke-width:0.6999999999999998;" x1="786.8" x2="905.1" y1="392.0711" y2="392.0711"/><text fill="#000000" font-family="sans-serif" font-size="9.1" font-weight="bold" lengthAdjust="spacing" textLength="9.8" x="795.2" y="388.6716">12</text><text fill="#000000" font-family="sans-serif" font-size="9.1" lengthAdjust="spacing" textLength="48.3" x="807.8" y="388.6716">return postIt</text><polygon fill="#181818" points="1027.95,410.5172,1034.95,413.3172,1027.95,416.1172,1030.75,413.3172" style="stroke:#181818;stroke-width:0.6999999999999998;"/><line style="stroke:#181818;stroke-width:0.6999999999999998;" x1="783.3" x2="1032.15" y1="413.3172" y2="413.3172"/><text fill="#000000" font-family="sans-serif" font-size="9.1" font-weight="bold" lengthAdjust="spacing" textLength="9.8" x="788.2" y="409.9177">13</text><text fill="#000000" font-family="sans-serif" font-size="9.1" lengthAdjust="spacing" textLength="188.3" x="800.8" y="409.9177">changeContent(oldContent, newContent, color)</text><polygon fill="#181818" points="542.5,431.7633,535.5,434.5633,542.5,437.3633,539.7,434.5633" style="stroke:#181818;stroke-width:0.6999999999999998;"/><line style="stroke:#181818;stroke-width:0.6999999999999998;" x1="538.3" x2="779.1" y1="434.5633" y2="434.5633"/><text fill="#000000" font-family="sans-serif" font-size="9.1" font-weight="bold" lengthAdjust="spacing" textLength="9.8" x="546.7" y="431.1638">14</text><text fill="#000000" font-family="sans-serif" font-size="9.1" lengthAdjust="spacing" textLength="48.3" x="559.3" y="431.1638">return postIt</text><polygon fill="#181818" points="767.9,453.0094,774.9,455.8094,767.9,458.6094,770.7,455.8094" style="stroke:#181818;stroke-width:0.6999999999999998;"/><line style="stroke:#181818;stroke-width:0.6999999999999998;" x1="534.8" x2="772.1" y1="455.8094" y2="455.8094"/><text fill="#000000" font-family="sans-serif" font-size="9.1" font-weight="bold" lengthAdjust="spacing" textLength="9.8" x="539.7" y="452.4099">15</text><text fill="#000000" font-family="sans-serif" font-size="9.1" lengthAdjust="spacing" textLength="215.6" x="552.3" y="452.4099">movePostIt(user, board, postIt, newRow, newColumn)</text><polygon fill="#181818" points="964.25,474.2555,971.25,477.0555,964.25,479.8555,967.05,477.0555" style="stroke:#181818;stroke-width:0.6999999999999998;"/><line style="stroke:#181818;stroke-width:0.6999999999999998;" x1="783.3" x2="968.45" y1="477.0555" y2="477.0555"/><text fill="#000000" font-family="sans-serif" font-size="9.1" font-weight="bold" lengthAdjust="spacing" textLength="9.8" x="788.2" y="473.656">16</text><text fill="#000000" font-family="sans-serif" font-size="9.1" lengthAdjust="spacing" textLength="121.1" x="800.8" y="473.656">findCell(newRow, newColumn)</text><polygon fill="#181818" points="791,495.5016,784,498.3016,791,501.1016,788.2,498.3016" style="stroke:#181818;stroke-width:0.6999999999999998;"/><line style="stroke:#181818;stroke-width:0.6999999999999998;" x1="786.8" x2="975.45" y1="498.3016" y2="498.3016"/><text fill="#000000" font-family="sans-serif" font-size="9.1" font-weight="bold" lengthAdjust="spacing" textLength="9.8" x="795.2" y="494.9021">17</text><text fill="#000000" font-family="sans-serif" font-size="9.1" lengthAdjust="spacing" textLength="39.9" x="807.8" y="494.9021">return cell</text><polygon fill="#181818" points="893.9,516.7477,900.9,519.5477,893.9,522.3477,896.7,519.5477" style="stroke:#181818;stroke-width:0.6999999999999998;"/><line style="stroke:#181818;stroke-width:0.6999999999999998;" x1="783.3" x2="898.1" y1="519.5477" y2="519.5477"/><text fill="#000000" font-family="sans-serif" font-size="9.1" font-weight="bold" lengthAdjust="spacing" textLength="9.8" x="788.2" y="516.1481">18</text><text fill="#000000" font-family="sans-serif" font-size="9.1" lengthAdjust="spacing" textLength="58.1" x="800.8" y="516.1481">hasPostIt(cell)</text><polygon fill="#181818" points="1344.7,537.9937,1351.7,540.7937,1344.7,543.5937,1347.5,540.7937" style="stroke:#181818;stroke-width:0.6999999999999998;"/><line style="stroke:#181818;stroke-width:0.6999999999999998;" x1="909.3" x2="1348.9" y1="540.7937" y2="540.7937"/><text fill="#000000" font-family="sans-serif" font-size="9.1" font-weight="bold" lengthAdjust="spacing" textLength="9.8" x="914.2" y="537.3942">19</text><text fill="#000000" font-family="sans-serif" font-size="9.1" lengthAdjust="spacing" textLength="84" x="926.8" y="537.3942">findPostItByCell(cell)</text><polygon fill="#181818" points="917,559.2398,910,562.0398,917,564.8398,914.2,562.0398" style="stroke:#181818;stroke-width:0.6999999999999998;"/><line style="stroke:#181818;stroke-width:0.6999999999999998;" x1="912.8" x2="1355.9" y1="562.0398" y2="562.0398"/><text fill="#000000" font-family="sans-serif" font-size="9.1" font-weight="bold" lengthAdjust="spacing" textLength="9.8" x="921.2" y="558.6403">20</text><text fill="#000000" font-family="sans-serif" font-size="9.1" lengthAdjust="spacing" textLength="48.3" x="933.8" y="558.6403">return postIt</text><polygon fill="#181818" points="791,580.4859,784,583.2859,791,586.0859,788.2,583.2859" style="stroke:#181818;stroke-width:0.6999999999999998;"/><line style="stroke:#181818;stroke-width:0.6999999999999998;" x1="786.8" x2="905.1" y1="583.2859" y2="583.2859"/><text fill="#000000" font-family="sans-serif" font-size="9.1" font-weight="bold" lengthAdjust="spacing" textLength="9.8" x="795.2" y="579.8864">21</text><text fill="#000000" font-family="sans-serif" font-size="9.1" lengthAdjust="spacing" textLength="48.3" x="807.8" y="579.8864">return postIt</text><polygon fill="#181818" points="1027.95,601.732,1034.95,604.532,1027.95,607.332,1030.75,604.532" style="stroke:#181818;stroke-width:0.6999999999999998;"/><line style="stroke:#181818;stroke-width:0.6999999999999998;" x1="783.3" x2="1032.15" y1="604.532" y2="604.532"/><text fill="#000000" font-family="sans-serif" font-size="9.1" font-weight="bold" lengthAdjust="spacing" textLength="9.8" x="788.2" y="601.1325">22</text><text fill="#000000" font-family="sans-serif" font-size="9.1" lengthAdjust="spacing" textLength="105" x="800.8" y="601.1325">replaceCell(user, newCell)</text><polygon fill="#181818" points="542.5,622.9781,535.5,625.7781,542.5,628.5781,539.7,625.7781" style="stroke:#181818;stroke-width:0.6999999999999998;"/><line style="stroke:#181818;stroke-width:0.6999999999999998;" x1="538.3" x2="779.1" y1="625.7781" y2="625.7781"/><text fill="#000000" font-family="sans-serif" font-size="9.1" font-weight="bold" lengthAdjust="spacing" textLength="9.8" x="546.7" y="622.3786">23</text><text fill="#000000" font-family="sans-serif" font-size="9.1" lengthAdjust="spacing" textLength="48.3" x="559.3" y="622.3786">return postIt</text><polygon fill="#181818" points="1092.35,644.2242,1099.35,647.0242,1092.35,649.8242,1095.15,647.0242" style="stroke:#181818;stroke-width:0.6999999999999998;"/><line style="stroke:#181818;stroke-width:0.6999999999999998;" x1="534.8" x2="1096.55" y1="647.0242" y2="647.0242"/><text fill="#000000" font-family="sans-serif" font-size="9.1" font-weight="bold" lengthAdjust="spacing" textLength="9.8" x="539.7" y="643.6247">24</text><text fill="#000000" font-family="sans-serif" font-size="9.1" lengthAdjust="spacing" textLength="117.6" x="552.3" y="643.6247">logPostItChange(board, user)</text><polygon fill="#181818" points="1276.45,665.4703,1283.45,668.2703,1276.45,671.0703,1279.25,668.2703" style="stroke:#181818;stroke-width:0.6999999999999998;"/><line style="stroke:#181818;stroke-width:0.6999999999999998;" x1="1107.75" x2="1280.65" y1="668.2703" y2="668.2703"/><text fill="#000000" font-family="sans-serif" font-size="9.1" font-weight="bold" lengthAdjust="spacing" textLength="9.8" x="1112.65" y="664.8708">25</text><text fill="#000000" font-family="sans-serif" font-size="9.1" lengthAdjust="spacing" textLength="137.9" x="1125.25" y="664.8708">create(component, operationType)</text><polygon fill="#181818" points="1191.75,686.7164,1198.75,689.5164,1191.75,692.3164,1194.55,689.5164" style="stroke:#181818;stroke-width:0.6999999999999998;"/><line style="stroke:#181818;stroke-width:0.6999999999999998;" x1="1107.75" x2="1195.95" y1="689.5164" y2="689.5164"/><text fill="#000000" font-family="sans-serif" font-size="9.1" font-weight="bold" lengthAdjust="spacing" textLength="9.8" x="1112.65" y="686.1169">26</text><text fill="#000000" font-family="sans-serif" font-size="9.1" lengthAdjust="spacing" textLength="60.9" x="1125.25" y="686.1169">save(boardLog)</text><polygon fill="#181818" points="1111.95,707.9625,1104.95,710.7625,1111.95,713.5625,1109.15,710.7625" style="stroke:#181818;stroke-width:0.6999999999999998;"/><line style="stroke:#181818;stroke-width:0.6999999999999998;" x1="1107.75" x2="1202.95" y1="710.7625" y2="710.7625"/><text fill="#000000" font-family="sans-serif" font-size="9.1" font-weight="bold" lengthAdjust="spacing" textLength="9.8" x="1116.15" y="707.363">27</text><text fill="#000000" font-family="sans-serif" font-size="9.1" lengthAdjust="spacing" textLength="63" x="1128.75" y="707.363">return boardLog</text><polygon fill="#181818" points="1344.7,729.2086,1351.7,732.0086,1344.7,734.8086,1347.5,732.0086" style="stroke:#181818;stroke-width:0.6999999999999998;"/><line style="stroke:#181818;stroke-width:0.6999999999999998;" x1="534.8" x2="1348.9" y1="732.0086" y2="732.0086"/><text fill="#000000" font-family="sans-serif" font-size="9.1" font-weight="bold" lengthAdjust="spacing" textLength="9.8" x="539.7" y="728.6091">28</text><text fill="#000000" font-family="sans-serif" font-size="9.1" lengthAdjust="spacing" textLength="46.2" x="552.3" y="728.6091">save(postIt)</text><polygon fill="#181818" points="542.5,750.4547,535.5,753.2547,542.5,756.0547,539.7,753.2547" style="stroke:#181818;stroke-width:0.6999999999999998;"/><line style="stroke:#181818;stroke-width:0.6999999999999998;" x1="538.3" x2="1355.9" y1="753.2547" y2="753.2547"/><text fill="#000000" font-family="sans-serif" font-size="9.1" font-weight="bold" lengthAdjust="spacing" textLength="9.8" x="546.7" y="749.8552">29</text><text fill="#000000" font-family="sans-serif" font-size="9.1" lengthAdjust="spacing" textLength="48.3" x="559.3" y="749.8552">return postIt</text><polygon fill="#181818" points="247.45,771.7008,240.45,774.5008,247.45,777.3008,244.65,774.5008" style="stroke:#181818;stroke-width:0.6999999999999998;"/><line style="stroke:#181818;stroke-width:0.6999999999999998;stroke-dasharray:2.0,2.0;" x1="243.25" x2="530.6" y1="774.5008" y2="774.5008"/><text fill="#000000" font-family="sans-serif" font-size="9.1" font-weight="bold" lengthAdjust="spacing" textLength="9.8" x="251.65" y="771.1013">30</text><text fill="#000000" font-family="sans-serif" font-size="9.1" lengthAdjust="spacing" textLength="48.3" x="264.25" y="771.1013">return postIt</text><polygon fill="#181818" points="117.95,792.9469,110.95,795.7469,117.95,798.5469,115.15,795.7469" style="stroke:#181818;stroke-width:0.6999999999999998;"/><line style="stroke:#181818;stroke-width:0.6999999999999998;stroke-dasharray:2.0,2.0;" x1="113.75" x2="235.55" y1="795.7469" y2="795.7469"/><text fill="#000000" font-family="sans-serif" font-size="9.1" font-weight="bold" lengthAdjust="spacing" textLength="9.8" x="122.15" y="792.3474">31</text><text fill="#000000" font-family="sans-serif" font-size="9.1" lengthAdjust="spacing" textLength="60.2" x="134.75" y="792.3474">return success</text><polygon fill="#181818" points="23.45,814.193,16.45,816.993,23.45,819.793,20.65,816.993" style="stroke:#181818;stroke-width:0.6999999999999998;"/><line style="stroke:#181818;stroke-width:0.6999999999999998;stroke-dasharray:2.0,2.0;" x1="19.25" x2="102.55" y1="816.993" y2="816.993"/><text fill="#000000" font-family="sans-serif" font-size="9.1" font-weight="bold" lengthAdjust="spacing" textLength="9.8" x="27.65" y="813.5935">32</text><text fill="#000000" font-family="sans-serif" font-size="9.1" lengthAdjust="spacing" textLength="58.1" x="40.25" y="813.5935">show success</text><!--SRC=[pLRRRjim37tdLmXzIW5t7s0KVMYmOG4seEYw3r1i9H6WY9ui9-ZVZxhPT9O4mOe1Up8jyP27uf5fENYqmtwj783NtYYnt4cxLU85U_-myW2oyUZ4tSzUkJiXUp6G0PrqNZUwazQBksU7nxAxJhPuVFpwzlRoz3Jt345N_hDjEzJMlpXiLDzZGdRbZR2owunkfDTeJqCaUYdGg_ergDv7k4isWLkFrq1BjDwXCPbmCxvUpxjAwE_Iocs6xfDz4uvgFUXMZQN6b-l8PvIkZVxH2fNXNcfx_b2ZOp0l-iKett1Rw9je_i6XbLwkPQycmAlgiDUaWlU22oi4TEF6fLmJVNhXpAOifPMp7DsuU9e6Wlx4mrDHMYsQ9DW0UT0-w5KVf5V50Q1eaa2ZoEfYPWqjidxk9_pe2p1fas9aJqhi5Fajrg6yLLi9IbEHdiomjrNKbR8KRmwUv3R7J_Kp1fCpW4LQC6hZ1MxunXUAwtUA9nVIjYL_s7DA7BKnOgt07r4SfDDhe_h4aTgXxJQ6GDD6g5L7SZ9Kv2VuWPNOy1GidWo8LpmM49cWWabKhrJDxk8YDBCIyGGkdXy0kwCKB5-xiv7EXOWBwEvXEjWS0ieDfgXHfBNOQDikbJ6BL5eLIbp6U1mVdI5ToucHg4aRVd1MD1G1MdNYpzELJq1Th5J6ytjC7l0yN_66ySiHGent9D6-7c5q1dQtPaGozxJDsJFiZC3OYCl8mfkN7dYMvYrJYnRnb7EtI4dBayunD9VInRoblrV4iyV3MH6cO5NMSsPpslyRz7C6_q_aivDzBYEr_CEQ-NybGtF0o4P5hgbduN0ZwRyNo5mUQIRMuPd_5g9C5raS8IixeUGDUP0M4T2a6x_j3Uuxj57As2aNP-pRUwVk6IZFqrhqyf0pKOXvcdYIPV0odhd00k8b5jHyAHOzhvarDtD8AxT8WKMwKGqyztmWNuJpCSZ62ly7oDX-QCBkYPxA51__0mWvH5Y_e-bLG02_0G00]--></g></svg>