<?xml version="1.0" encoding="us-ascii" standalone="no"?><svg xmlns="http://www.w3.org/2000/svg" xmlns:xlink="http://www.w3.org/1999/xlink" contentStyleType="text/css" height="479.2px" preserveAspectRatio="none" style="width:523px;height:479px;background:#FFFFFF;" version="1.1" viewBox="0 0 523 479" width="523.2px" zoomAndPan="magnify"><defs/><g><text fill="#000000" font-family="sans-serif" font-size="11.2" font-weight="bold" lengthAdjust="spacing" textLength="272.8" x="124.4" y="24.0859">Register User Sequence Diagram - Starting point</text><rect fill="#FFFFFF" height="273.5281" style="stroke:#181818;stroke-width:0.8000000000000002;" width="8" x="124.8" y="125.2266"/><rect fill="#FFFFFF" height="53.0328" style="stroke:#181818;stroke-width:0.8000000000000002;" width="8" x="128.8" y="345.7219"/><rect fill="#FFFFFF" height="75.0984" style="stroke:#181818;stroke-width:0.8000000000000002;" width="8" x="239.2" y="175.2922"/><rect fill="#FFFFFF" height="25.0328" style="stroke:#181818;stroke-width:0.8000000000000002;" width="8" x="352.4" y="200.325"/><rect fill="#FFFFFF" height="31.2" style="stroke:#181818;stroke-width:0.8000000000000002;" width="8" x="458.4" y="374.7547"/><line style="stroke:#181818;stroke-width:0.4000000000000001;stroke-dasharray:5.0,5.0;" x1="28.8" x2="28.8" y1="98.5938" y2="413.1547"/><line style="stroke:#181818;stroke-width:0.4000000000000001;stroke-dasharray:5.0,5.0;" x1="128.8" x2="128.8" y1="98.5938" y2="413.1547"/><line style="stroke:#181818;stroke-width:0.4000000000000001;stroke-dasharray:5.0,5.0;" x1="243.2" x2="243.2" y1="98.5938" y2="413.1547"/><line style="stroke:#181818;stroke-width:0.4000000000000001;stroke-dasharray:5.0,5.0;" x1="356" x2="356" y1="98.5938" y2="413.1547"/><line style="stroke:#181818;stroke-width:0.4000000000000001;stroke-dasharray:5.0,5.0;" x1="462.4" x2="462.4" y1="98.5938" y2="413.1547"/><text fill="#000000" font-family="sans-serif" font-size="11.2" lengthAdjust="spacing" textLength="44.8" x="4" y="95.7828">Manager</text><ellipse cx="28.8" cy="42.4969" fill="#E2E2F0" rx="6.4" ry="6.4" style="stroke:#181818;stroke-width:0.4000000000000001;"/><path d="M28.8,48.8969 L28.8,70.4969 M18.4,55.2969 L39.2,55.2969 M28.8,70.4969 L18.4,82.4969 M28.8,70.4969 L39.2,82.4969 " fill="none" style="stroke:#181818;stroke-width:0.4000000000000001;"/><text fill="#000000" font-family="sans-serif" font-size="11.2" lengthAdjust="spacing" textLength="44.8" x="4" y="424.4406">Manager</text><ellipse cx="28.8" cy="434.0516" fill="#E2E2F0" rx="6.4" ry="6.4" style="stroke:#181818;stroke-width:0.4000000000000001;"/><path d="M28.8,440.4516 L28.8,462.0516 M18.4,446.8516 L39.2,446.8516 M28.8,462.0516 L18.4,474.0516 M28.8,462.0516 L39.2,474.0516 " fill="none" style="stroke:#181818;stroke-width:0.4000000000000001;"/><rect fill="#E2E2F0" height="40.9938" rx="2" ry="2" style="stroke:#181818;stroke-width:0.4000000000000001;" width="86.4" x="85.6" y="56.8"/><text fill="#000000" font-family="sans-serif" font-size="11.2" font-style="italic" lengthAdjust="spacing" textLength="21.6" x="118" y="74.4859">&#171;ui&#187;</text><text fill="#000000" font-family="sans-serif" font-size="11.2" lengthAdjust="spacing" textLength="75.2" x="91.2" y="89.3828">RegisterUserUI</text><rect fill="#E2E2F0" height="40.9938" rx="2" ry="2" style="stroke:#181818;stroke-width:0.4000000000000001;" width="86.4" x="85.6" y="412.3547"/><text fill="#000000" font-family="sans-serif" font-size="11.2" font-style="italic" lengthAdjust="spacing" textLength="21.6" x="118" y="430.0406">&#171;ui&#187;</text><text fill="#000000" font-family="sans-serif" font-size="11.2" lengthAdjust="spacing" textLength="75.2" x="91.2" y="444.9375">RegisterUserUI</text><rect fill="#E2E2F0" height="40.9938" rx="2" ry="2" style="stroke:#181818;stroke-width:0.4000000000000001;" width="126.4" x="180" y="56.8"/><text fill="#000000" font-family="sans-serif" font-size="11.2" font-style="italic" lengthAdjust="spacing" textLength="67.2" x="209.6" y="74.4859">&#171;application&#187;</text><text fill="#000000" font-family="sans-serif" font-size="11.2" lengthAdjust="spacing" textLength="115.2" x="185.6" y="89.3828">RegisterUserController</text><rect fill="#E2E2F0" height="40.9938" rx="2" ry="2" style="stroke:#181818;stroke-width:0.4000000000000001;" width="126.4" x="180" y="412.3547"/><text fill="#000000" font-family="sans-serif" font-size="11.2" font-style="italic" lengthAdjust="spacing" textLength="67.2" x="209.6" y="430.0406">&#171;application&#187;</text><text fill="#000000" font-family="sans-serif" font-size="11.2" lengthAdjust="spacing" textLength="115.2" x="185.6" y="444.9375">RegisterUserController</text><rect fill="#E2E2F0" height="40.9938" rx="2" ry="2" style="stroke:#181818;stroke-width:0.4000000000000001;" width="84" x="314.4" y="56.8"/><text fill="#000000" font-family="sans-serif" font-size="11.2" font-style="italic" lengthAdjust="spacing" textLength="49.6" x="331.6" y="74.4859">&#171;domain&#187;</text><text fill="#000000" font-family="sans-serif" font-size="11.2" lengthAdjust="spacing" textLength="72.8" x="320" y="89.3828">ECourseRoles</text><rect fill="#E2E2F0" height="40.9938" rx="2" ry="2" style="stroke:#181818;stroke-width:0.4000000000000001;" width="84" x="314.4" y="412.3547"/><text fill="#000000" font-family="sans-serif" font-size="11.2" font-style="italic" lengthAdjust="spacing" textLength="49.6" x="331.6" y="430.0406">&#171;domain&#187;</text><text fill="#000000" font-family="sans-serif" font-size="11.2" lengthAdjust="spacing" textLength="72.8" x="320" y="444.9375">ECourseRoles</text><rect fill="#E2E2F0" height="40.9938" rx="2" ry="2" style="stroke:#181818;stroke-width:0.4000000000000001;" width="112" x="406.4" y="56.8"/><text fill="#000000" font-family="sans-serif" font-size="11.2" font-style="italic" lengthAdjust="spacing" textLength="21.6" x="451.6" y="74.4859">&#171;ui&#187;</text><text fill="#000000" font-family="sans-serif" font-size="11.2" lengthAdjust="spacing" textLength="100.8" x="412" y="89.3828">RegisterTypeUserUI</text><rect fill="#E2E2F0" height="40.9938" rx="2" ry="2" style="stroke:#181818;stroke-width:0.4000000000000001;" width="112" x="406.4" y="412.3547"/><text fill="#000000" font-family="sans-serif" font-size="11.2" font-style="italic" lengthAdjust="spacing" textLength="21.6" x="451.6" y="430.0406">&#171;ui&#187;</text><text fill="#000000" font-family="sans-serif" font-size="11.2" lengthAdjust="spacing" textLength="100.8" x="412" y="444.9375">RegisterTypeUserUI</text><rect fill="#FFFFFF" height="273.5281" style="stroke:#181818;stroke-width:0.8000000000000002;" width="8" x="124.8" y="125.2266"/><rect fill="#FFFFFF" height="53.0328" style="stroke:#181818;stroke-width:0.8000000000000002;" width="8" x="128.8" y="345.7219"/><rect fill="#FFFFFF" height="75.0984" style="stroke:#181818;stroke-width:0.8000000000000002;" width="8" x="239.2" y="175.2922"/><rect fill="#FFFFFF" height="25.0328" style="stroke:#181818;stroke-width:0.8000000000000002;" width="8" x="352.4" y="200.325"/><rect fill="#FFFFFF" height="31.2" style="stroke:#181818;stroke-width:0.8000000000000002;" width="8" x="458.4" y="374.7547"/><polygon fill="#181818" points="115.2,122.0266,123.2,125.2266,115.2,128.4266,118.4,125.2266" style="stroke:#181818;stroke-width:0.8000000000000002;"/><line style="stroke:#181818;stroke-width:0.8000000000000002;" x1="0" x2="120" y1="125.2266" y2="125.2266"/><text fill="#000000" font-family="sans-serif" font-size="10.4" font-weight="bold" lengthAdjust="spacing" textLength="5.6" x="5.6" y="121.0164">1</text><text fill="#000000" font-family="sans-serif" font-size="10.4" lengthAdjust="spacing" textLength="33.6" x="14.4" y="121.0164">onLoad</text><polygon fill="#181818" points="233.6,147.0594,241.6,150.2594,233.6,153.4594,236.8,150.2594" style="stroke:#181818;stroke-width:0.8000000000000002;"/><line style="stroke:#181818;stroke-width:0.8000000000000002;" x1="132.8" x2="238.4" y1="150.2594" y2="150.2594"/><text fill="#000000" font-family="sans-serif" font-size="10.4" font-weight="bold" lengthAdjust="spacing" textLength="5.6" x="138.4" y="146.0492">2</text><text fill="#000000" font-family="sans-serif" font-size="10.4" lengthAdjust="spacing" textLength="28.8" x="147.2" y="146.0492">create</text><polygon fill="#181818" points="229.6,172.0922,237.6,175.2922,229.6,178.4922,232.8,175.2922" style="stroke:#181818;stroke-width:0.8000000000000002;"/><line style="stroke:#181818;stroke-width:0.8000000000000002;" x1="132.8" x2="234.4" y1="175.2922" y2="175.2922"/><text fill="#000000" font-family="sans-serif" font-size="10.4" font-weight="bold" lengthAdjust="spacing" textLength="5.6" x="138.4" y="171.082">3</text><text fill="#000000" font-family="sans-serif" font-size="10.4" lengthAdjust="spacing" textLength="68.8" x="147.2" y="171.082">existingRoles()</text><polygon fill="#181818" points="342.8,197.125,350.8,200.325,342.8,203.525,346,200.325" style="stroke:#181818;stroke-width:0.8000000000000002;"/><line style="stroke:#181818;stroke-width:0.8000000000000002;" x1="247.2" x2="347.6" y1="200.325" y2="200.325"/><text fill="#000000" font-family="sans-serif" font-size="10.4" font-weight="bold" lengthAdjust="spacing" textLength="5.6" x="252.8" y="196.1148">4</text><text fill="#000000" font-family="sans-serif" font-size="10.4" lengthAdjust="spacing" textLength="68.8" x="261.6" y="196.1148">existingRoles()</text><polygon fill="#181818" points="256,222.1578,248,225.3578,256,228.5578,252.8,225.3578" style="stroke:#181818;stroke-width:0.8000000000000002;"/><line style="stroke:#181818;stroke-width:0.8000000000000002;stroke-dasharray:2.0,2.0;" x1="251.2" x2="355.6" y1="225.3578" y2="225.3578"/><text fill="#000000" font-family="sans-serif" font-size="10.4" font-weight="bold" lengthAdjust="spacing" textLength="5.6" x="260.8" y="221.1477">5</text><text fill="#000000" font-family="sans-serif" font-size="10.4" lengthAdjust="spacing" textLength="22.4" x="269.6" y="221.1477">roles</text><polygon fill="#181818" points="141.6,247.1906,133.6,250.3906,141.6,253.5906,138.4,250.3906" style="stroke:#181818;stroke-width:0.8000000000000002;"/><line style="stroke:#181818;stroke-width:0.8000000000000002;stroke-dasharray:2.0,2.0;" x1="136.8" x2="242.4" y1="250.3906" y2="250.3906"/><text fill="#000000" font-family="sans-serif" font-size="10.4" font-weight="bold" lengthAdjust="spacing" textLength="5.6" x="146.4" y="246.1805">6</text><text fill="#000000" font-family="sans-serif" font-size="10.4" lengthAdjust="spacing" textLength="22.4" x="155.2" y="246.1805">roles</text><polygon fill="#181818" points="37.6,286.0563,29.6,289.2563,37.6,292.4563,34.4,289.2563" style="stroke:#181818;stroke-width:0.8000000000000002;"/><line style="stroke:#181818;stroke-width:0.8000000000000002;" x1="32.8" x2="124" y1="289.2563" y2="289.2563"/><text fill="#000000" font-family="sans-serif" font-size="10.4" font-weight="bold" lengthAdjust="spacing" textLength="5.6" x="42.4" y="278.1297">7</text><text fill="#000000" font-family="sans-serif" font-size="10.4" lengthAdjust="spacing" textLength="38.4" x="51.2" y="271.2133">displays</text><text fill="#000000" font-family="sans-serif" font-size="10.4" lengthAdjust="spacing" textLength="64.8" x="54.4" y="285.0461">available roles</text><polygon fill="#181818" points="115.2,311.0891,123.2,314.2891,115.2,317.4891,118.4,314.2891" style="stroke:#181818;stroke-width:0.8000000000000002;"/><line style="stroke:#181818;stroke-width:0.8000000000000002;stroke-dasharray:2.0,2.0;" x1="28.8" x2="120" y1="314.2891" y2="314.2891"/><text fill="#000000" font-family="sans-serif" font-size="10.4" font-weight="bold" lengthAdjust="spacing" textLength="5.6" x="34.4" y="310.0789">8</text><text fill="#000000" font-family="sans-serif" font-size="10.4" lengthAdjust="spacing" textLength="59.2" x="43.2" y="310.0789">chooses role</text><line style="stroke:#181818;stroke-width:0.8000000000000002;" x1="132.8" x2="170.4" y1="335.3219" y2="335.3219"/><line style="stroke:#181818;stroke-width:0.8000000000000002;" x1="170.4" x2="170.4" y1="335.3219" y2="345.7219"/><line style="stroke:#181818;stroke-width:0.8000000000000002;" x1="137.6" x2="170.4" y1="345.7219" y2="345.7219"/><polygon fill="#181818" points="145.6,342.5219,137.6,345.7219,145.6,348.9219,142.4,345.7219" style="stroke:#181818;stroke-width:0.8000000000000002;"/><text fill="#000000" font-family="sans-serif" font-size="10.4" font-weight="bold" lengthAdjust="spacing" textLength="5.6" x="142.4" y="331.1117">9</text><text fill="#000000" font-family="sans-serif" font-size="10.4" lengthAdjust="spacing" textLength="69.6" x="151.2" y="331.1117">displayRoleUI()</text><polygon fill="#181818" points="448.8,371.5547,456.8,374.7547,448.8,377.9547,452,374.7547" style="stroke:#181818;stroke-width:0.8000000000000002;"/><line style="stroke:#181818;stroke-width:0.8000000000000002;" x1="136.8" x2="453.6" y1="374.7547" y2="374.7547"/><text fill="#000000" font-family="sans-serif" font-size="10.4" font-weight="bold" lengthAdjust="spacing" textLength="11.2" x="142.4" y="370.5445">10</text><text fill="#000000" font-family="sans-serif" font-size="10.4" lengthAdjust="spacing" textLength="84.8" x="156.8" y="370.5445">create and display</text><!--SRC=[VP4nRiCm34LtdOB8r0wvG15aSJCOg1SdthemDk4IK2H5aeFczgNanh4Rf8i1aUz_VjAHeoQegUSGoKCJvBEdyq2c9NXdx3sUO0txY3wowS5PDb4f7A8rm-b8Nc4RhOSA3VQYnG2LSWbksQ69iBfv9-kcN2MYRahOR0RURf-ZXJNHMwt9_qeAaQ1pcbkCRCrVxQwmWmzKMqqXAtP5BOhEdf3Diq67gwDvhiCzc5flSyutiER3OfVsv0j6IbMLEXae16WzINrPesyP80VBULvUv-f29KJ8bF0VKjeg8Ul9r2T4TRH0ijaKzW4Pv-LabVGx3axZDNmQm0kongFy_b5KpMpQBsi3XTovBrPE-XIsAPTxtQzo63toMG1DTrFDQ46MAH-UIlq0]--></g></svg>