<?xml version="1.0" encoding="us-ascii" standalone="no"?><svg xmlns="http://www.w3.org/2000/svg" xmlns:xlink="http://www.w3.org/1999/xlink" contentStyleType="text/css" height="1006.2px" preserveAspectRatio="none" style="width:1587px;height:1006px;background:#FFFFFF;" version="1.1" viewBox="0 0 1587 1006" width="1587.6px" zoomAndPan="magnify"><defs/><g><rect fill="#FFFFFF" height="877.1051" style="stroke:#181818;stroke-width:0.6;" width="6" x="190.5" y="58.9453"/><rect fill="#FFFFFF" height="37.5492" style="stroke:#181818;stroke-width:0.6;" width="6" x="476.7" y="91.6945"/><rect fill="#FFFFFF" height="56.3238" style="stroke:#181818;stroke-width:0.6;" width="6" x="476.7" y="148.0184"/><rect fill="#FFFFFF" height="56.3238" style="stroke:#181818;stroke-width:0.6;" width="6" x="476.7" y="260.666"/><rect fill="#FFFFFF" height="390.6668" style="stroke:#181818;stroke-width:0.6;" width="6" x="476.7" y="526.609"/><rect fill="#FFFFFF" height="18.7746" style="stroke:#181818;stroke-width:0.6;" width="6" x="570.3" y="110.4691"/><rect fill="#FFFFFF" height="18.7746" style="stroke:#181818;stroke-width:0.6;" width="6" x="669" y="166.793"/><rect fill="#FFFFFF" height="18.7746" style="stroke:#181818;stroke-width:0.6;" width="6" x="769.8" y="279.4406"/><rect fill="#FFFFFF" height="187.7461" style="stroke:#181818;stroke-width:0.6;" width="6" x="861" y="545.3836"/><rect fill="#FFFFFF" height="75.0984" style="stroke:#181818;stroke-width:0.6;" width="6" x="960.6" y="564.1582"/><rect fill="#FFFFFF" height="18.7746" style="stroke:#181818;stroke-width:0.6;" width="6" x="1140" y="582.9328"/><rect fill="#FFFFFF" height="56.3238" style="stroke:#181818;stroke-width:0.6;" width="6" x="1140" y="658.0313"/><rect fill="#FFFFFF" height="109.0477" style="stroke:#181818;stroke-width:0.6;" width="6" x="1288.8" y="751.9043"/><rect fill="#FFFFFF" height="60.5238" style="stroke:#181818;stroke-width:0.6;" width="6" x="1396.2" y="786.4535"/><rect fill="#FFFFFF" height="18.7746" style="stroke:#181818;stroke-width:0.6;" width="6" x="1470" y="879.7266"/><rect fill="none" height="81.873" style="stroke:#000000;stroke-width:0.8999999999999999;" width="342.6" x="1241.4" y="760.9043"/><line style="stroke:#181818;stroke-width:0.3;stroke-dasharray:5.0,5.0;" x1="19.2" x2="19.2" y1="52.9453" y2="946.8504"/><line style="stroke:#181818;stroke-width:0.3;stroke-dasharray:5.0,5.0;" x1="193.5" x2="193.5" y1="52.9453" y2="946.8504"/><line style="stroke:#181818;stroke-width:0.3;stroke-dasharray:5.0,5.0;" x1="479.7" x2="479.7" y1="52.9453" y2="946.8504"/><line style="stroke:#181818;stroke-width:0.3;stroke-dasharray:5.0,5.0;" x1="573.3" x2="573.3" y1="52.9453" y2="946.8504"/><line style="stroke:#181818;stroke-width:0.3;stroke-dasharray:5.0,5.0;" x1="671.7" x2="671.7" y1="52.9453" y2="946.8504"/><line style="stroke:#181818;stroke-width:0.3;stroke-dasharray:5.0,5.0;" x1="772.5" x2="772.5" y1="52.9453" y2="946.8504"/><line style="stroke:#181818;stroke-width:0.3;stroke-dasharray:5.0,5.0;" x1="863.7" x2="863.7" y1="52.9453" y2="946.8504"/><line style="stroke:#181818;stroke-width:0.3;stroke-dasharray:5.0,5.0;" x1="963.3" x2="963.3" y1="52.9453" y2="946.8504"/><line style="stroke:#181818;stroke-width:0.3;stroke-dasharray:5.0,5.0;" x1="1143" x2="1143" y1="52.9453" y2="946.8504"/><line style="stroke:#181818;stroke-width:0.3;stroke-dasharray:5.0,5.0;" x1="1215" x2="1215" y1="52.9453" y2="946.8504"/><line style="stroke:#181818;stroke-width:0.3;stroke-dasharray:5.0,5.0;" x1="1291.8" x2="1291.8" y1="52.9453" y2="946.8504"/><line style="stroke:#181818;stroke-width:0.3;stroke-dasharray:5.0,5.0;" x1="1399.2" x2="1399.2" y1="52.9453" y2="946.8504"/><line style="stroke:#181818;stroke-width:0.3;stroke-dasharray:5.0,5.0;" x1="1473" x2="1473" y1="52.9453" y2="946.8504"/><text fill="#000000" font-family="sans-serif" font-size="8.4" lengthAdjust="spacing" textLength="29.4" x="3" y="50.8371">Student</text><ellipse cx="19.5" cy="10.8727" fill="#E2E2F0" rx="4.8" ry="4.8" style="stroke:#181818;stroke-width:0.3;"/><path d="M19.5,15.6727 L19.5,31.8727 M11.7,20.4727 L27.3,20.4727 M19.5,31.8727 L11.7,40.8727 M19.5,31.8727 L27.3,40.8727 " fill="none" style="stroke:#181818;stroke-width:0.3;"/><text fill="#000000" font-family="sans-serif" font-size="8.4" lengthAdjust="spacing" textLength="29.4" x="3" y="955.3148">Student</text><ellipse cx="19.5" cy="962.523" fill="#E2E2F0" rx="4.8" ry="4.8" style="stroke:#181818;stroke-width:0.3;"/><path d="M19.5,967.323 L19.5,983.523 M11.7,972.123 L27.3,972.123 M19.5,983.523 L11.7,992.523 M19.5,983.523 L27.3,992.523 " fill="none" style="stroke:#181818;stroke-width:0.3;"/><rect fill="#E2E2F0" height="30.7453" rx="1.5" ry="1.5" style="stroke:#181818;stroke-width:0.3;" width="96" x="145.5" y="21.6"/><text fill="#000000" font-family="sans-serif" font-size="8.4" font-style="italic" lengthAdjust="spacing" textLength="18" x="184.5" y="34.8645">&#171;UI&#187;</text><text fill="#000000" font-family="sans-serif" font-size="8.4" lengthAdjust="spacing" textLength="87.6" x="149.7" y="46.0371">TakeAutomatedExamUI</text><rect fill="#E2E2F0" height="30.7453" rx="1.5" ry="1.5" style="stroke:#181818;stroke-width:0.3;" width="96" x="145.5" y="946.2504"/><text fill="#000000" font-family="sans-serif" font-size="8.4" font-style="italic" lengthAdjust="spacing" textLength="18" x="184.5" y="959.5148">&#171;UI&#187;</text><text fill="#000000" font-family="sans-serif" font-size="8.4" lengthAdjust="spacing" textLength="87.6" x="149.7" y="970.6875">TakeAutomatedExamUI</text><rect fill="#E2E2F0" height="30.7453" rx="1.5" ry="1.5" style="stroke:#181818;stroke-width:0.3;" width="85.2" x="437.1" y="21.6"/><text fill="#000000" font-family="sans-serif" font-size="8.4" font-style="italic" lengthAdjust="spacing" textLength="51" x="454.2" y="34.8645">&#171;Application&#187;</text><text fill="#000000" font-family="sans-serif" font-size="8.4" lengthAdjust="spacing" textLength="76.8" x="441.3" y="46.0371">TakeExamController</text><rect fill="#E2E2F0" height="30.7453" rx="1.5" ry="1.5" style="stroke:#181818;stroke-width:0.3;" width="85.2" x="437.1" y="946.2504"/><text fill="#000000" font-family="sans-serif" font-size="8.4" font-style="italic" lengthAdjust="spacing" textLength="51" x="454.2" y="959.5148">&#171;Application&#187;</text><text fill="#000000" font-family="sans-serif" font-size="8.4" lengthAdjust="spacing" textLength="76.8" x="441.3" y="970.6875">TakeExamController</text><rect fill="#E2E2F0" height="30.7453" rx="1.5" ry="1.5" style="stroke:#181818;stroke-width:0.3;" width="84" x="531.3" y="21.6"/><text fill="#000000" font-family="sans-serif" font-size="8.4" font-style="italic" lengthAdjust="spacing" textLength="51" x="547.8" y="34.8645">&#171;Application&#187;</text><text fill="#000000" font-family="sans-serif" font-size="8.4" lengthAdjust="spacing" textLength="75.6" x="535.5" y="46.0371">UserSessionService</text><rect fill="#E2E2F0" height="30.7453" rx="1.5" ry="1.5" style="stroke:#181818;stroke-width:0.3;" width="84" x="531.3" y="946.2504"/><text fill="#000000" font-family="sans-serif" font-size="8.4" font-style="italic" lengthAdjust="spacing" textLength="51" x="547.8" y="959.5148">&#171;Application&#187;</text><text fill="#000000" font-family="sans-serif" font-size="8.4" lengthAdjust="spacing" textLength="75.6" x="535.5" y="970.6875">UserSessionService</text><rect fill="#E2E2F0" height="30.7453" rx="1.5" ry="1.5" style="stroke:#181818;stroke-width:0.3;" width="101.4" x="621.3" y="21.6"/><text fill="#000000" font-family="sans-serif" font-size="8.4" font-style="italic" lengthAdjust="spacing" textLength="50.4" x="646.8" y="34.8645">&#171;Repository&#187;</text><text fill="#000000" font-family="sans-serif" font-size="8.4" lengthAdjust="spacing" textLength="93" x="625.5" y="46.0371">StudentCoursesProvider</text><rect fill="#E2E2F0" height="30.7453" rx="1.5" ry="1.5" style="stroke:#181818;stroke-width:0.3;" width="101.4" x="621.3" y="946.2504"/><text fill="#000000" font-family="sans-serif" font-size="8.4" font-style="italic" lengthAdjust="spacing" textLength="50.4" x="646.8" y="959.5148">&#171;Repository&#187;</text><text fill="#000000" font-family="sans-serif" font-size="8.4" lengthAdjust="spacing" textLength="93" x="625.5" y="970.6875">StudentCoursesProvider</text><rect fill="#E2E2F0" height="30.7453" rx="1.5" ry="1.5" style="stroke:#181818;stroke-width:0.3;" width="88.2" x="728.7" y="21.6"/><text fill="#000000" font-family="sans-serif" font-size="8.4" font-style="italic" lengthAdjust="spacing" textLength="50.4" x="747.6" y="34.8645">&#171;Repository&#187;</text><text fill="#000000" font-family="sans-serif" font-size="8.4" lengthAdjust="spacing" textLength="79.8" x="732.9" y="46.0371">CourseExamProvider</text><rect fill="#E2E2F0" height="30.7453" rx="1.5" ry="1.5" style="stroke:#181818;stroke-width:0.3;" width="88.2" x="728.7" y="946.2504"/><text fill="#000000" font-family="sans-serif" font-size="8.4" font-style="italic" lengthAdjust="spacing" textLength="50.4" x="747.6" y="959.5148">&#171;Repository&#187;</text><text fill="#000000" font-family="sans-serif" font-size="8.4" lengthAdjust="spacing" textLength="79.8" x="732.9" y="970.6875">CourseExamProvider</text><rect fill="#E2E2F0" height="30.7453" rx="1.5" ry="1.5" style="stroke:#181818;stroke-width:0.3;" width="82.2" x="822.9" y="21.6"/><text fill="#000000" font-family="sans-serif" font-size="8.4" font-style="italic" lengthAdjust="spacing" textLength="38.4" x="844.8" y="34.8645">&#171;Domain&#187;</text><text fill="#000000" font-family="sans-serif" font-size="8.4" lengthAdjust="spacing" textLength="73.8" x="827.1" y="46.0371">TakenExamHandler</text><rect fill="#E2E2F0" height="30.7453" rx="1.5" ry="1.5" style="stroke:#181818;stroke-width:0.3;" width="82.2" x="822.9" y="946.2504"/><text fill="#000000" font-family="sans-serif" font-size="8.4" font-style="italic" lengthAdjust="spacing" textLength="38.4" x="844.8" y="959.5148">&#171;Domain&#187;</text><text fill="#000000" font-family="sans-serif" font-size="8.4" lengthAdjust="spacing" textLength="73.8" x="827.1" y="970.6875">TakenExamHandler</text><rect fill="#E2E2F0" height="30.7453" rx="1.5" ry="1.5" style="stroke:#181818;stroke-width:0.3;" width="76.2" x="925.5" y="21.6"/><text fill="#000000" font-family="sans-serif" font-size="8.4" font-style="italic" lengthAdjust="spacing" textLength="38.4" x="944.4" y="34.8645">&#171;Domain&#187;</text><text fill="#000000" font-family="sans-serif" font-size="8.4" lengthAdjust="spacing" textLength="67.8" x="929.7" y="46.0371">TakenExamVisitor</text><rect fill="#E2E2F0" height="30.7453" rx="1.5" ry="1.5" style="stroke:#181818;stroke-width:0.3;" width="76.2" x="925.5" y="946.2504"/><text fill="#000000" font-family="sans-serif" font-size="8.4" font-style="italic" lengthAdjust="spacing" textLength="38.4" x="944.4" y="959.5148">&#171;Domain&#187;</text><text fill="#000000" font-family="sans-serif" font-size="8.4" lengthAdjust="spacing" textLength="67.8" x="929.7" y="970.6875">TakenExamVisitor</text><rect fill="#E2E2F0" height="30.7453" rx="1.5" ry="1.5" style="stroke:#181818;stroke-width:0.3;" width="79.2" x="1103.4" y="21.6"/><text fill="#000000" font-family="sans-serif" font-size="8.4" font-style="italic" lengthAdjust="spacing" textLength="38.4" x="1123.8" y="34.8645">&#171;Domain&#187;</text><text fill="#000000" font-family="sans-serif" font-size="8.4" lengthAdjust="spacing" textLength="70.8" x="1107.6" y="46.0371">TakenExamBuilder</text><rect fill="#E2E2F0" height="30.7453" rx="1.5" ry="1.5" style="stroke:#181818;stroke-width:0.3;" width="79.2" x="1103.4" y="946.2504"/><text fill="#000000" font-family="sans-serif" font-size="8.4" font-style="italic" lengthAdjust="spacing" textLength="38.4" x="1123.8" y="959.5148">&#171;Domain&#187;</text><text fill="#000000" font-family="sans-serif" font-size="8.4" lengthAdjust="spacing" textLength="70.8" x="1107.6" y="970.6875">TakenExamBuilder</text><rect fill="#E2E2F0" height="30.7453" rx="1.5" ry="1.5" style="stroke:#181818;stroke-width:0.3;" width="52.8" x="1188.6" y="21.6"/><text fill="#000000" font-family="sans-serif" font-size="8.4" font-style="italic" lengthAdjust="spacing" textLength="38.4" x="1195.8" y="34.8645">&#171;Domain&#187;</text><text fill="#000000" font-family="sans-serif" font-size="8.4" lengthAdjust="spacing" textLength="44.4" x="1192.8" y="46.0371">TakenExam</text><rect fill="#E2E2F0" height="30.7453" rx="1.5" ry="1.5" style="stroke:#181818;stroke-width:0.3;" width="52.8" x="1188.6" y="946.2504"/><text fill="#000000" font-family="sans-serif" font-size="8.4" font-style="italic" lengthAdjust="spacing" textLength="38.4" x="1195.8" y="959.5148">&#171;Domain&#187;</text><text fill="#000000" font-family="sans-serif" font-size="8.4" lengthAdjust="spacing" textLength="44.4" x="1192.8" y="970.6875">TakenExam</text><rect fill="#E2E2F0" height="30.7453" rx="1.5" ry="1.5" style="stroke:#181818;stroke-width:0.3;" width="88.8" x="1247.4" y="21.6"/><text fill="#000000" font-family="sans-serif" font-size="8.4" font-style="italic" lengthAdjust="spacing" textLength="38.4" x="1272.6" y="34.8645">&#171;Domain&#187;</text><text fill="#000000" font-family="sans-serif" font-size="8.4" lengthAdjust="spacing" textLength="80.4" x="1251.6" y="46.0371">TakenExamCorrector</text><rect fill="#E2E2F0" height="30.7453" rx="1.5" ry="1.5" style="stroke:#181818;stroke-width:0.3;" width="88.8" x="1247.4" y="946.2504"/><text fill="#000000" font-family="sans-serif" font-size="8.4" font-style="italic" lengthAdjust="spacing" textLength="38.4" x="1272.6" y="959.5148">&#171;Domain&#187;</text><text fill="#000000" font-family="sans-serif" font-size="8.4" lengthAdjust="spacing" textLength="80.4" x="1251.6" y="970.6875">TakenExamCorrector</text><rect fill="#E2E2F0" height="30.7453" rx="1.5" ry="1.5" style="stroke:#181818;stroke-width:0.3;" width="46.8" x="1375.8" y="21.6"/><text fill="#000000" font-family="sans-serif" font-size="8.4" font-style="italic" lengthAdjust="spacing" textLength="38.4" x="1380" y="34.8645">&#171;Domain&#187;</text><text fill="#000000" font-family="sans-serif" font-size="8.4" lengthAdjust="spacing" textLength="34.2" x="1382.1" y="46.0371">Question</text><rect fill="#E2E2F0" height="30.7453" rx="1.5" ry="1.5" style="stroke:#181818;stroke-width:0.3;" width="46.8" x="1375.8" y="946.2504"/><text fill="#000000" font-family="sans-serif" font-size="8.4" font-style="italic" lengthAdjust="spacing" textLength="38.4" x="1380" y="959.5148">&#171;Domain&#187;</text><text fill="#000000" font-family="sans-serif" font-size="8.4" lengthAdjust="spacing" textLength="34.2" x="1382.1" y="970.6875">Question</text><text fill="#000000" font-family="sans-serif" font-size="8.4" font-style="italic" lengthAdjust="spacing" textLength="50.4" x="1446" y="39.6645">&#171;Repository&#187;</text><text fill="#000000" font-family="sans-serif" font-size="8.4" lengthAdjust="spacing" textLength="85.2" x="1428.6" y="50.8371">TakenExamRepository</text><path d="M1462.2,9 C1462.2,3 1473,3 1473,3 C1473,3 1483.8,3 1483.8,9 L1483.8,24.6 C1483.8,30.6 1473,30.6 1473,30.6 C1473,30.6 1462.2,30.6 1462.2,24.6 L1462.2,9 " fill="#E2E2F0" style="stroke:#181818;stroke-width:0.8999999999999999;"/><path d="M1462.2,9 C1462.2,15 1473,15 1473,15 C1473,15 1483.8,15 1483.8,9 " fill="none" style="stroke:#181818;stroke-width:0.8999999999999999;"/><text fill="#000000" font-family="sans-serif" font-size="8.4" font-style="italic" lengthAdjust="spacing" textLength="50.4" x="1446" y="955.3148">&#171;Repository&#187;</text><text fill="#000000" font-family="sans-serif" font-size="8.4" lengthAdjust="spacing" textLength="85.2" x="1428.6" y="966.4875">TakenExamRepository</text><path d="M1462.2,974.5957 C1462.2,968.5957 1473,968.5957 1473,968.5957 C1473,968.5957 1483.8,968.5957 1483.8,974.5957 L1483.8,990.1957 C1483.8,996.1957 1473,996.1957 1473,996.1957 C1473,996.1957 1462.2,996.1957 1462.2,990.1957 L1462.2,974.5957 " fill="#E2E2F0" style="stroke:#181818;stroke-width:0.8999999999999999;"/><path d="M1462.2,974.5957 C1462.2,980.5957 1473,980.5957 1473,980.5957 C1473,980.5957 1483.8,980.5957 1483.8,974.5957 " fill="none" style="stroke:#181818;stroke-width:0.8999999999999999;"/><rect fill="#FFFFFF" height="877.1051" style="stroke:#181818;stroke-width:0.6;" width="6" x="190.5" y="58.9453"/><rect fill="#FFFFFF" height="37.5492" style="stroke:#181818;stroke-width:0.6;" width="6" x="476.7" y="91.6945"/><rect fill="#FFFFFF" height="56.3238" style="stroke:#181818;stroke-width:0.6;" width="6" x="476.7" y="148.0184"/><rect fill="#FFFFFF" height="56.3238" style="stroke:#181818;stroke-width:0.6;" width="6" x="476.7" y="260.666"/><rect fill="#FFFFFF" height="390.6668" style="stroke:#181818;stroke-width:0.6;" width="6" x="476.7" y="526.609"/><rect fill="#FFFFFF" height="18.7746" style="stroke:#181818;stroke-width:0.6;" width="6" x="570.3" y="110.4691"/><rect fill="#FFFFFF" height="18.7746" style="stroke:#181818;stroke-width:0.6;" width="6" x="669" y="166.793"/><rect fill="#FFFFFF" height="18.7746" style="stroke:#181818;stroke-width:0.6;" width="6" x="769.8" y="279.4406"/><rect fill="#FFFFFF" height="187.7461" style="stroke:#181818;stroke-width:0.6;" width="6" x="861" y="545.3836"/><rect fill="#FFFFFF" height="75.0984" style="stroke:#181818;stroke-width:0.6;" width="6" x="960.6" y="564.1582"/><rect fill="#FFFFFF" height="18.7746" style="stroke:#181818;stroke-width:0.6;" width="6" x="1140" y="582.9328"/><rect fill="#FFFFFF" height="56.3238" style="stroke:#181818;stroke-width:0.6;" width="6" x="1140" y="658.0313"/><rect fill="#FFFFFF" height="109.0477" style="stroke:#181818;stroke-width:0.6;" width="6" x="1288.8" y="751.9043"/><rect fill="#FFFFFF" height="60.5238" style="stroke:#181818;stroke-width:0.6;" width="6" x="1396.2" y="786.4535"/><rect fill="#FFFFFF" height="18.7746" style="stroke:#181818;stroke-width:0.6;" width="6" x="1470" y="879.7266"/><polygon fill="#181818" points="183.3,70.5199,189.3,72.9199,183.3,75.3199,185.7,72.9199" style="stroke:#181818;stroke-width:0.6;"/><line style="stroke:#181818;stroke-width:0.6;stroke-dasharray:2.0,2.0;" x1="0" x2="186.9" y1="72.9199" y2="72.9199"/><text fill="#000000" font-family="sans-serif" font-size="7.8" font-weight="bold" lengthAdjust="spacing" textLength="4.2" x="4.2" y="69.7623">1</text><text fill="#000000" font-family="sans-serif" font-size="7.8" lengthAdjust="spacing" textLength="25.2" x="10.8" y="69.7623">on load</text><polygon fill="#181818" points="469.5,89.2945,475.5,91.6945,469.5,94.0945,471.9,91.6945" style="stroke:#181818;stroke-width:0.6;"/><line style="stroke:#181818;stroke-width:0.6;" x1="196.5" x2="473.1" y1="91.6945" y2="91.6945"/><text fill="#000000" font-family="sans-serif" font-size="7.8" font-weight="bold" lengthAdjust="spacing" textLength="4.2" x="200.7" y="88.5369">2</text><text fill="#000000" font-family="sans-serif" font-size="7.8" lengthAdjust="spacing" textLength="262.2" x="207.3" y="88.5369">create(userSessionService, courseExamsProvider, studentCoursesProvider)</text><polygon fill="#181818" points="563.1,108.0691,569.1,110.4691,563.1,112.8691,565.5,110.4691" style="stroke:#181818;stroke-width:0.6;"/><line style="stroke:#181818;stroke-width:0.6;" x1="482.7" x2="566.7" y1="110.4691" y2="110.4691"/><text fill="#000000" font-family="sans-serif" font-size="7.8" font-weight="bold" lengthAdjust="spacing" textLength="4.2" x="486.9" y="107.3115">3</text><text fill="#000000" font-family="sans-serif" font-size="7.8" lengthAdjust="spacing" textLength="57" x="493.5" y="107.3115">getLoggedUser()</text><polygon fill="#181818" points="486.3,126.8438,480.3,129.2438,486.3,131.6437,483.9,129.2438" style="stroke:#181818;stroke-width:0.6;"/><line style="stroke:#181818;stroke-width:0.6;" x1="482.7" x2="572.7" y1="129.2438" y2="129.2438"/><text fill="#000000" font-family="sans-serif" font-size="7.8" font-weight="bold" lengthAdjust="spacing" textLength="4.2" x="489.9" y="126.0861">4</text><text fill="#000000" font-family="sans-serif" font-size="7.8" lengthAdjust="spacing" textLength="66.6" x="496.5" y="126.0861">returns logged user</text><polygon fill="#181818" points="469.5,145.6184,475.5,148.0184,469.5,150.4184,471.9,148.0184" style="stroke:#181818;stroke-width:0.6;"/><line style="stroke:#181818;stroke-width:0.6;" x1="196.5" x2="473.1" y1="148.0184" y2="148.0184"/><text fill="#000000" font-family="sans-serif" font-size="7.8" font-weight="bold" lengthAdjust="spacing" textLength="4.2" x="200.7" y="144.8607">5</text><text fill="#000000" font-family="sans-serif" font-size="7.8" lengthAdjust="spacing" textLength="70.8" x="207.3" y="144.8607">listStudentCourses()</text><polygon fill="#181818" points="661.8,164.393,667.8,166.793,661.8,169.193,664.2,166.793" style="stroke:#181818;stroke-width:0.6;"/><line style="stroke:#181818;stroke-width:0.6;" x1="482.7" x2="665.4" y1="166.793" y2="166.793"/><text fill="#000000" font-family="sans-serif" font-size="7.8" font-weight="bold" lengthAdjust="spacing" textLength="4.2" x="486.9" y="163.6354">6</text><text fill="#000000" font-family="sans-serif" font-size="7.8" lengthAdjust="spacing" textLength="136.8" x="493.5" y="163.6354">provideStudentInProgressCourses(user)</text><polygon fill="#181818" points="489.3,183.1676,483.3,185.5676,489.3,187.9676,486.9,185.5676" style="stroke:#181818;stroke-width:0.6;"/><line style="stroke:#181818;stroke-width:0.6;" x1="485.7" x2="671.4" y1="185.5676" y2="185.5676"/><text fill="#000000" font-family="sans-serif" font-size="7.8" font-weight="bold" lengthAdjust="spacing" textLength="4.2" x="492.9" y="182.41">7</text><text fill="#000000" font-family="sans-serif" font-size="7.8" lengthAdjust="spacing" textLength="54" x="499.5" y="182.41">returns courses</text><polygon fill="#181818" points="203.1,201.9422,197.1,204.3422,203.1,206.7422,200.7,204.3422" style="stroke:#181818;stroke-width:0.6;"/><line style="stroke:#181818;stroke-width:0.6;" x1="199.5" x2="479.1" y1="204.3422" y2="204.3422"/><text fill="#000000" font-family="sans-serif" font-size="7.8" font-weight="bold" lengthAdjust="spacing" textLength="4.2" x="206.7" y="201.1846">8</text><text fill="#000000" font-family="sans-serif" font-size="7.8" lengthAdjust="spacing" textLength="54" x="213.3" y="201.1846">returns courses</text><polygon fill="#181818" points="26.1,220.7168,20.1,223.1168,26.1,225.5168,23.7,223.1168" style="stroke:#181818;stroke-width:0.6;"/><line style="stroke:#181818;stroke-width:0.6;stroke-dasharray:2.0,2.0;" x1="22.5" x2="189.9" y1="223.1168" y2="223.1168"/><text fill="#000000" font-family="sans-serif" font-size="7.8" font-weight="bold" lengthAdjust="spacing" textLength="4.2" x="29.7" y="219.9592">9</text><text fill="#000000" font-family="sans-serif" font-size="7.8" lengthAdjust="spacing" textLength="52.2" x="36.3" y="219.9592">shows courses</text><polygon fill="#181818" points="183.3,239.4914,189.3,241.8914,183.3,244.2914,185.7,241.8914" style="stroke:#181818;stroke-width:0.6;"/><line style="stroke:#181818;stroke-width:0.6;stroke-dasharray:2.0,2.0;" x1="19.5" x2="186.9" y1="241.8914" y2="241.8914"/><text fill="#000000" font-family="sans-serif" font-size="7.8" font-weight="bold" lengthAdjust="spacing" textLength="8.4" x="23.7" y="238.7338">10</text><text fill="#000000" font-family="sans-serif" font-size="7.8" lengthAdjust="spacing" textLength="57.6" x="34.5" y="238.7338">selects a course</text><polygon fill="#181818" points="469.5,258.266,475.5,260.666,469.5,263.066,471.9,260.666" style="stroke:#181818;stroke-width:0.6;"/><line style="stroke:#181818;stroke-width:0.6;" x1="196.5" x2="473.1" y1="260.666" y2="260.666"/><text fill="#000000" font-family="sans-serif" font-size="7.8" font-weight="bold" lengthAdjust="spacing" textLength="8.4" x="200.7" y="257.5084">11</text><text fill="#000000" font-family="sans-serif" font-size="7.8" lengthAdjust="spacing" textLength="87.6" x="211.5" y="257.5084">listCourseExams(course)</text><polygon fill="#181818" points="762.6,277.0406,768.6,279.4406,762.6,281.8406,765,279.4406" style="stroke:#181818;stroke-width:0.6;"/><line style="stroke:#181818;stroke-width:0.6;" x1="482.7" x2="766.2" y1="279.4406" y2="279.4406"/><text fill="#000000" font-family="sans-serif" font-size="7.8" font-weight="bold" lengthAdjust="spacing" textLength="8.4" x="486.9" y="276.283">12</text><text fill="#000000" font-family="sans-serif" font-size="7.8" lengthAdjust="spacing" textLength="139.2" x="497.7" y="276.283">provideCourseAutomatedExams(course)</text><polygon fill="#181818" points="489.3,295.8152,483.3,298.2152,489.3,300.6152,486.9,298.2152" style="stroke:#181818;stroke-width:0.6;"/><line style="stroke:#181818;stroke-width:0.6;" x1="485.7" x2="772.2" y1="298.2152" y2="298.2152"/><text fill="#000000" font-family="sans-serif" font-size="7.8" font-weight="bold" lengthAdjust="spacing" textLength="8.4" x="492.9" y="295.0576">13</text><text fill="#000000" font-family="sans-serif" font-size="7.8" lengthAdjust="spacing" textLength="88.8" x="503.7" y="295.0576">returns automated exams</text><polygon fill="#181818" points="203.1,314.5898,197.1,316.9898,203.1,319.3898,200.7,316.9898" style="stroke:#181818;stroke-width:0.6;"/><line style="stroke:#181818;stroke-width:0.6;" x1="199.5" x2="479.1" y1="316.9898" y2="316.9898"/><text fill="#000000" font-family="sans-serif" font-size="7.8" font-weight="bold" lengthAdjust="spacing" textLength="8.4" x="206.7" y="313.8322">14</text><text fill="#000000" font-family="sans-serif" font-size="7.8" lengthAdjust="spacing" textLength="88.8" x="217.5" y="313.8322">returns automated exams</text><polygon fill="#181818" points="26.1,333.3645,20.1,335.7645,26.1,338.1645,23.7,335.7645" style="stroke:#181818;stroke-width:0.6;"/><line style="stroke:#181818;stroke-width:0.6;stroke-dasharray:2.0,2.0;" x1="22.5" x2="189.9" y1="335.7645" y2="335.7645"/><text fill="#000000" font-family="sans-serif" font-size="7.8" font-weight="bold" lengthAdjust="spacing" textLength="8.4" x="29.7" y="332.6068">15</text><text fill="#000000" font-family="sans-serif" font-size="7.8" lengthAdjust="spacing" textLength="87" x="40.5" y="332.6068">shows automated exams</text><polygon fill="#181818" points="183.3,352.1391,189.3,354.5391,183.3,356.9391,185.7,354.5391" style="stroke:#181818;stroke-width:0.6;"/><line style="stroke:#181818;stroke-width:0.6;stroke-dasharray:2.0,2.0;" x1="19.5" x2="186.9" y1="354.5391" y2="354.5391"/><text fill="#000000" font-family="sans-serif" font-size="7.8" font-weight="bold" lengthAdjust="spacing" textLength="8.4" x="23.7" y="351.3814">16</text><text fill="#000000" font-family="sans-serif" font-size="7.8" lengthAdjust="spacing" textLength="92.4" x="34.5" y="351.3814">selects a automated exam</text><path d="M22.2,362.3391 L22.2,471.5391 L226.2,471.5391 L226.2,368.3391 L220.2,362.3391 L22.2,362.3391 " fill="#FEFFDD" style="stroke:#181818;stroke-width:0.3;"/><path d="M220.2,362.3391 L220.2,368.3391 L226.2,368.3391 L220.2,362.3391 " fill="#FEFFDD" style="stroke:#181818;stroke-width:0.3;"/><text fill="#000000" font-family="sans-serif" font-size="7.8" lengthAdjust="spacing" textLength="145.2" x="25.8" y="373.7561">takes the exams and generates a json file</text><text fill="#000000" font-family="sans-serif" font-size="7.8" lengthAdjust="spacing" textLength="124.8" x="25.8" y="384.1307">opens the browser to take the exam</text><text fill="#000000" font-family="sans-serif" font-size="7.8" lengthAdjust="spacing" textLength="154.2" x="25.8" y="394.5053">after taking the exam, a txt will be generated</text><text fill="#000000" font-family="sans-serif" font-size="7.8" lengthAdjust="spacing" textLength="132.6" x="25.8" y="404.8799">this file will be uploaded to the system</text><text fill="#000000" font-family="sans-serif" font-size="7.8" lengthAdjust="spacing" textLength="2.4" x="25.8" y="415.2545">&#160;</text><text fill="#000000" font-family="sans-serif" font-size="7.8" lengthAdjust="spacing" textLength="6.6" x="25.8" y="425.6291">or</text><text fill="#000000" font-family="sans-serif" font-size="7.8" lengthAdjust="spacing" textLength="2.4" x="25.8" y="436.0037">&#160;</text><text fill="#000000" font-family="sans-serif" font-size="7.8" lengthAdjust="spacing" textLength="150" x="25.8" y="446.3783">if in linux, the student will select a directory</text><text fill="#000000" font-family="sans-serif" font-size="7.8" lengthAdjust="spacing" textLength="139.2" x="25.8" y="456.7529">a txt file with the exam will be generated</text><text fill="#000000" font-family="sans-serif" font-size="7.8" lengthAdjust="spacing" textLength="191.4" x="25.8" y="467.1275">the student will take the exam and upload the same file</text><polygon fill="#181818" points="26.1,486.6598,20.1,489.0598,26.1,491.4598,23.7,489.0598" style="stroke:#181818;stroke-width:0.6;"/><line style="stroke:#181818;stroke-width:0.6;" x1="22.5" x2="189.9" y1="489.0598" y2="489.0598"/><text fill="#000000" font-family="sans-serif" font-size="7.8" font-weight="bold" lengthAdjust="spacing" textLength="8.4" x="29.7" y="485.9021">17</text><text fill="#000000" font-family="sans-serif" font-size="7.8" lengthAdjust="spacing" textLength="55.2" x="40.5" y="485.9021">requests the file</text><polygon fill="#181818" points="183.3,505.4344,189.3,507.8344,183.3,510.2344,185.7,507.8344" style="stroke:#181818;stroke-width:0.6;"/><line style="stroke:#181818;stroke-width:0.6;" x1="19.5" x2="186.9" y1="507.8344" y2="507.8344"/><text fill="#000000" font-family="sans-serif" font-size="7.8" font-weight="bold" lengthAdjust="spacing" textLength="8.4" x="23.7" y="504.6768">18</text><text fill="#000000" font-family="sans-serif" font-size="7.8" lengthAdjust="spacing" textLength="52.2" x="34.5" y="504.6768">uploads the file</text><polygon fill="#181818" points="469.5,524.209,475.5,526.609,469.5,529.009,471.9,526.609" style="stroke:#181818;stroke-width:0.6;"/><line style="stroke:#181818;stroke-width:0.6;" x1="196.5" x2="473.1" y1="526.609" y2="526.609"/><text fill="#000000" font-family="sans-serif" font-size="7.8" font-weight="bold" lengthAdjust="spacing" textLength="8.4" x="200.7" y="523.4514">19</text><text fill="#000000" font-family="sans-serif" font-size="7.8" lengthAdjust="spacing" textLength="58.8" x="211.5" y="523.4514">correctExam(file)</text><polygon fill="#181818" points="853.8,542.9836,859.8,545.3836,853.8,547.7836,856.2,545.3836" style="stroke:#181818;stroke-width:0.6;"/><line style="stroke:#181818;stroke-width:0.6;" x1="482.7" x2="857.4" y1="545.3836" y2="545.3836"/><text fill="#000000" font-family="sans-serif" font-size="7.8" font-weight="bold" lengthAdjust="spacing" textLength="8.4" x="486.9" y="542.226">20</text><text fill="#000000" font-family="sans-serif" font-size="7.8" lengthAdjust="spacing" textLength="77.4" x="497.7" y="542.226">createTakenExam(file)</text><polygon fill="#181818" points="953.4,561.7582,959.4,564.1582,953.4,566.5582,955.8,564.1582" style="stroke:#181818;stroke-width:0.6;"/><line style="stroke:#181818;stroke-width:0.6;" x1="867" x2="957" y1="564.1582" y2="564.1582"/><text fill="#000000" font-family="sans-serif" font-size="7.8" font-weight="bold" lengthAdjust="spacing" textLength="8.4" x="871.2" y="561.0006">21</text><text fill="#000000" font-family="sans-serif" font-size="7.8" lengthAdjust="spacing" textLength="31.2" x="882" y="561.0006">visit(tree)</text><polygon fill="#181818" points="1132.8,580.5328,1138.8,582.9328,1132.8,585.3328,1135.2,582.9328" style="stroke:#181818;stroke-width:0.6;"/><line style="stroke:#181818;stroke-width:0.6;stroke-dasharray:2.0,2.0;" x1="966.6" x2="1136.4" y1="582.9328" y2="582.9328"/><text fill="#000000" font-family="sans-serif" font-size="7.8" font-weight="bold" lengthAdjust="spacing" textLength="8.4" x="970.8" y="579.7752">22</text><text fill="#000000" font-family="sans-serif" font-size="7.8" lengthAdjust="spacing" textLength="21.6" x="981.6" y="579.7752">create</text><polygon fill="#181818" points="1135.8,599.3074,1141.8,601.7074,1135.8,604.1074,1138.2,601.7074" style="stroke:#181818;stroke-width:0.6;"/><line style="stroke:#181818;stroke-width:0.6;" x1="966.6" x2="1139.4" y1="601.7074" y2="601.7074"/><text fill="#000000" font-family="sans-serif" font-size="7.8" font-weight="bold" lengthAdjust="spacing" textLength="8.4" x="970.8" y="598.5498">23</text><text fill="#000000" font-family="sans-serif" font-size="7.8" lengthAdjust="spacing" textLength="148.2" x="981.6" y="598.5498">withAnsweredQuestion(answeredQuestion)</text><polygon fill="#181818" points="953.4,618.082,959.4,620.482,953.4,622.882,955.8,620.482" style="stroke:#181818;stroke-width:0.6;"/><line style="stroke:#181818;stroke-width:0.6;" x1="867" x2="957" y1="620.482" y2="620.482"/><text fill="#000000" font-family="sans-serif" font-size="7.8" font-weight="bold" lengthAdjust="spacing" textLength="8.4" x="871.2" y="617.3244">24</text><text fill="#000000" font-family="sans-serif" font-size="7.8" lengthAdjust="spacing" textLength="68.4" x="882" y="617.3244">takenExamBuilder()</text><polygon fill="#181818" points="873.6,636.8566,867.6,639.2566,873.6,641.6566,871.2,639.2566" style="stroke:#181818;stroke-width:0.6;"/><line style="stroke:#181818;stroke-width:0.6;" x1="870" x2="963" y1="639.2566" y2="639.2566"/><text fill="#000000" font-family="sans-serif" font-size="7.8" font-weight="bold" lengthAdjust="spacing" textLength="8.4" x="877.2" y="636.099">25</text><text fill="#000000" font-family="sans-serif" font-size="7.8" lengthAdjust="spacing" textLength="49.2" x="888" y="636.099">returns builder</text><polygon fill="#181818" points="1132.8,655.6313,1138.8,658.0313,1132.8,660.4313,1135.2,658.0313" style="stroke:#181818;stroke-width:0.6;"/><line style="stroke:#181818;stroke-width:0.6;" x1="867" x2="1136.4" y1="658.0313" y2="658.0313"/><text fill="#000000" font-family="sans-serif" font-size="7.8" font-weight="bold" lengthAdjust="spacing" textLength="8.4" x="871.2" y="654.8736">26</text><text fill="#000000" font-family="sans-serif" font-size="7.8" lengthAdjust="spacing" textLength="58.2" x="882" y="654.8736">withExam(exam)</text><polygon fill="#181818" points="1132.8,674.4059,1138.8,676.8059,1132.8,679.2059,1135.2,676.8059" style="stroke:#181818;stroke-width:0.6;"/><line style="stroke:#181818;stroke-width:0.6;" x1="867" x2="1136.4" y1="676.8059" y2="676.8059"/><text fill="#000000" font-family="sans-serif" font-size="7.8" font-weight="bold" lengthAdjust="spacing" textLength="8.4" x="871.2" y="673.6482">27</text><text fill="#000000" font-family="sans-serif" font-size="7.8" lengthAdjust="spacing" textLength="71.4" x="882" y="673.6482">withStudent(student)</text><polygon fill="#181818" points="1132.8,693.1805,1138.8,695.5805,1132.8,697.9805,1135.2,695.5805" style="stroke:#181818;stroke-width:0.6;"/><line style="stroke:#181818;stroke-width:0.6;" x1="867" x2="1136.4" y1="695.5805" y2="695.5805"/><text fill="#000000" font-family="sans-serif" font-size="7.8" font-weight="bold" lengthAdjust="spacing" textLength="8.4" x="871.2" y="692.4229">28</text><text fill="#000000" font-family="sans-serif" font-size="7.8" lengthAdjust="spacing" textLength="21" x="882" y="692.4229">build()</text><polygon fill="#181818" points="1207.8,711.9551,1213.8,714.3551,1207.8,716.7551,1210.2,714.3551" style="stroke:#181818;stroke-width:0.6;"/><line style="stroke:#181818;stroke-width:0.6;stroke-dasharray:2.0,2.0;" x1="1143" x2="1211.4" y1="714.3551" y2="714.3551"/><text fill="#000000" font-family="sans-serif" font-size="7.8" font-weight="bold" lengthAdjust="spacing" textLength="8.4" x="1147.2" y="711.1975">29</text><text fill="#000000" font-family="sans-serif" font-size="7.8" lengthAdjust="spacing" textLength="21.6" x="1158" y="711.1975">create</text><polygon fill="#181818" points="489.3,730.7297,483.3,733.1297,489.3,735.5297,486.9,733.1297" style="stroke:#181818;stroke-width:0.6;"/><line style="stroke:#181818;stroke-width:0.6;" x1="485.7" x2="863.4" y1="733.1297" y2="733.1297"/><text fill="#000000" font-family="sans-serif" font-size="7.8" font-weight="bold" lengthAdjust="spacing" textLength="8.4" x="492.9" y="729.9721">30</text><text fill="#000000" font-family="sans-serif" font-size="7.8" lengthAdjust="spacing" textLength="61.8" x="503.7" y="729.9721">return takenExam</text><polygon fill="#181818" points="1281.6,749.5043,1287.6,751.9043,1281.6,754.3043,1284,751.9043" style="stroke:#181818;stroke-width:0.6;"/><line style="stroke:#181818;stroke-width:0.6;" x1="482.7" x2="1285.2" y1="751.9043" y2="751.9043"/><text fill="#000000" font-family="sans-serif" font-size="7.8" font-weight="bold" lengthAdjust="spacing" textLength="8.4" x="486.9" y="748.7467">31</text><text fill="#000000" font-family="sans-serif" font-size="7.8" lengthAdjust="spacing" textLength="68.4" x="497.7" y="748.7467">correct(takenExam)</text><path d="M1241.4,760.9043 L1285.2,760.9043 L1285.2,766.4789 L1279.2,772.4789 L1241.4,772.4789 L1241.4,760.9043 " fill="#EEEEEE" style="stroke:#000000;stroke-width:0.8999999999999999;"/><rect fill="none" height="81.873" style="stroke:#000000;stroke-width:0.8999999999999999;" width="342.6" x="1241.4" y="760.9043"/><text fill="#000000" font-family="sans-serif" font-size="7.8" font-weight="bold" lengthAdjust="spacing" textLength="16.8" x="1250.4" y="769.9213">loop</text><text fill="#000000" font-family="sans-serif" font-size="6.6" font-weight="bold" lengthAdjust="spacing" textLength="63" x="1294.2" y="769.2264">[for each question]</text><polygon fill="#181818" points="1389,784.0535,1395,786.4535,1389,788.8535,1391.4,786.4535" style="stroke:#181818;stroke-width:0.6;"/><line style="stroke:#181818;stroke-width:0.6;" x1="1294.8" x2="1392.6" y1="786.4535" y2="786.4535"/><text fill="#000000" font-family="sans-serif" font-size="7.8" font-weight="bold" lengthAdjust="spacing" textLength="8.4" x="1299" y="783.2959">32</text><text fill="#000000" font-family="sans-serif" font-size="7.8" lengthAdjust="spacing" textLength="79.2" x="1309.8" y="783.2959">correctAnswer(answer)</text><path d="M1405.2,794.2535 L1405.2,820.6535 L1578,820.6535 L1578,800.2535 L1572,794.2535 L1405.2,794.2535 " fill="#FEFFDD" style="stroke:#181818;stroke-width:0.3;"/><path d="M1572,794.2535 L1572,800.2535 L1578,800.2535 L1572,794.2535 " fill="#FEFFDD" style="stroke:#181818;stroke-width:0.3;"/><text fill="#000000" font-family="sans-serif" font-size="7.8" lengthAdjust="spacing" textLength="151.8" x="1408.8" y="805.6705">As the question knows how to correct itself,</text><text fill="#000000" font-family="sans-serif" font-size="7.8" lengthAdjust="spacing" textLength="160.2" x="1408.8" y="816.0451">it will return the points obtained by the student</text><polygon fill="#181818" points="1301.4,835.5773,1295.4,837.9773,1301.4,840.3773,1299,837.9773" style="stroke:#181818;stroke-width:0.6;"/><line style="stroke:#181818;stroke-width:0.6;" x1="1297.8" x2="1395.6" y1="837.9773" y2="837.9773"/><text fill="#000000" font-family="sans-serif" font-size="7.8" font-weight="bold" lengthAdjust="spacing" textLength="8.4" x="1305" y="834.8197">33</text><text fill="#000000" font-family="sans-serif" font-size="7.8" lengthAdjust="spacing" textLength="45.6" x="1315.8" y="834.8197">returns grade</text><polygon fill="#181818" points="489.3,858.552,483.3,860.952,489.3,863.352,486.9,860.952" style="stroke:#181818;stroke-width:0.6;"/><line style="stroke:#181818;stroke-width:0.6;" x1="485.7" x2="1291.2" y1="860.952" y2="860.952"/><text fill="#000000" font-family="sans-serif" font-size="7.8" font-weight="bold" lengthAdjust="spacing" textLength="8.4" x="492.9" y="857.7943">34</text><text fill="#000000" font-family="sans-serif" font-size="7.8" lengthAdjust="spacing" textLength="45.6" x="503.7" y="857.7943">returns grade</text><polygon fill="#181818" points="1462.8,877.3266,1468.8,879.7266,1462.8,882.1266,1465.2,879.7266" style="stroke:#181818;stroke-width:0.6;"/><line style="stroke:#181818;stroke-width:0.6;" x1="482.7" x2="1466.4" y1="879.7266" y2="879.7266"/><text fill="#000000" font-family="sans-serif" font-size="7.8" font-weight="bold" lengthAdjust="spacing" textLength="8.4" x="486.9" y="876.5689">35</text><text fill="#000000" font-family="sans-serif" font-size="7.8" lengthAdjust="spacing" textLength="60" x="497.7" y="876.5689">save(takenExam)</text><polygon fill="#181818" points="489.3,896.1012,483.3,898.5012,489.3,900.9012,486.9,898.5012" style="stroke:#181818;stroke-width:0.6;"/><line style="stroke:#181818;stroke-width:0.6;" x1="485.7" x2="1472.4" y1="898.5012" y2="898.5012"/><text fill="#000000" font-family="sans-serif" font-size="7.8" font-weight="bold" lengthAdjust="spacing" textLength="8.4" x="492.9" y="895.3436">36</text><text fill="#000000" font-family="sans-serif" font-size="7.8" lengthAdjust="spacing" textLength="66" x="503.7" y="895.3436">returns takenExam</text><polygon fill="#181818" points="203.1,914.8758,197.1,917.2758,203.1,919.6758,200.7,917.2758" style="stroke:#181818;stroke-width:0.6;"/><line style="stroke:#181818;stroke-width:0.6;" x1="199.5" x2="479.1" y1="917.2758" y2="917.2758"/><text fill="#000000" font-family="sans-serif" font-size="7.8" font-weight="bold" lengthAdjust="spacing" textLength="8.4" x="206.7" y="914.1182">37</text><text fill="#000000" font-family="sans-serif" font-size="7.8" lengthAdjust="spacing" textLength="66" x="217.5" y="914.1182">returns takenExam</text><polygon fill="#181818" points="26.1,933.6504,20.1,936.0504,26.1,938.4504,23.7,936.0504" style="stroke:#181818;stroke-width:0.6;"/><line style="stroke:#181818;stroke-width:0.6;" x1="22.5" x2="192.9" y1="936.0504" y2="936.0504"/><text fill="#000000" font-family="sans-serif" font-size="7.8" font-weight="bold" lengthAdjust="spacing" textLength="8.4" x="29.7" y="932.8928">38</text><text fill="#000000" font-family="sans-serif" font-size="7.8" lengthAdjust="spacing" textLength="145.8" x="40.5" y="932.8928">displays takenExam (grade and feedback)</text><!--SRC=[ZLRBZjiw3DthAuIk723zWQ0OO3ejq01tqTOttIisa-YEHt8bEJFv-qkz9SV9Z5Usn7D87b6asMIac5xse0XXdP6AjcRgGHZAD6t9o9JX7HyPBdpwbpt38zg_C0FzzpVsijj-icQxBVtoPRTzUBWsjrPFKXWbXm6KiywVY7eSnu5tp70fvl2T1jM2rhZLWZhp3hopzZuiXFya9wL1_rJopFlasQx59QJv3QFK79E-p5cygOs-OYWNxk9jxi9Q_s2YZvc7TmH-Gmsvk0dwmnsh0uNtzq5V9px4ECFx-o1ddRxUjt-IIa4NOqjVDu6_9j3sb9nv_2YjUsROdcaeV6HLlUOAl-TYsrhbPwn3B3xo-VE3hS4DHUf1ifxW1ouLXRQXdGAqRgQhebhJBfrrAfSrrOjbjCf-Cpif7Db8MdHt1FEFF1wXjrNS5B1TIz1W7fq2CocXCNgBeJPAqaC9AhuAp-GgrGqTk3Rr9MW-4lRiScpew5y3rLRWrb6XT97K1baHbtWoexkLiDTUr-dDY2fnj- -1ipPM6eIq6wfFyZMRjzGN3Ax3WEMhAGjxj-JCtK0ttl8ZYbRD8kdfkQeska1QOab5T4j95XafMCfIb8hiZfvtAExfEeSjwLlR44Bn4HA95J-U39K7d3KqF0ORWQRc19wFOjV4-oH08Tvo_QVndX_u00aXHn0UiLSO4QPcfAD9BCcK7OpTPizS7DFk6bdDcw6lV1Ze7fAtFiTqujhvJ3RJQ5iD9cHT8O- -Q0CXCnUJok_yG3cs9YwcjxKt3ZFMaNcLC8IU-svwoT6wi89VSqe1turqHb_fuCJqeNjBzW9PIy1DUohn7hIsDlxQhktLTOOj3QVhQOgTXTlJ-GbXAx2nDX-vDt5CngQT1iES8HYI241id9ORUhPlZL5G8i8szireQ4irJileCDk7dMnT6jiJUHJw5HJqSRGrRBQmAczHf5kEsCmcERRjmczM9LxNVM0h7CJy2luwNYUZBOJLTP8tGM44DA6iLikMBXoCcSGbAst-jKZYBkYna47feomedtpMgiJ6UhYQRF4l9TLZa_1LGGOxGWOfHtf019AVwDzmbkwEP3QaJdyqYTaNH2Y3LMu1TRFxLJB6vz5VfUYDFWlRNR75sXOJw2ats2uEwmh8mqsFsY39ABd0Iolt1d-pi4djBsLZIEXyuLstYKfKuQKSPrB6CZmgR8C4cKXv5ecYqcjnSdc2QjYaWvYFLFSlY8E5dM7n39q1yMQt_2tMZWVU6OwBgAA7fOxPSpqEx58WQEDITBtt0D3lMVTSzGNyX_qV]--></g></svg>