<?xml version="1.0" encoding="us-ascii" standalone="no"?><svg xmlns="http://www.w3.org/2000/svg" xmlns:xlink="http://www.w3.org/1999/xlink" contentStyleType="text/css" height="1855px" preserveAspectRatio="none" style="width:1931px;height:1855px;background:#FFFFFF;" version="1.1" viewBox="0 0 1931 1855" width="1931px" zoomAndPan="magnify"><defs/><g><text fill="#000000" font-family="sans-serif" font-size="14" font-weight="bold" lengthAdjust="spacing" textLength="234" x="841.5" y="25.1074">US2004 - Take an AutomatedExam</text><!--cluster ui--><g id="cluster_ui"><path d="M8.5,757.6348 L22.5,757.6348 A3.75,3.75 0 0 1 25,760.1348 L32,782.2559 L213.5,782.2559 A2.5,2.5 0 0 1 216,784.7559 L216,856.1348 A2.5,2.5 0 0 1 213.5,858.6348 L8.5,858.6348 A2.5,2.5 0 0 1 6,856.1348 L6,760.1348 A2.5,2.5 0 0 1 8.5,757.6348 " fill="none" style="stroke:#000000;stroke-width:1.5;"/><line style="stroke:#000000;stroke-width:1.5;" x1="6" x2="32" y1="782.2559" y2="782.2559"/><text fill="#000000" font-family="sans-serif" font-size="14" font-weight="bold" lengthAdjust="spacing" textLength="13" x="10" y="774.7422">ui</text></g><!--cluster exammanagement--><g id="cluster_exammanagement"><path d="M716.5,971.6348 L844.5,971.6348 A3.75,3.75 0 0 1 847,974.1348 L854,996.2559 L1711,996.2559 A2.5,2.5 0 0 1 1713.5,998.7559 L1713.5,1487.1348 A2.5,2.5 0 0 1 1711,1489.6348 L716.5,1489.6348 A2.5,2.5 0 0 1 714,1487.1348 L714,974.1348 A2.5,2.5 0 0 1 716.5,971.6348 " fill="none" style="stroke:#000000;stroke-width:1.5;"/><line style="stroke:#000000;stroke-width:1.5;" x1="714" x2="854" y1="996.2559" y2="996.2559"/><text fill="#000000" font-family="sans-serif" font-size="14" font-weight="bold" lengthAdjust="spacing" textLength="127" x="718" y="988.7422">exammanagement</text></g><!--cluster repository--><g id="cluster_repository"><path d="M740.5,1016.6348 L813.5,1016.6348 A3.75,3.75 0 0 1 816,1019.1348 L823,1041.2559 L1249.5,1041.2559 A2.5,2.5 0 0 1 1252,1043.7559 L1252,1135.1348 A2.5,2.5 0 0 1 1249.5,1137.6348 L740.5,1137.6348 A2.5,2.5 0 0 1 738,1135.1348 L738,1019.1348 A2.5,2.5 0 0 1 740.5,1016.6348 " fill="none" style="stroke:#000000;stroke-width:1.5;"/><line style="stroke:#000000;stroke-width:1.5;" x1="738" x2="823" y1="1041.2559" y2="1041.2559"/><text fill="#000000" font-family="sans-serif" font-size="14" font-weight="bold" lengthAdjust="spacing" textLength="72" x="742" y="1033.7422">repository</text></g><!--cluster domain--><g id="cluster_domain"><path d="M914.5,1161.6348 L966.5,1161.6348 A3.75,3.75 0 0 1 969,1164.1348 L976,1186.2559 L1687,1186.2559 A2.5,2.5 0 0 1 1689.5,1188.7559 L1689.5,1463.1348 A2.5,2.5 0 0 1 1687,1465.6348 L914.5,1465.6348 A2.5,2.5 0 0 1 912,1463.1348 L912,1164.1348 A2.5,2.5 0 0 1 914.5,1161.6348 " fill="none" style="stroke:#000000;stroke-width:1.5;"/><line style="stroke:#000000;stroke-width:1.5;" x1="912" x2="976" y1="1186.2559" y2="1186.2559"/><text fill="#000000" font-family="sans-serif" font-size="14" font-weight="bold" lengthAdjust="spacing" textLength="51" x="916" y="1178.7422">domain</text></g><!--cluster questionmanagement--><g id="cluster_questionmanagement"><path d="M872.5,45.6348 L1025.5,45.6348 A3.75,3.75 0 0 1 1028,48.1348 L1035,70.2559 L1921.5,70.2559 A2.5,2.5 0 0 1 1924,72.7559 L1924,296.1348 A2.5,2.5 0 0 1 1921.5,298.6348 L872.5,298.6348 A2.5,2.5 0 0 1 870,296.1348 L870,48.1348 A2.5,2.5 0 0 1 872.5,45.6348 " fill="none" style="stroke:#000000;stroke-width:1.5;"/><line style="stroke:#000000;stroke-width:1.5;" x1="870" x2="1035" y1="70.2559" y2="70.2559"/><text fill="#000000" font-family="sans-serif" font-size="14" font-weight="bold" lengthAdjust="spacing" textLength="152" x="874" y="62.7422">questionmanagement</text></g><!--cluster domain--><g id="cluster_domain"><path d="M896.5,90.6348 L948.5,90.6348 A3.75,3.75 0 0 1 951,93.1348 L958,115.2559 L1897.5,115.2559 A2.5,2.5 0 0 1 1900,117.7559 L1900,272.1348 A2.5,2.5 0 0 1 1897.5,274.6348 L896.5,274.6348 A2.5,2.5 0 0 1 894,272.1348 L894,93.1348 A2.5,2.5 0 0 1 896.5,90.6348 " fill="none" style="stroke:#000000;stroke-width:1.5;"/><line style="stroke:#000000;stroke-width:1.5;" x1="894" x2="958" y1="115.2559" y2="115.2559"/><text fill="#000000" font-family="sans-serif" font-size="14" font-weight="bold" lengthAdjust="spacing" textLength="51" x="898" y="107.7422">domain</text></g><!--cluster coursemanagement--><g id="cluster_coursemanagement"><path d="M788,1513.6348 L928,1513.6348 A3.75,3.75 0 0 1 930.5,1516.1348 L937.5,1538.2559 L1463,1538.2559 A2.5,2.5 0 0 1 1465.5,1540.7559 L1465.5,1846.1348 A2.5,2.5 0 0 1 1463,1848.6348 L788,1848.6348 A2.5,2.5 0 0 1 785.5,1846.1348 L785.5,1516.1348 A2.5,2.5 0 0 1 788,1513.6348 " fill="none" style="stroke:#000000;stroke-width:1.5;"/><line style="stroke:#000000;stroke-width:1.5;" x1="785.5" x2="937.5" y1="1538.2559" y2="1538.2559"/><text fill="#000000" font-family="sans-serif" font-size="14" font-weight="bold" lengthAdjust="spacing" textLength="139" x="789.5" y="1530.7422">coursemanagement</text></g><!--cluster repository--><g id="cluster_repository"><path d="M812,1558.6348 L885,1558.6348 A3.75,3.75 0 0 1 887.5,1561.1348 L894.5,1583.2559 L1178,1583.2559 A2.5,2.5 0 0 1 1180.5,1585.7559 L1180.5,1677.1348 A2.5,2.5 0 0 1 1178,1679.6348 L812,1679.6348 A2.5,2.5 0 0 1 809.5,1677.1348 L809.5,1561.1348 A2.5,2.5 0 0 1 812,1558.6348 " fill="none" style="stroke:#000000;stroke-width:1.5;"/><line style="stroke:#000000;stroke-width:1.5;" x1="809.5" x2="894.5" y1="1583.2559" y2="1583.2559"/><text fill="#000000" font-family="sans-serif" font-size="14" font-weight="bold" lengthAdjust="spacing" textLength="72" x="813.5" y="1575.7422">repository</text></g><!--cluster domain--><g id="cluster_domain"><path d="M1334,1568.6348 L1386,1568.6348 A3.75,3.75 0 0 1 1388.5,1571.1348 L1395.5,1593.2559 L1439,1593.2559 A2.5,2.5 0 0 1 1441.5,1595.7559 L1441.5,1667.1348 A2.5,2.5 0 0 1 1439,1669.6348 L1334,1669.6348 A2.5,2.5 0 0 1 1331.5,1667.1348 L1331.5,1571.1348 A2.5,2.5 0 0 1 1334,1568.6348 " fill="none" style="stroke:#000000;stroke-width:1.5;"/><line style="stroke:#000000;stroke-width:1.5;" x1="1331.5" x2="1395.5" y1="1593.2559" y2="1593.2559"/><text fill="#000000" font-family="sans-serif" font-size="14" font-weight="bold" lengthAdjust="spacing" textLength="51" x="1335.5" y="1585.7422">domain</text></g><!--cluster application--><g id="cluster_application"><path d="M813.5,1703.6348 L891.5,1703.6348 A3.75,3.75 0 0 1 894,1706.1348 L901,1728.2559 L1176.5,1728.2559 A2.5,2.5 0 0 1 1179,1730.7559 L1179,1822.1348 A2.5,2.5 0 0 1 1176.5,1824.6348 L813.5,1824.6348 A2.5,2.5 0 0 1 811,1822.1348 L811,1706.1348 A2.5,2.5 0 0 1 813.5,1703.6348 " fill="none" style="stroke:#000000;stroke-width:1.5;"/><line style="stroke:#000000;stroke-width:1.5;" x1="811" x2="901" y1="1728.2559" y2="1728.2559"/><text fill="#000000" font-family="sans-serif" font-size="14" font-weight="bold" lengthAdjust="spacing" textLength="77" x="815" y="1720.7422">application</text></g><!--cluster takenexammanagement--><g id="cluster_takenexammanagement"><path d="M283.5,322.6348 L450.5,322.6348 A3.75,3.75 0 0 1 453,325.1348 L460,347.2559 L1246,347.2559 A2.5,2.5 0 0 1 1248.5,349.7559 L1248.5,945.1348 A2.5,2.5 0 0 1 1246,947.6348 L283.5,947.6348 A2.5,2.5 0 0 1 281,945.1348 L281,325.1348 A2.5,2.5 0 0 1 283.5,322.6348 " fill="none" style="stroke:#000000;stroke-width:1.5;"/><line style="stroke:#000000;stroke-width:1.5;" x1="281" x2="460" y1="347.2559" y2="347.2559"/><text fill="#000000" font-family="sans-serif" font-size="14" font-weight="bold" lengthAdjust="spacing" textLength="166" x="285" y="339.7422">takenexammanagement</text></g><!--cluster domain--><g id="cluster_domain"><path d="M768,367.6348 L820,367.6348 A3.75,3.75 0 0 1 822.5,370.1348 L829.5,392.2559 L1222,392.2559 A2.5,2.5 0 0 1 1224.5,394.7559 L1224.5,706.1348 A2.5,2.5 0 0 1 1222,708.6348 L768,708.6348 A2.5,2.5 0 0 1 765.5,706.1348 L765.5,370.1348 A2.5,2.5 0 0 1 768,367.6348 " fill="none" style="stroke:#000000;stroke-width:1.5;"/><line style="stroke:#000000;stroke-width:1.5;" x1="765.5" x2="829.5" y1="392.2559" y2="392.2559"/><text fill="#000000" font-family="sans-serif" font-size="14" font-weight="bold" lengthAdjust="spacing" textLength="51" x="769.5" y="384.7422">domain</text></g><!--cluster application--><g id="cluster_application"><path d="M307.5,367.6348 L385.5,367.6348 A3.75,3.75 0 0 1 388,370.1348 L395,392.2559 L687.5,392.2559 A2.5,2.5 0 0 1 690,394.7559 L690,921.1348 A2.5,2.5 0 0 1 687.5,923.6348 L307.5,923.6348 A2.5,2.5 0 0 1 305,921.1348 L305,370.1348 A2.5,2.5 0 0 1 307.5,367.6348 " fill="none" style="stroke:#000000;stroke-width:1.5;"/><line style="stroke:#000000;stroke-width:1.5;" x1="305" x2="395" y1="392.2559" y2="392.2559"/><text fill="#000000" font-family="sans-serif" font-size="14" font-weight="bold" lengthAdjust="spacing" textLength="77" x="309" y="384.7422">application</text></g><!--cluster repository--><g id="cluster_repository"><path d="M871,747.6348 L944,747.6348 A3.75,3.75 0 0 1 946.5,750.1348 L953.5,772.2559 L1119,772.2559 A2.5,2.5 0 0 1 1121.5,774.7559 L1121.5,866.1348 A2.5,2.5 0 0 1 1119,868.6348 L871,868.6348 A2.5,2.5 0 0 1 868.5,866.1348 L868.5,750.1348 A2.5,2.5 0 0 1 871,747.6348 " fill="none" style="stroke:#000000;stroke-width:1.5;"/><line style="stroke:#000000;stroke-width:1.5;" x1="868.5" x2="953.5" y1="772.2559" y2="772.2559"/><text fill="#000000" font-family="sans-serif" font-size="14" font-weight="bold" lengthAdjust="spacing" textLength="72" x="872.5" y="764.7422">repository</text></g><!--class TakeAutomatedExamUI--><g id="elem_TakeAutomatedExamUI"><rect codeLine="7" fill="#F1F1F1" height="48" id="TakeAutomatedExamUI" rx="2.5" ry="2.5" style="stroke:#181818;stroke-width:0.5;" width="178" x="22" y="794.6348"/><ellipse cx="37" cy="810.6348" fill="#ADD1B2" rx="11" ry="11" style="stroke:#181818;stroke-width:1.0;"/><path d="M39.7656,806.5098 Q39.9219,806.291 40.1094,806.1816 Q40.2969,806.0723 40.5156,806.0723 Q40.8906,806.0723 41.125,806.3379 Q41.3594,806.5879 41.3594,807.1973 L41.3594,808.6504 Q41.3594,809.2598 41.125,809.5254 Q40.8906,809.791 40.5156,809.791 Q40.1719,809.791 39.9688,809.5879 Q39.7656,809.4004 39.6563,808.8848 Q39.6094,808.5254 39.4219,808.3379 Q39.0938,807.9629 38.4844,807.7441 Q37.875,807.5254 37.25,807.5254 Q36.4844,807.5254 35.8438,807.8535 Q35.2188,808.1816 34.7188,808.9316 Q34.2344,809.6816 34.2344,810.7129 L34.2344,811.8066 Q34.2344,813.041 35.125,813.8691 Q36.0156,814.6816 37.6094,814.6816 Q38.5469,814.6816 39.2031,814.4316 Q39.5938,814.2754 40.0156,813.8379 Q40.2813,813.5723 40.4219,813.4941 Q40.5781,813.416 40.7813,813.416 Q41.1094,813.416 41.3594,813.6816 Q41.625,813.9316 41.625,814.2754 Q41.625,814.6191 41.2813,815.0254 Q40.7813,815.6035 39.9844,815.9316 Q38.9063,816.3848 37.6094,816.3848 Q36.0938,816.3848 34.8906,815.7598 Q33.9063,815.2598 33.2188,814.1973 Q32.5313,813.1191 32.5313,811.8379 L32.5313,810.6816 Q32.5313,809.3535 33.1406,808.2129 Q33.7656,807.0566 34.8594,806.4473 Q35.9531,805.8223 37.1875,805.8223 Q37.9219,805.8223 38.5625,805.9941 Q39.2188,806.1504 39.7656,806.5098 Z " fill="#000000"/><text fill="#000000" font-family="sans-serif" font-size="14" lengthAdjust="spacing" textLength="146" x="51" y="816.4316">TakeAutomatedExamUI</text><line style="stroke:#181818;stroke-width:0.5;" x1="23" x2="199" y1="826.6348" y2="826.6348"/><line style="stroke:#181818;stroke-width:0.5;" x1="23" x2="199" y1="834.6348" y2="834.6348"/></g><!--class ExamRepository--><g id="elem_ExamRepository"><rect codeLine="14" fill="#F1F1F1" height="66.6211" id="ExamRepository" rx="2.5" ry="2.5" style="stroke:#181818;stroke-width:0.5;" width="482" x="754" y="1054.1348"/><ellipse cx="939.75" cy="1070.1348" fill="#B4A7E5" rx="11" ry="11" style="stroke:#181818;stroke-width:1.0;"/><path d="M940.7031,1066.7754 L940.7031,1073.4316 L942.4219,1073.4316 Q943.0313,1073.4316 943.2969,1073.666 Q943.5625,1073.9004 943.5625,1074.291 Q943.5625,1074.666 943.2969,1074.9004 Q943.0313,1075.1348 942.4219,1075.1348 L937.2813,1075.1348 Q936.6719,1075.1348 936.4063,1074.9004 Q936.1406,1074.666 936.1406,1074.2754 Q936.1406,1073.9004 936.4063,1073.666 Q936.6719,1073.4316 937.2813,1073.4316 L939,1073.4316 L939,1066.7754 L937.2813,1066.7754 Q936.6719,1066.7754 936.4063,1066.541 Q936.1406,1066.3066 936.1406,1065.916 Q936.1406,1065.541 936.4063,1065.3066 Q936.6719,1065.0723 937.2813,1065.0723 L942.4219,1065.0723 Q943.0313,1065.0723 943.2969,1065.3066 Q943.5625,1065.541 943.5625,1065.916 Q943.5625,1066.3066 943.2969,1066.541 Q943.0313,1066.7754 942.4219,1066.7754 L940.7031,1066.7754 Z " fill="#000000"/><text fill="#000000" font-family="sans-serif" font-size="14" font-style="italic" lengthAdjust="spacing" textLength="102" x="960.25" y="1075.9316">ExamRepository</text><line style="stroke:#181818;stroke-width:0.5;" x1="755" x2="1235" y1="1086.1348" y2="1086.1348"/><line style="stroke:#181818;stroke-width:0.5;" x1="755" x2="1235" y1="1094.1348" y2="1094.1348"/><ellipse cx="765" cy="1108.9453" fill="#84BE84" rx="3" ry="3" style="stroke:#038048;stroke-width:1.0;"/><text fill="#000000" font-family="sans-serif" font-size="14" lengthAdjust="spacing" textLength="456" x="774" y="1113.2422">findAvailableAutomatedExamsByCourse(course) : List&lt;AutomatedExam&gt;</text></g><!--class Exam--><g id="elem_Exam"><rect codeLine="21" fill="#F1F1F1" height="48" id="Exam" rx="2.5" ry="2.5" style="stroke:#181818;stroke-width:0.5;" width="66" x="962" y="1228.6348"/><ellipse cx="977" cy="1244.6348" fill="#A9DCDF" rx="11" ry="11" style="stroke:#181818;stroke-width:1.0;"/><path d="M979.1875,1246.4004 L975.0469,1246.4004 L974.625,1247.4316 L975.0469,1247.4316 Q975.6563,1247.4316 975.9219,1247.666 Q976.1875,1247.9004 976.1875,1248.291 Q976.1875,1248.666 975.9219,1248.9004 Q975.6563,1249.1348 975.0469,1249.1348 L972.75,1249.1348 Q972.1406,1249.1348 971.8906,1248.9004 Q971.625,1248.666 971.625,1248.2754 Q971.625,1247.9004 971.9063,1247.666 Q972.1719,1247.416 972.7969,1247.4316 L975.4688,1240.7754 L974.3594,1240.7754 Q973.75,1240.7754 973.4844,1240.541 Q973.2188,1240.3066 973.2188,1239.916 Q973.2188,1239.541 973.4844,1239.3066 Q973.75,1239.0723 974.3594,1239.0723 L978.0313,1239.0723 L981.4219,1247.4316 Q982.0156,1247.4316 982.2031,1247.5723 Q982.5938,1247.8379 982.5938,1248.291 Q982.5938,1248.666 982.3281,1248.9004 Q982.0781,1249.1348 981.4688,1249.1348 L979.1719,1249.1348 Q978.5625,1249.1348 978.2969,1248.9004 Q978.0313,1248.666 978.0313,1248.2754 Q978.0313,1247.9004 978.2969,1247.666 Q978.5625,1247.4316 979.1719,1247.4316 L979.5938,1247.4316 L979.1875,1246.4004 Z M978.4688,1244.6973 L977.1094,1241.3223 L975.7344,1244.6973 L978.4688,1244.6973 Z " fill="#000000"/><text fill="#000000" font-family="sans-serif" font-size="14" font-style="italic" lengthAdjust="spacing" textLength="34" x="991" y="1250.4316">Exam</text><line style="stroke:#181818;stroke-width:0.5;" x1="963" x2="1027" y1="1260.6348" y2="1260.6348"/><line style="stroke:#181818;stroke-width:0.5;" x1="963" x2="1027" y1="1268.6348" y2="1268.6348"/></g><!--class AutomatedExam--><g id="elem_AutomatedExam"><rect codeLine="23" fill="#F1F1F1" height="48" id="AutomatedExam" rx="2.5" ry="2.5" style="stroke:#181818;stroke-width:0.5;" width="134" x="928" y="1371.6348"/><ellipse cx="943" cy="1387.6348" fill="#ADD1B2" rx="11" ry="11" style="stroke:#181818;stroke-width:1.0;"/><path d="M945.7656,1383.5098 Q945.9219,1383.291 946.1094,1383.1816 Q946.2969,1383.0723 946.5156,1383.0723 Q946.8906,1383.0723 947.125,1383.3379 Q947.3594,1383.5879 947.3594,1384.1973 L947.3594,1385.6504 Q947.3594,1386.2598 947.125,1386.5254 Q946.8906,1386.791 946.5156,1386.791 Q946.1719,1386.791 945.9688,1386.5879 Q945.7656,1386.4004 945.6563,1385.8848 Q945.6094,1385.5254 945.4219,1385.3379 Q945.0938,1384.9629 944.4844,1384.7441 Q943.875,1384.5254 943.25,1384.5254 Q942.4844,1384.5254 941.8438,1384.8535 Q941.2188,1385.1816 940.7188,1385.9316 Q940.2344,1386.6816 940.2344,1387.7129 L940.2344,1388.8066 Q940.2344,1390.041 941.125,1390.8691 Q942.0156,1391.6816 943.6094,1391.6816 Q944.5469,1391.6816 945.2031,1391.4316 Q945.5938,1391.2754 946.0156,1390.8379 Q946.2813,1390.5723 946.4219,1390.4941 Q946.5781,1390.416 946.7813,1390.416 Q947.1094,1390.416 947.3594,1390.6816 Q947.625,1390.9316 947.625,1391.2754 Q947.625,1391.6191 947.2813,1392.0254 Q946.7813,1392.6035 945.9844,1392.9316 Q944.9063,1393.3848 943.6094,1393.3848 Q942.0938,1393.3848 940.8906,1392.7598 Q939.9063,1392.2598 939.2188,1391.1973 Q938.5313,1390.1191 938.5313,1388.8379 L938.5313,1387.6816 Q938.5313,1386.3535 939.1406,1385.2129 Q939.7656,1384.0566 940.8594,1383.4473 Q941.9531,1382.8223 943.1875,1382.8223 Q943.9219,1382.8223 944.5625,1382.9941 Q945.2188,1383.1504 945.7656,1383.5098 Z " fill="#000000"/><text fill="#000000" font-family="sans-serif" font-size="14" lengthAdjust="spacing" textLength="102" x="957" y="1393.4316">AutomatedExam</text><line style="stroke:#181818;stroke-width:0.5;" x1="929" x2="1061" y1="1403.6348" y2="1403.6348"/><line style="stroke:#181818;stroke-width:0.5;" x1="929" x2="1061" y1="1411.6348" y2="1411.6348"/></g><!--class ExamSection--><g id="elem_ExamSection"><rect codeLine="25" fill="#F1F1F1" height="48" id="ExamSection" rx="2.5" ry="2.5" style="stroke:#181818;stroke-width:0.5;" width="113" x="1553.5" y="1198.6348"/><ellipse cx="1568.5" cy="1214.6348" fill="#ADD1B2" rx="11" ry="11" style="stroke:#181818;stroke-width:1.0;"/><path d="M1571.2656,1210.5098 Q1571.4219,1210.291 1571.6094,1210.1816 Q1571.7969,1210.0723 1572.0156,1210.0723 Q1572.3906,1210.0723 1572.625,1210.3379 Q1572.8594,1210.5879 1572.8594,1211.1973 L1572.8594,1212.6504 Q1572.8594,1213.2598 1572.625,1213.5254 Q1572.3906,1213.791 1572.0156,1213.791 Q1571.6719,1213.791 1571.4688,1213.5879 Q1571.2656,1213.4004 1571.1563,1212.8848 Q1571.1094,1212.5254 1570.9219,1212.3379 Q1570.5938,1211.9629 1569.9844,1211.7441 Q1569.375,1211.5254 1568.75,1211.5254 Q1567.9844,1211.5254 1567.3438,1211.8535 Q1566.7188,1212.1816 1566.2188,1212.9316 Q1565.7344,1213.6816 1565.7344,1214.7129 L1565.7344,1215.8066 Q1565.7344,1217.041 1566.625,1217.8691 Q1567.5156,1218.6816 1569.1094,1218.6816 Q1570.0469,1218.6816 1570.7031,1218.4316 Q1571.0938,1218.2754 1571.5156,1217.8379 Q1571.7813,1217.5723 1571.9219,1217.4941 Q1572.0781,1217.416 1572.2813,1217.416 Q1572.6094,1217.416 1572.8594,1217.6816 Q1573.125,1217.9316 1573.125,1218.2754 Q1573.125,1218.6191 1572.7813,1219.0254 Q1572.2813,1219.6035 1571.4844,1219.9316 Q1570.4063,1220.3848 1569.1094,1220.3848 Q1567.5938,1220.3848 1566.3906,1219.7598 Q1565.4063,1219.2598 1564.7188,1218.1973 Q1564.0313,1217.1191 1564.0313,1215.8379 L1564.0313,1214.6816 Q1564.0313,1213.3535 1564.6406,1212.2129 Q1565.2656,1211.0566 1566.3594,1210.4473 Q1567.4531,1209.8223 1568.6875,1209.8223 Q1569.4219,1209.8223 1570.0625,1209.9941 Q1570.7188,1210.1504 1571.2656,1210.5098 Z " fill="#000000"/><text fill="#000000" font-family="sans-serif" font-size="14" lengthAdjust="spacing" textLength="81" x="1582.5" y="1220.4316">ExamSection</text><line style="stroke:#181818;stroke-width:0.5;" x1="1554.5" x2="1665.5" y1="1230.6348" y2="1230.6348"/><line style="stroke:#181818;stroke-width:0.5;" x1="1554.5" x2="1665.5" y1="1238.6348" y2="1238.6348"/></g><!--class ExamOpenPeriod--><g id="elem_ExamOpenPeriod"><rect codeLine="31" fill="#F1F1F1" height="48" id="ExamOpenPeriod" rx="2.5" ry="2.5" style="stroke:#181818;stroke-width:0.5;" width="142" x="1315.5" y="1401.6348"/><ellipse cx="1330.5" cy="1417.6348" fill="#ADD1B2" rx="11" ry="11" style="stroke:#181818;stroke-width:1.0;"/><path d="M1333.2656,1413.5098 Q1333.4219,1413.291 1333.6094,1413.1816 Q1333.7969,1413.0723 1334.0156,1413.0723 Q1334.3906,1413.0723 1334.625,1413.3379 Q1334.8594,1413.5879 1334.8594,1414.1973 L1334.8594,1415.6504 Q1334.8594,1416.2598 1334.625,1416.5254 Q1334.3906,1416.791 1334.0156,1416.791 Q1333.6719,1416.791 1333.4688,1416.5879 Q1333.2656,1416.4004 1333.1563,1415.8848 Q1333.1094,1415.5254 1332.9219,1415.3379 Q1332.5938,1414.9629 1331.9844,1414.7441 Q1331.375,1414.5254 1330.75,1414.5254 Q1329.9844,1414.5254 1329.3438,1414.8535 Q1328.7188,1415.1816 1328.2188,1415.9316 Q1327.7344,1416.6816 1327.7344,1417.7129 L1327.7344,1418.8066 Q1327.7344,1420.041 1328.625,1420.8691 Q1329.5156,1421.6816 1331.1094,1421.6816 Q1332.0469,1421.6816 1332.7031,1421.4316 Q1333.0938,1421.2754 1333.5156,1420.8379 Q1333.7813,1420.5723 1333.9219,1420.4941 Q1334.0781,1420.416 1334.2813,1420.416 Q1334.6094,1420.416 1334.8594,1420.6816 Q1335.125,1420.9316 1335.125,1421.2754 Q1335.125,1421.6191 1334.7813,1422.0254 Q1334.2813,1422.6035 1333.4844,1422.9316 Q1332.4063,1423.3848 1331.1094,1423.3848 Q1329.5938,1423.3848 1328.3906,1422.7598 Q1327.4063,1422.2598 1326.7188,1421.1973 Q1326.0313,1420.1191 1326.0313,1418.8379 L1326.0313,1417.6816 Q1326.0313,1416.3535 1326.6406,1415.2129 Q1327.2656,1414.0566 1328.3594,1413.4473 Q1329.4531,1412.8223 1330.6875,1412.8223 Q1331.4219,1412.8223 1332.0625,1412.9941 Q1332.7188,1413.1504 1333.2656,1413.5098 Z " fill="#000000"/><text fill="#000000" font-family="sans-serif" font-size="14" lengthAdjust="spacing" textLength="110" x="1344.5" y="1423.4316">ExamOpenPeriod</text><line style="stroke:#181818;stroke-width:0.5;" x1="1316.5" x2="1456.5" y1="1433.6348" y2="1433.6348"/><line style="stroke:#181818;stroke-width:0.5;" x1="1316.5" x2="1456.5" y1="1441.6348" y2="1441.6348"/></g><!--class ExamHeader--><g id="elem_ExamHeader"><rect codeLine="29" fill="#F1F1F1" height="48" id="ExamHeader" rx="2.5" ry="2.5" style="stroke:#181818;stroke-width:0.5;" width="112" x="1330.5" y="1318.6348"/><ellipse cx="1345.5" cy="1334.6348" fill="#ADD1B2" rx="11" ry="11" style="stroke:#181818;stroke-width:1.0;"/><path d="M1348.2656,1330.5098 Q1348.4219,1330.291 1348.6094,1330.1816 Q1348.7969,1330.0723 1349.0156,1330.0723 Q1349.3906,1330.0723 1349.625,1330.3379 Q1349.8594,1330.5879 1349.8594,1331.1973 L1349.8594,1332.6504 Q1349.8594,1333.2598 1349.625,1333.5254 Q1349.3906,1333.791 1349.0156,1333.791 Q1348.6719,1333.791 1348.4688,1333.5879 Q1348.2656,1333.4004 1348.1563,1332.8848 Q1348.1094,1332.5254 1347.9219,1332.3379 Q1347.5938,1331.9629 1346.9844,1331.7441 Q1346.375,1331.5254 1345.75,1331.5254 Q1344.9844,1331.5254 1344.3438,1331.8535 Q1343.7188,1332.1816 1343.2188,1332.9316 Q1342.7344,1333.6816 1342.7344,1334.7129 L1342.7344,1335.8066 Q1342.7344,1337.041 1343.625,1337.8691 Q1344.5156,1338.6816 1346.1094,1338.6816 Q1347.0469,1338.6816 1347.7031,1338.4316 Q1348.0938,1338.2754 1348.5156,1337.8379 Q1348.7813,1337.5723 1348.9219,1337.4941 Q1349.0781,1337.416 1349.2813,1337.416 Q1349.6094,1337.416 1349.8594,1337.6816 Q1350.125,1337.9316 1350.125,1338.2754 Q1350.125,1338.6191 1349.7813,1339.0254 Q1349.2813,1339.6035 1348.4844,1339.9316 Q1347.4063,1340.3848 1346.1094,1340.3848 Q1344.5938,1340.3848 1343.3906,1339.7598 Q1342.4063,1339.2598 1341.7188,1338.1973 Q1341.0313,1337.1191 1341.0313,1335.8379 L1341.0313,1334.6816 Q1341.0313,1333.3535 1341.6406,1332.2129 Q1342.2656,1331.0566 1343.3594,1330.4473 Q1344.4531,1329.8223 1345.6875,1329.8223 Q1346.4219,1329.8223 1347.0625,1329.9941 Q1347.7188,1330.1504 1348.2656,1330.5098 Z " fill="#000000"/><text fill="#000000" font-family="sans-serif" font-size="14" lengthAdjust="spacing" textLength="80" x="1359.5" y="1340.4316">ExamHeader</text><line style="stroke:#181818;stroke-width:0.5;" x1="1331.5" x2="1441.5" y1="1350.6348" y2="1350.6348"/><line style="stroke:#181818;stroke-width:0.5;" x1="1331.5" x2="1441.5" y1="1358.6348" y2="1358.6348"/></g><!--class FeedbackType--><g id="elem_FeedbackType"><rect codeLine="33" fill="#F1F1F1" height="48" id="FeedbackType" rx="2.5" ry="2.5" style="stroke:#181818;stroke-width:0.5;" width="127" x="1546.5" y="1318.6348"/><ellipse cx="1561.5" cy="1334.6348" fill="#EB937F" rx="11" ry="11" style="stroke:#181818;stroke-width:1.0;"/><path d="M1560.3594,1335.4316 L1560.3594,1337.9316 L1564.6875,1337.9316 L1564.6875,1337.0098 Q1564.6875,1336.4004 1564.9219,1336.1348 Q1565.1719,1335.8691 1565.5469,1335.8691 Q1565.9219,1335.8691 1566.1563,1336.1348 Q1566.3906,1336.4004 1566.3906,1337.0098 L1566.3906,1339.6348 L1558.3906,1339.6348 Q1557.7656,1339.6348 1557.5,1339.4004 Q1557.25,1339.166 1557.25,1338.7754 Q1557.25,1338.4004 1557.5156,1338.166 Q1557.7813,1337.9316 1558.3906,1337.9316 L1558.6563,1337.9316 L1558.6563,1331.2754 L1558.3906,1331.2754 Q1557.7656,1331.2754 1557.5,1331.041 Q1557.25,1330.8066 1557.25,1330.416 Q1557.25,1330.041 1557.5,1329.8066 Q1557.7656,1329.5723 1558.3906,1329.5723 L1566.0156,1329.5723 L1566.0156,1332.166 Q1566.0156,1332.7754 1565.7813,1333.041 Q1565.5625,1333.291 1565.1719,1333.291 Q1564.7969,1333.291 1564.5625,1333.041 Q1564.3281,1332.7754 1564.3281,1332.166 L1564.3281,1331.2754 L1560.3594,1331.2754 L1560.3594,1333.7285 L1561.8438,1333.7285 Q1561.8438,1333.0723 1561.9688,1332.8848 Q1562.2344,1332.4785 1562.7031,1332.4785 Q1563.0781,1332.4785 1563.3125,1332.7441 Q1563.5469,1332.9941 1563.5469,1333.6035 L1563.5469,1335.5723 Q1563.5469,1336.1191 1563.4219,1336.3066 Q1563.1563,1336.6973 1562.7031,1336.6973 Q1562.2344,1336.6973 1561.9688,1336.291 Q1561.8438,1336.1035 1561.8438,1335.4316 L1560.3594,1335.4316 Z " fill="#000000"/><text fill="#000000" font-family="sans-serif" font-size="14" lengthAdjust="spacing" textLength="95" x="1575.5" y="1340.4316">FeedbackType</text><line style="stroke:#181818;stroke-width:0.5;" x1="1547.5" x2="1672.5" y1="1350.6348" y2="1350.6348"/><line style="stroke:#181818;stroke-width:0.5;" x1="1547.5" x2="1672.5" y1="1358.6348" y2="1358.6348"/></g><!--class GradingType--><g id="elem_GradingType"><rect codeLine="35" fill="#F1F1F1" height="48" id="GradingType" rx="2.5" ry="2.5" style="stroke:#181818;stroke-width:0.5;" width="115" x="1329" y="1235.6348"/><ellipse cx="1344" cy="1251.6348" fill="#EB937F" rx="11" ry="11" style="stroke:#181818;stroke-width:1.0;"/><path d="M1342.8594,1252.4316 L1342.8594,1254.9316 L1347.1875,1254.9316 L1347.1875,1254.0098 Q1347.1875,1253.4004 1347.4219,1253.1348 Q1347.6719,1252.8691 1348.0469,1252.8691 Q1348.4219,1252.8691 1348.6563,1253.1348 Q1348.8906,1253.4004 1348.8906,1254.0098 L1348.8906,1256.6348 L1340.8906,1256.6348 Q1340.2656,1256.6348 1340,1256.4004 Q1339.75,1256.166 1339.75,1255.7754 Q1339.75,1255.4004 1340.0156,1255.166 Q1340.2813,1254.9316 1340.8906,1254.9316 L1341.1563,1254.9316 L1341.1563,1248.2754 L1340.8906,1248.2754 Q1340.2656,1248.2754 1340,1248.041 Q1339.75,1247.8066 1339.75,1247.416 Q1339.75,1247.041 1340,1246.8066 Q1340.2656,1246.5723 1340.8906,1246.5723 L1348.5156,1246.5723 L1348.5156,1249.166 Q1348.5156,1249.7754 1348.2813,1250.041 Q1348.0625,1250.291 1347.6719,1250.291 Q1347.2969,1250.291 1347.0625,1250.041 Q1346.8281,1249.7754 1346.8281,1249.166 L1346.8281,1248.2754 L1342.8594,1248.2754 L1342.8594,1250.7285 L1344.3438,1250.7285 Q1344.3438,1250.0723 1344.4688,1249.8848 Q1344.7344,1249.4785 1345.2031,1249.4785 Q1345.5781,1249.4785 1345.8125,1249.7441 Q1346.0469,1249.9941 1346.0469,1250.6035 L1346.0469,1252.5723 Q1346.0469,1253.1191 1345.9219,1253.3066 Q1345.6563,1253.6973 1345.2031,1253.6973 Q1344.7344,1253.6973 1344.4688,1253.291 Q1344.3438,1253.1035 1344.3438,1252.4316 L1342.8594,1252.4316 Z " fill="#000000"/><text fill="#000000" font-family="sans-serif" font-size="14" lengthAdjust="spacing" textLength="83" x="1358" y="1257.4316">GradingType</text><line style="stroke:#181818;stroke-width:0.5;" x1="1330" x2="1443" y1="1267.6348" y2="1267.6348"/><line style="stroke:#181818;stroke-width:0.5;" x1="1330" x2="1443" y1="1275.6348" y2="1275.6348"/></g><!--class Question--><g id="elem_Question"><rect codeLine="42" fill="#F1F1F1" height="48" id="Question" rx="2.5" ry="2.5" style="stroke:#181818;stroke-width:0.5;" width="89" x="1565.5" y="210.6348"/><ellipse cx="1580.5" cy="226.6348" fill="#A9DCDF" rx="11" ry="11" style="stroke:#181818;stroke-width:1.0;"/><path d="M1582.6875,228.4004 L1578.5469,228.4004 L1578.125,229.4316 L1578.5469,229.4316 Q1579.1563,229.4316 1579.4219,229.666 Q1579.6875,229.9004 1579.6875,230.291 Q1579.6875,230.666 1579.4219,230.9004 Q1579.1563,231.1348 1578.5469,231.1348 L1576.25,231.1348 Q1575.6406,231.1348 1575.3906,230.9004 Q1575.125,230.666 1575.125,230.2754 Q1575.125,229.9004 1575.4063,229.666 Q1575.6719,229.416 1576.2969,229.4316 L1578.9688,222.7754 L1577.8594,222.7754 Q1577.25,222.7754 1576.9844,222.541 Q1576.7188,222.3066 1576.7188,221.916 Q1576.7188,221.541 1576.9844,221.3066 Q1577.25,221.0723 1577.8594,221.0723 L1581.5313,221.0723 L1584.9219,229.4316 Q1585.5156,229.4316 1585.7031,229.5723 Q1586.0938,229.8379 1586.0938,230.291 Q1586.0938,230.666 1585.8281,230.9004 Q1585.5781,231.1348 1584.9688,231.1348 L1582.6719,231.1348 Q1582.0625,231.1348 1581.7969,230.9004 Q1581.5313,230.666 1581.5313,230.2754 Q1581.5313,229.9004 1581.7969,229.666 Q1582.0625,229.4316 1582.6719,229.4316 L1583.0938,229.4316 L1582.6875,228.4004 Z M1581.9688,226.6973 L1580.6094,223.3223 L1579.2344,226.6973 L1581.9688,226.6973 Z " fill="#000000"/><text fill="#000000" font-family="sans-serif" font-size="14" font-style="italic" lengthAdjust="spacing" textLength="57" x="1594.5" y="232.4316">Question</text><line style="stroke:#181818;stroke-width:0.5;" x1="1566.5" x2="1653.5" y1="242.6348" y2="242.6348"/><line style="stroke:#181818;stroke-width:0.5;" x1="1566.5" x2="1653.5" y1="250.6348" y2="250.6348"/></g><!--class BooleanQuestion--><g id="elem_BooleanQuestion"><rect codeLine="43" fill="#F1F1F1" height="48" id="BooleanQuestion" rx="2.5" ry="2.5" style="stroke:#181818;stroke-width:0.5;" width="141" x="1743" y="210.6348"/><ellipse cx="1758" cy="226.6348" fill="#ADD1B2" rx="11" ry="11" style="stroke:#181818;stroke-width:1.0;"/><path d="M1760.7656,222.5098 Q1760.9219,222.291 1761.1094,222.1816 Q1761.2969,222.0723 1761.5156,222.0723 Q1761.8906,222.0723 1762.125,222.3379 Q1762.3594,222.5879 1762.3594,223.1973 L1762.3594,224.6504 Q1762.3594,225.2598 1762.125,225.5254 Q1761.8906,225.791 1761.5156,225.791 Q1761.1719,225.791 1760.9688,225.5879 Q1760.7656,225.4004 1760.6563,224.8848 Q1760.6094,224.5254 1760.4219,224.3379 Q1760.0938,223.9629 1759.4844,223.7441 Q1758.875,223.5254 1758.25,223.5254 Q1757.4844,223.5254 1756.8438,223.8535 Q1756.2188,224.1816 1755.7188,224.9316 Q1755.2344,225.6816 1755.2344,226.7129 L1755.2344,227.8066 Q1755.2344,229.041 1756.125,229.8691 Q1757.0156,230.6816 1758.6094,230.6816 Q1759.5469,230.6816 1760.2031,230.4316 Q1760.5938,230.2754 1761.0156,229.8379 Q1761.2813,229.5723 1761.4219,229.4941 Q1761.5781,229.416 1761.7813,229.416 Q1762.1094,229.416 1762.3594,229.6816 Q1762.625,229.9316 1762.625,230.2754 Q1762.625,230.6191 1762.2813,231.0254 Q1761.7813,231.6035 1760.9844,231.9316 Q1759.9063,232.3848 1758.6094,232.3848 Q1757.0938,232.3848 1755.8906,231.7598 Q1754.9063,231.2598 1754.2188,230.1973 Q1753.5313,229.1191 1753.5313,227.8379 L1753.5313,226.6816 Q1753.5313,225.3535 1754.1406,224.2129 Q1754.7656,223.0566 1755.8594,222.4473 Q1756.9531,221.8223 1758.1875,221.8223 Q1758.9219,221.8223 1759.5625,221.9941 Q1760.2188,222.1504 1760.7656,222.5098 Z " fill="#000000"/><text fill="#000000" font-family="sans-serif" font-size="14" lengthAdjust="spacing" textLength="109" x="1772" y="232.4316">BooleanQuestion</text><line style="stroke:#181818;stroke-width:0.5;" x1="1744" x2="1883" y1="242.6348" y2="242.6348"/><line style="stroke:#181818;stroke-width:0.5;" x1="1744" x2="1883" y1="250.6348" y2="250.6348"/></g><!--class MultipleChoiceQuestion--><g id="elem_MultipleChoiceQuestion"><rect codeLine="44" fill="#F1F1F1" height="48" id="MultipleChoiceQuestion" rx="2.5" ry="2.5" style="stroke:#181818;stroke-width:0.5;" width="181" x="1296" y="127.6348"/><ellipse cx="1311" cy="143.6348" fill="#ADD1B2" rx="11" ry="11" style="stroke:#181818;stroke-width:1.0;"/><path d="M1313.7656,139.5098 Q1313.9219,139.291 1314.1094,139.1816 Q1314.2969,139.0723 1314.5156,139.0723 Q1314.8906,139.0723 1315.125,139.3379 Q1315.3594,139.5879 1315.3594,140.1973 L1315.3594,141.6504 Q1315.3594,142.2598 1315.125,142.5254 Q1314.8906,142.791 1314.5156,142.791 Q1314.1719,142.791 1313.9688,142.5879 Q1313.7656,142.4004 1313.6563,141.8848 Q1313.6094,141.5254 1313.4219,141.3379 Q1313.0938,140.9629 1312.4844,140.7441 Q1311.875,140.5254 1311.25,140.5254 Q1310.4844,140.5254 1309.8438,140.8535 Q1309.2188,141.1816 1308.7188,141.9316 Q1308.2344,142.6816 1308.2344,143.7129 L1308.2344,144.8066 Q1308.2344,146.041 1309.125,146.8691 Q1310.0156,147.6816 1311.6094,147.6816 Q1312.5469,147.6816 1313.2031,147.4316 Q1313.5938,147.2754 1314.0156,146.8379 Q1314.2813,146.5723 1314.4219,146.4941 Q1314.5781,146.416 1314.7813,146.416 Q1315.1094,146.416 1315.3594,146.6816 Q1315.625,146.9316 1315.625,147.2754 Q1315.625,147.6191 1315.2813,148.0254 Q1314.7813,148.6035 1313.9844,148.9316 Q1312.9063,149.3848 1311.6094,149.3848 Q1310.0938,149.3848 1308.8906,148.7598 Q1307.9063,148.2598 1307.2188,147.1973 Q1306.5313,146.1191 1306.5313,144.8379 L1306.5313,143.6816 Q1306.5313,142.3535 1307.1406,141.2129 Q1307.7656,140.0566 1308.8594,139.4473 Q1309.9531,138.8223 1311.1875,138.8223 Q1311.9219,138.8223 1312.5625,138.9941 Q1313.2188,139.1504 1313.7656,139.5098 Z " fill="#000000"/><text fill="#000000" font-family="sans-serif" font-size="14" lengthAdjust="spacing" textLength="149" x="1325" y="149.4316">MultipleChoiceQuestion</text><line style="stroke:#181818;stroke-width:0.5;" x1="1297" x2="1476" y1="159.6348" y2="159.6348"/><line style="stroke:#181818;stroke-width:0.5;" x1="1297" x2="1476" y1="167.6348" y2="167.6348"/></g><!--class MatchingQuestion--><g id="elem_MatchingQuestion"><rect codeLine="45" fill="#F1F1F1" height="48" id="MatchingQuestion" rx="2.5" ry="2.5" style="stroke:#181818;stroke-width:0.5;" width="146" x="1537" y="127.6348"/><ellipse cx="1552" cy="143.6348" fill="#ADD1B2" rx="11" ry="11" style="stroke:#181818;stroke-width:1.0;"/><path d="M1554.7656,139.5098 Q1554.9219,139.291 1555.1094,139.1816 Q1555.2969,139.0723 1555.5156,139.0723 Q1555.8906,139.0723 1556.125,139.3379 Q1556.3594,139.5879 1556.3594,140.1973 L1556.3594,141.6504 Q1556.3594,142.2598 1556.125,142.5254 Q1555.8906,142.791 1555.5156,142.791 Q1555.1719,142.791 1554.9688,142.5879 Q1554.7656,142.4004 1554.6563,141.8848 Q1554.6094,141.5254 1554.4219,141.3379 Q1554.0938,140.9629 1553.4844,140.7441 Q1552.875,140.5254 1552.25,140.5254 Q1551.4844,140.5254 1550.8438,140.8535 Q1550.2188,141.1816 1549.7188,141.9316 Q1549.2344,142.6816 1549.2344,143.7129 L1549.2344,144.8066 Q1549.2344,146.041 1550.125,146.8691 Q1551.0156,147.6816 1552.6094,147.6816 Q1553.5469,147.6816 1554.2031,147.4316 Q1554.5938,147.2754 1555.0156,146.8379 Q1555.2813,146.5723 1555.4219,146.4941 Q1555.5781,146.416 1555.7813,146.416 Q1556.1094,146.416 1556.3594,146.6816 Q1556.625,146.9316 1556.625,147.2754 Q1556.625,147.6191 1556.2813,148.0254 Q1555.7813,148.6035 1554.9844,148.9316 Q1553.9063,149.3848 1552.6094,149.3848 Q1551.0938,149.3848 1549.8906,148.7598 Q1548.9063,148.2598 1548.2188,147.1973 Q1547.5313,146.1191 1547.5313,144.8379 L1547.5313,143.6816 Q1547.5313,142.3535 1548.1406,141.2129 Q1548.7656,140.0566 1549.8594,139.4473 Q1550.9531,138.8223 1552.1875,138.8223 Q1552.9219,138.8223 1553.5625,138.9941 Q1554.2188,139.1504 1554.7656,139.5098 Z " fill="#000000"/><text fill="#000000" font-family="sans-serif" font-size="14" lengthAdjust="spacing" textLength="114" x="1566" y="149.4316">MatchingQuestion</text><line style="stroke:#181818;stroke-width:0.5;" x1="1538" x2="1682" y1="159.6348" y2="159.6348"/><line style="stroke:#181818;stroke-width:0.5;" x1="1538" x2="1682" y1="167.6348" y2="167.6348"/></g><!--class NumericalQuestion--><g id="elem_NumericalQuestion"><rect codeLine="46" fill="#F1F1F1" height="48" id="NumericalQuestion" rx="2.5" ry="2.5" style="stroke:#181818;stroke-width:0.5;" width="151" x="919.5" y="127.6348"/><ellipse cx="934.5" cy="143.6348" fill="#ADD1B2" rx="11" ry="11" style="stroke:#181818;stroke-width:1.0;"/><path d="M937.2656,139.5098 Q937.4219,139.291 937.6094,139.1816 Q937.7969,139.0723 938.0156,139.0723 Q938.3906,139.0723 938.625,139.3379 Q938.8594,139.5879 938.8594,140.1973 L938.8594,141.6504 Q938.8594,142.2598 938.625,142.5254 Q938.3906,142.791 938.0156,142.791 Q937.6719,142.791 937.4688,142.5879 Q937.2656,142.4004 937.1563,141.8848 Q937.1094,141.5254 936.9219,141.3379 Q936.5938,140.9629 935.9844,140.7441 Q935.375,140.5254 934.75,140.5254 Q933.9844,140.5254 933.3438,140.8535 Q932.7188,141.1816 932.2188,141.9316 Q931.7344,142.6816 931.7344,143.7129 L931.7344,144.8066 Q931.7344,146.041 932.625,146.8691 Q933.5156,147.6816 935.1094,147.6816 Q936.0469,147.6816 936.7031,147.4316 Q937.0938,147.2754 937.5156,146.8379 Q937.7813,146.5723 937.9219,146.4941 Q938.0781,146.416 938.2813,146.416 Q938.6094,146.416 938.8594,146.6816 Q939.125,146.9316 939.125,147.2754 Q939.125,147.6191 938.7813,148.0254 Q938.2813,148.6035 937.4844,148.9316 Q936.4063,149.3848 935.1094,149.3848 Q933.5938,149.3848 932.3906,148.7598 Q931.4063,148.2598 930.7188,147.1973 Q930.0313,146.1191 930.0313,144.8379 L930.0313,143.6816 Q930.0313,142.3535 930.6406,141.2129 Q931.2656,140.0566 932.3594,139.4473 Q933.4531,138.8223 934.6875,138.8223 Q935.4219,138.8223 936.0625,138.9941 Q936.7188,139.1504 937.2656,139.5098 Z " fill="#000000"/><text fill="#000000" font-family="sans-serif" font-size="14" lengthAdjust="spacing" textLength="119" x="948.5" y="149.4316">NumericalQuestion</text><line style="stroke:#181818;stroke-width:0.5;" x1="920.5" x2="1069.5" y1="159.6348" y2="159.6348"/><line style="stroke:#181818;stroke-width:0.5;" x1="920.5" x2="1069.5" y1="167.6348" y2="167.6348"/></g><!--class MissingWordQuestion--><g id="elem_MissingWordQuestion"><rect codeLine="47" fill="#F1F1F1" height="48" id="MissingWordQuestion" rx="2.5" ry="2.5" style="stroke:#181818;stroke-width:0.5;" width="170" x="910" y="210.6348"/><ellipse cx="925" cy="226.6348" fill="#ADD1B2" rx="11" ry="11" style="stroke:#181818;stroke-width:1.0;"/><path d="M927.7656,222.5098 Q927.9219,222.291 928.1094,222.1816 Q928.2969,222.0723 928.5156,222.0723 Q928.8906,222.0723 929.125,222.3379 Q929.3594,222.5879 929.3594,223.1973 L929.3594,224.6504 Q929.3594,225.2598 929.125,225.5254 Q928.8906,225.791 928.5156,225.791 Q928.1719,225.791 927.9688,225.5879 Q927.7656,225.4004 927.6563,224.8848 Q927.6094,224.5254 927.4219,224.3379 Q927.0938,223.9629 926.4844,223.7441 Q925.875,223.5254 925.25,223.5254 Q924.4844,223.5254 923.8438,223.8535 Q923.2188,224.1816 922.7188,224.9316 Q922.2344,225.6816 922.2344,226.7129 L922.2344,227.8066 Q922.2344,229.041 923.125,229.8691 Q924.0156,230.6816 925.6094,230.6816 Q926.5469,230.6816 927.2031,230.4316 Q927.5938,230.2754 928.0156,229.8379 Q928.2813,229.5723 928.4219,229.4941 Q928.5781,229.416 928.7813,229.416 Q929.1094,229.416 929.3594,229.6816 Q929.625,229.9316 929.625,230.2754 Q929.625,230.6191 929.2813,231.0254 Q928.7813,231.6035 927.9844,231.9316 Q926.9063,232.3848 925.6094,232.3848 Q924.0938,232.3848 922.8906,231.7598 Q921.9063,231.2598 921.2188,230.1973 Q920.5313,229.1191 920.5313,227.8379 L920.5313,226.6816 Q920.5313,225.3535 921.1406,224.2129 Q921.7656,223.0566 922.8594,222.4473 Q923.9531,221.8223 925.1875,221.8223 Q925.9219,221.8223 926.5625,221.9941 Q927.2188,222.1504 927.7656,222.5098 Z " fill="#000000"/><text fill="#000000" font-family="sans-serif" font-size="14" lengthAdjust="spacing" textLength="138" x="939" y="232.4316">MissingWordQuestion</text><line style="stroke:#181818;stroke-width:0.5;" x1="911" x2="1079" y1="242.6348" y2="242.6348"/><line style="stroke:#181818;stroke-width:0.5;" x1="911" x2="1079" y1="250.6348" y2="250.6348"/></g><!--class CourseRepository--><g id="elem_CourseRepository"><rect codeLine="54" fill="#F1F1F1" height="66.6211" id="CourseRepository" rx="2.5" ry="2.5" style="stroke:#181818;stroke-width:0.5;" width="339" x="825.5" y="1596.1348"/><ellipse cx="933.75" cy="1612.1348" fill="#B4A7E5" rx="11" ry="11" style="stroke:#181818;stroke-width:1.0;"/><path d="M934.7031,1608.7754 L934.7031,1615.4316 L936.4219,1615.4316 Q937.0313,1615.4316 937.2969,1615.666 Q937.5625,1615.9004 937.5625,1616.291 Q937.5625,1616.666 937.2969,1616.9004 Q937.0313,1617.1348 936.4219,1617.1348 L931.2813,1617.1348 Q930.6719,1617.1348 930.4063,1616.9004 Q930.1406,1616.666 930.1406,1616.2754 Q930.1406,1615.9004 930.4063,1615.666 Q930.6719,1615.4316 931.2813,1615.4316 L933,1615.4316 L933,1608.7754 L931.2813,1608.7754 Q930.6719,1608.7754 930.4063,1608.541 Q930.1406,1608.3066 930.1406,1607.916 Q930.1406,1607.541 930.4063,1607.3066 Q930.6719,1607.0723 931.2813,1607.0723 L936.4219,1607.0723 Q937.0313,1607.0723 937.2969,1607.3066 Q937.5625,1607.541 937.5625,1607.916 Q937.5625,1608.3066 937.2969,1608.541 Q937.0313,1608.7754 936.4219,1608.7754 L934.7031,1608.7754 Z " fill="#000000"/><text fill="#000000" font-family="sans-serif" font-size="14" font-style="italic" lengthAdjust="spacing" textLength="114" x="954.25" y="1617.9316">CourseRepository</text><line style="stroke:#181818;stroke-width:0.5;" x1="826.5" x2="1163.5" y1="1628.1348" y2="1628.1348"/><line style="stroke:#181818;stroke-width:0.5;" x1="826.5" x2="1163.5" y1="1636.1348" y2="1636.1348"/><ellipse cx="836.5" cy="1650.9453" fill="#84BE84" rx="3" ry="3" style="stroke:#038048;stroke-width:1.0;"/><text fill="#000000" font-family="sans-serif" font-size="14" lengthAdjust="spacing" textLength="313" x="845.5" y="1655.2422">findAvailableTeacherCourses(): Iterable&lt;Course&gt;</text></g><!--class Course--><g id="elem_Course"><rect codeLine="61" fill="#F1F1F1" height="48" id="Course" rx="2.5" ry="2.5" style="stroke:#181818;stroke-width:0.5;" width="78" x="1347.5" y="1605.6348"/><ellipse cx="1362.5" cy="1621.6348" fill="#ADD1B2" rx="11" ry="11" style="stroke:#181818;stroke-width:1.0;"/><path d="M1365.2656,1617.5098 Q1365.4219,1617.291 1365.6094,1617.1816 Q1365.7969,1617.0723 1366.0156,1617.0723 Q1366.3906,1617.0723 1366.625,1617.3379 Q1366.8594,1617.5879 1366.8594,1618.1973 L1366.8594,1619.6504 Q1366.8594,1620.2598 1366.625,1620.5254 Q1366.3906,1620.791 1366.0156,1620.791 Q1365.6719,1620.791 1365.4688,1620.5879 Q1365.2656,1620.4004 1365.1563,1619.8848 Q1365.1094,1619.5254 1364.9219,1619.3379 Q1364.5938,1618.9629 1363.9844,1618.7441 Q1363.375,1618.5254 1362.75,1618.5254 Q1361.9844,1618.5254 1361.3438,1618.8535 Q1360.7188,1619.1816 1360.2188,1619.9316 Q1359.7344,1620.6816 1359.7344,1621.7129 L1359.7344,1622.8066 Q1359.7344,1624.041 1360.625,1624.8691 Q1361.5156,1625.6816 1363.1094,1625.6816 Q1364.0469,1625.6816 1364.7031,1625.4316 Q1365.0938,1625.2754 1365.5156,1624.8379 Q1365.7813,1624.5723 1365.9219,1624.4941 Q1366.0781,1624.416 1366.2813,1624.416 Q1366.6094,1624.416 1366.8594,1624.6816 Q1367.125,1624.9316 1367.125,1625.2754 Q1367.125,1625.6191 1366.7813,1626.0254 Q1366.2813,1626.6035 1365.4844,1626.9316 Q1364.4063,1627.3848 1363.1094,1627.3848 Q1361.5938,1627.3848 1360.3906,1626.7598 Q1359.4063,1626.2598 1358.7188,1625.1973 Q1358.0313,1624.1191 1358.0313,1622.8379 L1358.0313,1621.6816 Q1358.0313,1620.3535 1358.6406,1619.2129 Q1359.2656,1618.0566 1360.3594,1617.4473 Q1361.4531,1616.8223 1362.6875,1616.8223 Q1363.4219,1616.8223 1364.0625,1616.9941 Q1364.7188,1617.1504 1365.2656,1617.5098 Z " fill="#000000"/><text fill="#000000" font-family="sans-serif" font-size="14" lengthAdjust="spacing" textLength="46" x="1376.5" y="1627.4316">Course</text><line style="stroke:#181818;stroke-width:0.5;" x1="1348.5" x2="1424.5" y1="1637.6348" y2="1637.6348"/><line style="stroke:#181818;stroke-width:0.5;" x1="1348.5" x2="1424.5" y1="1645.6348" y2="1645.6348"/></g><!--class ListTeacherCoursesController--><g id="elem_ListTeacherCoursesController"><rect codeLine="67" fill="#F1F1F1" height="66.6211" id="ListTeacherCoursesController" rx="2.5" ry="2.5" style="stroke:#181818;stroke-width:0.5;" width="336" x="827" y="1741.1348"/><ellipse cx="895.75" cy="1757.1348" fill="#ADD1B2" rx="11" ry="11" style="stroke:#181818;stroke-width:1.0;"/><path d="M898.5156,1753.0098 Q898.6719,1752.791 898.8594,1752.6816 Q899.0469,1752.5723 899.2656,1752.5723 Q899.6406,1752.5723 899.875,1752.8379 Q900.1094,1753.0879 900.1094,1753.6973 L900.1094,1755.1504 Q900.1094,1755.7598 899.875,1756.0254 Q899.6406,1756.291 899.2656,1756.291 Q898.9219,1756.291 898.7188,1756.0879 Q898.5156,1755.9004 898.4063,1755.3848 Q898.3594,1755.0254 898.1719,1754.8379 Q897.8438,1754.4629 897.2344,1754.2441 Q896.625,1754.0254 896,1754.0254 Q895.2344,1754.0254 894.5938,1754.3535 Q893.9688,1754.6816 893.4688,1755.4316 Q892.9844,1756.1816 892.9844,1757.2129 L892.9844,1758.3066 Q892.9844,1759.541 893.875,1760.3691 Q894.7656,1761.1816 896.3594,1761.1816 Q897.2969,1761.1816 897.9531,1760.9316 Q898.3438,1760.7754 898.7656,1760.3379 Q899.0313,1760.0723 899.1719,1759.9941 Q899.3281,1759.916 899.5313,1759.916 Q899.8594,1759.916 900.1094,1760.1816 Q900.375,1760.4316 900.375,1760.7754 Q900.375,1761.1191 900.0313,1761.5254 Q899.5313,1762.1035 898.7344,1762.4316 Q897.6563,1762.8848 896.3594,1762.8848 Q894.8438,1762.8848 893.6406,1762.2598 Q892.6563,1761.7598 891.9688,1760.6973 Q891.2813,1759.6191 891.2813,1758.3379 L891.2813,1757.1816 Q891.2813,1755.8535 891.8906,1754.7129 Q892.5156,1753.5566 893.6094,1752.9473 Q894.7031,1752.3223 895.9375,1752.3223 Q896.6719,1752.3223 897.3125,1752.4941 Q897.9688,1752.6504 898.5156,1753.0098 Z " fill="#000000"/><text fill="#000000" font-family="sans-serif" font-size="14" lengthAdjust="spacing" textLength="190" x="916.25" y="1762.9316">ListTeacherCoursesController</text><line style="stroke:#181818;stroke-width:0.5;" x1="828" x2="1162" y1="1773.1348" y2="1773.1348"/><line style="stroke:#181818;stroke-width:0.5;" x1="828" x2="1162" y1="1781.1348" y2="1781.1348"/><ellipse cx="838" cy="1795.9453" fill="#84BE84" rx="3" ry="3" style="stroke:#038048;stroke-width:1.0;"/><text fill="#000000" font-family="sans-serif" font-size="14" lengthAdjust="spacing" textLength="310" x="847" y="1800.2422">getAvailableTeacherCourses(): Iterable&lt;Course&gt;</text></g><!--class TakenExam--><g id="elem_TakenExam"><rect codeLine="76" fill="#F1F1F1" height="48" id="TakenExam" rx="2.5" ry="2.5" style="stroke:#181818;stroke-width:0.5;" width="106" x="942" y="487.6348"/><ellipse cx="957" cy="503.6348" fill="#ADD1B2" rx="11" ry="11" style="stroke:#181818;stroke-width:1.0;"/><path d="M959.7656,499.5098 Q959.9219,499.291 960.1094,499.1816 Q960.2969,499.0723 960.5156,499.0723 Q960.8906,499.0723 961.125,499.3379 Q961.3594,499.5879 961.3594,500.1973 L961.3594,501.6504 Q961.3594,502.2598 961.125,502.5254 Q960.8906,502.791 960.5156,502.791 Q960.1719,502.791 959.9688,502.5879 Q959.7656,502.4004 959.6563,501.8848 Q959.6094,501.5254 959.4219,501.3379 Q959.0938,500.9629 958.4844,500.7441 Q957.875,500.5254 957.25,500.5254 Q956.4844,500.5254 955.8438,500.8535 Q955.2188,501.1816 954.7188,501.9316 Q954.2344,502.6816 954.2344,503.7129 L954.2344,504.8066 Q954.2344,506.041 955.125,506.8691 Q956.0156,507.6816 957.6094,507.6816 Q958.5469,507.6816 959.2031,507.4316 Q959.5938,507.2754 960.0156,506.8379 Q960.2813,506.5723 960.4219,506.4941 Q960.5781,506.416 960.7813,506.416 Q961.1094,506.416 961.3594,506.6816 Q961.625,506.9316 961.625,507.2754 Q961.625,507.6191 961.2813,508.0254 Q960.7813,508.6035 959.9844,508.9316 Q958.9063,509.3848 957.6094,509.3848 Q956.0938,509.3848 954.8906,508.7598 Q953.9063,508.2598 953.2188,507.1973 Q952.5313,506.1191 952.5313,504.8379 L952.5313,503.6816 Q952.5313,502.3535 953.1406,501.2129 Q953.7656,500.0566 954.8594,499.4473 Q955.9531,498.8223 957.1875,498.8223 Q957.9219,498.8223 958.5625,498.9941 Q959.2188,499.1504 959.7656,499.5098 Z " fill="#000000"/><text fill="#000000" font-family="sans-serif" font-size="14" lengthAdjust="spacing" textLength="74" x="971" y="509.4316">TakenExam</text><line style="stroke:#181818;stroke-width:0.5;" x1="943" x2="1047" y1="519.6348" y2="519.6348"/><line style="stroke:#181818;stroke-width:0.5;" x1="943" x2="1047" y1="527.6348" y2="527.6348"/></g><!--class AnsweredQuestion--><g id="elem_AnsweredQuestion"><rect codeLine="78" fill="#F1F1F1" height="48" id="AnsweredQuestion" rx="2.5" ry="2.5" style="stroke:#181818;stroke-width:0.5;" width="151" x="919.5" y="404.6348"/><ellipse cx="934.5" cy="420.6348" fill="#ADD1B2" rx="11" ry="11" style="stroke:#181818;stroke-width:1.0;"/><path d="M937.2656,416.5098 Q937.4219,416.291 937.6094,416.1816 Q937.7969,416.0723 938.0156,416.0723 Q938.3906,416.0723 938.625,416.3379 Q938.8594,416.5879 938.8594,417.1973 L938.8594,418.6504 Q938.8594,419.2598 938.625,419.5254 Q938.3906,419.791 938.0156,419.791 Q937.6719,419.791 937.4688,419.5879 Q937.2656,419.4004 937.1563,418.8848 Q937.1094,418.5254 936.9219,418.3379 Q936.5938,417.9629 935.9844,417.7441 Q935.375,417.5254 934.75,417.5254 Q933.9844,417.5254 933.3438,417.8535 Q932.7188,418.1816 932.2188,418.9316 Q931.7344,419.6816 931.7344,420.7129 L931.7344,421.8066 Q931.7344,423.041 932.625,423.8691 Q933.5156,424.6816 935.1094,424.6816 Q936.0469,424.6816 936.7031,424.4316 Q937.0938,424.2754 937.5156,423.8379 Q937.7813,423.5723 937.9219,423.4941 Q938.0781,423.416 938.2813,423.416 Q938.6094,423.416 938.8594,423.6816 Q939.125,423.9316 939.125,424.2754 Q939.125,424.6191 938.7813,425.0254 Q938.2813,425.6035 937.4844,425.9316 Q936.4063,426.3848 935.1094,426.3848 Q933.5938,426.3848 932.3906,425.7598 Q931.4063,425.2598 930.7188,424.1973 Q930.0313,423.1191 930.0313,421.8379 L930.0313,420.6816 Q930.0313,419.3535 930.6406,418.2129 Q931.2656,417.0566 932.3594,416.4473 Q933.4531,415.8223 934.6875,415.8223 Q935.4219,415.8223 936.0625,415.9941 Q936.7188,416.1504 937.2656,416.5098 Z " fill="#000000"/><text fill="#000000" font-family="sans-serif" font-size="14" lengthAdjust="spacing" textLength="119" x="948.5" y="426.4316">AnsweredQuestion</text><line style="stroke:#181818;stroke-width:0.5;" x1="920.5" x2="1069.5" y1="436.6348" y2="436.6348"/><line style="stroke:#181818;stroke-width:0.5;" x1="920.5" x2="1069.5" y1="444.6348" y2="444.6348"/></g><!--class TakenExamBuilder--><g id="elem_TakenExamBuilder"><rect codeLine="80" fill="#F1F1F1" height="122.4844" id="TakenExamBuilder" rx="2.5" ry="2.5" style="stroke:#181818;stroke-width:0.5;" width="427" x="781.5" y="570.6348"/><ellipse cx="931.75" cy="586.6348" fill="#ADD1B2" rx="11" ry="11" style="stroke:#181818;stroke-width:1.0;"/><path d="M934.5156,582.5098 Q934.6719,582.291 934.8594,582.1816 Q935.0469,582.0723 935.2656,582.0723 Q935.6406,582.0723 935.875,582.3379 Q936.1094,582.5879 936.1094,583.1973 L936.1094,584.6504 Q936.1094,585.2598 935.875,585.5254 Q935.6406,585.791 935.2656,585.791 Q934.9219,585.791 934.7188,585.5879 Q934.5156,585.4004 934.4063,584.8848 Q934.3594,584.5254 934.1719,584.3379 Q933.8438,583.9629 933.2344,583.7441 Q932.625,583.5254 932,583.5254 Q931.2344,583.5254 930.5938,583.8535 Q929.9688,584.1816 929.4688,584.9316 Q928.9844,585.6816 928.9844,586.7129 L928.9844,587.8066 Q928.9844,589.041 929.875,589.8691 Q930.7656,590.6816 932.3594,590.6816 Q933.2969,590.6816 933.9531,590.4316 Q934.3438,590.2754 934.7656,589.8379 Q935.0313,589.5723 935.1719,589.4941 Q935.3281,589.416 935.5313,589.416 Q935.8594,589.416 936.1094,589.6816 Q936.375,589.9316 936.375,590.2754 Q936.375,590.6191 936.0313,591.0254 Q935.5313,591.6035 934.7344,591.9316 Q933.6563,592.3848 932.3594,592.3848 Q930.8438,592.3848 929.6406,591.7598 Q928.6563,591.2598 927.9688,590.1973 Q927.2813,589.1191 927.2813,587.8379 L927.2813,586.6816 Q927.2813,585.3535 927.8906,584.2129 Q928.5156,583.0566 929.6094,582.4473 Q930.7031,581.8223 931.9375,581.8223 Q932.6719,581.8223 933.3125,581.9941 Q933.9688,582.1504 934.5156,582.5098 Z " fill="#000000"/><text fill="#000000" font-family="sans-serif" font-size="14" lengthAdjust="spacing" textLength="118" x="952.25" y="592.4316">TakenExamBuilder</text><line style="stroke:#181818;stroke-width:0.5;" x1="782.5" x2="1207.5" y1="602.6348" y2="602.6348"/><line style="stroke:#181818;stroke-width:0.5;" x1="782.5" x2="1207.5" y1="610.6348" y2="610.6348"/><ellipse cx="792.5" cy="625.4453" fill="#84BE84" rx="3" ry="3" style="stroke:#038048;stroke-width:1.0;"/><text fill="#000000" font-family="sans-serif" font-size="14" lengthAdjust="spacing" textLength="231" x="801.5" y="629.7422">withExam(exam) : TakenExamBuilder</text><ellipse cx="792.5" cy="644.0664" fill="#84BE84" rx="3" ry="3" style="stroke:#038048;stroke-width:1.0;"/><text fill="#000000" font-family="sans-serif" font-size="14" lengthAdjust="spacing" textLength="260" x="801.5" y="648.3633">withStudent(student) : TakenExamBuilder</text><ellipse cx="792.5" cy="662.6875" fill="#84BE84" rx="3" ry="3" style="stroke:#038048;stroke-width:1.0;"/><text fill="#000000" font-family="sans-serif" font-size="14" lengthAdjust="spacing" textLength="401" x="801.5" y="666.9844">withAnsweredQuestion(answeredQuestion) : TakenExamBuilder</text><ellipse cx="792.5" cy="681.3086" fill="#84BE84" rx="3" ry="3" style="stroke:#038048;stroke-width:1.0;"/><text fill="#000000" font-family="sans-serif" font-size="14" lengthAdjust="spacing" textLength="126" x="801.5" y="685.6055">build() : TakenExam</text></g><!--class TakeAutomatedExamController--><g id="elem_TakeAutomatedExamController"><rect codeLine="90" fill="#F1F1F1" height="178.3477" id="TakeAutomatedExamController" rx="2.5" ry="2.5" style="stroke:#181818;stroke-width:0.5;" width="353" x="321" y="729.6348"/><ellipse cx="395.25" cy="745.6348" fill="#ADD1B2" rx="11" ry="11" style="stroke:#181818;stroke-width:1.0;"/><path d="M398.0156,741.5098 Q398.1719,741.291 398.3594,741.1816 Q398.5469,741.0723 398.7656,741.0723 Q399.1406,741.0723 399.375,741.3379 Q399.6094,741.5879 399.6094,742.1973 L399.6094,743.6504 Q399.6094,744.2598 399.375,744.5254 Q399.1406,744.791 398.7656,744.791 Q398.4219,744.791 398.2188,744.5879 Q398.0156,744.4004 397.9063,743.8848 Q397.8594,743.5254 397.6719,743.3379 Q397.3438,742.9629 396.7344,742.7441 Q396.125,742.5254 395.5,742.5254 Q394.7344,742.5254 394.0938,742.8535 Q393.4688,743.1816 392.9688,743.9316 Q392.4844,744.6816 392.4844,745.7129 L392.4844,746.8066 Q392.4844,748.041 393.375,748.8691 Q394.2656,749.6816 395.8594,749.6816 Q396.7969,749.6816 397.4531,749.4316 Q397.8438,749.2754 398.2656,748.8379 Q398.5313,748.5723 398.6719,748.4941 Q398.8281,748.416 399.0313,748.416 Q399.3594,748.416 399.6094,748.6816 Q399.875,748.9316 399.875,749.2754 Q399.875,749.6191 399.5313,750.0254 Q399.0313,750.6035 398.2344,750.9316 Q397.1563,751.3848 395.8594,751.3848 Q394.3438,751.3848 393.1406,750.7598 Q392.1563,750.2598 391.4688,749.1973 Q390.7813,748.1191 390.7813,746.8379 L390.7813,745.6816 Q390.7813,744.3535 391.3906,743.2129 Q392.0156,742.0566 393.1094,741.4473 Q394.2031,740.8223 395.4375,740.8223 Q396.1719,740.8223 396.8125,740.9941 Q397.4688,741.1504 398.0156,741.5098 Z " fill="#000000"/><text fill="#000000" font-family="sans-serif" font-size="14" lengthAdjust="spacing" textLength="196" x="415.75" y="751.4316">TakeAutomatedExamController</text><line style="stroke:#181818;stroke-width:0.5;" x1="322" x2="673" y1="761.6348" y2="761.6348"/><line style="stroke:#181818;stroke-width:0.5;" x1="322" x2="673" y1="769.6348" y2="769.6348"/><ellipse cx="332" cy="784.4453" fill="#84BE84" rx="3" ry="3" style="stroke:#038048;stroke-width:1.0;"/><text fill="#000000" font-family="sans-serif" font-size="14" lengthAdjust="spacing" textLength="327" x="341" y="788.7422">availableAutomatedExams() : List&lt;AutomatedExam&gt;</text><rect fill="#F24D5C" height="6" style="stroke:#C82930;stroke-width:1.0;" width="6" x="329" y="800.0664"/><text fill="#000000" font-family="sans-serif" font-size="14" lengthAdjust="spacing" textLength="73" x="341" y="807.3633">verifyUser()</text><rect fill="#F24D5C" height="6" style="stroke:#C82930;stroke-width:1.0;" width="6" x="329" y="818.6875"/><text fill="#000000" font-family="sans-serif" font-size="14" lengthAdjust="spacing" textLength="206" x="341" y="825.9844">isExamAlreadyTaken() : Boolean</text><ellipse cx="332" cy="840.3086" fill="#84BE84" rx="3" ry="3" style="stroke:#038048;stroke-width:1.0;"/><text fill="#000000" font-family="sans-serif" font-size="14" lengthAdjust="spacing" textLength="274" x="341" y="844.6055">studentInProgressCourses() : List&lt;Course&gt;</text><ellipse cx="332" cy="858.9297" fill="#84BE84" rx="3" ry="3" style="stroke:#038048;stroke-width:1.0;"/><text fill="#000000" font-family="sans-serif" font-size="14" lengthAdjust="spacing" textLength="243" x="341" y="863.2266">createTakenExam(exam) : TakenExam</text><ellipse cx="332" cy="877.5508" fill="#84BE84" rx="3" ry="3" style="stroke:#038048;stroke-width:1.0;"/><text fill="#000000" font-family="sans-serif" font-size="14" lengthAdjust="spacing" textLength="211" x="341" y="881.8477">createExamFile(exam, path) : File</text><ellipse cx="332" cy="896.1719" fill="#84BE84" rx="3" ry="3" style="stroke:#038048;stroke-width:1.0;"/><text fill="#000000" font-family="sans-serif" font-size="14" lengthAdjust="spacing" textLength="207" x="341" y="900.4688">correctExam(exam) : TakenExam</text></g><!--class TakenExamHandler--><g id="elem_TakenExamHandler"><rect codeLine="100" fill="#F1F1F1" height="66.6211" id="TakenExamHandler" rx="2.5" ry="2.5" style="stroke:#181818;stroke-width:0.5;" width="254" x="370.5" y="627.1348"/><ellipse cx="431.75" cy="643.1348" fill="#ADD1B2" rx="11" ry="11" style="stroke:#181818;stroke-width:1.0;"/><path d="M434.5156,639.0098 Q434.6719,638.791 434.8594,638.6816 Q435.0469,638.5723 435.2656,638.5723 Q435.6406,638.5723 435.875,638.8379 Q436.1094,639.0879 436.1094,639.6973 L436.1094,641.1504 Q436.1094,641.7598 435.875,642.0254 Q435.6406,642.291 435.2656,642.291 Q434.9219,642.291 434.7188,642.0879 Q434.5156,641.9004 434.4063,641.3848 Q434.3594,641.0254 434.1719,640.8379 Q433.8438,640.4629 433.2344,640.2441 Q432.625,640.0254 432,640.0254 Q431.2344,640.0254 430.5938,640.3535 Q429.9688,640.6816 429.4688,641.4316 Q428.9844,642.1816 428.9844,643.2129 L428.9844,644.3066 Q428.9844,645.541 429.875,646.3691 Q430.7656,647.1816 432.3594,647.1816 Q433.2969,647.1816 433.9531,646.9316 Q434.3438,646.7754 434.7656,646.3379 Q435.0313,646.0723 435.1719,645.9941 Q435.3281,645.916 435.5313,645.916 Q435.8594,645.916 436.1094,646.1816 Q436.375,646.4316 436.375,646.7754 Q436.375,647.1191 436.0313,647.5254 Q435.5313,648.1035 434.7344,648.4316 Q433.6563,648.8848 432.3594,648.8848 Q430.8438,648.8848 429.6406,648.2598 Q428.6563,647.7598 427.9688,646.6973 Q427.2813,645.6191 427.2813,644.3379 L427.2813,643.1816 Q427.2813,641.8535 427.8906,640.7129 Q428.5156,639.5566 429.6094,638.9473 Q430.7031,638.3223 431.9375,638.3223 Q432.6719,638.3223 433.3125,638.4941 Q433.9688,638.6504 434.5156,639.0098 Z " fill="#000000"/><text fill="#000000" font-family="sans-serif" font-size="14" lengthAdjust="spacing" textLength="123" x="452.25" y="648.9316">TakenExamHandler</text><line style="stroke:#181818;stroke-width:0.5;" x1="371.5" x2="623.5" y1="659.1348" y2="659.1348"/><line style="stroke:#181818;stroke-width:0.5;" x1="371.5" x2="623.5" y1="667.1348" y2="667.1348"/><ellipse cx="381.5" cy="681.9453" fill="#84BE84" rx="3" ry="3" style="stroke:#038048;stroke-width:1.0;"/><text fill="#000000" font-family="sans-serif" font-size="14" lengthAdjust="spacing" textLength="228" x="390.5" y="686.2422">createTakenExam(file) : TakenExam</text></g><!--class TakenExamVisitor--><g id="elem_TakenExamVisitor"><rect codeLine="104" fill="#F1F1F1" height="85.2422" id="TakenExamVisitor" rx="2.5" ry="2.5" style="stroke:#181818;stroke-width:0.5;" width="279" x="358" y="507.1348"/><ellipse cx="436.75" cy="523.1348" fill="#ADD1B2" rx="11" ry="11" style="stroke:#181818;stroke-width:1.0;"/><path d="M439.5156,519.0098 Q439.6719,518.791 439.8594,518.6816 Q440.0469,518.5723 440.2656,518.5723 Q440.6406,518.5723 440.875,518.8379 Q441.1094,519.0879 441.1094,519.6973 L441.1094,521.1504 Q441.1094,521.7598 440.875,522.0254 Q440.6406,522.291 440.2656,522.291 Q439.9219,522.291 439.7188,522.0879 Q439.5156,521.9004 439.4063,521.3848 Q439.3594,521.0254 439.1719,520.8379 Q438.8438,520.4629 438.2344,520.2441 Q437.625,520.0254 437,520.0254 Q436.2344,520.0254 435.5938,520.3535 Q434.9688,520.6816 434.4688,521.4316 Q433.9844,522.1816 433.9844,523.2129 L433.9844,524.3066 Q433.9844,525.541 434.875,526.3691 Q435.7656,527.1816 437.3594,527.1816 Q438.2969,527.1816 438.9531,526.9316 Q439.3438,526.7754 439.7656,526.3379 Q440.0313,526.0723 440.1719,525.9941 Q440.3281,525.916 440.5313,525.916 Q440.8594,525.916 441.1094,526.1816 Q441.375,526.4316 441.375,526.7754 Q441.375,527.1191 441.0313,527.5254 Q440.5313,528.1035 439.7344,528.4316 Q438.6563,528.8848 437.3594,528.8848 Q435.8438,528.8848 434.6406,528.2598 Q433.6563,527.7598 432.9688,526.6973 Q432.2813,525.6191 432.2813,524.3379 L432.2813,523.1816 Q432.2813,521.8535 432.8906,520.7129 Q433.5156,519.5566 434.6094,518.9473 Q435.7031,518.3223 436.9375,518.3223 Q437.6719,518.3223 438.3125,518.4941 Q438.9688,518.6504 439.5156,519.0098 Z " fill="#000000"/><text fill="#000000" font-family="sans-serif" font-size="14" lengthAdjust="spacing" textLength="113" x="457.25" y="528.9316">TakenExamVisitor</text><line style="stroke:#181818;stroke-width:0.5;" x1="359" x2="636" y1="539.1348" y2="539.1348"/><line style="stroke:#181818;stroke-width:0.5;" x1="359" x2="636" y1="547.1348" y2="547.1348"/><ellipse cx="369" cy="561.9453" fill="#84BE84" rx="3" ry="3" style="stroke:#038048;stroke-width:1.0;"/><text fill="#000000" font-family="sans-serif" font-size="14" lengthAdjust="spacing" textLength="59" x="378" y="566.2422">visit(tree)</text><ellipse cx="369" cy="580.5664" fill="#84BE84" rx="3" ry="3" style="stroke:#038048;stroke-width:1.0;"/><text fill="#000000" font-family="sans-serif" font-size="14" lengthAdjust="spacing" textLength="253" x="378" y="584.8633">takenExamBuilder() : TakenExamBuilder</text></g><!--class TakenExamCorrector--><g id="elem_TakenExamCorrector"><rect codeLine="109" fill="#F1F1F1" height="66.6211" id="TakenExamCorrector" rx="2.5" ry="2.5" style="stroke:#181818;stroke-width:0.5;" width="218" x="388.5" y="405.1348"/><ellipse cx="426.9" cy="421.1348" fill="#ADD1B2" rx="11" ry="11" style="stroke:#181818;stroke-width:1.0;"/><path d="M429.6656,417.0098 Q429.8219,416.791 430.0094,416.6816 Q430.1969,416.5723 430.4156,416.5723 Q430.7906,416.5723 431.025,416.8379 Q431.2594,417.0879 431.2594,417.6973 L431.2594,419.1504 Q431.2594,419.7598 431.025,420.0254 Q430.7906,420.291 430.4156,420.291 Q430.0719,420.291 429.8688,420.0879 Q429.6656,419.9004 429.5563,419.3848 Q429.5094,419.0254 429.3219,418.8379 Q428.9938,418.4629 428.3844,418.2441 Q427.775,418.0254 427.15,418.0254 Q426.3844,418.0254 425.7438,418.3535 Q425.1188,418.6816 424.6188,419.4316 Q424.1344,420.1816 424.1344,421.2129 L424.1344,422.3066 Q424.1344,423.541 425.025,424.3691 Q425.9156,425.1816 427.5094,425.1816 Q428.4469,425.1816 429.1031,424.9316 Q429.4938,424.7754 429.9156,424.3379 Q430.1813,424.0723 430.3219,423.9941 Q430.4781,423.916 430.6813,423.916 Q431.0094,423.916 431.2594,424.1816 Q431.525,424.4316 431.525,424.7754 Q431.525,425.1191 431.1813,425.5254 Q430.6813,426.1035 429.8844,426.4316 Q428.8063,426.8848 427.5094,426.8848 Q425.9938,426.8848 424.7906,426.2598 Q423.8063,425.7598 423.1188,424.6973 Q422.4313,423.6191 422.4313,422.3379 L422.4313,421.1816 Q422.4313,419.8535 423.0406,418.7129 Q423.6656,417.5566 424.7594,416.9473 Q425.8531,416.3223 427.0875,416.3223 Q427.8219,416.3223 428.4625,416.4941 Q429.1188,416.6504 429.6656,417.0098 Z " fill="#000000"/><text fill="#000000" font-family="sans-serif" font-size="14" lengthAdjust="spacing" textLength="134" x="446.1" y="426.9316">TakenExamCorrector</text><line style="stroke:#181818;stroke-width:0.5;" x1="389.5" x2="605.5" y1="437.1348" y2="437.1348"/><line style="stroke:#181818;stroke-width:0.5;" x1="389.5" x2="605.5" y1="445.1348" y2="445.1348"/><text fill="#000000" font-family="sans-serif" font-size="14" lengthAdjust="spacing" textLength="206" x="394.5" y="464.2422">correctExam(takenExam) : grade</text></g><!--class TakenExamRepository--><g id="elem_TakenExamRepository"><rect codeLine="116" fill="#F1F1F1" height="66.6211" id="TakenExamRepository" rx="2.5" ry="2.5" style="stroke:#181818;stroke-width:0.5;" width="221" x="884.5" y="785.1348"/><ellipse cx="920.2" cy="801.1348" fill="#B4A7E5" rx="11" ry="11" style="stroke:#181818;stroke-width:1.0;"/><path d="M921.1531,797.7754 L921.1531,804.4316 L922.8719,804.4316 Q923.4813,804.4316 923.7469,804.666 Q924.0125,804.9004 924.0125,805.291 Q924.0125,805.666 923.7469,805.9004 Q923.4813,806.1348 922.8719,806.1348 L917.7313,806.1348 Q917.1219,806.1348 916.8563,805.9004 Q916.5906,805.666 916.5906,805.2754 Q916.5906,804.9004 916.8563,804.666 Q917.1219,804.4316 917.7313,804.4316 L919.45,804.4316 L919.45,797.7754 L917.7313,797.7754 Q917.1219,797.7754 916.8563,797.541 Q916.5906,797.3066 916.5906,796.916 Q916.5906,796.541 916.8563,796.3066 Q917.1219,796.0723 917.7313,796.0723 L922.8719,796.0723 Q923.4813,796.0723 923.7469,796.3066 Q924.0125,796.541 924.0125,796.916 Q924.0125,797.3066 923.7469,797.541 Q923.4813,797.7754 922.8719,797.7754 L921.1531,797.7754 Z " fill="#000000"/><text fill="#000000" font-family="sans-serif" font-size="14" font-style="italic" lengthAdjust="spacing" textLength="143" x="938.8" y="806.9316">TakenExamRepository</text><line style="stroke:#181818;stroke-width:0.5;" x1="885.5" x2="1104.5" y1="817.1348" y2="817.1348"/><line style="stroke:#181818;stroke-width:0.5;" x1="885.5" x2="1104.5" y1="825.1348" y2="825.1348"/><ellipse cx="895.5" cy="839.9453" fill="#84BE84" rx="3" ry="3" style="stroke:#038048;stroke-width:1.0;"/><text fill="#000000" font-family="sans-serif" font-size="14" lengthAdjust="spacing" textLength="195" x="904.5" y="844.2422">save(takenExam) : TakenExam</text></g><!--link TakeAutomatedExamUI to TakeAutomatedExamController--><g id="link_TakeAutomatedExamUI_TakeAutomatedExamController"><path codeLine="122" d="M200.21,818.6348 C234.59,818.6348 275.31,818.6348 315.39,818.6348 " fill="none" id="TakeAutomatedExamUI-to-TakeAutomatedExamController" style="stroke:#181818;stroke-width:1.0;"/><polygon fill="#181818" points="320.78,818.6348,311.78,814.6348,315.78,818.6348,311.78,822.6348,320.78,818.6348" style="stroke:#181818;stroke-width:1.0;"/></g><!--link TakeAutomatedExamController to ExamRepository--><g id="link_TakeAutomatedExamController_ExamRepository"><path codeLine="125" d="M662.46,907.6448 C752.73,956.6548 859.81,1014.7848 927.34,1051.4448 " fill="none" id="TakeAutomatedExamController-to-ExamRepository" style="stroke:#181818;stroke-width:1.0;"/><polygon fill="#181818" points="932.13,1054.0448,926.1248,1046.2385,927.7345,1051.6615,922.3116,1053.2713,932.13,1054.0448" style="stroke:#181818;stroke-width:1.0;"/></g><!--link TakeAutomatedExamController to TakenExamHandler--><g id="link_TakeAutomatedExamController_TakenExamHandler"><path codeLine="126" d="M497.5,729.4548 C497.5,719.4548 497.5,709.4548 497.5,699.4648 " fill="none" id="TakeAutomatedExamController-to-TakenExamHandler" style="stroke:#181818;stroke-width:1.0;"/><polygon fill="#181818" points="497.5,694.2348,493.5,703.2348,497.5,699.2348,501.5,703.2348,497.5,694.2348" style="stroke:#181818;stroke-width:1.0;"/></g><!--link TakeAutomatedExamController to ListTeacherCoursesController--><g id="link_TakeAutomatedExamController_ListTeacherCoursesController"><path codeLine="127" d="M508.99,907.9748 C533.78,1104.6448 601.83,1566.5348 706,1679.6348 C736.57,1712.8248 778.94,1734.4348 821.8,1748.5048 " fill="none" id="TakeAutomatedExamController-to-ListTeacherCoursesController" style="stroke:#181818;stroke-width:1.0;"/><polygon fill="#181818" points="826.75,1750.0948,819.4051,1743.5333,821.9897,1748.5652,816.9578,1751.1497,826.75,1750.0948" style="stroke:#181818;stroke-width:1.0;"/></g><!--link TakeAutomatedExamController to TakenExamCorrector--><g id="link_TakeAutomatedExamController_TakenExamCorrector"><path codeLine="128" d="M320.76,751.9648 C303.13,740.3948 286.72,727.0248 273,711.6348 C267.53,705.4948 268.35,702.2448 267,694.1348 C260.17,653.1448 260.17,548.1248 267,507.1348 C275.48,456.2748 329.43,438.5448 383.01,433.8148 " fill="none" id="TakeAutomatedExamController-to-TakenExamCorrector" style="stroke:#181818;stroke-width:1.0;"/><polygon fill="#181818" points="388.19,433.3948,378.8897,430.1538,383.2072,433.8088,379.5521,438.1263,388.19,433.3948" style="stroke:#181818;stroke-width:1.0;"/></g><!--link TakeAutomatedExamController to TakenExamRepository--><g id="link_TakeAutomatedExamController_TakenExamRepository"><path codeLine="129" d="M674.24,818.6348 C742.32,818.6348 818.33,818.6348 879.16,818.6348 " fill="none" id="TakeAutomatedExamController-to-TakenExamRepository" style="stroke:#181818;stroke-width:1.0;"/><polygon fill="#181818" points="884.26,818.6348,875.26,814.6348,879.26,818.6348,875.26,822.6348,884.26,818.6348" style="stroke:#181818;stroke-width:1.0;"/></g><!--link ExamRepository to Exam--><g id="link_ExamRepository_Exam"><path codeLine="131" d="M995,1121.1948 C995,1155.2748 995,1189.3548 995,1223.4348 " fill="none" id="ExamRepository-to-Exam" style="stroke:#181818;stroke-width:1.0;"/><polygon fill="#181818" points="995,1228.4648,999,1219.4648,995,1223.4648,991,1219.4648,995,1228.4648" style="stroke:#181818;stroke-width:1.0;"/></g><!--reverse link Question to BooleanQuestion--><g id="link_Question_BooleanQuestion"><path codeLine="133" d="M1674.87,234.6348 C1696.46,234.6348 1720.69,234.6348 1742.72,234.6348 " fill="none" id="Question-backto-BooleanQuestion" style="stroke:#181818;stroke-width:1.0;"/><polygon fill="none" points="1674.72,241.6348,1654.72,234.6348,1674.72,227.6348,1674.72,241.6348" style="stroke:#181818;stroke-width:1.0;"/></g><!--link MultipleChoiceQuestion to Question--><g id="link_MultipleChoiceQuestion_Question"><path codeLine="134" d="M1451.57,175.6448 C1481.4,186.8248 1516.76,200.0748 1546.41,211.1848 " fill="none" id="MultipleChoiceQuestion-to-Question" style="stroke:#181818;stroke-width:1.0;"/><polygon fill="none" points="1549.14,204.7348,1565.42,218.3048,1544.23,217.8448,1549.14,204.7348" style="stroke:#181818;stroke-width:1.0;"/></g><!--reverse link Question to MatchingQuestion--><g id="link_Question_MatchingQuestion"><path codeLine="135" d="M1610,190.1748 C1610,185.4248 1610,180.6748 1610,175.9348 " fill="none" id="Question-backto-MatchingQuestion" style="stroke:#181818;stroke-width:1.0;"/><polygon fill="none" points="1617,190.3148,1610,210.3148,1603,190.3148,1617,190.3148" style="stroke:#181818;stroke-width:1.0;"/></g><!--link NumericalQuestion to Question--><g id="link_NumericalQuestion_Question"><path codeLine="136" d="M1070.58,161.8748 C1131.28,170.2048 1219.16,182.2248 1296,192.6348 C1382.4,204.3348 1482.24,217.7048 1545.48,226.1548 " fill="none" id="NumericalQuestion-to-Question" style="stroke:#181818;stroke-width:1.0;"/><polygon fill="none" points="1546.55,219.2348,1565.45,228.8248,1544.7,233.1148,1546.55,219.2348" style="stroke:#181818;stroke-width:1.0;"/></g><!--link MissingWordQuestion to Question--><g id="link_MissingWordQuestion_Question"><path codeLine="137" d="M1080.27,234.6348 C1204.39,234.6348 1433.64,234.6348 1544.98,234.6348 " fill="none" id="MissingWordQuestion-to-Question" style="stroke:#181818;stroke-width:1.0;"/><polygon fill="none" points="1545.3,227.6348,1565.3,234.6348,1545.3,241.6348,1545.3,227.6348" style="stroke:#181818;stroke-width:1.0;"/></g><!--link CourseRepository to Course--><g id="link_CourseRepository_Course"><path codeLine="139" d="M1164.58,1629.6348 C1229.77,1629.6348 1298.96,1629.6348 1342.18,1629.6348 " fill="none" id="CourseRepository-to-Course" style="stroke:#181818;stroke-width:1.0;"/><polygon fill="#181818" points="1347.32,1629.6348,1338.32,1625.6348,1342.32,1629.6348,1338.32,1633.6348,1347.32,1629.6348" style="stroke:#181818;stroke-width:1.0;"/></g><!--link ListTeacherCoursesController to CourseRepository--><g id="link_ListTeacherCoursesController_CourseRepository"><path codeLine="140" d="M995,1740.9348 C995,1716.8548 995,1692.7648 995,1668.6848 " fill="none" id="ListTeacherCoursesController-to-CourseRepository" style="stroke:#181818;stroke-width:1.0;"/><polygon fill="#181818" points="995,1663.5448,991,1672.5448,995,1668.5448,999,1672.5448,995,1663.5448" style="stroke:#181818;stroke-width:1.0;"/></g><!--link TakenExamBuilder to TakenExam--><g id="link_TakenExamBuilder_TakenExam"><path codeLine="142" d="M995,570.2248 C995,560.4848 995,550.7348 995,540.9948 " fill="none" id="TakenExamBuilder-to-TakenExam" style="stroke:#181818;stroke-width:1.0;"/><polygon fill="#181818" points="995,535.8948,991,544.8948,995,540.8948,999,544.8948,995,535.8948" style="stroke:#181818;stroke-width:1.0;"/></g><!--link TakenExamHandler to TakenExamVisitor--><g id="link_TakenExamHandler_TakenExamVisitor"><path codeLine="143" d="M497.5,626.8148 C497.5,616.9748 497.5,607.1348 497.5,597.2948 " fill="none" id="TakenExamHandler-to-TakenExamVisitor" style="stroke:#181818;stroke-width:1.0;"/><polygon fill="#181818" points="497.5,592.1448,493.5,601.1448,497.5,597.1448,501.5,601.1448,497.5,592.1448" style="stroke:#181818;stroke-width:1.0;"/></g><!--link TakenExamVisitor to TakenExamBuilder--><g id="link_TakenExamVisitor_TakenExamBuilder"><path codeLine="144" d="M637.18,572.5848 C680.28,579.7148 728.87,587.7548 776,595.5548 " fill="none" id="TakenExamVisitor-to-TakenExamBuilder" style="stroke:#181818;stroke-width:1.0;"/><polygon fill="#181818" points="781.15,596.4148,772.9199,591.005,776.2165,595.602,771.6195,598.8986,781.15,596.4148" style="stroke:#181818;stroke-width:1.0;"/></g><!--link TakenExam to AnsweredQuestion--><g id="link_TakenExam_AnsweredQuestion"><path codeLine="146" d="M995,487.3148 C995,477.5548 995,467.7948 995,458.0348 " fill="none" id="TakenExam-to-AnsweredQuestion" style="stroke:#181818;stroke-width:1.0;"/><polygon fill="#181818" points="995,452.9348,991,461.9348,995,457.9348,999,461.9348,995,452.9348" style="stroke:#181818;stroke-width:1.0;"/></g><!--link TakenExamCorrector to Question--><g id="link_TakenExamCorrector_Question"><path codeLine="148" d="M606.69,411.1048 C638.58,403.3848 673.61,395.2948 706,388.6348 C1030.14,322.0248 1423.91,261.9548 1559.99,241.8048 " fill="none" id="TakenExamCorrector-to-Question" style="stroke:#181818;stroke-width:1.0;"/><polygon fill="#181818" points="1565.11,241.0448,1555.6229,238.3999,1560.1634,241.7739,1556.7895,246.3144,1565.11,241.0448" style="stroke:#181818;stroke-width:1.0;"/></g><!--link Exam to ExamHeader--><g id="link_Exam_ExamHeader"><path codeLine="150" d="M1028.21,1260.0748 C1093.34,1275.1248 1241.63,1309.3948 1325.25,1328.7148 " fill="none" id="Exam-to-ExamHeader" style="stroke:#181818;stroke-width:1.0;"/><polygon fill="#181818" points="1330.17,1329.8448,1322.305,1323.9167,1325.299,1328.7163,1320.4994,1331.7103,1330.17,1329.8448" style="stroke:#181818;stroke-width:1.0;"/></g><!--link AutomatedExam to Exam--><g id="link_AutomatedExam_Exam"><path codeLine="151" d="M995,1371.6148 C995,1346.8048 995,1321.9848 995,1297.1748 " fill="none" id="AutomatedExam-to-Exam" style="stroke:#181818;stroke-width:1.0;"/><polygon fill="none" points="988,1296.8048,995,1276.8048,1002,1296.8048,988,1296.8048" style="stroke:#181818;stroke-width:1.0;"/></g><!--link AutomatedExam to ExamOpenPeriod--><g id="link_AutomatedExam_ExamOpenPeriod"><path codeLine="152" d="M1062.07,1400.7248 C1130.85,1406.0248 1238.39,1414.3048 1310.36,1419.8448 " fill="none" id="AutomatedExam-to-ExamOpenPeriod" style="stroke:#181818;stroke-width:1.0;"/><polygon fill="#181818" points="1315.48,1420.2448,1306.8153,1415.5625,1310.4949,1419.8591,1306.1983,1423.5386,1315.48,1420.2448" style="stroke:#181818;stroke-width:1.0;"/></g><!--link Exam to ExamSection--><g id="link_Exam_ExamSection"><path codeLine="153" d="M1028.3,1247.6148 C1083.16,1239.3748 1198.11,1223.3248 1296,1217.6348 C1376.31,1212.9648 1396.57,1216.1148 1477,1217.6348 C1500.34,1218.0748 1525.99,1218.9548 1548.43,1219.8548 " fill="none" id="Exam-to-ExamSection" style="stroke:#181818;stroke-width:1.0;"/><polygon fill="#181818" points="1553.46,1220.0648,1544.6276,1215.7072,1548.464,1219.8644,1544.3069,1223.7008,1553.46,1220.0648" style="stroke:#181818;stroke-width:1.0;"/></g><!--link ExamHeader to FeedbackType--><g id="link_ExamHeader_FeedbackType"><path codeLine="154" d="M1442.54,1342.6348 C1472.46,1342.6348 1509.71,1342.6348 1541.38,1342.6348 " fill="none" id="ExamHeader-to-FeedbackType" style="stroke:#181818;stroke-width:1.0;"/><polygon fill="#181818" points="1546.42,1342.6348,1537.42,1338.6348,1541.42,1342.6348,1537.42,1346.6348,1546.42,1342.6348" style="stroke:#181818;stroke-width:1.0;"/></g><!--link ExamHeader to GradingType--><g id="link_ExamHeader_GradingType"><path codeLine="155" d="M1386.5,1318.3148 C1386.5,1308.5548 1386.5,1298.7948 1386.5,1289.0348 " fill="none" id="ExamHeader-to-GradingType" style="stroke:#181818;stroke-width:1.0;"/><polygon fill="#181818" points="1386.5,1283.9348,1382.5,1292.9348,1386.5,1288.9348,1390.5,1292.9348,1386.5,1283.9348" style="stroke:#181818;stroke-width:1.0;"/></g><!--link ExamSection to Question--><g id="link_ExamSection_Question"><path codeLine="156" d="M1614.04,1198.5148 C1664.89,886.9048 1665.15,575.2948 1614.84,263.6848 " fill="none" id="ExamSection-to-Question" style="stroke:#181818;stroke-width:1.0;"/><polygon fill="#181818" points="1614.02,258.6348,1611.5093,268.1582,1614.8189,263.5705,1619.4066,266.8801,1614.02,258.6348" style="stroke:#181818;stroke-width:1.0;"/></g><!--SRC=[fLR9Rjim4BtpAtXKa0e8Yfw2m41YD4s0Bccpz4nBOvi8JReavTHm_UybjPcRhAJbmJ8uysQVuJ2OQwm5bdInrBYa4WfD1KUQQWRuyVxzsTa7dEC7yWoOS7nPQR4Y6igFlyaA8RGcnJDP0AuetY7Sde8HfMg8n_vuw_3iKVFRIm33iIBS_5q1ruQpPkYe4jP2KItarf51kGOv9mLWA_v7YiMUqpdbvUM6K4Pcp3T9NMsdef8AigB-dE1p_9agVU5nJMAhNTjAmqbvPx4zPAQq98MkxSAxFGf2uqbFqEtrVPE80UgtDV0xa5IKQVeDa1Ba6DOJ3hnQuMk0ScRyUjYk8I9-agIaVE7IziX9uQyAbBNvaCPT8b2xE4pVM-1k7vXx9GG3mZjwGFrICKtN3APBGGiOOYAwM1gh1yXVgvK9HK7O49mgPT0_XImz3i_nfdZ-kNgR4dnb_Ju0APOW6upAJixnhP5ZAHVDtPkhjN6q0NiTceAJzPgPS3Mb6OYmdUERDnLSIy4OoD2d1UZ_Sic9lZQ3XaVZ8-bpFA6uxOX4XtBr0XBwd2VQi4TVLPILiOSlL2yjEREcsS4I0cBsUrsLnlfCDT_NWK9JCn9SZ8kPsSlCupjUH7uLZ0t-mIgmkabwC6TZexWz-SQqxtpxg41c9n6HAWkwPDACmstjMost7IkHBMtSR_cT50i9IlKbsHaJrcE7B8m63NtqufmF82pfcZAe0UzCVFNImknLZ13IliuZyeVhz8RmCj69eUbpe_kjefzeFRb2qHjxdMa9uAVcL0Vbc1sjqM6zqoOaaMOtLBqkgsDXdZ0O6N4ZqxfNFZom5Tc0htUuhuporAQKv_daM2UX1CpfCulsRJpEFedAP5JyiMd_QcLz0aVL9SAEK926rcc4Wht12AZ-JFer0wKN1voNkSSLR0uuPouvsXnipZnyl3g4B2Xw-gshpIKw-fpsR6uueYV9ZHkA1e5BRJiOHItjnRxhp0ER5HA-G0xvqA1Mpe6XWRRvQfPLv6_5DawrsS5rYpaiiPsibj3kpUWWkCQuYwr7cxXhBN8tRzVWlm00]--></g></svg>