<?xml version="1.0" encoding="us-ascii" standalone="no"?><svg xmlns="http://www.w3.org/2000/svg" xmlns:xlink="http://www.w3.org/1999/xlink" contentStyleType="text/css" height="1001px" preserveAspectRatio="none" style="width:1530px;height:1001px;background:#FFFFFF;" version="1.1" viewBox="0 0 1530 1001" width="1530px" zoomAndPan="magnify"><defs/><g><text fill="#000000" font-family="sans-serif" font-size="14" font-weight="bold" lengthAdjust="spacing" textLength="255" x="639" y="30.1074">Register Student Sequence Diagram</text><rect fill="#FFFFFF" height="731.9844" style="stroke:#181818;stroke-width:1.0;" width="10" x="195" y="161.1543"/><rect fill="#FFFFFF" height="531.9473" style="stroke:#181818;stroke-width:1.0;" width="10" x="482" y="320.9004"/><rect fill="#FFFFFF" height="62.582" style="stroke:#181818;stroke-width:1.0;" width="10" x="704" y="352.1914"/><rect fill="#FFFFFF" height="219.0371" style="stroke:#181818;stroke-width:1.0;" width="10" x="862.5" y="571.2285"/><rect fill="#FFFFFF" height="93.873" style="stroke:#181818;stroke-width:1.0;" width="10" x="1136.5" y="633.8105"/><rect fill="#FFFFFF" height="31.291" style="stroke:#181818;stroke-width:1.0;" width="10" x="1445" y="665.1016"/><line style="stroke:#181818;stroke-width:0.5;stroke-dasharray:5.0,5.0;" x1="36" x2="36" y1="127.8633" y2="902.1387"/><line style="stroke:#181818;stroke-width:0.5;stroke-dasharray:5.0,5.0;" x1="200" x2="200" y1="127.8633" y2="902.1387"/><line style="stroke:#181818;stroke-width:0.5;stroke-dasharray:5.0,5.0;" x1="487" x2="487" y1="127.8633" y2="902.1387"/><line style="stroke:#181818;stroke-width:0.5;stroke-dasharray:5.0,5.0;" x1="709" x2="709" y1="127.8633" y2="902.1387"/><line style="stroke:#181818;stroke-width:0.5;stroke-dasharray:5.0,5.0;" x1="867" x2="867" y1="127.8633" y2="902.1387"/><line style="stroke:#181818;stroke-width:0.5;stroke-dasharray:5.0,5.0;" x1="975" x2="975" y1="127.8633" y2="902.1387"/><line style="stroke:#181818;stroke-width:0.5;stroke-dasharray:5.0,5.0;" x1="1141" x2="1141" y1="127.8633" y2="902.1387"/><line style="stroke:#181818;stroke-width:0.5;stroke-dasharray:5.0,5.0;" x1="1312" x2="1312" y1="127.8633" y2="902.1387"/><line style="stroke:#181818;stroke-width:0.5;stroke-dasharray:5.0,5.0;" x1="1450" x2="1450" y1="127.8633" y2="902.1387"/><text fill="#000000" font-family="sans-serif" font-size="14" lengthAdjust="spacing" textLength="56" x="5" y="124.3496">Manager</text><ellipse cx="36" cy="57.7422" fill="#E2E2F0" rx="8" ry="8" style="stroke:#181818;stroke-width:0.5;"/><path d="M36,65.7422 L36,92.7422 M23,73.7422 L49,73.7422 M36,92.7422 L23,107.7422 M36,92.7422 L49,107.7422 " fill="none" style="stroke:#181818;stroke-width:0.5;"/><text fill="#000000" font-family="sans-serif" font-size="14" lengthAdjust="spacing" textLength="56" x="5" y="916.2461">Manager</text><ellipse cx="36" cy="928.2598" fill="#E2E2F0" rx="8" ry="8" style="stroke:#181818;stroke-width:0.5;"/><path d="M36,936.2598 L36,963.2598 M23,944.2598 L49,944.2598 M36,963.2598 L23,978.2598 M36,963.2598 L49,978.2598 " fill="none" style="stroke:#181818;stroke-width:0.5;"/><rect fill="#E2E2F0" height="51.2422" rx="2.5" ry="2.5" style="stroke:#181818;stroke-width:0.5;" width="128" x="136" y="75.6211"/><text fill="#000000" font-family="sans-serif" font-size="14" font-style="italic" lengthAdjust="spacing" textLength="27" x="186.5" y="97.7285">&#171;ui&#187;</text><text fill="#000000" font-family="sans-serif" font-size="14" lengthAdjust="spacing" textLength="114" x="143" y="116.3496">RegisterStudentUI</text><rect fill="#E2E2F0" height="51.2422" rx="2.5" ry="2.5" style="stroke:#181818;stroke-width:0.5;" width="128" x="136" y="901.1387"/><text fill="#000000" font-family="sans-serif" font-size="14" font-style="italic" lengthAdjust="spacing" textLength="27" x="186.5" y="923.2461">&#171;ui&#187;</text><text fill="#000000" font-family="sans-serif" font-size="14" lengthAdjust="spacing" textLength="114" x="143" y="941.8672">RegisterStudentUI</text><rect fill="#E2E2F0" height="51.2422" rx="2.5" ry="2.5" style="stroke:#181818;stroke-width:0.5;" width="178" x="398" y="75.6211"/><text fill="#000000" font-family="sans-serif" font-size="14" font-style="italic" lengthAdjust="spacing" textLength="84" x="445" y="97.7285">&#171;application&#187;</text><text fill="#000000" font-family="sans-serif" font-size="14" lengthAdjust="spacing" textLength="164" x="405" y="116.3496">RegisterStudentController</text><rect fill="#E2E2F0" height="51.2422" rx="2.5" ry="2.5" style="stroke:#181818;stroke-width:0.5;" width="178" x="398" y="901.1387"/><text fill="#000000" font-family="sans-serif" font-size="14" font-style="italic" lengthAdjust="spacing" textLength="84" x="445" y="923.2461">&#171;application&#187;</text><text fill="#000000" font-family="sans-serif" font-size="14" lengthAdjust="spacing" textLength="164" x="405" y="941.8672">RegisterStudentController</text><rect fill="#E2E2F0" height="51.2422" rx="2.5" ry="2.5" style="stroke:#181818;stroke-width:0.5;" width="190" x="614" y="75.6211"/><text fill="#000000" font-family="sans-serif" font-size="14" font-style="italic" lengthAdjust="spacing" textLength="59" x="679.5" y="97.7285">&#171;factory&#187;</text><text fill="#000000" font-family="sans-serif" font-size="14" lengthAdjust="spacing" textLength="176" x="621" y="116.3496">ECourseUserBuilderFactory</text><rect fill="#E2E2F0" height="51.2422" rx="2.5" ry="2.5" style="stroke:#181818;stroke-width:0.5;" width="190" x="614" y="901.1387"/><text fill="#000000" font-family="sans-serif" font-size="14" font-style="italic" lengthAdjust="spacing" textLength="59" x="679.5" y="923.2461">&#171;factory&#187;</text><text fill="#000000" font-family="sans-serif" font-size="14" lengthAdjust="spacing" textLength="176" x="621" y="941.8672">ECourseUserBuilderFactory</text><rect fill="#E2E2F0" height="51.2422" rx="2.5" ry="2.5" style="stroke:#181818;stroke-width:0.5;" width="107" x="814" y="75.6211"/><text fill="#000000" font-family="sans-serif" font-size="14" font-style="italic" lengthAdjust="spacing" textLength="59" x="838" y="97.7285">&#171;builder&#187;</text><text fill="#000000" font-family="sans-serif" font-size="14" lengthAdjust="spacing" textLength="93" x="821" y="116.3496">StudentBuilder</text><rect fill="#E2E2F0" height="51.2422" rx="2.5" ry="2.5" style="stroke:#181818;stroke-width:0.5;" width="107" x="814" y="901.1387"/><text fill="#000000" font-family="sans-serif" font-size="14" font-style="italic" lengthAdjust="spacing" textLength="59" x="838" y="923.2461">&#171;builder&#187;</text><text fill="#000000" font-family="sans-serif" font-size="14" lengthAdjust="spacing" textLength="93" x="821" y="941.8672">StudentBuilder</text><rect fill="#E2E2F0" height="51.2422" rx="2.5" ry="2.5" style="stroke:#181818;stroke-width:0.5;" width="89" x="931" y="75.6211"/><text fill="#000000" font-family="sans-serif" font-size="14" font-style="italic" lengthAdjust="spacing" textLength="62" x="944.5" y="97.7285">&#171;f_entity&#187;</text><text fill="#000000" font-family="sans-serif" font-size="14" lengthAdjust="spacing" textLength="75" x="938" y="116.3496">SystemUser</text><rect fill="#E2E2F0" height="51.2422" rx="2.5" ry="2.5" style="stroke:#181818;stroke-width:0.5;" width="89" x="931" y="901.1387"/><text fill="#000000" font-family="sans-serif" font-size="14" font-style="italic" lengthAdjust="spacing" textLength="62" x="944.5" y="923.2461">&#171;f_entity&#187;</text><text fill="#000000" font-family="sans-serif" font-size="14" lengthAdjust="spacing" textLength="75" x="938" y="941.8672">SystemUser</text><rect fill="#E2E2F0" height="51.2422" rx="2.5" ry="2.5" style="stroke:#181818;stroke-width:0.5;" width="223" x="1030" y="75.6211"/><text fill="#000000" font-family="sans-serif" font-size="14" font-style="italic" lengthAdjust="spacing" textLength="60" x="1111.5" y="97.7285">&#171;service&#187;</text><text fill="#000000" font-family="sans-serif" font-size="14" lengthAdjust="spacing" textLength="209" x="1037" y="116.3496">MechanographicNumberAssigner</text><rect fill="#E2E2F0" height="51.2422" rx="2.5" ry="2.5" style="stroke:#181818;stroke-width:0.5;" width="223" x="1030" y="901.1387"/><text fill="#000000" font-family="sans-serif" font-size="14" font-style="italic" lengthAdjust="spacing" textLength="60" x="1111.5" y="923.2461">&#171;service&#187;</text><text fill="#000000" font-family="sans-serif" font-size="14" lengthAdjust="spacing" textLength="209" x="1037" y="941.8672">MechanographicNumberAssigner</text><rect fill="#E2E2F0" height="51.2422" rx="2.5" ry="2.5" style="stroke:#181818;stroke-width:0.5;" width="98" x="1263" y="75.6211"/><text fill="#000000" font-family="sans-serif" font-size="14" font-style="italic" lengthAdjust="spacing" textLength="62" x="1281" y="97.7285">&#171;domain&#187;</text><text fill="#000000" font-family="sans-serif" font-size="14" lengthAdjust="spacing" textLength="84" x="1270" y="116.3496">ECourseUser</text><rect fill="#E2E2F0" height="51.2422" rx="2.5" ry="2.5" style="stroke:#181818;stroke-width:0.5;" width="98" x="1263" y="901.1387"/><text fill="#000000" font-family="sans-serif" font-size="14" font-style="italic" lengthAdjust="spacing" textLength="62" x="1281" y="923.2461">&#171;domain&#187;</text><text fill="#000000" font-family="sans-serif" font-size="14" lengthAdjust="spacing" textLength="84" x="1270" y="941.8672">ECourseUser</text><text fill="#000000" font-family="sans-serif" font-size="14" font-style="italic" lengthAdjust="spacing" textLength="79" x="1407.5" y="105.7285">&#171;repository&#187;</text><text fill="#000000" font-family="sans-serif" font-size="14" lengthAdjust="spacing" textLength="152" x="1371" y="124.3496">ECourseUserRepository</text><path d="M1432,54.6211 C1432,44.6211 1450,44.6211 1450,44.6211 C1450,44.6211 1468,44.6211 1468,54.6211 L1468,80.6211 C1468,90.6211 1450,90.6211 1450,90.6211 C1450,90.6211 1432,90.6211 1432,80.6211 L1432,54.6211 " fill="#E2E2F0" style="stroke:#181818;stroke-width:1.5;"/><path d="M1432,54.6211 C1432,64.6211 1450,64.6211 1450,64.6211 C1450,64.6211 1468,64.6211 1468,54.6211 " fill="none" style="stroke:#181818;stroke-width:1.5;"/><text fill="#000000" font-family="sans-serif" font-size="14" font-style="italic" lengthAdjust="spacing" textLength="79" x="1407.5" y="916.2461">&#171;repository&#187;</text><text fill="#000000" font-family="sans-serif" font-size="14" lengthAdjust="spacing" textLength="152" x="1371" y="934.8672">ECourseUserRepository</text><path d="M1432,948.3809 C1432,938.3809 1450,938.3809 1450,938.3809 C1450,938.3809 1468,938.3809 1468,948.3809 L1468,974.3809 C1468,984.3809 1450,984.3809 1450,984.3809 C1450,984.3809 1432,984.3809 1432,974.3809 L1432,948.3809 " fill="#E2E2F0" style="stroke:#181818;stroke-width:1.5;"/><path d="M1432,948.3809 C1432,958.3809 1450,958.3809 1450,958.3809 C1450,958.3809 1468,958.3809 1468,948.3809 " fill="none" style="stroke:#181818;stroke-width:1.5;"/><rect fill="#FFFFFF" height="731.9844" style="stroke:#181818;stroke-width:1.0;" width="10" x="195" y="161.1543"/><rect fill="#FFFFFF" height="531.9473" style="stroke:#181818;stroke-width:1.0;" width="10" x="482" y="320.9004"/><rect fill="#FFFFFF" height="62.582" style="stroke:#181818;stroke-width:1.0;" width="10" x="704" y="352.1914"/><rect fill="#FFFFFF" height="219.0371" style="stroke:#181818;stroke-width:1.0;" width="10" x="862.5" y="571.2285"/><rect fill="#FFFFFF" height="93.873" style="stroke:#181818;stroke-width:1.0;" width="10" x="1136.5" y="633.8105"/><rect fill="#FFFFFF" height="31.291" style="stroke:#181818;stroke-width:1.0;" width="10" x="1445" y="665.1016"/><polygon fill="#181818" points="183,157.1543,193,161.1543,183,165.1543,187,161.1543" style="stroke:#181818;stroke-width:1.0;"/><line style="stroke:#181818;stroke-width:1.0;" x1="0" x2="189" y1="161.1543" y2="161.1543"/><text fill="#000000" font-family="sans-serif" font-size="13" font-weight="bold" lengthAdjust="spacing" textLength="7" x="7" y="155.8916">1</text><text fill="#000000" font-family="sans-serif" font-size="13" lengthAdjust="spacing" textLength="42" x="18" y="155.8916">onLoad</text><polygon fill="#181818" points="475,188.4453,485,192.4453,475,196.4453,479,192.4453" style="stroke:#181818;stroke-width:1.0;"/><line style="stroke:#181818;stroke-width:1.0;" x1="205" x2="481" y1="192.4453" y2="192.4453"/><text fill="#000000" font-family="sans-serif" font-size="13" font-weight="bold" lengthAdjust="spacing" textLength="7" x="212" y="187.1826">2</text><text fill="#000000" font-family="sans-serif" font-size="13" lengthAdjust="spacing" textLength="216" x="223" y="187.1826">create(userRepo, userBuilderFactory)</text><polygon fill="#181818" points="47,237.0273,37,241.0273,47,245.0273,43,241.0273" style="stroke:#181818;stroke-width:1.0;"/><line style="stroke:#181818;stroke-width:1.0;stroke-dasharray:2.0,2.0;" x1="41" x2="194" y1="241.0273" y2="241.0273"/><text fill="#000000" font-family="sans-serif" font-size="13" font-weight="bold" lengthAdjust="spacing" textLength="7" x="53" y="227.1191">3</text><text fill="#000000" font-family="sans-serif" font-size="13" lengthAdjust="spacing" textLength="74" x="64" y="218.4736">asks input of</text><text fill="#000000" font-family="sans-serif" font-size="13" lengthAdjust="spacing" textLength="85" x="68" y="235.7646">student details</text><polygon fill="#181818" points="183,268.3184,193,272.3184,183,276.3184,187,272.3184" style="stroke:#181818;stroke-width:1.0;"/><line style="stroke:#181818;stroke-width:1.0;" x1="36" x2="189" y1="272.3184" y2="272.3184"/><text fill="#000000" font-family="sans-serif" font-size="13" font-weight="bold" lengthAdjust="spacing" textLength="7" x="43" y="267.0557">4</text><text fill="#000000" font-family="sans-serif" font-size="13" lengthAdjust="spacing" textLength="124" x="54" y="267.0557">inputs student details</text><polygon fill="#181818" points="470,316.9004,480,320.9004,470,324.9004,474,320.9004" style="stroke:#181818;stroke-width:1.0;"/><line style="stroke:#181818;stroke-width:1.0;" x1="205" x2="476" y1="320.9004" y2="320.9004"/><text fill="#000000" font-family="sans-serif" font-size="13" font-weight="bold" lengthAdjust="spacing" textLength="7" x="212" y="306.9922">5</text><text fill="#000000" font-family="sans-serif" font-size="13" lengthAdjust="spacing" textLength="247" x="223" y="298.3467">registerStudent(username, pwd, firstName,</text><text fill="#000000" font-family="sans-serif" font-size="13" lengthAdjust="spacing" textLength="227" x="227" y="315.6377">lastName, email, birthdate, taxNumber)</text><polygon fill="#181818" points="692,348.1914,702,352.1914,692,356.1914,696,352.1914" style="stroke:#181818;stroke-width:1.0;"/><line style="stroke:#181818;stroke-width:1.0;" x1="492" x2="698" y1="352.1914" y2="352.1914"/><text fill="#000000" font-family="sans-serif" font-size="13" font-weight="bold" lengthAdjust="spacing" textLength="7" x="499" y="346.9287">6</text><text fill="#000000" font-family="sans-serif" font-size="13" lengthAdjust="spacing" textLength="182" x="510" y="346.9287">createECourseUserBuilder(role)</text><polygon fill="#181818" points="855.5,379.4824,865.5,383.4824,855.5,387.4824,859.5,383.4824" style="stroke:#181818;stroke-width:1.0;"/><line style="stroke:#181818;stroke-width:1.0;" x1="714" x2="861.5" y1="383.4824" y2="383.4824"/><text fill="#000000" font-family="sans-serif" font-size="13" font-weight="bold" lengthAdjust="spacing" textLength="7" x="721" y="378.2197">7</text><text fill="#000000" font-family="sans-serif" font-size="13" lengthAdjust="spacing" textLength="36" x="732" y="378.2197">create</text><polygon fill="#181818" points="503,410.7734,493,414.7734,503,418.7734,499,414.7734" style="stroke:#181818;stroke-width:1.0;"/><line style="stroke:#181818;stroke-width:1.0;stroke-dasharray:2.0,2.0;" x1="497" x2="708" y1="414.7734" y2="414.7734"/><text fill="#000000" font-family="sans-serif" font-size="13" font-weight="bold" lengthAdjust="spacing" textLength="7" x="509" y="409.5107">8</text><text fill="#000000" font-family="sans-serif" font-size="13" lengthAdjust="spacing" textLength="38" x="520" y="409.5107">builder</text><polygon fill="#181818" points="963.5,442.0645,973.5,446.0645,963.5,450.0645,967.5,446.0645" style="stroke:#181818;stroke-width:1.0;"/><line style="stroke:#181818;stroke-width:1.0;" x1="492" x2="969.5" y1="446.0645" y2="446.0645"/><text fill="#000000" font-family="sans-serif" font-size="13" font-weight="bold" lengthAdjust="spacing" textLength="7" x="499" y="440.8018">9</text><text fill="#000000" font-family="sans-serif" font-size="13" lengthAdjust="spacing" textLength="36" x="510" y="440.8018">create</text><polygon fill="#181818" points="855.5,473.3555,865.5,477.3555,855.5,481.3555,859.5,477.3555" style="stroke:#181818;stroke-width:1.0;"/><line style="stroke:#181818;stroke-width:1.0;" x1="492" x2="861.5" y1="477.3555" y2="477.3555"/><text fill="#000000" font-family="sans-serif" font-size="13" font-weight="bold" lengthAdjust="spacing" textLength="14" x="499" y="472.0928">10</text><text fill="#000000" font-family="sans-serif" font-size="13" lengthAdjust="spacing" textLength="151" x="517" y="472.0928">withSystemUser(sysUser)</text><polygon fill="#181818" points="855.5,504.6465,865.5,508.6465,855.5,512.6465,859.5,508.6465" style="stroke:#181818;stroke-width:1.0;"/><line style="stroke:#181818;stroke-width:1.0;" x1="492" x2="861.5" y1="508.6465" y2="508.6465"/><text fill="#000000" font-family="sans-serif" font-size="13" font-weight="bold" lengthAdjust="spacing" textLength="14" x="499" y="503.3838">11</text><text fill="#000000" font-family="sans-serif" font-size="13" lengthAdjust="spacing" textLength="139" x="517" y="503.3838">withBirthDate(birthdate).</text><polygon fill="#181818" points="855.5,535.9375,865.5,539.9375,855.5,543.9375,859.5,539.9375" style="stroke:#181818;stroke-width:1.0;"/><line style="stroke:#181818;stroke-width:1.0;" x1="492" x2="861.5" y1="539.9375" y2="539.9375"/><text fill="#000000" font-family="sans-serif" font-size="13" font-weight="bold" lengthAdjust="spacing" textLength="14" x="499" y="534.6748">12</text><text fill="#000000" font-family="sans-serif" font-size="13" lengthAdjust="spacing" textLength="194" x="517" y="534.6748">withTaxPayerNumber(taxNumber)</text><polygon fill="#181818" points="850.5,567.2285,860.5,571.2285,850.5,575.2285,854.5,571.2285" style="stroke:#181818;stroke-width:1.0;"/><line style="stroke:#181818;stroke-width:1.0;" x1="492" x2="856.5" y1="571.2285" y2="571.2285"/><text fill="#000000" font-family="sans-serif" font-size="13" font-weight="bold" lengthAdjust="spacing" textLength="14" x="499" y="565.9658">13</text><text fill="#000000" font-family="sans-serif" font-size="13" lengthAdjust="spacing" textLength="35" x="517" y="565.9658">build()</text><polygon fill="#181818" points="1129.5,598.5195,1139.5,602.5195,1129.5,606.5195,1133.5,602.5195" style="stroke:#181818;stroke-width:1.0;"/><line style="stroke:#181818;stroke-width:1.0;" x1="872.5" x2="1135.5" y1="602.5195" y2="602.5195"/><text fill="#000000" font-family="sans-serif" font-size="13" font-weight="bold" lengthAdjust="spacing" textLength="14" x="879.5" y="597.2568">14</text><text fill="#000000" font-family="sans-serif" font-size="13" lengthAdjust="spacing" textLength="99" x="897.5" y="597.2568">create(userRepo)</text><polygon fill="#181818" points="1124.5,629.8105,1134.5,633.8105,1124.5,637.8105,1128.5,633.8105" style="stroke:#181818;stroke-width:1.0;"/><line style="stroke:#181818;stroke-width:1.0;" x1="872.5" x2="1130.5" y1="633.8105" y2="633.8105"/><text fill="#000000" font-family="sans-serif" font-size="13" font-weight="bold" lengthAdjust="spacing" textLength="14" x="879.5" y="628.5479">15</text><text fill="#000000" font-family="sans-serif" font-size="13" lengthAdjust="spacing" textLength="171" x="897.5" y="628.5479">newMechanographicNumber()</text><polygon fill="#181818" points="1433,661.1016,1443,665.1016,1433,669.1016,1437,665.1016" style="stroke:#181818;stroke-width:1.0;"/><line style="stroke:#181818;stroke-width:1.0;" x1="1146.5" x2="1439" y1="665.1016" y2="665.1016"/><text fill="#000000" font-family="sans-serif" font-size="13" font-weight="bold" lengthAdjust="spacing" textLength="14" x="1153.5" y="659.8389">16</text><text fill="#000000" font-family="sans-serif" font-size="13" lengthAdjust="spacing" textLength="255" x="1171.5" y="659.8389">findLastMechanographicNumberInYear(year)</text><polygon fill="#181818" points="1157.5,692.3926,1147.5,696.3926,1157.5,700.3926,1153.5,696.3926" style="stroke:#181818;stroke-width:1.0;"/><line style="stroke:#181818;stroke-width:1.0;stroke-dasharray:2.0,2.0;" x1="1151.5" x2="1449" y1="696.3926" y2="696.3926"/><text fill="#000000" font-family="sans-serif" font-size="13" font-weight="bold" lengthAdjust="spacing" textLength="14" x="1163.5" y="691.1299">17</text><text fill="#000000" font-family="sans-serif" font-size="13" lengthAdjust="spacing" textLength="161" x="1181.5" y="691.1299">lastMechanographicNumber</text><polygon fill="#181818" points="883.5,723.6836,873.5,727.6836,883.5,731.6836,879.5,727.6836" style="stroke:#181818;stroke-width:1.0;"/><line style="stroke:#181818;stroke-width:1.0;stroke-dasharray:2.0,2.0;" x1="877.5" x2="1140.5" y1="727.6836" y2="727.6836"/><text fill="#000000" font-family="sans-serif" font-size="13" font-weight="bold" lengthAdjust="spacing" textLength="14" x="889.5" y="722.4209">18</text><text fill="#000000" font-family="sans-serif" font-size="13" lengthAdjust="spacing" textLength="68" x="907.5" y="722.4209">newNumber</text><polygon fill="#181818" points="1300,754.9746,1310,758.9746,1300,762.9746,1304,758.9746" style="stroke:#181818;stroke-width:1.0;"/><line style="stroke:#181818;stroke-width:1.0;" x1="872.5" x2="1306" y1="758.9746" y2="758.9746"/><text fill="#000000" font-family="sans-serif" font-size="13" font-weight="bold" lengthAdjust="spacing" textLength="14" x="879.5" y="753.7119">19</text><text fill="#000000" font-family="sans-serif" font-size="13" lengthAdjust="spacing" textLength="334" x="897.5" y="753.7119">create(sysUser, birthdate, taxNumber, newNumber, state)</text><polygon fill="#181818" points="503,786.2656,493,790.2656,503,794.2656,499,790.2656" style="stroke:#181818;stroke-width:1.0;"/><line style="stroke:#181818;stroke-width:1.0;stroke-dasharray:2.0,2.0;" x1="497" x2="866.5" y1="790.2656" y2="790.2656"/><text fill="#000000" font-family="sans-serif" font-size="13" font-weight="bold" lengthAdjust="spacing" textLength="14" x="509" y="785.0029">20</text><text fill="#000000" font-family="sans-serif" font-size="13" lengthAdjust="spacing" textLength="25" x="527" y="785.0029">user</text><polygon fill="#181818" points="1438,817.5566,1448,821.5566,1438,825.5566,1442,821.5566" style="stroke:#181818;stroke-width:1.0;"/><line style="stroke:#181818;stroke-width:1.0;" x1="492" x2="1444" y1="821.5566" y2="821.5566"/><text fill="#000000" font-family="sans-serif" font-size="13" font-weight="bold" lengthAdjust="spacing" textLength="14" x="499" y="816.2939">21</text><text fill="#000000" font-family="sans-serif" font-size="13" lengthAdjust="spacing" textLength="59" x="517" y="816.2939">save(user)</text><polygon fill="#181818" points="216,848.8477,206,852.8477,216,856.8477,212,852.8477" style="stroke:#181818;stroke-width:1.0;"/><line style="stroke:#181818;stroke-width:1.0;stroke-dasharray:2.0,2.0;" x1="210" x2="486" y1="852.8477" y2="852.8477"/><text fill="#000000" font-family="sans-serif" font-size="13" font-weight="bold" lengthAdjust="spacing" textLength="14" x="222" y="847.585">22</text><text fill="#000000" font-family="sans-serif" font-size="13" lengthAdjust="spacing" textLength="93" x="240" y="847.585">returns success</text><polygon fill="#181818" points="47,880.1387,37,884.1387,47,888.1387,43,884.1387" style="stroke:#181818;stroke-width:1.0;"/><line style="stroke:#181818;stroke-width:1.0;stroke-dasharray:2.0,2.0;" x1="41" x2="194" y1="884.1387" y2="884.1387"/><text fill="#000000" font-family="sans-serif" font-size="13" font-weight="bold" lengthAdjust="spacing" textLength="14" x="53" y="878.876">23</text><text fill="#000000" font-family="sans-serif" font-size="13" lengthAdjust="spacing" textLength="101" x="71" y="878.876">displays success</text><!--SRC=[VLFRRk8m47ttLrXz2bAw7u0gf49R2Gcw5PTAAwsq6f81h0rsrXTe_dx7JaoIXfQ7GYVdd9avSsA5BP2ly22CHStNrkKeBL_ZFuSoG_uauA3Xn1WugwGxxL0poApIV0aI3aG1mvUi16r59aeWxbrKQyIsypiFsixvmuCJayctu9cILgkYG1r8iyrgGJGeoq9aO8MId_dFC-MqmQr1FNMYo56_XFcgm7zvd15zNrS-KvkM3ItWfuidmk_goW1VqQ0dtobWrril_OSKX1reBp4xWbJaNNaKsMimxj4OSP2H_Uud8wspoF2RfMhmnlVArGc4Do072pims0Eki5H6N3TVFR_z98w-Led7sFt4ts7CbLmeoFqbnHaiKf5HdPu6mySyqqZbn3MwANS3VqU1GPGbuS7yDLp8qbckzhybDqsEShGW2iEMF7OE83C0zBhhVYR2619EcFBoagTyBxInh_v_wbH0yviZkLEaV2UqFP93LB7mKJi_QZVrBLZeG_ryFEAomo0b54JiK0dDF8E8FYUHMDVQwPlqi1nxpDYJOdDbnbejTn7ss6OiCPNntwCRgAdVySbVwBhjwCSDt0O-tg12NRkGTFpeOyF8IMTLAZF_oC_xFXi6OjH_Al5oA_1THG8o3oPEYEQOpYZp1Ltl5dCkVo7efA8_7GrFP85zVsrTVA7GjJ_mGlFhnZJn4ETdZ7jjsZF5IzpELjfgfHHhVufQf4s4TwtRnxiR3z2OOU1SknjF4zyNZTPfII-Cop8qfYiJejnv2NDXoWAg5akV_m00]--></g></svg>