<?xml version="1.0" encoding="us-ascii" standalone="no"?><svg xmlns="http://www.w3.org/2000/svg" xmlns:xlink="http://www.w3.org/1999/xlink" contentStyleType="text/css" height="181px" preserveAspectRatio="none" style="width:871px;height:181px;background:#FFFFFF;" version="1.1" viewBox="0 0 871 181" width="871px" zoomAndPan="magnify"><defs/><g><!--cluster handler--><g id="cluster_handler"><path d="M245.5,6.0137 L300.5,6.0137 A3.75,3.75 0 0 1 303,8.5137 L310,30.6348 L476.5,30.6348 A2.5,2.5 0 0 1 479,33.1348 L479,104.5137 A2.5,2.5 0 0 1 476.5,107.0137 L245.5,107.0137 A2.5,2.5 0 0 1 243,104.5137 L243,8.5137 A2.5,2.5 0 0 1 245.5,6.0137 " fill="none" style="stroke:#000000;stroke-width:1.5;"/><line style="stroke:#000000;stroke-width:1.5;" x1="243" x2="310" y1="30.6348" y2="30.6348"/><text fill="#000000" font-family="sans-serif" font-size="14" font-weight="bold" lengthAdjust="spacing" textLength="54" x="247" y="23.1211">handler</text></g><!--cluster boardcommunication--><g id="cluster_boardcommunication"><path d="M509.5,47.0137 L657.5,47.0137 A3.75,3.75 0 0 1 660,49.5137 L667,71.6348 L861.5,71.6348 A2.5,2.5 0 0 1 864,74.1348 L864,145.5137 A2.5,2.5 0 0 1 861.5,148.0137 L509.5,148.0137 A2.5,2.5 0 0 1 507,145.5137 L507,49.5137 A2.5,2.5 0 0 1 509.5,47.0137 " fill="none" style="stroke:#000000;stroke-width:1.5;"/><line style="stroke:#000000;stroke-width:1.5;" x1="507" x2="667" y1="71.6348" y2="71.6348"/><text fill="#000000" font-family="sans-serif" font-size="14" font-weight="bold" lengthAdjust="spacing" textLength="147" x="511" y="64.1211">boardcommunication</text></g><!--class TcpServerMessageHandler--><g id="elem_TcpServerMessageHandler"><rect codeLine="9" fill="#F1F1F1" height="48" id="TcpServerMessageHandler" rx="2.5" ry="2.5" style="stroke:#181818;stroke-width:0.5;" width="204" x="259" y="43.0137"/><ellipse cx="274" cy="59.0137" fill="#ADD1B2" rx="11" ry="11" style="stroke:#181818;stroke-width:1.0;"/><path d="M276.7656,54.8887 Q276.9219,54.6699 277.1094,54.5605 Q277.2969,54.4512 277.5156,54.4512 Q277.8906,54.4512 278.125,54.7168 Q278.3594,54.9668 278.3594,55.5762 L278.3594,57.0293 Q278.3594,57.6387 278.125,57.9043 Q277.8906,58.1699 277.5156,58.1699 Q277.1719,58.1699 276.9688,57.9668 Q276.7656,57.7793 276.6563,57.2637 Q276.6094,56.9043 276.4219,56.7168 Q276.0938,56.3418 275.4844,56.123 Q274.875,55.9043 274.25,55.9043 Q273.4844,55.9043 272.8438,56.2324 Q272.2188,56.5605 271.7188,57.3105 Q271.2344,58.0605 271.2344,59.0918 L271.2344,60.1855 Q271.2344,61.4199 272.125,62.248 Q273.0156,63.0605 274.6094,63.0605 Q275.5469,63.0605 276.2031,62.8105 Q276.5938,62.6543 277.0156,62.2168 Q277.2813,61.9512 277.4219,61.873 Q277.5781,61.7949 277.7813,61.7949 Q278.1094,61.7949 278.3594,62.0605 Q278.625,62.3105 278.625,62.6543 Q278.625,62.998 278.2813,63.4043 Q277.7813,63.9824 276.9844,64.3105 Q275.9063,64.7637 274.6094,64.7637 Q273.0938,64.7637 271.8906,64.1387 Q270.9063,63.6387 270.2188,62.5762 Q269.5313,61.498 269.5313,60.2168 L269.5313,59.0605 Q269.5313,57.7324 270.1406,56.5918 Q270.7656,55.4355 271.8594,54.8262 Q272.9531,54.2012 274.1875,54.2012 Q274.9219,54.2012 275.5625,54.373 Q276.2188,54.5293 276.7656,54.8887 Z " fill="#000000"/><text fill="#000000" font-family="sans-serif" font-size="14" lengthAdjust="spacing" textLength="172" x="288" y="64.8105">TcpServerMessageHandler</text><line style="stroke:#181818;stroke-width:0.5;" x1="260" x2="462" y1="75.0137" y2="75.0137"/><line style="stroke:#181818;stroke-width:0.5;" x1="260" x2="462" y1="83.0137" y2="83.0137"/></g><!--class RequestMessage--><g id="elem_RequestMessage"><rect codeLine="18" fill="#F1F1F1" height="48" id="RequestMessage" rx="2.5" ry="2.5" style="stroke:#181818;stroke-width:0.5;" width="142" x="523" y="84.0137"/><ellipse cx="538" cy="100.0137" fill="#ADD1B2" rx="11" ry="11" style="stroke:#181818;stroke-width:1.0;"/><path d="M540.7656,95.8887 Q540.9219,95.6699 541.1094,95.5605 Q541.2969,95.4512 541.5156,95.4512 Q541.8906,95.4512 542.125,95.7168 Q542.3594,95.9668 542.3594,96.5762 L542.3594,98.0293 Q542.3594,98.6387 542.125,98.9043 Q541.8906,99.1699 541.5156,99.1699 Q541.1719,99.1699 540.9688,98.9668 Q540.7656,98.7793 540.6563,98.2637 Q540.6094,97.9043 540.4219,97.7168 Q540.0938,97.3418 539.4844,97.123 Q538.875,96.9043 538.25,96.9043 Q537.4844,96.9043 536.8438,97.2324 Q536.2188,97.5605 535.7188,98.3105 Q535.2344,99.0605 535.2344,100.0918 L535.2344,101.1855 Q535.2344,102.4199 536.125,103.248 Q537.0156,104.0605 538.6094,104.0605 Q539.5469,104.0605 540.2031,103.8105 Q540.5938,103.6543 541.0156,103.2168 Q541.2813,102.9512 541.4219,102.873 Q541.5781,102.7949 541.7813,102.7949 Q542.1094,102.7949 542.3594,103.0605 Q542.625,103.3105 542.625,103.6543 Q542.625,103.998 542.2813,104.4043 Q541.7813,104.9824 540.9844,105.3105 Q539.9063,105.7637 538.6094,105.7637 Q537.0938,105.7637 535.8906,105.1387 Q534.9063,104.6387 534.2188,103.5762 Q533.5313,102.498 533.5313,101.2168 L533.5313,100.0605 Q533.5313,98.7324 534.1406,97.5918 Q534.7656,96.4355 535.8594,95.8262 Q536.9531,95.2012 538.1875,95.2012 Q538.9219,95.2012 539.5625,95.373 Q540.2188,95.5293 540.7656,95.8887 Z " fill="#000000"/><text fill="#000000" font-family="sans-serif" font-size="14" lengthAdjust="spacing" textLength="110" x="552" y="105.8105">RequestMessage</text><line style="stroke:#181818;stroke-width:0.5;" x1="524" x2="664" y1="116.0137" y2="116.0137"/><line style="stroke:#181818;stroke-width:0.5;" x1="524" x2="664" y1="124.0137" y2="124.0137"/></g><!--class MessageCode--><g id="elem_MessageCode"><rect codeLine="20" fill="#F1F1F1" height="48" id="MessageCode" rx="2.5" ry="2.5" style="stroke:#181818;stroke-width:0.5;" width="123" x="725" y="84.0137"/><ellipse cx="740" cy="100.0137" fill="#EB937F" rx="11" ry="11" style="stroke:#181818;stroke-width:1.0;"/><path d="M738.8594,100.8105 L738.8594,103.3105 L743.1875,103.3105 L743.1875,102.3887 Q743.1875,101.7793 743.4219,101.5137 Q743.6719,101.248 744.0469,101.248 Q744.4219,101.248 744.6563,101.5137 Q744.8906,101.7793 744.8906,102.3887 L744.8906,105.0137 L736.8906,105.0137 Q736.2656,105.0137 736,104.7793 Q735.75,104.5449 735.75,104.1543 Q735.75,103.7793 736.0156,103.5449 Q736.2813,103.3105 736.8906,103.3105 L737.1563,103.3105 L737.1563,96.6543 L736.8906,96.6543 Q736.2656,96.6543 736,96.4199 Q735.75,96.1855 735.75,95.7949 Q735.75,95.4199 736,95.1855 Q736.2656,94.9512 736.8906,94.9512 L744.5156,94.9512 L744.5156,97.5449 Q744.5156,98.1543 744.2813,98.4199 Q744.0625,98.6699 743.6719,98.6699 Q743.2969,98.6699 743.0625,98.4199 Q742.8281,98.1543 742.8281,97.5449 L742.8281,96.6543 L738.8594,96.6543 L738.8594,99.1074 L740.3438,99.1074 Q740.3438,98.4512 740.4688,98.2637 Q740.7344,97.8574 741.2031,97.8574 Q741.5781,97.8574 741.8125,98.123 Q742.0469,98.373 742.0469,98.9824 L742.0469,100.9512 Q742.0469,101.498 741.9219,101.6855 Q741.6563,102.0762 741.2031,102.0762 Q740.7344,102.0762 740.4688,101.6699 Q740.3438,101.4824 740.3438,100.8105 L738.8594,100.8105 Z " fill="#000000"/><text fill="#000000" font-family="sans-serif" font-size="14" lengthAdjust="spacing" textLength="91" x="754" y="105.8105">MessageCode</text><line style="stroke:#181818;stroke-width:0.5;" x1="726" x2="847" y1="116.0137" y2="116.0137"/><line style="stroke:#181818;stroke-width:0.5;" x1="726" x2="847" y1="124.0137" y2="124.0137"/></g><!--class ECourseBoardServerApp--><g id="elem_ECourseBoardServerApp"><rect codeLine="5" fill="#F1F1F1" height="48" id="ECourseBoardServerApp" rx="2.5" ry="2.5" style="stroke:#181818;stroke-width:0.5;" width="192" x="7" y="43.0137"/><ellipse cx="22" cy="59.0137" fill="#ADD1B2" rx="11" ry="11" style="stroke:#181818;stroke-width:1.0;"/><path d="M24.7656,54.8887 Q24.9219,54.6699 25.1094,54.5605 Q25.2969,54.4512 25.5156,54.4512 Q25.8906,54.4512 26.125,54.7168 Q26.3594,54.9668 26.3594,55.5762 L26.3594,57.0293 Q26.3594,57.6387 26.125,57.9043 Q25.8906,58.1699 25.5156,58.1699 Q25.1719,58.1699 24.9688,57.9668 Q24.7656,57.7793 24.6563,57.2637 Q24.6094,56.9043 24.4219,56.7168 Q24.0938,56.3418 23.4844,56.123 Q22.875,55.9043 22.25,55.9043 Q21.4844,55.9043 20.8438,56.2324 Q20.2188,56.5605 19.7188,57.3105 Q19.2344,58.0605 19.2344,59.0918 L19.2344,60.1855 Q19.2344,61.4199 20.125,62.248 Q21.0156,63.0605 22.6094,63.0605 Q23.5469,63.0605 24.2031,62.8105 Q24.5938,62.6543 25.0156,62.2168 Q25.2813,61.9512 25.4219,61.873 Q25.5781,61.7949 25.7813,61.7949 Q26.1094,61.7949 26.3594,62.0605 Q26.625,62.3105 26.625,62.6543 Q26.625,62.998 26.2813,63.4043 Q25.7813,63.9824 24.9844,64.3105 Q23.9063,64.7637 22.6094,64.7637 Q21.0938,64.7637 19.8906,64.1387 Q18.9063,63.6387 18.2188,62.5762 Q17.5313,61.498 17.5313,60.2168 L17.5313,59.0605 Q17.5313,57.7324 18.1406,56.5918 Q18.7656,55.4355 19.8594,54.8262 Q20.9531,54.2012 22.1875,54.2012 Q22.9219,54.2012 23.5625,54.373 Q24.2188,54.5293 24.7656,54.8887 Z " fill="#000000"/><text fill="#000000" font-family="sans-serif" font-size="14" lengthAdjust="spacing" textLength="160" x="36" y="64.8105">ECourseBoardServerApp</text><line style="stroke:#181818;stroke-width:0.5;" x1="8" x2="198" y1="75.0137" y2="75.0137"/><line style="stroke:#181818;stroke-width:0.5;" x1="8" x2="198" y1="83.0137" y2="83.0137"/></g><!--class ECourseBoardClientApp--><g id="elem_ECourseBoardClientApp"><rect codeLine="12" fill="#F1F1F1" height="48" id="ECourseBoardClientApp" rx="2.5" ry="2.5" style="stroke:#181818;stroke-width:0.5;" width="186" x="10" y="126.0137"/><ellipse cx="25" cy="142.0137" fill="#ADD1B2" rx="11" ry="11" style="stroke:#181818;stroke-width:1.0;"/><path d="M27.7656,137.8887 Q27.9219,137.6699 28.1094,137.5605 Q28.2969,137.4512 28.5156,137.4512 Q28.8906,137.4512 29.125,137.7168 Q29.3594,137.9668 29.3594,138.5762 L29.3594,140.0293 Q29.3594,140.6387 29.125,140.9043 Q28.8906,141.1699 28.5156,141.1699 Q28.1719,141.1699 27.9688,140.9668 Q27.7656,140.7793 27.6563,140.2637 Q27.6094,139.9043 27.4219,139.7168 Q27.0938,139.3418 26.4844,139.123 Q25.875,138.9043 25.25,138.9043 Q24.4844,138.9043 23.8438,139.2324 Q23.2188,139.5605 22.7188,140.3105 Q22.2344,141.0605 22.2344,142.0918 L22.2344,143.1855 Q22.2344,144.4199 23.125,145.248 Q24.0156,146.0605 25.6094,146.0605 Q26.5469,146.0605 27.2031,145.8105 Q27.5938,145.6543 28.0156,145.2168 Q28.2813,144.9512 28.4219,144.873 Q28.5781,144.7949 28.7813,144.7949 Q29.1094,144.7949 29.3594,145.0605 Q29.625,145.3105 29.625,145.6543 Q29.625,145.998 29.2813,146.4043 Q28.7813,146.9824 27.9844,147.3105 Q26.9063,147.7637 25.6094,147.7637 Q24.0938,147.7637 22.8906,147.1387 Q21.9063,146.6387 21.2188,145.5762 Q20.5313,144.498 20.5313,143.2168 L20.5313,142.0605 Q20.5313,140.7324 21.1406,139.5918 Q21.7656,138.4355 22.8594,137.8262 Q23.9531,137.2012 25.1875,137.2012 Q25.9219,137.2012 26.5625,137.373 Q27.2188,137.5293 27.7656,137.8887 Z " fill="#000000"/><text fill="#000000" font-family="sans-serif" font-size="14" lengthAdjust="spacing" textLength="154" x="39" y="147.8105">ECourseBoardClientApp</text><line style="stroke:#181818;stroke-width:0.5;" x1="11" x2="195" y1="158.0137" y2="158.0137"/><line style="stroke:#181818;stroke-width:0.5;" x1="11" x2="195" y1="166.0137" y2="166.0137"/></g><!--class BoardClient--><g id="elem_BoardClient"><rect codeLine="14" fill="#F1F1F1" height="48" id="BoardClient" rx="2.5" ry="2.5" style="stroke:#181818;stroke-width:0.5;" width="106" x="308" y="126.0137"/><ellipse cx="323" cy="142.0137" fill="#ADD1B2" rx="11" ry="11" style="stroke:#181818;stroke-width:1.0;"/><path d="M325.7656,137.8887 Q325.9219,137.6699 326.1094,137.5605 Q326.2969,137.4512 326.5156,137.4512 Q326.8906,137.4512 327.125,137.7168 Q327.3594,137.9668 327.3594,138.5762 L327.3594,140.0293 Q327.3594,140.6387 327.125,140.9043 Q326.8906,141.1699 326.5156,141.1699 Q326.1719,141.1699 325.9688,140.9668 Q325.7656,140.7793 325.6563,140.2637 Q325.6094,139.9043 325.4219,139.7168 Q325.0938,139.3418 324.4844,139.123 Q323.875,138.9043 323.25,138.9043 Q322.4844,138.9043 321.8438,139.2324 Q321.2188,139.5605 320.7188,140.3105 Q320.2344,141.0605 320.2344,142.0918 L320.2344,143.1855 Q320.2344,144.4199 321.125,145.248 Q322.0156,146.0605 323.6094,146.0605 Q324.5469,146.0605 325.2031,145.8105 Q325.5938,145.6543 326.0156,145.2168 Q326.2813,144.9512 326.4219,144.873 Q326.5781,144.7949 326.7813,144.7949 Q327.1094,144.7949 327.3594,145.0605 Q327.625,145.3105 327.625,145.6543 Q327.625,145.998 327.2813,146.4043 Q326.7813,146.9824 325.9844,147.3105 Q324.9063,147.7637 323.6094,147.7637 Q322.0938,147.7637 320.8906,147.1387 Q319.9063,146.6387 319.2188,145.5762 Q318.5313,144.498 318.5313,143.2168 L318.5313,142.0605 Q318.5313,140.7324 319.1406,139.5918 Q319.7656,138.4355 320.8594,137.8262 Q321.9531,137.2012 323.1875,137.2012 Q323.9219,137.2012 324.5625,137.373 Q325.2188,137.5293 325.7656,137.8887 Z " fill="#000000"/><text fill="#000000" font-family="sans-serif" font-size="14" lengthAdjust="spacing" textLength="74" x="337" y="147.8105">BoardClient</text><line style="stroke:#181818;stroke-width:0.5;" x1="309" x2="413" y1="158.0137" y2="158.0137"/><line style="stroke:#181818;stroke-width:0.5;" x1="309" x2="413" y1="166.0137" y2="166.0137"/></g><!--link ECourseBoardClientApp to BoardClient--><g id="link_ECourseBoardClientApp_BoardClient"><path codeLine="23" d="M196.06,150.0137 C231.56,150.0137 271.08,150.0137 302.42,150.0137 " fill="none" id="ECourseBoardClientApp-to-BoardClient" style="stroke:#181818;stroke-width:1.0;"/><polygon fill="#181818" points="307.77,150.0137,298.77,146.0137,302.77,150.0137,298.77,154.0137,307.77,150.0137" style="stroke:#181818;stroke-width:1.0;"/></g><!--link ECourseBoardServerApp to TcpServerMessageHandler--><g id="link_ECourseBoardServerApp_TcpServerMessageHandler"><path codeLine="24" d="M199.32,67.0137 C217,67.0137 235.56,67.0137 253.54,67.0137 " fill="none" id="ECourseBoardServerApp-to-TcpServerMessageHandler" style="stroke:#181818;stroke-width:1.0;"/><polygon fill="#181818" points="258.59,67.0137,249.59,63.0137,253.59,67.0137,249.59,71.0137,258.59,67.0137" style="stroke:#181818;stroke-width:1.0;"/></g><!--link TcpServerMessageHandler to RequestMessage--><g id="link_TcpServerMessageHandler_RequestMessage"><path codeLine="25" d="M463.32,84.9937 C481.56,88.2337 500.27,91.5537 517.61,94.6337 " fill="none" id="TcpServerMessageHandler-to-RequestMessage" style="stroke:#181818;stroke-width:1.0;"/><polygon fill="#181818" points="522.95,95.5837,514.7839,90.0778,518.0264,94.7131,513.391,97.9556,522.95,95.5837" style="stroke:#181818;stroke-width:1.0;"/></g><!--link BoardClient to RequestMessage--><g id="link_BoardClient_RequestMessage"><path codeLine="26" d="M414.13,140.5337 C444.7,134.9737 483.84,127.8637 517.71,121.7037 " fill="none" id="BoardClient-to-RequestMessage" style="stroke:#181818;stroke-width:1.0;"/><polygon fill="#181818" points="522.67,120.8037,513.0967,118.4904,517.7518,121.7044,514.5378,126.3595,522.67,120.8037" style="stroke:#181818;stroke-width:1.0;"/></g><!--link RequestMessage to MessageCode--><g id="link_RequestMessage_MessageCode"><path codeLine="27" d="M665.12,108.0137 C682.91,108.0137 701.96,108.0137 719.53,108.0137 " fill="none" id="RequestMessage-to-MessageCode" style="stroke:#181818;stroke-width:1.0;"/><polygon fill="#181818" points="724.93,108.0137,715.93,104.0137,719.93,108.0137,715.93,112.0137,724.93,108.0137" style="stroke:#181818;stroke-width:1.0;"/></g><!--SRC=[TL3B3e8m4BplL-mFy0icIaoyU55_eBOhD9Qszi65yEzIWQIOiiUTcPsPLVGA60mwsRG1XNJ4WpGQ0BXYtkEvDj5vEXdcn9rSJ-veBGuZW6NypHh2bccXoE40WDFCiWUtC_jAta-ioqeQOIoThfKa7TRJCvu16yDdsdFJTL5BpbBQhVUDFf5yM9n_qWIIZXqkoze8MhAKKrJL8VU7yXiIQwSfx7qWQRO98IzQWF_w94PM0-0B]--></g></svg>