<?xml version="1.0" encoding="us-ascii" standalone="no"?><svg xmlns="http://www.w3.org/2000/svg" xmlns:xlink="http://www.w3.org/1999/xlink" contentStyleType="text/css" height="466px" preserveAspectRatio="none" style="width:635px;height:466px;background:#FFFFFF;" version="1.1" viewBox="0 0 635 466" width="635px" zoomAndPan="magnify"><defs/><g><text fill="#000000" font-family="FG Virgil" font-size="14" font-weight="bold" lengthAdjust="spacing" textLength="299" x="169.75" y="30.1074">UC1006.1 - List Manager Available Courses</text><rect fill="#FFFFFF" height="220.0371" style="stroke:#181818;stroke-width:1.0;" width="10" x="31" y="137.8633"/><rect fill="#FFFFFF" height="187.7461" style="stroke:#181818;stroke-width:1.0;" width="10" x="204" y="161.1543"/><rect fill="#FFFFFF" height="93.873" style="stroke:#181818;stroke-width:1.0;" width="10" x="396" y="223.7363"/><rect fill="#FFFFFF" height="31.291" style="stroke:#181818;stroke-width:1.0;" width="10" x="569.5" y="255.0273"/><line style="stroke:#181818;stroke-width:0.5;stroke-dasharray:5.0,5.0;" x1="36" x2="36" y1="127.8633" y2="366.9004"/><line style="stroke:#181818;stroke-width:0.5;stroke-dasharray:5.0,5.0;" x1="208.5" x2="208.5" y1="127.8633" y2="366.9004"/><line style="stroke:#181818;stroke-width:0.5;stroke-dasharray:5.0,5.0;" x1="400.5" x2="400.5" y1="127.8633" y2="366.9004"/><line style="stroke:#181818;stroke-width:0.5;stroke-dasharray:5.0,5.0;" x1="574.5" x2="574.5" y1="127.8633" y2="366.9004"/><text fill="#000000" font-family="FG Virgil" font-size="14" lengthAdjust="spacing" textLength="56" x="5" y="124.3496">Manager</text><ellipse cx="36" cy="57.7422" fill="#E3E3E3" rx="8" ry="8" style="stroke:#181818;stroke-width:0.5;"/><path d="M36,65.7422 L36,92.7422 M23,73.7422 L49,73.7422 M36,92.7422 L23,107.7422 M36,92.7422 L49,107.7422 " fill="none" style="stroke:#181818;stroke-width:0.5;"/><text fill="#000000" font-family="FG Virgil" font-size="14" lengthAdjust="spacing" textLength="56" x="5" y="381.0078">Manager</text><ellipse cx="36" cy="393.0215" fill="#E3E3E3" rx="8" ry="8" style="stroke:#181818;stroke-width:0.5;"/><path d="M36,401.0215 L36,428.0215 M23,409.0215 L49,409.0215 M36,428.0215 L23,443.0215 M36,428.0215 L49,443.0215 " fill="none" style="stroke:#181818;stroke-width:0.5;"/><rect fill="#E3E3E3" height="51.2422" rx="2.5" ry="2.5" style="stroke:#181818;stroke-width:0.5;" width="157" x="130.5" y="75.6211"/><text fill="#000000" font-family="FG Virgil" font-size="14" font-style="italic" lengthAdjust="spacing" textLength="27" x="195.5" y="97.7285">&#171;ui&#187;</text><text fill="#000000" font-family="FG Virgil" font-size="14" lengthAdjust="spacing" textLength="143" x="137.5" y="116.3496">ListManagerCoursesUI</text><rect fill="#E3E3E3" height="51.2422" rx="2.5" ry="2.5" style="stroke:#181818;stroke-width:0.5;" width="157" x="130.5" y="365.9004"/><text fill="#000000" font-family="FG Virgil" font-size="14" font-style="italic" lengthAdjust="spacing" textLength="27" x="195.5" y="388.0078">&#171;ui&#187;</text><text fill="#000000" font-family="FG Virgil" font-size="14" lengthAdjust="spacing" textLength="143" x="137.5" y="406.6289">ListManagerCoursesUI</text><rect fill="#E3E3E3" height="51.2422" rx="2.5" ry="2.5" style="stroke:#181818;stroke-width:0.5;" width="207" x="297.5" y="75.6211"/><text fill="#000000" font-family="FG Virgil" font-size="14" font-style="italic" lengthAdjust="spacing" textLength="84" x="359" y="97.7285">&#171;application&#187;</text><text fill="#000000" font-family="FG Virgil" font-size="14" lengthAdjust="spacing" textLength="193" x="304.5" y="116.3496">ListManagerCoursesController</text><rect fill="#E3E3E3" height="51.2422" rx="2.5" ry="2.5" style="stroke:#181818;stroke-width:0.5;" width="207" x="297.5" y="365.9004"/><text fill="#000000" font-family="FG Virgil" font-size="14" font-style="italic" lengthAdjust="spacing" textLength="84" x="359" y="388.0078">&#171;application&#187;</text><text fill="#000000" font-family="FG Virgil" font-size="14" lengthAdjust="spacing" textLength="193" x="304.5" y="406.6289">ListManagerCoursesController</text><text fill="#000000" font-family="FG Virgil" font-size="14" font-style="italic" lengthAdjust="spacing" textLength="79" x="532" y="105.7285">&#171;repository&#187;</text><text fill="#000000" font-family="FG Virgil" font-size="14" lengthAdjust="spacing" textLength="114" x="514.5" y="124.3496">CourseRepository</text><path d="M556.5,54.6211 C556.5,44.6211 574.5,44.6211 574.5,44.6211 C574.5,44.6211 592.5,44.6211 592.5,54.6211 L592.5,80.6211 C592.5,90.6211 574.5,90.6211 574.5,90.6211 C574.5,90.6211 556.5,90.6211 556.5,80.6211 L556.5,54.6211 " fill="#E3E3E3" style="stroke:#181818;stroke-width:1.5;"/><path d="M556.5,54.6211 C556.5,64.6211 574.5,64.6211 574.5,64.6211 C574.5,64.6211 592.5,64.6211 592.5,54.6211 " fill="none" style="stroke:#181818;stroke-width:1.5;"/><text fill="#000000" font-family="FG Virgil" font-size="14" font-style="italic" lengthAdjust="spacing" textLength="79" x="532" y="381.0078">&#171;repository&#187;</text><text fill="#000000" font-family="FG Virgil" font-size="14" lengthAdjust="spacing" textLength="114" x="514.5" y="399.6289">CourseRepository</text><path d="M556.5,413.1426 C556.5,403.1426 574.5,403.1426 574.5,403.1426 C574.5,403.1426 592.5,403.1426 592.5,413.1426 L592.5,439.1426 C592.5,449.1426 574.5,449.1426 574.5,449.1426 C574.5,449.1426 556.5,449.1426 556.5,439.1426 L556.5,413.1426 " fill="#E3E3E3" style="stroke:#181818;stroke-width:1.5;"/><path d="M556.5,413.1426 C556.5,423.1426 574.5,423.1426 574.5,423.1426 C574.5,423.1426 592.5,423.1426 592.5,413.1426 " fill="none" style="stroke:#181818;stroke-width:1.5;"/><rect fill="#FFFFFF" height="220.0371" style="stroke:#181818;stroke-width:1.0;" width="10" x="31" y="137.8633"/><rect fill="#FFFFFF" height="187.7461" style="stroke:#181818;stroke-width:1.0;" width="10" x="204" y="161.1543"/><rect fill="#FFFFFF" height="93.873" style="stroke:#181818;stroke-width:1.0;" width="10" x="396" y="223.7363"/><rect fill="#FFFFFF" height="31.291" style="stroke:#181818;stroke-width:1.0;" width="10" x="569.5" y="255.0273"/><polygon fill="#181818" points="192,157.1543,202,161.1543,192,165.1543,196,161.1543" style="stroke:#181818;stroke-width:1.0;"/><line style="stroke:#181818;stroke-width:1.0;stroke-dasharray:2.0,2.0;" x1="41" x2="198" y1="161.1543" y2="161.1543"/><text fill="#000000" font-family="FG Virgil" font-size="13" font-weight="bold" lengthAdjust="spacing" textLength="7" x="48" y="155.8916">1</text><text fill="#000000" font-family="FG Virgil" font-size="13" lengthAdjust="spacing" textLength="133" x="59" y="155.8916">Asks to list all courses</text><polygon fill="#181818" points="389,188.4453,399,192.4453,389,196.4453,393,192.4453" style="stroke:#181818;stroke-width:1.0;"/><line style="stroke:#181818;stroke-width:1.0;" x1="214" x2="395" y1="192.4453" y2="192.4453"/><text fill="#000000" font-family="FG Virgil" font-size="13" font-weight="bold" lengthAdjust="spacing" textLength="7" x="221" y="187.1826">2</text><text fill="#000000" font-family="FG Virgil" font-size="13" lengthAdjust="spacing" textLength="113" x="232" y="187.1826">create(courseRepo)</text><polygon fill="#181818" points="384,219.7363,394,223.7363,384,227.7363,388,223.7363" style="stroke:#181818;stroke-width:1.0;"/><line style="stroke:#181818;stroke-width:1.0;" x1="214" x2="390" y1="223.7363" y2="223.7363"/><text fill="#000000" font-family="FG Virgil" font-size="13" font-weight="bold" lengthAdjust="spacing" textLength="7" x="221" y="218.4736">3</text><text fill="#000000" font-family="FG Virgil" font-size="13" lengthAdjust="spacing" textLength="91" x="232" y="218.4736">findAllCourses()</text><polygon fill="#181818" points="557.5,251.0273,567.5,255.0273,557.5,259.0273,561.5,255.0273" style="stroke:#181818;stroke-width:1.0;"/><line style="stroke:#181818;stroke-width:1.0;" x1="406" x2="563.5" y1="255.0273" y2="255.0273"/><text fill="#000000" font-family="FG Virgil" font-size="13" font-weight="bold" lengthAdjust="spacing" textLength="7" x="413" y="249.7646">4</text><text fill="#000000" font-family="FG Virgil" font-size="13" lengthAdjust="spacing" textLength="43" x="424" y="249.7646">findAll()</text><polygon fill="#181818" points="417,282.3184,407,286.3184,417,290.3184,413,286.3184" style="stroke:#181818;stroke-width:1.0;"/><line style="stroke:#181818;stroke-width:1.0;" x1="411" x2="573.5" y1="286.3184" y2="286.3184"/><text fill="#000000" font-family="FG Virgil" font-size="13" font-weight="bold" lengthAdjust="spacing" textLength="7" x="423" y="281.0557">5</text><text fill="#000000" font-family="FG Virgil" font-size="13" lengthAdjust="spacing" textLength="46" x="434" y="281.0557">courses</text><polygon fill="#181818" points="225,313.6094,215,317.6094,225,321.6094,221,317.6094" style="stroke:#181818;stroke-width:1.0;"/><line style="stroke:#181818;stroke-width:1.0;" x1="219" x2="400" y1="317.6094" y2="317.6094"/><text fill="#000000" font-family="FG Virgil" font-size="13" font-weight="bold" lengthAdjust="spacing" textLength="7" x="231" y="312.3467">6</text><text fill="#000000" font-family="FG Virgil" font-size="13" lengthAdjust="spacing" textLength="46" x="242" y="312.3467">courses</text><polygon fill="#181818" points="52,344.9004,42,348.9004,52,352.9004,48,348.9004" style="stroke:#181818;stroke-width:1.0;"/><line style="stroke:#181818;stroke-width:1.0;stroke-dasharray:2.0,2.0;" x1="46" x2="208" y1="348.9004" y2="348.9004"/><text fill="#000000" font-family="FG Virgil" font-size="13" font-weight="bold" lengthAdjust="spacing" textLength="7" x="58" y="343.6377">7</text><text fill="#000000" font-family="FG Virgil" font-size="13" lengthAdjust="spacing" textLength="91" x="69" y="343.6377">display courses</text><!--SRC=[bO_1Qi9048Rl-nI3b-h1efSUH0G9M09D3vRqFcv67TpiXjs9nRVlH4F8GIWzxixtp_zDkh1lC68DTV31dcEe2IIsPD8mQT1Uy4HVSdC4aQoCPXKTiNMo2ru-KQExT_ZcU68tOj8Pg_33_WH7T8cCUIcpvMBnzhg4ENnm4YZGQq64xHNPuK5hij36HCaOOT7dFmBOIl1jVQ1eq4g80ui92gD6mfORz0AJRbK_xUDbFkcuCeVrkkNDvYy-qxjZS8xYFLTaciEcSMnHE7XTKA7W0HF1v17PKnCIgzVjdiZsceZ3dmOwQxwYaDeMC9zlEfiLRDCbWGHmtVde7DZ-u04lSwEaycgn0Xj9FwTsA9sDfqVsrTQv_ehfR5IQ6IMKKxE16mFPtkXegEajAXe3ZmrtxoU0LdGgtGe5AawDmzipiCn_0G00]--></g></svg>