<?xml version="1.0" encoding="us-ascii" standalone="no"?><svg xmlns="http://www.w3.org/2000/svg" xmlns:xlink="http://www.w3.org/1999/xlink" contentStyleType="text/css" height="740px" preserveAspectRatio="none" style="width:1160px;height:740px;background:#FFFFFF;" version="1.1" viewBox="0 0 1160 740" width="1160.8px" zoomAndPan="magnify"><defs/><g><text fill="#000000" font-family="sans-serif" font-size="11.2" font-weight="bold" lengthAdjust="spacing" textLength="208" x="470.8" y="20.0859">US1007 - Bulk Enroll Students By CSV</text><!--cluster ecourseusermanagement--><g id="cluster_ecourseusermanagement"><path d="M552.4,583.7078 L697.2,583.7078 A3,3 0 0 1 699.2,585.7078 L704.8,603.4047 L854,603.4047 A2,2 0 0 1 856,605.4047 L856,732.9078 A2,2 0 0 1 854,734.9078 L552.4,734.9078 A2,2 0 0 1 550.4,732.9078 L550.4,585.7078 A2,2 0 0 1 552.4,583.7078 " fill="none" style="stroke:#000000;stroke-width:1.2000000000000002;"/><line style="stroke:#000000;stroke-width:1.2000000000000002;" x1="550.4" x2="704.8" y1="603.4047" y2="603.4047"/><text fill="#000000" font-family="sans-serif" font-size="11.2" font-weight="bold" lengthAdjust="spacing" textLength="144" x="553.6" y="597.3938">ecourseusermanagement</text></g><!--cluster repositories--><g id="cluster_repositories"><path d="M571.6,619.7078 L641.2,619.7078 A3,3 0 0 1 643.2,621.7078 L648.8,639.4047 L834.8,639.4047 A2,2 0 0 1 836.8,641.4047 L836.8,713.7078 A2,2 0 0 1 834.8,715.7078 L571.6,715.7078 A2,2 0 0 1 569.6,713.7078 L569.6,621.7078 A2,2 0 0 1 571.6,619.7078 " fill="none" style="stroke:#000000;stroke-width:1.2000000000000002;"/><line style="stroke:#000000;stroke-width:1.2000000000000002;" x1="569.6" x2="648.8" y1="639.4047" y2="639.4047"/><text fill="#000000" font-family="sans-serif" font-size="11.2" font-weight="bold" lengthAdjust="spacing" textLength="68.8" x="572.8" y="633.3938">repositories</text></g><!--cluster enrolledstudentsmanagement--><g id="cluster_enrolledstudentsmanagement"><path d="M6.8,136.5078 L176.4,136.5078 A3,3 0 0 1 178.4,138.5078 L184,156.2047 L754.8,156.2047 A2,2 0 0 1 756.8,158.2047 L756.8,562.5078 A2,2 0 0 1 754.8,564.5078 L6.8,564.5078 A2,2 0 0 1 4.8,562.5078 L4.8,138.5078 A2,2 0 0 1 6.8,136.5078 " fill="none" style="stroke:#000000;stroke-width:1.2000000000000002;"/><line style="stroke:#000000;stroke-width:1.2000000000000002;" x1="4.8" x2="184" y1="156.2047" y2="156.2047"/><text fill="#000000" font-family="sans-serif" font-size="11.2" font-weight="bold" lengthAdjust="spacing" textLength="168.8" x="8" y="150.1938">enrolledstudentsmanagement</text></g><!--cluster application--><g id="cluster_application"><path d="M26,172.5078 L88.4,172.5078 A3,3 0 0 1 90.4,174.5078 L96,192.2047 L478,192.2047 A2,2 0 0 1 480,194.2047 L480,528.5078 A2,2 0 0 1 478,530.5078 L26,530.5078 A2,2 0 0 1 24,528.5078 L24,174.5078 A2,2 0 0 1 26,172.5078 " fill="none" style="stroke:#000000;stroke-width:1.2000000000000002;"/><line style="stroke:#000000;stroke-width:1.2000000000000002;" x1="24" x2="96" y1="192.2047" y2="192.2047"/><text fill="#000000" font-family="sans-serif" font-size="11.2" font-weight="bold" lengthAdjust="spacing" textLength="61.6" x="27.2" y="186.1938">application</text></g><!--cluster dto--><g id="cluster_dto"><path d="M501.2,405.3078 L520.4,405.3078 A3,3 0 0 1 522.4,407.3078 L528,425.0047 L735.6,425.0047 A2,2 0 0 1 737.6,427.0047 L737.6,543.3078 A2,2 0 0 1 735.6,545.3078 L501.2,545.3078 A2,2 0 0 1 499.2,543.3078 L499.2,407.3078 A2,2 0 0 1 501.2,405.3078 " fill="none" style="stroke:#000000;stroke-width:1.2000000000000002;"/><line style="stroke:#000000;stroke-width:1.2000000000000002;" x1="499.2" x2="528" y1="425.0047" y2="425.0047"/><text fill="#000000" font-family="sans-serif" font-size="11.2" font-weight="bold" lengthAdjust="spacing" textLength="18.4" x="502.4" y="418.9938">dto</text></g><!--cluster coursemanagement--><g id="cluster_coursemanagement"><path d="M877.2,583.7078 L989.2,583.7078 A3,3 0 0 1 991.2,585.7078 L996.8,603.4047 L1153.2,603.4047 A2,2 0 0 1 1155.2,605.4047 L1155.2,732.9078 A2,2 0 0 1 1153.2,734.9078 L877.2,734.9078 A2,2 0 0 1 875.2,732.9078 L875.2,585.7078 A2,2 0 0 1 877.2,583.7078 " fill="none" style="stroke:#000000;stroke-width:1.2000000000000002;"/><line style="stroke:#000000;stroke-width:1.2000000000000002;" x1="875.2" x2="996.8" y1="603.4047" y2="603.4047"/><text fill="#000000" font-family="sans-serif" font-size="11.2" font-weight="bold" lengthAdjust="spacing" textLength="111.2" x="878.4" y="597.3938">coursemanagement</text></g><!--cluster application--><g id="cluster_application"><path d="M896.4,619.7078 L958.8,619.7078 A3,3 0 0 1 960.8,621.7078 L966.4,639.4047 L1134,639.4047 A2,2 0 0 1 1136,641.4047 L1136,713.7078 A2,2 0 0 1 1134,715.7078 L896.4,715.7078 A2,2 0 0 1 894.4,713.7078 L894.4,621.7078 A2,2 0 0 1 896.4,619.7078 " fill="none" style="stroke:#000000;stroke-width:1.2000000000000002;"/><line style="stroke:#000000;stroke-width:1.2000000000000002;" x1="894.4" x2="966.4" y1="639.4047" y2="639.4047"/><text fill="#000000" font-family="sans-serif" font-size="11.2" font-weight="bold" lengthAdjust="spacing" textLength="61.6" x="897.6" y="633.3938">application</text></g><!--cluster ui--><g id="cluster_ui"><path d="M166,36.5078 L177.2,36.5078 A3,3 0 0 1 179.2,38.5078 L184.8,56.2047 L338,56.2047 A2,2 0 0 1 340,58.2047 L340,115.3078 A2,2 0 0 1 338,117.3078 L166,117.3078 A2,2 0 0 1 164,115.3078 L164,38.5078 A2,2 0 0 1 166,36.5078 " fill="none" style="stroke:#000000;stroke-width:1.2000000000000002;"/><line style="stroke:#000000;stroke-width:1.2000000000000002;" x1="164" x2="184.8" y1="56.2047" y2="56.2047"/><text fill="#000000" font-family="sans-serif" font-size="11.2" font-weight="bold" lengthAdjust="spacing" textLength="10.4" x="167.2" y="50.1938">ui</text></g><!--class IeCourseUserRepository--><g id="elem_IeCourseUserRepository"><rect codeLine="8" fill="#F1F1F1" height="53.2969" id="IeCourseUserRepository" rx="2" ry="2" style="stroke:#181818;stroke-width:0.4000000000000001;" width="240.8" x="582.8" y="649.3078"/><ellipse cx="638.2" cy="662.1078" fill="#ADD1B2" rx="8.8" ry="8.8" style="stroke:#181818;stroke-width:0.8000000000000002;"/><path d="M640.4125,658.8078 Q640.5375,658.6328 640.6875,658.5453 Q640.8375,658.4578 641.0125,658.4578 Q641.3125,658.4578 641.5,658.6703 Q641.6875,658.8703 641.6875,659.3578 L641.6875,660.5203 Q641.6875,661.0078 641.5,661.2203 Q641.3125,661.4328 641.0125,661.4328 Q640.7375,661.4328 640.575,661.2703 Q640.4125,661.1203 640.325,660.7078 Q640.2875,660.4203 640.1375,660.2703 Q639.875,659.9703 639.3875,659.7953 Q638.9,659.6203 638.4,659.6203 Q637.7875,659.6203 637.275,659.8828 Q636.775,660.1453 636.375,660.7453 Q635.9875,661.3453 635.9875,662.1703 L635.9875,663.0453 Q635.9875,664.0328 636.7,664.6953 Q637.4125,665.3453 638.6875,665.3453 Q639.4375,665.3453 639.9625,665.1453 Q640.275,665.0203 640.6125,664.6703 Q640.825,664.4578 640.9375,664.3953 Q641.0625,664.3328 641.225,664.3328 Q641.4875,664.3328 641.6875,664.5453 Q641.9,664.7453 641.9,665.0203 Q641.9,665.2953 641.625,665.6203 Q641.225,666.0828 640.5875,666.3453 Q639.725,666.7078 638.6875,666.7078 Q637.475,666.7078 636.5125,666.2078 Q635.725,665.8078 635.175,664.9578 Q634.625,664.0953 634.625,663.0703 L634.625,662.1453 Q634.625,661.0828 635.1125,660.1703 Q635.6125,659.2453 636.4875,658.7578 Q637.3625,658.2578 638.35,658.2578 Q638.9375,658.2578 639.45,658.3953 Q639.975,658.5203 640.4125,658.8078 Z " fill="#000000"/><text fill="#000000" font-family="sans-serif" font-size="11.2" lengthAdjust="spacing" textLength="123.2" x="654.6" y="666.7453">IeCourseUserRepository</text><line style="stroke:#181818;stroke-width:0.4000000000000001;" x1="583.6" x2="822.8" y1="674.9078" y2="674.9078"/><line style="stroke:#181818;stroke-width:0.4000000000000001;" x1="583.6" x2="822.8" y1="681.3078" y2="681.3078"/><text fill="#000000" font-family="sans-serif" font-size="11.2" lengthAdjust="spacing" textLength="231.2" x="587.6" y="696.5938">+findByEmail(email) : Optional&lt;ECourseUser&gt;</text></g><!--class BulkEnrollStudentsCsvController--><g id="elem_BulkEnrollStudentsCsvController"><rect codeLine="18" fill="#F1F1F1" height="83.0906" id="BulkEnrollStudentsCsvController" rx="2" ry="2" style="stroke:#181818;stroke-width:0.4000000000000001;" width="430.4" x="36.8" y="202.1078"/><ellipse cx="166.6" cy="214.9078" fill="#ADD1B2" rx="8.8" ry="8.8" style="stroke:#181818;stroke-width:0.8000000000000002;"/><path d="M168.8125,211.6078 Q168.9375,211.4328 169.0875,211.3453 Q169.2375,211.2578 169.4125,211.2578 Q169.7125,211.2578 169.9,211.4703 Q170.0875,211.6703 170.0875,212.1578 L170.0875,213.3203 Q170.0875,213.8078 169.9,214.0203 Q169.7125,214.2328 169.4125,214.2328 Q169.1375,214.2328 168.975,214.0703 Q168.8125,213.9203 168.725,213.5078 Q168.6875,213.2203 168.5375,213.0703 Q168.275,212.7703 167.7875,212.5953 Q167.3,212.4203 166.8,212.4203 Q166.1875,212.4203 165.675,212.6828 Q165.175,212.9453 164.775,213.5453 Q164.3875,214.1453 164.3875,214.9703 L164.3875,215.8453 Q164.3875,216.8328 165.1,217.4953 Q165.8125,218.1453 167.0875,218.1453 Q167.8375,218.1453 168.3625,217.9453 Q168.675,217.8203 169.0125,217.4703 Q169.225,217.2578 169.3375,217.1953 Q169.4625,217.1328 169.625,217.1328 Q169.8875,217.1328 170.0875,217.3453 Q170.3,217.5453 170.3,217.8203 Q170.3,218.0953 170.025,218.4203 Q169.625,218.8828 168.9875,219.1453 Q168.125,219.5078 167.0875,219.5078 Q165.875,219.5078 164.9125,219.0078 Q164.125,218.6078 163.575,217.7578 Q163.025,216.8953 163.025,215.8703 L163.025,214.9453 Q163.025,213.8828 163.5125,212.9703 Q164.0125,212.0453 164.8875,211.5578 Q165.7625,211.0578 166.75,211.0578 Q167.3375,211.0578 167.85,211.1953 Q168.375,211.3203 168.8125,211.6078 Z " fill="#000000"/><text fill="#000000" font-family="sans-serif" font-size="11.2" lengthAdjust="spacing" textLength="164" x="183" y="219.5453">BulkEnrollStudentsCsvController</text><line style="stroke:#181818;stroke-width:0.4000000000000001;" x1="37.6" x2="466.4" y1="227.7078" y2="227.7078"/><line style="stroke:#181818;stroke-width:0.4000000000000001;" x1="37.6" x2="466.4" y1="234.1078" y2="234.1078"/><text fill="#000000" font-family="sans-serif" font-size="11.2" lengthAdjust="spacing" textLength="420.8" x="41.6" y="249.3938">+BulkEnrollStudentsCsvController(listCoursesByStateSvc, csvBulkStudentsEnroller)</text><text fill="#000000" font-family="sans-serif" font-size="11.2" lengthAdjust="spacing" textLength="324" x="41.6" y="264.2906">+bulkEnrollStudents(course, csvFile) : BulkEnrollStudentsReport</text><text fill="#000000" font-family="sans-serif" font-size="11.2" lengthAdjust="spacing" textLength="217.6" x="41.6" y="279.1875">+listEnrollableCourses() : Iterable&lt;Course&gt;</text></g><!--class RegisterEnrolledStudentController--><g id="elem_RegisterEnrolledStudentController"><rect codeLine="24" fill="#F1F1F1" height="68.1938" id="RegisterEnrolledStudentController" rx="2" ry="2" style="stroke:#181818;stroke-width:0.4000000000000001;" width="340.8" x="126.4" y="449.7078"/><ellipse cx="207" cy="462.5078" fill="#ADD1B2" rx="8.8" ry="8.8" style="stroke:#181818;stroke-width:0.8000000000000002;"/><path d="M209.2125,459.2078 Q209.3375,459.0328 209.4875,458.9453 Q209.6375,458.8578 209.8125,458.8578 Q210.1125,458.8578 210.3,459.0703 Q210.4875,459.2703 210.4875,459.7578 L210.4875,460.9203 Q210.4875,461.4078 210.3,461.6203 Q210.1125,461.8328 209.8125,461.8328 Q209.5375,461.8328 209.375,461.6703 Q209.2125,461.5203 209.125,461.1078 Q209.0875,460.8203 208.9375,460.6703 Q208.675,460.3703 208.1875,460.1953 Q207.7,460.0203 207.2,460.0203 Q206.5875,460.0203 206.075,460.2828 Q205.575,460.5453 205.175,461.1453 Q204.7875,461.7453 204.7875,462.5703 L204.7875,463.4453 Q204.7875,464.4328 205.5,465.0953 Q206.2125,465.7453 207.4875,465.7453 Q208.2375,465.7453 208.7625,465.5453 Q209.075,465.4203 209.4125,465.0703 Q209.625,464.8578 209.7375,464.7953 Q209.8625,464.7328 210.025,464.7328 Q210.2875,464.7328 210.4875,464.9453 Q210.7,465.1453 210.7,465.4203 Q210.7,465.6953 210.425,466.0203 Q210.025,466.4828 209.3875,466.7453 Q208.525,467.1078 207.4875,467.1078 Q206.275,467.1078 205.3125,466.6078 Q204.525,466.2078 203.975,465.3578 Q203.425,464.4953 203.425,463.4703 L203.425,462.5453 Q203.425,461.4828 203.9125,460.5703 Q204.4125,459.6453 205.2875,459.1578 Q206.1625,458.6578 207.15,458.6578 Q207.7375,458.6578 208.25,458.7953 Q208.775,458.9203 209.2125,459.2078 Z " fill="#000000"/><text fill="#000000" font-family="sans-serif" font-size="11.2" lengthAdjust="spacing" textLength="172.8" x="223.4" y="467.1453">RegisterEnrolledStudentController</text><line style="stroke:#181818;stroke-width:0.4000000000000001;" x1="127.2" x2="466.4" y1="475.3078" y2="475.3078"/><line style="stroke:#181818;stroke-width:0.4000000000000001;" x1="127.2" x2="466.4" y1="481.7078" y2="481.7078"/><text fill="#000000" font-family="sans-serif" font-size="11.2" lengthAdjust="spacing" textLength="327.2" x="131.2" y="496.9938">+RegisterEnrolledStudentController(enrolledStudentsRepository)</text><text fill="#000000" font-family="sans-serif" font-size="11.2" lengthAdjust="spacing" textLength="331.2" x="131.2" y="511.8906">+registerEnrolledStudent(eCourseUser, course) : EnrolledStudent</text></g><!--class ICsvBulkStudentsEnroller--><g id="elem_ICsvBulkStudentsEnroller"><rect codeLine="29" fill="#F1F1F1" height="53.2969" id="ICsvBulkStudentsEnroller" rx="2" ry="2" style="stroke:#181818;stroke-width:0.4000000000000001;" width="333.6" x="131.6" y="333.3078"/><ellipse cx="231" cy="346.1078" fill="#B4A7E5" rx="8.8" ry="8.8" style="stroke:#181818;stroke-width:0.8000000000000002;"/><path d="M231.7625,343.4203 L231.7625,348.7453 L233.1375,348.7453 Q233.625,348.7453 233.8375,348.9328 Q234.05,349.1203 234.05,349.4328 Q234.05,349.7328 233.8375,349.9203 Q233.625,350.1078 233.1375,350.1078 L229.025,350.1078 Q228.5375,350.1078 228.325,349.9203 Q228.1125,349.7328 228.1125,349.4203 Q228.1125,349.1203 228.325,348.9328 Q228.5375,348.7453 229.025,348.7453 L230.4,348.7453 L230.4,343.4203 L229.025,343.4203 Q228.5375,343.4203 228.325,343.2328 Q228.1125,343.0453 228.1125,342.7328 Q228.1125,342.4328 228.325,342.2453 Q228.5375,342.0578 229.025,342.0578 L233.1375,342.0578 Q233.625,342.0578 233.8375,342.2453 Q234.05,342.4328 234.05,342.7328 Q234.05,343.0453 233.8375,343.2328 Q233.625,343.4203 233.1375,343.4203 L231.7625,343.4203 Z " fill="#000000"/><text fill="#000000" font-family="sans-serif" font-size="11.2" font-style="italic" lengthAdjust="spacing" textLength="128" x="247.4" y="350.7453">ICsvBulkStudentsEnroller</text><line style="stroke:#181818;stroke-width:0.4000000000000001;" x1="132.4" x2="464.4" y1="358.9078" y2="358.9078"/><line style="stroke:#181818;stroke-width:0.4000000000000001;" x1="132.4" x2="464.4" y1="365.3078" y2="365.3078"/><text fill="#000000" font-family="sans-serif" font-size="11.2" lengthAdjust="spacing" textLength="324" x="136.4" y="380.5938">+bulkEnrollStudents(course, csvFile) : BulkEnrollStudentsReport</text></g><!--class BulkEnrollStudentsReport--><g id="elem_BulkEnrollStudentsReport"><rect codeLine="36" fill="#F1F1F1" height="97.9875" id="BulkEnrollStudentsReport" rx="2" ry="2" style="stroke:#181818;stroke-width:0.4000000000000001;" width="212.8" x="512" y="434.9078"/><ellipse cx="550.2" cy="447.7078" fill="#ADD1B2" rx="8.8" ry="8.8" style="stroke:#181818;stroke-width:0.8000000000000002;"/><path d="M552.4125,444.4078 Q552.5375,444.2328 552.6875,444.1453 Q552.8375,444.0578 553.0125,444.0578 Q553.3125,444.0578 553.5,444.2703 Q553.6875,444.4703 553.6875,444.9578 L553.6875,446.1203 Q553.6875,446.6078 553.5,446.8203 Q553.3125,447.0328 553.0125,447.0328 Q552.7375,447.0328 552.575,446.8703 Q552.4125,446.7203 552.325,446.3078 Q552.2875,446.0203 552.1375,445.8703 Q551.875,445.5703 551.3875,445.3953 Q550.9,445.2203 550.4,445.2203 Q549.7875,445.2203 549.275,445.4828 Q548.775,445.7453 548.375,446.3453 Q547.9875,446.9453 547.9875,447.7703 L547.9875,448.6453 Q547.9875,449.6328 548.7,450.2953 Q549.4125,450.9453 550.6875,450.9453 Q551.4375,450.9453 551.9625,450.7453 Q552.275,450.6203 552.6125,450.2703 Q552.825,450.0578 552.9375,449.9953 Q553.0625,449.9328 553.225,449.9328 Q553.4875,449.9328 553.6875,450.1453 Q553.9,450.3453 553.9,450.6203 Q553.9,450.8953 553.625,451.2203 Q553.225,451.6828 552.5875,451.9453 Q551.725,452.3078 550.6875,452.3078 Q549.475,452.3078 548.5125,451.8078 Q547.725,451.4078 547.175,450.5578 Q546.625,449.6953 546.625,448.6703 L546.625,447.7453 Q546.625,446.6828 547.1125,445.7703 Q547.6125,444.8453 548.4875,444.3578 Q549.3625,443.8578 550.35,443.8578 Q550.9375,443.8578 551.45,443.9953 Q551.975,444.1203 552.4125,444.4078 Z " fill="#000000"/><text fill="#000000" font-family="sans-serif" font-size="11.2" lengthAdjust="spacing" textLength="129.6" x="566.6" y="452.3453">BulkEnrollStudentsReport</text><line style="stroke:#181818;stroke-width:0.4000000000000001;" x1="512.8" x2="724" y1="460.5078" y2="460.5078"/><text fill="#000000" font-family="sans-serif" font-size="11.2" lengthAdjust="spacing" textLength="131.2" x="516.8" y="475.7938">+numberOfTotalLines : int</text><text fill="#000000" font-family="sans-serif" font-size="11.2" lengthAdjust="spacing" textLength="178.4" x="516.8" y="490.6906">+numberOfEnrollmentsCreated : int</text><text fill="#000000" font-family="sans-serif" font-size="11.2" lengthAdjust="spacing" textLength="203.2" x="516.8" y="505.5875">+numberOfStudentsAlreadyEnrolled : int</text><text fill="#000000" font-family="sans-serif" font-size="11.2" lengthAdjust="spacing" textLength="163.2" x="516.8" y="520.4844">+notImportedLines : List&lt;String&gt;</text><line style="stroke:#181818;stroke-width:0.4000000000000001;" x1="512.8" x2="724" y1="526.4953" y2="526.4953"/></g><!--class IListCoursesByStateService--><g id="elem_IListCoursesByStateService"><rect codeLine="47" fill="#F1F1F1" height="53.2969" id="IListCoursesByStateService" rx="2" ry="2" style="stroke:#181818;stroke-width:0.4000000000000001;" width="216" x="907.2" y="649.3078"/><ellipse cx="942.24" cy="662.1078" fill="#B4A7E5" rx="8.8" ry="8.8" style="stroke:#181818;stroke-width:0.8000000000000002;"/><path d="M943.0025,659.4203 L943.0025,664.7453 L944.3775,664.7453 Q944.865,664.7453 945.0775,664.9328 Q945.29,665.1203 945.29,665.4328 Q945.29,665.7328 945.0775,665.9203 Q944.865,666.1078 944.3775,666.1078 L940.265,666.1078 Q939.7775,666.1078 939.565,665.9203 Q939.3525,665.7328 939.3525,665.4203 Q939.3525,665.1203 939.565,664.9328 Q939.7775,664.7453 940.265,664.7453 L941.64,664.7453 L941.64,659.4203 L940.265,659.4203 Q939.7775,659.4203 939.565,659.2328 Q939.3525,659.0453 939.3525,658.7328 Q939.3525,658.4328 939.565,658.2453 Q939.7775,658.0578 940.265,658.0578 L944.3775,658.0578 Q944.865,658.0578 945.0775,658.2453 Q945.29,658.4328 945.29,658.7328 Q945.29,659.0453 945.0775,659.2328 Q944.865,659.4203 944.3775,659.4203 L943.0025,659.4203 Z " fill="#000000"/><text fill="#000000" font-family="sans-serif" font-size="11.2" font-style="italic" lengthAdjust="spacing" textLength="139.2" x="958.56" y="666.7453">IListCoursesByStateService</text><line style="stroke:#181818;stroke-width:0.4000000000000001;" x1="908" x2="1122.4" y1="674.9078" y2="674.9078"/><line style="stroke:#181818;stroke-width:0.4000000000000001;" x1="908" x2="1122.4" y1="681.3078" y2="681.3078"/><text fill="#000000" font-family="sans-serif" font-size="11.2" lengthAdjust="spacing" textLength="206.4" x="912" y="696.5938">+listCoursesByState() : Iterable&lt;Course&gt;</text></g><!--class BulkEnrollStudentsCsvUI--><g id="elem_BulkEnrollStudentsCsvUI"><rect codeLine="54" fill="#F1F1F1" height="38.4" id="BulkEnrollStudentsCsvUI" rx="2" ry="2" style="stroke:#181818;stroke-width:0.4000000000000001;" width="149.6" x="177.2" y="66.1078"/><ellipse cx="189.2" cy="78.9078" fill="#ADD1B2" rx="8.8" ry="8.8" style="stroke:#181818;stroke-width:0.8000000000000002;"/><path d="M191.4125,75.6078 Q191.5375,75.4328 191.6875,75.3453 Q191.8375,75.2578 192.0125,75.2578 Q192.3125,75.2578 192.5,75.4703 Q192.6875,75.6703 192.6875,76.1578 L192.6875,77.3203 Q192.6875,77.8078 192.5,78.0203 Q192.3125,78.2328 192.0125,78.2328 Q191.7375,78.2328 191.575,78.0703 Q191.4125,77.9203 191.325,77.5078 Q191.2875,77.2203 191.1375,77.0703 Q190.875,76.7703 190.3875,76.5953 Q189.9,76.4203 189.4,76.4203 Q188.7875,76.4203 188.275,76.6828 Q187.775,76.9453 187.375,77.5453 Q186.9875,78.1453 186.9875,78.9703 L186.9875,79.8453 Q186.9875,80.8328 187.7,81.4953 Q188.4125,82.1453 189.6875,82.1453 Q190.4375,82.1453 190.9625,81.9453 Q191.275,81.8203 191.6125,81.4703 Q191.825,81.2578 191.9375,81.1953 Q192.0625,81.1328 192.225,81.1328 Q192.4875,81.1328 192.6875,81.3453 Q192.9,81.5453 192.9,81.8203 Q192.9,82.0953 192.625,82.4203 Q192.225,82.8828 191.5875,83.1453 Q190.725,83.5078 189.6875,83.5078 Q188.475,83.5078 187.5125,83.0078 Q186.725,82.6078 186.175,81.7578 Q185.625,80.8953 185.625,79.8703 L185.625,78.9453 Q185.625,77.8828 186.1125,76.9703 Q186.6125,76.0453 187.4875,75.5578 Q188.3625,75.0578 189.35,75.0578 Q189.9375,75.0578 190.45,75.1953 Q190.975,75.3203 191.4125,75.6078 Z " fill="#000000"/><text fill="#000000" font-family="sans-serif" font-size="11.2" lengthAdjust="spacing" textLength="124" x="200.4" y="83.5453">BulkEnrollStudentsCsvUI</text><line style="stroke:#181818;stroke-width:0.4000000000000001;" x1="178" x2="326" y1="91.7078" y2="91.7078"/><line style="stroke:#181818;stroke-width:0.4000000000000001;" x1="178" x2="326" y1="98.1078" y2="98.1078"/></g><!--link BulkEnrollStudentsCsvUI to BulkEnrollStudentsCsvController--><g id="link_BulkEnrollStudentsCsvUI_BulkEnrollStudentsCsvController"><path codeLine="58" d="M252,104.7078 C252,127.5318 252,167.0118 252,197.9398 " fill="none" id="BulkEnrollStudentsCsvUI-to-BulkEnrollStudentsCsvController" style="stroke:#181818;stroke-width:0.8000000000000002;stroke-dasharray:7.0,7.0;"/><polygon fill="#181818" points="252,202.0518,255.2,194.8518,252,198.0518,248.8,194.8518,252,202.0518" style="stroke:#181818;stroke-width:0.8000000000000002;"/></g><!--link BulkEnrollStudentsCsvController to ICsvBulkStudentsEnroller--><g id="link_BulkEnrollStudentsCsvController_ICsvBulkStudentsEnroller"><path codeLine="59" d="M268.624,285.6278 C274.416,299.9718 280.816,315.7958 286.184,329.0838 " fill="none" id="BulkEnrollStudentsCsvController-to-ICsvBulkStudentsEnroller" style="stroke:#181818;stroke-width:0.8000000000000002;stroke-dasharray:7.0,7.0;"/><polygon fill="#181818" points="287.816,333.1238,288.0838,325.2493,286.3166,329.4155,282.1505,327.6483,287.816,333.1238" style="stroke:#181818;stroke-width:0.8000000000000002;"/></g><!--link ICsvBulkStudentsEnroller to BulkEnrollStudentsReport--><g id="link_ICsvBulkStudentsEnroller_BulkEnrollStudentsReport"><path codeLine="60" d="M444.656,386.9398 C456.768,390.4678 468.688,394.4438 480,398.9078 C502.488,407.7798 525.496,420.1798 546.128,432.7238 " fill="none" id="ICsvBulkStudentsEnroller-to-BulkEnrollStudentsReport" style="stroke:#181818;stroke-width:0.8000000000000002;"/><polygon fill="#181818" points="549.68,434.9078,545.2094,428.4198,546.2683,432.8197,541.8684,433.8786,549.68,434.9078" style="stroke:#181818;stroke-width:0.8000000000000002;"/></g><!--link ICsvBulkStudentsEnroller to RegisterEnrolledStudentController--><g id="link_ICsvBulkStudentsEnroller_RegisterEnrolledStudentController"><path codeLine="61" d="M298.056,387.0838 C297.832,404.0678 297.544,426.4758 297.296,445.3558 " fill="none" id="ICsvBulkStudentsEnroller-to-RegisterEnrolledStudentController" style="stroke:#181818;stroke-width:0.8000000000000002;stroke-dasharray:7.0,7.0;"/><polygon fill="#181818" points="297.24,449.5718,300.5221,442.4089,297.2857,445.5721,294.1225,442.3357,297.24,449.5718" style="stroke:#181818;stroke-width:0.8000000000000002;"/></g><!--link ICsvBulkStudentsEnroller to IeCourseUserRepository--><g id="link_ICsvBulkStudentsEnroller_IeCourseUserRepository"><path codeLine="62" d="M465.44,364.6678 C581.624,369.0678 718.928,378.5478 737.6,398.9078 C800.608,467.6038 749.224,589.5638 719.992,645.6198 " fill="none" id="ICsvBulkStudentsEnroller-to-IeCourseUserRepository" style="stroke:#181818;stroke-width:0.8000000000000002;stroke-dasharray:7.0,7.0;"/><polygon fill="#181818" points="718.104,649.2198,724.2872,644.3363,719.9656,645.6794,718.6225,641.3578,718.104,649.2198" style="stroke:#181818;stroke-width:0.8000000000000002;"/></g><!--link BulkEnrollStudentsCsvController to IListCoursesByStateService--><g id="link_BulkEnrollStudentsCsvController_IListCoursesByStateService"><path codeLine="63" d="M467.264,279.6278 C566.136,302.6918 681.576,339.9078 773.6,398.9078 C877.288,465.3878 962.112,589.0118 997.464,645.6198 " fill="none" id="BulkEnrollStudentsCsvController-to-IListCoursesByStateService" style="stroke:#181818;stroke-width:0.8000000000000002;stroke-dasharray:7.0,7.0;"/><polygon fill="#181818" points="999.72,649.2438,998.6294,641.4406,997.6051,645.8486,993.1971,644.8243,999.72,649.2438" style="stroke:#181818;stroke-width:0.8000000000000002;"/></g><!--SRC=[hLLDYzim4BthL-ZePPibFIsK4DYO50o1XNNJks9DWeWi6KaEk67_U_LXhx_Z7gg32TARfpTlPXHzPQ8WYkGuuqJhDsCKEvK6aaoAbFq1l4R8CCC17zFlw_KhNk5ToQzuBvJa7AUcf22CnhiAn-blX0gINSa5C6IoL1fA3Iedmkxa5dP72DlLO1GKKZCZ5GDzzoTkUHquWTWJ72t1HuEhMfHRpsScwAxQvuJn2Dpt2V_0xuLXKX2-sRSCsw-uJnI-dnsfFXMWkivbLYyf2iuoukXnVTGATgu4KnfFOdsBfJ2UNE61z0Lun9asGR_ULQaX1j9RzWrd-kOYcvZ00EgfJtuQaKUX79xW9-FWZ1fBS4Ohq-ToGWAAd7XT51sv-CI0SdkRiDdrUE3D1rmi2wXQBgtlQzCTcBCS447_HBSzCl32TjaaLzHfC6kB_-so6i2cacB2qfr91ZY9f-inhFP_AaZJlFssf4RY-s8t1ggXC57c9r3lvr_I47vW0hJLmOIPHWN6t7Uh0jkJz16wkVcDMooj6cCdGwH9SgSFQ2FYO8ksIUrh92uFfpVus9tPcP7zohnJliDuoa3TM0RtyH3qSKiJCD9Pijhx1y_5CQanFd8EylAoNNfjqD9hv3ZccXVDTlLgjPrlqjaeTzVYG3y8frxivF_1F-JfWsVhZFu2]--></g></svg>