<?xml version="1.0" encoding="us-ascii" standalone="no"?><svg xmlns="http://www.w3.org/2000/svg" xmlns:xlink="http://www.w3.org/1999/xlink" contentStyleType="text/css" height="1455px" preserveAspectRatio="none" style="width:2284px;height:1455px;background:#FFFFFF;" version="1.1" viewBox="0 0 2284 1455" width="2284px" zoomAndPan="magnify"><defs/><g><rect fill="#FFFFFF" height="1248.6406" style="stroke:#181818;stroke-width:1.0;" width="10" x="29.5" y="98.2422"/><rect fill="#FFFFFF" height="1216.3496" style="stroke:#181818;stroke-width:1.0;" width="10" x="217.5" y="121.5332"/><rect fill="#FFFFFF" height="156.4551" style="stroke:#181818;stroke-width:1.0;" width="10" x="611.5" y="152.8242"/><rect fill="#FFFFFF" height="405.7832" style="stroke:#181818;stroke-width:1.0;" width="10" x="611.5" y="433.4434"/><rect fill="#FFFFFF" height="280.6191" style="stroke:#181818;stroke-width:1.0;" width="10" x="611.5" y="1025.9727"/><rect fill="#FFFFFF" height="93.873" style="stroke:#181818;stroke-width:1.0;" width="10" x="840" y="184.1152"/><rect fill="#FFFFFF" height="31.291" style="stroke:#181818;stroke-width:1.0;" width="10" x="1053" y="215.4063"/><rect fill="#FFFFFF" height="343.2012" style="stroke:#181818;stroke-width:1.0;" width="10" x="1233.5" y="464.7344"/><rect fill="#FFFFFF" height="93.873" style="stroke:#181818;stroke-width:1.0;" width="10" x="1460.5" y="496.0254"/><rect fill="#FFFFFF" height="31.291" style="stroke:#181818;stroke-width:1.0;" width="10" x="1624.5" y="527.3164"/><rect fill="#FFFFFF" height="138.1641" style="stroke:#181818;stroke-width:1.0;" width="10" x="1742.5" y="638.4805"/><rect fill="#FFFFFF" height="200.7461" style="stroke:#181818;stroke-width:1.0;" width="10" x="1742.5" y="1074.5547"/><rect fill="#FFFFFF" height="62.582" style="stroke:#181818;stroke-width:1.0;" width="10" x="1959.5" y="1105.8457"/><rect fill="#FFFFFF" height="31.291" style="stroke:#181818;stroke-width:1.0;" width="10" x="2224" y="669.7715"/><line style="stroke:#181818;stroke-width:0.5;stroke-dasharray:5.0,5.0;" x1="34" x2="34" y1="88.2422" y2="1355.8828"/><line style="stroke:#181818;stroke-width:0.5;stroke-dasharray:5.0,5.0;" x1="222.5" x2="222.5" y1="88.2422" y2="1355.8828"/><line style="stroke:#181818;stroke-width:0.5;stroke-dasharray:5.0,5.0;" x1="616" x2="616" y1="88.2422" y2="1355.8828"/><line style="stroke:#181818;stroke-width:0.5;stroke-dasharray:5.0,5.0;" x1="845" x2="845" y1="88.2422" y2="1355.8828"/><line style="stroke:#181818;stroke-width:0.5;stroke-dasharray:5.0,5.0;" x1="1058" x2="1058" y1="88.2422" y2="1355.8828"/><line style="stroke:#181818;stroke-width:0.5;stroke-dasharray:5.0,5.0;" x1="1238" x2="1238" y1="88.2422" y2="1355.8828"/><line style="stroke:#181818;stroke-width:0.5;stroke-dasharray:5.0,5.0;" x1="1465.5" x2="1465.5" y1="88.2422" y2="1355.8828"/><line style="stroke:#181818;stroke-width:0.5;stroke-dasharray:5.0,5.0;" x1="1629" x2="1629" y1="88.2422" y2="1355.8828"/><line style="stroke:#181818;stroke-width:0.5;stroke-dasharray:5.0,5.0;" x1="1747" x2="1747" y1="88.2422" y2="1355.8828"/><line style="stroke:#181818;stroke-width:0.5;stroke-dasharray:5.0,5.0;" x1="1964.5" x2="1964.5" y1="88.2422" y2="1355.8828"/><line style="stroke:#181818;stroke-width:0.5;stroke-dasharray:5.0,5.0;" x1="2108.5" x2="2108.5" y1="88.2422" y2="1355.8828"/><line style="stroke:#181818;stroke-width:0.5;stroke-dasharray:5.0,5.0;" x1="2228.5" x2="2228.5" y1="88.2422" y2="1355.8828"/><text fill="#000000" font-family="FG Virgil" font-size="14" lengthAdjust="spacing" textLength="53" x="5" y="84.7285">Teacher</text><ellipse cx="34.5" cy="18.1211" fill="#E3E3E3" rx="8" ry="8" style="stroke:#181818;stroke-width:0.5;"/><path d="M34.5,26.1211 L34.5,53.1211 M21.5,34.1211 L47.5,34.1211 M34.5,53.1211 L21.5,68.1211 M34.5,53.1211 L47.5,68.1211 " fill="none" style="stroke:#181818;stroke-width:0.5;"/><text fill="#000000" font-family="FG Virgil" font-size="14" lengthAdjust="spacing" textLength="53" x="5" y="1369.9902">Teacher</text><ellipse cx="34.5" cy="1382.0039" fill="#E3E3E3" rx="8" ry="8" style="stroke:#181818;stroke-width:0.5;"/><path d="M34.5,1390.0039 L34.5,1417.0039 M21.5,1398.0039 L47.5,1398.0039 M34.5,1417.0039 L21.5,1432.0039 M34.5,1417.0039 L47.5,1432.0039 " fill="none" style="stroke:#181818;stroke-width:0.5;"/><rect fill="#E3E3E3" height="51.2422" rx="2.5" ry="2.5" style="stroke:#181818;stroke-width:0.5;" width="120" x="162.5" y="36"/><text fill="#000000" font-family="FG Virgil" font-size="14" font-style="italic" lengthAdjust="spacing" textLength="95" x="175" y="58.1074">&#171;ui&#187;</text><text fill="#000000" font-family="FG Virgil" font-size="14" lengthAdjust="spacing" textLength="106" x="169.5" y="76.7285">ClassScheduleUI</text><rect fill="#E3E3E3" height="51.2422" rx="2.5" ry="2.5" style="stroke:#181818;stroke-width:0.5;" width="120" x="162.5" y="1354.8828"/><text fill="#000000" font-family="FG Virgil" font-size="14" font-style="italic" lengthAdjust="spacing" textLength="95" x="175" y="1376.9902">&#171;ui&#187;</text><text fill="#000000" font-family="FG Virgil" font-size="14" lengthAdjust="spacing" textLength="106" x="169.5" y="1395.6113">ClassScheduleUI</text><rect fill="#E3E3E3" height="51.2422" rx="2.5" ry="2.5" style="stroke:#181818;stroke-width:0.5;" width="233" x="500" y="36"/><text fill="#000000" font-family="FG Virgil" font-size="14" font-style="italic" lengthAdjust="spacing" textLength="84" x="574.5" y="58.1074">&#171;application&#187;</text><text fill="#000000" font-family="FG Virgil" font-size="14" lengthAdjust="spacing" textLength="219" x="507" y="76.7285">RecurrentClassScheduleController</text><rect fill="#E3E3E3" height="51.2422" rx="2.5" ry="2.5" style="stroke:#181818;stroke-width:0.5;" width="233" x="500" y="1354.8828"/><text fill="#000000" font-family="FG Virgil" font-size="14" font-style="italic" lengthAdjust="spacing" textLength="84" x="574.5" y="1376.9902">&#171;application&#187;</text><text fill="#000000" font-family="FG Virgil" font-size="14" lengthAdjust="spacing" textLength="219" x="507" y="1395.6113">RecurrentClassScheduleController</text><rect fill="#E3E3E3" height="51.2422" rx="2.5" ry="2.5" style="stroke:#181818;stroke-width:0.5;" width="204" x="743" y="36"/><text fill="#000000" font-family="FG Virgil" font-size="14" font-style="italic" lengthAdjust="spacing" textLength="84" x="803" y="58.1074">&#171;application&#187;</text><text fill="#000000" font-family="FG Virgil" font-size="14" lengthAdjust="spacing" textLength="190" x="750" y="76.7285">ListTeacherCoursesController</text><rect fill="#E3E3E3" height="51.2422" rx="2.5" ry="2.5" style="stroke:#181818;stroke-width:0.5;" width="204" x="743" y="1354.8828"/><text fill="#000000" font-family="FG Virgil" font-size="14" font-style="italic" lengthAdjust="spacing" textLength="84" x="803" y="1376.9902">&#171;application&#187;</text><text fill="#000000" font-family="FG Virgil" font-size="14" lengthAdjust="spacing" textLength="190" x="750" y="1395.6113">ListTeacherCoursesController</text><text fill="#000000" font-family="FG Virgil" font-size="14" font-style="italic" lengthAdjust="spacing" textLength="79" x="1015.5" y="66.1074">&#171;repository&#187;</text><text fill="#000000" font-family="FG Virgil" font-size="14" lengthAdjust="spacing" textLength="114" x="998" y="84.7285">CourseRepository</text><path d="M1040,15 C1040,5 1058,5 1058,5 C1058,5 1076,5 1076,15 L1076,41 C1076,51 1058,51 1058,51 C1058,51 1040,51 1040,41 L1040,15 " fill="#E3E3E3" style="stroke:#181818;stroke-width:1.5;"/><path d="M1040,15 C1040,25 1058,25 1058,25 C1058,25 1076,25 1076,15 " fill="none" style="stroke:#181818;stroke-width:1.5;"/><text fill="#000000" font-family="FG Virgil" font-size="14" font-style="italic" lengthAdjust="spacing" textLength="79" x="1015.5" y="1369.9902">&#171;repository&#187;</text><text fill="#000000" font-family="FG Virgil" font-size="14" lengthAdjust="spacing" textLength="114" x="998" y="1388.6113">CourseRepository</text><path d="M1040,1402.125 C1040,1392.125 1058,1392.125 1058,1392.125 C1058,1392.125 1076,1392.125 1076,1402.125 L1076,1428.125 C1076,1438.125 1058,1438.125 1058,1438.125 C1058,1438.125 1040,1438.125 1040,1428.125 L1040,1402.125 " fill="#E3E3E3" style="stroke:#181818;stroke-width:1.5;"/><path d="M1040,1402.125 C1040,1412.125 1058,1412.125 1058,1412.125 C1058,1412.125 1076,1412.125 1076,1402.125 " fill="none" style="stroke:#181818;stroke-width:1.5;"/><rect fill="#E3E3E3" height="51.2422" rx="2.5" ry="2.5" style="stroke:#181818;stroke-width:0.5;" width="221" x="1128" y="36"/><text fill="#000000" font-family="FG Virgil" font-size="14" font-style="italic" lengthAdjust="spacing" textLength="84" x="1196.5" y="58.1074">&#171;application&#187;</text><text fill="#000000" font-family="FG Virgil" font-size="14" lengthAdjust="spacing" textLength="207" x="1135" y="76.7285">ListAvailableClassSlotsController</text><rect fill="#E3E3E3" height="51.2422" rx="2.5" ry="2.5" style="stroke:#181818;stroke-width:0.5;" width="221" x="1128" y="1354.8828"/><text fill="#000000" font-family="FG Virgil" font-size="14" font-style="italic" lengthAdjust="spacing" textLength="84" x="1196.5" y="1376.9902">&#171;application&#187;</text><text fill="#000000" font-family="FG Virgil" font-size="14" lengthAdjust="spacing" textLength="207" x="1135" y="1395.6113">ListAvailableClassSlotsController</text><rect fill="#E3E3E3" height="51.2422" rx="2.5" ry="2.5" style="stroke:#181818;stroke-width:0.5;" width="140" x="1395.5" y="36"/><text fill="#000000" font-family="FG Virgil" font-size="14" font-style="italic" lengthAdjust="spacing" textLength="84" x="1423.5" y="58.1074">&#171;application&#187;</text><text fill="#000000" font-family="FG Virgil" font-size="14" lengthAdjust="spacing" textLength="126" x="1402.5" y="76.7285">UserSessionService</text><rect fill="#E3E3E3" height="51.2422" rx="2.5" ry="2.5" style="stroke:#181818;stroke-width:0.5;" width="140" x="1395.5" y="1354.8828"/><text fill="#000000" font-family="FG Virgil" font-size="14" font-style="italic" lengthAdjust="spacing" textLength="84" x="1423.5" y="1376.9902">&#171;application&#187;</text><text fill="#000000" font-family="FG Virgil" font-size="14" lengthAdjust="spacing" textLength="126" x="1402.5" y="1395.6113">UserSessionService</text><text fill="#000000" font-family="FG Virgil" font-size="14" font-style="italic" lengthAdjust="spacing" textLength="79" x="1587" y="66.1074">&#171;repository&#187;</text><text fill="#000000" font-family="FG Virgil" font-size="14" lengthAdjust="spacing" textLength="97" x="1578" y="84.7285">UserRepository</text><path d="M1611.5,15 C1611.5,5 1629.5,5 1629.5,5 C1629.5,5 1647.5,5 1647.5,15 L1647.5,41 C1647.5,51 1629.5,51 1629.5,51 C1629.5,51 1611.5,51 1611.5,41 L1611.5,15 " fill="#E3E3E3" style="stroke:#181818;stroke-width:1.5;"/><path d="M1611.5,15 C1611.5,25 1629.5,25 1629.5,25 C1629.5,25 1647.5,25 1647.5,15 " fill="none" style="stroke:#181818;stroke-width:1.5;"/><text fill="#000000" font-family="FG Virgil" font-size="14" font-style="italic" lengthAdjust="spacing" textLength="79" x="1587" y="1369.9902">&#171;repository&#187;</text><text fill="#000000" font-family="FG Virgil" font-size="14" lengthAdjust="spacing" textLength="97" x="1578" y="1388.6113">UserRepository</text><path d="M1611.5,1402.125 C1611.5,1392.125 1629.5,1392.125 1629.5,1392.125 C1629.5,1392.125 1647.5,1392.125 1647.5,1402.125 L1647.5,1428.125 C1647.5,1438.125 1629.5,1438.125 1629.5,1438.125 C1629.5,1438.125 1611.5,1438.125 1611.5,1428.125 L1611.5,1402.125 " fill="#E3E3E3" style="stroke:#181818;stroke-width:1.5;"/><path d="M1611.5,1402.125 C1611.5,1412.125 1629.5,1412.125 1629.5,1412.125 C1629.5,1412.125 1647.5,1412.125 1647.5,1402.125 " fill="none" style="stroke:#181818;stroke-width:1.5;"/><rect fill="#E3E3E3" height="51.2422" rx="2.5" ry="2.5" style="stroke:#181818;stroke-width:0.5;" width="113" x="1691" y="36"/><text fill="#000000" font-family="FG Virgil" font-size="14" font-style="italic" lengthAdjust="spacing" textLength="60" x="1717.5" y="58.1074">&#171;service&#187;</text><text fill="#000000" font-family="FG Virgil" font-size="14" lengthAdjust="spacing" textLength="99" x="1698" y="76.7285">ClassScheduler</text><rect fill="#E3E3E3" height="51.2422" rx="2.5" ry="2.5" style="stroke:#181818;stroke-width:0.5;" width="113" x="1691" y="1354.8828"/><text fill="#000000" font-family="FG Virgil" font-size="14" font-style="italic" lengthAdjust="spacing" textLength="60" x="1717.5" y="1376.9902">&#171;service&#187;</text><text fill="#000000" font-family="FG Virgil" font-size="14" lengthAdjust="spacing" textLength="99" x="1698" y="1395.6113">ClassScheduler</text><rect fill="#E3E3E3" height="51.2422" rx="2.5" ry="2.5" style="stroke:#181818;stroke-width:0.5;" width="156" x="1886.5" y="36"/><text fill="#000000" font-family="FG Virgil" font-size="14" font-style="italic" lengthAdjust="spacing" textLength="59" x="1935" y="58.1074">&#171;builder&#187;</text><text fill="#000000" font-family="FG Virgil" font-size="14" lengthAdjust="spacing" textLength="142" x="1893.5" y="76.7285">RecurrentClassBuilder</text><rect fill="#E3E3E3" height="51.2422" rx="2.5" ry="2.5" style="stroke:#181818;stroke-width:0.5;" width="156" x="1886.5" y="1354.8828"/><text fill="#000000" font-family="FG Virgil" font-size="14" font-style="italic" lengthAdjust="spacing" textLength="59" x="1935" y="1376.9902">&#171;builder&#187;</text><text fill="#000000" font-family="FG Virgil" font-size="14" lengthAdjust="spacing" textLength="142" x="1893.5" y="1395.6113">RecurrentClassBuilder</text><rect fill="#E3E3E3" height="51.2422" rx="2.5" ry="2.5" style="stroke:#181818;stroke-width:0.5;" width="112" x="2052.5" y="36"/><text fill="#000000" font-family="FG Virgil" font-size="14" font-style="italic" lengthAdjust="spacing" textLength="62" x="2077.5" y="58.1074">&#171;domain&#187;</text><text fill="#000000" font-family="FG Virgil" font-size="14" lengthAdjust="spacing" textLength="98" x="2059.5" y="76.7285">RecurrentClass</text><rect fill="#E3E3E3" height="51.2422" rx="2.5" ry="2.5" style="stroke:#181818;stroke-width:0.5;" width="112" x="2052.5" y="1354.8828"/><text fill="#000000" font-family="FG Virgil" font-size="14" font-style="italic" lengthAdjust="spacing" textLength="62" x="2077.5" y="1376.9902">&#171;domain&#187;</text><text fill="#000000" font-family="FG Virgil" font-size="14" lengthAdjust="spacing" textLength="98" x="2059.5" y="1395.6113">RecurrentClass</text><text fill="#000000" font-family="FG Virgil" font-size="14" font-style="italic" lengthAdjust="spacing" textLength="79" x="2186.5" y="66.1074">&#171;repository&#187;</text><text fill="#000000" font-family="FG Virgil" font-size="14" lengthAdjust="spacing" textLength="103" x="2174.5" y="84.7285">ClassRepository</text><path d="M2211,15 C2211,5 2229,5 2229,5 C2229,5 2247,5 2247,15 L2247,41 C2247,51 2229,51 2229,51 C2229,51 2211,51 2211,41 L2211,15 " fill="#E3E3E3" style="stroke:#181818;stroke-width:1.5;"/><path d="M2211,15 C2211,25 2229,25 2229,25 C2229,25 2247,25 2247,15 " fill="none" style="stroke:#181818;stroke-width:1.5;"/><text fill="#000000" font-family="FG Virgil" font-size="14" font-style="italic" lengthAdjust="spacing" textLength="79" x="2186.5" y="1369.9902">&#171;repository&#187;</text><text fill="#000000" font-family="FG Virgil" font-size="14" lengthAdjust="spacing" textLength="103" x="2174.5" y="1388.6113">ClassRepository</text><path d="M2211,1402.125 C2211,1392.125 2229,1392.125 2229,1392.125 C2229,1392.125 2247,1392.125 2247,1402.125 L2247,1428.125 C2247,1438.125 2229,1438.125 2229,1438.125 C2229,1438.125 2211,1438.125 2211,1428.125 L2211,1402.125 " fill="#E3E3E3" style="stroke:#181818;stroke-width:1.5;"/><path d="M2211,1402.125 C2211,1412.125 2229,1412.125 2229,1412.125 C2229,1412.125 2247,1412.125 2247,1402.125 " fill="none" style="stroke:#181818;stroke-width:1.5;"/><rect fill="#FFFFFF" height="1248.6406" style="stroke:#181818;stroke-width:1.0;" width="10" x="29.5" y="98.2422"/><rect fill="#FFFFFF" height="1216.3496" style="stroke:#181818;stroke-width:1.0;" width="10" x="217.5" y="121.5332"/><rect fill="#FFFFFF" height="156.4551" style="stroke:#181818;stroke-width:1.0;" width="10" x="611.5" y="152.8242"/><rect fill="#FFFFFF" height="405.7832" style="stroke:#181818;stroke-width:1.0;" width="10" x="611.5" y="433.4434"/><rect fill="#FFFFFF" height="280.6191" style="stroke:#181818;stroke-width:1.0;" width="10" x="611.5" y="1025.9727"/><rect fill="#FFFFFF" height="93.873" style="stroke:#181818;stroke-width:1.0;" width="10" x="840" y="184.1152"/><rect fill="#FFFFFF" height="31.291" style="stroke:#181818;stroke-width:1.0;" width="10" x="1053" y="215.4063"/><rect fill="#FFFFFF" height="343.2012" style="stroke:#181818;stroke-width:1.0;" width="10" x="1233.5" y="464.7344"/><rect fill="#FFFFFF" height="93.873" style="stroke:#181818;stroke-width:1.0;" width="10" x="1460.5" y="496.0254"/><rect fill="#FFFFFF" height="31.291" style="stroke:#181818;stroke-width:1.0;" width="10" x="1624.5" y="527.3164"/><rect fill="#FFFFFF" height="138.1641" style="stroke:#181818;stroke-width:1.0;" width="10" x="1742.5" y="638.4805"/><rect fill="#FFFFFF" height="200.7461" style="stroke:#181818;stroke-width:1.0;" width="10" x="1742.5" y="1074.5547"/><rect fill="#FFFFFF" height="62.582" style="stroke:#181818;stroke-width:1.0;" width="10" x="1959.5" y="1105.8457"/><rect fill="#FFFFFF" height="31.291" style="stroke:#181818;stroke-width:1.0;" width="10" x="2224" y="669.7715"/><polygon fill="#181818" points="205.5,117.5332,215.5,121.5332,205.5,125.5332,209.5,121.5332" style="stroke:#181818;stroke-width:1.0;"/><line style="stroke:#181818;stroke-width:1.0;" x1="39.5" x2="211.5" y1="121.5332" y2="121.5332"/><text fill="#000000" font-family="FG Virgil" font-size="13" font-weight="bold" lengthAdjust="spacing" textLength="7" x="46.5" y="116.2705">1</text><text fill="#000000" font-family="FG Virgil" font-size="13" lengthAdjust="spacing" textLength="147" x="57.5" y="116.2705">Asks to schedule a class</text><polygon fill="#181818" points="599.5,148.8242,609.5,152.8242,599.5,156.8242,603.5,152.8242" style="stroke:#181818;stroke-width:1.0;"/><line style="stroke:#181818;stroke-width:1.0;" x1="227.5" x2="605.5" y1="152.8242" y2="152.8242"/><text fill="#000000" font-family="FG Virgil" font-size="13" font-weight="bold" lengthAdjust="spacing" textLength="7" x="234.5" y="147.5615">2</text><text fill="#000000" font-family="FG Virgil" font-size="13" lengthAdjust="spacing" textLength="169" x="245.5" y="147.5615">getTeacherActiveCourseList()</text><polygon fill="#181818" points="828,180.1152,838,184.1152,828,188.1152,832,184.1152" style="stroke:#181818;stroke-width:1.0;"/><line style="stroke:#181818;stroke-width:1.0;" x1="621.5" x2="834" y1="184.1152" y2="184.1152"/><text fill="#000000" font-family="FG Virgil" font-size="13" font-weight="bold" lengthAdjust="spacing" textLength="7" x="628.5" y="178.8525">3</text><text fill="#000000" font-family="FG Virgil" font-size="13" lengthAdjust="spacing" textLength="169" x="639.5" y="178.8525">getTeacherActiveCourseList()</text><polygon fill="#181818" points="1041,211.4063,1051,215.4063,1041,219.4063,1045,215.4063" style="stroke:#181818;stroke-width:1.0;"/><line style="stroke:#181818;stroke-width:1.0;stroke-dasharray:2.0,2.0;" x1="850" x2="1047" y1="215.4063" y2="215.4063"/><text fill="#000000" font-family="FG Virgil" font-size="13" font-weight="bold" lengthAdjust="spacing" textLength="7" x="857" y="210.1436">4</text><text fill="#000000" font-family="FG Virgil" font-size="13" lengthAdjust="spacing" textLength="173" x="868" y="210.1436">findAvailableTeacherCourses()</text><polygon fill="#181818" points="861,242.6973,851,246.6973,861,250.6973,857,246.6973" style="stroke:#181818;stroke-width:1.0;"/><line style="stroke:#181818;stroke-width:1.0;stroke-dasharray:2.0,2.0;" x1="855" x2="1057" y1="246.6973" y2="246.6973"/><text fill="#000000" font-family="FG Virgil" font-size="13" font-weight="bold" lengthAdjust="spacing" textLength="7" x="867" y="241.4346">5</text><text fill="#000000" font-family="FG Virgil" font-size="13" lengthAdjust="spacing" textLength="104" x="878" y="241.4346">returns courseList</text><polygon fill="#181818" points="632.5,273.9883,622.5,277.9883,632.5,281.9883,628.5,277.9883" style="stroke:#181818;stroke-width:1.0;"/><line style="stroke:#181818;stroke-width:1.0;stroke-dasharray:2.0,2.0;" x1="626.5" x2="844" y1="277.9883" y2="277.9883"/><text fill="#000000" font-family="FG Virgil" font-size="13" font-weight="bold" lengthAdjust="spacing" textLength="7" x="638.5" y="272.7256">6</text><text fill="#000000" font-family="FG Virgil" font-size="13" lengthAdjust="spacing" textLength="104" x="649.5" y="272.7256">returns courseList</text><polygon fill="#181818" points="238.5,305.2793,228.5,309.2793,238.5,313.2793,234.5,309.2793" style="stroke:#181818;stroke-width:1.0;"/><line style="stroke:#181818;stroke-width:1.0;stroke-dasharray:2.0,2.0;" x1="232.5" x2="615.5" y1="309.2793" y2="309.2793"/><text fill="#000000" font-family="FG Virgil" font-size="13" font-weight="bold" lengthAdjust="spacing" textLength="7" x="244.5" y="304.0166">7</text><text fill="#000000" font-family="FG Virgil" font-size="13" lengthAdjust="spacing" textLength="60" x="255.5" y="304.0166">courseList</text><line style="stroke:#181818;stroke-width:1.0;" x1="227.5" x2="269.5" y1="340.5703" y2="340.5703"/><line style="stroke:#181818;stroke-width:1.0;" x1="269.5" x2="269.5" y1="340.5703" y2="353.5703"/><line style="stroke:#181818;stroke-width:1.0;" x1="228.5" x2="269.5" y1="353.5703" y2="353.5703"/><polygon fill="#181818" points="238.5,349.5703,228.5,353.5703,238.5,357.5703,234.5,353.5703" style="stroke:#181818;stroke-width:1.0;"/><text fill="#000000" font-family="FG Virgil" font-size="13" font-weight="bold" lengthAdjust="spacing" textLength="7" x="234.5" y="335.3076">8</text><text fill="#000000" font-family="FG Virgil" font-size="13" lengthAdjust="spacing" textLength="105" x="245.5" y="335.3076">display courseList</text><polygon fill="#181818" points="205.5,398.1523,215.5,402.1523,205.5,406.1523,209.5,402.1523" style="stroke:#181818;stroke-width:1.0;"/><line style="stroke:#181818;stroke-width:1.0;" x1="39.5" x2="211.5" y1="402.1523" y2="402.1523"/><text fill="#000000" font-family="FG Virgil" font-size="13" font-weight="bold" lengthAdjust="spacing" textLength="7" x="46.5" y="388.2441">9</text><text fill="#000000" font-family="FG Virgil" font-size="13" lengthAdjust="spacing" textLength="112" x="57.5" y="379.5986">provides the course</text><text fill="#000000" font-family="FG Virgil" font-size="13" lengthAdjust="spacing" textLength="124" x="61.5" y="396.8896">to schedule the class</text><polygon fill="#181818" points="599.5,429.4434,609.5,433.4434,599.5,437.4434,603.5,433.4434" style="stroke:#181818;stroke-width:1.0;"/><line style="stroke:#181818;stroke-width:1.0;" x1="227.5" x2="605.5" y1="433.4434" y2="433.4434"/><text fill="#000000" font-family="FG Virgil" font-size="13" font-weight="bold" lengthAdjust="spacing" textLength="14" x="234.5" y="428.1807">10</text><text fill="#000000" font-family="FG Virgil" font-size="13" lengthAdjust="spacing" textLength="347" x="252.5" y="428.1807">getAvailableRecurrentClassSlots(courseList, chosenCourse)</text><polygon fill="#181818" points="1221.5,460.7344,1231.5,464.7344,1221.5,468.7344,1225.5,464.7344" style="stroke:#181818;stroke-width:1.0;"/><line style="stroke:#181818;stroke-width:1.0;" x1="621.5" x2="1227.5" y1="464.7344" y2="464.7344"/><text fill="#000000" font-family="FG Virgil" font-size="13" font-weight="bold" lengthAdjust="spacing" textLength="14" x="628.5" y="459.4717">11</text><text fill="#000000" font-family="FG Virgil" font-size="13" lengthAdjust="spacing" textLength="347" x="646.5" y="459.4717">getAvailableRecurrentClassSlots(courseList, chosenCourse)</text><polygon fill="#181818" points="1448.5,492.0254,1458.5,496.0254,1448.5,500.0254,1452.5,496.0254" style="stroke:#181818;stroke-width:1.0;"/><line style="stroke:#181818;stroke-width:1.0;" x1="1243.5" x2="1454.5" y1="496.0254" y2="496.0254"/><text fill="#000000" font-family="FG Virgil" font-size="13" font-weight="bold" lengthAdjust="spacing" textLength="14" x="1250.5" y="490.7627">12</text><text fill="#000000" font-family="FG Virgil" font-size="13" lengthAdjust="spacing" textLength="180" x="1268.5" y="490.7627">findECourseUserByUsername()</text><polygon fill="#181818" points="1612.5,523.3164,1622.5,527.3164,1612.5,531.3164,1616.5,527.3164" style="stroke:#181818;stroke-width:1.0;"/><line style="stroke:#181818;stroke-width:1.0;" x1="1470.5" x2="1618.5" y1="527.3164" y2="527.3164"/><text fill="#000000" font-family="FG Virgil" font-size="13" font-weight="bold" lengthAdjust="spacing" textLength="14" x="1477.5" y="522.0537">13</text><text fill="#000000" font-family="FG Virgil" font-size="13" lengthAdjust="spacing" textLength="117" x="1495.5" y="522.0537">ofIdentity(username)</text><polygon fill="#181818" points="1481.5,554.6074,1471.5,558.6074,1481.5,562.6074,1477.5,558.6074" style="stroke:#181818;stroke-width:1.0;"/><line style="stroke:#181818;stroke-width:1.0;" x1="1475.5" x2="1628.5" y1="558.6074" y2="558.6074"/><text fill="#000000" font-family="FG Virgil" font-size="13" font-weight="bold" lengthAdjust="spacing" textLength="14" x="1487.5" y="553.3447">14</text><text fill="#000000" font-family="FG Virgil" font-size="13" lengthAdjust="spacing" textLength="75" x="1505.5" y="553.3447">eCourseUser</text><polygon fill="#181818" points="1254.5,585.8984,1244.5,589.8984,1254.5,593.8984,1250.5,589.8984" style="stroke:#181818;stroke-width:1.0;"/><line style="stroke:#181818;stroke-width:1.0;" x1="1248.5" x2="1464.5" y1="589.8984" y2="589.8984"/><text fill="#000000" font-family="FG Virgil" font-size="13" font-weight="bold" lengthAdjust="spacing" textLength="14" x="1260.5" y="584.6357">15</text><text fill="#000000" font-family="FG Virgil" font-size="13" lengthAdjust="spacing" textLength="75" x="1278.5" y="584.6357">eCourseUser</text><polygon fill="#181818" points="1730.5,634.4805,1740.5,638.4805,1730.5,642.4805,1734.5,638.4805" style="stroke:#181818;stroke-width:1.0;"/><line style="stroke:#181818;stroke-width:1.0;" x1="1243.5" x2="1736.5" y1="638.4805" y2="638.4805"/><text fill="#000000" font-family="FG Virgil" font-size="13" font-weight="bold" lengthAdjust="spacing" textLength="14" x="1250.5" y="624.5723">16</text><text fill="#000000" font-family="FG Virgil" font-size="13" lengthAdjust="spacing" textLength="363" x="1268.5" y="615.9268">getAvailableCourseTeacherIntersectionRecurrentSlots(courses,</text><text fill="#000000" font-family="FG Virgil" font-size="13" lengthAdjust="spacing" textLength="120" x="1272.5" y="633.2178">user, chosenCourse)</text><polygon fill="#181818" points="2212,665.7715,2222,669.7715,2212,673.7715,2216,669.7715" style="stroke:#181818;stroke-width:1.0;"/><line style="stroke:#181818;stroke-width:1.0;stroke-dasharray:2.0,2.0;" x1="1752.5" x2="2218" y1="669.7715" y2="669.7715"/><text fill="#000000" font-family="FG Virgil" font-size="13" font-weight="bold" lengthAdjust="spacing" textLength="14" x="1759.5" y="664.5088">17</text><text fill="#000000" font-family="FG Virgil" font-size="13" lengthAdjust="spacing" textLength="211" x="1777.5" y="664.5088">findCourseRecurrentClasses(course)</text><polygon fill="#181818" points="1763.5,697.0625,1753.5,701.0625,1763.5,705.0625,1759.5,701.0625" style="stroke:#181818;stroke-width:1.0;"/><line style="stroke:#181818;stroke-width:1.0;stroke-dasharray:2.0,2.0;" x1="1757.5" x2="2228" y1="701.0625" y2="701.0625"/><text fill="#000000" font-family="FG Virgil" font-size="13" font-weight="bold" lengthAdjust="spacing" textLength="14" x="1769.5" y="695.7998">18</text><text fill="#000000" font-family="FG Virgil" font-size="13" lengthAdjust="spacing" textLength="130" x="1787.5" y="695.7998">returns courseClasses</text><line style="stroke:#181818;stroke-width:1.0;" x1="1752.5" x2="1794.5" y1="737.3535" y2="737.3535"/><line style="stroke:#181818;stroke-width:1.0;" x1="1794.5" x2="1794.5" y1="737.3535" y2="750.3535"/><line style="stroke:#181818;stroke-width:1.0;" x1="1747.5" x2="1794.5" y1="750.3535" y2="750.3535"/><polygon fill="#181818" points="1757.5,746.3535,1747.5,750.3535,1757.5,754.3535,1753.5,750.3535" style="stroke:#181818;stroke-width:1.0;"/><text fill="#000000" font-family="FG Virgil" font-size="13" font-weight="bold" lengthAdjust="spacing" textLength="14" x="1759.5" y="732.0908">19</text><text fill="#000000" font-family="FG Virgil" font-size="13" lengthAdjust="spacing" textLength="175" x="1777.5" y="732.0908">calculates availableClassSlots</text><polygon fill="#181818" points="1254.5,772.6445,1244.5,776.6445,1254.5,780.6445,1250.5,776.6445" style="stroke:#181818;stroke-width:1.0;"/><line style="stroke:#181818;stroke-width:1.0;" x1="1248.5" x2="1746.5" y1="776.6445" y2="776.6445"/><text fill="#000000" font-family="FG Virgil" font-size="13" font-weight="bold" lengthAdjust="spacing" textLength="14" x="1260.5" y="771.3818">20</text><text fill="#000000" font-family="FG Virgil" font-size="13" lengthAdjust="spacing" textLength="156" x="1278.5" y="771.3818">returns availableClassSlots</text><polygon fill="#181818" points="632.5,803.9355,622.5,807.9355,632.5,811.9355,628.5,807.9355" style="stroke:#181818;stroke-width:1.0;"/><line style="stroke:#181818;stroke-width:1.0;stroke-dasharray:2.0,2.0;" x1="626.5" x2="1237.5" y1="807.9355" y2="807.9355"/><text fill="#000000" font-family="FG Virgil" font-size="13" font-weight="bold" lengthAdjust="spacing" textLength="14" x="638.5" y="802.6729">21</text><text fill="#000000" font-family="FG Virgil" font-size="13" lengthAdjust="spacing" textLength="156" x="656.5" y="802.6729">returns availableClassSlots</text><polygon fill="#181818" points="238.5,835.2266,228.5,839.2266,238.5,843.2266,234.5,839.2266" style="stroke:#181818;stroke-width:1.0;"/><line style="stroke:#181818;stroke-width:1.0;stroke-dasharray:2.0,2.0;" x1="232.5" x2="615.5" y1="839.2266" y2="839.2266"/><text fill="#000000" font-family="FG Virgil" font-size="13" font-weight="bold" lengthAdjust="spacing" textLength="14" x="244.5" y="833.9639">22</text><text fill="#000000" font-family="FG Virgil" font-size="13" lengthAdjust="spacing" textLength="112" x="262.5" y="833.9639">availableClassSlots</text><line style="stroke:#181818;stroke-width:1.0;" x1="227.5" x2="269.5" y1="870.5176" y2="870.5176"/><line style="stroke:#181818;stroke-width:1.0;" x1="269.5" x2="269.5" y1="870.5176" y2="883.5176"/><line style="stroke:#181818;stroke-width:1.0;" x1="228.5" x2="269.5" y1="883.5176" y2="883.5176"/><polygon fill="#181818" points="238.5,879.5176,228.5,883.5176,238.5,887.5176,234.5,883.5176" style="stroke:#181818;stroke-width:1.0;"/><text fill="#000000" font-family="FG Virgil" font-size="13" font-weight="bold" lengthAdjust="spacing" textLength="14" x="234.5" y="865.2549">23</text><text fill="#000000" font-family="FG Virgil" font-size="13" lengthAdjust="spacing" textLength="157" x="252.5" y="865.2549">display availableClassSlots</text><polygon fill="#181818" points="205.5,910.8086,215.5,914.8086,205.5,918.8086,209.5,914.8086" style="stroke:#181818;stroke-width:1.0;"/><line style="stroke:#181818;stroke-width:1.0;" x1="39.5" x2="211.5" y1="914.8086" y2="914.8086"/><text fill="#000000" font-family="FG Virgil" font-size="13" font-weight="bold" lengthAdjust="spacing" textLength="14" x="46.5" y="909.5459">24</text><text fill="#000000" font-family="FG Virgil" font-size="13" lengthAdjust="spacing" textLength="129" x="64.5" y="909.5459">provides the class slot</text><polygon fill="#181818" points="50.5,942.0996,40.5,946.0996,50.5,950.0996,46.5,946.0996" style="stroke:#181818;stroke-width:1.0;"/><line style="stroke:#181818;stroke-width:1.0;" x1="44.5" x2="216.5" y1="946.0996" y2="946.0996"/><text fill="#000000" font-family="FG Virgil" font-size="13" font-weight="bold" lengthAdjust="spacing" textLength="14" x="56.5" y="940.8369">25</text><text fill="#000000" font-family="FG Virgil" font-size="13" lengthAdjust="spacing" textLength="136" x="74.5" y="940.8369">requests the class data</text><polygon fill="#181818" points="205.5,973.3906,215.5,977.3906,205.5,981.3906,209.5,977.3906" style="stroke:#181818;stroke-width:1.0;"/><line style="stroke:#181818;stroke-width:1.0;" x1="39.5" x2="211.5" y1="977.3906" y2="977.3906"/><text fill="#000000" font-family="FG Virgil" font-size="13" font-weight="bold" lengthAdjust="spacing" textLength="14" x="46.5" y="972.1279">26</text><text fill="#000000" font-family="FG Virgil" font-size="13" lengthAdjust="spacing" textLength="133" x="64.5" y="972.1279">provides the class data</text><polygon fill="#181818" points="599.5,1021.9727,609.5,1025.9727,599.5,1029.9727,603.5,1025.9727" style="stroke:#181818;stroke-width:1.0;"/><line style="stroke:#181818;stroke-width:1.0;" x1="227.5" x2="605.5" y1="1025.9727" y2="1025.9727"/><text fill="#000000" font-family="FG Virgil" font-size="13" font-weight="bold" lengthAdjust="spacing" textLength="14" x="234.5" y="1012.0645">27</text><text fill="#000000" font-family="FG Virgil" font-size="13" lengthAdjust="spacing" textLength="161" x="252.5" y="1003.4189">scheduleClass(title, course,</text><text fill="#000000" font-family="FG Virgil" font-size="13" lengthAdjust="spacing" textLength="241" x="256.5" y="1020.71">weekDay, time, duration, course,courses)</text><polygon fill="#181818" points="1730.5,1070.5547,1740.5,1074.5547,1730.5,1078.5547,1734.5,1074.5547" style="stroke:#181818;stroke-width:1.0;"/><line style="stroke:#181818;stroke-width:1.0;" x1="621.5" x2="1736.5" y1="1074.5547" y2="1074.5547"/><text fill="#000000" font-family="FG Virgil" font-size="13" font-weight="bold" lengthAdjust="spacing" textLength="14" x="628.5" y="1060.6465">28</text><text fill="#000000" font-family="FG Virgil" font-size="13" lengthAdjust="spacing" textLength="217" x="646.5" y="1052.001">scheduleRecurrentClass(title, course,</text><text fill="#000000" font-family="FG Virgil" font-size="13" lengthAdjust="spacing" textLength="241" x="650.5" y="1069.292">weekDay, time, duration,teacher,courses)</text><polygon fill="#181818" points="1947.5,1101.8457,1957.5,1105.8457,1947.5,1109.8457,1951.5,1105.8457" style="stroke:#181818;stroke-width:1.0;"/><line style="stroke:#181818;stroke-width:1.0;" x1="1752.5" x2="1953.5" y1="1105.8457" y2="1105.8457"/><text fill="#000000" font-family="FG Virgil" font-size="13" font-weight="bold" lengthAdjust="spacing" textLength="14" x="1759.5" y="1100.583">29</text><text fill="#000000" font-family="FG Virgil" font-size="13" lengthAdjust="spacing" textLength="35" x="1777.5" y="1100.583">build()</text><polygon fill="#181818" points="2096.5,1133.1367,2106.5,1137.1367,2096.5,1141.1367,2100.5,1137.1367" style="stroke:#181818;stroke-width:1.0;"/><line style="stroke:#181818;stroke-width:1.0;" x1="1969.5" x2="2102.5" y1="1137.1367" y2="1137.1367"/><text fill="#000000" font-family="FG Virgil" font-size="13" font-weight="bold" lengthAdjust="spacing" textLength="14" x="1976.5" y="1131.874">30</text><text fill="#000000" font-family="FG Virgil" font-size="13" lengthAdjust="spacing" textLength="44" x="1994.5" y="1131.874">create()</text><polygon fill="#181818" points="1763.5,1164.4277,1753.5,1168.4277,1763.5,1172.4277,1759.5,1168.4277" style="stroke:#181818;stroke-width:1.0;"/><line style="stroke:#181818;stroke-width:1.0;" x1="1757.5" x2="1963.5" y1="1168.4277" y2="1168.4277"/><text fill="#000000" font-family="FG Virgil" font-size="13" font-weight="bold" lengthAdjust="spacing" textLength="14" x="1769.5" y="1163.165">31</text><text fill="#000000" font-family="FG Virgil" font-size="13" lengthAdjust="spacing" textLength="75" x="1787.5" y="1163.165">returns class</text><line style="stroke:#181818;stroke-width:1.0;" x1="1752.5" x2="1794.5" y1="1199.7188" y2="1199.7188"/><line style="stroke:#181818;stroke-width:1.0;" x1="1794.5" x2="1794.5" y1="1199.7188" y2="1212.7188"/><line style="stroke:#181818;stroke-width:1.0;" x1="1753.5" x2="1794.5" y1="1212.7188" y2="1212.7188"/><polygon fill="#181818" points="1763.5,1208.7188,1753.5,1212.7188,1763.5,1216.7188,1759.5,1212.7188" style="stroke:#181818;stroke-width:1.0;"/><text fill="#000000" font-family="FG Virgil" font-size="13" font-weight="bold" lengthAdjust="spacing" textLength="14" x="1759.5" y="1194.4561">32</text><text fill="#000000" font-family="FG Virgil" font-size="13" lengthAdjust="spacing" textLength="107" x="1777.5" y="1194.4561">validates the class</text><polygon fill="#181818" points="2217,1240.0098,2227,1244.0098,2217,1248.0098,2221,1244.0098" style="stroke:#181818;stroke-width:1.0;"/><line style="stroke:#181818;stroke-width:1.0;" x1="1752.5" x2="2223" y1="1244.0098" y2="1244.0098"/><text fill="#000000" font-family="FG Virgil" font-size="13" font-weight="bold" lengthAdjust="spacing" textLength="14" x="1759.5" y="1238.7471">33</text><text fill="#000000" font-family="FG Virgil" font-size="13" lengthAdjust="spacing" textLength="65" x="1777.5" y="1238.7471">save(class)</text><polygon fill="#181818" points="632.5,1271.3008,622.5,1275.3008,632.5,1279.3008,628.5,1275.3008" style="stroke:#181818;stroke-width:1.0;"/><line style="stroke:#181818;stroke-width:1.0;" x1="626.5" x2="1746.5" y1="1275.3008" y2="1275.3008"/><text fill="#000000" font-family="FG Virgil" font-size="13" font-weight="bold" lengthAdjust="spacing" textLength="14" x="638.5" y="1270.0381">34</text><text fill="#000000" font-family="FG Virgil" font-size="13" lengthAdjust="spacing" textLength="86" x="656.5" y="1270.0381">returns sucess</text><polygon fill="#181818" points="238.5,1302.5918,228.5,1306.5918,238.5,1310.5918,234.5,1306.5918" style="stroke:#181818;stroke-width:1.0;"/><line style="stroke:#181818;stroke-width:1.0;" x1="232.5" x2="615.5" y1="1306.5918" y2="1306.5918"/><text fill="#000000" font-family="FG Virgil" font-size="13" font-weight="bold" lengthAdjust="spacing" textLength="14" x="244.5" y="1301.3291">35</text><text fill="#000000" font-family="FG Virgil" font-size="13" lengthAdjust="spacing" textLength="90" x="262.5" y="1301.3291">shows success</text><polygon fill="#181818" points="50.5,1333.8828,40.5,1337.8828,50.5,1341.8828,46.5,1337.8828" style="stroke:#181818;stroke-width:1.0;"/><line style="stroke:#181818;stroke-width:1.0;" x1="44.5" x2="221.5" y1="1337.8828" y2="1337.8828"/><text fill="#000000" font-family="FG Virgil" font-size="13" font-weight="bold" lengthAdjust="spacing" textLength="14" x="56.5" y="1332.6201">36</text><text fill="#000000" font-family="FG Virgil" font-size="13" lengthAdjust="spacing" textLength="90" x="74.5" y="1332.6201">shows success</text><!--SRC=[hLN1Rk8m4BtxAwoUg0G_WAfAaDskaA8z4DZJNempW8M9ixP3nT_ls8v3305wQ2KguNblPlpcZJ47KTLCioCzgahnlLP7e5OtG4mNgHa_i1qKzYo1Qk2s5ojXonffFrHbVpEaVloYVuJU2Td3c3qhrQUeTdJBf052M6DLrHmte0dZLccw0iRte2apT4MGP0KNDQiiVSaaCwR0ODb8M2zU76Ize6zljGO3bMLMgEhzFIKjWJTQOpHXPzYZLbA2zbcA3BEmkfQ23oR9XR5jNvbgj05pbI2_JL0oopRC0FRjAKkebH5umxDdP4jawEvigEBin8Ha6-pMjowLlIaxUzBuse0km1WC5Q1FWaDGhIWUzEj8LzsktVU73IVoXkuoNyM4ke_dCc-4B2DjZgnDE7ZC2l0SuQKwCd6bkaDSYvxVg8v_w3jnOXRGRoiwUNUUcjAPEHXg5JNjbIYZt6MyeDSBWaZ4etkcT0VH8JC7W31qDyRHwuLJP0JHoCc_piapacSJvA1bfdGhgh8pHkh9FYbR4eHFOYKDjj6LeRohG4heWn4rYLTv3Cx35Q9Emo2yPz36OqfXQidEVUn5w5ghaoW1nTv3Y_XR9ShxWDS-rRkJuMh7tQACBhN6bEyLlWz1fS5XpBuf8oOYBfcxMr64OVqCABTKyxFxN-7Rs1yL8ebRI4ToVfrIjLsKM5lOywXf2Nsy0v6maR4GN8hqnz12Gt9ix3uGUsWRTrkRYX4ehTSMbGNynjshqQdK5yYCSNokxRigOGM27s_fF7ewFf9ztI7cx9DpT7OUh1rQJUtQ4XDxEqhG830uaxoH63AKtRwnTwZ19B7OCrxKytgddl2SWVhRzGG-l6P3f7lxvX3K8AHDjFAz_cl0s3x2FQkFStX4Rp_ZzleUHkXb2UDsHCuWdm277-myfbOSCL0sslyETP3MIqFR6cOOywUE-NeX6-myKAYrfoyrnqh-foXvM-S40zwzpamQy13ZxLdgIVzizOqnJwruObAKtecNLou2_6uOTeAHFt-DWSHGfk5WRhmNbFApCdlrwM7NkCuygniKITw61VaF]--></g></svg>