<?xml version="1.0" encoding="us-ascii" standalone="no"?><svg xmlns="http://www.w3.org/2000/svg" xmlns:xlink="http://www.w3.org/1999/xlink" contentStyleType="text/css" height="1695px" preserveAspectRatio="none" style="width:2726px;height:1695px;background:#FFFFFF;" version="1.1" viewBox="0 0 2726 1695" width="2726px" zoomAndPan="magnify"><defs/><g><!--cluster ui--><g id="cluster_presentation"><rect fill="none" height="101" rx="2.5" ry="2.5" style="stroke:#000000;stroke-width:1.5;" width="170" x="165.5" y="221"/><text fill="#000000" font-family="FG Virgil" font-size="14" font-weight="bold" lengthAdjust="spacing" textLength="90" x="205.5" y="238.1074">ui</text></g><!--cluster ecourseclassmanagement--><g id="cluster_ecourseclassmanagement"><rect fill="none" height="1004" rx="2.5" ry="2.5" style="stroke:#000000;stroke-width:1.5;" width="2349" x="7" y="346"/><text fill="#000000" font-family="FG Virgil" font-size="14" font-weight="bold" lengthAdjust="spacing" textLength="184" x="1089.5" y="363.1074">ecourseclassmanagement</text></g><!--cluster application--><g id="cluster_application"><rect fill="none" height="157" rx="2.5" ry="2.5" style="stroke:#000000;stroke-width:1.5;" width="995.5" x="31" y="391"/><text fill="#000000" font-family="FG Virgil" font-size="14" font-weight="bold" lengthAdjust="spacing" textLength="77" x="490.25" y="408.1074">application</text></g><!--cluster repository--><g id="cluster_repository"><rect fill="none" height="139" rx="2.5" ry="2.5" style="stroke:#000000;stroke-width:1.5;" width="399" x="1933" y="710"/><text fill="#000000" font-family="FG Virgil" font-size="14" font-weight="bold" lengthAdjust="spacing" textLength="72" x="2096.5" y="727.1074">repository</text></g><!--cluster domain--><g id="cluster_domain"><rect fill="none" height="754" rx="2.5" ry="2.5" style="stroke:#000000;stroke-width:1.5;" width="1235.5" x="535" y="572"/><text fill="#000000" font-family="FG Virgil" font-size="14" font-weight="bold" lengthAdjust="spacing" textLength="51" x="1127.25" y="589.1074">domain</text></g><!--cluster builder--><g id="cluster_builder"><rect fill="none" height="231" rx="2.5" ry="2.5" style="stroke:#000000;stroke-width:1.5;" width="233" x="690.5" y="816"/><text fill="#000000" font-family="FG Virgil" font-size="14" font-weight="bold" lengthAdjust="spacing" textLength="50" x="782" y="833.1074">builder</text></g><!--cluster services--><g id="cluster_services"><rect fill="none" height="175" rx="2.5" ry="2.5" style="stroke:#000000;stroke-width:1.5;" width="496" x="559" y="617"/><text fill="#000000" font-family="FG Virgil" font-size="14" font-weight="bold" lengthAdjust="spacing" textLength="61" x="776.5" y="634.1074">services</text></g><!--cluster ecoursecoursemanagement--><g id="cluster_ecoursecoursemanagement"><rect fill="none" height="315" rx="2.5" ry="2.5" style="stroke:#000000;stroke-width:1.5;" width="829" x="1513" y="1374"/><text fill="#000000" font-family="FG Virgil" font-size="14" font-weight="bold" lengthAdjust="spacing" textLength="197" x="1829" y="1391.1074">ecoursecoursemanagement</text></g><!--cluster repository--><g id="cluster_repository"><rect fill="none" height="121" rx="2.5" ry="2.5" style="stroke:#000000;stroke-width:1.5;" width="371" x="1947" y="1544"/><text fill="#000000" font-family="FG Virgil" font-size="14" font-weight="bold" lengthAdjust="spacing" textLength="72" x="2096.5" y="1561.1074">repository</text></g><!--cluster domain--><g id="cluster_domain"><rect fill="none" height="101" rx="2.5" ry="2.5" style="stroke:#000000;stroke-width:1.5;" width="110" x="2077.5" y="1419"/><text fill="#000000" font-family="FG Virgil" font-size="14" font-weight="bold" lengthAdjust="spacing" textLength="51" x="2107" y="1436.1074">domain</text></g><!--cluster application--><g id="cluster_application"><rect fill="none" height="121" rx="2.5" ry="2.5" style="stroke:#000000;stroke-width:1.5;" width="368" x="1537" y="1419"/><text fill="#000000" font-family="FG Virgil" font-size="14" font-weight="bold" lengthAdjust="spacing" textLength="77" x="1682.5" y="1436.1074">application</text></g><!--cluster usermanagement--><g id="cluster_usermanagement"><rect fill="none" height="315" rx="2.5" ry="2.5" style="stroke:#000000;stroke-width:1.5;" width="661" x="1569.5" y="7"/><text fill="#000000" font-family="FG Virgil" font-size="14" font-weight="bold" lengthAdjust="spacing" textLength="122" x="1839" y="24.1074">usermanagement</text></g><!--cluster repository--><g id="cluster_repository"><rect fill="none" height="101" rx="2.5" ry="2.5" style="stroke:#000000;stroke-width:1.5;" width="162" x="1640" y="52"/><text fill="#000000" font-family="FG Virgil" font-size="14" font-weight="bold" lengthAdjust="spacing" textLength="72" x="1685" y="69.1074">repository</text></g><!--cluster application--><g id="cluster_application"><rect fill="none" height="121" rx="2.5" ry="2.5" style="stroke:#000000;stroke-width:1.5;" width="255" x="1593.5" y="177"/><text fill="#000000" font-family="FG Virgil" font-size="14" font-weight="bold" lengthAdjust="spacing" textLength="77" x="1682.5" y="194.1074">application</text></g><!--cluster domain--><g id="cluster_domain"><rect fill="none" height="101" rx="2.5" ry="2.5" style="stroke:#000000;stroke-width:1.5;" width="148" x="2058.5" y="192"/><text fill="#000000" font-family="FG Virgil" font-size="14" font-weight="bold" lengthAdjust="spacing" textLength="51" x="2107" y="209.1074">domain</text></g><!--cluster EAPLIFRAMEWORK--><g id="cluster_EAPLIFRAMEWORK"><rect fill="none" height="309" rx="2.5" ry="2.5" style="stroke:#000000;stroke-width:1.5;" width="340" x="2380" y="31"/><text fill="#000000" font-family="FG Virgil" font-size="14" font-weight="bold" lengthAdjust="spacing" textLength="133" x="2483.5" y="48.1074">EAPLIFRAMEWORK</text></g><!--class ClassScheduleUI--><g id="elem_ClassScheduleUI"><rect codeLine="9" fill="#F1F1F1" height="48" id="ClassScheduleUI" rx="2.5" ry="2.5" style="stroke:#181818;stroke-width:0.5;" width="138" x="181.5" y="258"/><ellipse cx="196.5" cy="274" fill="#ADD1B2" rx="11" ry="11" style="stroke:#181818;stroke-width:1.0;"/><path d="M199.2656,269.875 Q199.4219,269.6563 199.6094,269.5469 Q199.7969,269.4375 200.0156,269.4375 Q200.3906,269.4375 200.625,269.7031 Q200.8594,269.9531 200.8594,270.5625 L200.8594,272.0156 Q200.8594,272.625 200.625,272.8906 Q200.3906,273.1563 200.0156,273.1563 Q199.6719,273.1563 199.4688,272.9531 Q199.2656,272.7656 199.1563,272.25 Q199.1094,271.8906 198.9219,271.7031 Q198.5938,271.3281 197.9844,271.1094 Q197.375,270.8906 196.75,270.8906 Q195.9844,270.8906 195.3438,271.2188 Q194.7188,271.5469 194.2188,272.2969 Q193.7344,273.0469 193.7344,274.0781 L193.7344,275.1719 Q193.7344,276.4063 194.625,277.2344 Q195.5156,278.0469 197.1094,278.0469 Q198.0469,278.0469 198.7031,277.7969 Q199.0938,277.6406 199.5156,277.2031 Q199.7813,276.9375 199.9219,276.8594 Q200.0781,276.7813 200.2813,276.7813 Q200.6094,276.7813 200.8594,277.0469 Q201.125,277.2969 201.125,277.6406 Q201.125,277.9844 200.7813,278.3906 Q200.2813,278.9688 199.4844,279.2969 Q198.4063,279.75 197.1094,279.75 Q195.5938,279.75 194.3906,279.125 Q193.4063,278.625 192.7188,277.5625 Q192.0313,276.4844 192.0313,275.2031 L192.0313,274.0469 Q192.0313,272.7188 192.6406,271.5781 Q193.2656,270.4219 194.3594,269.8125 Q195.4531,269.1875 196.6875,269.1875 Q197.4219,269.1875 198.0625,269.3594 Q198.7188,269.5156 199.2656,269.875 Z " fill="#000000"/><text fill="#000000" font-family="FG Virgil" font-size="14" lengthAdjust="spacing" textLength="106" x="210.5" y="279.7969">ClassScheduleUI</text><line style="stroke:#181818;stroke-width:0.5;" x1="182.5" x2="318.5" y1="290" y2="290"/><line style="stroke:#181818;stroke-width:0.5;" x1="182.5" x2="318.5" y1="298" y2="298"/></g><!--class ListAvailableClassSlotsController--><g id="elem_ListAvailableClassSlotsController"><rect codeLine="17" fill="#F1F1F1" height="66.6211" id="ListAvailableClassSlotsController" rx="2.5" ry="2.5" style="stroke:#181818;stroke-width:0.5;" width="407" x="603.5" y="446.5"/><ellipse cx="699.25" cy="462.5" fill="#ADD1B2" rx="11" ry="11" style="stroke:#181818;stroke-width:1.0;"/><path d="M702.0156,458.375 Q702.1719,458.1563 702.3594,458.0469 Q702.5469,457.9375 702.7656,457.9375 Q703.1406,457.9375 703.375,458.2031 Q703.6094,458.4531 703.6094,459.0625 L703.6094,460.5156 Q703.6094,461.125 703.375,461.3906 Q703.1406,461.6563 702.7656,461.6563 Q702.4219,461.6563 702.2188,461.4531 Q702.0156,461.2656 701.9063,460.75 Q701.8594,460.3906 701.6719,460.2031 Q701.3438,459.8281 700.7344,459.6094 Q700.125,459.3906 699.5,459.3906 Q698.7344,459.3906 698.0938,459.7188 Q697.4688,460.0469 696.9688,460.7969 Q696.4844,461.5469 696.4844,462.5781 L696.4844,463.6719 Q696.4844,464.9063 697.375,465.7344 Q698.2656,466.5469 699.8594,466.5469 Q700.7969,466.5469 701.4531,466.2969 Q701.8438,466.1406 702.2656,465.7031 Q702.5313,465.4375 702.6719,465.3594 Q702.8281,465.2813 703.0313,465.2813 Q703.3594,465.2813 703.6094,465.5469 Q703.875,465.7969 703.875,466.1406 Q703.875,466.4844 703.5313,466.8906 Q703.0313,467.4688 702.2344,467.7969 Q701.1563,468.25 699.8594,468.25 Q698.3438,468.25 697.1406,467.625 Q696.1563,467.125 695.4688,466.0625 Q694.7813,464.9844 694.7813,463.7031 L694.7813,462.5469 Q694.7813,461.2188 695.3906,460.0781 Q696.0156,458.9219 697.1094,458.3125 Q698.2031,457.6875 699.4375,457.6875 Q700.1719,457.6875 700.8125,457.8594 Q701.4688,458.0156 702.0156,458.375 Z " fill="#000000"/><text fill="#000000" font-family="FG Virgil" font-size="14" lengthAdjust="spacing" textLength="207" x="719.75" y="468.2969">ListAvailableClassSlotsController</text><line style="stroke:#181818;stroke-width:0.5;" x1="604.5" x2="1009.5" y1="478.5" y2="478.5"/><line style="stroke:#181818;stroke-width:0.5;" x1="604.5" x2="1009.5" y1="486.5" y2="486.5"/><ellipse cx="614.5" cy="501.3105" fill="#84BE84" rx="3" ry="3" style="stroke:#038048;stroke-width:1.0;"/><text fill="#000000" font-family="FG Virgil" font-size="14" lengthAdjust="spacing" textLength="381" x="623.5" y="505.6074">getAvailableRecurrentClassSlots(courseList, chosenCourse)</text></g><!--class RecurrentClassScheduleController--><g id="elem_RecurrentClassScheduleController"><rect codeLine="21" fill="#F1F1F1" height="103.8633" id="RecurrentClassScheduleController" rx="2.5" ry="2.5" style="stroke:#181818;stroke-width:0.5;" width="407" x="47" y="428"/><ellipse cx="136.75" cy="444" fill="#ADD1B2" rx="11" ry="11" style="stroke:#181818;stroke-width:1.0;"/><path d="M139.5156,439.875 Q139.6719,439.6563 139.8594,439.5469 Q140.0469,439.4375 140.2656,439.4375 Q140.6406,439.4375 140.875,439.7031 Q141.1094,439.9531 141.1094,440.5625 L141.1094,442.0156 Q141.1094,442.625 140.875,442.8906 Q140.6406,443.1563 140.2656,443.1563 Q139.9219,443.1563 139.7188,442.9531 Q139.5156,442.7656 139.4063,442.25 Q139.3594,441.8906 139.1719,441.7031 Q138.8438,441.3281 138.2344,441.1094 Q137.625,440.8906 137,440.8906 Q136.2344,440.8906 135.5938,441.2188 Q134.9688,441.5469 134.4688,442.2969 Q133.9844,443.0469 133.9844,444.0781 L133.9844,445.1719 Q133.9844,446.4063 134.875,447.2344 Q135.7656,448.0469 137.3594,448.0469 Q138.2969,448.0469 138.9531,447.7969 Q139.3438,447.6406 139.7656,447.2031 Q140.0313,446.9375 140.1719,446.8594 Q140.3281,446.7813 140.5313,446.7813 Q140.8594,446.7813 141.1094,447.0469 Q141.375,447.2969 141.375,447.6406 Q141.375,447.9844 141.0313,448.3906 Q140.5313,448.9688 139.7344,449.2969 Q138.6563,449.75 137.3594,449.75 Q135.8438,449.75 134.6406,449.125 Q133.6563,448.625 132.9688,447.5625 Q132.2813,446.4844 132.2813,445.2031 L132.2813,444.0469 Q132.2813,442.7188 132.8906,441.5781 Q133.5156,440.4219 134.6094,439.8125 Q135.7031,439.1875 136.9375,439.1875 Q137.6719,439.1875 138.3125,439.3594 Q138.9688,439.5156 139.5156,439.875 Z " fill="#000000"/><text fill="#000000" font-family="FG Virgil" font-size="14" lengthAdjust="spacing" textLength="219" x="157.25" y="449.7969">RecurrentClassScheduleController</text><line style="stroke:#181818;stroke-width:0.5;" x1="48" x2="453" y1="460" y2="460"/><line style="stroke:#181818;stroke-width:0.5;" x1="48" x2="453" y1="468" y2="468"/><ellipse cx="58" cy="482.8105" fill="#84BE84" rx="3" ry="3" style="stroke:#038048;stroke-width:1.0;"/><text fill="#000000" font-family="FG Virgil" font-size="14" lengthAdjust="spacing" textLength="334" x="67" y="487.1074">scheduleClass(title, course, weekDay, time, duration)</text><ellipse cx="58" cy="501.4316" fill="#84BE84" rx="3" ry="3" style="stroke:#038048;stroke-width:1.0;"/><text fill="#000000" font-family="FG Virgil" font-size="14" lengthAdjust="spacing" textLength="381" x="67" y="505.7285">getAvailableRecurrentClassSlots(courseList, chosenCourse)</text><ellipse cx="58" cy="520.0527" fill="#84BE84" rx="3" ry="3" style="stroke:#038048;stroke-width:1.0;"/><text fill="#000000" font-family="FG Virgil" font-size="14" lengthAdjust="spacing" textLength="310" x="67" y="524.3496">getAvailableTeacherCourses(): Iterable&lt;Course&gt;</text></g><!--class ClassRepository--><g id="elem_ClassRepository"><rect codeLine="31" fill="#F1F1F1" height="85.2422" id="ClassRepository" rx="2.5" ry="2.5" style="stroke:#181818;stroke-width:0.5;" width="367" x="1949" y="747.5"/><ellipse cx="2076.75" cy="763.5" fill="#B4A7E5" rx="11" ry="11" style="stroke:#181818;stroke-width:1.0;"/><path d="M2077.7031,760.1406 L2077.7031,766.7969 L2079.4219,766.7969 Q2080.0313,766.7969 2080.2969,767.0313 Q2080.5625,767.2656 2080.5625,767.6563 Q2080.5625,768.0313 2080.2969,768.2656 Q2080.0313,768.5 2079.4219,768.5 L2074.2813,768.5 Q2073.6719,768.5 2073.4063,768.2656 Q2073.1406,768.0313 2073.1406,767.6406 Q2073.1406,767.2656 2073.4063,767.0313 Q2073.6719,766.7969 2074.2813,766.7969 L2076,766.7969 L2076,760.1406 L2074.2813,760.1406 Q2073.6719,760.1406 2073.4063,759.9063 Q2073.1406,759.6719 2073.1406,759.2813 Q2073.1406,758.9063 2073.4063,758.6719 Q2073.6719,758.4375 2074.2813,758.4375 L2079.4219,758.4375 Q2080.0313,758.4375 2080.2969,758.6719 Q2080.5625,758.9063 2080.5625,759.2813 Q2080.5625,759.6719 2080.2969,759.9063 Q2080.0313,760.1406 2079.4219,760.1406 L2077.7031,760.1406 Z " fill="#000000"/><text fill="#000000" font-family="FG Virgil" font-size="14" font-style="italic" lengthAdjust="spacing" textLength="103" x="2097.25" y="769.2969">ClassRepository</text><line style="stroke:#181818;stroke-width:0.5;" x1="1950" x2="2315" y1="779.5" y2="779.5"/><line style="stroke:#181818;stroke-width:0.5;" x1="1950" x2="2315" y1="787.5" y2="787.5"/><ellipse cx="1960" cy="802.3105" fill="#84BE84" rx="3" ry="3" style="stroke:#038048;stroke-width:1.0;"/><text fill="#000000" font-family="FG Virgil" font-size="14" lengthAdjust="spacing" textLength="341" x="1969" y="806.6074">findCourseClasses(course): Iterable&lt;RecurrentClass&gt;</text><ellipse cx="1960" cy="820.9316" fill="#84BE84" rx="3" ry="3" style="stroke:#038048;stroke-width:1.0;"/><text fill="#000000" font-family="FG Virgil" font-size="14" lengthAdjust="spacing" textLength="72" x="1969" y="825.2285">save(class)</text></g><!--class Class--><g id="elem_Class"><rect codeLine="53" fill="#F1F1F1" height="48" id="Class" rx="2.5" ry="2.5" style="stroke:#181818;stroke-width:0.5;" width="67" x="1687.5" y="871"/><ellipse cx="1702.5" cy="887" fill="#A9DCDF" rx="11" ry="11" style="stroke:#181818;stroke-width:1.0;"/><path d="M1704.6875,888.7656 L1700.5469,888.7656 L1700.125,889.7969 L1700.5469,889.7969 Q1701.1563,889.7969 1701.4219,890.0313 Q1701.6875,890.2656 1701.6875,890.6563 Q1701.6875,891.0313 1701.4219,891.2656 Q1701.1563,891.5 1700.5469,891.5 L1698.25,891.5 Q1697.6406,891.5 1697.3906,891.2656 Q1697.125,891.0313 1697.125,890.6406 Q1697.125,890.2656 1697.4063,890.0313 Q1697.6719,889.7813 1698.2969,889.7969 L1700.9688,883.1406 L1699.8594,883.1406 Q1699.25,883.1406 1698.9844,882.9063 Q1698.7188,882.6719 1698.7188,882.2813 Q1698.7188,881.9063 1698.9844,881.6719 Q1699.25,881.4375 1699.8594,881.4375 L1703.5313,881.4375 L1706.9219,889.7969 Q1707.5156,889.7969 1707.7031,889.9375 Q1708.0938,890.2031 1708.0938,890.6563 Q1708.0938,891.0313 1707.8281,891.2656 Q1707.5781,891.5 1706.9688,891.5 L1704.6719,891.5 Q1704.0625,891.5 1703.7969,891.2656 Q1703.5313,891.0313 1703.5313,890.6406 Q1703.5313,890.2656 1703.7969,890.0313 Q1704.0625,889.7969 1704.6719,889.7969 L1705.0938,889.7969 L1704.6875,888.7656 Z M1703.9688,887.0625 L1702.6094,883.6875 L1701.2344,887.0625 L1703.9688,887.0625 Z " fill="#000000"/><text fill="#000000" font-family="FG Virgil" font-size="14" font-style="italic" lengthAdjust="spacing" textLength="35" x="1716.5" y="892.7969">Class</text><line style="stroke:#181818;stroke-width:0.5;" x1="1688.5" x2="1753.5" y1="903" y2="903"/><line style="stroke:#181818;stroke-width:0.5;" x1="1688.5" x2="1753.5" y1="911" y2="911"/></g><!--class ClassDuration--><g id="elem_ClassDuration"><rect codeLine="57" fill="#F1F1F1" height="66.6211" id="ClassDuration" rx="2.5" ry="2.5" style="stroke:#181818;stroke-width:0.5;" width="122" x="1367" y="810.5"/><ellipse cx="1382.45" cy="826.5" fill="#ADD1B2" rx="11" ry="11" style="stroke:#181818;stroke-width:1.0;"/><path d="M1385.2156,822.375 Q1385.3719,822.1563 1385.5594,822.0469 Q1385.7469,821.9375 1385.9656,821.9375 Q1386.3406,821.9375 1386.575,822.2031 Q1386.8094,822.4531 1386.8094,823.0625 L1386.8094,824.5156 Q1386.8094,825.125 1386.575,825.3906 Q1386.3406,825.6563 1385.9656,825.6563 Q1385.6219,825.6563 1385.4188,825.4531 Q1385.2156,825.2656 1385.1063,824.75 Q1385.0594,824.3906 1384.8719,824.2031 Q1384.5438,823.8281 1383.9344,823.6094 Q1383.325,823.3906 1382.7,823.3906 Q1381.9344,823.3906 1381.2938,823.7188 Q1380.6688,824.0469 1380.1688,824.7969 Q1379.6844,825.5469 1379.6844,826.5781 L1379.6844,827.6719 Q1379.6844,828.9063 1380.575,829.7344 Q1381.4656,830.5469 1383.0594,830.5469 Q1383.9969,830.5469 1384.6531,830.2969 Q1385.0438,830.1406 1385.4656,829.7031 Q1385.7313,829.4375 1385.8719,829.3594 Q1386.0281,829.2813 1386.2313,829.2813 Q1386.5594,829.2813 1386.8094,829.5469 Q1387.075,829.7969 1387.075,830.1406 Q1387.075,830.4844 1386.7313,830.8906 Q1386.2313,831.4688 1385.4344,831.7969 Q1384.3563,832.25 1383.0594,832.25 Q1381.5438,832.25 1380.3406,831.625 Q1379.3563,831.125 1378.6688,830.0625 Q1377.9813,828.9844 1377.9813,827.7031 L1377.9813,826.5469 Q1377.9813,825.2188 1378.5906,824.0781 Q1379.2156,822.9219 1380.3094,822.3125 Q1381.4031,821.6875 1382.6375,821.6875 Q1383.3719,821.6875 1384.0125,821.8594 Q1384.6688,822.0156 1385.2156,822.375 Z " fill="#000000"/><text fill="#000000" font-family="FG Virgil" font-size="14" lengthAdjust="spacing" textLength="89" x="1396.55" y="832.2969">ClassDuration</text><line style="stroke:#181818;stroke-width:0.5;" x1="1368" x2="1488" y1="842.5" y2="842.5"/><rect fill="none" height="6" style="stroke:#C82930;stroke-width:1.0;" width="6" x="1375" y="854.3105"/><text fill="#000000" font-family="FG Virgil" font-size="14" lengthAdjust="spacing" textLength="96" x="1387" y="861.6074">duration : Float</text><line style="stroke:#181818;stroke-width:0.5;" x1="1368" x2="1488" y1="869.1211" y2="869.1211"/></g><!--class ClassTitle--><g id="elem_ClassTitle"><rect codeLine="61" fill="#F1F1F1" height="66.6211" id="ClassTitle" rx="2.5" ry="2.5" style="stroke:#181818;stroke-width:0.5;" width="97" x="1379.5" y="912.5"/><ellipse cx="1395.85" cy="928.5" fill="#ADD1B2" rx="11" ry="11" style="stroke:#181818;stroke-width:1.0;"/><path d="M1398.6156,924.375 Q1398.7719,924.1563 1398.9594,924.0469 Q1399.1469,923.9375 1399.3656,923.9375 Q1399.7406,923.9375 1399.975,924.2031 Q1400.2094,924.4531 1400.2094,925.0625 L1400.2094,926.5156 Q1400.2094,927.125 1399.975,927.3906 Q1399.7406,927.6563 1399.3656,927.6563 Q1399.0219,927.6563 1398.8188,927.4531 Q1398.6156,927.2656 1398.5063,926.75 Q1398.4594,926.3906 1398.2719,926.2031 Q1397.9438,925.8281 1397.3344,925.6094 Q1396.725,925.3906 1396.1,925.3906 Q1395.3344,925.3906 1394.6938,925.7188 Q1394.0688,926.0469 1393.5688,926.7969 Q1393.0844,927.5469 1393.0844,928.5781 L1393.0844,929.6719 Q1393.0844,930.9063 1393.975,931.7344 Q1394.8656,932.5469 1396.4594,932.5469 Q1397.3969,932.5469 1398.0531,932.2969 Q1398.4438,932.1406 1398.8656,931.7031 Q1399.1313,931.4375 1399.2719,931.3594 Q1399.4281,931.2813 1399.6313,931.2813 Q1399.9594,931.2813 1400.2094,931.5469 Q1400.475,931.7969 1400.475,932.1406 Q1400.475,932.4844 1400.1313,932.8906 Q1399.6313,933.4688 1398.8344,933.7969 Q1397.7563,934.25 1396.4594,934.25 Q1394.9438,934.25 1393.7406,933.625 Q1392.7563,933.125 1392.0688,932.0625 Q1391.3813,930.9844 1391.3813,929.7031 L1391.3813,928.5469 Q1391.3813,927.2188 1391.9906,926.0781 Q1392.6156,924.9219 1393.7094,924.3125 Q1394.8031,923.6875 1396.0375,923.6875 Q1396.7719,923.6875 1397.4125,923.8594 Q1398.0688,924.0156 1398.6156,924.375 Z " fill="#000000"/><text fill="#000000" font-family="FG Virgil" font-size="14" lengthAdjust="spacing" textLength="62" x="1410.15" y="934.2969">ClassTitle</text><line style="stroke:#181818;stroke-width:0.5;" x1="1380.5" x2="1475.5" y1="944.5" y2="944.5"/><rect fill="none" height="6" style="stroke:#C82930;stroke-width:1.0;" width="6" x="1387.5" y="956.3105"/><text fill="#000000" font-family="FG Virgil" font-size="14" lengthAdjust="spacing" textLength="71" x="1399.5" y="963.6074">title : String</text><line style="stroke:#181818;stroke-width:0.5;" x1="1380.5" x2="1475.5" y1="971.1211" y2="971.1211"/></g><!--class RecurrentClass--><g id="elem_RecurrentClass"><rect codeLine="65" fill="#F1F1F1" height="48" id="RecurrentClass" rx="2.5" ry="2.5" style="stroke:#181818;stroke-width:0.5;" width="130" x="1363" y="1093"/><ellipse cx="1378" cy="1109" fill="#ADD1B2" rx="11" ry="11" style="stroke:#181818;stroke-width:1.0;"/><path d="M1380.7656,1104.875 Q1380.9219,1104.6563 1381.1094,1104.5469 Q1381.2969,1104.4375 1381.5156,1104.4375 Q1381.8906,1104.4375 1382.125,1104.7031 Q1382.3594,1104.9531 1382.3594,1105.5625 L1382.3594,1107.0156 Q1382.3594,1107.625 1382.125,1107.8906 Q1381.8906,1108.1563 1381.5156,1108.1563 Q1381.1719,1108.1563 1380.9688,1107.9531 Q1380.7656,1107.7656 1380.6563,1107.25 Q1380.6094,1106.8906 1380.4219,1106.7031 Q1380.0938,1106.3281 1379.4844,1106.1094 Q1378.875,1105.8906 1378.25,1105.8906 Q1377.4844,1105.8906 1376.8438,1106.2188 Q1376.2188,1106.5469 1375.7188,1107.2969 Q1375.2344,1108.0469 1375.2344,1109.0781 L1375.2344,1110.1719 Q1375.2344,1111.4063 1376.125,1112.2344 Q1377.0156,1113.0469 1378.6094,1113.0469 Q1379.5469,1113.0469 1380.2031,1112.7969 Q1380.5938,1112.6406 1381.0156,1112.2031 Q1381.2813,1111.9375 1381.4219,1111.8594 Q1381.5781,1111.7813 1381.7813,1111.7813 Q1382.1094,1111.7813 1382.3594,1112.0469 Q1382.625,1112.2969 1382.625,1112.6406 Q1382.625,1112.9844 1382.2813,1113.3906 Q1381.7813,1113.9688 1380.9844,1114.2969 Q1379.9063,1114.75 1378.6094,1114.75 Q1377.0938,1114.75 1375.8906,1114.125 Q1374.9063,1113.625 1374.2188,1112.5625 Q1373.5313,1111.4844 1373.5313,1110.2031 L1373.5313,1109.0469 Q1373.5313,1107.7188 1374.1406,1106.5781 Q1374.7656,1105.4219 1375.8594,1104.8125 Q1376.9531,1104.1875 1378.1875,1104.1875 Q1378.9219,1104.1875 1379.5625,1104.3594 Q1380.2188,1104.5156 1380.7656,1104.875 Z " fill="#000000"/><text fill="#000000" font-family="FG Virgil" font-size="14" lengthAdjust="spacing" textLength="98" x="1392" y="1114.7969">RecurrentClass</text><line style="stroke:#181818;stroke-width:0.5;" x1="1364" x2="1492" y1="1125" y2="1125"/><line style="stroke:#181818;stroke-width:0.5;" x1="1364" x2="1492" y1="1133" y2="1133"/></g><!--class RecurrentClassWeekday--><g id="elem_RecurrentClassWeekday"><rect codeLine="69" fill="#F1F1F1" height="141.1055" id="RecurrentClassWeekday" rx="2.5" ry="2.5" style="stroke:#181818;stroke-width:0.5;" width="189" x="712.5" y="1066.5"/><ellipse cx="727.5" cy="1082.5" fill="#EB937F" rx="11" ry="11" style="stroke:#181818;stroke-width:1.0;"/><path d="M726.3594,1083.2969 L726.3594,1085.7969 L730.6875,1085.7969 L730.6875,1084.875 Q730.6875,1084.2656 730.9219,1084 Q731.1719,1083.7344 731.5469,1083.7344 Q731.9219,1083.7344 732.1563,1084 Q732.3906,1084.2656 732.3906,1084.875 L732.3906,1087.5 L724.3906,1087.5 Q723.7656,1087.5 723.5,1087.2656 Q723.25,1087.0313 723.25,1086.6406 Q723.25,1086.2656 723.5156,1086.0313 Q723.7813,1085.7969 724.3906,1085.7969 L724.6563,1085.7969 L724.6563,1079.1406 L724.3906,1079.1406 Q723.7656,1079.1406 723.5,1078.9063 Q723.25,1078.6719 723.25,1078.2813 Q723.25,1077.9063 723.5,1077.6719 Q723.7656,1077.4375 724.3906,1077.4375 L732.0156,1077.4375 L732.0156,1080.0313 Q732.0156,1080.6406 731.7813,1080.9063 Q731.5625,1081.1563 731.1719,1081.1563 Q730.7969,1081.1563 730.5625,1080.9063 Q730.3281,1080.6406 730.3281,1080.0313 L730.3281,1079.1406 L726.3594,1079.1406 L726.3594,1081.5938 L727.8438,1081.5938 Q727.8438,1080.9375 727.9688,1080.75 Q728.2344,1080.3438 728.7031,1080.3438 Q729.0781,1080.3438 729.3125,1080.6094 Q729.5469,1080.8594 729.5469,1081.4688 L729.5469,1083.4375 Q729.5469,1083.9844 729.4219,1084.1719 Q729.1563,1084.5625 728.7031,1084.5625 Q728.2344,1084.5625 727.9688,1084.1563 Q727.8438,1083.9688 727.8438,1083.2969 L726.3594,1083.2969 Z " fill="#000000"/><text fill="#000000" font-family="FG Virgil" font-size="14" lengthAdjust="spacing" textLength="157" x="741.5" y="1088.2969">RecurrentClassWeekday</text><line style="stroke:#181818;stroke-width:0.5;" x1="713.5" x2="900.5" y1="1098.5" y2="1098.5"/><text fill="#000000" font-family="FG Virgil" font-size="14" lengthAdjust="spacing" textLength="59" x="718.5" y="1117.6074">MONDAY</text><text fill="#000000" font-family="FG Virgil" font-size="14" lengthAdjust="spacing" textLength="64" x="718.5" y="1136.2285">TUESDAY</text><text fill="#000000" font-family="FG Virgil" font-size="14" lengthAdjust="spacing" textLength="87" x="718.5" y="1154.8496">WEDNESDAY</text><text fill="#000000" font-family="FG Virgil" font-size="14" lengthAdjust="spacing" textLength="74" x="718.5" y="1173.4707">THURSDAY</text><text fill="#000000" font-family="FG Virgil" font-size="14" lengthAdjust="spacing" textLength="50" x="718.5" y="1192.0918">FRIDAY</text><line style="stroke:#181818;stroke-width:0.5;" x1="713.5" x2="900.5" y1="1199.6055" y2="1199.6055"/></g><!--class RecurrentClassTime--><g id="elem_RecurrentClassTime"><rect codeLine="78" fill="#F1F1F1" height="66.6211" id="RecurrentClassTime" rx="2.5" ry="2.5" style="stroke:#181818;stroke-width:0.5;" width="161" x="726.5" y="1242.5"/><ellipse cx="741.5" cy="1258.5" fill="#ADD1B2" rx="11" ry="11" style="stroke:#181818;stroke-width:1.0;"/><path d="M744.2656,1254.375 Q744.4219,1254.1563 744.6094,1254.0469 Q744.7969,1253.9375 745.0156,1253.9375 Q745.3906,1253.9375 745.625,1254.2031 Q745.8594,1254.4531 745.8594,1255.0625 L745.8594,1256.5156 Q745.8594,1257.125 745.625,1257.3906 Q745.3906,1257.6563 745.0156,1257.6563 Q744.6719,1257.6563 744.4688,1257.4531 Q744.2656,1257.2656 744.1563,1256.75 Q744.1094,1256.3906 743.9219,1256.2031 Q743.5938,1255.8281 742.9844,1255.6094 Q742.375,1255.3906 741.75,1255.3906 Q740.9844,1255.3906 740.3438,1255.7188 Q739.7188,1256.0469 739.2188,1256.7969 Q738.7344,1257.5469 738.7344,1258.5781 L738.7344,1259.6719 Q738.7344,1260.9063 739.625,1261.7344 Q740.5156,1262.5469 742.1094,1262.5469 Q743.0469,1262.5469 743.7031,1262.2969 Q744.0938,1262.1406 744.5156,1261.7031 Q744.7813,1261.4375 744.9219,1261.3594 Q745.0781,1261.2813 745.2813,1261.2813 Q745.6094,1261.2813 745.8594,1261.5469 Q746.125,1261.7969 746.125,1262.1406 Q746.125,1262.4844 745.7813,1262.8906 Q745.2813,1263.4688 744.4844,1263.7969 Q743.4063,1264.25 742.1094,1264.25 Q740.5938,1264.25 739.3906,1263.625 Q738.4063,1263.125 737.7188,1262.0625 Q737.0313,1260.9844 737.0313,1259.7031 L737.0313,1258.5469 Q737.0313,1257.2188 737.6406,1256.0781 Q738.2656,1254.9219 739.3594,1254.3125 Q740.4531,1253.6875 741.6875,1253.6875 Q742.4219,1253.6875 743.0625,1253.8594 Q743.7188,1254.0156 744.2656,1254.375 Z " fill="#000000"/><text fill="#000000" font-family="FG Virgil" font-size="14" lengthAdjust="spacing" textLength="129" x="755.5" y="1264.2969">RecurrentClassTime</text><line style="stroke:#181818;stroke-width:0.5;" x1="727.5" x2="886.5" y1="1274.5" y2="1274.5"/><rect fill="none" height="6" style="stroke:#C82930;stroke-width:1.0;" width="6" x="734.5" y="1286.3105"/><text fill="#000000" font-family="FG Virgil" font-size="14" lengthAdjust="spacing" textLength="69" x="746.5" y="1293.6074">time : Time</text><line style="stroke:#181818;stroke-width:0.5;" x1="727.5" x2="886.5" y1="1301.1211" y2="1301.1211"/></g><!--class RecurrentClassOccurrence--><g id="elem_RecurrentClassOccurrence"><rect codeLine="82" fill="#F1F1F1" height="66.6211" id="RecurrentClassOccurrence" rx="2.5" ry="2.5" style="stroke:#181818;stroke-width:0.5;" width="204" x="1099" y="1190.5"/><ellipse cx="1114" cy="1206.5" fill="#ADD1B2" rx="11" ry="11" style="stroke:#181818;stroke-width:1.0;"/><path d="M1116.7656,1202.375 Q1116.9219,1202.1563 1117.1094,1202.0469 Q1117.2969,1201.9375 1117.5156,1201.9375 Q1117.8906,1201.9375 1118.125,1202.2031 Q1118.3594,1202.4531 1118.3594,1203.0625 L1118.3594,1204.5156 Q1118.3594,1205.125 1118.125,1205.3906 Q1117.8906,1205.6563 1117.5156,1205.6563 Q1117.1719,1205.6563 1116.9688,1205.4531 Q1116.7656,1205.2656 1116.6563,1204.75 Q1116.6094,1204.3906 1116.4219,1204.2031 Q1116.0938,1203.8281 1115.4844,1203.6094 Q1114.875,1203.3906 1114.25,1203.3906 Q1113.4844,1203.3906 1112.8438,1203.7188 Q1112.2188,1204.0469 1111.7188,1204.7969 Q1111.2344,1205.5469 1111.2344,1206.5781 L1111.2344,1207.6719 Q1111.2344,1208.9063 1112.125,1209.7344 Q1113.0156,1210.5469 1114.6094,1210.5469 Q1115.5469,1210.5469 1116.2031,1210.2969 Q1116.5938,1210.1406 1117.0156,1209.7031 Q1117.2813,1209.4375 1117.4219,1209.3594 Q1117.5781,1209.2813 1117.7813,1209.2813 Q1118.1094,1209.2813 1118.3594,1209.5469 Q1118.625,1209.7969 1118.625,1210.1406 Q1118.625,1210.4844 1118.2813,1210.8906 Q1117.7813,1211.4688 1116.9844,1211.7969 Q1115.9063,1212.25 1114.6094,1212.25 Q1113.0938,1212.25 1111.8906,1211.625 Q1110.9063,1211.125 1110.2188,1210.0625 Q1109.5313,1208.9844 1109.5313,1207.7031 L1109.5313,1206.5469 Q1109.5313,1205.2188 1110.1406,1204.0781 Q1110.7656,1202.9219 1111.8594,1202.3125 Q1112.9531,1201.6875 1114.1875,1201.6875 Q1114.9219,1201.6875 1115.5625,1201.8594 Q1116.2188,1202.0156 1116.7656,1202.375 Z " fill="#000000"/><text fill="#000000" font-family="FG Virgil" font-size="14" lengthAdjust="spacing" textLength="172" x="1128" y="1212.2969">RecurrentClassOccurrence</text><line style="stroke:#181818;stroke-width:0.5;" x1="1100" x2="1302" y1="1222.5" y2="1222.5"/><rect fill="none" height="6" style="stroke:#C82930;stroke-width:1.0;" width="6" x="1107" y="1234.3105"/><text fill="#000000" font-family="FG Virgil" font-size="14" lengthAdjust="spacing" textLength="70" x="1119" y="1241.6074">date : Date</text><line style="stroke:#181818;stroke-width:0.5;" x1="1100" x2="1302" y1="1249.1211" y2="1249.1211"/></g><!--class RecurrentClassBuilder--><g id="elem_RecurrentClassBuilder"><rect codeLine="41" fill="#F1F1F1" height="178.3477" id="RecurrentClassBuilder" rx="2.5" ry="2.5" style="stroke:#181818;stroke-width:0.5;" width="201" x="706.5" y="853"/><ellipse cx="733.65" cy="869" fill="#ADD1B2" rx="11" ry="11" style="stroke:#181818;stroke-width:1.0;"/><path d="M736.4156,864.875 Q736.5719,864.6563 736.7594,864.5469 Q736.9469,864.4375 737.1656,864.4375 Q737.5406,864.4375 737.775,864.7031 Q738.0094,864.9531 738.0094,865.5625 L738.0094,867.0156 Q738.0094,867.625 737.775,867.8906 Q737.5406,868.1563 737.1656,868.1563 Q736.8219,868.1563 736.6188,867.9531 Q736.4156,867.7656 736.3063,867.25 Q736.2594,866.8906 736.0719,866.7031 Q735.7438,866.3281 735.1344,866.1094 Q734.525,865.8906 733.9,865.8906 Q733.1344,865.8906 732.4938,866.2188 Q731.8688,866.5469 731.3688,867.2969 Q730.8844,868.0469 730.8844,869.0781 L730.8844,870.1719 Q730.8844,871.4063 731.775,872.2344 Q732.6656,873.0469 734.2594,873.0469 Q735.1969,873.0469 735.8531,872.7969 Q736.2438,872.6406 736.6656,872.2031 Q736.9313,871.9375 737.0719,871.8594 Q737.2281,871.7813 737.4313,871.7813 Q737.7594,871.7813 738.0094,872.0469 Q738.275,872.2969 738.275,872.6406 Q738.275,872.9844 737.9313,873.3906 Q737.4313,873.9688 736.6344,874.2969 Q735.5563,874.75 734.2594,874.75 Q732.7438,874.75 731.5406,874.125 Q730.5563,873.625 729.8688,872.5625 Q729.1813,871.4844 729.1813,870.2031 L729.1813,869.0469 Q729.1813,867.7188 729.7906,866.5781 Q730.4156,865.4219 731.5094,864.8125 Q732.6031,864.1875 733.8375,864.1875 Q734.5719,864.1875 735.2125,864.3594 Q735.8688,864.5156 736.4156,864.875 Z " fill="#000000"/><text fill="#000000" font-family="FG Virgil" font-size="14" lengthAdjust="spacing" textLength="142" x="750.35" y="874.7969">RecurrentClassBuilder</text><line style="stroke:#181818;stroke-width:0.5;" x1="707.5" x2="906.5" y1="885" y2="885"/><line style="stroke:#181818;stroke-width:0.5;" x1="707.5" x2="906.5" y1="893" y2="893"/><ellipse cx="717.5" cy="907.8105" fill="#84BE84" rx="3" ry="3" style="stroke:#038048;stroke-width:1.0;"/><text fill="#000000" font-family="FG Virgil" font-size="14" lengthAdjust="spacing" textLength="123" x="726.5" y="912.1074">withCourse(course)</text><ellipse cx="717.5" cy="926.4316" fill="#84BE84" rx="3" ry="3" style="stroke:#038048;stroke-width:1.0;"/><text fill="#000000" font-family="FG Virgil" font-size="14" lengthAdjust="spacing" textLength="118" x="726.5" y="930.7285">withClassTitle(title)</text><ellipse cx="717.5" cy="945.0527" fill="#84BE84" rx="3" ry="3" style="stroke:#038048;stroke-width:1.0;"/><text fill="#000000" font-family="FG Virgil" font-size="14" lengthAdjust="spacing" textLength="175" x="726.5" y="949.3496">withClassDuration(duration)</text><ellipse cx="717.5" cy="963.6738" fill="#84BE84" rx="3" ry="3" style="stroke:#038048;stroke-width:1.0;"/><text fill="#000000" font-family="FG Virgil" font-size="14" lengthAdjust="spacing" textLength="91" x="726.5" y="967.9707">withTime(time)</text><ellipse cx="717.5" cy="982.2949" fill="#84BE84" rx="3" ry="3" style="stroke:#038048;stroke-width:1.0;"/><text fill="#000000" font-family="FG Virgil" font-size="14" lengthAdjust="spacing" textLength="152" x="726.5" y="986.5918">withWeekDay(weekDay)</text><ellipse cx="717.5" cy="1000.916" fill="#84BE84" rx="3" ry="3" style="stroke:#038048;stroke-width:1.0;"/><text fill="#000000" font-family="FG Virgil" font-size="14" lengthAdjust="spacing" textLength="135" x="726.5" y="1005.2129">withTeacher(teacher)</text><ellipse cx="717.5" cy="1019.5371" fill="#84BE84" rx="3" ry="3" style="stroke:#038048;stroke-width:1.0;"/><text fill="#000000" font-family="FG Virgil" font-size="14" lengthAdjust="spacing" textLength="146" x="726.5" y="1023.834">build(): RecurrentClass</text></g><!--class ClassScheduler--><g id="elem_ClassScheduler"><rect codeLine="88" fill="#F1F1F1" height="122.4844" id="ClassScheduler" rx="2.5" ry="2.5" style="stroke:#181818;stroke-width:0.5;" width="464" x="575" y="654"/><ellipse cx="753.25" cy="670" fill="#ADD1B2" rx="11" ry="11" style="stroke:#181818;stroke-width:1.0;"/><path d="M756.0156,665.875 Q756.1719,665.6563 756.3594,665.5469 Q756.5469,665.4375 756.7656,665.4375 Q757.1406,665.4375 757.375,665.7031 Q757.6094,665.9531 757.6094,666.5625 L757.6094,668.0156 Q757.6094,668.625 757.375,668.8906 Q757.1406,669.1563 756.7656,669.1563 Q756.4219,669.1563 756.2188,668.9531 Q756.0156,668.7656 755.9063,668.25 Q755.8594,667.8906 755.6719,667.7031 Q755.3438,667.3281 754.7344,667.1094 Q754.125,666.8906 753.5,666.8906 Q752.7344,666.8906 752.0938,667.2188 Q751.4688,667.5469 750.9688,668.2969 Q750.4844,669.0469 750.4844,670.0781 L750.4844,671.1719 Q750.4844,672.4063 751.375,673.2344 Q752.2656,674.0469 753.8594,674.0469 Q754.7969,674.0469 755.4531,673.7969 Q755.8438,673.6406 756.2656,673.2031 Q756.5313,672.9375 756.6719,672.8594 Q756.8281,672.7813 757.0313,672.7813 Q757.3594,672.7813 757.6094,673.0469 Q757.875,673.2969 757.875,673.6406 Q757.875,673.9844 757.5313,674.3906 Q757.0313,674.9688 756.2344,675.2969 Q755.1563,675.75 753.8594,675.75 Q752.3438,675.75 751.1406,675.125 Q750.1563,674.625 749.4688,673.5625 Q748.7813,672.4844 748.7813,671.2031 L748.7813,670.0469 Q748.7813,668.7188 749.3906,667.5781 Q750.0156,666.4219 751.1094,665.8125 Q752.2031,665.1875 753.4375,665.1875 Q754.1719,665.1875 754.8125,665.3594 Q755.4688,665.5156 756.0156,665.875 Z " fill="#000000"/><text fill="#000000" font-family="FG Virgil" font-size="14" lengthAdjust="spacing" textLength="99" x="773.75" y="675.7969">ClassScheduler</text><line style="stroke:#181818;stroke-width:0.5;" x1="576" x2="1038" y1="686" y2="686"/><line style="stroke:#181818;stroke-width:0.5;" x1="576" x2="1038" y1="694" y2="694"/><ellipse cx="586" cy="718.1211" fill="#84BE84" rx="3" ry="3" style="stroke:#038048;stroke-width:1.0;"/><text fill="#000000" font-family="FG Virgil" font-size="14" lengthAdjust="spacing" textLength="402" x="595" y="713.1074">getAvailableCourseTeacherIntersectionRecurrentSlots(courses,</text><text fill="#000000" font-family="FG Virgil" font-size="14" lengthAdjust="spacing" textLength="133" x="599" y="731.7285">user, chosenCourse)</text><ellipse cx="586" cy="755.3633" fill="#84BE84" rx="3" ry="3" style="stroke:#038048;stroke-width:1.0;"/><text fill="#000000" font-family="FG Virgil" font-size="14" lengthAdjust="spacing" textLength="438" x="595" y="750.3496">validateRecurrentClass(recurrentClassTime,recurrentClassWeekDay,</text><text fill="#000000" font-family="FG Virgil" font-size="14" lengthAdjust="spacing" textLength="252" x="595" y="768.9707">classCourse,teacher,courses) : boolean</text></g><!--class CourseRepository--><g id="elem_CourseRepository"><rect codeLine="99" fill="#F1F1F1" height="66.6211" id="CourseRepository" rx="2.5" ry="2.5" style="stroke:#181818;stroke-width:0.5;" width="339" x="1963" y="1581.5"/><ellipse cx="2071.25" cy="1597.5" fill="#B4A7E5" rx="11" ry="11" style="stroke:#181818;stroke-width:1.0;"/><path d="M2072.2031,1594.1406 L2072.2031,1600.7969 L2073.9219,1600.7969 Q2074.5313,1600.7969 2074.7969,1601.0313 Q2075.0625,1601.2656 2075.0625,1601.6563 Q2075.0625,1602.0313 2074.7969,1602.2656 Q2074.5313,1602.5 2073.9219,1602.5 L2068.7813,1602.5 Q2068.1719,1602.5 2067.9063,1602.2656 Q2067.6406,1602.0313 2067.6406,1601.6406 Q2067.6406,1601.2656 2067.9063,1601.0313 Q2068.1719,1600.7969 2068.7813,1600.7969 L2070.5,1600.7969 L2070.5,1594.1406 L2068.7813,1594.1406 Q2068.1719,1594.1406 2067.9063,1593.9063 Q2067.6406,1593.6719 2067.6406,1593.2813 Q2067.6406,1592.9063 2067.9063,1592.6719 Q2068.1719,1592.4375 2068.7813,1592.4375 L2073.9219,1592.4375 Q2074.5313,1592.4375 2074.7969,1592.6719 Q2075.0625,1592.9063 2075.0625,1593.2813 Q2075.0625,1593.6719 2074.7969,1593.9063 Q2074.5313,1594.1406 2073.9219,1594.1406 L2072.2031,1594.1406 Z " fill="#000000"/><text fill="#000000" font-family="FG Virgil" font-size="14" font-style="italic" lengthAdjust="spacing" textLength="114" x="2091.75" y="1603.2969">CourseRepository</text><line style="stroke:#181818;stroke-width:0.5;" x1="1964" x2="2301" y1="1613.5" y2="1613.5"/><line style="stroke:#181818;stroke-width:0.5;" x1="1964" x2="2301" y1="1621.5" y2="1621.5"/><ellipse cx="1974" cy="1636.3105" fill="#84BE84" rx="3" ry="3" style="stroke:#038048;stroke-width:1.0;"/><text fill="#000000" font-family="FG Virgil" font-size="14" lengthAdjust="spacing" textLength="313" x="1983" y="1640.6074">findAvailableTeacherCourses(): Iterable&lt;Course&gt;</text></g><!--class Course--><g id="elem_Course"><rect codeLine="106" fill="#F1F1F1" height="48" id="Course" rx="2.5" ry="2.5" style="stroke:#181818;stroke-width:0.5;" width="78" x="2093.5" y="1456"/><ellipse cx="2108.5" cy="1472" fill="#ADD1B2" rx="11" ry="11" style="stroke:#181818;stroke-width:1.0;"/><path d="M2111.2656,1467.875 Q2111.4219,1467.6563 2111.6094,1467.5469 Q2111.7969,1467.4375 2112.0156,1467.4375 Q2112.3906,1467.4375 2112.625,1467.7031 Q2112.8594,1467.9531 2112.8594,1468.5625 L2112.8594,1470.0156 Q2112.8594,1470.625 2112.625,1470.8906 Q2112.3906,1471.1563 2112.0156,1471.1563 Q2111.6719,1471.1563 2111.4688,1470.9531 Q2111.2656,1470.7656 2111.1563,1470.25 Q2111.1094,1469.8906 2110.9219,1469.7031 Q2110.5938,1469.3281 2109.9844,1469.1094 Q2109.375,1468.8906 2108.75,1468.8906 Q2107.9844,1468.8906 2107.3438,1469.2188 Q2106.7188,1469.5469 2106.2188,1470.2969 Q2105.7344,1471.0469 2105.7344,1472.0781 L2105.7344,1473.1719 Q2105.7344,1474.4063 2106.625,1475.2344 Q2107.5156,1476.0469 2109.1094,1476.0469 Q2110.0469,1476.0469 2110.7031,1475.7969 Q2111.0938,1475.6406 2111.5156,1475.2031 Q2111.7813,1474.9375 2111.9219,1474.8594 Q2112.0781,1474.7813 2112.2813,1474.7813 Q2112.6094,1474.7813 2112.8594,1475.0469 Q2113.125,1475.2969 2113.125,1475.6406 Q2113.125,1475.9844 2112.7813,1476.3906 Q2112.2813,1476.9688 2111.4844,1477.2969 Q2110.4063,1477.75 2109.1094,1477.75 Q2107.5938,1477.75 2106.3906,1477.125 Q2105.4063,1476.625 2104.7188,1475.5625 Q2104.0313,1474.4844 2104.0313,1473.2031 L2104.0313,1472.0469 Q2104.0313,1470.7188 2104.6406,1469.5781 Q2105.2656,1468.4219 2106.3594,1467.8125 Q2107.4531,1467.1875 2108.6875,1467.1875 Q2109.4219,1467.1875 2110.0625,1467.3594 Q2110.7188,1467.5156 2111.2656,1467.875 Z " fill="#000000"/><text fill="#000000" font-family="FG Virgil" font-size="14" lengthAdjust="spacing" textLength="46" x="2122.5" y="1477.7969">Course</text><line style="stroke:#181818;stroke-width:0.5;" x1="2094.5" x2="2170.5" y1="1488" y2="1488"/><line style="stroke:#181818;stroke-width:0.5;" x1="2094.5" x2="2170.5" y1="1496" y2="1496"/></g><!--class ListTeacherCoursesController--><g id="elem_ListTeacherCoursesController"><rect codeLine="112" fill="#F1F1F1" height="66.6211" id="ListTeacherCoursesController" rx="2.5" ry="2.5" style="stroke:#181818;stroke-width:0.5;" width="336" x="1553" y="1456.5"/><ellipse cx="1621.75" cy="1472.5" fill="#ADD1B2" rx="11" ry="11" style="stroke:#181818;stroke-width:1.0;"/><path d="M1624.5156,1468.375 Q1624.6719,1468.1563 1624.8594,1468.0469 Q1625.0469,1467.9375 1625.2656,1467.9375 Q1625.6406,1467.9375 1625.875,1468.2031 Q1626.1094,1468.4531 1626.1094,1469.0625 L1626.1094,1470.5156 Q1626.1094,1471.125 1625.875,1471.3906 Q1625.6406,1471.6563 1625.2656,1471.6563 Q1624.9219,1471.6563 1624.7188,1471.4531 Q1624.5156,1471.2656 1624.4063,1470.75 Q1624.3594,1470.3906 1624.1719,1470.2031 Q1623.8438,1469.8281 1623.2344,1469.6094 Q1622.625,1469.3906 1622,1469.3906 Q1621.2344,1469.3906 1620.5938,1469.7188 Q1619.9688,1470.0469 1619.4688,1470.7969 Q1618.9844,1471.5469 1618.9844,1472.5781 L1618.9844,1473.6719 Q1618.9844,1474.9063 1619.875,1475.7344 Q1620.7656,1476.5469 1622.3594,1476.5469 Q1623.2969,1476.5469 1623.9531,1476.2969 Q1624.3438,1476.1406 1624.7656,1475.7031 Q1625.0313,1475.4375 1625.1719,1475.3594 Q1625.3281,1475.2813 1625.5313,1475.2813 Q1625.8594,1475.2813 1626.1094,1475.5469 Q1626.375,1475.7969 1626.375,1476.1406 Q1626.375,1476.4844 1626.0313,1476.8906 Q1625.5313,1477.4688 1624.7344,1477.7969 Q1623.6563,1478.25 1622.3594,1478.25 Q1620.8438,1478.25 1619.6406,1477.625 Q1618.6563,1477.125 1617.9688,1476.0625 Q1617.2813,1474.9844 1617.2813,1473.7031 L1617.2813,1472.5469 Q1617.2813,1471.2188 1617.8906,1470.0781 Q1618.5156,1468.9219 1619.6094,1468.3125 Q1620.7031,1467.6875 1621.9375,1467.6875 Q1622.6719,1467.6875 1623.3125,1467.8594 Q1623.9688,1468.0156 1624.5156,1468.375 Z " fill="#000000"/><text fill="#000000" font-family="FG Virgil" font-size="14" lengthAdjust="spacing" textLength="190" x="1642.25" y="1478.2969">ListTeacherCoursesController</text><line style="stroke:#181818;stroke-width:0.5;" x1="1554" x2="1888" y1="1488.5" y2="1488.5"/><line style="stroke:#181818;stroke-width:0.5;" x1="1554" x2="1888" y1="1496.5" y2="1496.5"/><ellipse cx="1564" cy="1511.3105" fill="#84BE84" rx="3" ry="3" style="stroke:#038048;stroke-width:1.0;"/><text fill="#000000" font-family="FG Virgil" font-size="14" lengthAdjust="spacing" textLength="310" x="1573" y="1515.6074">getAvailableTeacherCourses(): Iterable&lt;Course&gt;</text></g><!--class UserRepository--><g id="elem_UserRepository"><rect codeLine="122" fill="#F1F1F1" height="48" id="UserRepository" rx="2.5" ry="2.5" style="stroke:#181818;stroke-width:0.5;" width="130" x="1656" y="89"/><ellipse cx="1671" cy="105" fill="#B4A7E5" rx="11" ry="11" style="stroke:#181818;stroke-width:1.0;"/><path d="M1671.9531,101.6406 L1671.9531,108.2969 L1673.6719,108.2969 Q1674.2813,108.2969 1674.5469,108.5313 Q1674.8125,108.7656 1674.8125,109.1563 Q1674.8125,109.5313 1674.5469,109.7656 Q1674.2813,110 1673.6719,110 L1668.5313,110 Q1667.9219,110 1667.6563,109.7656 Q1667.3906,109.5313 1667.3906,109.1406 Q1667.3906,108.7656 1667.6563,108.5313 Q1667.9219,108.2969 1668.5313,108.2969 L1670.25,108.2969 L1670.25,101.6406 L1668.5313,101.6406 Q1667.9219,101.6406 1667.6563,101.4063 Q1667.3906,101.1719 1667.3906,100.7813 Q1667.3906,100.4063 1667.6563,100.1719 Q1667.9219,99.9375 1668.5313,99.9375 L1673.6719,99.9375 Q1674.2813,99.9375 1674.5469,100.1719 Q1674.8125,100.4063 1674.8125,100.7813 Q1674.8125,101.1719 1674.5469,101.4063 Q1674.2813,101.6406 1673.6719,101.6406 L1671.9531,101.6406 Z " fill="#000000"/><text fill="#000000" font-family="FG Virgil" font-size="14" font-style="italic" lengthAdjust="spacing" textLength="98" x="1685" y="110.7969">UserRepository</text><line style="stroke:#181818;stroke-width:0.5;" x1="1657" x2="1785" y1="121" y2="121"/><line style="stroke:#181818;stroke-width:0.5;" x1="1657" x2="1785" y1="129" y2="129"/></g><!--class UserSessionService--><g id="elem_UserSessionService"><rect codeLine="127" fill="#F1F1F1" height="66.6211" id="UserSessionService" rx="2.5" ry="2.5" style="stroke:#181818;stroke-width:0.5;" width="223" x="1609.5" y="214.5"/><ellipse cx="1653.75" cy="230.5" fill="#ADD1B2" rx="11" ry="11" style="stroke:#181818;stroke-width:1.0;"/><path d="M1656.5156,226.375 Q1656.6719,226.1563 1656.8594,226.0469 Q1657.0469,225.9375 1657.2656,225.9375 Q1657.6406,225.9375 1657.875,226.2031 Q1658.1094,226.4531 1658.1094,227.0625 L1658.1094,228.5156 Q1658.1094,229.125 1657.875,229.3906 Q1657.6406,229.6563 1657.2656,229.6563 Q1656.9219,229.6563 1656.7188,229.4531 Q1656.5156,229.2656 1656.4063,228.75 Q1656.3594,228.3906 1656.1719,228.2031 Q1655.8438,227.8281 1655.2344,227.6094 Q1654.625,227.3906 1654,227.3906 Q1653.2344,227.3906 1652.5938,227.7188 Q1651.9688,228.0469 1651.4688,228.7969 Q1650.9844,229.5469 1650.9844,230.5781 L1650.9844,231.6719 Q1650.9844,232.9063 1651.875,233.7344 Q1652.7656,234.5469 1654.3594,234.5469 Q1655.2969,234.5469 1655.9531,234.2969 Q1656.3438,234.1406 1656.7656,233.7031 Q1657.0313,233.4375 1657.1719,233.3594 Q1657.3281,233.2813 1657.5313,233.2813 Q1657.8594,233.2813 1658.1094,233.5469 Q1658.375,233.7969 1658.375,234.1406 Q1658.375,234.4844 1658.0313,234.8906 Q1657.5313,235.4688 1656.7344,235.7969 Q1655.6563,236.25 1654.3594,236.25 Q1652.8438,236.25 1651.6406,235.625 Q1650.6563,235.125 1649.9688,234.0625 Q1649.2813,232.9844 1649.2813,231.7031 L1649.2813,230.5469 Q1649.2813,229.2188 1649.8906,228.0781 Q1650.5156,226.9219 1651.6094,226.3125 Q1652.7031,225.6875 1653.9375,225.6875 Q1654.6719,225.6875 1655.3125,225.8594 Q1655.9688,226.0156 1656.5156,226.375 Z " fill="#000000"/><text fill="#000000" font-family="FG Virgil" font-size="14" lengthAdjust="spacing" textLength="126" x="1674.25" y="236.2969">UserSessionService</text><line style="stroke:#181818;stroke-width:0.5;" x1="1610.5" x2="1831.5" y1="246.5" y2="246.5"/><line style="stroke:#181818;stroke-width:0.5;" x1="1610.5" x2="1831.5" y1="254.5" y2="254.5"/><ellipse cx="1620.5" cy="269.3105" fill="#84BE84" rx="3" ry="3" style="stroke:#038048;stroke-width:1.0;"/><text fill="#000000" font-family="FG Virgil" font-size="14" lengthAdjust="spacing" textLength="197" x="1629.5" y="273.6074">findECourseUserByUsername()</text></g><!--class ECourseUser--><g id="elem_ECourseUser"><rect codeLine="133" fill="#F1F1F1" height="48" id="ECourseUser" rx="2.5" ry="2.5" style="stroke:#181818;stroke-width:0.5;" width="116" x="2074.5" y="229"/><ellipse cx="2089.5" cy="245" fill="#ADD1B2" rx="11" ry="11" style="stroke:#181818;stroke-width:1.0;"/><path d="M2092.2656,240.875 Q2092.4219,240.6563 2092.6094,240.5469 Q2092.7969,240.4375 2093.0156,240.4375 Q2093.3906,240.4375 2093.625,240.7031 Q2093.8594,240.9531 2093.8594,241.5625 L2093.8594,243.0156 Q2093.8594,243.625 2093.625,243.8906 Q2093.3906,244.1563 2093.0156,244.1563 Q2092.6719,244.1563 2092.4688,243.9531 Q2092.2656,243.7656 2092.1563,243.25 Q2092.1094,242.8906 2091.9219,242.7031 Q2091.5938,242.3281 2090.9844,242.1094 Q2090.375,241.8906 2089.75,241.8906 Q2088.9844,241.8906 2088.3438,242.2188 Q2087.7188,242.5469 2087.2188,243.2969 Q2086.7344,244.0469 2086.7344,245.0781 L2086.7344,246.1719 Q2086.7344,247.4063 2087.625,248.2344 Q2088.5156,249.0469 2090.1094,249.0469 Q2091.0469,249.0469 2091.7031,248.7969 Q2092.0938,248.6406 2092.5156,248.2031 Q2092.7813,247.9375 2092.9219,247.8594 Q2093.0781,247.7813 2093.2813,247.7813 Q2093.6094,247.7813 2093.8594,248.0469 Q2094.125,248.2969 2094.125,248.6406 Q2094.125,248.9844 2093.7813,249.3906 Q2093.2813,249.9688 2092.4844,250.2969 Q2091.4063,250.75 2090.1094,250.75 Q2088.5938,250.75 2087.3906,250.125 Q2086.4063,249.625 2085.7188,248.5625 Q2085.0313,247.4844 2085.0313,246.2031 L2085.0313,245.0469 Q2085.0313,243.7188 2085.6406,242.5781 Q2086.2656,241.4219 2087.3594,240.8125 Q2088.4531,240.1875 2089.6875,240.1875 Q2090.4219,240.1875 2091.0625,240.3594 Q2091.7188,240.5156 2092.2656,240.875 Z " fill="#000000"/><text fill="#000000" font-family="FG Virgil" font-size="14" lengthAdjust="spacing" textLength="84" x="2103.5" y="250.7969">ECourseUser</text><line style="stroke:#181818;stroke-width:0.5;" x1="2075.5" x2="2189.5" y1="261" y2="261"/><line style="stroke:#181818;stroke-width:0.5;" x1="2075.5" x2="2189.5" y1="269" y2="269"/></g><!--class SystemUser--><g id="elem_SystemUser"><rect codeLine="139" fill="#F1F1F1" height="141.1055" id="SystemUser" rx="2.5" ry="2.5" style="stroke:#181818;stroke-width:0.5;" width="134" x="2483" y="182.5"/><ellipse cx="2510.15" cy="198.5" fill="#ADD1B2" rx="11" ry="11" style="stroke:#181818;stroke-width:1.0;"/><path d="M2512.9156,194.375 Q2513.0719,194.1563 2513.2594,194.0469 Q2513.4469,193.9375 2513.6656,193.9375 Q2514.0406,193.9375 2514.275,194.2031 Q2514.5094,194.4531 2514.5094,195.0625 L2514.5094,196.5156 Q2514.5094,197.125 2514.275,197.3906 Q2514.0406,197.6563 2513.6656,197.6563 Q2513.3219,197.6563 2513.1188,197.4531 Q2512.9156,197.2656 2512.8063,196.75 Q2512.7594,196.3906 2512.5719,196.2031 Q2512.2438,195.8281 2511.6344,195.6094 Q2511.025,195.3906 2510.4,195.3906 Q2509.6344,195.3906 2508.9938,195.7188 Q2508.3688,196.0469 2507.8688,196.7969 Q2507.3844,197.5469 2507.3844,198.5781 L2507.3844,199.6719 Q2507.3844,200.9063 2508.275,201.7344 Q2509.1656,202.5469 2510.7594,202.5469 Q2511.6969,202.5469 2512.3531,202.2969 Q2512.7438,202.1406 2513.1656,201.7031 Q2513.4313,201.4375 2513.5719,201.3594 Q2513.7281,201.2813 2513.9313,201.2813 Q2514.2594,201.2813 2514.5094,201.5469 Q2514.775,201.7969 2514.775,202.1406 Q2514.775,202.4844 2514.4313,202.8906 Q2513.9313,203.4688 2513.1344,203.7969 Q2512.0563,204.25 2510.7594,204.25 Q2509.2438,204.25 2508.0406,203.625 Q2507.0563,203.125 2506.3688,202.0625 Q2505.6813,200.9844 2505.6813,199.7031 L2505.6813,198.5469 Q2505.6813,197.2188 2506.2906,196.0781 Q2506.9156,194.9219 2508.0094,194.3125 Q2509.1031,193.6875 2510.3375,193.6875 Q2511.0719,193.6875 2511.7125,193.8594 Q2512.3688,194.0156 2512.9156,194.375 Z " fill="#000000"/><text fill="#000000" font-family="FG Virgil" font-size="14" lengthAdjust="spacing" textLength="75" x="2526.85" y="204.2969">SystemUser</text><line style="stroke:#181818;stroke-width:0.5;" x1="2484" x2="2616" y1="214.5" y2="214.5"/><rect fill="none" height="6" style="stroke:#C82930;stroke-width:1.0;" width="6" x="2491" y="226.3105"/><text fill="#000000" font-family="FG Virgil" font-size="14" lengthAdjust="spacing" textLength="108" x="2503" y="233.6074">username: String</text><rect fill="none" height="6" style="stroke:#C82930;stroke-width:1.0;" width="6" x="2491" y="244.9316"/><text fill="#000000" font-family="FG Virgil" font-size="14" lengthAdjust="spacing" textLength="105" x="2503" y="252.2285">password: String</text><rect fill="none" height="6" style="stroke:#C82930;stroke-width:1.0;" width="6" x="2491" y="263.5527"/><text fill="#000000" font-family="FG Virgil" font-size="14" lengthAdjust="spacing" textLength="80" x="2503" y="270.8496">name: String</text><rect fill="none" height="6" style="stroke:#C82930;stroke-width:1.0;" width="6" x="2491" y="282.1738"/><text fill="#000000" font-family="FG Virgil" font-size="14" lengthAdjust="spacing" textLength="79" x="2503" y="289.4707">Email: String</text><rect fill="none" height="6" style="stroke:#C82930;stroke-width:1.0;" width="6" x="2491" y="300.7949"/><text fill="#000000" font-family="FG Virgil" font-size="14" lengthAdjust="spacing" textLength="96" x="2503" y="308.0918">active: boolean</text><line style="stroke:#181818;stroke-width:0.5;" x1="2484" x2="2616" y1="315.6055" y2="315.6055"/></g><g id="elem_GMN38"><path d="M2396,68.5 L2396,147.6641 A0,0 0 0 0 2396,147.6641 L2546,147.6641 L2550,182.48 L2554,147.6641 L2704,147.6641 A0,0 0 0 0 2704,147.6641 L2704,78.5 L2694,68.5 L2396,68.5 A0,0 0 0 0 2396,68.5 " fill="#FEFFDD" style="stroke:#181818;stroke-width:0.5;"/><path d="M2694,68.5 L2694,78.5 L2704,78.5 L2694,68.5 " fill="#FEFFDD" style="stroke:#181818;stroke-width:0.5;"/><text fill="#000000" font-family="FG Virgil" font-size="13" lengthAdjust="spacing" textLength="231" x="2402" y="87.5283">The properties of the user are simplified.</text><text fill="#000000" font-family="FG Virgil" font-size="13" lengthAdjust="spacing" textLength="235" x="2402" y="104.8193">In reality there is actually a Value Object</text><text fill="#000000" font-family="FG Virgil" font-size="13" lengthAdjust="spacing" textLength="234" x="2402" y="122.1104">for all the properties, expect the "active".</text><text fill="#000000" font-family="FG Virgil" font-size="13" lengthAdjust="spacing" textLength="287" x="2402" y="139.4014">Other not relevant properties are not being shown.</text></g><!--link ClassTitle to Class--><g id="link_ClassTitle_Class"><path codeLine="154" d="M1476.73,937.64 C1531.43,928.05 1620.45,912.45 1674.29,903.01 " fill="none" id="ClassTitle-to-Class" style="stroke:#181818;stroke-width:1.0;"/><polygon fill="#181818" points="1687.18,900.75,1680.5797,897.8456,1675.3601,902.8211,1681.9604,905.7255,1687.18,900.75" style="stroke:#181818;stroke-width:1.0;"/></g><!--link ClassDuration to Class--><g id="link_ClassDuration_Class"><path codeLine="155" d="M1489.3,854.57 C1544.35,864.22 1624.52,878.27 1674.4,887.01 " fill="none" id="ClassDuration-to-Class" style="stroke:#181818;stroke-width:1.0;"/><polygon fill="#181818" points="1687.32,889.27,1682.1004,884.2945,1675.5001,887.1989,1680.7197,892.1744,1687.32,889.27" style="stroke:#181818;stroke-width:1.0;"/></g><!--link RecurrentClassTime to RecurrentClass--><g id="link_RecurrentClassTime_RecurrentClass"><path codeLine="157" d="M887.69,1275.27 C941.15,1271.32 1011.02,1259.15 1063,1225 C1086.49,1209.56 1075.29,1188.1 1099,1173 C1109.55,1166.28 1255.91,1143.03 1349.52,1128.68 " fill="none" id="RecurrentClassTime-to-RecurrentClass" style="stroke:#181818;stroke-width:1.0;"/><polygon fill="#181818" points="1362.64,1126.68,1356.1031,1123.6356,1350.7786,1128.4987,1357.3156,1131.5432,1362.64,1126.68" style="stroke:#181818;stroke-width:1.0;"/></g><!--link RecurrentClassWeekday to RecurrentClass--><g id="link_RecurrentClassWeekday_RecurrentClass"><path codeLine="158" d="M901.68,1133.97 C1024.08,1130.02 1236.16,1123.17 1349.81,1119.49 " fill="none" id="RecurrentClassWeekday-to-RecurrentClass" style="stroke:#181818;stroke-width:1.0;"/><polygon fill="#181818" points="1362.83,1119.07,1356.7013,1115.2701,1350.8365,1119.4658,1356.9652,1123.2657,1362.83,1119.07" style="stroke:#181818;stroke-width:1.0;"/></g><!--link RecurrentClassOccurrence to RecurrentClass--><g id="link_RecurrentClassOccurrence_RecurrentClass"><path codeLine="159" d="M1272.57,1190.44 C1306.21,1174.44 1345.68,1155.67 1376.3,1141.11 " fill="none" id="RecurrentClassOccurrence-RecurrentClass" style="stroke:#181818;stroke-width:1.0;"/><text fill="#000000" font-family="FG Virgil" font-size="13" lengthAdjust="spacing" textLength="5" x="1281.1682" y="1179.2537">*</text><text fill="#000000" font-family="FG Virgil" font-size="13" lengthAdjust="spacing" textLength="7" x="1355.845" y="1163.1225">1</text></g><!--link ClassScheduleUI to RecurrentClassScheduleController--><g id="link_ClassScheduleUI_RecurrentClassScheduleController"><path codeLine="161" d="M250.5,306.2 C250.5,344.99 250.5,383.78 250.5,422.57 " fill="none" id="ClassScheduleUI-to-RecurrentClassScheduleController" style="stroke:#181818;stroke-width:1.0;stroke-dasharray:7.0,7.0;"/><polygon fill="#181818" points="250.5,427.79,254.5,418.79,250.5,422.79,246.5,418.79,250.5,427.79" style="stroke:#181818;stroke-width:1.0;"/></g><!--link RecurrentClassScheduleController to ListTeacherCoursesController--><g id="link_RecurrentClassScheduleController_ListTeacherCoursesController"><path codeLine="162" d="M253.27,532.14 C261.03,677.95 302.73,1094.32 527,1326 C618.72,1420.75 674.13,1427 806,1427 C806,1427 806,1427 1202,1427 C1317.93,1427 1447.39,1442.74 1547.89,1458.49 " fill="none" id="RecurrentClassScheduleController-to-ListTeacherCoursesController" style="stroke:#181818;stroke-width:1.0;stroke-dasharray:7.0,7.0;"/><polygon fill="#181818" points="1552.95,1459.28,1544.6745,1453.94,1548.0098,1458.509,1543.4408,1461.8443,1552.95,1459.28" style="stroke:#181818;stroke-width:1.0;"/></g><!--link RecurrentClassScheduleController to ListAvailableClassSlotsController--><g id="link_RecurrentClassScheduleController_ListAvailableClassSlotsController"><path codeLine="163" d="M454.04,480 C500.91,480 550.85,480 597.94,480 " fill="none" id="RecurrentClassScheduleController-to-ListAvailableClassSlotsController" style="stroke:#181818;stroke-width:1.0;stroke-dasharray:7.0,7.0;"/><polygon fill="#181818" points="603.08,480,594.08,476,598.08,480,594.08,484,603.08,480" style="stroke:#181818;stroke-width:1.0;"/></g><!--link RecurrentClassScheduleController to RecurrentClassBuilder--><g id="link_RecurrentClassScheduleController_RecurrentClassBuilder"><path codeLine="164" d="M288.29,532.06 C337.14,598.49 428.76,714.11 527,792 C580.13,834.12 646.79,870.46 701.63,896.82 " fill="none" id="RecurrentClassScheduleController-to-RecurrentClassBuilder" style="stroke:#181818;stroke-width:1.0;"/><polygon fill="#181818" points="706.23,899.02,699.8341,891.5305,701.7186,896.8642,696.3849,898.7487,706.23,899.02" style="stroke:#181818;stroke-width:1.0;"/></g><!--link RecurrentClassScheduleController to ClassScheduler--><g id="link_RecurrentClassScheduleController_ClassScheduler"><path codeLine="165" d="M374.22,532.01 C457.74,567.4 568.74,614.45 657.29,651.98 " fill="none" id="RecurrentClassScheduleController-to-ClassScheduler" style="stroke:#181818;stroke-width:1.0;"/><polygon fill="#181818" points="662.02,653.98,655.3044,646.7758,657.4191,652.0225,652.1724,654.1372,662.02,653.98" style="stroke:#181818;stroke-width:1.0;"/></g><!--link ListAvailableClassSlotsController to UserSessionService--><g id="link_ListAvailableClassSlotsController_UserSessionService"><path codeLine="167" d="M940.13,446.39 C1118.79,400.94 1434.57,320.61 1604.33,277.43 " fill="none" id="ListAvailableClassSlotsController-to-UserSessionService" style="stroke:#181818;stroke-width:1.0;"/><polygon fill="#181818" points="1609.31,276.16,1599.6027,274.4959,1604.4635,277.3895,1601.5699,282.2503,1609.31,276.16" style="stroke:#181818;stroke-width:1.0;"/></g><!--link UserSessionService to UserRepository--><g id="link_UserSessionService_UserRepository"><path codeLine="168" d="M1721,214.25 C1721,190.25 1721,166.25 1721,142.25 " fill="none" id="UserSessionService-to-UserRepository" style="stroke:#181818;stroke-width:1.0;"/><polygon fill="#181818" points="1721,137.13,1717,146.13,1721,142.13,1725,146.13,1721,137.13" style="stroke:#181818;stroke-width:1.0;"/></g><!--link UserSessionService to ECourseUser--><g id="link_UserSessionService_ECourseUser"><path codeLine="169" d="M1832.55,249.35 C1908.46,250.28 2006.48,251.47 2069.18,252.24 " fill="none" id="UserSessionService-to-ECourseUser" style="stroke:#181818;stroke-width:1.0;"/><polygon fill="#181818" points="2074.38,252.3,2065.4263,248.1974,2069.3803,252.2429,2065.3349,256.1969,2074.38,252.3" style="stroke:#181818;stroke-width:1.0;"/></g><!--link ECourseUser to SystemUser--><g id="link_ECourseUser_SystemUser"><path codeLine="170" d="M2190.84,253 C2265.56,253 2396.22,253 2477.38,253 " fill="none" id="ECourseUser-to-SystemUser" style="stroke:#181818;stroke-width:1.0;stroke-dasharray:7.0,7.0;"/><polygon fill="#181818" points="2482.65,253,2473.65,249,2477.65,253,2473.65,257,2482.65,253" style="stroke:#181818;stroke-width:1.0;"/></g><!--link ListAvailableClassSlotsController to ClassScheduler--><g id="link_ListAvailableClassSlotsController_ClassScheduler"><path codeLine="172" d="M807,513.64 C807,558.67 807,603.71 807,648.75 " fill="none" id="ListAvailableClassSlotsController-to-ClassScheduler" style="stroke:#181818;stroke-width:1.0;stroke-dasharray:7.0,7.0;"/><polygon fill="#181818" points="807,653.96,811,644.96,807,648.96,803,644.96,807,653.96" style="stroke:#181818;stroke-width:1.0;"/></g><!--link ListTeacherCoursesController to CourseRepository--><g id="link_ListTeacherCoursesController_CourseRepository"><path codeLine="174" d="M1832.01,1523.58 C1889.15,1541.02 1958.93,1562.32 2016.75,1579.97 " fill="none" id="ListTeacherCoursesController-to-CourseRepository" style="stroke:#181818;stroke-width:1.0;"/><polygon fill="#181818" points="2021.6,1581.45,2014.173,1574.9817,2016.8208,1579.9806,2011.8219,1582.6284,2021.6,1581.45" style="stroke:#181818;stroke-width:1.0;"/></g><!--link ListTeacherCoursesController to Course--><g id="link_ListTeacherCoursesController_Course"><path codeLine="175" d="M1889.15,1485.92 C1961.7,1484.15 2040.77,1482.22 2088.22,1481.06 " fill="none" id="ListTeacherCoursesController-to-Course" style="stroke:#181818;stroke-width:1.0;"/><polygon fill="#181818" points="2093.28,1480.93,2084.1799,1477.1633,2088.2817,1481.0589,2084.3861,1485.1607,2093.28,1480.93" style="stroke:#181818;stroke-width:1.0;"/></g><!--link RecurrentClassBuilder to RecurrentClass--><g id="link_RecurrentClassBuilder_RecurrentClass"><path codeLine="178" d="M907.8,970.21 C1034.15,1005.94 1248.55,1066.55 1358.1,1097.52 " fill="none" id="RecurrentClassBuilder-to-RecurrentClass" style="stroke:#181818;stroke-width:1.0;"/><polygon fill="#181818" points="1362.92,1098.88,1355.3429,1092.5881,1358.1076,1097.5234,1353.1723,1100.288,1362.92,1098.88" style="stroke:#181818;stroke-width:1.0;"/></g><!--link RecurrentClass to Class--><g id="link_RecurrentClass_Class"><path codeLine="180" d="M1460.7,1092.82 C1511.75,1053.87 1612.51,977 1672.29,931.4 " fill="none" id="RecurrentClass-to-Class" style="stroke:#181818;stroke-width:1.0;"/><polygon fill="none" points="1668.2,925.72,1688.34,919.15,1676.69,936.85,1668.2,925.72" style="stroke:#181818;stroke-width:1.0;"/></g><!--link ClassScheduler to ClassRepository--><g id="link_ClassScheduler_ClassRepository"><path codeLine="182" d="M1039.15,706.69 C1263.4,701.82 1612.85,702.65 1913,740 C1926.93,741.73 1941.27,743.97 1955.63,746.54 " fill="none" id="ClassScheduler-to-ClassRepository" style="stroke:#181818;stroke-width:1.0;"/><polygon fill="#181818" points="1960.92,747.5,1952.7878,741.9441,1956.0018,746.5993,1951.3467,749.8133,1960.92,747.5" style="stroke:#181818;stroke-width:1.0;"/></g><!--link Class to ClassRepository--><g id="link_Class_ClassRepository"><path codeLine="184" d="M1754.82,886.58 C1800.65,874.83 1887.05,852.68 1965.56,832.55 " fill="none" id="Class-ClassRepository" style="stroke:#181818;stroke-width:1.0;"/><text fill="#000000" font-family="FG Virgil" font-size="13" lengthAdjust="spacing" textLength="5" x="1762.311" y="900.6548">*</text><text fill="#000000" font-family="FG Virgil" font-size="13" lengthAdjust="spacing" textLength="7" x="1933.5266" y="854.0799">1</text></g><!--link Class to Course--><g id="link_Class_Course"><path codeLine="185" d="M1738.82,919.02 C1805.11,1013.73 2048,1360.71 2114.54,1455.78 " fill="none" id="Class-Course" style="stroke:#181818;stroke-width:1.0;"/><text fill="#000000" font-family="FG Virgil" font-size="13" lengthAdjust="spacing" textLength="5" x="1737.5543" y="941.0105">*</text><text fill="#000000" font-family="FG Virgil" font-size="13" lengthAdjust="spacing" textLength="7" x="2102.3091" y="1444.8683">1</text></g><!--link Class to ECourseUser--><g id="link_Class_ECourseUser"><path codeLine="186" d="M1737.55,870.62 C1802.49,768.81 2051.6,378.27 2116.15,277.06 " fill="none" id="Class-ECourseUser" style="stroke:#181818;stroke-width:1.0;"/><text fill="#000000" font-family="FG Virgil" font-size="13" lengthAdjust="spacing" textLength="5" x="1735.9747" y="859.6693">*</text><text fill="#000000" font-family="FG Virgil" font-size="13" lengthAdjust="spacing" textLength="7" x="2104.3116" y="299.0603">1</text></g><!--SRC=[fLTRRo8t57xthx1u8hk0rDTL5IcRa1PrDwc0R5HfNypC8RZnZ95jI57BVzzpx9cCvnR8beT1S_oT-yrZdsM-5KPaV2kIP_442tTGm0qaZjdNinJMOgVShSxTdSY0t_x6lqdp95M4iHkHwXUPF_6rK1OOKx1st6bkvDF6yLIIJAbpnWfDV6l0Gku4KVc_ZEClKS9QVatFHRA1TAVWOLQS7TcnueL4xum5Zyz4ZgGCHI7IGqkKs6wLJBo2ugHIyaLQTxKNKecLWg1HQMUlqKUZbG9Jg2r_7v-WmiyXsHc36Yl6OR28n8vuij7eshMdNBoAEJPjQ8WfFEurWQom9OWuXauw1QZEAnhn5u3d6t4OSISpV4rtnlj-qPBo_ttfahG4WTQP0BN3Yqzyvi3GoQ-1TXc7WiKXAJDcOAkjTDeS6hxB74MjHGAXEkPzE6_KMkPfqEZ1K3eKMrHt-x8jn8ez37sUwbuVMPpCql1KPqBcF2gpycIraoe54vtq5S3dWEpmo1lq8jqcU5MwymQEv2sfEaADd8BU5AKoxAsPYc69nJMa2di3ynWgSLXKv5lIGj4CNVZlGVeWKaNL8zQLcAYww2TMrXcHk50tSO9QxLYBH2CBuzTkuf_uhTB2dP3ZWzyIufE14XREuAWyTpBqM0tvBciWAUwfQ3R5r_kxcwk_QgJbmtJHf3rER-xQrENl3_CMyNO-YqbnmBiSe9BfY4L6eQ2pSmDnduItf2cDyYCSYRl1lovnPJjQC7kPG2scFQkdgnDh0ozqOr71CvfGDYovLwlZSMf7ttE-G_qdPYh_k1TAaZjrvuUc5TEHQMMVvl_tt7iJv8-ApXeLLbnWa5PQAn1vR_lqxbl_x5-udUCx6jsUlNTs-xdzSzlah8bSfDWpHwgFh8izkZj4sEhkK3Vll6l3pxX4hLNQHCLJ2_uxOl-0l9sHFxxNUvAq06lnR16QAO9yv9J4QN27a9yFzCpnsZYyE3DXTNMHh0whengTNltvPNOxl_ewVRoV_u7OmByuM0TPmJxsCIHhNcVm60smzaMRD28r45EqJ4Nlk4_a7ge-GYjoZUDdfPtJ6TVhI2iQkjpGRLTlmJY9amUFtIPaamk38qbc6EsrX7I2u5cEgSG1u0w4mcDfITzEA7NWWdyJQWVyVlKtNT4vNskKePGNMAaOSVXdYm1F7WHh1oJydaHoj1LrADWBhAB8C3A6pbP0ztYxqI_vX46U4X5lzD5U6uy_X5d9wakpehEE3J2cuyO6xzvVfv7HAXXy62037_moQBAmvgV4vFBafPkTl9LF9YZchHdm3X5lVeASbZE-xBv3diLPNtQCdVuaGgPszxEEWL00gu7J2K9KrDqixdIAJzH3PzWswNQeTqwJzkP2EfU3DSkxlBgFnwsCDA68-U-ITzLdbPJ8eW29Qxo9Q0E2ZIrw76ls0m00]--></g></svg>