<?xml version="1.0" encoding="us-ascii" standalone="no"?><svg xmlns="http://www.w3.org/2000/svg" xmlns:xlink="http://www.w3.org/1999/xlink" contentStyleType="text/css" height="552px" preserveAspectRatio="none" style="width:1046px;height:552px;background:#FFFFFF;" version="1.1" viewBox="0 0 1046 552" width="1046px" zoomAndPan="magnify"><defs/><g><text fill="#000000" font-family="FG Virgil" font-size="14" font-weight="bold" lengthAdjust="spacing" textLength="176" x="436.75" y="30.1074">Reject meeting invitation</text><rect fill="#FFFFFF" height="282.6191" style="stroke:#181818;stroke-width:1.0;" width="10" x="332.5" y="161.1543"/><rect fill="#FFFFFF" height="211.0371" style="stroke:#181818;stroke-width:1.0;" width="10" x="609.5" y="192.4453"/><rect fill="#FFFFFF" height="31.291" style="stroke:#181818;stroke-width:1.0;" width="10" x="950.5" y="340.9004"/><line style="stroke:#181818;stroke-width:0.5;stroke-dasharray:5.0,5.0;" x1="90" x2="90" y1="127.8633" y2="452.7734"/><line style="stroke:#181818;stroke-width:0.5;stroke-dasharray:5.0,5.0;" x1="203" x2="203" y1="127.8633" y2="452.7734"/><line style="stroke:#181818;stroke-width:0.5;stroke-dasharray:5.0,5.0;" x1="337.5" x2="337.5" y1="127.8633" y2="452.7734"/><line style="stroke:#181818;stroke-width:0.5;stroke-dasharray:5.0,5.0;" x1="614.5" x2="614.5" y1="127.8633" y2="452.7734"/><line style="stroke:#181818;stroke-width:0.5;stroke-dasharray:5.0,5.0;" x1="795.5" x2="795.5" y1="127.8633" y2="452.7734"/><line style="stroke:#181818;stroke-width:0.5;stroke-dasharray:5.0,5.0;" x1="955.5" x2="955.5" y1="127.8633" y2="452.7734"/><rect fill="#E2E2F0" height="51.2422" rx="2.5" ry="2.5" style="stroke:#181818;stroke-width:0.5;" width="171" x="5" y="75.6211"/><text fill="#000000" font-family="FG Virgil" font-size="14" font-style="italic" lengthAdjust="spacing" textLength="27" x="77" y="97.7285">&#171;ui&#187;</text><text fill="#000000" font-family="FG Virgil" font-size="14" lengthAdjust="spacing" textLength="157" x="12" y="116.3496">ManageMeetingInvitation</text><rect fill="#E2E2F0" height="51.2422" rx="2.5" ry="2.5" style="stroke:#181818;stroke-width:0.5;" width="171" x="5" y="451.7734"/><text fill="#000000" font-family="FG Virgil" font-size="14" font-style="italic" lengthAdjust="spacing" textLength="27" x="77" y="473.8809">&#171;ui&#187;</text><text fill="#000000" font-family="FG Virgil" font-size="14" lengthAdjust="spacing" textLength="157" x="12" y="492.502">ManageMeetingInvitation</text><text fill="#000000" font-family="FG Virgil" font-size="14" lengthAdjust="spacing" textLength="29" x="186" y="124.3496">User</text><ellipse cx="203.5" cy="57.7422" fill="#E2E2F0" rx="8" ry="8" style="stroke:#181818;stroke-width:0.5;"/><path d="M203.5,65.7422 L203.5,92.7422 M190.5,73.7422 L216.5,73.7422 M203.5,92.7422 L190.5,107.7422 M203.5,92.7422 L216.5,107.7422 " fill="none" style="stroke:#181818;stroke-width:0.5;"/><text fill="#000000" font-family="FG Virgil" font-size="14" lengthAdjust="spacing" textLength="29" x="186" y="466.8809">User</text><ellipse cx="203.5" cy="478.8945" fill="#E2E2F0" rx="8" ry="8" style="stroke:#181818;stroke-width:0.5;"/><path d="M203.5,486.8945 L203.5,513.8945 M190.5,494.8945 L216.5,494.8945 M203.5,513.8945 L190.5,528.8945 M203.5,513.8945 L216.5,528.8945 " fill="none" style="stroke:#181818;stroke-width:0.5;"/><rect fill="#E2E2F0" height="51.2422" rx="2.5" ry="2.5" style="stroke:#181818;stroke-width:0.5;" width="172" x="251.5" y="75.6211"/><text fill="#000000" font-family="FG Virgil" font-size="14" font-style="italic" lengthAdjust="spacing" textLength="27" x="324" y="97.7285">&#171;ui&#187;</text><text fill="#000000" font-family="FG Virgil" font-size="14" lengthAdjust="spacing" textLength="158" x="258.5" y="116.3496">RejectMeetingInvitationUI</text><rect fill="#E2E2F0" height="51.2422" rx="2.5" ry="2.5" style="stroke:#181818;stroke-width:0.5;" width="172" x="251.5" y="451.7734"/><text fill="#000000" font-family="FG Virgil" font-size="14" font-style="italic" lengthAdjust="spacing" textLength="27" x="324" y="473.8809">&#171;ui&#187;</text><text fill="#000000" font-family="FG Virgil" font-size="14" lengthAdjust="spacing" textLength="158" x="258.5" y="492.502">RejectMeetingInvitationUI</text><rect fill="#E2E2F0" height="51.2422" rx="2.5" ry="2.5" style="stroke:#181818;stroke-width:0.5;" width="222" x="503.5" y="75.6211"/><text fill="#000000" font-family="FG Virgil" font-size="14" font-style="italic" lengthAdjust="spacing" textLength="84" x="572.5" y="97.7285">&#171;application&#187;</text><text fill="#000000" font-family="FG Virgil" font-size="14" lengthAdjust="spacing" textLength="208" x="510.5" y="116.3496">RejectMeetingInvitationController</text><rect fill="#E2E2F0" height="51.2422" rx="2.5" ry="2.5" style="stroke:#181818;stroke-width:0.5;" width="222" x="503.5" y="451.7734"/><text fill="#000000" font-family="FG Virgil" font-size="14" font-style="italic" lengthAdjust="spacing" textLength="84" x="572.5" y="473.8809">&#171;application&#187;</text><text fill="#000000" font-family="FG Virgil" font-size="14" lengthAdjust="spacing" textLength="208" x="510.5" y="492.502">RejectMeetingInvitationController</text><rect fill="#E2E2F0" height="51.2422" rx="2.5" ry="2.5" style="stroke:#181818;stroke-width:0.5;" width="120" x="735.5" y="75.6211"/><text fill="#000000" font-family="FG Virgil" font-size="14" font-style="italic" lengthAdjust="spacing" textLength="62" x="764.5" y="97.7285">&#171;domain&#187;</text><text fill="#000000" font-family="FG Virgil" font-size="14" lengthAdjust="spacing" textLength="106" x="742.5" y="116.3496">MeetingInvitation</text><rect fill="#E2E2F0" height="51.2422" rx="2.5" ry="2.5" style="stroke:#181818;stroke-width:0.5;" width="120" x="735.5" y="451.7734"/><text fill="#000000" font-family="FG Virgil" font-size="14" font-style="italic" lengthAdjust="spacing" textLength="62" x="764.5" y="473.8809">&#171;domain&#187;</text><text fill="#000000" font-family="FG Virgil" font-size="14" lengthAdjust="spacing" textLength="106" x="742.5" y="492.502">MeetingInvitation</text><text fill="#000000" font-family="FG Virgil" font-size="14" font-style="italic" lengthAdjust="spacing" textLength="79" x="913" y="105.7285">&#171;repository&#187;</text><text fill="#000000" font-family="FG Virgil" font-size="14" lengthAdjust="spacing" textLength="174" x="865.5" y="124.3496">MeetingInvitationRepository</text><path d="M937.5,54.6211 C937.5,44.6211 955.5,44.6211 955.5,44.6211 C955.5,44.6211 973.5,44.6211 973.5,54.6211 L973.5,80.6211 C973.5,90.6211 955.5,90.6211 955.5,90.6211 C955.5,90.6211 937.5,90.6211 937.5,80.6211 L937.5,54.6211 " fill="#E2E2F0" style="stroke:#181818;stroke-width:1.5;"/><path d="M937.5,54.6211 C937.5,64.6211 955.5,64.6211 955.5,64.6211 C955.5,64.6211 973.5,64.6211 973.5,54.6211 " fill="none" style="stroke:#181818;stroke-width:1.5;"/><text fill="#000000" font-family="FG Virgil" font-size="14" font-style="italic" lengthAdjust="spacing" textLength="79" x="913" y="466.8809">&#171;repository&#187;</text><text fill="#000000" font-family="FG Virgil" font-size="14" lengthAdjust="spacing" textLength="174" x="865.5" y="485.502">MeetingInvitationRepository</text><path d="M937.5,499.0156 C937.5,489.0156 955.5,489.0156 955.5,489.0156 C955.5,489.0156 973.5,489.0156 973.5,499.0156 L973.5,525.0156 C973.5,535.0156 955.5,535.0156 955.5,535.0156 C955.5,535.0156 937.5,535.0156 937.5,525.0156 L937.5,499.0156 " fill="#E2E2F0" style="stroke:#181818;stroke-width:1.5;"/><path d="M937.5,499.0156 C937.5,509.0156 955.5,509.0156 955.5,509.0156 C955.5,509.0156 973.5,509.0156 973.5,499.0156 " fill="none" style="stroke:#181818;stroke-width:1.5;"/><rect fill="#FFFFFF" height="282.6191" style="stroke:#181818;stroke-width:1.0;" width="10" x="332.5" y="161.1543"/><rect fill="#FFFFFF" height="211.0371" style="stroke:#181818;stroke-width:1.0;" width="10" x="609.5" y="192.4453"/><rect fill="#FFFFFF" height="31.291" style="stroke:#181818;stroke-width:1.0;" width="10" x="950.5" y="340.9004"/><polygon fill="#181818" points="320.5,157.1543,330.5,161.1543,320.5,165.1543,324.5,161.1543" style="stroke:#181818;stroke-width:1.0;"/><line style="stroke:#181818;stroke-width:1.0;" x1="90.5" x2="326.5" y1="161.1543" y2="161.1543"/><text fill="#000000" font-family="FG Virgil" font-size="13" font-weight="bold" lengthAdjust="spacing" textLength="7" x="97.5" y="155.8916">1</text><text fill="#000000" font-family="FG Virgil" font-size="13" lengthAdjust="spacing" textLength="140" x="108.5" y="155.8916">create(meetingInvitation)</text><polygon fill="#181818" points="597.5,188.4453,607.5,192.4453,597.5,196.4453,601.5,192.4453" style="stroke:#181818;stroke-width:1.0;"/><line style="stroke:#181818;stroke-width:1.0;" x1="342.5" x2="603.5" y1="192.4453" y2="192.4453"/><text fill="#000000" font-family="FG Virgil" font-size="13" font-weight="bold" lengthAdjust="spacing" textLength="7" x="349.5" y="187.1826">2</text><text fill="#000000" font-family="FG Virgil" font-size="13" lengthAdjust="spacing" textLength="152" x="360.5" y="187.1826">create(meetingRepository)</text><polygon fill="#181818" points="597.5,219.7363,607.5,223.7363,597.5,227.7363,601.5,223.7363" style="stroke:#181818;stroke-width:1.0;"/><line style="stroke:#181818;stroke-width:1.0;" x1="342.5" x2="603.5" y1="223.7363" y2="223.7363"/><text fill="#000000" font-family="FG Virgil" font-size="13" font-weight="bold" lengthAdjust="spacing" textLength="7" x="349.5" y="218.4736">3</text><text fill="#000000" font-family="FG Virgil" font-size="13" lengthAdjust="spacing" textLength="232" x="360.5" y="218.4736">rejectMeetingInvitation(meetingInvitation)</text><polygon fill="#181818" points="783.5,251.0273,793.5,255.0273,783.5,259.0273,787.5,255.0273" style="stroke:#181818;stroke-width:1.0;"/><line style="stroke:#181818;stroke-width:1.0;" x1="619.5" x2="789.5" y1="255.0273" y2="255.0273"/><text fill="#000000" font-family="FG Virgil" font-size="13" font-weight="bold" lengthAdjust="spacing" textLength="7" x="626.5" y="249.7646">4</text><text fill="#000000" font-family="FG Virgil" font-size="13" lengthAdjust="spacing" textLength="40" x="637.5" y="249.7646">reject()</text><path d="M670,268.0273 L670,312.0273 L920,312.0273 L920,278.0273 L910,268.0273 L670,268.0273 " fill="#FEFFDD" style="stroke:#181818;stroke-width:0.5;"/><path d="M910,268.0273 L910,278.0273 L920,278.0273 L910,268.0273 " fill="#FEFFDD" style="stroke:#181818;stroke-width:0.5;"/><text fill="#000000" font-family="FG Virgil" font-size="13" lengthAdjust="spacing" textLength="151" x="676" y="287.0557">meeting invitation to reject</text><text fill="#000000" font-family="FG Virgil" font-size="13" lengthAdjust="spacing" textLength="229" x="676" y="304.3467">must not be rejecte or canceled already</text><polygon fill="#181818" points="938.5,336.9004,948.5,340.9004,938.5,344.9004,942.5,340.9004" style="stroke:#181818;stroke-width:1.0;"/><line style="stroke:#181818;stroke-width:1.0;" x1="619.5" x2="944.5" y1="340.9004" y2="340.9004"/><text fill="#000000" font-family="FG Virgil" font-size="13" font-weight="bold" lengthAdjust="spacing" textLength="7" x="626.5" y="335.6377">5</text><text fill="#000000" font-family="FG Virgil" font-size="13" lengthAdjust="spacing" textLength="130" x="637.5" y="335.6377">save(meetingInvitation)</text><polygon fill="#181818" points="630.5,368.1914,620.5,372.1914,630.5,376.1914,626.5,372.1914" style="stroke:#181818;stroke-width:1.0;"/><line style="stroke:#181818;stroke-width:1.0;stroke-dasharray:2.0,2.0;" x1="624.5" x2="954.5" y1="372.1914" y2="372.1914"/><text fill="#000000" font-family="FG Virgil" font-size="13" font-weight="bold" lengthAdjust="spacing" textLength="7" x="636.5" y="366.9287">6</text><text fill="#000000" font-family="FG Virgil" font-size="13" lengthAdjust="spacing" textLength="96" x="647.5" y="366.9287">meetingInvitation</text><polygon fill="#181818" points="353.5,399.4824,343.5,403.4824,353.5,407.4824,349.5,403.4824" style="stroke:#181818;stroke-width:1.0;"/><line style="stroke:#181818;stroke-width:1.0;stroke-dasharray:2.0,2.0;" x1="347.5" x2="613.5" y1="403.4824" y2="403.4824"/><text fill="#000000" font-family="FG Virgil" font-size="13" font-weight="bold" lengthAdjust="spacing" textLength="7" x="359.5" y="398.2197">7</text><text fill="#000000" font-family="FG Virgil" font-size="13" lengthAdjust="spacing" textLength="86" x="370.5" y="398.2197">return success</text><polygon fill="#181818" points="214.5,430.7734,204.5,434.7734,214.5,438.7734,210.5,434.7734" style="stroke:#181818;stroke-width:1.0;"/><line style="stroke:#181818;stroke-width:1.0;stroke-dasharray:2.0,2.0;" x1="208.5" x2="331.5" y1="434.7734" y2="434.7734"/><text fill="#000000" font-family="FG Virgil" font-size="13" font-weight="bold" lengthAdjust="spacing" textLength="7" x="220.5" y="429.5107">8</text><text fill="#000000" font-family="FG Virgil" font-size="13" lengthAdjust="spacing" textLength="94" x="231.5" y="429.5107">display success</text><!--SRC=[ZPB1Ri8m38RlUGgB4nnu0OIuJ6BYm0vCxBIBIGtpbYPLuZBrxUSMQ0ljfjsQ-Fy_st-AfGHVvWUA9dsnBp1Y3WNQBppHgrIE89ALNYsZ8vPEri7B2-O4wsTuutXYrzEa3yp2D_iJ7D4bCaPObBIZJsL1JYHrZVsP1OM3DqPzmfOBz0AJBNhjlht8Dgrg0fWWRshx3IoN9QzM1gs429DzejZKI_sufrsw3cZxpKNFDz9_J4-wTGpENPlPzgWGB0h7jf4zqdvPvV5M8Ld8aMj_Xe87J3HYtb4H4klQLH_JtIecjWT5cJQp-KhtNO2DX4BJGV-PgUFainPLPunceuvkoKTdrtBM6JlvY3-EnpesIYzRXGm4DzPKX_P1-uQpAaTamxyD95pDxpulau3wuK3NEoL5iEWjESe0dMwSLMPyd2w01IGyZqRQ1ZFmcE7BpH_o6l1CHdy0xwQyFdOaAQE7L5fBAVNzlPTgdgesfBfhngbmMBMU7m00]--></g></svg>