<?xml version="1.0" encoding="us-ascii" standalone="no"?><svg xmlns="http://www.w3.org/2000/svg" xmlns:xlink="http://www.w3.org/1999/xlink" contentStyleType="text/css" height="542.43px" preserveAspectRatio="none" style="width:949px;height:542px;background:#FFFFFF;" version="1.1" viewBox="0 0 949 542" width="949.97px" zoomAndPan="magnify"><defs/><g><rect fill="#FFFFFF" height="448.3254" style="stroke:#181818;stroke-width:0.41;" width="4.1" x="135.915" y="49.8286"/><rect fill="#FFFFFF" height="38.4879" style="stroke:#181818;stroke-width:0.41;" width="4.1" x="319.185" y="62.6579"/><rect fill="#FFFFFF" height="38.4879" style="stroke:#181818;stroke-width:0.41;" width="4.1" x="319.185" y="179.4711"/><rect fill="#FFFFFF" height="218.0984" style="stroke:#181818;stroke-width:0.41;" width="4.1" x="319.185" y="263.5363"/><rect fill="#FFFFFF" height="12.8293" style="stroke:#181818;stroke-width:0.41;" width="4.1" x="547.965" y="75.4872"/><rect fill="#FFFFFF" height="12.8293" style="stroke:#181818;stroke-width:0.41;" width="4.1" x="614.385" y="192.3004"/><rect fill="#FFFFFF" height="141.1225" style="stroke:#181818;stroke-width:0.41;" width="4.1" x="662.765" y="276.3656"/><rect fill="#FFFFFF" height="12.8293" style="stroke:#181818;stroke-width:0.41;" width="4.1" x="731.645" y="302.0243"/><rect fill="#FFFFFF" height="51.3173" style="stroke:#181818;stroke-width:0.41;" width="4.1" x="800.115" y="353.3415"/><rect fill="#FFFFFF" height="12.8293" style="stroke:#181818;stroke-width:0.41;" width="4.1" x="870.225" y="366.1708"/><rect fill="#FFFFFF" height="12.8293" style="stroke:#181818;stroke-width:0.41;" width="4.1" x="870.225" y="455.9761"/><rect fill="#FFFFFF" height="12.8293" style="stroke:#181818;stroke-width:0.41;" width="4.1" x="921.885" y="430.3174"/><line style="stroke:#181818;stroke-width:0.205;stroke-dasharray:5.0,5.0;" x1="13.94" x2="13.94" y1="36.1793" y2="501.844"/><line style="stroke:#181818;stroke-width:0.205;stroke-dasharray:5.0,5.0;" x1="137.76" x2="137.76" y1="36.1793" y2="501.844"/><line style="stroke:#181818;stroke-width:0.205;stroke-dasharray:5.0,5.0;" x1="321.03" x2="321.03" y1="36.1793" y2="501.844"/><line style="stroke:#181818;stroke-width:0.205;stroke-dasharray:5.0,5.0;" x1="412.87" x2="412.87" y1="36.1793" y2="501.844"/><line style="stroke:#181818;stroke-width:0.205;stroke-dasharray:5.0,5.0;" x1="483.39" x2="483.39" y1="36.1793" y2="501.844"/><line style="stroke:#181818;stroke-width:0.205;stroke-dasharray:5.0,5.0;" x1="549.81" x2="549.81" y1="36.1793" y2="501.844"/><line style="stroke:#181818;stroke-width:0.205;stroke-dasharray:5.0,5.0;" x1="616.23" x2="616.23" y1="36.1793" y2="501.844"/><line style="stroke:#181818;stroke-width:0.205;stroke-dasharray:5.0,5.0;" x1="664.61" x2="664.61" y1="36.1793" y2="501.844"/><line style="stroke:#181818;stroke-width:0.205;stroke-dasharray:5.0,5.0;" x1="733.695" x2="733.695" y1="36.1793" y2="501.844"/><line style="stroke:#181818;stroke-width:0.205;stroke-dasharray:5.0,5.0;" x1="802.165" x2="802.165" y1="36.1793" y2="501.844"/><line style="stroke:#181818;stroke-width:0.205;stroke-dasharray:5.0,5.0;" x1="872.275" x2="872.275" y1="36.1793" y2="501.844"/><line style="stroke:#181818;stroke-width:0.205;stroke-dasharray:5.0,5.0;" x1="923.935" x2="923.935" y1="36.1793" y2="501.844"/><text fill="#000000" font-family="FG Virgil" font-size="5.74" lengthAdjust="spacing" textLength="21.73" x="2.05" y="34.7387">Teacher</text><ellipse cx="14.145" cy="7.4296" fill="#E3E3E3" rx="3.28" ry="3.28" style="stroke:#181818;stroke-width:0.205;"/><path d="M14.145,10.7096 L14.145,21.7796 M8.815,13.9896 L19.475,13.9896 M14.145,21.7796 L8.815,27.9296 M14.145,21.7796 L19.475,27.9296 " fill="none" style="stroke:#181818;stroke-width:0.205;"/><text fill="#000000" font-family="FG Virgil" font-size="5.74" lengthAdjust="spacing" textLength="21.73" x="2.05" y="507.628">Teacher</text><ellipse cx="14.145" cy="512.5537" fill="#E3E3E3" rx="3.28" ry="3.28" style="stroke:#181818;stroke-width:0.205;"/><path d="M14.145,515.8337 L14.145,526.9037 M8.815,519.1137 L19.475,519.1137 M14.145,526.9037 L8.815,533.0537 M14.145,526.9037 L19.475,533.0537 " fill="none" style="stroke:#181818;stroke-width:0.205;"/><rect fill="#E3E3E3" height="21.0093" rx="1.025" ry="1.025" style="stroke:#181818;stroke-width:0.205;" width="70.93" x="102.5" y="14.76"/><text fill="#000000" font-family="FG Virgil" font-size="5.74" font-style="italic" lengthAdjust="spacing" textLength="12.3" x="131.815" y="23.824">&#171;UI&#187;</text><text fill="#000000" font-family="FG Virgil" font-size="5.74" lengthAdjust="spacing" textLength="65.19" x="105.37" y="31.4587">UpdateAutomatedExamUI</text><rect fill="#E3E3E3" height="21.0093" rx="1.025" ry="1.025" style="stroke:#181818;stroke-width:0.205;" width="70.93" x="102.5" y="501.434"/><text fill="#000000" font-family="FG Virgil" font-size="5.74" font-style="italic" lengthAdjust="spacing" textLength="12.3" x="131.815" y="510.498">&#171;UI&#187;</text><text fill="#000000" font-family="FG Virgil" font-size="5.74" lengthAdjust="spacing" textLength="65.19" x="105.37" y="518.1327">UpdateAutomatedExamUI</text><rect fill="#E3E3E3" height="21.0093" rx="1.025" ry="1.025" style="stroke:#181818;stroke-width:0.205;" width="91.43" x="275.52" y="14.76"/><text fill="#000000" font-family="FG Virgil" font-size="5.74" font-style="italic" lengthAdjust="spacing" textLength="34.85" x="303.81" y="23.824">&#171;Application&#187;</text><text fill="#000000" font-family="FG Virgil" font-size="5.74" lengthAdjust="spacing" textLength="85.69" x="278.39" y="31.4587">UpdateAutomatedExamController</text><rect fill="#E3E3E3" height="21.0093" rx="1.025" ry="1.025" style="stroke:#181818;stroke-width:0.205;" width="91.43" x="275.52" y="501.434"/><text fill="#000000" font-family="FG Virgil" font-size="5.74" font-style="italic" lengthAdjust="spacing" textLength="34.85" x="303.81" y="510.498">&#171;Application&#187;</text><text fill="#000000" font-family="FG Virgil" font-size="5.74" lengthAdjust="spacing" textLength="85.69" x="278.39" y="518.1327">UpdateAutomatedExamController</text><rect fill="#E3E3E3" height="21.0093" rx="1.025" ry="1.025" style="stroke:#181818;stroke-width:0.205;" width="83.64" x="371.05" y="14.76"/><text fill="#000000" font-family="FG Virgil" font-size="5.74" font-style="italic" lengthAdjust="spacing" textLength="34.85" x="395.445" y="23.824">&#171;Application&#187;</text><text fill="#000000" font-family="FG Virgil" font-size="5.74" lengthAdjust="spacing" textLength="77.9" x="373.92" y="31.4587">ListTeacherCoursesController</text><rect fill="#E3E3E3" height="21.0093" rx="1.025" ry="1.025" style="stroke:#181818;stroke-width:0.205;" width="83.64" x="371.05" y="501.434"/><text fill="#000000" font-family="FG Virgil" font-size="5.74" font-style="italic" lengthAdjust="spacing" textLength="34.85" x="395.445" y="510.498">&#171;Application&#187;</text><text fill="#000000" font-family="FG Virgil" font-size="5.74" lengthAdjust="spacing" textLength="77.9" x="373.92" y="518.1327">ListTeacherCoursesController</text><text fill="#000000" font-family="FG Virgil" font-size="5.74" font-style="italic" lengthAdjust="spacing" textLength="34.44" x="464.94" y="27.104">&#171;Repository&#187;</text><text fill="#000000" font-family="FG Virgil" font-size="5.74" lengthAdjust="spacing" textLength="46.74" x="458.79" y="34.7387">CourseRepository</text><path d="M476.01,6.15 C476.01,2.05 483.39,2.05 483.39,2.05 C483.39,2.05 490.77,2.05 490.77,6.15 L490.77,16.81 C490.77,20.91 483.39,20.91 483.39,20.91 C483.39,20.91 476.01,20.91 476.01,16.81 L476.01,6.15 " fill="#E3E3E3" style="stroke:#181818;stroke-width:0.615;"/><path d="M476.01,6.15 C476.01,10.25 483.39,10.25 483.39,10.25 C483.39,10.25 490.77,10.25 490.77,6.15 " fill="none" style="stroke:#181818;stroke-width:0.615;"/><text fill="#000000" font-family="FG Virgil" font-size="5.74" font-style="italic" lengthAdjust="spacing" textLength="34.44" x="464.94" y="507.628">&#171;Repository&#187;</text><text fill="#000000" font-family="FG Virgil" font-size="5.74" lengthAdjust="spacing" textLength="46.74" x="458.79" y="515.2627">CourseRepository</text><path d="M476.01,520.8033 C476.01,516.7033 483.39,516.7033 483.39,516.7033 C483.39,516.7033 490.77,516.7033 490.77,520.8033 L490.77,531.4633 C490.77,535.5633 483.39,535.5633 483.39,535.5633 C483.39,535.5633 476.01,535.5633 476.01,531.4633 L476.01,520.8033 " fill="#E3E3E3" style="stroke:#181818;stroke-width:0.615;"/><path d="M476.01,520.8033 C476.01,524.9033 483.39,524.9033 483.39,524.9033 C483.39,524.9033 490.77,524.9033 490.77,520.8033 " fill="none" style="stroke:#181818;stroke-width:0.615;"/><rect fill="#E3E3E3" height="21.0093" rx="1.025" ry="1.025" style="stroke:#181818;stroke-width:0.205;" width="75.85" x="512.09" y="14.76"/><text fill="#000000" font-family="FG Virgil" font-size="5.74" font-style="italic" lengthAdjust="spacing" textLength="34.85" x="532.59" y="23.824">&#171;Application&#187;</text><text fill="#000000" font-family="FG Virgil" font-size="5.74" lengthAdjust="spacing" textLength="70.11" x="514.96" y="31.4587">ListCourseExamsController</text><rect fill="#E3E3E3" height="21.0093" rx="1.025" ry="1.025" style="stroke:#181818;stroke-width:0.205;" width="75.85" x="512.09" y="501.434"/><text fill="#000000" font-family="FG Virgil" font-size="5.74" font-style="italic" lengthAdjust="spacing" textLength="34.85" x="532.59" y="510.498">&#171;Application&#187;</text><text fill="#000000" font-family="FG Virgil" font-size="5.74" lengthAdjust="spacing" textLength="70.11" x="514.96" y="518.1327">ListCourseExamsController</text><rect fill="#E3E3E3" height="21.0093" rx="1.025" ry="1.025" style="stroke:#181818;stroke-width:0.205;" width="48.79" x="592.04" y="14.76"/><text fill="#000000" font-family="FG Virgil" font-size="5.74" font-style="italic" lengthAdjust="spacing" textLength="25.42" x="603.725" y="23.824">&#171;Service&#187;</text><text fill="#000000" font-family="FG Virgil" font-size="5.74" lengthAdjust="spacing" textLength="43.05" x="594.91" y="31.4587">ExamFileCreator</text><rect fill="#E3E3E3" height="21.0093" rx="1.025" ry="1.025" style="stroke:#181818;stroke-width:0.205;" width="48.79" x="592.04" y="501.434"/><text fill="#000000" font-family="FG Virgil" font-size="5.74" font-style="italic" lengthAdjust="spacing" textLength="25.42" x="603.725" y="510.498">&#171;Service&#187;</text><text fill="#000000" font-family="FG Virgil" font-size="5.74" lengthAdjust="spacing" textLength="43.05" x="594.91" y="518.1327">ExamFileCreator</text><rect fill="#E3E3E3" height="21.0093" rx="1.025" ry="1.025" style="stroke:#181818;stroke-width:0.205;" width="39.77" x="644.93" y="14.76"/><text fill="#000000" font-family="FG Virgil" font-size="5.74" font-style="italic" lengthAdjust="spacing" textLength="25.42" x="652.105" y="23.824">&#171;Service&#187;</text><text fill="#000000" font-family="FG Virgil" font-size="5.74" lengthAdjust="spacing" textLength="34.03" x="647.8" y="31.4587">ExamHandler</text><rect fill="#E3E3E3" height="21.0093" rx="1.025" ry="1.025" style="stroke:#181818;stroke-width:0.205;" width="39.77" x="644.93" y="501.434"/><text fill="#000000" font-family="FG Virgil" font-size="5.74" font-style="italic" lengthAdjust="spacing" textLength="25.42" x="652.105" y="510.498">&#171;Service&#187;</text><text fill="#000000" font-family="FG Virgil" font-size="5.74" lengthAdjust="spacing" textLength="34.03" x="647.8" y="518.1327">ExamHandler</text><rect fill="#E3E3E3" height="21.0093" rx="1.025" ry="1.025" style="stroke:#181818;stroke-width:0.205;" width="63.14" x="702.125" y="14.76"/><text fill="#000000" font-family="FG Virgil" font-size="5.74" font-style="italic" lengthAdjust="spacing" textLength="25.42" x="720.985" y="23.824">&#171;Service&#187;</text><text fill="#000000" font-family="FG Virgil" font-size="5.74" lengthAdjust="spacing" textLength="57.4" x="704.995" y="31.4587">ExamParseTreeVisitor</text><rect fill="#E3E3E3" height="21.0093" rx="1.025" ry="1.025" style="stroke:#181818;stroke-width:0.205;" width="63.14" x="702.125" y="501.434"/><text fill="#000000" font-family="FG Virgil" font-size="5.74" font-style="italic" lengthAdjust="spacing" textLength="25.42" x="720.985" y="510.498">&#171;Service&#187;</text><text fill="#000000" font-family="FG Virgil" font-size="5.74" lengthAdjust="spacing" textLength="57.4" x="704.995" y="518.1327">ExamParseTreeVisitor</text><rect fill="#E3E3E3" height="21.0093" rx="1.025" ry="1.025" style="stroke:#181818;stroke-width:0.205;" width="65.6" x="769.365" y="14.76"/><text fill="#000000" font-family="FG Virgil" font-size="5.74" font-style="italic" lengthAdjust="spacing" textLength="24.6" x="789.865" y="23.824">&#171;Builder&#187;</text><text fill="#000000" font-family="FG Virgil" font-size="5.74" lengthAdjust="spacing" textLength="59.86" x="772.235" y="31.4587">AutomatedExamBuilder</text><rect fill="#E3E3E3" height="21.0093" rx="1.025" ry="1.025" style="stroke:#181818;stroke-width:0.205;" width="65.6" x="769.365" y="501.434"/><text fill="#000000" font-family="FG Virgil" font-size="5.74" font-style="italic" lengthAdjust="spacing" textLength="24.6" x="789.865" y="510.498">&#171;Builder&#187;</text><text fill="#000000" font-family="FG Virgil" font-size="5.74" lengthAdjust="spacing" textLength="59.86" x="772.235" y="518.1327">AutomatedExamBuilder</text><rect fill="#E3E3E3" height="21.0093" rx="1.025" ry="1.025" style="stroke:#181818;stroke-width:0.205;" width="47.56" x="848.495" y="14.76"/><text fill="#000000" font-family="FG Virgil" font-size="5.74" font-style="italic" lengthAdjust="spacing" textLength="34.44" x="855.055" y="23.824">&#171;Repository&#187;</text><text fill="#000000" font-family="FG Virgil" font-size="5.74" lengthAdjust="spacing" textLength="41.82" x="851.365" y="31.4587">ExamRepository</text><rect fill="#E3E3E3" height="21.0093" rx="1.025" ry="1.025" style="stroke:#181818;stroke-width:0.205;" width="47.56" x="848.495" y="501.434"/><text fill="#000000" font-family="FG Virgil" font-size="5.74" font-style="italic" lengthAdjust="spacing" textLength="34.44" x="855.055" y="510.498">&#171;Repository&#187;</text><text fill="#000000" font-family="FG Virgil" font-size="5.74" lengthAdjust="spacing" textLength="41.82" x="851.365" y="518.1327">ExamRepository</text><rect fill="#E3E3E3" height="21.0093" rx="1.025" ry="1.025" style="stroke:#181818;stroke-width:0.205;" width="47.56" x="900.155" y="14.76"/><text fill="#000000" font-family="FG Virgil" font-size="5.74" font-style="italic" lengthAdjust="spacing" textLength="26.24" x="910.815" y="23.824">&#171;Domain&#187;</text><text fill="#000000" font-family="FG Virgil" font-size="5.74" lengthAdjust="spacing" textLength="41.82" x="903.025" y="31.4587">AutomatedExam</text><rect fill="#E3E3E3" height="21.0093" rx="1.025" ry="1.025" style="stroke:#181818;stroke-width:0.205;" width="47.56" x="900.155" y="501.434"/><text fill="#000000" font-family="FG Virgil" font-size="5.74" font-style="italic" lengthAdjust="spacing" textLength="26.24" x="910.815" y="510.498">&#171;Domain&#187;</text><text fill="#000000" font-family="FG Virgil" font-size="5.74" lengthAdjust="spacing" textLength="41.82" x="903.025" y="518.1327">AutomatedExam</text><rect fill="#FFFFFF" height="448.3254" style="stroke:#181818;stroke-width:0.41;" width="4.1" x="135.915" y="49.8286"/><rect fill="#FFFFFF" height="38.4879" style="stroke:#181818;stroke-width:0.41;" width="4.1" x="319.185" y="62.6579"/><rect fill="#FFFFFF" height="38.4879" style="stroke:#181818;stroke-width:0.41;" width="4.1" x="319.185" y="179.4711"/><rect fill="#FFFFFF" height="218.0984" style="stroke:#181818;stroke-width:0.41;" width="4.1" x="319.185" y="263.5363"/><rect fill="#FFFFFF" height="12.8293" style="stroke:#181818;stroke-width:0.41;" width="4.1" x="547.965" y="75.4872"/><rect fill="#FFFFFF" height="12.8293" style="stroke:#181818;stroke-width:0.41;" width="4.1" x="614.385" y="192.3004"/><rect fill="#FFFFFF" height="141.1225" style="stroke:#181818;stroke-width:0.41;" width="4.1" x="662.765" y="276.3656"/><rect fill="#FFFFFF" height="12.8293" style="stroke:#181818;stroke-width:0.41;" width="4.1" x="731.645" y="302.0243"/><rect fill="#FFFFFF" height="51.3173" style="stroke:#181818;stroke-width:0.41;" width="4.1" x="800.115" y="353.3415"/><rect fill="#FFFFFF" height="12.8293" style="stroke:#181818;stroke-width:0.41;" width="4.1" x="870.225" y="366.1708"/><rect fill="#FFFFFF" height="12.8293" style="stroke:#181818;stroke-width:0.41;" width="4.1" x="870.225" y="455.9761"/><rect fill="#FFFFFF" height="12.8293" style="stroke:#181818;stroke-width:0.41;" width="4.1" x="921.885" y="430.3174"/><polygon fill="#181818" points="130.995,48.1886,135.095,49.8286,130.995,51.4686,132.635,49.8286" style="stroke:#181818;stroke-width:0.41;"/><line style="stroke:#181818;stroke-width:0.41;stroke-dasharray:2.0,2.0;" x1="14.145" x2="133.455" y1="49.8286" y2="49.8286"/><text fill="#000000" font-family="FG Virgil" font-size="5.33" font-weight="bold" lengthAdjust="spacing" textLength="2.87" x="17.015" y="47.6709">1</text><text fill="#000000" font-family="FG Virgil" font-size="5.33" lengthAdjust="spacing" textLength="84.05" x="21.525" y="47.6709">asks to update an automated exam</text><polygon fill="#181818" points="314.265,61.0179,318.365,62.6579,314.265,64.2979,315.905,62.6579" style="stroke:#181818;stroke-width:0.41;"/><line style="stroke:#181818;stroke-width:0.41;" x1="140.015" x2="316.725" y1="62.6579" y2="62.6579"/><text fill="#000000" font-family="FG Virgil" font-size="5.33" font-weight="bold" lengthAdjust="spacing" textLength="2.87" x="142.885" y="60.5002">2</text><text fill="#000000" font-family="FG Virgil" font-size="5.33" lengthAdjust="spacing" textLength="54.12" x="147.395" y="60.5002">findAutomatedExams()</text><polygon fill="#181818" points="543.045,73.8472,547.145,75.4872,543.045,77.1272,544.685,75.4872" style="stroke:#181818;stroke-width:0.41;"/><line style="stroke:#181818;stroke-width:0.41;" x1="323.285" x2="545.505" y1="75.4872" y2="75.4872"/><text fill="#000000" font-family="FG Virgil" font-size="5.33" font-weight="bold" lengthAdjust="spacing" textLength="2.87" x="326.155" y="73.3295">3</text><text fill="#000000" font-family="FG Virgil" font-size="5.33" lengthAdjust="spacing" textLength="103.32" x="330.665" y="73.3295">findTeacherAutomatedExams(examCreator)</text><polygon fill="#181818" points="327.795,86.6766,323.695,88.3166,327.795,89.9566,326.155,88.3166" style="stroke:#181818;stroke-width:0.41;"/><line style="stroke:#181818;stroke-width:0.41;" x1="325.335" x2="549.605" y1="88.3166" y2="88.3166"/><text fill="#000000" font-family="FG Virgil" font-size="5.33" font-weight="bold" lengthAdjust="spacing" textLength="2.87" x="330.255" y="86.1589">4</text><text fill="#000000" font-family="FG Virgil" font-size="5.33" lengthAdjust="spacing" textLength="39.77" x="334.765" y="86.1589">returns examList</text><polygon fill="#181818" points="144.525,99.5059,140.425,101.1459,144.525,102.7859,142.885,101.1459" style="stroke:#181818;stroke-width:0.41;"/><line style="stroke:#181818;stroke-width:0.41;" x1="142.065" x2="320.825" y1="101.1459" y2="101.1459"/><text fill="#000000" font-family="FG Virgil" font-size="5.33" font-weight="bold" lengthAdjust="spacing" textLength="2.87" x="146.985" y="98.9882">5</text><text fill="#000000" font-family="FG Virgil" font-size="5.33" lengthAdjust="spacing" textLength="21.73" x="151.495" y="98.9882">examList</text><polygon fill="#181818" points="18.655,119.4245,14.555,121.0645,18.655,122.7045,17.015,121.0645" style="stroke:#181818;stroke-width:0.41;"/><line style="stroke:#181818;stroke-width:0.41;stroke-dasharray:2.0,2.0;" x1="16.195" x2="135.505" y1="121.0645" y2="121.0645"/><text fill="#000000" font-family="FG Virgil" font-size="5.33" font-weight="bold" lengthAdjust="spacing" textLength="2.87" x="21.115" y="115.3621">6</text><text fill="#000000" font-family="FG Virgil" font-size="5.33" lengthAdjust="spacing" textLength="107.42" x="25.625" y="111.8175">shows a list of exams for the selected course</text><text fill="#000000" font-family="FG Virgil" font-size="5.33" lengthAdjust="spacing" textLength="54.12" x="27.265" y="118.9068">and asks to select one</text><polygon fill="#181818" points="130.995,132.2538,135.095,133.8938,130.995,135.5338,132.635,133.8938" style="stroke:#181818;stroke-width:0.41;"/><line style="stroke:#181818;stroke-width:0.41;stroke-dasharray:2.0,2.0;" x1="14.145" x2="133.455" y1="133.8938" y2="133.8938"/><text fill="#000000" font-family="FG Virgil" font-size="5.33" font-weight="bold" lengthAdjust="spacing" textLength="2.87" x="17.015" y="131.7361">7</text><text fill="#000000" font-family="FG Virgil" font-size="5.33" lengthAdjust="spacing" textLength="75.03" x="21.525" y="131.7361">selects the exam to be updated</text><polygon fill="#181818" points="18.655,152.1725,14.555,153.8125,18.655,155.4525,17.015,153.8125" style="stroke:#181818;stroke-width:0.41;"/><line style="stroke:#181818;stroke-width:0.41;stroke-dasharray:2.0,2.0;" x1="16.195" x2="135.505" y1="153.8125" y2="153.8125"/><text fill="#000000" font-family="FG Virgil" font-size="5.33" font-weight="bold" lengthAdjust="spacing" textLength="2.87" x="21.115" y="148.1101">8</text><text fill="#000000" font-family="FG Virgil" font-size="5.33" lengthAdjust="spacing" textLength="63.14" x="25.625" y="144.5654">asks to choose a directory</text><text fill="#000000" font-family="FG Virgil" font-size="5.33" lengthAdjust="spacing" textLength="50.02" x="27.265" y="151.6548">to store the exam file</text><polygon fill="#181818" points="130.995,165.0018,135.095,166.6418,130.995,168.2818,132.635,166.6418" style="stroke:#181818;stroke-width:0.41;"/><line style="stroke:#181818;stroke-width:0.41;stroke-dasharray:2.0,2.0;" x1="14.145" x2="133.455" y1="166.6418" y2="166.6418"/><text fill="#000000" font-family="FG Virgil" font-size="5.33" font-weight="bold" lengthAdjust="spacing" textLength="2.87" x="17.015" y="164.4841">9</text><text fill="#000000" font-family="FG Virgil" font-size="5.33" lengthAdjust="spacing" textLength="46.74" x="21.525" y="164.4841">chooses a directory</text><polygon fill="#181818" points="314.265,177.8311,318.365,179.4711,314.265,181.1111,315.905,179.4711" style="stroke:#181818;stroke-width:0.41;"/><line style="stroke:#181818;stroke-width:0.41;" x1="140.015" x2="316.725" y1="179.4711" y2="179.4711"/><text fill="#000000" font-family="FG Virgil" font-size="5.33" font-weight="bold" lengthAdjust="spacing" textLength="5.74" x="142.885" y="177.3134">10</text><text fill="#000000" font-family="FG Virgil" font-size="5.33" lengthAdjust="spacing" textLength="164" x="150.265" y="177.3134">createExamFileFromAutomatedExam(selectedExam, path, fileName)</text><polygon fill="#181818" points="609.465,190.6604,613.565,192.3004,609.465,193.9404,611.105,192.3004" style="stroke:#181818;stroke-width:0.41;"/><line style="stroke:#181818;stroke-width:0.41;" x1="323.285" x2="611.925" y1="192.3004" y2="192.3004"/><text fill="#000000" font-family="FG Virgil" font-size="5.33" font-weight="bold" lengthAdjust="spacing" textLength="5.74" x="326.155" y="190.1427">11</text><text fill="#000000" font-family="FG Virgil" font-size="5.33" lengthAdjust="spacing" textLength="111.93" x="333.535" y="190.1427">createExamFile(selectedExam, path, fileName)</text><polygon fill="#181818" points="327.795,203.4897,323.695,205.1297,327.795,206.7697,326.155,205.1297" style="stroke:#181818;stroke-width:0.41;"/><line style="stroke:#181818;stroke-width:0.41;" x1="325.335" x2="616.025" y1="205.1297" y2="205.1297"/><text fill="#000000" font-family="FG Virgil" font-size="5.33" font-weight="bold" lengthAdjust="spacing" textLength="5.74" x="330.255" y="202.972">12</text><text fill="#000000" font-family="FG Virgil" font-size="5.33" lengthAdjust="spacing" textLength="38.13" x="337.635" y="202.972">returns success</text><polygon fill="#181818" points="144.525,216.319,140.425,217.959,144.525,219.599,142.885,217.959" style="stroke:#181818;stroke-width:0.41;"/><line style="stroke:#181818;stroke-width:0.41;" x1="142.065" x2="320.825" y1="217.959" y2="217.959"/><text fill="#000000" font-family="FG Virgil" font-size="5.33" font-weight="bold" lengthAdjust="spacing" textLength="5.74" x="146.985" y="215.8013">13</text><text fill="#000000" font-family="FG Virgil" font-size="5.33" lengthAdjust="spacing" textLength="38.13" x="154.365" y="215.8013">returns success</text><polygon fill="#181818" points="18.655,236.2377,14.555,237.8777,18.655,239.5177,17.015,237.8777" style="stroke:#181818;stroke-width:0.41;"/><line style="stroke:#181818;stroke-width:0.41;stroke-dasharray:2.0,2.0;" x1="16.195" x2="135.505" y1="237.8777" y2="237.8777"/><text fill="#000000" font-family="FG Virgil" font-size="5.33" font-weight="bold" lengthAdjust="spacing" textLength="5.74" x="21.115" y="232.1753">14</text><text fill="#000000" font-family="FG Virgil" font-size="5.33" lengthAdjust="spacing" textLength="84.46" x="28.495" y="228.6307">shows success and asks to provide</text><text fill="#000000" font-family="FG Virgil" font-size="5.33" lengthAdjust="spacing" textLength="58.22" x="30.135" y="235.72">the same file after edited</text><polygon fill="#181818" points="130.995,249.067,135.095,250.707,130.995,252.347,132.635,250.707" style="stroke:#181818;stroke-width:0.41;"/><line style="stroke:#181818;stroke-width:0.41;stroke-dasharray:2.0,2.0;" x1="14.145" x2="133.455" y1="250.707" y2="250.707"/><text fill="#000000" font-family="FG Virgil" font-size="5.33" font-weight="bold" lengthAdjust="spacing" textLength="5.74" x="17.015" y="248.5493">15</text><text fill="#000000" font-family="FG Virgil" font-size="5.33" lengthAdjust="spacing" textLength="66.83" x="24.395" y="248.5493">sends the updated exam file</text><polygon fill="#181818" points="314.265,261.8963,318.365,263.5363,314.265,265.1763,315.905,263.5363" style="stroke:#181818;stroke-width:0.41;"/><line style="stroke:#181818;stroke-width:0.41;" x1="140.015" x2="316.725" y1="263.5363" y2="263.5363"/><text fill="#000000" font-family="FG Virgil" font-size="5.33" font-weight="bold" lengthAdjust="spacing" textLength="5.74" x="142.885" y="261.3786">16</text><text fill="#000000" font-family="FG Virgil" font-size="5.33" lengthAdjust="spacing" textLength="136.12" x="150.265" y="261.3786">updatedAutomatedExam(filePath, selectedCourse, exam)</text><polygon fill="#181818" points="657.845,274.7256,661.945,276.3656,657.845,278.0056,659.485,276.3656" style="stroke:#181818;stroke-width:0.41;"/><line style="stroke:#181818;stroke-width:0.41;" x1="323.285" x2="660.305" y1="276.3656" y2="276.3656"/><text fill="#000000" font-family="FG Virgil" font-size="5.33" font-weight="bold" lengthAdjust="spacing" textLength="5.74" x="326.155" y="274.2079">17</text><text fill="#000000" font-family="FG Virgil" font-size="5.33" lengthAdjust="spacing" textLength="147.6" x="333.535" y="274.2079">parseAutomatedExam(filePath, selectedCourse, examCreator)</text><polygon fill="#181818" points="728.775,287.5549,732.875,289.1949,728.775,290.8349,730.415,289.1949" style="stroke:#181818;stroke-width:0.41;"/><line style="stroke:#181818;stroke-width:0.41;" x1="666.865" x2="731.235" y1="289.1949" y2="289.1949"/><text fill="#000000" font-family="FG Virgil" font-size="5.33" font-weight="bold" lengthAdjust="spacing" textLength="5.74" x="669.735" y="287.0372">18</text><text fill="#000000" font-family="FG Virgil" font-size="5.33" lengthAdjust="spacing" textLength="21.32" x="677.115" y="287.0372">visit(tree)</text><polygon fill="#181818" points="726.725,300.3843,730.825,302.0243,726.725,303.6643,728.365,302.0243" style="stroke:#181818;stroke-width:0.41;"/><line style="stroke:#181818;stroke-width:0.41;" x1="666.865" x2="729.185" y1="302.0243" y2="302.0243"/><text fill="#000000" font-family="FG Virgil" font-size="5.33" font-weight="bold" lengthAdjust="spacing" textLength="5.74" x="669.735" y="299.8666">19</text><text fill="#000000" font-family="FG Virgil" font-size="5.33" lengthAdjust="spacing" textLength="41" x="677.115" y="299.8666">getExamBuilder()</text><polygon fill="#181818" points="671.375,313.2136,667.275,314.8536,671.375,316.4936,669.735,314.8536" style="stroke:#181818;stroke-width:0.41;"/><line style="stroke:#181818;stroke-width:0.41;" x1="668.915" x2="733.285" y1="314.8536" y2="314.8536"/><text fill="#000000" font-family="FG Virgil" font-size="5.33" font-weight="bold" lengthAdjust="spacing" textLength="5.74" x="673.835" y="312.6959">20</text><text fill="#000000" font-family="FG Virgil" font-size="5.33" lengthAdjust="spacing" textLength="47.56" x="681.215" y="312.6959">returns examBuilder</text><polygon fill="#181818" points="797.245,326.0429,801.345,327.6829,797.245,329.3229,798.885,327.6829" style="stroke:#181818;stroke-width:0.41;"/><line style="stroke:#181818;stroke-width:0.41;" x1="666.865" x2="799.705" y1="327.6829" y2="327.6829"/><text fill="#000000" font-family="FG Virgil" font-size="5.33" font-weight="bold" lengthAdjust="spacing" textLength="5.74" x="669.735" y="325.5252">21</text><text fill="#000000" font-family="FG Virgil" font-size="5.33" lengthAdjust="spacing" textLength="47.56" x="677.115" y="325.5252">withCreator(teacher)</text><polygon fill="#181818" points="797.245,338.8722,801.345,340.5122,797.245,342.1522,798.885,340.5122" style="stroke:#181818;stroke-width:0.41;"/><line style="stroke:#181818;stroke-width:0.41;" x1="666.865" x2="799.705" y1="340.5122" y2="340.5122"/><text fill="#000000" font-family="FG Virgil" font-size="5.33" font-weight="bold" lengthAdjust="spacing" textLength="5.74" x="669.735" y="338.3545">22</text><text fill="#000000" font-family="FG Virgil" font-size="5.33" lengthAdjust="spacing" textLength="66.42" x="677.115" y="338.3545">withCourse(selectedCourse)</text><polygon fill="#181818" points="795.195,351.7015,799.295,353.3415,795.195,354.9815,796.835,353.3415" style="stroke:#181818;stroke-width:0.41;"/><line style="stroke:#181818;stroke-width:0.41;" x1="666.865" x2="797.655" y1="353.3415" y2="353.3415"/><text fill="#000000" font-family="FG Virgil" font-size="5.33" font-weight="bold" lengthAdjust="spacing" textLength="5.74" x="669.735" y="351.1838">23</text><text fill="#000000" font-family="FG Virgil" font-size="5.33" lengthAdjust="spacing" textLength="14.35" x="677.115" y="351.1838">build()</text><polygon fill="#181818" points="865.305,364.5308,869.405,366.1708,865.305,367.8108,866.945,366.1708" style="stroke:#181818;stroke-width:0.41;"/><line style="stroke:#181818;stroke-width:0.41;" x1="804.215" x2="867.765" y1="366.1708" y2="366.1708"/><text fill="#000000" font-family="FG Virgil" font-size="5.33" font-weight="bold" lengthAdjust="spacing" textLength="5.74" x="807.085" y="364.0131">24</text><text fill="#000000" font-family="FG Virgil" font-size="5.33" lengthAdjust="spacing" textLength="50.84" x="814.465" y="364.0131">findByTitle(examTitle)</text><polygon fill="#181818" points="808.725,377.3602,804.625,379.0002,808.725,380.6402,807.085,379.0002" style="stroke:#181818;stroke-width:0.41;"/><line style="stroke:#181818;stroke-width:0.41;" x1="806.265" x2="871.865" y1="379.0002" y2="379.0002"/><text fill="#000000" font-family="FG Virgil" font-size="5.33" font-weight="bold" lengthAdjust="spacing" textLength="5.74" x="811.185" y="376.8425">25</text><text fill="#000000" font-family="FG Virgil" font-size="5.33" lengthAdjust="spacing" textLength="26.24" x="818.565" y="376.8425">returns null</text><polygon fill="#181818" points="919.015,390.1895,923.115,391.8295,919.015,393.4695,920.655,391.8295" style="stroke:#181818;stroke-width:0.41;"/><line style="stroke:#181818;stroke-width:0.41;" x1="804.215" x2="921.475" y1="391.8295" y2="391.8295"/><text fill="#000000" font-family="FG Virgil" font-size="5.33" font-weight="bold" lengthAdjust="spacing" textLength="5.74" x="807.085" y="389.6718">26</text><text fill="#000000" font-family="FG Virgil" font-size="5.33" lengthAdjust="spacing" textLength="14.76" x="814.465" y="389.6718">create</text><polygon fill="#181818" points="671.375,403.0188,667.275,404.6588,671.375,406.2988,669.735,404.6588" style="stroke:#181818;stroke-width:0.41;"/><line style="stroke:#181818;stroke-width:0.41;" x1="668.915" x2="801.755" y1="404.6588" y2="404.6588"/><text fill="#000000" font-family="FG Virgil" font-size="5.33" font-weight="bold" lengthAdjust="spacing" textLength="5.74" x="673.835" y="402.5011">27</text><text fill="#000000" font-family="FG Virgil" font-size="5.33" lengthAdjust="spacing" textLength="31.16" x="681.215" y="402.5011">returns exam</text><polygon fill="#181818" points="327.795,415.8481,323.695,417.4881,327.795,419.1281,326.155,417.4881" style="stroke:#181818;stroke-width:0.41;"/><line style="stroke:#181818;stroke-width:0.41;" x1="325.335" x2="664.405" y1="417.4881" y2="417.4881"/><text fill="#000000" font-family="FG Virgil" font-size="5.33" font-weight="bold" lengthAdjust="spacing" textLength="5.74" x="330.255" y="415.3304">28</text><text fill="#000000" font-family="FG Virgil" font-size="5.33" lengthAdjust="spacing" textLength="56.99" x="337.635" y="415.3304">returns automatedExam</text><polygon fill="#181818" points="916.965,428.6774,921.065,430.3174,916.965,431.9574,918.605,430.3174" style="stroke:#181818;stroke-width:0.41;"/><line style="stroke:#181818;stroke-width:0.41;" x1="323.285" x2="919.425" y1="430.3174" y2="430.3174"/><text fill="#000000" font-family="FG Virgil" font-size="5.33" font-weight="bold" lengthAdjust="spacing" textLength="5.74" x="326.155" y="428.1597">29</text><text fill="#000000" font-family="FG Virgil" font-size="5.33" lengthAdjust="spacing" textLength="64.37" x="333.535" y="428.1597">updateAll(automatedExam)</text><polygon fill="#181818" points="327.795,441.5067,323.695,443.1467,327.795,444.7867,326.155,443.1467" style="stroke:#181818;stroke-width:0.41;"/><line style="stroke:#181818;stroke-width:0.41;" x1="325.335" x2="923.525" y1="443.1467" y2="443.1467"/><text fill="#000000" font-family="FG Virgil" font-size="5.33" font-weight="bold" lengthAdjust="spacing" textLength="5.74" x="330.255" y="440.989">30</text><text fill="#000000" font-family="FG Virgil" font-size="5.33" lengthAdjust="spacing" textLength="38.13" x="337.635" y="440.989">returns success</text><polygon fill="#181818" points="865.305,454.3361,869.405,455.9761,865.305,457.6161,866.945,455.9761" style="stroke:#181818;stroke-width:0.41;"/><line style="stroke:#181818;stroke-width:0.41;" x1="323.285" x2="867.765" y1="455.9761" y2="455.9761"/><text fill="#000000" font-family="FG Virgil" font-size="5.33" font-weight="bold" lengthAdjust="spacing" textLength="5.74" x="326.155" y="453.8183">31</text><text fill="#000000" font-family="FG Virgil" font-size="5.33" lengthAdjust="spacing" textLength="52.89" x="333.535" y="453.8183">save(automatedExam)</text><polygon fill="#181818" points="327.795,467.1654,323.695,468.8054,327.795,470.4454,326.155,468.8054" style="stroke:#181818;stroke-width:0.41;"/><line style="stroke:#181818;stroke-width:0.41;" x1="325.335" x2="871.865" y1="468.8054" y2="468.8054"/><text fill="#000000" font-family="FG Virgil" font-size="5.33" font-weight="bold" lengthAdjust="spacing" textLength="5.74" x="330.255" y="466.6477">32</text><text fill="#000000" font-family="FG Virgil" font-size="5.33" lengthAdjust="spacing" textLength="38.13" x="337.635" y="466.6477">returns success</text><polygon fill="#181818" points="144.525,479.9947,140.425,481.6347,144.525,483.2747,142.885,481.6347" style="stroke:#181818;stroke-width:0.41;"/><line style="stroke:#181818;stroke-width:0.41;" x1="142.065" x2="320.825" y1="481.6347" y2="481.6347"/><text fill="#000000" font-family="FG Virgil" font-size="5.33" font-weight="bold" lengthAdjust="spacing" textLength="5.74" x="146.985" y="479.477">33</text><text fill="#000000" font-family="FG Virgil" font-size="5.33" lengthAdjust="spacing" textLength="56.99" x="154.365" y="479.477">returns automatedExam</text><polygon fill="#181818" points="18.655,492.824,14.555,494.464,18.655,496.104,17.015,494.464" style="stroke:#181818;stroke-width:0.41;"/><line style="stroke:#181818;stroke-width:0.41;stroke-dasharray:2.0,2.0;" x1="16.195" x2="135.505" y1="494.464" y2="494.464"/><text fill="#000000" font-family="FG Virgil" font-size="5.33" font-weight="bold" lengthAdjust="spacing" textLength="5.74" x="21.115" y="492.3063">34</text><text fill="#000000" font-family="FG Virgil" font-size="5.33" lengthAdjust="spacing" textLength="36.9" x="28.495" y="492.3063">shows success</text><!--SRC=[bLHDR-8m4BtxLrWzKQdz0wYg5BB95gbQ8GWzxSKa0x5gxCXswFRVxuoJ50SeRKy4-xqtupSVxbNgHbYnvtkZJLbRimVkRGlCVTmqedmLErZvTmNSGkcZkmgsebK-Dzh_4KZDV_CNQNTIHHXNYygyIRtZMw4SC2PQRtIxtu1belJ6yW94MOFbml628SdBKZP2UtwpRYhX8K727d-hx9_Oh-St15pF-SF3Ulxu-2KXnUIiKGfi86Of4fEcKR8KNXfzgl0idUyJIarh7RWJWUTp0OmfDi81l-aeIsYCa_Yqzy18byWudbsAsF4etVDmsVM4YPHB1Qa5WVA1bASSIIkm1rd29SAJqDKGuMbr7RiGc5fX0LvaU40WBOhFIIFxPwrKrU3z34dzmQL89xvbrtqRXGc4XApwXOUIN6AiuFVtZzGgKxnzTTmRteO6uK9pCT0v89zQKHxeQZrdo40UTigKRwMkHe7SvFQ8pLA6ACHIbJfmtpid70hH5oYY8uiHSmXcmRTMkv0GTGMhO8JjOeNtN89WDfGvGWf4kDgyEIwuGXGtsy1mV8lpvclW3XIECZw-39tt5_tGrOTBtIqt6c8FkrCN-AH6o0tqbbPnx46dh8t1iH2yahGvi8WOYFJn4uuwMspVE517Sp4lhab9HiBGzpakhP7Ra-5jzESEzvUlxq88Mb6NYfUVYtvN8qzPdfxLpxLb2Sx5jSdJk7fNW9UAsCD69MgiESYA2XVAITkNykDYwt6LGYMf9AFYwQehNL-loFh8s_voR2Y15i62mPPkNzq5ZKkMuawPeck8-OdI-OGyhHXAeU22t3ZG0ffuN4MtyV4EVBHfulbS50mHGpxnUFNWs7a4TwBPRChVfA_xT2Q-6-dRq-kG-MJya2C80sueo6XVp1XUqFMoNnUpzq9wx3VAANp5w2L3t20sPAzRfKODi-mra-oZZVkJirUFUBCXrRXrHLok68wLw4eRmdHjaYWr6H6Yv9EC9Tbt9YCPzbhmn8a3VAfvDEGBJGAUJzkdRxioSp6iOFy1]--></g></svg>