<?xml version="1.0" encoding="us-ascii" standalone="no"?><svg xmlns="http://www.w3.org/2000/svg" xmlns:xlink="http://www.w3.org/1999/xlink" contentStyleType="text/css" height="888.57px" preserveAspectRatio="none" style="width:2630px;height:888px;background:#FFFFFF;" version="1.1" viewBox="0 0 2630 888" width="2630.07px" zoomAndPan="magnify"><defs/><g><text fill="#000000" font-family="sans-serif" font-size="11.34" font-weight="bold" lengthAdjust="spacing" textLength="267.3" x="1175.715" y="20.337">US2001 - Create/Update an Exam Class Diagram</text><!--cluster ui--><g id="cluster_ui"><path d="M6.885,381.2142 L18.225,381.2142 A3.0375,3.0375 0 0 1 20.25,383.2392 L25.92,401.1572 L183.465,401.1572 A2.025,2.025 0 0 1 185.49,403.1822 L185.49,528.2292 A2.025,2.025 0 0 1 183.465,530.2542 L6.885,530.2542 A2.025,2.025 0 0 1 4.86,528.2292 L4.86,383.2392 A2.025,2.025 0 0 1 6.885,381.2142 " fill="none" style="stroke:#000000;stroke-width:1.215;"/><line style="stroke:#000000;stroke-width:1.215;" x1="4.86" x2="25.92" y1="401.1572" y2="401.1572"/><text fill="#000000" font-family="sans-serif" font-size="11.34" font-weight="bold" lengthAdjust="spacing" textLength="10.53" x="8.1" y="395.0712">ui</text></g><!--cluster exammanagement--><g id="cluster_exammanagement"><path d="M206.955,261.3342 L310.635,261.3342 A3.0375,3.0375 0 0 1 312.66,263.3592 L318.33,281.2772 L2446.2,281.2772 A2.025,2.025 0 0 1 2448.225,283.3022 L2448.225,881.3892 A2.025,2.025 0 0 1 2446.2,883.4142 L206.955,883.4142 A2.025,2.025 0 0 1 204.93,881.3892 L204.93,263.3592 A2.025,2.025 0 0 1 206.955,261.3342 " fill="none" style="stroke:#000000;stroke-width:1.215;"/><line style="stroke:#000000;stroke-width:1.215;" x1="204.93" x2="318.33" y1="281.2772" y2="281.2772"/><text fill="#000000" font-family="sans-serif" font-size="11.34" font-weight="bold" lengthAdjust="spacing" textLength="102.87" x="208.17" y="275.1912">exammanagement</text></g><!--cluster application--><g id="cluster_application"><path d="M226.395,297.7842 L289.575,297.7842 A3.0375,3.0375 0 0 1 291.6,299.8092 L297.27,317.7272 L981.315,317.7272 A2.025,2.025 0 0 1 983.34,319.7522 L983.34,595.4592 A2.025,2.025 0 0 1 981.315,597.4842 L226.395,597.4842 A2.025,2.025 0 0 1 224.37,595.4592 L224.37,299.8092 A2.025,2.025 0 0 1 226.395,297.7842 " fill="none" style="stroke:#000000;stroke-width:1.215;"/><line style="stroke:#000000;stroke-width:1.215;" x1="224.37" x2="297.27" y1="317.7272" y2="317.7272"/><text fill="#000000" font-family="sans-serif" font-size="11.34" font-weight="bold" lengthAdjust="spacing" textLength="62.37" x="227.61" y="311.6412">application</text></g><!--cluster repository--><g id="cluster_repository"><path d="M1400.085,499.4742 L1459.215,499.4742 A3.0375,3.0375 0 0 1 1461.24,501.4992 L1466.91,519.4172 L1606.635,519.4172 A2.025,2.025 0 0 1 1608.66,521.4422 L1608.66,595.4592 A2.025,2.025 0 0 1 1606.635,597.4842 L1400.085,597.4842 A2.025,2.025 0 0 1 1398.06,595.4592 L1398.06,501.4992 A2.025,2.025 0 0 1 1400.085,499.4742 " fill="none" style="stroke:#000000;stroke-width:1.215;"/><line style="stroke:#000000;stroke-width:1.215;" x1="1398.06" x2="1466.91" y1="519.4172" y2="519.4172"/><text fill="#000000" font-family="sans-serif" font-size="11.34" font-weight="bold" lengthAdjust="spacing" textLength="58.32" x="1401.3" y="513.3312">repository</text></g><!--cluster domain--><g id="cluster_domain"><path d="M404.595,616.9242 L446.715,616.9242 A3.0375,3.0375 0 0 1 448.74,618.9492 L454.41,636.8672 L2426.76,636.8672 A2.025,2.025 0 0 1 2428.785,638.8922 L2428.785,861.9492 A2.025,2.025 0 0 1 2426.76,863.9742 L404.595,863.9742 A2.025,2.025 0 0 1 402.57,861.9492 L402.57,618.9492 A2.025,2.025 0 0 1 404.595,616.9242 " fill="none" style="stroke:#000000;stroke-width:1.215;"/><line style="stroke:#000000;stroke-width:1.215;" x1="402.57" x2="454.41" y1="636.8672" y2="636.8672"/><text fill="#000000" font-family="sans-serif" font-size="11.34" font-weight="bold" lengthAdjust="spacing" textLength="41.31" x="405.81" y="630.7812">domain</text></g><!--cluster questionmanagement--><g id="cluster_questionmanagement"><path d="M1899.045,36.9642 L2022.975,36.9642 A3.0375,3.0375 0 0 1 2025,38.9892 L2030.67,56.9072 L2622.375,56.9072 A2.025,2.025 0 0 1 2624.4,58.9322 L2624.4,239.8692 A2.025,2.025 0 0 1 2622.375,241.8942 L1899.045,241.8942 A2.025,2.025 0 0 1 1897.02,239.8692 L1897.02,38.9892 A2.025,2.025 0 0 1 1899.045,36.9642 " fill="none" style="stroke:#000000;stroke-width:1.215;"/><line style="stroke:#000000;stroke-width:1.215;" x1="1897.02" x2="2030.67" y1="56.9072" y2="56.9072"/><text fill="#000000" font-family="sans-serif" font-size="11.34" font-weight="bold" lengthAdjust="spacing" textLength="123.12" x="1900.26" y="50.8212">questionmanagement</text></g><!--cluster domain--><g id="cluster_domain"><path d="M1918.485,73.4142 L1960.605,73.4142 A3.0375,3.0375 0 0 1 1962.63,75.4392 L1968.3,93.3572 L2602.935,93.3572 A2.025,2.025 0 0 1 2604.96,95.3822 L2604.96,220.4292 A2.025,2.025 0 0 1 2602.935,222.4542 L1918.485,222.4542 A2.025,2.025 0 0 1 1916.46,220.4292 L1916.46,75.4392 A2.025,2.025 0 0 1 1918.485,73.4142 " fill="none" style="stroke:#000000;stroke-width:1.215;"/><line style="stroke:#000000;stroke-width:1.215;" x1="1916.46" x2="1968.3" y1="93.3572" y2="93.3572"/><text fill="#000000" font-family="sans-serif" font-size="11.34" font-weight="bold" lengthAdjust="spacing" textLength="41.31" x="1919.7" y="87.2712">domain</text></g><!--class CreateAutomatedExamUI--><g id="elem_CreateAutomatedExamUI"><rect codeLine="7" fill="#F1F1F1" height="38.88" id="CreateAutomatedExamUI" rx="2.025" ry="2.025" style="stroke:#181818;stroke-width:0.405;" width="153.09" x="18.63" y="478.4142"/><ellipse cx="30.78" cy="491.3742" fill="#ADD1B2" rx="8.91" ry="8.91" style="stroke:#181818;stroke-width:0.81;"/><path d="M33.0202,488.0329 Q33.1467,487.8557 33.2986,487.7671 Q33.4505,487.6785 33.6277,487.6785 Q33.9314,487.6785 34.1213,487.8937 Q34.3111,488.0962 34.3111,488.5898 L34.3111,489.7668 Q34.3111,490.2604 34.1213,490.4756 Q33.9314,490.6907 33.6277,490.6907 Q33.3492,490.6907 33.1847,490.5262 Q33.0202,490.3743 32.9316,489.9567 Q32.8936,489.6656 32.7417,489.5137 Q32.4759,489.2099 31.9823,489.0328 Q31.4888,488.8556 30.9825,488.8556 Q30.3623,488.8556 29.8434,489.1213 Q29.3372,489.3871 28.9322,489.9946 Q28.5398,490.6021 28.5398,491.4374 L28.5398,492.3234 Q28.5398,493.3232 29.2613,493.994 Q29.9827,494.6521 31.2736,494.6521 Q32.033,494.6521 32.5645,494.4496 Q32.8809,494.3231 33.2227,493.9687 Q33.4378,493.7535 33.5517,493.6903 Q33.6783,493.627 33.8428,493.627 Q34.1086,493.627 34.3111,493.8421 Q34.5263,494.0446 34.5263,494.3231 Q34.5263,494.6015 34.2478,494.9306 Q33.8428,495.3988 33.1973,495.6646 Q32.3241,496.0317 31.2736,496.0317 Q30.0459,496.0317 29.0714,495.5254 Q28.2741,495.1204 27.7172,494.2598 Q27.1603,493.3865 27.1603,492.3487 L27.1603,491.4121 Q27.1603,490.3363 27.6539,489.4124 Q28.1602,488.4759 29.0461,487.9823 Q29.932,487.476 30.9319,487.476 Q31.5267,487.476 32.0456,487.6153 Q32.5772,487.7418 33.0202,488.0329 Z " fill="#000000"/><text fill="#000000" font-family="sans-serif" font-size="11.34" lengthAdjust="spacing" textLength="127.17" x="42.12" y="496.0696">CreateAutomatedExamUI</text><line style="stroke:#181818;stroke-width:0.405;" x1="19.44" x2="170.91" y1="504.3342" y2="504.3342"/><line style="stroke:#181818;stroke-width:0.405;" x1="19.44" x2="170.91" y1="510.8142" y2="510.8142"/></g><!--class UpdateAutomatedExamUI--><g id="elem_UpdateAutomatedExamUI"><rect codeLine="9" fill="#F1F1F1" height="38.88" id="UpdateAutomatedExamUI" rx="2.025" ry="2.025" style="stroke:#181818;stroke-width:0.405;" width="154.71" x="17.82" y="411.1842"/><ellipse cx="29.97" cy="424.1442" fill="#ADD1B2" rx="8.91" ry="8.91" style="stroke:#181818;stroke-width:0.81;"/><path d="M32.2102,420.8029 Q32.3367,420.6257 32.4886,420.5371 Q32.6405,420.4485 32.8177,420.4485 Q33.1214,420.4485 33.3113,420.6637 Q33.5011,420.8662 33.5011,421.3598 L33.5011,422.5368 Q33.5011,423.0304 33.3113,423.2456 Q33.1214,423.4607 32.8177,423.4607 Q32.5392,423.4607 32.3747,423.2962 Q32.2102,423.1443 32.1216,422.7267 Q32.0836,422.4356 31.9317,422.2837 Q31.6659,421.9799 31.1723,421.8028 Q30.6788,421.6256 30.1725,421.6256 Q29.5523,421.6256 29.0334,421.8913 Q28.5272,422.1571 28.1222,422.7646 Q27.7298,423.3721 27.7298,424.2074 L27.7298,425.0934 Q27.7298,426.0932 28.4513,426.764 Q29.1727,427.4221 30.4636,427.4221 Q31.223,427.4221 31.7545,427.2196 Q32.0709,427.0931 32.4127,426.7387 Q32.6278,426.5235 32.7417,426.4603 Q32.8683,426.397 33.0328,426.397 Q33.2986,426.397 33.5011,426.6121 Q33.7163,426.8146 33.7163,427.0931 Q33.7163,427.3715 33.4378,427.7006 Q33.0328,428.1688 32.3873,428.4346 Q31.5141,428.8017 30.4636,428.8017 Q29.2359,428.8017 28.2614,428.2954 Q27.4641,427.8904 26.9072,427.0298 Q26.3503,426.1565 26.3503,425.1187 L26.3503,424.1821 Q26.3503,423.1063 26.8439,422.1824 Q27.3502,421.2459 28.2361,420.7523 Q29.122,420.246 30.1219,420.246 Q30.7167,420.246 31.2356,420.3853 Q31.7672,420.5118 32.2102,420.8029 Z " fill="#000000"/><text fill="#000000" font-family="sans-serif" font-size="11.34" lengthAdjust="spacing" textLength="128.79" x="41.31" y="428.8396">UpdateAutomatedExamUI</text><line style="stroke:#181818;stroke-width:0.405;" x1="18.63" x2="171.72" y1="437.1042" y2="437.1042"/><line style="stroke:#181818;stroke-width:0.405;" x1="18.63" x2="171.72" y1="443.5842" y2="443.5842"/></g><!--class CreateAutomatedExamController--><g id="elem_CreateAutomatedExamController"><rect codeLine="15" fill="#F1F1F1" height="99.2123" id="CreateAutomatedExamController" rx="2.025" ry="2.025" style="stroke:#181818;stroke-width:0.405;" width="670.68" x="268.515" y="485.7042"/><ellipse cx="516.5775" cy="498.6642" fill="#ADD1B2" rx="8.91" ry="8.91" style="stroke:#181818;stroke-width:0.81;"/><path d="M518.8177,495.3229 Q518.9442,495.1457 519.0961,495.0571 Q519.248,494.9685 519.4252,494.9685 Q519.7289,494.9685 519.9188,495.1837 Q520.1086,495.3862 520.1086,495.8798 L520.1086,497.0568 Q520.1086,497.5504 519.9188,497.7656 Q519.7289,497.9807 519.4252,497.9807 Q519.1467,497.9807 518.9822,497.8162 Q518.8177,497.6643 518.7291,497.2467 Q518.6911,496.9556 518.5392,496.8037 Q518.2734,496.4999 517.7798,496.3228 Q517.2863,496.1456 516.78,496.1456 Q516.1598,496.1456 515.6409,496.4113 Q515.1347,496.6771 514.7297,497.2846 Q514.3373,497.8921 514.3373,498.7274 L514.3373,499.6134 Q514.3373,500.6132 515.0588,501.284 Q515.7802,501.9421 517.0711,501.9421 Q517.8305,501.9421 518.362,501.7396 Q518.6784,501.6131 519.0202,501.2587 Q519.2353,501.0435 519.3492,500.9803 Q519.4758,500.917 519.6403,500.917 Q519.9061,500.917 520.1086,501.1321 Q520.3238,501.3346 520.3238,501.6131 Q520.3238,501.8915 520.0453,502.2206 Q519.6403,502.6888 518.9948,502.9546 Q518.1216,503.3217 517.0711,503.3217 Q515.8434,503.3217 514.8689,502.8154 Q514.0716,502.4104 513.5147,501.5498 Q512.9578,500.6765 512.9578,499.6387 L512.9578,498.7021 Q512.9578,497.6263 513.4514,496.7024 Q513.9577,495.7659 514.8436,495.2723 Q515.7295,494.766 516.7294,494.766 Q517.3242,494.766 517.8431,494.9053 Q518.3747,495.0318 518.8177,495.3229 Z " fill="#000000"/><text fill="#000000" font-family="sans-serif" font-size="11.34" lengthAdjust="spacing" textLength="167.67" x="533.1825" y="503.3596">CreateAutomatedExamController</text><line style="stroke:#181818;stroke-width:0.405;" x1="269.325" x2="938.385" y1="511.6242" y2="511.6242"/><line style="stroke:#181818;stroke-width:0.405;" x1="269.325" x2="938.385" y1="518.1042" y2="518.1042"/><ellipse cx="277.425" cy="530.1007" fill="#84BE84" rx="2.43" ry="2.43" style="stroke:#038048;stroke-width:0.81;"/><text fill="#000000" font-family="sans-serif" font-size="11.34" lengthAdjust="spacing" textLength="649.62" x="284.715" y="533.5812">CreateAutomatedExamController(listTeacherCoursesController, examRepository, automatedExamHandler, userSessionService)</text><rect fill="#F24D5C" height="4.86" style="stroke:#C82930;stroke-width:0.81;" width="4.86" x="274.995" y="542.7538"/><text fill="#000000" font-family="sans-serif" font-size="11.34" lengthAdjust="spacing" textLength="102.06" x="284.715" y="548.6643">verifyExamCreator()</text><ellipse cx="277.425" cy="560.2669" fill="#84BE84" rx="2.43" ry="2.43" style="stroke:#038048;stroke-width:0.81;"/><text fill="#000000" font-family="sans-serif" font-size="11.34" lengthAdjust="spacing" textLength="167.67" x="284.715" y="563.7473">teacherCourses() : List&lt;Course&gt;</text><ellipse cx="277.425" cy="575.35" fill="#84BE84" rx="2.43" ry="2.43" style="stroke:#038048;stroke-width:0.81;"/><text fill="#000000" font-family="sans-serif" font-size="11.34" lengthAdjust="spacing" textLength="340.2" x="284.715" y="578.8304">createAutomatedExam(filePath, selectedCourse) : AutomatedExam</text></g><!--class UpdateAutomatedExamController--><g id="elem_UpdateAutomatedExamController"><rect codeLine="22" fill="#F1F1F1" height="129.3785" id="UpdateAutomatedExamController" rx="2.025" ry="2.025" style="stroke:#181818;stroke-width:0.405;" width="733.05" x="237.33" y="327.7542"/><ellipse cx="515.7675" cy="340.7142" fill="#ADD1B2" rx="8.91" ry="8.91" style="stroke:#181818;stroke-width:0.81;"/><path d="M518.0077,337.3729 Q518.1342,337.1957 518.2861,337.1071 Q518.438,337.0185 518.6152,337.0185 Q518.9189,337.0185 519.1088,337.2337 Q519.2986,337.4362 519.2986,337.9298 L519.2986,339.1068 Q519.2986,339.6004 519.1088,339.8156 Q518.9189,340.0307 518.6152,340.0307 Q518.3367,340.0307 518.1722,339.8662 Q518.0077,339.7143 517.9191,339.2967 Q517.8811,339.0056 517.7292,338.8537 Q517.4634,338.5499 516.9698,338.3728 Q516.4763,338.1956 515.97,338.1956 Q515.3498,338.1956 514.8309,338.4613 Q514.3247,338.7271 513.9197,339.3346 Q513.5273,339.9421 513.5273,340.7774 L513.5273,341.6634 Q513.5273,342.6632 514.2488,343.334 Q514.9702,343.9921 516.2611,343.9921 Q517.0205,343.9921 517.552,343.7896 Q517.8684,343.6631 518.2102,343.3087 Q518.4253,343.0935 518.5392,343.0303 Q518.6658,342.967 518.8303,342.967 Q519.0961,342.967 519.2986,343.1821 Q519.5138,343.3846 519.5138,343.6631 Q519.5138,343.9415 519.2353,344.2706 Q518.8303,344.7388 518.1848,345.0046 Q517.3116,345.3717 516.2611,345.3717 Q515.0334,345.3717 514.0589,344.8654 Q513.2616,344.4604 512.7047,343.5998 Q512.1478,342.7265 512.1478,341.6887 L512.1478,340.7521 Q512.1478,339.6763 512.6414,338.7524 Q513.1477,337.8159 514.0336,337.3223 Q514.9195,336.816 515.9194,336.816 Q516.5142,336.816 517.0331,336.9553 Q517.5647,337.0818 518.0077,337.3729 Z " fill="#000000"/><text fill="#000000" font-family="sans-serif" font-size="11.34" lengthAdjust="spacing" textLength="169.29" x="532.3725" y="345.4096">UpdateAutomatedExamController</text><line style="stroke:#181818;stroke-width:0.405;" x1="238.14" x2="969.57" y1="353.6742" y2="353.6742"/><line style="stroke:#181818;stroke-width:0.405;" x1="238.14" x2="969.57" y1="360.1542" y2="360.1542"/><ellipse cx="246.24" cy="372.1507" fill="#84BE84" rx="2.43" ry="2.43" style="stroke:#038048;stroke-width:0.81;"/><text fill="#000000" font-family="sans-serif" font-size="11.34" lengthAdjust="spacing" textLength="711.99" x="253.53" y="375.6312">UpdateAutomatedExamController(userSessionService, teacherCoursesProvider, courseExamsProvider, courseRepository, examRepository)</text><rect fill="#F24D5C" height="4.86" style="stroke:#C82930;stroke-width:0.81;" width="4.86" x="243.81" y="384.8038"/><text fill="#000000" font-family="sans-serif" font-size="11.34" lengthAdjust="spacing" textLength="102.06" x="253.53" y="390.7143">verifyExamCreator()</text><ellipse cx="246.24" cy="402.3169" fill="#84BE84" rx="2.43" ry="2.43" style="stroke:#038048;stroke-width:0.81;"/><text fill="#000000" font-family="sans-serif" font-size="11.34" lengthAdjust="spacing" textLength="167.67" x="253.53" y="405.7973">teacherCourses() : List&lt;Course&gt;</text><ellipse cx="246.24" cy="417.4" fill="#84BE84" rx="2.43" ry="2.43" style="stroke:#038048;stroke-width:0.81;"/><text fill="#000000" font-family="sans-serif" font-size="11.34" lengthAdjust="spacing" textLength="289.17" x="253.53" y="420.8804">courseAutomatedExams(course) : List&lt;AutomatedExam&gt;</text><ellipse cx="246.24" cy="432.483" fill="#84BE84" rx="2.43" ry="2.43" style="stroke:#038048;stroke-width:0.81;"/><text fill="#000000" font-family="sans-serif" font-size="11.34" lengthAdjust="spacing" textLength="295.65" x="253.53" y="435.9635">createExamFileFromAutomatedExam(selectedExam, path)</text><ellipse cx="246.24" cy="447.5661" fill="#84BE84" rx="2.43" ry="2.43" style="stroke:#038048;stroke-width:0.81;"/><text fill="#000000" font-family="sans-serif" font-size="11.34" lengthAdjust="spacing" textLength="376.65" x="253.53" y="451.0466">updateAutomatedExam(filePath, selectedCourse, exam) : AutomatedExam</text></g><!--class ExamRepository--><g id="elem_ExamRepository"><rect codeLine="33" fill="#F1F1F1" height="53.9631" id="ExamRepository" rx="2.025" ry="2.025" style="stroke:#181818;stroke-width:0.405;" width="184.68" x="1411.02" y="529.8492"/><ellipse cx="1458.6075" cy="542.8092" fill="#B4A7E5" rx="8.91" ry="8.91" style="stroke:#181818;stroke-width:0.81;"/><path d="M1459.3795,540.0881 L1459.3795,545.4796 L1460.7717,545.4796 Q1461.2653,545.4796 1461.4805,545.6695 Q1461.6956,545.8593 1461.6956,546.1757 Q1461.6956,546.4795 1461.4805,546.6693 Q1461.2653,546.8592 1460.7717,546.8592 L1456.6078,546.8592 Q1456.1142,546.8592 1455.8991,546.6693 Q1455.6839,546.4795 1455.6839,546.1631 Q1455.6839,545.8593 1455.8991,545.6695 Q1456.1142,545.4796 1456.6078,545.4796 L1458,545.4796 L1458,540.0881 L1456.6078,540.0881 Q1456.1142,540.0881 1455.8991,539.8982 Q1455.6839,539.7084 1455.6839,539.392 Q1455.6839,539.0882 1455.8991,538.8984 Q1456.1142,538.7085 1456.6078,538.7085 L1460.7717,538.7085 Q1461.2653,538.7085 1461.4805,538.8984 Q1461.6956,539.0882 1461.6956,539.392 Q1461.6956,539.7084 1461.4805,539.8982 Q1461.2653,540.0881 1460.7717,540.0881 L1459.3795,540.0881 Z " fill="#000000"/><text fill="#000000" font-family="sans-serif" font-size="11.34" font-style="italic" lengthAdjust="spacing" textLength="82.62" x="1475.2125" y="547.5046">ExamRepository</text><line style="stroke:#181818;stroke-width:0.405;" x1="1411.83" x2="1594.89" y1="555.7692" y2="555.7692"/><line style="stroke:#181818;stroke-width:0.405;" x1="1411.83" x2="1594.89" y1="562.2492" y2="562.2492"/><text fill="#000000" font-family="sans-serif" font-size="11.34" lengthAdjust="spacing" textLength="174.96" x="1415.88" y="577.7262">findExamByTitle(examTitle) : Exam</text></g><!--class Exam--><g id="elem_Exam"><rect codeLine="39" fill="#F1F1F1" height="38.88" id="Exam" rx="2.025" ry="2.025" style="stroke:#181818;stroke-width:0.405;" width="53.46" x="1735.83" y="744.9042"/><ellipse cx="1747.98" cy="757.8642" fill="#A9DCDF" rx="8.91" ry="8.91" style="stroke:#181818;stroke-width:0.81;"/><path d="M1749.7519,759.2943 L1746.398,759.2943 L1746.0563,760.1296 L1746.398,760.1296 Q1746.8916,760.1296 1747.1067,760.3195 Q1747.3219,760.5093 1747.3219,760.8257 Q1747.3219,761.1295 1747.1067,761.3193 Q1746.8916,761.5092 1746.398,761.5092 L1744.5375,761.5092 Q1744.0439,761.5092 1743.8414,761.3193 Q1743.6263,761.1295 1743.6263,760.8131 Q1743.6263,760.5093 1743.8541,760.3195 Q1744.0692,760.117 1744.5755,760.1296 L1746.7397,754.7381 L1745.8411,754.7381 Q1745.3475,754.7381 1745.1323,754.5482 Q1744.9172,754.3584 1744.9172,754.042 Q1744.9172,753.7382 1745.1323,753.5484 Q1745.3475,753.3585 1745.8411,753.3585 L1748.8153,753.3585 L1751.5617,760.1296 Q1752.0427,760.1296 1752.1945,760.2435 Q1752.5109,760.4587 1752.5109,760.8257 Q1752.5109,761.1295 1752.2958,761.3193 Q1752.0933,761.5092 1751.5997,761.5092 L1749.7392,761.5092 Q1749.2456,761.5092 1749.0305,761.3193 Q1748.8153,761.1295 1748.8153,760.8131 Q1748.8153,760.5093 1749.0305,760.3195 Q1749.2456,760.1296 1749.7392,760.1296 L1750.0809,760.1296 L1749.7519,759.2943 Z M1749.1697,757.9148 L1748.0686,755.181 L1746.9548,757.9148 L1749.1697,757.9148 Z " fill="#000000"/><text fill="#000000" font-family="sans-serif" font-size="11.34" font-style="italic" lengthAdjust="spacing" textLength="27.54" x="1759.32" y="762.5596">Exam</text><line style="stroke:#181818;stroke-width:0.405;" x1="1736.64" x2="1788.48" y1="770.8242" y2="770.8242"/><line style="stroke:#181818;stroke-width:0.405;" x1="1736.64" x2="1788.48" y1="777.3042" y2="777.3042"/></g><!--class AutomatedExam--><g id="elem_AutomatedExam"><rect codeLine="41" fill="#F1F1F1" height="38.88" id="AutomatedExam" rx="2.025" ry="2.025" style="stroke:#181818;stroke-width:0.405;" width="108.54" x="1708.29" y="812.1342"/><ellipse cx="1720.44" cy="825.0942" fill="#ADD1B2" rx="8.91" ry="8.91" style="stroke:#181818;stroke-width:0.81;"/><path d="M1722.6802,821.7529 Q1722.8067,821.5757 1722.9586,821.4871 Q1723.1105,821.3985 1723.2877,821.3985 Q1723.5914,821.3985 1723.7813,821.6137 Q1723.9711,821.8162 1723.9711,822.3098 L1723.9711,823.4868 Q1723.9711,823.9804 1723.7813,824.1956 Q1723.5914,824.4107 1723.2877,824.4107 Q1723.0092,824.4107 1722.8447,824.2462 Q1722.6802,824.0943 1722.5916,823.6767 Q1722.5536,823.3856 1722.4017,823.2337 Q1722.1359,822.9299 1721.6423,822.7528 Q1721.1488,822.5756 1720.6425,822.5756 Q1720.0223,822.5756 1719.5034,822.8413 Q1718.9972,823.1071 1718.5922,823.7146 Q1718.1998,824.3221 1718.1998,825.1574 L1718.1998,826.0434 Q1718.1998,827.0432 1718.9213,827.714 Q1719.6427,828.3721 1720.9336,828.3721 Q1721.693,828.3721 1722.2245,828.1696 Q1722.5409,828.0431 1722.8827,827.6887 Q1723.0978,827.4735 1723.2117,827.4103 Q1723.3383,827.347 1723.5028,827.347 Q1723.7686,827.347 1723.9711,827.5621 Q1724.1863,827.7646 1724.1863,828.0431 Q1724.1863,828.3215 1723.9078,828.6506 Q1723.5028,829.1188 1722.8573,829.3846 Q1721.9841,829.7517 1720.9336,829.7517 Q1719.7059,829.7517 1718.7314,829.2454 Q1717.9341,828.8404 1717.3772,827.9798 Q1716.8203,827.1065 1716.8203,826.0687 L1716.8203,825.1321 Q1716.8203,824.0563 1717.3139,823.1324 Q1717.8202,822.1959 1718.7061,821.7023 Q1719.592,821.196 1720.5919,821.196 Q1721.1867,821.196 1721.7056,821.3353 Q1722.2372,821.4618 1722.6802,821.7529 Z " fill="#000000"/><text fill="#000000" font-family="sans-serif" font-size="11.34" lengthAdjust="spacing" textLength="82.62" x="1731.78" y="829.7896">AutomatedExam</text><line style="stroke:#181818;stroke-width:0.405;" x1="1709.1" x2="1816.02" y1="838.0542" y2="838.0542"/><line style="stroke:#181818;stroke-width:0.405;" x1="1709.1" x2="1816.02" y1="844.5342" y2="844.5342"/></g><!--class ExamSection--><g id="elem_ExamSection"><rect codeLine="43" fill="#F1F1F1" height="38.88" id="ExamSection" rx="2.025" ry="2.025" style="stroke:#181818;stroke-width:0.405;" width="91.53" x="2324.295" y="646.8942"/><ellipse cx="2336.445" cy="659.8542" fill="#ADD1B2" rx="8.91" ry="8.91" style="stroke:#181818;stroke-width:0.81;"/><path d="M2338.6852,656.5129 Q2338.8117,656.3357 2338.9636,656.2471 Q2339.1155,656.1585 2339.2927,656.1585 Q2339.5964,656.1585 2339.7863,656.3737 Q2339.9761,656.5762 2339.9761,657.0698 L2339.9761,658.2468 Q2339.9761,658.7404 2339.7863,658.9556 Q2339.5964,659.1707 2339.2927,659.1707 Q2339.0142,659.1707 2338.8497,659.0062 Q2338.6852,658.8543 2338.5966,658.4367 Q2338.5586,658.1456 2338.4067,657.9937 Q2338.1409,657.6899 2337.6473,657.5128 Q2337.1538,657.3356 2336.6475,657.3356 Q2336.0273,657.3356 2335.5084,657.6013 Q2335.0022,657.8671 2334.5972,658.4746 Q2334.2048,659.0821 2334.2048,659.9174 L2334.2048,660.8034 Q2334.2048,661.8032 2334.9263,662.474 Q2335.6477,663.1321 2336.9386,663.1321 Q2337.698,663.1321 2338.2295,662.9296 Q2338.5459,662.8031 2338.8877,662.4487 Q2339.1028,662.2335 2339.2167,662.1703 Q2339.3433,662.107 2339.5078,662.107 Q2339.7736,662.107 2339.9761,662.3221 Q2340.1913,662.5246 2340.1913,662.8031 Q2340.1913,663.0815 2339.9128,663.4106 Q2339.5078,663.8788 2338.8623,664.1446 Q2337.9891,664.5117 2336.9386,664.5117 Q2335.7109,664.5117 2334.7364,664.0054 Q2333.9391,663.6004 2333.3822,662.7398 Q2332.8253,661.8665 2332.8253,660.8287 L2332.8253,659.8921 Q2332.8253,658.8163 2333.3189,657.8924 Q2333.8252,656.9559 2334.7111,656.4623 Q2335.597,655.956 2336.5969,655.956 Q2337.1917,655.956 2337.7106,656.0953 Q2338.2422,656.2218 2338.6852,656.5129 Z " fill="#000000"/><text fill="#000000" font-family="sans-serif" font-size="11.34" lengthAdjust="spacing" textLength="65.61" x="2347.785" y="664.5496">ExamSection</text><line style="stroke:#181818;stroke-width:0.405;" x1="2325.105" x2="2415.015" y1="672.8142" y2="672.8142"/><line style="stroke:#181818;stroke-width:0.405;" x1="2325.105" x2="2415.015" y1="679.2942" y2="679.2942"/></g><!--class ExamOpenPeriod--><g id="elem_ExamOpenPeriod"><rect codeLine="49" fill="#F1F1F1" height="38.88" id="ExamOpenPeriod" rx="2.025" ry="2.025" style="stroke:#181818;stroke-width:0.405;" width="115.02" x="1940.76" y="812.1342"/><ellipse cx="1952.91" cy="825.0942" fill="#ADD1B2" rx="8.91" ry="8.91" style="stroke:#181818;stroke-width:0.81;"/><path d="M1955.1502,821.7529 Q1955.2767,821.5757 1955.4286,821.4871 Q1955.5805,821.3985 1955.7577,821.3985 Q1956.0614,821.3985 1956.2513,821.6137 Q1956.4411,821.8162 1956.4411,822.3098 L1956.4411,823.4868 Q1956.4411,823.9804 1956.2513,824.1956 Q1956.0614,824.4107 1955.7577,824.4107 Q1955.4792,824.4107 1955.3147,824.2462 Q1955.1502,824.0943 1955.0616,823.6767 Q1955.0236,823.3856 1954.8717,823.2337 Q1954.6059,822.9299 1954.1123,822.7528 Q1953.6188,822.5756 1953.1125,822.5756 Q1952.4923,822.5756 1951.9734,822.8413 Q1951.4672,823.1071 1951.0622,823.7146 Q1950.6698,824.3221 1950.6698,825.1574 L1950.6698,826.0434 Q1950.6698,827.0432 1951.3913,827.714 Q1952.1127,828.3721 1953.4036,828.3721 Q1954.163,828.3721 1954.6945,828.1696 Q1955.0109,828.0431 1955.3527,827.6887 Q1955.5678,827.4735 1955.6817,827.4103 Q1955.8083,827.347 1955.9728,827.347 Q1956.2386,827.347 1956.4411,827.5621 Q1956.6563,827.7646 1956.6563,828.0431 Q1956.6563,828.3215 1956.3778,828.6506 Q1955.9728,829.1188 1955.3273,829.3846 Q1954.4541,829.7517 1953.4036,829.7517 Q1952.1759,829.7517 1951.2014,829.2454 Q1950.4041,828.8404 1949.8472,827.9798 Q1949.2903,827.1065 1949.2903,826.0687 L1949.2903,825.1321 Q1949.2903,824.0563 1949.7839,823.1324 Q1950.2902,822.1959 1951.1761,821.7023 Q1952.062,821.196 1953.0619,821.196 Q1953.6567,821.196 1954.1756,821.3353 Q1954.7072,821.4618 1955.1502,821.7529 Z " fill="#000000"/><text fill="#000000" font-family="sans-serif" font-size="11.34" lengthAdjust="spacing" textLength="89.1" x="1964.25" y="829.7896">ExamOpenPeriod</text><line style="stroke:#181818;stroke-width:0.405;" x1="1941.57" x2="2054.97" y1="838.0542" y2="838.0542"/><line style="stroke:#181818;stroke-width:0.405;" x1="1941.57" x2="2054.97" y1="844.5342" y2="844.5342"/></g><!--class ExamHeader--><g id="elem_ExamHeader"><rect codeLine="47" fill="#F1F1F1" height="38.88" id="ExamHeader" rx="2.025" ry="2.025" style="stroke:#181818;stroke-width:0.405;" width="90.72" x="1952.91" y="744.9042"/><ellipse cx="1965.06" cy="757.8642" fill="#ADD1B2" rx="8.91" ry="8.91" style="stroke:#181818;stroke-width:0.81;"/><path d="M1967.3002,754.5229 Q1967.4267,754.3457 1967.5786,754.2571 Q1967.7305,754.1685 1967.9077,754.1685 Q1968.2114,754.1685 1968.4013,754.3837 Q1968.5911,754.5862 1968.5911,755.0798 L1968.5911,756.2568 Q1968.5911,756.7504 1968.4013,756.9656 Q1968.2114,757.1807 1967.9077,757.1807 Q1967.6292,757.1807 1967.4647,757.0162 Q1967.3002,756.8643 1967.2116,756.4467 Q1967.1736,756.1556 1967.0217,756.0037 Q1966.7559,755.6999 1966.2623,755.5228 Q1965.7688,755.3456 1965.2625,755.3456 Q1964.6423,755.3456 1964.1234,755.6113 Q1963.6172,755.8771 1963.2122,756.4846 Q1962.8198,757.0921 1962.8198,757.9274 L1962.8198,758.8134 Q1962.8198,759.8132 1963.5413,760.484 Q1964.2627,761.1421 1965.5536,761.1421 Q1966.313,761.1421 1966.8445,760.9396 Q1967.1609,760.8131 1967.5027,760.4587 Q1967.7178,760.2435 1967.8317,760.1803 Q1967.9583,760.117 1968.1228,760.117 Q1968.3886,760.117 1968.5911,760.3321 Q1968.8063,760.5346 1968.8063,760.8131 Q1968.8063,761.0915 1968.5278,761.4206 Q1968.1228,761.8888 1967.4773,762.1546 Q1966.6041,762.5217 1965.5536,762.5217 Q1964.3259,762.5217 1963.3514,762.0154 Q1962.5541,761.6104 1961.9972,760.7498 Q1961.4403,759.8765 1961.4403,758.8387 L1961.4403,757.9021 Q1961.4403,756.8263 1961.9339,755.9024 Q1962.4402,754.9659 1963.3261,754.4723 Q1964.212,753.966 1965.2119,753.966 Q1965.8067,753.966 1966.3256,754.1053 Q1966.8572,754.2318 1967.3002,754.5229 Z " fill="#000000"/><text fill="#000000" font-family="sans-serif" font-size="11.34" lengthAdjust="spacing" textLength="64.8" x="1976.4" y="762.5596">ExamHeader</text><line style="stroke:#181818;stroke-width:0.405;" x1="1953.72" x2="2042.82" y1="770.8242" y2="770.8242"/><line style="stroke:#181818;stroke-width:0.405;" x1="1953.72" x2="2042.82" y1="777.3042" y2="777.3042"/></g><!--class ExamFileCreator--><g id="elem_ExamFileCreator"><rect codeLine="51" fill="#F1F1F1" height="53.9631" id="ExamFileCreator" rx="2.025" ry="2.025" style="stroke:#181818;stroke-width:0.405;" width="163.62" x="522.045" y="647.2992"/><ellipse cx="557.8875" cy="660.2592" fill="#ADD1B2" rx="8.91" ry="8.91" style="stroke:#181818;stroke-width:0.81;"/><path d="M560.1277,656.9179 Q560.2542,656.7407 560.4061,656.6521 Q560.558,656.5635 560.7352,656.5635 Q561.0389,656.5635 561.2288,656.7787 Q561.4186,656.9812 561.4186,657.4748 L561.4186,658.6518 Q561.4186,659.1454 561.2288,659.3606 Q561.0389,659.5757 560.7352,659.5757 Q560.4567,659.5757 560.2922,659.4112 Q560.1277,659.2593 560.0391,658.8417 Q560.0011,658.5506 559.8492,658.3987 Q559.5834,658.0949 559.0898,657.9178 Q558.5963,657.7406 558.09,657.7406 Q557.4698,657.7406 556.9509,658.0063 Q556.4447,658.2721 556.0397,658.8796 Q555.6473,659.4871 555.6473,660.3224 L555.6473,661.2084 Q555.6473,662.2082 556.3688,662.879 Q557.0902,663.5371 558.3811,663.5371 Q559.1405,663.5371 559.672,663.3346 Q559.9884,663.2081 560.3302,662.8537 Q560.5453,662.6385 560.6592,662.5753 Q560.7858,662.512 560.9503,662.512 Q561.2161,662.512 561.4186,662.7271 Q561.6338,662.9296 561.6338,663.2081 Q561.6338,663.4865 561.3553,663.8156 Q560.9503,664.2838 560.3048,664.5496 Q559.4316,664.9167 558.3811,664.9167 Q557.1534,664.9167 556.1789,664.4104 Q555.3816,664.0054 554.8247,663.1448 Q554.2678,662.2715 554.2678,661.2337 L554.2678,660.2971 Q554.2678,659.2213 554.7614,658.2974 Q555.2677,657.3609 556.1536,656.8673 Q557.0395,656.361 558.0394,656.361 Q558.6342,656.361 559.1531,656.5003 Q559.6847,656.6268 560.1277,656.9179 Z " fill="#000000"/><text fill="#000000" font-family="sans-serif" font-size="11.34" lengthAdjust="spacing" textLength="85.05" x="574.4925" y="664.9546">ExamFileCreator</text><line style="stroke:#181818;stroke-width:0.405;" x1="522.855" x2="684.855" y1="673.2192" y2="673.2192"/><line style="stroke:#181818;stroke-width:0.405;" x1="522.855" x2="684.855" y1="679.6992" y2="679.6992"/><ellipse cx="530.955" cy="691.6957" fill="#84BE84" rx="2.43" ry="2.43" style="stroke:#038048;stroke-width:0.81;"/><text fill="#000000" font-family="sans-serif" font-size="11.34" lengthAdjust="spacing" textLength="142.56" x="538.245" y="695.1762">createExamFile(exam, path)</text></g><!--class ExamParseTreeVisitor--><g id="elem_ExamParseTreeVisitor"><rect codeLine="55" fill="#F1F1F1" height="69.0462" id="ExamParseTreeVisitor" rx="2.025" ry="2.025" style="stroke:#181818;stroke-width:0.405;" width="236.52" x="1644.3" y="647.2992"/><ellipse cx="1702.4175" cy="660.2592" fill="#ADD1B2" rx="8.91" ry="8.91" style="stroke:#181818;stroke-width:0.81;"/><path d="M1704.6577,656.9179 Q1704.7842,656.7407 1704.9361,656.6521 Q1705.088,656.5635 1705.2652,656.5635 Q1705.5689,656.5635 1705.7588,656.7787 Q1705.9486,656.9812 1705.9486,657.4748 L1705.9486,658.6518 Q1705.9486,659.1454 1705.7588,659.3606 Q1705.5689,659.5757 1705.2652,659.5757 Q1704.9867,659.5757 1704.8222,659.4112 Q1704.6577,659.2593 1704.5691,658.8417 Q1704.5311,658.5506 1704.3792,658.3987 Q1704.1134,658.0949 1703.6198,657.9178 Q1703.1263,657.7406 1702.62,657.7406 Q1701.9998,657.7406 1701.4809,658.0063 Q1700.9747,658.2721 1700.5697,658.8796 Q1700.1773,659.4871 1700.1773,660.3224 L1700.1773,661.2084 Q1700.1773,662.2082 1700.8988,662.879 Q1701.6202,663.5371 1702.9111,663.5371 Q1703.6705,663.5371 1704.202,663.3346 Q1704.5184,663.2081 1704.8602,662.8537 Q1705.0753,662.6385 1705.1892,662.5753 Q1705.3158,662.512 1705.4803,662.512 Q1705.7461,662.512 1705.9486,662.7271 Q1706.1638,662.9296 1706.1638,663.2081 Q1706.1638,663.4865 1705.8853,663.8156 Q1705.4803,664.2838 1704.8348,664.5496 Q1703.9616,664.9167 1702.9111,664.9167 Q1701.6834,664.9167 1700.7089,664.4104 Q1699.9116,664.0054 1699.3547,663.1448 Q1698.7978,662.2715 1698.7978,661.2337 L1698.7978,660.2971 Q1698.7978,659.2213 1699.2914,658.2974 Q1699.7977,657.3609 1700.6836,656.8673 Q1701.5695,656.361 1702.5694,656.361 Q1703.1642,656.361 1703.6831,656.5003 Q1704.2147,656.6268 1704.6577,656.9179 Z " fill="#000000"/><text fill="#000000" font-family="sans-serif" font-size="11.34" lengthAdjust="spacing" textLength="113.4" x="1719.0225" y="664.9546">ExamParseTreeVisitor</text><line style="stroke:#181818;stroke-width:0.405;" x1="1645.11" x2="1880.01" y1="673.2192" y2="673.2192"/><line style="stroke:#181818;stroke-width:0.405;" x1="1645.11" x2="1880.01" y1="679.6992" y2="679.6992"/><ellipse cx="1653.21" cy="691.6957" fill="#84BE84" rx="2.43" ry="2.43" style="stroke:#038048;stroke-width:0.81;"/><text fill="#000000" font-family="sans-serif" font-size="11.34" lengthAdjust="spacing" textLength="215.46" x="1660.5" y="695.1762">getExamBuilder() : AutomatedExamBuilder</text><ellipse cx="1653.21" cy="706.7788" fill="#84BE84" rx="2.43" ry="2.43" style="stroke:#038048;stroke-width:0.81;"/><text fill="#000000" font-family="sans-serif" font-size="11.34" lengthAdjust="spacing" textLength="68.85" x="1660.5" y="710.2593">visitExam(ctx)</text></g><!--class FeedbackType--><g id="elem_FeedbackType"><rect codeLine="60" fill="#F1F1F1" height="38.88" id="FeedbackType" rx="2.025" ry="2.025" style="stroke:#181818;stroke-width:0.405;" width="102.87" x="1946.835" y="677.6742"/><ellipse cx="1958.985" cy="690.6342" fill="#EB937F" rx="8.91" ry="8.91" style="stroke:#181818;stroke-width:0.81;"/><path d="M1958.0611,691.2796 L1958.0611,693.3046 L1961.5669,693.3046 L1961.5669,692.5579 Q1961.5669,692.0643 1961.7567,691.8492 Q1961.9592,691.634 1962.263,691.634 Q1962.5667,691.634 1962.7566,691.8492 Q1962.9464,692.0643 1962.9464,692.5579 L1962.9464,694.6842 L1956.4664,694.6842 Q1955.9602,694.6842 1955.745,694.4943 Q1955.5425,694.3045 1955.5425,693.9881 Q1955.5425,693.6843 1955.7577,693.4945 Q1955.9728,693.3046 1956.4664,693.3046 L1956.6816,693.3046 L1956.6816,687.9131 L1956.4664,687.9131 Q1955.9602,687.9131 1955.745,687.7232 Q1955.5425,687.5334 1955.5425,687.217 Q1955.5425,686.9132 1955.745,686.7234 Q1955.9602,686.5335 1956.4664,686.5335 L1962.6427,686.5335 L1962.6427,688.6345 Q1962.6427,689.1281 1962.4528,689.3432 Q1962.2756,689.5457 1961.9592,689.5457 Q1961.6555,689.5457 1961.4656,689.3432 Q1961.2758,689.1281 1961.2758,688.6345 L1961.2758,687.9131 L1958.0611,687.9131 L1958.0611,689.9001 L1959.2634,689.9001 Q1959.2634,689.3685 1959.3647,689.2167 Q1959.5798,688.8876 1959.9595,688.8876 Q1960.2633,688.8876 1960.4531,689.1028 Q1960.643,689.3053 1960.643,689.7988 L1960.643,691.3935 Q1960.643,691.8365 1960.5417,691.9884 Q1960.3266,692.3048 1959.9595,692.3048 Q1959.5798,692.3048 1959.3647,691.9757 Q1959.2634,691.8238 1959.2634,691.2796 L1958.0611,691.2796 Z " fill="#000000"/><text fill="#000000" font-family="sans-serif" font-size="11.34" lengthAdjust="spacing" textLength="76.95" x="1970.325" y="695.3296">FeedbackType</text><line style="stroke:#181818;stroke-width:0.405;" x1="1947.645" x2="2048.895" y1="703.5942" y2="703.5942"/><line style="stroke:#181818;stroke-width:0.405;" x1="1947.645" x2="2048.895" y1="710.0742" y2="710.0742"/></g><!--class GradingType--><g id="elem_GradingType"><rect codeLine="62" fill="#F1F1F1" height="38.88" id="GradingType" rx="2.025" ry="2.025" style="stroke:#181818;stroke-width:0.405;" width="93.15" x="2142.45" y="744.9042"/><ellipse cx="2154.6" cy="757.8642" fill="#EB937F" rx="8.91" ry="8.91" style="stroke:#181818;stroke-width:0.81;"/><path d="M2153.6761,758.5096 L2153.6761,760.5346 L2157.1819,760.5346 L2157.1819,759.7879 Q2157.1819,759.2943 2157.3717,759.0792 Q2157.5742,758.864 2157.878,758.864 Q2158.1817,758.864 2158.3716,759.0792 Q2158.5614,759.2943 2158.5614,759.7879 L2158.5614,761.9142 L2152.0814,761.9142 Q2151.5752,761.9142 2151.36,761.7243 Q2151.1575,761.5345 2151.1575,761.2181 Q2151.1575,760.9143 2151.3727,760.7245 Q2151.5878,760.5346 2152.0814,760.5346 L2152.2966,760.5346 L2152.2966,755.1431 L2152.0814,755.1431 Q2151.5752,755.1431 2151.36,754.9532 Q2151.1575,754.7634 2151.1575,754.447 Q2151.1575,754.1432 2151.36,753.9534 Q2151.5752,753.7635 2152.0814,753.7635 L2158.2577,753.7635 L2158.2577,755.8645 Q2158.2577,756.3581 2158.0678,756.5732 Q2157.8906,756.7757 2157.5742,756.7757 Q2157.2705,756.7757 2157.0806,756.5732 Q2156.8908,756.3581 2156.8908,755.8645 L2156.8908,755.1431 L2153.6761,755.1431 L2153.6761,757.1301 L2154.8784,757.1301 Q2154.8784,756.5985 2154.9797,756.4467 Q2155.1948,756.1176 2155.5745,756.1176 Q2155.8783,756.1176 2156.0681,756.3328 Q2156.258,756.5353 2156.258,757.0288 L2156.258,758.6235 Q2156.258,759.0665 2156.1567,759.2184 Q2155.9416,759.5348 2155.5745,759.5348 Q2155.1948,759.5348 2154.9797,759.2057 Q2154.8784,759.0538 2154.8784,758.5096 L2153.6761,758.5096 Z " fill="#000000"/><text fill="#000000" font-family="sans-serif" font-size="11.34" lengthAdjust="spacing" textLength="67.23" x="2165.94" y="762.5596">GradingType</text><line style="stroke:#181818;stroke-width:0.405;" x1="2143.26" x2="2234.79" y1="770.8242" y2="770.8242"/><line style="stroke:#181818;stroke-width:0.405;" x1="2143.26" x2="2234.79" y1="777.3042" y2="777.3042"/></g><!--class ExamHandler--><g id="elem_ExamHandler"><rect codeLine="64" fill="#F1F1F1" height="53.9631" id="ExamHandler" rx="2.025" ry="2.025" style="stroke:#181818;stroke-width:0.405;" width="376.65" x="415.53" y="729.9192"/><ellipse cx="566.3925" cy="742.8792" fill="#B4A7E5" rx="8.91" ry="8.91" style="stroke:#181818;stroke-width:0.81;"/><path d="M567.1645,740.1581 L567.1645,745.5496 L568.5567,745.5496 Q569.0503,745.5496 569.2655,745.7395 Q569.4806,745.9293 569.4806,746.2457 Q569.4806,746.5495 569.2655,746.7393 Q569.0503,746.9292 568.5567,746.9292 L564.3928,746.9292 Q563.8992,746.9292 563.6841,746.7393 Q563.4689,746.5495 563.4689,746.2331 Q563.4689,745.9293 563.6841,745.7395 Q563.8992,745.5496 564.3928,745.5496 L565.785,745.5496 L565.785,740.1581 L564.3928,740.1581 Q563.8992,740.1581 563.6841,739.9682 Q563.4689,739.7784 563.4689,739.462 Q563.4689,739.1582 563.6841,738.9684 Q563.8992,738.7785 564.3928,738.7785 L568.5567,738.7785 Q569.0503,738.7785 569.2655,738.9684 Q569.4806,739.1582 569.4806,739.462 Q569.4806,739.7784 569.2655,739.9682 Q569.0503,740.1581 568.5567,740.1581 L567.1645,740.1581 Z " fill="#000000"/><text fill="#000000" font-family="sans-serif" font-size="11.34" font-style="italic" lengthAdjust="spacing" textLength="68.04" x="582.9975" y="747.5746">ExamHandler</text><line style="stroke:#181818;stroke-width:0.405;" x1="416.34" x2="791.37" y1="755.8392" y2="755.8392"/><line style="stroke:#181818;stroke-width:0.405;" x1="416.34" x2="791.37" y1="762.3192" y2="762.3192"/><text fill="#000000" font-family="sans-serif" font-size="11.34" lengthAdjust="spacing" textLength="366.93" x="420.39" y="777.7962">parseAutomatedExam(path, selectedCourse, teacher) : AutomatedExam</text></g><!--class AutomatedExamBuilder--><g id="elem_AutomatedExamBuilder"><rect codeLine="68" fill="#F1F1F1" height="159.5447" id="AutomatedExamBuilder" rx="2.025" ry="2.025" style="stroke:#181818;stroke-width:0.405;" width="343.44" x="1018.98" y="647.2992"/><ellipse cx="1128.1275" cy="660.2592" fill="#ADD1B2" rx="8.91" ry="8.91" style="stroke:#181818;stroke-width:0.81;"/><path d="M1130.3677,656.9179 Q1130.4942,656.7407 1130.6461,656.6521 Q1130.798,656.5635 1130.9752,656.5635 Q1131.2789,656.5635 1131.4688,656.7787 Q1131.6586,656.9812 1131.6586,657.4748 L1131.6586,658.6518 Q1131.6586,659.1454 1131.4688,659.3606 Q1131.2789,659.5757 1130.9752,659.5757 Q1130.6967,659.5757 1130.5322,659.4112 Q1130.3677,659.2593 1130.2791,658.8417 Q1130.2411,658.5506 1130.0892,658.3987 Q1129.8234,658.0949 1129.3298,657.9178 Q1128.8363,657.7406 1128.33,657.7406 Q1127.7098,657.7406 1127.1909,658.0063 Q1126.6847,658.2721 1126.2797,658.8796 Q1125.8873,659.4871 1125.8873,660.3224 L1125.8873,661.2084 Q1125.8873,662.2082 1126.6088,662.879 Q1127.3302,663.5371 1128.6211,663.5371 Q1129.3805,663.5371 1129.912,663.3346 Q1130.2284,663.2081 1130.5702,662.8537 Q1130.7853,662.6385 1130.8992,662.5753 Q1131.0258,662.512 1131.1903,662.512 Q1131.4561,662.512 1131.6586,662.7271 Q1131.8738,662.9296 1131.8738,663.2081 Q1131.8738,663.4865 1131.5953,663.8156 Q1131.1903,664.2838 1130.5448,664.5496 Q1129.6716,664.9167 1128.6211,664.9167 Q1127.3934,664.9167 1126.4189,664.4104 Q1125.6216,664.0054 1125.0647,663.1448 Q1124.5078,662.2715 1124.5078,661.2337 L1124.5078,660.2971 Q1124.5078,659.2213 1125.0014,658.2974 Q1125.5077,657.3609 1126.3936,656.8673 Q1127.2795,656.361 1128.2794,656.361 Q1128.8742,656.361 1129.3931,656.5003 Q1129.9247,656.6268 1130.3677,656.9179 Z " fill="#000000"/><text fill="#000000" font-family="sans-serif" font-size="11.34" lengthAdjust="spacing" textLength="118.26" x="1144.7325" y="664.9546">AutomatedExamBuilder</text><line style="stroke:#181818;stroke-width:0.405;" x1="1019.79" x2="1361.61" y1="673.2192" y2="673.2192"/><line style="stroke:#181818;stroke-width:0.405;" x1="1019.79" x2="1361.61" y1="679.6992" y2="679.6992"/><ellipse cx="1027.89" cy="691.6957" fill="#84BE84" rx="2.43" ry="2.43" style="stroke:#038048;stroke-width:0.81;"/><text fill="#000000" font-family="sans-serif" font-size="11.34" lengthAdjust="spacing" textLength="99.63" x="1035.18" y="695.1762">withCourse(course)</text><ellipse cx="1027.89" cy="706.7788" fill="#84BE84" rx="2.43" ry="2.43" style="stroke:#038048;stroke-width:0.81;"/><text fill="#000000" font-family="sans-serif" font-size="11.34" lengthAdjust="spacing" textLength="94.77" x="1035.18" y="710.2593">withExamTitle(title)</text><ellipse cx="1027.89" cy="721.8619" fill="#84BE84" rx="2.43" ry="2.43" style="stroke:#038048;stroke-width:0.81;"/><text fill="#000000" font-family="sans-serif" font-size="11.34" lengthAdjust="spacing" textLength="130.41" x="1035.18" y="725.3423">withOpenDate(openDate)</text><ellipse cx="1027.89" cy="736.945" fill="#84BE84" rx="2.43" ry="2.43" style="stroke:#038048;stroke-width:0.81;"/><text fill="#000000" font-family="sans-serif" font-size="11.34" lengthAdjust="spacing" textLength="132.03" x="1035.18" y="740.4254">withCloseDate(closeDate)</text><ellipse cx="1027.89" cy="752.028" fill="#84BE84" rx="2.43" ry="2.43" style="stroke:#038048;stroke-width:0.81;"/><text fill="#000000" font-family="sans-serif" font-size="11.34" lengthAdjust="spacing" textLength="102.87" x="1035.18" y="755.5085">withCreator(creator)</text><ellipse cx="1027.89" cy="767.1111" fill="#84BE84" rx="2.43" ry="2.43" style="stroke:#038048;stroke-width:0.81;"/><text fill="#000000" font-family="sans-serif" font-size="11.34" lengthAdjust="spacing" textLength="322.38" x="1035.18" y="770.5916">withHeader(description, gradingFeedbackType, feedbackType)</text><ellipse cx="1027.89" cy="782.1942" fill="#84BE84" rx="2.43" ry="2.43" style="stroke:#038048;stroke-width:0.81;"/><text fill="#000000" font-family="sans-serif" font-size="11.34" lengthAdjust="spacing" textLength="102.06" x="1035.18" y="785.6747">withSection(section)</text><ellipse cx="1027.89" cy="797.2773" fill="#84BE84" rx="2.43" ry="2.43" style="stroke:#038048;stroke-width:0.81;"/><text fill="#000000" font-family="sans-serif" font-size="11.34" lengthAdjust="spacing" textLength="121.5" x="1035.18" y="800.7578">build(): AutomatedExam</text></g><!--class Question--><g id="elem_Question"><rect codeLine="83" fill="#F1F1F1" height="38.88" id="Question" rx="2.025" ry="2.025" style="stroke:#181818;stroke-width:0.405;" width="72.09" x="2334.015" y="170.6142"/><ellipse cx="2346.165" cy="183.5742" fill="#A9DCDF" rx="8.91" ry="8.91" style="stroke:#181818;stroke-width:0.81;"/><path d="M2347.9369,185.0043 L2344.583,185.0043 L2344.2413,185.8396 L2344.583,185.8396 Q2345.0766,185.8396 2345.2917,186.0295 Q2345.5069,186.2193 2345.5069,186.5357 Q2345.5069,186.8395 2345.2917,187.0293 Q2345.0766,187.2192 2344.583,187.2192 L2342.7225,187.2192 Q2342.2289,187.2192 2342.0264,187.0293 Q2341.8113,186.8395 2341.8113,186.5231 Q2341.8113,186.2193 2342.0391,186.0295 Q2342.2542,185.827 2342.7605,185.8396 L2344.9247,180.4481 L2344.0261,180.4481 Q2343.5325,180.4481 2343.3173,180.2582 Q2343.1022,180.0684 2343.1022,179.752 Q2343.1022,179.4482 2343.3173,179.2584 Q2343.5325,179.0685 2344.0261,179.0685 L2347.0003,179.0685 L2349.7467,185.8396 Q2350.2277,185.8396 2350.3795,185.9535 Q2350.6959,186.1687 2350.6959,186.5357 Q2350.6959,186.8395 2350.4808,187.0293 Q2350.2783,187.2192 2349.7847,187.2192 L2347.9242,187.2192 Q2347.4306,187.2192 2347.2155,187.0293 Q2347.0003,186.8395 2347.0003,186.5231 Q2347.0003,186.2193 2347.2155,186.0295 Q2347.4306,185.8396 2347.9242,185.8396 L2348.2659,185.8396 L2347.9369,185.0043 Z M2347.3547,183.6248 L2346.2536,180.891 L2345.1398,183.6248 L2347.3547,183.6248 Z " fill="#000000"/><text fill="#000000" font-family="sans-serif" font-size="11.34" font-style="italic" lengthAdjust="spacing" textLength="46.17" x="2357.505" y="188.2696">Question</text><line style="stroke:#181818;stroke-width:0.405;" x1="2334.825" x2="2405.295" y1="196.5342" y2="196.5342"/><line style="stroke:#181818;stroke-width:0.405;" x1="2334.825" x2="2405.295" y1="203.0142" y2="203.0142"/></g><!--class BooleanQuestion--><g id="elem_BooleanQuestion"><rect codeLine="84" fill="#F1F1F1" height="38.88" id="BooleanQuestion" rx="2.025" ry="2.025" style="stroke:#181818;stroke-width:0.405;" width="114.21" x="2477.79" y="170.6142"/><ellipse cx="2489.94" cy="183.5742" fill="#ADD1B2" rx="8.91" ry="8.91" style="stroke:#181818;stroke-width:0.81;"/><path d="M2492.1802,180.2329 Q2492.3067,180.0557 2492.4586,179.9671 Q2492.6105,179.8785 2492.7877,179.8785 Q2493.0914,179.8785 2493.2813,180.0937 Q2493.4711,180.2962 2493.4711,180.7898 L2493.4711,181.9668 Q2493.4711,182.4604 2493.2813,182.6756 Q2493.0914,182.8907 2492.7877,182.8907 Q2492.5092,182.8907 2492.3447,182.7262 Q2492.1802,182.5743 2492.0916,182.1567 Q2492.0536,181.8656 2491.9017,181.7137 Q2491.6359,181.4099 2491.1423,181.2328 Q2490.6488,181.0556 2490.1425,181.0556 Q2489.5223,181.0556 2489.0034,181.3213 Q2488.4972,181.5871 2488.0922,182.1946 Q2487.6998,182.8021 2487.6998,183.6374 L2487.6998,184.5234 Q2487.6998,185.5232 2488.4213,186.194 Q2489.1427,186.8521 2490.4336,186.8521 Q2491.193,186.8521 2491.7245,186.6496 Q2492.0409,186.5231 2492.3827,186.1687 Q2492.5978,185.9535 2492.7117,185.8903 Q2492.8383,185.827 2493.0028,185.827 Q2493.2686,185.827 2493.4711,186.0421 Q2493.6863,186.2446 2493.6863,186.5231 Q2493.6863,186.8015 2493.4078,187.1306 Q2493.0028,187.5988 2492.3573,187.8646 Q2491.4841,188.2317 2490.4336,188.2317 Q2489.2059,188.2317 2488.2314,187.7254 Q2487.4341,187.3204 2486.8772,186.4598 Q2486.3203,185.5865 2486.3203,184.5487 L2486.3203,183.6121 Q2486.3203,182.5363 2486.8139,181.6124 Q2487.3202,180.6759 2488.2061,180.1823 Q2489.092,179.676 2490.0919,179.676 Q2490.6867,179.676 2491.2056,179.8153 Q2491.7372,179.9418 2492.1802,180.2329 Z " fill="#000000"/><text fill="#000000" font-family="sans-serif" font-size="11.34" lengthAdjust="spacing" textLength="88.29" x="2501.28" y="188.2696">BooleanQuestion</text><line style="stroke:#181818;stroke-width:0.405;" x1="2478.6" x2="2591.19" y1="196.5342" y2="196.5342"/><line style="stroke:#181818;stroke-width:0.405;" x1="2478.6" x2="2591.19" y1="203.0142" y2="203.0142"/></g><!--class MultipleChoiceQuestion--><g id="elem_MultipleChoiceQuestion"><rect codeLine="85" fill="#F1F1F1" height="38.88" id="MultipleChoiceQuestion" rx="2.025" ry="2.025" style="stroke:#181818;stroke-width:0.405;" width="146.61" x="2115.72" y="103.3842"/><ellipse cx="2127.87" cy="116.3442" fill="#ADD1B2" rx="8.91" ry="8.91" style="stroke:#181818;stroke-width:0.81;"/><path d="M2130.1102,113.0029 Q2130.2367,112.8257 2130.3886,112.7371 Q2130.5405,112.6485 2130.7177,112.6485 Q2131.0214,112.6485 2131.2113,112.8637 Q2131.4011,113.0662 2131.4011,113.5598 L2131.4011,114.7368 Q2131.4011,115.2304 2131.2113,115.4456 Q2131.0214,115.6607 2130.7177,115.6607 Q2130.4392,115.6607 2130.2747,115.4962 Q2130.1102,115.3443 2130.0216,114.9267 Q2129.9836,114.6356 2129.8317,114.4837 Q2129.5659,114.1799 2129.0723,114.0028 Q2128.5788,113.8256 2128.0725,113.8256 Q2127.4523,113.8256 2126.9334,114.0913 Q2126.4272,114.3571 2126.0222,114.9646 Q2125.6298,115.5721 2125.6298,116.4074 L2125.6298,117.2934 Q2125.6298,118.2932 2126.3513,118.964 Q2127.0727,119.6221 2128.3636,119.6221 Q2129.123,119.6221 2129.6545,119.4196 Q2129.9709,119.2931 2130.3127,118.9387 Q2130.5278,118.7235 2130.6417,118.6603 Q2130.7683,118.597 2130.9328,118.597 Q2131.1986,118.597 2131.4011,118.8121 Q2131.6163,119.0146 2131.6163,119.2931 Q2131.6163,119.5715 2131.3378,119.9006 Q2130.9328,120.3688 2130.2873,120.6346 Q2129.4141,121.0017 2128.3636,121.0017 Q2127.1359,121.0017 2126.1614,120.4954 Q2125.3641,120.0904 2124.8072,119.2298 Q2124.2503,118.3565 2124.2503,117.3187 L2124.2503,116.3821 Q2124.2503,115.3063 2124.7439,114.3824 Q2125.2502,113.4459 2126.1361,112.9523 Q2127.022,112.446 2128.0219,112.446 Q2128.6167,112.446 2129.1356,112.5853 Q2129.6672,112.7118 2130.1102,113.0029 Z " fill="#000000"/><text fill="#000000" font-family="sans-serif" font-size="11.34" lengthAdjust="spacing" textLength="120.69" x="2139.21" y="121.0396">MultipleChoiceQuestion</text><line style="stroke:#181818;stroke-width:0.405;" x1="2116.53" x2="2261.52" y1="129.3042" y2="129.3042"/><line style="stroke:#181818;stroke-width:0.405;" x1="2116.53" x2="2261.52" y1="135.7842" y2="135.7842"/></g><!--class MatchingQuestion--><g id="elem_MatchingQuestion"><rect codeLine="86" fill="#F1F1F1" height="38.88" id="MatchingQuestion" rx="2.025" ry="2.025" style="stroke:#181818;stroke-width:0.405;" width="118.26" x="2310.93" y="103.3842"/><ellipse cx="2323.08" cy="116.3442" fill="#ADD1B2" rx="8.91" ry="8.91" style="stroke:#181818;stroke-width:0.81;"/><path d="M2325.3202,113.0029 Q2325.4467,112.8257 2325.5986,112.7371 Q2325.7505,112.6485 2325.9277,112.6485 Q2326.2314,112.6485 2326.4213,112.8637 Q2326.6111,113.0662 2326.6111,113.5598 L2326.6111,114.7368 Q2326.6111,115.2304 2326.4213,115.4456 Q2326.2314,115.6607 2325.9277,115.6607 Q2325.6492,115.6607 2325.4847,115.4962 Q2325.3202,115.3443 2325.2316,114.9267 Q2325.1936,114.6356 2325.0417,114.4837 Q2324.7759,114.1799 2324.2823,114.0028 Q2323.7888,113.8256 2323.2825,113.8256 Q2322.6623,113.8256 2322.1434,114.0913 Q2321.6372,114.3571 2321.2322,114.9646 Q2320.8398,115.5721 2320.8398,116.4074 L2320.8398,117.2934 Q2320.8398,118.2932 2321.5613,118.964 Q2322.2827,119.6221 2323.5736,119.6221 Q2324.333,119.6221 2324.8645,119.4196 Q2325.1809,119.2931 2325.5227,118.9387 Q2325.7378,118.7235 2325.8517,118.6603 Q2325.9783,118.597 2326.1428,118.597 Q2326.4086,118.597 2326.6111,118.8121 Q2326.8263,119.0146 2326.8263,119.2931 Q2326.8263,119.5715 2326.5478,119.9006 Q2326.1428,120.3688 2325.4973,120.6346 Q2324.6241,121.0017 2323.5736,121.0017 Q2322.3459,121.0017 2321.3714,120.4954 Q2320.5741,120.0904 2320.0172,119.2298 Q2319.4603,118.3565 2319.4603,117.3187 L2319.4603,116.3821 Q2319.4603,115.3063 2319.9539,114.3824 Q2320.4602,113.4459 2321.3461,112.9523 Q2322.232,112.446 2323.2319,112.446 Q2323.8267,112.446 2324.3456,112.5853 Q2324.8772,112.7118 2325.3202,113.0029 Z " fill="#000000"/><text fill="#000000" font-family="sans-serif" font-size="11.34" lengthAdjust="spacing" textLength="92.34" x="2334.42" y="121.0396">MatchingQuestion</text><line style="stroke:#181818;stroke-width:0.405;" x1="2311.74" x2="2428.38" y1="129.3042" y2="129.3042"/><line style="stroke:#181818;stroke-width:0.405;" x1="2311.74" x2="2428.38" y1="135.7842" y2="135.7842"/></g><!--class NumericalQuestion--><g id="elem_NumericalQuestion"><rect codeLine="87" fill="#F1F1F1" height="38.88" id="NumericalQuestion" rx="2.025" ry="2.025" style="stroke:#181818;stroke-width:0.405;" width="122.31" x="1937.115" y="103.3842"/><ellipse cx="1949.265" cy="116.3442" fill="#ADD1B2" rx="8.91" ry="8.91" style="stroke:#181818;stroke-width:0.81;"/><path d="M1951.5052,113.0029 Q1951.6317,112.8257 1951.7836,112.7371 Q1951.9355,112.6485 1952.1127,112.6485 Q1952.4164,112.6485 1952.6063,112.8637 Q1952.7961,113.0662 1952.7961,113.5598 L1952.7961,114.7368 Q1952.7961,115.2304 1952.6063,115.4456 Q1952.4164,115.6607 1952.1127,115.6607 Q1951.8342,115.6607 1951.6697,115.4962 Q1951.5052,115.3443 1951.4166,114.9267 Q1951.3786,114.6356 1951.2267,114.4837 Q1950.9609,114.1799 1950.4673,114.0028 Q1949.9738,113.8256 1949.4675,113.8256 Q1948.8473,113.8256 1948.3284,114.0913 Q1947.8222,114.3571 1947.4172,114.9646 Q1947.0248,115.5721 1947.0248,116.4074 L1947.0248,117.2934 Q1947.0248,118.2932 1947.7463,118.964 Q1948.4677,119.6221 1949.7586,119.6221 Q1950.518,119.6221 1951.0495,119.4196 Q1951.3659,119.2931 1951.7077,118.9387 Q1951.9228,118.7235 1952.0367,118.6603 Q1952.1633,118.597 1952.3278,118.597 Q1952.5936,118.597 1952.7961,118.8121 Q1953.0113,119.0146 1953.0113,119.2931 Q1953.0113,119.5715 1952.7328,119.9006 Q1952.3278,120.3688 1951.6823,120.6346 Q1950.8091,121.0017 1949.7586,121.0017 Q1948.5309,121.0017 1947.5564,120.4954 Q1946.7591,120.0904 1946.2022,119.2298 Q1945.6453,118.3565 1945.6453,117.3187 L1945.6453,116.3821 Q1945.6453,115.3063 1946.1389,114.3824 Q1946.6452,113.4459 1947.5311,112.9523 Q1948.417,112.446 1949.4169,112.446 Q1950.0117,112.446 1950.5306,112.5853 Q1951.0622,112.7118 1951.5052,113.0029 Z " fill="#000000"/><text fill="#000000" font-family="sans-serif" font-size="11.34" lengthAdjust="spacing" textLength="96.39" x="1960.605" y="121.0396">NumericalQuestion</text><line style="stroke:#181818;stroke-width:0.405;" x1="1937.925" x2="2058.615" y1="129.3042" y2="129.3042"/><line style="stroke:#181818;stroke-width:0.405;" x1="1937.925" x2="2058.615" y1="135.7842" y2="135.7842"/></g><!--class MissingWordQuestion--><g id="elem_MissingWordQuestion"><rect codeLine="88" fill="#F1F1F1" height="38.88" id="MissingWordQuestion" rx="2.025" ry="2.025" style="stroke:#181818;stroke-width:0.405;" width="137.7" x="1929.42" y="170.6142"/><ellipse cx="1941.57" cy="183.5742" fill="#ADD1B2" rx="8.91" ry="8.91" style="stroke:#181818;stroke-width:0.81;"/><path d="M1943.8102,180.2329 Q1943.9367,180.0557 1944.0886,179.9671 Q1944.2405,179.8785 1944.4177,179.8785 Q1944.7214,179.8785 1944.9113,180.0937 Q1945.1011,180.2962 1945.1011,180.7898 L1945.1011,181.9668 Q1945.1011,182.4604 1944.9113,182.6756 Q1944.7214,182.8907 1944.4177,182.8907 Q1944.1392,182.8907 1943.9747,182.7262 Q1943.8102,182.5743 1943.7216,182.1567 Q1943.6836,181.8656 1943.5317,181.7137 Q1943.2659,181.4099 1942.7723,181.2328 Q1942.2788,181.0556 1941.7725,181.0556 Q1941.1523,181.0556 1940.6334,181.3213 Q1940.1272,181.5871 1939.7222,182.1946 Q1939.3298,182.8021 1939.3298,183.6374 L1939.3298,184.5234 Q1939.3298,185.5232 1940.0513,186.194 Q1940.7727,186.8521 1942.0636,186.8521 Q1942.823,186.8521 1943.3545,186.6496 Q1943.6709,186.5231 1944.0127,186.1687 Q1944.2278,185.9535 1944.3417,185.8903 Q1944.4683,185.827 1944.6328,185.827 Q1944.8986,185.827 1945.1011,186.0421 Q1945.3163,186.2446 1945.3163,186.5231 Q1945.3163,186.8015 1945.0378,187.1306 Q1944.6328,187.5988 1943.9873,187.8646 Q1943.1141,188.2317 1942.0636,188.2317 Q1940.8359,188.2317 1939.8614,187.7254 Q1939.0641,187.3204 1938.5072,186.4598 Q1937.9503,185.5865 1937.9503,184.5487 L1937.9503,183.6121 Q1937.9503,182.5363 1938.4439,181.6124 Q1938.9502,180.6759 1939.8361,180.1823 Q1940.722,179.676 1941.7219,179.676 Q1942.3167,179.676 1942.8356,179.8153 Q1943.3672,179.9418 1943.8102,180.2329 Z " fill="#000000"/><text fill="#000000" font-family="sans-serif" font-size="11.34" lengthAdjust="spacing" textLength="111.78" x="1952.91" y="188.2696">MissingWordQuestion</text><line style="stroke:#181818;stroke-width:0.405;" x1="1930.23" x2="2066.31" y1="196.5342" y2="196.5342"/><line style="stroke:#181818;stroke-width:0.405;" x1="1930.23" x2="2066.31" y1="203.0142" y2="203.0142"/></g><!--link Exam to ExamHeader--><g id="link_Exam_ExamHeader"><path codeLine="93" d="M1789.3143,764.3442 C1827.6192,764.3442 1899.9927,764.3442 1948.4793,764.3442 " fill="none" id="Exam-to-ExamHeader" style="stroke:#181818;stroke-width:0.81;"/><polygon fill="#181818" points="1952.8047,764.3442,1945.5147,761.1042,1948.7547,764.3442,1945.5147,767.5842,1952.8047,764.3442" style="stroke:#181818;stroke-width:0.81;"/></g><!--link AutomatedExam to Exam--><g id="link_AutomatedExam_Exam"><path codeLine="94" d="M1762.56,811.875 C1762.56,808.0356 1762.56,804.1881 1762.56,800.3487 " fill="none" id="AutomatedExam-to-Exam" style="stroke:#181818;stroke-width:0.81;"/><polygon fill="none" points="1756.89,800.2272,1762.56,784.0272,1768.23,800.2272,1756.89,800.2272" style="stroke:#181818;stroke-width:0.81;"/></g><!--link AutomatedExam to ExamOpenPeriod--><g id="link_AutomatedExam_ExamOpenPeriod"><path codeLine="95" d="M1817.073,831.5742 C1852.6887,831.5742 1899.4986,831.5742 1936.5075,831.5742 " fill="none" id="AutomatedExam-to-ExamOpenPeriod" style="stroke:#181818;stroke-width:0.81;"/><polygon fill="#181818" points="1940.7357,831.5742,1933.4457,828.3342,1936.6857,831.5742,1933.4457,834.8142,1940.7357,831.5742" style="stroke:#181818;stroke-width:0.81;"/></g><!--link Exam to ExamSection--><g id="link_Exam_ExamSection"><path codeLine="96" d="M1789.3629,764.4819 C1816.4412,763.1211 1858.0347,756.5034 1880.82,730.3242 C1900.6407,707.5551 1867.7142,682.8582 1890.54,663.0942 C2012.4693,557.5188 2224.6245,613.8705 2320.1559,647.3154 " fill="none" id="Exam-to-ExamSection" style="stroke:#181818;stroke-width:0.81;"/><polygon fill="#181818" points="2324.0601,648.6924,2318.2571,643.2182,2320.2393,647.3493,2316.1082,649.3315,2324.0601,648.6924" style="stroke:#181818;stroke-width:0.81;"/></g><!--link AutomatedExamBuilder to AutomatedExam--><g id="link_AutomatedExamBuilder_AutomatedExam"><path codeLine="97" d="M1362.5982,758.4312 C1478.4687,779.6694 1624.4064,806.4075 1703.8026,820.9551 " fill="none" id="AutomatedExamBuilder-to-AutomatedExam" style="stroke:#181818;stroke-width:0.81;"/><polygon fill="#181818" points="1707.9984,821.7246,1701.4113,817.2243,1704.0147,820.995,1700.244,823.5983,1707.9984,821.7246" style="stroke:#181818;stroke-width:0.81;"/></g><!--link AutomatedExamBuilder to ExamRepository--><g id="link_AutomatedExamBuilder_ExamRepository"><path codeLine="98" d="M1337.4639,647.2668 C1377.3564,625.4454 1418.0913,603.1704 1449.1143,586.209 " fill="none" id="AutomatedExamBuilder-to-ExamRepository" style="stroke:#181818;stroke-width:0.81;"/><polygon fill="#181818" points="1452.8484,584.1678,1444.898,584.8251,1449.2956,586.112,1448.0087,590.5096,1452.8484,584.1678" style="stroke:#181818;stroke-width:0.81;"/></g><!--link AutomatedExamBuilder to ExamParseTreeVisitor--><g id="link_AutomatedExamBuilder_ExamParseTreeVisitor"><path codeLine="99" d="M1362.5982,713.4762 C1451.9655,706.3644 1559.2257,697.8351 1640.0394,691.4037 " fill="none" id="AutomatedExamBuilder-to-ExamParseTreeVisitor" style="stroke:#181818;stroke-width:0.81;"/><polygon fill="#181818" points="1644.1056,691.0797,1636.5798,688.433,1640.0686,691.4035,1637.0981,694.8923,1644.1056,691.0797" style="stroke:#181818;stroke-width:0.81;"/></g><!--link ExamHeader to FeedbackType--><g id="link_ExamHeader_FeedbackType"><path codeLine="100" d="M1998.27,744.645 C1998.27,736.7394 1998.27,728.8338 1998.27,720.9282 " fill="none" id="ExamHeader-to-FeedbackType" style="stroke:#181818;stroke-width:0.81;"/><polygon fill="#181818" points="1998.27,716.7972,1995.03,724.0872,1998.27,720.8472,2001.51,724.0872,1998.27,716.7972" style="stroke:#181818;stroke-width:0.81;"/></g><!--link ExamHeader to GradingType--><g id="link_ExamHeader_GradingType"><path codeLine="101" d="M2043.6624,764.3442 C2071.98,764.3442 2108.6811,764.3442 2138.0112,764.3442 " fill="none" id="ExamHeader-to-GradingType" style="stroke:#181818;stroke-width:0.81;"/><polygon fill="#181818" points="2142.288,764.3442,2134.998,761.1042,2138.238,764.3442,2134.998,767.5842,2142.288,764.3442" style="stroke:#181818;stroke-width:0.81;"/></g><!--link ExamSection to Question--><g id="link_ExamSection_Question"><path codeLine="102" d="M2370.06,646.797 C2370.06,502.4469 2370.06,358.0887 2370.06,213.7386 " fill="none" id="ExamSection-to-Question" style="stroke:#181818;stroke-width:0.81;"/><polygon fill="#181818" points="2370.06,209.6805,2366.82,216.9705,2370.06,213.7305,2373.3,216.9705,2370.06,209.6805" style="stroke:#181818;stroke-width:0.81;"/></g><!--link CreateAutomatedExamController to ExamRepository--><g id="link_CreateAutomatedExamController_ExamRepository"><path codeLine="104" d="M939.3246,543.2628 C1106.1603,547.329 1295.5545,551.946 1406.727,554.6514 " fill="none" id="CreateAutomatedExamController-to-ExamRepository" style="stroke:#181818;stroke-width:0.81;"/><polygon fill="#181818" points="1410.9714,554.7567,1403.7671,551.3303,1406.9227,554.6526,1403.6005,557.8082,1410.9714,554.7567" style="stroke:#181818;stroke-width:0.81;"/></g><!--link CreateAutomatedExamController to AutomatedExamBuilder--><g id="link_CreateAutomatedExamController_AutomatedExamBuilder"><path codeLine="105" d="M826.4997,584.5809 C880.5267,598.6587 937.737,615.3123 989.82,633.9342 C999.945,637.5549 1010.2482,641.4996 1020.5757,645.6549 " fill="none" id="CreateAutomatedExamController-to-AutomatedExamBuilder" style="stroke:#181818;stroke-width:0.81;"/><polygon fill="#181818" points="1024.3827,647.1939,1018.8326,641.4634,1020.6264,645.6798,1016.41,647.4736,1024.3827,647.1939" style="stroke:#181818;stroke-width:0.81;"/></g><!--link CreateAutomatedExamController to ExamHandler--><g id="link_CreateAutomatedExamController_ExamHandler"><path codeLine="106" d="M268.4988,583.374 C242.676,596.6985 218.7891,613.2954 198.45,633.9342 C187.8876,644.6505 193.5252,686.6166 195.21,701.5692 C208.5507,819.7806 376.7148,807.9141 493.1118,785.0316 " fill="none" id="CreateAutomatedExamController-to-ExamHandler" style="stroke:#181818;stroke-width:0.81;"/><polygon fill="#181818" points="497.2347,784.2135,489.4548,782.4487,493.2616,784.9988,490.7114,788.8056,497.2347,784.2135" style="stroke:#181818;stroke-width:0.81;"/></g><!--reverse link ExamRepository to UpdateAutomatedExamController--><g id="link_ExamRepository_UpdateAutomatedExamController"><path codeLine="107" d="M1406.8242,539.4558 C1299.9204,519.8781 1120.5945,487.0326 958.5702,457.3623 " fill="none" id="ExamRepository-backto-UpdateAutomatedExamController" style="stroke:#181818;stroke-width:0.81;"/><polygon fill="#181818" points="1410.9147,540.201,1404.3403,535.6822,1406.933,539.4602,1403.1551,542.0529,1410.9147,540.201" style="stroke:#181818;stroke-width:0.81;"/></g><!--link UpdateAutomatedExamController to ExamFileCreator--><g id="link_UpdateAutomatedExamController_ExamFileCreator"><path codeLine="108" d="M237.1356,440.8464 C223.3008,449.6187 210.3003,459.6627 198.45,471.1242 C189.4833,479.7912 193.8087,570.9162 195.21,583.3092 C209.7495,712.1559 402.4404,705.684 517.9545,689.9133 " fill="none" id="UpdateAutomatedExamController-to-ExamFileCreator" style="stroke:#181818;stroke-width:0.81;"/><polygon fill="#181818" points="522.0288,689.3544,514.3636,687.1438,518.017,689.9093,515.2515,693.5627,522.0288,689.3544" style="stroke:#181818;stroke-width:0.81;"/></g><!--link CreateAutomatedExamUI to CreateAutomatedExamController--><g id="link_CreateAutomatedExamUI_CreateAutomatedExamController"><path codeLine="109" d="M171.8982,503.4351 C198.4419,505.3872 230.2182,507.72 264.3111,510.2229 " fill="none" id="CreateAutomatedExamUI-to-CreateAutomatedExamController" style="stroke:#181818;stroke-width:0.81;"/><polygon fill="#181818" points="268.4826,510.5307,261.4535,506.758,264.4438,510.2298,260.972,513.2201,268.4826,510.5307" style="stroke:#181818;stroke-width:0.81;"/></g><!--link UpdateAutomatedExamUI to UpdateAutomatedExamController--><g id="link_UpdateAutomatedExamUI_UpdateAutomatedExamController"><path codeLine="110" d="M172.7244,424.8651 C190.7712,423.5043 211.1994,421.9734 233.1099,420.3291 " fill="none" id="UpdateAutomatedExamUI-to-UpdateAutomatedExamController" style="stroke:#181818;stroke-width:0.81;"/><polygon fill="#181818" points="237.2166,420.0213,229.706,417.3318,233.1778,420.3221,230.1875,423.7939,237.2166,420.0213" style="stroke:#181818;stroke-width:0.81;"/></g><!--link ExamRepository to AutomatedExam--><g id="link_ExamRepository_AutomatedExam"><path codeLine="111" d="M1560.87,584.265 C1580.9985,596.6985 1601.9208,613.3116 1615.14,633.9342 C1655.1945,696.4176 1594.5093,743.3247 1644.3,798.3642 C1659.4875,815.1555 1682.4591,823.7172 1704.0699,827.9859 " fill="none" id="ExamRepository-to-AutomatedExam" style="stroke:#181818;stroke-width:0.81;"/><polygon fill="#181818" points="1708.0875,828.7392,1701.5258,824.202,1704.1079,827.9872,1700.3227,830.5693,1708.0875,828.7392" style="stroke:#181818;stroke-width:0.81;"/></g><!--link ExamHandler to ExamRepository--><g id="link_ExamHandler_ExamRepository"><path codeLine="112" d="M792.261,776.559 C860.7546,774.1533 934.8291,759.2331 989.82,715.7442 C1020.3651,691.59 989.0424,658.0236 1018.98,633.1242 C1076.3685,585.3909 1282.6917,567.3117 1406.5326,560.6697 " fill="none" id="ExamHandler-to-ExamRepository" style="stroke:#181818;stroke-width:0.81;"/><polygon fill="#181818" points="1410.9066,560.4348,1403.4517,557.5947,1406.8626,560.6543,1403.8029,564.0652,1410.9066,560.4348" style="stroke:#181818;stroke-width:0.81;"/></g><!--link ExamHandler to AutomatedExamBuilder--><g id="link_ExamHandler_AutomatedExamBuilder"><path codeLine="113" d="M792.2448,747.4476 C863.6301,743.7945 944.622,739.6473 1014.7923,736.0509 " fill="none" id="ExamHandler-to-AutomatedExamBuilder" style="stroke:#181818;stroke-width:0.81;"/><polygon fill="#181818" points="1018.9719,735.8403,1011.5251,732.979,1014.9272,736.0483,1011.8579,739.4504,1018.9719,735.8403" style="stroke:#181818;stroke-width:0.81;"/></g><!--link ExamHandler to AutomatedExam--><g id="link_ExamHandler_AutomatedExam"><path codeLine="114" d="M747.8811,784.1973 C827.415,797.9997 928.3167,813.4383 1018.98,821.0442 C1273.4739,842.3958 1578.69,837.0174 1703.8836,833.4858 " fill="none" id="ExamHandler-to-AutomatedExam" style="stroke:#181818;stroke-width:0.81;"/><polygon fill="#181818" points="1708.2576,833.3562,1700.878,830.3257,1704.2093,833.4718,1701.0631,836.803,1708.2576,833.3562" style="stroke:#181818;stroke-width:0.81;"/></g><!--link ExamParseTreeVisitor to Question--><g id="link_ExamParseTreeVisitor_Question"><path codeLine="116" d="M1805.976,647.1534 C1922.7051,552.4239 2245.3686,290.5833 2341.7262,212.3859 " fill="none" id="ExamParseTreeVisitor-to-Question" style="stroke:#181818;stroke-width:0.81;"/><polygon fill="#181818" points="2345.0634,209.6805,2337.3662,211.7768,2341.9247,212.24,2341.4615,216.7986,2345.0634,209.6805" style="stroke:#181818;stroke-width:0.81;"/></g><!--reverse link Question to BooleanQuestion--><g id="link_Question_BooleanQuestion"><path codeLine="117" d="M2422.6047,190.0542 C2440.0926,190.0542 2459.7189,190.0542 2477.5632,190.0542 " fill="none" id="Question-backto-BooleanQuestion" style="stroke:#181818;stroke-width:0.81;"/><polygon fill="none" points="2422.4832,195.7242,2406.2832,190.0542,2422.4832,184.3842,2422.4832,195.7242" style="stroke:#181818;stroke-width:0.81;"/></g><!--link MultipleChoiceQuestion to Question--><g id="link_MultipleChoiceQuestion_Question"><path codeLine="118" d="M2241.7317,142.2723 C2265.894,151.3281 2294.5356,162.0606 2318.5521,171.0597 " fill="none" id="MultipleChoiceQuestion-to-Question" style="stroke:#181818;stroke-width:0.81;"/><polygon fill="none" points="2320.7634,165.8352,2333.9502,176.8269,2316.7863,176.4543,2320.7634,165.8352" style="stroke:#181818;stroke-width:0.81;"/></g><!--reverse link Question to MatchingQuestion--><g id="link_Question_MatchingQuestion"><path codeLine="119" d="M2370.06,154.0416 C2370.06,150.1941 2370.06,146.3466 2370.06,142.5072 " fill="none" id="Question-backto-MatchingQuestion" style="stroke:#181818;stroke-width:0.81;"/><polygon fill="none" points="2375.73,154.155,2370.06,170.355,2364.39,154.155,2375.73,154.155" style="stroke:#181818;stroke-width:0.81;"/></g><!--link NumericalQuestion to Question--><g id="link_NumericalQuestion_Question"><path codeLine="120" d="M2059.506,141.8187 C2077.4637,146.9784 2097.2682,152.1948 2115.72,156.0342 C2184.9588,170.4603 2266.1613,180.0993 2317.653,185.3319 " fill="none" id="NumericalQuestion-to-Question" style="stroke:#181818;stroke-width:0.81;"/><polygon fill="none" points="2318.3496,179.7024,2333.9097,186.9357,2317.2318,190.9857,2318.3496,179.7024" style="stroke:#181818;stroke-width:0.81;"/></g><!--link MissingWordQuestion to Question--><g id="link_MissingWordQuestion_Question"><path codeLine="121" d="M2067.1929,190.0542 C2139.5502,190.0542 2252.3346,190.0542 2317.6692,190.0542 " fill="none" id="MissingWordQuestion-to-Question" style="stroke:#181818;stroke-width:0.81;"/><polygon fill="none" points="2317.7826,184.3842,2333.9826,190.0542,2317.7826,195.7242,2317.7826,184.3842" style="stroke:#181818;stroke-width:0.81;"/></g><!--SRC=[bLPDSziW4BtpApZAOskQzjZfUAPnagOp_N0JfpqJjBQPOg4YvCRZvByNa6G3GbAZYpxUOtVPVRk8mrfX9R1acwt26PD05HCvKannm0_txouktk8KBoGG1MyUYapVCCdnzHFPuGKdPOcl6Db8iaC85OJ-9Xl05SD7X9kBMb9ju6Ebn4xVCxFyuRF3UWdujQU07z9VpYv14tOaruyxo5LZk0L9KN16YTdO_mIs4BcIWdEG3bjVqq5kmbcfLa3e5kH2LBA4yWpER81tK8YIAI4FCqnSAxSapoohAa7UGrdgIEz1xXc5YHj1kWV9rWVhsCGYPEBXK-NvJoRuFVwYm_fGVvXxNDhTJR9c79P4RMUu1Awb05czqXZoc4ubnYlNbr0JnI0zwUPZXlqzBgNOiypaZjeFna3devjuln2J89wn3ByooJRFzhEtmpAXfxJQfHxQjM0hPQ0RNPyRANP-rTfQcPUPLhtQTcAkkcdkBNQTew6IEuLlUqoUKkhKcEKAv9fGiFFYBaOnrvhbriFbOMN6JcBSsoSJmxZhJCV8tCucZwMIXAfwIXqx4lMs5S7Dv_jw4FQWtml8bref8elZjq2q_CRMzXWtHMx4TqJzEh1f2iiTDRWakgeh2V2JsVpxsPzkGDdiLuphe9DEuHl0NxGtfgoCg7gA-eUysk4RWEnHrsbrAE0OWfyaoLY-2J5VDSriz6CkIDXIIH5LSjEhhvXViQq7Uft-PMfRUsWRkOjVjo9Ex5aQOHWXN6bFYMWU8fm55oLO4csVOgncLD7w7c7KWamoAAbaXL7s36_gzBibck6rynQnqxI57Zds7Z0UJRgIoTZWSCxjFnMKnj3vx3v6UZlIsZ-QXSVmp-5I20uaR_40_LfnnGhTNrkX3vC-4b5qgpFJ0t-hThfzAU5zova-iFBDBo4pZs4tZkpCITEvCoUGFv1IcQRFDHuYpRBp26dDjKXJ7nHLiMNvfUdXpOE1FM0lDc3GUMzOKro5UP36d1c0tBcheLFoqF1FMXg9TsJ5F3xXnlpCtOc4XlzqJ4ruBBIHPVFm343nVsTZUJ1U5Fs7DWu68q31KTsHZ9E2c592E9heGLBT8w6c6f6VH17qkOQhPmUEDpfEizHZ1PsEK-x2dKutGNZhkwqUKlu1]--></g></svg>