<?xml version="1.0" encoding="us-ascii" standalone="no"?><svg xmlns="http://www.w3.org/2000/svg" xmlns:xlink="http://www.w3.org/1999/xlink" contentStyleType="text/css" height="1018px" preserveAspectRatio="none" style="width:1557px;height:1018px;background:#FFFFFF;" version="1.1" viewBox="0 0 1557 1018" width="1557px" zoomAndPan="magnify"><defs/><g><text fill="#000000" font-family="sans-serif" font-size="14" font-weight="bold" lengthAdjust="spacing" textLength="175" x="690.25" y="30.1074">AUTH Message - Diagram</text><rect fill="#FFFFFF" height="793.4023" style="stroke:#181818;stroke-width:1.0;" width="10" x="243.5" y="133.2422"/><rect fill="#FFFFFF" height="396.2012" style="stroke:#181818;stroke-width:1.0;" width="10" x="739.5" y="401.5703"/><line style="stroke:#181818;stroke-width:0.5;stroke-dasharray:5.0,5.0;" x1="22" x2="22" y1="123.2422" y2="935.6445"/><line style="stroke:#181818;stroke-width:0.5;stroke-dasharray:5.0,5.0;" x1="248.5" x2="248.5" y1="123.2422" y2="935.6445"/><line style="stroke:#181818;stroke-width:0.5;stroke-dasharray:5.0,5.0;" x1="429.5" x2="429.5" y1="123.2422" y2="935.6445"/><line style="stroke:#181818;stroke-width:0.5;stroke-dasharray:5.0,5.0;" x1="571.5" x2="571.5" y1="123.2422" y2="935.6445"/><line style="stroke:#181818;stroke-width:0.5;stroke-dasharray:5.0,5.0;" x1="744.5" x2="744.5" y1="123.2422" y2="935.6445"/><line style="stroke:#181818;stroke-width:0.5;stroke-dasharray:5.0,5.0;" x1="1057.5" x2="1057.5" y1="123.2422" y2="935.6445"/><line style="stroke:#181818;stroke-width:0.5;stroke-dasharray:5.0,5.0;" x1="1238.5" x2="1238.5" y1="123.2422" y2="935.6445"/><line style="stroke:#181818;stroke-width:0.5;stroke-dasharray:5.0,5.0;" x1="1442.5" x2="1442.5" y1="123.2422" y2="935.6445"/><text fill="#000000" font-family="sans-serif" font-size="14" lengthAdjust="spacing" textLength="29" x="5" y="119.7285">User</text><ellipse cx="22.5" cy="53.1211" fill="#E2E2F0" rx="8" ry="8" style="stroke:#181818;stroke-width:0.5;"/><path d="M22.5,61.1211 L22.5,88.1211 M9.5,69.1211 L35.5,69.1211 M22.5,88.1211 L9.5,103.1211 M22.5,88.1211 L35.5,103.1211 " fill="none" style="stroke:#181818;stroke-width:0.5;"/><text fill="#000000" font-family="sans-serif" font-size="14" lengthAdjust="spacing" textLength="29" x="5" y="949.752">User</text><ellipse cx="22.5" cy="961.7656" fill="#E2E2F0" rx="8" ry="8" style="stroke:#181818;stroke-width:0.5;"/><path d="M22.5,969.7656 L22.5,996.7656 M9.5,977.7656 L35.5,977.7656 M22.5,996.7656 L9.5,1011.7656 M22.5,996.7656 L35.5,1011.7656 " fill="none" style="stroke:#181818;stroke-width:0.5;"/><rect fill="#E2E2F0" height="51.2422" rx="2.5" ry="2.5" style="stroke:#181818;stroke-width:0.5;" width="134" x="181.5" y="71"/><text fill="#000000" font-family="sans-serif" font-size="14" font-style="italic" lengthAdjust="spacing" textLength="107" x="195" y="93.1074">&#171;tcpclientserver&#187;</text><text fill="#000000" font-family="sans-serif" font-size="14" lengthAdjust="spacing" textLength="120" x="188.5" y="111.7285">SharedBoardClient</text><rect fill="#E2E2F0" height="51.2422" rx="2.5" ry="2.5" style="stroke:#181818;stroke-width:0.5;" width="134" x="181.5" y="934.6445"/><text fill="#000000" font-family="sans-serif" font-size="14" font-style="italic" lengthAdjust="spacing" textLength="107" x="195" y="956.752">&#171;tcpclientserver&#187;</text><text fill="#000000" font-family="sans-serif" font-size="14" lengthAdjust="spacing" textLength="120" x="188.5" y="975.373">SharedBoardClient</text><rect fill="#E2E2F0" height="51.2422" rx="2.5" ry="2.5" style="stroke:#181818;stroke-width:0.5;" width="124" x="367.5" y="71"/><text fill="#000000" font-family="sans-serif" font-size="14" font-style="italic" lengthAdjust="spacing" textLength="107" x="376" y="93.1074">&#171;tcpclientserver&#187;</text><text fill="#000000" font-family="sans-serif" font-size="14" lengthAdjust="spacing" textLength="110" x="374.5" y="111.7285">RequestMessage</text><rect fill="#E2E2F0" height="51.2422" rx="2.5" ry="2.5" style="stroke:#181818;stroke-width:0.5;" width="124" x="367.5" y="934.6445"/><text fill="#000000" font-family="sans-serif" font-size="14" font-style="italic" lengthAdjust="spacing" textLength="107" x="376" y="956.752">&#171;tcpclientserver&#187;</text><text fill="#000000" font-family="sans-serif" font-size="14" lengthAdjust="spacing" textLength="110" x="374.5" y="975.373">RequestMessage</text><rect fill="#E2E2F0" height="51.2422" rx="2.5" ry="2.5" style="stroke:#181818;stroke-width:0.5;" width="140" x="501.5" y="71"/><text fill="#000000" font-family="sans-serif" font-size="14" font-style="italic" lengthAdjust="spacing" textLength="107" x="518" y="93.1074">&#171;tcpclientserver&#187;</text><text fill="#000000" font-family="sans-serif" font-size="14" lengthAdjust="spacing" textLength="126" x="508.5" y="111.7285">SharedBoardServer</text><rect fill="#E2E2F0" height="51.2422" rx="2.5" ry="2.5" style="stroke:#181818;stroke-width:0.5;" width="140" x="501.5" y="934.6445"/><text fill="#000000" font-family="sans-serif" font-size="14" font-style="italic" lengthAdjust="spacing" textLength="107" x="518" y="956.752">&#171;tcpclientserver&#187;</text><text fill="#000000" font-family="sans-serif" font-size="14" lengthAdjust="spacing" textLength="126" x="508.5" y="975.373">SharedBoardServer</text><rect fill="#E2E2F0" height="51.2422" rx="2.5" ry="2.5" style="stroke:#181818;stroke-width:0.5;" width="186" x="651.5" y="71"/><text fill="#000000" font-family="sans-serif" font-size="14" font-style="italic" lengthAdjust="spacing" textLength="107" x="691" y="93.1074">&#171;tcpclientserver&#187;</text><text fill="#000000" font-family="sans-serif" font-size="14" lengthAdjust="spacing" textLength="172" x="658.5" y="111.7285">TcpServerMessageHandler</text><rect fill="#E2E2F0" height="51.2422" rx="2.5" ry="2.5" style="stroke:#181818;stroke-width:0.5;" width="186" x="651.5" y="934.6445"/><text fill="#000000" font-family="sans-serif" font-size="14" font-style="italic" lengthAdjust="spacing" textLength="107" x="691" y="956.752">&#171;tcpclientserver&#187;</text><text fill="#000000" font-family="sans-serif" font-size="14" lengthAdjust="spacing" textLength="172" x="658.5" y="975.373">TcpServerMessageHandler</text><rect fill="#E2E2F0" height="51.2422" rx="2.5" ry="2.5" style="stroke:#181818;stroke-width:0.5;" width="172" x="971.5" y="71"/><text fill="#000000" font-family="sans-serif" font-size="14" font-style="italic" lengthAdjust="spacing" textLength="156" x="979.5" y="93.1074">&#171;EAPLI_FRAMEWORK&#187;</text><text fill="#000000" font-family="sans-serif" font-size="14" lengthAdjust="spacing" textLength="158" x="978.5" y="111.7285">UserManagementService</text><rect fill="#E2E2F0" height="51.2422" rx="2.5" ry="2.5" style="stroke:#181818;stroke-width:0.5;" width="172" x="971.5" y="934.6445"/><text fill="#000000" font-family="sans-serif" font-size="14" font-style="italic" lengthAdjust="spacing" textLength="156" x="979.5" y="956.752">&#171;EAPLI_FRAMEWORK&#187;</text><text fill="#000000" font-family="sans-serif" font-size="14" lengthAdjust="spacing" textLength="158" x="978.5" y="975.373">UserManagementService</text><rect fill="#E2E2F0" height="51.2422" rx="2.5" ry="2.5" style="stroke:#181818;stroke-width:0.5;" width="170" x="1153.5" y="71"/><text fill="#000000" font-family="sans-serif" font-size="14" font-style="italic" lengthAdjust="spacing" textLength="156" x="1160.5" y="93.1074">&#171;EAPLI_FRAMEWORK&#187;</text><text fill="#000000" font-family="sans-serif" font-size="14" lengthAdjust="spacing" textLength="75" x="1201" y="111.7285">SystemUser</text><rect fill="#E2E2F0" height="51.2422" rx="2.5" ry="2.5" style="stroke:#181818;stroke-width:0.5;" width="170" x="1153.5" y="934.6445"/><text fill="#000000" font-family="sans-serif" font-size="14" font-style="italic" lengthAdjust="spacing" textLength="156" x="1160.5" y="956.752">&#171;EAPLI_FRAMEWORK&#187;</text><text fill="#000000" font-family="sans-serif" font-size="14" lengthAdjust="spacing" textLength="75" x="1201" y="975.373">SystemUser</text><rect fill="#E2E2F0" height="51.2422" rx="2.5" ry="2.5" style="stroke:#181818;stroke-width:0.5;" width="218" x="1333.5" y="71"/><text fill="#000000" font-family="sans-serif" font-size="14" font-style="italic" lengthAdjust="spacing" textLength="156" x="1364.5" y="93.1074">&#171;EAPLI_FRAMEWORK&#187;</text><text fill="#000000" font-family="sans-serif" font-size="14" lengthAdjust="spacing" textLength="204" x="1340.5" y="111.7285">AuthenticationCredentialHandler</text><rect fill="#E2E2F0" height="51.2422" rx="2.5" ry="2.5" style="stroke:#181818;stroke-width:0.5;" width="218" x="1333.5" y="934.6445"/><text fill="#000000" font-family="sans-serif" font-size="14" font-style="italic" lengthAdjust="spacing" textLength="156" x="1364.5" y="956.752">&#171;EAPLI_FRAMEWORK&#187;</text><text fill="#000000" font-family="sans-serif" font-size="14" lengthAdjust="spacing" textLength="204" x="1340.5" y="975.373">AuthenticationCredentialHandler</text><rect fill="#FFFFFF" height="793.4023" style="stroke:#181818;stroke-width:1.0;" width="10" x="243.5" y="133.2422"/><rect fill="#FFFFFF" height="396.2012" style="stroke:#181818;stroke-width:1.0;" width="10" x="739.5" y="401.5703"/><polygon fill="#181818" points="231.5,152.5332,241.5,156.5332,231.5,160.5332,235.5,156.5332" style="stroke:#181818;stroke-width:1.0;"/><line style="stroke:#181818;stroke-width:1.0;" x1="0" x2="237.5" y1="156.5332" y2="156.5332"/><text fill="#000000" font-family="sans-serif" font-size="13" font-weight="bold" lengthAdjust="spacing" textLength="7" x="7" y="151.2705">1</text><text fill="#000000" font-family="sans-serif" font-size="13" lengthAdjust="spacing" textLength="42" x="18" y="151.2705">onLoad</text><polygon fill="#181818" points="559.5,183.8242,569.5,187.8242,559.5,191.8242,563.5,187.8242" style="stroke:#181818;stroke-width:1.0;"/><line style="stroke:#181818;stroke-width:1.0;stroke-dasharray:2.0,2.0;" x1="253.5" x2="565.5" y1="187.8242" y2="187.8242"/><text fill="#000000" font-family="sans-serif" font-size="13" font-weight="bold" lengthAdjust="spacing" textLength="7" x="260.5" y="182.5615">2</text><text fill="#000000" font-family="sans-serif" font-size="13" lengthAdjust="spacing" textLength="86" x="271.5" y="182.5615">beginSession()</text><polygon fill="#181818" points="231.5,215.1152,241.5,219.1152,231.5,223.1152,235.5,219.1152" style="stroke:#181818;stroke-width:1.0;"/><line style="stroke:#181818;stroke-width:1.0;stroke-dasharray:2.0,2.0;" x1="22.5" x2="237.5" y1="219.1152" y2="219.1152"/><text fill="#000000" font-family="sans-serif" font-size="13" font-weight="bold" lengthAdjust="spacing" textLength="7" x="29.5" y="213.8525">3</text><text fill="#000000" font-family="sans-serif" font-size="13" lengthAdjust="spacing" textLength="186" x="40.5" y="213.8525">enters data (version, code, data)</text><polygon fill="#181818" points="231.5,246.4063,241.5,250.4063,231.5,254.4063,235.5,250.4063" style="stroke:#181818;stroke-width:1.0;"/><line style="stroke:#181818;stroke-width:1.0;stroke-dasharray:2.0,2.0;" x1="22.5" x2="237.5" y1="250.4063" y2="250.4063"/><text fill="#000000" font-family="sans-serif" font-size="13" font-weight="bold" lengthAdjust="spacing" textLength="7" x="29.5" y="245.1436">4</text><text fill="#000000" font-family="sans-serif" font-size="13" lengthAdjust="spacing" textLength="68" x="40.5" y="245.1436">submit data</text><polygon fill="#181818" points="417.5,277.6973,427.5,281.6973,417.5,285.6973,421.5,281.6973" style="stroke:#181818;stroke-width:1.0;"/><line style="stroke:#181818;stroke-width:1.0;" x1="253.5" x2="423.5" y1="281.6973" y2="281.6973"/><text fill="#000000" font-family="sans-serif" font-size="13" font-weight="bold" lengthAdjust="spacing" textLength="7" x="260.5" y="276.4346">5</text><text fill="#000000" font-family="sans-serif" font-size="13" lengthAdjust="spacing" textLength="36" x="271.5" y="276.4346">create</text><line style="stroke:#181818;stroke-width:1.0;" x1="253.5" x2="295.5" y1="312.9883" y2="312.9883"/><line style="stroke:#181818;stroke-width:1.0;" x1="295.5" x2="295.5" y1="312.9883" y2="325.9883"/><line style="stroke:#181818;stroke-width:1.0;" x1="254.5" x2="295.5" y1="325.9883" y2="325.9883"/><polygon fill="#181818" points="264.5,321.9883,254.5,325.9883,264.5,329.9883,260.5,325.9883" style="stroke:#181818;stroke-width:1.0;"/><text fill="#000000" font-family="sans-serif" font-size="13" font-weight="bold" lengthAdjust="spacing" textLength="7" x="260.5" y="307.7256">6</text><text fill="#000000" font-family="sans-serif" font-size="13" lengthAdjust="spacing" textLength="141" x="271.5" y="307.7256">writeInt(messageLength)</text><line style="stroke:#181818;stroke-width:1.0;" x1="253.5" x2="295.5" y1="357.2793" y2="357.2793"/><line style="stroke:#181818;stroke-width:1.0;" x1="295.5" x2="295.5" y1="357.2793" y2="370.2793"/><line style="stroke:#181818;stroke-width:1.0;" x1="254.5" x2="295.5" y1="370.2793" y2="370.2793"/><polygon fill="#181818" points="264.5,366.2793,254.5,370.2793,264.5,374.2793,260.5,370.2793" style="stroke:#181818;stroke-width:1.0;"/><text fill="#000000" font-family="sans-serif" font-size="13" font-weight="bold" lengthAdjust="spacing" textLength="7" x="260.5" y="352.0166">7</text><text fill="#000000" font-family="sans-serif" font-size="13" lengthAdjust="spacing" textLength="88" x="271.5" y="352.0166">write(message)</text><polygon fill="#181818" points="727.5,397.5703,737.5,401.5703,727.5,405.5703,731.5,401.5703" style="stroke:#181818;stroke-width:1.0;"/><line style="stroke:#181818;stroke-width:1.0;stroke-dasharray:2.0,2.0;" x1="253.5" x2="733.5" y1="401.5703" y2="401.5703"/><text fill="#000000" font-family="sans-serif" font-size="13" font-weight="bold" lengthAdjust="spacing" textLength="7" x="260.5" y="396.3076">8</text><text fill="#000000" font-family="sans-serif" font-size="13" lengthAdjust="spacing" textLength="4" x="271.5" y="396.3076">&#160;</text><line style="stroke:#181818;stroke-width:1.0;" x1="749.5" x2="791.5" y1="432.8613" y2="432.8613"/><line style="stroke:#181818;stroke-width:1.0;" x1="791.5" x2="791.5" y1="432.8613" y2="445.8613"/><line style="stroke:#181818;stroke-width:1.0;" x1="750.5" x2="791.5" y1="445.8613" y2="445.8613"/><polygon fill="#181818" points="760.5,441.8613,750.5,445.8613,760.5,449.8613,756.5,445.8613" style="stroke:#181818;stroke-width:1.0;"/><text fill="#000000" font-family="sans-serif" font-size="13" font-weight="bold" lengthAdjust="spacing" textLength="7" x="756.5" y="427.5986">9</text><text fill="#000000" font-family="sans-serif" font-size="13" lengthAdjust="spacing" textLength="139" x="767.5" y="427.5986">readInt(messageLength)</text><line style="stroke:#181818;stroke-width:1.0;" x1="749.5" x2="791.5" y1="477.1523" y2="477.1523"/><line style="stroke:#181818;stroke-width:1.0;" x1="791.5" x2="791.5" y1="477.1523" y2="490.1523"/><line style="stroke:#181818;stroke-width:1.0;" x1="750.5" x2="791.5" y1="490.1523" y2="490.1523"/><polygon fill="#181818" points="760.5,486.1523,750.5,490.1523,760.5,494.1523,756.5,490.1523" style="stroke:#181818;stroke-width:1.0;"/><text fill="#000000" font-family="sans-serif" font-size="13" font-weight="bold" lengthAdjust="spacing" textLength="14" x="756.5" y="471.8896">10</text><text fill="#000000" font-family="sans-serif" font-size="13" lengthAdjust="spacing" textLength="86" x="774.5" y="471.8896">read(message)</text><line style="stroke:#181818;stroke-width:1.0;" x1="749.5" x2="791.5" y1="521.4434" y2="521.4434"/><line style="stroke:#181818;stroke-width:1.0;" x1="791.5" x2="791.5" y1="521.4434" y2="534.4434"/><line style="stroke:#181818;stroke-width:1.0;" x1="750.5" x2="791.5" y1="534.4434" y2="534.4434"/><polygon fill="#181818" points="760.5,530.4434,750.5,534.4434,760.5,538.4434,756.5,534.4434" style="stroke:#181818;stroke-width:1.0;"/><text fill="#000000" font-family="sans-serif" font-size="13" font-weight="bold" lengthAdjust="spacing" textLength="14" x="756.5" y="516.1807">11</text><text fill="#000000" font-family="sans-serif" font-size="13" lengthAdjust="spacing" textLength="189" x="774.5" y="516.1807">codeFactory(code, version, data)</text><polygon fill="#181818" points="1045.5,561.7344,1055.5,565.7344,1045.5,569.7344,1049.5,565.7344" style="stroke:#181818;stroke-width:1.0;"/><line style="stroke:#181818;stroke-width:1.0;" x1="749.5" x2="1051.5" y1="565.7344" y2="565.7344"/><text fill="#000000" font-family="sans-serif" font-size="13" font-weight="bold" lengthAdjust="spacing" textLength="14" x="756.5" y="560.4717">12</text><text fill="#000000" font-family="sans-serif" font-size="13" lengthAdjust="spacing" textLength="145" x="774.5" y="560.4717">userOfIdentity(username)</text><polygon fill="#181818" points="760.5,593.0254,750.5,597.0254,760.5,601.0254,756.5,597.0254" style="stroke:#181818;stroke-width:1.0;"/><line style="stroke:#181818;stroke-width:1.0;" x1="754.5" x2="1056.5" y1="597.0254" y2="597.0254"/><text fill="#000000" font-family="sans-serif" font-size="13" font-weight="bold" lengthAdjust="spacing" textLength="14" x="766.5" y="591.7627">13</text><text fill="#000000" font-family="sans-serif" font-size="13" lengthAdjust="spacing" textLength="72" x="784.5" y="591.7627">SystemUser</text><polygon fill="#181818" points="1226.5,624.3164,1236.5,628.3164,1226.5,632.3164,1230.5,628.3164" style="stroke:#181818;stroke-width:1.0;"/><line style="stroke:#181818;stroke-width:1.0;" x1="749.5" x2="1232.5" y1="628.3164" y2="628.3164"/><text fill="#000000" font-family="sans-serif" font-size="13" font-weight="bold" lengthAdjust="spacing" textLength="14" x="756.5" y="623.0537">14</text><text fill="#000000" font-family="sans-serif" font-size="13" lengthAdjust="spacing" textLength="64" x="774.5" y="623.0537">roleTypes()</text><polygon fill="#181818" points="760.5,655.6074,750.5,659.6074,760.5,663.6074,756.5,659.6074" style="stroke:#181818;stroke-width:1.0;"/><line style="stroke:#181818;stroke-width:1.0;" x1="754.5" x2="1237.5" y1="659.6074" y2="659.6074"/><text fill="#000000" font-family="sans-serif" font-size="13" font-weight="bold" lengthAdjust="spacing" textLength="14" x="766.5" y="654.3447">15</text><text fill="#000000" font-family="sans-serif" font-size="13" lengthAdjust="spacing" textLength="28" x="784.5" y="654.3447">roles</text><polygon fill="#181818" points="1430.5,686.8984,1440.5,690.8984,1430.5,694.8984,1434.5,690.8984" style="stroke:#181818;stroke-width:1.0;"/><line style="stroke:#181818;stroke-width:1.0;" x1="749.5" x2="1436.5" y1="690.8984" y2="690.8984"/><text fill="#000000" font-family="sans-serif" font-size="13" font-weight="bold" lengthAdjust="spacing" textLength="14" x="756.5" y="685.6357">16</text><text fill="#000000" font-family="sans-serif" font-size="13" lengthAdjust="spacing" textLength="235" x="774.5" y="685.6357">authenticated(username, password, role)</text><polygon fill="#181818" points="760.5,718.1895,750.5,722.1895,760.5,726.1895,756.5,722.1895" style="stroke:#181818;stroke-width:1.0;"/><line style="stroke:#181818;stroke-width:1.0;" x1="754.5" x2="1441.5" y1="722.1895" y2="722.1895"/><text fill="#000000" font-family="sans-serif" font-size="13" font-weight="bold" lengthAdjust="spacing" textLength="14" x="766.5" y="716.9268">17</text><text fill="#000000" font-family="sans-serif" font-size="13" lengthAdjust="spacing" textLength="22" x="784.5" y="716.9268">true</text><line style="stroke:#181818;stroke-width:1.0;" x1="749.5" x2="791.5" y1="753.4805" y2="753.4805"/><line style="stroke:#181818;stroke-width:1.0;" x1="791.5" x2="791.5" y1="753.4805" y2="766.4805"/><line style="stroke:#181818;stroke-width:1.0;" x1="750.5" x2="791.5" y1="766.4805" y2="766.4805"/><polygon fill="#181818" points="760.5,762.4805,750.5,766.4805,760.5,770.4805,756.5,766.4805" style="stroke:#181818;stroke-width:1.0;"/><text fill="#000000" font-family="sans-serif" font-size="13" font-weight="bold" lengthAdjust="spacing" textLength="14" x="756.5" y="748.2178">18</text><text fill="#000000" font-family="sans-serif" font-size="13" lengthAdjust="spacing" textLength="271" x="774.5" y="748.2178">sendSuccessResponse(version, outputStream)</text><polygon fill="#181818" points="264.5,793.7715,254.5,797.7715,264.5,801.7715,260.5,797.7715" style="stroke:#181818;stroke-width:1.0;"/><line style="stroke:#181818;stroke-width:1.0;stroke-dasharray:2.0,2.0;" x1="258.5" x2="743.5" y1="797.7715" y2="797.7715"/><text fill="#000000" font-family="sans-serif" font-size="13" font-weight="bold" lengthAdjust="spacing" textLength="14" x="270.5" y="792.5088">19</text><text fill="#000000" font-family="sans-serif" font-size="13" lengthAdjust="spacing" textLength="4" x="288.5" y="792.5088">&#160;</text><line style="stroke:#181818;stroke-width:1.0;" x1="253.5" x2="295.5" y1="829.0625" y2="829.0625"/><line style="stroke:#181818;stroke-width:1.0;" x1="295.5" x2="295.5" y1="829.0625" y2="842.0625"/><line style="stroke:#181818;stroke-width:1.0;" x1="254.5" x2="295.5" y1="842.0625" y2="842.0625"/><polygon fill="#181818" points="264.5,838.0625,254.5,842.0625,264.5,846.0625,260.5,842.0625" style="stroke:#181818;stroke-width:1.0;"/><text fill="#000000" font-family="sans-serif" font-size="13" font-weight="bold" lengthAdjust="spacing" textLength="14" x="260.5" y="823.7998">20</text><text fill="#000000" font-family="sans-serif" font-size="13" lengthAdjust="spacing" textLength="139" x="278.5" y="823.7998">readInt(messageLength)</text><line style="stroke:#181818;stroke-width:1.0;" x1="253.5" x2="295.5" y1="878.3535" y2="878.3535"/><line style="stroke:#181818;stroke-width:1.0;" x1="295.5" x2="295.5" y1="878.3535" y2="891.3535"/><line style="stroke:#181818;stroke-width:1.0;" x1="248.5" x2="295.5" y1="891.3535" y2="891.3535"/><polygon fill="#181818" points="258.5,887.3535,248.5,891.3535,258.5,895.3535,254.5,891.3535" style="stroke:#181818;stroke-width:1.0;"/><text fill="#000000" font-family="sans-serif" font-size="13" font-weight="bold" lengthAdjust="spacing" textLength="14" x="260.5" y="873.0908">21</text><text fill="#000000" font-family="sans-serif" font-size="13" lengthAdjust="spacing" textLength="86" x="278.5" y="873.0908">read(message)</text><polygon fill="#181818" points="33.5,913.6445,23.5,917.6445,33.5,921.6445,29.5,917.6445" style="stroke:#181818;stroke-width:1.0;"/><line style="stroke:#181818;stroke-width:1.0;stroke-dasharray:2.0,2.0;" x1="27.5" x2="242.5" y1="917.6445" y2="917.6445"/><text fill="#000000" font-family="sans-serif" font-size="13" font-weight="bold" lengthAdjust="spacing" textLength="14" x="39.5" y="912.3818">22</text><text fill="#000000" font-family="sans-serif" font-size="13" lengthAdjust="spacing" textLength="83" x="57.5" y="912.3818">shows sucess</text><!--SRC=[XLDTZzem47pthx3kAKZm1w8J4htUwL11Ln5G7wl5tWDBn4xjpI7-VTTE86u1yHBvOsPtFJCXGmUKiytwNIun1DYXdCZl1dOUQY6W9MVRUejUW2BdvIQWbn3aHZJWoIZJW2NvLEt1e_xcmEkNWq5BJn7KBUNpCwb6fJMplz1Ff_-oL_YdnK1z_qHTFcPbFQi4ICHk-PYzLaq7xRk-WzM7laQ_Vbmagh44o_IQCR6UKNWPWzTSudNsSp7__RQQBLz_VQn-NBtY50ZhM2ZnahuFIREMzjpGA23Zx0lB47Tmo1yHCSD3hWkAwAZv0iBU9p6PdXqhfRCB1rhq-mbVTMgLSeixOoiMZJiN8x59bnSUVz47gO505eoFgB5KJkCu7LuHGhkj3QMxIxSfsrzAvP67upc7usvLogCtX7DBHTsPjq2xe_te7l8C6-NlwRKfCntw8t6MBKD97aRVw7WFEhIyXOXwlAKVwbHqsboawaJAI7sIIjboD3u-vybgEXLnQw7c3kUivHs6MEMrufxdSmTSdneCqRxm__1y6N9EbgDImX0yr9SHnhA148xEwt7YZqGUlhmw-HPlAXBGwgfLYbLROMYS3JZ4nxNKj5GH2rjdsWms2urN9ju8mnqFRmC71_FgtL-GvsZ3m-_TCN2Iu_JYBm00]--></g></svg>