<?xml version="1.0" encoding="us-ascii" standalone="no"?><svg xmlns="http://www.w3.org/2000/svg" xmlns:xlink="http://www.w3.org/1999/xlink" contentStyleType="text/css" height="785px" preserveAspectRatio="none" style="width:1495px;height:785px;background:#FFFFFF;" version="1.1" viewBox="0 0 1495 785" width="1495px" zoomAndPan="magnify"><defs/><g><text fill="#000000" font-family="sans-serif" font-size="14" font-weight="bold" lengthAdjust="spacing" textLength="345" x="568" y="25.1074">US1006 - Listing Available Courses Class Diagram</text><!--cluster ui--><g id="cluster_ui"><path d="M8.5,119.6348 L22.5,119.6348 A3.75,3.75 0 0 1 25,122.1348 L32,144.2559 L210.5,144.2559 A2.5,2.5 0 0 1 213,146.7559 L213,384.1348 A2.5,2.5 0 0 1 210.5,386.6348 L8.5,386.6348 A2.5,2.5 0 0 1 6,384.1348 L6,122.1348 A2.5,2.5 0 0 1 8.5,119.6348 " fill="none" style="stroke:#000000;stroke-width:1.5;"/><line style="stroke:#000000;stroke-width:1.5;" x1="6" x2="32" y1="144.2559" y2="144.2559"/><text fill="#000000" font-family="sans-serif" font-size="14" font-weight="bold" lengthAdjust="spacing" textLength="13" x="10" y="136.7422">ui</text></g><!--cluster usermanagement--><g id="cluster_usermanagement"><path d="M1116,463.6348 L1239,463.6348 A3.75,3.75 0 0 1 1241.5,466.1348 L1248.5,488.2559 L1419,488.2559 A2.5,2.5 0 0 1 1421.5,490.7559 L1421.5,776.1348 A2.5,2.5 0 0 1 1419,778.6348 L1116,778.6348 A2.5,2.5 0 0 1 1113.5,776.1348 L1113.5,466.1348 A2.5,2.5 0 0 1 1116,463.6348 " fill="none" style="stroke:#000000;stroke-width:1.5;"/><line style="stroke:#000000;stroke-width:1.5;" x1="1113.5" x2="1248.5" y1="488.2559" y2="488.2559"/><text fill="#000000" font-family="sans-serif" font-size="14" font-weight="bold" lengthAdjust="spacing" textLength="122" x="1117.5" y="480.7422">usermanagement</text></g><!--cluster repository--><g id="cluster_repository"><path d="M1187,653.6348 L1260,653.6348 A3.75,3.75 0 0 1 1262.5,656.1348 L1269.5,678.2559 L1348,678.2559 A2.5,2.5 0 0 1 1350.5,680.7559 L1350.5,752.1348 A2.5,2.5 0 0 1 1348,754.6348 L1187,754.6348 A2.5,2.5 0 0 1 1184.5,752.1348 L1184.5,656.1348 A2.5,2.5 0 0 1 1187,653.6348 " fill="none" style="stroke:#000000;stroke-width:1.5;"/><line style="stroke:#000000;stroke-width:1.5;" x1="1184.5" x2="1269.5" y1="678.2559" y2="678.2559"/><text fill="#000000" font-family="sans-serif" font-size="14" font-weight="bold" lengthAdjust="spacing" textLength="72" x="1188.5" y="670.7422">repository</text></g><!--cluster application--><g id="cluster_application"><path d="M1140,508.6348 L1218,508.6348 A3.75,3.75 0 0 1 1220.5,511.1348 L1227.5,533.2559 L1395,533.2559 A2.5,2.5 0 0 1 1397.5,535.7559 L1397.5,627.1348 A2.5,2.5 0 0 1 1395,629.6348 L1140,629.6348 A2.5,2.5 0 0 1 1137.5,627.1348 L1137.5,511.1348 A2.5,2.5 0 0 1 1140,508.6348 " fill="none" style="stroke:#000000;stroke-width:1.5;"/><line style="stroke:#000000;stroke-width:1.5;" x1="1137.5" x2="1227.5" y1="533.2559" y2="533.2559"/><text fill="#000000" font-family="sans-serif" font-size="14" font-weight="bold" lengthAdjust="spacing" textLength="77" x="1141.5" y="525.7422">application</text></g><!--cluster coursemanagement--><g id="cluster_coursemanagement"><path d="M239.5,45.6348 L379.5,45.6348 A3.75,3.75 0 0 1 382,48.1348 L389,70.2559 L1485.5,70.2559 A2.5,2.5 0 0 1 1488,72.7559 L1488,437.1348 A2.5,2.5 0 0 1 1485.5,439.6348 L239.5,439.6348 A2.5,2.5 0 0 1 237,437.1348 L237,48.1348 A2.5,2.5 0 0 1 239.5,45.6348 " fill="none" style="stroke:#000000;stroke-width:1.5;"/><line style="stroke:#000000;stroke-width:1.5;" x1="237" x2="389" y1="70.2559" y2="70.2559"/><text fill="#000000" font-family="sans-serif" font-size="14" font-weight="bold" lengthAdjust="spacing" textLength="139" x="241" y="62.7422">coursemanagement</text></g><!--cluster application--><g id="cluster_application"><path d="M263.5,90.6348 L341.5,90.6348 A3.75,3.75 0 0 1 344,93.1348 L351,115.2559 L1040.5,115.2559 A2.5,2.5 0 0 1 1043,117.7559 L1043,413.1348 A2.5,2.5 0 0 1 1040.5,415.6348 L263.5,415.6348 A2.5,2.5 0 0 1 261,413.1348 L261,93.1348 A2.5,2.5 0 0 1 263.5,90.6348 " fill="none" style="stroke:#000000;stroke-width:1.5;"/><line style="stroke:#000000;stroke-width:1.5;" x1="261" x2="351" y1="115.2559" y2="115.2559"/><text fill="#000000" font-family="sans-serif" font-size="14" font-weight="bold" lengthAdjust="spacing" textLength="77" x="265" y="107.7422">application</text></g><!--cluster repository--><g id="cluster_repository"><path d="M1073.5,143.6348 L1146.5,143.6348 A3.75,3.75 0 0 1 1149,146.1348 L1156,168.2559 L1461.5,168.2559 A2.5,2.5 0 0 1 1464,170.7559 L1464,316.1348 A2.5,2.5 0 0 1 1461.5,318.6348 L1073.5,318.6348 A2.5,2.5 0 0 1 1071,316.1348 L1071,146.1348 A2.5,2.5 0 0 1 1073.5,143.6348 " fill="none" style="stroke:#000000;stroke-width:1.5;"/><line style="stroke:#000000;stroke-width:1.5;" x1="1071" x2="1156" y1="168.2559" y2="168.2559"/><text fill="#000000" font-family="sans-serif" font-size="14" font-weight="bold" lengthAdjust="spacing" textLength="72" x="1075" y="160.7422">repository</text></g><!--class ListManagerCoursesUI--><g id="elem_ListManagerCoursesUI"><rect codeLine="9" fill="#F1F1F1" height="48" id="ListManagerCoursesUI" rx="2.5" ry="2.5" style="stroke:#181818;stroke-width:0.5;" width="175" x="22" y="156.6348"/><ellipse cx="37" cy="172.6348" fill="#ADD1B2" rx="11" ry="11" style="stroke:#181818;stroke-width:1.0;"/><path d="M39.7656,168.5098 Q39.9219,168.291 40.1094,168.1816 Q40.2969,168.0723 40.5156,168.0723 Q40.8906,168.0723 41.125,168.3379 Q41.3594,168.5879 41.3594,169.1973 L41.3594,170.6504 Q41.3594,171.2598 41.125,171.5254 Q40.8906,171.791 40.5156,171.791 Q40.1719,171.791 39.9688,171.5879 Q39.7656,171.4004 39.6563,170.8848 Q39.6094,170.5254 39.4219,170.3379 Q39.0938,169.9629 38.4844,169.7441 Q37.875,169.5254 37.25,169.5254 Q36.4844,169.5254 35.8438,169.8535 Q35.2188,170.1816 34.7188,170.9316 Q34.2344,171.6816 34.2344,172.7129 L34.2344,173.8066 Q34.2344,175.041 35.125,175.8691 Q36.0156,176.6816 37.6094,176.6816 Q38.5469,176.6816 39.2031,176.4316 Q39.5938,176.2754 40.0156,175.8379 Q40.2813,175.5723 40.4219,175.4941 Q40.5781,175.416 40.7813,175.416 Q41.1094,175.416 41.3594,175.6816 Q41.625,175.9316 41.625,176.2754 Q41.625,176.6191 41.2813,177.0254 Q40.7813,177.6035 39.9844,177.9316 Q38.9063,178.3848 37.6094,178.3848 Q36.0938,178.3848 34.8906,177.7598 Q33.9063,177.2598 33.2188,176.1973 Q32.5313,175.1191 32.5313,173.8379 L32.5313,172.6816 Q32.5313,171.3535 33.1406,170.2129 Q33.7656,169.0566 34.8594,168.4473 Q35.9531,167.8223 37.1875,167.8223 Q37.9219,167.8223 38.5625,167.9941 Q39.2188,168.1504 39.7656,168.5098 Z " fill="#000000"/><text fill="#000000" font-family="sans-serif" font-size="14" lengthAdjust="spacing" textLength="143" x="51" y="178.4316">ListManagerCoursesUI</text><line style="stroke:#181818;stroke-width:0.5;" x1="23" x2="196" y1="188.6348" y2="188.6348"/><line style="stroke:#181818;stroke-width:0.5;" x1="23" x2="196" y1="196.6348" y2="196.6348"/></g><!--class ListTeacherCoursesUI--><g id="elem_ListTeacherCoursesUI"><rect codeLine="12" fill="#F1F1F1" height="48" id="ListTeacherCoursesUI" rx="2.5" ry="2.5" style="stroke:#181818;stroke-width:0.5;" width="172" x="23.5" y="239.6348"/><ellipse cx="38.5" cy="255.6348" fill="#ADD1B2" rx="11" ry="11" style="stroke:#181818;stroke-width:1.0;"/><path d="M41.2656,251.5098 Q41.4219,251.291 41.6094,251.1816 Q41.7969,251.0723 42.0156,251.0723 Q42.3906,251.0723 42.625,251.3379 Q42.8594,251.5879 42.8594,252.1973 L42.8594,253.6504 Q42.8594,254.2598 42.625,254.5254 Q42.3906,254.791 42.0156,254.791 Q41.6719,254.791 41.4688,254.5879 Q41.2656,254.4004 41.1563,253.8848 Q41.1094,253.5254 40.9219,253.3379 Q40.5938,252.9629 39.9844,252.7441 Q39.375,252.5254 38.75,252.5254 Q37.9844,252.5254 37.3438,252.8535 Q36.7188,253.1816 36.2188,253.9316 Q35.7344,254.6816 35.7344,255.7129 L35.7344,256.8066 Q35.7344,258.041 36.625,258.8691 Q37.5156,259.6816 39.1094,259.6816 Q40.0469,259.6816 40.7031,259.4316 Q41.0938,259.2754 41.5156,258.8379 Q41.7813,258.5723 41.9219,258.4941 Q42.0781,258.416 42.2813,258.416 Q42.6094,258.416 42.8594,258.6816 Q43.125,258.9316 43.125,259.2754 Q43.125,259.6191 42.7813,260.0254 Q42.2813,260.6035 41.4844,260.9316 Q40.4063,261.3848 39.1094,261.3848 Q37.5938,261.3848 36.3906,260.7598 Q35.4063,260.2598 34.7188,259.1973 Q34.0313,258.1191 34.0313,256.8379 L34.0313,255.6816 Q34.0313,254.3535 34.6406,253.2129 Q35.2656,252.0566 36.3594,251.4473 Q37.4531,250.8223 38.6875,250.8223 Q39.4219,250.8223 40.0625,250.9941 Q40.7188,251.1504 41.2656,251.5098 Z " fill="#000000"/><text fill="#000000" font-family="sans-serif" font-size="14" lengthAdjust="spacing" textLength="140" x="52.5" y="261.4316">ListTeacherCoursesUI</text><line style="stroke:#181818;stroke-width:0.5;" x1="24.5" x2="194.5" y1="271.6348" y2="271.6348"/><line style="stroke:#181818;stroke-width:0.5;" x1="24.5" x2="194.5" y1="279.6348" y2="279.6348"/></g><!--class ListStudentCoursesUI--><g id="elem_ListStudentCoursesUI"><rect codeLine="15" fill="#F1F1F1" height="48" id="ListStudentCoursesUI" rx="2.5" ry="2.5" style="stroke:#181818;stroke-width:0.5;" width="168" x="25.5" y="322.6348"/><ellipse cx="40.5" cy="338.6348" fill="#ADD1B2" rx="11" ry="11" style="stroke:#181818;stroke-width:1.0;"/><path d="M43.2656,334.5098 Q43.4219,334.291 43.6094,334.1816 Q43.7969,334.0723 44.0156,334.0723 Q44.3906,334.0723 44.625,334.3379 Q44.8594,334.5879 44.8594,335.1973 L44.8594,336.6504 Q44.8594,337.2598 44.625,337.5254 Q44.3906,337.791 44.0156,337.791 Q43.6719,337.791 43.4688,337.5879 Q43.2656,337.4004 43.1563,336.8848 Q43.1094,336.5254 42.9219,336.3379 Q42.5938,335.9629 41.9844,335.7441 Q41.375,335.5254 40.75,335.5254 Q39.9844,335.5254 39.3438,335.8535 Q38.7188,336.1816 38.2188,336.9316 Q37.7344,337.6816 37.7344,338.7129 L37.7344,339.8066 Q37.7344,341.041 38.625,341.8691 Q39.5156,342.6816 41.1094,342.6816 Q42.0469,342.6816 42.7031,342.4316 Q43.0938,342.2754 43.5156,341.8379 Q43.7813,341.5723 43.9219,341.4941 Q44.0781,341.416 44.2813,341.416 Q44.6094,341.416 44.8594,341.6816 Q45.125,341.9316 45.125,342.2754 Q45.125,342.6191 44.7813,343.0254 Q44.2813,343.6035 43.4844,343.9316 Q42.4063,344.3848 41.1094,344.3848 Q39.5938,344.3848 38.3906,343.7598 Q37.4063,343.2598 36.7188,342.1973 Q36.0313,341.1191 36.0313,339.8379 L36.0313,338.6816 Q36.0313,337.3535 36.6406,336.2129 Q37.2656,335.0566 38.3594,334.4473 Q39.4531,333.8223 40.6875,333.8223 Q41.4219,333.8223 42.0625,333.9941 Q42.7188,334.1504 43.2656,334.5098 Z " fill="#000000"/><text fill="#000000" font-family="sans-serif" font-size="14" lengthAdjust="spacing" textLength="136" x="54.5" y="344.4316">ListStudentCoursesUI</text><line style="stroke:#181818;stroke-width:0.5;" x1="26.5" x2="192.5" y1="354.6348" y2="354.6348"/><line style="stroke:#181818;stroke-width:0.5;" x1="26.5" x2="192.5" y1="362.6348" y2="362.6348"/></g><!--class IUserRepository--><g id="elem_IUserRepository"><rect codeLine="24" fill="#F1F1F1" height="48" id="IUserRepository" rx="2.5" ry="2.5" style="stroke:#181818;stroke-width:0.5;" width="134" x="1200.5" y="690.6348"/><ellipse cx="1215.5" cy="706.6348" fill="#B4A7E5" rx="11" ry="11" style="stroke:#181818;stroke-width:1.0;"/><path d="M1216.4531,703.2754 L1216.4531,709.9316 L1218.1719,709.9316 Q1218.7813,709.9316 1219.0469,710.166 Q1219.3125,710.4004 1219.3125,710.791 Q1219.3125,711.166 1219.0469,711.4004 Q1218.7813,711.6348 1218.1719,711.6348 L1213.0313,711.6348 Q1212.4219,711.6348 1212.1563,711.4004 Q1211.8906,711.166 1211.8906,710.7754 Q1211.8906,710.4004 1212.1563,710.166 Q1212.4219,709.9316 1213.0313,709.9316 L1214.75,709.9316 L1214.75,703.2754 L1213.0313,703.2754 Q1212.4219,703.2754 1212.1563,703.041 Q1211.8906,702.8066 1211.8906,702.416 Q1211.8906,702.041 1212.1563,701.8066 Q1212.4219,701.5723 1213.0313,701.5723 L1218.1719,701.5723 Q1218.7813,701.5723 1219.0469,701.8066 Q1219.3125,702.041 1219.3125,702.416 Q1219.3125,702.8066 1219.0469,703.041 Q1218.7813,703.2754 1218.1719,703.2754 L1216.4531,703.2754 Z " fill="#000000"/><text fill="#000000" font-family="sans-serif" font-size="14" font-style="italic" lengthAdjust="spacing" textLength="102" x="1229.5" y="712.4316">IUserRepository</text><line style="stroke:#181818;stroke-width:0.5;" x1="1201.5" x2="1333.5" y1="722.6348" y2="722.6348"/><line style="stroke:#181818;stroke-width:0.5;" x1="1201.5" x2="1333.5" y1="730.6348" y2="730.6348"/></g><!--class UserSessionService--><g id="elem_UserSessionService"><rect codeLine="28" fill="#F1F1F1" height="66.6211" id="UserSessionService" rx="2.5" ry="2.5" style="stroke:#181818;stroke-width:0.5;" width="228" x="1153.5" y="546.1348"/><ellipse cx="1200.25" cy="562.1348" fill="#ADD1B2" rx="11" ry="11" style="stroke:#181818;stroke-width:1.0;"/><path d="M1203.0156,558.0098 Q1203.1719,557.791 1203.3594,557.6816 Q1203.5469,557.5723 1203.7656,557.5723 Q1204.1406,557.5723 1204.375,557.8379 Q1204.6094,558.0879 1204.6094,558.6973 L1204.6094,560.1504 Q1204.6094,560.7598 1204.375,561.0254 Q1204.1406,561.291 1203.7656,561.291 Q1203.4219,561.291 1203.2188,561.0879 Q1203.0156,560.9004 1202.9063,560.3848 Q1202.8594,560.0254 1202.6719,559.8379 Q1202.3438,559.4629 1201.7344,559.2441 Q1201.125,559.0254 1200.5,559.0254 Q1199.7344,559.0254 1199.0938,559.3535 Q1198.4688,559.6816 1197.9688,560.4316 Q1197.4844,561.1816 1197.4844,562.2129 L1197.4844,563.3066 Q1197.4844,564.541 1198.375,565.3691 Q1199.2656,566.1816 1200.8594,566.1816 Q1201.7969,566.1816 1202.4531,565.9316 Q1202.8438,565.7754 1203.2656,565.3379 Q1203.5313,565.0723 1203.6719,564.9941 Q1203.8281,564.916 1204.0313,564.916 Q1204.3594,564.916 1204.6094,565.1816 Q1204.875,565.4316 1204.875,565.7754 Q1204.875,566.1191 1204.5313,566.5254 Q1204.0313,567.1035 1203.2344,567.4316 Q1202.1563,567.8848 1200.8594,567.8848 Q1199.3438,567.8848 1198.1406,567.2598 Q1197.1563,566.7598 1196.4688,565.6973 Q1195.7813,564.6191 1195.7813,563.3379 L1195.7813,562.1816 Q1195.7813,560.8535 1196.3906,559.7129 Q1197.0156,558.5566 1198.1094,557.9473 Q1199.2031,557.3223 1200.4375,557.3223 Q1201.1719,557.3223 1201.8125,557.4941 Q1202.4688,557.6504 1203.0156,558.0098 Z " fill="#000000"/><text fill="#000000" font-family="sans-serif" font-size="14" lengthAdjust="spacing" textLength="126" x="1220.75" y="567.9316">UserSessionService</text><line style="stroke:#181818;stroke-width:0.5;" x1="1154.5" x2="1380.5" y1="578.1348" y2="578.1348"/><line style="stroke:#181818;stroke-width:0.5;" x1="1154.5" x2="1380.5" y1="586.1348" y2="586.1348"/><ellipse cx="1164.5" cy="600.9453" fill="#84BE84" rx="3" ry="3" style="stroke:#038048;stroke-width:1.0;"/><text fill="#000000" font-family="sans-serif" font-size="14" lengthAdjust="spacing" textLength="202" x="1173.5" y="605.2422">getLoggedUser() : eCourseUser</text></g><!--class ListManagerCoursesController--><g id="elem_ListManagerCoursesController"><rect codeLine="38" fill="#F1F1F1" height="66.6211" id="ListManagerCoursesController" rx="2.5" ry="2.5" style="stroke:#181818;stroke-width:0.5;" width="244" x="277" y="128.1348"/><ellipse cx="300.55" cy="144.1348" fill="#ADD1B2" rx="11" ry="11" style="stroke:#181818;stroke-width:1.0;"/><path d="M303.3156,140.0098 Q303.4719,139.791 303.6594,139.6816 Q303.8469,139.5723 304.0656,139.5723 Q304.4406,139.5723 304.675,139.8379 Q304.9094,140.0879 304.9094,140.6973 L304.9094,142.1504 Q304.9094,142.7598 304.675,143.0254 Q304.4406,143.291 304.0656,143.291 Q303.7219,143.291 303.5188,143.0879 Q303.3156,142.9004 303.2063,142.3848 Q303.1594,142.0254 302.9719,141.8379 Q302.6438,141.4629 302.0344,141.2441 Q301.425,141.0254 300.8,141.0254 Q300.0344,141.0254 299.3938,141.3535 Q298.7688,141.6816 298.2688,142.4316 Q297.7844,143.1816 297.7844,144.2129 L297.7844,145.3066 Q297.7844,146.541 298.675,147.3691 Q299.5656,148.1816 301.1594,148.1816 Q302.0969,148.1816 302.7531,147.9316 Q303.1438,147.7754 303.5656,147.3379 Q303.8313,147.0723 303.9719,146.9941 Q304.1281,146.916 304.3313,146.916 Q304.6594,146.916 304.9094,147.1816 Q305.175,147.4316 305.175,147.7754 Q305.175,148.1191 304.8313,148.5254 Q304.3313,149.1035 303.5344,149.4316 Q302.4563,149.8848 301.1594,149.8848 Q299.6438,149.8848 298.4406,149.2598 Q297.4563,148.7598 296.7688,147.6973 Q296.0813,146.6191 296.0813,145.3379 L296.0813,144.1816 Q296.0813,142.8535 296.6906,141.7129 Q297.3156,140.5566 298.4094,139.9473 Q299.5031,139.3223 300.7375,139.3223 Q301.4719,139.3223 302.1125,139.4941 Q302.7688,139.6504 303.3156,140.0098 Z " fill="#000000"/><text fill="#000000" font-family="sans-serif" font-size="14" lengthAdjust="spacing" textLength="193" x="316.45" y="149.9316">ListManagerCoursesController</text><line style="stroke:#181818;stroke-width:0.5;" x1="278" x2="520" y1="160.1348" y2="160.1348"/><line style="stroke:#181818;stroke-width:0.5;" x1="278" x2="520" y1="168.1348" y2="168.1348"/><ellipse cx="288" cy="182.9453" fill="#84BE84" rx="3" ry="3" style="stroke:#038048;stroke-width:1.0;"/><text fill="#000000" font-family="sans-serif" font-size="14" lengthAdjust="spacing" textLength="218" x="297" y="187.2422">findAllCourses(): Iterable&lt;Course&gt;</text></g><!--class ListTeacherCoursesController--><g id="elem_ListTeacherCoursesController"><rect codeLine="42" fill="#F1F1F1" height="66.6211" id="ListTeacherCoursesController" rx="2.5" ry="2.5" style="stroke:#181818;stroke-width:0.5;" width="229" x="284.5" y="230.1348"/><ellipse cx="302.65" cy="246.1348" fill="#ADD1B2" rx="11" ry="11" style="stroke:#181818;stroke-width:1.0;"/><path d="M305.4156,242.0098 Q305.5719,241.791 305.7594,241.6816 Q305.9469,241.5723 306.1656,241.5723 Q306.5406,241.5723 306.775,241.8379 Q307.0094,242.0879 307.0094,242.6973 L307.0094,244.1504 Q307.0094,244.7598 306.775,245.0254 Q306.5406,245.291 306.1656,245.291 Q305.8219,245.291 305.6188,245.0879 Q305.4156,244.9004 305.3063,244.3848 Q305.2594,244.0254 305.0719,243.8379 Q304.7438,243.4629 304.1344,243.2441 Q303.525,243.0254 302.9,243.0254 Q302.1344,243.0254 301.4938,243.3535 Q300.8688,243.6816 300.3688,244.4316 Q299.8844,245.1816 299.8844,246.2129 L299.8844,247.3066 Q299.8844,248.541 300.775,249.3691 Q301.6656,250.1816 303.2594,250.1816 Q304.1969,250.1816 304.8531,249.9316 Q305.2438,249.7754 305.6656,249.3379 Q305.9313,249.0723 306.0719,248.9941 Q306.2281,248.916 306.4313,248.916 Q306.7594,248.916 307.0094,249.1816 Q307.275,249.4316 307.275,249.7754 Q307.275,250.1191 306.9313,250.5254 Q306.4313,251.1035 305.6344,251.4316 Q304.5563,251.8848 303.2594,251.8848 Q301.7438,251.8848 300.5406,251.2598 Q299.5563,250.7598 298.8688,249.6973 Q298.1813,248.6191 298.1813,247.3379 L298.1813,246.1816 Q298.1813,244.8535 298.7906,243.7129 Q299.4156,242.5566 300.5094,241.9473 Q301.6031,241.3223 302.8375,241.3223 Q303.5719,241.3223 304.2125,241.4941 Q304.8688,241.6504 305.4156,242.0098 Z " fill="#000000"/><text fill="#000000" font-family="sans-serif" font-size="14" lengthAdjust="spacing" textLength="190" x="317.35" y="251.9316">ListTeacherCoursesController</text><line style="stroke:#181818;stroke-width:0.5;" x1="285.5" x2="512.5" y1="262.1348" y2="262.1348"/><line style="stroke:#181818;stroke-width:0.5;" x1="285.5" x2="512.5" y1="270.1348" y2="270.1348"/><ellipse cx="295.5" cy="284.9453" fill="#84BE84" rx="3" ry="3" style="stroke:#038048;stroke-width:1.0;"/><text fill="#000000" font-family="sans-serif" font-size="14" lengthAdjust="spacing" textLength="203" x="304.5" y="289.2422">findCourses(): Iterable&lt;Course&gt;</text></g><!--class ListStudentCoursesController--><g id="elem_ListStudentCoursesController"><rect codeLine="46" fill="#F1F1F1" height="66.6211" id="ListStudentCoursesController" rx="2.5" ry="2.5" style="stroke:#181818;stroke-width:0.5;" width="229" x="284.5" y="332.1348"/><ellipse cx="304.45" cy="348.1348" fill="#ADD1B2" rx="11" ry="11" style="stroke:#181818;stroke-width:1.0;"/><path d="M307.2156,344.0098 Q307.3719,343.791 307.5594,343.6816 Q307.7469,343.5723 307.9656,343.5723 Q308.3406,343.5723 308.575,343.8379 Q308.8094,344.0879 308.8094,344.6973 L308.8094,346.1504 Q308.8094,346.7598 308.575,347.0254 Q308.3406,347.291 307.9656,347.291 Q307.6219,347.291 307.4188,347.0879 Q307.2156,346.9004 307.1063,346.3848 Q307.0594,346.0254 306.8719,345.8379 Q306.5438,345.4629 305.9344,345.2441 Q305.325,345.0254 304.7,345.0254 Q303.9344,345.0254 303.2938,345.3535 Q302.6688,345.6816 302.1688,346.4316 Q301.6844,347.1816 301.6844,348.2129 L301.6844,349.3066 Q301.6844,350.541 302.575,351.3691 Q303.4656,352.1816 305.0594,352.1816 Q305.9969,352.1816 306.6531,351.9316 Q307.0438,351.7754 307.4656,351.3379 Q307.7313,351.0723 307.8719,350.9941 Q308.0281,350.916 308.2313,350.916 Q308.5594,350.916 308.8094,351.1816 Q309.075,351.4316 309.075,351.7754 Q309.075,352.1191 308.7313,352.5254 Q308.2313,353.1035 307.4344,353.4316 Q306.3563,353.8848 305.0594,353.8848 Q303.5438,353.8848 302.3406,353.2598 Q301.3563,352.7598 300.6688,351.6973 Q299.9813,350.6191 299.9813,349.3379 L299.9813,348.1816 Q299.9813,346.8535 300.5906,345.7129 Q301.2156,344.5566 302.3094,343.9473 Q303.4031,343.3223 304.6375,343.3223 Q305.3719,343.3223 306.0125,343.4941 Q306.6688,343.6504 307.2156,344.0098 Z " fill="#000000"/><text fill="#000000" font-family="sans-serif" font-size="14" lengthAdjust="spacing" textLength="186" x="319.55" y="353.9316">ListStudentCoursesController</text><line style="stroke:#181818;stroke-width:0.5;" x1="285.5" x2="512.5" y1="364.1348" y2="364.1348"/><line style="stroke:#181818;stroke-width:0.5;" x1="285.5" x2="512.5" y1="372.1348" y2="372.1348"/><ellipse cx="295.5" cy="386.9453" fill="#84BE84" rx="3" ry="3" style="stroke:#038048;stroke-width:1.0;"/><text fill="#000000" font-family="sans-serif" font-size="14" lengthAdjust="spacing" textLength="203" x="304.5" y="391.2422">findCourses(): Iterable&lt;Course&gt;</text></g><!--class IStudentCoursesProvider--><g id="elem_IStudentCoursesProvider"><rect codeLine="50" fill="#F1F1F1" height="122.4844" id="IStudentCoursesProvider" rx="2.5" ry="2.5" style="stroke:#181818;stroke-width:0.5;" width="446" x="581" y="277.6348"/><ellipse cx="720.75" cy="293.6348" fill="#B4A7E5" rx="11" ry="11" style="stroke:#181818;stroke-width:1.0;"/><path d="M721.7031,290.2754 L721.7031,296.9316 L723.4219,296.9316 Q724.0313,296.9316 724.2969,297.166 Q724.5625,297.4004 724.5625,297.791 Q724.5625,298.166 724.2969,298.4004 Q724.0313,298.6348 723.4219,298.6348 L718.2813,298.6348 Q717.6719,298.6348 717.4063,298.4004 Q717.1406,298.166 717.1406,297.7754 Q717.1406,297.4004 717.4063,297.166 Q717.6719,296.9316 718.2813,296.9316 L720,296.9316 L720,290.2754 L718.2813,290.2754 Q717.6719,290.2754 717.4063,290.041 Q717.1406,289.8066 717.1406,289.416 Q717.1406,289.041 717.4063,288.8066 Q717.6719,288.5723 718.2813,288.5723 L723.4219,288.5723 Q724.0313,288.5723 724.2969,288.8066 Q724.5625,289.041 724.5625,289.416 Q724.5625,289.8066 724.2969,290.041 Q724.0313,290.2754 723.4219,290.2754 L721.7031,290.2754 Z " fill="#000000"/><text fill="#000000" font-family="sans-serif" font-size="14" font-style="italic" lengthAdjust="spacing" textLength="158" x="741.25" y="299.4316">IStudentCoursesProvider</text><line style="stroke:#181818;stroke-width:0.5;" x1="582" x2="1026" y1="309.6348" y2="309.6348"/><line style="stroke:#181818;stroke-width:0.5;" x1="582" x2="1026" y1="317.6348" y2="317.6348"/><ellipse cx="592" cy="332.4453" fill="#84BE84" rx="3" ry="3" style="stroke:#038048;stroke-width:1.0;"/><text fill="#000000" font-family="sans-serif" font-size="14" lengthAdjust="spacing" textLength="359" x="601" y="336.7422">provideStudentCourses(eCourseUser): Iterable&lt;Course&gt;</text><ellipse cx="592" cy="351.0664" fill="#84BE84" rx="3" ry="3" style="stroke:#038048;stroke-width:1.0;"/><text fill="#000000" font-family="sans-serif" font-size="14" lengthAdjust="spacing" textLength="280" x="601" y="355.3633">provideCoursesToEnroll(): Iterable&lt;Course&gt;</text><ellipse cx="592" cy="369.6875" fill="#84BE84" rx="3" ry="3" style="stroke:#038048;stroke-width:1.0;"/><text fill="#000000" font-family="sans-serif" font-size="14" lengthAdjust="spacing" textLength="420" x="601" y="373.9844">provideStudentAvailableCourses(eCourseUser) : Iterable&lt;Course&gt;</text><ellipse cx="592" cy="388.3086" fill="#84BE84" rx="3" ry="3" style="stroke:#038048;stroke-width:1.0;"/><text fill="#000000" font-family="sans-serif" font-size="14" lengthAdjust="spacing" textLength="418" x="601" y="392.6055">filterCourses(studentCourses, coursesToEnroll): Iterable&lt;Course&gt;</text></g><!--class ICourseRepository--><g id="elem_ICourseRepository"><rect codeLine="58" fill="#F1F1F1" height="122.4844" id="ICourseRepository" rx="2.5" ry="2.5" style="stroke:#181818;stroke-width:0.5;" width="361" x="1087" y="180.6348"/><ellipse cx="1204.25" cy="196.6348" fill="#B4A7E5" rx="11" ry="11" style="stroke:#181818;stroke-width:1.0;"/><path d="M1205.2031,193.2754 L1205.2031,199.9316 L1206.9219,199.9316 Q1207.5313,199.9316 1207.7969,200.166 Q1208.0625,200.4004 1208.0625,200.791 Q1208.0625,201.166 1207.7969,201.4004 Q1207.5313,201.6348 1206.9219,201.6348 L1201.7813,201.6348 Q1201.1719,201.6348 1200.9063,201.4004 Q1200.6406,201.166 1200.6406,200.7754 Q1200.6406,200.4004 1200.9063,200.166 Q1201.1719,199.9316 1201.7813,199.9316 L1203.5,199.9316 L1203.5,193.2754 L1201.7813,193.2754 Q1201.1719,193.2754 1200.9063,193.041 Q1200.6406,192.8066 1200.6406,192.416 Q1200.6406,192.041 1200.9063,191.8066 Q1201.1719,191.5723 1201.7813,191.5723 L1206.9219,191.5723 Q1207.5313,191.5723 1207.7969,191.8066 Q1208.0625,192.041 1208.0625,192.416 Q1208.0625,192.8066 1207.7969,193.041 Q1207.5313,193.2754 1206.9219,193.2754 L1205.2031,193.2754 Z " fill="#000000"/><text fill="#000000" font-family="sans-serif" font-size="14" font-style="italic" lengthAdjust="spacing" textLength="118" x="1224.75" y="202.4316">ICourseRepository</text><line style="stroke:#181818;stroke-width:0.5;" x1="1088" x2="1447" y1="212.6348" y2="212.6348"/><line style="stroke:#181818;stroke-width:0.5;" x1="1088" x2="1447" y1="220.6348" y2="220.6348"/><ellipse cx="1098" cy="235.4453" fill="#84BE84" rx="3" ry="3" style="stroke:#038048;stroke-width:1.0;"/><text fill="#000000" font-family="sans-serif" font-size="14" lengthAdjust="spacing" textLength="165" x="1107" y="239.7422">findAll(): Iterable&lt;Course&gt;</text><ellipse cx="1098" cy="254.0664" fill="#84BE84" rx="3" ry="3" style="stroke:#038048;stroke-width:1.0;"/><text fill="#000000" font-family="sans-serif" font-size="14" lengthAdjust="spacing" textLength="256" x="1107" y="258.3633">findTeacherCourses() :Iterable&lt;Course&gt;</text><ellipse cx="1098" cy="272.6875" fill="#84BE84" rx="3" ry="3" style="stroke:#038048;stroke-width:1.0;"/><text fill="#000000" font-family="sans-serif" font-size="14" lengthAdjust="spacing" textLength="335" x="1107" y="276.9844">findStudentCourses(eCourseUser) :Iterable&lt;Course&gt;</text><ellipse cx="1098" cy="291.3086" fill="#84BE84" rx="3" ry="3" style="stroke:#038048;stroke-width:1.0;"/><text fill="#000000" font-family="sans-serif" font-size="14" lengthAdjust="spacing" textLength="283" x="1107" y="295.6055">findCoursesByState(state) :Iterable&lt;Course&gt;</text></g><!--link ListManagerCoursesUI to ListManagerCoursesController--><g id="link_ListManagerCoursesUI_ListManagerCoursesController"><path codeLine="66" d="M197.15,174.9048 C220.63,173.3548 246.54,171.6448 271.73,169.9748 " fill="none" id="ListManagerCoursesUI-to-ListManagerCoursesController" style="stroke:#181818;stroke-width:1.0;stroke-dasharray:7.0,7.0;"/><polygon fill="#181818" points="276.75,169.6448,267.5064,166.2453,271.7608,169.9736,268.0325,174.2279,276.75,169.6448" style="stroke:#181818;stroke-width:1.0;"/></g><!--link ListTeacherCoursesUI to ListTeacherCoursesController--><g id="link_ListTeacherCoursesUI_ListTeacherCoursesController"><path codeLine="67" d="M195.59,263.6348 C221.78,263.6348 251.1,263.6348 279.12,263.6348 " fill="none" id="ListTeacherCoursesUI-to-ListTeacherCoursesController" style="stroke:#181818;stroke-width:1.0;stroke-dasharray:7.0,7.0;"/><polygon fill="#181818" points="284.34,263.6348,275.34,259.6348,279.34,263.6348,275.34,267.6348,284.34,263.6348" style="stroke:#181818;stroke-width:1.0;"/></g><!--link ListStudentCoursesUI to ListStudentCoursesController--><g id="link_ListStudentCoursesUI_ListStudentCoursesController"><path codeLine="68" d="M193.66,352.1348 C220.28,353.8848 250.29,355.8748 278.95,357.7648 " fill="none" id="ListStudentCoursesUI-to-ListStudentCoursesController" style="stroke:#181818;stroke-width:1.0;stroke-dasharray:7.0,7.0;"/><polygon fill="#181818" points="284.28,358.1148,275.5625,353.5316,279.2908,357.786,275.0364,361.5143,284.28,358.1148" style="stroke:#181818;stroke-width:1.0;"/></g><!--link ListManagerCoursesController to ICourseRepository--><g id="link_ListManagerCoursesController_ICourseRepository"><path codeLine="70" d="M521.4,172.8448 C667.03,186.2848 912.66,208.9648 1081.85,224.5848 " fill="none" id="ListManagerCoursesController-to-ICourseRepository" style="stroke:#181818;stroke-width:1.0;"/><polygon fill="#181818" points="1086.83,225.0448,1078.2341,220.2375,1081.851,224.5869,1077.5015,228.2039,1086.83,225.0448" style="stroke:#181818;stroke-width:1.0;"/></g><!--link ListTeacherCoursesController to ICourseRepository--><g id="link_ListTeacherCoursesController_ICourseRepository"><path codeLine="71" d="M513.72,260.7448 C658.19,257.0748 909.4,250.7048 1081.58,246.3248 " fill="none" id="ListTeacherCoursesController-to-ICourseRepository" style="stroke:#181818;stroke-width:1.0;"/><polygon fill="#181818" points="1086.65,246.2048,1077.5502,242.4374,1081.6517,246.3333,1077.7558,250.4348,1086.65,246.2048" style="stroke:#181818;stroke-width:1.0;"/></g><!--link ListStudentCoursesController to IStudentCoursesProvider--><g id="link_ListStudentCoursesController_IStudentCoursesProvider"><path codeLine="72" d="M513.6,358.0248 C533.21,356.7148 554.2,355.3048 575.59,353.8748 " fill="none" id="ListStudentCoursesController-to-IStudentCoursesProvider" style="stroke:#181818;stroke-width:1.0;"/><polygon fill="#181818" points="580.74,353.5248,571.4964,350.1253,575.7508,353.8536,572.0225,358.1079,580.74,353.5248" style="stroke:#181818;stroke-width:1.0;"/></g><!--link ListTeacherCoursesController to UserSessionService--><g id="link_ListTeacherCoursesController_UserSessionService"><path codeLine="73" d="M496.28,297.2148 C505.12,302.3148 513.54,308.1048 521,314.6348 C560.58,349.2748 538.11,386.1948 581,416.6348 C754.65,539.8748 844.93,455.9848 1051,509.6348 C1089.16,519.5748 1130.48,532.4648 1166.64,544.4648 " fill="none" id="ListTeacherCoursesController-to-UserSessionService" style="stroke:#181818;stroke-width:1.0;"/><polygon fill="#181818" points="1171.47,546.0748,1164.1848,539.4471,1166.7237,544.5022,1161.6687,547.0412,1171.47,546.0748" style="stroke:#181818;stroke-width:1.0;"/></g><!--link ListStudentCoursesController to UserSessionService--><g id="link_ListStudentCoursesController_UserSessionService"><path codeLine="74" d="M436.38,399.3148 C470.86,429.1448 525.51,471.1748 581,492.6348 C769.9,565.6948 1007.79,580.2248 1147.89,581.6548 " fill="none" id="ListStudentCoursesController-to-UserSessionService" style="stroke:#181818;stroke-width:1.0;"/><polygon fill="#181818" points="1153.25,581.7048,1144.2846,577.6278,1148.2502,581.6619,1144.216,585.6275,1153.25,581.7048" style="stroke:#181818;stroke-width:1.0;"/></g><!--link UserSessionService to IUserRepository--><g id="link_UserSessionService_IUserRepository"><path codeLine="76" d="M1267.5,613.3748 C1267.5,637.3348 1267.5,661.3048 1267.5,685.2648 " fill="none" id="UserSessionService-to-IUserRepository" style="stroke:#181818;stroke-width:1.0;"/><polygon fill="#181818" points="1267.5,690.3748,1271.5,681.3748,1267.5,685.3748,1263.5,681.3748,1267.5,690.3748" style="stroke:#181818;stroke-width:1.0;"/></g><!--link IStudentCoursesProvider to ICourseRepository--><g id="link_IStudentCoursesProvider_ICourseRepository"><path codeLine="78" d="M1027.3,291.9148 C1045.54,288.0748 1063.85,284.2248 1081.78,280.4648 " fill="none" id="IStudentCoursesProvider-to-ICourseRepository" style="stroke:#181818;stroke-width:1.0;"/><polygon fill="#181818" points="1086.82,279.3948,1077.1902,277.329,1081.9266,280.4219,1078.8337,285.1584,1086.82,279.3948" style="stroke:#181818;stroke-width:1.0;"/></g><!--SRC=[bLHDJ-Cm4BtFhvXZKBS8Bdj0gqfiuL29bLQ4_W2JJ58Bruvijok4-j-n4xTDY9qkELYAvxtvU3CUyyPbmpJRejcmKltZiiQA2KCWgB9e5MfURooMN5DXkP80bbj1kCvlRsv-uXoVkB6UTRzdNB1NPrggdJPaS2cOCVZ0MUty0pIiU6CruOxZ1q3H6Ztv3vFkMWVMUkMiXxxzXLYncR3dTbUIj4ExGq0lf26zRSDi7T81q7r7ewP66MwLVWy6_t5fILUi85oj7VavXZd0-JmwOqqZUC6yKcTWbwltavCnpfIJtlE2peXPJVP9rJML7fLTuHrILv3_7qKyd4ihMjIWE8WaCoNvKachbH2a7MfMSLdU2n5isTKThfmKlh6_khl5L7l6llxRqR2FttRKwzZGqr-jzhmatQazQxhV8IRhgHtptsS6oejwb3x1x18-H3gzZrX8JFcekB0dSJCpIFf7QFufbRWo1nXFUgT5Jx8E_lm5S1o6T8qUC9m0Fxnfx8JiKxI0__sUMsR9wU3E5A5z7j75ShsOd7w8Rfj0IeqvH5VGTM2bPZgMO6_YvujnHs3oiSsJbEIpQYdnft8fbcEEjzcbQ74IZE_QyeTR5o2HQQ9m-0G0]--></g></svg>