<?xml version="1.0" encoding="us-ascii" standalone="no"?><svg xmlns="http://www.w3.org/2000/svg" xmlns:xlink="http://www.w3.org/1999/xlink" contentStyleType="text/css" height="742px" preserveAspectRatio="none" style="width:2074px;height:742px;background:#FFFFFF;" version="1.1" viewBox="0 0 2074 742" width="2074px" zoomAndPan="magnify"><defs/><g><text fill="#000000" font-family="sans-serif" font-size="14" font-weight="bold" lengthAdjust="spacing" textLength="268" x="896" y="25.1074">US4004 - List Participants of a Meeting</text><!--cluster UI--><g id="cluster_UI"><path d="M8.5,341.6348 L23.5,341.6348 A3.75,3.75 0 0 1 26,344.1348 L33,366.2559 L225.5,366.2559 A2.5,2.5 0 0 1 228,368.7559 L228,440.1348 A2.5,2.5 0 0 1 225.5,442.6348 L8.5,442.6348 A2.5,2.5 0 0 1 6,440.1348 L6,344.1348 A2.5,2.5 0 0 1 8.5,341.6348 " fill="none" style="stroke:#000000;stroke-width:1.5;"/><line style="stroke:#000000;stroke-width:1.5;" x1="6" x2="33" y1="366.2559" y2="366.2559"/><text fill="#000000" font-family="sans-serif" font-size="14" font-weight="bold" lengthAdjust="spacing" textLength="14" x="10" y="358.7422">UI</text></g><!--cluster meetingmanagement--><g id="cluster_meetingmanagement"><path d="M254.5,259.6348 L402.5,259.6348 A3.75,3.75 0 0 1 405,262.1348 L412,284.2559 L2014.5,284.2559 A2.5,2.5 0 0 1 2017,286.7559 L2017,501.1348 A2.5,2.5 0 0 1 2014.5,503.6348 L254.5,503.6348 A2.5,2.5 0 0 1 252,501.1348 L252,262.1348 A2.5,2.5 0 0 1 254.5,259.6348 " fill="none" style="stroke:#000000;stroke-width:1.5;"/><line style="stroke:#000000;stroke-width:1.5;" x1="252" x2="412" y1="284.2559" y2="284.2559"/><text fill="#000000" font-family="sans-serif" font-size="14" font-weight="bold" lengthAdjust="spacing" textLength="147" x="256" y="276.7422">meetingmanagement</text></g><!--cluster Application--><g id="cluster_Application"><path d="M278.5,304.6348 L357.5,304.6348 A3.75,3.75 0 0 1 360,307.1348 L367,329.2559 L1451,329.2559 A2.5,2.5 0 0 1 1453.5,331.7559 L1453.5,477.1348 A2.5,2.5 0 0 1 1451,479.6348 L278.5,479.6348 A2.5,2.5 0 0 1 276,477.1348 L276,307.1348 A2.5,2.5 0 0 1 278.5,304.6348 " fill="none" style="stroke:#000000;stroke-width:1.5;"/><line style="stroke:#000000;stroke-width:1.5;" x1="276" x2="367" y1="329.2559" y2="329.2559"/><text fill="#000000" font-family="sans-serif" font-size="14" font-weight="bold" lengthAdjust="spacing" textLength="78" x="280" y="321.7422">Application</text></g><!--cluster repository--><g id="cluster_repository"><path d="M1584.5,340.6348 L1657.5,340.6348 A3.75,3.75 0 0 1 1660,343.1348 L1667,365.2559 L1990.5,365.2559 A2.5,2.5 0 0 1 1993,367.7559 L1993,459.1348 A2.5,2.5 0 0 1 1990.5,461.6348 L1584.5,461.6348 A2.5,2.5 0 0 1 1582,459.1348 L1582,343.1348 A2.5,2.5 0 0 1 1584.5,340.6348 " fill="none" style="stroke:#000000;stroke-width:1.5;"/><line style="stroke:#000000;stroke-width:1.5;" x1="1582" x2="1667" y1="365.2559" y2="365.2559"/><text fill="#000000" font-family="sans-serif" font-size="14" font-weight="bold" lengthAdjust="spacing" textLength="72" x="1586" y="357.7422">repository</text></g><!--cluster meetinginvitationmanagement--><g id="cluster_meetinginvitationmanagement"><path d="M961.5,527.6348 L1175.5,527.6348 A3.75,3.75 0 0 1 1178,530.1348 L1185,552.2559 L2064.5,552.2559 A2.5,2.5 0 0 1 2067,554.7559 L2067,733.1348 A2.5,2.5 0 0 1 2064.5,735.6348 L961.5,735.6348 A2.5,2.5 0 0 1 959,733.1348 L959,530.1348 A2.5,2.5 0 0 1 961.5,527.6348 " fill="none" style="stroke:#000000;stroke-width:1.5;"/><line style="stroke:#000000;stroke-width:1.5;" x1="959" x2="1185" y1="552.2559" y2="552.2559"/><text fill="#000000" font-family="sans-serif" font-size="14" font-weight="bold" lengthAdjust="spacing" textLength="213" x="963" y="544.7422">meetinginvitationmanagement</text></g><!--cluster application--><g id="cluster_application"><path d="M985.5,577.6348 L1063.5,577.6348 A3.75,3.75 0 0 1 1066,580.1348 L1073,602.2559 L1501.5,602.2559 A2.5,2.5 0 0 1 1504,604.7559 L1504,696.1348 A2.5,2.5 0 0 1 1501.5,698.6348 L985.5,698.6348 A2.5,2.5 0 0 1 983,696.1348 L983,580.1348 A2.5,2.5 0 0 1 985.5,577.6348 " fill="none" style="stroke:#000000;stroke-width:1.5;"/><line style="stroke:#000000;stroke-width:1.5;" x1="983" x2="1073" y1="602.2559" y2="602.2559"/><text fill="#000000" font-family="sans-serif" font-size="14" font-weight="bold" lengthAdjust="spacing" textLength="77" x="987" y="594.7422">application</text></g><!--cluster repository--><g id="cluster_repository"><path d="M1534.5,572.6348 L1607.5,572.6348 A3.75,3.75 0 0 1 1610,575.1348 L1617,597.2559 L2040.5,597.2559 A2.5,2.5 0 0 1 2043,599.7559 L2043,709.1348 A2.5,2.5 0 0 1 2040.5,711.6348 L1534.5,711.6348 A2.5,2.5 0 0 1 1532,709.1348 L1532,575.1348 A2.5,2.5 0 0 1 1534.5,572.6348 " fill="none" style="stroke:#000000;stroke-width:1.5;"/><line style="stroke:#000000;stroke-width:1.5;" x1="1532" x2="1617" y1="597.2559" y2="597.2559"/><text fill="#000000" font-family="sans-serif" font-size="14" font-weight="bold" lengthAdjust="spacing" textLength="72" x="1536" y="589.7422">repository</text></g><!--cluster ecourseusermanagement--><g id="cluster_ecourseusermanagement"><path d="M466,45.6348 L647,45.6348 A3.75,3.75 0 0 1 649.5,48.1348 L656.5,70.2559 L765,70.2559 A2.5,2.5 0 0 1 767.5,72.7559 L767.5,233.1348 A2.5,2.5 0 0 1 765,235.6348 L466,235.6348 A2.5,2.5 0 0 1 463.5,233.1348 L463.5,48.1348 A2.5,2.5 0 0 1 466,45.6348 " fill="none" style="stroke:#000000;stroke-width:1.5;"/><line style="stroke:#000000;stroke-width:1.5;" x1="463.5" x2="656.5" y1="70.2559" y2="70.2559"/><text fill="#000000" font-family="sans-serif" font-size="14" font-weight="bold" lengthAdjust="spacing" textLength="180" x="467.5" y="62.7422">ecourseusermanagement</text></g><!--cluster application--><g id="cluster_application"><path d="M490,90.6348 L568,90.6348 A3.75,3.75 0 0 1 570.5,93.1348 L577.5,115.2559 L741,115.2559 A2.5,2.5 0 0 1 743.5,117.7559 L743.5,209.1348 A2.5,2.5 0 0 1 741,211.6348 L490,211.6348 A2.5,2.5 0 0 1 487.5,209.1348 L487.5,93.1348 A2.5,2.5 0 0 1 490,90.6348 " fill="none" style="stroke:#000000;stroke-width:1.5;"/><line style="stroke:#000000;stroke-width:1.5;" x1="487.5" x2="577.5" y1="115.2559" y2="115.2559"/><text fill="#000000" font-family="sans-serif" font-size="14" font-weight="bold" lengthAdjust="spacing" textLength="77" x="491.5" y="107.7422">application</text></g><!--class ListMeetingParticipantsUI--><g id="elem_ListMeetingParticipantsUI"><rect codeLine="9" fill="#F1F1F1" height="48" id="ListMeetingParticipantsUI" rx="2.5" ry="2.5" style="stroke:#181818;stroke-width:0.5;" width="190" x="22" y="378.6348"/><ellipse cx="37" cy="394.6348" fill="#ADD1B2" rx="11" ry="11" style="stroke:#181818;stroke-width:1.0;"/><path d="M39.7656,390.5098 Q39.9219,390.291 40.1094,390.1816 Q40.2969,390.0723 40.5156,390.0723 Q40.8906,390.0723 41.125,390.3379 Q41.3594,390.5879 41.3594,391.1973 L41.3594,392.6504 Q41.3594,393.2598 41.125,393.5254 Q40.8906,393.791 40.5156,393.791 Q40.1719,393.791 39.9688,393.5879 Q39.7656,393.4004 39.6563,392.8848 Q39.6094,392.5254 39.4219,392.3379 Q39.0938,391.9629 38.4844,391.7441 Q37.875,391.5254 37.25,391.5254 Q36.4844,391.5254 35.8438,391.8535 Q35.2188,392.1816 34.7188,392.9316 Q34.2344,393.6816 34.2344,394.7129 L34.2344,395.8066 Q34.2344,397.041 35.125,397.8691 Q36.0156,398.6816 37.6094,398.6816 Q38.5469,398.6816 39.2031,398.4316 Q39.5938,398.2754 40.0156,397.8379 Q40.2813,397.5723 40.4219,397.4941 Q40.5781,397.416 40.7813,397.416 Q41.1094,397.416 41.3594,397.6816 Q41.625,397.9316 41.625,398.2754 Q41.625,398.6191 41.2813,399.0254 Q40.7813,399.6035 39.9844,399.9316 Q38.9063,400.3848 37.6094,400.3848 Q36.0938,400.3848 34.8906,399.7598 Q33.9063,399.2598 33.2188,398.1973 Q32.5313,397.1191 32.5313,395.8379 L32.5313,394.6816 Q32.5313,393.3535 33.1406,392.2129 Q33.7656,391.0566 34.8594,390.4473 Q35.9531,389.8223 37.1875,389.8223 Q37.9219,389.8223 38.5625,389.9941 Q39.2188,390.1504 39.7656,390.5098 Z " fill="#000000"/><text fill="#000000" font-family="sans-serif" font-size="14" lengthAdjust="spacing" textLength="158" x="51" y="400.4316">ListMeetingParticipantsUI</text><line style="stroke:#181818;stroke-width:0.5;" x1="23" x2="211" y1="410.6348" y2="410.6348"/><line style="stroke:#181818;stroke-width:0.5;" x1="23" x2="211" y1="418.6348" y2="418.6348"/></g><!--class ListMeetingParticipantsController--><g id="elem_ListMeetingParticipantsController"><rect codeLine="16" fill="#F1F1F1" height="122.4844" id="ListMeetingParticipantsController" rx="2.5" ry="2.5" style="stroke:#181818;stroke-width:0.5;" width="647" x="292" y="341.6348"/><ellipse cx="507.25" cy="357.6348" fill="#ADD1B2" rx="11" ry="11" style="stroke:#181818;stroke-width:1.0;"/><path d="M510.0156,353.5098 Q510.1719,353.291 510.3594,353.1816 Q510.5469,353.0723 510.7656,353.0723 Q511.1406,353.0723 511.375,353.3379 Q511.6094,353.5879 511.6094,354.1973 L511.6094,355.6504 Q511.6094,356.2598 511.375,356.5254 Q511.1406,356.791 510.7656,356.791 Q510.4219,356.791 510.2188,356.5879 Q510.0156,356.4004 509.9063,355.8848 Q509.8594,355.5254 509.6719,355.3379 Q509.3438,354.9629 508.7344,354.7441 Q508.125,354.5254 507.5,354.5254 Q506.7344,354.5254 506.0938,354.8535 Q505.4688,355.1816 504.9688,355.9316 Q504.4844,356.6816 504.4844,357.7129 L504.4844,358.8066 Q504.4844,360.041 505.375,360.8691 Q506.2656,361.6816 507.8594,361.6816 Q508.7969,361.6816 509.4531,361.4316 Q509.8438,361.2754 510.2656,360.8379 Q510.5313,360.5723 510.6719,360.4941 Q510.8281,360.416 511.0313,360.416 Q511.3594,360.416 511.6094,360.6816 Q511.875,360.9316 511.875,361.2754 Q511.875,361.6191 511.5313,362.0254 Q511.0313,362.6035 510.2344,362.9316 Q509.1563,363.3848 507.8594,363.3848 Q506.3438,363.3848 505.1406,362.7598 Q504.1563,362.2598 503.4688,361.1973 Q502.7813,360.1191 502.7813,358.8379 L502.7813,357.6816 Q502.7813,356.3535 503.3906,355.2129 Q504.0156,354.0566 505.1094,353.4473 Q506.2031,352.8223 507.4375,352.8223 Q508.1719,352.8223 508.8125,352.9941 Q509.4688,353.1504 510.0156,353.5098 Z " fill="#000000"/><text fill="#000000" font-family="sans-serif" font-size="14" lengthAdjust="spacing" textLength="208" x="527.75" y="363.4316">ListMeetingParticipantsController</text><line style="stroke:#181818;stroke-width:0.5;" x1="293" x2="938" y1="373.6348" y2="373.6348"/><line style="stroke:#181818;stroke-width:0.5;" x1="293" x2="938" y1="381.6348" y2="381.6348"/><ellipse cx="303" cy="396.4453" fill="#84BE84" rx="3" ry="3" style="stroke:#038048;stroke-width:1.0;"/><text fill="#000000" font-family="sans-serif" font-size="14" lengthAdjust="spacing" textLength="621" x="312" y="400.7422">ListMeetingParticipantsController(userSessionService, meetingProvider, meetingInvitationProvider)</text><rect fill="#F24D5C" height="6" style="stroke:#C82930;stroke-width:1.0;" width="6" x="300" y="412.0664"/><text fill="#000000" font-family="sans-serif" font-size="14" lengthAdjust="spacing" textLength="107" x="312" y="419.3633">verifyUser(): void</text><ellipse cx="303" cy="433.6875" fill="#84BE84" rx="3" ry="3" style="stroke:#038048;stroke-width:1.0;"/><text fill="#000000" font-family="sans-serif" font-size="14" lengthAdjust="spacing" textLength="214" x="312" y="437.9844">meetingsForUser(): List&lt;Meeting&gt;</text><ellipse cx="303" cy="452.3086" fill="#84BE84" rx="3" ry="3" style="stroke:#038048;stroke-width:1.0;"/><text fill="#000000" font-family="sans-serif" font-size="14" lengthAdjust="spacing" textLength="287" x="312" y="456.6055">findMeetingParticipants(): List&lt;ECourseUser&gt;</text></g><!--class MeetingProvider--><g id="elem_MeetingProvider"><rect codeLine="23" fill="#F1F1F1" height="85.2422" id="MeetingProvider" rx="2.5" ry="2.5" style="stroke:#181818;stroke-width:0.5;" width="388" x="1049.5" y="369.1348"/><ellipse cx="1187.75" cy="385.1348" fill="#B4A7E5" rx="11" ry="11" style="stroke:#181818;stroke-width:1.0;"/><path d="M1188.7031,381.7754 L1188.7031,388.4316 L1190.4219,388.4316 Q1191.0313,388.4316 1191.2969,388.666 Q1191.5625,388.9004 1191.5625,389.291 Q1191.5625,389.666 1191.2969,389.9004 Q1191.0313,390.1348 1190.4219,390.1348 L1185.2813,390.1348 Q1184.6719,390.1348 1184.4063,389.9004 Q1184.1406,389.666 1184.1406,389.2754 Q1184.1406,388.9004 1184.4063,388.666 Q1184.6719,388.4316 1185.2813,388.4316 L1187,388.4316 L1187,381.7754 L1185.2813,381.7754 Q1184.6719,381.7754 1184.4063,381.541 Q1184.1406,381.3066 1184.1406,380.916 Q1184.1406,380.541 1184.4063,380.3066 Q1184.6719,380.0723 1185.2813,380.0723 L1190.4219,380.0723 Q1191.0313,380.0723 1191.2969,380.3066 Q1191.5625,380.541 1191.5625,380.916 Q1191.5625,381.3066 1191.2969,381.541 Q1191.0313,381.7754 1190.4219,381.7754 L1188.7031,381.7754 Z " fill="#000000"/><text fill="#000000" font-family="sans-serif" font-size="14" font-style="italic" lengthAdjust="spacing" textLength="103" x="1208.25" y="390.9316">MeetingProvider</text><line style="stroke:#181818;stroke-width:0.5;" x1="1050.5" x2="1436.5" y1="401.1348" y2="401.1348"/><line style="stroke:#181818;stroke-width:0.5;" x1="1050.5" x2="1436.5" y1="409.1348" y2="409.1348"/><ellipse cx="1060.5" cy="423.9453" fill="#84BE84" rx="3" ry="3" style="stroke:#038048;stroke-width:1.0;"/><text fill="#000000" font-family="sans-serif" font-size="14" lengthAdjust="spacing" textLength="362" x="1069.5" y="428.2422">provideScheduledMeetingsByOwner(user): List&lt;Meeting&gt;</text><ellipse cx="1060.5" cy="442.5664" fill="#84BE84" rx="3" ry="3" style="stroke:#038048;stroke-width:1.0;"/><text fill="#000000" font-family="sans-serif" font-size="14" lengthAdjust="spacing" textLength="324" x="1069.5" y="446.8633">provideMeetingsByInvitedUser(user): List&lt;Meeting&gt;</text></g><!--class IMeetingRepository--><g id="elem_IMeetingRepository"><rect codeLine="30" fill="#F1F1F1" height="66.6211" id="IMeetingRepository" rx="2.5" ry="2.5" style="stroke:#181818;stroke-width:0.5;" width="379" x="1598" y="378.1348"/><ellipse cx="1721.75" cy="394.1348" fill="#B4A7E5" rx="11" ry="11" style="stroke:#181818;stroke-width:1.0;"/><path d="M1722.7031,390.7754 L1722.7031,397.4316 L1724.4219,397.4316 Q1725.0313,397.4316 1725.2969,397.666 Q1725.5625,397.9004 1725.5625,398.291 Q1725.5625,398.666 1725.2969,398.9004 Q1725.0313,399.1348 1724.4219,399.1348 L1719.2813,399.1348 Q1718.6719,399.1348 1718.4063,398.9004 Q1718.1406,398.666 1718.1406,398.2754 Q1718.1406,397.9004 1718.4063,397.666 Q1718.6719,397.4316 1719.2813,397.4316 L1721,397.4316 L1721,390.7754 L1719.2813,390.7754 Q1718.6719,390.7754 1718.4063,390.541 Q1718.1406,390.3066 1718.1406,389.916 Q1718.1406,389.541 1718.4063,389.3066 Q1718.6719,389.0723 1719.2813,389.0723 L1724.4219,389.0723 Q1725.0313,389.0723 1725.2969,389.3066 Q1725.5625,389.541 1725.5625,389.916 Q1725.5625,390.3066 1725.2969,390.541 Q1725.0313,390.7754 1724.4219,390.7754 L1722.7031,390.7754 Z " fill="#000000"/><text fill="#000000" font-family="sans-serif" font-size="14" font-style="italic" lengthAdjust="spacing" textLength="123" x="1742.25" y="399.9316">IMeetingRepository</text><line style="stroke:#181818;stroke-width:0.5;" x1="1599" x2="1976" y1="410.1348" y2="410.1348"/><line style="stroke:#181818;stroke-width:0.5;" x1="1599" x2="1976" y1="418.1348" y2="418.1348"/><ellipse cx="1609" cy="432.9453" fill="#84BE84" rx="3" ry="3" style="stroke:#038048;stroke-width:1.0;"/><text fill="#000000" font-family="sans-serif" font-size="14" lengthAdjust="spacing" textLength="353" x="1618" y="437.2422">findMeetingsByOwner(userToCheck): Iterable&lt;Meeting&gt;</text></g><!--class IMeetingInvitationProvider--><g id="elem_IMeetingInvitationProvider"><rect codeLine="38" fill="#F1F1F1" height="66.6211" id="IMeetingInvitationProvider" rx="2.5" ry="2.5" style="stroke:#181818;stroke-width:0.5;" width="489" x="999" y="615.1348"/><ellipse cx="1157.75" cy="631.1348" fill="#B4A7E5" rx="11" ry="11" style="stroke:#181818;stroke-width:1.0;"/><path d="M1158.7031,627.7754 L1158.7031,634.4316 L1160.4219,634.4316 Q1161.0313,634.4316 1161.2969,634.666 Q1161.5625,634.9004 1161.5625,635.291 Q1161.5625,635.666 1161.2969,635.9004 Q1161.0313,636.1348 1160.4219,636.1348 L1155.2813,636.1348 Q1154.6719,636.1348 1154.4063,635.9004 Q1154.1406,635.666 1154.1406,635.2754 Q1154.1406,634.9004 1154.4063,634.666 Q1154.6719,634.4316 1155.2813,634.4316 L1157,634.4316 L1157,627.7754 L1155.2813,627.7754 Q1154.6719,627.7754 1154.4063,627.541 Q1154.1406,627.3066 1154.1406,626.916 Q1154.1406,626.541 1154.4063,626.3066 Q1154.6719,626.0723 1155.2813,626.0723 L1160.4219,626.0723 Q1161.0313,626.0723 1161.2969,626.3066 Q1161.5625,626.541 1161.5625,626.916 Q1161.5625,627.3066 1161.2969,627.541 Q1161.0313,627.7754 1160.4219,627.7754 L1158.7031,627.7754 Z " fill="#000000"/><text fill="#000000" font-family="sans-serif" font-size="14" font-style="italic" lengthAdjust="spacing" textLength="163" x="1178.25" y="636.9316">IMeetingInvitationProvider</text><line style="stroke:#181818;stroke-width:0.5;" x1="1000" x2="1487" y1="647.1348" y2="647.1348"/><line style="stroke:#181818;stroke-width:0.5;" x1="1000" x2="1487" y1="655.1348" y2="655.1348"/><ellipse cx="1010" cy="669.9453" fill="#84BE84" rx="3" ry="3" style="stroke:#038048;stroke-width:1.0;"/><text fill="#000000" font-family="sans-serif" font-size="14" lengthAdjust="spacing" textLength="463" x="1019" y="674.2422">provideMeetingInvitationsByMeeting(meeting): Iterable&lt;MeetingInvitation&gt;</text></g><!--class IMeetingInvitationRepository--><g id="elem_IMeetingInvitationRepository"><rect codeLine="44" fill="#F1F1F1" height="85.2422" id="IMeetingInvitationRepository" rx="2.5" ry="2.5" style="stroke:#181818;stroke-width:0.5;" width="479" x="1548" y="610.1348"/><ellipse cx="1693.75" cy="626.1348" fill="#B4A7E5" rx="11" ry="11" style="stroke:#181818;stroke-width:1.0;"/><path d="M1694.7031,622.7754 L1694.7031,629.4316 L1696.4219,629.4316 Q1697.0313,629.4316 1697.2969,629.666 Q1697.5625,629.9004 1697.5625,630.291 Q1697.5625,630.666 1697.2969,630.9004 Q1697.0313,631.1348 1696.4219,631.1348 L1691.2813,631.1348 Q1690.6719,631.1348 1690.4063,630.9004 Q1690.1406,630.666 1690.1406,630.2754 Q1690.1406,629.9004 1690.4063,629.666 Q1690.6719,629.4316 1691.2813,629.4316 L1693,629.4316 L1693,622.7754 L1691.2813,622.7754 Q1690.6719,622.7754 1690.4063,622.541 Q1690.1406,622.3066 1690.1406,621.916 Q1690.1406,621.541 1690.4063,621.3066 Q1690.6719,621.0723 1691.2813,621.0723 L1696.4219,621.0723 Q1697.0313,621.0723 1697.2969,621.3066 Q1697.5625,621.541 1697.5625,621.916 Q1697.5625,622.3066 1697.2969,622.541 Q1697.0313,622.7754 1696.4219,622.7754 L1694.7031,622.7754 Z " fill="#000000"/><text fill="#000000" font-family="sans-serif" font-size="14" font-style="italic" lengthAdjust="spacing" textLength="179" x="1714.25" y="631.9316">IMeetingInvitationRepository</text><line style="stroke:#181818;stroke-width:0.5;" x1="1549" x2="2026" y1="642.1348" y2="642.1348"/><line style="stroke:#181818;stroke-width:0.5;" x1="1549" x2="2026" y1="650.1348" y2="650.1348"/><ellipse cx="1559" cy="664.9453" fill="#84BE84" rx="3" ry="3" style="stroke:#038048;stroke-width:1.0;"/><text fill="#000000" font-family="sans-serif" font-size="14" lengthAdjust="spacing" textLength="439" x="1568" y="669.2422">findMeetingInvitationsByMeeting(meeting): Iterable&lt;MeetingInvitation&gt;</text><ellipse cx="1559" cy="683.5664" fill="#84BE84" rx="3" ry="3" style="stroke:#038048;stroke-width:1.0;"/><text fill="#000000" font-family="sans-serif" font-size="14" lengthAdjust="spacing" textLength="453" x="1568" y="687.8633">findAllMeetingsByInvitedUser(userToCheck): Iterable&lt;MeetingInvitation&gt;</text></g><!--class UserSessionService--><g id="elem_UserSessionService"><rect codeLine="55" fill="#F1F1F1" height="66.6211" id="UserSessionService" rx="2.5" ry="2.5" style="stroke:#181818;stroke-width:0.5;" width="224" x="503.5" y="128.1348"/><ellipse cx="548.25" cy="144.1348" fill="#ADD1B2" rx="11" ry="11" style="stroke:#181818;stroke-width:1.0;"/><path d="M551.0156,140.0098 Q551.1719,139.791 551.3594,139.6816 Q551.5469,139.5723 551.7656,139.5723 Q552.1406,139.5723 552.375,139.8379 Q552.6094,140.0879 552.6094,140.6973 L552.6094,142.1504 Q552.6094,142.7598 552.375,143.0254 Q552.1406,143.291 551.7656,143.291 Q551.4219,143.291 551.2188,143.0879 Q551.0156,142.9004 550.9063,142.3848 Q550.8594,142.0254 550.6719,141.8379 Q550.3438,141.4629 549.7344,141.2441 Q549.125,141.0254 548.5,141.0254 Q547.7344,141.0254 547.0938,141.3535 Q546.4688,141.6816 545.9688,142.4316 Q545.4844,143.1816 545.4844,144.2129 L545.4844,145.3066 Q545.4844,146.541 546.375,147.3691 Q547.2656,148.1816 548.8594,148.1816 Q549.7969,148.1816 550.4531,147.9316 Q550.8438,147.7754 551.2656,147.3379 Q551.5313,147.0723 551.6719,146.9941 Q551.8281,146.916 552.0313,146.916 Q552.3594,146.916 552.6094,147.1816 Q552.875,147.4316 552.875,147.7754 Q552.875,148.1191 552.5313,148.5254 Q552.0313,149.1035 551.2344,149.4316 Q550.1563,149.8848 548.8594,149.8848 Q547.3438,149.8848 546.1406,149.2598 Q545.1563,148.7598 544.4688,147.6973 Q543.7813,146.6191 543.7813,145.3379 L543.7813,144.1816 Q543.7813,142.8535 544.3906,141.7129 Q545.0156,140.5566 546.1094,139.9473 Q547.2031,139.3223 548.4375,139.3223 Q549.1719,139.3223 549.8125,139.4941 Q550.4688,139.6504 551.0156,140.0098 Z " fill="#000000"/><text fill="#000000" font-family="sans-serif" font-size="14" lengthAdjust="spacing" textLength="126" x="568.75" y="149.9316">UserSessionService</text><line style="stroke:#181818;stroke-width:0.5;" x1="504.5" x2="726.5" y1="160.1348" y2="160.1348"/><line style="stroke:#181818;stroke-width:0.5;" x1="504.5" x2="726.5" y1="168.1348" y2="168.1348"/><ellipse cx="514.5" cy="182.9453" fill="#84BE84" rx="3" ry="3" style="stroke:#038048;stroke-width:1.0;"/><text fill="#000000" font-family="sans-serif" font-size="14" lengthAdjust="spacing" textLength="198" x="523.5" y="187.2422">getLoggedUser(): eCourseUser</text></g><!--link ListMeetingParticipantsUI to ListMeetingParticipantsController--><g id="link_ListMeetingParticipantsUI_ListMeetingParticipantsController"><path codeLine="62" d="M212.26,402.6348 C234.84,402.6348 260.21,402.6348 286.96,402.6348 " fill="none" id="ListMeetingParticipantsUI-to-ListMeetingParticipantsController" style="stroke:#181818;stroke-width:1.0;stroke-dasharray:7.0,7.0;"/><polygon fill="#181818" points="291.97,402.6348,282.97,398.6348,286.97,402.6348,282.97,406.6348,291.97,402.6348" style="stroke:#181818;stroke-width:1.0;"/></g><!--link ListMeetingParticipantsController to MeetingProvider--><g id="link_ListMeetingParticipantsController_MeetingProvider"><path codeLine="63" d="M939.13,407.2748 C974.92,407.7848 1010.55,408.3048 1044.13,408.7848 " fill="none" id="ListMeetingParticipantsController-to-MeetingProvider" style="stroke:#181818;stroke-width:1.0;"/><polygon fill="#181818" points="1049.5,408.8648,1040.5699,404.7111,1044.5007,408.7791,1040.4328,412.7099,1049.5,408.8648" style="stroke:#181818;stroke-width:1.0;"/></g><!--link ListMeetingParticipantsController to IMeetingInvitationProvider--><g id="link_ListMeetingParticipantsController_IMeetingInvitationProvider"><path codeLine="64" d="M772.05,463.7648 C891.81,510.8248 1053.17,574.2348 1152.4,613.2248 " fill="none" id="ListMeetingParticipantsController-to-IMeetingInvitationProvider" style="stroke:#181818;stroke-width:1.0;"/><polygon fill="#181818" points="1157.08,615.0648,1150.1645,608.0522,1152.4259,613.2374,1147.2407,615.4988,1157.08,615.0648" style="stroke:#181818;stroke-width:1.0;"/></g><!--link ListMeetingParticipantsController to UserSessionService--><g id="link_ListMeetingParticipantsController_UserSessionService"><path codeLine="65" d="M615.5,341.4448 C615.5,294.4548 615.5,247.4748 615.5,200.4848 " fill="none" id="ListMeetingParticipantsController-to-UserSessionService" style="stroke:#181818;stroke-width:1.0;"/><polygon fill="#181818" points="615.5,195.3448,611.5,204.3448,615.5,200.3448,619.5,204.3448,615.5,195.3448" style="stroke:#181818;stroke-width:1.0;"/></g><!--link MeetingProvider to IMeetingRepository--><g id="link_MeetingProvider_IMeetingRepository"><path codeLine="66" d="M1437.88,411.6348 C1488.14,411.6348 1542.29,411.6348 1592.58,411.6348 " fill="none" id="MeetingProvider-to-IMeetingRepository" style="stroke:#181818;stroke-width:1.0;"/><polygon fill="#181818" points="1597.74,411.6348,1588.74,407.6348,1592.74,411.6348,1588.74,415.6348,1597.74,411.6348" style="stroke:#181818;stroke-width:1.0;"/></g><!--link MeetingProvider to IMeetingInvitationRepository--><g id="link_MeetingProvider_IMeetingInvitationRepository"><path codeLine="67" d="M1340.15,454.1648 C1437.38,497.3948 1587.37,564.0948 1686.23,608.0448 " fill="none" id="MeetingProvider-to-IMeetingInvitationRepository" style="stroke:#181818;stroke-width:1.0;"/><polygon fill="#181818" points="1690.9,610.1248,1684.296,602.8181,1686.3298,608.0967,1681.0511,610.1305,1690.9,610.1248" style="stroke:#181818;stroke-width:1.0;"/></g><!--link IMeetingInvitationProvider to IMeetingInvitationRepository--><g id="link_IMeetingInvitationProvider_IMeetingInvitationRepository"><path codeLine="68" d="M1488.15,650.4348 C1506.27,650.5648 1524.56,650.7048 1542.68,650.8348 " fill="none" id="IMeetingInvitationProvider-to-IMeetingInvitationRepository" style="stroke:#181818;stroke-width:1.0;"/><polygon fill="#181818" points="1547.79,650.8748,1538.8246,646.7978,1542.7902,650.8319,1538.756,654.7975,1547.79,650.8748" style="stroke:#181818;stroke-width:1.0;"/></g><!--SRC=[hLHDYzim4BthL-YOfSsoXpsL4jY65W9RkZJD3r3biJD4aOoaU0d1_xso8rl-ahs7YXnYQTwRDvgdiMW5qCF- -UdfcQxfAnfBtvYso35dqXggKiheJm2BCYF4d53cJBCpDKUMg7UtILCc3101gQLMKOtPqT84DN2BIXAICtvYcSknepT2g5jSC6FgL9wtcx0AAmaf0_1y3pepwRxE86t3qmIyvBb0pgfqxeZwDPjbgwJLIWZG7KIrFYqZLXS3UW_6k7nxq0Lo-Do8VDEgm0Hqkx6J1TfQMdFqqCktfWLeJAy7nxbw-48BXSb0a6SoFvHkeYgDNxt8pI0yHPbCw6zXtxVgeWrKL05QalOlIWiwPHoQhZV2HpULtm_s_0Z9HK2JrNox_dgN_fuMn7gAWApl2vAwq5byEQMzwmeDkJ9ebRxsTO_ht7dotos2JaDgpPtxxLNwHssFm4zEyCuHixy2feiU5t3_6ZiUM-y4xzzwpcV1-JSIBsnimjji7qAygz3lhRoeYVf2-B0zPV-XnbeoftYsATrc_0VHFTeN8UAsZ3SxnjjSIAVDmEkNMF75Xnlh3RV1T3kC9j7eaMPWNrMMUUrEC8JtF-wM-yNdykFZPdawakM9krvlXhFbWwYueJz2i9cuBp8SSjqqmNkpOLDc9N6forYt_W40]--></g></svg>