<?xml version="1.0" encoding="us-ascii" standalone="no"?><svg xmlns="http://www.w3.org/2000/svg" xmlns:xlink="http://www.w3.org/1999/xlink" contentStyleType="text/css" height="972px" preserveAspectRatio="none" style="width:1748px;height:972px;background:#FFFFFF;" version="1.1" viewBox="0 0 1748 972" width="1748px" zoomAndPan="magnify"><defs/><g><text fill="#000000" font-family="sans-serif" font-size="14" font-weight="bold" lengthAdjust="spacing" textLength="268" x="739.25" y="30.1074">US4004 - List Participants of a Meeting</text><rect fill="#FFFFFF" height="706.6934" style="stroke:#181818;stroke-width:1.0;" width="10" x="212.5" y="173.8242"/><rect fill="#FFFFFF" height="281.6191" style="stroke:#181818;stroke-width:1.0;" width="10" x="660.5" y="273.6973"/><rect fill="#FFFFFF" height="156.4551" style="stroke:#181818;stroke-width:1.0;" width="10" x="660.5" y="666.4805"/><rect fill="#FFFFFF" height="219.0371" style="stroke:#181818;stroke-width:1.0;" width="10" x="940.5" y="304.9883"/><rect fill="#FFFFFF" height="31.291" style="stroke:#181818;stroke-width:1.0;" width="10" x="1190.5" y="336.2793"/><rect fill="#FFFFFF" height="93.873" style="stroke:#181818;stroke-width:1.0;" width="10" x="1356" y="697.7715"/><rect fill="#FFFFFF" height="31.291" style="stroke:#181818;stroke-width:1.0;" width="10" x="1642" y="461.4434"/><rect fill="#FFFFFF" height="31.291" style="stroke:#181818;stroke-width:1.0;" width="10" x="1642" y="729.0625"/><line style="stroke:#181818;stroke-width:0.5;stroke-dasharray:5.0,5.0;" x1="22" x2="22" y1="123.2422" y2="889.5176"/><line style="stroke:#181818;stroke-width:0.5;stroke-dasharray:5.0,5.0;" x1="217.5" x2="217.5" y1="123.2422" y2="889.5176"/><line style="stroke:#181818;stroke-width:0.5;stroke-dasharray:5.0,5.0;" x1="665.5" x2="665.5" y1="123.2422" y2="889.5176"/><line style="stroke:#181818;stroke-width:0.5;stroke-dasharray:5.0,5.0;" x1="945" x2="945" y1="123.2422" y2="889.5176"/><line style="stroke:#181818;stroke-width:0.5;stroke-dasharray:5.0,5.0;" x1="1195" x2="1195" y1="123.2422" y2="889.5176"/><line style="stroke:#181818;stroke-width:0.5;stroke-dasharray:5.0,5.0;" x1="1361" x2="1361" y1="123.2422" y2="889.5176"/><line style="stroke:#181818;stroke-width:0.5;stroke-dasharray:5.0,5.0;" x1="1646.5" x2="1646.5" y1="123.2422" y2="889.5176"/><text fill="#000000" font-family="sans-serif" font-size="14" lengthAdjust="spacing" textLength="29" x="5" y="119.7285">User</text><ellipse cx="22.5" cy="53.1211" fill="#E2E2F0" rx="8" ry="8" style="stroke:#181818;stroke-width:0.5;"/><path d="M22.5,61.1211 L22.5,88.1211 M9.5,69.1211 L35.5,69.1211 M22.5,88.1211 L9.5,103.1211 M22.5,88.1211 L35.5,103.1211 " fill="none" style="stroke:#181818;stroke-width:0.5;"/><text fill="#000000" font-family="sans-serif" font-size="14" lengthAdjust="spacing" textLength="29" x="5" y="903.625">User</text><ellipse cx="22.5" cy="915.6387" fill="#E2E2F0" rx="8" ry="8" style="stroke:#181818;stroke-width:0.5;"/><path d="M22.5,923.6387 L22.5,950.6387 M9.5,931.6387 L35.5,931.6387 M22.5,950.6387 L9.5,965.6387 M22.5,950.6387 L35.5,965.6387 " fill="none" style="stroke:#181818;stroke-width:0.5;"/><rect fill="#E2E2F0" height="51.2422" rx="2.5" ry="2.5" style="stroke:#181818;stroke-width:0.5;" width="172" x="131.5" y="71"/><text fill="#000000" font-family="sans-serif" font-size="14" font-style="italic" lengthAdjust="spacing" textLength="30" x="202.5" y="93.1074">&#171;UI&#187;</text><text fill="#000000" font-family="sans-serif" font-size="14" lengthAdjust="spacing" textLength="158" x="138.5" y="111.7285">ListMeetingParticipantsUI</text><rect fill="#E2E2F0" height="51.2422" rx="2.5" ry="2.5" style="stroke:#181818;stroke-width:0.5;" width="172" x="131.5" y="888.5176"/><text fill="#000000" font-family="sans-serif" font-size="14" font-style="italic" lengthAdjust="spacing" textLength="30" x="202.5" y="910.625">&#171;UI&#187;</text><text fill="#000000" font-family="sans-serif" font-size="14" lengthAdjust="spacing" textLength="158" x="138.5" y="929.2461">ListMeetingParticipantsUI</text><rect fill="#E2E2F0" height="51.2422" rx="2.5" ry="2.5" style="stroke:#181818;stroke-width:0.5;" width="222" x="554.5" y="71"/><text fill="#000000" font-family="sans-serif" font-size="14" font-style="italic" lengthAdjust="spacing" textLength="85" x="623" y="93.1074">&#171;Application&#187;</text><text fill="#000000" font-family="sans-serif" font-size="14" lengthAdjust="spacing" textLength="208" x="561.5" y="111.7285">ListMeetingParticipantsController</text><rect fill="#E2E2F0" height="51.2422" rx="2.5" ry="2.5" style="stroke:#181818;stroke-width:0.5;" width="222" x="554.5" y="888.5176"/><text fill="#000000" font-family="sans-serif" font-size="14" font-style="italic" lengthAdjust="spacing" textLength="85" x="623" y="910.625">&#171;Application&#187;</text><text fill="#000000" font-family="sans-serif" font-size="14" lengthAdjust="spacing" textLength="208" x="561.5" y="929.2461">ListMeetingParticipantsController</text><rect fill="#E2E2F0" height="51.2422" rx="2.5" ry="2.5" style="stroke:#181818;stroke-width:0.5;" width="117" x="887" y="71"/><text fill="#000000" font-family="sans-serif" font-size="14" font-style="italic" lengthAdjust="spacing" textLength="62" x="914.5" y="93.1074">&#171;Service&#187;</text><text fill="#000000" font-family="sans-serif" font-size="14" lengthAdjust="spacing" textLength="103" x="894" y="111.7285">MeetingProvider</text><rect fill="#E2E2F0" height="51.2422" rx="2.5" ry="2.5" style="stroke:#181818;stroke-width:0.5;" width="117" x="887" y="888.5176"/><text fill="#000000" font-family="sans-serif" font-size="14" font-style="italic" lengthAdjust="spacing" textLength="62" x="914.5" y="910.625">&#171;Service&#187;</text><text fill="#000000" font-family="sans-serif" font-size="14" lengthAdjust="spacing" textLength="103" x="894" y="929.2461">MeetingProvider</text><rect fill="#E2E2F0" height="51.2422" rx="2.5" ry="2.5" style="stroke:#181818;stroke-width:0.5;" width="135" x="1128" y="71"/><text fill="#000000" font-family="sans-serif" font-size="14" font-style="italic" lengthAdjust="spacing" textLength="84" x="1153.5" y="93.1074">&#171;Repository&#187;</text><text fill="#000000" font-family="sans-serif" font-size="14" lengthAdjust="spacing" textLength="121" x="1135" y="111.7285">IMeetingRepository</text><rect fill="#E2E2F0" height="51.2422" rx="2.5" ry="2.5" style="stroke:#181818;stroke-width:0.5;" width="135" x="1128" y="888.5176"/><text fill="#000000" font-family="sans-serif" font-size="14" font-style="italic" lengthAdjust="spacing" textLength="84" x="1153.5" y="910.625">&#171;Repository&#187;</text><text fill="#000000" font-family="sans-serif" font-size="14" lengthAdjust="spacing" textLength="121" x="1135" y="929.2461">IMeetingRepository</text><rect fill="#E2E2F0" height="51.2422" rx="2.5" ry="2.5" style="stroke:#181818;stroke-width:0.5;" width="176" x="1273" y="71"/><text fill="#000000" font-family="sans-serif" font-size="14" font-style="italic" lengthAdjust="spacing" textLength="62" x="1330" y="93.1074">&#171;Service&#187;</text><text fill="#000000" font-family="sans-serif" font-size="14" lengthAdjust="spacing" textLength="162" x="1280" y="111.7285">IMeetingInvitationProvider</text><rect fill="#E2E2F0" height="51.2422" rx="2.5" ry="2.5" style="stroke:#181818;stroke-width:0.5;" width="176" x="1273" y="888.5176"/><text fill="#000000" font-family="sans-serif" font-size="14" font-style="italic" lengthAdjust="spacing" textLength="62" x="1330" y="910.625">&#171;Service&#187;</text><text fill="#000000" font-family="sans-serif" font-size="14" lengthAdjust="spacing" textLength="162" x="1280" y="929.2461">IMeetingInvitationProvider</text><rect fill="#E2E2F0" height="51.2422" rx="2.5" ry="2.5" style="stroke:#181818;stroke-width:0.5;" width="191" x="1551.5" y="71"/><text fill="#000000" font-family="sans-serif" font-size="14" font-style="italic" lengthAdjust="spacing" textLength="84" x="1605" y="93.1074">&#171;Repository&#187;</text><text fill="#000000" font-family="sans-serif" font-size="14" lengthAdjust="spacing" textLength="177" x="1558.5" y="111.7285">IMeetingInvitationRepository</text><rect fill="#E2E2F0" height="51.2422" rx="2.5" ry="2.5" style="stroke:#181818;stroke-width:0.5;" width="191" x="1551.5" y="888.5176"/><text fill="#000000" font-family="sans-serif" font-size="14" font-style="italic" lengthAdjust="spacing" textLength="84" x="1605" y="910.625">&#171;Repository&#187;</text><text fill="#000000" font-family="sans-serif" font-size="14" lengthAdjust="spacing" textLength="177" x="1558.5" y="929.2461">IMeetingInvitationRepository</text><rect fill="#FFFFFF" height="706.6934" style="stroke:#181818;stroke-width:1.0;" width="10" x="212.5" y="173.8242"/><rect fill="#FFFFFF" height="281.6191" style="stroke:#181818;stroke-width:1.0;" width="10" x="660.5" y="273.6973"/><rect fill="#FFFFFF" height="156.4551" style="stroke:#181818;stroke-width:1.0;" width="10" x="660.5" y="666.4805"/><rect fill="#FFFFFF" height="219.0371" style="stroke:#181818;stroke-width:1.0;" width="10" x="940.5" y="304.9883"/><rect fill="#FFFFFF" height="31.291" style="stroke:#181818;stroke-width:1.0;" width="10" x="1190.5" y="336.2793"/><rect fill="#FFFFFF" height="93.873" style="stroke:#181818;stroke-width:1.0;" width="10" x="1356" y="697.7715"/><rect fill="#FFFFFF" height="31.291" style="stroke:#181818;stroke-width:1.0;" width="10" x="1642" y="461.4434"/><rect fill="#FFFFFF" height="31.291" style="stroke:#181818;stroke-width:1.0;" width="10" x="1642" y="729.0625"/><polygon fill="#181818" points="200.5,169.8242,210.5,173.8242,200.5,177.8242,204.5,173.8242" style="stroke:#181818;stroke-width:1.0;"/><line style="stroke:#181818;stroke-width:1.0;stroke-dasharray:2.0,2.0;" x1="22.5" x2="206.5" y1="173.8242" y2="173.8242"/><text fill="#000000" font-family="sans-serif" font-size="13" font-weight="bold" lengthAdjust="spacing" textLength="7" x="29.5" y="159.916">1</text><text fill="#000000" font-family="sans-serif" font-size="13" lengthAdjust="spacing" textLength="117" x="40.5" y="151.2705">asks to view a list of</text><text fill="#000000" font-family="sans-serif" font-size="13" lengthAdjust="spacing" textLength="142" x="44.5" y="168.5615">participants of a meeting</text><polygon fill="#181818" points="653.5,201.1152,663.5,205.1152,653.5,209.1152,657.5,205.1152" style="stroke:#181818;stroke-width:1.0;"/><line style="stroke:#181818;stroke-width:1.0;" x1="222.5" x2="659.5" y1="205.1152" y2="205.1152"/><text fill="#000000" font-family="sans-serif" font-size="13" font-weight="bold" lengthAdjust="spacing" textLength="7" x="229.5" y="199.8525">2</text><text fill="#000000" font-family="sans-serif" font-size="13" lengthAdjust="spacing" textLength="408" x="240.5" y="199.8525">create(userSessionService, meetingProvider, meetingInvitationProvider)</text><path d="M505,218.1152 L505,245.1152 L826,245.1152 L826,228.1152 L816,218.1152 L505,218.1152 " fill="#FEFFDD" style="stroke:#181818;stroke-width:0.5;"/><path d="M816,218.1152 L816,228.1152 L826,228.1152 L816,218.1152 " fill="#FEFFDD" style="stroke:#181818;stroke-width:0.5;"/><text fill="#000000" font-family="sans-serif" font-size="13" lengthAdjust="spacing" textLength="300" x="511" y="237.1436">"userSessionService" is used to get the logged user</text><polygon fill="#181818" points="648.5,269.6973,658.5,273.6973,648.5,277.6973,652.5,273.6973" style="stroke:#181818;stroke-width:1.0;"/><line style="stroke:#181818;stroke-width:1.0;" x1="222.5" x2="654.5" y1="273.6973" y2="273.6973"/><text fill="#000000" font-family="sans-serif" font-size="13" font-weight="bold" lengthAdjust="spacing" textLength="7" x="229.5" y="268.4346">3</text><text fill="#000000" font-family="sans-serif" font-size="13" lengthAdjust="spacing" textLength="107" x="240.5" y="268.4346">meetingsForUser()</text><polygon fill="#181818" points="928.5,300.9883,938.5,304.9883,928.5,308.9883,932.5,304.9883" style="stroke:#181818;stroke-width:1.0;"/><line style="stroke:#181818;stroke-width:1.0;" x1="670.5" x2="934.5" y1="304.9883" y2="304.9883"/><text fill="#000000" font-family="sans-serif" font-size="13" font-weight="bold" lengthAdjust="spacing" textLength="7" x="677.5" y="299.7256">4</text><text fill="#000000" font-family="sans-serif" font-size="13" lengthAdjust="spacing" textLength="240" x="688.5" y="299.7256">provideScheduledMeetingsByOwner(user)</text><polygon fill="#181818" points="1178.5,332.2793,1188.5,336.2793,1178.5,340.2793,1182.5,336.2793" style="stroke:#181818;stroke-width:1.0;"/><line style="stroke:#181818;stroke-width:1.0;" x1="950.5" x2="1184.5" y1="336.2793" y2="336.2793"/><text fill="#000000" font-family="sans-serif" font-size="13" font-weight="bold" lengthAdjust="spacing" textLength="7" x="957.5" y="331.0166">5</text><text fill="#000000" font-family="sans-serif" font-size="13" lengthAdjust="spacing" textLength="210" x="968.5" y="331.0166">findMeetingsByOwner(userToCheck)</text><polygon fill="#181818" points="961.5,363.5703,951.5,367.5703,961.5,371.5703,957.5,367.5703" style="stroke:#181818;stroke-width:1.0;"/><line style="stroke:#181818;stroke-width:1.0;" x1="955.5" x2="1194.5" y1="367.5703" y2="367.5703"/><text fill="#000000" font-family="sans-serif" font-size="13" font-weight="bold" lengthAdjust="spacing" textLength="7" x="967.5" y="362.3076">6</text><text fill="#000000" font-family="sans-serif" font-size="13" lengthAdjust="spacing" textLength="165" x="978.5" y="362.3076">scheduledMeetingsByOwner</text><polygon fill="#181818" points="681.5,394.8613,671.5,398.8613,681.5,402.8613,677.5,398.8613" style="stroke:#181818;stroke-width:1.0;"/><line style="stroke:#181818;stroke-width:1.0;" x1="675.5" x2="939.5" y1="398.8613" y2="398.8613"/><text fill="#000000" font-family="sans-serif" font-size="13" font-weight="bold" lengthAdjust="spacing" textLength="7" x="687.5" y="393.5986">7</text><text fill="#000000" font-family="sans-serif" font-size="13" lengthAdjust="spacing" textLength="165" x="698.5" y="393.5986">scheduledMeetingsByOwner</text><polygon fill="#181818" points="928.5,426.1523,938.5,430.1523,928.5,434.1523,932.5,430.1523" style="stroke:#181818;stroke-width:1.0;"/><line style="stroke:#181818;stroke-width:1.0;" x1="670.5" x2="934.5" y1="430.1523" y2="430.1523"/><text fill="#000000" font-family="sans-serif" font-size="13" font-weight="bold" lengthAdjust="spacing" textLength="7" x="677.5" y="424.8896">8</text><text fill="#000000" font-family="sans-serif" font-size="13" lengthAdjust="spacing" textLength="205" x="688.5" y="424.8896">provideMeetingsByInvitedUser(user)</text><polygon fill="#181818" points="1630,457.4434,1640,461.4434,1630,465.4434,1634,461.4434" style="stroke:#181818;stroke-width:1.0;"/><line style="stroke:#181818;stroke-width:1.0;" x1="950.5" x2="1636" y1="461.4434" y2="461.4434"/><text fill="#000000" font-family="sans-serif" font-size="13" font-weight="bold" lengthAdjust="spacing" textLength="7" x="957.5" y="456.1807">9</text><text fill="#000000" font-family="sans-serif" font-size="13" lengthAdjust="spacing" textLength="251" x="968.5" y="456.1807">findAllMeetingsByInvitedUser(userToCheck)</text><polygon fill="#181818" points="961.5,488.7344,951.5,492.7344,961.5,496.7344,957.5,492.7344" style="stroke:#181818;stroke-width:1.0;"/><line style="stroke:#181818;stroke-width:1.0;" x1="955.5" x2="1646" y1="492.7344" y2="492.7344"/><text fill="#000000" font-family="sans-serif" font-size="13" font-weight="bold" lengthAdjust="spacing" textLength="14" x="967.5" y="487.4717">10</text><text fill="#000000" font-family="sans-serif" font-size="13" lengthAdjust="spacing" textLength="132" x="985.5" y="487.4717">meetingsByInvitedUser</text><polygon fill="#181818" points="681.5,520.0254,671.5,524.0254,681.5,528.0254,677.5,524.0254" style="stroke:#181818;stroke-width:1.0;"/><line style="stroke:#181818;stroke-width:1.0;" x1="675.5" x2="944.5" y1="524.0254" y2="524.0254"/><text fill="#000000" font-family="sans-serif" font-size="13" font-weight="bold" lengthAdjust="spacing" textLength="14" x="687.5" y="518.7627">11</text><text fill="#000000" font-family="sans-serif" font-size="13" lengthAdjust="spacing" textLength="132" x="705.5" y="518.7627">meetingsByInvitedUser</text><polygon fill="#181818" points="233.5,551.3164,223.5,555.3164,233.5,559.3164,229.5,555.3164" style="stroke:#181818;stroke-width:1.0;"/><line style="stroke:#181818;stroke-width:1.0;" x1="227.5" x2="664.5" y1="555.3164" y2="555.3164"/><text fill="#000000" font-family="sans-serif" font-size="13" font-weight="bold" lengthAdjust="spacing" textLength="14" x="239.5" y="550.0537">12</text><text fill="#000000" font-family="sans-serif" font-size="13" lengthAdjust="spacing" textLength="99" x="257.5" y="550.0537">meetingsForUser</text><polygon fill="#181818" points="33.5,599.8984,23.5,603.8984,33.5,607.8984,29.5,603.8984" style="stroke:#181818;stroke-width:1.0;"/><line style="stroke:#181818;stroke-width:1.0;stroke-dasharray:2.0,2.0;" x1="27.5" x2="211.5" y1="603.8984" y2="603.8984"/><text fill="#000000" font-family="sans-serif" font-size="13" font-weight="bold" lengthAdjust="spacing" textLength="14" x="39.5" y="589.9902">13</text><text fill="#000000" font-family="sans-serif" font-size="13" lengthAdjust="spacing" textLength="129" x="57.5" y="581.3447">shows list of meetings</text><text fill="#000000" font-family="sans-serif" font-size="13" lengthAdjust="spacing" textLength="132" x="61.5" y="598.6357">and asks to select one</text><polygon fill="#181818" points="200.5,631.1895,210.5,635.1895,200.5,639.1895,204.5,635.1895" style="stroke:#181818;stroke-width:1.0;"/><line style="stroke:#181818;stroke-width:1.0;stroke-dasharray:2.0,2.0;" x1="22.5" x2="206.5" y1="635.1895" y2="635.1895"/><text fill="#000000" font-family="sans-serif" font-size="13" font-weight="bold" lengthAdjust="spacing" textLength="14" x="29.5" y="629.9268">14</text><text fill="#000000" font-family="sans-serif" font-size="13" lengthAdjust="spacing" textLength="103" x="47.5" y="629.9268">selects a meeting</text><polygon fill="#181818" points="648.5,662.4805,658.5,666.4805,648.5,670.4805,652.5,666.4805" style="stroke:#181818;stroke-width:1.0;"/><line style="stroke:#181818;stroke-width:1.0;" x1="222.5" x2="654.5" y1="666.4805" y2="666.4805"/><text fill="#000000" font-family="sans-serif" font-size="13" font-weight="bold" lengthAdjust="spacing" textLength="14" x="229.5" y="661.2178">15</text><text fill="#000000" font-family="sans-serif" font-size="13" lengthAdjust="spacing" textLength="189" x="247.5" y="661.2178">findMeetingParticipants(meeting)</text><polygon fill="#181818" points="1344,693.7715,1354,697.7715,1344,701.7715,1348,697.7715" style="stroke:#181818;stroke-width:1.0;"/><line style="stroke:#181818;stroke-width:1.0;" x1="670.5" x2="1350" y1="697.7715" y2="697.7715"/><text fill="#000000" font-family="sans-serif" font-size="13" font-weight="bold" lengthAdjust="spacing" textLength="14" x="677.5" y="692.5088">16</text><text fill="#000000" font-family="sans-serif" font-size="13" lengthAdjust="spacing" textLength="259" x="695.5" y="692.5088">provideMeetingInvitationsByMeeting(meeting)</text><polygon fill="#181818" points="1630,725.0625,1640,729.0625,1630,733.0625,1634,729.0625" style="stroke:#181818;stroke-width:1.0;"/><line style="stroke:#181818;stroke-width:1.0;" x1="1366" x2="1636" y1="729.0625" y2="729.0625"/><text fill="#000000" font-family="sans-serif" font-size="13" font-weight="bold" lengthAdjust="spacing" textLength="14" x="1373" y="723.7998">17</text><text fill="#000000" font-family="sans-serif" font-size="13" lengthAdjust="spacing" textLength="239" x="1391" y="723.7998">findMeetingInvitationsByMeeting(meeting)</text><polygon fill="#181818" points="1377,756.3535,1367,760.3535,1377,764.3535,1373,760.3535" style="stroke:#181818;stroke-width:1.0;"/><line style="stroke:#181818;stroke-width:1.0;" x1="1371" x2="1646" y1="760.3535" y2="760.3535"/><text fill="#000000" font-family="sans-serif" font-size="13" font-weight="bold" lengthAdjust="spacing" textLength="14" x="1383" y="755.0908">18</text><text fill="#000000" font-family="sans-serif" font-size="13" lengthAdjust="spacing" textLength="103" x="1401" y="755.0908">meetingInvitations</text><polygon fill="#181818" points="681.5,787.6445,671.5,791.6445,681.5,795.6445,677.5,791.6445" style="stroke:#181818;stroke-width:1.0;"/><line style="stroke:#181818;stroke-width:1.0;" x1="675.5" x2="1360" y1="791.6445" y2="791.6445"/><text fill="#000000" font-family="sans-serif" font-size="13" font-weight="bold" lengthAdjust="spacing" textLength="14" x="687.5" y="786.3818">19</text><text fill="#000000" font-family="sans-serif" font-size="13" lengthAdjust="spacing" textLength="103" x="705.5" y="786.3818">meetingInvitations</text><polygon fill="#181818" points="233.5,818.9355,223.5,822.9355,233.5,826.9355,229.5,822.9355" style="stroke:#181818;stroke-width:1.0;"/><line style="stroke:#181818;stroke-width:1.0;" x1="227.5" x2="664.5" y1="822.9355" y2="822.9355"/><text fill="#000000" font-family="sans-serif" font-size="13" font-weight="bold" lengthAdjust="spacing" textLength="14" x="239.5" y="817.6729">20</text><text fill="#000000" font-family="sans-serif" font-size="13" lengthAdjust="spacing" textLength="103" x="257.5" y="817.6729">meetingInvitations</text><polygon fill="#181818" points="33.5,867.5176,23.5,871.5176,33.5,875.5176,29.5,871.5176" style="stroke:#181818;stroke-width:1.0;"/><line style="stroke:#181818;stroke-width:1.0;stroke-dasharray:2.0,2.0;" x1="27.5" x2="211.5" y1="871.5176" y2="871.5176"/><text fill="#000000" font-family="sans-serif" font-size="13" font-weight="bold" lengthAdjust="spacing" textLength="14" x="39.5" y="857.6094">21</text><text fill="#000000" font-family="sans-serif" font-size="13" lengthAdjust="spacing" textLength="143" x="57.5" y="848.9639">shows list of participants</text><text fill="#000000" font-family="sans-serif" font-size="13" lengthAdjust="spacing" textLength="144" x="61.5" y="866.2549">and their invitation status</text><!--SRC=[bLJ1Zjem5BpxAvuuiLAHzh0dj4BQHgfagQWHR6wzkCa3B8mTsIPe_twVWvCOGjhj2UanC- -DPy1Bhn2AxSlpymiiuATq7d9XlInbBRHtO7OWO8tefTup9ixUwFFf3rhcZbBNmeeJk8Eep8M-XvrG3WbLUcEXS6X1E2XOFGZ2BAo8UkcYWizQC8VNruAlLbyYPKPxQvH2svBN6P7Vwbh9KdXfzBrAfs1D8wkEanDdYxQH9TxZUIHii3PEagUFAsL3b64snUAwaRwzusOX_yB2WNgtcezMim8MYrLujoK1ZWwyWKRYXL9J8Kop-wsX7YLwwXCjlMo4fmvmHY8ajSwMK5gasVnC4MxHEJeaNlojOtQU-i7OxXFJXeHDGprOPsmsLfk1T43ZAbozHm_-WA3CVa-JW6QeAmWYoMbndVjXR6ZO_6cmG4ke0W6NBw6-Nh4j3rYT5LRnQTttZryNJRoWdt9pHbK8tCqITb8_nB-Rx83bCQLj6DKXhdGJkrY5DuIyyp996DaO0EqxOzLwltguwl5uzvjIq-2n0RvXl3TmUaHCh-VfzVz4XpTjZHHybDiDBclp3K1wauEvkAwxFOjABAWBNSCTAYm9eB7l_p8ENTBkeJL9ekaVo3mY7vM8Zrv_g3XvZhC72Znd_2QI_wHtYV0XaOHw5mU_ZsCA-Y2B2UXVuaZ_I68az9EL5cGl1Ou-puvz0W00]--></g></svg>