<?xml version="1.0" encoding="us-ascii" standalone="no"?><svg xmlns="http://www.w3.org/2000/svg" xmlns:xlink="http://www.w3.org/1999/xlink" contentStyleType="text/css" height="918.4px" preserveAspectRatio="none" style="width:1444px;height:918px;background:#FFFFFF;" version="1.1" viewBox="0 0 1444 918" width="1444.8px" zoomAndPan="magnify"><defs/><g><rect fill="#FFFFFF" height="753.6172" style="stroke:#181818;stroke-width:0.8000000000000002;" width="8" x="23.6" y="78.5938"/><rect fill="#FFFFFF" height="727.7844" style="stroke:#181818;stroke-width:0.8000000000000002;" width="8" x="178.8" y="97.2266"/><rect fill="#FFFFFF" height="125.1641" style="stroke:#181818;stroke-width:0.8000000000000002;" width="8" x="442" y="122.2594"/><rect fill="#FFFFFF" height="375.4922" style="stroke:#181818;stroke-width:0.8000000000000002;" width="8" x="442" y="424.4859"/><rect fill="#FFFFFF" height="75.0984" style="stroke:#181818;stroke-width:0.8000000000000002;" width="8" x="620" y="147.2922"/><rect fill="#FFFFFF" height="25.0328" style="stroke:#181818;stroke-width:0.8000000000000002;" width="8" x="757.6" y="172.325"/><rect fill="#FFFFFF" height="275.3609" style="stroke:#181818;stroke-width:0.8000000000000002;" width="8" x="852.4" y="449.5188"/><rect fill="#FFFFFF" height="25.0328" style="stroke:#181818;stroke-width:0.8000000000000002;" width="8" x="986.8" y="499.5844"/><rect fill="#FFFFFF" height="100.1313" style="stroke:#181818;stroke-width:0.8000000000000002;" width="8" x="1120.4" y="599.7156"/><rect fill="#FFFFFF" height="25.0328" style="stroke:#181818;stroke-width:0.8000000000000002;" width="8" x="1257.2" y="624.7484"/><rect fill="#FFFFFF" height="25.0328" style="stroke:#181818;stroke-width:0.8000000000000002;" width="8" x="1257.2" y="749.9125"/><line style="stroke:#181818;stroke-width:0.4000000000000001;stroke-dasharray:5.0,5.0;" x1="27.2" x2="27.2" y1="70.5938" y2="839.4109"/><line style="stroke:#181818;stroke-width:0.4000000000000001;stroke-dasharray:5.0,5.0;" x1="182.4" x2="182.4" y1="70.5938" y2="839.4109"/><line style="stroke:#181818;stroke-width:0.4000000000000001;stroke-dasharray:5.0,5.0;" x1="445.6" x2="445.6" y1="70.5938" y2="839.4109"/><line style="stroke:#181818;stroke-width:0.4000000000000001;stroke-dasharray:5.0,5.0;" x1="624" x2="624" y1="70.5938" y2="839.4109"/><line style="stroke:#181818;stroke-width:0.4000000000000001;stroke-dasharray:5.0,5.0;" x1="761.6" x2="761.6" y1="70.5938" y2="839.4109"/><line style="stroke:#181818;stroke-width:0.4000000000000001;stroke-dasharray:5.0,5.0;" x1="856" x2="856" y1="70.5938" y2="839.4109"/><line style="stroke:#181818;stroke-width:0.4000000000000001;stroke-dasharray:5.0,5.0;" x1="990.8" x2="990.8" y1="70.5938" y2="839.4109"/><line style="stroke:#181818;stroke-width:0.4000000000000001;stroke-dasharray:5.0,5.0;" x1="1124.4" x2="1124.4" y1="70.5938" y2="839.4109"/><line style="stroke:#181818;stroke-width:0.4000000000000001;stroke-dasharray:5.0,5.0;" x1="1261.2" x2="1261.2" y1="70.5938" y2="839.4109"/><line style="stroke:#181818;stroke-width:0.4000000000000001;stroke-dasharray:5.0,5.0;" x1="1358.8" x2="1358.8" y1="70.5938" y2="839.4109"/><line style="stroke:#181818;stroke-width:0.4000000000000001;stroke-dasharray:5.0,5.0;" x1="1426.8" x2="1426.8" y1="70.5938" y2="839.4109"/><text fill="#000000" font-family="FG Virgil" font-size="11.2" lengthAdjust="spacing" textLength="42.4" x="4" y="67.7828">Teacher</text><ellipse cx="27.6" cy="14.4969" fill="#E3E3E3" rx="6.4" ry="6.4" style="stroke:#181818;stroke-width:0.4000000000000001;"/><path d="M27.6,20.8969 L27.6,42.4969 M17.2,27.2969 L38,27.2969 M27.6,42.4969 L17.2,54.4969 M27.6,42.4969 L38,54.4969 " fill="none" style="stroke:#181818;stroke-width:0.4000000000000001;"/><text fill="#000000" font-family="FG Virgil" font-size="11.2" lengthAdjust="spacing" textLength="42.4" x="4" y="850.6969">Teacher</text><ellipse cx="27.6" cy="860.3078" fill="#E3E3E3" rx="6.4" ry="6.4" style="stroke:#181818;stroke-width:0.4000000000000001;"/><path d="M27.6,866.7078 L27.6,888.3078 M17.2,873.1078 L38,873.1078 M27.6,888.3078 L17.2,900.3078 M27.6,888.3078 L38,900.3078 " fill="none" style="stroke:#181818;stroke-width:0.4000000000000001;"/><rect fill="#E3E3E3" height="40.9938" rx="2" ry="2" style="stroke:#181818;stroke-width:0.4000000000000001;" width="136.8" x="114.4" y="28.8"/><text fill="#000000" font-family="FG Virgil" font-size="11.2" font-style="italic" lengthAdjust="spacing" textLength="24" x="170.8" y="46.4859">&#171;UI&#187;</text><text fill="#000000" font-family="FG Virgil" font-size="11.2" lengthAdjust="spacing" textLength="125.6" x="120" y="61.3828">CreateAutomatedExamUI</text><rect fill="#E3E3E3" height="40.9938" rx="2" ry="2" style="stroke:#181818;stroke-width:0.4000000000000001;" width="136.8" x="114.4" y="838.6109"/><text fill="#000000" font-family="FG Virgil" font-size="11.2" font-style="italic" lengthAdjust="spacing" textLength="24" x="170.8" y="856.2969">&#171;UI&#187;</text><text fill="#000000" font-family="FG Virgil" font-size="11.2" lengthAdjust="spacing" textLength="125.6" x="120" y="871.1938">CreateAutomatedExamUI</text><rect fill="#E3E3E3" height="40.9938" rx="2" ry="2" style="stroke:#181818;stroke-width:0.4000000000000001;" width="176.8" x="357.6" y="28.8"/><text fill="#000000" font-family="FG Virgil" font-size="11.2" font-style="italic" lengthAdjust="spacing" textLength="68" x="412" y="46.4859">&#171;Application&#187;</text><text fill="#000000" font-family="FG Virgil" font-size="11.2" lengthAdjust="spacing" textLength="165.6" x="363.2" y="61.3828">CreateAutomatedExamController</text><rect fill="#E3E3E3" height="40.9938" rx="2" ry="2" style="stroke:#181818;stroke-width:0.4000000000000001;" width="176.8" x="357.6" y="838.6109"/><text fill="#000000" font-family="FG Virgil" font-size="11.2" font-style="italic" lengthAdjust="spacing" textLength="68" x="412" y="856.2969">&#171;Application&#187;</text><text fill="#000000" font-family="FG Virgil" font-size="11.2" lengthAdjust="spacing" textLength="165.6" x="363.2" y="871.1938">CreateAutomatedExamController</text><rect fill="#E3E3E3" height="40.9938" rx="2" ry="2" style="stroke:#181818;stroke-width:0.4000000000000001;" width="163.2" x="542.4" y="28.8"/><text fill="#000000" font-family="FG Virgil" font-size="11.2" font-style="italic" lengthAdjust="spacing" textLength="68" x="590" y="46.4859">&#171;Application&#187;</text><text fill="#000000" font-family="FG Virgil" font-size="11.2" lengthAdjust="spacing" textLength="152" x="548" y="61.3828">ListTeacherCoursesController</text><rect fill="#E3E3E3" height="40.9938" rx="2" ry="2" style="stroke:#181818;stroke-width:0.4000000000000001;" width="163.2" x="542.4" y="838.6109"/><text fill="#000000" font-family="FG Virgil" font-size="11.2" font-style="italic" lengthAdjust="spacing" textLength="68" x="590" y="856.2969">&#171;Application&#187;</text><text fill="#000000" font-family="FG Virgil" font-size="11.2" lengthAdjust="spacing" textLength="152" x="548" y="871.1938">ListTeacherCoursesController</text><text fill="#000000" font-family="FG Virgil" font-size="11.2" font-style="italic" lengthAdjust="spacing" textLength="67.2" x="725.6" y="52.8859">&#171;Repository&#187;</text><text fill="#000000" font-family="FG Virgil" font-size="11.2" lengthAdjust="spacing" textLength="91.2" x="713.6" y="67.7828">CourseRepository</text><path d="M747.2,12 C747.2,4 761.6,4 761.6,4 C761.6,4 776,4 776,12 L776,32.8 C776,40.8 761.6,40.8 761.6,40.8 C761.6,40.8 747.2,40.8 747.2,32.8 L747.2,12 " fill="#E3E3E3" style="stroke:#181818;stroke-width:1.2000000000000002;"/><path d="M747.2,12 C747.2,20 761.6,20 761.6,20 C761.6,20 776,20 776,12 " fill="none" style="stroke:#181818;stroke-width:1.2000000000000002;"/><text fill="#000000" font-family="FG Virgil" font-size="11.2" font-style="italic" lengthAdjust="spacing" textLength="67.2" x="725.6" y="850.6969">&#171;Repository&#187;</text><text fill="#000000" font-family="FG Virgil" font-size="11.2" lengthAdjust="spacing" textLength="91.2" x="713.6" y="865.5938">CourseRepository</text><path d="M747.2,876.4047 C747.2,868.4047 761.6,868.4047 761.6,868.4047 C761.6,868.4047 776,868.4047 776,876.4047 L776,897.2047 C776,905.2047 761.6,905.2047 761.6,905.2047 C761.6,905.2047 747.2,905.2047 747.2,897.2047 L747.2,876.4047 " fill="#E3E3E3" style="stroke:#181818;stroke-width:1.2000000000000002;"/><path d="M747.2,876.4047 C747.2,884.4047 761.6,884.4047 761.6,884.4047 C761.6,884.4047 776,884.4047 776,876.4047 " fill="none" style="stroke:#181818;stroke-width:1.2000000000000002;"/><rect fill="#E3E3E3" height="40.9938" rx="2" ry="2" style="stroke:#181818;stroke-width:0.4000000000000001;" width="77.6" x="817.6" y="28.8"/><text fill="#000000" font-family="FG Virgil" font-size="11.2" font-style="italic" lengthAdjust="spacing" textLength="49.6" x="831.6" y="46.4859">&#171;Service&#187;</text><text fill="#000000" font-family="FG Virgil" font-size="11.2" lengthAdjust="spacing" textLength="66.4" x="823.2" y="61.3828">ExamHandler</text><rect fill="#E3E3E3" height="40.9938" rx="2" ry="2" style="stroke:#181818;stroke-width:0.4000000000000001;" width="77.6" x="817.6" y="838.6109"/><text fill="#000000" font-family="FG Virgil" font-size="11.2" font-style="italic" lengthAdjust="spacing" textLength="49.6" x="831.6" y="856.2969">&#171;Service&#187;</text><text fill="#000000" font-family="FG Virgil" font-size="11.2" lengthAdjust="spacing" textLength="66.4" x="823.2" y="871.1938">ExamHandler</text><rect fill="#E3E3E3" height="40.9938" rx="2" ry="2" style="stroke:#181818;stroke-width:0.4000000000000001;" width="123.2" x="929.2" y="28.8"/><text fill="#000000" font-family="FG Virgil" font-size="11.2" font-style="italic" lengthAdjust="spacing" textLength="49.6" x="966" y="46.4859">&#171;Service&#187;</text><text fill="#000000" font-family="FG Virgil" font-size="11.2" lengthAdjust="spacing" textLength="112" x="934.8" y="61.3828">ExamParseTreeVisitor</text><rect fill="#E3E3E3" height="40.9938" rx="2" ry="2" style="stroke:#181818;stroke-width:0.4000000000000001;" width="123.2" x="929.2" y="838.6109"/><text fill="#000000" font-family="FG Virgil" font-size="11.2" font-style="italic" lengthAdjust="spacing" textLength="49.6" x="966" y="856.2969">&#171;Service&#187;</text><text fill="#000000" font-family="FG Virgil" font-size="11.2" lengthAdjust="spacing" textLength="112" x="934.8" y="871.1938">ExamParseTreeVisitor</text><rect fill="#E3E3E3" height="40.9938" rx="2" ry="2" style="stroke:#181818;stroke-width:0.4000000000000001;" width="128" x="1060.4" y="28.8"/><text fill="#000000" font-family="FG Virgil" font-size="11.2" font-style="italic" lengthAdjust="spacing" textLength="48" x="1100.4" y="46.4859">&#171;Builder&#187;</text><text fill="#000000" font-family="FG Virgil" font-size="11.2" lengthAdjust="spacing" textLength="116.8" x="1066" y="61.3828">AutomatedExamBuilder</text><rect fill="#E3E3E3" height="40.9938" rx="2" ry="2" style="stroke:#181818;stroke-width:0.4000000000000001;" width="128" x="1060.4" y="838.6109"/><text fill="#000000" font-family="FG Virgil" font-size="11.2" font-style="italic" lengthAdjust="spacing" textLength="48" x="1100.4" y="856.2969">&#171;Builder&#187;</text><text fill="#000000" font-family="FG Virgil" font-size="11.2" lengthAdjust="spacing" textLength="116.8" x="1066" y="871.1938">AutomatedExamBuilder</text><text fill="#000000" font-family="FG Virgil" font-size="11.2" font-style="italic" lengthAdjust="spacing" textLength="67.2" x="1225.2" y="52.8859">&#171;Repository&#187;</text><text fill="#000000" font-family="FG Virgil" font-size="11.2" lengthAdjust="spacing" textLength="81.6" x="1218" y="67.7828">ExamRepository</text><path d="M1246.8,12 C1246.8,4 1261.2,4 1261.2,4 C1261.2,4 1275.6,4 1275.6,12 L1275.6,32.8 C1275.6,40.8 1261.2,40.8 1261.2,40.8 C1261.2,40.8 1246.8,40.8 1246.8,32.8 L1246.8,12 " fill="#E3E3E3" style="stroke:#181818;stroke-width:1.2000000000000002;"/><path d="M1246.8,12 C1246.8,20 1261.2,20 1261.2,20 C1261.2,20 1275.6,20 1275.6,12 " fill="none" style="stroke:#181818;stroke-width:1.2000000000000002;"/><text fill="#000000" font-family="FG Virgil" font-size="11.2" font-style="italic" lengthAdjust="spacing" textLength="67.2" x="1225.2" y="850.6969">&#171;Repository&#187;</text><text fill="#000000" font-family="FG Virgil" font-size="11.2" lengthAdjust="spacing" textLength="81.6" x="1218" y="865.5938">ExamRepository</text><path d="M1246.8,876.4047 C1246.8,868.4047 1261.2,868.4047 1261.2,868.4047 C1261.2,868.4047 1275.6,868.4047 1275.6,876.4047 L1275.6,897.2047 C1275.6,905.2047 1261.2,905.2047 1261.2,905.2047 C1261.2,905.2047 1246.8,905.2047 1246.8,897.2047 L1246.8,876.4047 " fill="#E3E3E3" style="stroke:#181818;stroke-width:1.2000000000000002;"/><path d="M1246.8,876.4047 C1246.8,884.4047 1261.2,884.4047 1261.2,884.4047 C1261.2,884.4047 1275.6,884.4047 1275.6,876.4047 " fill="none" style="stroke:#181818;stroke-width:1.2000000000000002;"/><rect fill="#E3E3E3" height="40.9938" rx="2" ry="2" style="stroke:#181818;stroke-width:0.4000000000000001;" width="92.8" x="1312.4" y="28.8"/><text fill="#000000" font-family="FG Virgil" font-size="11.2" font-style="italic" lengthAdjust="spacing" textLength="51.2" x="1333.2" y="46.4859">&#171;Domain&#187;</text><text fill="#000000" font-family="FG Virgil" font-size="11.2" lengthAdjust="spacing" textLength="81.6" x="1318" y="61.3828">AutomatedExam</text><rect fill="#E3E3E3" height="40.9938" rx="2" ry="2" style="stroke:#181818;stroke-width:0.4000000000000001;" width="92.8" x="1312.4" y="838.6109"/><text fill="#000000" font-family="FG Virgil" font-size="11.2" font-style="italic" lengthAdjust="spacing" textLength="51.2" x="1333.2" y="856.2969">&#171;Domain&#187;</text><text fill="#000000" font-family="FG Virgil" font-size="11.2" lengthAdjust="spacing" textLength="81.6" x="1318" y="871.1938">AutomatedExam</text><rect fill="#E3E3E3" height="26.0969" rx="2" ry="2" style="stroke:#181818;stroke-width:0.4000000000000001;" width="27.2" x="1413.2" y="43.6969"/><text fill="#000000" font-family="FG Virgil" font-size="11.2" lengthAdjust="spacing" textLength="16" x="1418.8" y="61.3828">QB</text><rect fill="#E3E3E3" height="26.0969" rx="2" ry="2" style="stroke:#181818;stroke-width:0.4000000000000001;" width="27.2" x="1413.2" y="838.6109"/><text fill="#000000" font-family="FG Virgil" font-size="11.2" lengthAdjust="spacing" textLength="16" x="1418.8" y="856.2969">QB</text><rect fill="#FFFFFF" height="753.6172" style="stroke:#181818;stroke-width:0.8000000000000002;" width="8" x="23.6" y="78.5938"/><rect fill="#FFFFFF" height="727.7844" style="stroke:#181818;stroke-width:0.8000000000000002;" width="8" x="178.8" y="97.2266"/><rect fill="#FFFFFF" height="125.1641" style="stroke:#181818;stroke-width:0.8000000000000002;" width="8" x="442" y="122.2594"/><rect fill="#FFFFFF" height="375.4922" style="stroke:#181818;stroke-width:0.8000000000000002;" width="8" x="442" y="424.4859"/><rect fill="#FFFFFF" height="75.0984" style="stroke:#181818;stroke-width:0.8000000000000002;" width="8" x="620" y="147.2922"/><rect fill="#FFFFFF" height="25.0328" style="stroke:#181818;stroke-width:0.8000000000000002;" width="8" x="757.6" y="172.325"/><rect fill="#FFFFFF" height="275.3609" style="stroke:#181818;stroke-width:0.8000000000000002;" width="8" x="852.4" y="449.5188"/><rect fill="#FFFFFF" height="25.0328" style="stroke:#181818;stroke-width:0.8000000000000002;" width="8" x="986.8" y="499.5844"/><rect fill="#FFFFFF" height="100.1313" style="stroke:#181818;stroke-width:0.8000000000000002;" width="8" x="1120.4" y="599.7156"/><rect fill="#FFFFFF" height="25.0328" style="stroke:#181818;stroke-width:0.8000000000000002;" width="8" x="1257.2" y="624.7484"/><rect fill="#FFFFFF" height="25.0328" style="stroke:#181818;stroke-width:0.8000000000000002;" width="8" x="1257.2" y="749.9125"/><polygon fill="#181818" points="169.2,94.0266,177.2,97.2266,169.2,100.4266,172.4,97.2266" style="stroke:#181818;stroke-width:0.8000000000000002;"/><line style="stroke:#181818;stroke-width:0.8000000000000002;stroke-dasharray:2.0,2.0;" x1="31.6" x2="174" y1="97.2266" y2="97.2266"/><text fill="#000000" font-family="FG Virgil" font-size="10.4" font-weight="bold" lengthAdjust="spacing" textLength="5.6" x="37.2" y="93.0164">1</text><text fill="#000000" font-family="FG Virgil" font-size="10.4" lengthAdjust="spacing" textLength="111.2" x="46" y="93.0164">Asks to create an exam</text><polygon fill="#181818" points="432.4,119.0594,440.4,122.2594,432.4,125.4594,435.6,122.2594" style="stroke:#181818;stroke-width:0.8000000000000002;"/><line style="stroke:#181818;stroke-width:0.8000000000000002;" x1="186.8" x2="437.2" y1="122.2594" y2="122.2594"/><text fill="#000000" font-family="FG Virgil" font-size="10.4" font-weight="bold" lengthAdjust="spacing" textLength="5.6" x="192.4" y="118.0492">2</text><text fill="#000000" font-family="FG Virgil" font-size="10.4" lengthAdjust="spacing" textLength="79.2" x="201.2" y="118.0492">teacherCourses()</text><polygon fill="#181818" points="610.4,144.0922,618.4,147.2922,610.4,150.4922,613.6,147.2922" style="stroke:#181818;stroke-width:0.8000000000000002;"/><line style="stroke:#181818;stroke-width:0.8000000000000002;" x1="450" x2="615.2" y1="147.2922" y2="147.2922"/><text fill="#000000" font-family="FG Virgil" font-size="10.4" font-weight="bold" lengthAdjust="spacing" textLength="5.6" x="455.6" y="143.082">3</text><text fill="#000000" font-family="FG Virgil" font-size="10.4" lengthAdjust="spacing" textLength="60.8" x="464.4" y="143.082">findCourses()</text><polygon fill="#181818" points="748,169.125,756,172.325,748,175.525,751.2,172.325" style="stroke:#181818;stroke-width:0.8000000000000002;"/><line style="stroke:#181818;stroke-width:0.8000000000000002;" x1="628" x2="752.8" y1="172.325" y2="172.325"/><text fill="#000000" font-family="FG Virgil" font-size="10.4" font-weight="bold" lengthAdjust="spacing" textLength="5.6" x="633.6" y="168.1148">4</text><text fill="#000000" font-family="FG Virgil" font-size="10.4" lengthAdjust="spacing" textLength="97.6" x="642.4" y="168.1148">findTeacherCourses()</text><polygon fill="#181818" points="636.8,194.1578,628.8,197.3578,636.8,200.5578,633.6,197.3578" style="stroke:#181818;stroke-width:0.8000000000000002;"/><line style="stroke:#181818;stroke-width:0.8000000000000002;" x1="632" x2="760.8" y1="197.3578" y2="197.3578"/><text fill="#000000" font-family="FG Virgil" font-size="10.4" font-weight="bold" lengthAdjust="spacing" textLength="5.6" x="641.6" y="193.1477">5</text><text fill="#000000" font-family="FG Virgil" font-size="10.4" lengthAdjust="spacing" textLength="83.2" x="650.4" y="193.1477">returns courseList</text><polygon fill="#181818" points="458.8,219.1906,450.8,222.3906,458.8,225.5906,455.6,222.3906" style="stroke:#181818;stroke-width:0.8000000000000002;"/><line style="stroke:#181818;stroke-width:0.8000000000000002;" x1="454" x2="623.2" y1="222.3906" y2="222.3906"/><text fill="#000000" font-family="FG Virgil" font-size="10.4" font-weight="bold" lengthAdjust="spacing" textLength="5.6" x="463.6" y="218.1805">6</text><text fill="#000000" font-family="FG Virgil" font-size="10.4" lengthAdjust="spacing" textLength="83.2" x="472.4" y="218.1805">returns courseList</text><polygon fill="#181818" points="195.6,244.2234,187.6,247.4234,195.6,250.6234,192.4,247.4234" style="stroke:#181818;stroke-width:0.8000000000000002;"/><line style="stroke:#181818;stroke-width:0.8000000000000002;" x1="190.8" x2="445.2" y1="247.4234" y2="247.4234"/><text fill="#000000" font-family="FG Virgil" font-size="10.4" font-weight="bold" lengthAdjust="spacing" textLength="5.6" x="200.4" y="243.2133">7</text><text fill="#000000" font-family="FG Virgil" font-size="10.4" lengthAdjust="spacing" textLength="48" x="209.2" y="243.2133">courseList</text><line style="stroke:#181818;stroke-width:0.8000000000000002;" x1="186.8" x2="220.4" y1="272.4563" y2="272.4563"/><line style="stroke:#181818;stroke-width:0.8000000000000002;" x1="220.4" x2="220.4" y1="272.4563" y2="282.8563"/><line style="stroke:#181818;stroke-width:0.8000000000000002;" x1="187.6" x2="220.4" y1="282.8563" y2="282.8563"/><polygon fill="#181818" points="195.6,279.6563,187.6,282.8563,195.6,286.0563,192.4,282.8563" style="stroke:#181818;stroke-width:0.8000000000000002;"/><text fill="#000000" font-family="FG Virgil" font-size="10.4" font-weight="bold" lengthAdjust="spacing" textLength="5.6" x="192.4" y="268.2461">8</text><text fill="#000000" font-family="FG Virgil" font-size="10.4" lengthAdjust="spacing" textLength="84" x="201.2" y="268.2461">display courseList</text><polygon fill="#181818" points="169.2,318.5219,177.2,321.7219,169.2,324.9219,172.4,321.7219" style="stroke:#181818;stroke-width:0.8000000000000002;"/><line style="stroke:#181818;stroke-width:0.8000000000000002;stroke-dasharray:2.0,2.0;" x1="31.6" x2="174" y1="321.7219" y2="321.7219"/><text fill="#000000" font-family="FG Virgil" font-size="10.4" font-weight="bold" lengthAdjust="spacing" textLength="5.6" x="37.2" y="310.5953">9</text><text fill="#000000" font-family="FG Virgil" font-size="10.4" lengthAdjust="spacing" textLength="89.6" x="46" y="303.6789">provides the course</text><text fill="#000000" font-family="FG Virgil" font-size="10.4" lengthAdjust="spacing" textLength="87.2" x="49.2" y="317.5117">to create the exam</text><polygon fill="#181818" points="40.4,357.3875,32.4,360.5875,40.4,363.7875,37.2,360.5875" style="stroke:#181818;stroke-width:0.8000000000000002;"/><line style="stroke:#181818;stroke-width:0.8000000000000002;stroke-dasharray:2.0,2.0;" x1="35.6" x2="178" y1="360.5875" y2="360.5875"/><text fill="#000000" font-family="FG Virgil" font-size="10.4" font-weight="bold" lengthAdjust="spacing" textLength="11.2" x="45.2" y="349.4609">10</text><text fill="#000000" font-family="FG Virgil" font-size="10.4" lengthAdjust="spacing" textLength="88" x="59.6" y="342.5445">asks to insert a file</text><text fill="#000000" font-family="FG Virgil" font-size="10.4" lengthAdjust="spacing" textLength="110.4" x="62.8" y="356.3773">with the necessary data</text><polygon fill="#181818" points="169.2,396.2531,177.2,399.4531,169.2,402.6531,172.4,399.4531" style="stroke:#181818;stroke-width:0.8000000000000002;"/><line style="stroke:#181818;stroke-width:0.8000000000000002;stroke-dasharray:2.0,2.0;" x1="31.6" x2="174" y1="399.4531" y2="399.4531"/><text fill="#000000" font-family="FG Virgil" font-size="10.4" font-weight="bold" lengthAdjust="spacing" textLength="11.2" x="37.2" y="388.3266">11</text><text fill="#000000" font-family="FG Virgil" font-size="10.4" lengthAdjust="spacing" textLength="110.4" x="51.6" y="381.4102">provides the file with the</text><text fill="#000000" font-family="FG Virgil" font-size="10.4" lengthAdjust="spacing" textLength="71.2" x="54.8" y="395.243">necessary data</text><polygon fill="#181818" points="432.4,421.2859,440.4,424.4859,432.4,427.6859,435.6,424.4859" style="stroke:#181818;stroke-width:0.8000000000000002;"/><line style="stroke:#181818;stroke-width:0.8000000000000002;" x1="186.8" x2="437.2" y1="424.4859" y2="424.4859"/><text fill="#000000" font-family="FG Virgil" font-size="10.4" font-weight="bold" lengthAdjust="spacing" textLength="11.2" x="192.4" y="420.2758">12</text><text fill="#000000" font-family="FG Virgil" font-size="10.4" lengthAdjust="spacing" textLength="225.6" x="206.8" y="420.2758">createAutomatedExam(filePath, selectedCourse)</text><polygon fill="#181818" points="842.8,446.3188,850.8,449.5188,842.8,452.7188,846,449.5188" style="stroke:#181818;stroke-width:0.8000000000000002;"/><line style="stroke:#181818;stroke-width:0.8000000000000002;" x1="450" x2="847.6" y1="449.5188" y2="449.5188"/><text fill="#000000" font-family="FG Virgil" font-size="10.4" font-weight="bold" lengthAdjust="spacing" textLength="11.2" x="455.6" y="445.3086">13</text><text fill="#000000" font-family="FG Virgil" font-size="10.4" lengthAdjust="spacing" textLength="288" x="470" y="445.3086">parseAutomatedExam(filePath, selectedCourse, examCreator)</text><polygon fill="#181818" points="981.2,471.3516,989.2,474.5516,981.2,477.7516,984.4,474.5516" style="stroke:#181818;stroke-width:0.8000000000000002;"/><line style="stroke:#181818;stroke-width:0.8000000000000002;" x1="860.4" x2="986" y1="474.5516" y2="474.5516"/><text fill="#000000" font-family="FG Virgil" font-size="10.4" font-weight="bold" lengthAdjust="spacing" textLength="11.2" x="866" y="470.3414">14</text><text fill="#000000" font-family="FG Virgil" font-size="10.4" lengthAdjust="spacing" textLength="41.6" x="880.4" y="470.3414">visit(tree)</text><polygon fill="#181818" points="977.2,496.3844,985.2,499.5844,977.2,502.7844,980.4,499.5844" style="stroke:#181818;stroke-width:0.8000000000000002;"/><line style="stroke:#181818;stroke-width:0.8000000000000002;" x1="860.4" x2="982" y1="499.5844" y2="499.5844"/><text fill="#000000" font-family="FG Virgil" font-size="10.4" font-weight="bold" lengthAdjust="spacing" textLength="11.2" x="866" y="495.3742">15</text><text fill="#000000" font-family="FG Virgil" font-size="10.4" lengthAdjust="spacing" textLength="80" x="880.4" y="495.3742">getExamBuilder()</text><polygon fill="#181818" points="869.2,521.4172,861.2,524.6172,869.2,527.8172,866,524.6172" style="stroke:#181818;stroke-width:0.8000000000000002;"/><line style="stroke:#181818;stroke-width:0.8000000000000002;" x1="864.4" x2="990" y1="524.6172" y2="524.6172"/><text fill="#000000" font-family="FG Virgil" font-size="10.4" font-weight="bold" lengthAdjust="spacing" textLength="11.2" x="874" y="520.407">16</text><text fill="#000000" font-family="FG Virgil" font-size="10.4" lengthAdjust="spacing" textLength="92.8" x="888.4" y="520.407">returns examBuilder</text><polygon fill="#181818" points="1114.8,546.45,1122.8,549.65,1114.8,552.85,1118,549.65" style="stroke:#181818;stroke-width:0.8000000000000002;"/><line style="stroke:#181818;stroke-width:0.8000000000000002;" x1="860.4" x2="1119.6" y1="549.65" y2="549.65"/><text fill="#000000" font-family="FG Virgil" font-size="10.4" font-weight="bold" lengthAdjust="spacing" textLength="11.2" x="866" y="545.4398">17</text><text fill="#000000" font-family="FG Virgil" font-size="10.4" lengthAdjust="spacing" textLength="92.8" x="880.4" y="545.4398">withCreator(teacher)</text><polygon fill="#181818" points="1114.8,571.4828,1122.8,574.6828,1114.8,577.8828,1118,574.6828" style="stroke:#181818;stroke-width:0.8000000000000002;"/><line style="stroke:#181818;stroke-width:0.8000000000000002;" x1="860.4" x2="1119.6" y1="574.6828" y2="574.6828"/><text fill="#000000" font-family="FG Virgil" font-size="10.4" font-weight="bold" lengthAdjust="spacing" textLength="11.2" x="866" y="570.4727">18</text><text fill="#000000" font-family="FG Virgil" font-size="10.4" lengthAdjust="spacing" textLength="129.6" x="880.4" y="570.4727">withCourse(selectedCourse)</text><polygon fill="#181818" points="1110.8,596.5156,1118.8,599.7156,1110.8,602.9156,1114,599.7156" style="stroke:#181818;stroke-width:0.8000000000000002;"/><line style="stroke:#181818;stroke-width:0.8000000000000002;" x1="860.4" x2="1115.6" y1="599.7156" y2="599.7156"/><text fill="#000000" font-family="FG Virgil" font-size="10.4" font-weight="bold" lengthAdjust="spacing" textLength="11.2" x="866" y="595.5055">19</text><text fill="#000000" font-family="FG Virgil" font-size="10.4" lengthAdjust="spacing" textLength="28" x="880.4" y="595.5055">build()</text><polygon fill="#181818" points="1247.6,621.5484,1255.6,624.7484,1247.6,627.9484,1250.8,624.7484" style="stroke:#181818;stroke-width:0.8000000000000002;"/><line style="stroke:#181818;stroke-width:0.8000000000000002;" x1="1128.4" x2="1252.4" y1="624.7484" y2="624.7484"/><text fill="#000000" font-family="FG Virgil" font-size="10.4" font-weight="bold" lengthAdjust="spacing" textLength="11.2" x="1134" y="620.5383">20</text><text fill="#000000" font-family="FG Virgil" font-size="10.4" lengthAdjust="spacing" textLength="99.2" x="1148.4" y="620.5383">findByTitle(examTitle)</text><polygon fill="#181818" points="1137.2,646.5813,1129.2,649.7813,1137.2,652.9813,1134,649.7813" style="stroke:#181818;stroke-width:0.8000000000000002;"/><line style="stroke:#181818;stroke-width:0.8000000000000002;" x1="1132.4" x2="1260.4" y1="649.7813" y2="649.7813"/><text fill="#000000" font-family="FG Virgil" font-size="10.4" font-weight="bold" lengthAdjust="spacing" textLength="11.2" x="1142" y="645.5711">21</text><text fill="#000000" font-family="FG Virgil" font-size="10.4" lengthAdjust="spacing" textLength="51.2" x="1156.4" y="645.5711">returns null</text><polygon fill="#181818" points="1349.2,671.6141,1357.2,674.8141,1349.2,678.0141,1352.4,674.8141" style="stroke:#181818;stroke-width:0.8000000000000002;"/><line style="stroke:#181818;stroke-width:0.8000000000000002;" x1="1128.4" x2="1354" y1="674.8141" y2="674.8141"/><text fill="#000000" font-family="FG Virgil" font-size="10.4" font-weight="bold" lengthAdjust="spacing" textLength="11.2" x="1134" y="670.6039">22</text><text fill="#000000" font-family="FG Virgil" font-size="10.4" lengthAdjust="spacing" textLength="28.8" x="1148.4" y="670.6039">create</text><polygon fill="#181818" points="869.2,696.6469,861.2,699.8469,869.2,703.0469,866,699.8469" style="stroke:#181818;stroke-width:0.8000000000000002;"/><line style="stroke:#181818;stroke-width:0.8000000000000002;" x1="864.4" x2="1123.6" y1="699.8469" y2="699.8469"/><text fill="#000000" font-family="FG Virgil" font-size="10.4" font-weight="bold" lengthAdjust="spacing" textLength="11.2" x="874" y="695.6367">23</text><text fill="#000000" font-family="FG Virgil" font-size="10.4" lengthAdjust="spacing" textLength="60.8" x="888.4" y="695.6367">returns exam</text><polygon fill="#181818" points="458.8,721.6797,450.8,724.8797,458.8,728.0797,455.6,724.8797" style="stroke:#181818;stroke-width:0.8000000000000002;"/><line style="stroke:#181818;stroke-width:0.8000000000000002;" x1="454" x2="855.6" y1="724.8797" y2="724.8797"/><text fill="#000000" font-family="FG Virgil" font-size="10.4" font-weight="bold" lengthAdjust="spacing" textLength="11.2" x="463.6" y="720.6695">24</text><text fill="#000000" font-family="FG Virgil" font-size="10.4" lengthAdjust="spacing" textLength="60.8" x="478" y="720.6695">returns exam</text><polygon fill="#181818" points="1247.6,746.7125,1255.6,749.9125,1247.6,753.1125,1250.8,749.9125" style="stroke:#181818;stroke-width:0.8000000000000002;"/><line style="stroke:#181818;stroke-width:0.8000000000000002;" x1="450" x2="1252.4" y1="749.9125" y2="749.9125"/><text fill="#000000" font-family="FG Virgil" font-size="10.4" font-weight="bold" lengthAdjust="spacing" textLength="11.2" x="455.6" y="745.7023">25</text><text fill="#000000" font-family="FG Virgil" font-size="10.4" lengthAdjust="spacing" textLength="52.8" x="470" y="745.7023">save(exam)</text><polygon fill="#181818" points="458.8,771.7453,450.8,774.9453,458.8,778.1453,455.6,774.9453" style="stroke:#181818;stroke-width:0.8000000000000002;"/><line style="stroke:#181818;stroke-width:0.8000000000000002;" x1="454" x2="1260.4" y1="774.9453" y2="774.9453"/><text fill="#000000" font-family="FG Virgil" font-size="10.4" font-weight="bold" lengthAdjust="spacing" textLength="11.2" x="463.6" y="770.7352">26</text><text fill="#000000" font-family="FG Virgil" font-size="10.4" lengthAdjust="spacing" textLength="74.4" x="478" y="770.7352">returns success</text><polygon fill="#181818" points="195.6,796.7781,187.6,799.9781,195.6,803.1781,192.4,799.9781" style="stroke:#181818;stroke-width:0.8000000000000002;"/><line style="stroke:#181818;stroke-width:0.8000000000000002;" x1="190.8" x2="445.2" y1="799.9781" y2="799.9781"/><text fill="#000000" font-family="FG Virgil" font-size="10.4" font-weight="bold" lengthAdjust="spacing" textLength="11.2" x="200.4" y="795.768">27</text><text fill="#000000" font-family="FG Virgil" font-size="10.4" lengthAdjust="spacing" textLength="74.4" x="214.8" y="795.768">returns success</text><polygon fill="#181818" points="40.4,821.8109,32.4,825.0109,40.4,828.2109,37.2,825.0109" style="stroke:#181818;stroke-width:0.8000000000000002;"/><line style="stroke:#181818;stroke-width:0.8000000000000002;stroke-dasharray:2.0,2.0;" x1="35.6" x2="182" y1="825.0109" y2="825.0109"/><text fill="#000000" font-family="FG Virgil" font-size="10.4" font-weight="bold" lengthAdjust="spacing" textLength="11.2" x="45.2" y="820.8008">28</text><text fill="#000000" font-family="FG Virgil" font-size="10.4" lengthAdjust="spacing" textLength="72" x="59.6" y="820.8008">shows success</text><!--SRC=[ZPJFRk8m4CRlVWgh9ogrBr1LI92bMoIqOY7qj9UfCoLMZHtP3btUViV60IU5Ta-bzk_xvfydxbtg1Ypi-Cve8sfhTiYzRP6vqqq3uXsskFO7XToYyDbTXM_GAlzajFy597twoL-atKgLCQw6odn8lULle1mo1gqtkjszecKWlB6yH10rMWwEbun4NWhPWFRyfh087YSasD7VQlONTflvJG0tS_xuk9cFnzyA2ahE6gNGHc5Ha73ID4eAyDBeeSD2EfyIAanh7Rg1mUApGGKUNi4XnO-I5JR6IIhjS0ov8iNvR1Wn9FaCkke2FAy9NwFTIu6Ns2LGYD8YliXe64NByhgeruvfArML8isc94e7lJ82E2XYzdKHlHX70V4_w4o63h4mQhadW4PSyllxSPZW0v-uTyUzuIBEZOFcIFepl9apueYciJrmtvlBwFRC5GKZWhX5uDwahYv0Yu8j8aG3EKBbTSCL8wepjEXRgnqN4GnFX5MOiydtUtRH9HhBl-9NfA8ZKqdNA3ZaRDR0nfgzh92QM6D2_kYie-4ujZGuagWa3QIcI-tGUWxK2XLK7zBNKQ1He7DW3pmyYQlXWkma8lr0bWrEV5xBKL0lmTTttA6YpmgcaLsQAgq4nGxl_lyyxcBDyMDWR6Rul6PaHORBq8Tzs9-HfqswpO-twBD5oH_5icH4TFbqWyOpd4-HuEo_tzCKOZPzY3rBoOtIcxuTNiSwHiFMT125VmqXy-ncKqONuRfxtjD3ARt2KSWm_ihf5PkjJcPTBRfLAayxK4VFqnJJmQSMz6HTjRsD658qZUDuOy8EziTCBoNPyt6j20zja6UsLb-0QRVI9hZQV9ondACFppy0]--></g></svg>