<?xml version="1.0" encoding="us-ascii" standalone="no"?><svg xmlns="http://www.w3.org/2000/svg" xmlns:xlink="http://www.w3.org/1999/xlink" contentStyleType="text/css" height="537px" preserveAspectRatio="none" style="width:834px;height:537px;background:#FFFFFF;" version="1.1" viewBox="0 0 834 537" width="834px" zoomAndPan="magnify"><defs/><g><!--cluster http--><g id="cluster_http"><rect fill="none" height="50.5" rx="1.25" ry="1.25" style="stroke:#000000;stroke-width:0.75;" width="131" x="66.25" y="411"/><text fill="#000000" font-family="FG Virgil" font-size="7" font-weight="bold" lengthAdjust="spacing" textLength="14" x="124.75" y="419.5537">http</text></g><!--cluster boardmanagement--><g id="cluster_boardmanagement"><rect fill="none" height="227.5" rx="1.25" ry="1.25" style="stroke:#000000;stroke-width:0.75;" width="571" x="260" y="306.5"/><text fill="#000000" font-family="FG Virgil" font-size="7" font-weight="bold" lengthAdjust="spacing" textLength="65.5" x="512.75" y="315.0537">boardmanagement</text></g><!--cluster application--><g id="cluster_application"><rect fill="none" height="120.5" rx="1.25" ry="1.25" style="stroke:#000000;stroke-width:0.75;" width="547" x="272" y="401.5"/><text fill="#000000" font-family="FG Virgil" font-size="7" font-weight="bold" lengthAdjust="spacing" textLength="38.5" x="526.25" y="410.0537">application</text></g><!--cluster domain--><g id="cluster_domain"><rect fill="none" height="60.5" rx="1.25" ry="1.25" style="stroke:#000000;stroke-width:0.75;" width="130" x="379.5" y="329"/><text fill="#000000" font-family="FG Virgil" font-size="7" font-weight="bold" lengthAdjust="spacing" textLength="25.5" x="431.75" y="337.5537">domain</text></g><!--cluster postitmanagement--><g id="cluster_postitmanagement"><rect fill="none" height="291" rx="1.25" ry="1.25" style="stroke:#000000;stroke-width:0.75;" width="784.5" x="3.5" y="3.5"/><text fill="#000000" font-family="FG Virgil" font-size="7" font-weight="bold" lengthAdjust="spacing" textLength="65" x="363.25" y="12.0537">postitmanagement</text></g><!--cluster application--><g id="cluster_application"><rect fill="none" height="111.5" rx="1.25" ry="1.25" style="stroke:#000000;stroke-width:0.75;" width="232.5" x="15.5" y="166.5"/><text fill="#000000" font-family="FG Virgil" font-size="7" font-weight="bold" lengthAdjust="spacing" textLength="38.5" x="112.5" y="175.0537">application</text></g><!--cluster domain--><g id="cluster_domain"><rect fill="none" height="175" rx="1.25" ry="1.25" style="stroke:#000000;stroke-width:0.75;" width="403.5" x="372.5" y="26"/><text fill="#000000" font-family="FG Virgil" font-size="7" font-weight="bold" lengthAdjust="spacing" textLength="25.5" x="561.5" y="34.5537">domain</text></g><!--cluster repository--><g id="cluster_repository"><rect fill="none" height="69.5" rx="1.25" ry="1.25" style="stroke:#000000;stroke-width:0.75;" width="116.5" x="386.25" y="213"/><text fill="#000000" font-family="FG Virgil" font-size="7" font-weight="bold" lengthAdjust="spacing" textLength="36" x="426.5" y="221.5537">repository</text></g><!--class CreatePostItEndpointProcessor--><g id="elem_CreatePostItEndpointProcessor"><rect codeLine="10" fill="#F1F1F1" height="24" id="CreatePostItEndpointProcessor" rx="1.25" ry="1.25" style="stroke:#181818;stroke-width:0.25;" width="115" x="74.25" y="429.5"/><ellipse cx="81.75" cy="437.5" fill="#ADD1B2" rx="5.5" ry="5.5" style="stroke:#181818;stroke-width:0.5;"/><path d="M83.1328,435.4375 Q83.2109,435.3281 83.3047,435.2734 Q83.3984,435.2188 83.5078,435.2188 Q83.6953,435.2188 83.8125,435.3516 Q83.9297,435.4766 83.9297,435.7813 L83.9297,436.5078 Q83.9297,436.8125 83.8125,436.9453 Q83.6953,437.0781 83.5078,437.0781 Q83.3359,437.0781 83.2344,436.9766 Q83.1328,436.8828 83.0781,436.625 Q83.0547,436.4453 82.9609,436.3516 Q82.7969,436.1641 82.4922,436.0547 Q82.1875,435.9453 81.875,435.9453 Q81.4922,435.9453 81.1719,436.1094 Q80.8594,436.2734 80.6094,436.6484 Q80.3672,437.0234 80.3672,437.5391 L80.3672,438.0859 Q80.3672,438.7031 80.8125,439.1172 Q81.2578,439.5234 82.0547,439.5234 Q82.5234,439.5234 82.8516,439.3984 Q83.0469,439.3203 83.2578,439.1016 Q83.3906,438.9688 83.4609,438.9297 Q83.5391,438.8906 83.6406,438.8906 Q83.8047,438.8906 83.9297,439.0234 Q84.0625,439.1484 84.0625,439.3203 Q84.0625,439.4922 83.8906,439.6953 Q83.6406,439.9844 83.2422,440.1484 Q82.7031,440.375 82.0547,440.375 Q81.2969,440.375 80.6953,440.0625 Q80.2031,439.8125 79.8594,439.2813 Q79.5156,438.7422 79.5156,438.1016 L79.5156,437.5234 Q79.5156,436.8594 79.8203,436.2891 Q80.1328,435.7109 80.6797,435.4063 Q81.2266,435.0938 81.8438,435.0938 Q82.2109,435.0938 82.5313,435.1797 Q82.8594,435.2578 83.1328,435.4375 Z " fill="#000000"/><text fill="#000000" font-family="FG Virgil" font-size="7" lengthAdjust="spacing" textLength="99" x="88.75" y="440.3984">CreatePostItEndpointProcessor</text><line style="stroke:#181818;stroke-width:0.25;" x1="74.75" x2="188.75" y1="445.5" y2="445.5"/><line style="stroke:#181818;stroke-width:0.25;" x1="74.75" x2="188.75" y1="449.5" y2="449.5"/></g><!--class CreatePostItController--><g id="elem_CreatePostItController"><rect codeLine="18" fill="#F1F1F1" height="42.6211" id="CreatePostItController" rx="1.25" ry="1.25" style="stroke:#181818;stroke-width:0.25;" width="329" x="280" y="420.25"/><ellipse cx="407.375" cy="428.25" fill="#ADD1B2" rx="5.5" ry="5.5" style="stroke:#181818;stroke-width:0.5;"/><path d="M408.7578,426.1875 Q408.8359,426.0781 408.9297,426.0234 Q409.0234,425.9688 409.1328,425.9688 Q409.3203,425.9688 409.4375,426.1016 Q409.5547,426.2266 409.5547,426.5313 L409.5547,427.2578 Q409.5547,427.5625 409.4375,427.6953 Q409.3203,427.8281 409.1328,427.8281 Q408.9609,427.8281 408.8594,427.7266 Q408.7578,427.6328 408.7031,427.375 Q408.6797,427.1953 408.5859,427.1016 Q408.4219,426.9141 408.1172,426.8047 Q407.8125,426.6953 407.5,426.6953 Q407.1172,426.6953 406.7969,426.8594 Q406.4844,427.0234 406.2344,427.3984 Q405.9922,427.7734 405.9922,428.2891 L405.9922,428.8359 Q405.9922,429.4531 406.4375,429.8672 Q406.8828,430.2734 407.6797,430.2734 Q408.1484,430.2734 408.4766,430.1484 Q408.6719,430.0703 408.8828,429.8516 Q409.0156,429.7188 409.0859,429.6797 Q409.1641,429.6406 409.2656,429.6406 Q409.4297,429.6406 409.5547,429.7734 Q409.6875,429.8984 409.6875,430.0703 Q409.6875,430.2422 409.5156,430.4453 Q409.2656,430.7344 408.8672,430.8984 Q408.3281,431.125 407.6797,431.125 Q406.9219,431.125 406.3203,430.8125 Q405.8281,430.5625 405.4844,430.0313 Q405.1406,429.4922 405.1406,428.8516 L405.1406,428.2734 Q405.1406,427.6094 405.4453,427.0391 Q405.7578,426.4609 406.3047,426.1563 Q406.8516,425.8438 407.4688,425.8438 Q407.8359,425.8438 408.1563,425.9297 Q408.4844,426.0078 408.7578,426.1875 Z " fill="#000000"/><text fill="#000000" font-family="FG Virgil" font-size="7" lengthAdjust="spacing" textLength="70" x="417.625" y="431.1484">CreatePostItController</text><line style="stroke:#181818;stroke-width:0.25;" x1="280.5" x2="608.5" y1="436.25" y2="436.25"/><line style="stroke:#181818;stroke-width:0.25;" x1="280.5" x2="608.5" y1="440.25" y2="440.25"/><ellipse cx="285.5" cy="447.6553" fill="#84BE84" rx="1.5" ry="1.5" style="stroke:#038048;stroke-width:0.5;"/><text fill="#000000" font-family="FG Virgil" font-size="7" lengthAdjust="spacing" textLength="316" x="290" y="449.8037">ScheduleMeetingController(postItRepository, boardLogger, boardSynchronizer, postItManager): void</text><ellipse cx="285.5" cy="456.9658" fill="#84BE84" rx="1.5" ry="1.5" style="stroke:#038048;stroke-width:0.5;"/><text fill="#000000" font-family="FG Virgil" font-size="7" lengthAdjust="spacing" textLength="203.5" x="290" y="459.1143">createPostIt(board, content, color, row, column, boardUser): void</text></g><!--class IBoardSynchronizer--><g id="elem_IBoardSynchronizer"><rect codeLine="23" fill="#F1F1F1" height="42.6211" id="IBoardSynchronizer" rx="1.25" ry="1.25" style="stroke:#181818;stroke-width:0.25;" width="172" x="639" y="471.25"/><ellipse cx="691.625" cy="479.25" fill="#B4A7E5" rx="5.5" ry="5.5" style="stroke:#181818;stroke-width:0.5;"/><path d="M692.1016,477.5703 L692.1016,480.8984 L692.9609,480.8984 Q693.2656,480.8984 693.3984,481.0156 Q693.5313,481.1328 693.5313,481.3281 Q693.5313,481.5156 693.3984,481.6328 Q693.2656,481.75 692.9609,481.75 L690.3906,481.75 Q690.0859,481.75 689.9531,481.6328 Q689.8203,481.5156 689.8203,481.3203 Q689.8203,481.1328 689.9531,481.0156 Q690.0859,480.8984 690.3906,480.8984 L691.25,480.8984 L691.25,477.5703 L690.3906,477.5703 Q690.0859,477.5703 689.9531,477.4531 Q689.8203,477.3359 689.8203,477.1406 Q689.8203,476.9531 689.9531,476.8359 Q690.0859,476.7188 690.3906,476.7188 L692.9609,476.7188 Q693.2656,476.7188 693.3984,476.8359 Q693.5313,476.9531 693.5313,477.1406 Q693.5313,477.3359 693.3984,477.4531 Q693.2656,477.5703 692.9609,477.5703 L692.1016,477.5703 Z " fill="#000000"/><text fill="#000000" font-family="FG Virgil" font-size="7" font-style="italic" lengthAdjust="spacing" textLength="62.5" x="701.875" y="482.1484">IBoardSynchronizer</text><line style="stroke:#181818;stroke-width:0.25;" x1="639.5" x2="810.5" y1="487.25" y2="487.25"/><line style="stroke:#181818;stroke-width:0.25;" x1="639.5" x2="810.5" y1="491.25" y2="491.25"/><ellipse cx="644.5" cy="498.6553" fill="#84BE84" rx="1.5" ry="1.5" style="stroke:#038048;stroke-width:0.5;"/><text fill="#000000" font-family="FG Virgil" font-size="7" lengthAdjust="spacing" textLength="159" x="649" y="500.8037">createBoardCellLock(boardId, row, column): String</text><ellipse cx="644.5" cy="507.9658" fill="#84BE84" rx="1.5" ry="1.5" style="stroke:#038048;stroke-width:0.5;"/><text fill="#000000" font-family="FG Virgil" font-size="7" lengthAdjust="spacing" textLength="110" x="649" y="510.1143">getBoardCellLock(lockKey): Object</text></g><!--class IBoardLogger--><g id="elem_IBoardLogger"><rect codeLine="28" fill="#F1F1F1" height="33.3105" id="IBoardLogger" rx="1.25" ry="1.25" style="stroke:#181818;stroke-width:0.25;" width="107.5" x="671.25" y="420.25"/><ellipse cx="701.125" cy="428.25" fill="#B4A7E5" rx="5.5" ry="5.5" style="stroke:#181818;stroke-width:0.5;"/><path d="M701.6016,426.5703 L701.6016,429.8984 L702.4609,429.8984 Q702.7656,429.8984 702.8984,430.0156 Q703.0313,430.1328 703.0313,430.3281 Q703.0313,430.5156 702.8984,430.6328 Q702.7656,430.75 702.4609,430.75 L699.8906,430.75 Q699.5859,430.75 699.4531,430.6328 Q699.3203,430.5156 699.3203,430.3203 Q699.3203,430.1328 699.4531,430.0156 Q699.5859,429.8984 699.8906,429.8984 L700.75,429.8984 L700.75,426.5703 L699.8906,426.5703 Q699.5859,426.5703 699.4531,426.4531 Q699.3203,426.3359 699.3203,426.1406 Q699.3203,425.9531 699.4531,425.8359 Q699.5859,425.7188 699.8906,425.7188 L702.4609,425.7188 Q702.7656,425.7188 702.8984,425.8359 Q703.0313,425.9531 703.0313,426.1406 Q703.0313,426.3359 702.8984,426.4531 Q702.7656,426.5703 702.4609,426.5703 L701.6016,426.5703 Z " fill="#000000"/><text fill="#000000" font-family="FG Virgil" font-size="7" font-style="italic" lengthAdjust="spacing" textLength="43.5" x="711.375" y="431.1484">IBoardLogger</text><line style="stroke:#181818;stroke-width:0.25;" x1="671.75" x2="778.25" y1="436.25" y2="436.25"/><line style="stroke:#181818;stroke-width:0.25;" x1="671.75" x2="778.25" y1="440.25" y2="440.25"/><ellipse cx="676.75" cy="447.6553" fill="#84BE84" rx="1.5" ry="1.5" style="stroke:#038048;stroke-width:0.5;"/><text fill="#000000" font-family="FG Virgil" font-size="7" lengthAdjust="spacing" textLength="94.5" x="681.25" y="449.8037">logPostItCreation(board): void</text></g><!--class Board--><g id="elem_Board"><rect codeLine="35" fill="#F1F1F1" height="33.3105" id="Board" rx="1.25" ry="1.25" style="stroke:#181818;stroke-width:0.25;" width="114" x="387.5" y="347.75"/><ellipse cx="432.875" cy="355.75" fill="#ADD1B2" rx="5.5" ry="5.5" style="stroke:#181818;stroke-width:0.5;"/><path d="M434.2578,353.6875 Q434.3359,353.5781 434.4297,353.5234 Q434.5234,353.4688 434.6328,353.4688 Q434.8203,353.4688 434.9375,353.6016 Q435.0547,353.7266 435.0547,354.0313 L435.0547,354.7578 Q435.0547,355.0625 434.9375,355.1953 Q434.8203,355.3281 434.6328,355.3281 Q434.4609,355.3281 434.3594,355.2266 Q434.2578,355.1328 434.2031,354.875 Q434.1797,354.6953 434.0859,354.6016 Q433.9219,354.4141 433.6172,354.3047 Q433.3125,354.1953 433,354.1953 Q432.6172,354.1953 432.2969,354.3594 Q431.9844,354.5234 431.7344,354.8984 Q431.4922,355.2734 431.4922,355.7891 L431.4922,356.3359 Q431.4922,356.9531 431.9375,357.3672 Q432.3828,357.7734 433.1797,357.7734 Q433.6484,357.7734 433.9766,357.6484 Q434.1719,357.5703 434.3828,357.3516 Q434.5156,357.2188 434.5859,357.1797 Q434.6641,357.1406 434.7656,357.1406 Q434.9297,357.1406 435.0547,357.2734 Q435.1875,357.3984 435.1875,357.5703 Q435.1875,357.7422 435.0156,357.9453 Q434.7656,358.2344 434.3672,358.3984 Q433.8281,358.625 433.1797,358.625 Q432.4219,358.625 431.8203,358.3125 Q431.3281,358.0625 430.9844,357.5313 Q430.6406,356.9922 430.6406,356.3516 L430.6406,355.7734 Q430.6406,355.1094 430.9453,354.5391 Q431.2578,353.9609 431.8047,353.6563 Q432.3516,353.3438 432.9688,353.3438 Q433.3359,353.3438 433.6563,353.4297 Q433.9844,353.5078 434.2578,353.6875 Z " fill="#000000"/><text fill="#000000" font-family="FG Virgil" font-size="7" lengthAdjust="spacing" textLength="19" x="443.125" y="358.6484">Board</text><line style="stroke:#181818;stroke-width:0.25;" x1="388" x2="501" y1="363.75" y2="363.75"/><line style="stroke:#181818;stroke-width:0.25;" x1="388" x2="501" y1="367.75" y2="367.75"/><ellipse cx="393" cy="375.1553" fill="#84BE84" rx="1.5" ry="1.5" style="stroke:#038048;stroke-width:0.5;"/><text fill="#000000" font-family="FG Virgil" font-size="7" lengthAdjust="spacing" textLength="101" x="397.5" y="377.3037">findCell(row, column): BoardCell</text></g><!--class PostItManager--><g id="elem_PostItManager"><rect codeLine="46" fill="#F1F1F1" height="33.3105" id="PostItManager" rx="1.25" ry="1.25" style="stroke:#181818;stroke-width:0.25;" width="216.5" x="23.5" y="236.25"/><ellipse cx="106.875" cy="244.25" fill="#ADD1B2" rx="5.5" ry="5.5" style="stroke:#181818;stroke-width:0.5;"/><path d="M108.2578,242.1875 Q108.3359,242.0781 108.4297,242.0234 Q108.5234,241.9688 108.6328,241.9688 Q108.8203,241.9688 108.9375,242.1016 Q109.0547,242.2266 109.0547,242.5313 L109.0547,243.2578 Q109.0547,243.5625 108.9375,243.6953 Q108.8203,243.8281 108.6328,243.8281 Q108.4609,243.8281 108.3594,243.7266 Q108.2578,243.6328 108.2031,243.375 Q108.1797,243.1953 108.0859,243.1016 Q107.9219,242.9141 107.6172,242.8047 Q107.3125,242.6953 107,242.6953 Q106.6172,242.6953 106.2969,242.8594 Q105.9844,243.0234 105.7344,243.3984 Q105.4922,243.7734 105.4922,244.2891 L105.4922,244.8359 Q105.4922,245.4531 105.9375,245.8672 Q106.3828,246.2734 107.1797,246.2734 Q107.6484,246.2734 107.9766,246.1484 Q108.1719,246.0703 108.3828,245.8516 Q108.5156,245.7188 108.5859,245.6797 Q108.6641,245.6406 108.7656,245.6406 Q108.9297,245.6406 109.0547,245.7734 Q109.1875,245.8984 109.1875,246.0703 Q109.1875,246.2422 109.0156,246.4453 Q108.7656,246.7344 108.3672,246.8984 Q107.8281,247.125 107.1797,247.125 Q106.4219,247.125 105.8203,246.8125 Q105.3281,246.5625 104.9844,246.0313 Q104.6406,245.4922 104.6406,244.8516 L104.6406,244.2734 Q104.6406,243.6094 104.9453,243.0391 Q105.2578,242.4609 105.8047,242.1563 Q106.3516,241.8438 106.9688,241.8438 Q107.3359,241.8438 107.6563,241.9297 Q107.9844,242.0078 108.2578,242.1875 Z " fill="#000000"/><text fill="#000000" font-family="FG Virgil" font-size="7" lengthAdjust="spacing" textLength="45.5" x="117.125" y="247.1484">PostItManager</text><line style="stroke:#181818;stroke-width:0.25;" x1="24" x2="239.5" y1="252.25" y2="252.25"/><line style="stroke:#181818;stroke-width:0.25;" x1="24" x2="239.5" y1="256.25" y2="256.25"/><ellipse cx="29" cy="263.6553" fill="#84BE84" rx="1.5" ry="1.5" style="stroke:#038048;stroke-width:0.5;"/><text fill="#000000" font-family="FG Virgil" font-size="7" lengthAdjust="spacing" textLength="203.5" x="33.5" y="265.8037">createPostIt(board, row, column, boardUser, content, color): void</text></g><!--class IPostItProvider--><g id="elem_IPostItProvider"><rect codeLine="50" fill="#F1F1F1" height="33.3105" id="IPostItProvider" rx="1.25" ry="1.25" style="stroke:#181818;stroke-width:0.25;" width="87" x="88.25" y="185.25"/><ellipse cx="107" cy="193.25" fill="#B4A7E5" rx="5.5" ry="5.5" style="stroke:#181818;stroke-width:0.5;"/><path d="M107.4766,191.5703 L107.4766,194.8984 L108.3359,194.8984 Q108.6406,194.8984 108.7734,195.0156 Q108.9063,195.1328 108.9063,195.3281 Q108.9063,195.5156 108.7734,195.6328 Q108.6406,195.75 108.3359,195.75 L105.7656,195.75 Q105.4609,195.75 105.3281,195.6328 Q105.1953,195.5156 105.1953,195.3203 Q105.1953,195.1328 105.3281,195.0156 Q105.4609,194.8984 105.7656,194.8984 L106.625,194.8984 L106.625,191.5703 L105.7656,191.5703 Q105.4609,191.5703 105.3281,191.4531 Q105.1953,191.3359 105.1953,191.1406 Q105.1953,190.9531 105.3281,190.8359 Q105.4609,190.7188 105.7656,190.7188 L108.3359,190.7188 Q108.6406,190.7188 108.7734,190.8359 Q108.9063,190.9531 108.9063,191.1406 Q108.9063,191.3359 108.7734,191.4531 Q108.6406,191.5703 108.3359,191.5703 L107.4766,191.5703 Z " fill="#000000"/><text fill="#000000" font-family="FG Virgil" font-size="7" font-style="italic" lengthAdjust="spacing" textLength="46" x="116.5" y="196.1484">IPostItProvider</text><line style="stroke:#181818;stroke-width:0.25;" x1="88.75" x2="174.75" y1="201.25" y2="201.25"/><line style="stroke:#181818;stroke-width:0.25;" x1="88.75" x2="174.75" y1="205.25" y2="205.25"/><ellipse cx="93.75" cy="212.6553" fill="#84BE84" rx="1.5" ry="1.5" style="stroke:#038048;stroke-width:0.5;"/><text fill="#000000" font-family="FG Virgil" font-size="7" lengthAdjust="spacing" textLength="74" x="98.25" y="214.8037">hasPostIt(cell): boolean</text></g><!--class PostIt--><g id="elem_PostIt"><rect codeLine="58" fill="#F1F1F1" height="42.6211" id="PostIt" rx="1.25" ry="1.25" style="stroke:#181818;stroke-width:0.25;" width="128" x="380.5" y="150.25"/><ellipse cx="433.625" cy="158.25" fill="#ADD1B2" rx="5.5" ry="5.5" style="stroke:#181818;stroke-width:0.5;"/><path d="M435.0078,156.1875 Q435.0859,156.0781 435.1797,156.0234 Q435.2734,155.9688 435.3828,155.9688 Q435.5703,155.9688 435.6875,156.1016 Q435.8047,156.2266 435.8047,156.5313 L435.8047,157.2578 Q435.8047,157.5625 435.6875,157.6953 Q435.5703,157.8281 435.3828,157.8281 Q435.2109,157.8281 435.1094,157.7266 Q435.0078,157.6328 434.9531,157.375 Q434.9297,157.1953 434.8359,157.1016 Q434.6719,156.9141 434.3672,156.8047 Q434.0625,156.6953 433.75,156.6953 Q433.3672,156.6953 433.0469,156.8594 Q432.7344,157.0234 432.4844,157.3984 Q432.2422,157.7734 432.2422,158.2891 L432.2422,158.8359 Q432.2422,159.4531 432.6875,159.8672 Q433.1328,160.2734 433.9297,160.2734 Q434.3984,160.2734 434.7266,160.1484 Q434.9219,160.0703 435.1328,159.8516 Q435.2656,159.7188 435.3359,159.6797 Q435.4141,159.6406 435.5156,159.6406 Q435.6797,159.6406 435.8047,159.7734 Q435.9375,159.8984 435.9375,160.0703 Q435.9375,160.2422 435.7656,160.4453 Q435.5156,160.7344 435.1172,160.8984 Q434.5781,161.125 433.9297,161.125 Q433.1719,161.125 432.5703,160.8125 Q432.0781,160.5625 431.7344,160.0313 Q431.3906,159.4922 431.3906,158.8516 L431.3906,158.2734 Q431.3906,157.6094 431.6953,157.0391 Q432.0078,156.4609 432.5547,156.1563 Q433.1016,155.8438 433.7188,155.8438 Q434.0859,155.8438 434.4063,155.9297 Q434.7344,156.0078 435.0078,156.1875 Z " fill="#000000"/><text fill="#000000" font-family="FG Virgil" font-size="7" lengthAdjust="spacing" textLength="17.5" x="443.875" y="161.1484">PostIt</text><line style="stroke:#181818;stroke-width:0.25;" x1="381" x2="508" y1="166.25" y2="166.25"/><line style="stroke:#181818;stroke-width:0.25;" x1="381" x2="508" y1="170.25" y2="170.25"/><ellipse cx="386" cy="177.6553" fill="#84BE84" rx="1.5" ry="1.5" style="stroke:#038048;stroke-width:0.5;"/><text fill="#000000" font-family="FG Virgil" font-size="7" lengthAdjust="spacing" textLength="115" x="390.5" y="179.8037">PostIt(cell, content, color, user): void</text><ellipse cx="386" cy="186.9658" fill="#84BE84" rx="1.5" ry="1.5" style="stroke:#038048;stroke-width:0.5;"/><text fill="#000000" font-family="FG Virgil" font-size="7" lengthAdjust="spacing" textLength="74" x="390.5" y="189.1143">isOwner(user): boolean</text></g><!--class PostItColor--><g id="elem_PostItColor"><rect codeLine="63" fill="#F1F1F1" height="24" id="PostItColor" rx="1.25" ry="1.25" style="stroke:#181818;stroke-width:0.25;" width="50.5" x="699.75" y="169"/><ellipse cx="707.25" cy="177" fill="#ADD1B2" rx="5.5" ry="5.5" style="stroke:#181818;stroke-width:0.5;"/><path d="M708.6328,174.9375 Q708.7109,174.8281 708.8047,174.7734 Q708.8984,174.7188 709.0078,174.7188 Q709.1953,174.7188 709.3125,174.8516 Q709.4297,174.9766 709.4297,175.2813 L709.4297,176.0078 Q709.4297,176.3125 709.3125,176.4453 Q709.1953,176.5781 709.0078,176.5781 Q708.8359,176.5781 708.7344,176.4766 Q708.6328,176.3828 708.5781,176.125 Q708.5547,175.9453 708.4609,175.8516 Q708.2969,175.6641 707.9922,175.5547 Q707.6875,175.4453 707.375,175.4453 Q706.9922,175.4453 706.6719,175.6094 Q706.3594,175.7734 706.1094,176.1484 Q705.8672,176.5234 705.8672,177.0391 L705.8672,177.5859 Q705.8672,178.2031 706.3125,178.6172 Q706.7578,179.0234 707.5547,179.0234 Q708.0234,179.0234 708.3516,178.8984 Q708.5469,178.8203 708.7578,178.6016 Q708.8906,178.4688 708.9609,178.4297 Q709.0391,178.3906 709.1406,178.3906 Q709.3047,178.3906 709.4297,178.5234 Q709.5625,178.6484 709.5625,178.8203 Q709.5625,178.9922 709.3906,179.1953 Q709.1406,179.4844 708.7422,179.6484 Q708.2031,179.875 707.5547,179.875 Q706.7969,179.875 706.1953,179.5625 Q705.7031,179.3125 705.3594,178.7813 Q705.0156,178.2422 705.0156,177.6016 L705.0156,177.0234 Q705.0156,176.3594 705.3203,175.7891 Q705.6328,175.2109 706.1797,174.9063 Q706.7266,174.5938 707.3438,174.5938 Q707.7109,174.5938 708.0313,174.6797 Q708.3594,174.7578 708.6328,174.9375 Z " fill="#000000"/><text fill="#000000" font-family="FG Virgil" font-size="7" lengthAdjust="spacing" textLength="34.5" x="714.25" y="179.8984">PostItColor</text><line style="stroke:#181818;stroke-width:0.25;" x1="700.25" x2="749.75" y1="185" y2="185"/><line style="stroke:#181818;stroke-width:0.25;" x1="700.25" x2="749.75" y1="189" y2="189"/></g><!--class PostItContent--><g id="elem_PostItContent"><rect codeLine="66" fill="#F1F1F1" height="24" id="PostItContent" rx="1.25" ry="1.25" style="stroke:#181818;stroke-width:0.25;" width="58.5" x="695.75" y="127.5"/><ellipse cx="703.25" cy="135.5" fill="#ADD1B2" rx="5.5" ry="5.5" style="stroke:#181818;stroke-width:0.5;"/><path d="M704.6328,133.4375 Q704.7109,133.3281 704.8047,133.2734 Q704.8984,133.2188 705.0078,133.2188 Q705.1953,133.2188 705.3125,133.3516 Q705.4297,133.4766 705.4297,133.7813 L705.4297,134.5078 Q705.4297,134.8125 705.3125,134.9453 Q705.1953,135.0781 705.0078,135.0781 Q704.8359,135.0781 704.7344,134.9766 Q704.6328,134.8828 704.5781,134.625 Q704.5547,134.4453 704.4609,134.3516 Q704.2969,134.1641 703.9922,134.0547 Q703.6875,133.9453 703.375,133.9453 Q702.9922,133.9453 702.6719,134.1094 Q702.3594,134.2734 702.1094,134.6484 Q701.8672,135.0234 701.8672,135.5391 L701.8672,136.0859 Q701.8672,136.7031 702.3125,137.1172 Q702.7578,137.5234 703.5547,137.5234 Q704.0234,137.5234 704.3516,137.3984 Q704.5469,137.3203 704.7578,137.1016 Q704.8906,136.9688 704.9609,136.9297 Q705.0391,136.8906 705.1406,136.8906 Q705.3047,136.8906 705.4297,137.0234 Q705.5625,137.1484 705.5625,137.3203 Q705.5625,137.4922 705.3906,137.6953 Q705.1406,137.9844 704.7422,138.1484 Q704.2031,138.375 703.5547,138.375 Q702.7969,138.375 702.1953,138.0625 Q701.7031,137.8125 701.3594,137.2813 Q701.0156,136.7422 701.0156,136.1016 L701.0156,135.5234 Q701.0156,134.8594 701.3203,134.2891 Q701.6328,133.7109 702.1797,133.4063 Q702.7266,133.0938 703.3438,133.0938 Q703.7109,133.0938 704.0313,133.1797 Q704.3594,133.2578 704.6328,133.4375 Z " fill="#000000"/><text fill="#000000" font-family="FG Virgil" font-size="7" lengthAdjust="spacing" textLength="42.5" x="710.25" y="138.3984">PostItContent</text><line style="stroke:#181818;stroke-width:0.25;" x1="696.25" x2="753.75" y1="143.5" y2="143.5"/><line style="stroke:#181818;stroke-width:0.25;" x1="696.25" x2="753.75" y1="147.5" y2="147.5"/></g><!--class PostItTimestamp--><g id="elem_PostItTimestamp"><rect codeLine="69" fill="#F1F1F1" height="24" id="PostItTimestamp" rx="1.25" ry="1.25" style="stroke:#181818;stroke-width:0.25;" width="68" x="691" y="86"/><ellipse cx="698.5" cy="94" fill="#ADD1B2" rx="5.5" ry="5.5" style="stroke:#181818;stroke-width:0.5;"/><path d="M699.8828,91.9375 Q699.9609,91.8281 700.0547,91.7734 Q700.1484,91.7188 700.2578,91.7188 Q700.4453,91.7188 700.5625,91.8516 Q700.6797,91.9766 700.6797,92.2813 L700.6797,93.0078 Q700.6797,93.3125 700.5625,93.4453 Q700.4453,93.5781 700.2578,93.5781 Q700.0859,93.5781 699.9844,93.4766 Q699.8828,93.3828 699.8281,93.125 Q699.8047,92.9453 699.7109,92.8516 Q699.5469,92.6641 699.2422,92.5547 Q698.9375,92.4453 698.625,92.4453 Q698.2422,92.4453 697.9219,92.6094 Q697.6094,92.7734 697.3594,93.1484 Q697.1172,93.5234 697.1172,94.0391 L697.1172,94.5859 Q697.1172,95.2031 697.5625,95.6172 Q698.0078,96.0234 698.8047,96.0234 Q699.2734,96.0234 699.6016,95.8984 Q699.7969,95.8203 700.0078,95.6016 Q700.1406,95.4688 700.2109,95.4297 Q700.2891,95.3906 700.3906,95.3906 Q700.5547,95.3906 700.6797,95.5234 Q700.8125,95.6484 700.8125,95.8203 Q700.8125,95.9922 700.6406,96.1953 Q700.3906,96.4844 699.9922,96.6484 Q699.4531,96.875 698.8047,96.875 Q698.0469,96.875 697.4453,96.5625 Q696.9531,96.3125 696.6094,95.7813 Q696.2656,95.2422 696.2656,94.6016 L696.2656,94.0234 Q696.2656,93.3594 696.5703,92.7891 Q696.8828,92.2109 697.4297,91.9063 Q697.9766,91.5938 698.5938,91.5938 Q698.9609,91.5938 699.2813,91.6797 Q699.6094,91.7578 699.8828,91.9375 Z " fill="#000000"/><text fill="#000000" font-family="FG Virgil" font-size="7" lengthAdjust="spacing" textLength="52" x="705.5" y="96.8984">PostItTimestamp</text><line style="stroke:#181818;stroke-width:0.25;" x1="691.5" x2="758.5" y1="102" y2="102"/><line style="stroke:#181818;stroke-width:0.25;" x1="691.5" x2="758.5" y1="106" y2="106"/></g><!--class PostItPreviousContent--><g id="elem_PostItPreviousContent"><rect codeLine="72" fill="#F1F1F1" height="24" id="PostItPreviousContent" rx="1.25" ry="1.25" style="stroke:#181818;stroke-width:0.25;" width="86" x="682" y="44.5"/><ellipse cx="689.5" cy="52.5" fill="#ADD1B2" rx="5.5" ry="5.5" style="stroke:#181818;stroke-width:0.5;"/><path d="M690.8828,50.4375 Q690.9609,50.3281 691.0547,50.2734 Q691.1484,50.2188 691.2578,50.2188 Q691.4453,50.2188 691.5625,50.3516 Q691.6797,50.4766 691.6797,50.7813 L691.6797,51.5078 Q691.6797,51.8125 691.5625,51.9453 Q691.4453,52.0781 691.2578,52.0781 Q691.0859,52.0781 690.9844,51.9766 Q690.8828,51.8828 690.8281,51.625 Q690.8047,51.4453 690.7109,51.3516 Q690.5469,51.1641 690.2422,51.0547 Q689.9375,50.9453 689.625,50.9453 Q689.2422,50.9453 688.9219,51.1094 Q688.6094,51.2734 688.3594,51.6484 Q688.1172,52.0234 688.1172,52.5391 L688.1172,53.0859 Q688.1172,53.7031 688.5625,54.1172 Q689.0078,54.5234 689.8047,54.5234 Q690.2734,54.5234 690.6016,54.3984 Q690.7969,54.3203 691.0078,54.1016 Q691.1406,53.9688 691.2109,53.9297 Q691.2891,53.8906 691.3906,53.8906 Q691.5547,53.8906 691.6797,54.0234 Q691.8125,54.1484 691.8125,54.3203 Q691.8125,54.4922 691.6406,54.6953 Q691.3906,54.9844 690.9922,55.1484 Q690.4531,55.375 689.8047,55.375 Q689.0469,55.375 688.4453,55.0625 Q687.9531,54.8125 687.6094,54.2813 Q687.2656,53.7422 687.2656,53.1016 L687.2656,52.5234 Q687.2656,51.8594 687.5703,51.2891 Q687.8828,50.7109 688.4297,50.4063 Q688.9766,50.0938 689.5938,50.0938 Q689.9609,50.0938 690.2813,50.1797 Q690.6094,50.2578 690.8828,50.4375 Z " fill="#000000"/><text fill="#000000" font-family="FG Virgil" font-size="7" lengthAdjust="spacing" textLength="70" x="696.5" y="55.3984">PostItPreviousContent</text><line style="stroke:#181818;stroke-width:0.25;" x1="682.5" x2="767.5" y1="60.5" y2="60.5"/><line style="stroke:#181818;stroke-width:0.25;" x1="682.5" x2="767.5" y1="64.5" y2="64.5"/></g><!--class IPostItRepository--><g id="elem_IPostItRepository"><rect codeLine="78" fill="#F1F1F1" height="42.6211" id="IPostItRepository" rx="1.25" ry="1.25" style="stroke:#181818;stroke-width:0.25;" width="100.5" x="394.25" y="231.75"/><ellipse cx="415.475" cy="239.75" fill="#B4A7E5" rx="5.5" ry="5.5" style="stroke:#181818;stroke-width:0.5;"/><path d="M415.9516,238.0703 L415.9516,241.3984 L416.8109,241.3984 Q417.1156,241.3984 417.2484,241.5156 Q417.3813,241.6328 417.3813,241.8281 Q417.3813,242.0156 417.2484,242.1328 Q417.1156,242.25 416.8109,242.25 L414.2406,242.25 Q413.9359,242.25 413.8031,242.1328 Q413.6703,242.0156 413.6703,241.8203 Q413.6703,241.6328 413.8031,241.5156 Q413.9359,241.3984 414.2406,241.3984 L415.1,241.3984 L415.1,238.0703 L414.2406,238.0703 Q413.9359,238.0703 413.8031,237.9531 Q413.6703,237.8359 413.6703,237.6406 Q413.6703,237.4531 413.8031,237.3359 Q413.9359,237.2188 414.2406,237.2188 L416.8109,237.2188 Q417.1156,237.2188 417.2484,237.3359 Q417.3813,237.4531 417.3813,237.6406 Q417.3813,237.8359 417.2484,237.9531 Q417.1156,238.0703 416.8109,238.0703 L415.9516,238.0703 Z " fill="#000000"/><text fill="#000000" font-family="FG Virgil" font-size="7" font-style="italic" lengthAdjust="spacing" textLength="54" x="425.525" y="242.6484">IPostItRepository</text><line style="stroke:#181818;stroke-width:0.25;" x1="394.75" x2="494.25" y1="247.75" y2="247.75"/><line style="stroke:#181818;stroke-width:0.25;" x1="394.75" x2="494.25" y1="251.75" y2="251.75"/><ellipse cx="399.75" cy="259.1553" fill="#84BE84" rx="1.5" ry="1.5" style="stroke:#038048;stroke-width:0.5;"/><text fill="#000000" font-family="FG Virgil" font-size="7" lengthAdjust="spacing" textLength="58.5" x="404.25" y="261.3037">save(postIt): PostIt</text><ellipse cx="399.75" cy="268.4658" fill="#84BE84" rx="1.5" ry="1.5" style="stroke:#038048;stroke-width:0.5;"/><text fill="#000000" font-family="FG Virgil" font-size="7" lengthAdjust="spacing" textLength="87.5" x="404.25" y="270.6143">findByBoardCell(cell): PostIt</text></g><!--link CreatePostItEndpointProcessor to CreatePostItController--><g id="link_CreatePostItEndpointProcessor_CreatePostItController"><path codeLine="88" d="M189.43,441.5 C214.605,441.5 245.615,441.5 277.23,441.5 " fill="none" id="CreatePostItEndpointProcessor-to-CreatePostItController" style="stroke:#181818;stroke-width:0.5;stroke-dasharray:7.0,7.0;"/><polygon fill="#181818" points="279.895,441.5,275.395,439.5,277.395,441.5,275.395,443.5,279.895,441.5" style="stroke:#181818;stroke-width:0.5;"/></g><!--link CreatePostItController to IBoardSynchronizer--><g id="link_CreatePostItController_IBoardSynchronizer"><path codeLine="90" d="M561.51,462.76 C586.51,467.32 612.535,472.07 636.255,476.4 " fill="none" id="CreatePostItController-to-IBoardSynchronizer" style="stroke:#181818;stroke-width:0.5;"/><polygon fill="#181818" points="638.84,476.87,634.7739,474.0921,636.3809,476.4196,634.0533,478.0266,638.84,476.87" style="stroke:#181818;stroke-width:0.5;"/></g><!--link CreatePostItController to PostItManager--><g id="link_CreatePostItController_PostItManager"><path codeLine="91" d="M327.135,420.175 C302.55,412.735 277.555,402.775 256,389.5 C205.965,358.68 164.015,301.8 144.31,272.13 " fill="none" id="CreatePostItController-to-PostItManager" style="stroke:#181818;stroke-width:0.5;"/><polygon fill="#181818" points="142.815,269.87,143.6278,274.7269,144.1935,271.9556,146.9648,272.5213,142.815,269.87" style="stroke:#181818;stroke-width:0.5;"/></g><!--link CreatePostItController to IBoardLogger--><g id="link_CreatePostItController_IBoardLogger"><path codeLine="92" d="M609,438.86 C630.32,438.515 650.865,438.185 668.565,437.9 " fill="none" id="CreatePostItController-to-IBoardLogger" style="stroke:#181818;stroke-width:0.5;stroke-dasharray:7.0,7.0;"/><polygon fill="#181818" points="671.155,437.86,666.6214,435.9374,668.6554,437.9029,666.6899,439.9368,671.155,437.86" style="stroke:#181818;stroke-width:0.5;"/></g><!--link PostIt to PostItColor--><g id="link_PostIt_PostItColor"><path codeLine="94" d="M508.6,173.66 C567.985,175.68 653.785,178.595 697.17,180.07 " fill="none" id="PostIt-to-PostItColor" style="stroke:#181818;stroke-width:0.5;"/><polygon fill="#181818" points="699.715,180.16,695.2864,178.0065,697.2165,180.0741,695.1489,182.0042,699.715,180.16" style="stroke:#181818;stroke-width:0.5;"/></g><!--link PostIt to PostItContent--><g id="link_PostIt_PostItContent"><path codeLine="95" d="M508.6,164.22 C566.17,157.625 648.56,148.195 693.075,143.1 " fill="none" id="PostIt-to-PostItContent" style="stroke:#181818;stroke-width:0.5;"/><polygon fill="#181818" points="695.69,142.8,690.9906,141.3285,693.2064,143.0863,691.4486,145.3022,695.69,142.8" style="stroke:#181818;stroke-width:0.5;"/></g><!--link PostIt to PostItTimestamp--><g id="link_PostIt_PostItTimestamp"><path codeLine="96" d="M508.65,153.57 C546.45,143.055 595.37,129.685 639,118.5 C655.145,114.36 673.07,110.025 688.32,106.41 " fill="none" id="PostIt-to-PostItTimestamp" style="stroke:#181818;stroke-width:0.5;"/><polygon fill="#181818" points="690.94,105.79,686.099,104.8873,688.5081,106.3694,687.026,108.7784,690.94,105.79" style="stroke:#181818;stroke-width:0.5;"/></g><!--link PostIt to PostItPreviousContent--><g id="link_PostIt_PostItPreviousContent"><path codeLine="97" d="M482.4,150.235 C520.71,129.19 582.49,97.265 639,77 C651.92,72.37 666.31,68.46 679.54,65.34 " fill="none" id="PostIt-to-PostItPreviousContent" style="stroke:#181818;stroke-width:0.5;"/><polygon fill="#181818" points="682,64.77,677.1621,63.8507,679.5661,65.341,678.0758,67.7449,682,64.77" style="stroke:#181818;stroke-width:0.5;"/></g><!--link PostItManager to Board--><g id="link_PostItManager_Board"><path codeLine="99" d="M179.09,269.755 C237.1,290.5 335.47,325.685 394.625,346.84 " fill="none" id="PostItManager-to-Board" style="stroke:#181818;stroke-width:0.5;stroke-dasharray:7.0,7.0;"/><polygon fill="#181818" points="397.065,347.715,393.5011,344.3166,394.711,346.8733,392.1543,348.0831,397.065,347.715" style="stroke:#181818;stroke-width:0.5;"/></g><!--link PostItManager to PostIt--><g id="link_PostItManager_PostIt"><path codeLine="100" d="M232.665,236.225 C239.37,233.715 245.885,230.825 252,227.5 C254.21,226.3 253.83,224.765 256,223.5 C293.365,201.73 340.23,188.74 377.82,181.185 " fill="none" id="PostItManager-to-PostIt" style="stroke:#181818;stroke-width:0.5;"/><polygon fill="#181818" points="380.285,180.695,375.482,179.6083,377.8327,181.1812,376.2598,183.5319,380.285,180.695" style="stroke:#181818;stroke-width:0.5;"/></g><!--link PostItManager to IPostItProvider--><g id="link_PostItManager_IPostItProvider"><path codeLine="101" d="M131.75,236.065 C131.75,231.155 131.75,226.245 131.75,221.335 " fill="none" id="PostItManager-to-IPostItProvider" style="stroke:#181818;stroke-width:0.5;"/><polygon fill="#181818" points="131.75,218.765,129.75,223.265,131.75,221.265,133.75,223.265,131.75,218.765" style="stroke:#181818;stroke-width:0.5;"/></g><!--link PostItManager to IPostItRepository--><g id="link_PostItManager_IPostItRepository"><path codeLine="102" d="M240.19,253 C291.405,253 350.27,253 391.525,253 " fill="none" id="PostItManager-to-IPostItRepository" style="stroke:#181818;stroke-width:0.5;"/><polygon fill="#181818" points="394.215,253,389.715,251,391.715,253,389.715,255,394.215,253" style="stroke:#181818;stroke-width:0.5;"/></g><!--link IPostItProvider to PostIt--><g id="link_IPostItProvider_PostIt"><path codeLine="104" d="M175.27,197.79 C227.66,192.665 316.71,183.955 377.845,177.97 " fill="none" id="IPostItProvider-to-PostIt" style="stroke:#181818;stroke-width:0.5;"/><polygon fill="#181818" points="380.37,177.725,375.6968,176.172,377.8818,177.9681,376.0858,180.1531,380.37,177.725" style="stroke:#181818;stroke-width:0.5;"/></g><!--link IPostItRepository to PostIt--><g id="link_IPostItRepository_PostIt"><path codeLine="106" d="M444.5,231.67 C444.5,219.6 444.5,207.535 444.5,195.465 " fill="none" id="IPostItRepository-to-PostIt" style="stroke:#181818;stroke-width:0.5;"/><polygon fill="#181818" points="444.5,192.89,442.5,197.39,444.5,195.39,446.5,197.39,444.5,192.89" style="stroke:#181818;stroke-width:0.5;"/></g><!--SRC=[dLHDSzem4BthL-YOJfFyW1uuX6awJ9E62MtlGbvi5LdhaGGCpV3VA_bJbko4AGSmte_tTlVjchrG5TEif1NZUvR3nfubK0tS4jFRCjYnWxIFgEmFLW9z_4P_2vqB6VYOWcLu4YgdEoOD429XPwb5gaLUM9e9drEW8gH5eeMr5NqZXBeFbymOkjJ0BApHs9Nzgh8AXR9hZHoCGKtVBeHSXl0jCfsLJBdd4fJjCdLcLbLISEOXEzCqqD9LfL5AS0Yzc_zyfXjUG7QGy0nWNMM3vqrLXxw2-nKMzVcseVE4UGww_RCvArveLEAlVzL4FDTyzQSlz8WYY-1umEgcJd5BkSDqrVa7YIwDnbFzV2XL2_FBfFakGy6kXQ1tZ0DTFSIiae8R1hNV4gHyGhvlYAoo4RJ3srZjMXB5vs37mT9zVOUpyt_P_l6Yke9XqyI4cyIy7PWdwSRQC4jB3z9tOiYmP6921pLUWhGJggxWPbnnNrcA5SZIprdO_zJbEXJ9p7J6-fZMGwoRw_JHP7OBTnJP17p1J8lDNHDSoYsY1ARYh5VslicLe0GGgVeFPcvtX7avARUOhSSCjHXzwTC656RTQXeVE_uK9HZBokfZrxM6ey23cSezqKNTdvgmaydmNaEtSOSCEq9xjro36lS9uJ-SUvrtSuvyXp5xtRz_i-_l5pF7TXmP7E6xkyN4gNhFUxGrSuwUINXV26a5E6IerJ3rkfvGQkYddPgYwNPWtMPxCZMNwFsG83OiulMSY4mqG4Yyqm40IIKp6Fy1]--></g></svg>