<?xml version="1.0" encoding="us-ascii" standalone="no"?><svg xmlns="http://www.w3.org/2000/svg" xmlns:xlink="http://www.w3.org/1999/xlink" contentStyleType="text/css" height="1223px" preserveAspectRatio="none" style="width:2373px;height:1223px;background:#FFFFFF;" version="1.1" viewBox="0 0 2373 1223" width="2373px" zoomAndPan="magnify"><defs/><g><text fill="#000000" font-family="FG Virgil" font-size="14" font-weight="bold" lengthAdjust="spacing" textLength="96" x="1137" y="30.1074">Create Post-it</text><rect fill="#FFFFFF" height="965.4395" style="stroke:#181818;stroke-width:1.0;" width="10" x="158.5" y="156.5332"/><rect fill="#FFFFFF" height="902.8574" style="stroke:#181818;stroke-width:1.0;" width="10" x="272.5" y="187.8242"/><rect fill="#FFFFFF" height="31.291" style="stroke:#181818;stroke-width:1.0;" width="10" x="497.5" y="219.1152"/><rect fill="#FFFFFF" height="777.6934" style="stroke:#181818;stroke-width:1.0;" width="10" x="683" y="281.6973"/><rect fill="#FFFFFF" height="715.1113" style="stroke:#181818;stroke-width:1.0;" width="10" x="1146" y="312.9883"/><rect fill="#FFFFFF" height="31.291" style="stroke:#181818;stroke-width:1.0;" width="10" x="1434" y="375.5703"/><rect fill="#FFFFFF" height="31.291" style="stroke:#181818;stroke-width:1.0;" width="10" x="1434" y="438.1523"/><rect fill="#FFFFFF" height="342.9102" style="stroke:#181818;stroke-width:1.0;" width="10" x="1563.5" y="555.3164"/><rect fill="#FFFFFF" height="31.291" style="stroke:#181818;stroke-width:1.0;" width="10" x="1730.5" y="586.6074"/><rect fill="#FFFFFF" height="93.873" style="stroke:#181818;stroke-width:1.0;" width="10" x="1829.5" y="649.1895"/><rect fill="#FFFFFF" height="31.291" style="stroke:#181818;stroke-width:1.0;" width="10" x="1996.5" y="680.4805"/><rect fill="#FFFFFF" height="31.291" style="stroke:#181818;stroke-width:1.0;" width="10" x="1996.5" y="835.6445"/><rect fill="#FFFFFF" height="30" style="stroke:#181818;stroke-width:1.0;" width="10" x="2103" y="774.3535"/><rect fill="#FFFFFF" height="30" style="stroke:#181818;stroke-width:1.0;" width="10" x="2200" y="929.5176"/><line style="stroke:#181818;stroke-width:0.5;stroke-dasharray:5.0,5.0;" x1="22" x2="22" y1="123.2422" y2="1139.9727"/><line style="stroke:#181818;stroke-width:0.5;stroke-dasharray:5.0,5.0;" x1="163" x2="163" y1="123.2422" y2="1139.9727"/><line style="stroke:#181818;stroke-width:0.5;stroke-dasharray:5.0,5.0;" x1="277" x2="277" y1="123.2422" y2="1139.9727"/><line style="stroke:#181818;stroke-width:0.5;stroke-dasharray:5.0,5.0;" x1="502.5" x2="502.5" y1="123.2422" y2="1139.9727"/><line style="stroke:#181818;stroke-width:0.5;stroke-dasharray:5.0,5.0;" x1="687.5" x2="687.5" y1="123.2422" y2="1139.9727"/><line style="stroke:#181818;stroke-width:0.5;stroke-dasharray:5.0,5.0;" x1="1151" x2="1151" y1="123.2422" y2="1139.9727"/><line style="stroke:#181818;stroke-width:0.5;stroke-dasharray:5.0,5.0;" x1="1439" x2="1439" y1="123.2422" y2="1139.9727"/><line style="stroke:#181818;stroke-width:0.5;stroke-dasharray:5.0,5.0;" x1="1568" x2="1568" y1="123.2422" y2="1139.9727"/><line style="stroke:#181818;stroke-width:0.5;stroke-dasharray:5.0,5.0;" x1="1735.5" x2="1735.5" y1="123.2422" y2="1139.9727"/><line style="stroke:#181818;stroke-width:0.5;stroke-dasharray:5.0,5.0;" x1="1834.5" x2="1834.5" y1="123.2422" y2="1139.9727"/><line style="stroke:#181818;stroke-width:0.5;stroke-dasharray:5.0,5.0;" x1="2001" x2="2001" y1="123.2422" y2="1139.9727"/><line style="stroke:#181818;stroke-width:0.5;stroke-dasharray:5.0,5.0;" x1="2108" x2="2108" y1="123.2422" y2="1139.9727"/><line style="stroke:#181818;stroke-width:0.5;stroke-dasharray:5.0,5.0;" x1="2205" x2="2205" y1="123.2422" y2="1139.9727"/><text fill="#000000" font-family="FG Virgil" font-size="14" lengthAdjust="spacing" textLength="29" x="5" y="119.7285">User</text><ellipse cx="22.5" cy="53.1211" fill="#E2E2F0" rx="8" ry="8" style="stroke:#181818;stroke-width:0.5;"/><path d="M22.5,61.1211 L22.5,88.1211 M9.5,69.1211 L35.5,69.1211 M22.5,88.1211 L9.5,103.1211 M22.5,88.1211 L35.5,103.1211 " fill="none" style="stroke:#181818;stroke-width:0.5;"/><text fill="#000000" font-family="FG Virgil" font-size="14" lengthAdjust="spacing" textLength="29" x="5" y="1154.0801">User</text><ellipse cx="22.5" cy="1166.0938" fill="#E2E2F0" rx="8" ry="8" style="stroke:#181818;stroke-width:0.5;"/><path d="M22.5,1174.0938 L22.5,1201.0938 M9.5,1182.0938 L35.5,1182.0938 M22.5,1201.0938 L9.5,1216.0938 M22.5,1201.0938 L35.5,1216.0938 " fill="none" style="stroke:#181818;stroke-width:0.5;"/><rect fill="#E2E2F0" height="51.2422" rx="2.5" ry="2.5" style="stroke:#181818;stroke-width:0.5;" width="67" x="130" y="71"/><text fill="#000000" font-family="FG Virgil" font-size="14" font-style="italic" lengthAdjust="spacing" textLength="53" x="137" y="93.1074">&#171;HTTP&#187;</text><text fill="#000000" font-family="FG Virgil" font-size="14" lengthAdjust="spacing" textLength="51" x="138" y="111.7285">Browser</text><rect fill="#E2E2F0" height="51.2422" rx="2.5" ry="2.5" style="stroke:#181818;stroke-width:0.5;" width="67" x="130" y="1138.9727"/><text fill="#000000" font-family="FG Virgil" font-size="14" font-style="italic" lengthAdjust="spacing" textLength="53" x="137" y="1161.0801">&#171;HTTP&#187;</text><text fill="#000000" font-family="FG Virgil" font-size="14" lengthAdjust="spacing" textLength="51" x="138" y="1179.7012">Browser</text><rect fill="#E2E2F0" height="51.2422" rx="2.5" ry="2.5" style="stroke:#181818;stroke-width:0.5;" width="141" x="207" y="71"/><text fill="#000000" font-family="FG Virgil" font-size="14" font-style="italic" lengthAdjust="spacing" textLength="53" x="251" y="93.1074">&#171;HTTP&#187;</text><text fill="#000000" font-family="FG Virgil" font-size="14" lengthAdjust="spacing" textLength="127" x="214" y="111.7285">HttpRequestHandler</text><rect fill="#E2E2F0" height="51.2422" rx="2.5" ry="2.5" style="stroke:#181818;stroke-width:0.5;" width="141" x="207" y="1138.9727"/><text fill="#000000" font-family="FG Virgil" font-size="14" font-style="italic" lengthAdjust="spacing" textLength="53" x="251" y="1161.0801">&#171;HTTP&#187;</text><text fill="#000000" font-family="FG Virgil" font-size="14" lengthAdjust="spacing" textLength="127" x="214" y="1179.7012">HttpRequestHandler</text><rect fill="#E2E2F0" height="51.2422" rx="2.5" ry="2.5" style="stroke:#181818;stroke-width:0.5;" width="182" x="411.5" y="71"/><text fill="#000000" font-family="FG Virgil" font-size="14" font-style="italic" lengthAdjust="spacing" textLength="53" x="476" y="93.1074">&#171;HTTP&#187;</text><text fill="#000000" font-family="FG Virgil" font-size="14" lengthAdjust="spacing" textLength="168" x="418.5" y="111.7285">EndpointProcessorFactory</text><rect fill="#E2E2F0" height="51.2422" rx="2.5" ry="2.5" style="stroke:#181818;stroke-width:0.5;" width="182" x="411.5" y="1138.9727"/><text fill="#000000" font-family="FG Virgil" font-size="14" font-style="italic" lengthAdjust="spacing" textLength="53" x="476" y="1161.0801">&#171;HTTP&#187;</text><text fill="#000000" font-family="FG Virgil" font-size="14" lengthAdjust="spacing" textLength="168" x="418.5" y="1179.7012">EndpointProcessorFactory</text><rect fill="#E2E2F0" height="51.2422" rx="2.5" ry="2.5" style="stroke:#181818;stroke-width:0.5;" width="169" x="603.5" y="71"/><text fill="#000000" font-family="FG Virgil" font-size="14" font-style="italic" lengthAdjust="spacing" textLength="84" x="646" y="93.1074">&#171;application&#187;</text><text fill="#000000" font-family="FG Virgil" font-size="14" lengthAdjust="spacing" textLength="155" x="610.5" y="111.7285">PostItEndpointProcessor</text><rect fill="#E2E2F0" height="51.2422" rx="2.5" ry="2.5" style="stroke:#181818;stroke-width:0.5;" width="169" x="603.5" y="1138.9727"/><text fill="#000000" font-family="FG Virgil" font-size="14" font-style="italic" lengthAdjust="spacing" textLength="84" x="646" y="1161.0801">&#171;application&#187;</text><text fill="#000000" font-family="FG Virgil" font-size="14" lengthAdjust="spacing" textLength="155" x="610.5" y="1179.7012">PostItEndpointProcessor</text><rect fill="#E2E2F0" height="51.2422" rx="2.5" ry="2.5" style="stroke:#181818;stroke-width:0.5;" width="154" x="1074" y="71"/><text fill="#000000" font-family="FG Virgil" font-size="14" font-style="italic" lengthAdjust="spacing" textLength="84" x="1109" y="93.1074">&#171;application&#187;</text><text fill="#000000" font-family="FG Virgil" font-size="14" lengthAdjust="spacing" textLength="140" x="1081" y="111.7285">CreatePostItController</text><rect fill="#E2E2F0" height="51.2422" rx="2.5" ry="2.5" style="stroke:#181818;stroke-width:0.5;" width="154" x="1074" y="1138.9727"/><text fill="#000000" font-family="FG Virgil" font-size="14" font-style="italic" lengthAdjust="spacing" textLength="84" x="1109" y="1161.0801">&#171;application&#187;</text><text fill="#000000" font-family="FG Virgil" font-size="14" lengthAdjust="spacing" textLength="140" x="1081" y="1179.7012">CreatePostItController</text><rect fill="#E2E2F0" height="51.2422" rx="2.5" ry="2.5" style="stroke:#181818;stroke-width:0.5;" width="134" x="1372" y="71"/><text fill="#000000" font-family="FG Virgil" font-size="14" font-style="italic" lengthAdjust="spacing" textLength="84" x="1397" y="93.1074">&#171;application&#187;</text><text fill="#000000" font-family="FG Virgil" font-size="14" lengthAdjust="spacing" textLength="120" x="1379" y="111.7285">BoardSynchronizer</text><rect fill="#E2E2F0" height="51.2422" rx="2.5" ry="2.5" style="stroke:#181818;stroke-width:0.5;" width="134" x="1372" y="1138.9727"/><text fill="#000000" font-family="FG Virgil" font-size="14" font-style="italic" lengthAdjust="spacing" textLength="84" x="1397" y="1161.0801">&#171;application&#187;</text><text fill="#000000" font-family="FG Virgil" font-size="14" lengthAdjust="spacing" textLength="120" x="1379" y="1179.7012">BoardSynchronizer</text><rect fill="#E2E2F0" height="51.2422" rx="2.5" ry="2.5" style="stroke:#181818;stroke-width:0.5;" width="105" x="1516" y="71"/><text fill="#000000" font-family="FG Virgil" font-size="14" font-style="italic" lengthAdjust="spacing" textLength="62" x="1537.5" y="93.1074">&#171;domain&#187;</text><text fill="#000000" font-family="FG Virgil" font-size="14" lengthAdjust="spacing" textLength="91" x="1523" y="111.7285">PostItManager</text><rect fill="#E2E2F0" height="51.2422" rx="2.5" ry="2.5" style="stroke:#181818;stroke-width:0.5;" width="105" x="1516" y="1138.9727"/><text fill="#000000" font-family="FG Virgil" font-size="14" font-style="italic" lengthAdjust="spacing" textLength="62" x="1537.5" y="1161.0801">&#171;domain&#187;</text><text fill="#000000" font-family="FG Virgil" font-size="14" lengthAdjust="spacing" textLength="91" x="1523" y="1179.7012">PostItManager</text><rect fill="#E2E2F0" height="51.2422" rx="2.5" ry="2.5" style="stroke:#181818;stroke-width:0.5;" width="76" x="1697.5" y="71"/><text fill="#000000" font-family="FG Virgil" font-size="14" font-style="italic" lengthAdjust="spacing" textLength="62" x="1704.5" y="93.1074">&#171;domain&#187;</text><text fill="#000000" font-family="FG Virgil" font-size="14" lengthAdjust="spacing" textLength="38" x="1716.5" y="111.7285">Board</text><rect fill="#E2E2F0" height="51.2422" rx="2.5" ry="2.5" style="stroke:#181818;stroke-width:0.5;" width="76" x="1697.5" y="1138.9727"/><text fill="#000000" font-family="FG Virgil" font-size="14" font-style="italic" lengthAdjust="spacing" textLength="62" x="1704.5" y="1161.0801">&#171;domain&#187;</text><text fill="#000000" font-family="FG Virgil" font-size="14" lengthAdjust="spacing" textLength="38" x="1716.5" y="1179.7012">Board</text><rect fill="#E2E2F0" height="51.2422" rx="2.5" ry="2.5" style="stroke:#181818;stroke-width:0.5;" width="102" x="1783.5" y="71"/><text fill="#000000" font-family="FG Virgil" font-size="14" font-style="italic" lengthAdjust="spacing" textLength="84" x="1792.5" y="93.1074">&#171;application&#187;</text><text fill="#000000" font-family="FG Virgil" font-size="14" lengthAdjust="spacing" textLength="88" x="1790.5" y="111.7285">PostItProvider</text><rect fill="#E2E2F0" height="51.2422" rx="2.5" ry="2.5" style="stroke:#181818;stroke-width:0.5;" width="102" x="1783.5" y="1138.9727"/><text fill="#000000" font-family="FG Virgil" font-size="14" font-style="italic" lengthAdjust="spacing" textLength="84" x="1792.5" y="1161.0801">&#171;application&#187;</text><text fill="#000000" font-family="FG Virgil" font-size="14" lengthAdjust="spacing" textLength="88" x="1790.5" y="1179.7012">PostItProvider</text><rect fill="#E2E2F0" height="51.2422" rx="2.5" ry="2.5" style="stroke:#181818;stroke-width:0.5;" width="117" x="1943" y="71"/><text fill="#000000" font-family="FG Virgil" font-size="14" font-style="italic" lengthAdjust="spacing" textLength="79" x="1962" y="93.1074">&#171;repository&#187;</text><text fill="#000000" font-family="FG Virgil" font-size="14" lengthAdjust="spacing" textLength="103" x="1950" y="111.7285">PostItRepository</text><rect fill="#E2E2F0" height="51.2422" rx="2.5" ry="2.5" style="stroke:#181818;stroke-width:0.5;" width="117" x="1943" y="1138.9727"/><text fill="#000000" font-family="FG Virgil" font-size="14" font-style="italic" lengthAdjust="spacing" textLength="79" x="1962" y="1161.0801">&#171;repository&#187;</text><text fill="#000000" font-family="FG Virgil" font-size="14" lengthAdjust="spacing" textLength="103" x="1950" y="1179.7012">PostItRepository</text><rect fill="#E2E2F0" height="51.2422" rx="2.5" ry="2.5" style="stroke:#181818;stroke-width:0.5;" width="76" x="2070" y="71"/><text fill="#000000" font-family="FG Virgil" font-size="14" font-style="italic" lengthAdjust="spacing" textLength="62" x="2077" y="93.1074">&#171;domain&#187;</text><text fill="#000000" font-family="FG Virgil" font-size="14" lengthAdjust="spacing" textLength="35" x="2090.5" y="111.7285">PostIt</text><rect fill="#E2E2F0" height="51.2422" rx="2.5" ry="2.5" style="stroke:#181818;stroke-width:0.5;" width="76" x="2070" y="1138.9727"/><text fill="#000000" font-family="FG Virgil" font-size="14" font-style="italic" lengthAdjust="spacing" textLength="62" x="2077" y="1161.0801">&#171;domain&#187;</text><text fill="#000000" font-family="FG Virgil" font-size="14" lengthAdjust="spacing" textLength="35" x="2090.5" y="1179.7012">PostIt</text><rect fill="#E2E2F0" height="51.2422" rx="2.5" ry="2.5" style="stroke:#181818;stroke-width:0.5;" width="98" x="2156" y="71"/><text fill="#000000" font-family="FG Virgil" font-size="14" font-style="italic" lengthAdjust="spacing" textLength="84" x="2163" y="93.1074">&#171;application&#187;</text><text fill="#000000" font-family="FG Virgil" font-size="14" lengthAdjust="spacing" textLength="83" x="2163.5" y="111.7285">BoardLogger</text><rect fill="#E2E2F0" height="51.2422" rx="2.5" ry="2.5" style="stroke:#181818;stroke-width:0.5;" width="98" x="2156" y="1138.9727"/><text fill="#000000" font-family="FG Virgil" font-size="14" font-style="italic" lengthAdjust="spacing" textLength="84" x="2163" y="1161.0801">&#171;application&#187;</text><text fill="#000000" font-family="FG Virgil" font-size="14" lengthAdjust="spacing" textLength="83" x="2163.5" y="1179.7012">BoardLogger</text><rect fill="#FFFFFF" height="965.4395" style="stroke:#181818;stroke-width:1.0;" width="10" x="158.5" y="156.5332"/><rect fill="#FFFFFF" height="902.8574" style="stroke:#181818;stroke-width:1.0;" width="10" x="272.5" y="187.8242"/><rect fill="#FFFFFF" height="31.291" style="stroke:#181818;stroke-width:1.0;" width="10" x="497.5" y="219.1152"/><rect fill="#FFFFFF" height="777.6934" style="stroke:#181818;stroke-width:1.0;" width="10" x="683" y="281.6973"/><rect fill="#FFFFFF" height="715.1113" style="stroke:#181818;stroke-width:1.0;" width="10" x="1146" y="312.9883"/><rect fill="#FFFFFF" height="31.291" style="stroke:#181818;stroke-width:1.0;" width="10" x="1434" y="375.5703"/><rect fill="#FFFFFF" height="31.291" style="stroke:#181818;stroke-width:1.0;" width="10" x="1434" y="438.1523"/><rect fill="#FFFFFF" height="342.9102" style="stroke:#181818;stroke-width:1.0;" width="10" x="1563.5" y="555.3164"/><rect fill="#FFFFFF" height="31.291" style="stroke:#181818;stroke-width:1.0;" width="10" x="1730.5" y="586.6074"/><rect fill="#FFFFFF" height="93.873" style="stroke:#181818;stroke-width:1.0;" width="10" x="1829.5" y="649.1895"/><rect fill="#FFFFFF" height="31.291" style="stroke:#181818;stroke-width:1.0;" width="10" x="1996.5" y="680.4805"/><rect fill="#FFFFFF" height="31.291" style="stroke:#181818;stroke-width:1.0;" width="10" x="1996.5" y="835.6445"/><rect fill="#FFFFFF" height="30" style="stroke:#181818;stroke-width:1.0;" width="10" x="2103" y="774.3535"/><rect fill="#FFFFFF" height="30" style="stroke:#181818;stroke-width:1.0;" width="10" x="2200" y="929.5176"/><polygon fill="#181818" points="146.5,152.5332,156.5,156.5332,146.5,160.5332,150.5,156.5332" style="stroke:#181818;stroke-width:1.0;"/><line style="stroke:#181818;stroke-width:1.0;" x1="22.5" x2="152.5" y1="156.5332" y2="156.5332"/><text fill="#000000" font-family="FG Virgil" font-size="13" font-weight="bold" lengthAdjust="spacing" textLength="7" x="29.5" y="151.2705">1</text><text fill="#000000" font-family="FG Virgil" font-size="13" lengthAdjust="spacing" textLength="76" x="40.5" y="151.2705">create post-it</text><polygon fill="#181818" points="260.5,183.8242,270.5,187.8242,260.5,191.8242,264.5,187.8242" style="stroke:#181818;stroke-width:1.0;"/><line style="stroke:#181818;stroke-width:1.0;" x1="168.5" x2="266.5" y1="187.8242" y2="187.8242"/><text fill="#000000" font-family="FG Virgil" font-size="13" font-weight="bold" lengthAdjust="spacing" textLength="7" x="175.5" y="182.5615">2</text><text fill="#000000" font-family="FG Virgil" font-size="13" lengthAdjust="spacing" textLength="58" x="186.5" y="182.5615">POST /crt</text><polygon fill="#181818" points="485.5,215.1152,495.5,219.1152,485.5,223.1152,489.5,219.1152" style="stroke:#181818;stroke-width:1.0;"/><line style="stroke:#181818;stroke-width:1.0;" x1="282.5" x2="491.5" y1="219.1152" y2="219.1152"/><text fill="#000000" font-family="FG Virgil" font-size="13" font-weight="bold" lengthAdjust="spacing" textLength="7" x="289.5" y="213.8525">3</text><text fill="#000000" font-family="FG Virgil" font-size="13" lengthAdjust="spacing" textLength="179" x="300.5" y="213.8525">getEndpointProcessor(request)</text><polygon fill="#181818" points="293.5,246.4063,283.5,250.4063,293.5,254.4063,289.5,250.4063" style="stroke:#181818;stroke-width:1.0;"/><line style="stroke:#181818;stroke-width:1.0;stroke-dasharray:2.0,2.0;" x1="287.5" x2="501.5" y1="250.4063" y2="250.4063"/><text fill="#000000" font-family="FG Virgil" font-size="13" font-weight="bold" lengthAdjust="spacing" textLength="7" x="299.5" y="245.1436">4</text><text fill="#000000" font-family="FG Virgil" font-size="13" lengthAdjust="spacing" textLength="180" x="310.5" y="245.1436">createPostItEndpointProcessor</text><polygon fill="#181818" points="671,277.6973,681,281.6973,671,285.6973,675,281.6973" style="stroke:#181818;stroke-width:1.0;"/><line style="stroke:#181818;stroke-width:1.0;" x1="282.5" x2="677" y1="281.6973" y2="281.6973"/><text fill="#000000" font-family="FG Virgil" font-size="13" font-weight="bold" lengthAdjust="spacing" textLength="7" x="289.5" y="276.4346">5</text><text fill="#000000" font-family="FG Virgil" font-size="13" lengthAdjust="spacing" textLength="145" x="300.5" y="276.4346">processRequest(request)</text><polygon fill="#181818" points="1134,308.9883,1144,312.9883,1134,316.9883,1138,312.9883" style="stroke:#181818;stroke-width:1.0;"/><line style="stroke:#181818;stroke-width:1.0;" x1="693" x2="1140" y1="312.9883" y2="312.9883"/><text fill="#000000" font-family="FG Virgil" font-size="13" font-weight="bold" lengthAdjust="spacing" textLength="7" x="700" y="307.7256">6</text><text fill="#000000" font-family="FG Virgil" font-size="13" lengthAdjust="spacing" textLength="423" x="711" y="307.7256">create(postItRepository, boardLogger, boardSynchronizer, postItManager)</text><polygon fill="#181818" points="1134,340.2793,1144,344.2793,1134,348.2793,1138,344.2793" style="stroke:#181818;stroke-width:1.0;"/><line style="stroke:#181818;stroke-width:1.0;" x1="693" x2="1140" y1="344.2793" y2="344.2793"/><text fill="#000000" font-family="FG Virgil" font-size="13" font-weight="bold" lengthAdjust="spacing" textLength="7" x="700" y="339.0166">7</text><text fill="#000000" font-family="FG Virgil" font-size="13" lengthAdjust="spacing" textLength="342" x="711" y="339.0166">createPostIt(board, content, color, row, column, boardUser)</text><polygon fill="#181818" points="1422,371.5703,1432,375.5703,1422,379.5703,1426,375.5703" style="stroke:#181818;stroke-width:1.0;"/><line style="stroke:#181818;stroke-width:1.0;" x1="1156" x2="1428" y1="375.5703" y2="375.5703"/><text fill="#000000" font-family="FG Virgil" font-size="13" font-weight="bold" lengthAdjust="spacing" textLength="7" x="1163" y="370.3076">8</text><text fill="#000000" font-family="FG Virgil" font-size="13" lengthAdjust="spacing" textLength="248" x="1174" y="370.3076">createBoardCellLock(boardId, row, column)</text><polygon fill="#181818" points="1167,402.8613,1157,406.8613,1167,410.8613,1163,406.8613" style="stroke:#181818;stroke-width:1.0;"/><line style="stroke:#181818;stroke-width:1.0;stroke-dasharray:2.0,2.0;" x1="1161" x2="1438" y1="406.8613" y2="406.8613"/><text fill="#000000" font-family="FG Virgil" font-size="13" font-weight="bold" lengthAdjust="spacing" textLength="7" x="1173" y="401.5986">9</text><text fill="#000000" font-family="FG Virgil" font-size="13" lengthAdjust="spacing" textLength="47" x="1184" y="401.5986">lockKey</text><polygon fill="#181818" points="1422,434.1523,1432,438.1523,1422,442.1523,1426,438.1523" style="stroke:#181818;stroke-width:1.0;"/><line style="stroke:#181818;stroke-width:1.0;" x1="1156" x2="1428" y1="438.1523" y2="438.1523"/><text fill="#000000" font-family="FG Virgil" font-size="13" font-weight="bold" lengthAdjust="spacing" textLength="14" x="1163" y="432.8896">10</text><text fill="#000000" font-family="FG Virgil" font-size="13" lengthAdjust="spacing" textLength="157" x="1181" y="432.8896">getBoardCellLock(lockKey)</text><polygon fill="#181818" points="1167,465.4434,1157,469.4434,1167,473.4434,1163,469.4434" style="stroke:#181818;stroke-width:1.0;"/><line style="stroke:#181818;stroke-width:1.0;stroke-dasharray:2.0,2.0;" x1="1161" x2="1438" y1="469.4434" y2="469.4434"/><text fill="#000000" font-family="FG Virgil" font-size="13" font-weight="bold" lengthAdjust="spacing" textLength="14" x="1173" y="464.1807">11</text><text fill="#000000" font-family="FG Virgil" font-size="13" lengthAdjust="spacing" textLength="35" x="1191" y="464.1807">object</text><path d="M1036,482.4434 L1036,526.4434 L1266,526.4434 L1266,492.4434 L1256,482.4434 L1036,482.4434 " fill="#FEFFDD" style="stroke:#181818;stroke-width:0.5;"/><path d="M1256,482.4434 L1256,492.4434 L1266,492.4434 L1256,482.4434 " fill="#FEFFDD" style="stroke:#181818;stroke-width:0.5;"/><text fill="#000000" font-family="FG Virgil" font-size="13" lengthAdjust="spacing" textLength="209" x="1042" y="501.4717">This is the synchronization process.</text><text fill="#000000" font-family="FG Virgil" font-size="13" lengthAdjust="spacing" textLength="179" x="1042" y="518.7627">It is detailed in the readme.md.</text><polygon fill="#181818" points="1551.5,551.3164,1561.5,555.3164,1551.5,559.3164,1555.5,555.3164" style="stroke:#181818;stroke-width:1.0;"/><line style="stroke:#181818;stroke-width:1.0;" x1="1156" x2="1557.5" y1="555.3164" y2="555.3164"/><text fill="#000000" font-family="FG Virgil" font-size="13" font-weight="bold" lengthAdjust="spacing" textLength="14" x="1163" y="550.0537">12</text><text fill="#000000" font-family="FG Virgil" font-size="13" lengthAdjust="spacing" textLength="342" x="1181" y="550.0537">createPostIt(board, row, column, boardUser, content, color)</text><polygon fill="#181818" points="1718.5,582.6074,1728.5,586.6074,1718.5,590.6074,1722.5,586.6074" style="stroke:#181818;stroke-width:1.0;"/><line style="stroke:#181818;stroke-width:1.0;" x1="1573.5" x2="1724.5" y1="586.6074" y2="586.6074"/><text fill="#000000" font-family="FG Virgil" font-size="13" font-weight="bold" lengthAdjust="spacing" textLength="14" x="1580.5" y="581.3447">13</text><text fill="#000000" font-family="FG Virgil" font-size="13" lengthAdjust="spacing" textLength="120" x="1598.5" y="581.3447">findCell(row, column)</text><polygon fill="#181818" points="1584.5,613.8984,1574.5,617.8984,1584.5,621.8984,1580.5,617.8984" style="stroke:#181818;stroke-width:1.0;"/><line style="stroke:#181818;stroke-width:1.0;stroke-dasharray:2.0,2.0;" x1="1578.5" x2="1734.5" y1="617.8984" y2="617.8984"/><text fill="#000000" font-family="FG Virgil" font-size="13" font-weight="bold" lengthAdjust="spacing" textLength="14" x="1590.5" y="612.6357">14</text><text fill="#000000" font-family="FG Virgil" font-size="13" lengthAdjust="spacing" textLength="20" x="1608.5" y="612.6357">cell</text><polygon fill="#181818" points="1817.5,645.1895,1827.5,649.1895,1817.5,653.1895,1821.5,649.1895" style="stroke:#181818;stroke-width:1.0;"/><line style="stroke:#181818;stroke-width:1.0;" x1="1573.5" x2="1823.5" y1="649.1895" y2="649.1895"/><text fill="#000000" font-family="FG Virgil" font-size="13" font-weight="bold" lengthAdjust="spacing" textLength="14" x="1580.5" y="643.9268">15</text><text fill="#000000" font-family="FG Virgil" font-size="13" lengthAdjust="spacing" textLength="83" x="1598.5" y="643.9268">hasPostIt(cell)</text><polygon fill="#181818" points="1984.5,676.4805,1994.5,680.4805,1984.5,684.4805,1988.5,680.4805" style="stroke:#181818;stroke-width:1.0;"/><line style="stroke:#181818;stroke-width:1.0;" x1="1839.5" x2="1990.5" y1="680.4805" y2="680.4805"/><text fill="#000000" font-family="FG Virgil" font-size="13" font-weight="bold" lengthAdjust="spacing" textLength="14" x="1846.5" y="675.2178">16</text><text fill="#000000" font-family="FG Virgil" font-size="13" lengthAdjust="spacing" textLength="120" x="1864.5" y="675.2178">findByBoardCell(cell)</text><polygon fill="#181818" points="1850.5,707.7715,1840.5,711.7715,1850.5,715.7715,1846.5,711.7715" style="stroke:#181818;stroke-width:1.0;"/><line style="stroke:#181818;stroke-width:1.0;stroke-dasharray:2.0,2.0;" x1="1844.5" x2="2000.5" y1="711.7715" y2="711.7715"/><text fill="#000000" font-family="FG Virgil" font-size="13" font-weight="bold" lengthAdjust="spacing" textLength="14" x="1856.5" y="706.5088">17</text><text fill="#000000" font-family="FG Virgil" font-size="13" lengthAdjust="spacing" textLength="32" x="1874.5" y="706.5088">postIt</text><polygon fill="#181818" points="1584.5,739.0625,1574.5,743.0625,1584.5,747.0625,1580.5,743.0625" style="stroke:#181818;stroke-width:1.0;"/><line style="stroke:#181818;stroke-width:1.0;stroke-dasharray:2.0,2.0;" x1="1578.5" x2="1833.5" y1="743.0625" y2="743.0625"/><text fill="#000000" font-family="FG Virgil" font-size="13" font-weight="bold" lengthAdjust="spacing" textLength="14" x="1590.5" y="737.7998">18</text><text fill="#000000" font-family="FG Virgil" font-size="13" lengthAdjust="spacing" textLength="53" x="1608.5" y="737.7998">true/false</text><polygon fill="#181818" points="2091,770.3535,2101,774.3535,2091,778.3535,2095,774.3535" style="stroke:#181818;stroke-width:1.0;"/><line style="stroke:#181818;stroke-width:1.0;" x1="1573.5" x2="2097" y1="774.3535" y2="774.3535"/><text fill="#000000" font-family="FG Virgil" font-size="13" font-weight="bold" lengthAdjust="spacing" textLength="14" x="1580.5" y="769.0908">19</text><text fill="#000000" font-family="FG Virgil" font-size="13" lengthAdjust="spacing" textLength="218" x="1598.5" y="769.0908">create(cell, content, color, boardUser)</text><polygon fill="#181818" points="1984.5,831.6445,1994.5,835.6445,1984.5,839.6445,1988.5,835.6445" style="stroke:#181818;stroke-width:1.0;"/><line style="stroke:#181818;stroke-width:1.0;" x1="1573.5" x2="1990.5" y1="835.6445" y2="835.6445"/><text fill="#000000" font-family="FG Virgil" font-size="13" font-weight="bold" lengthAdjust="spacing" textLength="14" x="1580.5" y="830.3818">20</text><text fill="#000000" font-family="FG Virgil" font-size="13" lengthAdjust="spacing" textLength="66" x="1598.5" y="830.3818">save(postIt)</text><polygon fill="#181818" points="1584.5,862.9355,1574.5,866.9355,1584.5,870.9355,1580.5,866.9355" style="stroke:#181818;stroke-width:1.0;"/><line style="stroke:#181818;stroke-width:1.0;stroke-dasharray:2.0,2.0;" x1="1578.5" x2="2000.5" y1="866.9355" y2="866.9355"/><text fill="#000000" font-family="FG Virgil" font-size="13" font-weight="bold" lengthAdjust="spacing" textLength="14" x="1590.5" y="861.6729">21</text><text fill="#000000" font-family="FG Virgil" font-size="13" lengthAdjust="spacing" textLength="32" x="1608.5" y="861.6729">postIt</text><polygon fill="#181818" points="1167,894.2266,1157,898.2266,1167,902.2266,1163,898.2266" style="stroke:#181818;stroke-width:1.0;"/><line style="stroke:#181818;stroke-width:1.0;stroke-dasharray:2.0,2.0;" x1="1161" x2="1567.5" y1="898.2266" y2="898.2266"/><text fill="#000000" font-family="FG Virgil" font-size="13" font-weight="bold" lengthAdjust="spacing" textLength="14" x="1173" y="892.9639">22</text><text fill="#000000" font-family="FG Virgil" font-size="13" lengthAdjust="spacing" textLength="49" x="1191" y="892.9639">success</text><polygon fill="#181818" points="2188,925.5176,2198,929.5176,2188,933.5176,2192,929.5176" style="stroke:#181818;stroke-width:1.0;"/><line style="stroke:#181818;stroke-width:1.0;" x1="1156" x2="2194" y1="929.5176" y2="929.5176"/><text fill="#000000" font-family="FG Virgil" font-size="13" font-weight="bold" lengthAdjust="spacing" textLength="14" x="1163" y="924.2549">23</text><text fill="#000000" font-family="FG Virgil" font-size="13" lengthAdjust="spacing" textLength="206" x="1181" y="924.2549">logPostItCreation(board, boardUser)</text><path d="M2043,972.5176 L2043,999.5176 L2366,999.5176 L2366,982.5176 L2356,972.5176 L2043,972.5176 " fill="#FEFFDD" style="stroke:#181818;stroke-width:0.5;"/><path d="M2356,972.5176 L2356,982.5176 L2366,982.5176 L2356,972.5176 " fill="#FEFFDD" style="stroke:#181818;stroke-width:0.5;"/><text fill="#000000" font-family="FG Virgil" font-size="13" lengthAdjust="spacing" textLength="302" x="2049" y="991.5459">This process is omitted in the diagram for simplicity.</text><polygon fill="#181818" points="704,1024.0996,694,1028.0996,704,1032.0996,700,1028.0996" style="stroke:#181818;stroke-width:1.0;"/><line style="stroke:#181818;stroke-width:1.0;stroke-dasharray:2.0,2.0;" x1="698" x2="1150" y1="1028.0996" y2="1028.0996"/><text fill="#000000" font-family="FG Virgil" font-size="13" font-weight="bold" lengthAdjust="spacing" textLength="14" x="710" y="1022.8369">24</text><text fill="#000000" font-family="FG Virgil" font-size="13" lengthAdjust="spacing" textLength="49" x="728" y="1022.8369">success</text><polygon fill="#181818" points="293.5,1055.3906,283.5,1059.3906,293.5,1063.3906,289.5,1059.3906" style="stroke:#181818;stroke-width:1.0;"/><line style="stroke:#181818;stroke-width:1.0;stroke-dasharray:2.0,2.0;" x1="287.5" x2="687" y1="1059.3906" y2="1059.3906"/><text fill="#000000" font-family="FG Virgil" font-size="13" font-weight="bold" lengthAdjust="spacing" textLength="14" x="299.5" y="1054.1279">25</text><text fill="#000000" font-family="FG Virgil" font-size="13" lengthAdjust="spacing" textLength="49" x="317.5" y="1054.1279">success</text><polygon fill="#181818" points="179.5,1086.6816,169.5,1090.6816,179.5,1094.6816,175.5,1090.6816" style="stroke:#181818;stroke-width:1.0;"/><line style="stroke:#181818;stroke-width:1.0;stroke-dasharray:2.0,2.0;" x1="173.5" x2="276.5" y1="1090.6816" y2="1090.6816"/><text fill="#000000" font-family="FG Virgil" font-size="13" font-weight="bold" lengthAdjust="spacing" textLength="14" x="185.5" y="1085.4189">26</text><text fill="#000000" font-family="FG Virgil" font-size="13" lengthAdjust="spacing" textLength="49" x="203.5" y="1085.4189">success</text><polygon fill="#181818" points="33.5,1117.9727,23.5,1121.9727,33.5,1125.9727,29.5,1121.9727" style="stroke:#181818;stroke-width:1.0;"/><line style="stroke:#181818;stroke-width:1.0;stroke-dasharray:2.0,2.0;" x1="27.5" x2="162.5" y1="1121.9727" y2="1121.9727"/><text fill="#000000" font-family="FG Virgil" font-size="13" font-weight="bold" lengthAdjust="spacing" textLength="14" x="39.5" y="1116.71">27</text><text fill="#000000" font-family="FG Virgil" font-size="13" lengthAdjust="spacing" textLength="94" x="57.5" y="1116.71">display success</text><!--SRC=[ZLRBRjim4BppAuXSwW2nSpU2718qJT2qDHgtfrveYPROIAHAhXouNz_bIwHisGtW0qdjp3uukpJhGSc-tN1DpAkG7TEifHqhNbd5Ns3VSAfv0TctaczPty23al2LjPm-VA8_XQv4azcOcfNgJSYARbbZE24W09dkDMV0wKePc0iWX1MWDBtuORY-eCpG7XS46K0KecCIwCMTLc_nwyQlwStDutgzkhqTMpu2TD_vdvuRU6IoR0AezkiJe8-ox9IGiDAguCOe_U12sZlergzFG6qIJt14u91Tt26MTLqZ2WP2oKCANmvFT8_brAg9OHV3zZp5dMAwVDdBejPAYhy1RV3WFCux_S8athB7j7wDi5ArJ4nxylTWLoVjF3FMOoTAFfJ3RTuJqdVUAIE6Ez335i5fCutrpjpoV1hFgeffDsvv51cnKgJpsoYw9IsyThkWNTI6sDc3O418b2U2WkYMgsylQtfTwCmyV29HbsWTTRQa5JyMr4nxKLycZW0W4JXFBcaCz8GyIScFQB9Gad2NSHrwQYACmPYG3_H9KgWvbPnfkksXr_oA2g2jg6gW6_l1sZAC5XJjkz8IG2rC2BUaBOTQbGjBHN62I0Lqpu4QPA9YQxdUHDDG6uR0eus2sddqQiGKqYvfQ45IHfXUwgfOfbbteBehJ-4L4ZPvVrq5WONMoSgHoCd_lFhBcJdoA_UTIx2BHg43r95RzwqC0TW1UKb8DXIGrZPv97IglkTDywoALy_xL8wOia0ja10t8-O7uJK8_yptkKgyzPHhLElORq2_pvNQ_BRlof4dl7XErGuTvTPhAnNysJismtMuReqwNFoIsFTeKt9Wea592Qz9h53PyaMBuZh88yoywMkPleR3wygI3Mo4n55gnuV5BUbMI5UcsVIDE2kS84xAyr5W2Cfh52mp3t6uBd44c921HOqRrPauNVf9ZC0qJNryT_lXDWy9aYaXsKIUZzpxliY3pM79SvuUw9vV-xy86Ix5c-Vfw8U-jH4UjqxMBOdDnpLo48uo-hmQXktYO7XV4OPypjTWS7VG2gOlh81psA2biM3zQsNxj0f_6smri0cYQASAu46Z0iIZr6oHsJLQw2ZRJAeL0AcNIi4g-mTlYwFDYDO-cG9mp8u3pL-IoVHEpChiwPn2PG_Ey6RbJ_G493wtwNL6GE-iIs6wXksdKF5D_mS0]--></g></svg>