<?xml version="1.0" encoding="us-ascii" standalone="no"?><svg xmlns="http://www.w3.org/2000/svg" xmlns:xlink="http://www.w3.org/1999/xlink" contentStyleType="text/css" height="588.6px" preserveAspectRatio="none" style="width:642px;height:588px;background:#FFFFFF;" version="1.1" viewBox="0 0 642 588" width="642.6px" zoomAndPan="magnify"><defs/><g><text fill="#000000" font-family="sans-serif" font-size="8.4" font-weight="bold" lengthAdjust="spacing" textLength="141" x="246.621" y="15.0645">US3005 - View the board real-time</text><!--cluster usermanagement--><g id="cluster_usermanagement"><path d="M296.742,130.5809 L370.542,130.5809 A2.25,2.25 0 0 1 372.042,132.0809 L376.242,145.3535 L530.142,145.3535 A1.5,1.5 0 0 1 531.642,146.8535 L531.642,234.0809 A1.5,1.5 0 0 1 530.142,235.5809 L296.742,235.5809 A1.5,1.5 0 0 1 295.242,234.0809 L295.242,132.0809 A1.5,1.5 0 0 1 296.742,130.5809 " fill="none" style="stroke:#000000;stroke-width:0.8999999999999999;"/><line style="stroke:#000000;stroke-width:0.8999999999999999;" x1="295.242" x2="376.242" y1="145.3535" y2="145.3535"/><text fill="#000000" font-family="sans-serif" font-size="8.4" font-weight="bold" lengthAdjust="spacing" textLength="73.2" x="297.642" y="140.8453">usermanagement</text></g><!--cluster infra--><g id="cluster_infra"><path d="M321.942,249.9809 L341.742,249.9809 A2.25,2.25 0 0 1 343.242,251.4809 L347.442,264.7535 L504.942,264.7535 A1.5,1.5 0 0 1 506.442,266.2535 L506.442,504.9809 A1.5,1.5 0 0 1 504.942,506.4809 L321.942,506.4809 A1.5,1.5 0 0 1 320.442,504.9809 L320.442,251.4809 A1.5,1.5 0 0 1 321.942,249.9809 " fill="none" style="stroke:#000000;stroke-width:0.8999999999999999;"/><line style="stroke:#000000;stroke-width:0.8999999999999999;" x1="320.442" x2="347.442" y1="264.7535" y2="264.7535"/><text fill="#000000" font-family="sans-serif" font-size="8.4" font-weight="bold" lengthAdjust="spacing" textLength="19.2" x="322.842" y="260.2453">infra</text></g><!--cluster auth--><g id="cluster_auth"><path d="M336.342,276.9809 L355.542,276.9809 A2.25,2.25 0 0 1 357.042,278.4809 L361.242,291.7535 L490.542,291.7535 A1.5,1.5 0 0 1 492.042,293.2535 L492.042,490.5809 A1.5,1.5 0 0 1 490.542,492.0809 L336.342,492.0809 A1.5,1.5 0 0 1 334.842,490.5809 L334.842,278.4809 A1.5,1.5 0 0 1 336.342,276.9809 " fill="none" style="stroke:#000000;stroke-width:0.8999999999999999;"/><line style="stroke:#000000;stroke-width:0.8999999999999999;" x1="334.842" x2="361.242" y1="291.7535" y2="291.7535"/><text fill="#000000" font-family="sans-serif" font-size="8.4" font-weight="bold" lengthAdjust="spacing" textLength="18.6" x="337.242" y="287.2453">auth</text></g><!--cluster boardcommunication--><g id="cluster_boardcommunication"><path d="M21.342,27.3809 L110.142,27.3809 A2.25,2.25 0 0 1 111.642,28.8809 L115.842,42.1535 L279.342,42.1535 A1.5,1.5 0 0 1 280.842,43.6535 L280.842,583.2809 A1.5,1.5 0 0 1 279.342,584.7809 L21.342,584.7809 A1.5,1.5 0 0 1 19.842,583.2809 L19.842,28.8809 A1.5,1.5 0 0 1 21.342,27.3809 " fill="none" style="stroke:#000000;stroke-width:0.8999999999999999;"/><line style="stroke:#000000;stroke-width:0.8999999999999999;" x1="19.842" x2="115.842" y1="42.1535" y2="42.1535"/><text fill="#000000" font-family="sans-serif" font-size="8.4" font-weight="bold" lengthAdjust="spacing" textLength="88.2" x="22.242" y="37.6453">boardcommunication</text></g><!--cluster http--><g id="cluster_http"><path d="M35.742,54.3809 L53.142,54.3809 A2.25,2.25 0 0 1 54.642,55.8809 L58.842,69.1535 L264.942,69.1535 A1.5,1.5 0 0 1 266.442,70.6535 L266.442,568.8809 A1.5,1.5 0 0 1 264.942,570.3809 L35.742,570.3809 A1.5,1.5 0 0 1 34.242,568.8809 L34.242,55.8809 A1.5,1.5 0 0 1 35.742,54.3809 " fill="none" style="stroke:#000000;stroke-width:0.8999999999999999;"/><line style="stroke:#000000;stroke-width:0.8999999999999999;" x1="34.242" x2="58.842" y1="69.1535" y2="69.1535"/><text fill="#000000" font-family="sans-serif" font-size="8.4" font-weight="bold" lengthAdjust="spacing" textLength="16.8" x="36.642" y="64.6453">http</text></g><!--cluster endpoints--><g id="cluster_endpoints"><path d="M57.942,147.0809 L101.142,147.0809 A2.25,2.25 0 0 1 102.642,148.5809 L106.842,161.8535 L250.542,161.8535 A1.5,1.5 0 0 1 252.042,163.3535 L252.042,347.4809 A1.5,1.5 0 0 1 250.542,348.9809 L57.942,348.9809 A1.5,1.5 0 0 1 56.442,347.4809 L56.442,148.5809 A1.5,1.5 0 0 1 57.942,147.0809 " fill="none" style="stroke:#000000;stroke-width:0.8999999999999999;"/><line style="stroke:#000000;stroke-width:0.8999999999999999;" x1="56.442" x2="106.842" y1="161.8535" y2="161.8535"/><text fill="#000000" font-family="sans-serif" font-size="8.4" font-weight="bold" lengthAdjust="spacing" textLength="42.6" x="58.842" y="157.3453">endpoints</text></g><!--cluster ecourseusermanagement--><g id="cluster_ecourseusermanagement"><path d="M522.342,255.6809 L630.942,255.6809 A2.25,2.25 0 0 1 632.442,257.1809 L636.642,270.4535 L636.942,270.4535 A1.5,1.5 0 0 1 638.442,271.9535 L638.442,356.1809 A1.5,1.5 0 0 1 636.942,357.6809 L522.342,357.6809 A1.5,1.5 0 0 1 520.842,356.1809 L520.842,257.1809 A1.5,1.5 0 0 1 522.342,255.6809 " fill="none" style="stroke:#000000;stroke-width:0.8999999999999999;"/><line style="stroke:#000000;stroke-width:0.8999999999999999;" x1="520.842" x2="636.642" y1="270.4535" y2="270.4535"/><text fill="#000000" font-family="sans-serif" font-size="8.4" font-weight="bold" lengthAdjust="spacing" textLength="108" x="523.242" y="265.9453">ecourseusermanagement</text></g><!--cluster domain--><g id="cluster_domain"><path d="M536.742,282.6809 L567.942,282.6809 A2.25,2.25 0 0 1 569.442,284.1809 L573.642,297.4535 L622.542,297.4535 A1.5,1.5 0 0 1 624.042,298.9535 L624.042,341.7809 A1.5,1.5 0 0 1 622.542,343.2809 L536.742,343.2809 A1.5,1.5 0 0 1 535.242,341.7809 L535.242,284.1809 A1.5,1.5 0 0 1 536.742,282.6809 " fill="none" style="stroke:#000000;stroke-width:0.8999999999999999;"/><line style="stroke:#000000;stroke-width:0.8999999999999999;" x1="535.242" x2="573.642" y1="297.4535" y2="297.4535"/><text fill="#000000" font-family="sans-serif" font-size="8.4" font-weight="bold" lengthAdjust="spacing" textLength="30.6" x="537.642" y="292.9453">domain</text></g><!--class ISessionManager--><g id="elem_ISessionManager"><rect codeLine="6" fill="#F1F1F1" height="73.4906" id="ISessionManager" rx="1.5" ry="1.5" style="stroke:#181818;stroke-width:0.3;" width="217.2" x="304.842" y="152.7809"/><ellipse cx="377.592" cy="162.3809" fill="#B4A7E5" rx="6.6" ry="6.6" style="stroke:#181818;stroke-width:0.6;"/><path d="M378.1639,160.3652 L378.1639,164.359 L379.1951,164.359 Q379.5607,164.359 379.7201,164.4996 Q379.8795,164.6402 379.8795,164.8746 Q379.8795,165.0996 379.7201,165.2402 Q379.5607,165.3809 379.1951,165.3809 L376.1107,165.3809 Q375.7451,165.3809 375.5857,165.2402 Q375.4264,165.0996 375.4264,164.8652 Q375.4264,164.6402 375.5857,164.4996 Q375.7451,164.359 376.1107,164.359 L377.142,164.359 L377.142,160.3652 L376.1107,160.3652 Q375.7451,160.3652 375.5857,160.2246 Q375.4264,160.084 375.4264,159.8496 Q375.4264,159.6246 375.5857,159.484 Q375.7451,159.3434 376.1107,159.3434 L379.1951,159.3434 Q379.5607,159.3434 379.7201,159.484 Q379.8795,159.6246 379.8795,159.8496 Q379.8795,160.084 379.7201,160.2246 Q379.5607,160.3652 379.1951,160.3652 L378.1639,160.3652 Z " fill="#000000"/><text fill="#000000" font-family="sans-serif" font-size="8.4" font-style="italic" lengthAdjust="spacing" textLength="66.6" x="389.892" y="165.859">ISessionManager</text><line style="stroke:#181818;stroke-width:0.3;" x1="305.442" x2="521.442" y1="171.9809" y2="171.9809"/><line style="stroke:#181818;stroke-width:0.3;" x1="305.442" x2="521.442" y1="176.7809" y2="176.7809"/><text fill="#000000" font-family="sans-serif" font-size="8.4" lengthAdjust="spacing" textLength="210" x="308.442" y="188.2453">+login(username, password) : Optional&lt;SessionToken&gt;</text><text fill="#000000" font-family="sans-serif" font-size="8.4" lengthAdjust="spacing" textLength="87" x="308.442" y="199.418">+logout(sessionToken)</text><text fill="#000000" font-family="sans-serif" font-size="8.4" lengthAdjust="spacing" textLength="160.2" x="308.442" y="210.5906">+isUserLoggedIn(sessionToken) : boolean</text><text fill="#000000" font-family="sans-serif" font-size="8.4" lengthAdjust="spacing" textLength="187.8" x="308.442" y="221.7633">+getLoggedUser(sessionToken) : Optional&lt;User&gt;</text></g><!--class SessionToken--><g id="elem_SessionToken"><rect codeLine="16" fill="#F1F1F1" height="28.8" id="SessionToken" rx="1.5" ry="1.5" style="stroke:#181818;stroke-width:0.3;" width="73.2" x="360.642" y="453.6809"/><ellipse cx="369.642" cy="463.2809" fill="#ADD1B2" rx="6.6" ry="6.6" style="stroke:#181818;stroke-width:0.6;"/><path d="M371.3014,460.8059 Q371.3951,460.6746 371.5076,460.609 Q371.6201,460.5434 371.7514,460.5434 Q371.9764,460.5434 372.117,460.7027 Q372.2576,460.8527 372.2576,461.2184 L372.2576,462.0902 Q372.2576,462.4559 372.117,462.6152 Q371.9764,462.7746 371.7514,462.7746 Q371.5451,462.7746 371.4233,462.6527 Q371.3014,462.5402 371.2358,462.2309 Q371.2076,462.0152 371.0951,461.9027 Q370.8983,461.6777 370.5326,461.5465 Q370.167,461.4152 369.792,461.4152 Q369.3326,461.4152 368.9483,461.6121 Q368.5733,461.809 368.2733,462.259 Q367.9826,462.709 367.9826,463.3277 L367.9826,463.984 Q367.9826,464.7246 368.517,465.2215 Q369.0514,465.709 370.0076,465.709 Q370.5701,465.709 370.9639,465.559 Q371.1983,465.4652 371.4514,465.2027 Q371.6108,465.0434 371.6951,464.9965 Q371.7889,464.9496 371.9108,464.9496 Q372.1076,464.9496 372.2576,465.109 Q372.417,465.259 372.417,465.4652 Q372.417,465.6715 372.2108,465.9152 Q371.9108,466.2621 371.4326,466.459 Q370.7858,466.7309 370.0076,466.7309 Q369.0983,466.7309 368.3764,466.3559 Q367.7858,466.0559 367.3733,465.4184 Q366.9608,464.7715 366.9608,464.0027 L366.9608,463.309 Q366.9608,462.5121 367.3264,461.8277 Q367.7014,461.134 368.3576,460.7684 Q369.0139,460.3934 369.7545,460.3934 Q370.1951,460.3934 370.5795,460.4965 Q370.9733,460.5902 371.3014,460.8059 Z " fill="#000000"/><text fill="#000000" font-family="sans-serif" font-size="8.4" lengthAdjust="spacing" textLength="54" x="378.042" y="466.759">SessionToken</text><line style="stroke:#181818;stroke-width:0.3;" x1="361.242" x2="433.242" y1="472.8809" y2="472.8809"/><line style="stroke:#181818;stroke-width:0.3;" x1="361.242" x2="433.242" y1="477.6809" y2="477.6809"/></g><!--class SessionTokenGenerator--><g id="elem_SessionTokenGenerator"><rect codeLine="17" fill="#F1F1F1" height="39.9727" id="SessionTokenGenerator" rx="1.5" ry="1.5" style="stroke:#181818;stroke-width:0.3;" width="137.4" x="344.742" y="299.1809"/><ellipse cx="365.082" cy="308.7809" fill="#ADD1B2" rx="6.6" ry="6.6" style="stroke:#181818;stroke-width:0.6;"/><path d="M366.7414,306.3059 Q366.8351,306.1746 366.9476,306.109 Q367.0601,306.0434 367.1914,306.0434 Q367.4164,306.0434 367.557,306.2027 Q367.6976,306.3527 367.6976,306.7184 L367.6976,307.5902 Q367.6976,307.9559 367.557,308.1152 Q367.4164,308.2746 367.1914,308.2746 Q366.9851,308.2746 366.8633,308.1527 Q366.7414,308.0402 366.6758,307.7309 Q366.6476,307.5152 366.5351,307.4027 Q366.3383,307.1777 365.9726,307.0465 Q365.607,306.9152 365.232,306.9152 Q364.7726,306.9152 364.3883,307.1121 Q364.0133,307.309 363.7133,307.759 Q363.4226,308.209 363.4226,308.8277 L363.4226,309.484 Q363.4226,310.2246 363.957,310.7215 Q364.4914,311.209 365.4476,311.209 Q366.0101,311.209 366.4039,311.059 Q366.6383,310.9652 366.8914,310.7027 Q367.0508,310.5434 367.1351,310.4965 Q367.2289,310.4496 367.3508,310.4496 Q367.5476,310.4496 367.6976,310.609 Q367.857,310.759 367.857,310.9652 Q367.857,311.1715 367.6508,311.4152 Q367.3508,311.7621 366.8726,311.959 Q366.2258,312.2309 365.4476,312.2309 Q364.5383,312.2309 363.8164,311.8559 Q363.2258,311.5559 362.8133,310.9184 Q362.4008,310.2715 362.4008,309.5027 L362.4008,308.809 Q362.4008,308.0121 362.7664,307.3277 Q363.1414,306.634 363.7976,306.2684 Q364.4539,305.8934 365.1945,305.8934 Q365.6351,305.8934 366.0195,305.9965 Q366.4133,306.0902 366.7414,306.3059 Z " fill="#000000"/><text fill="#000000" font-family="sans-serif" font-size="8.4" lengthAdjust="spacing" textLength="93" x="376.002" y="312.259">SessionTokenGenerator</text><line style="stroke:#181818;stroke-width:0.3;" x1="345.342" x2="481.542" y1="318.3809" y2="318.3809"/><line style="stroke:#181818;stroke-width:0.3;" x1="345.342" x2="481.542" y1="323.1809" y2="323.1809"/><text fill="#000000" font-family="sans-serif" font-size="8.4" lengthAdjust="spacing" textLength="130.2" x="348.342" y="334.6453">+generateToken() : SessionToken</text></g><!--class HTTPmessage--><g id="elem_HTTPmessage"><rect codeLine="25" fill="#F1F1F1" height="185.2172" id="HTTPmessage" rx="1.5" ry="1.5" style="stroke:#181818;stroke-width:0.3;" width="129.6" x="43.842" y="375.3809"/><ellipse cx="78.192" cy="384.9809" fill="#ADD1B2" rx="6.6" ry="6.6" style="stroke:#181818;stroke-width:0.6;"/><path d="M79.8514,382.5059 Q79.9451,382.3746 80.0576,382.309 Q80.1701,382.2434 80.3014,382.2434 Q80.5264,382.2434 80.667,382.4027 Q80.8076,382.5527 80.8076,382.9184 L80.8076,383.7902 Q80.8076,384.1559 80.667,384.3152 Q80.5264,384.4746 80.3014,384.4746 Q80.0951,384.4746 79.9733,384.3527 Q79.8514,384.2402 79.7858,383.9309 Q79.7576,383.7152 79.6451,383.6027 Q79.4482,383.3777 79.0826,383.2465 Q78.717,383.1152 78.342,383.1152 Q77.8826,383.1152 77.4983,383.3121 Q77.1233,383.509 76.8232,383.959 Q76.5326,384.409 76.5326,385.0277 L76.5326,385.684 Q76.5326,386.4246 77.067,386.9215 Q77.6014,387.409 78.5576,387.409 Q79.1201,387.409 79.5139,387.259 Q79.7483,387.1652 80.0014,386.9027 Q80.1608,386.7434 80.2451,386.6965 Q80.3389,386.6496 80.4607,386.6496 Q80.6576,386.6496 80.8076,386.809 Q80.967,386.959 80.967,387.1652 Q80.967,387.3715 80.7607,387.6152 Q80.4607,387.9621 79.9826,388.159 Q79.3357,388.4309 78.5576,388.4309 Q77.6482,388.4309 76.9264,388.0559 Q76.3357,387.7559 75.9233,387.1184 Q75.5107,386.4715 75.5107,385.7027 L75.5107,385.009 Q75.5107,384.2121 75.8764,383.5277 Q76.2514,382.834 76.9076,382.4684 Q77.5639,382.0934 78.3045,382.0934 Q78.7451,382.0934 79.1295,382.1965 Q79.5232,382.2902 79.8514,382.5059 Z " fill="#000000"/><text fill="#000000" font-family="sans-serif" font-size="8.4" lengthAdjust="spacing" textLength="55.8" x="90.492" y="388.459">HTTPmessage</text><line style="stroke:#181818;stroke-width:0.3;" x1="44.442" x2="172.842" y1="394.5809" y2="394.5809"/><text fill="#000000" font-family="sans-serif" font-size="8.4" lengthAdjust="spacing" textLength="78.6" x="47.442" y="406.0453">-isRequest : boolean</text><text fill="#000000" font-family="sans-serif" font-size="8.4" lengthAdjust="spacing" textLength="60.6" x="47.442" y="417.218">-method : String</text><text fill="#000000" font-family="sans-serif" font-size="8.4" lengthAdjust="spacing" textLength="42" x="47.442" y="428.3906">-uri : String</text><text fill="#000000" font-family="sans-serif" font-size="8.4" lengthAdjust="spacing" textLength="59.4" x="47.442" y="439.5633">-content : byte[]</text><text fill="#000000" font-family="sans-serif" font-size="8.4" lengthAdjust="spacing" textLength="79.8" x="47.442" y="450.7359">-contentType : String</text><text fill="#000000" font-family="sans-serif" font-size="8.4" lengthAdjust="spacing" textLength="81" x="47.442" y="461.9086">-authorization : String</text><text fill="#000000" font-family="sans-serif" font-size="8.4" lengthAdjust="spacing" textLength="55.2" x="47.442" y="473.0812">-status : String</text><line style="stroke:#181818;stroke-width:0.3;" x1="44.442" x2="172.842" y1="477.5895" y2="477.5895"/><text fill="#000000" font-family="sans-serif" font-size="8.4" lengthAdjust="spacing" textLength="112.2" x="47.442" y="489.0539">+HTTPmessage(inputStream)</text><text fill="#000000" font-family="sans-serif" font-size="8.4" lengthAdjust="spacing" textLength="80.4" x="47.442" y="500.2266">+send(outputStream)</text><text fill="#000000" font-family="sans-serif" font-size="8.4" lengthAdjust="spacing" textLength="80.4" x="47.442" y="511.3992">+getMethod() : String</text><text fill="#000000" font-family="sans-serif" font-size="8.4" lengthAdjust="spacing" textLength="62.4" x="47.442" y="522.5719">+getUri() : String</text><text fill="#000000" font-family="sans-serif" font-size="8.4" lengthAdjust="spacing" textLength="81" x="47.442" y="533.7445">+getContent() : byte[]</text><text fill="#000000" font-family="sans-serif" font-size="8.4" lengthAdjust="spacing" textLength="122.4" x="47.442" y="544.9172">+setContentFromString(content)</text><text fill="#000000" font-family="sans-serif" font-size="8.4" lengthAdjust="spacing" textLength="96.6" x="47.442" y="556.0898">+setContentFromFile(file)</text></g><!--class HttpRequestHandler--><g id="elem_HttpRequestHandler"><rect codeLine="42" fill="#F1F1F1" height="39.9727" id="HttpRequestHandler" rx="1.5" ry="1.5" style="stroke:#181818;stroke-width:0.3;" width="95.4" x="106.542" y="76.5809"/><ellipse cx="115.542" cy="86.1809" fill="#ADD1B2" rx="6.6" ry="6.6" style="stroke:#181818;stroke-width:0.6;"/><path d="M117.2014,83.7059 Q117.2951,83.5746 117.4076,83.509 Q117.5201,83.4434 117.6514,83.4434 Q117.8764,83.4434 118.017,83.6027 Q118.1576,83.7527 118.1576,84.1184 L118.1576,84.9902 Q118.1576,85.3559 118.017,85.5152 Q117.8764,85.6746 117.6514,85.6746 Q117.4451,85.6746 117.3232,85.5527 Q117.2014,85.4402 117.1357,85.1309 Q117.1076,84.9152 116.9951,84.8027 Q116.7983,84.5777 116.4326,84.4465 Q116.067,84.3152 115.692,84.3152 Q115.2326,84.3152 114.8483,84.5121 Q114.4733,84.709 114.1733,85.159 Q113.8826,85.609 113.8826,86.2277 L113.8826,86.884 Q113.8826,87.6246 114.417,88.1215 Q114.9514,88.609 115.9076,88.609 Q116.4701,88.609 116.8639,88.459 Q117.0983,88.3652 117.3514,88.1027 Q117.5107,87.9434 117.5951,87.8965 Q117.6889,87.8496 117.8107,87.8496 Q118.0076,87.8496 118.1576,88.009 Q118.317,88.159 118.317,88.3652 Q118.317,88.5715 118.1108,88.8152 Q117.8107,89.1621 117.3326,89.359 Q116.6857,89.6309 115.9076,89.6309 Q114.9983,89.6309 114.2764,89.2559 Q113.6858,88.9559 113.2732,88.3184 Q112.8608,87.6715 112.8608,86.9027 L112.8608,86.209 Q112.8608,85.4121 113.2264,84.7277 Q113.6014,84.034 114.2576,83.6684 Q114.9139,83.2934 115.6545,83.2934 Q116.0951,83.2934 116.4795,83.3965 Q116.8732,83.4902 117.2014,83.7059 Z " fill="#000000"/><text fill="#000000" font-family="sans-serif" font-size="8.4" lengthAdjust="spacing" textLength="76.2" x="123.942" y="89.659">HttpRequestHandler</text><line style="stroke:#181818;stroke-width:0.3;" x1="107.142" x2="201.342" y1="95.7809" y2="95.7809"/><line style="stroke:#181818;stroke-width:0.3;" x1="107.142" x2="201.342" y1="100.5809" y2="100.5809"/><text fill="#000000" font-family="sans-serif" font-size="8.4" lengthAdjust="spacing" textLength="46.2" x="110.142" y="112.0453">+run() : void</text></g><!--class EndpointProcessor--><g id="elem_EndpointProcessor"><rect codeLine="47" fill="#F1F1F1" height="39.9727" id="EndpointProcessor" rx="1.5" ry="1.5" style="stroke:#181818;stroke-width:0.3;" width="139.8" x="95.142" y="299.1809"/><ellipse cx="126.492" cy="308.7809" fill="#B4A7E5" rx="6.6" ry="6.6" style="stroke:#181818;stroke-width:0.6;"/><path d="M127.0639,306.7652 L127.0639,310.759 L128.0951,310.759 Q128.4608,310.759 128.6201,310.8996 Q128.7795,311.0402 128.7795,311.2746 Q128.7795,311.4996 128.6201,311.6402 Q128.4608,311.7809 128.0951,311.7809 L125.0107,311.7809 Q124.6451,311.7809 124.4858,311.6402 Q124.3264,311.4996 124.3264,311.2652 Q124.3264,311.0402 124.4858,310.8996 Q124.6451,310.759 125.0107,310.759 L126.042,310.759 L126.042,306.7652 L125.0107,306.7652 Q124.6451,306.7652 124.4858,306.6246 Q124.3264,306.484 124.3264,306.2496 Q124.3264,306.0246 124.4858,305.884 Q124.6451,305.7434 125.0107,305.7434 L128.0951,305.7434 Q128.4608,305.7434 128.6201,305.884 Q128.7795,306.0246 128.7795,306.2496 Q128.7795,306.484 128.6201,306.6246 Q128.4608,306.7652 128.0951,306.7652 L127.0639,306.7652 Z " fill="#000000"/><text fill="#000000" font-family="sans-serif" font-size="8.4" font-style="italic" lengthAdjust="spacing" textLength="72" x="138.792" y="312.259">EndpointProcessor</text><line style="stroke:#181818;stroke-width:0.3;" x1="95.742" x2="234.342" y1="318.3809" y2="318.3809"/><line style="stroke:#181818;stroke-width:0.3;" x1="95.742" x2="234.342" y1="323.1809" y2="323.1809"/><text fill="#000000" font-family="sans-serif" font-size="8.4" lengthAdjust="spacing" textLength="132.6" x="98.742" y="334.6453">+process(request, response) : void</text></g><!--class EndpointProcessorFactory--><g id="elem_EndpointProcessorFactory"><rect codeLine="51" fill="#F1F1F1" height="39.9727" id="EndpointProcessorFactory" rx="1.5" ry="1.5" style="stroke:#181818;stroke-width:0.3;" width="176.4" x="66.042" y="169.2809"/><ellipse cx="101.292" cy="178.8809" fill="#ADD1B2" rx="6.6" ry="6.6" style="stroke:#181818;stroke-width:0.6;"/><path d="M102.9514,176.4059 Q103.0451,176.2746 103.1576,176.209 Q103.2701,176.1434 103.4014,176.1434 Q103.6264,176.1434 103.767,176.3027 Q103.9076,176.4527 103.9076,176.8184 L103.9076,177.6902 Q103.9076,178.0559 103.767,178.2152 Q103.6264,178.3746 103.4014,178.3746 Q103.1951,178.3746 103.0732,178.2527 Q102.9514,178.1402 102.8857,177.8309 Q102.8576,177.6152 102.7451,177.5027 Q102.5483,177.2777 102.1826,177.1465 Q101.817,177.0152 101.442,177.0152 Q100.9826,177.0152 100.5983,177.2121 Q100.2233,177.409 99.9233,177.859 Q99.6326,178.309 99.6326,178.9277 L99.6326,179.584 Q99.6326,180.3246 100.167,180.8215 Q100.7014,181.309 101.6576,181.309 Q102.2201,181.309 102.6139,181.159 Q102.8483,181.0652 103.1014,180.8027 Q103.2607,180.6434 103.3451,180.5965 Q103.4389,180.5496 103.5608,180.5496 Q103.7576,180.5496 103.9076,180.709 Q104.067,180.859 104.067,181.0652 Q104.067,181.2715 103.8608,181.5152 Q103.5608,181.8621 103.0826,182.059 Q102.4358,182.3309 101.6576,182.3309 Q100.7483,182.3309 100.0264,181.9559 Q99.4358,181.6559 99.0232,181.0184 Q98.6108,180.3715 98.6108,179.6027 L98.6108,178.909 Q98.6108,178.1121 98.9764,177.4277 Q99.3514,176.734 100.0076,176.3684 Q100.6639,175.9934 101.4045,175.9934 Q101.8451,175.9934 102.2295,176.0965 Q102.6233,176.1902 102.9514,176.4059 Z " fill="#000000"/><text fill="#000000" font-family="sans-serif" font-size="8.4" lengthAdjust="spacing" textLength="100.8" x="113.592" y="182.359">EndpointProcessorFactory</text><line style="stroke:#181818;stroke-width:0.3;" x1="66.642" x2="241.842" y1="188.4809" y2="188.4809"/><line style="stroke:#181818;stroke-width:0.3;" x1="66.642" x2="241.842" y1="193.2809" y2="193.2809"/><text fill="#000000" font-family="sans-serif" font-size="8.4" lengthAdjust="spacing" textLength="169.2" x="69.642" y="204.7453">+getProcessor(request) : EndpointProcessor</text></g><!--class ECourseUser--><g id="elem_ECourseUser"><rect codeLine="71" fill="#F1F1F1" height="28.8" id="ECourseUser" rx="1.5" ry="1.5" style="stroke:#181818;stroke-width:0.3;" width="69.6" x="544.842" y="304.8809"/><ellipse cx="553.842" cy="314.4809" fill="#ADD1B2" rx="6.6" ry="6.6" style="stroke:#181818;stroke-width:0.6;"/><path d="M555.5014,312.0059 Q555.5951,311.8746 555.7076,311.809 Q555.8201,311.7434 555.9514,311.7434 Q556.1764,311.7434 556.317,311.9027 Q556.4576,312.0527 556.4576,312.4184 L556.4576,313.2902 Q556.4576,313.6559 556.317,313.8152 Q556.1764,313.9746 555.9514,313.9746 Q555.7451,313.9746 555.6233,313.8527 Q555.5014,313.7402 555.4358,313.4309 Q555.4076,313.2152 555.2951,313.1027 Q555.0983,312.8777 554.7326,312.7465 Q554.367,312.6152 553.992,312.6152 Q553.5326,312.6152 553.1483,312.8121 Q552.7733,313.009 552.4733,313.459 Q552.1826,313.909 552.1826,314.5277 L552.1826,315.184 Q552.1826,315.9246 552.717,316.4215 Q553.2514,316.909 554.2076,316.909 Q554.7701,316.909 555.1639,316.759 Q555.3983,316.6652 555.6514,316.4027 Q555.8108,316.2434 555.8951,316.1965 Q555.9889,316.1496 556.1108,316.1496 Q556.3076,316.1496 556.4576,316.309 Q556.617,316.459 556.617,316.6652 Q556.617,316.8715 556.4108,317.1152 Q556.1108,317.4621 555.6326,317.659 Q554.9858,317.9309 554.2076,317.9309 Q553.2983,317.9309 552.5764,317.5559 Q551.9858,317.2559 551.5733,316.6184 Q551.1608,315.9715 551.1608,315.2027 L551.1608,314.509 Q551.1608,313.7121 551.5264,313.0277 Q551.9014,312.334 552.5576,311.9684 Q553.2139,311.5934 553.9545,311.5934 Q554.3951,311.5934 554.7795,311.6965 Q555.1733,311.7902 555.5014,312.0059 Z " fill="#000000"/><text fill="#000000" font-family="sans-serif" font-size="8.4" lengthAdjust="spacing" textLength="50.4" x="562.242" y="317.959">ECourseUser</text><line style="stroke:#181818;stroke-width:0.3;" x1="545.442" x2="613.842" y1="324.0809" y2="324.0809"/><line style="stroke:#181818;stroke-width:0.3;" x1="545.442" x2="613.842" y1="328.8809" y2="328.8809"/></g><!--link EndpointProcessorFactory to EndpointProcessor--><g id="link_EndpointProcessorFactory_EndpointProcessor"><path codeLine="57" d="M155.88,209.5289 C157.83,232.7429 161.076,271.4129 163.134,295.9469 " fill="none" id="EndpointProcessorFactory-to-EndpointProcessor" style="stroke:#181818;stroke-width:0.6;stroke-dasharray:7.0,7.0;"/><polygon fill="#181818" points="163.404,299.1629,165.3486,293.5827,163.1556,296.1732,160.5651,293.9801,163.404,299.1629" style="stroke:#181818;stroke-width:0.6;"/></g><!--link HttpRequestHandler to EndpointProcessorFactory--><g id="link_HttpRequestHandler_EndpointProcessorFactory"><path codeLine="58" d="M154.242,116.9129 C154.242,131.3249 154.242,150.9389 154.242,166.0349 " fill="none" id="HttpRequestHandler-to-EndpointProcessorFactory" style="stroke:#181818;stroke-width:0.6;stroke-dasharray:7.0,7.0;"/><polygon fill="#181818" points="154.242,169.1849,156.642,163.7849,154.242,166.1849,151.842,163.7849,154.242,169.1849" style="stroke:#181818;stroke-width:0.6;"/></g><!--link HttpRequestHandler to HTTPmessage--><g id="link_HttpRequestHandler_HTTPmessage"><path codeLine="59" d="M106.422,105.6209 C84.882,110.4449 62.838,117.2549 56.442,125.7809 C3.6,196.2209 28.482,298.1789 59.352,372.3749 " fill="none" id="HttpRequestHandler-to-HTTPmessage" style="stroke:#181818;stroke-width:0.6;stroke-dasharray:7.0,7.0;"/><polygon fill="#181818" points="60.546,375.2249,60.6714,369.3169,59.3861,372.4582,56.2448,371.1728,60.546,375.2249" style="stroke:#181818;stroke-width:0.6;"/></g><!--link EndpointProcessorFactory to HTTPmessage--><g id="link_EndpointProcessorFactory_HTTPmessage"><path codeLine="60" d="M117.702,209.5949 C104.784,218.5829 91.722,230.5289 84.642,245.1809 C65.838,284.0969 67.932,331.2209 76.302,372.0389 " fill="none" id="EndpointProcessorFactory-to-HTTPmessage" style="stroke:#181818;stroke-width:0.6;stroke-dasharray:7.0,7.0;"/><polygon fill="#181818" points="76.968,375.2189,78.2075,369.441,76.3517,372.2828,73.5098,370.4271,76.968,375.2189" style="stroke:#181818;stroke-width:0.6;"/></g><!--link EndpointProcessor to HTTPmessage--><g id="link_EndpointProcessor_HTTPmessage"><path codeLine="61" d="M157.554,339.4829 C154.086,348.5549 149.682,360.0749 144.954,372.4589 " fill="none" id="EndpointProcessor-to-HTTPmessage" style="stroke:#181818;stroke-width:0.6;stroke-dasharray:7.0,7.0;"/><polygon fill="#181818" points="143.874,375.2849,148.0439,371.0978,144.9452,372.4826,143.5604,369.3839,143.874,375.2849" style="stroke:#181818;stroke-width:0.6;"/></g><!--link SessionTokenGenerator to SessionToken--><g id="link_SessionTokenGenerator_SessionToken"><path codeLine="63" d="M411.288,339.4829 C408.09,368.6249 402.132,422.9069 399.108,450.4769 " fill="none" id="SessionTokenGenerator-to-SessionToken" style="stroke:#181818;stroke-width:0.6;stroke-dasharray:7.0,7.0;"/><polygon fill="#181818" points="398.772,453.5429,401.7585,448.4437,399.1061,450.5615,396.9883,447.9092,398.772,453.5429" style="stroke:#181818;stroke-width:0.6;"/></g><!--link ISessionManager to SessionToken--><g id="link_ISessionManager_SessionToken"><path codeLine="64" d="M348.738,226.1429 C342.972,231.7829 337.926,238.1249 334.242,245.1809 C310.122,291.3989 320.328,312.2369 334.242,362.4809 C343.776,396.8909 367.914,431.3489 383.394,450.9749 " fill="none" id="ISessionManager-to-SessionToken" style="stroke:#181818;stroke-width:0.6;stroke-dasharray:7.0,7.0;"/><polygon fill="#181818" points="385.428,453.5309,383.944,447.8109,383.5602,451.1832,380.1879,450.7994,385.428,453.5309" style="stroke:#181818;stroke-width:0.6;"/></g><!--link ISessionManager to SessionTokenGenerator--><g id="link_ISessionManager_SessionTokenGenerator"><path codeLine="65" d="M413.442,226.0049 C413.442,248.4509 413.442,276.6389 413.442,296.0009 " fill="none" id="ISessionManager-to-SessionTokenGenerator" style="stroke:#181818;stroke-width:0.6;stroke-dasharray:7.0,7.0;"/><polygon fill="#181818" points="413.442,299.0309,415.842,293.6309,413.442,296.0309,411.042,293.6309,413.442,299.0309" style="stroke:#181818;stroke-width:0.6;"/></g><!--link ISessionManager to ECourseUser--><g id="link_ISessionManager_ECourseUser"><path codeLine="75" d="M466.11,226.0349 C474.864,232.2929 483.78,238.8329 492.042,245.1809 C516.822,264.2249 544.254,287.6429 561.702,302.8529 " fill="none" id="ISessionManager-to-ECourseUser" style="stroke:#181818;stroke-width:0.6;stroke-dasharray:7.0,7.0;"/><polygon fill="#181818" points="563.994,304.8509,561.499,299.4941,561.732,302.8802,558.3459,303.1133,563.994,304.8509" style="stroke:#181818;stroke-width:0.6;"/></g><!--link HttpRequestHandler to ISessionManager--><g id="link_HttpRequestHandler_ISessionManager"><path codeLine="76" d="M202.014,110.2829 C218.01,114.8849 235.884,120.2849 252.042,125.7809 C275.004,133.5929 299.514,142.7309 322.314,151.5869 " fill="none" id="HttpRequestHandler-to-ISessionManager" style="stroke:#181818;stroke-width:0.6;stroke-dasharray:7.0,7.0;"/><polygon fill="#181818" points="325.374,152.7809,321.2135,148.5844,322.5786,151.6919,319.4711,153.057,325.374,152.7809" style="stroke:#181818;stroke-width:0.6;"/></g><!--SRC=[dLLBYzim4BxxL-Zei0y2fPTI5igowGQwT6cINaeFYZrnH2p9bSPTial-UqUo7R_aB5G74_9zC_FDGoDx4AhWXakMvDpQBuX6R4k4PQBLIhm2cqSH2io1RLOVvlEFx8Rz5F32S0zigxb9cG6Utw2G44K5Jmuy0rPQC98h-Yb1uLl4w0Y5O7Oy0RPSWRL2goVFCAp2tRdATIPKxCmLbt3D2fBqeaqwOv_OzmB9YEUVQ_ErFe2wwzdg4cFRGMSjAko6l7xJMGRfKlLPv7ohTGvSjVmCi28xin7zhCMXbOPJT6eB8DJEy3gnvZzUuhvDrLURTLDXRwSBw5TGO3ZgRhbgeHu0pugTkAxPcNiQY_JjIxIKfH89TmaD5EyH2pQK_BXUFqkAu0XzAJV2_e0_9LWC5DGJ9E1UfquYJPdA-c1fn0H2euWqHyxh4U7Nxo2wFXOmOUyghuruhN8CSonoB6qOlEha7DDrAP58mEMipxAWqfX6S0gdaNho1QYw58X3Z8qHb-3xAbbF2HI3D3IKXT6oSXBN5PfTeYv43l6EFhF1oBWp706QYxhJZrobEOo6qfJLAFxL8htahvaqgboXQKFOWQDsQJpKZ6UZ4-h4w1xui4K5ngOITqsxoHPQMHXfwUlfQMhp7CLSy8Hku34KcdfpfZNnNTIHZma9pVqyIvaCVdjxD-4rq9SWkVPqoQOpyU-hUPSSPFbFUCKv-cYB3P-D_oATOrGIEjiG4bqQ2_sdQx0GKosvKAEL-73lJTrRq2nnlsX3OZhSQABs0xCe-WS0]--></g></svg>