<?xml version="1.0" encoding="us-ascii" standalone="no"?><svg xmlns="http://www.w3.org/2000/svg" xmlns:xlink="http://www.w3.org/1999/xlink" contentStyleType="text/css" height="467.4px" preserveAspectRatio="none" style="width:1314px;height:467px;background:#FFFFFF;" version="1.1" viewBox="0 0 1314 467" width="1314.6px" zoomAndPan="magnify"><defs/><g><!--cluster ui--><g id="cluster_ui"><rect fill="none" height="110.4" rx="1.5" ry="1.5" style="stroke:#000000;stroke-width:0.8999999999999999;" width="291.6" x="4.2" y="48.6"/><text fill="#000000" font-family="FG Virgil" font-size="8.4" font-weight="bold" lengthAdjust="spacing" textLength="7.8" x="146.1" y="58.8645">ui</text></g><!--cluster meetinginvitationmanagement--><g id="cluster_meetinginvitationmanagement"><rect fill="none" height="331.2" rx="1.5" ry="1.5" style="stroke:#000000;stroke-width:0.8999999999999999;" width="1000.8" x="310.2" y="4.2"/><text fill="#000000" font-family="FG Virgil" font-size="8.4" font-weight="bold" lengthAdjust="spacing" textLength="127.8" x="746.7" y="14.4645">meetinginvitationmanagement</text></g><!--cluster application--><g id="cluster_application"><rect fill="none" height="289.8" rx="1.5" ry="1.5" style="stroke:#000000;stroke-width:0.8999999999999999;" width="339" x="324.6" y="31.2"/><text fill="#000000" font-family="FG Virgil" font-size="8.4" font-weight="bold" lengthAdjust="spacing" textLength="46.2" x="471" y="41.4645">application</text></g><!--cluster domain--><g id="cluster_domain"><rect fill="none" height="94.2" rx="1.5" ry="1.5" style="stroke:#000000;stroke-width:0.8999999999999999;" width="318.3" x="978.3" y="96.6"/><text fill="#000000" font-family="FG Virgil" font-size="8.4" font-weight="bold" lengthAdjust="spacing" textLength="30.6" x="1122.15" y="106.8645">domain</text></g><!--cluster repository--><g id="cluster_repository"><rect fill="none" height="83.4" rx="1.5" ry="1.5" style="stroke:#000000;stroke-width:0.8999999999999999;" width="309" x="874.8" y="216"/><text fill="#000000" font-family="FG Virgil" font-size="8.4" font-weight="bold" lengthAdjust="spacing" textLength="43.2" x="1007.7" y="226.2645">repository</text></g><!--cluster ecourseusermanagement--><g id="cluster_ecourseusermanagement"><rect fill="none" height="114" rx="1.5" ry="1.5" style="stroke:#000000;stroke-width:0.8999999999999999;" width="182.4" x="678" y="349.8"/><text fill="#000000" font-family="FG Virgil" font-size="8.4" font-weight="bold" lengthAdjust="spacing" textLength="108" x="715.2" y="360.0645">ecourseusermanagement</text></g><!--cluster application--><g id="cluster_application"><rect fill="none" height="72.6" rx="1.5" ry="1.5" style="stroke:#000000;stroke-width:0.8999999999999999;" width="153.6" x="692.4" y="376.8"/><text fill="#000000" font-family="FG Virgil" font-size="8.4" font-weight="bold" lengthAdjust="spacing" textLength="46.2" x="746.1" y="387.0645">application</text></g><!--class ManageMeetingInvitationUI--><g id="elem_ManageMeetingInvitationUI"><rect codeLine="10" fill="#F1F1F1" height="28.8" id="ManageMeetingInvitationUI" rx="1.5" ry="1.5" style="stroke:#181818;stroke-width:0.3;" width="120.6" x="13.8" y="120.6"/><ellipse cx="22.8" cy="130.2" fill="#ADD1B2" rx="6.6" ry="6.6" style="stroke:#181818;stroke-width:0.6;"/><path d="M24.4594,127.725 Q24.5531,127.5938 24.6656,127.5281 Q24.7781,127.4625 24.9094,127.4625 Q25.1344,127.4625 25.275,127.6219 Q25.4156,127.7719 25.4156,128.1375 L25.4156,129.0094 Q25.4156,129.375 25.275,129.5344 Q25.1344,129.6938 24.9094,129.6938 Q24.7031,129.6938 24.5813,129.5719 Q24.4594,129.4594 24.3938,129.15 Q24.3656,128.9344 24.2531,128.8219 Q24.0563,128.5969 23.6906,128.4656 Q23.325,128.3344 22.95,128.3344 Q22.4906,128.3344 22.1063,128.5313 Q21.7313,128.7281 21.4313,129.1781 Q21.1406,129.6281 21.1406,130.2469 L21.1406,130.9031 Q21.1406,131.6437 21.675,132.1406 Q22.2094,132.6281 23.1656,132.6281 Q23.7281,132.6281 24.1219,132.4781 Q24.3563,132.3844 24.6094,132.1219 Q24.7688,131.9625 24.8531,131.9156 Q24.9469,131.8688 25.0687,131.8688 Q25.2656,131.8688 25.4156,132.0281 Q25.575,132.1781 25.575,132.3844 Q25.575,132.5906 25.3688,132.8344 Q25.0687,133.1813 24.5906,133.3781 Q23.9437,133.65 23.1656,133.65 Q22.2562,133.65 21.5344,133.275 Q20.9437,132.975 20.5313,132.3375 Q20.1188,131.6906 20.1188,130.9219 L20.1188,130.2281 Q20.1188,129.4313 20.4844,128.7469 Q20.8594,128.0531 21.5156,127.6875 Q22.1719,127.3125 22.9125,127.3125 Q23.3531,127.3125 23.7375,127.4156 Q24.1312,127.5094 24.4594,127.725 Z " fill="#000000"/><text fill="#000000" font-family="FG Virgil" font-size="8.4" lengthAdjust="spacing" textLength="101.4" x="31.2" y="133.6781">ManageMeetingInvitationUI</text><line style="stroke:#181818;stroke-width:0.3;" x1="14.4" x2="133.8" y1="139.8" y2="139.8"/><line style="stroke:#181818;stroke-width:0.3;" x1="14.4" x2="133.8" y1="144.6" y2="144.6"/></g><!--class AcceptMeetingInvitationUI--><g id="elem_AcceptMeetingInvitationUI"><rect codeLine="12" fill="#F1F1F1" height="28.8" id="AcceptMeetingInvitationUI" rx="1.5" ry="1.5" style="stroke:#181818;stroke-width:0.3;" width="115.8" x="170.4" y="70.8"/><ellipse cx="179.4" cy="80.4" fill="#ADD1B2" rx="6.6" ry="6.6" style="stroke:#181818;stroke-width:0.6;"/><path d="M181.0594,77.925 Q181.1531,77.7938 181.2656,77.7281 Q181.3781,77.6625 181.5094,77.6625 Q181.7344,77.6625 181.875,77.8219 Q182.0156,77.9719 182.0156,78.3375 L182.0156,79.2094 Q182.0156,79.575 181.875,79.7344 Q181.7344,79.8938 181.5094,79.8938 Q181.3031,79.8938 181.1813,79.7719 Q181.0594,79.6594 180.9938,79.35 Q180.9656,79.1344 180.8531,79.0219 Q180.6563,78.7969 180.2906,78.6656 Q179.925,78.5344 179.55,78.5344 Q179.0906,78.5344 178.7062,78.7313 Q178.3312,78.9281 178.0313,79.3781 Q177.7406,79.8281 177.7406,80.4469 L177.7406,81.1031 Q177.7406,81.8438 178.275,82.3406 Q178.8094,82.8281 179.7656,82.8281 Q180.3281,82.8281 180.7219,82.6781 Q180.9562,82.5844 181.2094,82.3219 Q181.3688,82.1625 181.4531,82.1156 Q181.5469,82.0688 181.6688,82.0688 Q181.8656,82.0688 182.0156,82.2281 Q182.175,82.3781 182.175,82.5844 Q182.175,82.7906 181.9688,83.0344 Q181.6688,83.3813 181.1906,83.5781 Q180.5438,83.85 179.7656,83.85 Q178.8563,83.85 178.1344,83.475 Q177.5438,83.175 177.1313,82.5375 Q176.7188,81.8906 176.7188,81.1219 L176.7188,80.4281 Q176.7188,79.6313 177.0844,78.9469 Q177.4594,78.2531 178.1156,77.8875 Q178.7719,77.5125 179.5125,77.5125 Q179.9531,77.5125 180.3375,77.6156 Q180.7313,77.7094 181.0594,77.925 Z " fill="#000000"/><text fill="#000000" font-family="FG Virgil" font-size="8.4" lengthAdjust="spacing" textLength="96.6" x="187.8" y="83.8781">AcceptMeetingInvitationUI</text><line style="stroke:#181818;stroke-width:0.3;" x1="171" x2="285.6" y1="90" y2="90"/><line style="stroke:#181818;stroke-width:0.3;" x1="171" x2="285.6" y1="94.8" y2="94.8"/></g><!--class RejectMeetingInvitationUI--><g id="elem_RejectMeetingInvitationUI"><rect codeLine="14" fill="#F1F1F1" height="28.8" id="RejectMeetingInvitationUI" rx="1.5" ry="1.5" style="stroke:#181818;stroke-width:0.3;" width="114" x="171.3" y="120.6"/><ellipse cx="180.3" cy="130.2" fill="#ADD1B2" rx="6.6" ry="6.6" style="stroke:#181818;stroke-width:0.6;"/><path d="M181.9594,127.725 Q182.0531,127.5938 182.1656,127.5281 Q182.2781,127.4625 182.4094,127.4625 Q182.6344,127.4625 182.775,127.6219 Q182.9156,127.7719 182.9156,128.1375 L182.9156,129.0094 Q182.9156,129.375 182.775,129.5344 Q182.6344,129.6938 182.4094,129.6938 Q182.2031,129.6938 182.0812,129.5719 Q181.9594,129.4594 181.8937,129.15 Q181.8656,128.9344 181.7531,128.8219 Q181.5563,128.5969 181.1906,128.4656 Q180.825,128.3344 180.45,128.3344 Q179.9906,128.3344 179.6063,128.5313 Q179.2313,128.7281 178.9313,129.1781 Q178.6406,129.6281 178.6406,130.2469 L178.6406,130.9031 Q178.6406,131.6437 179.175,132.1406 Q179.7094,132.6281 180.6656,132.6281 Q181.2281,132.6281 181.6219,132.4781 Q181.8563,132.3844 182.1094,132.1219 Q182.2687,131.9625 182.3531,131.9156 Q182.4469,131.8688 182.5688,131.8688 Q182.7656,131.8688 182.9156,132.0281 Q183.075,132.1781 183.075,132.3844 Q183.075,132.5906 182.8688,132.8344 Q182.5688,133.1813 182.0906,133.3781 Q181.4438,133.65 180.6656,133.65 Q179.7563,133.65 179.0344,133.275 Q178.4438,132.975 178.0313,132.3375 Q177.6188,131.6906 177.6188,130.9219 L177.6188,130.2281 Q177.6188,129.4313 177.9844,128.7469 Q178.3594,128.0531 179.0156,127.6875 Q179.6719,127.3125 180.4125,127.3125 Q180.8531,127.3125 181.2375,127.4156 Q181.6313,127.5094 181.9594,127.725 Z " fill="#000000"/><text fill="#000000" font-family="FG Virgil" font-size="8.4" lengthAdjust="spacing" textLength="94.8" x="188.7" y="133.6781">RejectMeetingInvitationUI</text><line style="stroke:#181818;stroke-width:0.3;" x1="171.9" x2="284.7" y1="139.8" y2="139.8"/><line style="stroke:#181818;stroke-width:0.3;" x1="171.9" x2="284.7" y1="144.6" y2="144.6"/></g><!--class ManageMeetingInvitationController--><g id="elem_ManageMeetingInvitationController"><rect codeLine="22" fill="#F1F1F1" height="73.4906" id="ManageMeetingInvitationController" rx="1.5" ry="1.5" style="stroke:#181818;stroke-width:0.3;" width="319.8" x="334.2" y="176.4"/><ellipse cx="425.85" cy="186" fill="#ADD1B2" rx="6.6" ry="6.6" style="stroke:#181818;stroke-width:0.6;"/><path d="M427.5094,183.525 Q427.6031,183.3937 427.7156,183.3281 Q427.8281,183.2625 427.9594,183.2625 Q428.1844,183.2625 428.325,183.4219 Q428.4656,183.5719 428.4656,183.9375 L428.4656,184.8094 Q428.4656,185.175 428.325,185.3344 Q428.1844,185.4938 427.9594,185.4938 Q427.7531,185.4938 427.6312,185.3719 Q427.5094,185.2594 427.4437,184.95 Q427.4156,184.7344 427.3031,184.6219 Q427.1063,184.3969 426.7406,184.2656 Q426.375,184.1344 426,184.1344 Q425.5406,184.1344 425.1563,184.3312 Q424.7813,184.5281 424.4813,184.9781 Q424.1906,185.4281 424.1906,186.0469 L424.1906,186.7031 Q424.1906,187.4438 424.725,187.9406 Q425.2594,188.4281 426.2156,188.4281 Q426.7781,188.4281 427.1719,188.2781 Q427.4063,188.1844 427.6594,187.9219 Q427.8187,187.7625 427.9031,187.7156 Q427.9969,187.6688 428.1188,187.6688 Q428.3156,187.6688 428.4656,187.8281 Q428.625,187.9781 428.625,188.1844 Q428.625,188.3906 428.4188,188.6344 Q428.1188,188.9813 427.6406,189.1781 Q426.9938,189.45 426.2156,189.45 Q425.3063,189.45 424.5844,189.075 Q423.9938,188.775 423.5813,188.1375 Q423.1688,187.4906 423.1688,186.7219 L423.1688,186.0281 Q423.1688,185.2313 423.5344,184.5469 Q423.9094,183.8531 424.5656,183.4875 Q425.2219,183.1125 425.9625,183.1125 Q426.4031,183.1125 426.7875,183.2156 Q427.1813,183.3094 427.5094,183.525 Z " fill="#000000"/><text fill="#000000" font-family="FG Virgil" font-size="8.4" lengthAdjust="spacing" textLength="131.4" x="438.15" y="189.4781">ManageMeetingInvitationController</text><line style="stroke:#181818;stroke-width:0.3;" x1="334.8" x2="653.4" y1="195.6" y2="195.6"/><line style="stroke:#181818;stroke-width:0.3;" x1="334.8" x2="653.4" y1="200.4" y2="200.4"/><rect fill="#F24D5C" height="3.6" style="stroke:#C82930;stroke-width:0.6;" width="3.6" x="339" y="207.4863"/><text fill="#000000" font-family="FG Virgil" font-size="8.4" lengthAdjust="spacing" textLength="93" x="346.2" y="211.8645">verifyLoggedUser(): void</text><ellipse cx="340.8" cy="220.459" fill="#84BE84" rx="1.8" ry="1.8" style="stroke:#038048;stroke-width:0.6;"/><text fill="#000000" font-family="FG Virgil" font-size="8.4" lengthAdjust="spacing" textLength="304.2" x="346.2" y="223.0371">ScheduleMeetingController(userSessionService, meetingInvitationProvider): void</text><ellipse cx="340.8" cy="231.6316" fill="#84BE84" rx="1.8" ry="1.8" style="stroke:#038048;stroke-width:0.6;"/><text fill="#000000" font-family="FG Virgil" font-size="8.4" lengthAdjust="spacing" textLength="213.6" x="346.2" y="234.2098">userMeetingInvitations(user): Iterable&lt;MeetingInvitation&gt;</text><ellipse cx="340.8" cy="242.8043" fill="#84BE84" rx="1.8" ry="1.8" style="stroke:#038048;stroke-width:0.6;"/><text fill="#000000" font-family="FG Virgil" font-size="8.4" lengthAdjust="spacing" textLength="262.8" x="346.2" y="245.3824">meetingInvitationOptions(meetingInvitation): Iterable&lt;InvitationStatus&gt;</text></g><!--class AcceptMeetingInvitationController--><g id="elem_AcceptMeetingInvitationController"><rect codeLine="29" fill="#F1F1F1" height="39.9727" id="AcceptMeetingInvitationController" rx="1.5" ry="1.5" style="stroke:#181818;stroke-width:0.3;" width="194.4" x="396.9" y="53.7"/><ellipse cx="428.25" cy="63.3" fill="#ADD1B2" rx="6.6" ry="6.6" style="stroke:#181818;stroke-width:0.6;"/><path d="M429.9094,60.825 Q430.0031,60.6937 430.1156,60.6281 Q430.2281,60.5625 430.3594,60.5625 Q430.5844,60.5625 430.725,60.7219 Q430.8656,60.8719 430.8656,61.2375 L430.8656,62.1094 Q430.8656,62.475 430.725,62.6344 Q430.5844,62.7937 430.3594,62.7937 Q430.1531,62.7937 430.0313,62.6719 Q429.9094,62.5594 429.8438,62.25 Q429.8156,62.0344 429.7031,61.9219 Q429.5062,61.6969 429.1406,61.5656 Q428.775,61.4344 428.4,61.4344 Q427.9406,61.4344 427.5563,61.6312 Q427.1813,61.8281 426.8812,62.2781 Q426.5906,62.7281 426.5906,63.3469 L426.5906,64.0031 Q426.5906,64.7437 427.125,65.2406 Q427.6594,65.7281 428.6156,65.7281 Q429.1781,65.7281 429.5719,65.5781 Q429.8063,65.4844 430.0594,65.2219 Q430.2188,65.0625 430.3031,65.0156 Q430.3969,64.9688 430.5188,64.9688 Q430.7156,64.9688 430.8656,65.1281 Q431.025,65.2781 431.025,65.4844 Q431.025,65.6906 430.8187,65.9344 Q430.5188,66.2813 430.0406,66.4781 Q429.3938,66.75 428.6156,66.75 Q427.7063,66.75 426.9844,66.375 Q426.3938,66.075 425.9813,65.4375 Q425.5687,64.7906 425.5687,64.0219 L425.5687,63.3281 Q425.5687,62.5313 425.9344,61.8469 Q426.3094,61.1531 426.9656,60.7875 Q427.6219,60.4125 428.3625,60.4125 Q428.8031,60.4125 429.1875,60.5156 Q429.5813,60.6094 429.9094,60.825 Z " fill="#000000"/><text fill="#000000" font-family="FG Virgil" font-size="8.4" lengthAdjust="spacing" textLength="126.6" x="440.55" y="66.7781">AcceptMeetingInvitationController</text><line style="stroke:#181818;stroke-width:0.3;" x1="397.5" x2="590.7" y1="72.9" y2="72.9"/><line style="stroke:#181818;stroke-width:0.3;" x1="397.5" x2="590.7" y1="77.7" y2="77.7"/><ellipse cx="403.5" cy="86.5863" fill="#84BE84" rx="1.8" ry="1.8" style="stroke:#038048;stroke-width:0.6;"/><text fill="#000000" font-family="FG Virgil" font-size="8.4" lengthAdjust="spacing" textLength="178.8" x="408.9" y="89.1645">acceptMeetingInvitation(meetingInvitation): void</text></g><!--class RejectMeetingInvitationController--><g id="elem_RejectMeetingInvitationController"><rect codeLine="33" fill="#F1F1F1" height="39.9727" id="RejectMeetingInvitationController" rx="1.5" ry="1.5" style="stroke:#181818;stroke-width:0.3;" width="190.2" x="399" y="114.9"/><ellipse cx="429.15" cy="124.5" fill="#ADD1B2" rx="6.6" ry="6.6" style="stroke:#181818;stroke-width:0.6;"/><path d="M430.8094,122.025 Q430.9031,121.8938 431.0156,121.8281 Q431.1281,121.7625 431.2594,121.7625 Q431.4844,121.7625 431.625,121.9219 Q431.7656,122.0719 431.7656,122.4375 L431.7656,123.3094 Q431.7656,123.675 431.625,123.8344 Q431.4844,123.9937 431.2594,123.9937 Q431.0531,123.9937 430.9313,123.8719 Q430.8094,123.7594 430.7438,123.45 Q430.7156,123.2344 430.6031,123.1219 Q430.4063,122.8969 430.0406,122.7656 Q429.675,122.6344 429.3,122.6344 Q428.8406,122.6344 428.4563,122.8313 Q428.0813,123.0281 427.7813,123.4781 Q427.4906,123.9281 427.4906,124.5469 L427.4906,125.2031 Q427.4906,125.9438 428.025,126.4406 Q428.5594,126.9281 429.5156,126.9281 Q430.0781,126.9281 430.4719,126.7781 Q430.7063,126.6844 430.9594,126.4219 Q431.1188,126.2625 431.2031,126.2156 Q431.2969,126.1687 431.4188,126.1687 Q431.6156,126.1687 431.7656,126.3281 Q431.925,126.4781 431.925,126.6844 Q431.925,126.8906 431.7188,127.1344 Q431.4188,127.4812 430.9406,127.6781 Q430.2938,127.95 429.5156,127.95 Q428.6063,127.95 427.8844,127.575 Q427.2938,127.275 426.8812,126.6375 Q426.4688,125.9906 426.4688,125.2219 L426.4688,124.5281 Q426.4688,123.7312 426.8344,123.0469 Q427.2094,122.3531 427.8656,121.9875 Q428.5219,121.6125 429.2625,121.6125 Q429.7031,121.6125 430.0875,121.7156 Q430.4813,121.8094 430.8094,122.025 Z " fill="#000000"/><text fill="#000000" font-family="FG Virgil" font-size="8.4" lengthAdjust="spacing" textLength="124.8" x="441.45" y="127.9781">RejectMeetingInvitationController</text><line style="stroke:#181818;stroke-width:0.3;" x1="399.6" x2="588.6" y1="134.1" y2="134.1"/><line style="stroke:#181818;stroke-width:0.3;" x1="399.6" x2="588.6" y1="138.9" y2="138.9"/><ellipse cx="405.6" cy="147.7863" fill="#84BE84" rx="1.8" ry="1.8" style="stroke:#038048;stroke-width:0.6;"/><text fill="#000000" font-family="FG Virgil" font-size="8.4" lengthAdjust="spacing" textLength="174.6" x="411" y="150.3645">rejectMeetingInvitation(meetingInvitation): void</text></g><!--class IMeetingInvitationProvider--><g id="elem_IMeetingInvitationProvider"><rect codeLine="37" fill="#F1F1F1" height="39.9727" id="IMeetingInvitationProvider" rx="1.5" ry="1.5" style="stroke:#181818;stroke-width:0.3;" width="304.2" x="342" y="270.9"/><ellipse cx="442.65" cy="280.5" fill="#B4A7E5" rx="6.6" ry="6.6" style="stroke:#181818;stroke-width:0.6;"/><path d="M443.2219,278.4844 L443.2219,282.4781 L444.2531,282.4781 Q444.6188,282.4781 444.7781,282.6188 Q444.9375,282.7594 444.9375,282.9938 Q444.9375,283.2188 444.7781,283.3594 Q444.6188,283.5 444.2531,283.5 L441.1688,283.5 Q440.8031,283.5 440.6438,283.3594 Q440.4844,283.2188 440.4844,282.9844 Q440.4844,282.7594 440.6438,282.6188 Q440.8031,282.4781 441.1688,282.4781 L442.2,282.4781 L442.2,278.4844 L441.1688,278.4844 Q440.8031,278.4844 440.6438,278.3438 Q440.4844,278.2031 440.4844,277.9688 Q440.4844,277.7438 440.6438,277.6031 Q440.8031,277.4625 441.1688,277.4625 L444.2531,277.4625 Q444.6188,277.4625 444.7781,277.6031 Q444.9375,277.7438 444.9375,277.9688 Q444.9375,278.2031 444.7781,278.3438 Q444.6188,278.4844 444.2531,278.4844 L443.2219,278.4844 Z " fill="#000000"/><text fill="#000000" font-family="FG Virgil" font-size="8.4" font-style="italic" lengthAdjust="spacing" textLength="97.8" x="454.95" y="283.9781">IMeetingInvitationProvider</text><line style="stroke:#181818;stroke-width:0.3;" x1="342.6" x2="645.6" y1="290.1" y2="290.1"/><line style="stroke:#181818;stroke-width:0.3;" x1="342.6" x2="645.6" y1="294.9" y2="294.9"/><ellipse cx="348.6" cy="303.7863" fill="#84BE84" rx="1.8" ry="1.8" style="stroke:#038048;stroke-width:0.6;"/><text fill="#000000" font-family="FG Virgil" font-size="8.4" lengthAdjust="spacing" textLength="288.6" x="354" y="306.3645">provideUserUncancelledMeetingInvitations(user): Iterable&lt;MeetingInvitation&gt;</text></g><!--class MeetingInvitation--><g id="elem_MeetingInvitation"><rect codeLine="45" fill="#F1F1F1" height="28.8" id="MeetingInvitation" rx="1.5" ry="1.5" style="stroke:#181818;stroke-width:0.3;" width="82.8" x="987.9" y="135.6"/><ellipse cx="996.9" cy="145.2" fill="#ADD1B2" rx="6.6" ry="6.6" style="stroke:#181818;stroke-width:0.6;"/><path d="M998.5594,142.725 Q998.6531,142.5938 998.7656,142.5281 Q998.8781,142.4625 999.0094,142.4625 Q999.2344,142.4625 999.375,142.6219 Q999.5156,142.7719 999.5156,143.1375 L999.5156,144.0094 Q999.5156,144.375 999.375,144.5344 Q999.2344,144.6938 999.0094,144.6938 Q998.8031,144.6938 998.6813,144.5719 Q998.5594,144.4594 998.4938,144.15 Q998.4656,143.9344 998.3531,143.8219 Q998.1563,143.5969 997.7906,143.4656 Q997.425,143.3344 997.05,143.3344 Q996.5906,143.3344 996.2063,143.5313 Q995.8313,143.7281 995.5313,144.1781 Q995.2406,144.6281 995.2406,145.2469 L995.2406,145.9031 Q995.2406,146.6437 995.775,147.1406 Q996.3094,147.6281 997.2656,147.6281 Q997.8281,147.6281 998.2219,147.4781 Q998.4563,147.3844 998.7094,147.1219 Q998.8688,146.9625 998.9531,146.9156 Q999.0469,146.8688 999.1687,146.8688 Q999.3656,146.8688 999.5156,147.0281 Q999.675,147.1781 999.675,147.3844 Q999.675,147.5906 999.4688,147.8344 Q999.1687,148.1813 998.6906,148.3781 Q998.0437,148.65 997.2656,148.65 Q996.3562,148.65 995.6344,148.275 Q995.0437,147.975 994.6312,147.3375 Q994.2188,146.6906 994.2188,145.9219 L994.2188,145.2281 Q994.2188,144.4313 994.5844,143.7469 Q994.9594,143.0531 995.6156,142.6875 Q996.2719,142.3125 997.0125,142.3125 Q997.4531,142.3125 997.8375,142.4156 Q998.2312,142.5094 998.5594,142.725 Z " fill="#000000"/><text fill="#000000" font-family="FG Virgil" font-size="8.4" lengthAdjust="spacing" textLength="63.6" x="1005.3" y="148.6781">MeetingInvitation</text><line style="stroke:#181818;stroke-width:0.3;" x1="988.5" x2="1070.1" y1="154.8" y2="154.8"/><line style="stroke:#181818;stroke-width:0.3;" x1="988.5" x2="1070.1" y1="159.6" y2="159.6"/></g><!--class InvitationStatus--><g id="elem_InvitationStatus"><rect codeLine="47" fill="#F1F1F1" height="62.318" id="InvitationStatus" rx="1.5" ry="1.5" style="stroke:#181818;stroke-width:0.3;" width="76.8" x="1210.2" y="118.8"/><ellipse cx="1219.2" cy="128.4" fill="#EB937F" rx="6.6" ry="6.6" style="stroke:#181818;stroke-width:0.6;"/><path d="M1218.5156,128.8781 L1218.5156,130.3781 L1221.1125,130.3781 L1221.1125,129.825 Q1221.1125,129.4594 1221.2531,129.3 Q1221.4031,129.1406 1221.6281,129.1406 Q1221.8531,129.1406 1221.9937,129.3 Q1222.1344,129.4594 1222.1344,129.825 L1222.1344,131.4 L1217.3344,131.4 Q1216.9594,131.4 1216.8,131.2594 Q1216.65,131.1188 1216.65,130.8844 Q1216.65,130.6594 1216.8094,130.5187 Q1216.9688,130.3781 1217.3344,130.3781 L1217.4937,130.3781 L1217.4937,126.3844 L1217.3344,126.3844 Q1216.9594,126.3844 1216.8,126.2437 Q1216.65,126.1031 1216.65,125.8687 Q1216.65,125.6438 1216.8,125.5031 Q1216.9594,125.3625 1217.3344,125.3625 L1221.9094,125.3625 L1221.9094,126.9187 Q1221.9094,127.2844 1221.7688,127.4438 Q1221.6375,127.5938 1221.4031,127.5938 Q1221.1781,127.5938 1221.0375,127.4438 Q1220.8969,127.2844 1220.8969,126.9187 L1220.8969,126.3844 L1218.5156,126.3844 L1218.5156,127.8562 L1219.4063,127.8562 Q1219.4063,127.4625 1219.4813,127.35 Q1219.6406,127.1062 1219.9219,127.1062 Q1220.1469,127.1062 1220.2875,127.2656 Q1220.4281,127.4156 1220.4281,127.7813 L1220.4281,128.9625 Q1220.4281,129.2906 1220.3531,129.4031 Q1220.1938,129.6375 1219.9219,129.6375 Q1219.6406,129.6375 1219.4813,129.3937 Q1219.4063,129.2813 1219.4063,128.8781 L1218.5156,128.8781 Z " fill="#000000"/><text fill="#000000" font-family="FG Virgil" font-size="8.4" lengthAdjust="spacing" textLength="57.6" x="1227.6" y="131.8781">InvitationStatus</text><line style="stroke:#181818;stroke-width:0.3;" x1="1210.8" x2="1286.4" y1="138" y2="138"/><text fill="#000000" font-family="FG Virgil" font-size="8.4" lengthAdjust="spacing" textLength="36" x="1213.8" y="149.4645">PENDING</text><text fill="#000000" font-family="FG Virgil" font-size="8.4" lengthAdjust="spacing" textLength="45" x="1213.8" y="160.6371">ACCEPTED</text><text fill="#000000" font-family="FG Virgil" font-size="8.4" lengthAdjust="spacing" textLength="43.2" x="1213.8" y="171.8098">REJECTED</text><line style="stroke:#181818;stroke-width:0.3;" x1="1210.8" x2="1286.4" y1="176.318" y2="176.318"/></g><!--class IMeetingInvitationRepository--><g id="elem_IMeetingInvitationRepository"><rect codeLine="56" fill="#F1F1F1" height="51.1453" id="IMeetingInvitationRepository" rx="1.5" ry="1.5" style="stroke:#181818;stroke-width:0.3;" width="289.8" x="884.4" y="238.5"/><ellipse cx="973.05" cy="248.1" fill="#B4A7E5" rx="6.6" ry="6.6" style="stroke:#181818;stroke-width:0.6;"/><path d="M973.6219,246.0844 L973.6219,250.0781 L974.6531,250.0781 Q975.0188,250.0781 975.1781,250.2188 Q975.3375,250.3594 975.3375,250.5938 Q975.3375,250.8188 975.1781,250.9594 Q975.0188,251.1 974.6531,251.1 L971.5687,251.1 Q971.2031,251.1 971.0437,250.9594 Q970.8844,250.8188 970.8844,250.5844 Q970.8844,250.3594 971.0437,250.2188 Q971.2031,250.0781 971.5687,250.0781 L972.6,250.0781 L972.6,246.0844 L971.5687,246.0844 Q971.2031,246.0844 971.0437,245.9438 Q970.8844,245.8031 970.8844,245.5688 Q970.8844,245.3438 971.0437,245.2031 Q971.2031,245.0625 971.5687,245.0625 L974.6531,245.0625 Q975.0188,245.0625 975.1781,245.2031 Q975.3375,245.3438 975.3375,245.5688 Q975.3375,245.8031 975.1781,245.9438 Q975.0188,246.0844 974.6531,246.0844 L973.6219,246.0844 Z " fill="#000000"/><text fill="#000000" font-family="FG Virgil" font-size="8.4" font-style="italic" lengthAdjust="spacing" textLength="107.4" x="985.35" y="251.5781">IMeetingInvitationRepository</text><line style="stroke:#181818;stroke-width:0.3;" x1="885" x2="1173.6" y1="257.7" y2="257.7"/><line style="stroke:#181818;stroke-width:0.3;" x1="885" x2="1173.6" y1="262.5" y2="262.5"/><ellipse cx="891" cy="271.3863" fill="#84BE84" rx="1.8" ry="1.8" style="stroke:#038048;stroke-width:0.6;"/><text fill="#000000" font-family="FG Virgil" font-size="8.4" lengthAdjust="spacing" textLength="156" x="896.4" y="273.9645">save(meetingInvitation): MeetingInvitation</text><ellipse cx="891" cy="282.559" fill="#84BE84" rx="1.8" ry="1.8" style="stroke:#038048;stroke-width:0.6;"/><text fill="#000000" font-family="FG Virgil" font-size="8.4" lengthAdjust="spacing" textLength="274.2" x="896.4" y="285.1371">findUserUncancelledMeetingInvitations(user): Iterable&lt;MeetingInvitation&gt;</text></g><!--class UserSessionService--><g id="elem_UserSessionService"><rect codeLine="69" fill="#F1F1F1" height="39.9727" id="UserSessionService" rx="1.5" ry="1.5" style="stroke:#181818;stroke-width:0.3;" width="134.4" x="702" y="399.3"/><ellipse cx="728.85" cy="408.9" fill="#ADD1B2" rx="6.6" ry="6.6" style="stroke:#181818;stroke-width:0.6;"/><path d="M730.5094,406.425 Q730.6031,406.2938 730.7156,406.2281 Q730.8281,406.1625 730.9594,406.1625 Q731.1844,406.1625 731.325,406.3219 Q731.4656,406.4719 731.4656,406.8375 L731.4656,407.7094 Q731.4656,408.075 731.325,408.2344 Q731.1844,408.3938 730.9594,408.3938 Q730.7531,408.3938 730.6313,408.2719 Q730.5094,408.1594 730.4438,407.85 Q730.4156,407.6344 730.3031,407.5219 Q730.1062,407.2969 729.7406,407.1656 Q729.375,407.0344 729,407.0344 Q728.5406,407.0344 728.1563,407.2313 Q727.7813,407.4281 727.4812,407.8781 Q727.1906,408.3281 727.1906,408.9469 L727.1906,409.6031 Q727.1906,410.3438 727.725,410.8406 Q728.2594,411.3281 729.2156,411.3281 Q729.7781,411.3281 730.1719,411.1781 Q730.4063,411.0844 730.6594,410.8219 Q730.8188,410.6625 730.9031,410.6156 Q730.9969,410.5687 731.1188,410.5687 Q731.3156,410.5687 731.4656,410.7281 Q731.625,410.8781 731.625,411.0844 Q731.625,411.2906 731.4187,411.5344 Q731.1188,411.8812 730.6406,412.0781 Q729.9938,412.35 729.2156,412.35 Q728.3063,412.35 727.5844,411.975 Q726.9938,411.675 726.5813,411.0375 Q726.1687,410.3906 726.1687,409.6219 L726.1687,408.9281 Q726.1687,408.1312 726.5344,407.4469 Q726.9094,406.7531 727.5656,406.3875 Q728.2219,406.0125 728.9625,406.0125 Q729.4031,406.0125 729.7875,406.1156 Q730.1813,406.2094 730.5094,406.425 Z " fill="#000000"/><text fill="#000000" font-family="FG Virgil" font-size="8.4" lengthAdjust="spacing" textLength="75.6" x="741.15" y="412.3781">UserSessionService</text><line style="stroke:#181818;stroke-width:0.3;" x1="702.6" x2="835.8" y1="418.5" y2="418.5"/><line style="stroke:#181818;stroke-width:0.3;" x1="702.6" x2="835.8" y1="423.3" y2="423.3"/><ellipse cx="708.6" cy="432.1863" fill="#84BE84" rx="1.8" ry="1.8" style="stroke:#038048;stroke-width:0.6;"/><text fill="#000000" font-family="FG Virgil" font-size="8.4" lengthAdjust="spacing" textLength="118.8" x="714" y="434.7645">getLoggedUser(): eCourseUser</text></g><!--link ManageMeetingInvitationUI to AcceptMeetingInvitationUI--><g id="link_ManageMeetingInvitationUI_AcceptMeetingInvitationUI"><path codeLine="76" d="M118.956,120.594 C138.216,114.324 160.818,106.968 180.414,100.59 " fill="none" id="ManageMeetingInvitationUI-to-AcceptMeetingInvitationUI" style="stroke:#181818;stroke-width:0.6;"/><polygon fill="#181818" points="183.282,99.66,177.4033,99.0589,180.4309,100.5933,178.8965,103.6208,183.282,99.66" style="stroke:#181818;stroke-width:0.6;"/></g><!--link ManageMeetingInvitationUI to RejectMeetingInvitationUI--><g id="link_ManageMeetingInvitationUI_RejectMeetingInvitationUI"><path codeLine="77" d="M134.514,135 C145.542,135 157.062,135 168.09,135 " fill="none" id="ManageMeetingInvitationUI-to-RejectMeetingInvitationUI" style="stroke:#181818;stroke-width:0.6;"/><polygon fill="#181818" points="171.186,135,165.786,132.6,168.186,135,165.786,137.4,171.186,135" style="stroke:#181818;stroke-width:0.6;"/></g><!--link ManageMeetingInvitationUI to ManageMeetingInvitationController--><g id="link_ManageMeetingInvitationUI_ManageMeetingInvitationController"><path codeLine="79" d="M127.404,149.43 C141.33,153 156.384,156.648 170.4,159.6 C222.426,170.562 279.552,180.642 331.116,189.018 " fill="none" id="ManageMeetingInvitationUI-to-ManageMeetingInvitationController" style="stroke:#181818;stroke-width:0.6;stroke-dasharray:7.0,7.0;"/><polygon fill="#181818" points="334.188,189.522,329.2423,186.2878,331.2268,189.0413,328.4732,191.0258,334.188,189.522" style="stroke:#181818;stroke-width:0.6;"/></g><!--link ManageMeetingInvitationController to UserSessionService--><g id="link_ManageMeetingInvitationController_UserSessionService"><path codeLine="80" d="M651.75,249.618 C657.546,252.906 663.126,256.494 668.4,260.4 C716.22,295.812 746.76,361.464 760.368,396.3 " fill="none" id="ManageMeetingInvitationController-to-UserSessionService" style="stroke:#181818;stroke-width:0.6;stroke-dasharray:7.0,7.0;"/><polygon fill="#181818" points="761.478,399.162,761.7602,393.2594,760.3919,396.3655,757.2858,394.9972,761.478,399.162" style="stroke:#181818;stroke-width:0.6;"/></g><!--link ManageMeetingInvitationController to IMeetingInvitationProvider--><g id="link_ManageMeetingInvitationController_IMeetingInvitationProvider"><path codeLine="81" d="M494.1,249.636 C494.1,255.666 494.1,261.702 494.1,267.738 " fill="none" id="ManageMeetingInvitationController-to-IMeetingInvitationProvider" style="stroke:#181818;stroke-width:0.6;"/><polygon fill="#181818" points="494.1,270.888,496.5,265.488,494.1,267.888,491.7,265.488,494.1,270.888" style="stroke:#181818;stroke-width:0.6;"/></g><!--link IMeetingInvitationProvider to IMeetingInvitationRepository--><g id="link_IMeetingInvitationProvider_IMeetingInvitationRepository"><path codeLine="83" d="M646.296,283.338 C719.97,279.612 808.164,275.148 881.28,271.452 " fill="none" id="IMeetingInvitationProvider-to-IMeetingInvitationRepository" style="stroke:#181818;stroke-width:0.6;stroke-dasharray:7.0,7.0;"/><polygon fill="#181818" points="884.31,271.302,878.7939,269.1825,881.314,271.4561,879.0404,273.9762,884.31,271.302" style="stroke:#181818;stroke-width:0.6;"/></g><!--link AcceptMeetingInvitationUI to AcceptMeetingInvitationController--><g id="link_AcceptMeetingInvitationUI_AcceptMeetingInvitationController"><path codeLine="85" d="M286.314,82.728 C317.658,81.378 357.36,79.668 393.6,78.102 " fill="none" id="AcceptMeetingInvitationUI-to-AcceptMeetingInvitationController" style="stroke:#181818;stroke-width:0.6;stroke-dasharray:7.0,7.0;"/><polygon fill="#181818" points="396.648,77.97,391.1502,75.8034,393.6508,78.0985,391.3557,80.599,396.648,77.97" style="stroke:#181818;stroke-width:0.6;"/></g><!--link RejectMeetingInvitationUI to RejectMeetingInvitationController--><g id="link_RejectMeetingInvitationUI_RejectMeetingInvitationController"><path codeLine="86" d="M285.336,135 C317.448,135 358.56,135 395.754,135 " fill="none" id="RejectMeetingInvitationUI-to-RejectMeetingInvitationController" style="stroke:#181818;stroke-width:0.6;stroke-dasharray:7.0,7.0;"/><polygon fill="#181818" points="398.88,135,393.48,132.6,395.88,135,393.48,137.4,398.88,135" style="stroke:#181818;stroke-width:0.6;"/></g><!--link ManageMeetingInvitationController to MeetingInvitation--><g id="link_ManageMeetingInvitationController_MeetingInvitation"><path codeLine="88" d="M654.012,194.202 C767.886,180.768 913.152,163.632 984.75,155.184 " fill="none" id="ManageMeetingInvitationController-to-MeetingInvitation" style="stroke:#181818;stroke-width:0.6;stroke-dasharray:7.0,7.0;"/><polygon fill="#181818" points="987.894,154.812,982.2503,153.0603,984.9146,155.163,982.8119,157.8274,987.894,154.812" style="stroke:#181818;stroke-width:0.6;"/></g><!--link AcceptMeetingInvitationController to MeetingInvitation--><g id="link_AcceptMeetingInvitationController_MeetingInvitation"><path codeLine="89" d="M591.402,87.6 C708.066,104.244 899.166,131.514 984.792,143.736 " fill="none" id="AcceptMeetingInvitationController-to-MeetingInvitation" style="stroke:#181818;stroke-width:0.6;stroke-dasharray:7.0,7.0;"/><polygon fill="#181818" points="987.792,144.162,982.7806,141.0305,984.8215,143.7425,982.1095,145.7834,987.792,144.162" style="stroke:#181818;stroke-width:0.6;"/></g><!--link RejectMeetingInvitationController to MeetingInvitation--><g id="link_RejectMeetingInvitationController_MeetingInvitation"><path codeLine="90" d="M589.248,137.658 C705.666,140.928 898.554,146.346 984.738,148.764 " fill="none" id="RejectMeetingInvitationController-to-MeetingInvitation" style="stroke:#181818;stroke-width:0.6;stroke-dasharray:7.0,7.0;"/><polygon fill="#181818" points="987.756,148.848,982.4195,146.31,984.757,148.7709,982.2961,151.1084,987.756,148.848" style="stroke:#181818;stroke-width:0.6;"/></g><!--link MeetingInvitation to InvitationStatus--><g id="link_MeetingInvitation_InvitationStatus"><path codeLine="92" d="M1070.922,150 C1109.886,150 1168.146,150 1207.08,150 " fill="none" id="MeetingInvitation-to-InvitationStatus" style="stroke:#181818;stroke-width:0.6;"/><polygon fill="#181818" points="1210.08,150,1204.68,147.6,1207.08,150,1204.68,152.4,1210.08,150" style="stroke:#181818;stroke-width:0.6;"/></g><!--reverse link MeetingInvitation to IMeetingInvitationRepository--><g id="link_MeetingInvitation_IMeetingInvitationRepository"><path codeLine="94" d="M1029.3,167.676 C1029.3,191.25 1029.3,214.824 1029.3,238.392 " fill="none" id="MeetingInvitation-backto-IMeetingInvitationRepository" style="stroke:#181818;stroke-width:0.6;stroke-dasharray:7.0,7.0;"/><polygon fill="#181818" points="1029.3,164.502,1026.9,169.902,1029.3,167.502,1031.7,169.902,1029.3,164.502" style="stroke:#181818;stroke-width:0.6;"/></g><!--SRC=[jLNHRjiW57tdAtZirCKVK4sHgZIjKYrP52zxP_ZQOSLW0VOKLVxtGT8aje6utJGhKcIuvzp3lTnZ_S94HHGfSKNe2oaWDNiEM04rI9_tCiX9pSsZ56P5Ii2FJ_W7KmNZdHYz8vdypKI1Sy8r8CGXDzX8h5YnCpXZZfD9WT1R9bmp_8eGjW_bH6ky9C8kBm6CPLc8XXdY0Di5VcsxSVUKGcN6upRmowQCnRKN8UKnX9r3oeEI4eGvAJo5aghYZ1w2JbkZ1vZPiYd9EIWBmPrdWXjGBDz_bKK1sLQ3klbqXnl9ibxOBKxf3hAQdwWlX3Ur1QMWjKsJWceOXS-durm4h9LiM0OgJEueFCtwm6m12mEA_EJmnGkP3dYyjD-g8vEtqQMzhARshzONrdPOtaZVe-MznIIC22hgLSRB7RbBLtAhCE93kPcmPSe91RnOnfhg9QwE6-uwRGKbWeBLb_rRXzyqjVrXo6H9M6WEXaJdmNGFYBh4mxOFJh6UhnuMgwVUslriDbz_dp_q5ZVpv_cikzY6X2gef6P6gdrNxBNgRhg8VdqrQI3OHOza0CoPoFvJLpfc1bJMIeEZ-KiRstgUujMW0DCtBPWTihfNlnNs5_VsoMGQT_GHNDJXhoLCakcuKwDnBtSyVgdU0RJ2u-ECq9LHJwPNhof2yK-ZKpjge2Z-oNJuKHD4xodRD30euzOUX8sxSf84WSYtA7UVXguKQaR76P8wnFq7]--></g></svg>