<?xml version="1.0" encoding="us-ascii" standalone="no"?><svg xmlns="http://www.w3.org/2000/svg" xmlns:xlink="http://www.w3.org/1999/xlink" contentStyleType="text/css" height="791px" preserveAspectRatio="none" style="width:2228px;height:791px;background:#FFFFFF;" version="1.1" viewBox="0 0 2228 791" width="2228px" zoomAndPan="magnify"><defs/><g><text fill="#000000" font-family="sans-serif" font-size="14" font-weight="bold" lengthAdjust="spacing" textLength="173" x="1020.5" y="25.1074">US4002 - Cancel meeting</text><!--cluster ui--><g id="cluster_ui"><path d="M230.5,45.6348 L244.5,45.6348 A3.75,3.75 0 0 1 247,48.1348 L254,70.2559 L395.5,70.2559 A2.5,2.5 0 0 1 398,72.7559 L398,144.1348 A2.5,2.5 0 0 1 395.5,146.6348 L230.5,146.6348 A2.5,2.5 0 0 1 228,144.1348 L228,48.1348 A2.5,2.5 0 0 1 230.5,45.6348 " fill="none" style="stroke:#000000;stroke-width:1.5;"/><line style="stroke:#000000;stroke-width:1.5;" x1="228" x2="254" y1="70.2559" y2="70.2559"/><text fill="#000000" font-family="sans-serif" font-size="14" font-weight="bold" lengthAdjust="spacing" textLength="13" x="232" y="62.7422">ui</text></g><!--cluster meetingmanagement--><g id="cluster_meetingmanagement"><path d="M8.5,170.6348 L156.5,170.6348 A3.75,3.75 0 0 1 159,173.1348 L166,195.2559 L1362.5,195.2559 A2.5,2.5 0 0 1 1365,197.7559 L1365,558.6348 A2.5,2.5 0 0 1 1362.5,561.1348 L8.5,561.1348 A2.5,2.5 0 0 1 6,558.6348 L6,173.1348 A2.5,2.5 0 0 1 8.5,170.6348 " fill="none" style="stroke:#000000;stroke-width:1.5;"/><line style="stroke:#000000;stroke-width:1.5;" x1="6" x2="166" y1="195.2559" y2="195.2559"/><text fill="#000000" font-family="sans-serif" font-size="14" font-weight="bold" lengthAdjust="spacing" textLength="147" x="10" y="187.7422">meetingmanagement</text></g><!--cluster domain--><g id="cluster_domain"><path d="M552.5,224.6348 L604.5,224.6348 A3.75,3.75 0 0 1 607,227.1348 L614,249.2559 L842.5,249.2559 A2.5,2.5 0 0 1 845,251.7559 L845,534.6348 A2.5,2.5 0 0 1 842.5,537.1348 L552.5,537.1348 A2.5,2.5 0 0 1 550,534.6348 L550,227.1348 A2.5,2.5 0 0 1 552.5,224.6348 " fill="none" style="stroke:#000000;stroke-width:1.5;"/><line style="stroke:#000000;stroke-width:1.5;" x1="550" x2="614" y1="249.2559" y2="249.2559"/><text fill="#000000" font-family="sans-serif" font-size="14" font-weight="bold" lengthAdjust="spacing" textLength="51" x="554" y="241.7422">domain</text></g><!--cluster repository--><g id="cluster_repository"><path d="M871.5,398.6348 L944.5,398.6348 A3.75,3.75 0 0 1 947,401.1348 L954,423.2559 L1338.5,423.2559 A2.5,2.5 0 0 1 1341,425.7559 L1341,516.1348 A2.5,2.5 0 0 1 1338.5,518.6348 L871.5,518.6348 A2.5,2.5 0 0 1 869,516.1348 L869,401.1348 A2.5,2.5 0 0 1 871.5,398.6348 " fill="none" style="stroke:#000000;stroke-width:1.5;"/><line style="stroke:#000000;stroke-width:1.5;" x1="869" x2="954" y1="423.2559" y2="423.2559"/><text fill="#000000" font-family="sans-serif" font-size="14" font-weight="bold" lengthAdjust="spacing" textLength="72" x="873" y="415.7422">repository</text></g><!--cluster application--><g id="cluster_application"><path d="M32.5,215.6348 L110.5,215.6348 A3.75,3.75 0 0 1 113,218.1348 L120,240.2559 L523.5,240.2559 A2.5,2.5 0 0 1 526,242.7559 L526,516.1348 A2.5,2.5 0 0 1 523.5,518.6348 L32.5,518.6348 A2.5,2.5 0 0 1 30,516.1348 L30,218.1348 A2.5,2.5 0 0 1 32.5,215.6348 " fill="none" style="stroke:#000000;stroke-width:1.5;"/><line style="stroke:#000000;stroke-width:1.5;" x1="30" x2="120" y1="240.2559" y2="240.2559"/><text fill="#000000" font-family="sans-serif" font-size="14" font-weight="bold" lengthAdjust="spacing" textLength="77" x="34" y="232.7422">application</text></g><!--cluster meetinginvitationmanagement--><g id="cluster_meetinginvitationmanagement"><path d="M1392.5,353.6348 L1606.5,353.6348 A3.75,3.75 0 0 1 1609,356.1348 L1616,378.2559 L2218.5,378.2559 A2.5,2.5 0 0 1 2221,380.7559 L2221,781.6348 A2.5,2.5 0 0 1 2218.5,784.1348 L1392.5,784.1348 A2.5,2.5 0 0 1 1390,781.6348 L1390,356.1348 A2.5,2.5 0 0 1 1392.5,353.6348 " fill="none" style="stroke:#000000;stroke-width:1.5;"/><line style="stroke:#000000;stroke-width:1.5;" x1="1390" x2="1616" y1="378.2559" y2="378.2559"/><text fill="#000000" font-family="sans-serif" font-size="14" font-weight="bold" lengthAdjust="spacing" textLength="213" x="1394" y="370.7422">meetinginvitationmanagement</text></g><!--cluster domain--><g id="cluster_domain"><path d="M1866.5,585.1348 L1918.5,585.1348 A3.75,3.75 0 0 1 1921,587.6348 L1928,609.7559 L2194.5,609.7559 A2.5,2.5 0 0 1 2197,612.2559 L2197,757.6348 A2.5,2.5 0 0 1 2194.5,760.1348 L1866.5,760.1348 A2.5,2.5 0 0 1 1864,757.6348 L1864,587.6348 A2.5,2.5 0 0 1 1866.5,585.1348 " fill="none" style="stroke:#000000;stroke-width:1.5;"/><line style="stroke:#000000;stroke-width:1.5;" x1="1864" x2="1928" y1="609.7559" y2="609.7559"/><text fill="#000000" font-family="sans-serif" font-size="14" font-weight="bold" lengthAdjust="spacing" textLength="51" x="1868" y="602.2422">domain</text></g><!--cluster repository--><g id="cluster_repository"><path d="M1416.5,612.6348 L1489.5,612.6348 A3.75,3.75 0 0 1 1492,615.1348 L1499,637.2559 L1837.5,637.2559 A2.5,2.5 0 0 1 1840,639.7559 L1840,730.1348 A2.5,2.5 0 0 1 1837.5,732.6348 L1416.5,732.6348 A2.5,2.5 0 0 1 1414,730.1348 L1414,615.1348 A2.5,2.5 0 0 1 1416.5,612.6348 " fill="none" style="stroke:#000000;stroke-width:1.5;"/><line style="stroke:#000000;stroke-width:1.5;" x1="1414" x2="1499" y1="637.2559" y2="637.2559"/><text fill="#000000" font-family="sans-serif" font-size="14" font-weight="bold" lengthAdjust="spacing" textLength="72" x="1418" y="629.7422">repository</text></g><!--cluster application--><g id="cluster_application"><path d="M1417.5,398.6348 L1495.5,398.6348 A3.75,3.75 0 0 1 1498,401.1348 L1505,423.2559 L1862.5,423.2559 A2.5,2.5 0 0 1 1865,425.7559 L1865,516.1348 A2.5,2.5 0 0 1 1862.5,518.6348 L1417.5,518.6348 A2.5,2.5 0 0 1 1415,516.1348 L1415,401.1348 A2.5,2.5 0 0 1 1417.5,398.6348 " fill="none" style="stroke:#000000;stroke-width:1.5;"/><line style="stroke:#000000;stroke-width:1.5;" x1="1415" x2="1505" y1="423.2559" y2="423.2559"/><text fill="#000000" font-family="sans-serif" font-size="14" font-weight="bold" lengthAdjust="spacing" textLength="77" x="1419" y="415.7422">application</text></g><!--class CancelMeetingUI--><g id="elem_CancelMeetingUI"><rect codeLine="7" fill="#F1F1F1" height="48" id="CancelMeetingUI" rx="2.5" ry="2.5" style="stroke:#181818;stroke-width:0.5;" width="138" x="244" y="82.6348"/><ellipse cx="259" cy="98.6348" fill="#ADD1B2" rx="11" ry="11" style="stroke:#181818;stroke-width:1.0;"/><path d="M261.7656,94.5098 Q261.9219,94.291 262.1094,94.1816 Q262.2969,94.0723 262.5156,94.0723 Q262.8906,94.0723 263.125,94.3379 Q263.3594,94.5879 263.3594,95.1973 L263.3594,96.6504 Q263.3594,97.2598 263.125,97.5254 Q262.8906,97.791 262.5156,97.791 Q262.1719,97.791 261.9688,97.5879 Q261.7656,97.4004 261.6563,96.8848 Q261.6094,96.5254 261.4219,96.3379 Q261.0938,95.9629 260.4844,95.7441 Q259.875,95.5254 259.25,95.5254 Q258.4844,95.5254 257.8438,95.8535 Q257.2188,96.1816 256.7188,96.9316 Q256.2344,97.6816 256.2344,98.7129 L256.2344,99.8066 Q256.2344,101.041 257.125,101.8691 Q258.0156,102.6816 259.6094,102.6816 Q260.5469,102.6816 261.2031,102.4316 Q261.5938,102.2754 262.0156,101.8379 Q262.2813,101.5723 262.4219,101.4941 Q262.5781,101.416 262.7813,101.416 Q263.1094,101.416 263.3594,101.6816 Q263.625,101.9316 263.625,102.2754 Q263.625,102.6191 263.2813,103.0254 Q262.7813,103.6035 261.9844,103.9316 Q260.9063,104.3848 259.6094,104.3848 Q258.0938,104.3848 256.8906,103.7598 Q255.9063,103.2598 255.2188,102.1973 Q254.5313,101.1191 254.5313,99.8379 L254.5313,98.6816 Q254.5313,97.3535 255.1406,96.2129 Q255.7656,95.0566 256.8594,94.4473 Q257.9531,93.8223 259.1875,93.8223 Q259.9219,93.8223 260.5625,93.9941 Q261.2188,94.1504 261.7656,94.5098 Z " fill="#000000"/><text fill="#000000" font-family="sans-serif" font-size="14" lengthAdjust="spacing" textLength="106" x="273" y="104.4316">CancelMeetingUI</text><line style="stroke:#181818;stroke-width:0.5;" x1="245" x2="381" y1="114.6348" y2="114.6348"/><line style="stroke:#181818;stroke-width:0.5;" x1="245" x2="381" y1="122.6348" y2="122.6348"/></g><!--class Meeting--><g id="elem_Meeting"><rect codeLine="16" fill="#F1F1F1" height="66.6211" id="Meeting" rx="2.5" ry="2.5" style="stroke:#181818;stroke-width:0.5;" width="105" x="566.5" y="435.6348"/><ellipse cx="591.85" cy="451.6348" fill="#ADD1B2" rx="11" ry="11" style="stroke:#181818;stroke-width:1.0;"/><path d="M594.6156,447.5098 Q594.7719,447.291 594.9594,447.1816 Q595.1469,447.0723 595.3656,447.0723 Q595.7406,447.0723 595.975,447.3379 Q596.2094,447.5879 596.2094,448.1973 L596.2094,449.6504 Q596.2094,450.2598 595.975,450.5254 Q595.7406,450.791 595.3656,450.791 Q595.0219,450.791 594.8188,450.5879 Q594.6156,450.4004 594.5063,449.8848 Q594.4594,449.5254 594.2719,449.3379 Q593.9438,448.9629 593.3344,448.7441 Q592.725,448.5254 592.1,448.5254 Q591.3344,448.5254 590.6938,448.8535 Q590.0688,449.1816 589.5688,449.9316 Q589.0844,450.6816 589.0844,451.7129 L589.0844,452.8066 Q589.0844,454.041 589.975,454.8691 Q590.8656,455.6816 592.4594,455.6816 Q593.3969,455.6816 594.0531,455.4316 Q594.4438,455.2754 594.8656,454.8379 Q595.1313,454.5723 595.2719,454.4941 Q595.4281,454.416 595.6313,454.416 Q595.9594,454.416 596.2094,454.6816 Q596.475,454.9316 596.475,455.2754 Q596.475,455.6191 596.1313,456.0254 Q595.6313,456.6035 594.8344,456.9316 Q593.7563,457.3848 592.4594,457.3848 Q590.9438,457.3848 589.7406,456.7598 Q588.7563,456.2598 588.0688,455.1973 Q587.3813,454.1191 587.3813,452.8379 L587.3813,451.6816 Q587.3813,450.3535 587.9906,449.2129 Q588.6156,448.0566 589.7094,447.4473 Q590.8031,446.8223 592.0375,446.8223 Q592.7719,446.8223 593.4125,446.9941 Q594.0688,447.1504 594.6156,447.5098 Z " fill="#000000"/><text fill="#000000" font-family="sans-serif" font-size="14" lengthAdjust="spacing" textLength="50" x="608.15" y="457.4316">Meeting</text><line style="stroke:#181818;stroke-width:0.5;" x1="567.5" x2="670.5" y1="467.6348" y2="467.6348"/><line style="stroke:#181818;stroke-width:0.5;" x1="567.5" x2="670.5" y1="475.6348" y2="475.6348"/><text fill="#000000" font-family="sans-serif" font-size="14" lengthAdjust="spacing" textLength="93" x="572.5" y="494.7422">+cancel(): void</text></g><!--class MeetingStatus--><g id="elem_MeetingStatus"><rect codeLine="20" fill="#F1F1F1" height="103.8633" id="MeetingStatus" rx="2.5" ry="2.5" style="stroke:#181818;stroke-width:0.5;" width="122" x="707" y="417.1348"/><ellipse cx="722" cy="433.1348" fill="#EB937F" rx="11" ry="11" style="stroke:#181818;stroke-width:1.0;"/><path d="M720.8594,433.9316 L720.8594,436.4316 L725.1875,436.4316 L725.1875,435.5098 Q725.1875,434.9004 725.4219,434.6348 Q725.6719,434.3691 726.0469,434.3691 Q726.4219,434.3691 726.6563,434.6348 Q726.8906,434.9004 726.8906,435.5098 L726.8906,438.1348 L718.8906,438.1348 Q718.2656,438.1348 718,437.9004 Q717.75,437.666 717.75,437.2754 Q717.75,436.9004 718.0156,436.666 Q718.2813,436.4316 718.8906,436.4316 L719.1563,436.4316 L719.1563,429.7754 L718.8906,429.7754 Q718.2656,429.7754 718,429.541 Q717.75,429.3066 717.75,428.916 Q717.75,428.541 718,428.3066 Q718.2656,428.0723 718.8906,428.0723 L726.5156,428.0723 L726.5156,430.666 Q726.5156,431.2754 726.2813,431.541 Q726.0625,431.791 725.6719,431.791 Q725.2969,431.791 725.0625,431.541 Q724.8281,431.2754 724.8281,430.666 L724.8281,429.7754 L720.8594,429.7754 L720.8594,432.2285 L722.3438,432.2285 Q722.3438,431.5723 722.4688,431.3848 Q722.7344,430.9785 723.2031,430.9785 Q723.5781,430.9785 723.8125,431.2441 Q724.0469,431.4941 724.0469,432.1035 L724.0469,434.0723 Q724.0469,434.6191 723.9219,434.8066 Q723.6563,435.1973 723.2031,435.1973 Q722.7344,435.1973 722.4688,434.791 Q722.3438,434.6035 722.3438,433.9316 L720.8594,433.9316 Z " fill="#000000"/><text fill="#000000" font-family="sans-serif" font-size="14" lengthAdjust="spacing" textLength="90" x="736" y="438.9316">MeetingStatus</text><line style="stroke:#181818;stroke-width:0.5;" x1="708" x2="828" y1="449.1348" y2="449.1348"/><text fill="#000000" font-family="sans-serif" font-size="14" lengthAdjust="spacing" textLength="60" x="713" y="468.2422">PENDING</text><text fill="#000000" font-family="sans-serif" font-size="14" lengthAdjust="spacing" textLength="74" x="713" y="486.8633">CANCELED</text><text fill="#000000" font-family="sans-serif" font-size="14" lengthAdjust="spacing" textLength="61" x="713" y="505.4844">FINISHED</text><line style="stroke:#181818;stroke-width:0.5;" x1="708" x2="828" y1="512.998" y2="512.998"/></g><!--class IMeetingManager--><g id="elem_IMeetingManager"><rect codeLine="26" fill="#F1F1F1" height="66.6211" id="IMeetingManager" rx="2.5" ry="2.5" style="stroke:#181818;stroke-width:0.5;" width="205" x="594.5" y="261.6348"/><ellipse cx="636.95" cy="277.6348" fill="#B4A7E5" rx="11" ry="11" style="stroke:#181818;stroke-width:1.0;"/><path d="M637.9031,274.2754 L637.9031,280.9316 L639.6219,280.9316 Q640.2313,280.9316 640.4969,281.166 Q640.7625,281.4004 640.7625,281.791 Q640.7625,282.166 640.4969,282.4004 Q640.2313,282.6348 639.6219,282.6348 L634.4813,282.6348 Q633.8719,282.6348 633.6063,282.4004 Q633.3406,282.166 633.3406,281.7754 Q633.3406,281.4004 633.6063,281.166 Q633.8719,280.9316 634.4813,280.9316 L636.2,280.9316 L636.2,274.2754 L634.4813,274.2754 Q633.8719,274.2754 633.6063,274.041 Q633.3406,273.8066 633.3406,273.416 Q633.3406,273.041 633.6063,272.8066 Q633.8719,272.5723 634.4813,272.5723 L639.6219,272.5723 Q640.2313,272.5723 640.4969,272.8066 Q640.7625,273.041 640.7625,273.416 Q640.7625,273.8066 640.4969,274.041 Q640.2313,274.2754 639.6219,274.2754 L637.9031,274.2754 Z " fill="#000000"/><text fill="#000000" font-family="sans-serif" font-size="14" font-style="italic" lengthAdjust="spacing" textLength="112" x="657.05" y="283.4316">IMeetingManager</text><line style="stroke:#181818;stroke-width:0.5;" x1="595.5" x2="798.5" y1="293.6348" y2="293.6348"/><line style="stroke:#181818;stroke-width:0.5;" x1="595.5" x2="798.5" y1="301.6348" y2="301.6348"/><text fill="#000000" font-family="sans-serif" font-size="14" lengthAdjust="spacing" textLength="193" x="600.5" y="320.7422">+cancelMeeting(meeting): void</text></g><!--class IMeetingRepository--><g id="elem_IMeetingRepository"><rect codeLine="33" fill="#F1F1F1" height="66.6211" id="IMeetingRepository" rx="2.5" ry="2.5" style="stroke:#181818;stroke-width:0.5;" width="439" x="885.5" y="435.6348"/><ellipse cx="1039.25" cy="451.6348" fill="#B4A7E5" rx="11" ry="11" style="stroke:#181818;stroke-width:1.0;"/><path d="M1040.2031,448.2754 L1040.2031,454.9316 L1041.9219,454.9316 Q1042.5313,454.9316 1042.7969,455.166 Q1043.0625,455.4004 1043.0625,455.791 Q1043.0625,456.166 1042.7969,456.4004 Q1042.5313,456.6348 1041.9219,456.6348 L1036.7813,456.6348 Q1036.1719,456.6348 1035.9063,456.4004 Q1035.6406,456.166 1035.6406,455.7754 Q1035.6406,455.4004 1035.9063,455.166 Q1036.1719,454.9316 1036.7813,454.9316 L1038.5,454.9316 L1038.5,448.2754 L1036.7813,448.2754 Q1036.1719,448.2754 1035.9063,448.041 Q1035.6406,447.8066 1035.6406,447.416 Q1035.6406,447.041 1035.9063,446.8066 Q1036.1719,446.5723 1036.7813,446.5723 L1041.9219,446.5723 Q1042.5313,446.5723 1042.7969,446.8066 Q1043.0625,447.041 1043.0625,447.416 Q1043.0625,447.8066 1042.7969,448.041 Q1042.5313,448.2754 1041.9219,448.2754 L1040.2031,448.2754 Z " fill="#000000"/><text fill="#000000" font-family="sans-serif" font-size="14" font-style="italic" lengthAdjust="spacing" textLength="123" x="1059.75" y="457.4316">IMeetingRepository</text><line style="stroke:#181818;stroke-width:0.5;" x1="886.5" x2="1323.5" y1="467.6348" y2="467.6348"/><line style="stroke:#181818;stroke-width:0.5;" x1="886.5" x2="1323.5" y1="475.6348" y2="475.6348"/><text fill="#000000" font-family="sans-serif" font-size="14" lengthAdjust="spacing" textLength="427" x="891.5" y="494.7422">+findFutureNotCanceledMeetingsByOwner(user): Iterable&lt;Meeting&gt;</text></g><!--class CancelMeetingController--><g id="elem_CancelMeetingController"><rect codeLine="40" fill="#F1F1F1" height="85.2422" id="CancelMeetingController" rx="2.5" ry="2.5" style="stroke:#181818;stroke-width:0.5;" width="324" x="151" y="252.6348"/><ellipse cx="230.75" cy="268.6348" fill="#ADD1B2" rx="11" ry="11" style="stroke:#181818;stroke-width:1.0;"/><path d="M233.5156,264.5098 Q233.6719,264.291 233.8594,264.1816 Q234.0469,264.0723 234.2656,264.0723 Q234.6406,264.0723 234.875,264.3379 Q235.1094,264.5879 235.1094,265.1973 L235.1094,266.6504 Q235.1094,267.2598 234.875,267.5254 Q234.6406,267.791 234.2656,267.791 Q233.9219,267.791 233.7188,267.5879 Q233.5156,267.4004 233.4063,266.8848 Q233.3594,266.5254 233.1719,266.3379 Q232.8438,265.9629 232.2344,265.7441 Q231.625,265.5254 231,265.5254 Q230.2344,265.5254 229.5938,265.8535 Q228.9688,266.1816 228.4688,266.9316 Q227.9844,267.6816 227.9844,268.7129 L227.9844,269.8066 Q227.9844,271.041 228.875,271.8691 Q229.7656,272.6816 231.3594,272.6816 Q232.2969,272.6816 232.9531,272.4316 Q233.3438,272.2754 233.7656,271.8379 Q234.0313,271.5723 234.1719,271.4941 Q234.3281,271.416 234.5313,271.416 Q234.8594,271.416 235.1094,271.6816 Q235.375,271.9316 235.375,272.2754 Q235.375,272.6191 235.0313,273.0254 Q234.5313,273.6035 233.7344,273.9316 Q232.6563,274.3848 231.3594,274.3848 Q229.8438,274.3848 228.6406,273.7598 Q227.6563,273.2598 226.9688,272.1973 Q226.2813,271.1191 226.2813,269.8379 L226.2813,268.6816 Q226.2813,267.3535 226.8906,266.2129 Q227.5156,265.0566 228.6094,264.4473 Q229.7031,263.8223 230.9375,263.8223 Q231.6719,263.8223 232.3125,263.9941 Q232.9688,264.1504 233.5156,264.5098 Z " fill="#000000"/><text fill="#000000" font-family="sans-serif" font-size="14" lengthAdjust="spacing" textLength="156" x="251.25" y="274.4316">CancelMeetingController</text><line style="stroke:#181818;stroke-width:0.5;" x1="152" x2="474" y1="284.6348" y2="284.6348"/><line style="stroke:#181818;stroke-width:0.5;" x1="152" x2="474" y1="292.6348" y2="292.6348"/><text fill="#000000" font-family="sans-serif" font-size="14" lengthAdjust="spacing" textLength="193" x="157" y="311.7422">+cancelMeeting(meeting): void</text><text fill="#000000" font-family="sans-serif" font-size="14" lengthAdjust="spacing" textLength="312" x="157" y="330.3633">+listCancelableMeetings(user): Iterable&lt;Meeting&gt;</text></g><!--class IMeetingProvider--><g id="elem_IMeetingProvider"><rect codeLine="46" fill="#F1F1F1" height="66.6211" id="IMeetingProvider" rx="2.5" ry="2.5" style="stroke:#181818;stroke-width:0.5;" width="463" x="46.5" y="435.6348"/><ellipse cx="220.25" cy="451.6348" fill="#B4A7E5" rx="11" ry="11" style="stroke:#181818;stroke-width:1.0;"/><path d="M221.2031,448.2754 L221.2031,454.9316 L222.9219,454.9316 Q223.5313,454.9316 223.7969,455.166 Q224.0625,455.4004 224.0625,455.791 Q224.0625,456.166 223.7969,456.4004 Q223.5313,456.6348 222.9219,456.6348 L217.7813,456.6348 Q217.1719,456.6348 216.9063,456.4004 Q216.6406,456.166 216.6406,455.7754 Q216.6406,455.4004 216.9063,455.166 Q217.1719,454.9316 217.7813,454.9316 L219.5,454.9316 L219.5,448.2754 L217.7813,448.2754 Q217.1719,448.2754 216.9063,448.041 Q216.6406,447.8066 216.6406,447.416 Q216.6406,447.041 216.9063,446.8066 Q217.1719,446.5723 217.7813,446.5723 L222.9219,446.5723 Q223.5313,446.5723 223.7969,446.8066 Q224.0625,447.041 224.0625,447.416 Q224.0625,447.8066 223.7969,448.041 Q223.5313,448.2754 222.9219,448.2754 L221.2031,448.2754 Z " fill="#000000"/><text fill="#000000" font-family="sans-serif" font-size="14" font-style="italic" lengthAdjust="spacing" textLength="107" x="240.75" y="457.4316">IMeetingProvider</text><line style="stroke:#181818;stroke-width:0.5;" x1="47.5" x2="508.5" y1="467.6348" y2="467.6348"/><line style="stroke:#181818;stroke-width:0.5;" x1="47.5" x2="508.5" y1="475.6348" y2="475.6348"/><text fill="#000000" font-family="sans-serif" font-size="14" lengthAdjust="spacing" textLength="451" x="52.5" y="494.7422">+provideFutureNotCanceledMeetingsByOwner(user): Iterable&lt;Meeting&gt;</text></g><!--class MeetingInvitation--><g id="elem_MeetingInvitation"><rect codeLine="64" fill="#F1F1F1" height="66.6211" id="MeetingInvitation" rx="2.5" ry="2.5" style="stroke:#181818;stroke-width:0.5;" width="138" x="1880" y="649.6348"/><ellipse cx="1895" cy="665.6348" fill="#ADD1B2" rx="11" ry="11" style="stroke:#181818;stroke-width:1.0;"/><path d="M1897.7656,661.5098 Q1897.9219,661.291 1898.1094,661.1816 Q1898.2969,661.0723 1898.5156,661.0723 Q1898.8906,661.0723 1899.125,661.3379 Q1899.3594,661.5879 1899.3594,662.1973 L1899.3594,663.6504 Q1899.3594,664.2598 1899.125,664.5254 Q1898.8906,664.791 1898.5156,664.791 Q1898.1719,664.791 1897.9688,664.5879 Q1897.7656,664.4004 1897.6563,663.8848 Q1897.6094,663.5254 1897.4219,663.3379 Q1897.0938,662.9629 1896.4844,662.7441 Q1895.875,662.5254 1895.25,662.5254 Q1894.4844,662.5254 1893.8438,662.8535 Q1893.2188,663.1816 1892.7188,663.9316 Q1892.2344,664.6816 1892.2344,665.7129 L1892.2344,666.8066 Q1892.2344,668.041 1893.125,668.8691 Q1894.0156,669.6816 1895.6094,669.6816 Q1896.5469,669.6816 1897.2031,669.4316 Q1897.5938,669.2754 1898.0156,668.8379 Q1898.2813,668.5723 1898.4219,668.4941 Q1898.5781,668.416 1898.7813,668.416 Q1899.1094,668.416 1899.3594,668.6816 Q1899.625,668.9316 1899.625,669.2754 Q1899.625,669.6191 1899.2813,670.0254 Q1898.7813,670.6035 1897.9844,670.9316 Q1896.9063,671.3848 1895.6094,671.3848 Q1894.0938,671.3848 1892.8906,670.7598 Q1891.9063,670.2598 1891.2188,669.1973 Q1890.5313,668.1191 1890.5313,666.8379 L1890.5313,665.6816 Q1890.5313,664.3535 1891.1406,663.2129 Q1891.7656,662.0566 1892.8594,661.4473 Q1893.9531,660.8223 1895.1875,660.8223 Q1895.9219,660.8223 1896.5625,660.9941 Q1897.2188,661.1504 1897.7656,661.5098 Z " fill="#000000"/><text fill="#000000" font-family="sans-serif" font-size="14" lengthAdjust="spacing" textLength="106" x="1909" y="671.4316">MeetingInvitation</text><line style="stroke:#181818;stroke-width:0.5;" x1="1881" x2="2017" y1="681.6348" y2="681.6348"/><line style="stroke:#181818;stroke-width:0.5;" x1="1881" x2="2017" y1="689.6348" y2="689.6348"/><text fill="#000000" font-family="sans-serif" font-size="14" lengthAdjust="spacing" textLength="93" x="1886" y="708.7422">+cancel(): void</text></g><!--class InvitationStatus--><g id="elem_InvitationStatus"><rect codeLine="68" fill="#F1F1F1" height="122.4844" id="InvitationStatus" rx="2.5" ry="2.5" style="stroke:#181818;stroke-width:0.5;" width="128" x="2053" y="622.1348"/><ellipse cx="2068" cy="638.1348" fill="#EB937F" rx="11" ry="11" style="stroke:#181818;stroke-width:1.0;"/><path d="M2066.8594,638.9316 L2066.8594,641.4316 L2071.1875,641.4316 L2071.1875,640.5098 Q2071.1875,639.9004 2071.4219,639.6348 Q2071.6719,639.3691 2072.0469,639.3691 Q2072.4219,639.3691 2072.6563,639.6348 Q2072.8906,639.9004 2072.8906,640.5098 L2072.8906,643.1348 L2064.8906,643.1348 Q2064.2656,643.1348 2064,642.9004 Q2063.75,642.666 2063.75,642.2754 Q2063.75,641.9004 2064.0156,641.666 Q2064.2813,641.4316 2064.8906,641.4316 L2065.1563,641.4316 L2065.1563,634.7754 L2064.8906,634.7754 Q2064.2656,634.7754 2064,634.541 Q2063.75,634.3066 2063.75,633.916 Q2063.75,633.541 2064,633.3066 Q2064.2656,633.0723 2064.8906,633.0723 L2072.5156,633.0723 L2072.5156,635.666 Q2072.5156,636.2754 2072.2813,636.541 Q2072.0625,636.791 2071.6719,636.791 Q2071.2969,636.791 2071.0625,636.541 Q2070.8281,636.2754 2070.8281,635.666 L2070.8281,634.7754 L2066.8594,634.7754 L2066.8594,637.2285 L2068.3438,637.2285 Q2068.3438,636.5723 2068.4688,636.3848 Q2068.7344,635.9785 2069.2031,635.9785 Q2069.5781,635.9785 2069.8125,636.2441 Q2070.0469,636.4941 2070.0469,637.1035 L2070.0469,639.0723 Q2070.0469,639.6191 2069.9219,639.8066 Q2069.6563,640.1973 2069.2031,640.1973 Q2068.7344,640.1973 2068.4688,639.791 Q2068.3438,639.6035 2068.3438,638.9316 L2066.8594,638.9316 Z " fill="#000000"/><text fill="#000000" font-family="sans-serif" font-size="14" lengthAdjust="spacing" textLength="96" x="2082" y="643.9316">InvitationStatus</text><line style="stroke:#181818;stroke-width:0.5;" x1="2054" x2="2180" y1="654.1348" y2="654.1348"/><text fill="#000000" font-family="sans-serif" font-size="14" lengthAdjust="spacing" textLength="60" x="2059" y="673.2422">PENDING</text><text fill="#000000" font-family="sans-serif" font-size="14" lengthAdjust="spacing" textLength="75" x="2059" y="691.8633">ACCEPTED</text><text fill="#000000" font-family="sans-serif" font-size="14" lengthAdjust="spacing" textLength="72" x="2059" y="710.4844">REJECTED</text><text fill="#000000" font-family="sans-serif" font-size="14" lengthAdjust="spacing" textLength="74" x="2059" y="729.1055">CANCELED</text><line style="stroke:#181818;stroke-width:0.5;" x1="2054" x2="2180" y1="736.6191" y2="736.6191"/></g><!--class IMeetingInvitationRepository--><g id="elem_IMeetingInvitationRepository"><rect codeLine="79" fill="#F1F1F1" height="66.6211" id="IMeetingInvitationRepository" rx="2.5" ry="2.5" style="stroke:#181818;stroke-width:0.5;" width="393" x="1430.5" y="649.6348"/><ellipse cx="1533.25" cy="665.6348" fill="#B4A7E5" rx="11" ry="11" style="stroke:#181818;stroke-width:1.0;"/><path d="M1534.2031,662.2754 L1534.2031,668.9316 L1535.9219,668.9316 Q1536.5313,668.9316 1536.7969,669.166 Q1537.0625,669.4004 1537.0625,669.791 Q1537.0625,670.166 1536.7969,670.4004 Q1536.5313,670.6348 1535.9219,670.6348 L1530.7813,670.6348 Q1530.1719,670.6348 1529.9063,670.4004 Q1529.6406,670.166 1529.6406,669.7754 Q1529.6406,669.4004 1529.9063,669.166 Q1530.1719,668.9316 1530.7813,668.9316 L1532.5,668.9316 L1532.5,662.2754 L1530.7813,662.2754 Q1530.1719,662.2754 1529.9063,662.041 Q1529.6406,661.8066 1529.6406,661.416 Q1529.6406,661.041 1529.9063,660.8066 Q1530.1719,660.5723 1530.7813,660.5723 L1535.9219,660.5723 Q1536.5313,660.5723 1536.7969,660.8066 Q1537.0625,661.041 1537.0625,661.416 Q1537.0625,661.8066 1536.7969,662.041 Q1536.5313,662.2754 1535.9219,662.2754 L1534.2031,662.2754 Z " fill="#000000"/><text fill="#000000" font-family="sans-serif" font-size="14" font-style="italic" lengthAdjust="spacing" textLength="179" x="1553.75" y="671.4316">IMeetingInvitationRepository</text><line style="stroke:#181818;stroke-width:0.5;" x1="1431.5" x2="1822.5" y1="681.6348" y2="681.6348"/><line style="stroke:#181818;stroke-width:0.5;" x1="1431.5" x2="1822.5" y1="689.6348" y2="689.6348"/><text fill="#000000" font-family="sans-serif" font-size="14" lengthAdjust="spacing" textLength="381" x="1436.5" y="708.7422">+findMeetingInvitations(meeting): Iterable&lt;MeetingInvitation&gt;</text></g><!--class IMeetingInvitationProvider--><g id="elem_IMeetingInvitationProvider"><rect codeLine="85" fill="#F1F1F1" height="66.6211" id="IMeetingInvitationProvider" rx="2.5" ry="2.5" style="stroke:#181818;stroke-width:0.5;" width="417" x="1431.5" y="435.6348"/><ellipse cx="1554.25" cy="451.6348" fill="#B4A7E5" rx="11" ry="11" style="stroke:#181818;stroke-width:1.0;"/><path d="M1555.2031,448.2754 L1555.2031,454.9316 L1556.9219,454.9316 Q1557.5313,454.9316 1557.7969,455.166 Q1558.0625,455.4004 1558.0625,455.791 Q1558.0625,456.166 1557.7969,456.4004 Q1557.5313,456.6348 1556.9219,456.6348 L1551.7813,456.6348 Q1551.1719,456.6348 1550.9063,456.4004 Q1550.6406,456.166 1550.6406,455.7754 Q1550.6406,455.4004 1550.9063,455.166 Q1551.1719,454.9316 1551.7813,454.9316 L1553.5,454.9316 L1553.5,448.2754 L1551.7813,448.2754 Q1551.1719,448.2754 1550.9063,448.041 Q1550.6406,447.8066 1550.6406,447.416 Q1550.6406,447.041 1550.9063,446.8066 Q1551.1719,446.5723 1551.7813,446.5723 L1556.9219,446.5723 Q1557.5313,446.5723 1557.7969,446.8066 Q1558.0625,447.041 1558.0625,447.416 Q1558.0625,447.8066 1557.7969,448.041 Q1557.5313,448.2754 1556.9219,448.2754 L1555.2031,448.2754 Z " fill="#000000"/><text fill="#000000" font-family="sans-serif" font-size="14" font-style="italic" lengthAdjust="spacing" textLength="163" x="1574.75" y="457.4316">IMeetingInvitationProvider</text><line style="stroke:#181818;stroke-width:0.5;" x1="1432.5" x2="1847.5" y1="467.6348" y2="467.6348"/><line style="stroke:#181818;stroke-width:0.5;" x1="1432.5" x2="1847.5" y1="475.6348" y2="475.6348"/><text fill="#000000" font-family="sans-serif" font-size="14" lengthAdjust="spacing" textLength="405" x="1437.5" y="494.7422">+provideMeetingInvitations(meeting): Iterable&lt;MeetingInvitation&gt;</text></g><!--link IMeetingProvider to IMeetingRepository--><g id="link_IMeetingProvider_IMeetingRepository"><path codeLine="49" d="M342.19,435.5348 C396.38,408.2548 476.66,370.3848 550,345.6348 C557.56,343.0848 559.57,342.5248 567.5,341.6348 C596.21,338.3948 798.79,338.3948 827.5,341.6348 C911.54,351.1148 998.59,398.2848 1052.27,432.4948 " fill="none" id="IMeetingProvider-to-IMeetingRepository" style="stroke:#181818;stroke-width:1.0;stroke-dasharray:7.0,7.0;"/><polygon fill="#181818" points="1056.72,435.3448,1051.2997,427.1216,1052.5099,432.6475,1046.9841,433.8577,1056.72,435.3448" style="stroke:#181818;stroke-width:1.0;"/></g><!--link Meeting to MeetingStatus--><g id="link_Meeting_MeetingStatus"><path codeLine="53" d="M671.67,469.1348 C681.61,469.1348 691.54,469.1348 701.47,469.1348 " fill="none" id="Meeting-to-MeetingStatus" style="stroke:#181818;stroke-width:1.0;"/><polygon fill="#181818" points="706.67,469.1348,697.67,465.1348,701.67,469.1348,697.67,473.1348,706.67,469.1348" style="stroke:#181818;stroke-width:1.0;"/></g><!--link IMeetingRepository to Meeting--><g id="link_IMeetingRepository_Meeting"><path codeLine="54" d="M1056.72,435.3448 C1003.49,400.9648 913.9,351.3848 827.5,341.6348 C800.78,338.6248 733.22,338.6248 706.5,341.6348 C698.57,342.5248 695.4,340.8748 689,345.6348 C660.59,366.7848 642.02,403.0948 631.2,430.8948 " fill="none" id="IMeetingRepository-to-Meeting" style="stroke:#181818;stroke-width:1.0;"/><polygon fill="#181818" points="629.39,435.6248,636.3399,428.6463,631.1753,430.9544,628.8673,425.7898,629.39,435.6248" style="stroke:#181818;stroke-width:1.0;"/></g><!--link CancelMeetingUI to CancelMeetingController--><g id="link_CancelMeetingUI_CancelMeetingController"><path codeLine="55" d="M313,130.8748 C313,159.8248 313,209.9748 313,247.0748 " fill="none" id="CancelMeetingUI-to-CancelMeetingController" style="stroke:#181818;stroke-width:1.0;stroke-dasharray:7.0,7.0;"/><polygon fill="#181818" points="313,252.4448,317,243.4448,313,247.4448,309,243.4448,313,252.4448" style="stroke:#181818;stroke-width:1.0;"/></g><!--link CancelMeetingController to IMeetingProvider--><g id="link_CancelMeetingController_IMeetingProvider"><path codeLine="56" d="M304.53,337.7748 C298.78,366.0348 291.23,403.1048 285.66,430.4948 " fill="none" id="CancelMeetingController-to-IMeetingProvider" style="stroke:#181818;stroke-width:1.0;stroke-dasharray:7.0,7.0;"/><polygon fill="#181818" points="284.64,435.4848,290.3589,427.4664,285.6398,430.5857,282.5204,425.8667,284.64,435.4848" style="stroke:#181818;stroke-width:1.0;"/></g><!--link MeetingInvitation to InvitationStatus--><g id="link_MeetingInvitation_InvitationStatus"><path codeLine="76" d="M2018.23,683.1348 C2028.09,683.1348 2037.95,683.1348 2047.8,683.1348 " fill="none" id="MeetingInvitation-to-InvitationStatus" style="stroke:#181818;stroke-width:1.0;"/><polygon fill="#181818" points="2052.96,683.1348,2043.96,679.1348,2047.96,683.1348,2043.96,687.1348,2052.96,683.1348" style="stroke:#181818;stroke-width:1.0;"/></g><!--link IMeetingInvitationRepository to MeetingInvitation--><g id="link_IMeetingInvitationRepository_MeetingInvitation"><path codeLine="90" d="M1823.53,683.1348 C1840.56,683.1348 1857.59,683.1348 1874.61,683.1348 " fill="none" id="IMeetingInvitationRepository-to-MeetingInvitation" style="stroke:#181818;stroke-width:1.0;"/><polygon fill="#181818" points="1879.9,683.1348,1870.9,679.1348,1874.9,683.1348,1870.9,687.1348,1879.9,683.1348" style="stroke:#181818;stroke-width:1.0;"/></g><!--link IMeetingInvitationProvider to IMeetingInvitationRepository--><g id="link_IMeetingInvitationProvider_IMeetingInvitationRepository"><path codeLine="91" d="M1638,502.7948 C1635.66,540.9248 1631.8,603.8748 1629.33,644.1548 " fill="none" id="IMeetingInvitationProvider-to-IMeetingInvitationRepository" style="stroke:#181818;stroke-width:1.0;stroke-dasharray:7.0,7.0;"/><polygon fill="#181818" points="1629.01,649.4348,1633.5667,640.7034,1629.3237,644.4446,1625.5825,640.2016,1629.01,649.4348" style="stroke:#181818;stroke-width:1.0;"/></g><!--link IMeetingManager to IMeetingProvider--><g id="link_IMeetingManager_IMeetingProvider"><path codeLine="94" d="M596.1,328.6448 C580.57,334.0748 564.79,339.8348 550,345.6348 C481.07,372.6848 404.29,407.7348 349.93,433.4048 " fill="none" id="IMeetingManager-to-IMeetingProvider" style="stroke:#181818;stroke-width:1.0;stroke-dasharray:7.0,7.0;"/><polygon fill="#181818" points="345.4,435.5448,355.2461,435.3109,349.9196,433.4062,351.8243,428.0797,345.4,435.5448" style="stroke:#181818;stroke-width:1.0;"/></g><!--link IMeetingManager to IMeetingInvitationProvider--><g id="link_IMeetingManager_IMeetingInvitationProvider"><path codeLine="95" d="M799.6,298.2048 C967.49,302.4348 1293.33,314.4848 1404,345.6348 C1471.15,364.5348 1541.27,403.8148 1587.44,432.8148 " fill="none" id="IMeetingManager-to-IMeetingInvitationProvider" style="stroke:#181818;stroke-width:1.0;stroke-dasharray:7.0,7.0;"/><polygon fill="#181818" points="1591.83,435.5948,1586.3576,427.4062,1587.6029,432.9243,1582.0848,434.1695,1591.83,435.5948" style="stroke:#181818;stroke-width:1.0;"/></g><!--link IMeetingManager to IMeetingInvitationRepository--><g id="link_IMeetingManager_IMeetingInvitationRepository"><path codeLine="96" d="M799.71,297.8648 C970.76,301.6548 1299.44,313.1148 1341,345.6348 C1423.41,410.1148 1347.56,489.1348 1415,569.1348 C1444.25,603.8348 1486.95,629.4548 1526.37,647.4448 " fill="none" id="IMeetingManager-to-IMeetingInvitationRepository" style="stroke:#181818;stroke-width:1.0;stroke-dasharray:7.0,7.0;"/><polygon fill="#181818" points="1531.16,649.5948,1524.6028,642.2461,1526.6028,647.5376,1521.3113,649.5376,1531.16,649.5948" style="stroke:#181818;stroke-width:1.0;"/></g><!--link IMeetingManager to IMeetingRepository--><g id="link_IMeetingManager_IMeetingRepository"><path codeLine="97" d="M799.48,328.6648 C814.84,334.0448 830.42,339.7848 845,345.6348 C911.31,372.2348 984.77,407.4048 1036.65,433.2248 " fill="none" id="IMeetingManager-to-IMeetingRepository" style="stroke:#181818;stroke-width:1.0;stroke-dasharray:7.0,7.0;"/><polygon fill="#181818" points="1041.29,435.5448,1035.0193,427.9501,1036.815,433.3144,1031.4507,435.1101,1041.29,435.5448" style="stroke:#181818;stroke-width:1.0;"/></g><!--link CancelMeetingController to IMeetingManager--><g id="link_CancelMeetingController_IMeetingManager"><path codeLine="98" d="M475.38,295.1348 C513.35,295.1348 551.32,295.1348 589.3,295.1348 " fill="none" id="CancelMeetingController-to-IMeetingManager" style="stroke:#181818;stroke-width:1.0;stroke-dasharray:7.0,7.0;"/><polygon fill="#181818" points="594.41,295.1348,585.41,291.1348,589.41,295.1348,585.41,299.1348,594.41,295.1348" style="stroke:#181818;stroke-width:1.0;"/></g><!--link IMeetingManager to Meeting--><g id="link_IMeetingManager_Meeting"><path codeLine="99" d="M682.15,328.8948 C668.97,357.9448 649.74,400.3548 635.96,430.7348 " fill="none" id="IMeetingManager-to-Meeting" style="stroke:#181818;stroke-width:1.0;stroke-dasharray:7.0,7.0;"/><polygon fill="#181818" points="633.8,435.5048,641.1487,428.9475,635.8572,430.9476,633.8571,425.6561,633.8,435.5048" style="stroke:#181818;stroke-width:1.0;"/></g><!--SRC=[hLNHRjiW57tdAtZCD3MAgZvDKwJCTLTFgnSrwmTG-xQwgWqMu4pTb7-Vuq31cBXHLDxCFPnxkFSUh5wGDqoocXOLKsgbjSJ7LaDM2Bx1lq0NX6ZK5T27pTLYSKalQC9u0HMj0JJoPq8QLhomPw0jqd-4q6xrL0PtTu0zP5rm7ziHidDd34dDUFTL0zUMmW9AKJFaTjUH6rf3QjTdMlH9Pv- -qAt0yYsuS-U1jxKzlj5CjoeWMQVvTPP_7-mbgpn9VwRNWysRBCysjzwcbmMv1ld42g2PoNNNtr4UKMn0CrEGiNwFtzP6GYCKQY5V_VgCCz_xk67o9-JbJQjR2RdGXuP1QOwfRw-__d2GirQ1x0Hb7IzxhE2hYI_3UmVoMDDKM32DWdjv8xEH2AwbgAfpYtE0LgZC3VOYxHrE4ZzHkxKKMomZoff3u2EAHuCroZrVHdevgBcrmyLoEDh4v_FcmE5wH6ZLUPVnI8l6UAzzSq-fLH_pE_8jwduopdP-zaPnxXlW64v-1bP9agv_1y_0VVeZJSBDqOEnYxJBkqFNa53FXDcFpwiZUSVr8xpox1LEgqCjfv-akEUdPBvdi8_LELacPmeNFdBAMTER-1ZfVlZ3Fq3K9LEWSTuJuPwEgGCUx1Hd6ueefNrLklKV]--></g></svg>