<?xml version="1.0" encoding="us-ascii" standalone="no"?><svg xmlns="http://www.w3.org/2000/svg" xmlns:xlink="http://www.w3.org/1999/xlink" contentStyleType="text/css" height="453px" preserveAspectRatio="none" style="width:528px;height:453px;background:#FFFFFF;" version="1.1" viewBox="0 0 528 453" width="528px" zoomAndPan="magnify"><defs/><g><rect fill="#FFFFFF" height="258.6191" style="stroke:#181818;stroke-width:1.0;" width="10" x="31" y="93.6211"/><rect fill="#FFFFFF" height="235.3281" style="stroke:#181818;stroke-width:1.0;" width="10" x="373" y="116.9121"/><line style="stroke:#181818;stroke-width:0.5;stroke-dasharray:5.0,5.0;" x1="36" x2="36" y1="83.6211" y2="370.2402"/><line style="stroke:#181818;stroke-width:0.5;stroke-dasharray:5.0,5.0;" x1="378" x2="378" y1="83.6211" y2="370.2402"/><text fill="#000000" font-family="sans-serif" font-size="14" lengthAdjust="spacing" textLength="56" x="5" y="80.1074">Manager</text><ellipse cx="36" cy="13.5" fill="#E2E2F0" rx="8" ry="8" style="stroke:#181818;stroke-width:0.5;"/><path d="M36,21.5 L36,48.5 M23,29.5 L49,29.5 M36,48.5 L23,63.5 M36,48.5 L49,63.5 " fill="none" style="stroke:#181818;stroke-width:0.5;"/><text fill="#000000" font-family="sans-serif" font-size="14" lengthAdjust="spacing" textLength="56" x="5" y="384.3477">Manager</text><ellipse cx="36" cy="396.3613" fill="#E2E2F0" rx="8" ry="8" style="stroke:#181818;stroke-width:0.5;"/><path d="M36,404.3613 L36,431.3613 M23,412.3613 L49,412.3613 M36,431.3613 L23,446.3613 M36,431.3613 L49,446.3613 " fill="none" style="stroke:#181818;stroke-width:0.5;"/><rect fill="#E2E2F0" height="32.6211" rx="2.5" ry="2.5" style="stroke:#181818;stroke-width:0.5;" width="64" x="346" y="50"/><text fill="#000000" font-family="sans-serif" font-size="14" lengthAdjust="spacing" textLength="50" x="353" y="72.1074">:System</text><rect fill="#E2E2F0" height="32.6211" rx="2.5" ry="2.5" style="stroke:#181818;stroke-width:0.5;" width="64" x="346" y="369.2402"/><text fill="#000000" font-family="sans-serif" font-size="14" lengthAdjust="spacing" textLength="50" x="353" y="391.3477">:System</text><rect fill="#FFFFFF" height="258.6191" style="stroke:#181818;stroke-width:1.0;" width="10" x="31" y="93.6211"/><rect fill="#FFFFFF" height="235.3281" style="stroke:#181818;stroke-width:1.0;" width="10" x="373" y="116.9121"/><polygon fill="#181818" points="361,112.9121,371,116.9121,361,120.9121,365,116.9121" style="stroke:#181818;stroke-width:1.0;"/><line style="stroke:#181818;stroke-width:1.0;" x1="41" x2="367" y1="116.9121" y2="116.9121"/><text fill="#000000" font-family="sans-serif" font-size="13" font-weight="bold" lengthAdjust="spacing" textLength="7" x="48" y="111.6494">1</text><text fill="#000000" font-family="sans-serif" font-size="13" lengthAdjust="spacing" textLength="195" x="59" y="111.6494">asks to add a teacher to a course</text><polygon fill="#181818" points="52,161.4941,42,165.4941,52,169.4941,48,165.4941" style="stroke:#181818;stroke-width:1.0;"/><line style="stroke:#181818;stroke-width:1.0;stroke-dasharray:2.0,2.0;" x1="46" x2="372" y1="165.4941" y2="165.4941"/><text fill="#000000" font-family="sans-serif" font-size="13" font-weight="bold" lengthAdjust="spacing" textLength="7" x="58" y="151.5859">2</text><text fill="#000000" font-family="sans-serif" font-size="13" lengthAdjust="spacing" textLength="161" x="69" y="142.9404">presents list of courses that</text><text fill="#000000" font-family="sans-serif" font-size="13" lengthAdjust="spacing" textLength="129" x="73" y="160.2314">are not in closed state</text><polygon fill="#181818" points="361,192.7852,371,196.7852,361,200.7852,365,196.7852" style="stroke:#181818;stroke-width:1.0;"/><line style="stroke:#181818;stroke-width:1.0;" x1="41" x2="367" y1="196.7852" y2="196.7852"/><text fill="#000000" font-family="sans-serif" font-size="13" font-weight="bold" lengthAdjust="spacing" textLength="7" x="48" y="191.5225">3</text><text fill="#000000" font-family="sans-serif" font-size="13" lengthAdjust="spacing" textLength="96" x="59" y="191.5225">selects a course</text><polygon fill="#181818" points="52,224.0762,42,228.0762,52,232.0762,48,228.0762" style="stroke:#181818;stroke-width:1.0;"/><line style="stroke:#181818;stroke-width:1.0;stroke-dasharray:2.0,2.0;" x1="46" x2="372" y1="228.0762" y2="228.0762"/><text fill="#000000" font-family="sans-serif" font-size="13" font-weight="bold" lengthAdjust="spacing" textLength="7" x="58" y="222.8135">4</text><text fill="#000000" font-family="sans-serif" font-size="13" lengthAdjust="spacing" textLength="297" x="69" y="222.8135">presents list of teachers not assigned to the course</text><polygon fill="#181818" points="361,255.3672,371,259.3672,361,263.3672,365,259.3672" style="stroke:#181818;stroke-width:1.0;"/><line style="stroke:#181818;stroke-width:1.0;" x1="41" x2="367" y1="259.3672" y2="259.3672"/><text fill="#000000" font-family="sans-serif" font-size="13" font-weight="bold" lengthAdjust="spacing" textLength="7" x="48" y="254.1045">5</text><text fill="#000000" font-family="sans-serif" font-size="13" lengthAdjust="spacing" textLength="100" x="59" y="254.1045">selects a teacher</text><line style="stroke:#181818;stroke-width:1.0;" x1="383" x2="425" y1="307.9492" y2="307.9492"/><line style="stroke:#181818;stroke-width:1.0;" x1="425" x2="425" y1="307.9492" y2="320.9492"/><line style="stroke:#181818;stroke-width:1.0;" x1="384" x2="425" y1="320.9492" y2="320.9492"/><polygon fill="#181818" points="394,316.9492,384,320.9492,394,324.9492,390,320.9492" style="stroke:#181818;stroke-width:1.0;"/><text fill="#000000" font-family="sans-serif" font-size="13" font-weight="bold" lengthAdjust="spacing" textLength="7" x="390" y="294.041">6</text><text fill="#000000" font-family="sans-serif" font-size="13" lengthAdjust="spacing" textLength="112" x="401" y="285.3955">adds teacher to the</text><text fill="#000000" font-family="sans-serif" font-size="13" lengthAdjust="spacing" textLength="116" x="405" y="302.6865">course's teacher list</text><polygon fill="#181818" points="47,348.2402,37,352.2402,47,356.2402,43,352.2402" style="stroke:#181818;stroke-width:1.0;"/><line style="stroke:#181818;stroke-width:1.0;stroke-dasharray:2.0,2.0;" x1="41" x2="377" y1="352.2402" y2="352.2402"/><text fill="#000000" font-family="sans-serif" font-size="13" font-weight="bold" lengthAdjust="spacing" textLength="7" x="53" y="346.9775">7</text><text fill="#000000" font-family="sans-serif" font-size="13" lengthAdjust="spacing" textLength="160" x="64" y="346.9775">presents success message</text><!--SRC=[ZP6nRiCm34HtVSN1IwVyW8V-WQQkMLY9ZOtQKg6Z2_JlowIkww99q4KWADsx8oMBrRBCpzg29AiDNPGY9sqTX8ZXt1tVnTJhYCCZklxfWwPpr_k3Ly8g96S8J2KDsYuDfBeqwawzoS9MuU2uY1vlJQd5Y6caeRwiQcSFOiS2QOfI3MD1cYerW-RCFtceaoR7RFR_i5fJys8Wv7WgplSPRD1lp6sVLRqt-hsXdBbVZ4DzdY_imy_DESozi5nIKXAp7_ut8MIzijXTCuPF]--></g></svg>