<?xml version="1.0" encoding="us-ascii" standalone="no"?><svg xmlns="http://www.w3.org/2000/svg" xmlns:xlink="http://www.w3.org/1999/xlink" contentStyleType="text/css" height="577px" preserveAspectRatio="none" style="width:1246px;height:577px;background:#FFFFFF;" version="1.1" viewBox="0 0 1246 577" width="1246px" zoomAndPan="magnify"><defs/><g><!--cluster ui--><g id="cluster_ui"><path d="M8.5,303.0137 L22.5,303.0137 A3.75,3.75 0 0 1 25,305.5137 L32,327.6348 L168.5,327.6348 A2.5,2.5 0 0 1 171,330.1348 L171,401.5137 A2.5,2.5 0 0 1 168.5,404.0137 L8.5,404.0137 A2.5,2.5 0 0 1 6,401.5137 L6,305.5137 A2.5,2.5 0 0 1 8.5,303.0137 " fill="none" style="stroke:#000000;stroke-width:1.5;"/><line style="stroke:#000000;stroke-width:1.5;" x1="6" x2="32" y1="327.6348" y2="327.6348"/><text fill="#000000" font-family="sans-serif" font-size="14" font-weight="bold" lengthAdjust="spacing" textLength="13" x="10" y="320.1211">ui</text></g><!--cluster coursemanagement--><g id="cluster_coursemanagement"><path d="M197.5,6.0137 L337.5,6.0137 A3.75,3.75 0 0 1 340,8.5137 L347,30.6348 L1236.5,30.6348 A2.5,2.5 0 0 1 1239,33.1348 L1239,567.5137 A2.5,2.5 0 0 1 1236.5,570.0137 L197.5,570.0137 A2.5,2.5 0 0 1 195,567.5137 L195,8.5137 A2.5,2.5 0 0 1 197.5,6.0137 " fill="none" style="stroke:#000000;stroke-width:1.5;"/><line style="stroke:#000000;stroke-width:1.5;" x1="195" x2="347" y1="30.6348" y2="30.6348"/><text fill="#000000" font-family="sans-serif" font-size="14" font-weight="bold" lengthAdjust="spacing" textLength="139" x="199" y="23.1211">coursemanagement</text></g><!--cluster application--><g id="cluster_application"><path d="M221.5,293.0137 L299.5,293.0137 A3.75,3.75 0 0 1 302,295.5137 L309,317.6348 L431.5,317.6348 A2.5,2.5 0 0 1 434,320.1348 L434,411.5137 A2.5,2.5 0 0 1 431.5,414.0137 L221.5,414.0137 A2.5,2.5 0 0 1 219,411.5137 L219,295.5137 A2.5,2.5 0 0 1 221.5,293.0137 " fill="none" style="stroke:#000000;stroke-width:1.5;"/><line style="stroke:#000000;stroke-width:1.5;" x1="219" x2="309" y1="317.6348" y2="317.6348"/><text fill="#000000" font-family="sans-serif" font-size="14" font-weight="bold" lengthAdjust="spacing" textLength="77" x="223" y="310.1211">application</text></g><!--cluster repository--><g id="cluster_repository"><path d="M829.5,425.0137 L902.5,425.0137 A3.75,3.75 0 0 1 905,427.5137 L912,449.6348 L1003.5,449.6348 A2.5,2.5 0 0 1 1006,452.1348 L1006,543.5137 A2.5,2.5 0 0 1 1003.5,546.0137 L829.5,546.0137 A2.5,2.5 0 0 1 827,543.5137 L827,427.5137 A2.5,2.5 0 0 1 829.5,425.0137 " fill="none" style="stroke:#000000;stroke-width:1.5;"/><line style="stroke:#000000;stroke-width:1.5;" x1="827" x2="912" y1="449.6348" y2="449.6348"/><text fill="#000000" font-family="sans-serif" font-size="14" font-weight="bold" lengthAdjust="spacing" textLength="72" x="831" y="442.1211">repository</text></g><!--cluster domain--><g id="cluster_domain"><path d="M464.5,51.0137 L516.5,51.0137 A3.75,3.75 0 0 1 519,53.5137 L526,75.6348 L1212.5,75.6348 A2.5,2.5 0 0 1 1215,78.1348 L1215,398.5137 A2.5,2.5 0 0 1 1212.5,401.0137 L464.5,401.0137 A2.5,2.5 0 0 1 462,398.5137 L462,53.5137 A2.5,2.5 0 0 1 464.5,51.0137 " fill="none" style="stroke:#000000;stroke-width:1.5;"/><line style="stroke:#000000;stroke-width:1.5;" x1="462" x2="526" y1="75.6348" y2="75.6348"/><text fill="#000000" font-family="sans-serif" font-size="14" font-weight="bold" lengthAdjust="spacing" textLength="51" x="466" y="68.1211">domain</text></g><!--class CreateCourseUI--><g id="elem_CreateCourseUI"><rect codeLine="6" fill="#F1F1F1" height="48" id="CreateCourseUI" rx="2.5" ry="2.5" style="stroke:#181818;stroke-width:0.5;" width="133" x="22" y="340.0137"/><ellipse cx="37" cy="356.0137" fill="#ADD1B2" rx="11" ry="11" style="stroke:#181818;stroke-width:1.0;"/><path d="M39.7656,351.8887 Q39.9219,351.6699 40.1094,351.5605 Q40.2969,351.4512 40.5156,351.4512 Q40.8906,351.4512 41.125,351.7168 Q41.3594,351.9668 41.3594,352.5762 L41.3594,354.0293 Q41.3594,354.6387 41.125,354.9043 Q40.8906,355.1699 40.5156,355.1699 Q40.1719,355.1699 39.9688,354.9668 Q39.7656,354.7793 39.6563,354.2637 Q39.6094,353.9043 39.4219,353.7168 Q39.0938,353.3418 38.4844,353.123 Q37.875,352.9043 37.25,352.9043 Q36.4844,352.9043 35.8438,353.2324 Q35.2188,353.5605 34.7188,354.3105 Q34.2344,355.0605 34.2344,356.0918 L34.2344,357.1855 Q34.2344,358.4199 35.125,359.248 Q36.0156,360.0605 37.6094,360.0605 Q38.5469,360.0605 39.2031,359.8105 Q39.5938,359.6543 40.0156,359.2168 Q40.2813,358.9512 40.4219,358.873 Q40.5781,358.7949 40.7813,358.7949 Q41.1094,358.7949 41.3594,359.0605 Q41.625,359.3105 41.625,359.6543 Q41.625,359.998 41.2813,360.4043 Q40.7813,360.9824 39.9844,361.3105 Q38.9063,361.7637 37.6094,361.7637 Q36.0938,361.7637 34.8906,361.1387 Q33.9063,360.6387 33.2188,359.5762 Q32.5313,358.498 32.5313,357.2168 L32.5313,356.0605 Q32.5313,354.7324 33.1406,353.5918 Q33.7656,352.4355 34.8594,351.8262 Q35.9531,351.2012 37.1875,351.2012 Q37.9219,351.2012 38.5625,351.373 Q39.2188,351.5293 39.7656,351.8887 Z " fill="#000000"/><text fill="#000000" font-family="sans-serif" font-size="14" lengthAdjust="spacing" textLength="101" x="51" y="361.8105">CreateCourseUI</text><line style="stroke:#181818;stroke-width:0.5;" x1="23" x2="154" y1="372.0137" y2="372.0137"/><line style="stroke:#181818;stroke-width:0.5;" x1="23" x2="154" y1="380.0137" y2="380.0137"/></g><!--class CreateCourseController--><g id="elem_CreateCourseController"><rect codeLine="14" fill="#F1F1F1" height="66.6211" id="CreateCourseController" rx="2.5" ry="2.5" style="stroke:#181818;stroke-width:0.5;" width="183" x="235" y="330.5137"/><ellipse cx="250" cy="346.5137" fill="#ADD1B2" rx="11" ry="11" style="stroke:#181818;stroke-width:1.0;"/><path d="M252.7656,342.3887 Q252.9219,342.1699 253.1094,342.0605 Q253.2969,341.9512 253.5156,341.9512 Q253.8906,341.9512 254.125,342.2168 Q254.3594,342.4668 254.3594,343.0762 L254.3594,344.5293 Q254.3594,345.1387 254.125,345.4043 Q253.8906,345.6699 253.5156,345.6699 Q253.1719,345.6699 252.9688,345.4668 Q252.7656,345.2793 252.6563,344.7637 Q252.6094,344.4043 252.4219,344.2168 Q252.0938,343.8418 251.4844,343.623 Q250.875,343.4043 250.25,343.4043 Q249.4844,343.4043 248.8438,343.7324 Q248.2188,344.0605 247.7188,344.8105 Q247.2344,345.5605 247.2344,346.5918 L247.2344,347.6855 Q247.2344,348.9199 248.125,349.748 Q249.0156,350.5605 250.6094,350.5605 Q251.5469,350.5605 252.2031,350.3105 Q252.5938,350.1543 253.0156,349.7168 Q253.2813,349.4512 253.4219,349.373 Q253.5781,349.2949 253.7813,349.2949 Q254.1094,349.2949 254.3594,349.5605 Q254.625,349.8105 254.625,350.1543 Q254.625,350.498 254.2813,350.9043 Q253.7813,351.4824 252.9844,351.8105 Q251.9063,352.2637 250.6094,352.2637 Q249.0938,352.2637 247.8906,351.6387 Q246.9063,351.1387 246.2188,350.0762 Q245.5313,348.998 245.5313,347.7168 L245.5313,346.5605 Q245.5313,345.2324 246.1406,344.0918 Q246.7656,342.9355 247.8594,342.3262 Q248.9531,341.7012 250.1875,341.7012 Q250.9219,341.7012 251.5625,341.873 Q252.2188,342.0293 252.7656,342.3887 Z " fill="#000000"/><text fill="#000000" font-family="sans-serif" font-size="14" lengthAdjust="spacing" textLength="151" x="264" y="352.3105">CreateCourseController</text><line style="stroke:#181818;stroke-width:0.5;" x1="236" x2="417" y1="362.5137" y2="362.5137"/><line style="stroke:#181818;stroke-width:0.5;" x1="236" x2="417" y1="370.5137" y2="370.5137"/><ellipse cx="246" cy="385.3242" fill="#84BE84" rx="3" ry="3" style="stroke:#038048;stroke-width:1.0;"/><text fill="#000000" font-family="sans-serif" font-size="14" lengthAdjust="spacing" textLength="96" x="255" y="389.6211">createCourse()</text></g><!--class CourseRepository--><g id="elem_CourseRepository"><rect codeLine="20" fill="#F1F1F1" height="66.6211" id="CourseRepository" rx="2.5" ry="2.5" style="stroke:#181818;stroke-width:0.5;" width="147" x="843" y="462.5137"/><ellipse cx="858.45" cy="478.5137" fill="#B4A7E5" rx="11" ry="11" style="stroke:#181818;stroke-width:1.0;"/><path d="M859.4031,475.1543 L859.4031,481.8105 L861.1219,481.8105 Q861.7313,481.8105 861.9969,482.0449 Q862.2625,482.2793 862.2625,482.6699 Q862.2625,483.0449 861.9969,483.2793 Q861.7313,483.5137 861.1219,483.5137 L855.9813,483.5137 Q855.3719,483.5137 855.1063,483.2793 Q854.8406,483.0449 854.8406,482.6543 Q854.8406,482.2793 855.1063,482.0449 Q855.3719,481.8105 855.9813,481.8105 L857.7,481.8105 L857.7,475.1543 L855.9813,475.1543 Q855.3719,475.1543 855.1063,474.9199 Q854.8406,474.6855 854.8406,474.2949 Q854.8406,473.9199 855.1063,473.6855 Q855.3719,473.4512 855.9813,473.4512 L861.1219,473.4512 Q861.7313,473.4512 861.9969,473.6855 Q862.2625,473.9199 862.2625,474.2949 Q862.2625,474.6855 861.9969,474.9199 Q861.7313,475.1543 861.1219,475.1543 L859.4031,475.1543 Z " fill="#000000"/><text fill="#000000" font-family="sans-serif" font-size="14" font-style="italic" lengthAdjust="spacing" textLength="114" x="872.55" y="484.3105">CourseRepository</text><line style="stroke:#181818;stroke-width:0.5;" x1="844" x2="989" y1="494.5137" y2="494.5137"/><line style="stroke:#181818;stroke-width:0.5;" x1="844" x2="989" y1="502.5137" y2="502.5137"/><ellipse cx="854" cy="517.3242" fill="#84BE84" rx="3" ry="3" style="stroke:#038048;stroke-width:1.0;"/><text fill="#000000" font-family="sans-serif" font-size="14" lengthAdjust="spacing" textLength="121" x="863" y="521.6211">ofIdentity(): Course</text></g><!--class Course--><g id="elem_Course"><rect codeLine="26" fill="#F1F1F1" height="48" id="Course" rx="2.5" ry="2.5" style="stroke:#181818;stroke-width:0.5;" width="78" x="877.5" y="268.0137"/><ellipse cx="892.5" cy="284.0137" fill="#ADD1B2" rx="11" ry="11" style="stroke:#181818;stroke-width:1.0;"/><path d="M895.2656,279.8887 Q895.4219,279.6699 895.6094,279.5605 Q895.7969,279.4512 896.0156,279.4512 Q896.3906,279.4512 896.625,279.7168 Q896.8594,279.9668 896.8594,280.5762 L896.8594,282.0293 Q896.8594,282.6387 896.625,282.9043 Q896.3906,283.1699 896.0156,283.1699 Q895.6719,283.1699 895.4688,282.9668 Q895.2656,282.7793 895.1563,282.2637 Q895.1094,281.9043 894.9219,281.7168 Q894.5938,281.3418 893.9844,281.123 Q893.375,280.9043 892.75,280.9043 Q891.9844,280.9043 891.3438,281.2324 Q890.7188,281.5605 890.2188,282.3105 Q889.7344,283.0605 889.7344,284.0918 L889.7344,285.1855 Q889.7344,286.4199 890.625,287.248 Q891.5156,288.0605 893.1094,288.0605 Q894.0469,288.0605 894.7031,287.8105 Q895.0938,287.6543 895.5156,287.2168 Q895.7813,286.9512 895.9219,286.873 Q896.0781,286.7949 896.2813,286.7949 Q896.6094,286.7949 896.8594,287.0605 Q897.125,287.3105 897.125,287.6543 Q897.125,287.998 896.7813,288.4043 Q896.2813,288.9824 895.4844,289.3105 Q894.4063,289.7637 893.1094,289.7637 Q891.5938,289.7637 890.3906,289.1387 Q889.4063,288.6387 888.7188,287.5762 Q888.0313,286.498 888.0313,285.2168 L888.0313,284.0605 Q888.0313,282.7324 888.6406,281.5918 Q889.2656,280.4355 890.3594,279.8262 Q891.4531,279.2012 892.6875,279.2012 Q893.4219,279.2012 894.0625,279.373 Q894.7188,279.5293 895.2656,279.8887 Z " fill="#000000"/><text fill="#000000" font-family="sans-serif" font-size="14" lengthAdjust="spacing" textLength="46" x="906.5" y="289.8105">Course</text><line style="stroke:#181818;stroke-width:0.5;" x1="878.5" x2="954.5" y1="300.0137" y2="300.0137"/><line style="stroke:#181818;stroke-width:0.5;" x1="878.5" x2="954.5" y1="308.0137" y2="308.0137"/></g><!--class CourseCode--><g id="elem_CourseCode"><rect codeLine="28" fill="#F1F1F1" height="48" id="CourseCode" rx="2.5" ry="2.5" style="stroke:#181818;stroke-width:0.5;" width="112" x="1068.5" y="337.0137"/><ellipse cx="1083.5" cy="353.0137" fill="#ADD1B2" rx="11" ry="11" style="stroke:#181818;stroke-width:1.0;"/><path d="M1086.2656,348.8887 Q1086.4219,348.6699 1086.6094,348.5605 Q1086.7969,348.4512 1087.0156,348.4512 Q1087.3906,348.4512 1087.625,348.7168 Q1087.8594,348.9668 1087.8594,349.5762 L1087.8594,351.0293 Q1087.8594,351.6387 1087.625,351.9043 Q1087.3906,352.1699 1087.0156,352.1699 Q1086.6719,352.1699 1086.4688,351.9668 Q1086.2656,351.7793 1086.1563,351.2637 Q1086.1094,350.9043 1085.9219,350.7168 Q1085.5938,350.3418 1084.9844,350.123 Q1084.375,349.9043 1083.75,349.9043 Q1082.9844,349.9043 1082.3438,350.2324 Q1081.7188,350.5605 1081.2188,351.3105 Q1080.7344,352.0605 1080.7344,353.0918 L1080.7344,354.1855 Q1080.7344,355.4199 1081.625,356.248 Q1082.5156,357.0605 1084.1094,357.0605 Q1085.0469,357.0605 1085.7031,356.8105 Q1086.0938,356.6543 1086.5156,356.2168 Q1086.7813,355.9512 1086.9219,355.873 Q1087.0781,355.7949 1087.2813,355.7949 Q1087.6094,355.7949 1087.8594,356.0605 Q1088.125,356.3105 1088.125,356.6543 Q1088.125,356.998 1087.7813,357.4043 Q1087.2813,357.9824 1086.4844,358.3105 Q1085.4063,358.7637 1084.1094,358.7637 Q1082.5938,358.7637 1081.3906,358.1387 Q1080.4063,357.6387 1079.7188,356.5762 Q1079.0313,355.498 1079.0313,354.2168 L1079.0313,353.0605 Q1079.0313,351.7324 1079.6406,350.5918 Q1080.2656,349.4355 1081.3594,348.8262 Q1082.4531,348.2012 1083.6875,348.2012 Q1084.4219,348.2012 1085.0625,348.373 Q1085.7188,348.5293 1086.2656,348.8887 Z " fill="#000000"/><text fill="#000000" font-family="sans-serif" font-size="14" lengthAdjust="spacing" textLength="80" x="1097.5" y="358.8105">CourseCode</text><line style="stroke:#181818;stroke-width:0.5;" x1="1069.5" x2="1179.5" y1="369.0137" y2="369.0137"/><line style="stroke:#181818;stroke-width:0.5;" x1="1069.5" x2="1179.5" y1="377.0137" y2="377.0137"/></g><!--class CourseName--><g id="elem_CourseName"><rect codeLine="30" fill="#F1F1F1" height="48" id="CourseName" rx="2.5" ry="2.5" style="stroke:#181818;stroke-width:0.5;" width="114" x="1067.5" y="254.0137"/><ellipse cx="1082.5" cy="270.0137" fill="#ADD1B2" rx="11" ry="11" style="stroke:#181818;stroke-width:1.0;"/><path d="M1085.2656,265.8887 Q1085.4219,265.6699 1085.6094,265.5605 Q1085.7969,265.4512 1086.0156,265.4512 Q1086.3906,265.4512 1086.625,265.7168 Q1086.8594,265.9668 1086.8594,266.5762 L1086.8594,268.0293 Q1086.8594,268.6387 1086.625,268.9043 Q1086.3906,269.1699 1086.0156,269.1699 Q1085.6719,269.1699 1085.4688,268.9668 Q1085.2656,268.7793 1085.1563,268.2637 Q1085.1094,267.9043 1084.9219,267.7168 Q1084.5938,267.3418 1083.9844,267.123 Q1083.375,266.9043 1082.75,266.9043 Q1081.9844,266.9043 1081.3438,267.2324 Q1080.7188,267.5605 1080.2188,268.3105 Q1079.7344,269.0605 1079.7344,270.0918 L1079.7344,271.1855 Q1079.7344,272.4199 1080.625,273.248 Q1081.5156,274.0605 1083.1094,274.0605 Q1084.0469,274.0605 1084.7031,273.8105 Q1085.0938,273.6543 1085.5156,273.2168 Q1085.7813,272.9512 1085.9219,272.873 Q1086.0781,272.7949 1086.2813,272.7949 Q1086.6094,272.7949 1086.8594,273.0605 Q1087.125,273.3105 1087.125,273.6543 Q1087.125,273.998 1086.7813,274.4043 Q1086.2813,274.9824 1085.4844,275.3105 Q1084.4063,275.7637 1083.1094,275.7637 Q1081.5938,275.7637 1080.3906,275.1387 Q1079.4063,274.6387 1078.7188,273.5762 Q1078.0313,272.498 1078.0313,271.2168 L1078.0313,270.0605 Q1078.0313,268.7324 1078.6406,267.5918 Q1079.2656,266.4355 1080.3594,265.8262 Q1081.4531,265.2012 1082.6875,265.2012 Q1083.4219,265.2012 1084.0625,265.373 Q1084.7188,265.5293 1085.2656,265.8887 Z " fill="#000000"/><text fill="#000000" font-family="sans-serif" font-size="14" lengthAdjust="spacing" textLength="82" x="1096.5" y="275.8105">CourseName</text><line style="stroke:#181818;stroke-width:0.5;" x1="1068.5" x2="1180.5" y1="286.0137" y2="286.0137"/><line style="stroke:#181818;stroke-width:0.5;" x1="1068.5" x2="1180.5" y1="294.0137" y2="294.0137"/></g><!--class CourseDescription--><g id="elem_CourseDescription"><rect codeLine="32" fill="#F1F1F1" height="48" id="CourseDescription" rx="2.5" ry="2.5" style="stroke:#181818;stroke-width:0.5;" width="149" x="1050" y="171.0137"/><ellipse cx="1065" cy="187.0137" fill="#ADD1B2" rx="11" ry="11" style="stroke:#181818;stroke-width:1.0;"/><path d="M1067.7656,182.8887 Q1067.9219,182.6699 1068.1094,182.5605 Q1068.2969,182.4512 1068.5156,182.4512 Q1068.8906,182.4512 1069.125,182.7168 Q1069.3594,182.9668 1069.3594,183.5762 L1069.3594,185.0293 Q1069.3594,185.6387 1069.125,185.9043 Q1068.8906,186.1699 1068.5156,186.1699 Q1068.1719,186.1699 1067.9688,185.9668 Q1067.7656,185.7793 1067.6563,185.2637 Q1067.6094,184.9043 1067.4219,184.7168 Q1067.0938,184.3418 1066.4844,184.123 Q1065.875,183.9043 1065.25,183.9043 Q1064.4844,183.9043 1063.8438,184.2324 Q1063.2188,184.5605 1062.7188,185.3105 Q1062.2344,186.0605 1062.2344,187.0918 L1062.2344,188.1855 Q1062.2344,189.4199 1063.125,190.248 Q1064.0156,191.0605 1065.6094,191.0605 Q1066.5469,191.0605 1067.2031,190.8105 Q1067.5938,190.6543 1068.0156,190.2168 Q1068.2813,189.9512 1068.4219,189.873 Q1068.5781,189.7949 1068.7813,189.7949 Q1069.1094,189.7949 1069.3594,190.0605 Q1069.625,190.3105 1069.625,190.6543 Q1069.625,190.998 1069.2813,191.4043 Q1068.7813,191.9824 1067.9844,192.3105 Q1066.9063,192.7637 1065.6094,192.7637 Q1064.0938,192.7637 1062.8906,192.1387 Q1061.9063,191.6387 1061.2188,190.5762 Q1060.5313,189.498 1060.5313,188.2168 L1060.5313,187.0605 Q1060.5313,185.7324 1061.1406,184.5918 Q1061.7656,183.4355 1062.8594,182.8262 Q1063.9531,182.2012 1065.1875,182.2012 Q1065.9219,182.2012 1066.5625,182.373 Q1067.2188,182.5293 1067.7656,182.8887 Z " fill="#000000"/><text fill="#000000" font-family="sans-serif" font-size="14" lengthAdjust="spacing" textLength="117" x="1079" y="192.8105">CourseDescription</text><line style="stroke:#181818;stroke-width:0.5;" x1="1051" x2="1198" y1="203.0137" y2="203.0137"/><line style="stroke:#181818;stroke-width:0.5;" x1="1051" x2="1198" y1="211.0137" y2="211.0137"/></g><!--class CourseState--><g id="elem_CourseState"><rect codeLine="34" fill="#F1F1F1" height="48" id="CourseState" rx="2.5" ry="2.5" style="stroke:#181818;stroke-width:0.5;" width="111" x="1069" y="88.0137"/><ellipse cx="1084" cy="104.0137" fill="#EB937F" rx="11" ry="11" style="stroke:#181818;stroke-width:1.0;"/><path d="M1082.8594,104.8105 L1082.8594,107.3105 L1087.1875,107.3105 L1087.1875,106.3887 Q1087.1875,105.7793 1087.4219,105.5137 Q1087.6719,105.248 1088.0469,105.248 Q1088.4219,105.248 1088.6563,105.5137 Q1088.8906,105.7793 1088.8906,106.3887 L1088.8906,109.0137 L1080.8906,109.0137 Q1080.2656,109.0137 1080,108.7793 Q1079.75,108.5449 1079.75,108.1543 Q1079.75,107.7793 1080.0156,107.5449 Q1080.2813,107.3105 1080.8906,107.3105 L1081.1563,107.3105 L1081.1563,100.6543 L1080.8906,100.6543 Q1080.2656,100.6543 1080,100.4199 Q1079.75,100.1855 1079.75,99.7949 Q1079.75,99.4199 1080,99.1855 Q1080.2656,98.9512 1080.8906,98.9512 L1088.5156,98.9512 L1088.5156,101.5449 Q1088.5156,102.1543 1088.2813,102.4199 Q1088.0625,102.6699 1087.6719,102.6699 Q1087.2969,102.6699 1087.0625,102.4199 Q1086.8281,102.1543 1086.8281,101.5449 L1086.8281,100.6543 L1082.8594,100.6543 L1082.8594,103.1074 L1084.3438,103.1074 Q1084.3438,102.4512 1084.4688,102.2637 Q1084.7344,101.8574 1085.2031,101.8574 Q1085.5781,101.8574 1085.8125,102.123 Q1086.0469,102.373 1086.0469,102.9824 L1086.0469,104.9512 Q1086.0469,105.498 1085.9219,105.6855 Q1085.6563,106.0762 1085.2031,106.0762 Q1084.7344,106.0762 1084.4688,105.6699 Q1084.3438,105.4824 1084.3438,104.8105 L1082.8594,104.8105 Z " fill="#000000"/><text fill="#000000" font-family="sans-serif" font-size="14" lengthAdjust="spacing" textLength="79" x="1098" y="109.8105">CourseState</text><line style="stroke:#181818;stroke-width:0.5;" x1="1070" x2="1179" y1="120.0137" y2="120.0137"/><line style="stroke:#181818;stroke-width:0.5;" x1="1070" x2="1179" y1="128.0137" y2="128.0137"/></g><!--class CourseBuilder--><g id="elem_CourseBuilder"><rect codeLine="36" fill="#F1F1F1" height="159.7266" id="CourseBuilder" rx="2.5" ry="2.5" style="stroke:#181818;stroke-width:0.5;" width="305" x="478" y="225.0137"/><ellipse cx="581.25" cy="241.0137" fill="#ADD1B2" rx="11" ry="11" style="stroke:#181818;stroke-width:1.0;"/><path d="M584.0156,236.8887 Q584.1719,236.6699 584.3594,236.5605 Q584.5469,236.4512 584.7656,236.4512 Q585.1406,236.4512 585.375,236.7168 Q585.6094,236.9668 585.6094,237.5762 L585.6094,239.0293 Q585.6094,239.6387 585.375,239.9043 Q585.1406,240.1699 584.7656,240.1699 Q584.4219,240.1699 584.2188,239.9668 Q584.0156,239.7793 583.9063,239.2637 Q583.8594,238.9043 583.6719,238.7168 Q583.3438,238.3418 582.7344,238.123 Q582.125,237.9043 581.5,237.9043 Q580.7344,237.9043 580.0938,238.2324 Q579.4688,238.5605 578.9688,239.3105 Q578.4844,240.0605 578.4844,241.0918 L578.4844,242.1855 Q578.4844,243.4199 579.375,244.248 Q580.2656,245.0605 581.8594,245.0605 Q582.7969,245.0605 583.4531,244.8105 Q583.8438,244.6543 584.2656,244.2168 Q584.5313,243.9512 584.6719,243.873 Q584.8281,243.7949 585.0313,243.7949 Q585.3594,243.7949 585.6094,244.0605 Q585.875,244.3105 585.875,244.6543 Q585.875,244.998 585.5313,245.4043 Q585.0313,245.9824 584.2344,246.3105 Q583.1563,246.7637 581.8594,246.7637 Q580.3438,246.7637 579.1406,246.1387 Q578.1563,245.6387 577.4688,244.5762 Q576.7813,243.498 576.7813,242.2168 L576.7813,241.0605 Q576.7813,239.7324 577.3906,238.5918 Q578.0156,237.4355 579.1094,236.8262 Q580.2031,236.2012 581.4375,236.2012 Q582.1719,236.2012 582.8125,236.373 Q583.4688,236.5293 584.0156,236.8887 Z " fill="#000000"/><text fill="#000000" font-family="sans-serif" font-size="14" lengthAdjust="spacing" textLength="90" x="601.75" y="246.8105">CourseBuilder</text><line style="stroke:#181818;stroke-width:0.5;" x1="479" x2="782" y1="257.0137" y2="257.0137"/><line style="stroke:#181818;stroke-width:0.5;" x1="479" x2="782" y1="265.0137" y2="265.0137"/><ellipse cx="489" cy="279.8242" fill="#84BE84" rx="3" ry="3" style="stroke:#038048;stroke-width:1.0;"/><text fill="#000000" font-family="sans-serif" font-size="14" lengthAdjust="spacing" textLength="212" x="498" y="284.1211">withCourseCode(): CourseBuilder</text><ellipse cx="489" cy="298.4453" fill="#84BE84" rx="3" ry="3" style="stroke:#038048;stroke-width:1.0;"/><text fill="#000000" font-family="sans-serif" font-size="14" lengthAdjust="spacing" textLength="214" x="498" y="302.7422">withCourseName(): CourseBuilder</text><ellipse cx="489" cy="317.0664" fill="#84BE84" rx="3" ry="3" style="stroke:#038048;stroke-width:1.0;"/><text fill="#000000" font-family="sans-serif" font-size="14" lengthAdjust="spacing" textLength="249" x="498" y="321.3633">withCourseDescription(): CourseBuilder</text><ellipse cx="489" cy="335.6875" fill="#84BE84" rx="3" ry="3" style="stroke:#038048;stroke-width:1.0;"/><text fill="#000000" font-family="sans-serif" font-size="14" lengthAdjust="spacing" textLength="276" x="498" y="339.9844">withMinNrEnrolledStudents(): CourseBuilder</text><ellipse cx="489" cy="354.3086" fill="#84BE84" rx="3" ry="3" style="stroke:#038048;stroke-width:1.0;"/><text fill="#000000" font-family="sans-serif" font-size="14" lengthAdjust="spacing" textLength="279" x="498" y="358.6055">withMaxNrEnrolledStudents(): CourseBuilder</text><ellipse cx="489" cy="372.9297" fill="#84BE84" rx="3" ry="3" style="stroke:#038048;stroke-width:1.0;"/><text fill="#000000" font-family="sans-serif" font-size="14" lengthAdjust="spacing" textLength="94" x="498" y="377.2266">build(): Course</text></g><!--link Course to CourseCode--><g id="link_Course_CourseCode"><path codeLine="49" d="M955.76,304.8337 C985.93,314.9337 1028.55,329.2137 1063.28,340.8437 " fill="none" id="Course-to-CourseCode" style="stroke:#181818;stroke-width:1.0;"/><polygon fill="#181818" points="1068.35,342.5437,1061.0828,335.8963,1063.608,340.9582,1058.5461,343.4835,1068.35,342.5437" style="stroke:#181818;stroke-width:1.0;"/></g><!--link Course to CourseDescription--><g id="link_Course_CourseDescription"><path codeLine="50" d="M955.76,273.9937 C987.17,259.2137 1032.07,238.0637 1067.51,221.3737 " fill="none" id="Course-to-CourseDescription" style="stroke:#181818;stroke-width:1.0;"/><polygon fill="#181818" points="1072.23,219.1537,1062.3833,219.3621,1067.7049,221.2806,1065.7864,226.6022,1072.23,219.1537" style="stroke:#181818;stroke-width:1.0;"/></g><!--link Course to CourseName--><g id="link_Course_CourseName"><path codeLine="51" d="M955.76,289.4137 C985.6,287.3837 1027.61,284.5337 1062.13,282.1837 " fill="none" id="Course-to-CourseName" style="stroke:#181818;stroke-width:1.0;"/><polygon fill="#181818" points="1067.17,281.8437,1057.9168,278.4705,1062.1818,282.1867,1058.4656,286.4517,1067.17,281.8437" style="stroke:#181818;stroke-width:1.0;"/></g><!--link Course to CourseState--><g id="link_Course_CourseState"><path codeLine="52" d="M936.72,267.7637 C960.95,238.2137 1004.93,187.9237 1050,153.0137 C1056.5,147.9737 1063.7,143.1737 1070.98,138.7337 " fill="none" id="Course-to-CourseState" style="stroke:#181818;stroke-width:1.0;"/><polygon fill="#181818" points="1075.51,136.0237,1065.7346,137.2242,1071.2225,138.5962,1069.8505,144.0841,1075.51,136.0237" style="stroke:#181818;stroke-width:1.0;"/></g><!--link CourseBuilder to Course--><g id="link_CourseBuilder_Course"><path codeLine="53" d="M783.06,298.0737 C815.76,296.5837 847.78,295.1137 872.15,293.9937 " fill="none" id="CourseBuilder-to-Course" style="stroke:#181818;stroke-width:1.0;"/><polygon fill="#181818" points="877.23,293.7637,868.0567,290.1788,872.2352,293.992,868.4221,298.1705,877.23,293.7637" style="stroke:#181818;stroke-width:1.0;"/></g><!--link CourseBuilder to CourseRepository--><g id="link_CourseBuilder_CourseRepository"><path codeLine="54" d="M750.71,385.1837 C789.2,411.0737 830,438.5137 861.37,459.6037 " fill="none" id="CourseBuilder-to-CourseRepository" style="stroke:#181818;stroke-width:1.0;"/><polygon fill="#181818" points="865.53,462.4137,860.2801,454.0807,861.3763,459.6303,855.8267,460.7265,865.53,462.4137" style="stroke:#181818;stroke-width:1.0;"/></g><!--link CreateCourseUI to CreateCourseController--><g id="link_CreateCourseUI_CreateCourseController"><path codeLine="56" d="M155.24,364.0137 C178.29,364.0137 204.67,364.0137 229.67,364.0137 " fill="none" id="CreateCourseUI-to-CreateCourseController" style="stroke:#181818;stroke-width:1.0;"/><polygon fill="#181818" points="234.98,364.0137,225.98,360.0137,229.98,364.0137,225.98,368.0137,234.98,364.0137" style="stroke:#181818;stroke-width:1.0;"/></g><!--link CreateCourseController to CourseRepository--><g id="link_CreateCourseController_CourseRepository"><path codeLine="57" d="M418.12,391.4837 C430.15,394.8437 442.34,398.1137 454,401.0137 C587.81,434.2937 745.49,464.9337 837.59,481.9837 " fill="none" id="CreateCourseController-to-CourseRepository" style="stroke:#181818;stroke-width:1.0;"/><polygon fill="#181818" points="842.75,482.9337,834.6306,477.3592,837.8339,482.0217,833.1714,485.225,842.75,482.9337" style="stroke:#181818;stroke-width:1.0;"/></g><!--link CreateCourseController to CourseBuilder--><g id="link_CreateCourseController_CourseBuilder"><path codeLine="58" d="M418.11,346.3137 C435.42,342.9337 454,339.3037 472.7,335.6437 " fill="none" id="CreateCourseController-to-CourseBuilder" style="stroke:#181818;stroke-width:1.0;"/><polygon fill="#181818" points="477.97,334.6137,468.3713,332.408,473.0622,335.5695,469.9007,340.2605,477.97,334.6137" style="stroke:#181818;stroke-width:1.0;"/></g><!--link CourseRepository to Course--><g id="link_CourseRepository_Course"><path codeLine="59" d="M916.5,462.1437 C916.5,415.2337 916.5,368.3137 916.5,321.4037 " fill="none" id="CourseRepository-to-Course" style="stroke:#181818;stroke-width:1.0;"/><polygon fill="#181818" points="916.5,316.2737,912.5,325.2737,916.5,321.2737,920.5,325.2737,916.5,316.2737" style="stroke:#181818;stroke-width:1.0;"/></g><!--SRC=[bPDBJiCm48RtFeMNhL0lm885WKKNTD6A0nXxqev8xCYU2AgAk-CuBd5n4aAaH8h_RzwU2ahYPBZ5uucuGWkIq6Z6M2FakpW2Rv5V68-Fh8HplB0W20hJMWUlsqJ-OlttnrW6fXRQ_zIWoRCiC5T0D4s5KdGnPyCKHfCrLGKsmRhdJYRKQfsdaaQpq1Y7PEmvyOAQm9P20k-TxCUW4CgKM-MBG3glrlUHdW-eJ2rmfB9WoY-H_YqKHasBEr5FYq_WfCMcRsV2W6xhY1p8jslImMEBbSgR_85q6d8Rge_u5DpbkXXESbzWyu9wPvzrk1FgG6qt6BV4Jdp-s-wjEvmREVDldEbcyv1CCJzDgip5hb_vQPWOkvtFe4uAmptsoTrkR816jujDBDsesp_PQpUpnHgo_mO0]--></g></svg>