<?xml version="1.0" encoding="us-ascii" standalone="no"?><svg xmlns="http://www.w3.org/2000/svg" xmlns:xlink="http://www.w3.org/1999/xlink" contentStyleType="text/css" height="858px" preserveAspectRatio="none" style="width:1501px;height:858px;background:#FFFFFF;" version="1.1" viewBox="0 0 1501 858" width="1501px" zoomAndPan="magnify"><defs/><g><text fill="#000000" font-family="sans-serif" font-size="14" font-weight="bold" lengthAdjust="spacing" textLength="95" x="704.75" y="30.1074">Add Question</text><rect fill="#FFFFFF" height="111.1641" style="stroke:#181818;stroke-width:1.0;" width="10" x="228.5" y="161.1543"/><rect fill="#FFFFFF" height="469.3652" style="stroke:#181818;stroke-width:1.0;" width="10" x="388.5" y="272.3184"/><rect fill="#FFFFFF" height="312.9102" style="stroke:#181818;stroke-width:1.0;" width="10" x="652.5" y="397.4824"/><rect fill="#FFFFFF" height="156.4551" style="stroke:#181818;stroke-width:1.0;" width="10" x="899.5" y="460.0645"/><rect fill="#FFFFFF" height="31.291" style="stroke:#181818;stroke-width:1.0;" width="10" x="1133.5" y="491.3555"/><rect fill="#FFFFFF" height="31.291" style="stroke:#181818;stroke-width:1.0;" width="10" x="1289.5" y="553.9375"/><rect fill="#FFFFFF" height="31.291" style="stroke:#181818;stroke-width:1.0;" width="10" x="1430" y="647.8105"/><line style="stroke:#181818;stroke-width:0.5;stroke-dasharray:5.0,5.0;" x1="34" x2="34" y1="127.8633" y2="759.6836"/><line style="stroke:#181818;stroke-width:0.5;stroke-dasharray:5.0,5.0;" x1="233.5" x2="233.5" y1="127.8633" y2="759.6836"/><line style="stroke:#181818;stroke-width:0.5;stroke-dasharray:5.0,5.0;" x1="393.5" x2="393.5" y1="127.8633" y2="759.6836"/><line style="stroke:#181818;stroke-width:0.5;stroke-dasharray:5.0,5.0;" x1="657.5" x2="657.5" y1="127.8633" y2="759.6836"/><line style="stroke:#181818;stroke-width:0.5;stroke-dasharray:5.0,5.0;" x1="904" x2="904" y1="127.8633" y2="759.6836"/><line style="stroke:#181818;stroke-width:0.5;stroke-dasharray:5.0,5.0;" x1="1138.5" x2="1138.5" y1="127.8633" y2="759.6836"/><line style="stroke:#181818;stroke-width:0.5;stroke-dasharray:5.0,5.0;" x1="1294.5" x2="1294.5" y1="127.8633" y2="759.6836"/><line style="stroke:#181818;stroke-width:0.5;stroke-dasharray:5.0,5.0;" x1="1434.5" x2="1434.5" y1="127.8633" y2="759.6836"/><text fill="#000000" font-family="sans-serif" font-size="14" lengthAdjust="spacing" textLength="53" x="5" y="124.3496">Teacher</text><ellipse cx="34.5" cy="57.7422" fill="#E2E2F0" rx="8" ry="8" style="stroke:#181818;stroke-width:0.5;"/><path d="M34.5,65.7422 L34.5,92.7422 M21.5,73.7422 L47.5,73.7422 M34.5,92.7422 L21.5,107.7422 M34.5,92.7422 L47.5,107.7422 " fill="none" style="stroke:#181818;stroke-width:0.5;"/><text fill="#000000" font-family="sans-serif" font-size="14" lengthAdjust="spacing" textLength="53" x="5" y="773.791">Teacher</text><ellipse cx="34.5" cy="785.8047" fill="#E2E2F0" rx="8" ry="8" style="stroke:#181818;stroke-width:0.5;"/><path d="M34.5,793.8047 L34.5,820.8047 M21.5,801.8047 L47.5,801.8047 M34.5,820.8047 L21.5,835.8047 M34.5,820.8047 L47.5,835.8047 " fill="none" style="stroke:#181818;stroke-width:0.5;"/><rect fill="#E2E2F0" height="51.2422" rx="2.5" ry="2.5" style="stroke:#181818;stroke-width:0.5;" width="108" x="179.5" y="75.6211"/><text fill="#000000" font-family="sans-serif" font-size="14" font-style="italic" lengthAdjust="spacing" textLength="27" x="220" y="97.7285">&#171;ui&#187;</text><text fill="#000000" font-family="sans-serif" font-size="14" lengthAdjust="spacing" textLength="94" x="186.5" y="116.3496">AddQuestionUI</text><rect fill="#E2E2F0" height="51.2422" rx="2.5" ry="2.5" style="stroke:#181818;stroke-width:0.5;" width="108" x="179.5" y="758.6836"/><text fill="#000000" font-family="sans-serif" font-size="14" font-style="italic" lengthAdjust="spacing" textLength="27" x="220" y="780.791">&#171;ui&#187;</text><text fill="#000000" font-family="sans-serif" font-size="14" lengthAdjust="spacing" textLength="94" x="186.5" y="799.4121">AddQuestionUI</text><rect fill="#E2E2F0" height="51.2422" rx="2.5" ry="2.5" style="stroke:#181818;stroke-width:0.5;" width="140" x="323.5" y="75.6211"/><text fill="#000000" font-family="sans-serif" font-size="14" font-style="italic" lengthAdjust="spacing" textLength="27" x="380" y="97.7285">&#171;ui&#187;</text><text fill="#000000" font-family="sans-serif" font-size="14" lengthAdjust="spacing" textLength="126" x="330.5" y="116.3496">AddTypeQuestionUI</text><rect fill="#E2E2F0" height="51.2422" rx="2.5" ry="2.5" style="stroke:#181818;stroke-width:0.5;" width="140" x="323.5" y="758.6836"/><text fill="#000000" font-family="sans-serif" font-size="14" font-style="italic" lengthAdjust="spacing" textLength="27" x="380" y="780.791">&#171;ui&#187;</text><text fill="#000000" font-family="sans-serif" font-size="14" lengthAdjust="spacing" textLength="126" x="330.5" y="799.4121">AddTypeQuestionUI</text><rect fill="#E2E2F0" height="51.2422" rx="2.5" ry="2.5" style="stroke:#181818;stroke-width:0.5;" width="190" x="562.5" y="75.6211"/><text fill="#000000" font-family="sans-serif" font-size="14" font-style="italic" lengthAdjust="spacing" textLength="84" x="615.5" y="97.7285">&#171;application&#187;</text><text fill="#000000" font-family="sans-serif" font-size="14" lengthAdjust="spacing" textLength="176" x="569.5" y="116.3496">AddTypeQuestionController</text><rect fill="#E2E2F0" height="51.2422" rx="2.5" ry="2.5" style="stroke:#181818;stroke-width:0.5;" width="190" x="562.5" y="758.6836"/><text fill="#000000" font-family="sans-serif" font-size="14" font-style="italic" lengthAdjust="spacing" textLength="84" x="615.5" y="780.791">&#171;application&#187;</text><text fill="#000000" font-family="sans-serif" font-size="14" lengthAdjust="spacing" textLength="176" x="569.5" y="799.4121">AddTypeQuestionController</text><rect fill="#E2E2F0" height="51.2422" rx="2.5" ry="2.5" style="stroke:#181818;stroke-width:0.5;" width="119" x="845" y="75.6211"/><text fill="#000000" font-family="sans-serif" font-size="14" font-style="italic" lengthAdjust="spacing" textLength="62" x="873.5" y="97.7285">&#171;domain&#187;</text><text fill="#000000" font-family="sans-serif" font-size="14" lengthAdjust="spacing" textLength="105" x="852" y="116.3496">QuestionFactory</text><rect fill="#E2E2F0" height="51.2422" rx="2.5" ry="2.5" style="stroke:#181818;stroke-width:0.5;" width="119" x="845" y="758.6836"/><text fill="#000000" font-family="sans-serif" font-size="14" font-style="italic" lengthAdjust="spacing" textLength="62" x="873.5" y="780.791">&#171;domain&#187;</text><text fill="#000000" font-family="sans-serif" font-size="14" lengthAdjust="spacing" textLength="105" x="852" y="799.4121">QuestionFactory</text><rect fill="#E2E2F0" height="51.2422" rx="2.5" ry="2.5" style="stroke:#181818;stroke-width:0.5;" width="162" x="1057.5" y="75.6211"/><text fill="#000000" font-family="sans-serif" font-size="14" font-style="italic" lengthAdjust="spacing" textLength="84" x="1096.5" y="97.7285">&#171;application&#187;</text><text fill="#000000" font-family="sans-serif" font-size="14" lengthAdjust="spacing" textLength="148" x="1064.5" y="116.3496">IQuestionFileGenerator</text><rect fill="#E2E2F0" height="51.2422" rx="2.5" ry="2.5" style="stroke:#181818;stroke-width:0.5;" width="162" x="1057.5" y="758.6836"/><text fill="#000000" font-family="sans-serif" font-size="14" font-style="italic" lengthAdjust="spacing" textLength="84" x="1096.5" y="780.791">&#171;application&#187;</text><text fill="#000000" font-family="sans-serif" font-size="14" lengthAdjust="spacing" textLength="148" x="1064.5" y="799.4121">IQuestionFileGenerator</text><rect fill="#E2E2F0" height="51.2422" rx="2.5" ry="2.5" style="stroke:#181818;stroke-width:0.5;" width="130" x="1229.5" y="75.6211"/><text fill="#000000" font-family="sans-serif" font-size="14" font-style="italic" lengthAdjust="spacing" textLength="62" x="1263.5" y="97.7285">&#171;domain&#187;</text><text fill="#000000" font-family="sans-serif" font-size="14" lengthAdjust="spacing" textLength="116" x="1236.5" y="116.3496">IQuestionValidator</text><rect fill="#E2E2F0" height="51.2422" rx="2.5" ry="2.5" style="stroke:#181818;stroke-width:0.5;" width="130" x="1229.5" y="758.6836"/><text fill="#000000" font-family="sans-serif" font-size="14" font-style="italic" lengthAdjust="spacing" textLength="62" x="1263.5" y="780.791">&#171;domain&#187;</text><text fill="#000000" font-family="sans-serif" font-size="14" lengthAdjust="spacing" textLength="116" x="1236.5" y="799.4121">IQuestionValidator</text><text fill="#000000" font-family="sans-serif" font-size="14" font-style="italic" lengthAdjust="spacing" textLength="79" x="1392.5" y="105.7285">&#171;repository&#187;</text><text fill="#000000" font-family="sans-serif" font-size="14" lengthAdjust="spacing" textLength="125" x="1369.5" y="124.3496">QuestionRepository</text><path d="M1417,54.6211 C1417,44.6211 1435,44.6211 1435,44.6211 C1435,44.6211 1453,44.6211 1453,54.6211 L1453,80.6211 C1453,90.6211 1435,90.6211 1435,90.6211 C1435,90.6211 1417,90.6211 1417,80.6211 L1417,54.6211 " fill="#E2E2F0" style="stroke:#181818;stroke-width:1.5;"/><path d="M1417,54.6211 C1417,64.6211 1435,64.6211 1435,64.6211 C1435,64.6211 1453,64.6211 1453,54.6211 " fill="none" style="stroke:#181818;stroke-width:1.5;"/><text fill="#000000" font-family="sans-serif" font-size="14" font-style="italic" lengthAdjust="spacing" textLength="79" x="1392.5" y="773.791">&#171;repository&#187;</text><text fill="#000000" font-family="sans-serif" font-size="14" lengthAdjust="spacing" textLength="125" x="1369.5" y="792.4121">QuestionRepository</text><path d="M1417,805.9258 C1417,795.9258 1435,795.9258 1435,795.9258 C1435,795.9258 1453,795.9258 1453,805.9258 L1453,831.9258 C1453,841.9258 1435,841.9258 1435,841.9258 C1435,841.9258 1417,841.9258 1417,831.9258 L1417,805.9258 " fill="#E2E2F0" style="stroke:#181818;stroke-width:1.5;"/><path d="M1417,805.9258 C1417,815.9258 1435,815.9258 1435,815.9258 C1435,815.9258 1453,815.9258 1453,805.9258 " fill="none" style="stroke:#181818;stroke-width:1.5;"/><rect fill="#FFFFFF" height="111.1641" style="stroke:#181818;stroke-width:1.0;" width="10" x="228.5" y="161.1543"/><rect fill="#FFFFFF" height="469.3652" style="stroke:#181818;stroke-width:1.0;" width="10" x="388.5" y="272.3184"/><rect fill="#FFFFFF" height="312.9102" style="stroke:#181818;stroke-width:1.0;" width="10" x="652.5" y="397.4824"/><rect fill="#FFFFFF" height="156.4551" style="stroke:#181818;stroke-width:1.0;" width="10" x="899.5" y="460.0645"/><rect fill="#FFFFFF" height="31.291" style="stroke:#181818;stroke-width:1.0;" width="10" x="1133.5" y="491.3555"/><rect fill="#FFFFFF" height="31.291" style="stroke:#181818;stroke-width:1.0;" width="10" x="1289.5" y="553.9375"/><rect fill="#FFFFFF" height="31.291" style="stroke:#181818;stroke-width:1.0;" width="10" x="1430" y="647.8105"/><polygon fill="#181818" points="216.5,157.1543,226.5,161.1543,216.5,165.1543,220.5,161.1543" style="stroke:#181818;stroke-width:1.0;"/><line style="stroke:#181818;stroke-width:1.0;" x1="0" x2="222.5" y1="161.1543" y2="161.1543"/><text fill="#000000" font-family="sans-serif" font-size="13" font-weight="bold" lengthAdjust="spacing" textLength="7" x="7" y="155.8916">1</text><text fill="#000000" font-family="sans-serif" font-size="13" lengthAdjust="spacing" textLength="42" x="18" y="155.8916">onLoad</text><polygon fill="#181818" points="45.5,205.7363,35.5,209.7363,45.5,213.7363,41.5,209.7363" style="stroke:#181818;stroke-width:1.0;"/><line style="stroke:#181818;stroke-width:1.0;stroke-dasharray:2.0,2.0;" x1="39.5" x2="227.5" y1="209.7363" y2="209.7363"/><text fill="#000000" font-family="sans-serif" font-size="13" font-weight="bold" lengthAdjust="spacing" textLength="7" x="51.5" y="195.8281">2</text><text fill="#000000" font-family="sans-serif" font-size="13" lengthAdjust="spacing" textLength="159" x="62.5" y="187.1826">displays the question types</text><text fill="#000000" font-family="sans-serif" font-size="13" lengthAdjust="spacing" textLength="4" x="62.5" y="204.4736">&#160;</text><polygon fill="#181818" points="216.5,237.0273,226.5,241.0273,216.5,245.0273,220.5,241.0273" style="stroke:#181818;stroke-width:1.0;"/><line style="stroke:#181818;stroke-width:1.0;" x1="34.5" x2="222.5" y1="241.0273" y2="241.0273"/><text fill="#000000" font-family="sans-serif" font-size="13" font-weight="bold" lengthAdjust="spacing" textLength="7" x="41.5" y="235.7646">3</text><text fill="#000000" font-family="sans-serif" font-size="13" lengthAdjust="spacing" textLength="135" x="52.5" y="235.7646">selects a question type</text><polygon fill="#181818" points="376.5,268.3184,386.5,272.3184,376.5,276.3184,380.5,272.3184" style="stroke:#181818;stroke-width:1.0;"/><line style="stroke:#181818;stroke-width:1.0;" x1="233.5" x2="382.5" y1="272.3184" y2="272.3184"/><text fill="#000000" font-family="sans-serif" font-size="13" font-weight="bold" lengthAdjust="spacing" textLength="7" x="240.5" y="267.0557">4</text><text fill="#000000" font-family="sans-serif" font-size="13" lengthAdjust="spacing" textLength="120" x="251.5" y="267.0557">creates and displays</text><polygon fill="#181818" points="645.5,299.6094,655.5,303.6094,645.5,307.6094,649.5,303.6094" style="stroke:#181818;stroke-width:1.0;"/><line style="stroke:#181818;stroke-width:1.0;" x1="398.5" x2="651.5" y1="303.6094" y2="303.6094"/><text fill="#000000" font-family="sans-serif" font-size="13" font-weight="bold" lengthAdjust="spacing" textLength="7" x="405.5" y="298.3467">5</text><text fill="#000000" font-family="sans-serif" font-size="13" lengthAdjust="spacing" textLength="224" x="416.5" y="298.3467">create(questionRepo, questionFactory)</text><polygon fill="#181818" points="45.5,330.9004,35.5,334.9004,45.5,338.9004,41.5,334.9004" style="stroke:#181818;stroke-width:1.0;"/><line style="stroke:#181818;stroke-width:1.0;stroke-dasharray:2.0,2.0;" x1="39.5" x2="387.5" y1="334.9004" y2="334.9004"/><text fill="#000000" font-family="sans-serif" font-size="13" font-weight="bold" lengthAdjust="spacing" textLength="7" x="51.5" y="329.6377">6</text><text fill="#000000" font-family="sans-serif" font-size="13" lengthAdjust="spacing" textLength="150" x="62.5" y="329.6377">asks for the question data</text><polygon fill="#181818" points="376.5,362.1914,386.5,366.1914,376.5,370.1914,380.5,366.1914" style="stroke:#181818;stroke-width:1.0;"/><line style="stroke:#181818;stroke-width:1.0;" x1="34.5" x2="382.5" y1="366.1914" y2="366.1914"/><text fill="#000000" font-family="sans-serif" font-size="13" font-weight="bold" lengthAdjust="spacing" textLength="7" x="41.5" y="360.9287">7</text><text fill="#000000" font-family="sans-serif" font-size="13" lengthAdjust="spacing" textLength="123" x="52.5" y="360.9287">fills the question form</text><polygon fill="#181818" points="640.5,393.4824,650.5,397.4824,640.5,401.4824,644.5,397.4824" style="stroke:#181818;stroke-width:1.0;"/><line style="stroke:#181818;stroke-width:1.0;" x1="398.5" x2="646.5" y1="397.4824" y2="397.4824"/><text fill="#000000" font-family="sans-serif" font-size="13" font-weight="bold" lengthAdjust="spacing" textLength="7" x="405.5" y="392.2197">8</text><text fill="#000000" font-family="sans-serif" font-size="13" lengthAdjust="spacing" textLength="157" x="416.5" y="392.2197">addQuestion(questionData)</text><polygon fill="#181818" points="892.5,424.7734,902.5,428.7734,892.5,432.7734,896.5,428.7734" style="stroke:#181818;stroke-width:1.0;"/><line style="stroke:#181818;stroke-width:1.0;" x1="662.5" x2="898.5" y1="428.7734" y2="428.7734"/><text fill="#000000" font-family="sans-serif" font-size="13" font-weight="bold" lengthAdjust="spacing" textLength="7" x="669.5" y="423.5107">9</text><text fill="#000000" font-family="sans-serif" font-size="13" lengthAdjust="spacing" textLength="144" x="680.5" y="423.5107">create(questionValidator)</text><polygon fill="#181818" points="887.5,456.0645,897.5,460.0645,887.5,464.0645,891.5,460.0645" style="stroke:#181818;stroke-width:1.0;"/><line style="stroke:#181818;stroke-width:1.0;" x1="662.5" x2="893.5" y1="460.0645" y2="460.0645"/><text fill="#000000" font-family="sans-serif" font-size="13" font-weight="bold" lengthAdjust="spacing" textLength="14" x="669.5" y="454.8018">10</text><text fill="#000000" font-family="sans-serif" font-size="13" lengthAdjust="spacing" textLength="200" x="687.5" y="454.8018">createTypeQuestion(questionData)</text><polygon fill="#181818" points="1121.5,487.3555,1131.5,491.3555,1121.5,495.3555,1125.5,491.3555" style="stroke:#181818;stroke-width:1.0;"/><line style="stroke:#181818;stroke-width:1.0;" x1="909.5" x2="1127.5" y1="491.3555" y2="491.3555"/><text fill="#000000" font-family="sans-serif" font-size="13" font-weight="bold" lengthAdjust="spacing" textLength="14" x="916.5" y="486.0928">11</text><text fill="#000000" font-family="sans-serif" font-size="13" lengthAdjust="spacing" textLength="187" x="934.5" y="486.0928">generateQuestionType(question)</text><polygon fill="#181818" points="920.5,518.6465,910.5,522.6465,920.5,526.6465,916.5,522.6465" style="stroke:#181818;stroke-width:1.0;"/><line style="stroke:#181818;stroke-width:1.0;" x1="914.5" x2="1137.5" y1="522.6465" y2="522.6465"/><text fill="#000000" font-family="sans-serif" font-size="13" font-weight="bold" lengthAdjust="spacing" textLength="14" x="926.5" y="517.3838">12</text><text fill="#000000" font-family="sans-serif" font-size="13" lengthAdjust="spacing" textLength="143" x="944.5" y="517.3838">returns the generated file</text><polygon fill="#181818" points="1277.5,549.9375,1287.5,553.9375,1277.5,557.9375,1281.5,553.9375" style="stroke:#181818;stroke-width:1.0;"/><line style="stroke:#181818;stroke-width:1.0;" x1="909.5" x2="1283.5" y1="553.9375" y2="553.9375"/><text fill="#000000" font-family="sans-serif" font-size="13" font-weight="bold" lengthAdjust="spacing" textLength="14" x="916.5" y="548.6748">13</text><text fill="#000000" font-family="sans-serif" font-size="13" lengthAdjust="spacing" textLength="94" x="934.5" y="548.6748">validate(filePath)</text><polygon fill="#181818" points="920.5,581.2285,910.5,585.2285,920.5,589.2285,916.5,585.2285" style="stroke:#181818;stroke-width:1.0;"/><line style="stroke:#181818;stroke-width:1.0;" x1="914.5" x2="1293.5" y1="585.2285" y2="585.2285"/><text fill="#000000" font-family="sans-serif" font-size="13" font-weight="bold" lengthAdjust="spacing" textLength="14" x="926.5" y="579.9658">14</text><text fill="#000000" font-family="sans-serif" font-size="13" lengthAdjust="spacing" textLength="115" x="944.5" y="579.9658">returns the question</text><polygon fill="#181818" points="673.5,612.5195,663.5,616.5195,673.5,620.5195,669.5,616.5195" style="stroke:#181818;stroke-width:1.0;"/><line style="stroke:#181818;stroke-width:1.0;stroke-dasharray:2.0,2.0;" x1="667.5" x2="903.5" y1="616.5195" y2="616.5195"/><text fill="#000000" font-family="sans-serif" font-size="13" font-weight="bold" lengthAdjust="spacing" textLength="14" x="679.5" y="611.2568">15</text><text fill="#000000" font-family="sans-serif" font-size="13" lengthAdjust="spacing" textLength="115" x="697.5" y="611.2568">returns the question</text><polygon fill="#181818" points="1418,643.8105,1428,647.8105,1418,651.8105,1422,647.8105" style="stroke:#181818;stroke-width:1.0;"/><line style="stroke:#181818;stroke-width:1.0;" x1="662.5" x2="1424" y1="647.8105" y2="647.8105"/><text fill="#000000" font-family="sans-serif" font-size="13" font-weight="bold" lengthAdjust="spacing" textLength="14" x="669.5" y="642.5479">16</text><text fill="#000000" font-family="sans-serif" font-size="13" lengthAdjust="spacing" textLength="83" x="687.5" y="642.5479">save(question)</text><polygon fill="#181818" points="673.5,675.1016,663.5,679.1016,673.5,683.1016,669.5,679.1016" style="stroke:#181818;stroke-width:1.0;"/><line style="stroke:#181818;stroke-width:1.0;" x1="667.5" x2="1434" y1="679.1016" y2="679.1016"/><text fill="#000000" font-family="sans-serif" font-size="13" font-weight="bold" lengthAdjust="spacing" textLength="14" x="679.5" y="673.8389">17</text><text fill="#000000" font-family="sans-serif" font-size="13" lengthAdjust="spacing" textLength="128" x="697.5" y="673.8389">returns the save result</text><polygon fill="#181818" points="409.5,706.3926,399.5,710.3926,409.5,714.3926,405.5,710.3926" style="stroke:#181818;stroke-width:1.0;"/><line style="stroke:#181818;stroke-width:1.0;stroke-dasharray:2.0,2.0;" x1="403.5" x2="656.5" y1="710.3926" y2="710.3926"/><text fill="#000000" font-family="sans-serif" font-size="13" font-weight="bold" lengthAdjust="spacing" textLength="14" x="415.5" y="705.1299">18</text><text fill="#000000" font-family="sans-serif" font-size="13" lengthAdjust="spacing" textLength="128" x="433.5" y="705.1299">returns the save result</text><polygon fill="#181818" points="45.5,737.6836,35.5,741.6836,45.5,745.6836,41.5,741.6836" style="stroke:#181818;stroke-width:1.0;"/><line style="stroke:#181818;stroke-width:1.0;stroke-dasharray:2.0,2.0;" x1="39.5" x2="392.5" y1="741.6836" y2="741.6836"/><text fill="#000000" font-family="sans-serif" font-size="13" font-weight="bold" lengthAdjust="spacing" textLength="14" x="51.5" y="736.4209">19</text><text fill="#000000" font-family="sans-serif" font-size="13" lengthAdjust="spacing" textLength="169" x="69.5" y="736.4209">displays a success message</text><!--SRC=[ZPF1Rjim38RlUWgYfmPONo0e0XJTCWG8q2PmUzg5jRX6c2AvaXmWRrzAjcNPoRPU0aVwl_-dIJgee0aUf8HTIpueQuJ0DbZJ7j_82Qo3TL0HrWToW1ugqQ0BgbODcW0t30xSo-Oc2busS7_VgjNgGbYT6vg9gztNv8_M16Ur9fUmnsg_PGoRHgiQes3E3-0wlS0vKRirCz8UKLt8DrclDFqaGmuPIzJlykJVeTdb5RMIsU7rOLi6ymM-eQUno3qrrgjSv_x7ynC3Bfyo9CJTAhPs2TPiBKeH9wDE68XF1L_SyNt5rrBvHkFPGpWGVFG14BYN_fSH5GmsdZJLmGDEHSbgrSrb2RKZJc2HaTbOI2gZytD4HEAOJmCQ-DkFuZs_vRn-D8iUwkj7_uTxpfsUr1zxrXNVLyPJqRDtPEWuBm37zSnLV6UlnLXtL8eaPunNvABgFCp5DLcvfN-BsAq54ynDTsa9xzrpDeXcsQGmc71YwZAKuoYqpdGz6Nnb8ik9JPswgk9-Bk7KlIRTHiapXaEHpmeHLTUoXdBBbAYV_OrHurp-Py0T6tgTlWRULpnTRKsy5abptJroVE1R7Sg0X7KHur9zWKlRCbdO_C4X-BQkoNiuyW- -J_gUlWxn2G00]--></g></svg>