<?xml version="1.0" encoding="us-ascii" standalone="no"?><svg xmlns="http://www.w3.org/2000/svg" xmlns:xlink="http://www.w3.org/1999/xlink" contentStyleType="text/css" height="780px" preserveAspectRatio="none" style="width:1857px;height:780px;background:#FFFFFF;" version="1.1" viewBox="0 0 1857 780" width="1857px" zoomAndPan="magnify"><defs/><g><!--cluster ui--><g id="cluster_ui"><path d="M8.5,510.0137 L22.5,510.0137 A3.75,3.75 0 0 1 25,512.5137 L32,534.6348 L160.5,534.6348 A2.5,2.5 0 0 1 163,537.1348 L163,608.5137 A2.5,2.5 0 0 1 160.5,611.0137 L8.5,611.0137 A2.5,2.5 0 0 1 6,608.5137 L6,512.5137 A2.5,2.5 0 0 1 8.5,510.0137 " fill="none" style="stroke:#000000;stroke-width:1.5;"/><line style="stroke:#000000;stroke-width:1.5;" x1="6" x2="32" y1="534.6348" y2="534.6348"/><text fill="#000000" font-family="sans-serif" font-size="14" font-weight="bold" lengthAdjust="spacing" textLength="13" x="10" y="527.1211">ui</text></g><!--cluster boardmanagement--><g id="cluster_boardmanagement"><path d="M189.5,6.0137 L321.5,6.0137 A3.75,3.75 0 0 1 324,8.5137 L331,30.6348 L1847.5,30.6348 A2.5,2.5 0 0 1 1850,33.1348 L1850,770.5137 A2.5,2.5 0 0 1 1847.5,773.0137 L189.5,773.0137 A2.5,2.5 0 0 1 187,770.5137 L187,8.5137 A2.5,2.5 0 0 1 189.5,6.0137 " fill="none" style="stroke:#000000;stroke-width:1.5;"/><line style="stroke:#000000;stroke-width:1.5;" x1="187" x2="331" y1="30.6348" y2="30.6348"/><text fill="#000000" font-family="sans-serif" font-size="14" font-weight="bold" lengthAdjust="spacing" textLength="131" x="191" y="23.1211">boardmanagement</text></g><!--cluster application--><g id="cluster_application"><path d="M213.5,500.0137 L291.5,500.0137 A3.75,3.75 0 0 1 294,502.5137 L301,524.6348 L415.5,524.6348 A2.5,2.5 0 0 1 418,527.1348 L418,618.5137 A2.5,2.5 0 0 1 415.5,621.0137 L213.5,621.0137 A2.5,2.5 0 0 1 211,618.5137 L211,502.5137 A2.5,2.5 0 0 1 213.5,500.0137 " fill="none" style="stroke:#000000;stroke-width:1.5;"/><line style="stroke:#000000;stroke-width:1.5;" x1="211" x2="301" y1="524.6348" y2="524.6348"/><text fill="#000000" font-family="sans-serif" font-size="14" font-weight="bold" lengthAdjust="spacing" textLength="77" x="215" y="517.1211">application</text></g><!--cluster repository--><g id="cluster_repository"><path d="M773.5,628.0137 L846.5,628.0137 A3.75,3.75 0 0 1 849,630.5137 L856,652.6348 L1012.5,652.6348 A2.5,2.5 0 0 1 1015,655.1348 L1015,746.5137 A2.5,2.5 0 0 1 1012.5,749.0137 L773.5,749.0137 A2.5,2.5 0 0 1 771,746.5137 L771,630.5137 A2.5,2.5 0 0 1 773.5,628.0137 " fill="none" style="stroke:#000000;stroke-width:1.5;"/><line style="stroke:#000000;stroke-width:1.5;" x1="771" x2="856" y1="652.6348" y2="652.6348"/><text fill="#000000" font-family="sans-serif" font-size="14" font-weight="bold" lengthAdjust="spacing" textLength="72" x="775" y="645.1211">repository</text></g><!--cluster domain--><g id="cluster_domain"><path d="M448.5,51.0137 L500.5,51.0137 A3.75,3.75 0 0 1 503,53.5137 L510,75.6348 L1823.5,75.6348 A2.5,2.5 0 0 1 1826,78.1348 L1826,601.5137 A2.5,2.5 0 0 1 1823.5,604.0137 L448.5,604.0137 A2.5,2.5 0 0 1 446,601.5137 L446,53.5137 A2.5,2.5 0 0 1 448.5,51.0137 " fill="none" style="stroke:#000000;stroke-width:1.5;"/><line style="stroke:#000000;stroke-width:1.5;" x1="446" x2="510" y1="75.6348" y2="75.6348"/><text fill="#000000" font-family="sans-serif" font-size="14" font-weight="bold" lengthAdjust="spacing" textLength="51" x="450" y="68.1211">domain</text></g><!--class CreateBoardUI--><g id="elem_CreateBoardUI"><rect codeLine="6" fill="#F1F1F1" height="48" id="CreateBoardUI" rx="2.5" ry="2.5" style="stroke:#181818;stroke-width:0.5;" width="125" x="22" y="547.0137"/><ellipse cx="37" cy="563.0137" fill="#ADD1B2" rx="11" ry="11" style="stroke:#181818;stroke-width:1.0;"/><path d="M39.7656,558.8887 Q39.9219,558.6699 40.1094,558.5605 Q40.2969,558.4512 40.5156,558.4512 Q40.8906,558.4512 41.125,558.7168 Q41.3594,558.9668 41.3594,559.5762 L41.3594,561.0293 Q41.3594,561.6387 41.125,561.9043 Q40.8906,562.1699 40.5156,562.1699 Q40.1719,562.1699 39.9688,561.9668 Q39.7656,561.7793 39.6563,561.2637 Q39.6094,560.9043 39.4219,560.7168 Q39.0938,560.3418 38.4844,560.123 Q37.875,559.9043 37.25,559.9043 Q36.4844,559.9043 35.8438,560.2324 Q35.2188,560.5605 34.7188,561.3105 Q34.2344,562.0605 34.2344,563.0918 L34.2344,564.1855 Q34.2344,565.4199 35.125,566.248 Q36.0156,567.0605 37.6094,567.0605 Q38.5469,567.0605 39.2031,566.8105 Q39.5938,566.6543 40.0156,566.2168 Q40.2813,565.9512 40.4219,565.873 Q40.5781,565.7949 40.7813,565.7949 Q41.1094,565.7949 41.3594,566.0605 Q41.625,566.3105 41.625,566.6543 Q41.625,566.998 41.2813,567.4043 Q40.7813,567.9824 39.9844,568.3105 Q38.9063,568.7637 37.6094,568.7637 Q36.0938,568.7637 34.8906,568.1387 Q33.9063,567.6387 33.2188,566.5762 Q32.5313,565.498 32.5313,564.2168 L32.5313,563.0605 Q32.5313,561.7324 33.1406,560.5918 Q33.7656,559.4355 34.8594,558.8262 Q35.9531,558.2012 37.1875,558.2012 Q37.9219,558.2012 38.5625,558.373 Q39.2188,558.5293 39.7656,558.8887 Z " fill="#000000"/><text fill="#000000" font-family="sans-serif" font-size="14" lengthAdjust="spacing" textLength="93" x="51" y="568.8105">CreateBoardUI</text><line style="stroke:#181818;stroke-width:0.5;" x1="23" x2="146" y1="579.0137" y2="579.0137"/><line style="stroke:#181818;stroke-width:0.5;" x1="23" x2="146" y1="587.0137" y2="587.0137"/></g><!--class CreateBoardController--><g id="elem_CreateBoardController"><rect codeLine="14" fill="#F1F1F1" height="66.6211" id="CreateBoardController" rx="2.5" ry="2.5" style="stroke:#181818;stroke-width:0.5;" width="175" x="227" y="537.5137"/><ellipse cx="242" cy="553.5137" fill="#ADD1B2" rx="11" ry="11" style="stroke:#181818;stroke-width:1.0;"/><path d="M244.7656,549.3887 Q244.9219,549.1699 245.1094,549.0605 Q245.2969,548.9512 245.5156,548.9512 Q245.8906,548.9512 246.125,549.2168 Q246.3594,549.4668 246.3594,550.0762 L246.3594,551.5293 Q246.3594,552.1387 246.125,552.4043 Q245.8906,552.6699 245.5156,552.6699 Q245.1719,552.6699 244.9688,552.4668 Q244.7656,552.2793 244.6563,551.7637 Q244.6094,551.4043 244.4219,551.2168 Q244.0938,550.8418 243.4844,550.623 Q242.875,550.4043 242.25,550.4043 Q241.4844,550.4043 240.8438,550.7324 Q240.2188,551.0605 239.7188,551.8105 Q239.2344,552.5605 239.2344,553.5918 L239.2344,554.6855 Q239.2344,555.9199 240.125,556.748 Q241.0156,557.5605 242.6094,557.5605 Q243.5469,557.5605 244.2031,557.3105 Q244.5938,557.1543 245.0156,556.7168 Q245.2813,556.4512 245.4219,556.373 Q245.5781,556.2949 245.7813,556.2949 Q246.1094,556.2949 246.3594,556.5605 Q246.625,556.8105 246.625,557.1543 Q246.625,557.498 246.2813,557.9043 Q245.7813,558.4824 244.9844,558.8105 Q243.9063,559.2637 242.6094,559.2637 Q241.0938,559.2637 239.8906,558.6387 Q238.9063,558.1387 238.2188,557.0762 Q237.5313,555.998 237.5313,554.7168 L237.5313,553.5605 Q237.5313,552.2324 238.1406,551.0918 Q238.7656,549.9355 239.8594,549.3262 Q240.9531,548.7012 242.1875,548.7012 Q242.9219,548.7012 243.5625,548.873 Q244.2188,549.0293 244.7656,549.3887 Z " fill="#000000"/><text fill="#000000" font-family="sans-serif" font-size="14" lengthAdjust="spacing" textLength="143" x="256" y="559.3105">CreateBoardController</text><line style="stroke:#181818;stroke-width:0.5;" x1="228" x2="401" y1="569.5137" y2="569.5137"/><line style="stroke:#181818;stroke-width:0.5;" x1="228" x2="401" y1="577.5137" y2="577.5137"/><ellipse cx="238" cy="592.3242" fill="#84BE84" rx="3" ry="3" style="stroke:#038048;stroke-width:1.0;"/><text fill="#000000" font-family="sans-serif" font-size="14" lengthAdjust="spacing" textLength="134" x="247" y="596.6211">createBoard(): Board</text></g><!--class IBoardRepository--><g id="elem_IBoardRepository"><rect codeLine="20" fill="#F1F1F1" height="66.6211" id="IBoardRepository" rx="2.5" ry="2.5" style="stroke:#181818;stroke-width:0.5;" width="212" x="787" y="665.5137"/><ellipse cx="833.75" cy="681.5137" fill="#B4A7E5" rx="11" ry="11" style="stroke:#181818;stroke-width:1.0;"/><path d="M834.7031,678.1543 L834.7031,684.8105 L836.4219,684.8105 Q837.0313,684.8105 837.2969,685.0449 Q837.5625,685.2793 837.5625,685.6699 Q837.5625,686.0449 837.2969,686.2793 Q837.0313,686.5137 836.4219,686.5137 L831.2813,686.5137 Q830.6719,686.5137 830.4063,686.2793 Q830.1406,686.0449 830.1406,685.6543 Q830.1406,685.2793 830.4063,685.0449 Q830.6719,684.8105 831.2813,684.8105 L833,684.8105 L833,678.1543 L831.2813,678.1543 Q830.6719,678.1543 830.4063,677.9199 Q830.1406,677.6855 830.1406,677.2949 Q830.1406,676.9199 830.4063,676.6855 Q830.6719,676.4512 831.2813,676.4512 L836.4219,676.4512 Q837.0313,676.4512 837.2969,676.6855 Q837.5625,676.9199 837.5625,677.2949 Q837.5625,677.6855 837.2969,677.9199 Q837.0313,678.1543 836.4219,678.1543 L834.7031,678.1543 Z " fill="#000000"/><text fill="#000000" font-family="sans-serif" font-size="14" font-style="italic" lengthAdjust="spacing" textLength="110" x="854.25" y="687.3105">IBoardRepository</text><line style="stroke:#181818;stroke-width:0.5;" x1="788" x2="998" y1="697.5137" y2="697.5137"/><line style="stroke:#181818;stroke-width:0.5;" x1="788" x2="998" y1="705.5137" y2="705.5137"/><ellipse cx="798" cy="720.3242" fill="#84BE84" rx="3" ry="3" style="stroke:#038048;stroke-width:1.0;"/><text fill="#000000" font-family="sans-serif" font-size="14" lengthAdjust="spacing" textLength="186" x="807" y="724.6211">findByTitle(boardTitle): Board</text></g><!--class Board--><g id="elem_Board"><rect codeLine="26" fill="#F1F1F1" height="48" id="Board" rx="2.5" ry="2.5" style="stroke:#181818;stroke-width:0.5;" width="70" x="858" y="367.0137"/><ellipse cx="873" cy="383.0137" fill="#ADD1B2" rx="11" ry="11" style="stroke:#181818;stroke-width:1.0;"/><path d="M875.7656,378.8887 Q875.9219,378.6699 876.1094,378.5605 Q876.2969,378.4512 876.5156,378.4512 Q876.8906,378.4512 877.125,378.7168 Q877.3594,378.9668 877.3594,379.5762 L877.3594,381.0293 Q877.3594,381.6387 877.125,381.9043 Q876.8906,382.1699 876.5156,382.1699 Q876.1719,382.1699 875.9688,381.9668 Q875.7656,381.7793 875.6563,381.2637 Q875.6094,380.9043 875.4219,380.7168 Q875.0938,380.3418 874.4844,380.123 Q873.875,379.9043 873.25,379.9043 Q872.4844,379.9043 871.8438,380.2324 Q871.2188,380.5605 870.7188,381.3105 Q870.2344,382.0605 870.2344,383.0918 L870.2344,384.1855 Q870.2344,385.4199 871.125,386.248 Q872.0156,387.0605 873.6094,387.0605 Q874.5469,387.0605 875.2031,386.8105 Q875.5938,386.6543 876.0156,386.2168 Q876.2813,385.9512 876.4219,385.873 Q876.5781,385.7949 876.7813,385.7949 Q877.1094,385.7949 877.3594,386.0605 Q877.625,386.3105 877.625,386.6543 Q877.625,386.998 877.2813,387.4043 Q876.7813,387.9824 875.9844,388.3105 Q874.9063,388.7637 873.6094,388.7637 Q872.0938,388.7637 870.8906,388.1387 Q869.9063,387.6387 869.2188,386.5762 Q868.5313,385.498 868.5313,384.2168 L868.5313,383.0605 Q868.5313,381.7324 869.1406,380.5918 Q869.7656,379.4355 870.8594,378.8262 Q871.9531,378.2012 873.1875,378.2012 Q873.9219,378.2012 874.5625,378.373 Q875.2188,378.5293 875.7656,378.8887 Z " fill="#000000"/><text fill="#000000" font-family="sans-serif" font-size="14" lengthAdjust="spacing" textLength="38" x="887" y="388.8105">Board</text><line style="stroke:#181818;stroke-width:0.5;" x1="859" x2="927" y1="399.0137" y2="399.0137"/><line style="stroke:#181818;stroke-width:0.5;" x1="859" x2="927" y1="407.0137" y2="407.0137"/></g><!--class BoardLine--><g id="elem_BoardLine"><rect codeLine="28" fill="#F1F1F1" height="48" id="BoardLine" rx="2.5" ry="2.5" style="stroke:#181818;stroke-width:0.5;" width="97" x="1507" y="457.0137"/><ellipse cx="1522" cy="473.0137" fill="#ADD1B2" rx="11" ry="11" style="stroke:#181818;stroke-width:1.0;"/><path d="M1524.7656,468.8887 Q1524.9219,468.6699 1525.1094,468.5605 Q1525.2969,468.4512 1525.5156,468.4512 Q1525.8906,468.4512 1526.125,468.7168 Q1526.3594,468.9668 1526.3594,469.5762 L1526.3594,471.0293 Q1526.3594,471.6387 1526.125,471.9043 Q1525.8906,472.1699 1525.5156,472.1699 Q1525.1719,472.1699 1524.9688,471.9668 Q1524.7656,471.7793 1524.6563,471.2637 Q1524.6094,470.9043 1524.4219,470.7168 Q1524.0938,470.3418 1523.4844,470.123 Q1522.875,469.9043 1522.25,469.9043 Q1521.4844,469.9043 1520.8438,470.2324 Q1520.2188,470.5605 1519.7188,471.3105 Q1519.2344,472.0605 1519.2344,473.0918 L1519.2344,474.1855 Q1519.2344,475.4199 1520.125,476.248 Q1521.0156,477.0605 1522.6094,477.0605 Q1523.5469,477.0605 1524.2031,476.8105 Q1524.5938,476.6543 1525.0156,476.2168 Q1525.2813,475.9512 1525.4219,475.873 Q1525.5781,475.7949 1525.7813,475.7949 Q1526.1094,475.7949 1526.3594,476.0605 Q1526.625,476.3105 1526.625,476.6543 Q1526.625,476.998 1526.2813,477.4043 Q1525.7813,477.9824 1524.9844,478.3105 Q1523.9063,478.7637 1522.6094,478.7637 Q1521.0938,478.7637 1519.8906,478.1387 Q1518.9063,477.6387 1518.2188,476.5762 Q1517.5313,475.498 1517.5313,474.2168 L1517.5313,473.0605 Q1517.5313,471.7324 1518.1406,470.5918 Q1518.7656,469.4355 1519.8594,468.8262 Q1520.9531,468.2012 1522.1875,468.2012 Q1522.9219,468.2012 1523.5625,468.373 Q1524.2188,468.5293 1524.7656,468.8887 Z " fill="#000000"/><text fill="#000000" font-family="sans-serif" font-size="14" lengthAdjust="spacing" textLength="65" x="1536" y="478.8105">BoardLine</text><line style="stroke:#181818;stroke-width:0.5;" x1="1508" x2="1603" y1="489.0137" y2="489.0137"/><line style="stroke:#181818;stroke-width:0.5;" x1="1508" x2="1603" y1="497.0137" y2="497.0137"/></g><!--class BoardLineTitle--><g id="elem_BoardLineTitle"><rect codeLine="30" fill="#F1F1F1" height="48" id="BoardLineTitle" rx="2.5" ry="2.5" style="stroke:#181818;stroke-width:0.5;" width="124" x="1675" y="498.0137"/><ellipse cx="1690" cy="514.0137" fill="#ADD1B2" rx="11" ry="11" style="stroke:#181818;stroke-width:1.0;"/><path d="M1692.7656,509.8887 Q1692.9219,509.6699 1693.1094,509.5605 Q1693.2969,509.4512 1693.5156,509.4512 Q1693.8906,509.4512 1694.125,509.7168 Q1694.3594,509.9668 1694.3594,510.5762 L1694.3594,512.0293 Q1694.3594,512.6387 1694.125,512.9043 Q1693.8906,513.1699 1693.5156,513.1699 Q1693.1719,513.1699 1692.9688,512.9668 Q1692.7656,512.7793 1692.6563,512.2637 Q1692.6094,511.9043 1692.4219,511.7168 Q1692.0938,511.3418 1691.4844,511.123 Q1690.875,510.9043 1690.25,510.9043 Q1689.4844,510.9043 1688.8438,511.2324 Q1688.2188,511.5605 1687.7188,512.3105 Q1687.2344,513.0605 1687.2344,514.0918 L1687.2344,515.1855 Q1687.2344,516.4199 1688.125,517.248 Q1689.0156,518.0605 1690.6094,518.0605 Q1691.5469,518.0605 1692.2031,517.8105 Q1692.5938,517.6543 1693.0156,517.2168 Q1693.2813,516.9512 1693.4219,516.873 Q1693.5781,516.7949 1693.7813,516.7949 Q1694.1094,516.7949 1694.3594,517.0605 Q1694.625,517.3105 1694.625,517.6543 Q1694.625,517.998 1694.2813,518.4043 Q1693.7813,518.9824 1692.9844,519.3105 Q1691.9063,519.7637 1690.6094,519.7637 Q1689.0938,519.7637 1687.8906,519.1387 Q1686.9063,518.6387 1686.2188,517.5762 Q1685.5313,516.498 1685.5313,515.2168 L1685.5313,514.0605 Q1685.5313,512.7324 1686.1406,511.5918 Q1686.7656,510.4355 1687.8594,509.8262 Q1688.9531,509.2012 1690.1875,509.2012 Q1690.9219,509.2012 1691.5625,509.373 Q1692.2188,509.5293 1692.7656,509.8887 Z " fill="#000000"/><text fill="#000000" font-family="sans-serif" font-size="14" lengthAdjust="spacing" textLength="92" x="1704" y="519.8105">BoardLineTitle</text><line style="stroke:#181818;stroke-width:0.5;" x1="1676" x2="1798" y1="530.0137" y2="530.0137"/><line style="stroke:#181818;stroke-width:0.5;" x1="1676" x2="1798" y1="538.0137" y2="538.0137"/></g><!--class BoardLineNumber--><g id="elem_BoardLineNumber"><rect codeLine="32" fill="#F1F1F1" height="48" id="BoardLineNumber" rx="2.5" ry="2.5" style="stroke:#181818;stroke-width:0.5;" width="146" x="1664" y="415.0137"/><ellipse cx="1679" cy="431.0137" fill="#ADD1B2" rx="11" ry="11" style="stroke:#181818;stroke-width:1.0;"/><path d="M1681.7656,426.8887 Q1681.9219,426.6699 1682.1094,426.5605 Q1682.2969,426.4512 1682.5156,426.4512 Q1682.8906,426.4512 1683.125,426.7168 Q1683.3594,426.9668 1683.3594,427.5762 L1683.3594,429.0293 Q1683.3594,429.6387 1683.125,429.9043 Q1682.8906,430.1699 1682.5156,430.1699 Q1682.1719,430.1699 1681.9688,429.9668 Q1681.7656,429.7793 1681.6563,429.2637 Q1681.6094,428.9043 1681.4219,428.7168 Q1681.0938,428.3418 1680.4844,428.123 Q1679.875,427.9043 1679.25,427.9043 Q1678.4844,427.9043 1677.8438,428.2324 Q1677.2188,428.5605 1676.7188,429.3105 Q1676.2344,430.0605 1676.2344,431.0918 L1676.2344,432.1855 Q1676.2344,433.4199 1677.125,434.248 Q1678.0156,435.0605 1679.6094,435.0605 Q1680.5469,435.0605 1681.2031,434.8105 Q1681.5938,434.6543 1682.0156,434.2168 Q1682.2813,433.9512 1682.4219,433.873 Q1682.5781,433.7949 1682.7813,433.7949 Q1683.1094,433.7949 1683.3594,434.0605 Q1683.625,434.3105 1683.625,434.6543 Q1683.625,434.998 1683.2813,435.4043 Q1682.7813,435.9824 1681.9844,436.3105 Q1680.9063,436.7637 1679.6094,436.7637 Q1678.0938,436.7637 1676.8906,436.1387 Q1675.9063,435.6387 1675.2188,434.5762 Q1674.5313,433.498 1674.5313,432.2168 L1674.5313,431.0605 Q1674.5313,429.7324 1675.1406,428.5918 Q1675.7656,427.4355 1676.8594,426.8262 Q1677.9531,426.2012 1679.1875,426.2012 Q1679.9219,426.2012 1680.5625,426.373 Q1681.2188,426.5293 1681.7656,426.8887 Z " fill="#000000"/><text fill="#000000" font-family="sans-serif" font-size="14" lengthAdjust="spacing" textLength="114" x="1693" y="436.8105">BoardLineNumber</text><line style="stroke:#181818;stroke-width:0.5;" x1="1665" x2="1809" y1="447.0137" y2="447.0137"/><line style="stroke:#181818;stroke-width:0.5;" x1="1665" x2="1809" y1="455.0137" y2="455.0137"/></g><!--class Row--><g id="elem_Row"><rect codeLine="34" fill="#F1F1F1" height="48" id="Row" rx="2.5" ry="2.5" style="stroke:#181818;stroke-width:0.5;" width="59" x="1323" y="540.0137"/><ellipse cx="1338" cy="556.0137" fill="#ADD1B2" rx="11" ry="11" style="stroke:#181818;stroke-width:1.0;"/><path d="M1340.7656,551.8887 Q1340.9219,551.6699 1341.1094,551.5605 Q1341.2969,551.4512 1341.5156,551.4512 Q1341.8906,551.4512 1342.125,551.7168 Q1342.3594,551.9668 1342.3594,552.5762 L1342.3594,554.0293 Q1342.3594,554.6387 1342.125,554.9043 Q1341.8906,555.1699 1341.5156,555.1699 Q1341.1719,555.1699 1340.9688,554.9668 Q1340.7656,554.7793 1340.6563,554.2637 Q1340.6094,553.9043 1340.4219,553.7168 Q1340.0938,553.3418 1339.4844,553.123 Q1338.875,552.9043 1338.25,552.9043 Q1337.4844,552.9043 1336.8438,553.2324 Q1336.2188,553.5605 1335.7188,554.3105 Q1335.2344,555.0605 1335.2344,556.0918 L1335.2344,557.1855 Q1335.2344,558.4199 1336.125,559.248 Q1337.0156,560.0605 1338.6094,560.0605 Q1339.5469,560.0605 1340.2031,559.8105 Q1340.5938,559.6543 1341.0156,559.2168 Q1341.2813,558.9512 1341.4219,558.873 Q1341.5781,558.7949 1341.7813,558.7949 Q1342.1094,558.7949 1342.3594,559.0605 Q1342.625,559.3105 1342.625,559.6543 Q1342.625,559.998 1342.2813,560.4043 Q1341.7813,560.9824 1340.9844,561.3105 Q1339.9063,561.7637 1338.6094,561.7637 Q1337.0938,561.7637 1335.8906,561.1387 Q1334.9063,560.6387 1334.2188,559.5762 Q1333.5313,558.498 1333.5313,557.2168 L1333.5313,556.0605 Q1333.5313,554.7324 1334.1406,553.5918 Q1334.7656,552.4355 1335.8594,551.8262 Q1336.9531,551.2012 1338.1875,551.2012 Q1338.9219,551.2012 1339.5625,551.373 Q1340.2188,551.5293 1340.7656,551.8887 Z " fill="#000000"/><text fill="#000000" font-family="sans-serif" font-size="14" lengthAdjust="spacing" textLength="27" x="1352" y="561.8105">Row</text><line style="stroke:#181818;stroke-width:0.5;" x1="1324" x2="1381" y1="572.0137" y2="572.0137"/><line style="stroke:#181818;stroke-width:0.5;" x1="1324" x2="1381" y1="580.0137" y2="580.0137"/></g><!--class Column--><g id="elem_Column"><rect codeLine="36" fill="#F1F1F1" height="48" id="Column" rx="2.5" ry="2.5" style="stroke:#181818;stroke-width:0.5;" width="80" x="1312.5" y="457.0137"/><ellipse cx="1327.5" cy="473.0137" fill="#ADD1B2" rx="11" ry="11" style="stroke:#181818;stroke-width:1.0;"/><path d="M1330.2656,468.8887 Q1330.4219,468.6699 1330.6094,468.5605 Q1330.7969,468.4512 1331.0156,468.4512 Q1331.3906,468.4512 1331.625,468.7168 Q1331.8594,468.9668 1331.8594,469.5762 L1331.8594,471.0293 Q1331.8594,471.6387 1331.625,471.9043 Q1331.3906,472.1699 1331.0156,472.1699 Q1330.6719,472.1699 1330.4688,471.9668 Q1330.2656,471.7793 1330.1563,471.2637 Q1330.1094,470.9043 1329.9219,470.7168 Q1329.5938,470.3418 1328.9844,470.123 Q1328.375,469.9043 1327.75,469.9043 Q1326.9844,469.9043 1326.3438,470.2324 Q1325.7188,470.5605 1325.2188,471.3105 Q1324.7344,472.0605 1324.7344,473.0918 L1324.7344,474.1855 Q1324.7344,475.4199 1325.625,476.248 Q1326.5156,477.0605 1328.1094,477.0605 Q1329.0469,477.0605 1329.7031,476.8105 Q1330.0938,476.6543 1330.5156,476.2168 Q1330.7813,475.9512 1330.9219,475.873 Q1331.0781,475.7949 1331.2813,475.7949 Q1331.6094,475.7949 1331.8594,476.0605 Q1332.125,476.3105 1332.125,476.6543 Q1332.125,476.998 1331.7813,477.4043 Q1331.2813,477.9824 1330.4844,478.3105 Q1329.4063,478.7637 1328.1094,478.7637 Q1326.5938,478.7637 1325.3906,478.1387 Q1324.4063,477.6387 1323.7188,476.5762 Q1323.0313,475.498 1323.0313,474.2168 L1323.0313,473.0605 Q1323.0313,471.7324 1323.6406,470.5918 Q1324.2656,469.4355 1325.3594,468.8262 Q1326.4531,468.2012 1327.6875,468.2012 Q1328.4219,468.2012 1329.0625,468.373 Q1329.7188,468.5293 1330.2656,468.8887 Z " fill="#000000"/><text fill="#000000" font-family="sans-serif" font-size="14" lengthAdjust="spacing" textLength="48" x="1341.5" y="478.8105">Column</text><line style="stroke:#181818;stroke-width:0.5;" x1="1313.5" x2="1391.5" y1="489.0137" y2="489.0137"/><line style="stroke:#181818;stroke-width:0.5;" x1="1313.5" x2="1391.5" y1="497.0137" y2="497.0137"/></g><!--class BoardTitle--><g id="elem_BoardTitle"><rect codeLine="38" fill="#F1F1F1" height="48" id="BoardTitle" rx="2.5" ry="2.5" style="stroke:#181818;stroke-width:0.5;" width="97" x="1080" y="337.0137"/><ellipse cx="1095" cy="353.0137" fill="#ADD1B2" rx="11" ry="11" style="stroke:#181818;stroke-width:1.0;"/><path d="M1097.7656,348.8887 Q1097.9219,348.6699 1098.1094,348.5605 Q1098.2969,348.4512 1098.5156,348.4512 Q1098.8906,348.4512 1099.125,348.7168 Q1099.3594,348.9668 1099.3594,349.5762 L1099.3594,351.0293 Q1099.3594,351.6387 1099.125,351.9043 Q1098.8906,352.1699 1098.5156,352.1699 Q1098.1719,352.1699 1097.9688,351.9668 Q1097.7656,351.7793 1097.6563,351.2637 Q1097.6094,350.9043 1097.4219,350.7168 Q1097.0938,350.3418 1096.4844,350.123 Q1095.875,349.9043 1095.25,349.9043 Q1094.4844,349.9043 1093.8438,350.2324 Q1093.2188,350.5605 1092.7188,351.3105 Q1092.2344,352.0605 1092.2344,353.0918 L1092.2344,354.1855 Q1092.2344,355.4199 1093.125,356.248 Q1094.0156,357.0605 1095.6094,357.0605 Q1096.5469,357.0605 1097.2031,356.8105 Q1097.5938,356.6543 1098.0156,356.2168 Q1098.2813,355.9512 1098.4219,355.873 Q1098.5781,355.7949 1098.7813,355.7949 Q1099.1094,355.7949 1099.3594,356.0605 Q1099.625,356.3105 1099.625,356.6543 Q1099.625,356.998 1099.2813,357.4043 Q1098.7813,357.9824 1097.9844,358.3105 Q1096.9063,358.7637 1095.6094,358.7637 Q1094.0938,358.7637 1092.8906,358.1387 Q1091.9063,357.6387 1091.2188,356.5762 Q1090.5313,355.498 1090.5313,354.2168 L1090.5313,353.0605 Q1090.5313,351.7324 1091.1406,350.5918 Q1091.7656,349.4355 1092.8594,348.8262 Q1093.9531,348.2012 1095.1875,348.2012 Q1095.9219,348.2012 1096.5625,348.373 Q1097.2188,348.5293 1097.7656,348.8887 Z " fill="#000000"/><text fill="#000000" font-family="sans-serif" font-size="14" lengthAdjust="spacing" textLength="65" x="1109" y="358.8105">BoardTitle</text><line style="stroke:#181818;stroke-width:0.5;" x1="1081" x2="1176" y1="369.0137" y2="369.0137"/><line style="stroke:#181818;stroke-width:0.5;" x1="1081" x2="1176" y1="377.0137" y2="377.0137"/></g><!--class BoardState--><g id="elem_BoardState"><rect codeLine="40" fill="#F1F1F1" height="48" id="BoardState" rx="2.5" ry="2.5" style="stroke:#181818;stroke-width:0.5;" width="103" x="1077" y="254.0137"/><ellipse cx="1092" cy="270.0137" fill="#EB937F" rx="11" ry="11" style="stroke:#181818;stroke-width:1.0;"/><path d="M1090.8594,270.8105 L1090.8594,273.3105 L1095.1875,273.3105 L1095.1875,272.3887 Q1095.1875,271.7793 1095.4219,271.5137 Q1095.6719,271.248 1096.0469,271.248 Q1096.4219,271.248 1096.6563,271.5137 Q1096.8906,271.7793 1096.8906,272.3887 L1096.8906,275.0137 L1088.8906,275.0137 Q1088.2656,275.0137 1088,274.7793 Q1087.75,274.5449 1087.75,274.1543 Q1087.75,273.7793 1088.0156,273.5449 Q1088.2813,273.3105 1088.8906,273.3105 L1089.1563,273.3105 L1089.1563,266.6543 L1088.8906,266.6543 Q1088.2656,266.6543 1088,266.4199 Q1087.75,266.1855 1087.75,265.7949 Q1087.75,265.4199 1088,265.1855 Q1088.2656,264.9512 1088.8906,264.9512 L1096.5156,264.9512 L1096.5156,267.5449 Q1096.5156,268.1543 1096.2813,268.4199 Q1096.0625,268.6699 1095.6719,268.6699 Q1095.2969,268.6699 1095.0625,268.4199 Q1094.8281,268.1543 1094.8281,267.5449 L1094.8281,266.6543 L1090.8594,266.6543 L1090.8594,269.1074 L1092.3438,269.1074 Q1092.3438,268.4512 1092.4688,268.2637 Q1092.7344,267.8574 1093.2031,267.8574 Q1093.5781,267.8574 1093.8125,268.123 Q1094.0469,268.373 1094.0469,268.9824 L1094.0469,270.9512 Q1094.0469,271.498 1093.9219,271.6855 Q1093.6563,272.0762 1093.2031,272.0762 Q1092.7344,272.0762 1092.4688,271.6699 Q1092.3438,271.4824 1092.3438,270.8105 L1090.8594,270.8105 Z " fill="#000000"/><text fill="#000000" font-family="sans-serif" font-size="14" lengthAdjust="spacing" textLength="71" x="1106" y="275.8105">BoardState</text><line style="stroke:#181818;stroke-width:0.5;" x1="1078" x2="1179" y1="286.0137" y2="286.0137"/><line style="stroke:#181818;stroke-width:0.5;" x1="1078" x2="1179" y1="294.0137" y2="294.0137"/></g><!--class BoardLog--><g id="elem_BoardLog"><rect codeLine="42" fill="#F1F1F1" height="48" id="BoardLog" rx="2.5" ry="2.5" style="stroke:#181818;stroke-width:0.5;" width="94" x="1081.5" y="171.0137"/><ellipse cx="1096.5" cy="187.0137" fill="#ADD1B2" rx="11" ry="11" style="stroke:#181818;stroke-width:1.0;"/><path d="M1099.2656,182.8887 Q1099.4219,182.6699 1099.6094,182.5605 Q1099.7969,182.4512 1100.0156,182.4512 Q1100.3906,182.4512 1100.625,182.7168 Q1100.8594,182.9668 1100.8594,183.5762 L1100.8594,185.0293 Q1100.8594,185.6387 1100.625,185.9043 Q1100.3906,186.1699 1100.0156,186.1699 Q1099.6719,186.1699 1099.4688,185.9668 Q1099.2656,185.7793 1099.1563,185.2637 Q1099.1094,184.9043 1098.9219,184.7168 Q1098.5938,184.3418 1097.9844,184.123 Q1097.375,183.9043 1096.75,183.9043 Q1095.9844,183.9043 1095.3438,184.2324 Q1094.7188,184.5605 1094.2188,185.3105 Q1093.7344,186.0605 1093.7344,187.0918 L1093.7344,188.1855 Q1093.7344,189.4199 1094.625,190.248 Q1095.5156,191.0605 1097.1094,191.0605 Q1098.0469,191.0605 1098.7031,190.8105 Q1099.0938,190.6543 1099.5156,190.2168 Q1099.7813,189.9512 1099.9219,189.873 Q1100.0781,189.7949 1100.2813,189.7949 Q1100.6094,189.7949 1100.8594,190.0605 Q1101.125,190.3105 1101.125,190.6543 Q1101.125,190.998 1100.7813,191.4043 Q1100.2813,191.9824 1099.4844,192.3105 Q1098.4063,192.7637 1097.1094,192.7637 Q1095.5938,192.7637 1094.3906,192.1387 Q1093.4063,191.6387 1092.7188,190.5762 Q1092.0313,189.498 1092.0313,188.2168 L1092.0313,187.0605 Q1092.0313,185.7324 1092.6406,184.5918 Q1093.2656,183.4355 1094.3594,182.8262 Q1095.4531,182.2012 1096.6875,182.2012 Q1097.4219,182.2012 1098.0625,182.373 Q1098.7188,182.5293 1099.2656,182.8887 Z " fill="#000000"/><text fill="#000000" font-family="sans-serif" font-size="14" lengthAdjust="spacing" textLength="62" x="1110.5" y="192.8105">BoardLog</text><line style="stroke:#181818;stroke-width:0.5;" x1="1082.5" x2="1174.5" y1="203.0137" y2="203.0137"/><line style="stroke:#181818;stroke-width:0.5;" x1="1082.5" x2="1174.5" y1="211.0137" y2="211.0137"/></g><!--class BoardLogTimestamp--><g id="elem_BoardLogTimestamp"><rect codeLine="44" fill="#F1F1F1" height="48" id="BoardLogTimestamp" rx="2.5" ry="2.5" style="stroke:#181818;stroke-width:0.5;" width="163" x="1271" y="337.0137"/><ellipse cx="1286" cy="353.0137" fill="#ADD1B2" rx="11" ry="11" style="stroke:#181818;stroke-width:1.0;"/><path d="M1288.7656,348.8887 Q1288.9219,348.6699 1289.1094,348.5605 Q1289.2969,348.4512 1289.5156,348.4512 Q1289.8906,348.4512 1290.125,348.7168 Q1290.3594,348.9668 1290.3594,349.5762 L1290.3594,351.0293 Q1290.3594,351.6387 1290.125,351.9043 Q1289.8906,352.1699 1289.5156,352.1699 Q1289.1719,352.1699 1288.9688,351.9668 Q1288.7656,351.7793 1288.6563,351.2637 Q1288.6094,350.9043 1288.4219,350.7168 Q1288.0938,350.3418 1287.4844,350.123 Q1286.875,349.9043 1286.25,349.9043 Q1285.4844,349.9043 1284.8438,350.2324 Q1284.2188,350.5605 1283.7188,351.3105 Q1283.2344,352.0605 1283.2344,353.0918 L1283.2344,354.1855 Q1283.2344,355.4199 1284.125,356.248 Q1285.0156,357.0605 1286.6094,357.0605 Q1287.5469,357.0605 1288.2031,356.8105 Q1288.5938,356.6543 1289.0156,356.2168 Q1289.2813,355.9512 1289.4219,355.873 Q1289.5781,355.7949 1289.7813,355.7949 Q1290.1094,355.7949 1290.3594,356.0605 Q1290.625,356.3105 1290.625,356.6543 Q1290.625,356.998 1290.2813,357.4043 Q1289.7813,357.9824 1288.9844,358.3105 Q1287.9063,358.7637 1286.6094,358.7637 Q1285.0938,358.7637 1283.8906,358.1387 Q1282.9063,357.6387 1282.2188,356.5762 Q1281.5313,355.498 1281.5313,354.2168 L1281.5313,353.0605 Q1281.5313,351.7324 1282.1406,350.5918 Q1282.7656,349.4355 1283.8594,348.8262 Q1284.9531,348.2012 1286.1875,348.2012 Q1286.9219,348.2012 1287.5625,348.373 Q1288.2188,348.5293 1288.7656,348.8887 Z " fill="#000000"/><text fill="#000000" font-family="sans-serif" font-size="14" lengthAdjust="spacing" textLength="131" x="1300" y="358.8105">BoardLogTimestamp</text><line style="stroke:#181818;stroke-width:0.5;" x1="1272" x2="1433" y1="369.0137" y2="369.0137"/><line style="stroke:#181818;stroke-width:0.5;" x1="1272" x2="1433" y1="377.0137" y2="377.0137"/></g><!--class BoardLogComponent--><g id="elem_BoardLogComponent"><rect codeLine="46" fill="#F1F1F1" height="48" id="BoardLogComponent" rx="2.5" ry="2.5" style="stroke:#181818;stroke-width:0.5;" width="167" x="1269" y="254.0137"/><ellipse cx="1284" cy="270.0137" fill="#ADD1B2" rx="11" ry="11" style="stroke:#181818;stroke-width:1.0;"/><path d="M1286.7656,265.8887 Q1286.9219,265.6699 1287.1094,265.5605 Q1287.2969,265.4512 1287.5156,265.4512 Q1287.8906,265.4512 1288.125,265.7168 Q1288.3594,265.9668 1288.3594,266.5762 L1288.3594,268.0293 Q1288.3594,268.6387 1288.125,268.9043 Q1287.8906,269.1699 1287.5156,269.1699 Q1287.1719,269.1699 1286.9688,268.9668 Q1286.7656,268.7793 1286.6563,268.2637 Q1286.6094,267.9043 1286.4219,267.7168 Q1286.0938,267.3418 1285.4844,267.123 Q1284.875,266.9043 1284.25,266.9043 Q1283.4844,266.9043 1282.8438,267.2324 Q1282.2188,267.5605 1281.7188,268.3105 Q1281.2344,269.0605 1281.2344,270.0918 L1281.2344,271.1855 Q1281.2344,272.4199 1282.125,273.248 Q1283.0156,274.0605 1284.6094,274.0605 Q1285.5469,274.0605 1286.2031,273.8105 Q1286.5938,273.6543 1287.0156,273.2168 Q1287.2813,272.9512 1287.4219,272.873 Q1287.5781,272.7949 1287.7813,272.7949 Q1288.1094,272.7949 1288.3594,273.0605 Q1288.625,273.3105 1288.625,273.6543 Q1288.625,273.998 1288.2813,274.4043 Q1287.7813,274.9824 1286.9844,275.3105 Q1285.9063,275.7637 1284.6094,275.7637 Q1283.0938,275.7637 1281.8906,275.1387 Q1280.9063,274.6387 1280.2188,273.5762 Q1279.5313,272.498 1279.5313,271.2168 L1279.5313,270.0605 Q1279.5313,268.7324 1280.1406,267.5918 Q1280.7656,266.4355 1281.8594,265.8262 Q1282.9531,265.2012 1284.1875,265.2012 Q1284.9219,265.2012 1285.5625,265.373 Q1286.2188,265.5293 1286.7656,265.8887 Z " fill="#000000"/><text fill="#000000" font-family="sans-serif" font-size="14" lengthAdjust="spacing" textLength="135" x="1298" y="275.8105">BoardLogComponent</text><line style="stroke:#181818;stroke-width:0.5;" x1="1270" x2="1435" y1="286.0137" y2="286.0137"/><line style="stroke:#181818;stroke-width:0.5;" x1="1270" x2="1435" y1="294.0137" y2="294.0137"/></g><!--class BoardLogOperationType--><g id="elem_BoardLogOperationType"><rect codeLine="48" fill="#F1F1F1" height="48" id="BoardLogOperationType" rx="2.5" ry="2.5" style="stroke:#181818;stroke-width:0.5;" width="189" x="1258" y="171.0137"/><ellipse cx="1273" cy="187.0137" fill="#EB937F" rx="11" ry="11" style="stroke:#181818;stroke-width:1.0;"/><path d="M1271.8594,187.8105 L1271.8594,190.3105 L1276.1875,190.3105 L1276.1875,189.3887 Q1276.1875,188.7793 1276.4219,188.5137 Q1276.6719,188.248 1277.0469,188.248 Q1277.4219,188.248 1277.6563,188.5137 Q1277.8906,188.7793 1277.8906,189.3887 L1277.8906,192.0137 L1269.8906,192.0137 Q1269.2656,192.0137 1269,191.7793 Q1268.75,191.5449 1268.75,191.1543 Q1268.75,190.7793 1269.0156,190.5449 Q1269.2813,190.3105 1269.8906,190.3105 L1270.1563,190.3105 L1270.1563,183.6543 L1269.8906,183.6543 Q1269.2656,183.6543 1269,183.4199 Q1268.75,183.1855 1268.75,182.7949 Q1268.75,182.4199 1269,182.1855 Q1269.2656,181.9512 1269.8906,181.9512 L1277.5156,181.9512 L1277.5156,184.5449 Q1277.5156,185.1543 1277.2813,185.4199 Q1277.0625,185.6699 1276.6719,185.6699 Q1276.2969,185.6699 1276.0625,185.4199 Q1275.8281,185.1543 1275.8281,184.5449 L1275.8281,183.6543 L1271.8594,183.6543 L1271.8594,186.1074 L1273.3438,186.1074 Q1273.3438,185.4512 1273.4688,185.2637 Q1273.7344,184.8574 1274.2031,184.8574 Q1274.5781,184.8574 1274.8125,185.123 Q1275.0469,185.373 1275.0469,185.9824 L1275.0469,187.9512 Q1275.0469,188.498 1274.9219,188.6855 Q1274.6563,189.0762 1274.2031,189.0762 Q1273.7344,189.0762 1273.4688,188.6699 Q1273.3438,188.4824 1273.3438,187.8105 L1271.8594,187.8105 Z " fill="#000000"/><text fill="#000000" font-family="sans-serif" font-size="14" lengthAdjust="spacing" textLength="157" x="1287" y="192.8105">BoardLogOperationType</text><line style="stroke:#181818;stroke-width:0.5;" x1="1259" x2="1446" y1="203.0137" y2="203.0137"/><line style="stroke:#181818;stroke-width:0.5;" x1="1259" x2="1446" y1="211.0137" y2="211.0137"/></g><!--class BoardPermission--><g id="elem_BoardPermission"><rect codeLine="50" fill="#F1F1F1" height="48" id="BoardPermission" rx="2.5" ry="2.5" style="stroke:#181818;stroke-width:0.5;" width="139" x="1059" y="88.0137"/><ellipse cx="1074" cy="104.0137" fill="#ADD1B2" rx="11" ry="11" style="stroke:#181818;stroke-width:1.0;"/><path d="M1076.7656,99.8887 Q1076.9219,99.6699 1077.1094,99.5605 Q1077.2969,99.4512 1077.5156,99.4512 Q1077.8906,99.4512 1078.125,99.7168 Q1078.3594,99.9668 1078.3594,100.5762 L1078.3594,102.0293 Q1078.3594,102.6387 1078.125,102.9043 Q1077.8906,103.1699 1077.5156,103.1699 Q1077.1719,103.1699 1076.9688,102.9668 Q1076.7656,102.7793 1076.6563,102.2637 Q1076.6094,101.9043 1076.4219,101.7168 Q1076.0938,101.3418 1075.4844,101.123 Q1074.875,100.9043 1074.25,100.9043 Q1073.4844,100.9043 1072.8438,101.2324 Q1072.2188,101.5605 1071.7188,102.3105 Q1071.2344,103.0605 1071.2344,104.0918 L1071.2344,105.1855 Q1071.2344,106.4199 1072.125,107.248 Q1073.0156,108.0605 1074.6094,108.0605 Q1075.5469,108.0605 1076.2031,107.8105 Q1076.5938,107.6543 1077.0156,107.2168 Q1077.2813,106.9512 1077.4219,106.873 Q1077.5781,106.7949 1077.7813,106.7949 Q1078.1094,106.7949 1078.3594,107.0605 Q1078.625,107.3105 1078.625,107.6543 Q1078.625,107.998 1078.2813,108.4043 Q1077.7813,108.9824 1076.9844,109.3105 Q1075.9063,109.7637 1074.6094,109.7637 Q1073.0938,109.7637 1071.8906,109.1387 Q1070.9063,108.6387 1070.2188,107.5762 Q1069.5313,106.498 1069.5313,105.2168 L1069.5313,104.0605 Q1069.5313,102.7324 1070.1406,101.5918 Q1070.7656,100.4355 1071.8594,99.8262 Q1072.9531,99.2012 1074.1875,99.2012 Q1074.9219,99.2012 1075.5625,99.373 Q1076.2188,99.5293 1076.7656,99.8887 Z " fill="#000000"/><text fill="#000000" font-family="sans-serif" font-size="14" lengthAdjust="spacing" textLength="107" x="1088" y="109.8105">BoardPermission</text><line style="stroke:#181818;stroke-width:0.5;" x1="1060" x2="1197" y1="120.0137" y2="120.0137"/><line style="stroke:#181818;stroke-width:0.5;" x1="1060" x2="1197" y1="128.0137" y2="128.0137"/></g><!--class BoardPermissionType--><g id="elem_BoardPermissionType"><rect codeLine="52" fill="#F1F1F1" height="48" id="BoardPermissionType" rx="2.5" ry="2.5" style="stroke:#181818;stroke-width:0.5;" width="171" x="1267" y="88.0137"/><ellipse cx="1282" cy="104.0137" fill="#EB937F" rx="11" ry="11" style="stroke:#181818;stroke-width:1.0;"/><path d="M1280.8594,104.8105 L1280.8594,107.3105 L1285.1875,107.3105 L1285.1875,106.3887 Q1285.1875,105.7793 1285.4219,105.5137 Q1285.6719,105.248 1286.0469,105.248 Q1286.4219,105.248 1286.6563,105.5137 Q1286.8906,105.7793 1286.8906,106.3887 L1286.8906,109.0137 L1278.8906,109.0137 Q1278.2656,109.0137 1278,108.7793 Q1277.75,108.5449 1277.75,108.1543 Q1277.75,107.7793 1278.0156,107.5449 Q1278.2813,107.3105 1278.8906,107.3105 L1279.1563,107.3105 L1279.1563,100.6543 L1278.8906,100.6543 Q1278.2656,100.6543 1278,100.4199 Q1277.75,100.1855 1277.75,99.7949 Q1277.75,99.4199 1278,99.1855 Q1278.2656,98.9512 1278.8906,98.9512 L1286.5156,98.9512 L1286.5156,101.5449 Q1286.5156,102.1543 1286.2813,102.4199 Q1286.0625,102.6699 1285.6719,102.6699 Q1285.2969,102.6699 1285.0625,102.4199 Q1284.8281,102.1543 1284.8281,101.5449 L1284.8281,100.6543 L1280.8594,100.6543 L1280.8594,103.1074 L1282.3438,103.1074 Q1282.3438,102.4512 1282.4688,102.2637 Q1282.7344,101.8574 1283.2031,101.8574 Q1283.5781,101.8574 1283.8125,102.123 Q1284.0469,102.373 1284.0469,102.9824 L1284.0469,104.9512 Q1284.0469,105.498 1283.9219,105.6855 Q1283.6563,106.0762 1283.2031,106.0762 Q1282.7344,106.0762 1282.4688,105.6699 Q1282.3438,105.4824 1282.3438,104.8105 L1280.8594,104.8105 Z " fill="#000000"/><text fill="#000000" font-family="sans-serif" font-size="14" lengthAdjust="spacing" textLength="139" x="1296" y="109.8105">BoardPermissionType</text><line style="stroke:#181818;stroke-width:0.5;" x1="1268" x2="1437" y1="120.0137" y2="120.0137"/><line style="stroke:#181818;stroke-width:0.5;" x1="1268" x2="1437" y1="128.0137" y2="128.0137"/></g><!--class BoardCell--><g id="elem_BoardCell"><rect codeLine="54" fill="#F1F1F1" height="48" id="BoardCell" rx="2.5" ry="2.5" style="stroke:#181818;stroke-width:0.5;" width="94" x="1081.5" y="457.0137"/><ellipse cx="1096.5" cy="473.0137" fill="#ADD1B2" rx="11" ry="11" style="stroke:#181818;stroke-width:1.0;"/><path d="M1099.2656,468.8887 Q1099.4219,468.6699 1099.6094,468.5605 Q1099.7969,468.4512 1100.0156,468.4512 Q1100.3906,468.4512 1100.625,468.7168 Q1100.8594,468.9668 1100.8594,469.5762 L1100.8594,471.0293 Q1100.8594,471.6387 1100.625,471.9043 Q1100.3906,472.1699 1100.0156,472.1699 Q1099.6719,472.1699 1099.4688,471.9668 Q1099.2656,471.7793 1099.1563,471.2637 Q1099.1094,470.9043 1098.9219,470.7168 Q1098.5938,470.3418 1097.9844,470.123 Q1097.375,469.9043 1096.75,469.9043 Q1095.9844,469.9043 1095.3438,470.2324 Q1094.7188,470.5605 1094.2188,471.3105 Q1093.7344,472.0605 1093.7344,473.0918 L1093.7344,474.1855 Q1093.7344,475.4199 1094.625,476.248 Q1095.5156,477.0605 1097.1094,477.0605 Q1098.0469,477.0605 1098.7031,476.8105 Q1099.0938,476.6543 1099.5156,476.2168 Q1099.7813,475.9512 1099.9219,475.873 Q1100.0781,475.7949 1100.2813,475.7949 Q1100.6094,475.7949 1100.8594,476.0605 Q1101.125,476.3105 1101.125,476.6543 Q1101.125,476.998 1100.7813,477.4043 Q1100.2813,477.9824 1099.4844,478.3105 Q1098.4063,478.7637 1097.1094,478.7637 Q1095.5938,478.7637 1094.3906,478.1387 Q1093.4063,477.6387 1092.7188,476.5762 Q1092.0313,475.498 1092.0313,474.2168 L1092.0313,473.0605 Q1092.0313,471.7324 1092.6406,470.5918 Q1093.2656,469.4355 1094.3594,468.8262 Q1095.4531,468.2012 1096.6875,468.2012 Q1097.4219,468.2012 1098.0625,468.373 Q1098.7188,468.5293 1099.2656,468.8887 Z " fill="#000000"/><text fill="#000000" font-family="sans-serif" font-size="14" lengthAdjust="spacing" textLength="62" x="1110.5" y="478.8105">BoardCell</text><line style="stroke:#181818;stroke-width:0.5;" x1="1082.5" x2="1174.5" y1="489.0137" y2="489.0137"/><line style="stroke:#181818;stroke-width:0.5;" x1="1082.5" x2="1174.5" y1="497.0137" y2="497.0137"/></g><!--class BoardBuilder--><g id="elem_BoardBuilder"><rect codeLine="57" fill="#F1F1F1" height="141.1055" id="BoardBuilder" rx="2.5" ry="2.5" style="stroke:#181818;stroke-width:0.5;" width="265" x="462" y="446.5137"/><ellipse cx="549.25" cy="462.5137" fill="#ADD1B2" rx="11" ry="11" style="stroke:#181818;stroke-width:1.0;"/><path d="M552.0156,458.3887 Q552.1719,458.1699 552.3594,458.0605 Q552.5469,457.9512 552.7656,457.9512 Q553.1406,457.9512 553.375,458.2168 Q553.6094,458.4668 553.6094,459.0762 L553.6094,460.5293 Q553.6094,461.1387 553.375,461.4043 Q553.1406,461.6699 552.7656,461.6699 Q552.4219,461.6699 552.2188,461.4668 Q552.0156,461.2793 551.9063,460.7637 Q551.8594,460.4043 551.6719,460.2168 Q551.3438,459.8418 550.7344,459.623 Q550.125,459.4043 549.5,459.4043 Q548.7344,459.4043 548.0938,459.7324 Q547.4688,460.0605 546.9688,460.8105 Q546.4844,461.5605 546.4844,462.5918 L546.4844,463.6855 Q546.4844,464.9199 547.375,465.748 Q548.2656,466.5605 549.8594,466.5605 Q550.7969,466.5605 551.4531,466.3105 Q551.8438,466.1543 552.2656,465.7168 Q552.5313,465.4512 552.6719,465.373 Q552.8281,465.2949 553.0313,465.2949 Q553.3594,465.2949 553.6094,465.5605 Q553.875,465.8105 553.875,466.1543 Q553.875,466.498 553.5313,466.9043 Q553.0313,467.4824 552.2344,467.8105 Q551.1563,468.2637 549.8594,468.2637 Q548.3438,468.2637 547.1406,467.6387 Q546.1563,467.1387 545.4688,466.0762 Q544.7813,464.998 544.7813,463.7168 L544.7813,462.5605 Q544.7813,461.2324 545.3906,460.0918 Q546.0156,458.9355 547.1094,458.3262 Q548.2031,457.7012 549.4375,457.7012 Q550.1719,457.7012 550.8125,457.873 Q551.4688,458.0293 552.0156,458.3887 Z " fill="#000000"/><text fill="#000000" font-family="sans-serif" font-size="14" lengthAdjust="spacing" textLength="82" x="569.75" y="468.3105">BoardBuilder</text><line style="stroke:#181818;stroke-width:0.5;" x1="463" x2="726" y1="478.5137" y2="478.5137"/><line style="stroke:#181818;stroke-width:0.5;" x1="463" x2="726" y1="486.5137" y2="486.5137"/><ellipse cx="473" cy="501.3242" fill="#84BE84" rx="3" ry="3" style="stroke:#038048;stroke-width:1.0;"/><text fill="#000000" font-family="sans-serif" font-size="14" lengthAdjust="spacing" textLength="203" x="482" y="505.6211">withBoardOwner(): BoardBuilder</text><ellipse cx="473" cy="519.9453" fill="#84BE84" rx="3" ry="3" style="stroke:#038048;stroke-width:1.0;"/><text fill="#000000" font-family="sans-serif" font-size="14" lengthAdjust="spacing" textLength="189" x="482" y="524.2422">withBoardTitle(): BoardBuilder</text><ellipse cx="473" cy="538.5664" fill="#84BE84" rx="3" ry="3" style="stroke:#038048;stroke-width:1.0;"/><text fill="#000000" font-family="sans-serif" font-size="14" lengthAdjust="spacing" textLength="218" x="482" y="542.8633">withBoardRowsList(): BoardBuilder</text><ellipse cx="473" cy="557.1875" fill="#84BE84" rx="3" ry="3" style="stroke:#038048;stroke-width:1.0;"/><text fill="#000000" font-family="sans-serif" font-size="14" lengthAdjust="spacing" textLength="239" x="482" y="561.4844">withBoardColumnsList(): BoardBuilder</text><ellipse cx="473" cy="575.8086" fill="#84BE84" rx="3" ry="3" style="stroke:#038048;stroke-width:1.0;"/><text fill="#000000" font-family="sans-serif" font-size="14" lengthAdjust="spacing" textLength="86" x="482" y="580.1055">build(): Board</text></g><!--link Board to BoardState--><g id="link_Board_BoardState"><path codeLine="69" d="M928.45,374.3437 C966.6,355.8837 1028.59,325.8837 1073.26,304.2637 " fill="none" id="Board-to-BoardState" style="stroke:#181818;stroke-width:1.0;"/><polygon fill="#181818" points="1077.8,302.0637,1067.9568,302.3978,1073.3025,304.2482,1071.452,309.5938,1077.8,302.0637" style="stroke:#181818;stroke-width:1.0;"/></g><!--link Board to BoardTitle--><g id="link_Board_BoardTitle"><path codeLine="70" d="M928.45,386.5837 C967.05,381.6237 1030.07,373.5337 1074.85,367.7737 " fill="none" id="Board-to-BoardTitle" style="stroke:#181818;stroke-width:1.0;"/><polygon fill="#181818" points="1079.95,367.1237,1070.5183,364.2876,1074.9897,367.7526,1071.5247,372.224,1079.95,367.1237" style="stroke:#181818;stroke-width:1.0;"/></g><!--link Board to BoardPermission--><g id="link_Board_BoardPermission"><path codeLine="71" d="M906.18,366.9137 C930.34,320.9137 988.13,219.2937 1059,153.0137 C1064.35,148.0137 1070.4,143.3337 1076.65,139.0537 " fill="none" id="Board-to-BoardPermission" style="stroke:#181818;stroke-width:1.0;"/><polygon fill="#181818" points="1080.99,136.1537,1071.2841,137.8254,1076.8319,138.9305,1075.7269,144.4783,1080.99,136.1537" style="stroke:#181818;stroke-width:1.0;"/></g><!--link Board to BoardLine--><g id="link_Board_BoardLine"><path codeLine="72" d="M928.13,393.4037 C1040.79,401.3837 1396.56,427.2337 1447,439.0137 C1465.37,443.3037 1484.77,450.1237 1501.95,457.0237 " fill="none" id="Board-to-BoardLine" style="stroke:#181818;stroke-width:1.0;"/><polygon fill="#181818" points="1506.74,458.9737,1499.9144,451.8736,1502.1095,457.0872,1496.896,459.2824,1506.74,458.9737" style="stroke:#181818;stroke-width:1.0;"/></g><!--link Board to BoardCell--><g id="link_Board_BoardCell"><path codeLine="73" d="M928.45,404.2937 C967.5,419.3437 1031.53,444.0237 1076.4,461.3137 " fill="none" id="Board-to-BoardCell" style="stroke:#181818;stroke-width:1.0;"/><polygon fill="#181818" points="1081.22,463.1737,1074.2601,456.2052,1076.5544,461.3759,1071.3837,463.6702,1081.22,463.1737" style="stroke:#181818;stroke-width:1.0;"/></g><!--link Board to BoardLog--><g id="link_Board_BoardLog"><path codeLine="74" d="M916.36,367.0037 C946.84,335.0037 1003.95,277.5837 1059,236.0137 C1065.41,231.1737 1072.43,226.4237 1079.46,221.9637 " fill="none" id="Board-to-BoardLog" style="stroke:#181818;stroke-width:1.0;"/><polygon fill="#181818" points="1083.83,219.2337,1074.0759,220.5969,1079.586,221.8772,1078.3057,227.3873,1083.83,219.2337" style="stroke:#181818;stroke-width:1.0;"/></g><!--link BoardBuilder to Board--><g id="link_BoardBuilder_Board"><path codeLine="75" d="M727.28,461.0137 C772.97,441.5937 820.79,421.2737 853.05,407.5637 " fill="none" id="BoardBuilder-to-Board" style="stroke:#181818;stroke-width:1.0;"/><polygon fill="#181818" points="857.7,405.5937,847.8524,405.4365,853.0991,407.5512,850.9844,412.7979,857.7,405.5937" style="stroke:#181818;stroke-width:1.0;"/></g><!--link BoardBuilder to IBoardRepository--><g id="link_BoardBuilder_IBoardRepository"><path codeLine="76" d="M710.56,587.6437 C752.31,613.2637 797.76,641.1637 832.73,662.6337 " fill="none" id="BoardBuilder-to-IBoardRepository" style="stroke:#181818;stroke-width:1.0;"/><polygon fill="#181818" points="837.38,665.4837,831.7917,657.3737,833.1154,662.8735,827.6155,664.1971,837.38,665.4837" style="stroke:#181818;stroke-width:1.0;"/></g><!--link BoardLine to BoardLineTitle--><g id="link_BoardLine_BoardLineTitle"><path codeLine="77" d="M1604.13,491.8937 C1624.31,496.5037 1648.17,501.9537 1670,506.9437 " fill="none" id="BoardLine-to-BoardLineTitle" style="stroke:#181818;stroke-width:1.0;"/><polygon fill="#181818" points="1674.92,508.0637,1667.0221,502.1796,1670.0428,506.9624,1665.26,509.9831,1674.92,508.0637" style="stroke:#181818;stroke-width:1.0;"/></g><!--link BoardLine to BoardLineNumber--><g id="link_BoardLine_BoardLineNumber"><path codeLine="78" d="M1604.13,469.8737 C1620.84,465.9637 1640.07,461.4637 1658.58,457.1237 " fill="none" id="BoardLine-to-BoardLineNumber" style="stroke:#181818;stroke-width:1.0;"/><polygon fill="#181818" points="1663.78,455.9137,1654.1094,454.0481,1658.909,457.0421,1655.915,461.8417,1663.78,455.9137" style="stroke:#181818;stroke-width:1.0;"/></g><!--link Row to BoardLine--><g id="link_Row_BoardLine"><path codeLine="79" d="M1382.3,552.1237 C1409.81,540.7637 1452.28,523.2237 1488.16,508.4037 " fill="none" id="Row-to-BoardLine" style="stroke:#181818;stroke-width:1.0;"/><polygon fill="none" points="1485.58,501.9037,1506.74,500.7337,1490.93,514.8437,1485.58,501.9037" style="stroke:#181818;stroke-width:1.0;"/></g><!--link Column to BoardLine--><g id="link_Column_BoardLine"><path codeLine="80" d="M1392.73,481.0137 C1419.41,481.0137 1455.4,481.0137 1486.66,481.0137 " fill="none" id="Column-to-BoardLine" style="stroke:#181818;stroke-width:1.0;"/><polygon fill="none" points="1486.87,474.0137,1506.87,481.0137,1486.87,488.0137,1486.87,474.0137" style="stroke:#181818;stroke-width:1.0;"/></g><!--link BoardPermission to BoardPermissionType--><g id="link_BoardPermission_BoardPermissionType"><path codeLine="81" d="M1198.22,112.0137 C1218.26,112.0137 1240.47,112.0137 1261.61,112.0137 " fill="none" id="BoardPermission-to-BoardPermissionType" style="stroke:#181818;stroke-width:1.0;"/><polygon fill="#181818" points="1266.67,112.0137,1257.67,108.0137,1261.67,112.0137,1257.67,116.0137,1266.67,112.0137" style="stroke:#181818;stroke-width:1.0;"/></g><!--link BoardLog to BoardLogTimestamp--><g id="link_BoardLog_BoardLogTimestamp"><path codeLine="82" d="M1175.55,219.0237 C1183.44,224.1137 1191.26,229.8337 1198,236.0137 C1231.55,266.7737 1222.71,290.2637 1258,319.0137 C1265.1,324.7937 1273.13,329.9537 1281.42,334.5037 " fill="none" id="BoardLog-to-BoardLogTimestamp" style="stroke:#181818;stroke-width:1.0;"/><polygon fill="#181818" points="1286.05,336.9637,1279.9755,329.2112,1281.6335,334.6196,1276.2251,336.2776,1286.05,336.9637" style="stroke:#181818;stroke-width:1.0;"/></g><!--link BoardLog to BoardLogComponent--><g id="link_BoardLog_BoardLogComponent"><path codeLine="83" d="M1175.77,212.3137 C1206.53,223.8137 1247.49,239.1237 1282.13,252.0737 " fill="none" id="BoardLog-to-BoardLogComponent" style="stroke:#181818;stroke-width:1.0;"/><polygon fill="#181818" points="1287.19,253.9737,1280.156,247.08,1282.5054,252.2259,1277.3595,254.5754,1287.19,253.9737" style="stroke:#181818;stroke-width:1.0;"/></g><!--link BoardLog to BoardLogOperationType--><g id="link_BoardLog_BoardLogOperationType"><path codeLine="84" d="M1175.77,195.0137 C1198.05,195.0137 1225.67,195.0137 1252.37,195.0137 " fill="none" id="BoardLog-to-BoardLogOperationType" style="stroke:#181818;stroke-width:1.0;"/><polygon fill="#181818" points="1257.69,195.0137,1248.69,191.0137,1252.69,195.0137,1248.69,199.0137,1257.69,195.0137" style="stroke:#181818;stroke-width:1.0;"/></g><!--link BoardCell to Row--><g id="link_BoardCell_Row"><path codeLine="85" d="M1175.77,498.3137 C1218.21,514.1837 1280.06,537.3037 1317.94,551.4637 " fill="none" id="BoardCell-to-Row" style="stroke:#181818;stroke-width:1.0;"/><polygon fill="#181818" points="1322.89,553.3137,1315.8491,546.4271,1318.2037,551.5706,1313.0601,553.9252,1322.89,553.3137" style="stroke:#181818;stroke-width:1.0;"/></g><!--link BoardCell to Column--><g id="link_BoardCell_Column"><path codeLine="86" d="M1175.77,481.0137 C1214.44,481.0137 1269.23,481.0137 1307.31,481.0137 " fill="none" id="BoardCell-to-Column" style="stroke:#181818;stroke-width:1.0;"/><polygon fill="#181818" points="1312.33,481.0137,1303.33,477.0137,1307.33,481.0137,1303.33,485.0137,1312.33,481.0137" style="stroke:#181818;stroke-width:1.0;"/></g><!--link CreateBoardController to IBoardRepository--><g id="link_CreateBoardController_IBoardRepository"><path codeLine="88" d="M402.01,594.9737 C414.07,598.1237 426.33,601.2237 438,604.0137 C554.76,631.9337 689.5,659.5537 781.67,677.7537 " fill="none" id="CreateBoardController-to-IBoardRepository" style="stroke:#181818;stroke-width:1.0;"/><polygon fill="#181818" points="786.58,678.7237,778.5107,673.0769,781.6722,677.7678,776.9813,680.9293,786.58,678.7237" style="stroke:#181818;stroke-width:1.0;"/></g><!--link CreateBoardController to BoardBuilder--><g id="link_CreateBoardController_BoardBuilder"><path codeLine="89" d="M402.32,554.1537 C419.57,550.7937 438.09,547.2037 456.55,543.6137 " fill="none" id="CreateBoardController-to-BoardBuilder" style="stroke:#181818;stroke-width:1.0;"/><polygon fill="#181818" points="461.75,542.6037,452.1501,540.4033,456.8427,543.5622,453.6838,548.2549,461.75,542.6037" style="stroke:#181818;stroke-width:1.0;"/></g><!--link CreateBoardUI to CreateBoardController--><g id="link_CreateBoardUI_CreateBoardController"><path codeLine="90" d="M147.2,571.0137 C170.2,571.0137 196.82,571.0137 221.93,571.0137 " fill="none" id="CreateBoardUI-to-CreateBoardController" style="stroke:#181818;stroke-width:1.0;"/><polygon fill="#181818" points="226.93,571.0137,217.93,567.0137,221.93,571.0137,217.93,575.0137,226.93,571.0137" style="stroke:#181818;stroke-width:1.0;"/></g><!--link IBoardRepository to Board--><g id="link_IBoardRepository_Board"><path codeLine="91" d="M893,665.3237 C893,583.7137 893,502.1037 893,420.4937 " fill="none" id="IBoardRepository-to-Board" style="stroke:#181818;stroke-width:1.0;"/><polygon fill="#181818" points="893,415.1237,889,424.1237,893,420.1237,897,424.1237,893,415.1237" style="stroke:#181818;stroke-width:1.0;"/></g><!--SRC=[ZLLBRiCW5Dnp2fQfgboWYoxYLQIegTBq0CH-SL3v2R2YAEtT2pYnCSQMBIL2CmFlmpoRmTbYAx6czSNYYceeBPK28QH8-KDgm0t5TuGVJyc8CRZGG2ni9D7LzpPY_r3xt-qzUGadmgqv2EkaA4YUF56AqPBuY7D12Ycibeo1ZbJ-UIrxqUhb3OV5E9quf0Ob3RLItwApgB2WpwG4l0r777AY4F1CHRMv7Qbbi0hLXUMoq9NaX8uB3Jln_I5Ey1qLCCU5y3FyHyDFeCU2WxocK25PmqNsf11ba0Q8XhVSbtKtC9cYhAUP8-LWBE5gMb98hgHmrid7Tegz0XqCTBofgKPyWkRK62VA7zFpCuSKm9YdSjoceQmQk_DAxINm-wi0tHdqePxGjjvQfdMtQ7RKs8NozeONx3XvS6QWaFkrjbsltoCRf62e9GNxRgUCDsoA-RQFTB96Wxvtp1XE1nhrOpM86wKw9jifGgxT3l-DisrRcg99dRdQlTFGivf1QTrOvEbk9FBqO1vGrqBi97xc8y0Xpv7FlskpxPkM3kmq_4I4MBcDQFI-xMxo7m00]--></g></svg>