<?xml version="1.0" encoding="us-ascii" standalone="no"?><svg xmlns="http://www.w3.org/2000/svg" xmlns:xlink="http://www.w3.org/1999/xlink" contentStyleType="text/css" height="1153px" preserveAspectRatio="none" style="width:1385px;height:1153px;background:#FFFFFF;" version="1.1" viewBox="0 0 1385 1153" width="1385px" zoomAndPan="magnify"><defs/><g><text fill="#000000" font-family="sans-serif" font-size="14" font-weight="bold" lengthAdjust="spacing" textLength="250" x="566.5" y="30.1074">Create a Board - Sequence Diagram</text><rect fill="#FFFFFF" height="907.1484" style="stroke:#181818;stroke-width:1.0;" width="10" x="380.5" y="137.8633"/><rect fill="#FFFFFF" height="438.0742" style="stroke:#181818;stroke-width:1.0;" width="10" x="772.5" y="566.6465"/><rect fill="#FFFFFF" height="31.291" style="stroke:#181818;stroke-width:1.0;" width="10" x="931" y="597.9375"/><rect fill="#FFFFFF" height="250.3281" style="stroke:#181818;stroke-width:1.0;" width="10" x="1059" y="660.5195"/><rect fill="#FFFFFF" height="31.291" style="stroke:#181818;stroke-width:1.0;" width="10" x="1230" y="816.9746"/><rect fill="#FFFFFF" height="31.291" style="stroke:#181818;stroke-width:1.0;" width="10" x="1230" y="942.1387"/><rect fill="none" height="126.1641" style="stroke:#000000;stroke-width:1.5;" width="498.5" x="10" y="270.0273"/><rect fill="none" height="126.1641" style="stroke:#000000;stroke-width:1.5;" width="520.5" x="10" y="410.1914"/><line style="stroke:#181818;stroke-width:0.5;stroke-dasharray:5.0,5.0;" x1="37" x2="37" y1="127.8633" y2="1054.0117"/><line style="stroke:#181818;stroke-width:0.5;stroke-dasharray:5.0,5.0;" x1="385" x2="385" y1="127.8633" y2="1054.0117"/><line style="stroke:#181818;stroke-width:0.5;stroke-dasharray:5.0,5.0;" x1="777" x2="777" y1="127.8633" y2="1054.0117"/><line style="stroke:#181818;stroke-width:0.5;stroke-dasharray:5.0,5.0;" x1="936" x2="936" y1="127.8633" y2="1054.0117"/><line style="stroke:#181818;stroke-width:0.5;stroke-dasharray:5.0,5.0;" x1="1064" x2="1064" y1="127.8633" y2="1054.0117"/><line style="stroke:#181818;stroke-width:0.5;stroke-dasharray:5.0,5.0;" x1="1235" x2="1235" y1="127.8633" y2="1054.0117"/><line style="stroke:#181818;stroke-width:0.5;stroke-dasharray:5.0,5.0;" x1="1340" x2="1340" y1="127.8633" y2="1054.0117"/><text fill="#000000" font-family="sans-serif" font-size="14" lengthAdjust="spacing" textLength="29" x="20" y="124.3496">User</text><ellipse cx="37.5" cy="57.7422" fill="#E2E2F0" rx="8" ry="8" style="stroke:#181818;stroke-width:0.5;"/><path d="M37.5,65.7422 L37.5,92.7422 M24.5,73.7422 L50.5,73.7422 M37.5,92.7422 L24.5,107.7422 M37.5,92.7422 L50.5,107.7422 " fill="none" style="stroke:#181818;stroke-width:0.5;"/><text fill="#000000" font-family="sans-serif" font-size="14" lengthAdjust="spacing" textLength="29" x="20" y="1068.1191">User</text><ellipse cx="37.5" cy="1080.1328" fill="#E2E2F0" rx="8" ry="8" style="stroke:#181818;stroke-width:0.5;"/><path d="M37.5,1088.1328 L37.5,1115.1328 M24.5,1096.1328 L50.5,1096.1328 M37.5,1115.1328 L24.5,1130.1328 M37.5,1115.1328 L50.5,1130.1328 " fill="none" style="stroke:#181818;stroke-width:0.5;"/><rect fill="#E2E2F0" height="51.2422" rx="2.5" ry="2.5" style="stroke:#181818;stroke-width:0.5;" width="107" x="332" y="75.6211"/><text fill="#000000" font-family="sans-serif" font-size="14" font-style="italic" lengthAdjust="spacing" textLength="30" x="370.5" y="97.7285">&#171;UI&#187;</text><text fill="#000000" font-family="sans-serif" font-size="14" lengthAdjust="spacing" textLength="93" x="339" y="116.3496">CreateBoardUI</text><rect fill="#E2E2F0" height="51.2422" rx="2.5" ry="2.5" style="stroke:#181818;stroke-width:0.5;" width="107" x="332" y="1053.0117"/><text fill="#000000" font-family="sans-serif" font-size="14" font-style="italic" lengthAdjust="spacing" textLength="30" x="370.5" y="1075.1191">&#171;UI&#187;</text><text fill="#000000" font-family="sans-serif" font-size="14" lengthAdjust="spacing" textLength="93" x="339" y="1093.7402">CreateBoardUI</text><rect fill="#E2E2F0" height="51.2422" rx="2.5" ry="2.5" style="stroke:#181818;stroke-width:0.5;" width="157" x="699" y="75.6211"/><text fill="#000000" font-family="sans-serif" font-size="14" font-style="italic" lengthAdjust="spacing" textLength="85" x="735" y="97.7285">&#171;Application&#187;</text><text fill="#000000" font-family="sans-serif" font-size="14" lengthAdjust="spacing" textLength="143" x="706" y="116.3496">CreateBoardController</text><rect fill="#E2E2F0" height="51.2422" rx="2.5" ry="2.5" style="stroke:#181818;stroke-width:0.5;" width="157" x="699" y="1053.0117"/><text fill="#000000" font-family="sans-serif" font-size="14" font-style="italic" lengthAdjust="spacing" textLength="85" x="735" y="1075.1191">&#171;Application&#187;</text><text fill="#000000" font-family="sans-serif" font-size="14" lengthAdjust="spacing" textLength="143" x="706" y="1093.7402">CreateBoardController</text><rect fill="#E2E2F0" height="51.2422" rx="2.5" ry="2.5" style="stroke:#181818;stroke-width:0.5;" width="140" x="866" y="75.6211"/><text fill="#000000" font-family="sans-serif" font-size="14" font-style="italic" lengthAdjust="spacing" textLength="62" x="905" y="97.7285">&#171;Service&#187;</text><text fill="#000000" font-family="sans-serif" font-size="14" lengthAdjust="spacing" textLength="126" x="873" y="116.3496">UserSessionService</text><rect fill="#E2E2F0" height="51.2422" rx="2.5" ry="2.5" style="stroke:#181818;stroke-width:0.5;" width="140" x="866" y="1053.0117"/><text fill="#000000" font-family="sans-serif" font-size="14" font-style="italic" lengthAdjust="spacing" textLength="62" x="905" y="1075.1191">&#171;Service&#187;</text><text fill="#000000" font-family="sans-serif" font-size="14" lengthAdjust="spacing" textLength="126" x="873" y="1093.7402">UserSessionService</text><rect fill="#E2E2F0" height="51.2422" rx="2.5" ry="2.5" style="stroke:#181818;stroke-width:0.5;" width="96" x="1016" y="75.6211"/><text fill="#000000" font-family="sans-serif" font-size="14" font-style="italic" lengthAdjust="spacing" textLength="64" x="1032" y="97.7285">&#171;Domain&#187;</text><text fill="#000000" font-family="sans-serif" font-size="14" lengthAdjust="spacing" textLength="82" x="1023" y="116.3496">BoardBuilder</text><rect fill="#E2E2F0" height="51.2422" rx="2.5" ry="2.5" style="stroke:#181818;stroke-width:0.5;" width="96" x="1016" y="1053.0117"/><text fill="#000000" font-family="sans-serif" font-size="14" font-style="italic" lengthAdjust="spacing" textLength="64" x="1032" y="1075.1191">&#171;Domain&#187;</text><text fill="#000000" font-family="sans-serif" font-size="14" lengthAdjust="spacing" textLength="82" x="1023" y="1093.7402">BoardBuilder</text><text fill="#000000" font-family="sans-serif" font-size="14" font-style="italic" lengthAdjust="spacing" textLength="84" x="1190" y="105.7285">&#171;Repository&#187;</text><text fill="#000000" font-family="sans-serif" font-size="14" lengthAdjust="spacing" textLength="106" x="1179" y="124.3496">BoardRepository</text><path d="M1217,54.6211 C1217,44.6211 1235,44.6211 1235,44.6211 C1235,44.6211 1253,44.6211 1253,54.6211 L1253,80.6211 C1253,90.6211 1235,90.6211 1235,90.6211 C1235,90.6211 1217,90.6211 1217,80.6211 L1217,54.6211 " fill="#E2E2F0" style="stroke:#181818;stroke-width:1.5;"/><path d="M1217,54.6211 C1217,64.6211 1235,64.6211 1235,64.6211 C1235,64.6211 1253,64.6211 1253,54.6211 " fill="none" style="stroke:#181818;stroke-width:1.5;"/><text fill="#000000" font-family="sans-serif" font-size="14" font-style="italic" lengthAdjust="spacing" textLength="84" x="1190" y="1068.1191">&#171;Repository&#187;</text><text fill="#000000" font-family="sans-serif" font-size="14" lengthAdjust="spacing" textLength="106" x="1179" y="1086.7402">BoardRepository</text><path d="M1217,1100.2539 C1217,1090.2539 1235,1090.2539 1235,1090.2539 C1235,1090.2539 1253,1090.2539 1253,1100.2539 L1253,1126.2539 C1253,1136.2539 1235,1136.2539 1235,1136.2539 C1235,1136.2539 1217,1136.2539 1217,1126.2539 L1217,1100.2539 " fill="#E2E2F0" style="stroke:#181818;stroke-width:1.5;"/><path d="M1217,1100.2539 C1217,1110.2539 1235,1110.2539 1235,1110.2539 C1235,1110.2539 1253,1110.2539 1253,1100.2539 " fill="none" style="stroke:#181818;stroke-width:1.5;"/><rect fill="#E2E2F0" height="51.2422" rx="2.5" ry="2.5" style="stroke:#181818;stroke-width:0.5;" width="78" x="1301" y="75.6211"/><text fill="#000000" font-family="sans-serif" font-size="14" font-style="italic" lengthAdjust="spacing" textLength="64" x="1308" y="97.7285">&#171;Domain&#187;</text><text fill="#000000" font-family="sans-serif" font-size="14" lengthAdjust="spacing" textLength="38" x="1321" y="116.3496">Board</text><rect fill="#E2E2F0" height="51.2422" rx="2.5" ry="2.5" style="stroke:#181818;stroke-width:0.5;" width="78" x="1301" y="1053.0117"/><text fill="#000000" font-family="sans-serif" font-size="14" font-style="italic" lengthAdjust="spacing" textLength="64" x="1308" y="1075.1191">&#171;Domain&#187;</text><text fill="#000000" font-family="sans-serif" font-size="14" lengthAdjust="spacing" textLength="38" x="1321" y="1093.7402">Board</text><rect fill="#FFFFFF" height="907.1484" style="stroke:#181818;stroke-width:1.0;" width="10" x="380.5" y="137.8633"/><rect fill="#FFFFFF" height="438.0742" style="stroke:#181818;stroke-width:1.0;" width="10" x="772.5" y="566.6465"/><rect fill="#FFFFFF" height="31.291" style="stroke:#181818;stroke-width:1.0;" width="10" x="931" y="597.9375"/><rect fill="#FFFFFF" height="250.3281" style="stroke:#181818;stroke-width:1.0;" width="10" x="1059" y="660.5195"/><rect fill="#FFFFFF" height="31.291" style="stroke:#181818;stroke-width:1.0;" width="10" x="1230" y="816.9746"/><rect fill="#FFFFFF" height="31.291" style="stroke:#181818;stroke-width:1.0;" width="10" x="1230" y="942.1387"/><polygon fill="#181818" points="368.5,157.1543,378.5,161.1543,368.5,165.1543,372.5,161.1543" style="stroke:#181818;stroke-width:1.0;"/><line style="stroke:#181818;stroke-width:1.0;stroke-dasharray:2.0,2.0;" x1="37.5" x2="374.5" y1="161.1543" y2="161.1543"/><text fill="#000000" font-family="sans-serif" font-size="13" font-weight="bold" lengthAdjust="spacing" textLength="7" x="44.5" y="155.8916">1</text><text fill="#000000" font-family="sans-serif" font-size="13" lengthAdjust="spacing" textLength="130" x="55.5" y="155.8916">asks to create a board</text><polygon fill="#181818" points="765.5,188.4453,775.5,192.4453,765.5,196.4453,769.5,192.4453" style="stroke:#181818;stroke-width:1.0;"/><line style="stroke:#181818;stroke-width:1.0;stroke-dasharray:2.0,2.0;" x1="390.5" x2="771.5" y1="192.4453" y2="192.4453"/><text fill="#000000" font-family="sans-serif" font-size="13" font-weight="bold" lengthAdjust="spacing" textLength="7" x="397.5" y="187.1826">2</text><text fill="#000000" font-family="sans-serif" font-size="13" lengthAdjust="spacing" textLength="158" x="408.5" y="187.1826">create(userSessionService)</text><polygon fill="#181818" points="48.5,219.7363,38.5,223.7363,48.5,227.7363,44.5,223.7363" style="stroke:#181818;stroke-width:1.0;"/><line style="stroke:#181818;stroke-width:1.0;stroke-dasharray:2.0,2.0;" x1="42.5" x2="379.5" y1="223.7363" y2="223.7363"/><text fill="#000000" font-family="sans-serif" font-size="13" font-weight="bold" lengthAdjust="spacing" textLength="7" x="54.5" y="218.4736">3</text><text fill="#000000" font-family="sans-serif" font-size="13" lengthAdjust="spacing" textLength="177" x="65.5" y="218.4736">Asks for board necessary data</text><polygon fill="#181818" points="368.5,251.0273,378.5,255.0273,368.5,259.0273,372.5,255.0273" style="stroke:#181818;stroke-width:1.0;"/><line style="stroke:#181818;stroke-width:1.0;stroke-dasharray:2.0,2.0;" x1="37.5" x2="374.5" y1="255.0273" y2="255.0273"/><text fill="#000000" font-family="sans-serif" font-size="13" font-weight="bold" lengthAdjust="spacing" textLength="7" x="44.5" y="249.7646">4</text><text fill="#000000" font-family="sans-serif" font-size="13" lengthAdjust="spacing" textLength="308" x="55.5" y="249.7646">enters data (boardTitle, numOfRows, numOfColumns)</text><path d="M10,270.0273 L83,270.0273 L83,279.3184 L73,289.3184 L10,289.3184 L10,270.0273 " fill="#EEEEEE" style="stroke:#000000;stroke-width:1.5;"/><rect fill="none" height="126.1641" style="stroke:#000000;stroke-width:1.5;" width="498.5" x="10" y="270.0273"/><text fill="#000000" font-family="sans-serif" font-size="13" font-weight="bold" lengthAdjust="spacing" textLength="28" x="25" y="285.0557">loop</text><text fill="#000000" font-family="sans-serif" font-size="11" font-weight="bold" lengthAdjust="spacing" textLength="199" x="98" y="283.8975">[while rows aren't completely filled]</text><polygon fill="#181818" points="48.5,308.6094,38.5,312.6094,48.5,316.6094,44.5,312.6094" style="stroke:#181818;stroke-width:1.0;"/><line style="stroke:#181818;stroke-width:1.0;stroke-dasharray:2.0,2.0;" x1="42.5" x2="379.5" y1="312.6094" y2="312.6094"/><text fill="#000000" font-family="sans-serif" font-size="13" font-weight="bold" lengthAdjust="spacing" textLength="7" x="54.5" y="307.3467">5</text><text fill="#000000" font-family="sans-serif" font-size="13" lengthAdjust="spacing" textLength="108" x="65.5" y="307.3467">Asks for rows data</text><polygon fill="#181818" points="368.5,339.9004,378.5,343.9004,368.5,347.9004,372.5,343.9004" style="stroke:#181818;stroke-width:1.0;"/><line style="stroke:#181818;stroke-width:1.0;stroke-dasharray:2.0,2.0;" x1="37.5" x2="374.5" y1="343.9004" y2="343.9004"/><text fill="#000000" font-family="sans-serif" font-size="13" font-weight="bold" lengthAdjust="spacing" textLength="7" x="44.5" y="338.6377">6</text><text fill="#000000" font-family="sans-serif" font-size="13" lengthAdjust="spacing" textLength="121" x="55.5" y="338.6377">enters data (rowTitle)</text><line style="stroke:#181818;stroke-width:1.0;stroke-dasharray:2.0,2.0;" x1="390.5" x2="432.5" y1="375.1914" y2="375.1914"/><line style="stroke:#181818;stroke-width:1.0;stroke-dasharray:2.0,2.0;" x1="432.5" x2="432.5" y1="375.1914" y2="388.1914"/><line style="stroke:#181818;stroke-width:1.0;stroke-dasharray:2.0,2.0;" x1="391.5" x2="432.5" y1="388.1914" y2="388.1914"/><polygon fill="#181818" points="401.5,384.1914,391.5,388.1914,401.5,392.1914,397.5,388.1914" style="stroke:#181818;stroke-width:1.0;"/><text fill="#000000" font-family="sans-serif" font-size="13" font-weight="bold" lengthAdjust="spacing" textLength="7" x="397.5" y="369.9287">7</text><text fill="#000000" font-family="sans-serif" font-size="13" lengthAdjust="spacing" textLength="88" x="408.5" y="369.9287">add to rows list</text><path d="M10,410.1914 L83,410.1914 L83,419.4824 L73,429.4824 L10,429.4824 L10,410.1914 " fill="#EEEEEE" style="stroke:#000000;stroke-width:1.5;"/><rect fill="none" height="126.1641" style="stroke:#000000;stroke-width:1.5;" width="520.5" x="10" y="410.1914"/><text fill="#000000" font-family="sans-serif" font-size="13" font-weight="bold" lengthAdjust="spacing" textLength="28" x="25" y="425.2197">loop</text><text fill="#000000" font-family="sans-serif" font-size="11" font-weight="bold" lengthAdjust="spacing" textLength="218" x="98" y="424.0615">[while columns aren't completely filled]</text><polygon fill="#181818" points="48.5,448.7734,38.5,452.7734,48.5,456.7734,44.5,452.7734" style="stroke:#181818;stroke-width:1.0;"/><line style="stroke:#181818;stroke-width:1.0;stroke-dasharray:2.0,2.0;" x1="42.5" x2="379.5" y1="452.7734" y2="452.7734"/><text fill="#000000" font-family="sans-serif" font-size="13" font-weight="bold" lengthAdjust="spacing" textLength="7" x="54.5" y="447.5107">8</text><text fill="#000000" font-family="sans-serif" font-size="13" lengthAdjust="spacing" textLength="130" x="65.5" y="447.5107">Asks for columns data</text><polygon fill="#181818" points="368.5,480.0645,378.5,484.0645,368.5,488.0645,372.5,484.0645" style="stroke:#181818;stroke-width:1.0;"/><line style="stroke:#181818;stroke-width:1.0;stroke-dasharray:2.0,2.0;" x1="37.5" x2="374.5" y1="484.0645" y2="484.0645"/><text fill="#000000" font-family="sans-serif" font-size="13" font-weight="bold" lengthAdjust="spacing" textLength="7" x="44.5" y="478.8018">9</text><text fill="#000000" font-family="sans-serif" font-size="13" lengthAdjust="spacing" textLength="143" x="55.5" y="478.8018">enters data (columnTitle)</text><line style="stroke:#181818;stroke-width:1.0;stroke-dasharray:2.0,2.0;" x1="390.5" x2="432.5" y1="515.3555" y2="515.3555"/><line style="stroke:#181818;stroke-width:1.0;stroke-dasharray:2.0,2.0;" x1="432.5" x2="432.5" y1="515.3555" y2="528.3555"/><line style="stroke:#181818;stroke-width:1.0;stroke-dasharray:2.0,2.0;" x1="391.5" x2="432.5" y1="528.3555" y2="528.3555"/><polygon fill="#181818" points="401.5,524.3555,391.5,528.3555,401.5,532.3555,397.5,528.3555" style="stroke:#181818;stroke-width:1.0;"/><text fill="#000000" font-family="sans-serif" font-size="13" font-weight="bold" lengthAdjust="spacing" textLength="14" x="397.5" y="510.0928">10</text><text fill="#000000" font-family="sans-serif" font-size="13" lengthAdjust="spacing" textLength="103" x="415.5" y="510.0928">add to column list</text><polygon fill="#181818" points="760.5,562.6465,770.5,566.6465,760.5,570.6465,764.5,566.6465" style="stroke:#181818;stroke-width:1.0;"/><line style="stroke:#181818;stroke-width:1.0;" x1="390.5" x2="766.5" y1="566.6465" y2="566.6465"/><text fill="#000000" font-family="sans-serif" font-size="13" font-weight="bold" lengthAdjust="spacing" textLength="14" x="397.5" y="561.3838">11</text><text fill="#000000" font-family="sans-serif" font-size="13" lengthAdjust="spacing" textLength="345" x="415.5" y="561.3838">createBoard(boardOwner, boardTitle, rowsList, columnsList)</text><polygon fill="#181818" points="919,593.9375,929,597.9375,919,601.9375,923,597.9375" style="stroke:#181818;stroke-width:1.0;"/><line style="stroke:#181818;stroke-width:1.0;" x1="782.5" x2="925" y1="597.9375" y2="597.9375"/><text fill="#000000" font-family="sans-serif" font-size="13" font-weight="bold" lengthAdjust="spacing" textLength="14" x="789.5" y="592.6748">12</text><text fill="#000000" font-family="sans-serif" font-size="13" lengthAdjust="spacing" textLength="95" x="807.5" y="592.6748">getLoggedUser()</text><polygon fill="#181818" points="793.5,625.2285,783.5,629.2285,793.5,633.2285,789.5,629.2285" style="stroke:#181818;stroke-width:1.0;"/><line style="stroke:#181818;stroke-width:1.0;" x1="787.5" x2="935" y1="629.2285" y2="629.2285"/><text fill="#000000" font-family="sans-serif" font-size="13" font-weight="bold" lengthAdjust="spacing" textLength="14" x="799.5" y="623.9658">13</text><text fill="#000000" font-family="sans-serif" font-size="13" lengthAdjust="spacing" textLength="75" x="817.5" y="623.9658">eCourseUser</text><polygon fill="#181818" points="1047,656.5195,1057,660.5195,1047,664.5195,1051,660.5195" style="stroke:#181818;stroke-width:1.0;"/><line style="stroke:#181818;stroke-width:1.0;" x1="782.5" x2="1053" y1="660.5195" y2="660.5195"/><text fill="#000000" font-family="sans-serif" font-size="13" font-weight="bold" lengthAdjust="spacing" textLength="14" x="789.5" y="655.2568">14</text><text fill="#000000" font-family="sans-serif" font-size="13" lengthAdjust="spacing" textLength="177" x="807.5" y="655.2568">withBoardOwner(eCourseUser)</text><polygon fill="#181818" points="1047,687.8105,1057,691.8105,1047,695.8105,1051,691.8105" style="stroke:#181818;stroke-width:1.0;"/><line style="stroke:#181818;stroke-width:1.0;" x1="782.5" x2="1053" y1="691.8105" y2="691.8105"/><text fill="#000000" font-family="sans-serif" font-size="13" font-weight="bold" lengthAdjust="spacing" textLength="14" x="789.5" y="686.5479">15</text><text fill="#000000" font-family="sans-serif" font-size="13" lengthAdjust="spacing" textLength="110" x="807.5" y="686.5479">withBoardTitle(title)</text><polygon fill="#181818" points="1047,719.1016,1057,723.1016,1047,727.1016,1051,723.1016" style="stroke:#181818;stroke-width:1.0;"/><line style="stroke:#181818;stroke-width:1.0;" x1="782.5" x2="1053" y1="723.1016" y2="723.1016"/><text fill="#000000" font-family="sans-serif" font-size="13" font-weight="bold" lengthAdjust="spacing" textLength="14" x="789.5" y="717.8389">16</text><text fill="#000000" font-family="sans-serif" font-size="13" lengthAdjust="spacing" textLength="132" x="807.5" y="717.8389">withRowsList(rowsList)</text><polygon fill="#181818" points="1047,750.3926,1057,754.3926,1047,758.3926,1051,754.3926" style="stroke:#181818;stroke-width:1.0;"/><line style="stroke:#181818;stroke-width:1.0;" x1="782.5" x2="1053" y1="754.3926" y2="754.3926"/><text fill="#000000" font-family="sans-serif" font-size="13" font-weight="bold" lengthAdjust="spacing" textLength="14" x="789.5" y="749.1299">17</text><text fill="#000000" font-family="sans-serif" font-size="13" lengthAdjust="spacing" textLength="173" x="807.5" y="749.1299">withColumnsList(columnsList)</text><polygon fill="#181818" points="1047,781.6836,1057,785.6836,1047,789.6836,1051,785.6836" style="stroke:#181818;stroke-width:1.0;"/><line style="stroke:#181818;stroke-width:1.0;" x1="782.5" x2="1053" y1="785.6836" y2="785.6836"/><text fill="#000000" font-family="sans-serif" font-size="13" font-weight="bold" lengthAdjust="spacing" textLength="14" x="789.5" y="780.4209">18</text><text fill="#000000" font-family="sans-serif" font-size="13" lengthAdjust="spacing" textLength="35" x="807.5" y="780.4209">build()</text><polygon fill="#181818" points="1218,812.9746,1228,816.9746,1218,820.9746,1222,816.9746" style="stroke:#181818;stroke-width:1.0;"/><line style="stroke:#181818;stroke-width:1.0;" x1="1069" x2="1224" y1="816.9746" y2="816.9746"/><text fill="#000000" font-family="sans-serif" font-size="13" font-weight="bold" lengthAdjust="spacing" textLength="14" x="1076" y="811.7119">19</text><text fill="#000000" font-family="sans-serif" font-size="13" lengthAdjust="spacing" textLength="124" x="1094" y="811.7119">findByTitle(boardTitle)</text><polygon fill="#181818" points="1080,844.2656,1070,848.2656,1080,852.2656,1076,848.2656" style="stroke:#181818;stroke-width:1.0;"/><line style="stroke:#181818;stroke-width:1.0;" x1="1074" x2="1234" y1="848.2656" y2="848.2656"/><text fill="#000000" font-family="sans-serif" font-size="13" font-weight="bold" lengthAdjust="spacing" textLength="14" x="1086" y="843.0029">20</text><text fill="#000000" font-family="sans-serif" font-size="13" lengthAdjust="spacing" textLength="76" x="1104" y="843.0029">returns board</text><polygon fill="#181818" points="1328,875.5566,1338,879.5566,1328,883.5566,1332,879.5566" style="stroke:#181818;stroke-width:1.0;"/><line style="stroke:#181818;stroke-width:1.0;" x1="1069" x2="1334" y1="879.5566" y2="879.5566"/><text fill="#000000" font-family="sans-serif" font-size="13" font-weight="bold" lengthAdjust="spacing" textLength="14" x="1076" y="874.2939">21</text><text fill="#000000" font-family="sans-serif" font-size="13" lengthAdjust="spacing" textLength="36" x="1094" y="874.2939">create</text><polygon fill="#181818" points="793.5,906.8477,783.5,910.8477,793.5,914.8477,789.5,910.8477" style="stroke:#181818;stroke-width:1.0;"/><line style="stroke:#181818;stroke-width:1.0;" x1="787.5" x2="1063" y1="910.8477" y2="910.8477"/><text fill="#000000" font-family="sans-serif" font-size="13" font-weight="bold" lengthAdjust="spacing" textLength="14" x="799.5" y="905.585">22</text><text fill="#000000" font-family="sans-serif" font-size="13" lengthAdjust="spacing" textLength="76" x="817.5" y="905.585">returns board</text><polygon fill="#181818" points="1218,938.1387,1228,942.1387,1218,946.1387,1222,942.1387" style="stroke:#181818;stroke-width:1.0;"/><line style="stroke:#181818;stroke-width:1.0;" x1="782.5" x2="1224" y1="942.1387" y2="942.1387"/><text fill="#000000" font-family="sans-serif" font-size="13" font-weight="bold" lengthAdjust="spacing" textLength="14" x="789.5" y="936.876">23</text><text fill="#000000" font-family="sans-serif" font-size="13" lengthAdjust="spacing" textLength="66" x="807.5" y="936.876">save(board)</text><polygon fill="#181818" points="793.5,969.4297,783.5,973.4297,793.5,977.4297,789.5,973.4297" style="stroke:#181818;stroke-width:1.0;"/><line style="stroke:#181818;stroke-width:1.0;" x1="787.5" x2="1234" y1="973.4297" y2="973.4297"/><text fill="#000000" font-family="sans-serif" font-size="13" font-weight="bold" lengthAdjust="spacing" textLength="14" x="799.5" y="968.167">24</text><text fill="#000000" font-family="sans-serif" font-size="13" lengthAdjust="spacing" textLength="93" x="817.5" y="968.167">returns success</text><polygon fill="#181818" points="401.5,1000.7207,391.5,1004.7207,401.5,1008.7207,397.5,1004.7207" style="stroke:#181818;stroke-width:1.0;"/><line style="stroke:#181818;stroke-width:1.0;" x1="395.5" x2="776.5" y1="1004.7207" y2="1004.7207"/><text fill="#000000" font-family="sans-serif" font-size="13" font-weight="bold" lengthAdjust="spacing" textLength="14" x="407.5" y="999.458">25</text><text fill="#000000" font-family="sans-serif" font-size="13" lengthAdjust="spacing" textLength="93" x="425.5" y="999.458">returns success</text><polygon fill="#181818" points="48.5,1032.0117,38.5,1036.0117,48.5,1040.0117,44.5,1036.0117" style="stroke:#181818;stroke-width:1.0;"/><line style="stroke:#181818;stroke-width:1.0;stroke-dasharray:2.0,2.0;" x1="42.5" x2="379.5" y1="1036.0117" y2="1036.0117"/><text fill="#000000" font-family="sans-serif" font-size="13" font-weight="bold" lengthAdjust="spacing" textLength="14" x="54.5" y="1030.749">26</text><text fill="#000000" font-family="sans-serif" font-size="13" lengthAdjust="spacing" textLength="90" x="72.5" y="1030.749">shows success</text><!--SRC=[bPFTRkCW48NlUOfHRzQHaXU8gaWblR5KgP9TFm2n9mcg0rx0YVBs7S1UK-T7sbp5yCtXp65mqhK8MuF28GZWMfW6Lb3YtnvLZV0knS684sEYTrhrfnqQ9cgd3LGM3GWB5Uk4SRAMdL0ENg9KqAdobm3ayFfQvPlDGt2hbJEwRT64WkcJ2j-whfMrS5AhkO9tKAArj5MYESiQutabbGqByv9m7EzbsmndSKxmkpu9wUKRuSHEM1p00Zjj9JLxZMn1xBHsLpk2gIRzA31vzW5NEQjWjThuJDP4Vbjm6ken_PrNOBJdaII5zO1a_Kt7Yn6lY7hpWdkwco042cjYXRc2xoiz6PL3OyCoP07-ydEm1BhXptsXBtRukzLjVr9smLYhTGUNewHfCRGFmg3wuw3Mfwv5X-qLzfBCDdVzX8gd9eW85gP-Ga9DumCAvQsqZg5gm3lvvQUE9l_FqbZqr5M47XkB-tDhBA3f3OuN64Oa1lvvKMYMa8Rls_mWgULepdyifkcPz5Wo7DvIIPOEw3xquO2DVnPPKbQLZ83vHE5MzyQYXrc3ASncwfoluIBTaV-pdIN5oK6SFwiCJMOkPdcVAuO0iZ69H-1soYVxbTKjllEFdU9WzDBzKh6cgL0DlqO_K_vf8mMZjpu867IzeK69ZpE9obDHSxpUuJkzzyVL_2PdicR5UV1qpyuzOTlN_fNFZCtc8t_A9tCrpZWvEVf7Dz8_]--></g></svg>