<?xml version="1.0" encoding="us-ascii" standalone="no"?><svg xmlns="http://www.w3.org/2000/svg" xmlns:xlink="http://www.w3.org/1999/xlink" contentStyleType="text/css" height="443px" preserveAspectRatio="none" style="width:904px;height:443px;background:#FFFFFF;" version="1.1" viewBox="0 0 904 443" width="904px" zoomAndPan="magnify"><defs/><g><!--cluster ui--><g id="cluster_ui"><path d="M8.5,172.0137 L22.5,172.0137 A3.75,3.75 0 0 1 25,174.5137 L32,196.6348 L161.5,196.6348 A2.5,2.5 0 0 1 164,199.1348 L164,270.5137 A2.5,2.5 0 0 1 161.5,273.0137 L8.5,273.0137 A2.5,2.5 0 0 1 6,270.5137 L6,174.5137 A2.5,2.5 0 0 1 8.5,172.0137 " fill="none" style="stroke:#000000;stroke-width:1.5;"/><line style="stroke:#000000;stroke-width:1.5;" x1="6" x2="32" y1="196.6348" y2="196.6348"/><text fill="#000000" font-family="sans-serif" font-size="14" font-weight="bold" lengthAdjust="spacing" textLength="13" x="10" y="189.1211">ui</text></g><!--cluster coursemanagement--><g id="cluster_coursemanagement"><path d="M190.5,6.0137 L330.5,6.0137 A3.75,3.75 0 0 1 333,8.5137 L340,30.6348 L894.5,30.6348 A2.5,2.5 0 0 1 897,33.1348 L897,433.5137 A2.5,2.5 0 0 1 894.5,436.0137 L190.5,436.0137 A2.5,2.5 0 0 1 188,433.5137 L188,8.5137 A2.5,2.5 0 0 1 190.5,6.0137 " fill="none" style="stroke:#000000;stroke-width:1.5;"/><line style="stroke:#000000;stroke-width:1.5;" x1="188" x2="340" y1="30.6348" y2="30.6348"/><text fill="#000000" font-family="sans-serif" font-size="14" font-weight="bold" lengthAdjust="spacing" textLength="139" x="192" y="23.1211">coursemanagement</text></g><!--cluster application--><g id="cluster_application"><path d="M214.5,51.0137 L292.5,51.0137 A3.75,3.75 0 0 1 295,53.5137 L302,75.6348 L554.5,75.6348 A2.5,2.5 0 0 1 557,78.1348 L557,409.5137 A2.5,2.5 0 0 1 554.5,412.0137 L214.5,412.0137 A2.5,2.5 0 0 1 212,409.5137 L212,53.5137 A2.5,2.5 0 0 1 214.5,51.0137 " fill="none" style="stroke:#000000;stroke-width:1.5;"/><line style="stroke:#000000;stroke-width:1.5;" x1="212" x2="302" y1="75.6348" y2="75.6348"/><text fill="#000000" font-family="sans-serif" font-size="14" font-weight="bold" lengthAdjust="spacing" textLength="77" x="216" y="68.1211">application</text></g><!--cluster repository--><g id="cluster_repository"><path d="M587.5,51.0137 L660.5,51.0137 A3.75,3.75 0 0 1 663,53.5137 L670,75.6348 L870.5,75.6348 A2.5,2.5 0 0 1 873,78.1348 L873,169.5137 A2.5,2.5 0 0 1 870.5,172.0137 L587.5,172.0137 A2.5,2.5 0 0 1 585,169.5137 L585,53.5137 A2.5,2.5 0 0 1 587.5,51.0137 " fill="none" style="stroke:#000000;stroke-width:1.5;"/><line style="stroke:#000000;stroke-width:1.5;" x1="585" x2="670" y1="75.6348" y2="75.6348"/><text fill="#000000" font-family="sans-serif" font-size="14" font-weight="bold" lengthAdjust="spacing" textLength="72" x="589" y="68.1211">repository</text></g><!--cluster domain--><g id="cluster_domain"><path d="M658,196.0137 L710,196.0137 A3.75,3.75 0 0 1 712.5,198.5137 L719.5,220.6348 L800,220.6348 A2.5,2.5 0 0 1 802.5,223.1348 L802.5,314.5137 A2.5,2.5 0 0 1 800,317.0137 L658,317.0137 A2.5,2.5 0 0 1 655.5,314.5137 L655.5,198.5137 A2.5,2.5 0 0 1 658,196.0137 " fill="none" style="stroke:#000000;stroke-width:1.5;"/><line style="stroke:#000000;stroke-width:1.5;" x1="655.5" x2="719.5" y1="220.6348" y2="220.6348"/><text fill="#000000" font-family="sans-serif" font-size="14" font-weight="bold" lengthAdjust="spacing" textLength="51" x="659.5" y="213.1211">domain</text></g><!--class CloseCourseUI--><g id="elem_CloseCourseUI"><rect codeLine="6" fill="#F1F1F1" height="48" id="CloseCourseUI" rx="2.5" ry="2.5" style="stroke:#181818;stroke-width:0.5;" width="126" x="22" y="209.0137"/><ellipse cx="37" cy="225.0137" fill="#ADD1B2" rx="11" ry="11" style="stroke:#181818;stroke-width:1.0;"/><path d="M39.7656,220.8887 Q39.9219,220.6699 40.1094,220.5605 Q40.2969,220.4512 40.5156,220.4512 Q40.8906,220.4512 41.125,220.7168 Q41.3594,220.9668 41.3594,221.5762 L41.3594,223.0293 Q41.3594,223.6387 41.125,223.9043 Q40.8906,224.1699 40.5156,224.1699 Q40.1719,224.1699 39.9688,223.9668 Q39.7656,223.7793 39.6563,223.2637 Q39.6094,222.9043 39.4219,222.7168 Q39.0938,222.3418 38.4844,222.123 Q37.875,221.9043 37.25,221.9043 Q36.4844,221.9043 35.8438,222.2324 Q35.2188,222.5605 34.7188,223.3105 Q34.2344,224.0605 34.2344,225.0918 L34.2344,226.1855 Q34.2344,227.4199 35.125,228.248 Q36.0156,229.0605 37.6094,229.0605 Q38.5469,229.0605 39.2031,228.8105 Q39.5938,228.6543 40.0156,228.2168 Q40.2813,227.9512 40.4219,227.873 Q40.5781,227.7949 40.7813,227.7949 Q41.1094,227.7949 41.3594,228.0605 Q41.625,228.3105 41.625,228.6543 Q41.625,228.998 41.2813,229.4043 Q40.7813,229.9824 39.9844,230.3105 Q38.9063,230.7637 37.6094,230.7637 Q36.0938,230.7637 34.8906,230.1387 Q33.9063,229.6387 33.2188,228.5762 Q32.5313,227.498 32.5313,226.2168 L32.5313,225.0605 Q32.5313,223.7324 33.1406,222.5918 Q33.7656,221.4355 34.8594,220.8262 Q35.9531,220.2012 37.1875,220.2012 Q37.9219,220.2012 38.5625,220.373 Q39.2188,220.5293 39.7656,220.8887 Z " fill="#000000"/><text fill="#000000" font-family="sans-serif" font-size="14" lengthAdjust="spacing" textLength="94" x="51" y="230.8105">CloseCourseUI</text><line style="stroke:#181818;stroke-width:0.5;" x1="23" x2="147" y1="241.0137" y2="241.0137"/><line style="stroke:#181818;stroke-width:0.5;" x1="23" x2="147" y1="249.0137" y2="249.0137"/></g><!--class ChangeCourseStateController--><g id="elem_ChangeCourseStateController"><rect codeLine="14" fill="#F1F1F1" height="85.2422" id="ChangeCourseStateController" rx="2.5" ry="2.5" style="stroke:#181818;stroke-width:0.5;" width="233" x="268" y="310.5137"/><ellipse cx="287.5" cy="326.5137" fill="#B4A7E5" rx="11" ry="11" style="stroke:#181818;stroke-width:1.0;"/><path d="M288.4531,323.1543 L288.4531,329.8105 L290.1719,329.8105 Q290.7813,329.8105 291.0469,330.0449 Q291.3125,330.2793 291.3125,330.6699 Q291.3125,331.0449 291.0469,331.2793 Q290.7813,331.5137 290.1719,331.5137 L285.0313,331.5137 Q284.4219,331.5137 284.1563,331.2793 Q283.8906,331.0449 283.8906,330.6543 Q283.8906,330.2793 284.1563,330.0449 Q284.4219,329.8105 285.0313,329.8105 L286.75,329.8105 L286.75,323.1543 L285.0313,323.1543 Q284.4219,323.1543 284.1563,322.9199 Q283.8906,322.6855 283.8906,322.2949 Q283.8906,321.9199 284.1563,321.6855 Q284.4219,321.4512 285.0313,321.4512 L290.1719,321.4512 Q290.7813,321.4512 291.0469,321.6855 Q291.3125,321.9199 291.3125,322.2949 Q291.3125,322.6855 291.0469,322.9199 Q290.7813,323.1543 290.1719,323.1543 L288.4531,323.1543 Z " fill="#000000"/><text fill="#000000" font-family="sans-serif" font-size="14" font-style="italic" lengthAdjust="spacing" textLength="191" x="302.5" y="332.3105">ChangeCourseStateController</text><line style="stroke:#181818;stroke-width:0.5;" x1="269" x2="500" y1="342.5137" y2="342.5137"/><line style="stroke:#181818;stroke-width:0.5;" x1="269" x2="500" y1="350.5137" y2="350.5137"/><ellipse cx="279" cy="365.3242" fill="#84BE84" rx="3" ry="3" style="stroke:#038048;stroke-width:1.0;"/><text fill="#000000" font-family="sans-serif" font-size="14" lengthAdjust="spacing" textLength="207" x="288" y="369.6211">findCourses() : Iterable&lt;Course&gt;</text><ellipse cx="279" cy="383.9453" fill="#84BE84" rx="3" ry="3" style="stroke:#038048;stroke-width:1.0;"/><text fill="#000000" font-family="sans-serif" font-size="14" lengthAdjust="spacing" textLength="179" x="288" y="388.2422">changeCourseState(course)</text></g><!--class CloseCourseController--><g id="elem_CloseCourseController"><rect codeLine="19" fill="#F1F1F1" height="85.2422" id="CloseCourseController" rx="2.5" ry="2.5" style="stroke:#181818;stroke-width:0.5;" width="233" x="268" y="190.5137"/><ellipse cx="308.65" cy="206.5137" fill="#ADD1B2" rx="11" ry="11" style="stroke:#181818;stroke-width:1.0;"/><path d="M311.4156,202.3887 Q311.5719,202.1699 311.7594,202.0605 Q311.9469,201.9512 312.1656,201.9512 Q312.5406,201.9512 312.775,202.2168 Q313.0094,202.4668 313.0094,203.0762 L313.0094,204.5293 Q313.0094,205.1387 312.775,205.4043 Q312.5406,205.6699 312.1656,205.6699 Q311.8219,205.6699 311.6188,205.4668 Q311.4156,205.2793 311.3063,204.7637 Q311.2594,204.4043 311.0719,204.2168 Q310.7438,203.8418 310.1344,203.623 Q309.525,203.4043 308.9,203.4043 Q308.1344,203.4043 307.4938,203.7324 Q306.8688,204.0605 306.3688,204.8105 Q305.8844,205.5605 305.8844,206.5918 L305.8844,207.6855 Q305.8844,208.9199 306.775,209.748 Q307.6656,210.5605 309.2594,210.5605 Q310.1969,210.5605 310.8531,210.3105 Q311.2438,210.1543 311.6656,209.7168 Q311.9313,209.4512 312.0719,209.373 Q312.2281,209.2949 312.4313,209.2949 Q312.7594,209.2949 313.0094,209.5605 Q313.275,209.8105 313.275,210.1543 Q313.275,210.498 312.9313,210.9043 Q312.4313,211.4824 311.6344,211.8105 Q310.5563,212.2637 309.2594,212.2637 Q307.7438,212.2637 306.5406,211.6387 Q305.5563,211.1387 304.8688,210.0762 Q304.1813,208.998 304.1813,207.7168 L304.1813,206.5605 Q304.1813,205.2324 304.7906,204.0918 Q305.4156,202.9355 306.5094,202.3262 Q307.6031,201.7012 308.8375,201.7012 Q309.5719,201.7012 310.2125,201.873 Q310.8688,202.0293 311.4156,202.3887 Z " fill="#000000"/><text fill="#000000" font-family="sans-serif" font-size="14" lengthAdjust="spacing" textLength="144" x="328.35" y="212.3105">CloseCourseController</text><line style="stroke:#181818;stroke-width:0.5;" x1="269" x2="500" y1="222.5137" y2="222.5137"/><line style="stroke:#181818;stroke-width:0.5;" x1="269" x2="500" y1="230.5137" y2="230.5137"/><ellipse cx="279" cy="245.3242" fill="#84BE84" rx="3" ry="3" style="stroke:#038048;stroke-width:1.0;"/><text fill="#000000" font-family="sans-serif" font-size="14" lengthAdjust="spacing" textLength="207" x="288" y="249.6211">findCourses() : Iterable&lt;Course&gt;</text><ellipse cx="279" cy="263.9453" fill="#84BE84" rx="3" ry="3" style="stroke:#038048;stroke-width:1.0;"/><text fill="#000000" font-family="sans-serif" font-size="14" lengthAdjust="spacing" textLength="179" x="288" y="268.2422">changeCourseState(course)</text></g><!--class ListCourseByStateService--><g id="elem_ListCourseByStateService"><rect codeLine="24" fill="#F1F1F1" height="66.6211" id="ListCourseByStateService" rx="2.5" ry="2.5" style="stroke:#181818;stroke-width:0.5;" width="313" x="228" y="88.5137"/><ellipse cx="298.25" cy="104.5137" fill="#ADD1B2" rx="11" ry="11" style="stroke:#181818;stroke-width:1.0;"/><path d="M301.0156,100.3887 Q301.1719,100.1699 301.3594,100.0605 Q301.5469,99.9512 301.7656,99.9512 Q302.1406,99.9512 302.375,100.2168 Q302.6094,100.4668 302.6094,101.0762 L302.6094,102.5293 Q302.6094,103.1387 302.375,103.4043 Q302.1406,103.6699 301.7656,103.6699 Q301.4219,103.6699 301.2188,103.4668 Q301.0156,103.2793 300.9063,102.7637 Q300.8594,102.4043 300.6719,102.2168 Q300.3438,101.8418 299.7344,101.623 Q299.125,101.4043 298.5,101.4043 Q297.7344,101.4043 297.0938,101.7324 Q296.4688,102.0605 295.9688,102.8105 Q295.4844,103.5605 295.4844,104.5918 L295.4844,105.6855 Q295.4844,106.9199 296.375,107.748 Q297.2656,108.5605 298.8594,108.5605 Q299.7969,108.5605 300.4531,108.3105 Q300.8438,108.1543 301.2656,107.7168 Q301.5313,107.4512 301.6719,107.373 Q301.8281,107.2949 302.0313,107.2949 Q302.3594,107.2949 302.6094,107.5605 Q302.875,107.8105 302.875,108.1543 Q302.875,108.498 302.5313,108.9043 Q302.0313,109.4824 301.2344,109.8105 Q300.1563,110.2637 298.8594,110.2637 Q297.3438,110.2637 296.1406,109.6387 Q295.1563,109.1387 294.4688,108.0762 Q293.7813,106.998 293.7813,105.7168 L293.7813,104.5605 Q293.7813,103.2324 294.3906,102.0918 Q295.0156,100.9355 296.1094,100.3262 Q297.2031,99.7012 298.4375,99.7012 Q299.1719,99.7012 299.8125,99.873 Q300.4688,100.0293 301.0156,100.3887 Z " fill="#000000"/><text fill="#000000" font-family="sans-serif" font-size="14" lengthAdjust="spacing" textLength="164" x="318.75" y="110.3105">ListCourseByStateService</text><line style="stroke:#181818;stroke-width:0.5;" x1="229" x2="540" y1="120.5137" y2="120.5137"/><line style="stroke:#181818;stroke-width:0.5;" x1="229" x2="540" y1="128.5137" y2="128.5137"/><ellipse cx="239" cy="143.3242" fill="#84BE84" rx="3" ry="3" style="stroke:#038048;stroke-width:1.0;"/><text fill="#000000" font-family="sans-serif" font-size="14" lengthAdjust="spacing" textLength="287" x="248" y="147.6211">findCoursesByState(state) : Iterable&lt;Course&gt;</text></g><!--class CourseRepository--><g id="elem_CourseRepository"><rect codeLine="30" fill="#F1F1F1" height="66.6211" id="CourseRepository" rx="2.5" ry="2.5" style="stroke:#181818;stroke-width:0.5;" width="256" x="601" y="88.5137"/><ellipse cx="667.75" cy="104.5137" fill="#B4A7E5" rx="11" ry="11" style="stroke:#181818;stroke-width:1.0;"/><path d="M668.7031,101.1543 L668.7031,107.8105 L670.4219,107.8105 Q671.0313,107.8105 671.2969,108.0449 Q671.5625,108.2793 671.5625,108.6699 Q671.5625,109.0449 671.2969,109.2793 Q671.0313,109.5137 670.4219,109.5137 L665.2813,109.5137 Q664.6719,109.5137 664.4063,109.2793 Q664.1406,109.0449 664.1406,108.6543 Q664.1406,108.2793 664.4063,108.0449 Q664.6719,107.8105 665.2813,107.8105 L667,107.8105 L667,101.1543 L665.2813,101.1543 Q664.6719,101.1543 664.4063,100.9199 Q664.1406,100.6855 664.1406,100.2949 Q664.1406,99.9199 664.4063,99.6855 Q664.6719,99.4512 665.2813,99.4512 L670.4219,99.4512 Q671.0313,99.4512 671.2969,99.6855 Q671.5625,99.9199 671.5625,100.2949 Q671.5625,100.6855 671.2969,100.9199 Q671.0313,101.1543 670.4219,101.1543 L668.7031,101.1543 Z " fill="#000000"/><text fill="#000000" font-family="sans-serif" font-size="14" font-style="italic" lengthAdjust="spacing" textLength="114" x="688.25" y="110.3105">CourseRepository</text><line style="stroke:#181818;stroke-width:0.5;" x1="602" x2="856" y1="120.5137" y2="120.5137"/><line style="stroke:#181818;stroke-width:0.5;" x1="602" x2="856" y1="128.5137" y2="128.5137"/><ellipse cx="612" cy="143.3242" fill="#84BE84" rx="3" ry="3" style="stroke:#038048;stroke-width:1.0;"/><text fill="#000000" font-family="sans-serif" font-size="14" lengthAdjust="spacing" textLength="230" x="621" y="147.6211">findByState(state): Iterable&lt;Course&gt;</text></g><!--class Course--><g id="elem_Course"><rect codeLine="36" fill="#F1F1F1" height="66.6211" id="Course" rx="2.5" ry="2.5" style="stroke:#181818;stroke-width:0.5;" width="115" x="671.5" y="233.5137"/><ellipse cx="703.15" cy="249.5137" fill="#ADD1B2" rx="11" ry="11" style="stroke:#181818;stroke-width:1.0;"/><path d="M705.9156,245.3887 Q706.0719,245.1699 706.2594,245.0605 Q706.4469,244.9512 706.6656,244.9512 Q707.0406,244.9512 707.275,245.2168 Q707.5094,245.4668 707.5094,246.0762 L707.5094,247.5293 Q707.5094,248.1387 707.275,248.4043 Q707.0406,248.6699 706.6656,248.6699 Q706.3219,248.6699 706.1188,248.4668 Q705.9156,248.2793 705.8063,247.7637 Q705.7594,247.4043 705.5719,247.2168 Q705.2438,246.8418 704.6344,246.623 Q704.025,246.4043 703.4,246.4043 Q702.6344,246.4043 701.9938,246.7324 Q701.3688,247.0605 700.8688,247.8105 Q700.3844,248.5605 700.3844,249.5918 L700.3844,250.6855 Q700.3844,251.9199 701.275,252.748 Q702.1656,253.5605 703.7594,253.5605 Q704.6969,253.5605 705.3531,253.3105 Q705.7438,253.1543 706.1656,252.7168 Q706.4313,252.4512 706.5719,252.373 Q706.7281,252.2949 706.9313,252.2949 Q707.2594,252.2949 707.5094,252.5605 Q707.775,252.8105 707.775,253.1543 Q707.775,253.498 707.4313,253.9043 Q706.9313,254.4824 706.1344,254.8105 Q705.0563,255.2637 703.7594,255.2637 Q702.2438,255.2637 701.0406,254.6387 Q700.0563,254.1387 699.3688,253.0762 Q698.6813,251.998 698.6813,250.7168 L698.6813,249.5605 Q698.6813,248.2324 699.2906,247.0918 Q699.9156,245.9355 701.0094,245.3262 Q702.1031,244.7012 703.3375,244.7012 Q704.0719,244.7012 704.7125,244.873 Q705.3688,245.0293 705.9156,245.3887 Z " fill="#000000"/><text fill="#000000" font-family="sans-serif" font-size="14" lengthAdjust="spacing" textLength="46" x="720.85" y="255.3105">Course</text><line style="stroke:#181818;stroke-width:0.5;" x1="672.5" x2="785.5" y1="265.5137" y2="265.5137"/><line style="stroke:#181818;stroke-width:0.5;" x1="672.5" x2="785.5" y1="273.5137" y2="273.5137"/><ellipse cx="682.5" cy="288.3242" fill="#84BE84" rx="3" ry="3" style="stroke:#038048;stroke-width:1.0;"/><text fill="#000000" font-family="sans-serif" font-size="14" lengthAdjust="spacing" textLength="89" x="691.5" y="292.6211">closeCourse()</text></g><!--link ChangeCourseStateController to CloseCourseController--><g id="link_ChangeCourseStateController_CloseCourseController"><path codeLine="44" d="M384.5,310.3537 C384.5,305.4737 384.5,300.5837 384.5,295.7037 " fill="none" id="ChangeCourseStateController-to-CloseCourseController" style="stroke:#181818;stroke-width:1.0;"/><polygon fill="none" points="377.5,295.6137,384.5,275.6137,391.5,295.6137,377.5,295.6137" style="stroke:#181818;stroke-width:1.0;"/></g><!--link CloseCourseUI to CloseCourseController--><g id="link_CloseCourseUI_CloseCourseController"><path codeLine="45" d="M148,233.0137 C181.17,233.0137 223.18,233.0137 262.5,233.0137 " fill="none" id="CloseCourseUI-to-CloseCourseController" style="stroke:#181818;stroke-width:1.0;"/><polygon fill="#181818" points="267.78,233.0137,258.78,229.0137,262.78,233.0137,258.78,237.0137,267.78,233.0137" style="stroke:#181818;stroke-width:1.0;"/></g><!--link ListCourseByStateService to CourseRepository--><g id="link_ListCourseByStateService_CourseRepository"><path codeLine="46" d="M541.22,122.0137 C559.47,122.0137 577.96,122.0137 595.85,122.0137 " fill="none" id="ListCourseByStateService-to-CourseRepository" style="stroke:#181818;stroke-width:1.0;"/><polygon fill="#181818" points="600.88,122.0137,591.88,118.0137,595.88,122.0137,591.88,126.0137,600.88,122.0137" style="stroke:#181818;stroke-width:1.0;"/></g><!--link CloseCourseController to Course--><g id="link_CloseCourseController_Course"><path codeLine="47" d="M501.45,244.5237 C556.58,249.9937 620.27,256.3237 666.05,260.8637 " fill="none" id="CloseCourseController-to-Course" style="stroke:#181818;stroke-width:1.0;"/><polygon fill="#181818" points="671.26,261.3837,662.7041,256.5056,666.285,260.8847,661.9058,264.4656,671.26,261.3837" style="stroke:#181818;stroke-width:1.0;"/></g><!--link CloseCourseController to ListCourseByStateService--><g id="link_CloseCourseController_ListCourseByStateService"><path codeLine="48" d="M384.5,190.0837 C384.5,180.2737 384.5,170.4637 384.5,160.6537 " fill="none" id="CloseCourseController-to-ListCourseByStateService" style="stroke:#181818;stroke-width:1.0;"/><polygon fill="#181818" points="384.5,155.5237,380.5,164.5237,384.5,160.5237,388.5,164.5237,384.5,155.5237" style="stroke:#181818;stroke-width:1.0;"/></g><!--link CourseRepository to Course--><g id="link_CourseRepository_Course"><path codeLine="49" d="M729,155.9237 C729,180.0037 729,204.0937 729,228.1737 " fill="none" id="CourseRepository-to-Course" style="stroke:#181818;stroke-width:1.0;"/><polygon fill="#181818" points="729,233.3137,733,224.3137,729,228.3137,725,224.3137,729,233.3137" style="stroke:#181818;stroke-width:1.0;"/></g><!--link CloseCourseController to CourseRepository--><g id="link_CloseCourseController_CourseRepository"><path codeLine="50" d="M501.45,195.4337 C539.62,183.0637 581.89,169.3637 619.49,157.1837 " fill="none" id="CloseCourseController-to-CourseRepository" style="stroke:#181818;stroke-width:1.0;"/><polygon fill="#181818" points="624.52,155.5537,614.725,154.5253,619.7639,157.0962,617.193,162.1351,624.52,155.5537" style="stroke:#181818;stroke-width:1.0;"/></g><!--SRC=[nLBBRiCW4Bpp5HnjLVw1gigXFaNggL4-O8lNpgeOBDXKYjh-Up5ENR-8sbEHG3RCp0xCQgnPifMEcXFBYXmg9ck441seLsXGdac-2taTIeFtijJMOsdFpkDnFpdz5CCwSbN4j632Juk60rP4p3S0kawJWhxaH8SCewj1eInFO9fhgGC3Xq_3pcgDReBlnrrDfXg0FilblTm73NZH-31ixkPejHJE1g_vv3BfM_-ZYoVoF10UBv5oGFT6uQdIHgx0pFVhJLDZWDEC77RM4rjtsOueQZnlWKOZSmT_DL3P5iYikp1ob-NKJqfPljOLOTvggk9Zjnsqc3TzKQHmoO0YPV5OOhkfHcJwF5L6hFBuXTZArXS0]--></g></svg>