<?xml version="1.0" encoding="us-ascii" standalone="no"?><svg xmlns="http://www.w3.org/2000/svg" xmlns:xlink="http://www.w3.org/1999/xlink" contentStyleType="text/css" height="467px" preserveAspectRatio="none" style="width:539px;height:467px;background:#FFFFFF;" version="1.1" viewBox="0 0 539 467" width="539px" zoomAndPan="magnify"><defs/><g><text fill="#000000" font-family="sans-serif" font-size="14" font-weight="bold" lengthAdjust="spacing" textLength="276" x="132.5" y="30.1074">Add or Update Question - Starting point</text><rect fill="#FFFFFF" height="217.668" style="stroke:#181818;stroke-width:1.0;" width="10" x="176.5" y="156.5332"/><rect fill="none" height="98.5039" style="stroke:#000000;stroke-width:1.5;" width="445" x="87" y="268.6973"/><line style="stroke:#181818;stroke-width:0.5;stroke-dasharray:5.0,5.0;" x1="34" x2="34" y1="123.2422" y2="384.2012"/><line style="stroke:#181818;stroke-width:0.5;stroke-dasharray:5.0,5.0;" x1="181" x2="181" y1="123.2422" y2="384.2012"/><line style="stroke:#181818;stroke-width:0.5;stroke-dasharray:5.0,5.0;" x1="330" x2="330" y1="123.2422" y2="384.2012"/><line style="stroke:#181818;stroke-width:0.5;stroke-dasharray:5.0,5.0;" x1="458" x2="458" y1="123.2422" y2="384.2012"/><text fill="#000000" font-family="sans-serif" font-size="14" lengthAdjust="spacing" textLength="53" x="5" y="119.7285">Teacher</text><ellipse cx="34.5" cy="53.1211" fill="#E2E2F0" rx="8" ry="8" style="stroke:#181818;stroke-width:0.5;"/><path d="M34.5,61.1211 L34.5,88.1211 M21.5,69.1211 L47.5,69.1211 M34.5,88.1211 L21.5,103.1211 M34.5,88.1211 L47.5,103.1211 " fill="none" style="stroke:#181818;stroke-width:0.5;"/><text fill="#000000" font-family="sans-serif" font-size="14" lengthAdjust="spacing" textLength="53" x="5" y="398.3086">Teacher</text><ellipse cx="34.5" cy="410.3223" fill="#E2E2F0" rx="8" ry="8" style="stroke:#181818;stroke-width:0.5;"/><path d="M34.5,418.3223 L34.5,445.3223 M21.5,426.3223 L47.5,426.3223 M34.5,445.3223 L21.5,460.3223 M34.5,445.3223 L47.5,460.3223 " fill="none" style="stroke:#181818;stroke-width:0.5;"/><rect fill="#E2E2F0" height="51.2422" rx="2.5" ry="2.5" style="stroke:#181818;stroke-width:0.5;" width="169" x="97" y="71"/><text fill="#000000" font-family="sans-serif" font-size="14" font-style="italic" lengthAdjust="spacing" textLength="27" x="168" y="93.1074">&#171;ui&#187;</text><text fill="#000000" font-family="sans-serif" font-size="14" lengthAdjust="spacing" textLength="155" x="104" y="111.7285">AddOrUpdateQuestionUI</text><rect fill="#E2E2F0" height="51.2422" rx="2.5" ry="2.5" style="stroke:#181818;stroke-width:0.5;" width="169" x="97" y="383.2012"/><text fill="#000000" font-family="sans-serif" font-size="14" font-style="italic" lengthAdjust="spacing" textLength="27" x="168" y="405.3086">&#171;ui&#187;</text><text fill="#000000" font-family="sans-serif" font-size="14" lengthAdjust="spacing" textLength="155" x="104" y="423.9297">AddOrUpdateQuestionUI</text><rect fill="#E2E2F0" height="51.2422" rx="2.5" ry="2.5" style="stroke:#181818;stroke-width:0.5;" width="108" x="276" y="71"/><text fill="#000000" font-family="sans-serif" font-size="14" font-style="italic" lengthAdjust="spacing" textLength="27" x="316.5" y="93.1074">&#171;ui&#187;</text><text fill="#000000" font-family="sans-serif" font-size="14" lengthAdjust="spacing" textLength="94" x="283" y="111.7285">AddQuestionUI</text><rect fill="#E2E2F0" height="51.2422" rx="2.5" ry="2.5" style="stroke:#181818;stroke-width:0.5;" width="108" x="276" y="383.2012"/><text fill="#000000" font-family="sans-serif" font-size="14" font-style="italic" lengthAdjust="spacing" textLength="27" x="316.5" y="405.3086">&#171;ui&#187;</text><text fill="#000000" font-family="sans-serif" font-size="14" lengthAdjust="spacing" textLength="94" x="283" y="423.9297">AddQuestionUI</text><rect fill="#E2E2F0" height="51.2422" rx="2.5" ry="2.5" style="stroke:#181818;stroke-width:0.5;" width="128" x="394" y="71"/><text fill="#000000" font-family="sans-serif" font-size="14" font-style="italic" lengthAdjust="spacing" textLength="27" x="444.5" y="93.1074">&#171;ui&#187;</text><text fill="#000000" font-family="sans-serif" font-size="14" lengthAdjust="spacing" textLength="114" x="401" y="111.7285">UpdateQuestionUI</text><rect fill="#E2E2F0" height="51.2422" rx="2.5" ry="2.5" style="stroke:#181818;stroke-width:0.5;" width="128" x="394" y="383.2012"/><text fill="#000000" font-family="sans-serif" font-size="14" font-style="italic" lengthAdjust="spacing" textLength="27" x="444.5" y="405.3086">&#171;ui&#187;</text><text fill="#000000" font-family="sans-serif" font-size="14" lengthAdjust="spacing" textLength="114" x="401" y="423.9297">UpdateQuestionUI</text><rect fill="#FFFFFF" height="217.668" style="stroke:#181818;stroke-width:1.0;" width="10" x="176.5" y="156.5332"/><polygon fill="#181818" points="164.5,152.5332,174.5,156.5332,164.5,160.5332,168.5,156.5332" style="stroke:#181818;stroke-width:1.0;"/><line style="stroke:#181818;stroke-width:1.0;" x1="0" x2="170.5" y1="156.5332" y2="156.5332"/><text fill="#000000" font-family="sans-serif" font-size="13" font-weight="bold" lengthAdjust="spacing" textLength="7" x="7" y="151.2705">1</text><text fill="#000000" font-family="sans-serif" font-size="13" lengthAdjust="spacing" textLength="42" x="18" y="151.2705">onLoad</text><polygon fill="#181818" points="45.5,218.4063,35.5,222.4063,45.5,226.4063,41.5,222.4063" style="stroke:#181818;stroke-width:1.0;"/><line style="stroke:#181818;stroke-width:1.0;stroke-dasharray:2.0,2.0;" x1="39.5" x2="175.5" y1="222.4063" y2="222.4063"/><text fill="#000000" font-family="sans-serif" font-size="13" font-weight="bold" lengthAdjust="spacing" textLength="7" x="51.5" y="199.8525">2</text><text fill="#000000" font-family="sans-serif" font-size="13" lengthAdjust="spacing" textLength="107" x="62.5" y="182.5615">asks if the teacher</text><text fill="#000000" font-family="sans-serif" font-size="13" lengthAdjust="spacing" textLength="89" x="62.5" y="199.8525">wants to add or</text><text fill="#000000" font-family="sans-serif" font-size="13" lengthAdjust="spacing" textLength="103" x="62.5" y="217.1436">update a question</text><polygon fill="#181818" points="164.5,249.6973,174.5,253.6973,164.5,257.6973,168.5,253.6973" style="stroke:#181818;stroke-width:1.0;"/><line style="stroke:#181818;stroke-width:1.0;" x1="34.5" x2="170.5" y1="253.6973" y2="253.6973"/><text fill="#000000" font-family="sans-serif" font-size="13" font-weight="bold" lengthAdjust="spacing" textLength="7" x="41.5" y="248.4346">3</text><text fill="#000000" font-family="sans-serif" font-size="13" lengthAdjust="spacing" textLength="74" x="52.5" y="248.4346">chooses one</text><path d="M87,268.6973 L148,268.6973 L148,277.9883 L138,287.9883 L87,287.9883 L87,268.6973 " fill="#EEEEEE" style="stroke:#000000;stroke-width:1.5;"/><rect fill="none" height="98.5039" style="stroke:#000000;stroke-width:1.5;" width="445" x="87" y="268.6973"/><text fill="#000000" font-family="sans-serif" font-size="13" font-weight="bold" lengthAdjust="spacing" textLength="16" x="102" y="283.7256">alt</text><text fill="#000000" font-family="sans-serif" font-size="11" font-weight="bold" lengthAdjust="spacing" textLength="117" x="163" y="282.5674">[chooses add option]</text><polygon fill="#181818" points="318,307.2793,328,311.2793,318,315.2793,322,311.2793" style="stroke:#181818;stroke-width:1.0;"/><line style="stroke:#181818;stroke-width:1.0;" x1="186.5" x2="324" y1="311.2793" y2="311.2793"/><text fill="#000000" font-family="sans-serif" font-size="13" font-weight="bold" lengthAdjust="spacing" textLength="7" x="193.5" y="306.0166">4</text><text fill="#000000" font-family="sans-serif" font-size="13" lengthAdjust="spacing" textLength="106" x="204.5" y="306.0166">create and display</text><line style="stroke:#000000;stroke-width:1.0;stroke-dasharray:2.0,2.0;" x1="87" x2="532" y1="320.2793" y2="320.2793"/><text fill="#000000" font-family="sans-serif" font-size="11" font-weight="bold" lengthAdjust="spacing" textLength="135" x="92" y="332.1494">[chooses update option]</text><polygon fill="#181818" points="446,355.2012,456,359.2012,446,363.2012,450,359.2012" style="stroke:#181818;stroke-width:1.0;"/><line style="stroke:#181818;stroke-width:1.0;" x1="186.5" x2="452" y1="359.2012" y2="359.2012"/><text fill="#000000" font-family="sans-serif" font-size="13" font-weight="bold" lengthAdjust="spacing" textLength="7" x="193.5" y="353.9385">5</text><text fill="#000000" font-family="sans-serif" font-size="13" lengthAdjust="spacing" textLength="106" x="204.5" y="353.9385">create and display</text><!--SRC=[TP3DJiCm48Jl-nIZtlC2g8hKOoGaL97SUbdYXLW4sxNN8DuUEsaZVihHcczcFAjMPy716FY88HXMmJ5BKkiT6ZmgHxNk1S5RfqISrRlyzYIHUDHYwON7II8ueQTGuT46TefToNo8Q-8rSEXs5HmwxFVPjkqVmo_mSBm9tWxTMAAchHrtyExUiw7wLVjUbmqT5Q4fUbzaJgy9zXaw2NJTSN8VfI91FNYzoSdbzIgCywMHUbmRnidx9Aaq2V6istinXmMkXMsTKkWeIv8pC3Q5cJz9vYIRwzBqmpZyPtI6Z7nVHlG5]--></g></svg>