<?xml version="1.0" encoding="us-ascii" standalone="no"?><svg xmlns="http://www.w3.org/2000/svg" xmlns:xlink="http://www.w3.org/1999/xlink" contentStyleType="text/css" height="642.6px" preserveAspectRatio="none" style="width:1050px;height:642px;background:#FFFFFF;" version="1.1" viewBox="0 0 1050 642" width="1050.3px" zoomAndPan="magnify"><defs/><g><text fill="#000000" font-family="sans-serif" font-size="12.6" font-weight="bold" lengthAdjust="spacing" textLength="123.3" x="465.075" y="27.0967">GET Board Request</text><rect fill="#FFFFFF" height="384.743" style="stroke:#181818;stroke-width:0.9;" width="9" x="176.4" y="160.6008"/><rect fill="#FFFFFF" height="356.5811" style="stroke:#181818;stroke-width:0.9;" width="9" x="326.7" y="188.7627"/><rect fill="#FFFFFF" height="28.1619" style="stroke:#181818;stroke-width:0.9;" width="9" x="523.8" y="216.9246"/><rect fill="#FFFFFF" height="201.3715" style="stroke:#181818;stroke-width:0.9;" width="9" x="695.25" y="273.2484"/><rect fill="#FFFFFF" height="25.2" style="stroke:#181818;stroke-width:0.9;" width="9" x="699.75" y="449.4199"/><rect fill="#FFFFFF" height="84.4857" style="stroke:#181818;stroke-width:0.9;" width="9" x="867.15" y="329.5723"/><rect fill="#FFFFFF" height="28.1619" style="stroke:#181818;stroke-width:0.9;" width="9" x="994.95" y="357.7342"/><line style="stroke:#181818;stroke-width:0.45;stroke-dasharray:5.0,5.0;" x1="32.4" x2="32.4" y1="115.077" y2="553.4438"/><line style="stroke:#181818;stroke-width:0.45;stroke-dasharray:5.0,5.0;" x1="180.45" x2="180.45" y1="115.077" y2="553.4438"/><line style="stroke:#181818;stroke-width:0.45;stroke-dasharray:5.0,5.0;" x1="330.75" x2="330.75" y1="115.077" y2="553.4438"/><line style="stroke:#181818;stroke-width:0.45;stroke-dasharray:5.0,5.0;" x1="528.3" x2="528.3" y1="115.077" y2="553.4438"/><line style="stroke:#181818;stroke-width:0.45;stroke-dasharray:5.0,5.0;" x1="699.3" x2="699.3" y1="115.077" y2="553.4438"/><line style="stroke:#181818;stroke-width:0.45;stroke-dasharray:5.0,5.0;" x1="871.65" x2="871.65" y1="115.077" y2="553.4438"/><line style="stroke:#181818;stroke-width:0.45;stroke-dasharray:5.0,5.0;" x1="999.45" x2="999.45" y1="115.077" y2="553.4438"/><text fill="#000000" font-family="sans-serif" font-size="12.6" lengthAdjust="spacing" textLength="50.4" x="4.5" y="111.9146">Manager</text><ellipse cx="32.4" cy="51.968" fill="#E2E2F0" rx="7.2" ry="7.2" style="stroke:#181818;stroke-width:0.45;"/><path d="M32.4,59.168 L32.4,83.468 M20.7,66.368 L44.1,66.368 M32.4,83.468 L20.7,96.968 M32.4,83.468 L44.1,96.968 " fill="none" style="stroke:#181818;stroke-width:0.45;"/><text fill="#000000" font-family="sans-serif" font-size="12.6" lengthAdjust="spacing" textLength="50.4" x="4.5" y="566.1404">Manager</text><ellipse cx="32.4" cy="576.9527" fill="#E2E2F0" rx="7.2" ry="7.2" style="stroke:#181818;stroke-width:0.45;"/><path d="M32.4,584.1527 L32.4,608.4527 M20.7,591.3527 L44.1,591.3527 M32.4,608.4527 L20.7,621.9527 M32.4,608.4527 L44.1,621.9527 " fill="none" style="stroke:#181818;stroke-width:0.45;"/><rect fill="#E2E2F0" height="46.118" rx="2.25" ry="2.25" style="stroke:#181818;stroke-width:0.45;" width="58.5" x="151.65" y="68.059"/><text fill="#000000" font-family="sans-serif" font-size="12.6" font-style="italic" lengthAdjust="spacing" textLength="24.3" x="168.75" y="87.9557">&#171;ui&#187;</text><text fill="#000000" font-family="sans-serif" font-size="12.6" lengthAdjust="spacing" textLength="45.9" x="157.95" y="104.7146">Browser</text><rect fill="#E2E2F0" height="46.118" rx="2.25" ry="2.25" style="stroke:#181818;stroke-width:0.45;" width="58.5" x="151.65" y="552.5438"/><text fill="#000000" font-family="sans-serif" font-size="12.6" font-style="italic" lengthAdjust="spacing" textLength="24.3" x="168.75" y="572.4404">&#171;ui&#187;</text><text fill="#000000" font-family="sans-serif" font-size="12.6" lengthAdjust="spacing" textLength="45.9" x="157.95" y="589.1994">Browser</text><rect fill="#E2E2F0" height="46.118" rx="2.25" ry="2.25" style="stroke:#181818;stroke-width:0.45;" width="126.9" x="267.75" y="68.059"/><text fill="#000000" font-family="sans-serif" font-size="12.6" font-style="italic" lengthAdjust="spacing" textLength="36" x="313.2" y="87.9557">&#171;http&#187;</text><text fill="#000000" font-family="sans-serif" font-size="12.6" lengthAdjust="spacing" textLength="114.3" x="274.05" y="104.7146">HttpRequestHandler</text><rect fill="#E2E2F0" height="46.118" rx="2.25" ry="2.25" style="stroke:#181818;stroke-width:0.45;" width="126.9" x="267.75" y="552.5438"/><text fill="#000000" font-family="sans-serif" font-size="12.6" font-style="italic" lengthAdjust="spacing" textLength="36" x="313.2" y="572.4404">&#171;http&#187;</text><text fill="#000000" font-family="sans-serif" font-size="12.6" lengthAdjust="spacing" textLength="114.3" x="274.05" y="589.1994">HttpRequestHandler</text><rect fill="#E2E2F0" height="46.118" rx="2.25" ry="2.25" style="stroke:#181818;stroke-width:0.45;" width="163.8" x="446.4" y="68.059"/><text fill="#000000" font-family="sans-serif" font-size="12.6" font-style="italic" lengthAdjust="spacing" textLength="36" x="510.3" y="87.9557">&#171;http&#187;</text><text fill="#000000" font-family="sans-serif" font-size="12.6" lengthAdjust="spacing" textLength="151.2" x="452.7" y="104.7146">EndpointProcessorFactory</text><rect fill="#E2E2F0" height="46.118" rx="2.25" ry="2.25" style="stroke:#181818;stroke-width:0.45;" width="163.8" x="446.4" y="552.5438"/><text fill="#000000" font-family="sans-serif" font-size="12.6" font-style="italic" lengthAdjust="spacing" textLength="36" x="510.3" y="572.4404">&#171;http&#187;</text><text fill="#000000" font-family="sans-serif" font-size="12.6" lengthAdjust="spacing" textLength="151.2" x="452.7" y="589.1994">EndpointProcessorFactory</text><rect fill="#E2E2F0" height="46.118" rx="2.25" ry="2.25" style="stroke:#181818;stroke-width:0.45;" width="161.1" x="619.2" y="68.059"/><text fill="#000000" font-family="sans-serif" font-size="12.6" font-style="italic" lengthAdjust="spacing" textLength="36" x="681.75" y="87.9557">&#171;http&#187;</text><text fill="#000000" font-family="sans-serif" font-size="12.6" lengthAdjust="spacing" textLength="148.5" x="625.5" y="104.7146">BoardsEndpointProcessor</text><rect fill="#E2E2F0" height="46.118" rx="2.25" ry="2.25" style="stroke:#181818;stroke-width:0.45;" width="161.1" x="619.2" y="552.5438"/><text fill="#000000" font-family="sans-serif" font-size="12.6" font-style="italic" lengthAdjust="spacing" textLength="36" x="681.75" y="572.4404">&#171;http&#187;</text><text fill="#000000" font-family="sans-serif" font-size="12.6" lengthAdjust="spacing" textLength="148.5" x="625.5" y="589.1994">BoardsEndpointProcessor</text><rect fill="#E2E2F0" height="46.118" rx="2.25" ry="2.25" style="stroke:#181818;stroke-width:0.45;" width="100.8" x="821.25" y="68.059"/><text fill="#000000" font-family="sans-serif" font-size="12.6" font-style="italic" lengthAdjust="spacing" textLength="75.6" x="833.85" y="87.9557">&#171;application&#187;</text><text fill="#000000" font-family="sans-serif" font-size="12.6" lengthAdjust="spacing" textLength="88.2" x="827.55" y="104.7146">BoardsProvider</text><rect fill="#E2E2F0" height="46.118" rx="2.25" ry="2.25" style="stroke:#181818;stroke-width:0.45;" width="100.8" x="821.25" y="552.5438"/><text fill="#000000" font-family="sans-serif" font-size="12.6" font-style="italic" lengthAdjust="spacing" textLength="75.6" x="833.85" y="572.4404">&#171;application&#187;</text><text fill="#000000" font-family="sans-serif" font-size="12.6" lengthAdjust="spacing" textLength="88.2" x="827.55" y="589.1994">BoardsProvider</text><text fill="#000000" font-family="sans-serif" font-size="12.6" font-style="italic" lengthAdjust="spacing" textLength="71.1" x="961.2" y="95.1557">&#171;repository&#187;</text><text fill="#000000" font-family="sans-serif" font-size="12.6" lengthAdjust="spacing" textLength="95.4" x="949.05" y="111.9146">BoardRepository</text><path d="M983.25,49.159 C983.25,40.159 999.45,40.159 999.45,40.159 C999.45,40.159 1015.65,40.159 1015.65,49.159 L1015.65,72.559 C1015.65,81.559 999.45,81.559 999.45,81.559 C999.45,81.559 983.25,81.559 983.25,72.559 L983.25,49.159 " fill="#E2E2F0" style="stroke:#181818;stroke-width:1.35;"/><path d="M983.25,49.159 C983.25,58.159 999.45,58.159 999.45,58.159 C999.45,58.159 1015.65,58.159 1015.65,49.159 " fill="none" style="stroke:#181818;stroke-width:1.35;"/><text fill="#000000" font-family="sans-serif" font-size="12.6" font-style="italic" lengthAdjust="spacing" textLength="71.1" x="961.2" y="566.1404">&#171;repository&#187;</text><text fill="#000000" font-family="sans-serif" font-size="12.6" lengthAdjust="spacing" textLength="95.4" x="949.05" y="582.8994">BoardRepository</text><path d="M983.25,595.0617 C983.25,586.0617 999.45,586.0617 999.45,586.0617 C999.45,586.0617 1015.65,586.0617 1015.65,595.0617 L1015.65,618.4617 C1015.65,627.4617 999.45,627.4617 999.45,627.4617 C999.45,627.4617 983.25,627.4617 983.25,618.4617 L983.25,595.0617 " fill="#E2E2F0" style="stroke:#181818;stroke-width:1.35;"/><path d="M983.25,595.0617 C983.25,604.0617 999.45,604.0617 999.45,604.0617 C999.45,604.0617 1015.65,604.0617 1015.65,595.0617 " fill="none" style="stroke:#181818;stroke-width:1.35;"/><rect fill="#FFFFFF" height="384.743" style="stroke:#181818;stroke-width:0.9;" width="9" x="176.4" y="160.6008"/><rect fill="#FFFFFF" height="356.5811" style="stroke:#181818;stroke-width:0.9;" width="9" x="326.7" y="188.7627"/><rect fill="#FFFFFF" height="28.1619" style="stroke:#181818;stroke-width:0.9;" width="9" x="523.8" y="216.9246"/><rect fill="#FFFFFF" height="201.3715" style="stroke:#181818;stroke-width:0.9;" width="9" x="695.25" y="273.2484"/><rect fill="#FFFFFF" height="25.2" style="stroke:#181818;stroke-width:0.9;" width="9" x="699.75" y="449.4199"/><rect fill="#FFFFFF" height="84.4857" style="stroke:#181818;stroke-width:0.9;" width="9" x="867.15" y="329.5723"/><rect fill="#FFFFFF" height="28.1619" style="stroke:#181818;stroke-width:0.9;" width="9" x="994.95" y="357.7342"/><polygon fill="#181818" points="165.6,157.0008,174.6,160.6008,165.6,164.2008,169.2,160.6008" style="stroke:#181818;stroke-width:0.9;"/><line style="stroke:#181818;stroke-width:0.9;" x1="0" x2="171" y1="160.6008" y2="160.6008"/><text fill="#000000" font-family="sans-serif" font-size="11.7" font-weight="bold" lengthAdjust="spacing" textLength="6.3" x="6.3" y="148.0834">1</text><text fill="#000000" font-family="sans-serif" font-size="11.7" lengthAdjust="spacing" textLength="114.3" x="16.2" y="140.3024">onLoad after selecting</text><text fill="#000000" font-family="sans-serif" font-size="11.7" lengthAdjust="spacing" textLength="145.8" x="19.8" y="155.8644">a board in the previous page</text><polygon fill="#181818" points="315.9,185.1627,324.9,188.7627,315.9,192.3627,319.5,188.7627" style="stroke:#181818;stroke-width:0.9;"/><line style="stroke:#181818;stroke-width:0.9;" x1="185.4" x2="321.3" y1="188.7627" y2="188.7627"/><text fill="#000000" font-family="sans-serif" font-size="11.7" font-weight="bold" lengthAdjust="spacing" textLength="6.3" x="191.7" y="184.0263">2</text><text fill="#000000" font-family="sans-serif" font-size="11.7" lengthAdjust="spacing" textLength="114.3" x="201.6" y="184.0263">GET /boards/{boardId}</text><polygon fill="#181818" points="513,213.3246,522,216.9246,513,220.5246,516.6,216.9246" style="stroke:#181818;stroke-width:0.9;"/><line style="stroke:#181818;stroke-width:0.9;" x1="335.7" x2="518.4" y1="216.9246" y2="216.9246"/><text fill="#000000" font-family="sans-serif" font-size="11.7" font-weight="bold" lengthAdjust="spacing" textLength="6.3" x="342" y="212.1882">3</text><text fill="#000000" font-family="sans-serif" font-size="11.7" lengthAdjust="spacing" textLength="161.1" x="351.9" y="212.1882">getEndpointProcessor(request)</text><polygon fill="#181818" points="345.6,241.4865,336.6,245.0865,345.6,248.6865,342,245.0865" style="stroke:#181818;stroke-width:0.9;"/><line style="stroke:#181818;stroke-width:0.9;stroke-dasharray:2.0,2.0;" x1="340.2" x2="527.4" y1="245.0865" y2="245.0865"/><text fill="#000000" font-family="sans-serif" font-size="11.7" font-weight="bold" lengthAdjust="spacing" textLength="6.3" x="351" y="240.3501">4</text><text fill="#000000" font-family="sans-serif" font-size="11.7" lengthAdjust="spacing" textLength="134.1" x="360.9" y="240.3501">boardsEndpointProcessor</text><polygon fill="#181818" points="684.45,269.6484,693.45,273.2484,684.45,276.8484,688.05,273.2484" style="stroke:#181818;stroke-width:0.9;"/><line style="stroke:#181818;stroke-width:0.9;" x1="335.7" x2="689.85" y1="273.2484" y2="273.2484"/><text fill="#000000" font-family="sans-serif" font-size="11.7" font-weight="bold" lengthAdjust="spacing" textLength="6.3" x="342" y="268.512">5</text><text fill="#000000" font-family="sans-serif" font-size="11.7" lengthAdjust="spacing" textLength="130.5" x="351.9" y="268.512">processRequest(request)</text><polygon fill="#181818" points="860.85,297.8104,869.85,301.4104,860.85,305.0104,864.45,301.4104" style="stroke:#181818;stroke-width:0.9;"/><line style="stroke:#181818;stroke-width:0.9;" x1="704.25" x2="866.25" y1="301.4104" y2="301.4104"/><text fill="#000000" font-family="sans-serif" font-size="11.7" font-weight="bold" lengthAdjust="spacing" textLength="6.3" x="710.55" y="296.6739">6</text><text fill="#000000" font-family="sans-serif" font-size="11.7" lengthAdjust="spacing" textLength="101.7" x="720.45" y="296.6739">creates(boardRepo)</text><polygon fill="#181818" points="856.35,325.9723,865.35,329.5723,856.35,333.1723,859.95,329.5723" style="stroke:#181818;stroke-width:0.9;"/><line style="stroke:#181818;stroke-width:0.9;" x1="704.25" x2="861.75" y1="329.5723" y2="329.5723"/><text fill="#000000" font-family="sans-serif" font-size="11.7" font-weight="bold" lengthAdjust="spacing" textLength="6.3" x="710.55" y="324.8358">7</text><text fill="#000000" font-family="sans-serif" font-size="11.7" lengthAdjust="spacing" textLength="135.9" x="720.45" y="324.8358">retrieveBoardById(boardId)</text><polygon fill="#181818" points="984.15,354.1342,993.15,357.7342,984.15,361.3342,987.75,357.7342" style="stroke:#181818;stroke-width:0.9;"/><line style="stroke:#181818;stroke-width:0.9;" x1="876.15" x2="989.55" y1="357.7342" y2="357.7342"/><text fill="#000000" font-family="sans-serif" font-size="11.7" font-weight="bold" lengthAdjust="spacing" textLength="6.3" x="882.45" y="352.9978">8</text><text fill="#000000" font-family="sans-serif" font-size="11.7" lengthAdjust="spacing" textLength="91.8" x="892.35" y="352.9978">ofIdentity(boardId)</text><polygon fill="#181818" points="886.05,382.2961,877.05,385.8961,886.05,389.4961,882.45,385.8961" style="stroke:#181818;stroke-width:0.9;"/><line style="stroke:#181818;stroke-width:0.9;stroke-dasharray:2.0,2.0;" x1="880.65" x2="998.55" y1="385.8961" y2="385.8961"/><text fill="#000000" font-family="sans-serif" font-size="11.7" font-weight="bold" lengthAdjust="spacing" textLength="6.3" x="891.45" y="381.1597">9</text><text fill="#000000" font-family="sans-serif" font-size="11.7" lengthAdjust="spacing" textLength="28.8" x="901.35" y="381.1597">board</text><polygon fill="#181818" points="714.15,410.458,705.15,414.058,714.15,417.658,710.55,414.058" style="stroke:#181818;stroke-width:0.9;"/><line style="stroke:#181818;stroke-width:0.9;stroke-dasharray:2.0,2.0;" x1="708.75" x2="870.75" y1="414.058" y2="414.058"/><text fill="#000000" font-family="sans-serif" font-size="11.7" font-weight="bold" lengthAdjust="spacing" textLength="12.6" x="719.55" y="409.3216">10</text><text fill="#000000" font-family="sans-serif" font-size="11.7" lengthAdjust="spacing" textLength="28.8" x="735.75" y="409.3216">board</text><line style="stroke:#181818;stroke-width:0.9;" x1="708.75" x2="746.55" y1="442.2199" y2="442.2199"/><line style="stroke:#181818;stroke-width:0.9;" x1="746.55" x2="746.55" y1="442.2199" y2="453.9199"/><line style="stroke:#181818;stroke-width:0.9;" x1="709.65" x2="746.55" y1="453.9199" y2="453.9199"/><polygon fill="#181818" points="718.65,450.3199,709.65,453.9199,718.65,457.5199,715.05,453.9199" style="stroke:#181818;stroke-width:0.9;"/><text fill="#000000" font-family="sans-serif" font-size="11.7" font-weight="bold" lengthAdjust="spacing" textLength="12.6" x="715.05" y="437.4835">11</text><text fill="#000000" font-family="sans-serif" font-size="11.7" lengthAdjust="spacing" textLength="75.6" x="731.25" y="437.4835">setResponse()</text><polygon fill="#181818" points="195.3,505.4818,186.3,509.0818,195.3,512.6818,191.7,509.0818" style="stroke:#181818;stroke-width:0.9;"/><line style="stroke:#181818;stroke-width:0.9;stroke-dasharray:2.0,2.0;" x1="189.9" x2="325.8" y1="509.0818" y2="509.0818"/><text fill="#000000" font-family="sans-serif" font-size="11.7" font-weight="bold" lengthAdjust="spacing" textLength="12.6" x="200.7" y="504.3454">12</text><text fill="#000000" font-family="sans-serif" font-size="11.7" lengthAdjust="spacing" textLength="47.7" x="216.9" y="504.3454">response</text><polygon fill="#181818" points="42.3,533.6438,33.3,537.2438,42.3,540.8438,38.7,537.2438" style="stroke:#181818;stroke-width:0.9;"/><line style="stroke:#181818;stroke-width:0.9;stroke-dasharray:2.0,2.0;" x1="36.9" x2="175.5" y1="537.2438" y2="537.2438"/><text fill="#000000" font-family="sans-serif" font-size="11.7" font-weight="bold" lengthAdjust="spacing" textLength="12.6" x="47.7" y="532.5073">13</text><text fill="#000000" font-family="sans-serif" font-size="11.7" lengthAdjust="spacing" textLength="85.5" x="63.9" y="532.5073">shows the board</text><!--SRC=[VPDFJm8n4CNl_HID9pmGxiHms0HT4eaReZSlizi1cc1RsraCCNvtfqFbZw1xsMpxUszcNhjaQOFwOVgiAm_Hw0M-zvX8AUZ9k_wjnQYW8n_r71oiC6f8Ugu2HBAT3U18trJHVoICDtdhPQRlxdexcPmZDL4erZKuiobqpV2QjtxZKsU2juwQw3jCoSTxwM4decbp_uTCHaWNug9g_bKnlRMcz5Lb5aBOs0x8UiSI0mGj92py0eDFzj3JOjeyiIGULbcXXfCSnrXxz-Z1Q5WInvTmWnrPjtfr6dGheLkdQOqwHDnQtoSTE6YLOxTR86GJnJxiLhDPFggHoDBeKzupytLaQrLdCcSqrYkaYp06SNyCjqSDmoeBXgL4Upr6PV1CKWerh0XxffpmrHADoYWhgYpe8l9o6hG_MTwURKUaQ76B4dMrcvb1cVJ4icfK9Gh9dbDUpWmwihIx0cT62JZygI7GwKp2PCl3M1T8TPXY3oIa1QRWNSB1hsdFmhhuhAMAt8vO39GSCg_Ei_6QVocv5FiUvFa6]--></g></svg>