<?xml version="1.0" encoding="us-ascii" standalone="no"?><svg xmlns="http://www.w3.org/2000/svg" xmlns:xlink="http://www.w3.org/1999/xlink" contentStyleType="text/css" height="845px" preserveAspectRatio="none" style="width:2301px;height:845px;background:#FFFFFF;" version="1.1" viewBox="0 0 2301 845" width="2301px" zoomAndPan="magnify"><defs/><g><text fill="#000000" font-family="sans-serif" font-size="14" font-weight="bold" lengthAdjust="spacing" textLength="203" x="1042" y="25.1074">US2005 - List Student Grades</text><!--cluster UI--><g id="cluster_UI"><path d="M8.5,192.6211 L23.5,192.6211 A3.75,3.75 0 0 1 26,195.1211 L33,217.2422 L197.5,217.2422 A2.5,2.5 0 0 1 200,219.7422 L200,291.1211 A2.5,2.5 0 0 1 197.5,293.6211 L8.5,293.6211 A2.5,2.5 0 0 1 6,291.1211 L6,195.1211 A2.5,2.5 0 0 1 8.5,192.6211 " fill="none" style="stroke:#000000;stroke-width:1.5;"/><line style="stroke:#000000;stroke-width:1.5;" x1="6" x2="33" y1="217.2422" y2="217.2422"/><text fill="#000000" font-family="sans-serif" font-size="14" font-weight="bold" lengthAdjust="spacing" textLength="14" x="10" y="209.7285">UI</text></g><!--cluster takenexammanagement--><g id="cluster_takenexammanagement"><path d="M226.5,110.6211 L393.5,110.6211 A3.75,3.75 0 0 1 396,113.1211 L403,135.2422 L2291.5,135.2422 A2.5,2.5 0 0 1 2294,137.7422 L2294,352.1211 A2.5,2.5 0 0 1 2291.5,354.6211 L226.5,354.6211 A2.5,2.5 0 0 1 224,352.1211 L224,113.1211 A2.5,2.5 0 0 1 226.5,110.6211 " fill="none" style="stroke:#000000;stroke-width:1.5;"/><line style="stroke:#000000;stroke-width:1.5;" x1="224" x2="403" y1="135.2422" y2="135.2422"/><text fill="#000000" font-family="sans-serif" font-size="14" font-weight="bold" lengthAdjust="spacing" textLength="166" x="228" y="127.7285">takenexammanagement</text></g><!--cluster application--><g id="cluster_application"><path d="M250.5,155.6211 L328.5,155.6211 A3.75,3.75 0 0 1 331,158.1211 L338,180.2422 L1514.5,180.2422 A2.5,2.5 0 0 1 1517,182.7422 L1517,328.1211 A2.5,2.5 0 0 1 1514.5,330.6211 L250.5,330.6211 A2.5,2.5 0 0 1 248,328.1211 L248,158.1211 A2.5,2.5 0 0 1 250.5,155.6211 " fill="none" style="stroke:#000000;stroke-width:1.5;"/><line style="stroke:#000000;stroke-width:1.5;" x1="248" x2="338" y1="180.2422" y2="180.2422"/><text fill="#000000" font-family="sans-serif" font-size="14" font-weight="bold" lengthAdjust="spacing" textLength="77" x="252" y="172.7285">application</text></g><!--cluster domain--><g id="cluster_domain"><path d="M2134.5,192.6211 L2186.5,192.6211 A3.75,3.75 0 0 1 2189,195.1211 L2196,217.2422 L2267.5,217.2422 A2.5,2.5 0 0 1 2270,219.7422 L2270,291.1211 A2.5,2.5 0 0 1 2267.5,293.6211 L2134.5,293.6211 A2.5,2.5 0 0 1 2132,291.1211 L2132,195.1211 A2.5,2.5 0 0 1 2134.5,192.6211 " fill="none" style="stroke:#000000;stroke-width:1.5;"/><line style="stroke:#000000;stroke-width:1.5;" x1="2132" x2="2196" y1="217.2422" y2="217.2422"/><text fill="#000000" font-family="sans-serif" font-size="14" font-weight="bold" lengthAdjust="spacing" textLength="51" x="2136" y="209.7285">domain</text></g><!--cluster repository--><g id="cluster_repository"><path d="M1547.5,182.6211 L1620.5,182.6211 A3.75,3.75 0 0 1 1623,185.1211 L1630,207.2422 L2040.5,207.2422 A2.5,2.5 0 0 1 2043,209.7422 L2043,301.1211 A2.5,2.5 0 0 1 2040.5,303.6211 L1547.5,303.6211 A2.5,2.5 0 0 1 1545,301.1211 L1545,185.1211 A2.5,2.5 0 0 1 1547.5,182.6211 " fill="none" style="stroke:#000000;stroke-width:1.5;"/><line style="stroke:#000000;stroke-width:1.5;" x1="1545" x2="1630" y1="207.2422" y2="207.2422"/><text fill="#000000" font-family="sans-serif" font-size="14" font-weight="bold" lengthAdjust="spacing" textLength="72" x="1549" y="199.7285">repository</text></g><!--cluster coursemanagement--><g id="cluster_coursemanagement"><path d="M961,378.6211 L1101,378.6211 A3.75,3.75 0 0 1 1103.5,381.1211 L1110.5,403.2422 L1503,403.2422 A2.5,2.5 0 0 1 1505.5,405.7422 L1505.5,836.1211 A2.5,2.5 0 0 1 1503,838.6211 L961,838.6211 A2.5,2.5 0 0 1 958.5,836.1211 L958.5,381.1211 A2.5,2.5 0 0 1 961,378.6211 " fill="none" style="stroke:#000000;stroke-width:1.5;"/><line style="stroke:#000000;stroke-width:1.5;" x1="958.5" x2="1110.5" y1="403.2422" y2="403.2422"/><text fill="#000000" font-family="sans-serif" font-size="14" font-weight="bold" lengthAdjust="spacing" textLength="139" x="962.5" y="395.7285">coursemanagement</text></g><!--cluster application--><g id="cluster_application"><path d="M985,423.6211 L1063,423.6211 A3.75,3.75 0 0 1 1065.5,426.1211 L1072.5,448.2422 L1479,448.2422 A2.5,2.5 0 0 1 1481.5,450.7422 L1481.5,542.1211 A2.5,2.5 0 0 1 1479,544.6211 L985,544.6211 A2.5,2.5 0 0 1 982.5,542.1211 L982.5,426.1211 A2.5,2.5 0 0 1 985,423.6211 " fill="none" style="stroke:#000000;stroke-width:1.5;"/><line style="stroke:#000000;stroke-width:1.5;" x1="982.5" x2="1072.5" y1="448.2422" y2="448.2422"/><text fill="#000000" font-family="sans-serif" font-size="14" font-weight="bold" lengthAdjust="spacing" textLength="77" x="986.5" y="440.7285">application</text></g><!--cluster repository--><g id="cluster_repository"><path d="M997,568.6211 L1070,568.6211 A3.75,3.75 0 0 1 1072.5,571.1211 L1079.5,593.2422 L1467,593.2422 A2.5,2.5 0 0 1 1469.5,595.7422 L1469.5,687.1211 A2.5,2.5 0 0 1 1467,689.6211 L997,689.6211 A2.5,2.5 0 0 1 994.5,687.1211 L994.5,571.1211 A2.5,2.5 0 0 1 997,568.6211 " fill="none" style="stroke:#000000;stroke-width:1.5;"/><line style="stroke:#000000;stroke-width:1.5;" x1="994.5" x2="1079.5" y1="593.2422" y2="593.2422"/><text fill="#000000" font-family="sans-serif" font-size="14" font-weight="bold" lengthAdjust="spacing" textLength="72" x="998.5" y="585.7285">repository</text></g><!--cluster domain--><g id="cluster_domain"><path d="M1179.5,713.6211 L1231.5,713.6211 A3.75,3.75 0 0 1 1234,716.1211 L1241,738.2422 L1284.5,738.2422 A2.5,2.5 0 0 1 1287,740.7422 L1287,812.1211 A2.5,2.5 0 0 1 1284.5,814.6211 L1179.5,814.6211 A2.5,2.5 0 0 1 1177,812.1211 L1177,716.1211 A2.5,2.5 0 0 1 1179.5,713.6211 " fill="none" style="stroke:#000000;stroke-width:1.5;"/><line style="stroke:#000000;stroke-width:1.5;" x1="1177" x2="1241" y1="738.2422" y2="738.2422"/><text fill="#000000" font-family="sans-serif" font-size="14" font-weight="bold" lengthAdjust="spacing" textLength="51" x="1181" y="730.7285">domain</text></g><!--class ListStudentGradesUI--><g id="elem_ListStudentGradesUI"><rect codeLine="9" fill="#F1F1F1" height="48" id="ListStudentGradesUI" rx="2.5" ry="2.5" style="stroke:#181818;stroke-width:0.5;" width="162" x="22" y="229.6211"/><ellipse cx="37" cy="245.6211" fill="#ADD1B2" rx="11" ry="11" style="stroke:#181818;stroke-width:1.0;"/><path d="M39.7656,241.4961 Q39.9219,241.2773 40.1094,241.168 Q40.2969,241.0586 40.5156,241.0586 Q40.8906,241.0586 41.125,241.3242 Q41.3594,241.5742 41.3594,242.1836 L41.3594,243.6367 Q41.3594,244.2461 41.125,244.5117 Q40.8906,244.7773 40.5156,244.7773 Q40.1719,244.7773 39.9688,244.5742 Q39.7656,244.3867 39.6563,243.8711 Q39.6094,243.5117 39.4219,243.3242 Q39.0938,242.9492 38.4844,242.7305 Q37.875,242.5117 37.25,242.5117 Q36.4844,242.5117 35.8438,242.8398 Q35.2188,243.168 34.7188,243.918 Q34.2344,244.668 34.2344,245.6992 L34.2344,246.793 Q34.2344,248.0273 35.125,248.8555 Q36.0156,249.668 37.6094,249.668 Q38.5469,249.668 39.2031,249.418 Q39.5938,249.2617 40.0156,248.8242 Q40.2813,248.5586 40.4219,248.4805 Q40.5781,248.4023 40.7813,248.4023 Q41.1094,248.4023 41.3594,248.668 Q41.625,248.918 41.625,249.2617 Q41.625,249.6055 41.2813,250.0117 Q40.7813,250.5898 39.9844,250.918 Q38.9063,251.3711 37.6094,251.3711 Q36.0938,251.3711 34.8906,250.7461 Q33.9063,250.2461 33.2188,249.1836 Q32.5313,248.1055 32.5313,246.8242 L32.5313,245.668 Q32.5313,244.3398 33.1406,243.1992 Q33.7656,242.043 34.8594,241.4336 Q35.9531,240.8086 37.1875,240.8086 Q37.9219,240.8086 38.5625,240.9805 Q39.2188,241.1367 39.7656,241.4961 Z " fill="#000000"/><text fill="#000000" font-family="sans-serif" font-size="14" lengthAdjust="spacing" textLength="130" x="51" y="251.418">ListStudentGradesUI</text><line style="stroke:#181818;stroke-width:0.5;" x1="23" x2="183" y1="261.6211" y2="261.6211"/><line style="stroke:#181818;stroke-width:0.5;" x1="23" x2="183" y1="269.6211" y2="269.6211"/></g><!--class ListStudentGradesController--><g id="elem_ListStudentGradesController"><rect codeLine="17" fill="#F1F1F1" height="122.4844" id="ListStudentGradesController" rx="2.5" ry="2.5" style="stroke:#181818;stroke-width:0.5;" width="639" x="264" y="192.6211"/><ellipse cx="489.25" cy="208.6211" fill="#ADD1B2" rx="11" ry="11" style="stroke:#181818;stroke-width:1.0;"/><path d="M492.0156,204.4961 Q492.1719,204.2773 492.3594,204.168 Q492.5469,204.0586 492.7656,204.0586 Q493.1406,204.0586 493.375,204.3242 Q493.6094,204.5742 493.6094,205.1836 L493.6094,206.6367 Q493.6094,207.2461 493.375,207.5117 Q493.1406,207.7773 492.7656,207.7773 Q492.4219,207.7773 492.2188,207.5742 Q492.0156,207.3867 491.9063,206.8711 Q491.8594,206.5117 491.6719,206.3242 Q491.3438,205.9492 490.7344,205.7305 Q490.125,205.5117 489.5,205.5117 Q488.7344,205.5117 488.0938,205.8398 Q487.4688,206.168 486.9688,206.918 Q486.4844,207.668 486.4844,208.6992 L486.4844,209.793 Q486.4844,211.0273 487.375,211.8555 Q488.2656,212.668 489.8594,212.668 Q490.7969,212.668 491.4531,212.418 Q491.8438,212.2617 492.2656,211.8242 Q492.5313,211.5586 492.6719,211.4805 Q492.8281,211.4023 493.0313,211.4023 Q493.3594,211.4023 493.6094,211.668 Q493.875,211.918 493.875,212.2617 Q493.875,212.6055 493.5313,213.0117 Q493.0313,213.5898 492.2344,213.918 Q491.1563,214.3711 489.8594,214.3711 Q488.3438,214.3711 487.1406,213.7461 Q486.1563,213.2461 485.4688,212.1836 Q484.7813,211.1055 484.7813,209.8242 L484.7813,208.668 Q484.7813,207.3398 485.3906,206.1992 Q486.0156,205.043 487.1094,204.4336 Q488.2031,203.8086 489.4375,203.8086 Q490.1719,203.8086 490.8125,203.9805 Q491.4688,204.1367 492.0156,204.4961 Z " fill="#000000"/><text fill="#000000" font-family="sans-serif" font-size="14" lengthAdjust="spacing" textLength="180" x="509.75" y="214.418">ListStudentGradesController</text><line style="stroke:#181818;stroke-width:0.5;" x1="265" x2="902" y1="224.6211" y2="224.6211"/><line style="stroke:#181818;stroke-width:0.5;" x1="265" x2="902" y1="232.6211" y2="232.6211"/><rect fill="#F24D5C" height="6" style="stroke:#C82930;stroke-width:1.0;" width="6" x="272" y="244.4316"/><text fill="#000000" font-family="sans-serif" font-size="14" lengthAdjust="spacing" textLength="127" x="284" y="251.7285">verifyStudent(): void</text><ellipse cx="275" cy="266.0527" fill="#84BE84" rx="3" ry="3" style="stroke:#038048;stroke-width:1.0;"/><text fill="#000000" font-family="sans-serif" font-size="14" lengthAdjust="spacing" textLength="613" x="284" y="270.3496">ListStudentGradesController(userSessionService, studentCoursesProvider, takenExamsProvider)</text><ellipse cx="275" cy="284.6738" fill="#84BE84" rx="3" ry="3" style="stroke:#038048;stroke-width:1.0;"/><text fill="#000000" font-family="sans-serif" font-size="14" lengthAdjust="spacing" textLength="274" x="284" y="288.9707">studentCourses(student): Iterable&lt;Course&gt;</text><ellipse cx="275" cy="303.2949" fill="#84BE84" rx="3" ry="3" style="stroke:#038048;stroke-width:1.0;"/><text fill="#000000" font-family="sans-serif" font-size="14" lengthAdjust="spacing" textLength="328" x="284" y="307.5918">takenExamsFromCourse(course): List&lt;TakenExam&gt;</text></g><!--class ITakenExamsProvider--><g id="elem_ITakenExamsProvider"><rect codeLine="26" fill="#F1F1F1" height="66.6211" id="ITakenExamsProvider" rx="2.5" ry="2.5" style="stroke:#181818;stroke-width:0.5;" width="538" x="963" y="220.1211"/><ellipse cx="1158.75" cy="236.1211" fill="#B4A7E5" rx="11" ry="11" style="stroke:#181818;stroke-width:1.0;"/><path d="M1159.7031,232.7617 L1159.7031,239.418 L1161.4219,239.418 Q1162.0313,239.418 1162.2969,239.6523 Q1162.5625,239.8867 1162.5625,240.2773 Q1162.5625,240.6523 1162.2969,240.8867 Q1162.0313,241.1211 1161.4219,241.1211 L1156.2813,241.1211 Q1155.6719,241.1211 1155.4063,240.8867 Q1155.1406,240.6523 1155.1406,240.2617 Q1155.1406,239.8867 1155.4063,239.6523 Q1155.6719,239.418 1156.2813,239.418 L1158,239.418 L1158,232.7617 L1156.2813,232.7617 Q1155.6719,232.7617 1155.4063,232.5273 Q1155.1406,232.293 1155.1406,231.9023 Q1155.1406,231.5273 1155.4063,231.293 Q1155.6719,231.0586 1156.2813,231.0586 L1161.4219,231.0586 Q1162.0313,231.0586 1162.2969,231.293 Q1162.5625,231.5273 1162.5625,231.9023 Q1162.5625,232.293 1162.2969,232.5273 Q1162.0313,232.7617 1161.4219,232.7617 L1159.7031,232.7617 Z " fill="#000000"/><text fill="#000000" font-family="sans-serif" font-size="14" font-style="italic" lengthAdjust="spacing" textLength="138" x="1179.25" y="241.918">ITakenExamsProvider</text><line style="stroke:#181818;stroke-width:0.5;" x1="964" x2="1500" y1="252.1211" y2="252.1211"/><line style="stroke:#181818;stroke-width:0.5;" x1="964" x2="1500" y1="260.1211" y2="260.1211"/><ellipse cx="974" cy="274.9316" fill="#84BE84" rx="3" ry="3" style="stroke:#038048;stroke-width:1.0;"/><text fill="#000000" font-family="sans-serif" font-size="14" lengthAdjust="spacing" textLength="512" x="983" y="279.2285">provideUserGradedTakenExamsFromCourse(course, student): List&lt;TakenExam&gt;</text></g><!--class TakenExam--><g id="elem_TakenExam"><rect codeLine="36" fill="#F1F1F1" height="48" id="TakenExam" rx="2.5" ry="2.5" style="stroke:#181818;stroke-width:0.5;" width="106" x="2148" y="229.6211"/><ellipse cx="2163" cy="245.6211" fill="#ADD1B2" rx="11" ry="11" style="stroke:#181818;stroke-width:1.0;"/><path d="M2165.7656,241.4961 Q2165.9219,241.2773 2166.1094,241.168 Q2166.2969,241.0586 2166.5156,241.0586 Q2166.8906,241.0586 2167.125,241.3242 Q2167.3594,241.5742 2167.3594,242.1836 L2167.3594,243.6367 Q2167.3594,244.2461 2167.125,244.5117 Q2166.8906,244.7773 2166.5156,244.7773 Q2166.1719,244.7773 2165.9688,244.5742 Q2165.7656,244.3867 2165.6563,243.8711 Q2165.6094,243.5117 2165.4219,243.3242 Q2165.0938,242.9492 2164.4844,242.7305 Q2163.875,242.5117 2163.25,242.5117 Q2162.4844,242.5117 2161.8438,242.8398 Q2161.2188,243.168 2160.7188,243.918 Q2160.2344,244.668 2160.2344,245.6992 L2160.2344,246.793 Q2160.2344,248.0273 2161.125,248.8555 Q2162.0156,249.668 2163.6094,249.668 Q2164.5469,249.668 2165.2031,249.418 Q2165.5938,249.2617 2166.0156,248.8242 Q2166.2813,248.5586 2166.4219,248.4805 Q2166.5781,248.4023 2166.7813,248.4023 Q2167.1094,248.4023 2167.3594,248.668 Q2167.625,248.918 2167.625,249.2617 Q2167.625,249.6055 2167.2813,250.0117 Q2166.7813,250.5898 2165.9844,250.918 Q2164.9063,251.3711 2163.6094,251.3711 Q2162.0938,251.3711 2160.8906,250.7461 Q2159.9063,250.2461 2159.2188,249.1836 Q2158.5313,248.1055 2158.5313,246.8242 L2158.5313,245.668 Q2158.5313,244.3398 2159.1406,243.1992 Q2159.7656,242.043 2160.8594,241.4336 Q2161.9531,240.8086 2163.1875,240.8086 Q2163.9219,240.8086 2164.5625,240.9805 Q2165.2188,241.1367 2165.7656,241.4961 Z " fill="#000000"/><text fill="#000000" font-family="sans-serif" font-size="14" lengthAdjust="spacing" textLength="74" x="2177" y="251.418">TakenExam</text><line style="stroke:#181818;stroke-width:0.5;" x1="2149" x2="2253" y1="261.6211" y2="261.6211"/><line style="stroke:#181818;stroke-width:0.5;" x1="2149" x2="2253" y1="269.6211" y2="269.6211"/></g><!--class ITakenExamRepository--><g id="elem_ITakenExamRepository"><rect codeLine="42" fill="#F1F1F1" height="66.6211" id="ITakenExamRepository" rx="2.5" ry="2.5" style="stroke:#181818;stroke-width:0.5;" width="466" x="1561" y="220.1211"/><ellipse cx="1716.25" cy="236.1211" fill="#B4A7E5" rx="11" ry="11" style="stroke:#181818;stroke-width:1.0;"/><path d="M1717.2031,232.7617 L1717.2031,239.418 L1718.9219,239.418 Q1719.5313,239.418 1719.7969,239.6523 Q1720.0625,239.8867 1720.0625,240.2773 Q1720.0625,240.6523 1719.7969,240.8867 Q1719.5313,241.1211 1718.9219,241.1211 L1713.7813,241.1211 Q1713.1719,241.1211 1712.9063,240.8867 Q1712.6406,240.6523 1712.6406,240.2617 Q1712.6406,239.8867 1712.9063,239.6523 Q1713.1719,239.418 1713.7813,239.418 L1715.5,239.418 L1715.5,232.7617 L1713.7813,232.7617 Q1713.1719,232.7617 1712.9063,232.5273 Q1712.6406,232.293 1712.6406,231.9023 Q1712.6406,231.5273 1712.9063,231.293 Q1713.1719,231.0586 1713.7813,231.0586 L1718.9219,231.0586 Q1719.5313,231.0586 1719.7969,231.293 Q1720.0625,231.5273 1720.0625,231.9023 Q1720.0625,232.293 1719.7969,232.5273 Q1719.5313,232.7617 1718.9219,232.7617 L1717.2031,232.7617 Z " fill="#000000"/><text fill="#000000" font-family="sans-serif" font-size="14" font-style="italic" lengthAdjust="spacing" textLength="147" x="1736.75" y="241.918">ITakenExamRepository</text><line style="stroke:#181818;stroke-width:0.5;" x1="1562" x2="2026" y1="252.1211" y2="252.1211"/><line style="stroke:#181818;stroke-width:0.5;" x1="1562" x2="2026" y1="260.1211" y2="260.1211"/><ellipse cx="1572" cy="274.9316" fill="#84BE84" rx="3" ry="3" style="stroke:#038048;stroke-width:1.0;"/><text fill="#000000" font-family="sans-serif" font-size="14" lengthAdjust="spacing" textLength="440" x="1581" y="279.2285">findUserTakenExamsFromCourse(course, student): List&lt;TakenExam&gt;</text></g><!--class IUserCoursesProvider--><g id="elem_IUserCoursesProvider"><rect codeLine="52" fill="#F1F1F1" height="66.6211" id="IUserCoursesProvider" rx="2.5" ry="2.5" style="stroke:#181818;stroke-width:0.5;" width="467" x="998.5" y="461.1211"/><ellipse cx="1158.25" cy="477.1211" fill="#B4A7E5" rx="11" ry="11" style="stroke:#181818;stroke-width:1.0;"/><path d="M1159.2031,473.7617 L1159.2031,480.418 L1160.9219,480.418 Q1161.5313,480.418 1161.7969,480.6523 Q1162.0625,480.8867 1162.0625,481.2773 Q1162.0625,481.6523 1161.7969,481.8867 Q1161.5313,482.1211 1160.9219,482.1211 L1155.7813,482.1211 Q1155.1719,482.1211 1154.9063,481.8867 Q1154.6406,481.6523 1154.6406,481.2617 Q1154.6406,480.8867 1154.9063,480.6523 Q1155.1719,480.418 1155.7813,480.418 L1157.5,480.418 L1157.5,473.7617 L1155.7813,473.7617 Q1155.1719,473.7617 1154.9063,473.5273 Q1154.6406,473.293 1154.6406,472.9023 Q1154.6406,472.5273 1154.9063,472.293 Q1155.1719,472.0586 1155.7813,472.0586 L1160.9219,472.0586 Q1161.5313,472.0586 1161.7969,472.293 Q1162.0625,472.5273 1162.0625,472.9023 Q1162.0625,473.293 1161.7969,473.5273 Q1161.5313,473.7617 1160.9219,473.7617 L1159.2031,473.7617 Z " fill="#000000"/><text fill="#000000" font-family="sans-serif" font-size="14" font-style="italic" lengthAdjust="spacing" textLength="139" x="1178.75" y="482.918">IUserCoursesProvider</text><line style="stroke:#181818;stroke-width:0.5;" x1="999.5" x2="1464.5" y1="493.1211" y2="493.1211"/><line style="stroke:#181818;stroke-width:0.5;" x1="999.5" x2="1464.5" y1="501.1211" y2="501.1211"/><ellipse cx="1009.5" cy="515.9316" fill="#84BE84" rx="3" ry="3" style="stroke:#038048;stroke-width:1.0;"/><text fill="#000000" font-family="sans-serif" font-size="14" lengthAdjust="spacing" textLength="441" x="1018.5" y="520.2285">provideStudentInProgressAndClosedCourses(user): Iterable&lt;Course&gt;</text></g><!--class IEnrolledStudentRepository--><g id="elem_IEnrolledStudentRepository"><rect codeLine="59" fill="#F1F1F1" height="66.6211" id="IEnrolledStudentRepository" rx="2.5" ry="2.5" style="stroke:#181818;stroke-width:0.5;" width="443" x="1010.5" y="606.1211"/><ellipse cx="1141.25" cy="622.1211" fill="#B4A7E5" rx="11" ry="11" style="stroke:#181818;stroke-width:1.0;"/><path d="M1142.2031,618.7617 L1142.2031,625.418 L1143.9219,625.418 Q1144.5313,625.418 1144.7969,625.6523 Q1145.0625,625.8867 1145.0625,626.2773 Q1145.0625,626.6523 1144.7969,626.8867 Q1144.5313,627.1211 1143.9219,627.1211 L1138.7813,627.1211 Q1138.1719,627.1211 1137.9063,626.8867 Q1137.6406,626.6523 1137.6406,626.2617 Q1137.6406,625.8867 1137.9063,625.6523 Q1138.1719,625.418 1138.7813,625.418 L1140.5,625.418 L1140.5,618.7617 L1138.7813,618.7617 Q1138.1719,618.7617 1137.9063,618.5273 Q1137.6406,618.293 1137.6406,617.9023 Q1137.6406,617.5273 1137.9063,617.293 Q1138.1719,617.0586 1138.7813,617.0586 L1143.9219,617.0586 Q1144.5313,617.0586 1144.7969,617.293 Q1145.0625,617.5273 1145.0625,617.9023 Q1145.0625,618.293 1144.7969,618.5273 Q1144.5313,618.7617 1143.9219,618.7617 L1142.2031,618.7617 Z " fill="#000000"/><text fill="#000000" font-family="sans-serif" font-size="14" font-style="italic" lengthAdjust="spacing" textLength="173" x="1161.75" y="627.918">IEnrolledStudentRepository</text><line style="stroke:#181818;stroke-width:0.5;" x1="1011.5" x2="1452.5" y1="638.1211" y2="638.1211"/><line style="stroke:#181818;stroke-width:0.5;" x1="1011.5" x2="1452.5" y1="646.1211" y2="646.1211"/><ellipse cx="1021.5" cy="660.9316" fill="#84BE84" rx="3" ry="3" style="stroke:#038048;stroke-width:1.0;"/><text fill="#000000" font-family="sans-serif" font-size="14" lengthAdjust="spacing" textLength="417" x="1030.5" y="665.2285">findStudentInProgressAndClosedCourses(user): Iterable&lt;Course&gt;</text></g><!--class Course--><g id="elem_Course"><rect codeLine="65" fill="#F1F1F1" height="48" id="Course" rx="2.5" ry="2.5" style="stroke:#181818;stroke-width:0.5;" width="78" x="1193" y="750.6211"/><ellipse cx="1208" cy="766.6211" fill="#ADD1B2" rx="11" ry="11" style="stroke:#181818;stroke-width:1.0;"/><path d="M1210.7656,762.4961 Q1210.9219,762.2773 1211.1094,762.168 Q1211.2969,762.0586 1211.5156,762.0586 Q1211.8906,762.0586 1212.125,762.3242 Q1212.3594,762.5742 1212.3594,763.1836 L1212.3594,764.6367 Q1212.3594,765.2461 1212.125,765.5117 Q1211.8906,765.7773 1211.5156,765.7773 Q1211.1719,765.7773 1210.9688,765.5742 Q1210.7656,765.3867 1210.6563,764.8711 Q1210.6094,764.5117 1210.4219,764.3242 Q1210.0938,763.9492 1209.4844,763.7305 Q1208.875,763.5117 1208.25,763.5117 Q1207.4844,763.5117 1206.8438,763.8398 Q1206.2188,764.168 1205.7188,764.918 Q1205.2344,765.668 1205.2344,766.6992 L1205.2344,767.793 Q1205.2344,769.0273 1206.125,769.8555 Q1207.0156,770.668 1208.6094,770.668 Q1209.5469,770.668 1210.2031,770.418 Q1210.5938,770.2617 1211.0156,769.8242 Q1211.2813,769.5586 1211.4219,769.4805 Q1211.5781,769.4023 1211.7813,769.4023 Q1212.1094,769.4023 1212.3594,769.668 Q1212.625,769.918 1212.625,770.2617 Q1212.625,770.6055 1212.2813,771.0117 Q1211.7813,771.5898 1210.9844,771.918 Q1209.9063,772.3711 1208.6094,772.3711 Q1207.0938,772.3711 1205.8906,771.7461 Q1204.9063,771.2461 1204.2188,770.1836 Q1203.5313,769.1055 1203.5313,767.8242 L1203.5313,766.668 Q1203.5313,765.3398 1204.1406,764.1992 Q1204.7656,763.043 1205.8594,762.4336 Q1206.9531,761.8086 1208.1875,761.8086 Q1208.9219,761.8086 1209.5625,761.9805 Q1210.2188,762.1367 1210.7656,762.4961 Z " fill="#000000"/><text fill="#000000" font-family="sans-serif" font-size="14" lengthAdjust="spacing" textLength="46" x="1222" y="772.418">Course</text><line style="stroke:#181818;stroke-width:0.5;" x1="1194" x2="1270" y1="782.6211" y2="782.6211"/><line style="stroke:#181818;stroke-width:0.5;" x1="1194" x2="1270" y1="790.6211" y2="790.6211"/></g><!--class ICourseRepository--><g id="elem_ICourseRepository"><rect fill="#F1F1F1" height="48" id="ICourseRepository" rx="2.5" ry="2.5" style="stroke:#181818;stroke-width:0.5;" width="149" x="1157.5" y="46.6211"/><ellipse cx="1172.5" cy="62.6211" fill="#ADD1B2" rx="11" ry="11" style="stroke:#181818;stroke-width:1.0;"/><path d="M1175.2656,58.4961 Q1175.4219,58.2773 1175.6094,58.168 Q1175.7969,58.0586 1176.0156,58.0586 Q1176.3906,58.0586 1176.625,58.3242 Q1176.8594,58.5742 1176.8594,59.1836 L1176.8594,60.6367 Q1176.8594,61.2461 1176.625,61.5117 Q1176.3906,61.7773 1176.0156,61.7773 Q1175.6719,61.7773 1175.4688,61.5742 Q1175.2656,61.3867 1175.1563,60.8711 Q1175.1094,60.5117 1174.9219,60.3242 Q1174.5938,59.9492 1173.9844,59.7305 Q1173.375,59.5117 1172.75,59.5117 Q1171.9844,59.5117 1171.3438,59.8398 Q1170.7188,60.168 1170.2188,60.918 Q1169.7344,61.668 1169.7344,62.6992 L1169.7344,63.793 Q1169.7344,65.0273 1170.625,65.8555 Q1171.5156,66.668 1173.1094,66.668 Q1174.0469,66.668 1174.7031,66.418 Q1175.0938,66.2617 1175.5156,65.8242 Q1175.7813,65.5586 1175.9219,65.4805 Q1176.0781,65.4023 1176.2813,65.4023 Q1176.6094,65.4023 1176.8594,65.668 Q1177.125,65.918 1177.125,66.2617 Q1177.125,66.6055 1176.7813,67.0117 Q1176.2813,67.5898 1175.4844,67.918 Q1174.4063,68.3711 1173.1094,68.3711 Q1171.5938,68.3711 1170.3906,67.7461 Q1169.4063,67.2461 1168.7188,66.1836 Q1168.0313,65.1055 1168.0313,63.8242 L1168.0313,62.668 Q1168.0313,61.3398 1168.6406,60.1992 Q1169.2656,59.043 1170.3594,58.4336 Q1171.4531,57.8086 1172.6875,57.8086 Q1173.4219,57.8086 1174.0625,57.9805 Q1174.7188,58.1367 1175.2656,58.4961 Z " fill="#000000"/><text fill="#000000" font-family="sans-serif" font-size="14" lengthAdjust="spacing" textLength="117" x="1186.5" y="68.418">ICourseRepository</text><line style="stroke:#181818;stroke-width:0.5;" x1="1158.5" x2="1305.5" y1="78.6211" y2="78.6211"/><line style="stroke:#181818;stroke-width:0.5;" x1="1158.5" x2="1305.5" y1="86.6211" y2="86.6211"/></g><!--link ListStudentGradesUI to ListStudentGradesController--><g id="link_ListStudentGradesUI_ListStudentGradesController"><path codeLine="70" d="M184.09,253.6211 C206.13,253.6211 231.47,253.6211 258.46,253.6211 " fill="none" id="ListStudentGradesUI-to-ListStudentGradesController" style="stroke:#181818;stroke-width:1.0;stroke-dasharray:7.0,7.0;"/><polygon fill="#181818" points="263.52,253.6211,254.52,249.6211,258.52,253.6211,254.52,257.6211,263.52,253.6211" style="stroke:#181818;stroke-width:1.0;"/></g><!--link ListStudentGradesController to ITakenExamsProvider--><g id="link_ListStudentGradesController_ITakenExamsProvider"><path codeLine="71" d="M903.02,253.6211 C921.22,253.6211 939.45,253.6211 957.47,253.6211 " fill="none" id="ListStudentGradesController-to-ITakenExamsProvider" style="stroke:#181818;stroke-width:1.0;"/><polygon fill="#181818" points="962.55,253.6211,953.55,249.6211,957.55,253.6211,953.55,257.6211,962.55,253.6211" style="stroke:#181818;stroke-width:1.0;"/></g><!--link ListStudentGradesController to IUserCoursesProvider--><g id="link_ListStudentGradesController_IUserCoursesProvider"><path codeLine="72" d="M748.48,314.7511 C871.1,360.4611 1034.49,421.3711 1136.19,459.2811 " fill="none" id="ListStudentGradesController-to-IUserCoursesProvider" style="stroke:#181818;stroke-width:1.0;stroke-dasharray:7.0,7.0;"/><polygon fill="#181818" points="1140.98,461.0611,1133.9391,454.1745,1136.2937,459.318,1131.1501,461.6726,1140.98,461.0611" style="stroke:#181818;stroke-width:1.0;"/></g><!--link ITakenExamsProvider to ITakenExamRepository--><g id="link_ITakenExamsProvider_ITakenExamRepository"><path codeLine="73" d="M1501.11,253.6211 C1519.34,253.6211 1537.64,253.6211 1555.7,253.6211 " fill="none" id="ITakenExamsProvider-to-ITakenExamRepository" style="stroke:#181818;stroke-width:1.0;"/><polygon fill="#181818" points="1560.79,253.6211,1551.79,249.6211,1555.79,253.6211,1551.79,257.6211,1560.79,253.6211" style="stroke:#181818;stroke-width:1.0;"/></g><!--link ITakenExamRepository to TakenExam--><g id="link_ITakenExamRepository_TakenExam"><path codeLine="74" d="M2027.07,253.6211 C2070.01,253.6211 2111.13,253.6211 2142.5,253.6211 " fill="none" id="ITakenExamRepository-to-TakenExam" style="stroke:#181818;stroke-width:1.0;"/><polygon fill="#181818" points="2147.84,253.6211,2138.84,249.6211,2142.84,253.6211,2138.84,257.6211,2147.84,253.6211" style="stroke:#181818;stroke-width:1.0;"/></g><!--link IUserCoursesProvider to ICourseRepository--><g id="link_IUserCoursesProvider_ICourseRepository"><path codeLine="75" d="M1117.04,461.1011 C1047.12,433.8211 964.29,387.4111 926.75,313.1211 C902.9,265.9211 902.9,241.3211 926.75,194.1211 C967.85,112.7811 1076.14,84.8511 1152,75.3611 " fill="none" id="IUserCoursesProvider-to-ICourseRepository" style="stroke:#181818;stroke-width:1.0;"/><polygon fill="#181818" points="1157.4,74.7111,1147.9846,71.8215,1152.4362,75.3119,1148.9459,79.7636,1157.4,74.7111" style="stroke:#181818;stroke-width:1.0;"/></g><!--link ICourseRepository to Course--><g id="link_ICourseRepository_Course"><path codeLine="76" d="M1157.4,74.7111 C1081.38,83.5411 968.84,110.8211 926.75,194.1211 C902.8,241.5211 902.8,624.7211 926.75,672.1211 C973.9,765.4311 1115.06,777.1111 1187.72,776.6311 " fill="none" id="ICourseRepository-to-Course" style="stroke:#181818;stroke-width:1.0;"/><polygon fill="#181818" points="1192.83,776.5711,1183.7849,772.6742,1187.8303,776.6282,1183.8763,780.6737,1192.83,776.5711" style="stroke:#181818;stroke-width:1.0;"/></g><!--SRC=[hLJDJlCm4BpxAVPO1448YSidL0bLW2fnGBGyW8atnQfZHsktW53V_RFZjFcf2GYHIn9xTdPsTsmddK9uNbnUN5n11W_IEbYuZK3ju9wuGCkONKjTSU8bs5Skp9lKAoYuiiWK5WwS0PAhLmT24kPE6irOnVCrNtdYENmo1lx95RUsvc_e8ti0x1ZRjI6Ehr7ZEozBhlr_6PGq77i8hoebSnvIxRT6KioCTcIKGkg2mvF15aaM7mrySl8FjaQA7kPqZ72oiKWBjDOhMI1jPOvdO2DsPZPaqJwIsKg1T1OBk_M57TPE1fdwaPFcrwkQEoJ-el0wRaq7SItp7PaoOYPv_VB1GV_rSW-PjYtOjPzI-mm5pn7cooEPmxQTGXLtddtrTKl4yci5XuRyGCgkFsTXIYuJ8pumrDv9119MnafdwACRd2hogOli5rb8BKA5lwpjkBIEoMDup-5V6poXF-WQ6En8VpEanhfpxO4hybwzqMAcZ4MnzramyPZ9Vj3ZXCHRNPyHqUJ_fj5_eNBCGNq3nTZWddOqgQlf_7mwTlpPs5sJPTFKOHgD2VbIisMfKzbFqFQN9TsT1VXXWoKT50ZZMfTjk19WSOtz1m00]--></g></svg>