<?xml version="1.0" encoding="us-ascii" standalone="no"?><svg xmlns="http://www.w3.org/2000/svg" xmlns:xlink="http://www.w3.org/1999/xlink" contentStyleType="text/css" height="740px" preserveAspectRatio="none" style="width:1995px;height:740px;background:#FFFFFF;" version="1.1" viewBox="0 0 1995 740" width="1995px" zoomAndPan="magnify"><defs/><g><text fill="#000000" font-family="sans-serif" font-size="14" font-weight="bold" lengthAdjust="spacing" textLength="203" x="895" y="30.1074">US2005 - List Student Grades</text><rect fill="#FFFFFF" height="482.3652" style="stroke:#181818;stroke-width:1.0;" width="10" x="243.5" y="156.5332"/><rect fill="#FFFFFF" height="156.4551" style="stroke:#181818;stroke-width:1.0;" width="10" x="713.5" y="219.1152"/><rect fill="#FFFFFF" height="156.4551" style="stroke:#181818;stroke-width:1.0;" width="10" x="713.5" y="451.1523"/><rect fill="#FFFFFF" height="93.873" style="stroke:#181818;stroke-width:1.0;" width="10" x="1062.5" y="250.4063"/><rect fill="#FFFFFF" height="31.291" style="stroke:#181818;stroke-width:1.0;" width="10" x="1391.5" y="281.6973"/><rect fill="#FFFFFF" height="93.873" style="stroke:#181818;stroke-width:1.0;" width="10" x="1567" y="482.4434"/><rect fill="#FFFFFF" height="31.291" style="stroke:#181818;stroke-width:1.0;" width="10" x="1906" y="513.7344"/><line style="stroke:#181818;stroke-width:0.5;stroke-dasharray:5.0,5.0;" x1="32" x2="32" y1="123.2422" y2="656.8984"/><line style="stroke:#181818;stroke-width:0.5;stroke-dasharray:5.0,5.0;" x1="248.5" x2="248.5" y1="123.2422" y2="656.8984"/><line style="stroke:#181818;stroke-width:0.5;stroke-dasharray:5.0,5.0;" x1="718.5" x2="718.5" y1="123.2422" y2="656.8984"/><line style="stroke:#181818;stroke-width:0.5;stroke-dasharray:5.0,5.0;" x1="1067" x2="1067" y1="123.2422" y2="656.8984"/><line style="stroke:#181818;stroke-width:0.5;stroke-dasharray:5.0,5.0;" x1="1396" x2="1396" y1="123.2422" y2="656.8984"/><line style="stroke:#181818;stroke-width:0.5;stroke-dasharray:5.0,5.0;" x1="1572" x2="1572" y1="123.2422" y2="656.8984"/><line style="stroke:#181818;stroke-width:0.5;stroke-dasharray:5.0,5.0;" x1="1911" x2="1911" y1="123.2422" y2="656.8984"/><text fill="#000000" font-family="sans-serif" font-size="14" lengthAdjust="spacing" textLength="49" x="5" y="119.7285">Student</text><ellipse cx="32.5" cy="53.1211" fill="#E2E2F0" rx="8" ry="8" style="stroke:#181818;stroke-width:0.5;"/><path d="M32.5,61.1211 L32.5,88.1211 M19.5,69.1211 L45.5,69.1211 M32.5,88.1211 L19.5,103.1211 M32.5,88.1211 L45.5,103.1211 " fill="none" style="stroke:#181818;stroke-width:0.5;"/><text fill="#000000" font-family="sans-serif" font-size="14" lengthAdjust="spacing" textLength="49" x="5" y="671.0059">Student</text><ellipse cx="32.5" cy="683.0195" fill="#E2E2F0" rx="8" ry="8" style="stroke:#181818;stroke-width:0.5;"/><path d="M32.5,691.0195 L32.5,718.0195 M19.5,699.0195 L45.5,699.0195 M32.5,718.0195 L19.5,733.0195 M32.5,718.0195 L45.5,733.0195 " fill="none" style="stroke:#181818;stroke-width:0.5;"/><rect fill="#E2E2F0" height="51.2422" rx="2.5" ry="2.5" style="stroke:#181818;stroke-width:0.5;" width="144" x="176.5" y="71"/><text fill="#000000" font-family="sans-serif" font-size="14" font-style="italic" lengthAdjust="spacing" textLength="30" x="233.5" y="93.1074">&#171;UI&#187;</text><text fill="#000000" font-family="sans-serif" font-size="14" lengthAdjust="spacing" textLength="130" x="183.5" y="111.7285">ListStudentGradesUI</text><rect fill="#E2E2F0" height="51.2422" rx="2.5" ry="2.5" style="stroke:#181818;stroke-width:0.5;" width="144" x="176.5" y="655.8984"/><text fill="#000000" font-family="sans-serif" font-size="14" font-style="italic" lengthAdjust="spacing" textLength="30" x="233.5" y="678.0059">&#171;UI&#187;</text><text fill="#000000" font-family="sans-serif" font-size="14" lengthAdjust="spacing" textLength="130" x="183.5" y="696.627">ListStudentGradesUI</text><rect fill="#E2E2F0" height="51.2422" rx="2.5" ry="2.5" style="stroke:#181818;stroke-width:0.5;" width="194" x="621.5" y="71"/><text fill="#000000" font-family="sans-serif" font-size="14" font-style="italic" lengthAdjust="spacing" textLength="85" x="676" y="93.1074">&#171;Application&#187;</text><text fill="#000000" font-family="sans-serif" font-size="14" lengthAdjust="spacing" textLength="180" x="628.5" y="111.7285">ListStudentGradesController</text><rect fill="#E2E2F0" height="51.2422" rx="2.5" ry="2.5" style="stroke:#181818;stroke-width:0.5;" width="194" x="621.5" y="655.8984"/><text fill="#000000" font-family="sans-serif" font-size="14" font-style="italic" lengthAdjust="spacing" textLength="85" x="676" y="678.0059">&#171;Application&#187;</text><text fill="#000000" font-family="sans-serif" font-size="14" lengthAdjust="spacing" textLength="180" x="628.5" y="696.627">ListStudentGradesController</text><rect fill="#E2E2F0" height="51.2422" rx="2.5" ry="2.5" style="stroke:#181818;stroke-width:0.5;" width="169" x="983" y="71"/><text fill="#000000" font-family="sans-serif" font-size="14" font-style="italic" lengthAdjust="spacing" textLength="62" x="1036.5" y="93.1074">&#171;Service&#187;</text><text fill="#000000" font-family="sans-serif" font-size="14" lengthAdjust="spacing" textLength="155" x="990" y="111.7285">StudentCoursesProvider</text><rect fill="#E2E2F0" height="51.2422" rx="2.5" ry="2.5" style="stroke:#181818;stroke-width:0.5;" width="169" x="983" y="655.8984"/><text fill="#000000" font-family="sans-serif" font-size="14" font-style="italic" lengthAdjust="spacing" textLength="62" x="1036.5" y="678.0059">&#171;Service&#187;</text><text fill="#000000" font-family="sans-serif" font-size="14" lengthAdjust="spacing" textLength="155" x="990" y="696.627">StudentCoursesProvider</text><rect fill="#E2E2F0" height="51.2422" rx="2.5" ry="2.5" style="stroke:#181818;stroke-width:0.5;" width="183" x="1305" y="71"/><text fill="#000000" font-family="sans-serif" font-size="14" font-style="italic" lengthAdjust="spacing" textLength="84" x="1354.5" y="93.1074">&#171;Repository&#187;</text><text fill="#000000" font-family="sans-serif" font-size="14" lengthAdjust="spacing" textLength="169" x="1312" y="111.7285">EnrolledStudentRepository</text><rect fill="#E2E2F0" height="51.2422" rx="2.5" ry="2.5" style="stroke:#181818;stroke-width:0.5;" width="183" x="1305" y="655.8984"/><text fill="#000000" font-family="sans-serif" font-size="14" font-style="italic" lengthAdjust="spacing" textLength="84" x="1354.5" y="678.0059">&#171;Repository&#187;</text><text fill="#000000" font-family="sans-serif" font-size="14" lengthAdjust="spacing" textLength="169" x="1312" y="696.627">EnrolledStudentRepository</text><rect fill="#E2E2F0" height="51.2422" rx="2.5" ry="2.5" style="stroke:#181818;stroke-width:0.5;" width="148" x="1498" y="71"/><text fill="#000000" font-family="sans-serif" font-size="14" font-style="italic" lengthAdjust="spacing" textLength="62" x="1541" y="93.1074">&#171;Service&#187;</text><text fill="#000000" font-family="sans-serif" font-size="14" lengthAdjust="spacing" textLength="134" x="1505" y="111.7285">TakenExamsProvider</text><rect fill="#E2E2F0" height="51.2422" rx="2.5" ry="2.5" style="stroke:#181818;stroke-width:0.5;" width="148" x="1498" y="655.8984"/><text fill="#000000" font-family="sans-serif" font-size="14" font-style="italic" lengthAdjust="spacing" textLength="62" x="1541" y="678.0059">&#171;Service&#187;</text><text fill="#000000" font-family="sans-serif" font-size="14" lengthAdjust="spacing" textLength="134" x="1505" y="696.627">TakenExamsProvider</text><rect fill="#E2E2F0" height="51.2422" rx="2.5" ry="2.5" style="stroke:#181818;stroke-width:0.5;" width="156" x="1833" y="71"/><text fill="#000000" font-family="sans-serif" font-size="14" font-style="italic" lengthAdjust="spacing" textLength="84" x="1869" y="93.1074">&#171;Repository&#187;</text><text fill="#000000" font-family="sans-serif" font-size="14" lengthAdjust="spacing" textLength="142" x="1840" y="111.7285">TakenExamRepository</text><rect fill="#E2E2F0" height="51.2422" rx="2.5" ry="2.5" style="stroke:#181818;stroke-width:0.5;" width="156" x="1833" y="655.8984"/><text fill="#000000" font-family="sans-serif" font-size="14" font-style="italic" lengthAdjust="spacing" textLength="84" x="1869" y="678.0059">&#171;Repository&#187;</text><text fill="#000000" font-family="sans-serif" font-size="14" lengthAdjust="spacing" textLength="142" x="1840" y="696.627">TakenExamRepository</text><rect fill="#FFFFFF" height="482.3652" style="stroke:#181818;stroke-width:1.0;" width="10" x="243.5" y="156.5332"/><rect fill="#FFFFFF" height="156.4551" style="stroke:#181818;stroke-width:1.0;" width="10" x="713.5" y="219.1152"/><rect fill="#FFFFFF" height="156.4551" style="stroke:#181818;stroke-width:1.0;" width="10" x="713.5" y="451.1523"/><rect fill="#FFFFFF" height="93.873" style="stroke:#181818;stroke-width:1.0;" width="10" x="1062.5" y="250.4063"/><rect fill="#FFFFFF" height="31.291" style="stroke:#181818;stroke-width:1.0;" width="10" x="1391.5" y="281.6973"/><rect fill="#FFFFFF" height="93.873" style="stroke:#181818;stroke-width:1.0;" width="10" x="1567" y="482.4434"/><rect fill="#FFFFFF" height="31.291" style="stroke:#181818;stroke-width:1.0;" width="10" x="1906" y="513.7344"/><polygon fill="#181818" points="231.5,152.5332,241.5,156.5332,231.5,160.5332,235.5,156.5332" style="stroke:#181818;stroke-width:1.0;"/><line style="stroke:#181818;stroke-width:1.0;stroke-dasharray:2.0,2.0;" x1="32.5" x2="237.5" y1="156.5332" y2="156.5332"/><text fill="#000000" font-family="sans-serif" font-size="13" font-weight="bold" lengthAdjust="spacing" textLength="7" x="39.5" y="151.2705">1</text><text fill="#000000" font-family="sans-serif" font-size="13" lengthAdjust="spacing" textLength="181" x="50.5" y="151.2705">asks to view a list of his grades</text><polygon fill="#181818" points="706.5,183.8242,716.5,187.8242,706.5,191.8242,710.5,187.8242" style="stroke:#181818;stroke-width:1.0;"/><line style="stroke:#181818;stroke-width:1.0;" x1="253.5" x2="712.5" y1="187.8242" y2="187.8242"/><text fill="#000000" font-family="sans-serif" font-size="13" font-weight="bold" lengthAdjust="spacing" textLength="7" x="260.5" y="182.5615">2</text><text fill="#000000" font-family="sans-serif" font-size="13" lengthAdjust="spacing" textLength="430" x="271.5" y="182.5615">create(userSessionService, studentCoursesProvider, takenExamsProvider)</text><polygon fill="#181818" points="701.5,215.1152,711.5,219.1152,701.5,223.1152,705.5,219.1152" style="stroke:#181818;stroke-width:1.0;"/><line style="stroke:#181818;stroke-width:1.0;" x1="253.5" x2="707.5" y1="219.1152" y2="219.1152"/><text fill="#000000" font-family="sans-serif" font-size="13" font-weight="bold" lengthAdjust="spacing" textLength="7" x="260.5" y="213.8525">3</text><text fill="#000000" font-family="sans-serif" font-size="13" lengthAdjust="spacing" textLength="99" x="271.5" y="213.8525">studentCourses()</text><polygon fill="#181818" points="1050.5,246.4063,1060.5,250.4063,1050.5,254.4063,1054.5,250.4063" style="stroke:#181818;stroke-width:1.0;"/><line style="stroke:#181818;stroke-width:1.0;" x1="723.5" x2="1056.5" y1="250.4063" y2="250.4063"/><text fill="#000000" font-family="sans-serif" font-size="13" font-weight="bold" lengthAdjust="spacing" textLength="7" x="730.5" y="245.1436">4</text><text fill="#000000" font-family="sans-serif" font-size="13" lengthAdjust="spacing" textLength="309" x="741.5" y="245.1436">provideStudentInProgressAndClosedCourses(student)</text><polygon fill="#181818" points="1379.5,277.6973,1389.5,281.6973,1379.5,285.6973,1383.5,281.6973" style="stroke:#181818;stroke-width:1.0;"/><line style="stroke:#181818;stroke-width:1.0;" x1="1072.5" x2="1385.5" y1="281.6973" y2="281.6973"/><text fill="#000000" font-family="sans-serif" font-size="13" font-weight="bold" lengthAdjust="spacing" textLength="7" x="1079.5" y="276.4346">5</text><text fill="#000000" font-family="sans-serif" font-size="13" lengthAdjust="spacing" textLength="289" x="1090.5" y="276.4346">findStudentInProgressAndClosedCourses(student)</text><polygon fill="#181818" points="1083.5,308.9883,1073.5,312.9883,1083.5,316.9883,1079.5,312.9883" style="stroke:#181818;stroke-width:1.0;"/><line style="stroke:#181818;stroke-width:1.0;stroke-dasharray:2.0,2.0;" x1="1077.5" x2="1395.5" y1="312.9883" y2="312.9883"/><text fill="#000000" font-family="sans-serif" font-size="13" font-weight="bold" lengthAdjust="spacing" textLength="7" x="1089.5" y="307.7256">6</text><text fill="#000000" font-family="sans-serif" font-size="13" lengthAdjust="spacing" textLength="46" x="1100.5" y="307.7256">courses</text><polygon fill="#181818" points="734.5,340.2793,724.5,344.2793,734.5,348.2793,730.5,344.2793" style="stroke:#181818;stroke-width:1.0;"/><line style="stroke:#181818;stroke-width:1.0;stroke-dasharray:2.0,2.0;" x1="728.5" x2="1066.5" y1="344.2793" y2="344.2793"/><text fill="#000000" font-family="sans-serif" font-size="13" font-weight="bold" lengthAdjust="spacing" textLength="7" x="740.5" y="339.0166">7</text><text fill="#000000" font-family="sans-serif" font-size="13" lengthAdjust="spacing" textLength="46" x="751.5" y="339.0166">courses</text><polygon fill="#181818" points="264.5,371.5703,254.5,375.5703,264.5,379.5703,260.5,375.5703" style="stroke:#181818;stroke-width:1.0;"/><line style="stroke:#181818;stroke-width:1.0;" x1="258.5" x2="717.5" y1="375.5703" y2="375.5703"/><text fill="#000000" font-family="sans-serif" font-size="13" font-weight="bold" lengthAdjust="spacing" textLength="7" x="270.5" y="370.3076">8</text><text fill="#000000" font-family="sans-serif" font-size="13" lengthAdjust="spacing" textLength="46" x="281.5" y="370.3076">courses</text><line style="stroke:#181818;stroke-width:1.0;" x1="253.5" x2="295.5" y1="406.8613" y2="406.8613"/><line style="stroke:#181818;stroke-width:1.0;" x1="295.5" x2="295.5" y1="406.8613" y2="419.8613"/><line style="stroke:#181818;stroke-width:1.0;" x1="254.5" x2="295.5" y1="419.8613" y2="419.8613"/><polygon fill="#181818" points="264.5,415.8613,254.5,419.8613,264.5,423.8613,260.5,419.8613" style="stroke:#181818;stroke-width:1.0;"/><text fill="#000000" font-family="sans-serif" font-size="13" font-weight="bold" lengthAdjust="spacing" textLength="7" x="260.5" y="401.5986">9</text><text fill="#000000" font-family="sans-serif" font-size="13" lengthAdjust="spacing" textLength="178" x="271.5" y="401.5986">menuToSelectCourse(courses)</text><polygon fill="#181818" points="701.5,447.1523,711.5,451.1523,701.5,455.1523,705.5,451.1523" style="stroke:#181818;stroke-width:1.0;"/><line style="stroke:#181818;stroke-width:1.0;" x1="253.5" x2="707.5" y1="451.1523" y2="451.1523"/><text fill="#000000" font-family="sans-serif" font-size="13" font-weight="bold" lengthAdjust="spacing" textLength="14" x="260.5" y="445.8896">10</text><text fill="#000000" font-family="sans-serif" font-size="13" lengthAdjust="spacing" textLength="191" x="278.5" y="445.8896">takenExamsFromCourse(course)</text><polygon fill="#181818" points="1555,478.4434,1565,482.4434,1555,486.4434,1559,482.4434" style="stroke:#181818;stroke-width:1.0;"/><line style="stroke:#181818;stroke-width:1.0;" x1="723.5" x2="1561" y1="482.4434" y2="482.4434"/><text fill="#000000" font-family="sans-serif" font-size="13" font-weight="bold" lengthAdjust="spacing" textLength="14" x="730.5" y="477.1807">11</text><text fill="#000000" font-family="sans-serif" font-size="13" lengthAdjust="spacing" textLength="354" x="748.5" y="477.1807">provideUserGradedTakenExamsFromCourse(student, course)</text><polygon fill="#181818" points="1894,509.7344,1904,513.7344,1894,517.7344,1898,513.7344" style="stroke:#181818;stroke-width:1.0;"/><line style="stroke:#181818;stroke-width:1.0;" x1="1577" x2="1900" y1="513.7344" y2="513.7344"/><text fill="#000000" font-family="sans-serif" font-size="13" font-weight="bold" lengthAdjust="spacing" textLength="14" x="1584" y="508.4717">12</text><text fill="#000000" font-family="sans-serif" font-size="13" lengthAdjust="spacing" textLength="292" x="1602" y="508.4717">findUserTakenExamsFromCourse(student, course)</text><polygon fill="#181818" points="1588,541.0254,1578,545.0254,1588,549.0254,1584,545.0254" style="stroke:#181818;stroke-width:1.0;"/><line style="stroke:#181818;stroke-width:1.0;stroke-dasharray:2.0,2.0;" x1="1582" x2="1910" y1="545.0254" y2="545.0254"/><text fill="#000000" font-family="sans-serif" font-size="13" font-weight="bold" lengthAdjust="spacing" textLength="14" x="1594" y="539.7627">13</text><text fill="#000000" font-family="sans-serif" font-size="13" lengthAdjust="spacing" textLength="73" x="1612" y="539.7627">takenExams</text><polygon fill="#181818" points="734.5,572.3164,724.5,576.3164,734.5,580.3164,730.5,576.3164" style="stroke:#181818;stroke-width:1.0;"/><line style="stroke:#181818;stroke-width:1.0;stroke-dasharray:2.0,2.0;" x1="728.5" x2="1571" y1="576.3164" y2="576.3164"/><text fill="#000000" font-family="sans-serif" font-size="13" font-weight="bold" lengthAdjust="spacing" textLength="14" x="740.5" y="571.0537">14</text><text fill="#000000" font-family="sans-serif" font-size="13" lengthAdjust="spacing" textLength="73" x="758.5" y="571.0537">takenExams</text><polygon fill="#181818" points="264.5,603.6074,254.5,607.6074,264.5,611.6074,260.5,607.6074" style="stroke:#181818;stroke-width:1.0;"/><line style="stroke:#181818;stroke-width:1.0;" x1="258.5" x2="717.5" y1="607.6074" y2="607.6074"/><text fill="#000000" font-family="sans-serif" font-size="13" font-weight="bold" lengthAdjust="spacing" textLength="14" x="270.5" y="602.3447">15</text><text fill="#000000" font-family="sans-serif" font-size="13" lengthAdjust="spacing" textLength="73" x="288.5" y="602.3447">takenExams</text><polygon fill="#181818" points="43.5,634.8984,33.5,638.8984,43.5,642.8984,39.5,638.8984" style="stroke:#181818;stroke-width:1.0;"/><line style="stroke:#181818;stroke-width:1.0;" x1="37.5" x2="247.5" y1="638.8984" y2="638.8984"/><text fill="#000000" font-family="sans-serif" font-size="13" font-weight="bold" lengthAdjust="spacing" textLength="14" x="49.5" y="633.6357">16</text><text fill="#000000" font-family="sans-serif" font-size="13" lengthAdjust="spacing" textLength="91" x="67.5" y="633.6357">displays grades</text><!--SRC=[dPF1QkCm48RlUegXfnGIA8MzX18emhiOSYXH_01QQvAAo9AHv7JxzZkorJfEt5rsh-F__sVc6olgQ10gyVZmy0rMiDKXWeYTGXlXXvSA0sEoYyvspK_qB9oqRQMN3OHNgToRjaSuI1EGL7Lq_jCh0mX6ogXhtKegtANe_7K8higx9AjAU7ggoitcBtBkRFJE6FIzRSl9zjosHjSoQcUl_TdBNUS3XXVlpbfbgn1a5UZFkiPhMs7x7YhRTzYwe6cnzzx9T-GSQzVclJoXBNx9PjgF_w7Vf-MgKt7JYGbOhJO9rve4fm3HmLdZ6qWmwMhk0AywmF7ZQ7NKPndfjYLZP2Bhbg-XzaZ5HHVG2mo1mEN1bX1cYIqXtcnrVvaujItkBrflEMDq9n8AiOPsS6UofQMqewSPdgtYnWLK7n4vyJ992DfVf2I-MyD1M_LVCNp76DrmbIUg1oLZ2YSICQ3kUSr8qZ33MbKvhqYB3uIIea7RxPr0WtN6jCYc2SYHytVlcebm7YeVeLPqp_wPgFrSIaQnXDiuJilmdcoHoQQiVqqfY5enW4rJZQjCi2GL7zb-eU8Jl5-8HiA2teFIeJNoVVpx9rfw0Ry1]--></g></svg>