<?xml version="1.0" encoding="us-ascii" standalone="no"?><svg xmlns="http://www.w3.org/2000/svg" xmlns:xlink="http://www.w3.org/1999/xlink" contentStyleType="text/css" height="1014px" preserveAspectRatio="none" style="width:1908px;height:1014px;background:#FFFFFF;" version="1.1" viewBox="0 0 1908 1014" width="1908px" zoomAndPan="magnify"><defs/><g><text fill="#000000" font-family="sans-serif" font-size="14" font-weight="bold" lengthAdjust="spacing" textLength="122" x="894.75" y="30.1074">Cancel a Meeting</text><rect fill="#FFFFFF" height="736.4023" style="stroke:#181818;stroke-width:1.0;" width="10" x="178.5" y="161.1543"/><rect fill="#FFFFFF" height="156.4551" style="stroke:#181818;stroke-width:1.0;" width="10" x="472.5" y="223.7363"/><rect fill="#FFFFFF" height="382.9102" style="stroke:#181818;stroke-width:1.0;" width="10" x="472.5" y="491.3555"/><rect fill="#FFFFFF" height="93.873" style="stroke:#181818;stroke-width:1.0;" width="10" x="752.5" y="255.0273"/><rect fill="#FFFFFF" height="31.291" style="stroke:#181818;stroke-width:1.0;" width="10" x="1005.5" y="286.3184"/><rect fill="#FFFFFF" height="351.6191" style="stroke:#181818;stroke-width:1.0;" width="10" x="1137.5" y="522.6465"/><rect fill="#FFFFFF" height="30" style="stroke:#181818;stroke-width:1.0;" width="10" x="1245.5" y="553.9375"/><rect fill="#FFFFFF" height="93.873" style="stroke:#181818;stroke-width:1.0;" width="10" x="1443.5" y="646.5195"/><rect fill="#FFFFFF" height="31.291" style="stroke:#181818;stroke-width:1.0;" width="10" x="1667.5" y="677.8105"/><rect fill="#FFFFFF" height="30" style="stroke:#181818;stroke-width:1.0;" width="10" x="1827.5" y="797.9746"/><rect fill="none" height="111.873" style="stroke:#000000;stroke-width:1.5;" width="830" x="1072.5" y="755.3926"/><line style="stroke:#181818;stroke-width:0.5;stroke-dasharray:5.0,5.0;" x1="22" x2="22" y1="127.8633" y2="915.5566"/><line style="stroke:#181818;stroke-width:0.5;stroke-dasharray:5.0,5.0;" x1="183.5" x2="183.5" y1="127.8633" y2="915.5566"/><line style="stroke:#181818;stroke-width:0.5;stroke-dasharray:5.0,5.0;" x1="477.5" x2="477.5" y1="127.8633" y2="915.5566"/><line style="stroke:#181818;stroke-width:0.5;stroke-dasharray:5.0,5.0;" x1="757" x2="757" y1="127.8633" y2="915.5566"/><line style="stroke:#181818;stroke-width:0.5;stroke-dasharray:5.0,5.0;" x1="1010.5" x2="1010.5" y1="127.8633" y2="915.5566"/><line style="stroke:#181818;stroke-width:0.5;stroke-dasharray:5.0,5.0;" x1="1142.5" x2="1142.5" y1="127.8633" y2="915.5566"/><line style="stroke:#181818;stroke-width:0.5;stroke-dasharray:5.0,5.0;" x1="1250.5" x2="1250.5" y1="127.8633" y2="915.5566"/><line style="stroke:#181818;stroke-width:0.5;stroke-dasharray:5.0,5.0;" x1="1448" x2="1448" y1="127.8633" y2="915.5566"/><line style="stroke:#181818;stroke-width:0.5;stroke-dasharray:5.0,5.0;" x1="1672.5" x2="1672.5" y1="127.8633" y2="915.5566"/><line style="stroke:#181818;stroke-width:0.5;stroke-dasharray:5.0,5.0;" x1="1832.5" x2="1832.5" y1="127.8633" y2="915.5566"/><text fill="#000000" font-family="sans-serif" font-size="14" lengthAdjust="spacing" textLength="29" x="5" y="124.3496">User</text><ellipse cx="22.5" cy="57.7422" fill="#E2E2F0" rx="8" ry="8" style="stroke:#181818;stroke-width:0.5;"/><path d="M22.5,65.7422 L22.5,92.7422 M9.5,73.7422 L35.5,73.7422 M22.5,92.7422 L9.5,107.7422 M22.5,92.7422 L35.5,107.7422 " fill="none" style="stroke:#181818;stroke-width:0.5;"/><text fill="#000000" font-family="sans-serif" font-size="14" lengthAdjust="spacing" textLength="29" x="5" y="929.6641">User</text><ellipse cx="22.5" cy="941.6777" fill="#E2E2F0" rx="8" ry="8" style="stroke:#181818;stroke-width:0.5;"/><path d="M22.5,949.6777 L22.5,976.6777 M9.5,957.6777 L35.5,957.6777 M22.5,976.6777 L9.5,991.6777 M22.5,976.6777 L35.5,991.6777 " fill="none" style="stroke:#181818;stroke-width:0.5;"/><rect fill="#E2E2F0" height="51.2422" rx="2.5" ry="2.5" style="stroke:#181818;stroke-width:0.5;" width="120" x="123.5" y="75.6211"/><text fill="#000000" font-family="sans-serif" font-size="14" font-style="italic" lengthAdjust="spacing" textLength="27" x="170" y="97.7285">&#171;ui&#187;</text><text fill="#000000" font-family="sans-serif" font-size="14" lengthAdjust="spacing" textLength="106" x="130.5" y="116.3496">CancelMeetingUI</text><rect fill="#E2E2F0" height="51.2422" rx="2.5" ry="2.5" style="stroke:#181818;stroke-width:0.5;" width="120" x="123.5" y="914.5566"/><text fill="#000000" font-family="sans-serif" font-size="14" font-style="italic" lengthAdjust="spacing" textLength="27" x="170" y="936.6641">&#171;ui&#187;</text><text fill="#000000" font-family="sans-serif" font-size="14" lengthAdjust="spacing" textLength="106" x="130.5" y="955.2852">CancelMeetingUI</text><rect fill="#E2E2F0" height="51.2422" rx="2.5" ry="2.5" style="stroke:#181818;stroke-width:0.5;" width="170" x="392.5" y="75.6211"/><text fill="#000000" font-family="sans-serif" font-size="14" font-style="italic" lengthAdjust="spacing" textLength="84" x="435.5" y="97.7285">&#171;application&#187;</text><text fill="#000000" font-family="sans-serif" font-size="14" lengthAdjust="spacing" textLength="156" x="399.5" y="116.3496">CancelMeetingController</text><rect fill="#E2E2F0" height="51.2422" rx="2.5" ry="2.5" style="stroke:#181818;stroke-width:0.5;" width="170" x="392.5" y="914.5566"/><text fill="#000000" font-family="sans-serif" font-size="14" font-style="italic" lengthAdjust="spacing" textLength="84" x="435.5" y="936.6641">&#171;application&#187;</text><text fill="#000000" font-family="sans-serif" font-size="14" lengthAdjust="spacing" textLength="156" x="399.5" y="955.2852">CancelMeetingController</text><rect fill="#E2E2F0" height="51.2422" rx="2.5" ry="2.5" style="stroke:#181818;stroke-width:0.5;" width="117" x="699" y="75.6211"/><text fill="#000000" font-family="sans-serif" font-size="14" font-style="italic" lengthAdjust="spacing" textLength="84" x="715.5" y="97.7285">&#171;application&#187;</text><text fill="#000000" font-family="sans-serif" font-size="14" lengthAdjust="spacing" textLength="103" x="706" y="116.3496">MeetingProvider</text><rect fill="#E2E2F0" height="51.2422" rx="2.5" ry="2.5" style="stroke:#181818;stroke-width:0.5;" width="117" x="699" y="914.5566"/><text fill="#000000" font-family="sans-serif" font-size="14" font-style="italic" lengthAdjust="spacing" textLength="84" x="715.5" y="936.6641">&#171;application&#187;</text><text fill="#000000" font-family="sans-serif" font-size="14" lengthAdjust="spacing" textLength="103" x="706" y="955.2852">MeetingProvider</text><text fill="#000000" font-family="sans-serif" font-size="14" font-style="italic" lengthAdjust="spacing" textLength="79" x="968" y="105.7285">&#171;repository&#187;</text><text fill="#000000" font-family="sans-serif" font-size="14" lengthAdjust="spacing" textLength="118" x="948.5" y="124.3496">MeetingRepository</text><path d="M992.5,54.6211 C992.5,44.6211 1010.5,44.6211 1010.5,44.6211 C1010.5,44.6211 1028.5,44.6211 1028.5,54.6211 L1028.5,80.6211 C1028.5,90.6211 1010.5,90.6211 1010.5,90.6211 C1010.5,90.6211 992.5,90.6211 992.5,80.6211 L992.5,54.6211 " fill="#E2E2F0" style="stroke:#181818;stroke-width:1.5;"/><path d="M992.5,54.6211 C992.5,64.6211 1010.5,64.6211 1010.5,64.6211 C1010.5,64.6211 1028.5,64.6211 1028.5,54.6211 " fill="none" style="stroke:#181818;stroke-width:1.5;"/><text fill="#000000" font-family="sans-serif" font-size="14" font-style="italic" lengthAdjust="spacing" textLength="79" x="968" y="929.6641">&#171;repository&#187;</text><text fill="#000000" font-family="sans-serif" font-size="14" lengthAdjust="spacing" textLength="118" x="948.5" y="948.2852">MeetingRepository</text><path d="M992.5,961.7988 C992.5,951.7988 1010.5,951.7988 1010.5,951.7988 C1010.5,951.7988 1028.5,951.7988 1028.5,961.7988 L1028.5,987.7988 C1028.5,997.7988 1010.5,997.7988 1010.5,997.7988 C1010.5,997.7988 992.5,997.7988 992.5,987.7988 L992.5,961.7988 " fill="#E2E2F0" style="stroke:#181818;stroke-width:1.5;"/><path d="M992.5,961.7988 C992.5,971.7988 1010.5,971.7988 1010.5,971.7988 C1010.5,971.7988 1028.5,971.7988 1028.5,961.7988 " fill="none" style="stroke:#181818;stroke-width:1.5;"/><rect fill="#E2E2F0" height="51.2422" rx="2.5" ry="2.5" style="stroke:#181818;stroke-width:0.5;" width="120" x="1082.5" y="75.6211"/><text fill="#000000" font-family="sans-serif" font-size="14" font-style="italic" lengthAdjust="spacing" textLength="62" x="1111.5" y="97.7285">&#171;domain&#187;</text><text fill="#000000" font-family="sans-serif" font-size="14" lengthAdjust="spacing" textLength="106" x="1089.5" y="116.3496">MeetingManager</text><rect fill="#E2E2F0" height="51.2422" rx="2.5" ry="2.5" style="stroke:#181818;stroke-width:0.5;" width="120" x="1082.5" y="914.5566"/><text fill="#000000" font-family="sans-serif" font-size="14" font-style="italic" lengthAdjust="spacing" textLength="62" x="1111.5" y="936.6641">&#171;domain&#187;</text><text fill="#000000" font-family="sans-serif" font-size="14" lengthAdjust="spacing" textLength="106" x="1089.5" y="955.2852">MeetingManager</text><rect fill="#E2E2F0" height="51.2422" rx="2.5" ry="2.5" style="stroke:#181818;stroke-width:0.5;" width="76" x="1212.5" y="75.6211"/><text fill="#000000" font-family="sans-serif" font-size="14" font-style="italic" lengthAdjust="spacing" textLength="62" x="1219.5" y="97.7285">&#171;domain&#187;</text><text fill="#000000" font-family="sans-serif" font-size="14" lengthAdjust="spacing" textLength="50" x="1225.5" y="116.3496">Meeting</text><rect fill="#E2E2F0" height="51.2422" rx="2.5" ry="2.5" style="stroke:#181818;stroke-width:0.5;" width="76" x="1212.5" y="914.5566"/><text fill="#000000" font-family="sans-serif" font-size="14" font-style="italic" lengthAdjust="spacing" textLength="62" x="1219.5" y="936.6641">&#171;domain&#187;</text><text fill="#000000" font-family="sans-serif" font-size="14" lengthAdjust="spacing" textLength="50" x="1225.5" y="955.2852">Meeting</text><rect fill="#E2E2F0" height="51.2422" rx="2.5" ry="2.5" style="stroke:#181818;stroke-width:0.5;" width="173" x="1362" y="75.6211"/><text fill="#000000" font-family="sans-serif" font-size="14" font-style="italic" lengthAdjust="spacing" textLength="84" x="1406.5" y="97.7285">&#171;application&#187;</text><text fill="#000000" font-family="sans-serif" font-size="14" lengthAdjust="spacing" textLength="159" x="1369" y="116.3496">MeetingInvitationProvider</text><rect fill="#E2E2F0" height="51.2422" rx="2.5" ry="2.5" style="stroke:#181818;stroke-width:0.5;" width="173" x="1362" y="914.5566"/><text fill="#000000" font-family="sans-serif" font-size="14" font-style="italic" lengthAdjust="spacing" textLength="84" x="1406.5" y="936.6641">&#171;application&#187;</text><text fill="#000000" font-family="sans-serif" font-size="14" lengthAdjust="spacing" textLength="159" x="1369" y="955.2852">MeetingInvitationProvider</text><text fill="#000000" font-family="sans-serif" font-size="14" font-style="italic" lengthAdjust="spacing" textLength="79" x="1630" y="105.7285">&#171;repository&#187;</text><text fill="#000000" font-family="sans-serif" font-size="14" lengthAdjust="spacing" textLength="174" x="1582.5" y="124.3496">MeetingInvitationRepository</text><path d="M1654.5,54.6211 C1654.5,44.6211 1672.5,44.6211 1672.5,44.6211 C1672.5,44.6211 1690.5,44.6211 1690.5,54.6211 L1690.5,80.6211 C1690.5,90.6211 1672.5,90.6211 1672.5,90.6211 C1672.5,90.6211 1654.5,90.6211 1654.5,80.6211 L1654.5,54.6211 " fill="#E2E2F0" style="stroke:#181818;stroke-width:1.5;"/><path d="M1654.5,54.6211 C1654.5,64.6211 1672.5,64.6211 1672.5,64.6211 C1672.5,64.6211 1690.5,64.6211 1690.5,54.6211 " fill="none" style="stroke:#181818;stroke-width:1.5;"/><text fill="#000000" font-family="sans-serif" font-size="14" font-style="italic" lengthAdjust="spacing" textLength="79" x="1630" y="929.6641">&#171;repository&#187;</text><text fill="#000000" font-family="sans-serif" font-size="14" lengthAdjust="spacing" textLength="174" x="1582.5" y="948.2852">MeetingInvitationRepository</text><path d="M1654.5,961.7988 C1654.5,951.7988 1672.5,951.7988 1672.5,951.7988 C1672.5,951.7988 1690.5,951.7988 1690.5,961.7988 L1690.5,987.7988 C1690.5,997.7988 1672.5,997.7988 1672.5,997.7988 C1672.5,997.7988 1654.5,997.7988 1654.5,987.7988 L1654.5,961.7988 " fill="#E2E2F0" style="stroke:#181818;stroke-width:1.5;"/><path d="M1654.5,961.7988 C1654.5,971.7988 1672.5,971.7988 1672.5,971.7988 C1672.5,971.7988 1690.5,971.7988 1690.5,961.7988 " fill="none" style="stroke:#181818;stroke-width:1.5;"/><rect fill="#E2E2F0" height="51.2422" rx="2.5" ry="2.5" style="stroke:#181818;stroke-width:0.5;" width="120" x="1772.5" y="75.6211"/><text fill="#000000" font-family="sans-serif" font-size="14" font-style="italic" lengthAdjust="spacing" textLength="62" x="1801.5" y="97.7285">&#171;domain&#187;</text><text fill="#000000" font-family="sans-serif" font-size="14" lengthAdjust="spacing" textLength="106" x="1779.5" y="116.3496">MeetingInvitation</text><rect fill="#E2E2F0" height="51.2422" rx="2.5" ry="2.5" style="stroke:#181818;stroke-width:0.5;" width="120" x="1772.5" y="914.5566"/><text fill="#000000" font-family="sans-serif" font-size="14" font-style="italic" lengthAdjust="spacing" textLength="62" x="1801.5" y="936.6641">&#171;domain&#187;</text><text fill="#000000" font-family="sans-serif" font-size="14" lengthAdjust="spacing" textLength="106" x="1779.5" y="955.2852">MeetingInvitation</text><rect fill="#FFFFFF" height="736.4023" style="stroke:#181818;stroke-width:1.0;" width="10" x="178.5" y="161.1543"/><rect fill="#FFFFFF" height="156.4551" style="stroke:#181818;stroke-width:1.0;" width="10" x="472.5" y="223.7363"/><rect fill="#FFFFFF" height="382.9102" style="stroke:#181818;stroke-width:1.0;" width="10" x="472.5" y="491.3555"/><rect fill="#FFFFFF" height="93.873" style="stroke:#181818;stroke-width:1.0;" width="10" x="752.5" y="255.0273"/><rect fill="#FFFFFF" height="31.291" style="stroke:#181818;stroke-width:1.0;" width="10" x="1005.5" y="286.3184"/><rect fill="#FFFFFF" height="351.6191" style="stroke:#181818;stroke-width:1.0;" width="10" x="1137.5" y="522.6465"/><rect fill="#FFFFFF" height="30" style="stroke:#181818;stroke-width:1.0;" width="10" x="1245.5" y="553.9375"/><rect fill="#FFFFFF" height="93.873" style="stroke:#181818;stroke-width:1.0;" width="10" x="1443.5" y="646.5195"/><rect fill="#FFFFFF" height="31.291" style="stroke:#181818;stroke-width:1.0;" width="10" x="1667.5" y="677.8105"/><rect fill="#FFFFFF" height="30" style="stroke:#181818;stroke-width:1.0;" width="10" x="1827.5" y="797.9746"/><polygon fill="#181818" points="166.5,157.1543,176.5,161.1543,166.5,165.1543,170.5,161.1543" style="stroke:#181818;stroke-width:1.0;"/><line style="stroke:#181818;stroke-width:1.0;" x1="0" x2="172.5" y1="161.1543" y2="161.1543"/><text fill="#000000" font-family="sans-serif" font-size="13" font-weight="bold" lengthAdjust="spacing" textLength="7" x="7" y="155.8916">1</text><text fill="#000000" font-family="sans-serif" font-size="13" lengthAdjust="spacing" textLength="42" x="18" y="155.8916">onLoad</text><polygon fill="#181818" points="465.5,188.4453,475.5,192.4453,465.5,196.4453,469.5,192.4453" style="stroke:#181818;stroke-width:1.0;"/><line style="stroke:#181818;stroke-width:1.0;" x1="188.5" x2="471.5" y1="192.4453" y2="192.4453"/><text fill="#000000" font-family="sans-serif" font-size="13" font-weight="bold" lengthAdjust="spacing" textLength="7" x="195.5" y="187.1826">2</text><text fill="#000000" font-family="sans-serif" font-size="13" lengthAdjust="spacing" textLength="254" x="206.5" y="187.1826">creates(meetingsProvider, meetingManager)</text><polygon fill="#181818" points="460.5,219.7363,470.5,223.7363,460.5,227.7363,464.5,223.7363" style="stroke:#181818;stroke-width:1.0;"/><line style="stroke:#181818;stroke-width:1.0;" x1="188.5" x2="466.5" y1="223.7363" y2="223.7363"/><text fill="#000000" font-family="sans-serif" font-size="13" font-weight="bold" lengthAdjust="spacing" textLength="7" x="195.5" y="218.4736">3</text><text fill="#000000" font-family="sans-serif" font-size="13" lengthAdjust="spacing" textLength="142" x="206.5" y="218.4736">listCancelableMeetings()</text><polygon fill="#181818" points="740.5,251.0273,750.5,255.0273,740.5,259.0273,744.5,255.0273" style="stroke:#181818;stroke-width:1.0;"/><line style="stroke:#181818;stroke-width:1.0;" x1="482.5" x2="746.5" y1="255.0273" y2="255.0273"/><text fill="#000000" font-family="sans-serif" font-size="13" font-weight="bold" lengthAdjust="spacing" textLength="7" x="489.5" y="249.7646">4</text><text fill="#000000" font-family="sans-serif" font-size="13" lengthAdjust="spacing" textLength="240" x="500.5" y="249.7646">provideScheduledMeetingsByOwner(user)</text><polygon fill="#181818" points="993.5,282.3184,1003.5,286.3184,993.5,290.3184,997.5,286.3184" style="stroke:#181818;stroke-width:1.0;"/><line style="stroke:#181818;stroke-width:1.0;" x1="762.5" x2="999.5" y1="286.3184" y2="286.3184"/><text fill="#000000" font-family="sans-serif" font-size="13" font-weight="bold" lengthAdjust="spacing" textLength="7" x="769.5" y="281.0557">5</text><text fill="#000000" font-family="sans-serif" font-size="13" lengthAdjust="spacing" textLength="213" x="780.5" y="281.0557">findScheduledMeetingByOwner(user)</text><polygon fill="#181818" points="773.5,313.6094,763.5,317.6094,773.5,321.6094,769.5,317.6094" style="stroke:#181818;stroke-width:1.0;"/><line style="stroke:#181818;stroke-width:1.0;stroke-dasharray:2.0,2.0;" x1="767.5" x2="1009.5" y1="317.6094" y2="317.6094"/><text fill="#000000" font-family="sans-serif" font-size="13" font-weight="bold" lengthAdjust="spacing" textLength="7" x="779.5" y="312.3467">6</text><text fill="#000000" font-family="sans-serif" font-size="13" lengthAdjust="spacing" textLength="53" x="790.5" y="312.3467">meetings</text><polygon fill="#181818" points="493.5,344.9004,483.5,348.9004,493.5,352.9004,489.5,348.9004" style="stroke:#181818;stroke-width:1.0;"/><line style="stroke:#181818;stroke-width:1.0;stroke-dasharray:2.0,2.0;" x1="487.5" x2="756.5" y1="348.9004" y2="348.9004"/><text fill="#000000" font-family="sans-serif" font-size="13" font-weight="bold" lengthAdjust="spacing" textLength="7" x="499.5" y="343.6377">7</text><text fill="#000000" font-family="sans-serif" font-size="13" lengthAdjust="spacing" textLength="53" x="510.5" y="343.6377">meetings</text><polygon fill="#181818" points="199.5,376.1914,189.5,380.1914,199.5,384.1914,195.5,380.1914" style="stroke:#181818;stroke-width:1.0;"/><line style="stroke:#181818;stroke-width:1.0;stroke-dasharray:2.0,2.0;" x1="193.5" x2="476.5" y1="380.1914" y2="380.1914"/><text fill="#000000" font-family="sans-serif" font-size="13" font-weight="bold" lengthAdjust="spacing" textLength="7" x="205.5" y="374.9287">8</text><text fill="#000000" font-family="sans-serif" font-size="13" lengthAdjust="spacing" textLength="53" x="216.5" y="374.9287">meetings</text><polygon fill="#181818" points="33.5,407.4824,23.5,411.4824,33.5,415.4824,29.5,411.4824" style="stroke:#181818;stroke-width:1.0;"/><line style="stroke:#181818;stroke-width:1.0;stroke-dasharray:2.0,2.0;" x1="27.5" x2="177.5" y1="411.4824" y2="411.4824"/><text fill="#000000" font-family="sans-serif" font-size="13" font-weight="bold" lengthAdjust="spacing" textLength="7" x="39.5" y="406.2197">9</text><text fill="#000000" font-family="sans-serif" font-size="13" lengthAdjust="spacing" textLength="103" x="50.5" y="406.2197">lists the meetings</text><polygon fill="#181818" points="166.5,456.0645,176.5,460.0645,166.5,464.0645,170.5,460.0645" style="stroke:#181818;stroke-width:1.0;"/><line style="stroke:#181818;stroke-width:1.0;" x1="22.5" x2="172.5" y1="460.0645" y2="460.0645"/><text fill="#000000" font-family="sans-serif" font-size="13" font-weight="bold" lengthAdjust="spacing" textLength="14" x="29.5" y="446.1563">10</text><text fill="#000000" font-family="sans-serif" font-size="13" lengthAdjust="spacing" textLength="114" x="47.5" y="437.5107">selects the meeting</text><text fill="#000000" font-family="sans-serif" font-size="13" lengthAdjust="spacing" textLength="53" x="51.5" y="454.8018">to cancel</text><polygon fill="#181818" points="460.5,487.3555,470.5,491.3555,460.5,495.3555,464.5,491.3555" style="stroke:#181818;stroke-width:1.0;"/><line style="stroke:#181818;stroke-width:1.0;" x1="188.5" x2="466.5" y1="491.3555" y2="491.3555"/><text fill="#000000" font-family="sans-serif" font-size="13" font-weight="bold" lengthAdjust="spacing" textLength="14" x="195.5" y="486.0928">11</text><text fill="#000000" font-family="sans-serif" font-size="13" lengthAdjust="spacing" textLength="138" x="213.5" y="486.0928">cancelMeeting(meeting)</text><polygon fill="#181818" points="1125.5,518.6465,1135.5,522.6465,1125.5,526.6465,1129.5,522.6465" style="stroke:#181818;stroke-width:1.0;"/><line style="stroke:#181818;stroke-width:1.0;" x1="482.5" x2="1131.5" y1="522.6465" y2="522.6465"/><text fill="#000000" font-family="sans-serif" font-size="13" font-weight="bold" lengthAdjust="spacing" textLength="14" x="489.5" y="517.3838">12</text><text fill="#000000" font-family="sans-serif" font-size="13" lengthAdjust="spacing" textLength="138" x="507.5" y="517.3838">cancelMeeting(meeting)</text><polygon fill="#181818" points="1233.5,549.9375,1243.5,553.9375,1233.5,557.9375,1237.5,553.9375" style="stroke:#181818;stroke-width:1.0;"/><line style="stroke:#181818;stroke-width:1.0;" x1="1147.5" x2="1239.5" y1="553.9375" y2="553.9375"/><text fill="#000000" font-family="sans-serif" font-size="13" font-weight="bold" lengthAdjust="spacing" textLength="14" x="1154.5" y="548.6748">13</text><text fill="#000000" font-family="sans-serif" font-size="13" lengthAdjust="spacing" textLength="46" x="1172.5" y="548.6748">cancel()</text><polygon fill="#181818" points="1021.5,611.2285,1011.5,615.2285,1021.5,619.2285,1017.5,615.2285" style="stroke:#181818;stroke-width:1.0;"/><line style="stroke:#181818;stroke-width:1.0;" x1="1015.5" x2="1136.5" y1="615.2285" y2="615.2285"/><text fill="#000000" font-family="sans-serif" font-size="13" font-weight="bold" lengthAdjust="spacing" textLength="14" x="1027.5" y="609.9658">14</text><text fill="#000000" font-family="sans-serif" font-size="13" lengthAdjust="spacing" textLength="80" x="1045.5" y="609.9658">save(meeting)</text><polygon fill="#181818" points="1431.5,642.5195,1441.5,646.5195,1431.5,650.5195,1435.5,646.5195" style="stroke:#181818;stroke-width:1.0;"/><line style="stroke:#181818;stroke-width:1.0;" x1="1147.5" x2="1437.5" y1="646.5195" y2="646.5195"/><text fill="#000000" font-family="sans-serif" font-size="13" font-weight="bold" lengthAdjust="spacing" textLength="14" x="1154.5" y="641.2568">15</text><text fill="#000000" font-family="sans-serif" font-size="13" lengthAdjust="spacing" textLength="259" x="1172.5" y="641.2568">provideMeetingInvitationsByMeeting(meeting)</text><polygon fill="#181818" points="1655.5,673.8105,1665.5,677.8105,1655.5,681.8105,1659.5,677.8105" style="stroke:#181818;stroke-width:1.0;"/><line style="stroke:#181818;stroke-width:1.0;" x1="1453.5" x2="1661.5" y1="677.8105" y2="677.8105"/><text fill="#000000" font-family="sans-serif" font-size="13" font-weight="bold" lengthAdjust="spacing" textLength="14" x="1460.5" y="672.5479">16</text><text fill="#000000" font-family="sans-serif" font-size="13" lengthAdjust="spacing" textLength="177" x="1478.5" y="672.5479">findMeetingInvitations(meeting)</text><polygon fill="#181818" points="1464.5,705.1016,1454.5,709.1016,1464.5,713.1016,1460.5,709.1016" style="stroke:#181818;stroke-width:1.0;"/><line style="stroke:#181818;stroke-width:1.0;stroke-dasharray:2.0,2.0;" x1="1458.5" x2="1671.5" y1="709.1016" y2="709.1016"/><text fill="#000000" font-family="sans-serif" font-size="13" font-weight="bold" lengthAdjust="spacing" textLength="14" x="1470.5" y="703.8389">17</text><text fill="#000000" font-family="sans-serif" font-size="13" lengthAdjust="spacing" textLength="107" x="1488.5" y="703.8389">meeting invitations</text><polygon fill="#181818" points="1158.5,736.3926,1148.5,740.3926,1158.5,744.3926,1154.5,740.3926" style="stroke:#181818;stroke-width:1.0;"/><line style="stroke:#181818;stroke-width:1.0;stroke-dasharray:2.0,2.0;" x1="1152.5" x2="1447.5" y1="740.3926" y2="740.3926"/><text fill="#000000" font-family="sans-serif" font-size="13" font-weight="bold" lengthAdjust="spacing" textLength="14" x="1164.5" y="735.1299">18</text><text fill="#000000" font-family="sans-serif" font-size="13" lengthAdjust="spacing" textLength="107" x="1182.5" y="735.1299">meeting invitations</text><path d="M1072.5,755.3926 L1145.5,755.3926 L1145.5,764.6836 L1135.5,774.6836 L1072.5,774.6836 L1072.5,755.3926 " fill="#EEEEEE" style="stroke:#000000;stroke-width:1.5;"/><rect fill="none" height="111.873" style="stroke:#000000;stroke-width:1.5;" width="830" x="1072.5" y="755.3926"/><text fill="#000000" font-family="sans-serif" font-size="13" font-weight="bold" lengthAdjust="spacing" textLength="28" x="1087.5" y="770.4209">loop</text><text fill="#000000" font-family="sans-serif" font-size="11" font-weight="bold" lengthAdjust="spacing" textLength="155" x="1160.5" y="769.2627">[for each meeting invitation]</text><polygon fill="#181818" points="1815.5,793.9746,1825.5,797.9746,1815.5,801.9746,1819.5,797.9746" style="stroke:#181818;stroke-width:1.0;"/><line style="stroke:#181818;stroke-width:1.0;" x1="1147.5" x2="1821.5" y1="797.9746" y2="797.9746"/><text fill="#000000" font-family="sans-serif" font-size="13" font-weight="bold" lengthAdjust="spacing" textLength="14" x="1154.5" y="792.7119">19</text><text fill="#000000" font-family="sans-serif" font-size="13" lengthAdjust="spacing" textLength="46" x="1172.5" y="792.7119">cancel()</text><polygon fill="#181818" points="1660.5,855.2656,1670.5,859.2656,1660.5,863.2656,1664.5,859.2656" style="stroke:#181818;stroke-width:1.0;"/><line style="stroke:#181818;stroke-width:1.0;" x1="1147.5" x2="1666.5" y1="859.2656" y2="859.2656"/><text fill="#000000" font-family="sans-serif" font-size="13" font-weight="bold" lengthAdjust="spacing" textLength="14" x="1154.5" y="854.0029">20</text><text fill="#000000" font-family="sans-serif" font-size="13" lengthAdjust="spacing" textLength="130" x="1172.5" y="854.0029">save(meetingInvitation)</text><polygon fill="#181818" points="33.5,893.5566,23.5,897.5566,33.5,901.5566,29.5,897.5566" style="stroke:#181818;stroke-width:1.0;"/><line style="stroke:#181818;stroke-width:1.0;stroke-dasharray:2.0,2.0;" x1="27.5" x2="182.5" y1="897.5566" y2="897.5566"/><text fill="#000000" font-family="sans-serif" font-size="13" font-weight="bold" lengthAdjust="spacing" textLength="14" x="39.5" y="892.2939">21</text><text fill="#000000" font-family="sans-serif" font-size="13" lengthAdjust="spacing" textLength="101" x="57.5" y="892.2939">displays success</text><!--SRC=[ZPJDRkiW48NtFCMegqIwUO6eoYBfnb9HBVTcTpV4dZP812p0gVBs5p3Onlbfl3ESRvWp1zjoAn1sJDOeW055j5n-4y8wgsHtEg0chBPAmzwW1cPWJrgcBQzvowI5bvwCsBvu2P82NbyxljayaEwKj5e9WJeWkx_LkuDOsmfUCykLdDEHAxKwyoPIjBnY6cRPWHaSW0fRPRXpSEcHjwrZzB1uvnZA9FjEfr17DEh4-BscUjblgaAUkGrzvYQA9roCxDnFKJtZP-GZDMsMaDN6XxO69TyLQuYFd9-PHRTAt8RR3W6jeTRebitYr9SroSaVE6M3M-QOuCRsyRE3mDYJMIp7WxoG1BMZNAvhQFlId_KHcqvWawZjvUD7ebvqnXyp5A0bSPY7NS9h-EAocQFtoBSjyT0gdPpCaGPpKHaqqTDDLHazf87U4WMhVZnU58TZm1vnLEyX5J0eiCwt_qcm2kempbawqoyiPNHtoFG9WbBYT5uzYAUfqSnyaeO033lZM33k59DWhswcI_P18uNBj-W3TbU-3_Ywn4so8XvP3Gr43V2Hotm4eCyw3EbNVKc4KYrykT-aMpxU00Yu9mrXEag_FgaKthFQ6LdD1ZiwNnAKJTOLVNJd6cvQmIu6J5VNQ38_xfjFpty0]--></g></svg>