<?xml version="1.0" encoding="us-ascii" standalone="no"?><svg xmlns="http://www.w3.org/2000/svg" xmlns:xlink="http://www.w3.org/1999/xlink" contentStyleType="text/css" height="782px" preserveAspectRatio="none" style="width:1280px;height:782px;background:#FFFFFF;" version="1.1" viewBox="0 0 1280 782" width="1280px" zoomAndPan="magnify"><defs/><g><text fill="#000000" font-family="sans-serif" font-size="14" font-weight="bold" lengthAdjust="spacing" textLength="262" x="510.5" y="30.1074">Register Manager Sequence Diagram</text><rect fill="#FFFFFF" height="512.9473" style="stroke:#181818;stroke-width:1.0;" width="10" x="202" y="161.1543"/><rect fill="#FFFFFF" height="312.9102" style="stroke:#181818;stroke-width:1.0;" width="10" x="458" y="320.9004"/><rect fill="#FFFFFF" height="62.582" style="stroke:#181818;stroke-width:1.0;" width="10" x="680" y="352.1914"/><rect fill="#FFFFFF" height="62.582" style="stroke:#181818;stroke-width:1.0;" width="10" x="842" y="508.6465"/><line style="stroke:#181818;stroke-width:0.5;stroke-dasharray:5.0,5.0;" x1="36" x2="36" y1="127.8633" y2="683.1016"/><line style="stroke:#181818;stroke-width:0.5;stroke-dasharray:5.0,5.0;" x1="206.5" x2="206.5" y1="127.8633" y2="683.1016"/><line style="stroke:#181818;stroke-width:0.5;stroke-dasharray:5.0,5.0;" x1="462.5" x2="462.5" y1="127.8633" y2="683.1016"/><line style="stroke:#181818;stroke-width:0.5;stroke-dasharray:5.0,5.0;" x1="685" x2="685" y1="127.8633" y2="683.1016"/><line style="stroke:#181818;stroke-width:0.5;stroke-dasharray:5.0,5.0;" x1="847" x2="847" y1="127.8633" y2="683.1016"/><line style="stroke:#181818;stroke-width:0.5;stroke-dasharray:5.0,5.0;" x1="958" x2="958" y1="127.8633" y2="683.1016"/><line style="stroke:#181818;stroke-width:0.5;stroke-dasharray:5.0,5.0;" x1="1062" x2="1062" y1="127.8633" y2="683.1016"/><line style="stroke:#181818;stroke-width:0.5;stroke-dasharray:5.0,5.0;" x1="1200" x2="1200" y1="127.8633" y2="683.1016"/><text fill="#000000" font-family="sans-serif" font-size="14" lengthAdjust="spacing" textLength="56" x="5" y="124.3496">Manager</text><ellipse cx="36" cy="57.7422" fill="#E2E2F0" rx="8" ry="8" style="stroke:#181818;stroke-width:0.5;"/><path d="M36,65.7422 L36,92.7422 M23,73.7422 L49,73.7422 M36,92.7422 L23,107.7422 M36,92.7422 L49,107.7422 " fill="none" style="stroke:#181818;stroke-width:0.5;"/><text fill="#000000" font-family="sans-serif" font-size="14" lengthAdjust="spacing" textLength="56" x="5" y="697.209">Manager</text><ellipse cx="36" cy="709.2227" fill="#E2E2F0" rx="8" ry="8" style="stroke:#181818;stroke-width:0.5;"/><path d="M36,717.2227 L36,744.2227 M23,725.2227 L49,725.2227 M36,744.2227 L23,759.2227 M36,744.2227 L49,759.2227 " fill="none" style="stroke:#181818;stroke-width:0.5;"/><rect fill="#E2E2F0" height="51.2422" rx="2.5" ry="2.5" style="stroke:#181818;stroke-width:0.5;" width="135" x="139.5" y="75.6211"/><text fill="#000000" font-family="sans-serif" font-size="14" font-style="italic" lengthAdjust="spacing" textLength="27" x="193.5" y="97.7285">&#171;ui&#187;</text><text fill="#000000" font-family="sans-serif" font-size="14" lengthAdjust="spacing" textLength="121" x="146.5" y="116.3496">RegisterManagerUI</text><rect fill="#E2E2F0" height="51.2422" rx="2.5" ry="2.5" style="stroke:#181818;stroke-width:0.5;" width="135" x="139.5" y="682.1016"/><text fill="#000000" font-family="sans-serif" font-size="14" font-style="italic" lengthAdjust="spacing" textLength="27" x="193.5" y="704.209">&#171;ui&#187;</text><text fill="#000000" font-family="sans-serif" font-size="14" lengthAdjust="spacing" textLength="121" x="146.5" y="722.8301">RegisterManagerUI</text><rect fill="#E2E2F0" height="51.2422" rx="2.5" ry="2.5" style="stroke:#181818;stroke-width:0.5;" width="185" x="370.5" y="75.6211"/><text fill="#000000" font-family="sans-serif" font-size="14" font-style="italic" lengthAdjust="spacing" textLength="84" x="421" y="97.7285">&#171;application&#187;</text><text fill="#000000" font-family="sans-serif" font-size="14" lengthAdjust="spacing" textLength="171" x="377.5" y="116.3496">RegisterManagerController</text><rect fill="#E2E2F0" height="51.2422" rx="2.5" ry="2.5" style="stroke:#181818;stroke-width:0.5;" width="185" x="370.5" y="682.1016"/><text fill="#000000" font-family="sans-serif" font-size="14" font-style="italic" lengthAdjust="spacing" textLength="84" x="421" y="704.209">&#171;application&#187;</text><text fill="#000000" font-family="sans-serif" font-size="14" lengthAdjust="spacing" textLength="171" x="377.5" y="722.8301">RegisterManagerController</text><rect fill="#E2E2F0" height="51.2422" rx="2.5" ry="2.5" style="stroke:#181818;stroke-width:0.5;" width="190" x="590" y="75.6211"/><text fill="#000000" font-family="sans-serif" font-size="14" font-style="italic" lengthAdjust="spacing" textLength="59" x="655.5" y="97.7285">&#171;factory&#187;</text><text fill="#000000" font-family="sans-serif" font-size="14" lengthAdjust="spacing" textLength="176" x="597" y="116.3496">ECourseUserBuilderFactory</text><rect fill="#E2E2F0" height="51.2422" rx="2.5" ry="2.5" style="stroke:#181818;stroke-width:0.5;" width="190" x="590" y="682.1016"/><text fill="#000000" font-family="sans-serif" font-size="14" font-style="italic" lengthAdjust="spacing" textLength="59" x="655.5" y="704.209">&#171;factory&#187;</text><text fill="#000000" font-family="sans-serif" font-size="14" lengthAdjust="spacing" textLength="176" x="597" y="722.8301">ECourseUserBuilderFactory</text><rect fill="#E2E2F0" height="51.2422" rx="2.5" ry="2.5" style="stroke:#181818;stroke-width:0.5;" width="114" x="790" y="75.6211"/><text fill="#000000" font-family="sans-serif" font-size="14" font-style="italic" lengthAdjust="spacing" textLength="59" x="817.5" y="97.7285">&#171;builder&#187;</text><text fill="#000000" font-family="sans-serif" font-size="14" lengthAdjust="spacing" textLength="100" x="797" y="116.3496">ManagerBuilder</text><rect fill="#E2E2F0" height="51.2422" rx="2.5" ry="2.5" style="stroke:#181818;stroke-width:0.5;" width="114" x="790" y="682.1016"/><text fill="#000000" font-family="sans-serif" font-size="14" font-style="italic" lengthAdjust="spacing" textLength="59" x="817.5" y="704.209">&#171;builder&#187;</text><text fill="#000000" font-family="sans-serif" font-size="14" lengthAdjust="spacing" textLength="100" x="797" y="722.8301">ManagerBuilder</text><rect fill="#E2E2F0" height="51.2422" rx="2.5" ry="2.5" style="stroke:#181818;stroke-width:0.5;" width="89" x="914" y="75.6211"/><text fill="#000000" font-family="sans-serif" font-size="14" font-style="italic" lengthAdjust="spacing" textLength="62" x="927.5" y="97.7285">&#171;f_entity&#187;</text><text fill="#000000" font-family="sans-serif" font-size="14" lengthAdjust="spacing" textLength="75" x="921" y="116.3496">SystemUser</text><rect fill="#E2E2F0" height="51.2422" rx="2.5" ry="2.5" style="stroke:#181818;stroke-width:0.5;" width="89" x="914" y="682.1016"/><text fill="#000000" font-family="sans-serif" font-size="14" font-style="italic" lengthAdjust="spacing" textLength="62" x="927.5" y="704.209">&#171;f_entity&#187;</text><text fill="#000000" font-family="sans-serif" font-size="14" lengthAdjust="spacing" textLength="75" x="921" y="722.8301">SystemUser</text><rect fill="#E2E2F0" height="51.2422" rx="2.5" ry="2.5" style="stroke:#181818;stroke-width:0.5;" width="98" x="1013" y="75.6211"/><text fill="#000000" font-family="sans-serif" font-size="14" font-style="italic" lengthAdjust="spacing" textLength="62" x="1031" y="97.7285">&#171;domain&#187;</text><text fill="#000000" font-family="sans-serif" font-size="14" lengthAdjust="spacing" textLength="84" x="1020" y="116.3496">ECourseUser</text><rect fill="#E2E2F0" height="51.2422" rx="2.5" ry="2.5" style="stroke:#181818;stroke-width:0.5;" width="98" x="1013" y="682.1016"/><text fill="#000000" font-family="sans-serif" font-size="14" font-style="italic" lengthAdjust="spacing" textLength="62" x="1031" y="704.209">&#171;domain&#187;</text><text fill="#000000" font-family="sans-serif" font-size="14" lengthAdjust="spacing" textLength="84" x="1020" y="722.8301">ECourseUser</text><text fill="#000000" font-family="sans-serif" font-size="14" font-style="italic" lengthAdjust="spacing" textLength="79" x="1157.5" y="105.7285">&#171;repository&#187;</text><text fill="#000000" font-family="sans-serif" font-size="14" lengthAdjust="spacing" textLength="152" x="1121" y="124.3496">ECourseUserRepository</text><path d="M1182,54.6211 C1182,44.6211 1200,44.6211 1200,44.6211 C1200,44.6211 1218,44.6211 1218,54.6211 L1218,80.6211 C1218,90.6211 1200,90.6211 1200,90.6211 C1200,90.6211 1182,90.6211 1182,80.6211 L1182,54.6211 " fill="#E2E2F0" style="stroke:#181818;stroke-width:1.5;"/><path d="M1182,54.6211 C1182,64.6211 1200,64.6211 1200,64.6211 C1200,64.6211 1218,64.6211 1218,54.6211 " fill="none" style="stroke:#181818;stroke-width:1.5;"/><text fill="#000000" font-family="sans-serif" font-size="14" font-style="italic" lengthAdjust="spacing" textLength="79" x="1157.5" y="697.209">&#171;repository&#187;</text><text fill="#000000" font-family="sans-serif" font-size="14" lengthAdjust="spacing" textLength="152" x="1121" y="715.8301">ECourseUserRepository</text><path d="M1182,729.3438 C1182,719.3438 1200,719.3438 1200,719.3438 C1200,719.3438 1218,719.3438 1218,729.3438 L1218,755.3438 C1218,765.3438 1200,765.3438 1200,765.3438 C1200,765.3438 1182,765.3438 1182,755.3438 L1182,729.3438 " fill="#E2E2F0" style="stroke:#181818;stroke-width:1.5;"/><path d="M1182,729.3438 C1182,739.3438 1200,739.3438 1200,739.3438 C1200,739.3438 1218,739.3438 1218,729.3438 " fill="none" style="stroke:#181818;stroke-width:1.5;"/><rect fill="#FFFFFF" height="512.9473" style="stroke:#181818;stroke-width:1.0;" width="10" x="202" y="161.1543"/><rect fill="#FFFFFF" height="312.9102" style="stroke:#181818;stroke-width:1.0;" width="10" x="458" y="320.9004"/><rect fill="#FFFFFF" height="62.582" style="stroke:#181818;stroke-width:1.0;" width="10" x="680" y="352.1914"/><rect fill="#FFFFFF" height="62.582" style="stroke:#181818;stroke-width:1.0;" width="10" x="842" y="508.6465"/><polygon fill="#181818" points="190,157.1543,200,161.1543,190,165.1543,194,161.1543" style="stroke:#181818;stroke-width:1.0;"/><line style="stroke:#181818;stroke-width:1.0;" x1="0" x2="196" y1="161.1543" y2="161.1543"/><text fill="#000000" font-family="sans-serif" font-size="13" font-weight="bold" lengthAdjust="spacing" textLength="7" x="7" y="155.8916">1</text><text fill="#000000" font-family="sans-serif" font-size="13" lengthAdjust="spacing" textLength="42" x="18" y="155.8916">onLoad</text><polygon fill="#181818" points="451,188.4453,461,192.4453,451,196.4453,455,192.4453" style="stroke:#181818;stroke-width:1.0;"/><line style="stroke:#181818;stroke-width:1.0;" x1="212" x2="457" y1="192.4453" y2="192.4453"/><text fill="#000000" font-family="sans-serif" font-size="13" font-weight="bold" lengthAdjust="spacing" textLength="7" x="219" y="187.1826">2</text><text fill="#000000" font-family="sans-serif" font-size="13" lengthAdjust="spacing" textLength="216" x="230" y="187.1826">create(userRepo, userBuilderFactory)</text><polygon fill="#181818" points="47,237.0273,37,241.0273,47,245.0273,43,241.0273" style="stroke:#181818;stroke-width:1.0;"/><line style="stroke:#181818;stroke-width:1.0;stroke-dasharray:2.0,2.0;" x1="41" x2="201" y1="241.0273" y2="241.0273"/><text fill="#000000" font-family="sans-serif" font-size="13" font-weight="bold" lengthAdjust="spacing" textLength="7" x="53" y="227.1191">3</text><text fill="#000000" font-family="sans-serif" font-size="13" lengthAdjust="spacing" textLength="74" x="64" y="218.4736">asks input of</text><text fill="#000000" font-family="sans-serif" font-size="13" lengthAdjust="spacing" textLength="92" x="68" y="235.7646">manager details</text><polygon fill="#181818" points="190,268.3184,200,272.3184,190,276.3184,194,272.3184" style="stroke:#181818;stroke-width:1.0;"/><line style="stroke:#181818;stroke-width:1.0;" x1="36" x2="196" y1="272.3184" y2="272.3184"/><text fill="#000000" font-family="sans-serif" font-size="13" font-weight="bold" lengthAdjust="spacing" textLength="7" x="43" y="267.0557">4</text><text fill="#000000" font-family="sans-serif" font-size="13" lengthAdjust="spacing" textLength="131" x="54" y="267.0557">inputs manager details</text><polygon fill="#181818" points="446,316.9004,456,320.9004,446,324.9004,450,320.9004" style="stroke:#181818;stroke-width:1.0;"/><line style="stroke:#181818;stroke-width:1.0;" x1="212" x2="452" y1="320.9004" y2="320.9004"/><text fill="#000000" font-family="sans-serif" font-size="13" font-weight="bold" lengthAdjust="spacing" textLength="7" x="219" y="306.9922">5</text><text fill="#000000" font-family="sans-serif" font-size="13" lengthAdjust="spacing" textLength="189" x="230" y="298.3467">registerManager(username, pwd,</text><text fill="#000000" font-family="sans-serif" font-size="13" lengthAdjust="spacing" textLength="161" x="234" y="315.6377">firstName, lastName, email)</text><polygon fill="#181818" points="668,348.1914,678,352.1914,668,356.1914,672,352.1914" style="stroke:#181818;stroke-width:1.0;"/><line style="stroke:#181818;stroke-width:1.0;" x1="468" x2="674" y1="352.1914" y2="352.1914"/><text fill="#000000" font-family="sans-serif" font-size="13" font-weight="bold" lengthAdjust="spacing" textLength="7" x="475" y="346.9287">6</text><text fill="#000000" font-family="sans-serif" font-size="13" lengthAdjust="spacing" textLength="182" x="486" y="346.9287">createECourseUserBuilder(role)</text><polygon fill="#181818" points="835,379.4824,845,383.4824,835,387.4824,839,383.4824" style="stroke:#181818;stroke-width:1.0;"/><line style="stroke:#181818;stroke-width:1.0;" x1="690" x2="841" y1="383.4824" y2="383.4824"/><text fill="#000000" font-family="sans-serif" font-size="13" font-weight="bold" lengthAdjust="spacing" textLength="7" x="697" y="378.2197">7</text><text fill="#000000" font-family="sans-serif" font-size="13" lengthAdjust="spacing" textLength="36" x="708" y="378.2197">create</text><polygon fill="#181818" points="479,410.7734,469,414.7734,479,418.7734,475,414.7734" style="stroke:#181818;stroke-width:1.0;"/><line style="stroke:#181818;stroke-width:1.0;stroke-dasharray:2.0,2.0;" x1="473" x2="684" y1="414.7734" y2="414.7734"/><text fill="#000000" font-family="sans-serif" font-size="13" font-weight="bold" lengthAdjust="spacing" textLength="7" x="485" y="409.5107">8</text><text fill="#000000" font-family="sans-serif" font-size="13" lengthAdjust="spacing" textLength="38" x="496" y="409.5107">builder</text><polygon fill="#181818" points="946.5,442.0645,956.5,446.0645,946.5,450.0645,950.5,446.0645" style="stroke:#181818;stroke-width:1.0;"/><line style="stroke:#181818;stroke-width:1.0;" x1="468" x2="952.5" y1="446.0645" y2="446.0645"/><text fill="#000000" font-family="sans-serif" font-size="13" font-weight="bold" lengthAdjust="spacing" textLength="7" x="475" y="440.8018">9</text><text fill="#000000" font-family="sans-serif" font-size="13" lengthAdjust="spacing" textLength="36" x="486" y="440.8018">create</text><polygon fill="#181818" points="835,473.3555,845,477.3555,835,481.3555,839,477.3555" style="stroke:#181818;stroke-width:1.0;"/><line style="stroke:#181818;stroke-width:1.0;" x1="468" x2="841" y1="477.3555" y2="477.3555"/><text fill="#000000" font-family="sans-serif" font-size="13" font-weight="bold" lengthAdjust="spacing" textLength="14" x="475" y="472.0928">10</text><text fill="#000000" font-family="sans-serif" font-size="13" lengthAdjust="spacing" textLength="151" x="493" y="472.0928">withSystemUser(sysUser)</text><polygon fill="#181818" points="830,504.6465,840,508.6465,830,512.6465,834,508.6465" style="stroke:#181818;stroke-width:1.0;"/><line style="stroke:#181818;stroke-width:1.0;" x1="468" x2="836" y1="508.6465" y2="508.6465"/><text fill="#000000" font-family="sans-serif" font-size="13" font-weight="bold" lengthAdjust="spacing" textLength="14" x="475" y="503.3838">11</text><text fill="#000000" font-family="sans-serif" font-size="13" lengthAdjust="spacing" textLength="35" x="493" y="503.3838">build()</text><polygon fill="#181818" points="1050,535.9375,1060,539.9375,1050,543.9375,1054,539.9375" style="stroke:#181818;stroke-width:1.0;"/><line style="stroke:#181818;stroke-width:1.0;" x1="852" x2="1056" y1="539.9375" y2="539.9375"/><text fill="#000000" font-family="sans-serif" font-size="13" font-weight="bold" lengthAdjust="spacing" textLength="14" x="859" y="534.6748">12</text><text fill="#000000" font-family="sans-serif" font-size="13" lengthAdjust="spacing" textLength="129" x="877" y="534.6748">create(sysUser, state)</text><polygon fill="#181818" points="479,567.2285,469,571.2285,479,575.2285,475,571.2285" style="stroke:#181818;stroke-width:1.0;"/><line style="stroke:#181818;stroke-width:1.0;stroke-dasharray:2.0,2.0;" x1="473" x2="846" y1="571.2285" y2="571.2285"/><text fill="#000000" font-family="sans-serif" font-size="13" font-weight="bold" lengthAdjust="spacing" textLength="14" x="485" y="565.9658">13</text><text fill="#000000" font-family="sans-serif" font-size="13" lengthAdjust="spacing" textLength="25" x="503" y="565.9658">user</text><polygon fill="#181818" points="1188,598.5195,1198,602.5195,1188,606.5195,1192,602.5195" style="stroke:#181818;stroke-width:1.0;"/><line style="stroke:#181818;stroke-width:1.0;" x1="468" x2="1194" y1="602.5195" y2="602.5195"/><text fill="#000000" font-family="sans-serif" font-size="13" font-weight="bold" lengthAdjust="spacing" textLength="14" x="475" y="597.2568">14</text><text fill="#000000" font-family="sans-serif" font-size="13" lengthAdjust="spacing" textLength="59" x="493" y="597.2568">save(user)</text><polygon fill="#181818" points="223,629.8105,213,633.8105,223,637.8105,219,633.8105" style="stroke:#181818;stroke-width:1.0;"/><line style="stroke:#181818;stroke-width:1.0;stroke-dasharray:2.0,2.0;" x1="217" x2="462" y1="633.8105" y2="633.8105"/><text fill="#000000" font-family="sans-serif" font-size="13" font-weight="bold" lengthAdjust="spacing" textLength="14" x="229" y="628.5479">15</text><text fill="#000000" font-family="sans-serif" font-size="13" lengthAdjust="spacing" textLength="93" x="247" y="628.5479">returns success</text><polygon fill="#181818" points="47,661.1016,37,665.1016,47,669.1016,43,665.1016" style="stroke:#181818;stroke-width:1.0;"/><line style="stroke:#181818;stroke-width:1.0;stroke-dasharray:2.0,2.0;" x1="41" x2="201" y1="665.1016" y2="665.1016"/><text fill="#000000" font-family="sans-serif" font-size="13" font-weight="bold" lengthAdjust="spacing" textLength="14" x="53" y="659.8389">16</text><text fill="#000000" font-family="sans-serif" font-size="13" lengthAdjust="spacing" textLength="101" x="71" y="659.8389">displays success</text><!--SRC=[VLBHRk8m47ptLrXz0ed-0AgGhfHAbQ0zmV5MgLgIXRCkiNFUTQlyVTTEJ098vILaCZCxtZ4Rhb1lyMI8qUiDM3Z9SuV_0ze2zPE1auTQAGZiRAWFw1KKx0OgaDwe1ZoRmZHWMTzbjvwnVxcBfFsBVdW8Ph7uaRnqbhshAlH9jFopNOiCcgOo1R1nzbg_MhhW2VU4_Z6OgaJ_dFArIV_yQodoOuTSI_kHlIpn7zTFmZzqo3L_rqhGEavAtDq-Md-WPSFj3x4IUHN9fQl1n1EKm700mWlU5Xj7vXnzk_hz9Xf_HaMdrFqYBdAkdLqxA6CLvXCO1LI2ozUqiRakF0ey2RtlJ8UR1KsJGYGRuGFz8sri4rYxuxlLTTzkYGoc8hNHUN8YqGtXOhg_B3N5i53ZJ3TVvKpiZyOJloQaWlmFPJlLT3XJD5F9KPnZa_bOjvrFvCxWI2fi5HKYZ9LcOOSDEVkYLOaNoZnJ6ZuhCzRPVHd-Ero72RKKdzChLhAVZ689hE8dOQm6xooVQM9vdNQK8MNStZXYTCc3qYsPQuBFhkmS8RVbaOEtf2aK1HADRT9wHrUWDDHKq0vS-Nq3]--></g></svg>