<?xml version="1.0" encoding="us-ascii" standalone="no"?><svg xmlns="http://www.w3.org/2000/svg" xmlns:xlink="http://www.w3.org/1999/xlink" contentStyleType="text/css" height="1094px" preserveAspectRatio="none" style="width:1763px;height:1094px;background:#FFFFFF;" version="1.1" viewBox="0 0 1763 1094" width="1763px" zoomAndPan="magnify"><defs/><g><text fill="#000000" font-family="FG Virgil" font-size="14" font-weight="bold" lengthAdjust="spacing" textLength="187" x="789.75" y="30.1074">Manage meeting invitation</text><rect fill="#FFFFFF" height="825.1973" style="stroke:#181818;stroke-width:1.0;" width="10" x="270.5" y="161.1543"/><rect fill="#FFFFFF" height="304.9102" style="stroke:#181818;stroke-width:1.0;" width="10" x="618.5" y="192.4453"/><rect fill="#FFFFFF" height="103.1641" style="stroke:#181818;stroke-width:1.0;" width="10" x="618.5" y="617.5195"/><rect fill="#FFFFFF" height="31.291" style="stroke:#181818;stroke-width:1.0;" width="10" x="815" y="223.7363"/><rect fill="#FFFFFF" height="148.4551" style="stroke:#181818;stroke-width:1.0;" width="10" x="981.5" y="317.6094"/><rect fill="#FFFFFF" height="31.291" style="stroke:#181818;stroke-width:1.0;" width="10" x="1275.5" y="348.9004"/><rect fill="none" height="434.7051" style="stroke:#000000;stroke-width:1.5;" width="1747.5" x="10" y="543.6465"/><rect fill="none" height="173.0859" style="stroke:#000000;stroke-width:1.5;" width="1573.5" x="174" y="798.2656"/><line style="stroke:#181818;stroke-width:0.5;stroke-dasharray:5.0,5.0;" x1="37" x2="37" y1="127.8633" y2="995.3516"/><line style="stroke:#181818;stroke-width:0.5;stroke-dasharray:5.0,5.0;" x1="275" x2="275" y1="127.8633" y2="995.3516"/><line style="stroke:#181818;stroke-width:0.5;stroke-dasharray:5.0,5.0;" x1="623" x2="623" y1="127.8633" y2="995.3516"/><line style="stroke:#181818;stroke-width:0.5;stroke-dasharray:5.0,5.0;" x1="820" x2="820" y1="127.8633" y2="995.3516"/><line style="stroke:#181818;stroke-width:0.5;stroke-dasharray:5.0,5.0;" x1="986" x2="986" y1="127.8633" y2="995.3516"/><line style="stroke:#181818;stroke-width:0.5;stroke-dasharray:5.0,5.0;" x1="1280.5" x2="1280.5" y1="127.8633" y2="995.3516"/><line style="stroke:#181818;stroke-width:0.5;stroke-dasharray:5.0,5.0;" x1="1467.5" x2="1467.5" y1="127.8633" y2="995.3516"/><line style="stroke:#181818;stroke-width:0.5;stroke-dasharray:5.0,5.0;" x1="1651.5" x2="1651.5" y1="127.8633" y2="995.3516"/><text fill="#000000" font-family="FG Virgil" font-size="14" lengthAdjust="spacing" textLength="29" x="20" y="124.3496">User</text><ellipse cx="37.5" cy="57.7422" fill="#E2E2F0" rx="8" ry="8" style="stroke:#181818;stroke-width:0.5;"/><path d="M37.5,65.7422 L37.5,92.7422 M24.5,73.7422 L50.5,73.7422 M37.5,92.7422 L24.5,107.7422 M37.5,92.7422 L50.5,107.7422 " fill="none" style="stroke:#181818;stroke-width:0.5;"/><text fill="#000000" font-family="FG Virgil" font-size="14" lengthAdjust="spacing" textLength="29" x="20" y="1009.459">User</text><ellipse cx="37.5" cy="1021.4727" fill="#E2E2F0" rx="8" ry="8" style="stroke:#181818;stroke-width:0.5;"/><path d="M37.5,1029.4727 L37.5,1056.4727 M24.5,1037.4727 L50.5,1037.4727 M37.5,1056.4727 L24.5,1071.4727 M37.5,1056.4727 L50.5,1071.4727 " fill="none" style="stroke:#181818;stroke-width:0.5;"/><rect fill="#E2E2F0" height="51.2422" rx="2.5" ry="2.5" style="stroke:#181818;stroke-width:0.5;" width="183" x="184" y="75.6211"/><text fill="#000000" font-family="FG Virgil" font-size="14" font-style="italic" lengthAdjust="spacing" textLength="27" x="262" y="97.7285">&#171;ui&#187;</text><text fill="#000000" font-family="FG Virgil" font-size="14" lengthAdjust="spacing" textLength="169" x="191" y="116.3496">ManageMeetingInvitationUI</text><rect fill="#E2E2F0" height="51.2422" rx="2.5" ry="2.5" style="stroke:#181818;stroke-width:0.5;" width="183" x="184" y="994.3516"/><text fill="#000000" font-family="FG Virgil" font-size="14" font-style="italic" lengthAdjust="spacing" textLength="27" x="262" y="1016.459">&#171;ui&#187;</text><text fill="#000000" font-family="FG Virgil" font-size="14" lengthAdjust="spacing" textLength="169" x="191" y="1035.0801">ManageMeetingInvitationUI</text><rect fill="#E2E2F0" height="51.2422" rx="2.5" ry="2.5" style="stroke:#181818;stroke-width:0.5;" width="233" x="507" y="75.6211"/><text fill="#000000" font-family="FG Virgil" font-size="14" font-style="italic" lengthAdjust="spacing" textLength="84" x="581.5" y="97.7285">&#171;application&#187;</text><text fill="#000000" font-family="FG Virgil" font-size="14" lengthAdjust="spacing" textLength="219" x="514" y="116.3496">ManageMeetingInvitationController</text><rect fill="#E2E2F0" height="51.2422" rx="2.5" ry="2.5" style="stroke:#181818;stroke-width:0.5;" width="233" x="507" y="994.3516"/><text fill="#000000" font-family="FG Virgil" font-size="14" font-style="italic" lengthAdjust="spacing" textLength="84" x="581.5" y="1016.459">&#171;application&#187;</text><text fill="#000000" font-family="FG Virgil" font-size="14" lengthAdjust="spacing" textLength="219" x="514" y="1035.0801">ManageMeetingInvitationController</text><rect fill="#E2E2F0" height="51.2422" rx="2.5" ry="2.5" style="stroke:#181818;stroke-width:0.5;" width="140" x="750" y="75.6211"/><text fill="#000000" font-family="FG Virgil" font-size="14" font-style="italic" lengthAdjust="spacing" textLength="84" x="778" y="97.7285">&#171;application&#187;</text><text fill="#000000" font-family="FG Virgil" font-size="14" lengthAdjust="spacing" textLength="126" x="757" y="116.3496">UserSessionService</text><rect fill="#E2E2F0" height="51.2422" rx="2.5" ry="2.5" style="stroke:#181818;stroke-width:0.5;" width="140" x="750" y="994.3516"/><text fill="#000000" font-family="FG Virgil" font-size="14" font-style="italic" lengthAdjust="spacing" textLength="84" x="778" y="1016.459">&#171;application&#187;</text><text fill="#000000" font-family="FG Virgil" font-size="14" lengthAdjust="spacing" textLength="126" x="757" y="1035.0801">UserSessionService</text><rect fill="#E2E2F0" height="51.2422" rx="2.5" ry="2.5" style="stroke:#181818;stroke-width:0.5;" width="173" x="900" y="75.6211"/><text fill="#000000" font-family="FG Virgil" font-size="14" font-style="italic" lengthAdjust="spacing" textLength="84" x="944.5" y="97.7285">&#171;application&#187;</text><text fill="#000000" font-family="FG Virgil" font-size="14" lengthAdjust="spacing" textLength="159" x="907" y="116.3496">MeetingInvitationProvider</text><rect fill="#E2E2F0" height="51.2422" rx="2.5" ry="2.5" style="stroke:#181818;stroke-width:0.5;" width="173" x="900" y="994.3516"/><text fill="#000000" font-family="FG Virgil" font-size="14" font-style="italic" lengthAdjust="spacing" textLength="84" x="944.5" y="1016.459">&#171;application&#187;</text><text fill="#000000" font-family="FG Virgil" font-size="14" lengthAdjust="spacing" textLength="159" x="907" y="1035.0801">MeetingInvitationProvider</text><text fill="#000000" font-family="FG Virgil" font-size="14" font-style="italic" lengthAdjust="spacing" textLength="84" x="1235.5" y="105.7285">&#171;application&#187;</text><text fill="#000000" font-family="FG Virgil" font-size="14" lengthAdjust="spacing" textLength="174" x="1190.5" y="124.3496">MeetingInvitationRepository</text><path d="M1262.5,54.6211 C1262.5,44.6211 1280.5,44.6211 1280.5,44.6211 C1280.5,44.6211 1298.5,44.6211 1298.5,54.6211 L1298.5,80.6211 C1298.5,90.6211 1280.5,90.6211 1280.5,90.6211 C1280.5,90.6211 1262.5,90.6211 1262.5,80.6211 L1262.5,54.6211 " fill="#E2E2F0" style="stroke:#181818;stroke-width:1.5;"/><path d="M1262.5,54.6211 C1262.5,64.6211 1280.5,64.6211 1280.5,64.6211 C1280.5,64.6211 1298.5,64.6211 1298.5,54.6211 " fill="none" style="stroke:#181818;stroke-width:1.5;"/><text fill="#000000" font-family="FG Virgil" font-size="14" font-style="italic" lengthAdjust="spacing" textLength="84" x="1235.5" y="1009.459">&#171;application&#187;</text><text fill="#000000" font-family="FG Virgil" font-size="14" lengthAdjust="spacing" textLength="174" x="1190.5" y="1028.0801">MeetingInvitationRepository</text><path d="M1262.5,1041.5938 C1262.5,1031.5938 1280.5,1031.5938 1280.5,1031.5938 C1280.5,1031.5938 1298.5,1031.5938 1298.5,1041.5938 L1298.5,1067.5938 C1298.5,1077.5938 1280.5,1077.5938 1280.5,1077.5938 C1280.5,1077.5938 1262.5,1077.5938 1262.5,1067.5938 L1262.5,1041.5938 " fill="#E2E2F0" style="stroke:#181818;stroke-width:1.5;"/><path d="M1262.5,1041.5938 C1262.5,1051.5938 1280.5,1051.5938 1280.5,1051.5938 C1280.5,1051.5938 1298.5,1051.5938 1298.5,1041.5938 " fill="none" style="stroke:#181818;stroke-width:1.5;"/><rect fill="#E2E2F0" height="51.2422" rx="2.5" ry="2.5" style="stroke:#181818;stroke-width:0.5;" width="175" x="1380.5" y="75.6211"/><text fill="#000000" font-family="FG Virgil" font-size="14" font-style="italic" lengthAdjust="spacing" textLength="27" x="1454.5" y="97.7285">&#171;ui&#187;</text><text fill="#000000" font-family="FG Virgil" font-size="14" lengthAdjust="spacing" textLength="161" x="1387.5" y="116.3496">AcceptMeetingInvitationUI</text><rect fill="#E2E2F0" height="51.2422" rx="2.5" ry="2.5" style="stroke:#181818;stroke-width:0.5;" width="175" x="1380.5" y="994.3516"/><text fill="#000000" font-family="FG Virgil" font-size="14" font-style="italic" lengthAdjust="spacing" textLength="27" x="1454.5" y="1016.459">&#171;ui&#187;</text><text fill="#000000" font-family="FG Virgil" font-size="14" lengthAdjust="spacing" textLength="161" x="1387.5" y="1035.0801">AcceptMeetingInvitationUI</text><rect fill="#E2E2F0" height="51.2422" rx="2.5" ry="2.5" style="stroke:#181818;stroke-width:0.5;" width="172" x="1565.5" y="75.6211"/><text fill="#000000" font-family="FG Virgil" font-size="14" font-style="italic" lengthAdjust="spacing" textLength="27" x="1638" y="97.7285">&#171;ui&#187;</text><text fill="#000000" font-family="FG Virgil" font-size="14" lengthAdjust="spacing" textLength="158" x="1572.5" y="116.3496">RejectMeetingInvitationUI</text><rect fill="#E2E2F0" height="51.2422" rx="2.5" ry="2.5" style="stroke:#181818;stroke-width:0.5;" width="172" x="1565.5" y="994.3516"/><text fill="#000000" font-family="FG Virgil" font-size="14" font-style="italic" lengthAdjust="spacing" textLength="27" x="1638" y="1016.459">&#171;ui&#187;</text><text fill="#000000" font-family="FG Virgil" font-size="14" lengthAdjust="spacing" textLength="158" x="1572.5" y="1035.0801">RejectMeetingInvitationUI</text><rect fill="#FFFFFF" height="825.1973" style="stroke:#181818;stroke-width:1.0;" width="10" x="270.5" y="161.1543"/><rect fill="#FFFFFF" height="304.9102" style="stroke:#181818;stroke-width:1.0;" width="10" x="618.5" y="192.4453"/><rect fill="#FFFFFF" height="103.1641" style="stroke:#181818;stroke-width:1.0;" width="10" x="618.5" y="617.5195"/><rect fill="#FFFFFF" height="31.291" style="stroke:#181818;stroke-width:1.0;" width="10" x="815" y="223.7363"/><rect fill="#FFFFFF" height="148.4551" style="stroke:#181818;stroke-width:1.0;" width="10" x="981.5" y="317.6094"/><rect fill="#FFFFFF" height="31.291" style="stroke:#181818;stroke-width:1.0;" width="10" x="1275.5" y="348.9004"/><polygon fill="#181818" points="258.5,157.1543,268.5,161.1543,258.5,165.1543,262.5,161.1543" style="stroke:#181818;stroke-width:1.0;"/><line style="stroke:#181818;stroke-width:1.0;" x1="37.5" x2="264.5" y1="161.1543" y2="161.1543"/><text fill="#000000" font-family="FG Virgil" font-size="13" font-weight="bold" lengthAdjust="spacing" textLength="7" x="44.5" y="155.8916">1</text><text fill="#000000" font-family="FG Virgil" font-size="13" lengthAdjust="spacing" textLength="150" x="55.5" y="155.8916">manage meeting invitation</text><polygon fill="#181818" points="606.5,188.4453,616.5,192.4453,606.5,196.4453,610.5,192.4453" style="stroke:#181818;stroke-width:1.0;"/><line style="stroke:#181818;stroke-width:1.0;" x1="280.5" x2="612.5" y1="192.4453" y2="192.4453"/><text fill="#000000" font-family="FG Virgil" font-size="13" font-weight="bold" lengthAdjust="spacing" textLength="7" x="287.5" y="187.1826">2</text><text fill="#000000" font-family="FG Virgil" font-size="13" lengthAdjust="spacing" textLength="308" x="298.5" y="187.1826">create(userSessionService, meetingInvitationProvider)</text><polygon fill="#181818" points="803,219.7363,813,223.7363,803,227.7363,807,223.7363" style="stroke:#181818;stroke-width:1.0;"/><line style="stroke:#181818;stroke-width:1.0;" x1="628.5" x2="809" y1="223.7363" y2="223.7363"/><text fill="#000000" font-family="FG Virgil" font-size="13" font-weight="bold" lengthAdjust="spacing" textLength="7" x="635.5" y="218.4736">3</text><text fill="#000000" font-family="FG Virgil" font-size="13" lengthAdjust="spacing" textLength="95" x="646.5" y="218.4736">getLoggedUser()</text><polygon fill="#181818" points="639.5,251.0273,629.5,255.0273,639.5,259.0273,635.5,255.0273" style="stroke:#181818;stroke-width:1.0;"/><line style="stroke:#181818;stroke-width:1.0;stroke-dasharray:2.0,2.0;" x1="633.5" x2="819" y1="255.0273" y2="255.0273"/><text fill="#000000" font-family="FG Virgil" font-size="13" font-weight="bold" lengthAdjust="spacing" textLength="7" x="645.5" y="249.7646">4</text><text fill="#000000" font-family="FG Virgil" font-size="13" lengthAdjust="spacing" textLength="67" x="656.5" y="249.7646">logged user</text><polygon fill="#181818" points="606.5,282.3184,616.5,286.3184,606.5,290.3184,610.5,286.3184" style="stroke:#181818;stroke-width:1.0;"/><line style="stroke:#181818;stroke-width:1.0;" x1="280.5" x2="612.5" y1="286.3184" y2="286.3184"/><text fill="#000000" font-family="FG Virgil" font-size="13" font-weight="bold" lengthAdjust="spacing" textLength="7" x="287.5" y="281.0557">5</text><text fill="#000000" font-family="FG Virgil" font-size="13" lengthAdjust="spacing" textLength="161" x="298.5" y="281.0557">userMeetingInvitations(user)</text><polygon fill="#181818" points="969.5,313.6094,979.5,317.6094,969.5,321.6094,973.5,317.6094" style="stroke:#181818;stroke-width:1.0;"/><line style="stroke:#181818;stroke-width:1.0;" x1="628.5" x2="975.5" y1="317.6094" y2="317.6094"/><text fill="#000000" font-family="FG Virgil" font-size="13" font-weight="bold" lengthAdjust="spacing" textLength="7" x="635.5" y="312.3467">6</text><text fill="#000000" font-family="FG Virgil" font-size="13" lengthAdjust="spacing" textLength="274" x="646.5" y="312.3467">provideUserUncancelledMeetingInvitations(user)</text><polygon fill="#181818" points="1263.5,344.9004,1273.5,348.9004,1263.5,352.9004,1267.5,348.9004" style="stroke:#181818;stroke-width:1.0;"/><line style="stroke:#181818;stroke-width:1.0;" x1="991.5" x2="1269.5" y1="348.9004" y2="348.9004"/><text fill="#000000" font-family="FG Virgil" font-size="13" font-weight="bold" lengthAdjust="spacing" textLength="7" x="998.5" y="343.6377">7</text><text fill="#000000" font-family="FG Virgil" font-size="13" lengthAdjust="spacing" textLength="254" x="1009.5" y="343.6377">findUserUncancelledMeetingInvitations(user)</text><polygon fill="#181818" points="1002.5,376.1914,992.5,380.1914,1002.5,384.1914,998.5,380.1914" style="stroke:#181818;stroke-width:1.0;"/><line style="stroke:#181818;stroke-width:1.0;stroke-dasharray:2.0,2.0;" x1="996.5" x2="1279.5" y1="380.1914" y2="380.1914"/><text fill="#000000" font-family="FG Virgil" font-size="13" font-weight="bold" lengthAdjust="spacing" textLength="7" x="1008.5" y="374.9287">8</text><text fill="#000000" font-family="FG Virgil" font-size="13" lengthAdjust="spacing" textLength="107" x="1019.5" y="374.9287">meeting invitations</text><path d="M996,393.1914 L996,437.1914 L1293,437.1914 L1293,403.1914 L1283,393.1914 L996,393.1914 " fill="#FEFFDD" style="stroke:#181818;stroke-width:0.5;"/><path d="M1283,393.1914 L1283,403.1914 L1293,403.1914 L1283,393.1914 " fill="#FEFFDD" style="stroke:#181818;stroke-width:0.5;"/><text fill="#000000" font-family="FG Virgil" font-size="13" lengthAdjust="spacing" textLength="276" x="1002" y="412.2197">meeting invitations that have not been cancelled</text><text fill="#000000" font-family="FG Virgil" font-size="13" lengthAdjust="spacing" textLength="224" x="1002" y="429.5107">and that belong to scheduled meetings</text><polygon fill="#181818" points="639.5,462.0645,629.5,466.0645,639.5,470.0645,635.5,466.0645" style="stroke:#181818;stroke-width:1.0;"/><line style="stroke:#181818;stroke-width:1.0;stroke-dasharray:2.0,2.0;" x1="633.5" x2="985.5" y1="466.0645" y2="466.0645"/><text fill="#000000" font-family="FG Virgil" font-size="13" font-weight="bold" lengthAdjust="spacing" textLength="7" x="645.5" y="460.8018">9</text><text fill="#000000" font-family="FG Virgil" font-size="13" lengthAdjust="spacing" textLength="107" x="656.5" y="460.8018">meeting invitations</text><polygon fill="#181818" points="291.5,493.3555,281.5,497.3555,291.5,501.3555,287.5,497.3555" style="stroke:#181818;stroke-width:1.0;"/><line style="stroke:#181818;stroke-width:1.0;stroke-dasharray:2.0,2.0;" x1="285.5" x2="622.5" y1="497.3555" y2="497.3555"/><text fill="#000000" font-family="FG Virgil" font-size="13" font-weight="bold" lengthAdjust="spacing" textLength="14" x="297.5" y="492.0928">10</text><text fill="#000000" font-family="FG Virgil" font-size="13" lengthAdjust="spacing" textLength="107" x="315.5" y="492.0928">meeting invitations</text><polygon fill="#181818" points="48.5,524.6465,38.5,528.6465,48.5,532.6465,44.5,528.6465" style="stroke:#181818;stroke-width:1.0;"/><line style="stroke:#181818;stroke-width:1.0;stroke-dasharray:2.0,2.0;" x1="42.5" x2="269.5" y1="528.6465" y2="528.6465"/><text fill="#000000" font-family="FG Virgil" font-size="13" font-weight="bold" lengthAdjust="spacing" textLength="14" x="54.5" y="523.3838">11</text><text fill="#000000" font-family="FG Virgil" font-size="13" lengthAdjust="spacing" textLength="152" x="72.5" y="523.3838">display meeting invitations</text><path d="M10,543.6465 L83,543.6465 L83,552.9375 L73,562.9375 L10,562.9375 L10,543.6465 " fill="#EEEEEE" style="stroke:#000000;stroke-width:1.5;"/><rect fill="none" height="434.7051" style="stroke:#000000;stroke-width:1.5;" width="1747.5" x="10" y="543.6465"/><text fill="#000000" font-family="FG Virgil" font-size="13" font-weight="bold" lengthAdjust="spacing" textLength="28" x="25" y="558.6748">loop</text><text fill="#000000" font-family="FG Virgil" font-size="11" font-weight="bold" lengthAdjust="spacing" textLength="111" x="98" y="557.5166">[while option != exit]</text><polygon fill="#181818" points="258.5,582.2285,268.5,586.2285,258.5,590.2285,262.5,586.2285" style="stroke:#181818;stroke-width:1.0;"/><line style="stroke:#181818;stroke-width:1.0;" x1="37.5" x2="264.5" y1="586.2285" y2="586.2285"/><text fill="#000000" font-family="FG Virgil" font-size="13" font-weight="bold" lengthAdjust="spacing" textLength="14" x="44.5" y="580.9658">12</text><text fill="#000000" font-family="FG Virgil" font-size="13" lengthAdjust="spacing" textLength="139" x="62.5" y="580.9658">select meeting invitation</text><polygon fill="#181818" points="606.5,613.5195,616.5,617.5195,606.5,621.5195,610.5,617.5195" style="stroke:#181818;stroke-width:1.0;"/><line style="stroke:#181818;stroke-width:1.0;" x1="280.5" x2="612.5" y1="617.5195" y2="617.5195"/><text fill="#000000" font-family="FG Virgil" font-size="13" font-weight="bold" lengthAdjust="spacing" textLength="14" x="287.5" y="612.2568">13</text><text fill="#000000" font-family="FG Virgil" font-size="13" lengthAdjust="spacing" textLength="245" x="305.5" y="612.2568">meetingInvitationOptions(meetingInvitation)</text><path d="M633,630.5195 L633,691.5195 L919,691.5195 L919,640.5195 L909,630.5195 L633,630.5195 " fill="#FEFFDD" style="stroke:#181818;stroke-width:0.5;"/><path d="M909,630.5195 L909,640.5195 L919,640.5195 L909,630.5195 " fill="#FEFFDD" style="stroke:#181818;stroke-width:0.5;"/><text fill="#000000" font-family="FG Virgil" font-size="13" lengthAdjust="spacing" textLength="261" x="639" y="649.5479">meeting invitation is pending: accept or reject</text><text fill="#000000" font-family="FG Virgil" font-size="13" lengthAdjust="spacing" textLength="211" x="639" y="666.8389">meeting invitation is accepted: reject</text><text fill="#000000" font-family="FG Virgil" font-size="13" lengthAdjust="spacing" textLength="211" x="639" y="684.1299">meeting invitation is rejected: accept</text><polygon fill="#181818" points="291.5,716.6836,281.5,720.6836,291.5,724.6836,287.5,720.6836" style="stroke:#181818;stroke-width:1.0;"/><line style="stroke:#181818;stroke-width:1.0;stroke-dasharray:2.0,2.0;" x1="285.5" x2="622.5" y1="720.6836" y2="720.6836"/><text fill="#000000" font-family="FG Virgil" font-size="13" font-weight="bold" lengthAdjust="spacing" textLength="14" x="297.5" y="715.4209">14</text><text fill="#000000" font-family="FG Virgil" font-size="13" lengthAdjust="spacing" textLength="146" x="315.5" y="715.4209">meeting invitation options</text><polygon fill="#181818" points="48.5,747.9746,38.5,751.9746,48.5,755.9746,44.5,751.9746" style="stroke:#181818;stroke-width:1.0;"/><line style="stroke:#181818;stroke-width:1.0;stroke-dasharray:2.0,2.0;" x1="42.5" x2="269.5" y1="751.9746" y2="751.9746"/><text fill="#000000" font-family="FG Virgil" font-size="13" font-weight="bold" lengthAdjust="spacing" textLength="14" x="54.5" y="746.7119">15</text><text fill="#000000" font-family="FG Virgil" font-size="13" lengthAdjust="spacing" textLength="191" x="72.5" y="746.7119">display meeting invitation options</text><polygon fill="#181818" points="258.5,779.2656,268.5,783.2656,258.5,787.2656,262.5,783.2656" style="stroke:#181818;stroke-width:1.0;"/><line style="stroke:#181818;stroke-width:1.0;" x1="37.5" x2="264.5" y1="783.2656" y2="783.2656"/><text fill="#000000" font-family="FG Virgil" font-size="13" font-weight="bold" lengthAdjust="spacing" textLength="14" x="44.5" y="778.0029">16</text><text fill="#000000" font-family="FG Virgil" font-size="13" lengthAdjust="spacing" textLength="178" x="62.5" y="778.0029">select meeting invitation option</text><path d="M174,798.2656 L235,798.2656 L235,807.5566 L225,817.5566 L174,817.5566 L174,798.2656 " fill="#EEEEEE" style="stroke:#000000;stroke-width:1.5;"/><rect fill="none" height="173.0859" style="stroke:#000000;stroke-width:1.5;" width="1573.5" x="174" y="798.2656"/><text fill="#000000" font-family="FG Virgil" font-size="13" font-weight="bold" lengthAdjust="spacing" textLength="16" x="189" y="813.2939">alt</text><text fill="#000000" font-family="FG Virgil" font-size="11" font-weight="bold" lengthAdjust="spacing" textLength="95" x="250" y="812.1357">[option is accept]</text><polygon fill="#181818" points="1456,836.8477,1466,840.8477,1456,844.8477,1460,840.8477" style="stroke:#181818;stroke-width:1.0;"/><line style="stroke:#181818;stroke-width:1.0;" x1="280.5" x2="1462" y1="840.8477" y2="840.8477"/><text fill="#000000" font-family="FG Virgil" font-size="13" font-weight="bold" lengthAdjust="spacing" textLength="14" x="287.5" y="835.585">17</text><text fill="#000000" font-family="FG Virgil" font-size="13" lengthAdjust="spacing" textLength="140" x="305.5" y="835.585">create(meetingInvitation)</text><path d="M285,853.8477 L285,880.8477 L646,880.8477 L646,863.8477 L636,853.8477 L285,853.8477 " fill="#FEFFDD" style="stroke:#181818;stroke-width:0.5;"/><path d="M636,853.8477 L636,863.8477 L646,863.8477 L636,853.8477 " fill="#FEFFDD" style="stroke:#181818;stroke-width:0.5;"/><text fill="#000000" font-family="FG Virgil" font-size="13" lengthAdjust="spacing" textLength="340" x="291" y="872.876">accept meeting invitation is represented in another diagram</text><line style="stroke:#000000;stroke-width:1.0;stroke-dasharray:2.0,2.0;" x1="174" x2="1747.5" y1="887.1387" y2="887.1387"/><text fill="#000000" font-family="FG Virgil" font-size="11" font-weight="bold" lengthAdjust="spacing" textLength="91" x="179" y="899.0088">[option is reject]</text><polygon fill="#181818" points="1639.5,922.0605,1649.5,926.0605,1639.5,930.0605,1643.5,926.0605" style="stroke:#181818;stroke-width:1.0;"/><line style="stroke:#181818;stroke-width:1.0;" x1="280.5" x2="1645.5" y1="926.0605" y2="926.0605"/><text fill="#000000" font-family="FG Virgil" font-size="13" font-weight="bold" lengthAdjust="spacing" textLength="14" x="287.5" y="920.7979">18</text><text fill="#000000" font-family="FG Virgil" font-size="13" lengthAdjust="spacing" textLength="140" x="305.5" y="920.7979">create(meetingInvitation)</text><path d="M285,939.0605 L285,966.0605 L639,966.0605 L639,949.0605 L629,939.0605 L285,939.0605 " fill="#FEFFDD" style="stroke:#181818;stroke-width:0.5;"/><path d="M629,939.0605 L629,949.0605 L639,949.0605 L629,939.0605 " fill="#FEFFDD" style="stroke:#181818;stroke-width:0.5;"/><text fill="#000000" font-family="FG Virgil" font-size="13" lengthAdjust="spacing" textLength="333" x="291" y="958.0889">reject meeting invitation is represented in another diagram</text><!--SRC=[fLPDRzim3BthLt0zjS3w1uokm32WGu5r6rfafruOYR6rAf8WoUdwxqVvAuxjfErs2MoHx_69ZvA3TNAstgufYFYahSU0M_0edx2aX_HY20B9D8efsc1jqespwJjk2Mw-mYyTIcr6ER52vPwrBM639f8GIITckaFBhB0bIZccxKudJDfP8L0c5-1i5IcS0KQe-K4mMT9IUxG9pbhmNOkz7Q2hspPVmzLLhQ-ltmJwmkA3CwOh9eTN9a7lZPPDsfGjgtkW63dqG66d9JNmUB1qcc8cvMTmEwqw8Lrd-hKPbSA4Quoqm7DFtaNDJNnfcCBmUbhFPod9fsDTnIQwkbtixJtzviau1WrDT0yLsL6ul6Qd2jYU70IzmqISnnYT4Njx2f21E7XUpvpusBFDMtkn9zrJYP7fNEFGmm9AIjzSMPBAdf-F60uJnSJxoubSqt2qqwpe6Cd2FZDYrjhOxFjY8dqoD0NuzYahNrc9LXAdggDiWwe9aPXE8zVQZrK16stLksli2SHeH2-NjZ6VZYY4TPb4brK2jtaJ1bA52IhS4J0OraGM1i6F5grgCzPa72EJWoWhKZL7UpgkEp9lj8LPXoOkBcrXn3Hj-DZN_gISPXZDSvwX38gviDBH6tnPxg5npiDpfVb6TZwlmOTFG7zqEZoaaGoVuAL3EX_NsTdxuLlxPu6BgOUd-mKwWYUhUBNehYFW3qLxky2ZNKQqYQIArnBRS4vi8UBLg-AeBrql_zEUWULjLdJfBDkatinX__szqj_Ym-tvkYcvQDVjOutpWI9PxXr701bUiLwbiUG_048GV_P7Wje-zuBwRyCx1NLU_gCWgxgVlm00]--></g></svg>