<?xml version="1.0" encoding="us-ascii" standalone="no"?><svg xmlns="http://www.w3.org/2000/svg" xmlns:xlink="http://www.w3.org/1999/xlink" contentStyleType="text/css" height="1237px" preserveAspectRatio="none" style="width:1698px;height:1237px;background:#FFFFFF;" version="1.1" viewBox="0 0 1698 1237" width="1698px" zoomAndPan="magnify"><defs/><g><text fill="#000000" font-family="sans-serif" font-size="14" font-weight="bold" lengthAdjust="spacing" textLength="222" x="737" y="30.1074">Set Course's Teacher In Charge</text><rect fill="#FFFFFF" height="968.0215" style="stroke:#181818;stroke-width:1.0;" width="10" x="179" y="161.1543"/><rect fill="#FFFFFF" height="156.4551" style="stroke:#181818;stroke-width:1.0;" width="10" x="496" y="241.0273"/><rect fill="#FFFFFF" height="310.6191" style="stroke:#181818;stroke-width:1.0;" width="10" x="496" y="525.9375"/><rect fill="#FFFFFF" height="123.873" style="stroke:#181818;stroke-width:1.0;" width="10" x="496" y="965.0117"/><rect fill="#FFFFFF" height="93.873" style="stroke:#181818;stroke-width:1.0;" width="10" x="829" y="272.3184"/><rect fill="#FFFFFF" height="31.291" style="stroke:#181818;stroke-width:1.0;" width="10" x="1162" y="303.6094"/><rect fill="#FFFFFF" height="248.0371" style="stroke:#181818;stroke-width:1.0;" width="10" x="1321" y="557.2285"/><rect fill="#FFFFFF" height="28" style="stroke:#181818;stroke-width:1.0;" width="10" x="1326" y="738.9746"/><rect fill="#FFFFFF" height="31.291" style="stroke:#181818;stroke-width:1.0;" width="10" x="1521" y="588.5195"/><rect fill="#FFFFFF" height="31.291" style="stroke:#181818;stroke-width:1.0;" width="10" x="1649" y="651.1016"/><rect fill="#FFFFFF" height="30" style="stroke:#181818;stroke-width:1.0;" width="10" x="1649" y="996.3027"/><line style="stroke:#181818;stroke-width:0.5;stroke-dasharray:5.0,5.0;" x1="36" x2="36" y1="127.8633" y2="1138.1758"/><line style="stroke:#181818;stroke-width:0.5;stroke-dasharray:5.0,5.0;" x1="183.5" x2="183.5" y1="127.8633" y2="1138.1758"/><line style="stroke:#181818;stroke-width:0.5;stroke-dasharray:5.0,5.0;" x1="500.5" x2="500.5" y1="127.8633" y2="1138.1758"/><line style="stroke:#181818;stroke-width:0.5;stroke-dasharray:5.0,5.0;" x1="833.5" x2="833.5" y1="127.8633" y2="1138.1758"/><line style="stroke:#181818;stroke-width:0.5;stroke-dasharray:5.0,5.0;" x1="1167" x2="1167" y1="127.8633" y2="1138.1758"/><line style="stroke:#181818;stroke-width:0.5;stroke-dasharray:5.0,5.0;" x1="1326" x2="1326" y1="127.8633" y2="1138.1758"/><line style="stroke:#181818;stroke-width:0.5;stroke-dasharray:5.0,5.0;" x1="1526" x2="1526" y1="127.8633" y2="1138.1758"/><line style="stroke:#181818;stroke-width:0.5;stroke-dasharray:5.0,5.0;" x1="1654" x2="1654" y1="127.8633" y2="1138.1758"/><text fill="#000000" font-family="sans-serif" font-size="14" lengthAdjust="spacing" textLength="56" x="5" y="124.3496">Manager</text><ellipse cx="36" cy="57.7422" fill="#E2E2F0" rx="8" ry="8" style="stroke:#181818;stroke-width:0.5;"/><path d="M36,65.7422 L36,92.7422 M23,73.7422 L49,73.7422 M36,92.7422 L23,107.7422 M36,92.7422 L49,107.7422 " fill="none" style="stroke:#181818;stroke-width:0.5;"/><text fill="#000000" font-family="sans-serif" font-size="14" lengthAdjust="spacing" textLength="56" x="5" y="1152.2832">Manager</text><ellipse cx="36" cy="1164.2969" fill="#E2E2F0" rx="8" ry="8" style="stroke:#181818;stroke-width:0.5;"/><path d="M36,1172.2969 L36,1199.2969 M23,1180.2969 L49,1180.2969 M36,1199.2969 L23,1214.2969 M36,1199.2969 L49,1214.2969 " fill="none" style="stroke:#181818;stroke-width:0.5;"/><rect fill="#E2E2F0" height="51.2422" rx="2.5" ry="2.5" style="stroke:#181818;stroke-width:0.5;" width="153" x="107.5" y="75.6211"/><text fill="#000000" font-family="sans-serif" font-size="14" font-style="italic" lengthAdjust="spacing" textLength="27" x="170.5" y="97.7285">&#171;ui&#187;</text><text fill="#000000" font-family="sans-serif" font-size="14" lengthAdjust="spacing" textLength="139" x="114.5" y="116.3496">SetCourseTeachersUI</text><rect fill="#E2E2F0" height="51.2422" rx="2.5" ry="2.5" style="stroke:#181818;stroke-width:0.5;" width="153" x="107.5" y="1137.1758"/><text fill="#000000" font-family="sans-serif" font-size="14" font-style="italic" lengthAdjust="spacing" textLength="27" x="170.5" y="1159.2832">&#171;ui&#187;</text><text fill="#000000" font-family="sans-serif" font-size="14" lengthAdjust="spacing" textLength="139" x="114.5" y="1177.9043">SetCourseTeachersUI</text><rect fill="#E2E2F0" height="51.2422" rx="2.5" ry="2.5" style="stroke:#181818;stroke-width:0.5;" width="203" x="399.5" y="75.6211"/><text fill="#000000" font-family="sans-serif" font-size="14" font-style="italic" lengthAdjust="spacing" textLength="84" x="459" y="97.7285">&#171;application&#187;</text><text fill="#000000" font-family="sans-serif" font-size="14" lengthAdjust="spacing" textLength="189" x="406.5" y="116.3496">SetCourseTeachersController</text><rect fill="#E2E2F0" height="51.2422" rx="2.5" ry="2.5" style="stroke:#181818;stroke-width:0.5;" width="203" x="399.5" y="1137.1758"/><text fill="#000000" font-family="sans-serif" font-size="14" font-style="italic" lengthAdjust="spacing" textLength="84" x="459" y="1159.2832">&#171;application&#187;</text><text fill="#000000" font-family="sans-serif" font-size="14" lengthAdjust="spacing" textLength="189" x="406.5" y="1177.9043">SetCourseTeachersController</text><rect fill="#E2E2F0" height="51.2422" rx="2.5" ry="2.5" style="stroke:#181818;stroke-width:0.5;" width="207" x="730.5" y="75.6211"/><text fill="#000000" font-family="sans-serif" font-size="14" font-style="italic" lengthAdjust="spacing" textLength="84" x="792" y="97.7285">&#171;application&#187;</text><text fill="#000000" font-family="sans-serif" font-size="14" lengthAdjust="spacing" textLength="193" x="737.5" y="116.3496">ListManagerCoursesController</text><rect fill="#E2E2F0" height="51.2422" rx="2.5" ry="2.5" style="stroke:#181818;stroke-width:0.5;" width="207" x="730.5" y="1137.1758"/><text fill="#000000" font-family="sans-serif" font-size="14" font-style="italic" lengthAdjust="spacing" textLength="84" x="792" y="1159.2832">&#171;application&#187;</text><text fill="#000000" font-family="sans-serif" font-size="14" lengthAdjust="spacing" textLength="193" x="737.5" y="1177.9043">ListManagerCoursesController</text><text fill="#000000" font-family="sans-serif" font-size="14" font-style="italic" lengthAdjust="spacing" textLength="79" x="1124.5" y="105.7285">&#171;repository&#187;</text><text fill="#000000" font-family="sans-serif" font-size="14" lengthAdjust="spacing" textLength="114" x="1107" y="124.3496">CourseRepository</text><path d="M1149,54.6211 C1149,44.6211 1167,44.6211 1167,44.6211 C1167,44.6211 1185,44.6211 1185,54.6211 L1185,80.6211 C1185,90.6211 1167,90.6211 1167,90.6211 C1167,90.6211 1149,90.6211 1149,80.6211 L1149,54.6211 " fill="#E2E2F0" style="stroke:#181818;stroke-width:1.5;"/><path d="M1149,54.6211 C1149,64.6211 1167,64.6211 1167,64.6211 C1167,64.6211 1185,64.6211 1185,54.6211 " fill="none" style="stroke:#181818;stroke-width:1.5;"/><text fill="#000000" font-family="sans-serif" font-size="14" font-style="italic" lengthAdjust="spacing" textLength="79" x="1124.5" y="1152.2832">&#171;repository&#187;</text><text fill="#000000" font-family="sans-serif" font-size="14" lengthAdjust="spacing" textLength="114" x="1107" y="1170.9043">CourseRepository</text><path d="M1149,1184.418 C1149,1174.418 1167,1174.418 1167,1174.418 C1167,1174.418 1185,1174.418 1185,1184.418 L1185,1210.418 C1185,1220.418 1167,1220.418 1167,1220.418 C1167,1220.418 1149,1220.418 1149,1210.418 L1149,1184.418 " fill="#E2E2F0" style="stroke:#181818;stroke-width:1.5;"/><path d="M1149,1184.418 C1149,1194.418 1167,1194.418 1167,1194.418 C1167,1194.418 1185,1194.418 1185,1184.418 " fill="none" style="stroke:#181818;stroke-width:1.5;"/><rect fill="#E2E2F0" height="51.2422" rx="2.5" ry="2.5" style="stroke:#181818;stroke-width:0.5;" width="178" x="1237" y="75.6211"/><text fill="#000000" font-family="sans-serif" font-size="14" font-style="italic" lengthAdjust="spacing" textLength="60" x="1296" y="97.7285">&#171;service&#187;</text><text fill="#000000" font-family="sans-serif" font-size="14" lengthAdjust="spacing" textLength="164" x="1244" y="116.3496">AvailableTeachersService</text><rect fill="#E2E2F0" height="51.2422" rx="2.5" ry="2.5" style="stroke:#181818;stroke-width:0.5;" width="178" x="1237" y="1137.1758"/><text fill="#000000" font-family="sans-serif" font-size="14" font-style="italic" lengthAdjust="spacing" textLength="60" x="1296" y="1159.2832">&#171;service&#187;</text><text fill="#000000" font-family="sans-serif" font-size="14" lengthAdjust="spacing" textLength="164" x="1244" y="1177.9043">AvailableTeachersService</text><text fill="#000000" font-family="sans-serif" font-size="14" font-style="italic" lengthAdjust="spacing" textLength="79" x="1483.5" y="105.7285">&#171;repository&#187;</text><text fill="#000000" font-family="sans-serif" font-size="14" lengthAdjust="spacing" textLength="154" x="1446" y="124.3496">IeCourseUserRepository</text><path d="M1508,54.6211 C1508,44.6211 1526,44.6211 1526,44.6211 C1526,44.6211 1544,44.6211 1544,54.6211 L1544,80.6211 C1544,90.6211 1526,90.6211 1526,90.6211 C1526,90.6211 1508,90.6211 1508,80.6211 L1508,54.6211 " fill="#E2E2F0" style="stroke:#181818;stroke-width:1.5;"/><path d="M1508,54.6211 C1508,64.6211 1526,64.6211 1526,64.6211 C1526,64.6211 1544,64.6211 1544,54.6211 " fill="none" style="stroke:#181818;stroke-width:1.5;"/><text fill="#000000" font-family="sans-serif" font-size="14" font-style="italic" lengthAdjust="spacing" textLength="79" x="1483.5" y="1152.2832">&#171;repository&#187;</text><text fill="#000000" font-family="sans-serif" font-size="14" lengthAdjust="spacing" textLength="154" x="1446" y="1170.9043">IeCourseUserRepository</text><path d="M1508,1184.418 C1508,1174.418 1526,1174.418 1526,1174.418 C1526,1174.418 1544,1174.418 1544,1184.418 L1544,1210.418 C1544,1220.418 1526,1220.418 1526,1220.418 C1526,1220.418 1508,1220.418 1508,1210.418 L1508,1184.418 " fill="#E2E2F0" style="stroke:#181818;stroke-width:1.5;"/><path d="M1508,1184.418 C1508,1194.418 1526,1194.418 1526,1194.418 C1526,1194.418 1544,1194.418 1544,1184.418 " fill="none" style="stroke:#181818;stroke-width:1.5;"/><rect fill="#E2E2F0" height="51.2422" rx="2.5" ry="2.5" style="stroke:#181818;stroke-width:0.5;" width="76" x="1616" y="75.6211"/><text fill="#000000" font-family="sans-serif" font-size="14" font-style="italic" lengthAdjust="spacing" textLength="62" x="1623" y="97.7285">&#171;domain&#187;</text><text fill="#000000" font-family="sans-serif" font-size="14" lengthAdjust="spacing" textLength="46" x="1631" y="116.3496">Course</text><rect fill="#E2E2F0" height="51.2422" rx="2.5" ry="2.5" style="stroke:#181818;stroke-width:0.5;" width="76" x="1616" y="1137.1758"/><text fill="#000000" font-family="sans-serif" font-size="14" font-style="italic" lengthAdjust="spacing" textLength="62" x="1623" y="1159.2832">&#171;domain&#187;</text><text fill="#000000" font-family="sans-serif" font-size="14" lengthAdjust="spacing" textLength="46" x="1631" y="1177.9043">Course</text><rect fill="#FFFFFF" height="968.0215" style="stroke:#181818;stroke-width:1.0;" width="10" x="179" y="161.1543"/><rect fill="#FFFFFF" height="156.4551" style="stroke:#181818;stroke-width:1.0;" width="10" x="496" y="241.0273"/><rect fill="#FFFFFF" height="310.6191" style="stroke:#181818;stroke-width:1.0;" width="10" x="496" y="525.9375"/><rect fill="#FFFFFF" height="123.873" style="stroke:#181818;stroke-width:1.0;" width="10" x="496" y="965.0117"/><rect fill="#FFFFFF" height="93.873" style="stroke:#181818;stroke-width:1.0;" width="10" x="829" y="272.3184"/><rect fill="#FFFFFF" height="31.291" style="stroke:#181818;stroke-width:1.0;" width="10" x="1162" y="303.6094"/><rect fill="#FFFFFF" height="248.0371" style="stroke:#181818;stroke-width:1.0;" width="10" x="1321" y="557.2285"/><rect fill="#FFFFFF" height="28" style="stroke:#181818;stroke-width:1.0;" width="10" x="1326" y="738.9746"/><rect fill="#FFFFFF" height="31.291" style="stroke:#181818;stroke-width:1.0;" width="10" x="1521" y="588.5195"/><rect fill="#FFFFFF" height="31.291" style="stroke:#181818;stroke-width:1.0;" width="10" x="1649" y="651.1016"/><rect fill="#FFFFFF" height="30" style="stroke:#181818;stroke-width:1.0;" width="10" x="1649" y="996.3027"/><polygon fill="#181818" points="167,157.1543,177,161.1543,167,165.1543,171,161.1543" style="stroke:#181818;stroke-width:1.0;"/><line style="stroke:#181818;stroke-width:1.0;" x1="0" x2="173" y1="161.1543" y2="161.1543"/><text fill="#000000" font-family="sans-serif" font-size="13" font-weight="bold" lengthAdjust="spacing" textLength="7" x="7" y="155.8916">1</text><text fill="#000000" font-family="sans-serif" font-size="13" lengthAdjust="spacing" textLength="42" x="18" y="155.8916">onLoad</text><polygon fill="#181818" points="489,205.7363,499,209.7363,489,213.7363,493,209.7363" style="stroke:#181818;stroke-width:1.0;"/><line style="stroke:#181818;stroke-width:1.0;" x1="189" x2="495" y1="209.7363" y2="209.7363"/><text fill="#000000" font-family="sans-serif" font-size="13" font-weight="bold" lengthAdjust="spacing" textLength="7" x="196" y="195.8281">2</text><text fill="#000000" font-family="sans-serif" font-size="13" lengthAdjust="spacing" textLength="113" x="207" y="187.1826">create(courseRepo,</text><text fill="#000000" font-family="sans-serif" font-size="13" lengthAdjust="spacing" textLength="127" x="207" y="204.4736">availableTeachersSvc)</text><polygon fill="#181818" points="484,237.0273,494,241.0273,484,245.0273,488,241.0273" style="stroke:#181818;stroke-width:1.0;"/><line style="stroke:#181818;stroke-width:1.0;" x1="189" x2="490" y1="241.0273" y2="241.0273"/><text fill="#000000" font-family="sans-serif" font-size="13" font-weight="bold" lengthAdjust="spacing" textLength="7" x="196" y="235.7646">3</text><text fill="#000000" font-family="sans-serif" font-size="13" lengthAdjust="spacing" textLength="114" x="207" y="235.7646">notClosedCourses()</text><polygon fill="#181818" points="817,268.3184,827,272.3184,817,276.3184,821,272.3184" style="stroke:#181818;stroke-width:1.0;"/><line style="stroke:#181818;stroke-width:1.0;" x1="506" x2="823" y1="272.3184" y2="272.3184"/><text fill="#000000" font-family="sans-serif" font-size="13" font-weight="bold" lengthAdjust="spacing" textLength="7" x="513" y="267.0557">4</text><text fill="#000000" font-family="sans-serif" font-size="13" lengthAdjust="spacing" textLength="293" x="524" y="267.0557">findAllNotClosedCoursesWithoutTeacherInCharge()</text><polygon fill="#181818" points="1150,299.6094,1160,303.6094,1150,307.6094,1154,303.6094" style="stroke:#181818;stroke-width:1.0;"/><line style="stroke:#181818;stroke-width:1.0;" x1="839" x2="1156" y1="303.6094" y2="303.6094"/><text fill="#000000" font-family="sans-serif" font-size="13" font-weight="bold" lengthAdjust="spacing" textLength="7" x="846" y="298.3467">5</text><text fill="#000000" font-family="sans-serif" font-size="13" lengthAdjust="spacing" textLength="293" x="857" y="298.3467">findAllNotClosedCoursesWithoutTeacherInCharge()</text><polygon fill="#181818" points="850,330.9004,840,334.9004,850,338.9004,846,334.9004" style="stroke:#181818;stroke-width:1.0;"/><line style="stroke:#181818;stroke-width:1.0;stroke-dasharray:2.0,2.0;" x1="844" x2="1166" y1="334.9004" y2="334.9004"/><text fill="#000000" font-family="sans-serif" font-size="13" font-weight="bold" lengthAdjust="spacing" textLength="7" x="856" y="329.6377">6</text><text fill="#000000" font-family="sans-serif" font-size="13" lengthAdjust="spacing" textLength="46" x="867" y="329.6377">courses</text><polygon fill="#181818" points="517,362.1914,507,366.1914,517,370.1914,513,366.1914" style="stroke:#181818;stroke-width:1.0;"/><line style="stroke:#181818;stroke-width:1.0;stroke-dasharray:2.0,2.0;" x1="511" x2="833" y1="366.1914" y2="366.1914"/><text fill="#000000" font-family="sans-serif" font-size="13" font-weight="bold" lengthAdjust="spacing" textLength="7" x="523" y="360.9287">7</text><text fill="#000000" font-family="sans-serif" font-size="13" lengthAdjust="spacing" textLength="46" x="534" y="360.9287">courses</text><polygon fill="#181818" points="200,393.4824,190,397.4824,200,401.4824,196,397.4824" style="stroke:#181818;stroke-width:1.0;"/><line style="stroke:#181818;stroke-width:1.0;stroke-dasharray:2.0,2.0;" x1="194" x2="500" y1="397.4824" y2="397.4824"/><text fill="#000000" font-family="sans-serif" font-size="13" font-weight="bold" lengthAdjust="spacing" textLength="7" x="206" y="392.2197">8</text><text fill="#000000" font-family="sans-serif" font-size="13" lengthAdjust="spacing" textLength="46" x="217" y="392.2197">courses</text><polygon fill="#181818" points="47,442.0645,37,446.0645,47,450.0645,43,446.0645" style="stroke:#181818;stroke-width:1.0;"/><line style="stroke:#181818;stroke-width:1.0;stroke-dasharray:2.0,2.0;" x1="41" x2="178" y1="446.0645" y2="446.0645"/><text fill="#000000" font-family="sans-serif" font-size="13" font-weight="bold" lengthAdjust="spacing" textLength="7" x="53" y="432.1563">9</text><text fill="#000000" font-family="sans-serif" font-size="13" lengthAdjust="spacing" textLength="46" x="64" y="423.5107">lists the</text><text fill="#000000" font-family="sans-serif" font-size="13" lengthAdjust="spacing" textLength="46" x="64" y="440.8018">courses</text><polygon fill="#181818" points="167,490.6465,177,494.6465,167,498.6465,171,494.6465" style="stroke:#181818;stroke-width:1.0;"/><line style="stroke:#181818;stroke-width:1.0;" x1="36" x2="173" y1="494.6465" y2="494.6465"/><text fill="#000000" font-family="sans-serif" font-size="13" font-weight="bold" lengthAdjust="spacing" textLength="14" x="43" y="480.7383">10</text><text fill="#000000" font-family="sans-serif" font-size="13" lengthAdjust="spacing" textLength="64" x="61" y="472.0928">selects the</text><text fill="#000000" font-family="sans-serif" font-size="13" lengthAdjust="spacing" textLength="39" x="61" y="489.3838">course</text><polygon fill="#181818" points="484,521.9375,494,525.9375,484,529.9375,488,525.9375" style="stroke:#181818;stroke-width:1.0;"/><line style="stroke:#181818;stroke-width:1.0;" x1="189" x2="490" y1="525.9375" y2="525.9375"/><text fill="#000000" font-family="sans-serif" font-size="13" font-weight="bold" lengthAdjust="spacing" textLength="14" x="196" y="520.6748">11</text><text fill="#000000" font-family="sans-serif" font-size="13" lengthAdjust="spacing" textLength="149" x="214" y="520.6748">availableTeachers(course)</text><polygon fill="#181818" points="1309,553.2285,1319,557.2285,1309,561.2285,1313,557.2285" style="stroke:#181818;stroke-width:1.0;"/><line style="stroke:#181818;stroke-width:1.0;" x1="506" x2="1315" y1="557.2285" y2="557.2285"/><text fill="#000000" font-family="sans-serif" font-size="13" font-weight="bold" lengthAdjust="spacing" textLength="14" x="513" y="551.9658">12</text><text fill="#000000" font-family="sans-serif" font-size="13" lengthAdjust="spacing" textLength="149" x="531" y="551.9658">availableTeachers(course)</text><polygon fill="#181818" points="1509,584.5195,1519,588.5195,1509,592.5195,1513,588.5195" style="stroke:#181818;stroke-width:1.0;"/><line style="stroke:#181818;stroke-width:1.0;" x1="1331" x2="1515" y1="588.5195" y2="588.5195"/><text fill="#000000" font-family="sans-serif" font-size="13" font-weight="bold" lengthAdjust="spacing" textLength="14" x="1338" y="583.2568">13</text><text fill="#000000" font-family="sans-serif" font-size="13" lengthAdjust="spacing" textLength="135" x="1356" y="583.2568">findAllTeachers(course)</text><polygon fill="#181818" points="1342,615.8105,1332,619.8105,1342,623.8105,1338,619.8105" style="stroke:#181818;stroke-width:1.0;"/><line style="stroke:#181818;stroke-width:1.0;stroke-dasharray:2.0,2.0;" x1="1336" x2="1525" y1="619.8105" y2="619.8105"/><text fill="#000000" font-family="sans-serif" font-size="13" font-weight="bold" lengthAdjust="spacing" textLength="14" x="1348" y="614.5479">14</text><text fill="#000000" font-family="sans-serif" font-size="13" lengthAdjust="spacing" textLength="50" x="1366" y="614.5479">teachers</text><polygon fill="#181818" points="1637,647.1016,1647,651.1016,1637,655.1016,1641,651.1016" style="stroke:#181818;stroke-width:1.0;"/><line style="stroke:#181818;stroke-width:1.0;" x1="1331" x2="1643" y1="651.1016" y2="651.1016"/><text fill="#000000" font-family="sans-serif" font-size="13" font-weight="bold" lengthAdjust="spacing" textLength="14" x="1338" y="645.8389">15</text><text fill="#000000" font-family="sans-serif" font-size="13" lengthAdjust="spacing" textLength="58" x="1356" y="645.8389">teachers()</text><polygon fill="#181818" points="1342,678.3926,1332,682.3926,1342,686.3926,1338,682.3926" style="stroke:#181818;stroke-width:1.0;"/><line style="stroke:#181818;stroke-width:1.0;stroke-dasharray:2.0,2.0;" x1="1336" x2="1653" y1="682.3926" y2="682.3926"/><text fill="#000000" font-family="sans-serif" font-size="13" font-weight="bold" lengthAdjust="spacing" textLength="14" x="1348" y="677.1299">16</text><text fill="#000000" font-family="sans-serif" font-size="13" lengthAdjust="spacing" textLength="92" x="1366" y="677.1299">courseTeachers</text><line style="stroke:#181818;stroke-width:1.0;" x1="1336" x2="1378" y1="730.9746" y2="730.9746"/><line style="stroke:#181818;stroke-width:1.0;" x1="1378" x2="1378" y1="730.9746" y2="743.9746"/><line style="stroke:#181818;stroke-width:1.0;" x1="1337" x2="1378" y1="743.9746" y2="743.9746"/><polygon fill="#181818" points="1347,739.9746,1337,743.9746,1347,747.9746,1343,743.9746" style="stroke:#181818;stroke-width:1.0;"/><text fill="#000000" font-family="sans-serif" font-size="13" font-weight="bold" lengthAdjust="spacing" textLength="14" x="1343" y="717.0664">17</text><text fill="#000000" font-family="sans-serif" font-size="13" lengthAdjust="spacing" textLength="141" x="1361" y="708.4209">filterTeacherNotInCourse</text><text fill="#000000" font-family="sans-serif" font-size="13" lengthAdjust="spacing" textLength="158" x="1361" y="725.7119">(teachers, courseTeachers)</text><polygon fill="#181818" points="517,801.2656,507,805.2656,517,809.2656,513,805.2656" style="stroke:#181818;stroke-width:1.0;"/><line style="stroke:#181818;stroke-width:1.0;stroke-dasharray:2.0,2.0;" x1="511" x2="1325" y1="805.2656" y2="805.2656"/><text fill="#000000" font-family="sans-serif" font-size="13" font-weight="bold" lengthAdjust="spacing" textLength="14" x="523" y="800.0029">18</text><text fill="#000000" font-family="sans-serif" font-size="13" lengthAdjust="spacing" textLength="102" x="541" y="800.0029">availableTeachers</text><polygon fill="#181818" points="200,832.5566,190,836.5566,200,840.5566,196,836.5566" style="stroke:#181818;stroke-width:1.0;"/><line style="stroke:#181818;stroke-width:1.0;stroke-dasharray:2.0,2.0;" x1="194" x2="500" y1="836.5566" y2="836.5566"/><text fill="#000000" font-family="sans-serif" font-size="13" font-weight="bold" lengthAdjust="spacing" textLength="14" x="206" y="831.2939">19</text><text fill="#000000" font-family="sans-serif" font-size="13" lengthAdjust="spacing" textLength="102" x="224" y="831.2939">availableTeachers</text><polygon fill="#181818" points="47,881.1387,37,885.1387,47,889.1387,43,885.1387" style="stroke:#181818;stroke-width:1.0;"/><line style="stroke:#181818;stroke-width:1.0;stroke-dasharray:2.0,2.0;" x1="41" x2="178" y1="885.1387" y2="885.1387"/><text fill="#000000" font-family="sans-serif" font-size="13" font-weight="bold" lengthAdjust="spacing" textLength="14" x="53" y="871.2305">20</text><text fill="#000000" font-family="sans-serif" font-size="13" lengthAdjust="spacing" textLength="46" x="71" y="862.585">lists the</text><text fill="#000000" font-family="sans-serif" font-size="13" lengthAdjust="spacing" textLength="50" x="71" y="879.876">teachers</text><polygon fill="#181818" points="167,929.7207,177,933.7207,167,937.7207,171,933.7207" style="stroke:#181818;stroke-width:1.0;"/><line style="stroke:#181818;stroke-width:1.0;" x1="36" x2="173" y1="933.7207" y2="933.7207"/><text fill="#000000" font-family="sans-serif" font-size="13" font-weight="bold" lengthAdjust="spacing" textLength="14" x="43" y="919.8125">21</text><text fill="#000000" font-family="sans-serif" font-size="13" lengthAdjust="spacing" textLength="64" x="61" y="911.167">selects the</text><text fill="#000000" font-family="sans-serif" font-size="13" lengthAdjust="spacing" textLength="43" x="61" y="928.458">teacher</text><polygon fill="#181818" points="484,961.0117,494,965.0117,484,969.0117,488,965.0117" style="stroke:#181818;stroke-width:1.0;"/><line style="stroke:#181818;stroke-width:1.0;" x1="189" x2="490" y1="965.0117" y2="965.0117"/><text fill="#000000" font-family="sans-serif" font-size="13" font-weight="bold" lengthAdjust="spacing" textLength="14" x="196" y="959.749">22</text><text fill="#000000" font-family="sans-serif" font-size="13" lengthAdjust="spacing" textLength="270" x="214" y="959.749">defineCourseTeacherInCharge(course, teacher)</text><polygon fill="#181818" points="1637,992.3027,1647,996.3027,1637,1000.3027,1641,996.3027" style="stroke:#181818;stroke-width:1.0;"/><line style="stroke:#181818;stroke-width:1.0;" x1="506" x2="1643" y1="996.3027" y2="996.3027"/><text fill="#000000" font-family="sans-serif" font-size="13" font-weight="bold" lengthAdjust="spacing" textLength="14" x="513" y="991.04">23</text><text fill="#000000" font-family="sans-serif" font-size="13" lengthAdjust="spacing" textLength="182" x="531" y="991.04">defineTeacherInCharge(teacher)</text><polygon fill="#181818" points="1155,1053.5938,1165,1057.5938,1155,1061.5938,1159,1057.5938" style="stroke:#181818;stroke-width:1.0;"/><line style="stroke:#181818;stroke-width:1.0;" x1="506" x2="1161" y1="1057.5938" y2="1057.5938"/><text fill="#000000" font-family="sans-serif" font-size="13" font-weight="bold" lengthAdjust="spacing" textLength="14" x="513" y="1052.3311">24</text><text fill="#000000" font-family="sans-serif" font-size="13" lengthAdjust="spacing" textLength="73" x="531" y="1052.3311">save(course)</text><polygon fill="#181818" points="200,1084.8848,190,1088.8848,200,1092.8848,196,1088.8848" style="stroke:#181818;stroke-width:1.0;"/><line style="stroke:#181818;stroke-width:1.0;stroke-dasharray:2.0,2.0;" x1="194" x2="500" y1="1088.8848" y2="1088.8848"/><text fill="#000000" font-family="sans-serif" font-size="13" font-weight="bold" lengthAdjust="spacing" textLength="14" x="206" y="1083.6221">25</text><text fill="#000000" font-family="sans-serif" font-size="13" lengthAdjust="spacing" textLength="93" x="224" y="1083.6221">returns success</text><polygon fill="#181818" points="47,1116.1758,37,1120.1758,47,1124.1758,43,1120.1758" style="stroke:#181818;stroke-width:1.0;"/><line style="stroke:#181818;stroke-width:1.0;stroke-dasharray:2.0,2.0;" x1="41" x2="178" y1="1120.1758" y2="1120.1758"/><text fill="#000000" font-family="sans-serif" font-size="13" font-weight="bold" lengthAdjust="spacing" textLength="14" x="53" y="1114.9131">26</text><text fill="#000000" font-family="sans-serif" font-size="13" lengthAdjust="spacing" textLength="101" x="71" y="1114.9131">displays success</text><!--SRC=[fPJBYkCm44Nt-WgHpQGX-O7G18BfXS7fHHxC9fkANDqHg2KZoO7- -obRibjo7ZCmMKhdtbBTAiTBhv3lqVF2jDRXBySF2EA2bfUQ5nUmdyWOjDxezkkCbe7mnl8jQFWa1XpViWQibq8se3sVaLLmYZRkMCuwx5ZorzTMhjT_mGkZlJLAeUrbnM5NaH2QHaa1NXezTQYay_4vmMbgKTtrgC736HpoML3ji35EKc_VeUwE57OycnRTN44gEAlnsNkqLocmrsuEUnAxS9ALAZ4KEzBbf63vzhHWq8Md4LYRBv1T6sovxg9TSQCh0pNhvYElu95E6LtGTT_-YWkBT3mNOxUBauQRDgxY9PTfumjb7DOntFdBJuaEOJr7V1K57rBN6wNU9xhVqbzCwsEXKeVLIjrw0rODVZI1_p0hTemCbicxGkEErPX2iLmIqorM9NqESTzpwoYwxA4jCOesqt5_mPCUy2qV31mg5Fbr7lpDREBe7kNVRTq_gGXa7KmQMhenuyU2yeqHk1nh-4YcpHCJFOk4o2R2YiH3P1zz5kDW5C0FgJpQ2D8UqB1xwKdFXogBYTkaryHxRFr9p5C-d_jJVDY0EmimPlPW0-9ziW8hNYED1hE_nt7LGyUB8Ub7Iz4D8zXC3Uu8yobatw63AuwBaITYqRTME-vQ8T0zpQEMhb7m_SFIxmy0]--></g></svg>