<?xml version="1.0" encoding="us-ascii" standalone="no"?><svg xmlns="http://www.w3.org/2000/svg" xmlns:xlink="http://www.w3.org/1999/xlink" contentStyleType="text/css" height="1332px" preserveAspectRatio="none" style="width:555px;height:1332px;background:#FFFFFF;" version="1.1" viewBox="0 0 555 1332" width="555px" zoomAndPan="magnify"><defs/><g><text fill="#000000" font-family="sans-serif" font-size="14" font-weight="bold" lengthAdjust="spacing" textLength="219" x="169.75" y="30.1074">Simulate User Accessing Board</text><rect fill="#FFFFFF" height="1107.2051" style="stroke:#181818;stroke-width:1.0;" width="10" x="243.5" y="133.2422"/><rect fill="none" height="910.168" style="stroke:#000000;stroke-width:1.5;" width="539.5" x="10" y="322.2793"/><rect fill="none" height="814.2949" style="stroke:#000000;stroke-width:1.5;" width="519.5" x="20" y="411.1523"/><line style="stroke:#181818;stroke-width:0.5;stroke-dasharray:5.0,5.0;" x1="47" x2="47" y1="123.2422" y2="1249.4473"/><line style="stroke:#181818;stroke-width:0.5;stroke-dasharray:5.0,5.0;" x1="248.5" x2="248.5" y1="123.2422" y2="1249.4473"/><text fill="#000000" font-family="sans-serif" font-size="14" lengthAdjust="spacing" textLength="29" x="30" y="119.7285">User</text><ellipse cx="47.5" cy="53.1211" fill="#E2E2F0" rx="8" ry="8" style="stroke:#181818;stroke-width:0.5;"/><path d="M47.5,61.1211 L47.5,88.1211 M34.5,69.1211 L60.5,69.1211 M47.5,88.1211 L34.5,103.1211 M47.5,88.1211 L60.5,103.1211 " fill="none" style="stroke:#181818;stroke-width:0.5;"/><text fill="#000000" font-family="sans-serif" font-size="14" lengthAdjust="spacing" textLength="29" x="30" y="1263.5547">User</text><ellipse cx="47.5" cy="1275.5684" fill="#E2E2F0" rx="8" ry="8" style="stroke:#181818;stroke-width:0.5;"/><path d="M47.5,1283.5684 L47.5,1310.5684 M34.5,1291.5684 L60.5,1291.5684 M47.5,1310.5684 L34.5,1325.5684 M47.5,1310.5684 L60.5,1325.5684 " fill="none" style="stroke:#181818;stroke-width:0.5;"/><rect fill="#E2E2F0" height="51.2422" rx="2.5" ry="2.5" style="stroke:#181818;stroke-width:0.5;" width="76" x="210.5" y="71"/><text fill="#000000" font-family="sans-serif" font-size="14" font-style="italic" lengthAdjust="spacing" textLength="62" x="217.5" y="93.1074">&#171;System&#187;</text><text fill="#000000" font-family="sans-serif" font-size="14" lengthAdjust="spacing" textLength="46" x="225.5" y="111.7285">System</text><rect fill="#E2E2F0" height="51.2422" rx="2.5" ry="2.5" style="stroke:#181818;stroke-width:0.5;" width="76" x="210.5" y="1248.4473"/><text fill="#000000" font-family="sans-serif" font-size="14" font-style="italic" lengthAdjust="spacing" textLength="62" x="217.5" y="1270.5547">&#171;System&#187;</text><text fill="#000000" font-family="sans-serif" font-size="14" lengthAdjust="spacing" textLength="46" x="225.5" y="1289.1758">System</text><rect fill="#FFFFFF" height="1107.2051" style="stroke:#181818;stroke-width:1.0;" width="10" x="243.5" y="133.2422"/><polygon fill="#181818" points="231.5,152.5332,241.5,156.5332,231.5,160.5332,235.5,156.5332" style="stroke:#181818;stroke-width:1.0;"/><line style="stroke:#181818;stroke-width:1.0;" x1="47.5" x2="237.5" y1="156.5332" y2="156.5332"/><text fill="#000000" font-family="sans-serif" font-size="13" font-weight="bold" lengthAdjust="spacing" textLength="7" x="54.5" y="151.2705">1</text><text fill="#000000" font-family="sans-serif" font-size="13" lengthAdjust="spacing" textLength="78" x="65.5" y="151.2705">access board</text><line style="stroke:#181818;stroke-width:1.0;" x1="253.5" x2="295.5" y1="187.8242" y2="187.8242"/><line style="stroke:#181818;stroke-width:1.0;" x1="295.5" x2="295.5" y1="187.8242" y2="200.8242"/><line style="stroke:#181818;stroke-width:1.0;" x1="254.5" x2="295.5" y1="200.8242" y2="200.8242"/><polygon fill="#181818" points="264.5,196.8242,254.5,200.8242,264.5,204.8242,260.5,200.8242" style="stroke:#181818;stroke-width:1.0;"/><text fill="#000000" font-family="sans-serif" font-size="13" font-weight="bold" lengthAdjust="spacing" textLength="7" x="260.5" y="182.5615">2</text><text fill="#000000" font-family="sans-serif" font-size="13" lengthAdjust="spacing" textLength="142" x="271.5" y="182.5615">prepare available options</text><path d="M258,213.8242 L258,309.8242 L408,309.8242 L408,223.8242 L398,213.8242 L258,213.8242 " fill="#FEFFDD" style="stroke:#181818;stroke-width:0.5;"/><path d="M398,213.8242 L398,223.8242 L408,223.8242 L398,213.8242 " fill="#FEFFDD" style="stroke:#181818;stroke-width:0.5;"/><text fill="#000000" font-family="sans-serif" font-size="13" lengthAdjust="spacing" textLength="68" x="264" y="232.8525">options are:</text><text fill="#000000" font-family="sans-serif" font-size="13" lengthAdjust="spacing" textLength="82" x="268" y="250.1436">- Edit a post-it</text><text fill="#000000" font-family="sans-serif" font-size="13" lengthAdjust="spacing" textLength="87" x="268" y="267.4346">- View a post-it</text><text fill="#000000" font-family="sans-serif" font-size="13" lengthAdjust="spacing" textLength="121" x="268" y="284.7256">- Clear board content</text><text fill="#000000" font-family="sans-serif" font-size="13" lengthAdjust="spacing" textLength="31" x="268" y="302.0166">- Exit</text><path d="M10,322.2793 L83,322.2793 L83,331.5703 L73,341.5703 L10,341.5703 L10,322.2793 " fill="#EEEEEE" style="stroke:#000000;stroke-width:1.5;"/><rect fill="none" height="910.168" style="stroke:#000000;stroke-width:1.5;" width="539.5" x="10" y="322.2793"/><text fill="#000000" font-family="sans-serif" font-size="13" font-weight="bold" lengthAdjust="spacing" textLength="28" x="25" y="337.3076">loop</text><text fill="#000000" font-family="sans-serif" font-size="11" font-weight="bold" lengthAdjust="spacing" textLength="91" x="98" y="336.1494">[until user exits]</text><polygon fill="#181818" points="58.5,360.8613,48.5,364.8613,58.5,368.8613,54.5,364.8613" style="stroke:#181818;stroke-width:1.0;"/><line style="stroke:#181818;stroke-width:1.0;" x1="52.5" x2="242.5" y1="364.8613" y2="364.8613"/><text fill="#000000" font-family="sans-serif" font-size="13" font-weight="bold" lengthAdjust="spacing" textLength="7" x="64.5" y="359.5986">3</text><text fill="#000000" font-family="sans-serif" font-size="13" lengthAdjust="spacing" textLength="87" x="75.5" y="359.5986">display options</text><polygon fill="#181818" points="231.5,392.1523,241.5,396.1523,231.5,400.1523,235.5,396.1523" style="stroke:#181818;stroke-width:1.0;"/><line style="stroke:#181818;stroke-width:1.0;" x1="47.5" x2="237.5" y1="396.1523" y2="396.1523"/><text fill="#000000" font-family="sans-serif" font-size="13" font-weight="bold" lengthAdjust="spacing" textLength="7" x="54.5" y="390.8896">4</text><text fill="#000000" font-family="sans-serif" font-size="13" lengthAdjust="spacing" textLength="74" x="65.5" y="390.8896">select option</text><path d="M20,411.1523 L81,411.1523 L81,420.4434 L71,430.4434 L20,430.4434 L20,411.1523 " fill="#EEEEEE" style="stroke:#000000;stroke-width:1.5;"/><rect fill="none" height="814.2949" style="stroke:#000000;stroke-width:1.5;" width="519.5" x="20" y="411.1523"/><text fill="#000000" font-family="sans-serif" font-size="13" font-weight="bold" lengthAdjust="spacing" textLength="16" x="35" y="426.1807">alt</text><text fill="#000000" font-family="sans-serif" font-size="11" font-weight="bold" lengthAdjust="spacing" textLength="68" x="96" y="425.0225">[edit post-it]</text><polygon fill="#181818" points="58.5,449.7344,48.5,453.7344,58.5,457.7344,54.5,453.7344" style="stroke:#181818;stroke-width:1.0;"/><line style="stroke:#181818;stroke-width:1.0;" x1="52.5" x2="242.5" y1="453.7344" y2="453.7344"/><text fill="#000000" font-family="sans-serif" font-size="13" font-weight="bold" lengthAdjust="spacing" textLength="7" x="64.5" y="448.4717">5</text><text fill="#000000" font-family="sans-serif" font-size="13" lengthAdjust="spacing" textLength="154" x="75.5" y="448.4717">request post-it coordinates</text><polygon fill="#181818" points="231.5,481.0254,241.5,485.0254,231.5,489.0254,235.5,485.0254" style="stroke:#181818;stroke-width:1.0;"/><line style="stroke:#181818;stroke-width:1.0;" x1="47.5" x2="237.5" y1="485.0254" y2="485.0254"/><text fill="#000000" font-family="sans-serif" font-size="13" font-weight="bold" lengthAdjust="spacing" textLength="7" x="54.5" y="479.7627">6</text><text fill="#000000" font-family="sans-serif" font-size="13" lengthAdjust="spacing" textLength="151" x="65.5" y="479.7627">provide post-it coordinates</text><line style="stroke:#181818;stroke-width:1.0;" x1="253.5" x2="295.5" y1="516.3164" y2="516.3164"/><line style="stroke:#181818;stroke-width:1.0;" x1="295.5" x2="295.5" y1="516.3164" y2="529.3164"/><line style="stroke:#181818;stroke-width:1.0;" x1="254.5" x2="295.5" y1="529.3164" y2="529.3164"/><polygon fill="#181818" points="264.5,525.3164,254.5,529.3164,264.5,533.3164,260.5,529.3164" style="stroke:#181818;stroke-width:1.0;"/><text fill="#000000" font-family="sans-serif" font-size="13" font-weight="bold" lengthAdjust="spacing" textLength="7" x="260.5" y="511.0537">7</text><text fill="#000000" font-family="sans-serif" font-size="13" lengthAdjust="spacing" textLength="256" x="271.5" y="511.0537">sem_wait(&amp;semaphore_post_it_coordinates)</text><path d="M258,542.3164 L258,586.3164 L471,586.3164 L471,552.3164 L461,542.3164 L258,542.3164 " fill="#FEFFDD" style="stroke:#181818;stroke-width:0.5;"/><path d="M461,542.3164 L461,552.3164 L471,552.3164 L461,542.3164 " fill="#FEFFDD" style="stroke:#181818;stroke-width:0.5;"/><text fill="#000000" font-family="sans-serif" font-size="13" lengthAdjust="spacing" textLength="188" x="264" y="561.3447">sem_wait() blocks until post-it at</text><text fill="#000000" font-family="sans-serif" font-size="13" lengthAdjust="spacing" textLength="142" x="268" y="578.6357">coordinates are available</text><polygon fill="#181818" points="58.5,611.1895,48.5,615.1895,58.5,619.1895,54.5,615.1895" style="stroke:#181818;stroke-width:1.0;"/><line style="stroke:#181818;stroke-width:1.0;" x1="52.5" x2="242.5" y1="615.1895" y2="615.1895"/><text fill="#000000" font-family="sans-serif" font-size="13" font-weight="bold" lengthAdjust="spacing" textLength="7" x="64.5" y="609.9268">8</text><text fill="#000000" font-family="sans-serif" font-size="13" lengthAdjust="spacing" textLength="157" x="75.5" y="609.9268">request new post-it content</text><polygon fill="#181818" points="231.5,642.4805,241.5,646.4805,231.5,650.4805,235.5,646.4805" style="stroke:#181818;stroke-width:1.0;"/><line style="stroke:#181818;stroke-width:1.0;" x1="47.5" x2="237.5" y1="646.4805" y2="646.4805"/><text fill="#000000" font-family="sans-serif" font-size="13" font-weight="bold" lengthAdjust="spacing" textLength="7" x="54.5" y="641.2178">9</text><text fill="#000000" font-family="sans-serif" font-size="13" lengthAdjust="spacing" textLength="154" x="65.5" y="641.2178">provide new post-it content</text><line style="stroke:#181818;stroke-width:1.0;" x1="253.5" x2="295.5" y1="677.7715" y2="677.7715"/><line style="stroke:#181818;stroke-width:1.0;" x1="295.5" x2="295.5" y1="677.7715" y2="690.7715"/><line style="stroke:#181818;stroke-width:1.0;" x1="254.5" x2="295.5" y1="690.7715" y2="690.7715"/><polygon fill="#181818" points="264.5,686.7715,254.5,690.7715,264.5,694.7715,260.5,690.7715" style="stroke:#181818;stroke-width:1.0;"/><text fill="#000000" font-family="sans-serif" font-size="13" font-weight="bold" lengthAdjust="spacing" textLength="14" x="260.5" y="672.5088">10</text><text fill="#000000" font-family="sans-serif" font-size="13" lengthAdjust="spacing" textLength="186" x="278.5" y="672.5088">edit_postit(coordinates, content)</text><line style="stroke:#181818;stroke-width:1.0;" x1="253.5" x2="295.5" y1="722.0625" y2="722.0625"/><line style="stroke:#181818;stroke-width:1.0;" x1="295.5" x2="295.5" y1="722.0625" y2="735.0625"/><line style="stroke:#181818;stroke-width:1.0;" x1="254.5" x2="295.5" y1="735.0625" y2="735.0625"/><polygon fill="#181818" points="264.5,731.0625,254.5,735.0625,264.5,739.0625,260.5,735.0625" style="stroke:#181818;stroke-width:1.0;"/><text fill="#000000" font-family="sans-serif" font-size="13" font-weight="bold" lengthAdjust="spacing" textLength="14" x="260.5" y="716.7998">11</text><text fill="#000000" font-family="sans-serif" font-size="13" lengthAdjust="spacing" textLength="234" x="278.5" y="716.7998">sem_post(&amp;semaphore_post_it_content)</text><path d="M258,748.0625 L258,792.0625 L487,792.0625 L487,758.0625 L477,748.0625 L258,748.0625 " fill="#FEFFDD" style="stroke:#181818;stroke-width:0.5;"/><path d="M477,748.0625 L477,758.0625 L487,758.0625 L477,748.0625 " fill="#FEFFDD" style="stroke:#181818;stroke-width:0.5;"/><text fill="#000000" font-family="sans-serif" font-size="13" lengthAdjust="spacing" textLength="204" x="264" y="767.0908">sem_post() unblocks the access to</text><text fill="#000000" font-family="sans-serif" font-size="13" lengthAdjust="spacing" textLength="169" x="268" y="784.3818">post-it content at coordinates</text><line style="stroke:#000000;stroke-width:1.0;stroke-dasharray:2.0,2.0;" x1="20" x2="539.5" y1="798.6445" y2="798.6445"/><text fill="#000000" font-family="sans-serif" font-size="11" font-weight="bold" lengthAdjust="spacing" textLength="73" x="25" y="810.5146">[view post-it]</text><polygon fill="#181818" points="58.5,833.5664,48.5,837.5664,58.5,841.5664,54.5,837.5664" style="stroke:#181818;stroke-width:1.0;"/><line style="stroke:#181818;stroke-width:1.0;" x1="52.5" x2="242.5" y1="837.5664" y2="837.5664"/><text fill="#000000" font-family="sans-serif" font-size="13" font-weight="bold" lengthAdjust="spacing" textLength="14" x="64.5" y="832.3037">12</text><text fill="#000000" font-family="sans-serif" font-size="13" lengthAdjust="spacing" textLength="154" x="82.5" y="832.3037">request post-it coordinates</text><polygon fill="#181818" points="231.5,864.8574,241.5,868.8574,231.5,872.8574,235.5,868.8574" style="stroke:#181818;stroke-width:1.0;"/><line style="stroke:#181818;stroke-width:1.0;" x1="47.5" x2="237.5" y1="868.8574" y2="868.8574"/><text fill="#000000" font-family="sans-serif" font-size="13" font-weight="bold" lengthAdjust="spacing" textLength="14" x="54.5" y="863.5947">13</text><text fill="#000000" font-family="sans-serif" font-size="13" lengthAdjust="spacing" textLength="151" x="72.5" y="863.5947">provide post-it coordinates</text><line style="stroke:#181818;stroke-width:1.0;" x1="253.5" x2="295.5" y1="900.1484" y2="900.1484"/><line style="stroke:#181818;stroke-width:1.0;" x1="295.5" x2="295.5" y1="900.1484" y2="913.1484"/><line style="stroke:#181818;stroke-width:1.0;" x1="254.5" x2="295.5" y1="913.1484" y2="913.1484"/><polygon fill="#181818" points="264.5,909.1484,254.5,913.1484,264.5,917.1484,260.5,913.1484" style="stroke:#181818;stroke-width:1.0;"/><text fill="#000000" font-family="sans-serif" font-size="13" font-weight="bold" lengthAdjust="spacing" textLength="14" x="260.5" y="894.8857">14</text><text fill="#000000" font-family="sans-serif" font-size="13" lengthAdjust="spacing" textLength="138" x="278.5" y="894.8857">view_postit(coordinates)</text><polygon fill="#181818" points="58.5,940.4395,48.5,944.4395,58.5,948.4395,54.5,944.4395" style="stroke:#181818;stroke-width:1.0;"/><line style="stroke:#181818;stroke-width:1.0;" x1="52.5" x2="242.5" y1="944.4395" y2="944.4395"/><text fill="#000000" font-family="sans-serif" font-size="13" font-weight="bold" lengthAdjust="spacing" textLength="14" x="64.5" y="939.1768">15</text><text fill="#000000" font-family="sans-serif" font-size="13" lengthAdjust="spacing" textLength="128" x="82.5" y="939.1768">display post-it content</text><line style="stroke:#000000;stroke-width:1.0;stroke-dasharray:2.0,2.0;" x1="20" x2="539.5" y1="953.4395" y2="953.4395"/><text fill="#000000" font-family="sans-serif" font-size="11" font-weight="bold" lengthAdjust="spacing" textLength="115" x="25" y="965.3096">[clear board content]</text><polygon fill="#181818" points="58.5,988.3613,48.5,992.3613,58.5,996.3613,54.5,992.3613" style="stroke:#181818;stroke-width:1.0;"/><line style="stroke:#181818;stroke-width:1.0;" x1="52.5" x2="242.5" y1="992.3613" y2="992.3613"/><text fill="#000000" font-family="sans-serif" font-size="13" font-weight="bold" lengthAdjust="spacing" textLength="14" x="64.5" y="987.0986">16</text><text fill="#000000" font-family="sans-serif" font-size="13" lengthAdjust="spacing" textLength="102" x="82.5" y="987.0986">request password</text><polygon fill="#181818" points="231.5,1019.6523,241.5,1023.6523,231.5,1027.6523,235.5,1023.6523" style="stroke:#181818;stroke-width:1.0;"/><line style="stroke:#181818;stroke-width:1.0;" x1="47.5" x2="237.5" y1="1023.6523" y2="1023.6523"/><text fill="#000000" font-family="sans-serif" font-size="13" font-weight="bold" lengthAdjust="spacing" textLength="14" x="54.5" y="1018.3896">17</text><text fill="#000000" font-family="sans-serif" font-size="13" lengthAdjust="spacing" textLength="99" x="72.5" y="1018.3896">provide password</text><line style="stroke:#181818;stroke-width:1.0;" x1="253.5" x2="295.5" y1="1054.9434" y2="1054.9434"/><line style="stroke:#181818;stroke-width:1.0;" x1="295.5" x2="295.5" y1="1054.9434" y2="1067.9434"/><line style="stroke:#181818;stroke-width:1.0;" x1="254.5" x2="295.5" y1="1067.9434" y2="1067.9434"/><polygon fill="#181818" points="264.5,1063.9434,254.5,1067.9434,264.5,1071.9434,260.5,1067.9434" style="stroke:#181818;stroke-width:1.0;"/><text fill="#000000" font-family="sans-serif" font-size="13" font-weight="bold" lengthAdjust="spacing" textLength="14" x="260.5" y="1049.6807">18</text><text fill="#000000" font-family="sans-serif" font-size="13" lengthAdjust="spacing" textLength="160" x="278.5" y="1049.6807">check_password(password)</text><line style="stroke:#181818;stroke-width:1.0;" x1="253.5" x2="295.5" y1="1099.2344" y2="1099.2344"/><line style="stroke:#181818;stroke-width:1.0;" x1="295.5" x2="295.5" y1="1099.2344" y2="1112.2344"/><line style="stroke:#181818;stroke-width:1.0;" x1="254.5" x2="295.5" y1="1112.2344" y2="1112.2344"/><polygon fill="#181818" points="264.5,1108.2344,254.5,1112.2344,264.5,1116.2344,260.5,1112.2344" style="stroke:#181818;stroke-width:1.0;"/><text fill="#000000" font-family="sans-serif" font-size="13" font-weight="bold" lengthAdjust="spacing" textLength="14" x="260.5" y="1093.9717">19</text><text fill="#000000" font-family="sans-serif" font-size="13" lengthAdjust="spacing" textLength="228" x="278.5" y="1093.9717">unlink semaphores and shared memory</text><line style="stroke:#181818;stroke-width:1.0;" x1="253.5" x2="295.5" y1="1143.5254" y2="1143.5254"/><line style="stroke:#181818;stroke-width:1.0;" x1="295.5" x2="295.5" y1="1143.5254" y2="1156.5254"/><line style="stroke:#181818;stroke-width:1.0;" x1="254.5" x2="295.5" y1="1156.5254" y2="1156.5254"/><polygon fill="#181818" points="264.5,1152.5254,254.5,1156.5254,264.5,1160.5254,260.5,1156.5254" style="stroke:#181818;stroke-width:1.0;"/><text fill="#000000" font-family="sans-serif" font-size="13" font-weight="bold" lengthAdjust="spacing" textLength="14" x="260.5" y="1138.2627">20</text><text fill="#000000" font-family="sans-serif" font-size="13" lengthAdjust="spacing" textLength="29" x="278.5" y="1138.2627">exit()</text><line style="stroke:#000000;stroke-width:1.0;stroke-dasharray:2.0,2.0;" x1="20" x2="539.5" y1="1165.5254" y2="1165.5254"/><text fill="#000000" font-family="sans-serif" font-size="11" font-weight="bold" lengthAdjust="spacing" textLength="28" x="25" y="1177.3955">[exit]</text><line style="stroke:#181818;stroke-width:1.0;" x1="253.5" x2="295.5" y1="1204.4473" y2="1204.4473"/><line style="stroke:#181818;stroke-width:1.0;" x1="295.5" x2="295.5" y1="1204.4473" y2="1217.4473"/><line style="stroke:#181818;stroke-width:1.0;" x1="254.5" x2="295.5" y1="1217.4473" y2="1217.4473"/><polygon fill="#181818" points="264.5,1213.4473,254.5,1217.4473,264.5,1221.4473,260.5,1217.4473" style="stroke:#181818;stroke-width:1.0;"/><text fill="#000000" font-family="sans-serif" font-size="13" font-weight="bold" lengthAdjust="spacing" textLength="14" x="260.5" y="1199.1846">21</text><text fill="#000000" font-family="sans-serif" font-size="13" lengthAdjust="spacing" textLength="29" x="278.5" y="1199.1846">exit()</text><!--SRC=[lLFBRkCm3BphAuWU5ZNG_41G16YBVa7XFIrWA39R4v4bLwBp-Fkb_8YTrBusXq0WEUJCa6PYY_11TMir8-GH0xmOWp6I-u9NhqEfb6xPkxRUOr3Qi0zzcOwGgqO79aEDTWmF7vV8M3-aZ3pX-RaFx7OguUYO9aX8gHmsk_JQWkvcmRuVb51ZfWaepH7qKPFLUs7f6oRl1EwyD0hqLJ7upxvwo84Wjl3FmGRUIsBGqFZ86tbriR-4f_lOcqKTUW9Wl6DqG-BzJAoKzRw1rZ5PQ9Dgb6YyCistK59ihBvCx2Pn4IqQ7ZBYWMN0n6gOhnJ8R-eKyBl5U4qB6nzASk9Qx4lpcJd-I2MkbywTZ5WN9qty-4TUkgbym2812-9Y1inwv8AvrmOPxAqtXpWOCaxNdMEpLd2pk3MTJfOn2UYSNzEvMZhNcRpjX0dJ6Pcd4P4jMvCGozRCKIksTE1C_1YCuGh7csQVNBbZdRowMHRQY72aITzlNKMQkU1MTZz_lEyVzdVCpS-lPrM0Zl7aqsU-mlecFwTgAZI7Oim_Ze-5VRREaZl0TPboYQw4MCazbb1ZxSDbuMxEwRG7GNWcNY-H8bSEVqhz1m00]--></g></svg>