<?xml version="1.0" encoding="us-ascii" standalone="no"?><svg xmlns="http://www.w3.org/2000/svg" xmlns:xlink="http://www.w3.org/1999/xlink" contentStyleType="text/css" height="849px" preserveAspectRatio="none" style="width:1414px;height:849px;background:#FFFFFF;" version="1.1" viewBox="0 0 1414 849" width="1414px" zoomAndPan="magnify"><defs/><g><text fill="#000000" font-family="FG Virgil" font-size="14" font-weight="bold" lengthAdjust="spacing" textLength="292" x="562.75" y="30.1074">UC1006.3 - List Student Available Courses</text><rect fill="#FFFFFF" height="603.2383" style="stroke:#181818;stroke-width:1.0;" width="10" x="27.5" y="137.8633"/><rect fill="#FFFFFF" height="570.9473" style="stroke:#181818;stroke-width:1.0;" width="10" x="253.5" y="161.1543"/><rect fill="#FFFFFF" height="477.0742" style="stroke:#181818;stroke-width:1.0;" width="10" x="560.5" y="223.7363"/><rect fill="#FFFFFF" height="93.873" style="stroke:#181818;stroke-width:1.0;" width="10" x="740.5" y="255.0273"/><rect fill="#FFFFFF" height="31.291" style="stroke:#181818;stroke-width:1.0;" width="10" x="888.5" y="286.3184"/><rect fill="#FFFFFF" height="289.3281" style="stroke:#181818;stroke-width:1.0;" width="10" x="1034.5" y="380.1914"/><rect fill="#FFFFFF" height="31.291" style="stroke:#181818;stroke-width:1.0;" width="10" x="1348.5" y="455.7734"/><rect fill="#FFFFFF" height="31.291" style="stroke:#181818;stroke-width:1.0;" width="10" x="1348.5" y="562.6465"/><line style="stroke:#181818;stroke-width:0.5;stroke-dasharray:5.0,5.0;" x1="32" x2="32" y1="127.8633" y2="750.1016"/><line style="stroke:#181818;stroke-width:0.5;stroke-dasharray:5.0,5.0;" x1="258.5" x2="258.5" y1="127.8633" y2="750.1016"/><line style="stroke:#181818;stroke-width:0.5;stroke-dasharray:5.0,5.0;" x1="565.5" x2="565.5" y1="127.8633" y2="750.1016"/><line style="stroke:#181818;stroke-width:0.5;stroke-dasharray:5.0,5.0;" x1="745.5" x2="745.5" y1="127.8633" y2="750.1016"/><line style="stroke:#181818;stroke-width:0.5;stroke-dasharray:5.0,5.0;" x1="893" x2="893" y1="127.8633" y2="750.1016"/><line style="stroke:#181818;stroke-width:0.5;stroke-dasharray:5.0,5.0;" x1="1039" x2="1039" y1="127.8633" y2="750.1016"/><line style="stroke:#181818;stroke-width:0.5;stroke-dasharray:5.0,5.0;" x1="1353.5" x2="1353.5" y1="127.8633" y2="750.1016"/><text fill="#000000" font-family="FG Virgil" font-size="14" lengthAdjust="spacing" textLength="49" x="5" y="124.3496">Student</text><ellipse cx="32.5" cy="57.7422" fill="#E3E3E3" rx="8" ry="8" style="stroke:#181818;stroke-width:0.5;"/><path d="M32.5,65.7422 L32.5,92.7422 M19.5,73.7422 L45.5,73.7422 M32.5,92.7422 L19.5,107.7422 M32.5,92.7422 L45.5,107.7422 " fill="none" style="stroke:#181818;stroke-width:0.5;"/><text fill="#000000" font-family="FG Virgil" font-size="14" lengthAdjust="spacing" textLength="49" x="5" y="764.209">Student</text><ellipse cx="32.5" cy="776.2227" fill="#E3E3E3" rx="8" ry="8" style="stroke:#181818;stroke-width:0.5;"/><path d="M32.5,784.2227 L32.5,811.2227 M19.5,792.2227 L45.5,792.2227 M32.5,811.2227 L19.5,826.2227 M32.5,811.2227 L45.5,826.2227 " fill="none" style="stroke:#181818;stroke-width:0.5;"/><rect fill="#E3E3E3" height="51.2422" rx="2.5" ry="2.5" style="stroke:#181818;stroke-width:0.5;" width="150" x="183.5" y="75.6211"/><text fill="#000000" font-family="FG Virgil" font-size="14" font-style="italic" lengthAdjust="spacing" textLength="27" x="245" y="97.7285">&#171;ui&#187;</text><text fill="#000000" font-family="FG Virgil" font-size="14" lengthAdjust="spacing" textLength="136" x="190.5" y="116.3496">ListStudentCoursesUI</text><rect fill="#E3E3E3" height="51.2422" rx="2.5" ry="2.5" style="stroke:#181818;stroke-width:0.5;" width="150" x="183.5" y="749.1016"/><text fill="#000000" font-family="FG Virgil" font-size="14" font-style="italic" lengthAdjust="spacing" textLength="27" x="245" y="771.209">&#171;ui&#187;</text><text fill="#000000" font-family="FG Virgil" font-size="14" lengthAdjust="spacing" textLength="136" x="190.5" y="789.8301">ListStudentCoursesUI</text><rect fill="#E3E3E3" height="51.2422" rx="2.5" ry="2.5" style="stroke:#181818;stroke-width:0.5;" width="200" x="465.5" y="75.6211"/><text fill="#000000" font-family="FG Virgil" font-size="14" font-style="italic" lengthAdjust="spacing" textLength="84" x="523.5" y="97.7285">&#171;application&#187;</text><text fill="#000000" font-family="FG Virgil" font-size="14" lengthAdjust="spacing" textLength="186" x="472.5" y="116.3496">ListStudentCoursesController</text><rect fill="#E3E3E3" height="51.2422" rx="2.5" ry="2.5" style="stroke:#181818;stroke-width:0.5;" width="200" x="465.5" y="749.1016"/><text fill="#000000" font-family="FG Virgil" font-size="14" font-style="italic" lengthAdjust="spacing" textLength="84" x="523.5" y="771.209">&#171;application&#187;</text><text fill="#000000" font-family="FG Virgil" font-size="14" lengthAdjust="spacing" textLength="186" x="472.5" y="789.8301">ListStudentCoursesController</text><rect fill="#E3E3E3" height="51.2422" rx="2.5" ry="2.5" style="stroke:#181818;stroke-width:0.5;" width="140" x="675.5" y="75.6211"/><text fill="#000000" font-family="FG Virgil" font-size="14" font-style="italic" lengthAdjust="spacing" textLength="60" x="715.5" y="97.7285">&#171;service&#187;</text><text fill="#000000" font-family="FG Virgil" font-size="14" lengthAdjust="spacing" textLength="126" x="682.5" y="116.3496">UserSessionService</text><rect fill="#E3E3E3" height="51.2422" rx="2.5" ry="2.5" style="stroke:#181818;stroke-width:0.5;" width="140" x="675.5" y="749.1016"/><text fill="#000000" font-family="FG Virgil" font-size="14" font-style="italic" lengthAdjust="spacing" textLength="60" x="715.5" y="771.209">&#171;service&#187;</text><text fill="#000000" font-family="FG Virgil" font-size="14" lengthAdjust="spacing" textLength="126" x="682.5" y="789.8301">UserSessionService</text><text fill="#000000" font-family="FG Virgil" font-size="14" font-style="italic" lengthAdjust="spacing" textLength="79" x="851" y="105.7285">&#171;repository&#187;</text><text fill="#000000" font-family="FG Virgil" font-size="14" lengthAdjust="spacing" textLength="97" x="842" y="124.3496">UserRepository</text><path d="M875.5,54.6211 C875.5,44.6211 893.5,44.6211 893.5,44.6211 C893.5,44.6211 911.5,44.6211 911.5,54.6211 L911.5,80.6211 C911.5,90.6211 893.5,90.6211 893.5,90.6211 C893.5,90.6211 875.5,90.6211 875.5,80.6211 L875.5,54.6211 " fill="#E3E3E3" style="stroke:#181818;stroke-width:1.5;"/><path d="M875.5,54.6211 C875.5,64.6211 893.5,64.6211 893.5,64.6211 C893.5,64.6211 911.5,64.6211 911.5,54.6211 " fill="none" style="stroke:#181818;stroke-width:1.5;"/><text fill="#000000" font-family="FG Virgil" font-size="14" font-style="italic" lengthAdjust="spacing" textLength="79" x="851" y="764.209">&#171;repository&#187;</text><text fill="#000000" font-family="FG Virgil" font-size="14" lengthAdjust="spacing" textLength="97" x="842" y="782.8301">UserRepository</text><path d="M875.5,796.3438 C875.5,786.3438 893.5,786.3438 893.5,786.3438 C893.5,786.3438 911.5,786.3438 911.5,796.3438 L911.5,822.3438 C911.5,832.3438 893.5,832.3438 893.5,832.3438 C893.5,832.3438 875.5,832.3438 875.5,822.3438 L875.5,796.3438 " fill="#E3E3E3" style="stroke:#181818;stroke-width:1.5;"/><path d="M875.5,796.3438 C875.5,806.3438 893.5,806.3438 893.5,806.3438 C893.5,806.3438 911.5,806.3438 911.5,796.3438 " fill="none" style="stroke:#181818;stroke-width:1.5;"/><rect fill="#E3E3E3" height="51.2422" rx="2.5" ry="2.5" style="stroke:#181818;stroke-width:0.5;" width="169" x="955" y="75.6211"/><text fill="#000000" font-family="FG Virgil" font-size="14" font-style="italic" lengthAdjust="spacing" textLength="60" x="1009.5" y="97.7285">&#171;service&#187;</text><text fill="#000000" font-family="FG Virgil" font-size="14" lengthAdjust="spacing" textLength="155" x="962" y="116.3496">StudentCoursesProvider</text><rect fill="#E3E3E3" height="51.2422" rx="2.5" ry="2.5" style="stroke:#181818;stroke-width:0.5;" width="169" x="955" y="749.1016"/><text fill="#000000" font-family="FG Virgil" font-size="14" font-style="italic" lengthAdjust="spacing" textLength="60" x="1009.5" y="771.209">&#171;service&#187;</text><text fill="#000000" font-family="FG Virgil" font-size="14" lengthAdjust="spacing" textLength="155" x="962" y="789.8301">StudentCoursesProvider</text><text fill="#000000" font-family="FG Virgil" font-size="14" font-style="italic" lengthAdjust="spacing" textLength="79" x="1311" y="105.7285">&#171;repository&#187;</text><text fill="#000000" font-family="FG Virgil" font-size="14" lengthAdjust="spacing" textLength="114" x="1293.5" y="124.3496">CourseRepository</text><path d="M1335.5,54.6211 C1335.5,44.6211 1353.5,44.6211 1353.5,44.6211 C1353.5,44.6211 1371.5,44.6211 1371.5,54.6211 L1371.5,80.6211 C1371.5,90.6211 1353.5,90.6211 1353.5,90.6211 C1353.5,90.6211 1335.5,90.6211 1335.5,80.6211 L1335.5,54.6211 " fill="#E3E3E3" style="stroke:#181818;stroke-width:1.5;"/><path d="M1335.5,54.6211 C1335.5,64.6211 1353.5,64.6211 1353.5,64.6211 C1353.5,64.6211 1371.5,64.6211 1371.5,54.6211 " fill="none" style="stroke:#181818;stroke-width:1.5;"/><text fill="#000000" font-family="FG Virgil" font-size="14" font-style="italic" lengthAdjust="spacing" textLength="79" x="1311" y="764.209">&#171;repository&#187;</text><text fill="#000000" font-family="FG Virgil" font-size="14" lengthAdjust="spacing" textLength="114" x="1293.5" y="782.8301">CourseRepository</text><path d="M1335.5,796.3438 C1335.5,786.3438 1353.5,786.3438 1353.5,786.3438 C1353.5,786.3438 1371.5,786.3438 1371.5,796.3438 L1371.5,822.3438 C1371.5,832.3438 1353.5,832.3438 1353.5,832.3438 C1353.5,832.3438 1335.5,832.3438 1335.5,822.3438 L1335.5,796.3438 " fill="#E3E3E3" style="stroke:#181818;stroke-width:1.5;"/><path d="M1335.5,796.3438 C1335.5,806.3438 1353.5,806.3438 1353.5,806.3438 C1353.5,806.3438 1371.5,806.3438 1371.5,796.3438 " fill="none" style="stroke:#181818;stroke-width:1.5;"/><rect fill="#FFFFFF" height="603.2383" style="stroke:#181818;stroke-width:1.0;" width="10" x="27.5" y="137.8633"/><rect fill="#FFFFFF" height="570.9473" style="stroke:#181818;stroke-width:1.0;" width="10" x="253.5" y="161.1543"/><rect fill="#FFFFFF" height="477.0742" style="stroke:#181818;stroke-width:1.0;" width="10" x="560.5" y="223.7363"/><rect fill="#FFFFFF" height="93.873" style="stroke:#181818;stroke-width:1.0;" width="10" x="740.5" y="255.0273"/><rect fill="#FFFFFF" height="31.291" style="stroke:#181818;stroke-width:1.0;" width="10" x="888.5" y="286.3184"/><rect fill="#FFFFFF" height="289.3281" style="stroke:#181818;stroke-width:1.0;" width="10" x="1034.5" y="380.1914"/><rect fill="#FFFFFF" height="31.291" style="stroke:#181818;stroke-width:1.0;" width="10" x="1348.5" y="455.7734"/><rect fill="#FFFFFF" height="31.291" style="stroke:#181818;stroke-width:1.0;" width="10" x="1348.5" y="562.6465"/><polygon fill="#181818" points="241.5,157.1543,251.5,161.1543,241.5,165.1543,245.5,161.1543" style="stroke:#181818;stroke-width:1.0;"/><line style="stroke:#181818;stroke-width:1.0;stroke-dasharray:2.0,2.0;" x1="37.5" x2="247.5" y1="161.1543" y2="161.1543"/><text fill="#000000" font-family="FG Virgil" font-size="13" font-weight="bold" lengthAdjust="spacing" textLength="7" x="44.5" y="155.8916">1</text><text fill="#000000" font-family="FG Virgil" font-size="13" lengthAdjust="spacing" textLength="186" x="55.5" y="155.8916">Asks to list all available courses</text><polygon fill="#181818" points="553.5,188.4453,563.5,192.4453,553.5,196.4453,557.5,192.4453" style="stroke:#181818;stroke-width:1.0;"/><line style="stroke:#181818;stroke-width:1.0;" x1="263.5" x2="559.5" y1="192.4453" y2="192.4453"/><text fill="#000000" font-family="FG Virgil" font-size="13" font-weight="bold" lengthAdjust="spacing" textLength="7" x="270.5" y="187.1826">2</text><text fill="#000000" font-family="FG Virgil" font-size="13" lengthAdjust="spacing" textLength="267" x="281.5" y="187.1826">create(courseRepository, userSessionService)</text><polygon fill="#181818" points="548.5,219.7363,558.5,223.7363,548.5,227.7363,552.5,223.7363" style="stroke:#181818;stroke-width:1.0;"/><line style="stroke:#181818;stroke-width:1.0;" x1="263.5" x2="554.5" y1="223.7363" y2="223.7363"/><text fill="#000000" font-family="FG Virgil" font-size="13" font-weight="bold" lengthAdjust="spacing" textLength="7" x="270.5" y="218.4736">3</text><text fill="#000000" font-family="FG Virgil" font-size="13" lengthAdjust="spacing" textLength="76" x="281.5" y="218.4736">findCourses()</text><polygon fill="#181818" points="728.5,251.0273,738.5,255.0273,728.5,259.0273,732.5,255.0273" style="stroke:#181818;stroke-width:1.0;"/><line style="stroke:#181818;stroke-width:1.0;" x1="570.5" x2="734.5" y1="255.0273" y2="255.0273"/><text fill="#000000" font-family="FG Virgil" font-size="13" font-weight="bold" lengthAdjust="spacing" textLength="7" x="577.5" y="249.7646">4</text><text fill="#000000" font-family="FG Virgil" font-size="13" lengthAdjust="spacing" textLength="95" x="588.5" y="249.7646">getLoggedUser()</text><polygon fill="#181818" points="876.5,282.3184,886.5,286.3184,876.5,290.3184,880.5,286.3184" style="stroke:#181818;stroke-width:1.0;"/><line style="stroke:#181818;stroke-width:1.0;" x1="750.5" x2="882.5" y1="286.3184" y2="286.3184"/><text fill="#000000" font-family="FG Virgil" font-size="13" font-weight="bold" lengthAdjust="spacing" textLength="7" x="757.5" y="281.0557">5</text><text fill="#000000" font-family="FG Virgil" font-size="13" lengthAdjust="spacing" textLength="108" x="768.5" y="281.0557">findByEmail(email)</text><polygon fill="#181818" points="761.5,313.6094,751.5,317.6094,761.5,321.6094,757.5,317.6094" style="stroke:#181818;stroke-width:1.0;"/><line style="stroke:#181818;stroke-width:1.0;" x1="755.5" x2="892.5" y1="317.6094" y2="317.6094"/><text fill="#000000" font-family="FG Virgil" font-size="13" font-weight="bold" lengthAdjust="spacing" textLength="7" x="767.5" y="312.3467">6</text><text fill="#000000" font-family="FG Virgil" font-size="13" lengthAdjust="spacing" textLength="75" x="778.5" y="312.3467">eCourseUser</text><polygon fill="#181818" points="581.5,344.9004,571.5,348.9004,581.5,352.9004,577.5,348.9004" style="stroke:#181818;stroke-width:1.0;"/><line style="stroke:#181818;stroke-width:1.0;" x1="575.5" x2="744.5" y1="348.9004" y2="348.9004"/><text fill="#000000" font-family="FG Virgil" font-size="13" font-weight="bold" lengthAdjust="spacing" textLength="7" x="587.5" y="343.6377">7</text><text fill="#000000" font-family="FG Virgil" font-size="13" lengthAdjust="spacing" textLength="75" x="598.5" y="343.6377">eCourseUser</text><polygon fill="#181818" points="1022.5,376.1914,1032.5,380.1914,1022.5,384.1914,1026.5,380.1914" style="stroke:#181818;stroke-width:1.0;"/><line style="stroke:#181818;stroke-width:1.0;" x1="570.5" x2="1028.5" y1="380.1914" y2="380.1914"/><text fill="#000000" font-family="FG Virgil" font-size="13" font-weight="bold" lengthAdjust="spacing" textLength="7" x="577.5" y="374.9287">8</text><text fill="#000000" font-family="FG Virgil" font-size="13" lengthAdjust="spacing" textLength="267" x="588.5" y="374.9287">provideStudentAvailableCourses(eCourseUser)</text><line style="stroke:#181818;stroke-width:1.0;" x1="1044.5" x2="1086.5" y1="411.4824" y2="411.4824"/><line style="stroke:#181818;stroke-width:1.0;" x1="1086.5" x2="1086.5" y1="411.4824" y2="424.4824"/><line style="stroke:#181818;stroke-width:1.0;" x1="1045.5" x2="1086.5" y1="424.4824" y2="424.4824"/><polygon fill="#181818" points="1055.5,420.4824,1045.5,424.4824,1055.5,428.4824,1051.5,424.4824" style="stroke:#181818;stroke-width:1.0;"/><text fill="#000000" font-family="FG Virgil" font-size="13" font-weight="bold" lengthAdjust="spacing" textLength="7" x="1051.5" y="406.2197">9</text><text fill="#000000" font-family="FG Virgil" font-size="13" lengthAdjust="spacing" textLength="216" x="1062.5" y="406.2197">provideStudentCourses(eCourseUser)</text><polygon fill="#181818" points="1336.5,451.7734,1346.5,455.7734,1336.5,459.7734,1340.5,455.7734" style="stroke:#181818;stroke-width:1.0;"/><line style="stroke:#181818;stroke-width:1.0;" x1="1044.5" x2="1342.5" y1="455.7734" y2="455.7734"/><text fill="#000000" font-family="FG Virgil" font-size="13" font-weight="bold" lengthAdjust="spacing" textLength="14" x="1051.5" y="450.5107">10</text><text fill="#000000" font-family="FG Virgil" font-size="13" lengthAdjust="spacing" textLength="196" x="1069.5" y="450.5107">findStudentCourses(eCourseUser)</text><polygon fill="#181818" points="1055.5,483.0645,1045.5,487.0645,1055.5,491.0645,1051.5,487.0645" style="stroke:#181818;stroke-width:1.0;"/><line style="stroke:#181818;stroke-width:1.0;" x1="1049.5" x2="1352.5" y1="487.0645" y2="487.0645"/><text fill="#000000" font-family="FG Virgil" font-size="13" font-weight="bold" lengthAdjust="spacing" textLength="14" x="1061.5" y="481.8018">11</text><text fill="#000000" font-family="FG Virgil" font-size="13" lengthAdjust="spacing" textLength="91" x="1079.5" y="481.8018">studentCourses</text><line style="stroke:#181818;stroke-width:1.0;" x1="1044.5" x2="1086.5" y1="518.3555" y2="518.3555"/><line style="stroke:#181818;stroke-width:1.0;" x1="1086.5" x2="1086.5" y1="518.3555" y2="531.3555"/><line style="stroke:#181818;stroke-width:1.0;" x1="1045.5" x2="1086.5" y1="531.3555" y2="531.3555"/><polygon fill="#181818" points="1055.5,527.3555,1045.5,531.3555,1055.5,535.3555,1051.5,531.3555" style="stroke:#181818;stroke-width:1.0;"/><text fill="#000000" font-family="FG Virgil" font-size="13" font-weight="bold" lengthAdjust="spacing" textLength="14" x="1051.5" y="513.0928">12</text><text fill="#000000" font-family="FG Virgil" font-size="13" lengthAdjust="spacing" textLength="143" x="1069.5" y="513.0928">provideCoursesToEnroll()</text><polygon fill="#181818" points="1336.5,558.6465,1346.5,562.6465,1336.5,566.6465,1340.5,562.6465" style="stroke:#181818;stroke-width:1.0;"/><line style="stroke:#181818;stroke-width:1.0;" x1="1044.5" x2="1342.5" y1="562.6465" y2="562.6465"/><text fill="#000000" font-family="FG Virgil" font-size="13" font-weight="bold" lengthAdjust="spacing" textLength="14" x="1051.5" y="557.3838">13</text><text fill="#000000" font-family="FG Virgil" font-size="13" lengthAdjust="spacing" textLength="152" x="1069.5" y="557.3838">findCoursesByState(state)</text><polygon fill="#181818" points="1055.5,589.9375,1045.5,593.9375,1055.5,597.9375,1051.5,593.9375" style="stroke:#181818;stroke-width:1.0;"/><line style="stroke:#181818;stroke-width:1.0;" x1="1049.5" x2="1352.5" y1="593.9375" y2="593.9375"/><text fill="#000000" font-family="FG Virgil" font-size="13" font-weight="bold" lengthAdjust="spacing" textLength="14" x="1061.5" y="588.6748">14</text><text fill="#000000" font-family="FG Virgil" font-size="13" lengthAdjust="spacing" textLength="93" x="1079.5" y="588.6748">coursesToEnroll</text><line style="stroke:#181818;stroke-width:1.0;" x1="1044.5" x2="1086.5" y1="625.2285" y2="625.2285"/><line style="stroke:#181818;stroke-width:1.0;" x1="1086.5" x2="1086.5" y1="625.2285" y2="638.2285"/><line style="stroke:#181818;stroke-width:1.0;" x1="1045.5" x2="1086.5" y1="638.2285" y2="638.2285"/><polygon fill="#181818" points="1055.5,634.2285,1045.5,638.2285,1055.5,642.2285,1051.5,638.2285" style="stroke:#181818;stroke-width:1.0;"/><text fill="#000000" font-family="FG Virgil" font-size="13" font-weight="bold" lengthAdjust="spacing" textLength="14" x="1051.5" y="619.9658">15</text><text fill="#000000" font-family="FG Virgil" font-size="13" lengthAdjust="spacing" textLength="272" x="1069.5" y="619.9658">filterCourses(studentCourses, coursesToEnroll)</text><polygon fill="#181818" points="581.5,665.5195,571.5,669.5195,581.5,673.5195,577.5,669.5195" style="stroke:#181818;stroke-width:1.0;"/><line style="stroke:#181818;stroke-width:1.0;" x1="575.5" x2="1038.5" y1="669.5195" y2="669.5195"/><text fill="#000000" font-family="FG Virgil" font-size="13" font-weight="bold" lengthAdjust="spacing" textLength="14" x="587.5" y="664.2568">16</text><text fill="#000000" font-family="FG Virgil" font-size="13" lengthAdjust="spacing" textLength="46" x="605.5" y="664.2568">courses</text><polygon fill="#181818" points="274.5,696.8105,264.5,700.8105,274.5,704.8105,270.5,700.8105" style="stroke:#181818;stroke-width:1.0;"/><line style="stroke:#181818;stroke-width:1.0;" x1="268.5" x2="564.5" y1="700.8105" y2="700.8105"/><text fill="#000000" font-family="FG Virgil" font-size="13" font-weight="bold" lengthAdjust="spacing" textLength="14" x="280.5" y="695.5479">17</text><text fill="#000000" font-family="FG Virgil" font-size="13" lengthAdjust="spacing" textLength="46" x="298.5" y="695.5479">courses</text><polygon fill="#181818" points="48.5,728.1016,38.5,732.1016,48.5,736.1016,44.5,732.1016" style="stroke:#181818;stroke-width:1.0;"/><line style="stroke:#181818;stroke-width:1.0;stroke-dasharray:2.0,2.0;" x1="42.5" x2="257.5" y1="732.1016" y2="732.1016"/><text fill="#000000" font-family="FG Virgil" font-size="13" font-weight="bold" lengthAdjust="spacing" textLength="14" x="54.5" y="726.8389">18</text><text fill="#000000" font-family="FG Virgil" font-size="13" lengthAdjust="spacing" textLength="91" x="72.5" y="726.8389">display courses</text><!--SRC=[XPDBQzmm58Nt-XKYgmbaIaAXYn064f64WL2ALNT_HxxZY94j8ybJ_EzxDNxWnpZTU25zvvpxaFr9bnKuA7XXIwi-dIsG1rSZyyDD1Ue4EShG6EGELHZTPNY4seGtMuQVGDAtT_v7kroR4UC_8RD_TPdp8nYFZ0KTo2aL3_VtFxvzvrl-eNtWCjGPbe4_dq4RE10XREqyUiQW3hQiYmCw1YfODx3WkMIK4hJI5T31JRJgRZjvkh-9NBhdJq-rtkt-nmlgnLbZq5rqKf0Egife1K7RScwGUdGIlQShYUwi5RPnacI-FI191W4EuB7b4woirzH8qx89iMuucoTCo_lbx5bdVN5hAIqyon6Bd3XEVOQ0D4R9jzjT7DCZV_OdpuFb9ku5ZE4mx4HrEnc4wPwHXfGqg4Uk7DBXHitYxtYz6DFjM7VKPTOrkBaTLIKONSUo944vXW-RvvZ56OwnL3828fPqNY_DQq4bRp1-nsJ2YEaDiOsCTYp32II7qjOWsPKcerFLRgLRrV24-vP67kFko4AkM5nLjhJec_mA7K94maGoXFY9PDmFSSjYEkwtVItZBx5PbD01BuqCSUy-VbV3rTHjFVseJK3NzpMj-MvkqzVKlhzbOx9VrELfNmF4vIL62m8oxIi3pJKmtVy3]--></g></svg>