<?xml version="1.0" encoding="us-ascii" standalone="no"?><svg xmlns="http://www.w3.org/2000/svg" xmlns:xlink="http://www.w3.org/1999/xlink" contentStyleType="text/css" height="748px" preserveAspectRatio="none" style="width:1532px;height:748px;background:#FFFFFF;" version="1.1" viewBox="0 0 1532 748" width="1532px" zoomAndPan="magnify"><defs/><g><text fill="#000000" font-family="sans-serif" font-size="14" font-weight="bold" lengthAdjust="spacing" textLength="384" x="575.5" y="30.1074">US2001 - List Student Future Exams Sequence Diagram</text><rect fill="#FFFFFF" height="490.3652" style="stroke:#181818;stroke-width:1.0;" width="10" x="258.5" y="156.5332"/><rect fill="#FFFFFF" height="396.4922" style="stroke:#181818;stroke-width:1.0;" width="10" x="735.5" y="219.1152"/><rect fill="#FFFFFF" height="31.291" style="stroke:#181818;stroke-width:1.0;" width="10" x="976.5" y="294.6973"/><rect fill="#FFFFFF" height="193.7461" style="stroke:#181818;stroke-width:1.0;" width="10" x="1148" y="383.5703"/><rect fill="#FFFFFF" height="93.873" style="stroke:#181818;stroke-width:1.0;" width="10" x="1453" y="414.8613"/><rect fill="none" height="244.3281" style="stroke:#000000;stroke-width:1.5;" width="886" x="640" y="340.9883"/><line style="stroke:#181818;stroke-width:0.5;stroke-dasharray:5.0,5.0;" x1="32" x2="32" y1="123.2422" y2="664.8984"/><line style="stroke:#181818;stroke-width:0.5;stroke-dasharray:5.0,5.0;" x1="263" x2="263" y1="123.2422" y2="664.8984"/><line style="stroke:#181818;stroke-width:0.5;stroke-dasharray:5.0,5.0;" x1="740" x2="740" y1="123.2422" y2="664.8984"/><line style="stroke:#181818;stroke-width:0.5;stroke-dasharray:5.0,5.0;" x1="981" x2="981" y1="123.2422" y2="664.8984"/><line style="stroke:#181818;stroke-width:0.5;stroke-dasharray:5.0,5.0;" x1="1153" x2="1153" y1="123.2422" y2="664.8984"/><line style="stroke:#181818;stroke-width:0.5;stroke-dasharray:5.0,5.0;" x1="1458" x2="1458" y1="123.2422" y2="664.8984"/><text fill="#000000" font-family="sans-serif" font-size="14" lengthAdjust="spacing" textLength="49" x="5" y="119.7285">Student</text><ellipse cx="32.5" cy="53.1211" fill="#E2E2F0" rx="8" ry="8" style="stroke:#181818;stroke-width:0.5;"/><path d="M32.5,61.1211 L32.5,88.1211 M19.5,69.1211 L45.5,69.1211 M32.5,88.1211 L19.5,103.1211 M32.5,88.1211 L45.5,103.1211 " fill="none" style="stroke:#181818;stroke-width:0.5;"/><text fill="#000000" font-family="sans-serif" font-size="14" lengthAdjust="spacing" textLength="49" x="5" y="679.0059">Student</text><ellipse cx="32.5" cy="691.0195" fill="#E2E2F0" rx="8" ry="8" style="stroke:#181818;stroke-width:0.5;"/><path d="M32.5,699.0195 L32.5,726.0195 M19.5,707.0195 L45.5,707.0195 M32.5,726.0195 L19.5,741.0195 M32.5,726.0195 L45.5,741.0195 " fill="none" style="stroke:#181818;stroke-width:0.5;"/><rect fill="#E2E2F0" height="51.2422" rx="2.5" ry="2.5" style="stroke:#181818;stroke-width:0.5;" width="131" x="198" y="71"/><text fill="#000000" font-family="sans-serif" font-size="14" font-style="italic" lengthAdjust="spacing" textLength="30" x="248.5" y="93.1074">&#171;UI&#187;</text><text fill="#000000" font-family="sans-serif" font-size="14" lengthAdjust="spacing" textLength="117" x="205" y="111.7285">ListFutureExamsUI</text><rect fill="#E2E2F0" height="51.2422" rx="2.5" ry="2.5" style="stroke:#181818;stroke-width:0.5;" width="131" x="198" y="663.8984"/><text fill="#000000" font-family="sans-serif" font-size="14" font-style="italic" lengthAdjust="spacing" textLength="30" x="248.5" y="686.0059">&#171;UI&#187;</text><text fill="#000000" font-family="sans-serif" font-size="14" lengthAdjust="spacing" textLength="117" x="205" y="704.627">ListFutureExamsUI</text><rect fill="#E2E2F0" height="51.2422" rx="2.5" ry="2.5" style="stroke:#181818;stroke-width:0.5;" width="181" x="650" y="71"/><text fill="#000000" font-family="sans-serif" font-size="14" font-style="italic" lengthAdjust="spacing" textLength="85" x="698" y="93.1074">&#171;Application&#187;</text><text fill="#000000" font-family="sans-serif" font-size="14" lengthAdjust="spacing" textLength="167" x="657" y="111.7285">ListFutureExamsController</text><rect fill="#E2E2F0" height="51.2422" rx="2.5" ry="2.5" style="stroke:#181818;stroke-width:0.5;" width="181" x="650" y="663.8984"/><text fill="#000000" font-family="sans-serif" font-size="14" font-style="italic" lengthAdjust="spacing" textLength="85" x="698" y="686.0059">&#171;Application&#187;</text><text fill="#000000" font-family="sans-serif" font-size="14" lengthAdjust="spacing" textLength="167" x="657" y="704.627">ListFutureExamsController</text><rect fill="#E2E2F0" height="51.2422" rx="2.5" ry="2.5" style="stroke:#181818;stroke-width:0.5;" width="169" x="897" y="71"/><text fill="#000000" font-family="sans-serif" font-size="14" font-style="italic" lengthAdjust="spacing" textLength="62" x="950.5" y="93.1074">&#171;Service&#187;</text><text fill="#000000" font-family="sans-serif" font-size="14" lengthAdjust="spacing" textLength="155" x="904" y="111.7285">StudentCoursesProvider</text><rect fill="#E2E2F0" height="51.2422" rx="2.5" ry="2.5" style="stroke:#181818;stroke-width:0.5;" width="169" x="897" y="663.8984"/><text fill="#000000" font-family="sans-serif" font-size="14" font-style="italic" lengthAdjust="spacing" textLength="62" x="950.5" y="686.0059">&#171;Service&#187;</text><text fill="#000000" font-family="sans-serif" font-size="14" lengthAdjust="spacing" textLength="155" x="904" y="704.627">StudentCoursesProvider</text><rect fill="#E2E2F0" height="51.2422" rx="2.5" ry="2.5" style="stroke:#181818;stroke-width:0.5;" width="154" x="1076" y="71"/><text fill="#000000" font-family="sans-serif" font-size="14" font-style="italic" lengthAdjust="spacing" textLength="62" x="1122" y="93.1074">&#171;Service&#187;</text><text fill="#000000" font-family="sans-serif" font-size="14" lengthAdjust="spacing" textLength="140" x="1083" y="111.7285">CourseExamsProvider</text><rect fill="#E2E2F0" height="51.2422" rx="2.5" ry="2.5" style="stroke:#181818;stroke-width:0.5;" width="154" x="1076" y="663.8984"/><text fill="#000000" font-family="sans-serif" font-size="14" font-style="italic" lengthAdjust="spacing" textLength="62" x="1122" y="686.0059">&#171;Service&#187;</text><text fill="#000000" font-family="sans-serif" font-size="14" lengthAdjust="spacing" textLength="140" x="1083" y="704.627">CourseExamsProvider</text><rect fill="#E2E2F0" height="51.2422" rx="2.5" ry="2.5" style="stroke:#181818;stroke-width:0.5;" width="116" x="1400" y="71"/><text fill="#000000" font-family="sans-serif" font-size="14" font-style="italic" lengthAdjust="spacing" textLength="84" x="1416" y="93.1074">&#171;Repository&#187;</text><text fill="#000000" font-family="sans-serif" font-size="14" lengthAdjust="spacing" textLength="102" x="1407" y="111.7285">ExamRepository</text><rect fill="#E2E2F0" height="51.2422" rx="2.5" ry="2.5" style="stroke:#181818;stroke-width:0.5;" width="116" x="1400" y="663.8984"/><text fill="#000000" font-family="sans-serif" font-size="14" font-style="italic" lengthAdjust="spacing" textLength="84" x="1416" y="686.0059">&#171;Repository&#187;</text><text fill="#000000" font-family="sans-serif" font-size="14" lengthAdjust="spacing" textLength="102" x="1407" y="704.627">ExamRepository</text><rect fill="#FFFFFF" height="490.3652" style="stroke:#181818;stroke-width:1.0;" width="10" x="258.5" y="156.5332"/><rect fill="#FFFFFF" height="396.4922" style="stroke:#181818;stroke-width:1.0;" width="10" x="735.5" y="219.1152"/><rect fill="#FFFFFF" height="31.291" style="stroke:#181818;stroke-width:1.0;" width="10" x="976.5" y="294.6973"/><rect fill="#FFFFFF" height="193.7461" style="stroke:#181818;stroke-width:1.0;" width="10" x="1148" y="383.5703"/><rect fill="#FFFFFF" height="93.873" style="stroke:#181818;stroke-width:1.0;" width="10" x="1453" y="414.8613"/><polygon fill="#181818" points="246.5,152.5332,256.5,156.5332,246.5,160.5332,250.5,156.5332" style="stroke:#181818;stroke-width:1.0;"/><line style="stroke:#181818;stroke-width:1.0;stroke-dasharray:2.0,2.0;" x1="32.5" x2="252.5" y1="156.5332" y2="156.5332"/><text fill="#000000" font-family="sans-serif" font-size="13" font-weight="bold" lengthAdjust="spacing" textLength="7" x="39.5" y="151.2705">1</text><text fill="#000000" font-family="sans-serif" font-size="13" lengthAdjust="spacing" textLength="196" x="50.5" y="151.2705">asks to view a list of future exams</text><polygon fill="#181818" points="728.5,183.8242,738.5,187.8242,728.5,191.8242,732.5,187.8242" style="stroke:#181818;stroke-width:1.0;"/><line style="stroke:#181818;stroke-width:1.0;" x1="268.5" x2="734.5" y1="187.8242" y2="187.8242"/><text fill="#000000" font-family="sans-serif" font-size="13" font-weight="bold" lengthAdjust="spacing" textLength="7" x="275.5" y="182.5615">2</text><text fill="#000000" font-family="sans-serif" font-size="13" lengthAdjust="spacing" textLength="437" x="286.5" y="182.5615">create(userSessionService, studentCoursesProvider, courseExamsProvider)</text><polygon fill="#181818" points="723.5,215.1152,733.5,219.1152,723.5,223.1152,727.5,219.1152" style="stroke:#181818;stroke-width:1.0;"/><line style="stroke:#181818;stroke-width:1.0;" x1="268.5" x2="729.5" y1="219.1152" y2="219.1152"/><text fill="#000000" font-family="sans-serif" font-size="13" font-weight="bold" lengthAdjust="spacing" textLength="7" x="275.5" y="213.8525">3</text><text fill="#000000" font-family="sans-serif" font-size="13" lengthAdjust="spacing" textLength="81" x="286.5" y="213.8525">futureExams()</text><line style="stroke:#181818;stroke-width:1.0;" x1="745.5" x2="787.5" y1="250.4063" y2="250.4063"/><line style="stroke:#181818;stroke-width:1.0;" x1="787.5" x2="787.5" y1="250.4063" y2="263.4063"/><line style="stroke:#181818;stroke-width:1.0;" x1="746.5" x2="787.5" y1="263.4063" y2="263.4063"/><polygon fill="#181818" points="756.5,259.4063,746.5,263.4063,756.5,267.4063,752.5,263.4063" style="stroke:#181818;stroke-width:1.0;"/><text fill="#000000" font-family="sans-serif" font-size="13" font-weight="bold" lengthAdjust="spacing" textLength="7" x="752.5" y="245.1436">4</text><text fill="#000000" font-family="sans-serif" font-size="13" lengthAdjust="spacing" textLength="177" x="763.5" y="245.1436">studentActiveCourses(student)</text><polygon fill="#181818" points="964.5,290.6973,974.5,294.6973,964.5,298.6973,968.5,294.6973" style="stroke:#181818;stroke-width:1.0;"/><line style="stroke:#181818;stroke-width:1.0;" x1="745.5" x2="970.5" y1="294.6973" y2="294.6973"/><text fill="#000000" font-family="sans-serif" font-size="13" font-weight="bold" lengthAdjust="spacing" textLength="7" x="752.5" y="289.4346">5</text><text fill="#000000" font-family="sans-serif" font-size="13" lengthAdjust="spacing" textLength="201" x="763.5" y="289.4346">provideUserActiveCourses(student)</text><polygon fill="#181818" points="756.5,321.9883,746.5,325.9883,756.5,329.9883,752.5,325.9883" style="stroke:#181818;stroke-width:1.0;"/><line style="stroke:#181818;stroke-width:1.0;" x1="750.5" x2="980.5" y1="325.9883" y2="325.9883"/><text fill="#000000" font-family="sans-serif" font-size="13" font-weight="bold" lengthAdjust="spacing" textLength="7" x="762.5" y="320.7256">6</text><text fill="#000000" font-family="sans-serif" font-size="13" lengthAdjust="spacing" textLength="46" x="773.5" y="320.7256">courses</text><path d="M640,340.9883 L713,340.9883 L713,350.2793 L703,360.2793 L640,360.2793 L640,340.9883 " fill="#EEEEEE" style="stroke:#000000;stroke-width:1.5;"/><rect fill="none" height="244.3281" style="stroke:#000000;stroke-width:1.5;" width="886" x="640" y="340.9883"/><text fill="#000000" font-family="sans-serif" font-size="13" font-weight="bold" lengthAdjust="spacing" textLength="28" x="655" y="356.0166">loop</text><text fill="#000000" font-family="sans-serif" font-size="11" font-weight="bold" lengthAdjust="spacing" textLength="95" x="728" y="354.8584">[for each course]</text><polygon fill="#181818" points="1136,379.5703,1146,383.5703,1136,387.5703,1140,383.5703" style="stroke:#181818;stroke-width:1.0;"/><line style="stroke:#181818;stroke-width:1.0;" x1="745.5" x2="1142" y1="383.5703" y2="383.5703"/><text fill="#000000" font-family="sans-serif" font-size="13" font-weight="bold" lengthAdjust="spacing" textLength="7" x="752.5" y="378.3076">7</text><text fill="#000000" font-family="sans-serif" font-size="13" lengthAdjust="spacing" textLength="206" x="763.5" y="378.3076">provideFutureCourseExams(course)</text><polygon fill="#181818" points="1441,410.8613,1451,414.8613,1441,418.8613,1445,414.8613" style="stroke:#181818;stroke-width:1.0;"/><line style="stroke:#181818;stroke-width:1.0;" x1="1158" x2="1447" y1="414.8613" y2="414.8613"/><text fill="#000000" font-family="sans-serif" font-size="13" font-weight="bold" lengthAdjust="spacing" textLength="7" x="1165" y="409.5986">8</text><text fill="#000000" font-family="sans-serif" font-size="13" lengthAdjust="spacing" textLength="265" x="1176" y="409.5986">findFutureAutomatedExamsByCourse(course)</text><polygon fill="#181818" points="1169,442.1523,1159,446.1523,1169,450.1523,1165,446.1523" style="stroke:#181818;stroke-width:1.0;"/><line style="stroke:#181818;stroke-width:1.0;" x1="1163" x2="1452" y1="446.1523" y2="446.1523"/><text fill="#000000" font-family="sans-serif" font-size="13" font-weight="bold" lengthAdjust="spacing" textLength="7" x="1175" y="440.8896">9</text><text fill="#000000" font-family="sans-serif" font-size="13" lengthAdjust="spacing" textLength="102" x="1186" y="440.8896">automatedExams</text><polygon fill="#181818" points="1441,473.4434,1451,477.4434,1441,481.4434,1445,477.4434" style="stroke:#181818;stroke-width:1.0;"/><line style="stroke:#181818;stroke-width:1.0;" x1="1158" x2="1447" y1="477.4434" y2="477.4434"/><text fill="#000000" font-family="sans-serif" font-size="13" font-weight="bold" lengthAdjust="spacing" textLength="14" x="1165" y="472.1807">10</text><text fill="#000000" font-family="sans-serif" font-size="13" lengthAdjust="spacing" textLength="214" x="1183" y="472.1807">findFormativeExamByCourse(course)</text><polygon fill="#181818" points="1169,504.7344,1159,508.7344,1169,512.7344,1165,508.7344" style="stroke:#181818;stroke-width:1.0;"/><line style="stroke:#181818;stroke-width:1.0;" x1="1163" x2="1457" y1="508.7344" y2="508.7344"/><text fill="#000000" font-family="sans-serif" font-size="13" font-weight="bold" lengthAdjust="spacing" textLength="14" x="1175" y="503.4717">11</text><text fill="#000000" font-family="sans-serif" font-size="13" lengthAdjust="spacing" textLength="92" x="1193" y="503.4717">formativeExams</text><path d="M1037,521.7344 L1037,548.7344 L1268,548.7344 L1268,531.7344 L1258,521.7344 L1037,521.7344 " fill="#FEFFDD" style="stroke:#181818;stroke-width:0.5;"/><path d="M1258,521.7344 L1258,531.7344 L1268,531.7344 L1258,521.7344 " fill="#FEFFDD" style="stroke:#181818;stroke-width:0.5;"/><text fill="#000000" font-family="sans-serif" font-size="13" lengthAdjust="spacing" textLength="210" x="1043" y="540.7627">automatedExams + formativeExams</text><polygon fill="#181818" points="756.5,573.3164,746.5,577.3164,756.5,581.3164,752.5,577.3164" style="stroke:#181818;stroke-width:1.0;"/><line style="stroke:#181818;stroke-width:1.0;" x1="750.5" x2="1152" y1="577.3164" y2="577.3164"/><text fill="#000000" font-family="sans-serif" font-size="13" font-weight="bold" lengthAdjust="spacing" textLength="14" x="762.5" y="572.0537">12</text><text fill="#000000" font-family="sans-serif" font-size="13" lengthAdjust="spacing" textLength="39" x="780.5" y="572.0537">exams</text><polygon fill="#181818" points="279.5,611.6074,269.5,615.6074,279.5,619.6074,275.5,615.6074" style="stroke:#181818;stroke-width:1.0;"/><line style="stroke:#181818;stroke-width:1.0;" x1="273.5" x2="739.5" y1="615.6074" y2="615.6074"/><text fill="#000000" font-family="sans-serif" font-size="13" font-weight="bold" lengthAdjust="spacing" textLength="14" x="285.5" y="610.3447">13</text><text fill="#000000" font-family="sans-serif" font-size="13" lengthAdjust="spacing" textLength="39" x="303.5" y="610.3447">exams</text><polygon fill="#181818" points="43.5,642.8984,33.5,646.8984,43.5,650.8984,39.5,646.8984" style="stroke:#181818;stroke-width:1.0;"/><line style="stroke:#181818;stroke-width:1.0;stroke-dasharray:2.0,2.0;" x1="37.5" x2="262.5" y1="646.8984" y2="646.8984"/><text fill="#000000" font-family="sans-serif" font-size="13" font-weight="bold" lengthAdjust="spacing" textLength="14" x="49.5" y="641.6357">14</text><text fill="#000000" font-family="sans-serif" font-size="13" lengthAdjust="spacing" textLength="74" x="67.5" y="641.6357">list of exams</text><!--SRC=[VP9DRjim48NtFCKWAnkD0QTB8p3Wi2uWm8l2X0x0IYE7Y4mg92Ktj-zGf2KvSh8JHjzxZ_FZbQyHSl5plNw25HoKyo1yMwBsyBlrhKNO_vDd1mBVMzG5mYybJrQU6PEjDxez_qNBt9lIZQGgk5TPcelI9wXaxP2emXixM4eoOaHwLQX6Kk4X9CQWFYVF7WAKP_3yd6VRxRSmDzfRKzTeUz61asZNDBKgf5T6VrQdHt3JMeVkZpMTAfDK298Aj9qgyBCiydtWZOP_emdq4HlZ57N_qUFx8-5ZZHHCm6gr3Rrk27Xpu0rq2YyWeGvxC1LKSGKOmljPgavwsbV66Cb8VE0RA2nIST4wj0ATeyxJgnx1tMtv4OfvJykfPJKEUR6S11yuOpJcH2NtNVYBAMEHYiihACG6cfYHqmk_WeS88MWmOkWjWeoLU4FKnZHGqMLH-JLHrqG-9iPZcMnm4T5f82SxtWVkZzIvqcLKxUY-pmIKlV3b8xhSCTWV6QFjfcHv8nkj8NaRItzf1E7tt7JqgQRWxG12e3RqOJgqTqBXnqpDXudYp2uC07K9OQRN6URPFJAiFnn9MEjcED8vH_Vv7m00]--></g></svg>