<?xml version="1.0" encoding="us-ascii" standalone="no"?><svg xmlns="http://www.w3.org/2000/svg" xmlns:xlink="http://www.w3.org/1999/xlink" contentStyleType="text/css" height="510px" preserveAspectRatio="none" style="width:2027px;height:510px;background:#FFFFFF;" version="1.1" viewBox="0 0 2027 510" width="2027px" zoomAndPan="magnify"><defs/><g><text fill="#000000" font-family="sans-serif" font-size="14" font-weight="bold" lengthAdjust="spacing" textLength="351" x="831" y="25.1074">US2001 - List Student Future Exams Class Diagram</text><!--cluster UI--><g id="cluster_UI"><path d="M8.5,127.6348 L23.5,127.6348 A3.75,3.75 0 0 1 26,130.1348 L33,152.2559 L184.5,152.2559 A2.5,2.5 0 0 1 187,154.7559 L187,226.1348 A2.5,2.5 0 0 1 184.5,228.6348 L8.5,228.6348 A2.5,2.5 0 0 1 6,226.1348 L6,130.1348 A2.5,2.5 0 0 1 8.5,127.6348 " fill="none" style="stroke:#000000;stroke-width:1.5;"/><line style="stroke:#000000;stroke-width:1.5;" x1="6" x2="33" y1="152.2559" y2="152.2559"/><text fill="#000000" font-family="sans-serif" font-size="14" font-weight="bold" lengthAdjust="spacing" textLength="14" x="10" y="144.7422">UI</text></g><!--cluster exammanagement--><g id="cluster_exammanagement"><path d="M213.5,45.6348 L341.5,45.6348 A3.75,3.75 0 0 1 344,48.1348 L351,70.2559 L2017.5,70.2559 A2.5,2.5 0 0 1 2020,72.7559 L2020,287.1348 A2.5,2.5 0 0 1 2017.5,289.6348 L213.5,289.6348 A2.5,2.5 0 0 1 211,287.1348 L211,48.1348 A2.5,2.5 0 0 1 213.5,45.6348 " fill="none" style="stroke:#000000;stroke-width:1.5;"/><line style="stroke:#000000;stroke-width:1.5;" x1="211" x2="351" y1="70.2559" y2="70.2559"/><text fill="#000000" font-family="sans-serif" font-size="14" font-weight="bold" lengthAdjust="spacing" textLength="127" x="215" y="62.7422">exammanagement</text></g><!--cluster Application--><g id="cluster_Application"><path d="M237.5,90.6348 L316.5,90.6348 A3.75,3.75 0 0 1 319,93.1348 L326,115.2559 L1300,115.2559 A2.5,2.5 0 0 1 1302.5,117.7559 L1302.5,263.1348 A2.5,2.5 0 0 1 1300,265.6348 L237.5,265.6348 A2.5,2.5 0 0 1 235,263.1348 L235,93.1348 A2.5,2.5 0 0 1 237.5,90.6348 " fill="none" style="stroke:#000000;stroke-width:1.5;"/><line style="stroke:#000000;stroke-width:1.5;" x1="235" x2="326" y1="115.2559" y2="115.2559"/><text fill="#000000" font-family="sans-serif" font-size="14" font-weight="bold" lengthAdjust="spacing" textLength="78" x="239" y="107.7422">Application</text></g><!--cluster domain--><g id="cluster_domain"><path d="M1900.5,127.6348 L1952.5,127.6348 A3.75,3.75 0 0 1 1955,130.1348 L1962,152.2559 L1993.5,152.2559 A2.5,2.5 0 0 1 1996,154.7559 L1996,226.1348 A2.5,2.5 0 0 1 1993.5,228.6348 L1900.5,228.6348 A2.5,2.5 0 0 1 1898,226.1348 L1898,130.1348 A2.5,2.5 0 0 1 1900.5,127.6348 " fill="none" style="stroke:#000000;stroke-width:1.5;"/><line style="stroke:#000000;stroke-width:1.5;" x1="1898" x2="1962" y1="152.2559" y2="152.2559"/><text fill="#000000" font-family="sans-serif" font-size="14" font-weight="bold" lengthAdjust="spacing" textLength="51" x="1902" y="144.7422">domain</text></g><!--cluster repository--><g id="cluster_repository"><path d="M1359.5,108.6348 L1432.5,108.6348 A3.75,3.75 0 0 1 1435,111.1348 L1442,133.2559 L1806.5,133.2559 A2.5,2.5 0 0 1 1809,135.7559 L1809,245.1348 A2.5,2.5 0 0 1 1806.5,247.6348 L1359.5,247.6348 A2.5,2.5 0 0 1 1357,245.1348 L1357,111.1348 A2.5,2.5 0 0 1 1359.5,108.6348 " fill="none" style="stroke:#000000;stroke-width:1.5;"/><line style="stroke:#000000;stroke-width:1.5;" x1="1357" x2="1442" y1="133.2559" y2="133.2559"/><text fill="#000000" font-family="sans-serif" font-size="14" font-weight="bold" lengthAdjust="spacing" textLength="72" x="1361" y="125.7422">repository</text></g><!--cluster coursemanagement--><g id="cluster_coursemanagement"><path d="M907.5,313.6348 L1047.5,313.6348 A3.75,3.75 0 0 1 1050,316.1348 L1057,338.2559 L1330.5,338.2559 A2.5,2.5 0 0 1 1333,340.7559 L1333,501.1348 A2.5,2.5 0 0 1 1330.5,503.6348 L907.5,503.6348 A2.5,2.5 0 0 1 905,501.1348 L905,316.1348 A2.5,2.5 0 0 1 907.5,313.6348 " fill="none" style="stroke:#000000;stroke-width:1.5;"/><line style="stroke:#000000;stroke-width:1.5;" x1="905" x2="1057" y1="338.2559" y2="338.2559"/><text fill="#000000" font-family="sans-serif" font-size="14" font-weight="bold" lengthAdjust="spacing" textLength="139" x="909" y="330.7422">coursemanagement</text></g><!--cluster application--><g id="cluster_application"><path d="M931.5,358.6348 L1009.5,358.6348 A3.75,3.75 0 0 1 1012,361.1348 L1019,383.2559 L1306.5,383.2559 A2.5,2.5 0 0 1 1309,385.7559 L1309,477.1348 A2.5,2.5 0 0 1 1306.5,479.6348 L931.5,479.6348 A2.5,2.5 0 0 1 929,477.1348 L929,361.1348 A2.5,2.5 0 0 1 931.5,358.6348 " fill="none" style="stroke:#000000;stroke-width:1.5;"/><line style="stroke:#000000;stroke-width:1.5;" x1="929" x2="1019" y1="383.2559" y2="383.2559"/><text fill="#000000" font-family="sans-serif" font-size="14" font-weight="bold" lengthAdjust="spacing" textLength="77" x="933" y="375.7422">application</text></g><!--class ListFutureExamsUI--><g id="elem_ListFutureExamsUI"><rect codeLine="9" fill="#F1F1F1" height="48" id="ListFutureExamsUI" rx="2.5" ry="2.5" style="stroke:#181818;stroke-width:0.5;" width="149" x="22" y="164.6348"/><ellipse cx="37" cy="180.6348" fill="#ADD1B2" rx="11" ry="11" style="stroke:#181818;stroke-width:1.0;"/><path d="M39.7656,176.5098 Q39.9219,176.291 40.1094,176.1816 Q40.2969,176.0723 40.5156,176.0723 Q40.8906,176.0723 41.125,176.3379 Q41.3594,176.5879 41.3594,177.1973 L41.3594,178.6504 Q41.3594,179.2598 41.125,179.5254 Q40.8906,179.791 40.5156,179.791 Q40.1719,179.791 39.9688,179.5879 Q39.7656,179.4004 39.6563,178.8848 Q39.6094,178.5254 39.4219,178.3379 Q39.0938,177.9629 38.4844,177.7441 Q37.875,177.5254 37.25,177.5254 Q36.4844,177.5254 35.8438,177.8535 Q35.2188,178.1816 34.7188,178.9316 Q34.2344,179.6816 34.2344,180.7129 L34.2344,181.8066 Q34.2344,183.041 35.125,183.8691 Q36.0156,184.6816 37.6094,184.6816 Q38.5469,184.6816 39.2031,184.4316 Q39.5938,184.2754 40.0156,183.8379 Q40.2813,183.5723 40.4219,183.4941 Q40.5781,183.416 40.7813,183.416 Q41.1094,183.416 41.3594,183.6816 Q41.625,183.9316 41.625,184.2754 Q41.625,184.6191 41.2813,185.0254 Q40.7813,185.6035 39.9844,185.9316 Q38.9063,186.3848 37.6094,186.3848 Q36.0938,186.3848 34.8906,185.7598 Q33.9063,185.2598 33.2188,184.1973 Q32.5313,183.1191 32.5313,181.8379 L32.5313,180.6816 Q32.5313,179.3535 33.1406,178.2129 Q33.7656,177.0566 34.8594,176.4473 Q35.9531,175.8223 37.1875,175.8223 Q37.9219,175.8223 38.5625,175.9941 Q39.2188,176.1504 39.7656,176.5098 Z " fill="#000000"/><text fill="#000000" font-family="sans-serif" font-size="14" lengthAdjust="spacing" textLength="117" x="51" y="186.4316">ListFutureExamsUI</text><line style="stroke:#181818;stroke-width:0.5;" x1="23" x2="170" y1="196.6348" y2="196.6348"/><line style="stroke:#181818;stroke-width:0.5;" x1="23" x2="170" y1="204.6348" y2="204.6348"/></g><!--class ListFutureExamsController--><g id="elem_ListFutureExamsController"><rect codeLine="17" fill="#F1F1F1" height="122.4844" id="ListFutureExamsController" rx="2.5" ry="2.5" style="stroke:#181818;stroke-width:0.5;" width="634" x="251" y="127.6348"/><ellipse cx="480.25" cy="143.6348" fill="#ADD1B2" rx="11" ry="11" style="stroke:#181818;stroke-width:1.0;"/><path d="M483.0156,139.5098 Q483.1719,139.291 483.3594,139.1816 Q483.5469,139.0723 483.7656,139.0723 Q484.1406,139.0723 484.375,139.3379 Q484.6094,139.5879 484.6094,140.1973 L484.6094,141.6504 Q484.6094,142.2598 484.375,142.5254 Q484.1406,142.791 483.7656,142.791 Q483.4219,142.791 483.2188,142.5879 Q483.0156,142.4004 482.9063,141.8848 Q482.8594,141.5254 482.6719,141.3379 Q482.3438,140.9629 481.7344,140.7441 Q481.125,140.5254 480.5,140.5254 Q479.7344,140.5254 479.0938,140.8535 Q478.4688,141.1816 477.9688,141.9316 Q477.4844,142.6816 477.4844,143.7129 L477.4844,144.8066 Q477.4844,146.041 478.375,146.8691 Q479.2656,147.6816 480.8594,147.6816 Q481.7969,147.6816 482.4531,147.4316 Q482.8438,147.2754 483.2656,146.8379 Q483.5313,146.5723 483.6719,146.4941 Q483.8281,146.416 484.0313,146.416 Q484.3594,146.416 484.6094,146.6816 Q484.875,146.9316 484.875,147.2754 Q484.875,147.6191 484.5313,148.0254 Q484.0313,148.6035 483.2344,148.9316 Q482.1563,149.3848 480.8594,149.3848 Q479.3438,149.3848 478.1406,148.7598 Q477.1563,148.2598 476.4688,147.1973 Q475.7813,146.1191 475.7813,144.8379 L475.7813,143.6816 Q475.7813,142.3535 476.3906,141.2129 Q477.0156,140.0566 478.1094,139.4473 Q479.2031,138.8223 480.4375,138.8223 Q481.1719,138.8223 481.8125,138.9941 Q482.4688,139.1504 483.0156,139.5098 Z " fill="#000000"/><text fill="#000000" font-family="sans-serif" font-size="14" lengthAdjust="spacing" textLength="167" x="500.75" y="149.4316">ListFutureExamsController</text><line style="stroke:#181818;stroke-width:0.5;" x1="252" x2="884" y1="159.6348" y2="159.6348"/><line style="stroke:#181818;stroke-width:0.5;" x1="252" x2="884" y1="167.6348" y2="167.6348"/><rect fill="#F24D5C" height="6" style="stroke:#C82930;stroke-width:1.0;" width="6" x="259" y="179.4453"/><text fill="#000000" font-family="sans-serif" font-size="14" lengthAdjust="spacing" textLength="127" x="271" y="186.7422">verifyStudent(): void</text><ellipse cx="262" cy="201.0664" fill="#84BE84" rx="3" ry="3" style="stroke:#038048;stroke-width:1.0;"/><text fill="#000000" font-family="sans-serif" font-size="14" lengthAdjust="spacing" textLength="608" x="271" y="205.3633">ListFutureExamsController(userSessionService, studentCoursesProvider, courseExamsProvider)</text><rect fill="#F24D5C" height="6" style="stroke:#C82930;stroke-width:1.0;" width="6" x="259" y="216.6875"/><text fill="#000000" font-family="sans-serif" font-size="14" lengthAdjust="spacing" textLength="312" x="271" y="223.9844">studentActiveCourses(student): Iterable&lt;Course&gt;</text><ellipse cx="262" cy="238.3086" fill="#84BE84" rx="3" ry="3" style="stroke:#038048;stroke-width:1.0;"/><text fill="#000000" font-family="sans-serif" font-size="14" lengthAdjust="spacing" textLength="168" x="271" y="242.6055">futureExams(): List&lt;Exam&gt;</text></g><!--class ICourseExamsProvider--><g id="elem_ICourseExamsProvider"><rect codeLine="26" fill="#F1F1F1" height="66.6211" id="ICourseExamsProvider" rx="2.5" ry="2.5" style="stroke:#181818;stroke-width:0.5;" width="335" x="951.5" y="155.1348"/><ellipse cx="1043.25" cy="171.1348" fill="#B4A7E5" rx="11" ry="11" style="stroke:#181818;stroke-width:1.0;"/><path d="M1044.2031,167.7754 L1044.2031,174.4316 L1045.9219,174.4316 Q1046.5313,174.4316 1046.7969,174.666 Q1047.0625,174.9004 1047.0625,175.291 Q1047.0625,175.666 1046.7969,175.9004 Q1046.5313,176.1348 1045.9219,176.1348 L1040.7813,176.1348 Q1040.1719,176.1348 1039.9063,175.9004 Q1039.6406,175.666 1039.6406,175.2754 Q1039.6406,174.9004 1039.9063,174.666 Q1040.1719,174.4316 1040.7813,174.4316 L1042.5,174.4316 L1042.5,167.7754 L1040.7813,167.7754 Q1040.1719,167.7754 1039.9063,167.541 Q1039.6406,167.3066 1039.6406,166.916 Q1039.6406,166.541 1039.9063,166.3066 Q1040.1719,166.0723 1040.7813,166.0723 L1045.9219,166.0723 Q1046.5313,166.0723 1046.7969,166.3066 Q1047.0625,166.541 1047.0625,166.916 Q1047.0625,167.3066 1046.7969,167.541 Q1046.5313,167.7754 1045.9219,167.7754 L1044.2031,167.7754 Z " fill="#000000"/><text fill="#000000" font-family="sans-serif" font-size="14" font-style="italic" lengthAdjust="spacing" textLength="143" x="1063.75" y="176.9316">ICourseExamsProvider</text><line style="stroke:#181818;stroke-width:0.5;" x1="952.5" x2="1285.5" y1="187.1348" y2="187.1348"/><line style="stroke:#181818;stroke-width:0.5;" x1="952.5" x2="1285.5" y1="195.1348" y2="195.1348"/><ellipse cx="962.5" cy="209.9453" fill="#84BE84" rx="3" ry="3" style="stroke:#038048;stroke-width:1.0;"/><text fill="#000000" font-family="sans-serif" font-size="14" lengthAdjust="spacing" textLength="309" x="971.5" y="214.2422">provideFutureCourseExams(course): List&lt;Exam&gt;</text></g><!--class Exam--><g id="elem_Exam"><rect codeLine="36" fill="#F1F1F1" height="48" id="Exam" rx="2.5" ry="2.5" style="stroke:#181818;stroke-width:0.5;" width="66" x="1914" y="164.6348"/><ellipse cx="1929" cy="180.6348" fill="#ADD1B2" rx="11" ry="11" style="stroke:#181818;stroke-width:1.0;"/><path d="M1931.7656,176.5098 Q1931.9219,176.291 1932.1094,176.1816 Q1932.2969,176.0723 1932.5156,176.0723 Q1932.8906,176.0723 1933.125,176.3379 Q1933.3594,176.5879 1933.3594,177.1973 L1933.3594,178.6504 Q1933.3594,179.2598 1933.125,179.5254 Q1932.8906,179.791 1932.5156,179.791 Q1932.1719,179.791 1931.9688,179.5879 Q1931.7656,179.4004 1931.6563,178.8848 Q1931.6094,178.5254 1931.4219,178.3379 Q1931.0938,177.9629 1930.4844,177.7441 Q1929.875,177.5254 1929.25,177.5254 Q1928.4844,177.5254 1927.8438,177.8535 Q1927.2188,178.1816 1926.7188,178.9316 Q1926.2344,179.6816 1926.2344,180.7129 L1926.2344,181.8066 Q1926.2344,183.041 1927.125,183.8691 Q1928.0156,184.6816 1929.6094,184.6816 Q1930.5469,184.6816 1931.2031,184.4316 Q1931.5938,184.2754 1932.0156,183.8379 Q1932.2813,183.5723 1932.4219,183.4941 Q1932.5781,183.416 1932.7813,183.416 Q1933.1094,183.416 1933.3594,183.6816 Q1933.625,183.9316 1933.625,184.2754 Q1933.625,184.6191 1933.2813,185.0254 Q1932.7813,185.6035 1931.9844,185.9316 Q1930.9063,186.3848 1929.6094,186.3848 Q1928.0938,186.3848 1926.8906,185.7598 Q1925.9063,185.2598 1925.2188,184.1973 Q1924.5313,183.1191 1924.5313,181.8379 L1924.5313,180.6816 Q1924.5313,179.3535 1925.1406,178.2129 Q1925.7656,177.0566 1926.8594,176.4473 Q1927.9531,175.8223 1929.1875,175.8223 Q1929.9219,175.8223 1930.5625,175.9941 Q1931.2188,176.1504 1931.7656,176.5098 Z " fill="#000000"/><text fill="#000000" font-family="sans-serif" font-size="14" lengthAdjust="spacing" textLength="34" x="1943" y="186.4316">Exam</text><line style="stroke:#181818;stroke-width:0.5;" x1="1915" x2="1979" y1="196.6348" y2="196.6348"/><line style="stroke:#181818;stroke-width:0.5;" x1="1915" x2="1979" y1="204.6348" y2="204.6348"/></g><!--class IExamRepository--><g id="elem_IExamRepository"><rect codeLine="42" fill="#F1F1F1" height="85.2422" id="IExamRepository" rx="2.5" ry="2.5" style="stroke:#181818;stroke-width:0.5;" width="420" x="1373" y="146.1348"/><ellipse cx="1525.75" cy="162.1348" fill="#B4A7E5" rx="11" ry="11" style="stroke:#181818;stroke-width:1.0;"/><path d="M1526.7031,158.7754 L1526.7031,165.4316 L1528.4219,165.4316 Q1529.0313,165.4316 1529.2969,165.666 Q1529.5625,165.9004 1529.5625,166.291 Q1529.5625,166.666 1529.2969,166.9004 Q1529.0313,167.1348 1528.4219,167.1348 L1523.2813,167.1348 Q1522.6719,167.1348 1522.4063,166.9004 Q1522.1406,166.666 1522.1406,166.2754 Q1522.1406,165.9004 1522.4063,165.666 Q1522.6719,165.4316 1523.2813,165.4316 L1525,165.4316 L1525,158.7754 L1523.2813,158.7754 Q1522.6719,158.7754 1522.4063,158.541 Q1522.1406,158.3066 1522.1406,157.916 Q1522.1406,157.541 1522.4063,157.3066 Q1522.6719,157.0723 1523.2813,157.0723 L1528.4219,157.0723 Q1529.0313,157.0723 1529.2969,157.3066 Q1529.5625,157.541 1529.5625,157.916 Q1529.5625,158.3066 1529.2969,158.541 Q1529.0313,158.7754 1528.4219,158.7754 L1526.7031,158.7754 Z " fill="#000000"/><text fill="#000000" font-family="sans-serif" font-size="14" font-style="italic" lengthAdjust="spacing" textLength="106" x="1546.25" y="167.9316">IExamRepository</text><line style="stroke:#181818;stroke-width:0.5;" x1="1374" x2="1792" y1="178.1348" y2="178.1348"/><line style="stroke:#181818;stroke-width:0.5;" x1="1374" x2="1792" y1="186.1348" y2="186.1348"/><ellipse cx="1384" cy="200.9453" fill="#84BE84" rx="3" ry="3" style="stroke:#038048;stroke-width:1.0;"/><text fill="#000000" font-family="sans-serif" font-size="14" lengthAdjust="spacing" textLength="394" x="1393" y="205.2422">findFutureAutomatedExamsByCourse(course): Iterable&lt;Exam&gt;</text><ellipse cx="1384" cy="219.5664" fill="#84BE84" rx="3" ry="3" style="stroke:#038048;stroke-width:1.0;"/><text fill="#000000" font-family="sans-serif" font-size="14" lengthAdjust="spacing" textLength="340" x="1393" y="223.8633">findFormativeExamByCourse(course): Iterable&lt;Exam&gt;</text></g><!--class IUserCoursesProvider--><g id="elem_IUserCoursesProvider"><rect codeLine="53" fill="#F1F1F1" height="66.6211" id="IUserCoursesProvider" rx="2.5" ry="2.5" style="stroke:#181818;stroke-width:0.5;" width="348" x="945" y="396.1348"/><ellipse cx="1045.25" cy="412.1348" fill="#B4A7E5" rx="11" ry="11" style="stroke:#181818;stroke-width:1.0;"/><path d="M1046.2031,408.7754 L1046.2031,415.4316 L1047.9219,415.4316 Q1048.5313,415.4316 1048.7969,415.666 Q1049.0625,415.9004 1049.0625,416.291 Q1049.0625,416.666 1048.7969,416.9004 Q1048.5313,417.1348 1047.9219,417.1348 L1042.7813,417.1348 Q1042.1719,417.1348 1041.9063,416.9004 Q1041.6406,416.666 1041.6406,416.2754 Q1041.6406,415.9004 1041.9063,415.666 Q1042.1719,415.4316 1042.7813,415.4316 L1044.5,415.4316 L1044.5,408.7754 L1042.7813,408.7754 Q1042.1719,408.7754 1041.9063,408.541 Q1041.6406,408.3066 1041.6406,407.916 Q1041.6406,407.541 1041.9063,407.3066 Q1042.1719,407.0723 1042.7813,407.0723 L1047.9219,407.0723 Q1048.5313,407.0723 1048.7969,407.3066 Q1049.0625,407.541 1049.0625,407.916 Q1049.0625,408.3066 1048.7969,408.541 Q1048.5313,408.7754 1047.9219,408.7754 L1046.2031,408.7754 Z " fill="#000000"/><text fill="#000000" font-family="sans-serif" font-size="14" font-style="italic" lengthAdjust="spacing" textLength="139" x="1065.75" y="417.9316">IUserCoursesProvider</text><line style="stroke:#181818;stroke-width:0.5;" x1="946" x2="1292" y1="428.1348" y2="428.1348"/><line style="stroke:#181818;stroke-width:0.5;" x1="946" x2="1292" y1="436.1348" y2="436.1348"/><ellipse cx="956" cy="450.9453" fill="#84BE84" rx="3" ry="3" style="stroke:#038048;stroke-width:1.0;"/><text fill="#000000" font-family="sans-serif" font-size="14" lengthAdjust="spacing" textLength="322" x="965" y="455.2422">provideUserActiveCourses(user): Iterable&lt;Course&gt;</text></g><!--link ListFutureExamsUI to ListFutureExamsController--><g id="link_ListFutureExamsUI_ListFutureExamsController"><path codeLine="61" d="M171.12,188.6348 C192.98,188.6348 218.45,188.6348 245.74,188.6348 " fill="none" id="ListFutureExamsUI-to-ListFutureExamsController" style="stroke:#181818;stroke-width:1.0;stroke-dasharray:7.0,7.0;"/><polygon fill="#181818" points="250.85,188.6348,241.85,184.6348,245.85,188.6348,241.85,192.6348,250.85,188.6348" style="stroke:#181818;stroke-width:1.0;"/></g><!--link ListFutureExamsController to ICourseExamsProvider--><g id="link_ListFutureExamsController_ICourseExamsProvider"><path codeLine="62" d="M885.17,188.6348 C905.96,188.6348 926.42,188.6348 946.06,188.6348 " fill="none" id="ListFutureExamsController-to-ICourseExamsProvider" style="stroke:#181818;stroke-width:1.0;"/><polygon fill="#181818" points="951.31,188.6348,942.31,184.6348,946.31,188.6348,942.31,192.6348,951.31,188.6348" style="stroke:#181818;stroke-width:1.0;"/></g><!--link ListFutureExamsController to IUserCoursesProvider--><g id="link_ListFutureExamsController_IUserCoursesProvider"><path codeLine="63" d="M708.25,249.7648 C812.17,295.3848 950.58,356.1348 1036.97,394.0648 " fill="none" id="ListFutureExamsController-to-IUserCoursesProvider" style="stroke:#181818;stroke-width:1.0;stroke-dasharray:7.0,7.0;"/><polygon fill="#181818" points="1041.56,396.0748,1034.9095,388.8104,1036.9769,394.0759,1031.7114,396.1433,1041.56,396.0748" style="stroke:#181818;stroke-width:1.0;"/></g><!--link ICourseExamsProvider to IExamRepository--><g id="link_ICourseExamsProvider_IExamRepository"><path codeLine="64" d="M1286.79,188.6348 C1313.07,188.6348 1340.55,188.6348 1367.73,188.6348 " fill="none" id="ICourseExamsProvider-to-IExamRepository" style="stroke:#181818;stroke-width:1.0;"/><polygon fill="#181818" points="1372.8,188.6348,1363.8,184.6348,1367.8,188.6348,1363.8,192.6348,1372.8,188.6348" style="stroke:#181818;stroke-width:1.0;"/></g><!--link IExamRepository to Exam--><g id="link_IExamRepository_Exam"><path codeLine="65" d="M1793,188.6348 C1837.57,188.6348 1879.82,188.6348 1908.58,188.6348 " fill="none" id="IExamRepository-to-Exam" style="stroke:#181818;stroke-width:1.0;"/><polygon fill="#181818" points="1913.79,188.6348,1904.79,184.6348,1908.79,188.6348,1904.79,192.6348,1913.79,188.6348" style="stroke:#181818;stroke-width:1.0;"/></g><!--SRC=[ZLDDRuCm3BtdL_ZOggFgTfogIXtRf4exJAlw0p8mr2eGb0IsQkA_Bo5qV1IgSGgsd_sUyw999mY7_SDgTGyUl97IiDT5Y9c6rq8N4k7bcwSA_8Gh1S_4OybJnjI9ifoR8wWZ3yKNPJ54F5784emqQ06IugE6a2G6caJ6MCw34u_Di1tyC0Rc2-gUTgORLK-owOgngWMW2QSyCyVKqch0b-mspnCAk9rnIKtszaMcfKWIbDrI-tbGegJet6YVpH-X51JsQXRJxMQ5Ghb7fGoBFSgI0hm3vNhvef0ArRiK9OKexo2e0tM7It0-8DD0jsPr9JODPatGKDjfbFmpmRLBRGOqevQY5M9Ph-tVfjLSjKVAJBU81mWx_vhPS54Bo5t6xQ63c3bTjmTM_SiBHSffvDuikBR124PYBXHf8SzTN4U51NzqYmRReInqvBU5DlCrXZN_fxCJq-huMxFJCj96I8CtLsGB_erlPNLCxa0zctT5yvxBHqGVZ047JhjItjoSBUqxoxhtbgrwZA_VwtAvcNuQRFeDUjvcr7Ct87RKc5OswjrwGDyER6WFpnRP6Fi5]--></g></svg>