<?xml version="1.0" encoding="us-ascii" standalone="no"?><svg xmlns="http://www.w3.org/2000/svg" xmlns:xlink="http://www.w3.org/1999/xlink" contentStyleType="text/css" height="738.6px" preserveAspectRatio="none" style="width:1957px;height:738px;background:#FFFFFF;" version="1.1" viewBox="0 0 1957 738" width="1957.2px" zoomAndPan="magnify"><defs/><g><!--cluster ui--><g id="cluster_presentation"><rect fill="none" height="60.6" rx="1.5" ry="1.5" style="stroke:#000000;stroke-width:0.8999999999999999;" width="93.6" x="82.2" y="120.6"/><text fill="#000000" font-family="FG Virgil" font-size="8.4" font-weight="bold" lengthAdjust="spacing" textLength="54" x="102" y="130.8645">ui</text></g><!--cluster ecourseclassmanagement--><g id="cluster_ecourseclassmanagement"><rect fill="none" height="336" rx="1.5" ry="1.5" style="stroke:#000000;stroke-width:0.8999999999999999;" width="1731" x="4.2" y="195.6"/><text fill="#000000" font-family="FG Virgil" font-size="8.4" font-weight="bold" lengthAdjust="spacing" textLength="110.4" x="814.5" y="205.8645">ecourseclassmanagement</text></g><!--cluster application--><g id="cluster_application"><rect fill="none" height="133.8" rx="1.5" ry="1.5" style="stroke:#000000;stroke-width:0.8999999999999999;" width="490.2" x="18.6" y="222.6"/><text fill="#000000" font-family="FG Virgil" font-size="8.4" font-weight="bold" lengthAdjust="spacing" textLength="46.2" x="240.6" y="232.8645">application</text></g><!--cluster repository--><g id="cluster_repository"><rect fill="none" height="83.4" rx="1.5" ry="1.5" style="stroke:#000000;stroke-width:0.8999999999999999;" width="284.4" x="1436.4" y="261"/><text fill="#000000" font-family="FG Virgil" font-size="8.4" font-weight="bold" lengthAdjust="spacing" textLength="43.2" x="1557" y="271.2645">repository</text></g><!--cluster domain--><g id="cluster_domain"><rect fill="none" height="288.6" rx="1.5" ry="1.5" style="stroke:#000000;stroke-width:0.8999999999999999;" width="754.5" x="584.4" y="228.6"/><text fill="#000000" font-family="FG Virgil" font-size="8.4" font-weight="bold" lengthAdjust="spacing" textLength="30.6" x="946.35" y="238.8645">domain</text></g><!--cluster services--><g id="cluster_services"><rect fill="none" height="94.2" rx="1.5" ry="1.5" style="stroke:#000000;stroke-width:0.8999999999999999;" width="310.8" x="598.8" y="255.6"/><text fill="#000000" font-family="FG Virgil" font-size="8.4" font-weight="bold" lengthAdjust="spacing" textLength="36.6" x="735.9" y="265.8645">services</text></g><!--cluster ecoursecoursemanagement--><g id="cluster_ecoursecoursemanagement"><rect fill="none" height="189" rx="1.5" ry="1.5" style="stroke:#000000;stroke-width:0.8999999999999999;" width="519.9" x="1184.4" y="546"/><text fill="#000000" font-family="FG Virgil" font-size="8.4" font-weight="bold" lengthAdjust="spacing" textLength="118.2" x="1385.25" y="556.2645">ecoursecoursemanagement</text></g><!--cluster repository--><g id="cluster_repository"><rect fill="none" height="72.6" rx="1.5" ry="1.5" style="stroke:#000000;stroke-width:0.8999999999999999;" width="222.6" x="1467.3" y="648"/><text fill="#000000" font-family="FG Virgil" font-size="8.4" font-weight="bold" lengthAdjust="spacing" textLength="43.2" x="1557" y="658.2645">repository</text></g><!--cluster domain--><g id="cluster_domain"><rect fill="none" height="60.6" rx="1.5" ry="1.5" style="stroke:#000000;stroke-width:0.8999999999999999;" width="66" x="1545.6" y="573"/><text fill="#000000" font-family="FG Virgil" font-size="8.4" font-weight="bold" lengthAdjust="spacing" textLength="30.6" x="1563.3" y="583.2645">domain</text></g><!--cluster application--><g id="cluster_application"><rect fill="none" height="72.6" rx="1.5" ry="1.5" style="stroke:#000000;stroke-width:0.8999999999999999;" width="220.8" x="1198.8" y="573"/><text fill="#000000" font-family="FG Virgil" font-size="8.4" font-weight="bold" lengthAdjust="spacing" textLength="46.2" x="1286.1" y="583.2645">application</text></g><!--cluster usermanagement--><g id="cluster_usermanagement"><rect fill="none" height="177" rx="1.5" ry="1.5" style="stroke:#000000;stroke-width:0.8999999999999999;" width="423.3" x="1218.3" y="4.2"/><text fill="#000000" font-family="FG Virgil" font-size="8.4" font-weight="bold" lengthAdjust="spacing" textLength="73.2" x="1393.35" y="14.4645">usermanagement</text></g><!--cluster repository--><g id="cluster_repository"><rect fill="none" height="60.6" rx="1.5" ry="1.5" style="stroke:#000000;stroke-width:0.8999999999999999;" width="97.2" x="1530" y="31.2"/><text fill="#000000" font-family="FG Virgil" font-size="8.4" font-weight="bold" lengthAdjust="spacing" textLength="43.2" x="1557" y="41.4645">repository</text></g><!--cluster application--><g id="cluster_application"><rect fill="none" height="72.6" rx="1.5" ry="1.5" style="stroke:#000000;stroke-width:0.8999999999999999;" width="153" x="1232.7" y="94.2"/><text fill="#000000" font-family="FG Virgil" font-size="8.4" font-weight="bold" lengthAdjust="spacing" textLength="46.2" x="1286.1" y="104.4645">application</text></g><!--cluster domain--><g id="cluster_domain"><rect fill="none" height="60.6" rx="1.5" ry="1.5" style="stroke:#000000;stroke-width:0.8999999999999999;" width="88.8" x="1534.2" y="106.2"/><text fill="#000000" font-family="FG Virgil" font-size="8.4" font-weight="bold" lengthAdjust="spacing" textLength="30.6" x="1563.3" y="116.4645">domain</text></g><!--cluster EAPLIFRAMEWORK--><g id="cluster_EAPLIFRAMEWORK"><rect fill="none" height="185.4" rx="1.5" ry="1.5" style="stroke:#000000;stroke-width:0.8999999999999999;" width="204" x="1749.6" y="9.6"/><text fill="#000000" font-family="FG Virgil" font-size="8.4" font-weight="bold" lengthAdjust="spacing" textLength="79.8" x="1811.7" y="19.8645">EAPLIFRAMEWORK</text></g><!--class UpdateClassUI--><g id="elem_UpdateClassUI"><rect codeLine="9" fill="#F1F1F1" height="28.8" id="UpdateClassUI" rx="1.5" ry="1.5" style="stroke:#181818;stroke-width:0.3;" width="74.4" x="91.8" y="142.8"/><ellipse cx="100.8" cy="152.4" fill="#ADD1B2" rx="6.6" ry="6.6" style="stroke:#181818;stroke-width:0.6;"/><path d="M102.4594,149.925 Q102.5531,149.7938 102.6656,149.7281 Q102.7781,149.6625 102.9094,149.6625 Q103.1344,149.6625 103.275,149.8219 Q103.4156,149.9719 103.4156,150.3375 L103.4156,151.2094 Q103.4156,151.575 103.275,151.7344 Q103.1344,151.8937 102.9094,151.8937 Q102.7031,151.8937 102.5813,151.7719 Q102.4594,151.6594 102.3938,151.35 Q102.3656,151.1344 102.2531,151.0219 Q102.0562,150.7969 101.6906,150.6656 Q101.325,150.5344 100.95,150.5344 Q100.4906,150.5344 100.1063,150.7313 Q99.7313,150.9281 99.4312,151.3781 Q99.1406,151.8281 99.1406,152.4469 L99.1406,153.1031 Q99.1406,153.8438 99.675,154.3406 Q100.2094,154.8281 101.1656,154.8281 Q101.7281,154.8281 102.1219,154.6781 Q102.3563,154.5844 102.6094,154.3219 Q102.7688,154.1625 102.8531,154.1156 Q102.9469,154.0688 103.0688,154.0688 Q103.2656,154.0688 103.4156,154.2281 Q103.575,154.3781 103.575,154.5844 Q103.575,154.7906 103.3687,155.0344 Q103.0688,155.3813 102.5906,155.5781 Q101.9438,155.85 101.1656,155.85 Q100.2563,155.85 99.5344,155.475 Q98.9438,155.175 98.5313,154.5375 Q98.1187,153.8906 98.1187,153.1219 L98.1187,152.4281 Q98.1187,151.6313 98.4844,150.9469 Q98.8594,150.2531 99.5156,149.8875 Q100.1719,149.5125 100.9125,149.5125 Q101.3531,149.5125 101.7375,149.6156 Q102.1313,149.7094 102.4594,149.925 Z " fill="#000000"/><text fill="#000000" font-family="FG Virgil" font-size="8.4" lengthAdjust="spacing" textLength="55.2" x="109.2" y="155.8781">UpdateClassUI</text><line style="stroke:#181818;stroke-width:0.3;" x1="92.4" x2="165.6" y1="162" y2="162"/><line style="stroke:#181818;stroke-width:0.3;" x1="92.4" x2="165.6" y1="166.8" y2="166.8"/></g><!--class ListAvailableSlotsForUpdateController--><g id="elem_ListAvailableSlotsForUpdateController"><rect codeLine="17" fill="#F1F1F1" height="39.9727" id="ListAvailableSlotsForUpdateController" rx="1.5" ry="1.5" style="stroke:#181818;stroke-width:0.3;" width="196.8" x="302.4" y="306.3"/><ellipse cx="326.79" cy="315.9" fill="#ADD1B2" rx="6.6" ry="6.6" style="stroke:#181818;stroke-width:0.6;"/><path d="M328.4494,313.425 Q328.5431,313.2938 328.6556,313.2281 Q328.7681,313.1625 328.8994,313.1625 Q329.1244,313.1625 329.265,313.3219 Q329.4056,313.4719 329.4056,313.8375 L329.4056,314.7094 Q329.4056,315.075 329.265,315.2344 Q329.1244,315.3938 328.8994,315.3938 Q328.6931,315.3938 328.5712,315.2719 Q328.4494,315.1594 328.3837,314.85 Q328.3556,314.6344 328.2431,314.5219 Q328.0463,314.2969 327.6806,314.1656 Q327.315,314.0344 326.94,314.0344 Q326.4806,314.0344 326.0963,314.2313 Q325.7213,314.4281 325.4213,314.8781 Q325.1306,315.3281 325.1306,315.9469 L325.1306,316.6031 Q325.1306,317.3438 325.665,317.8406 Q326.1994,318.3281 327.1556,318.3281 Q327.7181,318.3281 328.1119,318.1781 Q328.3463,318.0844 328.5994,317.8219 Q328.7587,317.6625 328.8431,317.6156 Q328.9369,317.5687 329.0588,317.5687 Q329.2556,317.5687 329.4056,317.7281 Q329.565,317.8781 329.565,318.0844 Q329.565,318.2906 329.3588,318.5344 Q329.0588,318.8812 328.5806,319.0781 Q327.9338,319.35 327.1556,319.35 Q326.2463,319.35 325.5244,318.975 Q324.9338,318.675 324.5212,318.0375 Q324.1088,317.3906 324.1088,316.6219 L324.1088,315.9281 Q324.1088,315.1312 324.4744,314.4469 Q324.8494,313.7531 325.5056,313.3875 Q326.1619,313.0125 326.9025,313.0125 Q327.3431,313.0125 327.7275,313.1156 Q328.1213,313.2094 328.4494,313.425 Z " fill="#000000"/><text fill="#000000" font-family="FG Virgil" font-size="8.4" lengthAdjust="spacing" textLength="143.4" x="338.61" y="319.3781">ListAvailableSlotsForUpdateController</text><line style="stroke:#181818;stroke-width:0.3;" x1="303" x2="498.6" y1="325.5" y2="325.5"/><line style="stroke:#181818;stroke-width:0.3;" x1="303" x2="498.6" y1="330.3" y2="330.3"/><ellipse cx="309" cy="339.1863" fill="#84BE84" rx="1.8" ry="1.8" style="stroke:#038048;stroke-width:0.6;"/><text fill="#000000" font-family="FG Virgil" font-size="8.4" lengthAdjust="spacing" textLength="181.2" x="314.4" y="341.7645">getAvailableUpdateSlots(chosenClass, courses)</text></g><!--class ListTeacherClassesController--><g id="elem_ListTeacherClassesController"><rect codeLine="21" fill="#F1F1F1" height="39.9727" id="ListTeacherClassesController" rx="1.5" ry="1.5" style="stroke:#181818;stroke-width:0.3;" width="131.4" x="335.1" y="245.1"/><ellipse cx="344.1" cy="254.7" fill="#ADD1B2" rx="6.6" ry="6.6" style="stroke:#181818;stroke-width:0.6;"/><path d="M345.7594,252.225 Q345.8531,252.0938 345.9656,252.0281 Q346.0781,251.9625 346.2094,251.9625 Q346.4344,251.9625 346.575,252.1219 Q346.7156,252.2719 346.7156,252.6375 L346.7156,253.5094 Q346.7156,253.875 346.575,254.0344 Q346.4344,254.1938 346.2094,254.1938 Q346.0031,254.1938 345.8812,254.0719 Q345.7594,253.9594 345.6937,253.65 Q345.6656,253.4344 345.5531,253.3219 Q345.3563,253.0969 344.9906,252.9656 Q344.625,252.8344 344.25,252.8344 Q343.7906,252.8344 343.4063,253.0313 Q343.0313,253.2281 342.7313,253.6781 Q342.4406,254.1281 342.4406,254.7469 L342.4406,255.4031 Q342.4406,256.1438 342.975,256.6406 Q343.5094,257.1281 344.4656,257.1281 Q345.0281,257.1281 345.4219,256.9781 Q345.6563,256.8844 345.9094,256.6219 Q346.0687,256.4625 346.1531,256.4156 Q346.2469,256.3688 346.3688,256.3688 Q346.5656,256.3688 346.7156,256.5281 Q346.875,256.6781 346.875,256.8844 Q346.875,257.0906 346.6688,257.3344 Q346.3688,257.6813 345.8906,257.8781 Q345.2438,258.15 344.4656,258.15 Q343.5563,258.15 342.8344,257.775 Q342.2438,257.475 341.8313,256.8375 Q341.4188,256.1906 341.4188,255.4219 L341.4188,254.7281 Q341.4188,253.9312 341.7844,253.2469 Q342.1594,252.5531 342.8156,252.1875 Q343.4719,251.8125 344.2125,251.8125 Q344.6531,251.8125 345.0375,251.9156 Q345.4313,252.0094 345.7594,252.225 Z " fill="#000000"/><text fill="#000000" font-family="FG Virgil" font-size="8.4" lengthAdjust="spacing" textLength="112.2" x="352.5" y="258.1781">ListTeacherClassesController</text><line style="stroke:#181818;stroke-width:0.3;" x1="335.7" x2="465.9" y1="264.3" y2="264.3"/><line style="stroke:#181818;stroke-width:0.3;" x1="335.7" x2="465.9" y1="269.1" y2="269.1"/><ellipse cx="341.7" cy="277.9863" fill="#84BE84" rx="1.8" ry="1.8" style="stroke:#038048;stroke-width:0.6;"/><text fill="#000000" font-family="FG Virgil" font-size="8.4" lengthAdjust="spacing" textLength="79.8" x="347.1" y="280.5645">getTeacherClasses()</text></g><!--class UpdateClassController--><g id="elem_UpdateClassController"><rect codeLine="25" fill="#F1F1F1" height="73.4906" id="UpdateClassController" rx="1.5" ry="1.5" style="stroke:#181818;stroke-width:0.3;" width="201.6" x="28.2" y="273.6"/><ellipse cx="83.85" cy="283.2" fill="#ADD1B2" rx="6.6" ry="6.6" style="stroke:#181818;stroke-width:0.6;"/><path d="M85.5094,280.725 Q85.6031,280.5938 85.7156,280.5281 Q85.8281,280.4625 85.9594,280.4625 Q86.1844,280.4625 86.325,280.6219 Q86.4656,280.7719 86.4656,281.1375 L86.4656,282.0094 Q86.4656,282.375 86.325,282.5344 Q86.1844,282.6937 85.9594,282.6937 Q85.7531,282.6937 85.6313,282.5719 Q85.5094,282.4594 85.4438,282.15 Q85.4156,281.9344 85.3031,281.8219 Q85.1063,281.5969 84.7406,281.4656 Q84.375,281.3344 84,281.3344 Q83.5406,281.3344 83.1563,281.5313 Q82.7813,281.7281 82.4813,282.1781 Q82.1906,282.6281 82.1906,283.2469 L82.1906,283.9031 Q82.1906,284.6438 82.725,285.1406 Q83.2594,285.6281 84.2156,285.6281 Q84.7781,285.6281 85.1719,285.4781 Q85.4063,285.3844 85.6594,285.1219 Q85.8188,284.9625 85.9031,284.9156 Q85.9969,284.8688 86.1187,284.8688 Q86.3156,284.8688 86.4656,285.0281 Q86.625,285.1781 86.625,285.3844 Q86.625,285.5906 86.4188,285.8344 Q86.1187,286.1813 85.6406,286.3781 Q84.9937,286.65 84.2156,286.65 Q83.3062,286.65 82.5844,286.275 Q81.9937,285.975 81.5813,285.3375 Q81.1688,284.6906 81.1688,283.9219 L81.1688,283.2281 Q81.1688,282.4313 81.5344,281.7469 Q81.9094,281.0531 82.5656,280.6875 Q83.2219,280.3125 83.9625,280.3125 Q84.4031,280.3125 84.7875,280.4156 Q85.1812,280.5094 85.5094,280.725 Z " fill="#000000"/><text fill="#000000" font-family="FG Virgil" font-size="8.4" lengthAdjust="spacing" textLength="85.2" x="96.15" y="286.6781">UpdateClassController</text><line style="stroke:#181818;stroke-width:0.3;" x1="28.8" x2="229.2" y1="292.8" y2="292.8"/><line style="stroke:#181818;stroke-width:0.3;" x1="28.8" x2="229.2" y1="297.6" y2="297.6"/><ellipse cx="34.8" cy="306.4863" fill="#84BE84" rx="1.8" ry="1.8" style="stroke:#038048;stroke-width:0.6;"/><text fill="#000000" font-family="FG Virgil" font-size="8.4" lengthAdjust="spacing" textLength="110.4" x="40.2" y="309.0645">updateClass(class, newDate)</text><ellipse cx="34.8" cy="317.659" fill="#84BE84" rx="1.8" ry="1.8" style="stroke:#038048;stroke-width:0.6;"/><text fill="#000000" font-family="FG Virgil" font-size="8.4" lengthAdjust="spacing" textLength="181.2" x="40.2" y="320.2371">getAvailableUpdateSlots(chosenClass, courses)</text><ellipse cx="34.8" cy="328.8316" fill="#84BE84" rx="1.8" ry="1.8" style="stroke:#038048;stroke-width:0.6;"/><text fill="#000000" font-family="FG Virgil" font-size="8.4" lengthAdjust="spacing" textLength="79.8" x="40.2" y="331.4098">getTeacherClasses()</text><ellipse cx="34.8" cy="340.0043" fill="#84BE84" rx="1.8" ry="1.8" style="stroke:#038048;stroke-width:0.6;"/><text fill="#000000" font-family="FG Virgil" font-size="8.4" lengthAdjust="spacing" textLength="186" x="40.2" y="342.5824">getAvailableTeacherCourses(): Iterable&lt;Course&gt;</text></g><!--class ClassRepository--><g id="elem_ClassRepository"><rect codeLine="36" fill="#F1F1F1" height="51.1453" id="ClassRepository" rx="1.5" ry="1.5" style="stroke:#181818;stroke-width:0.3;" width="265.2" x="1446" y="283.5"/><ellipse cx="1545.15" cy="293.1" fill="#B4A7E5" rx="6.6" ry="6.6" style="stroke:#181818;stroke-width:0.6;"/><path d="M1545.7219,291.0844 L1545.7219,295.0781 L1546.7531,295.0781 Q1547.1187,295.0781 1547.2781,295.2188 Q1547.4375,295.3594 1547.4375,295.5938 Q1547.4375,295.8187 1547.2781,295.9594 Q1547.1187,296.1 1546.7531,296.1 L1543.6688,296.1 Q1543.3031,296.1 1543.1438,295.9594 Q1542.9844,295.8187 1542.9844,295.5844 Q1542.9844,295.3594 1543.1438,295.2188 Q1543.3031,295.0781 1543.6688,295.0781 L1544.7,295.0781 L1544.7,291.0844 L1543.6688,291.0844 Q1543.3031,291.0844 1543.1438,290.9437 Q1542.9844,290.8031 1542.9844,290.5687 Q1542.9844,290.3438 1543.1438,290.2031 Q1543.3031,290.0625 1543.6688,290.0625 L1546.7531,290.0625 Q1547.1187,290.0625 1547.2781,290.2031 Q1547.4375,290.3438 1547.4375,290.5687 Q1547.4375,290.8031 1547.2781,290.9437 Q1547.1187,291.0844 1546.7531,291.0844 L1545.7219,291.0844 Z " fill="#000000"/><text fill="#000000" font-family="FG Virgil" font-size="8.4" font-style="italic" lengthAdjust="spacing" textLength="61.8" x="1557.45" y="296.5781">ClassRepository</text><line style="stroke:#181818;stroke-width:0.3;" x1="1446.6" x2="1710.6" y1="302.7" y2="302.7"/><line style="stroke:#181818;stroke-width:0.3;" x1="1446.6" x2="1710.6" y1="307.5" y2="307.5"/><ellipse cx="1452.6" cy="316.3863" fill="#84BE84" rx="1.8" ry="1.8" style="stroke:#038048;stroke-width:0.6;"/><text fill="#000000" font-family="FG Virgil" font-size="8.4" lengthAdjust="spacing" textLength="249.6" x="1458" y="318.9645">findTeacherRecurrentClasses(teacher): Iterable&lt;RecurrentClass&gt;</text><ellipse cx="1452.6" cy="327.559" fill="#84BE84" rx="1.8" ry="1.8" style="stroke:#038048;stroke-width:0.6;"/><text fill="#000000" font-family="FG Virgil" font-size="8.4" lengthAdjust="spacing" textLength="43.2" x="1458" y="330.1371">save(class)</text></g><!--class Class--><g id="elem_Class"><rect codeLine="44" fill="#F1F1F1" height="28.8" id="Class" rx="1.5" ry="1.5" style="stroke:#181818;stroke-width:0.3;" width="40.2" x="1289.1" y="372"/><ellipse cx="1298.1" cy="381.6" fill="#A9DCDF" rx="6.6" ry="6.6" style="stroke:#181818;stroke-width:0.6;"/><path d="M1299.4125,382.6594 L1296.9281,382.6594 L1296.675,383.2781 L1296.9281,383.2781 Q1297.2938,383.2781 1297.4531,383.4188 Q1297.6125,383.5594 1297.6125,383.7938 Q1297.6125,384.0188 1297.4531,384.1594 Q1297.2938,384.3 1296.9281,384.3 L1295.55,384.3 Q1295.1844,384.3 1295.0344,384.1594 Q1294.875,384.0188 1294.875,383.7844 Q1294.875,383.5594 1295.0438,383.4188 Q1295.2031,383.2688 1295.5781,383.2781 L1297.1812,379.2844 L1296.5156,379.2844 Q1296.15,379.2844 1295.9906,379.1438 Q1295.8313,379.0031 1295.8313,378.7688 Q1295.8313,378.5438 1295.9906,378.4031 Q1296.15,378.2625 1296.5156,378.2625 L1298.7188,378.2625 L1300.7531,383.2781 Q1301.1094,383.2781 1301.2219,383.3625 Q1301.4563,383.5219 1301.4563,383.7938 Q1301.4563,384.0188 1301.2969,384.1594 Q1301.1469,384.3 1300.7813,384.3 L1299.4031,384.3 Q1299.0375,384.3 1298.8781,384.1594 Q1298.7188,384.0188 1298.7188,383.7844 Q1298.7188,383.5594 1298.8781,383.4188 Q1299.0375,383.2781 1299.4031,383.2781 L1299.6563,383.2781 L1299.4125,382.6594 Z M1298.9813,381.6375 L1298.1656,379.6125 L1297.3406,381.6375 L1298.9813,381.6375 Z " fill="#000000"/><text fill="#000000" font-family="FG Virgil" font-size="8.4" font-style="italic" lengthAdjust="spacing" textLength="21" x="1306.5" y="385.0781">Class</text><line style="stroke:#181818;stroke-width:0.3;" x1="1289.7" x2="1328.7" y1="391.2" y2="391.2"/><line style="stroke:#181818;stroke-width:0.3;" x1="1289.7" x2="1328.7" y1="396" y2="396"/></g><!--class ClassDuration--><g id="elem_ClassDuration"><rect codeLine="48" fill="#F1F1F1" height="39.9727" id="ClassDuration" rx="1.5" ry="1.5" style="stroke:#181818;stroke-width:0.3;" width="73.2" x="1096.8" y="450.3"/><ellipse cx="1106.07" cy="459.9" fill="#ADD1B2" rx="6.6" ry="6.6" style="stroke:#181818;stroke-width:0.6;"/><path d="M1107.7294,457.425 Q1107.8231,457.2938 1107.9356,457.2281 Q1108.0481,457.1625 1108.1794,457.1625 Q1108.4044,457.1625 1108.545,457.3219 Q1108.6856,457.4719 1108.6856,457.8375 L1108.6856,458.7094 Q1108.6856,459.075 1108.545,459.2344 Q1108.4044,459.3938 1108.1794,459.3938 Q1107.9731,459.3938 1107.8513,459.2719 Q1107.7294,459.1594 1107.6638,458.85 Q1107.6356,458.6344 1107.5231,458.5219 Q1107.3263,458.2969 1106.9606,458.1656 Q1106.595,458.0344 1106.22,458.0344 Q1105.7606,458.0344 1105.3763,458.2313 Q1105.0013,458.4281 1104.7013,458.8781 Q1104.4106,459.3281 1104.4106,459.9469 L1104.4106,460.6031 Q1104.4106,461.3438 1104.945,461.8406 Q1105.4794,462.3281 1106.4356,462.3281 Q1106.9981,462.3281 1107.3919,462.1781 Q1107.6263,462.0844 1107.8794,461.8219 Q1108.0388,461.6625 1108.1231,461.6156 Q1108.2169,461.5687 1108.3388,461.5687 Q1108.5356,461.5687 1108.6856,461.7281 Q1108.845,461.8781 1108.845,462.0844 Q1108.845,462.2906 1108.6388,462.5344 Q1108.3388,462.8812 1107.8606,463.0781 Q1107.2138,463.35 1106.4356,463.35 Q1105.5263,463.35 1104.8044,462.975 Q1104.2138,462.675 1103.8013,462.0375 Q1103.3888,461.3906 1103.3888,460.6219 L1103.3888,459.9281 Q1103.3888,459.1312 1103.7544,458.4469 Q1104.1294,457.7531 1104.7856,457.3875 Q1105.4419,457.0125 1106.1825,457.0125 Q1106.6231,457.0125 1107.0075,457.1156 Q1107.4013,457.2094 1107.7294,457.425 Z " fill="#000000"/><text fill="#000000" font-family="FG Virgil" font-size="8.4" lengthAdjust="spacing" textLength="53.4" x="1114.53" y="463.3781">ClassDuration</text><line style="stroke:#181818;stroke-width:0.3;" x1="1097.4" x2="1169.4" y1="469.5" y2="469.5"/><rect fill="none" height="3.6" style="stroke:#C82930;stroke-width:0.6;" width="3.6" x="1101.6" y="476.5863"/><text fill="#000000" font-family="FG Virgil" font-size="8.4" lengthAdjust="spacing" textLength="57.6" x="1108.8" y="480.9645">duration : Float</text><line style="stroke:#181818;stroke-width:0.3;" x1="1097.4" x2="1169.4" y1="485.4727" y2="485.4727"/></g><!--class ClassTitle--><g id="elem_ClassTitle"><rect codeLine="52" fill="#F1F1F1" height="39.9727" id="ClassTitle" rx="1.5" ry="1.5" style="stroke:#181818;stroke-width:0.3;" width="58.2" x="1104.3" y="338.7"/><ellipse cx="1114.11" cy="348.3" fill="#ADD1B2" rx="6.6" ry="6.6" style="stroke:#181818;stroke-width:0.6;"/><path d="M1115.7694,345.825 Q1115.8631,345.6937 1115.9756,345.6281 Q1116.0881,345.5625 1116.2194,345.5625 Q1116.4444,345.5625 1116.585,345.7219 Q1116.7256,345.8719 1116.7256,346.2375 L1116.7256,347.1094 Q1116.7256,347.475 1116.585,347.6344 Q1116.4444,347.7938 1116.2194,347.7938 Q1116.0131,347.7938 1115.8913,347.6719 Q1115.7694,347.5594 1115.7038,347.25 Q1115.6756,347.0344 1115.5631,346.9219 Q1115.3662,346.6969 1115.0006,346.5656 Q1114.635,346.4344 1114.26,346.4344 Q1113.8006,346.4344 1113.4163,346.6312 Q1113.0413,346.8281 1112.7412,347.2781 Q1112.4506,347.7281 1112.4506,348.3469 L1112.4506,349.0031 Q1112.4506,349.7438 1112.985,350.2406 Q1113.5194,350.7281 1114.4756,350.7281 Q1115.0381,350.7281 1115.4319,350.5781 Q1115.6663,350.4844 1115.9194,350.2219 Q1116.0788,350.0625 1116.1631,350.0156 Q1116.2569,349.9688 1116.3787,349.9688 Q1116.5756,349.9688 1116.7256,350.1281 Q1116.885,350.2781 1116.885,350.4844 Q1116.885,350.6906 1116.6787,350.9344 Q1116.3787,351.2813 1115.9006,351.4781 Q1115.2537,351.75 1114.4756,351.75 Q1113.5662,351.75 1112.8444,351.375 Q1112.2537,351.075 1111.8413,350.4375 Q1111.4287,349.7906 1111.4287,349.0219 L1111.4287,348.3281 Q1111.4287,347.5313 1111.7944,346.8469 Q1112.1694,346.1531 1112.8256,345.7875 Q1113.4819,345.4125 1114.2225,345.4125 Q1114.6631,345.4125 1115.0475,345.5156 Q1115.4412,345.6094 1115.7694,345.825 Z " fill="#000000"/><text fill="#000000" font-family="FG Virgil" font-size="8.4" lengthAdjust="spacing" textLength="37.2" x="1122.69" y="351.7781">ClassTitle</text><line style="stroke:#181818;stroke-width:0.3;" x1="1104.9" x2="1161.9" y1="357.9" y2="357.9"/><rect fill="none" height="3.6" style="stroke:#C82930;stroke-width:0.6;" width="3.6" x="1109.1" y="364.9863"/><text fill="#000000" font-family="FG Virgil" font-size="8.4" lengthAdjust="spacing" textLength="42.6" x="1116.3" y="369.3645">title : String</text><line style="stroke:#181818;stroke-width:0.3;" x1="1104.9" x2="1161.9" y1="373.8727" y2="373.8727"/></g><!--class RecurrentClass--><g id="elem_RecurrentClass"><rect codeLine="56" fill="#F1F1F1" height="28.8" id="RecurrentClass" rx="1.5" ry="1.5" style="stroke:#181818;stroke-width:0.3;" width="78" x="1094.4" y="400.2"/><ellipse cx="1103.4" cy="409.8" fill="#ADD1B2" rx="6.6" ry="6.6" style="stroke:#181818;stroke-width:0.6;"/><path d="M1105.0594,407.325 Q1105.1531,407.1937 1105.2656,407.1281 Q1105.3781,407.0625 1105.5094,407.0625 Q1105.7344,407.0625 1105.875,407.2219 Q1106.0156,407.3719 1106.0156,407.7375 L1106.0156,408.6094 Q1106.0156,408.975 1105.875,409.1344 Q1105.7344,409.2938 1105.5094,409.2938 Q1105.3031,409.2938 1105.1812,409.1719 Q1105.0594,409.0594 1104.9937,408.75 Q1104.9656,408.5344 1104.8531,408.4219 Q1104.6563,408.1969 1104.2906,408.0656 Q1103.925,407.9344 1103.55,407.9344 Q1103.0906,407.9344 1102.7063,408.1312 Q1102.3313,408.3281 1102.0313,408.7781 Q1101.7406,409.2281 1101.7406,409.8469 L1101.7406,410.5031 Q1101.7406,411.2438 1102.275,411.7406 Q1102.8094,412.2281 1103.7656,412.2281 Q1104.3281,412.2281 1104.7219,412.0781 Q1104.9563,411.9844 1105.2094,411.7219 Q1105.3687,411.5625 1105.4531,411.5156 Q1105.5469,411.4688 1105.6688,411.4688 Q1105.8656,411.4688 1106.0156,411.6281 Q1106.175,411.7781 1106.175,411.9844 Q1106.175,412.1906 1105.9688,412.4344 Q1105.6688,412.7813 1105.1906,412.9781 Q1104.5438,413.25 1103.7656,413.25 Q1102.8563,413.25 1102.1344,412.875 Q1101.5438,412.575 1101.1313,411.9375 Q1100.7188,411.2906 1100.7188,410.5219 L1100.7188,409.8281 Q1100.7188,409.0313 1101.0844,408.3469 Q1101.4594,407.6531 1102.1156,407.2875 Q1102.7719,406.9125 1103.5125,406.9125 Q1103.9531,406.9125 1104.3375,407.0156 Q1104.7313,407.1094 1105.0594,407.325 Z " fill="#000000"/><text fill="#000000" font-family="FG Virgil" font-size="8.4" lengthAdjust="spacing" textLength="58.8" x="1111.8" y="413.2781">RecurrentClass</text><line style="stroke:#181818;stroke-width:0.3;" x1="1095" x2="1171.8" y1="419.4" y2="419.4"/><line style="stroke:#181818;stroke-width:0.3;" x1="1095" x2="1171.8" y1="424.2" y2="424.2"/></g><!--class RecurrentClassWeekday--><g id="elem_RecurrentClassWeekday"><rect codeLine="60" fill="#F1F1F1" height="84.6633" id="RecurrentClassWeekday" rx="1.5" ry="1.5" style="stroke:#181818;stroke-width:0.3;" width="113.4" x="697.5" y="422.7"/><ellipse cx="706.5" cy="432.3" fill="#EB937F" rx="6.6" ry="6.6" style="stroke:#181818;stroke-width:0.6;"/><path d="M705.8156,432.7781 L705.8156,434.2781 L708.4125,434.2781 L708.4125,433.725 Q708.4125,433.3594 708.5531,433.2 Q708.7031,433.0406 708.9281,433.0406 Q709.1531,433.0406 709.2937,433.2 Q709.4344,433.3594 709.4344,433.725 L709.4344,435.3 L704.6344,435.3 Q704.2594,435.3 704.1,435.1594 Q703.95,435.0188 703.95,434.7844 Q703.95,434.5594 704.1094,434.4188 Q704.2688,434.2781 704.6344,434.2781 L704.7937,434.2781 L704.7937,430.2844 L704.6344,430.2844 Q704.2594,430.2844 704.1,430.1438 Q703.95,430.0031 703.95,429.7688 Q703.95,429.5438 704.1,429.4031 Q704.2594,429.2625 704.6344,429.2625 L709.2094,429.2625 L709.2094,430.8187 Q709.2094,431.1844 709.0688,431.3438 Q708.9375,431.4938 708.7031,431.4938 Q708.4781,431.4938 708.3375,431.3438 Q708.1969,431.1844 708.1969,430.8187 L708.1969,430.2844 L705.8156,430.2844 L705.8156,431.7562 L706.7063,431.7562 Q706.7063,431.3625 706.7813,431.25 Q706.9406,431.0062 707.2219,431.0062 Q707.4469,431.0062 707.5875,431.1656 Q707.7281,431.3156 707.7281,431.6813 L707.7281,432.8625 Q707.7281,433.1906 707.6531,433.3031 Q707.4938,433.5375 707.2219,433.5375 Q706.9406,433.5375 706.7813,433.2938 Q706.7063,433.1813 706.7063,432.7781 L705.8156,432.7781 Z " fill="#000000"/><text fill="#000000" font-family="FG Virgil" font-size="8.4" lengthAdjust="spacing" textLength="94.2" x="714.9" y="435.7781">RecurrentClassWeekday</text><line style="stroke:#181818;stroke-width:0.3;" x1="698.1" x2="810.3" y1="441.9" y2="441.9"/><text fill="#000000" font-family="FG Virgil" font-size="8.4" lengthAdjust="spacing" textLength="35.4" x="701.1" y="453.3645">MONDAY</text><text fill="#000000" font-family="FG Virgil" font-size="8.4" lengthAdjust="spacing" textLength="38.4" x="701.1" y="464.5371">TUESDAY</text><text fill="#000000" font-family="FG Virgil" font-size="8.4" lengthAdjust="spacing" textLength="52.2" x="701.1" y="475.7098">WEDNESDAY</text><text fill="#000000" font-family="FG Virgil" font-size="8.4" lengthAdjust="spacing" textLength="44.4" x="701.1" y="486.8824">THURSDAY</text><text fill="#000000" font-family="FG Virgil" font-size="8.4" lengthAdjust="spacing" textLength="30" x="701.1" y="498.0551">FRIDAY</text><line style="stroke:#181818;stroke-width:0.3;" x1="698.1" x2="810.3" y1="502.5633" y2="502.5633"/></g><!--class RecurrentClassTime--><g id="elem_RecurrentClassTime"><rect codeLine="69" fill="#F1F1F1" height="39.9727" id="RecurrentClassTime" rx="1.5" ry="1.5" style="stroke:#181818;stroke-width:0.3;" width="96.6" x="705.9" y="361.5"/><ellipse cx="714.9" cy="371.1" fill="#ADD1B2" rx="6.6" ry="6.6" style="stroke:#181818;stroke-width:0.6;"/><path d="M716.5594,368.625 Q716.6531,368.4938 716.7656,368.4281 Q716.8781,368.3625 717.0094,368.3625 Q717.2344,368.3625 717.375,368.5219 Q717.5156,368.6719 717.5156,369.0375 L717.5156,369.9094 Q717.5156,370.275 717.375,370.4344 Q717.2344,370.5938 717.0094,370.5938 Q716.8031,370.5938 716.6813,370.4719 Q716.5594,370.3594 716.4938,370.05 Q716.4656,369.8344 716.3531,369.7219 Q716.1563,369.4969 715.7906,369.3656 Q715.425,369.2344 715.05,369.2344 Q714.5906,369.2344 714.2063,369.4313 Q713.8313,369.6281 713.5313,370.0781 Q713.2406,370.5281 713.2406,371.1469 L713.2406,371.8031 Q713.2406,372.5438 713.775,373.0406 Q714.3094,373.5281 715.2656,373.5281 Q715.8281,373.5281 716.2219,373.3781 Q716.4563,373.2844 716.7094,373.0219 Q716.8688,372.8625 716.9531,372.8156 Q717.0469,372.7688 717.1687,372.7688 Q717.3656,372.7688 717.5156,372.9281 Q717.675,373.0781 717.675,373.2844 Q717.675,373.4906 717.4688,373.7344 Q717.1687,374.0813 716.6906,374.2781 Q716.0437,374.55 715.2656,374.55 Q714.3562,374.55 713.6344,374.175 Q713.0437,373.875 712.6313,373.2375 Q712.2188,372.5906 712.2188,371.8219 L712.2188,371.1281 Q712.2188,370.3313 712.5844,369.6469 Q712.9594,368.9531 713.6156,368.5875 Q714.2719,368.2125 715.0125,368.2125 Q715.4531,368.2125 715.8375,368.3156 Q716.2312,368.4094 716.5594,368.625 Z " fill="#000000"/><text fill="#000000" font-family="FG Virgil" font-size="8.4" lengthAdjust="spacing" textLength="77.4" x="723.3" y="374.5781">RecurrentClassTime</text><line style="stroke:#181818;stroke-width:0.3;" x1="706.5" x2="801.9" y1="380.7" y2="380.7"/><rect fill="none" height="3.6" style="stroke:#C82930;stroke-width:0.6;" width="3.6" x="710.7" y="387.7863"/><text fill="#000000" font-family="FG Virgil" font-size="8.4" lengthAdjust="spacing" textLength="41.4" x="717.9" y="392.1645">time : Time</text><line style="stroke:#181818;stroke-width:0.3;" x1="706.5" x2="801.9" y1="396.6727" y2="396.6727"/></g><!--class RecurrentClassOccurrence--><g id="elem_RecurrentClassOccurrence"><rect codeLine="73" fill="#F1F1F1" height="39.9727" id="RecurrentClassOccurrence" rx="1.5" ry="1.5" style="stroke:#181818;stroke-width:0.3;" width="122.4" x="936" y="402.9"/><ellipse cx="945" cy="412.5" fill="#ADD1B2" rx="6.6" ry="6.6" style="stroke:#181818;stroke-width:0.6;"/><path d="M946.6594,410.025 Q946.7531,409.8938 946.8656,409.8281 Q946.9781,409.7625 947.1094,409.7625 Q947.3344,409.7625 947.475,409.9219 Q947.6156,410.0719 947.6156,410.4375 L947.6156,411.3094 Q947.6156,411.675 947.475,411.8344 Q947.3344,411.9938 947.1094,411.9938 Q946.9031,411.9938 946.7813,411.8719 Q946.6594,411.7594 946.5938,411.45 Q946.5656,411.2344 946.4531,411.1219 Q946.2562,410.8969 945.8906,410.7656 Q945.525,410.6344 945.15,410.6344 Q944.6906,410.6344 944.3063,410.8313 Q943.9313,411.0281 943.6312,411.4781 Q943.3406,411.9281 943.3406,412.5469 L943.3406,413.2031 Q943.3406,413.9437 943.875,414.4406 Q944.4094,414.9281 945.3656,414.9281 Q945.9281,414.9281 946.3219,414.7781 Q946.5563,414.6844 946.8094,414.4219 Q946.9688,414.2625 947.0531,414.2156 Q947.1469,414.1688 947.2688,414.1688 Q947.4656,414.1688 947.6156,414.3281 Q947.775,414.4781 947.775,414.6844 Q947.775,414.8906 947.5687,415.1344 Q947.2688,415.4813 946.7906,415.6781 Q946.1438,415.95 945.3656,415.95 Q944.4563,415.95 943.7344,415.575 Q943.1438,415.275 942.7312,414.6375 Q942.3187,413.9906 942.3187,413.2219 L942.3187,412.5281 Q942.3187,411.7313 942.6844,411.0469 Q943.0594,410.3531 943.7156,409.9875 Q944.3719,409.6125 945.1125,409.6125 Q945.5531,409.6125 945.9375,409.7156 Q946.3313,409.8094 946.6594,410.025 Z " fill="#000000"/><text fill="#000000" font-family="FG Virgil" font-size="8.4" lengthAdjust="spacing" textLength="103.2" x="953.4" y="415.9781">RecurrentClassOccurrence</text><line style="stroke:#181818;stroke-width:0.3;" x1="936.6" x2="1057.8" y1="422.1" y2="422.1"/><rect fill="none" height="3.6" style="stroke:#C82930;stroke-width:0.6;" width="3.6" x="940.8" y="429.1863"/><text fill="#000000" font-family="FG Virgil" font-size="8.4" lengthAdjust="spacing" textLength="42" x="948" y="433.5645">date : Date</text><line style="stroke:#181818;stroke-width:0.3;" x1="936.6" x2="1057.8" y1="438.0727" y2="438.0727"/></g><!--class ClassScheduler--><g id="elem_ClassScheduler"><rect codeLine="79" fill="#F1F1F1" height="62.318" id="ClassScheduler" rx="1.5" ry="1.5" style="stroke:#181818;stroke-width:0.3;" width="291.6" x="608.4" y="277.8"/><ellipse cx="721.95" cy="287.4" fill="#ADD1B2" rx="6.6" ry="6.6" style="stroke:#181818;stroke-width:0.6;"/><path d="M723.6094,284.925 Q723.7031,284.7938 723.8156,284.7281 Q723.9281,284.6625 724.0594,284.6625 Q724.2844,284.6625 724.425,284.8219 Q724.5656,284.9719 724.5656,285.3375 L724.5656,286.2094 Q724.5656,286.575 724.425,286.7344 Q724.2844,286.8938 724.0594,286.8938 Q723.8531,286.8938 723.7312,286.7719 Q723.6094,286.6594 723.5437,286.35 Q723.5156,286.1344 723.4031,286.0219 Q723.2063,285.7969 722.8406,285.6656 Q722.475,285.5344 722.1,285.5344 Q721.6406,285.5344 721.2563,285.7313 Q720.8813,285.9281 720.5813,286.3781 Q720.2906,286.8281 720.2906,287.4469 L720.2906,288.1031 Q720.2906,288.8438 720.825,289.3406 Q721.3594,289.8281 722.3156,289.8281 Q722.8781,289.8281 723.2719,289.6781 Q723.5063,289.5844 723.7594,289.3219 Q723.9187,289.1625 724.0031,289.1156 Q724.0969,289.0687 724.2188,289.0687 Q724.4156,289.0687 724.5656,289.2281 Q724.725,289.3781 724.725,289.5844 Q724.725,289.7906 724.5188,290.0344 Q724.2188,290.3812 723.7406,290.5781 Q723.0938,290.85 722.3156,290.85 Q721.4063,290.85 720.6844,290.475 Q720.0938,290.175 719.6813,289.5375 Q719.2688,288.8906 719.2688,288.1219 L719.2688,287.4281 Q719.2688,286.6312 719.6344,285.9469 Q720.0094,285.2531 720.6656,284.8875 Q721.3219,284.5125 722.0625,284.5125 Q722.5031,284.5125 722.8875,284.6156 Q723.2813,284.7094 723.6094,284.925 Z " fill="#000000"/><text fill="#000000" font-family="FG Virgil" font-size="8.4" lengthAdjust="spacing" textLength="59.4" x="734.25" y="290.8781">ClassScheduler</text><line style="stroke:#181818;stroke-width:0.3;" x1="609" x2="899.4" y1="297" y2="297"/><line style="stroke:#181818;stroke-width:0.3;" x1="609" x2="899.4" y1="301.8" y2="301.8"/><ellipse cx="615" cy="310.6863" fill="#84BE84" rx="1.8" ry="1.8" style="stroke:#038048;stroke-width:0.6;"/><text fill="#000000" font-family="FG Virgil" font-size="8.4" lengthAdjust="spacing" textLength="214.8" x="620.4" y="313.2645">getAvailableUpdateSlots(chosenClass, courses, teacher)</text><ellipse cx="615" cy="321.859" fill="#84BE84" rx="1.8" ry="1.8" style="stroke:#038048;stroke-width:0.6;"/><text fill="#000000" font-family="FG Virgil" font-size="8.4" lengthAdjust="spacing" textLength="276" x="620.4" y="324.4371">validateClassUpdate(chosenClass, newDate, courses, teacher) : boolean</text><ellipse cx="615" cy="333.0316" fill="#84BE84" rx="1.8" ry="1.8" style="stroke:#038048;stroke-width:0.6;"/><text fill="#000000" font-family="FG Virgil" font-size="8.4" lengthAdjust="spacing" textLength="110.4" x="620.4" y="335.6098">updateClass(class, newDate)</text></g><!--class CourseRepository--><g id="elem_CourseRepository"><rect codeLine="91" fill="#F1F1F1" height="39.9727" id="CourseRepository" rx="1.5" ry="1.5" style="stroke:#181818;stroke-width:0.3;" width="203.4" x="1476.9" y="670.5"/><ellipse cx="1541.85" cy="680.1" fill="#B4A7E5" rx="6.6" ry="6.6" style="stroke:#181818;stroke-width:0.6;"/><path d="M1542.4219,678.0844 L1542.4219,682.0781 L1543.4531,682.0781 Q1543.8188,682.0781 1543.9781,682.2188 Q1544.1375,682.3594 1544.1375,682.5938 Q1544.1375,682.8188 1543.9781,682.9594 Q1543.8188,683.1 1543.4531,683.1 L1540.3687,683.1 Q1540.0031,683.1 1539.8438,682.9594 Q1539.6844,682.8188 1539.6844,682.5844 Q1539.6844,682.3594 1539.8438,682.2188 Q1540.0031,682.0781 1540.3687,682.0781 L1541.4,682.0781 L1541.4,678.0844 L1540.3687,678.0844 Q1540.0031,678.0844 1539.8438,677.9438 Q1539.6844,677.8031 1539.6844,677.5688 Q1539.6844,677.3438 1539.8438,677.2031 Q1540.0031,677.0625 1540.3687,677.0625 L1543.4531,677.0625 Q1543.8188,677.0625 1543.9781,677.2031 Q1544.1375,677.3438 1544.1375,677.5688 Q1544.1375,677.8031 1543.9781,677.9438 Q1543.8188,678.0844 1543.4531,678.0844 L1542.4219,678.0844 Z " fill="#000000"/><text fill="#000000" font-family="FG Virgil" font-size="8.4" font-style="italic" lengthAdjust="spacing" textLength="68.4" x="1554.15" y="683.5781">CourseRepository</text><line style="stroke:#181818;stroke-width:0.3;" x1="1477.5" x2="1679.7" y1="689.7" y2="689.7"/><line style="stroke:#181818;stroke-width:0.3;" x1="1477.5" x2="1679.7" y1="694.5" y2="694.5"/><ellipse cx="1483.5" cy="703.3863" fill="#84BE84" rx="1.8" ry="1.8" style="stroke:#038048;stroke-width:0.6;"/><text fill="#000000" font-family="FG Virgil" font-size="8.4" lengthAdjust="spacing" textLength="187.8" x="1488.9" y="705.9645">findAvailableTeacherCourses(): Iterable&lt;Course&gt;</text></g><!--class Course--><g id="elem_Course"><rect codeLine="98" fill="#F1F1F1" height="28.8" id="Course" rx="1.5" ry="1.5" style="stroke:#181818;stroke-width:0.3;" width="46.8" x="1555.2" y="595.2"/><ellipse cx="1564.2" cy="604.8" fill="#ADD1B2" rx="6.6" ry="6.6" style="stroke:#181818;stroke-width:0.6;"/><path d="M1565.8594,602.325 Q1565.9531,602.1938 1566.0656,602.1281 Q1566.1781,602.0625 1566.3094,602.0625 Q1566.5344,602.0625 1566.675,602.2219 Q1566.8156,602.3719 1566.8156,602.7375 L1566.8156,603.6094 Q1566.8156,603.975 1566.675,604.1344 Q1566.5344,604.2937 1566.3094,604.2937 Q1566.1031,604.2937 1565.9813,604.1719 Q1565.8594,604.0594 1565.7938,603.75 Q1565.7656,603.5344 1565.6531,603.4219 Q1565.4563,603.1969 1565.0906,603.0656 Q1564.725,602.9344 1564.35,602.9344 Q1563.8906,602.9344 1563.5063,603.1313 Q1563.1313,603.3281 1562.8313,603.7781 Q1562.5406,604.2281 1562.5406,604.8469 L1562.5406,605.5031 Q1562.5406,606.2438 1563.075,606.7406 Q1563.6094,607.2281 1564.5656,607.2281 Q1565.1281,607.2281 1565.5219,607.0781 Q1565.7563,606.9844 1566.0094,606.7219 Q1566.1688,606.5625 1566.2531,606.5156 Q1566.3469,606.4688 1566.4688,606.4688 Q1566.6656,606.4688 1566.8156,606.6281 Q1566.975,606.7781 1566.975,606.9844 Q1566.975,607.1906 1566.7688,607.4344 Q1566.4688,607.7813 1565.9906,607.9781 Q1565.3438,608.25 1564.5656,608.25 Q1563.6563,608.25 1562.9344,607.875 Q1562.3438,607.575 1561.9312,606.9375 Q1561.5188,606.2906 1561.5188,605.5219 L1561.5188,604.8281 Q1561.5188,604.0313 1561.8844,603.3469 Q1562.2594,602.6531 1562.9156,602.2875 Q1563.5719,601.9125 1564.3125,601.9125 Q1564.7531,601.9125 1565.1375,602.0156 Q1565.5313,602.1094 1565.8594,602.325 Z " fill="#000000"/><text fill="#000000" font-family="FG Virgil" font-size="8.4" lengthAdjust="spacing" textLength="27.6" x="1572.6" y="608.2781">Course</text><line style="stroke:#181818;stroke-width:0.3;" x1="1555.8" x2="1601.4" y1="614.4" y2="614.4"/><line style="stroke:#181818;stroke-width:0.3;" x1="1555.8" x2="1601.4" y1="619.2" y2="619.2"/></g><!--class ListTeacherCoursesController--><g id="elem_ListTeacherCoursesController"><rect codeLine="104" fill="#F1F1F1" height="39.9727" id="ListTeacherCoursesController" rx="1.5" ry="1.5" style="stroke:#181818;stroke-width:0.3;" width="201.6" x="1208.4" y="595.5"/><ellipse cx="1249.65" cy="605.1" fill="#ADD1B2" rx="6.6" ry="6.6" style="stroke:#181818;stroke-width:0.6;"/><path d="M1251.3094,602.625 Q1251.4031,602.4938 1251.5156,602.4281 Q1251.6281,602.3625 1251.7594,602.3625 Q1251.9844,602.3625 1252.125,602.5219 Q1252.2656,602.6719 1252.2656,603.0375 L1252.2656,603.9094 Q1252.2656,604.275 1252.125,604.4344 Q1251.9844,604.5938 1251.7594,604.5938 Q1251.5531,604.5938 1251.4312,604.4719 Q1251.3094,604.3594 1251.2437,604.05 Q1251.2156,603.8344 1251.1031,603.7219 Q1250.9063,603.4969 1250.5406,603.3656 Q1250.175,603.2344 1249.8,603.2344 Q1249.3406,603.2344 1248.9563,603.4313 Q1248.5813,603.6281 1248.2813,604.0781 Q1247.9906,604.5281 1247.9906,605.1469 L1247.9906,605.8031 Q1247.9906,606.5437 1248.525,607.0406 Q1249.0594,607.5281 1250.0156,607.5281 Q1250.5781,607.5281 1250.9719,607.3781 Q1251.2063,607.2844 1251.4594,607.0219 Q1251.6187,606.8625 1251.7031,606.8156 Q1251.7969,606.7688 1251.9188,606.7688 Q1252.1156,606.7688 1252.2656,606.9281 Q1252.425,607.0781 1252.425,607.2844 Q1252.425,607.4906 1252.2188,607.7344 Q1251.9188,608.0813 1251.4406,608.2781 Q1250.7938,608.55 1250.0156,608.55 Q1249.1063,608.55 1248.3844,608.175 Q1247.7938,607.875 1247.3813,607.2375 Q1246.9688,606.5906 1246.9688,605.8219 L1246.9688,605.1281 Q1246.9688,604.3313 1247.3344,603.6469 Q1247.7094,602.9531 1248.3656,602.5875 Q1249.0219,602.2125 1249.7625,602.2125 Q1250.2031,602.2125 1250.5875,602.3156 Q1250.9813,602.4094 1251.3094,602.625 Z " fill="#000000"/><text fill="#000000" font-family="FG Virgil" font-size="8.4" lengthAdjust="spacing" textLength="114" x="1261.95" y="608.5781">ListTeacherCoursesController</text><line style="stroke:#181818;stroke-width:0.3;" x1="1209" x2="1409.4" y1="614.7" y2="614.7"/><line style="stroke:#181818;stroke-width:0.3;" x1="1209" x2="1409.4" y1="619.5" y2="619.5"/><ellipse cx="1215" cy="628.3863" fill="#84BE84" rx="1.8" ry="1.8" style="stroke:#038048;stroke-width:0.6;"/><text fill="#000000" font-family="FG Virgil" font-size="8.4" lengthAdjust="spacing" textLength="186" x="1220.4" y="630.9645">getAvailableTeacherCourses(): Iterable&lt;Course&gt;</text></g><!--class UserRepository--><g id="elem_UserRepository"><rect codeLine="114" fill="#F1F1F1" height="28.8" id="UserRepository" rx="1.5" ry="1.5" style="stroke:#181818;stroke-width:0.3;" width="78" x="1539.6" y="53.4"/><ellipse cx="1548.6" cy="63" fill="#B4A7E5" rx="6.6" ry="6.6" style="stroke:#181818;stroke-width:0.6;"/><path d="M1549.1719,60.9844 L1549.1719,64.9781 L1550.2031,64.9781 Q1550.5688,64.9781 1550.7281,65.1187 Q1550.8875,65.2594 1550.8875,65.4937 Q1550.8875,65.7188 1550.7281,65.8594 Q1550.5688,66 1550.2031,66 L1547.1187,66 Q1546.7531,66 1546.5938,65.8594 Q1546.4344,65.7188 1546.4344,65.4844 Q1546.4344,65.2594 1546.5938,65.1187 Q1546.7531,64.9781 1547.1187,64.9781 L1548.15,64.9781 L1548.15,60.9844 L1547.1187,60.9844 Q1546.7531,60.9844 1546.5938,60.8438 Q1546.4344,60.7031 1546.4344,60.4688 Q1546.4344,60.2438 1546.5938,60.1031 Q1546.7531,59.9625 1547.1187,59.9625 L1550.2031,59.9625 Q1550.5688,59.9625 1550.7281,60.1031 Q1550.8875,60.2438 1550.8875,60.4688 Q1550.8875,60.7031 1550.7281,60.8438 Q1550.5688,60.9844 1550.2031,60.9844 L1549.1719,60.9844 Z " fill="#000000"/><text fill="#000000" font-family="FG Virgil" font-size="8.4" font-style="italic" lengthAdjust="spacing" textLength="58.8" x="1557" y="66.4781">UserRepository</text><line style="stroke:#181818;stroke-width:0.3;" x1="1540.2" x2="1617" y1="72.6" y2="72.6"/><line style="stroke:#181818;stroke-width:0.3;" x1="1540.2" x2="1617" y1="77.4" y2="77.4"/></g><!--class UserSessionService--><g id="elem_UserSessionService"><rect codeLine="119" fill="#F1F1F1" height="39.9727" id="UserSessionService" rx="1.5" ry="1.5" style="stroke:#181818;stroke-width:0.3;" width="133.8" x="1242.3" y="116.7"/><ellipse cx="1268.85" cy="126.3" fill="#ADD1B2" rx="6.6" ry="6.6" style="stroke:#181818;stroke-width:0.6;"/><path d="M1270.5094,123.825 Q1270.6031,123.6938 1270.7156,123.6281 Q1270.8281,123.5625 1270.9594,123.5625 Q1271.1844,123.5625 1271.325,123.7219 Q1271.4656,123.8719 1271.4656,124.2375 L1271.4656,125.1094 Q1271.4656,125.475 1271.325,125.6344 Q1271.1844,125.7937 1270.9594,125.7937 Q1270.7531,125.7937 1270.6313,125.6719 Q1270.5094,125.5594 1270.4438,125.25 Q1270.4156,125.0344 1270.3031,124.9219 Q1270.1063,124.6969 1269.7406,124.5656 Q1269.375,124.4344 1269,124.4344 Q1268.5406,124.4344 1268.1563,124.6313 Q1267.7813,124.8281 1267.4813,125.2781 Q1267.1906,125.7281 1267.1906,126.3469 L1267.1906,127.0031 Q1267.1906,127.7437 1267.725,128.2406 Q1268.2594,128.7281 1269.2156,128.7281 Q1269.7781,128.7281 1270.1719,128.5781 Q1270.4063,128.4844 1270.6594,128.2219 Q1270.8188,128.0625 1270.9031,128.0156 Q1270.9969,127.9688 1271.1187,127.9688 Q1271.3156,127.9688 1271.4656,128.1281 Q1271.625,128.2781 1271.625,128.4844 Q1271.625,128.6906 1271.4188,128.9344 Q1271.1187,129.2813 1270.6406,129.4781 Q1269.9937,129.75 1269.2156,129.75 Q1268.3062,129.75 1267.5844,129.375 Q1266.9937,129.075 1266.5813,128.4375 Q1266.1688,127.7906 1266.1688,127.0219 L1266.1688,126.3281 Q1266.1688,125.5313 1266.5344,124.8469 Q1266.9094,124.1531 1267.5656,123.7875 Q1268.2219,123.4125 1268.9625,123.4125 Q1269.4031,123.4125 1269.7875,123.5156 Q1270.1812,123.6094 1270.5094,123.825 Z " fill="#000000"/><text fill="#000000" font-family="FG Virgil" font-size="8.4" lengthAdjust="spacing" textLength="75.6" x="1281.15" y="129.7781">UserSessionService</text><line style="stroke:#181818;stroke-width:0.3;" x1="1242.9" x2="1375.5" y1="135.9" y2="135.9"/><line style="stroke:#181818;stroke-width:0.3;" x1="1242.9" x2="1375.5" y1="140.7" y2="140.7"/><ellipse cx="1248.9" cy="149.5863" fill="#84BE84" rx="1.8" ry="1.8" style="stroke:#038048;stroke-width:0.6;"/><text fill="#000000" font-family="FG Virgil" font-size="8.4" lengthAdjust="spacing" textLength="118.2" x="1254.3" y="152.1645">findECourseUserByUsername()</text></g><!--class ECourseUser--><g id="elem_ECourseUser"><rect codeLine="125" fill="#F1F1F1" height="28.8" id="ECourseUser" rx="1.5" ry="1.5" style="stroke:#181818;stroke-width:0.3;" width="69.6" x="1543.8" y="128.4"/><ellipse cx="1552.8" cy="138" fill="#ADD1B2" rx="6.6" ry="6.6" style="stroke:#181818;stroke-width:0.6;"/><path d="M1554.4594,135.525 Q1554.5531,135.3937 1554.6656,135.3281 Q1554.7781,135.2625 1554.9094,135.2625 Q1555.1344,135.2625 1555.275,135.4219 Q1555.4156,135.5719 1555.4156,135.9375 L1555.4156,136.8094 Q1555.4156,137.175 1555.275,137.3344 Q1555.1344,137.4938 1554.9094,137.4938 Q1554.7031,137.4938 1554.5813,137.3719 Q1554.4594,137.2594 1554.3938,136.95 Q1554.3656,136.7344 1554.2531,136.6219 Q1554.0562,136.3969 1553.6906,136.2656 Q1553.325,136.1344 1552.95,136.1344 Q1552.4906,136.1344 1552.1063,136.3312 Q1551.7313,136.5281 1551.4312,136.9781 Q1551.1406,137.4281 1551.1406,138.0469 L1551.1406,138.7031 Q1551.1406,139.4438 1551.675,139.9406 Q1552.2094,140.4281 1553.1656,140.4281 Q1553.7281,140.4281 1554.1219,140.2781 Q1554.3563,140.1844 1554.6094,139.9219 Q1554.7688,139.7625 1554.8531,139.7156 Q1554.9469,139.6688 1555.0688,139.6688 Q1555.2656,139.6688 1555.4156,139.8281 Q1555.575,139.9781 1555.575,140.1844 Q1555.575,140.3906 1555.3687,140.6344 Q1555.0688,140.9813 1554.5906,141.1781 Q1553.9438,141.45 1553.1656,141.45 Q1552.2563,141.45 1551.5344,141.075 Q1550.9438,140.775 1550.5313,140.1375 Q1550.1187,139.4906 1550.1187,138.7219 L1550.1187,138.0281 Q1550.1187,137.2313 1550.4844,136.5469 Q1550.8594,135.8531 1551.5156,135.4875 Q1552.1719,135.1125 1552.9125,135.1125 Q1553.3531,135.1125 1553.7375,135.2156 Q1554.1313,135.3094 1554.4594,135.525 Z " fill="#000000"/><text fill="#000000" font-family="FG Virgil" font-size="8.4" lengthAdjust="spacing" textLength="50.4" x="1561.2" y="141.4781">ECourseUser</text><line style="stroke:#181818;stroke-width:0.3;" x1="1544.4" x2="1612.8" y1="147.6" y2="147.6"/><line style="stroke:#181818;stroke-width:0.3;" x1="1544.4" x2="1612.8" y1="152.4" y2="152.4"/></g><!--class SystemUser--><g id="elem_SystemUser"><rect codeLine="131" fill="#F1F1F1" height="84.6633" id="SystemUser" rx="1.5" ry="1.5" style="stroke:#181818;stroke-width:0.3;" width="80.4" x="1811.4" y="100.5"/><ellipse cx="1827.69" cy="110.1" fill="#ADD1B2" rx="6.6" ry="6.6" style="stroke:#181818;stroke-width:0.6;"/><path d="M1829.3494,107.625 Q1829.4431,107.4937 1829.5556,107.4281 Q1829.6681,107.3625 1829.7994,107.3625 Q1830.0244,107.3625 1830.165,107.5219 Q1830.3056,107.6719 1830.3056,108.0375 L1830.3056,108.9094 Q1830.3056,109.275 1830.165,109.4344 Q1830.0244,109.5938 1829.7994,109.5938 Q1829.5931,109.5938 1829.4713,109.4719 Q1829.3494,109.3594 1829.2838,109.05 Q1829.2556,108.8344 1829.1431,108.7219 Q1828.9463,108.4969 1828.5806,108.3656 Q1828.215,108.2344 1827.84,108.2344 Q1827.3806,108.2344 1826.9963,108.4312 Q1826.6213,108.6281 1826.3213,109.0781 Q1826.0306,109.5281 1826.0306,110.1469 L1826.0306,110.8031 Q1826.0306,111.5438 1826.565,112.0406 Q1827.0994,112.5281 1828.0556,112.5281 Q1828.6181,112.5281 1829.0119,112.3781 Q1829.2463,112.2844 1829.4994,112.0219 Q1829.6588,111.8625 1829.7431,111.8156 Q1829.8369,111.7688 1829.9588,111.7688 Q1830.1556,111.7688 1830.3056,111.9281 Q1830.465,112.0781 1830.465,112.2844 Q1830.465,112.4906 1830.2588,112.7344 Q1829.9588,113.0813 1829.4806,113.2781 Q1828.8338,113.55 1828.0556,113.55 Q1827.1463,113.55 1826.4244,113.175 Q1825.8338,112.875 1825.4213,112.2375 Q1825.0088,111.5906 1825.0088,110.8219 L1825.0088,110.1281 Q1825.0088,109.3313 1825.3744,108.6469 Q1825.7494,107.9531 1826.4056,107.5875 Q1827.0619,107.2125 1827.8025,107.2125 Q1828.2431,107.2125 1828.6275,107.3156 Q1829.0213,107.4094 1829.3494,107.625 Z " fill="#000000"/><text fill="#000000" font-family="FG Virgil" font-size="8.4" lengthAdjust="spacing" textLength="45" x="1837.71" y="113.5781">SystemUser</text><line style="stroke:#181818;stroke-width:0.3;" x1="1812" x2="1891.2" y1="119.7" y2="119.7"/><rect fill="none" height="3.6" style="stroke:#C82930;stroke-width:0.6;" width="3.6" x="1816.2" y="126.7863"/><text fill="#000000" font-family="FG Virgil" font-size="8.4" lengthAdjust="spacing" textLength="64.8" x="1823.4" y="131.1645">username: String</text><rect fill="none" height="3.6" style="stroke:#C82930;stroke-width:0.6;" width="3.6" x="1816.2" y="137.959"/><text fill="#000000" font-family="FG Virgil" font-size="8.4" lengthAdjust="spacing" textLength="63" x="1823.4" y="142.3371">password: String</text><rect fill="none" height="3.6" style="stroke:#C82930;stroke-width:0.6;" width="3.6" x="1816.2" y="149.1316"/><text fill="#000000" font-family="FG Virgil" font-size="8.4" lengthAdjust="spacing" textLength="48" x="1823.4" y="153.5098">name: String</text><rect fill="none" height="3.6" style="stroke:#C82930;stroke-width:0.6;" width="3.6" x="1816.2" y="160.3043"/><text fill="#000000" font-family="FG Virgil" font-size="8.4" lengthAdjust="spacing" textLength="47.4" x="1823.4" y="164.6824">Email: String</text><rect fill="none" height="3.6" style="stroke:#C82930;stroke-width:0.6;" width="3.6" x="1816.2" y="171.477"/><text fill="#000000" font-family="FG Virgil" font-size="8.4" lengthAdjust="spacing" textLength="57.6" x="1823.4" y="175.8551">active: boolean</text><line style="stroke:#181818;stroke-width:0.3;" x1="1812" x2="1891.2" y1="180.3633" y2="180.3633"/></g><g id="elem_GMN37"><path d="M1759.2,32.1 L1759.2,79.5984 A0,0 0 0 0 1759.2,79.5984 L1849.2,79.5984 L1851.6,100.488 L1854,79.5984 L1944,79.5984 A0,0 0 0 0 1944,79.5984 L1944,38.1 L1938,32.1 L1759.2,32.1 A0,0 0 0 0 1759.2,32.1 " fill="#FEFFDD" style="stroke:#181818;stroke-width:0.3;"/><path d="M1938,32.1 L1938,38.1 L1944,38.1 L1938,32.1 " fill="#FEFFDD" style="stroke:#181818;stroke-width:0.3;"/><text fill="#000000" font-family="FG Virgil" font-size="7.8" lengthAdjust="spacing" textLength="138.6" x="1762.8" y="43.517">The properties of the user are simplified.</text><text fill="#000000" font-family="FG Virgil" font-size="7.8" lengthAdjust="spacing" textLength="141" x="1762.8" y="53.8916">In reality there is actually a Value Object</text><text fill="#000000" font-family="FG Virgil" font-size="7.8" lengthAdjust="spacing" textLength="140.4" x="1762.8" y="64.2662">for all the properties, expect the "active".</text><text fill="#000000" font-family="FG Virgil" font-size="7.8" lengthAdjust="spacing" textLength="172.2" x="1762.8" y="74.6408">Other not relevant properties are not being shown.</text></g><!--link ClassTitle to Class--><g id="link_ClassTitle_Class"><path codeLine="146" d="M1162.638,363.324 C1195.458,368.514 1248.87,376.956 1281.174,382.062 " fill="none" id="ClassTitle-to-Class" style="stroke:#181818;stroke-width:0.6;"/><polygon fill="#181818" points="1288.908,383.286,1285.7297,380.3503,1281.7974,382.1549,1284.9757,385.0907,1288.908,383.286" style="stroke:#181818;stroke-width:0.6;"/></g><!--link ClassDuration to Class--><g id="link_ClassDuration_Class"><path codeLine="147" d="M1170.18,452.994 C1203.42,437.004 1251.93,413.664 1281.816,399.288 " fill="none" id="ClassDuration-to-Class" style="stroke:#181818;stroke-width:0.6;"/><polygon fill="#181818" points="1288.992,395.832,1284.7071,395.2321,1282.5054,398.9567,1286.7902,399.5565,1288.992,395.832" style="stroke:#181818;stroke-width:0.6;"/></g><!--link RecurrentClassTime to RecurrentClass--><g id="link_RecurrentClassTime_RecurrentClass"><path codeLine="149" d="M802.758,379.572 C862.914,377.88 969.012,377.718 1058.4,392.4 C1067.646,393.918 1077.36,396.252 1086.606,398.838 " fill="none" id="RecurrentClassTime-to-RecurrentClass" style="stroke:#181818;stroke-width:0.6;"/><polygon fill="#181818" points="1094.238,401.064,1091.4518,397.7538,1087.3247,399.0526,1090.1109,402.3627,1094.238,401.064" style="stroke:#181818;stroke-width:0.6;"/></g><!--link RecurrentClassWeekday to RecurrentClass--><g id="link_RecurrentClassWeekday_RecurrentClass"><path codeLine="150" d="M811.014,470.208 C872.796,474.258 974.424,475.956 1058.4,453.6 C1074.66,449.274 1091.376,440.922 1104.84,433.056 " fill="none" id="RecurrentClassWeekday-to-RecurrentClass" style="stroke:#181818;stroke-width:0.6;"/><polygon fill="#181818" points="1111.56,429.012,1107.2379,428.8143,1105.393,432.728,1109.7152,432.9256,1111.56,429.012" style="stroke:#181818;stroke-width:0.6;"/></g><!--link RecurrentClassOccurrence to RecurrentClass--><g id="link_RecurrentClassOccurrence_RecurrentClass"><path codeLine="151" d="M1058.586,419.22 C1070.766,418.458 1083.234,417.684 1094.394,416.988 " fill="none" id="RecurrentClassOccurrence-RecurrentClass" style="stroke:#181818;stroke-width:0.6;"/><text fill="#000000" font-family="FG Virgil" font-size="7.8" lengthAdjust="spacing" textLength="3" x="1063.2042" y="427.7487">*</text><text fill="#000000" font-family="FG Virgil" font-size="7.8" lengthAdjust="spacing" textLength="4.2" x="1085.4411" y="426.2809">1</text></g><!--link UpdateClassUI to UpdateClassController--><g id="link_UpdateClassUI_UpdateClassController"><path codeLine="153" d="M129,171.732 C129,204.576 129,237.42 129,270.264 " fill="none" id="UpdateClassUI-to-UpdateClassController" style="stroke:#181818;stroke-width:0.6;stroke-dasharray:7.0,7.0;"/><polygon fill="#181818" points="129,273.444,131.4,268.044,129,270.444,126.6,268.044,129,273.444" style="stroke:#181818;stroke-width:0.6;"/></g><!--link UpdateClassController to ListTeacherCoursesController--><g id="link_UpdateClassController_ListTeacherCoursesController"><path codeLine="154" d="M145.62,346.848 C180.42,420.138 270.372,577.8 400.2,577.8 C400.2,577.8 400.2,577.8 997.8,577.8 C1067.358,577.8 1145.034,587.244 1205.334,596.694 " fill="none" id="UpdateClassController-to-ListTeacherCoursesController" style="stroke:#181818;stroke-width:0.6;stroke-dasharray:7.0,7.0;"/><polygon fill="#181818" points="1208.37,597.168,1203.4047,593.964,1205.4059,596.7054,1202.6645,598.7066,1208.37,597.168" style="stroke:#181818;stroke-width:0.6;"/></g><!--link UpdateClassController to ListAvailableSlotsForUpdateController--><g id="link_UpdateClassController_ListAvailableSlotsForUpdateController"><path codeLine="155" d="M229.974,316.212 C252.576,317.562 276.57,318.996 299.196,320.352 " fill="none" id="UpdateClassController-to-ListAvailableSlotsForUpdateController" style="stroke:#181818;stroke-width:0.6;stroke-dasharray:7.0,7.0;"/><polygon fill="#181818" points="302.238,320.538,296.9919,317.818,299.2434,320.3578,296.7036,322.6093,302.238,320.538" style="stroke:#181818;stroke-width:0.6;"/></g><!--link UpdateClassController to ListTeacherClassesController--><g id="link_UpdateClassController_ListTeacherClassesController"><path codeLine="156" d="M229.974,293.508 C264,287.85 301.188,281.664 332.1,276.522 " fill="none" id="UpdateClassController-to-ListTeacherClassesController" style="stroke:#181818;stroke-width:0.6;stroke-dasharray:7.0,7.0;"/><polygon fill="#181818" points="335.07,276.03,329.3468,274.5585,332.1115,276.5274,330.1426,279.292,335.07,276.03" style="stroke:#181818;stroke-width:0.6;"/></g><!--link UpdateClassController to ClassScheduler--><g id="link_UpdateClassController_ClassScheduler"><path codeLine="157" d="M229.854,342.324 C280.392,355.8 342.954,368.4 400.2,368.4 C400.2,368.4 400.2,368.4 535.8,368.4 C558.39,368.4 558.468,350.592 579.6,342.6 C587.874,339.474 596.484,336.624 605.25,334.026 " fill="none" id="UpdateClassController-to-ClassScheduler" style="stroke:#181818;stroke-width:0.6;"/><polygon fill="#181818" points="608.226,333.156,602.37,332.364,605.346,333.996,603.714,336.972,608.226,333.156" style="stroke:#181818;stroke-width:0.6;"/></g><!--link ListTeacherClassesController to ClassRepository--><g id="link_ListTeacherClassesController_ClassRepository"><path codeLine="159" d="M448.2,245.082 C481.914,232.398 528.852,218.4 571.8,218.4 C571.8,218.4 571.8,218.4 1134,218.4 C1263.354,218.4 1409.712,255.774 1497.864,282.516 " fill="none" id="ListTeacherClassesController-to-ClassRepository" style="stroke:#181818;stroke-width:0.6;"/><polygon fill="#181818" points="1500.972,283.464,1496.5084,279.5915,1498.1028,282.5878,1495.1065,284.1822,1500.972,283.464" style="stroke:#181818;stroke-width:0.6;"/></g><!--link ListAvailableSlotsForUpdateController to UserSessionService--><g id="link_ListAvailableSlotsForUpdateController_UserSessionService"><path codeLine="161" d="M498.636,306.24 C503.976,303.228 509.022,299.766 513.6,295.8 C562.788,253.164 506.706,161.4 571.8,161.4 C571.8,161.4 571.8,161.4 997.8,161.4 C1080.9,161.4 1176.114,152.55 1239.024,145.47 " fill="none" id="ListAvailableSlotsForUpdateController-to-UserSessionService" style="stroke:#181818;stroke-width:0.6;"/><polygon fill="#181818" points="1242.18,145.11,1236.5457,143.3281,1239.1988,145.4451,1237.0818,148.0981,1242.18,145.11" style="stroke:#181818;stroke-width:0.6;"/></g><!--link UserSessionService to UserRepository--><g id="link_UserSessionService_UserRepository"><path codeLine="162" d="M1376.268,119.7 C1426.416,106.8 1493.646,89.502 1536.408,78.498 " fill="none" id="UserSessionService-to-UserRepository" style="stroke:#181818;stroke-width:0.6;"/><polygon fill="#181818" points="1539.444,77.718,1533.6169,76.7357,1536.5382,78.4637,1534.8101,81.385,1539.444,77.718" style="stroke:#181818;stroke-width:0.6;"/></g><!--link UserSessionService to ECourseUser--><g id="link_UserSessionService_ECourseUser"><path codeLine="163" d="M1376.268,138.288 C1428.156,139.446 1498.338,141.018 1540.776,141.966 " fill="none" id="UserSessionService-to-ECourseUser" style="stroke:#181818;stroke-width:0.6;"/><polygon fill="#181818" points="1543.782,142.032,1538.4383,139.5092,1540.7828,141.9634,1538.3286,144.308,1543.782,142.032" style="stroke:#181818;stroke-width:0.6;"/></g><!--link ECourseUser to SystemUser--><g id="link_ECourseUser_SystemUser"><path codeLine="164" d="M1613.622,142.8 C1663.182,142.8 1754.574,142.8 1808.346,142.8 " fill="none" id="ECourseUser-to-SystemUser" style="stroke:#181818;stroke-width:0.6;stroke-dasharray:7.0,7.0;"/><polygon fill="#181818" points="1811.358,142.8,1805.958,140.4,1808.358,142.8,1805.958,145.2,1811.358,142.8" style="stroke:#181818;stroke-width:0.6;"/></g><!--link ListAvailableSlotsForUpdateController to ClassScheduler--><g id="link_ListAvailableSlotsForUpdateController_ClassScheduler"><path codeLine="166" d="M499.272,321.564 C532.092,319.944 569.46,318.096 605.256,316.326 " fill="none" id="ListAvailableSlotsForUpdateController-to-ClassScheduler" style="stroke:#181818;stroke-width:0.6;stroke-dasharray:7.0,7.0;"/><polygon fill="#181818" points="608.268,316.182,602.7515,314.0633,605.272,316.3365,602.9988,318.857,608.268,316.182" style="stroke:#181818;stroke-width:0.6;"/></g><!--link ListTeacherCoursesController to CourseRepository--><g id="link_ListTeacherCoursesController_CourseRepository"><path codeLine="168" d="M1381.848,635.748 C1419.354,646.236 1465.158,659.046 1503.072,669.648 " fill="none" id="ListTeacherCoursesController-to-CourseRepository" style="stroke:#181818;stroke-width:0.6;"/><polygon fill="#181818" points="1506.018,670.47,1501.4614,666.7074,1503.1283,669.664,1500.1717,671.3309,1506.018,670.47" style="stroke:#181818;stroke-width:0.6;"/></g><!--link ListTeacherCoursesController to Course--><g id="link_ListTeacherCoursesController_Course"><path codeLine="169" d="M1410.048,613.356 C1461.072,612.216 1519.092,610.92 1551.846,610.188 " fill="none" id="ListTeacherCoursesController-to-Course" style="stroke:#181818;stroke-width:0.6;"/><polygon fill="#181818" points="1554.936,610.116,1549.4826,607.84,1551.9368,610.1846,1549.5923,612.6388,1554.936,610.116" style="stroke:#181818;stroke-width:0.6;"/></g><!--link RecurrentClass to Class--><g id="link_RecurrentClass_Class"><path codeLine="171" d="M1172.532,408.378 C1203.936,403.302 1247.742,396.228 1277.082,391.488 " fill="none" id="RecurrentClass-to-Class" style="stroke:#181818;stroke-width:0.6;"/><polygon fill="none" points="1276.554,387.324,1289.07,389.556,1277.892,395.616,1276.554,387.324" style="stroke:#181818;stroke-width:0.6;"/></g><!--link ClassScheduler to ClassRepository--><g id="link_ClassScheduler_ClassRepository"><path codeLine="173" d="M900.078,309 C1053.474,309 1293.36,309 1442.826,309 " fill="none" id="ClassScheduler-to-ClassRepository" style="stroke:#181818;stroke-width:0.6;"/><polygon fill="#181818" points="1445.898,309,1440.498,306.6,1442.898,309,1440.498,311.4,1445.898,309" style="stroke:#181818;stroke-width:0.6;"/></g><!--link Class to ClassRepository--><g id="link_Class_ClassRepository"><path codeLine="175" d="M1329.306,380.772 C1362.606,371.16 1432.368,351.03 1489.554,334.524 " fill="none" id="Class-ClassRepository" style="stroke:#181818;stroke-width:0.6;"/><text fill="#000000" font-family="FG Virgil" font-size="7.8" lengthAdjust="spacing" textLength="3" x="1334.0323" y="389.0926">*</text><text fill="#000000" font-family="FG Virgil" font-size="7.8" lengthAdjust="spacing" textLength="4.2" x="1470.8276" y="347.824">1</text></g><!--link Class to Course--><g id="link_Class_Course"><path codeLine="176" d="M1327.188,400.872 C1375.71,441.252 1512.174,554.82 1560.648,595.158 " fill="none" id="Class-Course" style="stroke:#181818;stroke-width:0.6;"/><text fill="#000000" font-family="FG Virgil" font-size="7.8" lengthAdjust="spacing" textLength="3" x="1328.207" y="414.0809">*</text><text fill="#000000" font-family="FG Virgil" font-size="7.8" lengthAdjust="spacing" textLength="4.2" x="1551.3097" y="588.3897">1</text></g><!--link Class to ECourseUser--><g id="link_Class_ECourseUser"><path codeLine="177" d="M1325.292,371.886 C1348.35,350.322 1393.116,308.604 1431.6,273.6 C1478.496,230.94 1534.53,181.224 1561.668,157.224 " fill="none" id="Class-ECourseUser" style="stroke:#181818;stroke-width:0.6;"/><text fill="#000000" font-family="FG Virgil" font-size="7.8" lengthAdjust="spacing" textLength="3" x="1325.8488" y="365.3434">*</text><text fill="#000000" font-family="FG Virgil" font-size="7.8" lengthAdjust="spacing" textLength="4.2" x="1552.829" y="170.4212">1</text></g><!--SRC=[dLPBRo8v4BxxLrYSafc0DDTeX9JTm2wQcR3YCT4UJNS1dhZRBTjD5ktotxTiTwVTBo3XWA3ggw_APTT3l_0qOuebD6FH2zl1qXm5K0MH8VfD5yEMvS9CPMgUM09q-WVzoTMEYm2ZzooMhppTqIqJ6WWHi3NKIAhuRczep2qdboaXXIUQAT2G6cQbz5z2yHC9fZLTPp4pyBlzlPuLcXCvLPOGoLnfSEY4fIXAa0YH3bgYM9O97ZdwGbEv-CwrUJWmBjX6m598ewTI5Nxnb4eA0QfmNNu-xw2oyLXdUHFj9Hx4nNj7VMZwzitqrELx1IpQWt8seC-wh4DlpX07UUjbjAHvXRk9VDGfl3wYxBQ5_TYPhmc_oqC9zdmtj_TqPa1PpLSl6uUd9s4MobjNa4dDZLJ7nibvYbHR5W5riIpwS2weBK_Z8fW5HBbI-BxA8nWl3uEhOyPjFiqEu7DTJy29X5TPdY6M2UCf3LujssYZM6HyxA6czGeSuZ5NOLsLdo6DIyKzdGh9p0MU5JVO3feanadlwT8eBFX-YdfQUgA6D4yQo6U0bvWrB-R7_EdnuU-QQBMUB9kovydZKrkw-dEzQ0cdYraeAfzKtm5MFEdAHM9JONNN9c8U-NzHcyqM6BBPMknYAn-81dNW4THIshYv9RxHEEzi0E-hwZjQFlWspu49NlLgHrJdAFfA1ncUSYEb09QsQQzjK2TI_zKv9Dnt_vJex1T1ht3clSt2DOgFjQ-hwhwuK6SSk3wHBlDWu0NOzj3nuLqtvpvo95j7PKmvFjLQyj-H-xMstRS3SdhlwItJ4hH6tTANJW3vJEqbJlnnBFAte_rESTEfJTjp5rPt5t1rH1syqSd3NzzdqyN3ZydpVF4DiTv-UTG6ai9yw79eetbhk4CCGEjNgU90r41CC38H_CVXmGzG5Hr6aKfiDXjfZ4oet0PUCT3LtYveCWDbEFOPL9kzlqtA53OWdc2sjnpY4O9dALubjW9pj2XKSstzvKo88sNq9nCvqFdcbzqgATrAv1324LOkxYZyao70YGS-se4bdrjAYh6Y3m47Xgye2Cm6OtKRiAkdtilNT4GWZQqGbz1WY0s7dtnd9FK9MSb9HxiVMdLTJhg7rMLaqFS7dmPeG0TV1aqJKjz-H-FkjOvqBtkZ4HgSg_LBTXUNuciTDpVR7hlXSDoOLuISNP3V3AhEu2qkh_FMjDq9I4TpA961ZnvKKEeaB7kRZg2WhenmvD9uBX-jtktoqHXIrreqNpog_XkNnT3O8hhIxes2jzn4j07URqiUff7y3m00]--></g></svg>