<?xml version="1.0" encoding="us-ascii" standalone="no"?><svg xmlns="http://www.w3.org/2000/svg" xmlns:xlink="http://www.w3.org/1999/xlink" contentStyleType="text/css" height="833.4px" preserveAspectRatio="none" style="width:1221px;height:833px;background:#FFFFFF;" version="1.1" viewBox="0 0 1221 833" width="1221px" zoomAndPan="magnify"><defs/><g><rect fill="#FFFFFF" height="700.0605" style="stroke:#181818;stroke-width:0.6;" width="6" x="17.7" y="58.9453"/><rect fill="#FFFFFF" height="695.6859" style="stroke:#181818;stroke-width:0.6;" width="6" x="113.1" y="72.9199"/><rect fill="#FFFFFF" height="93.873" style="stroke:#181818;stroke-width:0.6;" width="6" x="339.9" y="91.6945"/><rect fill="#FFFFFF" height="291.9938" style="stroke:#181818;stroke-width:0.6;" width="6" x="339.9" y="249.6914"/><rect fill="#FFFFFF" height="130.8223" style="stroke:#181818;stroke-width:0.6;" width="6" x="339.9" y="605.809"/><rect fill="#FFFFFF" height="254.4445" style="stroke:#181818;stroke-width:0.6;" width="6" x="501.9" y="268.466"/><rect fill="#FFFFFF" height="56.3238" style="stroke:#181818;stroke-width:0.6;" width="6" x="644.1" y="110.4691"/><rect fill="#FFFFFF" height="56.3238" style="stroke:#181818;stroke-width:0.6;" width="6" x="771.6" y="287.2406"/><rect fill="#FFFFFF" height="18.7746" style="stroke:#181818;stroke-width:0.6;" width="6" x="898.8" y="129.2438"/><rect fill="#FFFFFF" height="18.7746" style="stroke:#181818;stroke-width:0.6;" width="6" x="898.8" y="306.0152"/><rect fill="#FFFFFF" height="131.4223" style="stroke:#181818;stroke-width:0.6;" width="6" x="974.7" y="372.7137"/><rect fill="#FFFFFF" height="82.8984" style="stroke:#181818;stroke-width:0.6;" width="6" x="974.7" y="634.9582"/><rect fill="#FFFFFF" height="93.873" style="stroke:#181818;stroke-width:0.6;" width="6" x="1185" y="391.4883"/><line style="stroke:#181818;stroke-width:0.3;stroke-dasharray:5.0,5.0;" x1="20.4" x2="20.4" y1="52.9453" y2="774.0059"/><line style="stroke:#181818;stroke-width:0.3;stroke-dasharray:5.0,5.0;" x1="115.8" x2="115.8" y1="52.9453" y2="774.0059"/><line style="stroke:#181818;stroke-width:0.3;stroke-dasharray:5.0,5.0;" x1="342.9" x2="342.9" y1="52.9453" y2="774.0059"/><line style="stroke:#181818;stroke-width:0.3;stroke-dasharray:5.0,5.0;" x1="504.6" x2="504.6" y1="52.9453" y2="774.0059"/><line style="stroke:#181818;stroke-width:0.3;stroke-dasharray:5.0,5.0;" x1="646.8" x2="646.8" y1="52.9453" y2="774.0059"/><line style="stroke:#181818;stroke-width:0.3;stroke-dasharray:5.0,5.0;" x1="774.6" x2="774.6" y1="52.9453" y2="774.0059"/><line style="stroke:#181818;stroke-width:0.3;stroke-dasharray:5.0,5.0;" x1="901.8" x2="901.8" y1="52.9453" y2="774.0059"/><line style="stroke:#181818;stroke-width:0.3;stroke-dasharray:5.0,5.0;" x1="977.4" x2="977.4" y1="52.9453" y2="774.0059"/><line style="stroke:#181818;stroke-width:0.3;stroke-dasharray:5.0,5.0;" x1="1115.7" x2="1115.7" y1="52.9453" y2="774.0059"/><line style="stroke:#181818;stroke-width:0.3;stroke-dasharray:5.0,5.0;" x1="1187.7" x2="1187.7" y1="52.9453" y2="774.0059"/><text fill="#000000" font-family="FG Virgil" font-size="8.4" lengthAdjust="spacing" textLength="31.8" x="3" y="50.8371">Teacher</text><ellipse cx="20.7" cy="10.8727" fill="#E3E3E3" rx="4.8" ry="4.8" style="stroke:#181818;stroke-width:0.3;"/><path d="M20.7,15.6727 L20.7,31.8727 M12.9,20.4727 L28.5,20.4727 M20.7,31.8727 L12.9,40.8727 M20.7,31.8727 L28.5,40.8727 " fill="none" style="stroke:#181818;stroke-width:0.3;"/><text fill="#000000" font-family="FG Virgil" font-size="8.4" lengthAdjust="spacing" textLength="31.8" x="3" y="782.4703">Teacher</text><ellipse cx="20.7" cy="789.6785" fill="#E3E3E3" rx="4.8" ry="4.8" style="stroke:#181818;stroke-width:0.3;"/><path d="M20.7,794.4785 L20.7,810.6785 M12.9,799.2785 L28.5,799.2785 M20.7,810.6785 L12.9,819.6785 M20.7,810.6785 L28.5,819.6785 " fill="none" style="stroke:#181818;stroke-width:0.3;"/><rect fill="#E3E3E3" height="30.7453" rx="1.5" ry="1.5" style="stroke:#181818;stroke-width:0.3;" width="65.4" x="83.4" y="21.6"/><text fill="#000000" font-family="FG Virgil" font-size="8.4" font-style="italic" lengthAdjust="spacing" textLength="57" x="87.6" y="34.8645">&#171;ui&#187;</text><text fill="#000000" font-family="FG Virgil" font-size="8.4" lengthAdjust="spacing" textLength="55.2" x="88.5" y="46.0371">UpdateClassUI</text><rect fill="#E3E3E3" height="30.7453" rx="1.5" ry="1.5" style="stroke:#181818;stroke-width:0.3;" width="65.4" x="83.4" y="773.4059"/><text fill="#000000" font-family="FG Virgil" font-size="8.4" font-style="italic" lengthAdjust="spacing" textLength="57" x="87.6" y="786.6703">&#171;ui&#187;</text><text fill="#000000" font-family="FG Virgil" font-size="8.4" lengthAdjust="spacing" textLength="55.2" x="88.5" y="797.843">UpdateClassUI</text><rect fill="#E3E3E3" height="30.7453" rx="1.5" ry="1.5" style="stroke:#181818;stroke-width:0.3;" width="93.6" x="296.1" y="21.6"/><text fill="#000000" font-family="FG Virgil" font-size="8.4" font-style="italic" lengthAdjust="spacing" textLength="50.4" x="317.7" y="34.8645">&#171;application&#187;</text><text fill="#000000" font-family="FG Virgil" font-size="8.4" lengthAdjust="spacing" textLength="85.2" x="300.3" y="46.0371">UpdateClassController</text><rect fill="#E3E3E3" height="30.7453" rx="1.5" ry="1.5" style="stroke:#181818;stroke-width:0.3;" width="93.6" x="296.1" y="773.4059"/><text fill="#000000" font-family="FG Virgil" font-size="8.4" font-style="italic" lengthAdjust="spacing" textLength="50.4" x="317.7" y="786.6703">&#171;application&#187;</text><text fill="#000000" font-family="FG Virgil" font-size="8.4" lengthAdjust="spacing" textLength="85.2" x="300.3" y="797.843">UpdateClassController</text><rect fill="#E3E3E3" height="30.7453" rx="1.5" ry="1.5" style="stroke:#181818;stroke-width:0.3;" width="151.8" x="429" y="21.6"/><text fill="#000000" font-family="FG Virgil" font-size="8.4" font-style="italic" lengthAdjust="spacing" textLength="50.4" x="479.7" y="34.8645">&#171;application&#187;</text><text fill="#000000" font-family="FG Virgil" font-size="8.4" lengthAdjust="spacing" textLength="143.4" x="433.2" y="46.0371">ListAvailableSlotsForUpdateController</text><rect fill="#E3E3E3" height="30.7453" rx="1.5" ry="1.5" style="stroke:#181818;stroke-width:0.3;" width="151.8" x="429" y="773.4059"/><text fill="#000000" font-family="FG Virgil" font-size="8.4" font-style="italic" lengthAdjust="spacing" textLength="50.4" x="479.7" y="786.6703">&#171;application&#187;</text><text fill="#000000" font-family="FG Virgil" font-size="8.4" lengthAdjust="spacing" textLength="143.4" x="433.2" y="797.843">ListAvailableSlotsForUpdateController</text><rect fill="#E3E3E3" height="30.7453" rx="1.5" ry="1.5" style="stroke:#181818;stroke-width:0.3;" width="120.6" x="586.8" y="21.6"/><text fill="#000000" font-family="FG Virgil" font-size="8.4" font-style="italic" lengthAdjust="spacing" textLength="50.4" x="621.9" y="34.8645">&#171;application&#187;</text><text fill="#000000" font-family="FG Virgil" font-size="8.4" lengthAdjust="spacing" textLength="112.2" x="591" y="46.0371">ListTeacherClassesController</text><rect fill="#E3E3E3" height="30.7453" rx="1.5" ry="1.5" style="stroke:#181818;stroke-width:0.3;" width="120.6" x="586.8" y="773.4059"/><text fill="#000000" font-family="FG Virgil" font-size="8.4" font-style="italic" lengthAdjust="spacing" textLength="50.4" x="621.9" y="786.6703">&#171;application&#187;</text><text fill="#000000" font-family="FG Virgil" font-size="8.4" lengthAdjust="spacing" textLength="112.2" x="591" y="797.843">ListTeacherClassesController</text><rect fill="#E3E3E3" height="30.7453" rx="1.5" ry="1.5" style="stroke:#181818;stroke-width:0.3;" width="122.4" x="713.4" y="21.6"/><text fill="#000000" font-family="FG Virgil" font-size="8.4" font-style="italic" lengthAdjust="spacing" textLength="50.4" x="749.4" y="34.8645">&#171;application&#187;</text><text fill="#000000" font-family="FG Virgil" font-size="8.4" lengthAdjust="spacing" textLength="114" x="717.6" y="46.0371">ListTeacherCoursesController</text><rect fill="#E3E3E3" height="30.7453" rx="1.5" ry="1.5" style="stroke:#181818;stroke-width:0.3;" width="122.4" x="713.4" y="773.4059"/><text fill="#000000" font-family="FG Virgil" font-size="8.4" font-style="italic" lengthAdjust="spacing" textLength="50.4" x="749.4" y="786.6703">&#171;application&#187;</text><text fill="#000000" font-family="FG Virgil" font-size="8.4" lengthAdjust="spacing" textLength="114" x="717.6" y="797.843">ListTeacherCoursesController</text><text fill="#000000" font-family="FG Virgil" font-size="8.4" font-style="italic" lengthAdjust="spacing" textLength="47.4" x="876.3" y="39.6645">&#171;repository&#187;</text><text fill="#000000" font-family="FG Virgil" font-size="8.4" lengthAdjust="spacing" textLength="68.4" x="865.8" y="50.8371">CourseRepository</text><path d="M891,9 C891,3 901.8,3 901.8,3 C901.8,3 912.6,3 912.6,9 L912.6,24.6 C912.6,30.6 901.8,30.6 901.8,30.6 C901.8,30.6 891,30.6 891,24.6 L891,9 " fill="#E3E3E3" style="stroke:#181818;stroke-width:0.8999999999999999;"/><path d="M891,9 C891,15 901.8,15 901.8,15 C901.8,15 912.6,15 912.6,9 " fill="none" style="stroke:#181818;stroke-width:0.8999999999999999;"/><text fill="#000000" font-family="FG Virgil" font-size="8.4" font-style="italic" lengthAdjust="spacing" textLength="47.4" x="876.3" y="782.4703">&#171;repository&#187;</text><text fill="#000000" font-family="FG Virgil" font-size="8.4" lengthAdjust="spacing" textLength="68.4" x="865.8" y="793.643">CourseRepository</text><path d="M891,801.7512 C891,795.7512 901.8,795.7512 901.8,795.7512 C901.8,795.7512 912.6,795.7512 912.6,801.7512 L912.6,817.3512 C912.6,823.3512 901.8,823.3512 901.8,823.3512 C901.8,823.3512 891,823.3512 891,817.3512 L891,801.7512 " fill="#E3E3E3" style="stroke:#181818;stroke-width:0.8999999999999999;"/><path d="M891,801.7512 C891,807.7512 901.8,807.7512 901.8,807.7512 C901.8,807.7512 912.6,807.7512 912.6,801.7512 " fill="none" style="stroke:#181818;stroke-width:0.8999999999999999;"/><rect fill="#E3E3E3" height="30.7453" rx="1.5" ry="1.5" style="stroke:#181818;stroke-width:0.3;" width="67.8" x="943.8" y="21.6"/><text fill="#000000" font-family="FG Virgil" font-size="8.4" font-style="italic" lengthAdjust="spacing" textLength="36" x="959.7" y="34.8645">&#171;service&#187;</text><text fill="#000000" font-family="FG Virgil" font-size="8.4" lengthAdjust="spacing" textLength="59.4" x="948" y="46.0371">ClassScheduler</text><rect fill="#E3E3E3" height="30.7453" rx="1.5" ry="1.5" style="stroke:#181818;stroke-width:0.3;" width="67.8" x="943.8" y="773.4059"/><text fill="#000000" font-family="FG Virgil" font-size="8.4" font-style="italic" lengthAdjust="spacing" textLength="36" x="959.7" y="786.6703">&#171;service&#187;</text><text fill="#000000" font-family="FG Virgil" font-size="8.4" lengthAdjust="spacing" textLength="59.4" x="948" y="797.843">ClassScheduler</text><rect fill="#E3E3E3" height="30.7453" rx="1.5" ry="1.5" style="stroke:#181818;stroke-width:0.3;" width="67.2" x="1082.1" y="21.6"/><text fill="#000000" font-family="FG Virgil" font-size="8.4" font-style="italic" lengthAdjust="spacing" textLength="37.2" x="1097.1" y="34.8645">&#171;domain&#187;</text><text fill="#000000" font-family="FG Virgil" font-size="8.4" lengthAdjust="spacing" textLength="58.8" x="1086.3" y="46.0371">RecurrentClass</text><rect fill="#E3E3E3" height="30.7453" rx="1.5" ry="1.5" style="stroke:#181818;stroke-width:0.3;" width="67.2" x="1082.1" y="773.4059"/><text fill="#000000" font-family="FG Virgil" font-size="8.4" font-style="italic" lengthAdjust="spacing" textLength="37.2" x="1097.1" y="786.6703">&#171;domain&#187;</text><text fill="#000000" font-family="FG Virgil" font-size="8.4" lengthAdjust="spacing" textLength="58.8" x="1086.3" y="797.843">RecurrentClass</text><text fill="#000000" font-family="FG Virgil" font-size="8.4" font-style="italic" lengthAdjust="spacing" textLength="47.4" x="1162.5" y="39.6645">&#171;repository&#187;</text><text fill="#000000" font-family="FG Virgil" font-size="8.4" lengthAdjust="spacing" textLength="61.8" x="1155.3" y="50.8371">ClassRepository</text><path d="M1177.2,9 C1177.2,3 1188,3 1188,3 C1188,3 1198.8,3 1198.8,9 L1198.8,24.6 C1198.8,30.6 1188,30.6 1188,30.6 C1188,30.6 1177.2,30.6 1177.2,24.6 L1177.2,9 " fill="#E3E3E3" style="stroke:#181818;stroke-width:0.8999999999999999;"/><path d="M1177.2,9 C1177.2,15 1188,15 1188,15 C1188,15 1198.8,15 1198.8,9 " fill="none" style="stroke:#181818;stroke-width:0.8999999999999999;"/><text fill="#000000" font-family="FG Virgil" font-size="8.4" font-style="italic" lengthAdjust="spacing" textLength="47.4" x="1162.5" y="782.4703">&#171;repository&#187;</text><text fill="#000000" font-family="FG Virgil" font-size="8.4" lengthAdjust="spacing" textLength="61.8" x="1155.3" y="793.643">ClassRepository</text><path d="M1177.2,801.7512 C1177.2,795.7512 1188,795.7512 1188,795.7512 C1188,795.7512 1198.8,795.7512 1198.8,801.7512 L1198.8,817.3512 C1198.8,823.3512 1188,823.3512 1188,823.3512 C1188,823.3512 1177.2,823.3512 1177.2,817.3512 L1177.2,801.7512 " fill="#E3E3E3" style="stroke:#181818;stroke-width:0.8999999999999999;"/><path d="M1177.2,801.7512 C1177.2,807.7512 1188,807.7512 1188,807.7512 C1188,807.7512 1198.8,807.7512 1198.8,801.7512 " fill="none" style="stroke:#181818;stroke-width:0.8999999999999999;"/><rect fill="#FFFFFF" height="700.0605" style="stroke:#181818;stroke-width:0.6;" width="6" x="17.7" y="58.9453"/><rect fill="#FFFFFF" height="695.6859" style="stroke:#181818;stroke-width:0.6;" width="6" x="113.1" y="72.9199"/><rect fill="#FFFFFF" height="93.873" style="stroke:#181818;stroke-width:0.6;" width="6" x="339.9" y="91.6945"/><rect fill="#FFFFFF" height="291.9938" style="stroke:#181818;stroke-width:0.6;" width="6" x="339.9" y="249.6914"/><rect fill="#FFFFFF" height="130.8223" style="stroke:#181818;stroke-width:0.6;" width="6" x="339.9" y="605.809"/><rect fill="#FFFFFF" height="254.4445" style="stroke:#181818;stroke-width:0.6;" width="6" x="501.9" y="268.466"/><rect fill="#FFFFFF" height="56.3238" style="stroke:#181818;stroke-width:0.6;" width="6" x="644.1" y="110.4691"/><rect fill="#FFFFFF" height="56.3238" style="stroke:#181818;stroke-width:0.6;" width="6" x="771.6" y="287.2406"/><rect fill="#FFFFFF" height="18.7746" style="stroke:#181818;stroke-width:0.6;" width="6" x="898.8" y="129.2438"/><rect fill="#FFFFFF" height="18.7746" style="stroke:#181818;stroke-width:0.6;" width="6" x="898.8" y="306.0152"/><rect fill="#FFFFFF" height="131.4223" style="stroke:#181818;stroke-width:0.6;" width="6" x="974.7" y="372.7137"/><rect fill="#FFFFFF" height="82.8984" style="stroke:#181818;stroke-width:0.6;" width="6" x="974.7" y="634.9582"/><rect fill="#FFFFFF" height="93.873" style="stroke:#181818;stroke-width:0.6;" width="6" x="1185" y="391.4883"/><polygon fill="#181818" points="105.9,70.5199,111.9,72.9199,105.9,75.3199,108.3,72.9199" style="stroke:#181818;stroke-width:0.6;"/><line style="stroke:#181818;stroke-width:0.6;" x1="23.7" x2="109.5" y1="72.9199" y2="72.9199"/><text fill="#000000" font-family="FG Virgil" font-size="7.8" font-weight="bold" lengthAdjust="spacing" textLength="4.2" x="27.9" y="69.7623">1</text><text fill="#000000" font-family="FG Virgil" font-size="7.8" lengthAdjust="spacing" textLength="71.4" x="34.5" y="69.7623">getTeacherClasses()</text><polygon fill="#181818" points="332.7,89.2945,338.7,91.6945,332.7,94.0945,335.1,91.6945" style="stroke:#181818;stroke-width:0.6;"/><line style="stroke:#181818;stroke-width:0.6;" x1="119.1" x2="336.3" y1="91.6945" y2="91.6945"/><text fill="#000000" font-family="FG Virgil" font-size="7.8" font-weight="bold" lengthAdjust="spacing" textLength="4.2" x="123.3" y="88.5369">2</text><text fill="#000000" font-family="FG Virgil" font-size="7.8" lengthAdjust="spacing" textLength="71.4" x="129.9" y="88.5369">getTeacherClasses()</text><polygon fill="#181818" points="636.9,108.0691,642.9,110.4691,636.9,112.8691,639.3,110.4691" style="stroke:#181818;stroke-width:0.6;"/><line style="stroke:#181818;stroke-width:0.6;" x1="345.9" x2="640.5" y1="110.4691" y2="110.4691"/><text fill="#000000" font-family="FG Virgil" font-size="7.8" font-weight="bold" lengthAdjust="spacing" textLength="4.2" x="350.1" y="107.3115">3</text><text fill="#000000" font-family="FG Virgil" font-size="7.8" lengthAdjust="spacing" textLength="71.4" x="356.7" y="107.3115">getTeacherClasses()</text><polygon fill="#181818" points="891.6,126.8438,897.6,129.2438,891.6,131.6437,894,129.2438" style="stroke:#181818;stroke-width:0.6;"/><line style="stroke:#181818;stroke-width:0.6;" x1="650.1" x2="895.2" y1="129.2438" y2="129.2438"/><text fill="#000000" font-family="FG Virgil" font-size="7.8" font-weight="bold" lengthAdjust="spacing" textLength="4.2" x="654.3" y="126.0861">4</text><text fill="#000000" font-family="FG Virgil" font-size="7.8" lengthAdjust="spacing" textLength="132" x="660.9" y="126.0861">findTeacherRecurrentClasses(teacher)</text><polygon fill="#181818" points="656.7,145.6184,650.7,148.0184,656.7,150.4184,654.3,148.0184" style="stroke:#181818;stroke-width:0.6;"/><line style="stroke:#181818;stroke-width:0.6;" x1="653.1" x2="901.2" y1="148.0184" y2="148.0184"/><text fill="#000000" font-family="FG Virgil" font-size="7.8" font-weight="bold" lengthAdjust="spacing" textLength="4.2" x="660.3" y="144.8607">5</text><text fill="#000000" font-family="FG Virgil" font-size="7.8" lengthAdjust="spacing" textLength="58.8" x="666.9" y="144.8607">recurrentClasses</text><polygon fill="#181818" points="352.5,164.393,346.5,166.793,352.5,169.193,350.1,166.793" style="stroke:#181818;stroke-width:0.6;"/><line style="stroke:#181818;stroke-width:0.6;" x1="348.9" x2="646.5" y1="166.793" y2="166.793"/><text fill="#000000" font-family="FG Virgil" font-size="7.8" font-weight="bold" lengthAdjust="spacing" textLength="4.2" x="356.1" y="163.6354">6</text><text fill="#000000" font-family="FG Virgil" font-size="7.8" lengthAdjust="spacing" textLength="58.8" x="362.7" y="163.6354">recurrentClasses</text><polygon fill="#181818" points="125.7,183.1676,119.7,185.5676,125.7,187.9676,123.3,185.5676" style="stroke:#181818;stroke-width:0.6;"/><line style="stroke:#181818;stroke-width:0.6;" x1="122.1" x2="342.3" y1="185.5676" y2="185.5676"/><text fill="#000000" font-family="FG Virgil" font-size="7.8" font-weight="bold" lengthAdjust="spacing" textLength="4.2" x="129.3" y="182.41">7</text><text fill="#000000" font-family="FG Virgil" font-size="7.8" lengthAdjust="spacing" textLength="58.8" x="135.9" y="182.41">recurrentClasses</text><line style="stroke:#181818;stroke-width:0.6;" x1="119.1" x2="144.3" y1="204.3422" y2="204.3422"/><line style="stroke:#181818;stroke-width:0.6;" x1="144.3" x2="144.3" y1="204.3422" y2="212.1422"/><line style="stroke:#181818;stroke-width:0.6;" x1="119.7" x2="144.3" y1="212.1422" y2="212.1422"/><polygon fill="#181818" points="125.7,209.7422,119.7,212.1422,125.7,214.5422,123.3,212.1422" style="stroke:#181818;stroke-width:0.6;"/><text fill="#000000" font-family="FG Virgil" font-size="7.8" font-weight="bold" lengthAdjust="spacing" textLength="4.2" x="123.3" y="201.1846">8</text><text fill="#000000" font-family="FG Virgil" font-size="7.8" lengthAdjust="spacing" textLength="82.8" x="129.9" y="201.1846">shows Teacher Classes</text><polygon fill="#181818" points="105.9,228.5168,111.9,230.9168,105.9,233.3168,108.3,230.9168" style="stroke:#181818;stroke-width:0.6;"/><line style="stroke:#181818;stroke-width:0.6;" x1="23.7" x2="109.5" y1="230.9168" y2="230.9168"/><text fill="#000000" font-family="FG Virgil" font-size="7.8" font-weight="bold" lengthAdjust="spacing" textLength="4.2" x="27.9" y="227.7592">9</text><text fill="#000000" font-family="FG Virgil" font-size="7.8" lengthAdjust="spacing" textLength="57" x="34.5" y="227.7592">chooses a class</text><polygon fill="#181818" points="332.7,247.2914,338.7,249.6914,332.7,252.0914,335.1,249.6914" style="stroke:#181818;stroke-width:0.6;"/><line style="stroke:#181818;stroke-width:0.6;" x1="119.1" x2="336.3" y1="249.6914" y2="249.6914"/><text fill="#000000" font-family="FG Virgil" font-size="7.8" font-weight="bold" lengthAdjust="spacing" textLength="8.4" x="123.3" y="246.5338">10</text><text fill="#000000" font-family="FG Virgil" font-size="7.8" lengthAdjust="spacing" textLength="133.8" x="134.1" y="246.5338">getAvailableUpdateSlots(chosenClass)</text><polygon fill="#181818" points="494.7,266.066,500.7,268.466,494.7,270.866,497.1,268.466" style="stroke:#181818;stroke-width:0.6;"/><line style="stroke:#181818;stroke-width:0.6;" x1="345.9" x2="498.3" y1="268.466" y2="268.466"/><text fill="#000000" font-family="FG Virgil" font-size="7.8" font-weight="bold" lengthAdjust="spacing" textLength="8.4" x="350.1" y="265.3084">11</text><text fill="#000000" font-family="FG Virgil" font-size="7.8" lengthAdjust="spacing" textLength="133.8" x="360.9" y="265.3084">getAvailableUpdateSlots(chosenClass)</text><polygon fill="#181818" points="764.4,284.8406,770.4,287.2406,764.4,289.6406,766.8,287.2406" style="stroke:#181818;stroke-width:0.6;"/><line style="stroke:#181818;stroke-width:0.6;" x1="507.9" x2="768" y1="287.2406" y2="287.2406"/><text fill="#000000" font-family="FG Virgil" font-size="7.8" font-weight="bold" lengthAdjust="spacing" textLength="8.4" x="512.1" y="284.083">12</text><text fill="#000000" font-family="FG Virgil" font-size="7.8" lengthAdjust="spacing" textLength="102.6" x="522.9" y="284.083">getAvailableTeacherCourses()</text><polygon fill="#181818" points="891.6,303.6152,897.6,306.0152,891.6,308.4152,894,306.0152" style="stroke:#181818;stroke-width:0.6;"/><line style="stroke:#181818;stroke-width:0.6;" x1="777.6" x2="895.2" y1="306.0152" y2="306.0152"/><text fill="#000000" font-family="FG Virgil" font-size="7.8" font-weight="bold" lengthAdjust="spacing" textLength="8.4" x="781.8" y="302.8576">13</text><text fill="#000000" font-family="FG Virgil" font-size="7.8" lengthAdjust="spacing" textLength="99" x="792.6" y="302.8576">findTeacherCourses(teacher)</text><polygon fill="#181818" points="784.2,322.3898,778.2,324.7898,784.2,327.1898,781.8,324.7898" style="stroke:#181818;stroke-width:0.6;"/><line style="stroke:#181818;stroke-width:0.6;" x1="780.6" x2="901.2" y1="324.7898" y2="324.7898"/><text fill="#000000" font-family="FG Virgil" font-size="7.8" font-weight="bold" lengthAdjust="spacing" textLength="8.4" x="787.8" y="321.6322">14</text><text fill="#000000" font-family="FG Virgil" font-size="7.8" lengthAdjust="spacing" textLength="54.6" x="798.6" y="321.6322">teacherCourses</text><polygon fill="#181818" points="514.5,341.1645,508.5,343.5645,514.5,345.9645,512.1,343.5645" style="stroke:#181818;stroke-width:0.6;"/><line style="stroke:#181818;stroke-width:0.6;" x1="510.9" x2="774" y1="343.5645" y2="343.5645"/><text fill="#000000" font-family="FG Virgil" font-size="7.8" font-weight="bold" lengthAdjust="spacing" textLength="8.4" x="518.1" y="340.4068">15</text><text fill="#000000" font-family="FG Virgil" font-size="7.8" lengthAdjust="spacing" textLength="54.6" x="528.9" y="340.4068">teacherCourses</text><polygon fill="#181818" points="967.5,370.3137,973.5,372.7137,967.5,375.1137,969.9,372.7137" style="stroke:#181818;stroke-width:0.6;"/><line style="stroke:#181818;stroke-width:0.6;" x1="507.9" x2="971.1" y1="372.7137" y2="372.7137"/><text fill="#000000" font-family="FG Virgil" font-size="7.8" font-weight="bold" lengthAdjust="spacing" textLength="8.4" x="512.1" y="364.3688">16</text><text fill="#000000" font-family="FG Virgil" font-size="7.8" lengthAdjust="spacing" textLength="133.8" x="522.9" y="359.1814">getAvailableUpdateSlots(chosenClass,</text><text fill="#000000" font-family="FG Virgil" font-size="7.8" lengthAdjust="spacing" textLength="87.6" x="522.9" y="369.5561">teacherCourses, teacher)</text><polygon fill="#181818" points="1177.8,389.0883,1183.8,391.4883,1177.8,393.8883,1180.2,391.4883" style="stroke:#181818;stroke-width:0.6;"/><line style="stroke:#181818;stroke-width:0.6;" x1="980.7" x2="1181.4" y1="391.4883" y2="391.4883"/><text fill="#000000" font-family="FG Virgil" font-size="7.8" font-weight="bold" lengthAdjust="spacing" textLength="8.4" x="984.9" y="388.3307">17</text><text fill="#000000" font-family="FG Virgil" font-size="7.8" lengthAdjust="spacing" textLength="126.6" x="995.7" y="388.3307">findCourseRecurrentClasses(course)</text><polygon fill="#181818" points="987.3,407.8629,981.3,410.2629,987.3,412.6629,984.9,410.2629" style="stroke:#181818;stroke-width:0.6;"/><line style="stroke:#181818;stroke-width:0.6;stroke-dasharray:2.0,2.0;" x1="983.7" x2="1184.4" y1="410.2629" y2="410.2629"/><text fill="#000000" font-family="FG Virgil" font-size="7.8" font-weight="bold" lengthAdjust="spacing" textLength="8.4" x="990.9" y="407.1053">18</text><text fill="#000000" font-family="FG Virgil" font-size="7.8" lengthAdjust="spacing" textLength="111.6" x="1001.7" y="407.1053">returns courseRecurrentClasses</text><polygon fill="#181818" points="1177.8,426.6375,1183.8,429.0375,1177.8,431.4375,1180.2,429.0375" style="stroke:#181818;stroke-width:0.6;"/><line style="stroke:#181818;stroke-width:0.6;" x1="980.7" x2="1181.4" y1="429.0375" y2="429.0375"/><text fill="#000000" font-family="FG Virgil" font-size="7.8" font-weight="bold" lengthAdjust="spacing" textLength="8.4" x="984.9" y="425.8799">19</text><text fill="#000000" font-family="FG Virgil" font-size="7.8" lengthAdjust="spacing" textLength="111.6" x="995.7" y="425.8799">findCourseExtraClasses(course)</text><polygon fill="#181818" points="987.3,445.4121,981.3,447.8121,987.3,450.2121,984.9,447.8121" style="stroke:#181818;stroke-width:0.6;"/><line style="stroke:#181818;stroke-width:0.6;stroke-dasharray:2.0,2.0;" x1="983.7" x2="1184.4" y1="447.8121" y2="447.8121"/><text fill="#000000" font-family="FG Virgil" font-size="7.8" font-weight="bold" lengthAdjust="spacing" textLength="8.4" x="990.9" y="444.6545">20</text><text fill="#000000" font-family="FG Virgil" font-size="7.8" lengthAdjust="spacing" textLength="96.6" x="1001.7" y="444.6545">returns courseExtraClasses</text><polygon fill="#181818" points="1177.8,464.1867,1183.8,466.5867,1177.8,468.9867,1180.2,466.5867" style="stroke:#181818;stroke-width:0.6;"/><line style="stroke:#181818;stroke-width:0.6;" x1="980.7" x2="1181.4" y1="466.5867" y2="466.5867"/><text fill="#000000" font-family="FG Virgil" font-size="7.8" font-weight="bold" lengthAdjust="spacing" textLength="8.4" x="984.9" y="463.4291">21</text><text fill="#000000" font-family="FG Virgil" font-size="7.8" lengthAdjust="spacing" textLength="114.6" x="995.7" y="463.4291">findTeacherExtraClasses(course)</text><polygon fill="#181818" points="987.3,482.9613,981.3,485.3613,987.3,487.7613,984.9,485.3613" style="stroke:#181818;stroke-width:0.6;"/><line style="stroke:#181818;stroke-width:0.6;stroke-dasharray:2.0,2.0;" x1="983.7" x2="1187.4" y1="485.3613" y2="485.3613"/><text fill="#000000" font-family="FG Virgil" font-size="7.8" font-weight="bold" lengthAdjust="spacing" textLength="8.4" x="990.9" y="482.2037">22</text><text fill="#000000" font-family="FG Virgil" font-size="7.8" lengthAdjust="spacing" textLength="73.8" x="1001.7" y="482.2037">returns availableSlots</text><polygon fill="#181818" points="514.5,501.7359,508.5,504.1359,514.5,506.5359,512.1,504.1359" style="stroke:#181818;stroke-width:0.6;"/><line style="stroke:#181818;stroke-width:0.6;" x1="510.9" x2="977.1" y1="504.1359" y2="504.1359"/><text fill="#000000" font-family="FG Virgil" font-size="7.8" font-weight="bold" lengthAdjust="spacing" textLength="8.4" x="518.1" y="500.9783">23</text><text fill="#000000" font-family="FG Virgil" font-size="7.8" lengthAdjust="spacing" textLength="47.4" x="528.9" y="500.9783">availableSlots</text><polygon fill="#181818" points="352.5,520.5105,346.5,522.9105,352.5,525.3105,350.1,522.9105" style="stroke:#181818;stroke-width:0.6;"/><line style="stroke:#181818;stroke-width:0.6;" x1="348.9" x2="504.3" y1="522.9105" y2="522.9105"/><text fill="#000000" font-family="FG Virgil" font-size="7.8" font-weight="bold" lengthAdjust="spacing" textLength="8.4" x="356.1" y="519.7529">24</text><text fill="#000000" font-family="FG Virgil" font-size="7.8" lengthAdjust="spacing" textLength="47.4" x="366.9" y="519.7529">availableSlots</text><polygon fill="#181818" points="125.7,539.2852,119.7,541.6852,125.7,544.0852,123.3,541.6852" style="stroke:#181818;stroke-width:0.6;"/><line style="stroke:#181818;stroke-width:0.6;" x1="122.1" x2="342.3" y1="541.6852" y2="541.6852"/><text fill="#000000" font-family="FG Virgil" font-size="7.8" font-weight="bold" lengthAdjust="spacing" textLength="8.4" x="129.3" y="538.5275">25</text><text fill="#000000" font-family="FG Virgil" font-size="7.8" lengthAdjust="spacing" textLength="47.4" x="140.1" y="538.5275">availableSlots</text><line style="stroke:#181818;stroke-width:0.6;" x1="119.1" x2="144.3" y1="560.4598" y2="560.4598"/><line style="stroke:#181818;stroke-width:0.6;" x1="144.3" x2="144.3" y1="560.4598" y2="568.2598"/><line style="stroke:#181818;stroke-width:0.6;" x1="119.7" x2="144.3" y1="568.2598" y2="568.2598"/><polygon fill="#181818" points="125.7,565.8598,119.7,568.2598,125.7,570.6598,123.3,568.2598" style="stroke:#181818;stroke-width:0.6;"/><text fill="#000000" font-family="FG Virgil" font-size="7.8" font-weight="bold" lengthAdjust="spacing" textLength="8.4" x="123.3" y="557.3021">26</text><text fill="#000000" font-family="FG Virgil" font-size="7.8" lengthAdjust="spacing" textLength="72" x="134.1" y="557.3021">shows availableSlots</text><polygon fill="#181818" points="105.9,584.6344,111.9,587.0344,105.9,589.4344,108.3,587.0344" style="stroke:#181818;stroke-width:0.6;"/><line style="stroke:#181818;stroke-width:0.6;" x1="23.7" x2="109.5" y1="587.0344" y2="587.0344"/><text fill="#000000" font-family="FG Virgil" font-size="7.8" font-weight="bold" lengthAdjust="spacing" textLength="8.4" x="27.9" y="583.8768">27</text><text fill="#000000" font-family="FG Virgil" font-size="7.8" lengthAdjust="spacing" textLength="51" x="38.7" y="583.8768">chooses a slot</text><polygon fill="#181818" points="332.7,603.409,338.7,605.809,332.7,608.209,335.1,605.809" style="stroke:#181818;stroke-width:0.6;"/><line style="stroke:#181818;stroke-width:0.6;" x1="119.1" x2="336.3" y1="605.809" y2="605.809"/><text fill="#000000" font-family="FG Virgil" font-size="7.8" font-weight="bold" lengthAdjust="spacing" textLength="8.4" x="123.3" y="602.6514">28</text><text fill="#000000" font-family="FG Virgil" font-size="7.8" lengthAdjust="spacing" textLength="198.6" x="134.1" y="602.6514">updateClass(chosenClass, chosenDate, teacherCourses)</text><polygon fill="#181818" points="967.5,632.5582,973.5,634.9582,967.5,637.3582,969.9,634.9582" style="stroke:#181818;stroke-width:0.6;"/><line style="stroke:#181818;stroke-width:0.6;" x1="345.9" x2="971.1" y1="634.9582" y2="634.9582"/><text fill="#000000" font-family="FG Virgil" font-size="7.8" font-weight="bold" lengthAdjust="spacing" textLength="8.4" x="350.1" y="626.6133">29</text><text fill="#000000" font-family="FG Virgil" font-size="7.8" lengthAdjust="spacing" textLength="139.2" x="360.9" y="621.426">updateClass(chosenClass, chosenDate,</text><text fill="#000000" font-family="FG Virgil" font-size="7.8" lengthAdjust="spacing" textLength="87.6" x="363.3" y="631.8006">teacherCourses, teacher)</text><line style="stroke:#181818;stroke-width:0.6;" x1="980.7" x2="1005.9" y1="653.7328" y2="653.7328"/><line style="stroke:#181818;stroke-width:0.6;" x1="1005.9" x2="1005.9" y1="653.7328" y2="661.5328"/><line style="stroke:#181818;stroke-width:0.6;" x1="981.3" x2="1005.9" y1="661.5328" y2="661.5328"/><polygon fill="#181818" points="987.3,659.1328,981.3,661.5328,987.3,663.9328,984.9,661.5328" style="stroke:#181818;stroke-width:0.6;"/><text fill="#000000" font-family="FG Virgil" font-size="7.8" font-weight="bold" lengthAdjust="spacing" textLength="8.4" x="984.9" y="650.5752">30</text><text fill="#000000" font-family="FG Virgil" font-size="7.8" lengthAdjust="spacing" textLength="76.8" x="995.7" y="650.5752">validates the new data</text><polygon fill="#181818" points="1108.5,677.9074,1114.5,680.3074,1108.5,682.7074,1110.9,680.3074" style="stroke:#181818;stroke-width:0.6;"/><line style="stroke:#181818;stroke-width:0.6;" x1="980.7" x2="1112.1" y1="680.3074" y2="680.3074"/><text fill="#000000" font-family="FG Virgil" font-size="7.8" font-weight="bold" lengthAdjust="spacing" textLength="8.4" x="984.9" y="677.1498">31</text><text fill="#000000" font-family="FG Virgil" font-size="7.8" lengthAdjust="spacing" textLength="109.8" x="995.7" y="677.1498">updateOccurrence(chosenDate)</text><polygon fill="#181818" points="1180.8,696.682,1186.8,699.082,1180.8,701.482,1183.2,699.082" style="stroke:#181818;stroke-width:0.6;"/><line style="stroke:#181818;stroke-width:0.6;" x1="980.7" x2="1184.4" y1="699.082" y2="699.082"/><text fill="#000000" font-family="FG Virgil" font-size="7.8" font-weight="bold" lengthAdjust="spacing" textLength="8.4" x="984.9" y="695.9244">32</text><text fill="#000000" font-family="FG Virgil" font-size="7.8" lengthAdjust="spacing" textLength="39" x="995.7" y="695.9244">save(class)</text><polygon fill="#181818" points="352.5,715.4566,346.5,717.8566,352.5,720.2566,350.1,717.8566" style="stroke:#181818;stroke-width:0.6;"/><line style="stroke:#181818;stroke-width:0.6;" x1="348.9" x2="977.1" y1="717.8566" y2="717.8566"/><text fill="#000000" font-family="FG Virgil" font-size="7.8" font-weight="bold" lengthAdjust="spacing" textLength="8.4" x="356.1" y="714.699">33</text><text fill="#000000" font-family="FG Virgil" font-size="7.8" lengthAdjust="spacing" textLength="55.8" x="366.9" y="714.699">returns success</text><polygon fill="#181818" points="125.7,734.2312,119.7,736.6313,125.7,739.0313,123.3,736.6313" style="stroke:#181818;stroke-width:0.6;"/><line style="stroke:#181818;stroke-width:0.6;" x1="122.1" x2="342.3" y1="736.6313" y2="736.6313"/><text fill="#000000" font-family="FG Virgil" font-size="7.8" font-weight="bold" lengthAdjust="spacing" textLength="8.4" x="129.3" y="733.4736">34</text><text fill="#000000" font-family="FG Virgil" font-size="7.8" lengthAdjust="spacing" textLength="55.8" x="140.1" y="733.4736">returns success</text><line style="stroke:#181818;stroke-width:0.6;" x1="119.1" x2="144.3" y1="758.4059" y2="758.4059"/><line style="stroke:#181818;stroke-width:0.6;" x1="144.3" x2="144.3" y1="758.4059" y2="766.2059"/><line style="stroke:#181818;stroke-width:0.6;" x1="116.1" x2="144.3" y1="766.2059" y2="766.2059"/><polygon fill="#181818" points="122.1,763.8059,116.1,766.2059,122.1,768.6059,119.7,766.2059" style="stroke:#181818;stroke-width:0.6;"/><text fill="#000000" font-family="FG Virgil" font-size="7.8" font-weight="bold" lengthAdjust="spacing" textLength="8.4" x="123.3" y="755.2482">35</text><text fill="#000000" font-family="FG Virgil" font-size="7.8" lengthAdjust="spacing" textLength="88.2" x="134.1" y="755.2482">shows success message</text><!--SRC=[bLRBZk8m4BpxAonEZCJym6Y4XB8xAwHeLoAmfxaqJWFM13ko7TZv-st78IGcl2v8s5NLZ-ess2-fIZ2mvtkjjDWPlKVkJ8NCjZSbY2_OOkQ-2-G6XUlSvRY1gd0VMhdVGDIFN_olD5jPT31s1xa-IhNb6oWiCWQLqwhQhz4m44uRlaGGEpGSB5yo8ZafP0dAyT6gpC5XKe2rg_d80rPp_lvU6hIe73YfrNHwbP9GMaON1PgQcYL4XR8if1XafjAwsG5a0Ui2iq8x-w5D8zTNIcSFI3LLrPbWd4kwV491LsP0uLA0CeKrMEIZG5bWgQsa3d_NZ6H13DEUnH7hH3CAc5Ud64cM4SMYEKY1CNw1eZA6RAY90PyIFDTxa54w7X5darwam_myo0Frc-Q0BVdhrDlznhSODNFySaQkven012Lxxq2pX168eBxxTx04OHv6QEhR6zz8bJVeVk54S-6ymquMZ5Xj91CnM8vTQ1CdkmVrEOK2whRSWbAfeIirqkxqqRPhTe9tEYnsMjCH1oxyPTJHTYd2CjIhCIOAxM2jDTZYsVDauZ3Fy_IOtT-5dbD46lJfXBrbZm_ZUl3Ocqurru5fcxXVcOVgdl1FrHUSy85CiunvIQ-SdkexRNSqXg8-xf9JgfDOhsrU1brbbELYKE5Qf9__d84uoYtXBk5IjB7d2LNelSezXto98K3mw0QKMjcObDr6-ZdixDbruD2MHMWsl6QMBhjRLfr_jVf34hxyeCj9D7z3MnVQzeZOf-BFJL-jV812UctBtGwvmYFtZ_pPuZRu7n56I-3u7FIbFmiM3dGRte3ceda2W-ks4WBjXOUz5_0gSiYQ1iRtz47_QBmt7SQI_GS0]--></g></svg>