<?xml version="1.0" encoding="us-ascii" standalone="no"?><svg xmlns="http://www.w3.org/2000/svg" xmlns:xlink="http://www.w3.org/1999/xlink" contentStyleType="text/css" height="788px" preserveAspectRatio="none" style="width:1094px;height:788px;background:#FFFFFF;" version="1.1" viewBox="0 0 1094 788" width="1094px" zoomAndPan="magnify"><defs/><g><text fill="#000000" font-family="sans-serif" font-size="14" font-weight="bold" lengthAdjust="spacing" textLength="361" x="365.75" y="30.1074">Authentication System Sequence Diagram - Any App</text><rect fill="#FFFFFF" height="563.5684" style="stroke:#181818;stroke-width:1.0;" width="10" x="17.5" y="133.2422"/><rect fill="#FFFFFF" height="531.2773" style="stroke:#181818;stroke-width:1.0;" width="10" x="195.5" y="156.5332"/><rect fill="#FFFFFF" height="354.2402" style="stroke:#181818;stroke-width:1.0;" width="10" x="378.5" y="302.2793"/><rect fill="#FFFFFF" height="274.3672" style="stroke:#181818;stroke-width:1.0;" width="10" x="554.5" y="350.8613"/><rect fill="#FFFFFF" height="28" style="stroke:#181818;stroke-width:1.0;" width="10" x="559.5" y="452.7344"/><rect fill="#FFFFFF" height="31.291" style="stroke:#181818;stroke-width:1.0;" width="10" x="729.5" y="382.1523"/><rect fill="#FFFFFF" height="74.9121" style="stroke:#181818;stroke-width:1.0;" width="10" x="870.5" y="519.0254"/><line style="stroke:#181818;stroke-width:0.5;stroke-dasharray:5.0,5.0;" x1="22" x2="22" y1="123.2422" y2="705.8105"/><line style="stroke:#181818;stroke-width:0.5;stroke-dasharray:5.0,5.0;" x1="200" x2="200" y1="123.2422" y2="705.8105"/><line style="stroke:#181818;stroke-width:0.5;stroke-dasharray:5.0,5.0;" x1="383.5" x2="383.5" y1="123.2422" y2="705.8105"/><line style="stroke:#181818;stroke-width:0.5;stroke-dasharray:5.0,5.0;" x1="559.5" x2="559.5" y1="123.2422" y2="705.8105"/><line style="stroke:#181818;stroke-width:0.5;stroke-dasharray:5.0,5.0;" x1="734" x2="734" y1="123.2422" y2="705.8105"/><line style="stroke:#181818;stroke-width:0.5;stroke-dasharray:5.0,5.0;" x1="875" x2="875" y1="123.2422" y2="705.8105"/><line style="stroke:#181818;stroke-width:0.5;stroke-dasharray:5.0,5.0;" x1="1039.5" x2="1039.5" y1="558.8359" y2="705.8105"/><text fill="#000000" font-family="sans-serif" font-size="14" lengthAdjust="spacing" textLength="29" x="5" y="119.7285">User</text><ellipse cx="22.5" cy="53.1211" fill="#E2E2F0" rx="8" ry="8" style="stroke:#181818;stroke-width:0.5;"/><path d="M22.5,61.1211 L22.5,88.1211 M9.5,69.1211 L35.5,69.1211 M22.5,88.1211 L9.5,103.1211 M22.5,88.1211 L35.5,103.1211 " fill="none" style="stroke:#181818;stroke-width:0.5;"/><text fill="#000000" font-family="sans-serif" font-size="14" lengthAdjust="spacing" textLength="29" x="5" y="719.918">User</text><ellipse cx="22.5" cy="731.9316" fill="#E2E2F0" rx="8" ry="8" style="stroke:#181818;stroke-width:0.5;"/><path d="M22.5,739.9316 L22.5,766.9316 M9.5,747.9316 L35.5,747.9316 M22.5,766.9316 L9.5,781.9316 M22.5,766.9316 L35.5,781.9316 " fill="none" style="stroke:#181818;stroke-width:0.5;"/><rect fill="#E2E2F0" height="32.6211" rx="2.5" ry="2.5" style="stroke:#181818;stroke-width:0.5;" width="65" x="168" y="89.6211"/><text fill="#000000" font-family="sans-serif" font-size="14" lengthAdjust="spacing" textLength="51" x="175" y="111.7285">:LoginUI</text><rect fill="#E2E2F0" height="32.6211" rx="2.5" ry="2.5" style="stroke:#181818;stroke-width:0.5;" width="65" x="168" y="704.8105"/><text fill="#000000" font-family="sans-serif" font-size="14" lengthAdjust="spacing" textLength="51" x="175" y="726.918">:LoginUI</text><rect fill="#E2E2F0" height="32.6211" rx="2.5" ry="2.5" style="stroke:#181818;stroke-width:0.5;" width="132" x="317.5" y="89.6211"/><text fill="#000000" font-family="sans-serif" font-size="14" lengthAdjust="spacing" textLength="118" x="324.5" y="111.7285">:CredentialHandler</text><rect fill="#E2E2F0" height="32.6211" rx="2.5" ry="2.5" style="stroke:#181818;stroke-width:0.5;" width="132" x="317.5" y="704.8105"/><text fill="#000000" font-family="sans-serif" font-size="14" lengthAdjust="spacing" textLength="118" x="324.5" y="726.918">:CredentialHandler</text><rect fill="#E2E2F0" height="32.6211" rx="2.5" ry="2.5" style="stroke:#181818;stroke-width:0.5;" width="102" x="508.5" y="89.6211"/><text fill="#000000" font-family="sans-serif" font-size="14" lengthAdjust="spacing" textLength="88" x="515.5" y="111.7285">:Authenticator</text><rect fill="#E2E2F0" height="32.6211" rx="2.5" ry="2.5" style="stroke:#181818;stroke-width:0.5;" width="102" x="508.5" y="704.8105"/><text fill="#000000" font-family="sans-serif" font-size="14" lengthAdjust="spacing" textLength="88" x="515.5" y="726.918">:Authenticator</text><rect fill="#E2E2F0" height="32.6211" rx="2.5" ry="2.5" style="stroke:#181818;stroke-width:0.5;" width="115" x="677" y="89.6211"/><text fill="#000000" font-family="sans-serif" font-size="14" lengthAdjust="spacing" textLength="101" x="684" y="111.7285">:UserRepository</text><rect fill="#E2E2F0" height="32.6211" rx="2.5" ry="2.5" style="stroke:#181818;stroke-width:0.5;" width="115" x="677" y="704.8105"/><text fill="#000000" font-family="sans-serif" font-size="14" lengthAdjust="spacing" textLength="101" x="684" y="726.918">:UserRepository</text><rect fill="#E2E2F0" height="32.6211" rx="2.5" ry="2.5" style="stroke:#181818;stroke-width:0.5;" width="147" x="802" y="89.6211"/><text fill="#000000" font-family="sans-serif" font-size="14" lengthAdjust="spacing" textLength="133" x="809" y="111.7285">:AuthorizationService</text><rect fill="#E2E2F0" height="32.6211" rx="2.5" ry="2.5" style="stroke:#181818;stroke-width:0.5;" width="147" x="802" y="704.8105"/><text fill="#000000" font-family="sans-serif" font-size="14" lengthAdjust="spacing" textLength="133" x="809" y="726.918">:AuthorizationService</text><rect fill="#E2E2F0" height="32.6211" rx="2.5" ry="2.5" style="stroke:#181818;stroke-width:0.5;" width="97" x="991.5" y="704.8105"/><text fill="#000000" font-family="sans-serif" font-size="14" lengthAdjust="spacing" textLength="83" x="998.5" y="726.918">:UserSession</text><rect fill="#FFFFFF" height="563.5684" style="stroke:#181818;stroke-width:1.0;" width="10" x="17.5" y="133.2422"/><rect fill="#FFFFFF" height="531.2773" style="stroke:#181818;stroke-width:1.0;" width="10" x="195.5" y="156.5332"/><rect fill="#FFFFFF" height="354.2402" style="stroke:#181818;stroke-width:1.0;" width="10" x="378.5" y="302.2793"/><rect fill="#FFFFFF" height="274.3672" style="stroke:#181818;stroke-width:1.0;" width="10" x="554.5" y="350.8613"/><rect fill="#FFFFFF" height="28" style="stroke:#181818;stroke-width:1.0;" width="10" x="559.5" y="452.7344"/><rect fill="#FFFFFF" height="31.291" style="stroke:#181818;stroke-width:1.0;" width="10" x="729.5" y="382.1523"/><rect fill="#FFFFFF" height="74.9121" style="stroke:#181818;stroke-width:1.0;" width="10" x="870.5" y="519.0254"/><polygon fill="#181818" points="183.5,152.5332,193.5,156.5332,183.5,160.5332,187.5,156.5332" style="stroke:#181818;stroke-width:1.0;"/><line style="stroke:#181818;stroke-width:1.0;" x1="27.5" x2="189.5" y1="156.5332" y2="156.5332"/><text fill="#000000" font-family="sans-serif" font-size="13" font-weight="bold" lengthAdjust="spacing" textLength="7" x="34.5" y="151.2705">1</text><text fill="#000000" font-family="sans-serif" font-size="13" lengthAdjust="spacing" textLength="76" x="45.5" y="151.2705">Asks to login</text><polygon fill="#181818" points="38.5,201.1152,28.5,205.1152,38.5,209.1152,34.5,205.1152" style="stroke:#181818;stroke-width:1.0;"/><line style="stroke:#181818;stroke-width:1.0;" x1="32.5" x2="194.5" y1="205.1152" y2="205.1152"/><text fill="#000000" font-family="sans-serif" font-size="13" font-weight="bold" lengthAdjust="spacing" textLength="7" x="44.5" y="191.207">2</text><text fill="#000000" font-family="sans-serif" font-size="13" lengthAdjust="spacing" textLength="111" x="55.5" y="182.5615">requests username</text><text fill="#000000" font-family="sans-serif" font-size="13" lengthAdjust="spacing" textLength="80" x="59.5" y="199.8525">and password</text><polygon fill="#181818" points="183.5,249.6973,193.5,253.6973,183.5,257.6973,187.5,253.6973" style="stroke:#181818;stroke-width:1.0;"/><line style="stroke:#181818;stroke-width:1.0;" x1="27.5" x2="189.5" y1="253.6973" y2="253.6973"/><text fill="#000000" font-family="sans-serif" font-size="13" font-weight="bold" lengthAdjust="spacing" textLength="7" x="34.5" y="239.7891">3</text><text fill="#000000" font-family="sans-serif" font-size="13" lengthAdjust="spacing" textLength="93" x="45.5" y="231.1436">types username</text><text fill="#000000" font-family="sans-serif" font-size="13" lengthAdjust="spacing" textLength="80" x="49.5" y="248.4346">and password</text><polygon fill="#181818" points="366.5,298.2793,376.5,302.2793,366.5,306.2793,370.5,302.2793" style="stroke:#181818;stroke-width:1.0;"/><line style="stroke:#181818;stroke-width:1.0;" x1="205.5" x2="372.5" y1="302.2793" y2="302.2793"/><text fill="#000000" font-family="sans-serif" font-size="13" font-weight="bold" lengthAdjust="spacing" textLength="7" x="212.5" y="288.3711">4</text><text fill="#000000" font-family="sans-serif" font-size="13" lengthAdjust="spacing" textLength="143" x="223.5" y="279.7256">authenticated(username,</text><text fill="#000000" font-family="sans-serif" font-size="13" lengthAdjust="spacing" textLength="114" x="227.5" y="297.0166">password, appRole)</text><polygon fill="#181818" points="542.5,346.8613,552.5,350.8613,542.5,354.8613,546.5,350.8613" style="stroke:#181818;stroke-width:1.0;"/><line style="stroke:#181818;stroke-width:1.0;" x1="388.5" x2="548.5" y1="350.8613" y2="350.8613"/><text fill="#000000" font-family="sans-serif" font-size="13" font-weight="bold" lengthAdjust="spacing" textLength="7" x="395.5" y="336.9531">5</text><text fill="#000000" font-family="sans-serif" font-size="13" lengthAdjust="spacing" textLength="136" x="406.5" y="328.3076">authenticate(username,</text><text fill="#000000" font-family="sans-serif" font-size="13" lengthAdjust="spacing" textLength="114" x="410.5" y="345.5986">password, appRole)</text><polygon fill="#181818" points="717.5,378.1523,727.5,382.1523,717.5,386.1523,721.5,382.1523" style="stroke:#181818;stroke-width:1.0;"/><line style="stroke:#181818;stroke-width:1.0;" x1="564.5" x2="723.5" y1="382.1523" y2="382.1523"/><text fill="#000000" font-family="sans-serif" font-size="13" font-weight="bold" lengthAdjust="spacing" textLength="7" x="571.5" y="376.8896">6</text><text fill="#000000" font-family="sans-serif" font-size="13" lengthAdjust="spacing" textLength="117" x="582.5" y="376.8896">ofIdentity(username)</text><polygon fill="#181818" points="575.5,409.4434,565.5,413.4434,575.5,417.4434,571.5,413.4434" style="stroke:#181818;stroke-width:1.0;"/><line style="stroke:#181818;stroke-width:1.0;stroke-dasharray:2.0,2.0;" x1="569.5" x2="733.5" y1="413.4434" y2="413.4434"/><text fill="#000000" font-family="sans-serif" font-size="13" font-weight="bold" lengthAdjust="spacing" textLength="7" x="581.5" y="408.1807">7</text><text fill="#000000" font-family="sans-serif" font-size="13" lengthAdjust="spacing" textLength="69" x="592.5" y="408.1807">returns user</text><line style="stroke:#181818;stroke-width:1.0;stroke-dasharray:2.0,2.0;" x1="569.5" x2="611.5" y1="444.7344" y2="444.7344"/><line style="stroke:#181818;stroke-width:1.0;stroke-dasharray:2.0,2.0;" x1="611.5" x2="611.5" y1="444.7344" y2="457.7344"/><line style="stroke:#181818;stroke-width:1.0;stroke-dasharray:2.0,2.0;" x1="570.5" x2="611.5" y1="457.7344" y2="457.7344"/><polygon fill="#181818" points="580.5,453.7344,570.5,457.7344,580.5,461.7344,576.5,457.7344" style="stroke:#181818;stroke-width:1.0;"/><text fill="#000000" font-family="sans-serif" font-size="13" font-weight="bold" lengthAdjust="spacing" textLength="7" x="576.5" y="439.4717">8</text><text fill="#000000" font-family="sans-serif" font-size="13" lengthAdjust="spacing" textLength="140" x="587.5" y="439.4717">check user's credentials</text><polygon fill="#181818" points="858.5,515.0254,868.5,519.0254,858.5,523.0254,862.5,519.0254" style="stroke:#181818;stroke-width:1.0;"/><line style="stroke:#181818;stroke-width:1.0;stroke-dasharray:2.0,2.0;" x1="564.5" x2="864.5" y1="519.0254" y2="519.0254"/><text fill="#000000" font-family="sans-serif" font-size="13" font-weight="bold" lengthAdjust="spacing" textLength="7" x="571.5" y="513.7627">9</text><text fill="#000000" font-family="sans-serif" font-size="13" lengthAdjust="spacing" textLength="162" x="582.5" y="513.7627">createSessionForUser(user)</text><polygon fill="#181818" points="979.5,546.3164,989.5,550.3164,979.5,554.3164,983.5,550.3164" style="stroke:#181818;stroke-width:1.0;"/><line style="stroke:#181818;stroke-width:1.0;stroke-dasharray:2.0,2.0;" x1="880.5" x2="985.5" y1="550.3164" y2="550.3164"/><text fill="#000000" font-family="sans-serif" font-size="13" font-weight="bold" lengthAdjust="spacing" textLength="14" x="887.5" y="545.0537">10</text><text fill="#000000" font-family="sans-serif" font-size="13" lengthAdjust="spacing" textLength="69" x="905.5" y="545.0537">create(user)</text><rect fill="#E2E2F0" height="32.6211" rx="2.5" ry="2.5" style="stroke:#181818;stroke-width:0.5;" width="97" x="991.5" y="527.0254"/><text fill="#000000" font-family="sans-serif" font-size="14" lengthAdjust="spacing" textLength="83" x="998.5" y="549.1328">:UserSession</text><polygon fill="#181818" points="575.5,589.9375,565.5,593.9375,575.5,597.9375,571.5,593.9375" style="stroke:#181818;stroke-width:1.0;"/><line style="stroke:#181818;stroke-width:1.0;stroke-dasharray:2.0,2.0;" x1="569.5" x2="874.5" y1="593.9375" y2="593.9375"/><text fill="#000000" font-family="sans-serif" font-size="13" font-weight="bold" lengthAdjust="spacing" textLength="14" x="581.5" y="588.6748">11</text><text fill="#000000" font-family="sans-serif" font-size="13" lengthAdjust="spacing" textLength="89" x="599.5" y="588.6748">returns session</text><polygon fill="#181818" points="399.5,621.2285,389.5,625.2285,399.5,629.2285,395.5,625.2285" style="stroke:#181818;stroke-width:1.0;"/><line style="stroke:#181818;stroke-width:1.0;stroke-dasharray:2.0,2.0;" x1="393.5" x2="558.5" y1="625.2285" y2="625.2285"/><text fill="#000000" font-family="sans-serif" font-size="13" font-weight="bold" lengthAdjust="spacing" textLength="14" x="405.5" y="619.9658">12</text><text fill="#000000" font-family="sans-serif" font-size="13" lengthAdjust="spacing" textLength="89" x="423.5" y="619.9658">returns session</text><polygon fill="#181818" points="216.5,652.5195,206.5,656.5195,216.5,660.5195,212.5,656.5195" style="stroke:#181818;stroke-width:1.0;"/><line style="stroke:#181818;stroke-width:1.0;stroke-dasharray:2.0,2.0;" x1="210.5" x2="382.5" y1="656.5195" y2="656.5195"/><text fill="#000000" font-family="sans-serif" font-size="13" font-weight="bold" lengthAdjust="spacing" textLength="14" x="222.5" y="651.2568">13</text><text fill="#000000" font-family="sans-serif" font-size="13" lengthAdjust="spacing" textLength="93" x="240.5" y="651.2568">returns success</text><polygon fill="#181818" points="38.5,683.8105,28.5,687.8105,38.5,691.8105,34.5,687.8105" style="stroke:#181818;stroke-width:1.0;"/><line style="stroke:#181818;stroke-width:1.0;stroke-dasharray:2.0,2.0;" x1="32.5" x2="199.5" y1="687.8105" y2="687.8105"/><text fill="#000000" font-family="sans-serif" font-size="13" font-weight="bold" lengthAdjust="spacing" textLength="14" x="44.5" y="682.5479">14</text><text fill="#000000" font-family="sans-serif" font-size="13" lengthAdjust="spacing" textLength="126" x="62.5" y="682.5479">redirects to app menu</text><!--SRC=[ZPB1JiCm38RlVGfh5s3QNg07fAe8hHAdbkx49QHcYzOc8Kc7ojFZf6kNJKDmQ2_-_Fl_xJZXMeIiTtkKJd3cX99G3TPX1nL-zYWvmfDWEyCwM4Cc1yYqJXBMEoNxxXrDmhXJ1cgB1fY5Ej7Ca9BGJ3fOf2zg9sHTB4Ajk2hc1Xi_bxKR9fiMJS3opHKMsLCZajMlrv0tKA9MLX0qZFFA6qBAYEyGiq9p51n7lMfxGwv2QmaSjQh49nL7vf12rh1-f3oGGcOF5fo2rWUDa2AXieTIC7wHrbdeILIo3jyaK5xGpDelPPf8pGqQV-TEalac1NRU2JRtKyEAEYPw1KphKhNuS7P5gyqtNi8ly5BatnfXz_uNJ9Sfg8yYND4DiqQ4qn7g4jRpJ8EkDtBCc3GOSwFeJF8zyaFWxYpm-QdOAokHHcJDgrJRrFTHvNJ9PsNyNOFDE15TdxxGL5UmN4vj9t0kNYQme-Y50QyqpS__OBtPV4Jh8a9xpecEKJgRl_pqcXfXaBlmwkWyqA7iBpPP93y0]--></g></svg>