<?xml version="1.0" encoding="us-ascii" standalone="no"?><svg xmlns="http://www.w3.org/2000/svg" xmlns:xlink="http://www.w3.org/1999/xlink" contentStyleType="text/css" height="540px" preserveAspectRatio="none" style="width:1041px;height:540px;background:#FFFFFF;" version="1.1" viewBox="0 0 1041 540" width="1041.6px" zoomAndPan="magnify"><defs/><g><text fill="#000000" font-family="sans-serif" font-size="8.4" font-weight="bold" lengthAdjust="spacing" textLength="155.4" x="438.9" y="15.0645">Authentication System Class Diagram</text><!--cluster UI--><g id="cluster_UI"><path d="M37.8,146.7809 L46.8,146.7809 A2.25,2.25 0 0 1 48.3,148.2809 L52.5,161.5535 L190.8,161.5535 A1.5,1.5 0 0 1 192.3,163.0535 L192.3,250.2809 A1.5,1.5 0 0 1 190.8,251.7809 L37.8,251.7809 A1.5,1.5 0 0 1 36.3,250.2809 L36.3,148.2809 A1.5,1.5 0 0 1 37.8,146.7809 " fill="none" style="stroke:#000000;stroke-width:0.8999999999999999;"/><line style="stroke:#000000;stroke-width:0.8999999999999999;" x1="36.3" x2="52.5" y1="161.5535" y2="161.5535"/><text fill="#000000" font-family="sans-serif" font-size="8.4" font-weight="bold" lengthAdjust="spacing" textLength="8.4" x="38.7" y="157.0453">UI</text></g><!--cluster Auth--><g id="cluster_Auth"><path d="M5.1,59.7809 L24.9,59.7809 A2.25,2.25 0 0 1 26.4,61.2809 L30.6,74.5535 L695.1,74.5535 A1.5,1.5 0 0 1 696.6,76.0535 L696.6,130.8809 A1.5,1.5 0 0 1 695.1,132.3809 L5.1,132.3809 A1.5,1.5 0 0 1 3.6,130.8809 L3.6,61.2809 A1.5,1.5 0 0 1 5.1,59.7809 " fill="none" style="stroke:#000000;stroke-width:0.8999999999999999;"/><line style="stroke:#000000;stroke-width:0.8999999999999999;" x1="3.6" x2="30.6" y1="74.5535" y2="74.5535"/><text fill="#000000" font-family="sans-serif" font-size="8.4" font-weight="bold" lengthAdjust="spacing" textLength="19.2" x="6" y="70.0453">Auth</text></g><!--cluster EAPLIFramework--><g id="cluster_EAPLIFramework"><path d="M243.3,146.7809 L314.1,146.7809 A2.25,2.25 0 0 1 315.6,148.2809 L319.8,161.5535 L1031.4,161.5535 A1.5,1.5 0 0 1 1032.9,163.0535 L1032.9,534.6809 A1.5,1.5 0 0 1 1031.4,536.1809 L243.3,536.1809 A1.5,1.5 0 0 1 241.8,534.6809 L241.8,148.2809 A1.5,1.5 0 0 1 243.3,146.7809 " fill="none" style="stroke:#000000;stroke-width:0.8999999999999999;"/><line style="stroke:#000000;stroke-width:0.8999999999999999;" x1="241.8" x2="319.8" y1="161.5535" y2="161.5535"/><text fill="#000000" font-family="sans-serif" font-size="8.4" font-weight="bold" lengthAdjust="spacing" textLength="70.2" x="244.2" y="157.0453">EAPLIFramework</text></g><!--cluster persistence--><g id="cluster_persistence"><path d="M523.2,173.7809 L574.2,173.7809 A2.25,2.25 0 0 1 575.7,175.2809 L579.9,188.5535 L866.7,188.5535 A1.5,1.5 0 0 1 868.2,190.0535 L868.2,356.4809 A1.5,1.5 0 0 1 866.7,357.9809 L523.2,357.9809 A1.5,1.5 0 0 1 521.7,356.4809 L521.7,175.2809 A1.5,1.5 0 0 1 523.2,173.7809 " fill="none" style="stroke:#000000;stroke-width:0.8999999999999999;"/><line style="stroke:#000000;stroke-width:0.8999999999999999;" x1="521.7" x2="579.9" y1="188.5535" y2="188.5535"/><text fill="#000000" font-family="sans-serif" font-size="8.4" font-weight="bold" lengthAdjust="spacing" textLength="50.4" x="524.1" y="184.0453">persistence</text></g><!--cluster domain--><g id="cluster_domain"><path d="M935.7,27.3809 L966.9,27.3809 A2.25,2.25 0 0 1 968.4,28.8809 L972.6,42.1535 L1035.9,42.1535 A1.5,1.5 0 0 1 1037.4,43.6535 L1037.4,130.8809 A1.5,1.5 0 0 1 1035.9,132.3809 L935.7,132.3809 A1.5,1.5 0 0 1 934.2,130.8809 L934.2,28.8809 A1.5,1.5 0 0 1 935.7,27.3809 " fill="none" style="stroke:#000000;stroke-width:0.8999999999999999;"/><line style="stroke:#000000;stroke-width:0.8999999999999999;" x1="934.2" x2="972.6" y1="42.1535" y2="42.1535"/><text fill="#000000" font-family="sans-serif" font-size="8.4" font-weight="bold" lengthAdjust="spacing" textLength="30.6" x="936.6" y="37.6453">domain</text></g><!--class LoginUI--><g id="elem_LoginUI"><rect codeLine="10" fill="#F1F1F1" height="73.4906" id="LoginUI" rx="1.5" ry="1.5" style="stroke:#181818;stroke-width:0.3;" width="136.8" x="45.9" y="168.9809"/><ellipse cx="97.65" cy="178.5809" fill="#ADD1B2" rx="6.6" ry="6.6" style="stroke:#181818;stroke-width:0.6;"/><path d="M99.3094,176.1059 Q99.4031,175.9746 99.5156,175.909 Q99.6281,175.8434 99.7594,175.8434 Q99.9844,175.8434 100.125,176.0027 Q100.2656,176.1527 100.2656,176.5184 L100.2656,177.3902 Q100.2656,177.7559 100.125,177.9152 Q99.9844,178.0746 99.7594,178.0746 Q99.5531,178.0746 99.4312,177.9527 Q99.3094,177.8402 99.2437,177.5309 Q99.2156,177.3152 99.1031,177.2027 Q98.9063,176.9777 98.5406,176.8465 Q98.175,176.7152 97.8,176.7152 Q97.3406,176.7152 96.9563,176.9121 Q96.5813,177.109 96.2813,177.559 Q95.9906,178.009 95.9906,178.6277 L95.9906,179.284 Q95.9906,180.0246 96.525,180.5215 Q97.0594,181.009 98.0156,181.009 Q98.5781,181.009 98.9719,180.859 Q99.2063,180.7652 99.4594,180.5027 Q99.6187,180.3434 99.7031,180.2965 Q99.7969,180.2496 99.9188,180.2496 Q100.1156,180.2496 100.2656,180.409 Q100.425,180.559 100.425,180.7652 Q100.425,180.9715 100.2188,181.2152 Q99.9188,181.5621 99.4406,181.759 Q98.7938,182.0309 98.0156,182.0309 Q97.1063,182.0309 96.3844,181.6559 Q95.7938,181.3559 95.3813,180.7184 Q94.9688,180.0715 94.9688,179.3027 L94.9688,178.609 Q94.9688,177.8121 95.3344,177.1277 Q95.7094,176.434 96.3656,176.0684 Q97.0219,175.6934 97.7625,175.6934 Q98.2031,175.6934 98.5875,175.7965 Q98.9813,175.8902 99.3094,176.1059 Z " fill="#000000"/><text fill="#000000" font-family="sans-serif" font-size="8.4" lengthAdjust="spacing" textLength="28.2" x="109.95" y="182.059">LoginUI</text><line style="stroke:#181818;stroke-width:0.3;" x1="46.5" x2="182.1" y1="188.1809" y2="188.1809"/><text fill="#000000" font-family="sans-serif" font-size="8.4" lengthAdjust="spacing" textLength="125.4" x="49.5" y="199.6453">-DEFAULT_MAX_ATTEMPTS: int</text><text fill="#000000" font-family="sans-serif" font-size="8.4" lengthAdjust="spacing" textLength="73.8" x="49.5" y="210.818">-onlyWithThis: Role</text><text fill="#000000" font-family="sans-serif" font-size="8.4" lengthAdjust="spacing" textLength="64.8" x="49.5" y="221.9906">-maxAttempts: int</text><line style="stroke:#181818;stroke-width:0.3;" x1="46.5" x2="182.1" y1="226.4988" y2="226.4988"/><text fill="#000000" font-family="sans-serif" font-size="8.4" lengthAdjust="spacing" textLength="129.6" x="49.5" y="237.9633">+LoginUI(CredentialHandler, Role)</text></g><!--class CredentialHandler--><g id="elem_CredentialHandler"><rect codeLine="19" fill="#F1F1F1" height="39.9727" id="CredentialHandler" rx="1.5" ry="1.5" style="stroke:#181818;stroke-width:0.3;" width="202.2" x="13.2" y="82.2809"/><ellipse cx="77.25" cy="91.8809" fill="#B4A7E5" rx="6.6" ry="6.6" style="stroke:#181818;stroke-width:0.6;"/><path d="M77.8219,89.8652 L77.8219,93.859 L78.8531,93.859 Q79.2188,93.859 79.3781,93.9996 Q79.5375,94.1402 79.5375,94.3746 Q79.5375,94.5996 79.3781,94.7402 Q79.2188,94.8809 78.8531,94.8809 L75.7688,94.8809 Q75.4031,94.8809 75.2437,94.7402 Q75.0844,94.5996 75.0844,94.3652 Q75.0844,94.1402 75.2437,93.9996 Q75.4031,93.859 75.7688,93.859 L76.8,93.859 L76.8,89.8652 L75.7688,89.8652 Q75.4031,89.8652 75.2437,89.7246 Q75.0844,89.584 75.0844,89.3496 Q75.0844,89.1246 75.2437,88.984 Q75.4031,88.8434 75.7688,88.8434 L78.8531,88.8434 Q79.2188,88.8434 79.3781,88.984 Q79.5375,89.1246 79.5375,89.3496 Q79.5375,89.584 79.3781,89.7246 Q79.2188,89.8652 78.8531,89.8652 L77.8219,89.8652 Z " fill="#000000"/><text fill="#000000" font-family="sans-serif" font-size="8.4" font-style="italic" lengthAdjust="spacing" textLength="69" x="89.55" y="95.359">CredentialHandler</text><line style="stroke:#181818;stroke-width:0.3;" x1="13.8" x2="214.8" y1="101.4809" y2="101.4809"/><line style="stroke:#181818;stroke-width:0.3;" x1="13.8" x2="214.8" y1="106.2809" y2="106.2809"/><text fill="#000000" font-family="sans-serif" font-size="8.4" lengthAdjust="spacing" textLength="195" x="16.8" y="117.7453">+authenticated(username, password, requiredRole)</text></g><!--class AuthenticationCredentialHandler--><g id="elem_AuthenticationCredentialHandler"><rect codeLine="23" fill="#F1F1F1" height="39.9727" id="AuthenticationCredentialHandler" rx="1.5" ry="1.5" style="stroke:#181818;stroke-width:0.3;" width="202.2" x="484.8" y="82.2809"/><ellipse cx="522.15" cy="91.8809" fill="#ADD1B2" rx="6.6" ry="6.6" style="stroke:#181818;stroke-width:0.6;"/><path d="M523.8094,89.4059 Q523.9031,89.2746 524.0156,89.209 Q524.1281,89.1434 524.2594,89.1434 Q524.4844,89.1434 524.625,89.3027 Q524.7656,89.4527 524.7656,89.8184 L524.7656,90.6902 Q524.7656,91.0559 524.625,91.2152 Q524.4844,91.3746 524.2594,91.3746 Q524.0531,91.3746 523.9313,91.2527 Q523.8094,91.1402 523.7438,90.8309 Q523.7156,90.6152 523.6031,90.5027 Q523.4063,90.2777 523.0406,90.1465 Q522.675,90.0152 522.3,90.0152 Q521.8406,90.0152 521.4563,90.2121 Q521.0813,90.409 520.7813,90.859 Q520.4906,91.309 520.4906,91.9277 L520.4906,92.584 Q520.4906,93.3246 521.025,93.8215 Q521.5594,94.309 522.5156,94.309 Q523.0781,94.309 523.4719,94.159 Q523.7063,94.0652 523.9594,93.8027 Q524.1188,93.6434 524.2031,93.5965 Q524.2969,93.5496 524.4187,93.5496 Q524.6156,93.5496 524.7656,93.709 Q524.925,93.859 524.925,94.0652 Q524.925,94.2715 524.7188,94.5152 Q524.4187,94.8621 523.9406,95.059 Q523.2937,95.3309 522.5156,95.3309 Q521.6062,95.3309 520.8844,94.9559 Q520.2937,94.6559 519.8813,94.0184 Q519.4688,93.3715 519.4688,92.6027 L519.4688,91.909 Q519.4688,91.1121 519.8344,90.4277 Q520.2094,89.734 520.8656,89.3684 Q521.5219,88.9934 522.2625,88.9934 Q522.7031,88.9934 523.0875,89.0965 Q523.4812,89.1902 523.8094,89.4059 Z " fill="#000000"/><text fill="#000000" font-family="sans-serif" font-size="8.4" lengthAdjust="spacing" textLength="122.4" x="534.45" y="95.359">AuthenticationCredentialHandler</text><line style="stroke:#181818;stroke-width:0.3;" x1="485.4" x2="686.4" y1="101.4809" y2="101.4809"/><line style="stroke:#181818;stroke-width:0.3;" x1="485.4" x2="686.4" y1="106.2809" y2="106.2809"/><text fill="#000000" font-family="sans-serif" font-size="8.4" lengthAdjust="spacing" textLength="195" x="488.4" y="117.7453">+authenticated(username, password, requiredRole)</text></g><!--class Authenticator--><g id="elem_Authenticator"><rect codeLine="30" fill="#F1F1F1" height="39.9727" id="Authenticator" rx="1.5" ry="1.5" style="stroke:#181818;stroke-width:0.3;" width="197.4" x="251.4" y="369.0809"/><ellipse cx="322.35" cy="378.6809" fill="#B4A7E5" rx="6.6" ry="6.6" style="stroke:#181818;stroke-width:0.6;"/><path d="M322.9219,376.6652 L322.9219,380.659 L323.9531,380.659 Q324.3187,380.659 324.4781,380.7996 Q324.6375,380.9402 324.6375,381.1746 Q324.6375,381.3996 324.4781,381.5402 Q324.3187,381.6809 323.9531,381.6809 L320.8688,381.6809 Q320.5031,381.6809 320.3438,381.5402 Q320.1844,381.3996 320.1844,381.1652 Q320.1844,380.9402 320.3438,380.7996 Q320.5031,380.659 320.8688,380.659 L321.9,380.659 L321.9,376.6652 L320.8688,376.6652 Q320.5031,376.6652 320.3438,376.5246 Q320.1844,376.384 320.1844,376.1496 Q320.1844,375.9246 320.3438,375.784 Q320.5031,375.6434 320.8688,375.6434 L323.9531,375.6434 Q324.3187,375.6434 324.4781,375.784 Q324.6375,375.9246 324.6375,376.1496 Q324.6375,376.384 324.4781,376.5246 Q324.3187,376.6652 323.9531,376.6652 L322.9219,376.6652 Z " fill="#000000"/><text fill="#000000" font-family="sans-serif" font-size="8.4" font-style="italic" lengthAdjust="spacing" textLength="50.4" x="334.65" y="382.159">Authenticator</text><line style="stroke:#181818;stroke-width:0.3;" x1="252" x2="448.2" y1="388.2809" y2="388.2809"/><line style="stroke:#181818;stroke-width:0.3;" x1="252" x2="448.2" y1="393.0809" y2="393.0809"/><text fill="#000000" font-family="sans-serif" font-size="8.4" lengthAdjust="spacing" textLength="190.2" x="255" y="404.5453">+authenticate(username, password, requiredRole)</text></g><!--class AuthenticationService--><g id="elem_AuthenticationService"><rect codeLine="33" fill="#F1F1F1" height="39.9727" id="AuthenticationService" rx="1.5" ry="1.5" style="stroke:#181818;stroke-width:0.3;" width="197.4" x="487.2" y="369.0809"/><ellipse cx="542.25" cy="378.6809" fill="#ADD1B2" rx="6.6" ry="6.6" style="stroke:#181818;stroke-width:0.6;"/><path d="M543.9094,376.2059 Q544.0031,376.0746 544.1156,376.009 Q544.2281,375.9434 544.3594,375.9434 Q544.5844,375.9434 544.725,376.1027 Q544.8656,376.2527 544.8656,376.6184 L544.8656,377.4902 Q544.8656,377.8559 544.725,378.0152 Q544.5844,378.1746 544.3594,378.1746 Q544.1531,378.1746 544.0313,378.0527 Q543.9094,377.9402 543.8438,377.6309 Q543.8156,377.4152 543.7031,377.3027 Q543.5063,377.0777 543.1406,376.9465 Q542.775,376.8152 542.4,376.8152 Q541.9406,376.8152 541.5563,377.0121 Q541.1813,377.209 540.8813,377.659 Q540.5906,378.109 540.5906,378.7277 L540.5906,379.384 Q540.5906,380.1246 541.125,380.6215 Q541.6594,381.109 542.6156,381.109 Q543.1781,381.109 543.5719,380.959 Q543.8063,380.8652 544.0594,380.6027 Q544.2188,380.4434 544.3031,380.3965 Q544.3969,380.3496 544.5188,380.3496 Q544.7156,380.3496 544.8656,380.509 Q545.025,380.659 545.025,380.8652 Q545.025,381.0715 544.8188,381.3152 Q544.5188,381.6621 544.0406,381.859 Q543.3938,382.1309 542.6156,382.1309 Q541.7063,382.1309 540.9844,381.7559 Q540.3938,381.4559 539.9812,380.8184 Q539.5688,380.1715 539.5688,379.4027 L539.5688,378.709 Q539.5688,377.9121 539.9344,377.2277 Q540.3094,376.534 540.9656,376.1684 Q541.6219,375.7934 542.3625,375.7934 Q542.8031,375.7934 543.1875,375.8965 Q543.5813,375.9902 543.9094,376.2059 Z " fill="#000000"/><text fill="#000000" font-family="sans-serif" font-size="8.4" lengthAdjust="spacing" textLength="82.2" x="554.55" y="382.159">AuthenticationService</text><line style="stroke:#181818;stroke-width:0.3;" x1="487.8" x2="684" y1="388.2809" y2="388.2809"/><line style="stroke:#181818;stroke-width:0.3;" x1="487.8" x2="684" y1="393.0809" y2="393.0809"/><text fill="#000000" font-family="sans-serif" font-size="8.4" lengthAdjust="spacing" textLength="190.2" x="490.8" y="404.5453">+authenticate(username, password, requiredRole)</text></g><!--class SystemUser--><g id="elem_SystemUser"><rect codeLine="36" fill="#F1F1F1" height="84.6633" id="SystemUser" rx="1.5" ry="1.5" style="stroke:#181818;stroke-width:0.3;" width="75" x="948.3" y="318.6809"/><ellipse cx="962.16" cy="328.2809" fill="#ADD1B2" rx="6.6" ry="6.6" style="stroke:#181818;stroke-width:0.6;"/><path d="M963.8194,325.8059 Q963.9131,325.6746 964.0256,325.609 Q964.1381,325.5434 964.2694,325.5434 Q964.4944,325.5434 964.635,325.7027 Q964.7756,325.8527 964.7756,326.2184 L964.7756,327.0902 Q964.7756,327.4559 964.635,327.6152 Q964.4944,327.7746 964.2694,327.7746 Q964.0631,327.7746 963.9412,327.6527 Q963.8194,327.5402 963.7537,327.2309 Q963.7256,327.0152 963.6131,326.9027 Q963.4162,326.6777 963.0506,326.5465 Q962.685,326.4152 962.31,326.4152 Q961.8506,326.4152 961.4663,326.6121 Q961.0913,326.809 960.7912,327.259 Q960.5006,327.709 960.5006,328.3277 L960.5006,328.984 Q960.5006,329.7246 961.035,330.2215 Q961.5694,330.709 962.5256,330.709 Q963.0881,330.709 963.4819,330.559 Q963.7163,330.4652 963.9694,330.2027 Q964.1287,330.0434 964.2131,329.9965 Q964.3069,329.9496 964.4287,329.9496 Q964.6256,329.9496 964.7756,330.109 Q964.935,330.259 964.935,330.4652 Q964.935,330.6715 964.7287,330.9152 Q964.4287,331.2621 963.9506,331.459 Q963.3037,331.7309 962.5256,331.7309 Q961.6162,331.7309 960.8944,331.3559 Q960.3037,331.0559 959.8912,330.4184 Q959.4787,329.7715 959.4787,329.0027 L959.4787,328.309 Q959.4787,327.5121 959.8444,326.8277 Q960.2194,326.134 960.8756,325.7684 Q961.5319,325.3934 962.2725,325.3934 Q962.7131,325.3934 963.0975,325.4965 Q963.4912,325.5902 963.8194,325.8059 Z " fill="#000000"/><text fill="#000000" font-family="sans-serif" font-size="8.4" lengthAdjust="spacing" textLength="45" x="971.64" y="331.759">SystemUser</text><line style="stroke:#181818;stroke-width:0.3;" x1="948.9" x2="1022.7" y1="337.8809" y2="337.8809"/><text fill="#000000" font-family="sans-serif" font-size="8.4" lengthAdjust="spacing" textLength="67.8" x="951.9" y="349.3453">-username: String</text><text fill="#000000" font-family="sans-serif" font-size="8.4" lengthAdjust="spacing" textLength="66" x="951.9" y="360.518">-password: String</text><text fill="#000000" font-family="sans-serif" font-size="8.4" lengthAdjust="spacing" textLength="51" x="951.9" y="371.6906">-name: String</text><text fill="#000000" font-family="sans-serif" font-size="8.4" lengthAdjust="spacing" textLength="50.4" x="951.9" y="382.8633">-Email: String</text><text fill="#000000" font-family="sans-serif" font-size="8.4" lengthAdjust="spacing" textLength="60.6" x="951.9" y="394.0359">-active: boolean</text><line style="stroke:#181818;stroke-width:0.3;" x1="948.9" x2="1022.7" y1="398.5441" y2="398.5441"/></g><g id="elem_GMN12"><path d="M723,440.4809 L723,487.9793 L907.8,487.9793 L907.8,446.4809 L901.8,440.4809 L723,440.4809 " fill="#FEFFDD" style="stroke:#181818;stroke-width:0.3;"/><path d="M901.8,440.4809 L901.8,446.4809 L907.8,446.4809 L901.8,440.4809 " fill="#FEFFDD" style="stroke:#181818;stroke-width:0.6;"/><text fill="#000000" font-family="sans-serif" font-size="7.8" lengthAdjust="spacing" textLength="138.6" x="726.6" y="451.8979">The properties of the user are simplified.</text><text fill="#000000" font-family="sans-serif" font-size="7.8" lengthAdjust="spacing" textLength="141" x="726.6" y="462.2725">In reality there is actually a Value Object</text><text fill="#000000" font-family="sans-serif" font-size="7.8" lengthAdjust="spacing" textLength="140.4" x="726.6" y="472.6471">for all the properties, expect the "active".</text><text fill="#000000" font-family="sans-serif" font-size="7.8" lengthAdjust="spacing" textLength="172.2" x="726.6" y="483.0217">Other not relevant properties are not being shown.</text></g><!--class AuthorizationService--><g id="elem_AuthorizationService"><rect codeLine="50" fill="#F1F1F1" height="95.8359" id="AuthorizationService" rx="1.5" ry="1.5" style="stroke:#181818;stroke-width:0.3;" width="170.4" x="500.7" y="430.5809"/><ellipse cx="544.65" cy="440.1809" fill="#ADD1B2" rx="6.6" ry="6.6" style="stroke:#181818;stroke-width:0.6;"/><path d="M546.3094,437.7059 Q546.4031,437.5746 546.5156,437.509 Q546.6281,437.4434 546.7594,437.4434 Q546.9844,437.4434 547.125,437.6027 Q547.2656,437.7527 547.2656,438.1184 L547.2656,438.9902 Q547.2656,439.3559 547.125,439.5152 Q546.9844,439.6746 546.7594,439.6746 Q546.5531,439.6746 546.4313,439.5527 Q546.3094,439.4402 546.2438,439.1309 Q546.2156,438.9152 546.1031,438.8027 Q545.9063,438.5777 545.5406,438.4465 Q545.175,438.3152 544.8,438.3152 Q544.3406,438.3152 543.9563,438.5121 Q543.5813,438.709 543.2813,439.159 Q542.9906,439.609 542.9906,440.2277 L542.9906,440.884 Q542.9906,441.6246 543.525,442.1215 Q544.0594,442.609 545.0156,442.609 Q545.5781,442.609 545.9719,442.459 Q546.2063,442.3652 546.4594,442.1027 Q546.6188,441.9434 546.7031,441.8965 Q546.7969,441.8496 546.9187,441.8496 Q547.1156,441.8496 547.2656,442.009 Q547.425,442.159 547.425,442.3652 Q547.425,442.5715 547.2188,442.8152 Q546.9187,443.1621 546.4406,443.359 Q545.7937,443.6309 545.0156,443.6309 Q544.1062,443.6309 543.3844,443.2559 Q542.7937,442.9559 542.3813,442.3184 Q541.9688,441.6715 541.9688,440.9027 L541.9688,440.209 Q541.9688,439.4121 542.3344,438.7277 Q542.7094,438.034 543.3656,437.6684 Q544.0219,437.2934 544.7625,437.2934 Q545.2031,437.2934 545.5875,437.3965 Q545.9812,437.4902 546.3094,437.7059 Z " fill="#000000"/><text fill="#000000" font-family="sans-serif" font-size="8.4" lengthAdjust="spacing" textLength="77.4" x="556.95" y="443.659">AuthorizationService</text><line style="stroke:#181818;stroke-width:0.3;" x1="501.3" x2="670.5" y1="449.7809" y2="449.7809"/><line style="stroke:#181818;stroke-width:0.3;" x1="501.3" x2="670.5" y1="454.5809" y2="454.5809"/><text fill="#000000" font-family="sans-serif" font-size="8.4" lengthAdjust="spacing" textLength="112.2" x="504.3" y="466.0453">+createSessionForUser(user)</text><text fill="#000000" font-family="sans-serif" font-size="8.4" lengthAdjust="spacing" textLength="59.4" x="504.3" y="477.218">+clearSession()</text><text fill="#000000" font-family="sans-serif" font-size="8.4" lengthAdjust="spacing" textLength="54.6" x="504.3" y="488.3906">+hasSession()</text><text fill="#000000" font-family="sans-serif" font-size="8.4" lengthAdjust="spacing" textLength="39.6" x="504.3" y="499.5633">+session()</text><text fill="#000000" font-family="sans-serif" font-size="8.4" lengthAdjust="spacing" textLength="163.2" x="504.3" y="510.7359">+ensureAuthenticatedUserHasAnyOf(roles)</text><text fill="#000000" font-family="sans-serif" font-size="8.4" lengthAdjust="spacing" textLength="141.6" x="504.3" y="521.9086">+loggedinUserWithPermissions(roles)</text></g><!--class UserSession--><g id="elem_UserSession"><rect codeLine="58" fill="#F1F1F1" height="51.1453" id="UserSession" rx="1.5" ry="1.5" style="stroke:#181818;stroke-width:0.3;" width="87.6" x="771.6" y="368.4809"/><ellipse cx="790.05" cy="378.0809" fill="#ADD1B2" rx="6.6" ry="6.6" style="stroke:#181818;stroke-width:0.6;"/><path d="M791.7094,375.6059 Q791.8031,375.4746 791.9156,375.409 Q792.0281,375.3434 792.1594,375.3434 Q792.3844,375.3434 792.525,375.5027 Q792.6656,375.6527 792.6656,376.0184 L792.6656,376.8902 Q792.6656,377.2559 792.525,377.4152 Q792.3844,377.5746 792.1594,377.5746 Q791.9531,377.5746 791.8313,377.4527 Q791.7094,377.3402 791.6438,377.0309 Q791.6156,376.8152 791.5031,376.7027 Q791.3063,376.4777 790.9406,376.3465 Q790.575,376.2152 790.2,376.2152 Q789.7406,376.2152 789.3562,376.4121 Q788.9812,376.609 788.6813,377.059 Q788.3906,377.509 788.3906,378.1277 L788.3906,378.784 Q788.3906,379.5246 788.925,380.0215 Q789.4594,380.509 790.4156,380.509 Q790.9781,380.509 791.3719,380.359 Q791.6062,380.2652 791.8594,380.0027 Q792.0188,379.8434 792.1031,379.7965 Q792.1969,379.7496 792.3188,379.7496 Q792.5156,379.7496 792.6656,379.909 Q792.825,380.059 792.825,380.2652 Q792.825,380.4715 792.6188,380.7152 Q792.3188,381.0621 791.8406,381.259 Q791.1938,381.5309 790.4156,381.5309 Q789.5063,381.5309 788.7844,381.1559 Q788.1938,380.8559 787.7813,380.2184 Q787.3688,379.5715 787.3688,378.8027 L787.3688,378.109 Q787.3688,377.3121 787.7344,376.6277 Q788.1094,375.934 788.7656,375.5684 Q789.4219,375.1934 790.1625,375.1934 Q790.6031,375.1934 790.9875,375.2965 Q791.3813,375.3902 791.7094,375.6059 Z " fill="#000000"/><text fill="#000000" font-family="sans-serif" font-size="8.4" lengthAdjust="spacing" textLength="47.4" x="800.55" y="381.559">UserSession</text><line style="stroke:#181818;stroke-width:0.3;" x1="772.2" x2="858.6" y1="387.6809" y2="387.6809"/><text fill="#000000" font-family="sans-serif" font-size="8.4" lengthAdjust="spacing" textLength="47.4" x="775.2" y="399.1453">-token: UUID</text><text fill="#000000" font-family="sans-serif" font-size="8.4" lengthAdjust="spacing" textLength="80.4" x="775.2" y="410.318">-startedOn: Calendar</text><line style="stroke:#181818;stroke-width:0.3;" x1="772.2" x2="858.6" y1="414.8262" y2="414.8262"/></g><!--class DomainRepository--><g id="elem_DomainRepository"><rect codeLine="64" fill="#F1F1F1" height="151.6992" id="DomainRepository" rx="1.5" ry="1.5" style="stroke:#181818;stroke-width:0.3;" width="109.2" x="531.3" y="196.2809"/><ellipse cx="549.48" cy="205.8809" fill="#ADD1B2" rx="6.6" ry="6.6" style="stroke:#181818;stroke-width:0.6;"/><path d="M551.1394,203.4059 Q551.2331,203.2746 551.3456,203.209 Q551.4581,203.1434 551.5894,203.1434 Q551.8144,203.1434 551.955,203.3027 Q552.0956,203.4527 552.0956,203.8184 L552.0956,204.6902 Q552.0956,205.0559 551.955,205.2152 Q551.8144,205.3746 551.5894,205.3746 Q551.3831,205.3746 551.2612,205.2527 Q551.1394,205.1402 551.0737,204.8309 Q551.0456,204.6152 550.9331,204.5027 Q550.7362,204.2777 550.3706,204.1465 Q550.005,204.0152 549.63,204.0152 Q549.1706,204.0152 548.7863,204.2121 Q548.4113,204.409 548.1112,204.859 Q547.8206,205.309 547.8206,205.9277 L547.8206,206.584 Q547.8206,207.3246 548.355,207.8215 Q548.8894,208.309 549.8456,208.309 Q550.4081,208.309 550.8019,208.159 Q551.0363,208.0652 551.2894,207.8027 Q551.4487,207.6434 551.5331,207.5965 Q551.6269,207.5496 551.7488,207.5496 Q551.9456,207.5496 552.0956,207.709 Q552.255,207.859 552.255,208.0652 Q552.255,208.2715 552.0487,208.5152 Q551.7488,208.8621 551.2706,209.059 Q550.6238,209.3309 549.8456,209.3309 Q548.9363,209.3309 548.2144,208.9559 Q547.6238,208.6559 547.2113,208.0184 Q546.7987,207.3715 546.7987,206.6027 L546.7987,205.909 Q546.7987,205.1121 547.1644,204.4277 Q547.5394,203.734 548.1956,203.3684 Q548.8519,202.9934 549.5925,202.9934 Q550.0331,202.9934 550.4175,203.0965 Q550.8113,203.1902 551.1394,203.4059 Z " fill="#000000"/><text fill="#000000" font-family="sans-serif" font-size="8.4" lengthAdjust="spacing" textLength="69.6" x="559.92" y="209.359">DomainRepository</text><line style="stroke:#181818;stroke-width:0.3;" x1="531.9" x2="639.9" y1="215.4809" y2="215.4809"/><line style="stroke:#181818;stroke-width:0.3;" x1="531.9" x2="639.9" y1="220.2809" y2="220.2809"/><text fill="#000000" font-family="sans-serif" font-size="8.4" lengthAdjust="spacing" textLength="49.2" x="534.9" y="231.7453">+save(entity)</text><text fill="#000000" font-family="sans-serif" font-size="8.4" lengthAdjust="spacing" textLength="33.6" x="534.9" y="242.918">+findAll()</text><text fill="#000000" font-family="sans-serif" font-size="8.4" lengthAdjust="spacing" textLength="51.6" x="534.9" y="254.0906">+ofIdentity(id)</text><text fill="#000000" font-family="sans-serif" font-size="8.4" lengthAdjust="spacing" textLength="85.2" x="534.9" y="265.2633">+containsOfIdentity(id)</text><text fill="#000000" font-family="sans-serif" font-size="8.4" lengthAdjust="spacing" textLength="63" x="534.9" y="276.4359">+contains(entity)</text><text fill="#000000" font-family="sans-serif" font-size="8.4" lengthAdjust="spacing" textLength="57" x="534.9" y="287.6086">+delete (entity)</text><text fill="#000000" font-family="sans-serif" font-size="8.4" lengthAdjust="spacing" textLength="97.2" x="534.9" y="298.7813">+deleteOfIdentity(entityId)</text><text fill="#000000" font-family="sans-serif" font-size="8.4" lengthAdjust="spacing" textLength="31.8" x="534.9" y="309.9539">+count()</text><text fill="#000000" font-family="sans-serif" font-size="8.4" lengthAdjust="spacing" textLength="25.2" x="534.9" y="321.1266">+size()</text><text fill="#000000" font-family="sans-serif" font-size="8.4" lengthAdjust="spacing" textLength="59.4" x="534.9" y="332.2992">+remove(entity)</text><text fill="#000000" font-family="sans-serif" font-size="8.4" lengthAdjust="spacing" textLength="102" x="534.9" y="343.4719">+removeOfIdentity(entityId)</text></g><!--class UserRepository--><g id="elem_UserRepository"><rect codeLine="78" fill="#F1F1F1" height="39.9727" id="UserRepository" rx="1.5" ry="1.5" style="stroke:#181818;stroke-width:0.3;" width="86.4" x="772.2" y="307.2809"/><ellipse cx="785.25" cy="316.8809" fill="#ADD1B2" rx="6.6" ry="6.6" style="stroke:#181818;stroke-width:0.6;"/><path d="M786.9094,314.4059 Q787.0031,314.2746 787.1156,314.209 Q787.2281,314.1434 787.3594,314.1434 Q787.5844,314.1434 787.725,314.3027 Q787.8656,314.4527 787.8656,314.8184 L787.8656,315.6902 Q787.8656,316.0559 787.725,316.2152 Q787.5844,316.3746 787.3594,316.3746 Q787.1531,316.3746 787.0313,316.2527 Q786.9094,316.1402 786.8438,315.8309 Q786.8156,315.6152 786.7031,315.5027 Q786.5063,315.2777 786.1406,315.1465 Q785.775,315.0152 785.4,315.0152 Q784.9406,315.0152 784.5563,315.2121 Q784.1813,315.409 783.8813,315.859 Q783.5906,316.309 783.5906,316.9277 L783.5906,317.584 Q783.5906,318.3246 784.125,318.8215 Q784.6594,319.309 785.6156,319.309 Q786.1781,319.309 786.5719,319.159 Q786.8063,319.0652 787.0594,318.8027 Q787.2188,318.6434 787.3031,318.5965 Q787.3969,318.5496 787.5188,318.5496 Q787.7156,318.5496 787.8656,318.709 Q788.025,318.859 788.025,319.0652 Q788.025,319.2715 787.8188,319.5152 Q787.5188,319.8621 787.0406,320.059 Q786.3938,320.3309 785.6156,320.3309 Q784.7063,320.3309 783.9844,319.9559 Q783.3938,319.6559 782.9812,319.0184 Q782.5688,318.3715 782.5688,317.6027 L782.5688,316.909 Q782.5688,316.1121 782.9344,315.4277 Q783.3094,314.734 783.9656,314.3684 Q784.6219,313.9934 785.3625,313.9934 Q785.8031,313.9934 786.1875,314.0965 Q786.5813,314.1902 786.9094,314.4059 Z " fill="#000000"/><text fill="#000000" font-family="sans-serif" font-size="8.4" lengthAdjust="spacing" textLength="58.2" x="794.55" y="320.359">UserRepository</text><line style="stroke:#181818;stroke-width:0.3;" x1="772.8" x2="858" y1="326.4809" y2="326.4809"/><line style="stroke:#181818;stroke-width:0.3;" x1="772.8" x2="858" y1="331.2809" y2="331.2809"/><text fill="#000000" font-family="sans-serif" font-size="8.4" lengthAdjust="spacing" textLength="79.2" x="775.8" y="342.7453">+findByActive(active)</text></g><!--class ECourseRoles--><g id="elem_ECourseRoles"><rect codeLine="94" fill="#F1F1F1" height="73.4906" id="ECourseRoles" rx="1.5" ry="1.5" style="stroke:#181818;stroke-width:0.3;" width="84" x="943.8" y="49.5809"/><ellipse cx="957.39" cy="59.1809" fill="#ADD1B2" rx="6.6" ry="6.6" style="stroke:#181818;stroke-width:0.6;"/><path d="M959.0494,56.7059 Q959.1431,56.5746 959.2556,56.509 Q959.3681,56.4434 959.4994,56.4434 Q959.7244,56.4434 959.865,56.6027 Q960.0056,56.7527 960.0056,57.1184 L960.0056,57.9902 Q960.0056,58.3559 959.865,58.5152 Q959.7244,58.6746 959.4994,58.6746 Q959.2931,58.6746 959.1713,58.5527 Q959.0494,58.4402 958.9838,58.1309 Q958.9556,57.9152 958.8431,57.8027 Q958.6463,57.5777 958.2806,57.4465 Q957.915,57.3152 957.54,57.3152 Q957.0806,57.3152 956.6963,57.5121 Q956.3213,57.709 956.0213,58.159 Q955.7306,58.609 955.7306,59.2277 L955.7306,59.884 Q955.7306,60.6246 956.265,61.1215 Q956.7994,61.609 957.7556,61.609 Q958.3181,61.609 958.7119,61.459 Q958.9463,61.3652 959.1994,61.1027 Q959.3588,60.9434 959.4431,60.8965 Q959.5369,60.8496 959.6588,60.8496 Q959.8556,60.8496 960.0056,61.009 Q960.165,61.159 960.165,61.3652 Q960.165,61.5715 959.9588,61.8152 Q959.6588,62.1621 959.1806,62.359 Q958.5338,62.6309 957.7556,62.6309 Q956.8463,62.6309 956.1244,62.2559 Q955.5338,61.9559 955.1213,61.3184 Q954.7088,60.6715 954.7088,59.9027 L954.7088,59.209 Q954.7088,58.4121 955.0744,57.7277 Q955.4494,57.034 956.1056,56.6684 Q956.7619,56.2934 957.5025,56.2934 Q957.9431,56.2934 958.3275,56.3965 Q958.7213,56.4902 959.0494,56.7059 Z " fill="#000000"/><text fill="#000000" font-family="sans-serif" font-size="8.4" lengthAdjust="spacing" textLength="54.6" x="966.81" y="62.659">ECourseRoles</text><line style="stroke:#181818;stroke-width:0.3;" x1="944.4" x2="1027.2" y1="68.7809" y2="68.7809"/><text fill="#000000" font-family="sans-serif" font-size="8.4" lengthAdjust="spacing" text-decoration="underline" textLength="65.4" x="947.4" y="80.2453">+STUDENT: Role</text><text fill="#000000" font-family="sans-serif" font-size="8.4" lengthAdjust="spacing" text-decoration="underline" textLength="66" x="947.4" y="91.418">+TEACHER: Role</text><text fill="#000000" font-family="sans-serif" font-size="8.4" lengthAdjust="spacing" text-decoration="underline" textLength="67.8" x="947.4" y="102.5906">+MANAGER: Role</text><text fill="#000000" font-family="sans-serif" font-size="8.4" lengthAdjust="spacing" text-decoration="underline" textLength="76.8" x="947.4" y="113.7633">+SUPERUSER: Role</text><line style="stroke:#181818;stroke-width:0.3;" x1="944.4" x2="1027.2" y1="118.2715" y2="118.2715"/></g><!--link CredentialHandler to AuthenticationCredentialHandler--><g id="link_CredentialHandler_AuthenticationCredentialHandler"><path codeLine="26" d="M215.526,102.3809 C290.982,102.3809 394.302,102.3809 472.542,102.3809 " fill="none" id="CredentialHandler-to-AuthenticationCredentialHandler" style="stroke:#181818;stroke-width:0.6;stroke-dasharray:7.0,7.0;"/><polygon fill="none" points="472.632,98.1809,484.632,102.3809,472.632,106.5809,472.632,98.1809" style="stroke:#181818;stroke-width:0.6;"/></g><!--link GMN12 to SystemUser--><g id="link_GMN12_SystemUser"><path d="M887.892,440.3909 C894.786,437.2289 901.536,433.7549 907.8,429.9809 C922.062,421.3889 936.12,409.9949 948.264,398.9489 " fill="none" id="GMN12-SystemUser" style="stroke:#181818;stroke-width:0.6;stroke-dasharray:7.0,7.0;"/></g><!--reverse link DomainRepository to UserRepository--><g id="link_DomainRepository_UserRepository"><path codeLine="82" d="M652.506,288.1409 C691.026,297.4529 738.498,308.9309 772.122,317.0609 " fill="none" id="DomainRepository-backto-UserRepository" style="stroke:#181818;stroke-width:0.6;"/><polygon fill="none" points="651.282,292.1669,640.602,285.2609,653.256,284.0009,651.282,292.1669" style="stroke:#181818;stroke-width:0.6;"/></g><!--link Authenticator to AuthenticationService--><g id="link_Authenticator_AuthenticationService"><path codeLine="85" d="M448.83,389.1809 C457.5,389.1809 466.314,389.1809 475.074,389.1809 " fill="none" id="Authenticator-to-AuthenticationService" style="stroke:#181818;stroke-width:0.6;stroke-dasharray:7.0,7.0;"/><polygon fill="none" points="475.182,384.9809,487.182,389.1809,475.182,393.3809,475.182,384.9809" style="stroke:#181818;stroke-width:0.6;"/></g><!--link Authenticator to AuthorizationService--><g id="link_Authenticator_AuthorizationService"><path codeLine="86" d="M403.644,409.3529 C432.222,420.2489 468.192,433.9529 500.562,446.2889 " fill="none" id="Authenticator-AuthorizationService" style="stroke:#181818;stroke-width:0.6;"/><text fill="#000000" font-family="sans-serif" font-size="7.8" lengthAdjust="spacing" textLength="4.2" x="408.6075" y="422.3072">1</text><text fill="#000000" font-family="sans-serif" font-size="7.8" lengthAdjust="spacing" textLength="4.2" x="491.5802" y="453.228">1</text></g><!--link AuthorizationService to UserSession--><g id="link_AuthorizationService_UserSession"><path codeLine="87" d="M671.184,447.2009 C705.324,434.5469 743.232,420.5009 771.528,410.0189 " fill="none" id="AuthorizationService-UserSession" style="stroke:#181818;stroke-width:0.6;"/><text fill="#000000" font-family="sans-serif" font-size="7.8" lengthAdjust="spacing" textLength="4.2" x="675.9628" y="454.1899">1</text><text fill="#000000" font-family="sans-serif" font-size="7.8" lengthAdjust="spacing" textLength="13.2" x="753.6521" y="419.9892">0..1</text></g><!--link UserSession to SystemUser--><g id="link_UserSession_SystemUser"><path codeLine="88" d="M859.356,385.5269 C886.866,380.1569 922.086,373.2929 948.264,368.1869 " fill="none" id="UserSession-SystemUser" style="stroke:#181818;stroke-width:0.6;"/><text fill="#000000" font-family="sans-serif" font-size="7.8" lengthAdjust="spacing" textLength="4.2" x="864.1055" y="393.5995">1</text><text fill="#000000" font-family="sans-serif" font-size="7.8" lengthAdjust="spacing" textLength="4.2" x="939.2334" y="378.1104">1</text></g><!--link LoginUI to CredentialHandler--><g id="link_LoginUI_CredentialHandler"><path codeLine="104" d="M114.3,168.8969 C114.3,153.4829 114.3,138.0629 114.3,122.6489 " fill="none" id="LoginUI-CredentialHandler" style="stroke:#181818;stroke-width:0.6;"/><text fill="#000000" font-family="sans-serif" font-size="7.8" lengthAdjust="spacing" textLength="4.2" x="109.8572" y="162.2759">1</text><text fill="#000000" font-family="sans-serif" font-size="7.8" lengthAdjust="spacing" textLength="4.2" x="109.7391" y="135.4605">1</text></g><!--link CredentialHandler to Authenticator--><g id="link_CredentialHandler_Authenticator"><path codeLine="107" d="M161.886,122.5049 C180.066,131.8649 200.13,144.2969 215.4,159.3809 C280.47,223.6529 325.104,325.9709 341.988,369.0389 " fill="none" id="CredentialHandler-Authenticator" style="stroke:#181818;stroke-width:0.6;"/><text fill="#000000" font-family="sans-serif" font-size="7.8" lengthAdjust="spacing" textLength="4.2" x="165.7882" y="135.4507">1</text><text fill="#000000" font-family="sans-serif" font-size="7.8" lengthAdjust="spacing" textLength="4.2" x="335.7775" y="362.3259">1</text></g><!--link AuthenticationService to UserRepository--><g id="link_AuthenticationService_UserRepository"><path codeLine="110" d="M665.016,369.0509 C677.262,365.5709 689.718,361.8269 701.4,357.9809 C711.186,354.7589 713.172,352.6649 723,349.5809 C738.804,344.6249 756.426,340.1189 771.972,336.4889 " fill="none" id="AuthenticationService-UserRepository" style="stroke:#181818;stroke-width:0.6;"/><text fill="#000000" font-family="sans-serif" font-size="7.8" lengthAdjust="spacing" textLength="4.2" x="675.9785" y="362.3403">1</text><text fill="#000000" font-family="sans-serif" font-size="7.8" lengthAdjust="spacing" textLength="4.2" x="763.0769" y="346.3918">1</text></g><!--link UserRepository to SystemUser--><g id="link_UserRepository_SystemUser"><path codeLine="113" d="M858.696,335.8589 C886.302,341.3429 921.876,348.4049 948.264,353.6489 " fill="none" id="UserRepository-SystemUser" style="stroke:#181818;stroke-width:0.6;"/><text fill="#000000" font-family="sans-serif" font-size="7.8" lengthAdjust="spacing" textLength="4.2" x="863.3775" y="345.6968">1</text><text fill="#000000" font-family="sans-serif" font-size="7.8" lengthAdjust="spacing" textLength="3" x="940.5065" y="361.8006">*</text></g><!--link SystemUser to ECourseRoles--><g id="link_SystemUser_ECourseRoles"><path codeLine="116" d="M985.8,318.5789 C985.8,253.3709 985.8,188.1569 985.8,122.9489 " fill="none" id="SystemUser-ECourseRoles" style="stroke:#181818;stroke-width:0.6;"/><text fill="#000000" font-family="sans-serif" font-size="7.8" lengthAdjust="spacing" textLength="4.2" x="981.3834" y="311.9029">1</text><text fill="#000000" font-family="sans-serif" font-size="7.8" lengthAdjust="spacing" textLength="3" x="982.6266" y="136.2001">*</text></g><!--SRC=[hLLHRzCm47xthpZjPGMsQhnE22cq6QkqhTEI0c-JrrnRCySEjZCeiF_EsMaQjmq22VhG97VdxxuxVpxRHw4gRdW9SycjJPmpug5sE9bhbOdl26UC7HV2uDm9hPZ4XGEdmOZboa5dPyTEE8ai_4DIknKg9-RSEo5RMuSbZ7m260k-f7ICLNp-o9S8imdyO24vNEcbKE4RJc6SNYIpg_p-Elbqd-HvUdsRP-SWb6D0Ngta-gDmgtmbx3dSQShjpIN_HYLWMJdRnhvgOGSZWuMdnUKbLuL4Sn8Mlg2WP_RSCVBqYGCjHxFWSuI3XPuX0VEkJYm6jKMZU8adK54nNxKfJi3WbvgQL3HvA4TJw6w3_X_y8T9mEFpvza_vukBJvFPgSa4xX9JYSQSD4Ohku_XN5FiQaA5v4fJWdo0RbSriQDyfj0lF8ID9goMPMeJ8j1UHbbp8w9kJkfyeu45JAguebz8E8Pm2lOXI4l5yXL0PNQ5n0grtKnc11d23O4LPIR4GM0mfUAAe2Yw5M_ieSWlhazLSoZLm-C1bZJ1z-4p7Yw8Nr6xo1C0knGdWjue2WlceeNhamQSU4eWfvP3un9MBYNaotlU0L2FObVwgXWnLuOqO2rGRyNrlUrx1d6WxpD1QSbneuuiFc_J2Ewb9PkCRUCEAs_ZJHk-eR6qmYINkiIwvJTHwkXWOwhZrWL8lbrZG0IQlF_6tQ4eHS6mRr4h0Xspo1Gqu_OZg76QpoPY-hEE6iap9CkAIAkPU-AtkgJrMq7QgKEW6SAn94EeEAsq5QNuTMc3v4muyQRVs_1P25OcKeIYzc1IDPo2Aq16j727OwUyS4L11cqNYEh14Qvl7P8DGAzUqbUPqU35OwXrkZQ4NO3kBVDFsAlGblLidGL63HbXXmK4xuCtFqzCz11-uEobwHj16Kdk1Hw-FWF3yeq-0h5ULxIBeVcV38HaZDR1O6L6Mw00Jwsu85g7GxRsKZdHjBFfvOqE3Vf2MYFGpPFbidDxacnieSkHfChfCxmuTrybDyhxFaSrkqxjPjdM5AuaTU_qJbLhumqIZORuTtcHefdTxROR2J5FPuOmdgCEr3QYAPwusFTV8tivqeOJATszxkzcNXcwOnv4u-WT_1Byd9e_V357JoSv3tyIRjwVX5kxbpWvtKCtwC3nOT6ri-qVhuYrdx1S0]--></g></svg>